%TF.GenerationSoftware,KiCad,Pcbnew,6.0.2+dfsg-1*%
%TF.CreationDate,2023-01-19T15:29:42-05:00*%
%TF.ProjectId,sensor-board,73656e73-6f72-42d6-926f-6172642e6b69,rev?*%
%TF.SameCoordinates,Original*%
%TF.FileFunction,Copper,L4,Bot*%
%TF.FilePolarity,Positive*%
%FSLAX46Y46*%
G04 Gerber Fmt 4.6, Leading zero omitted, Abs format (unit mm)*
G04 Created by KiCad (PCBNEW 6.0.2+dfsg-1) date 2023-01-19 15:29:42*
%MOMM*%
%LPD*%
G01*
G04 APERTURE LIST*
G04 Aperture macros list*
%AMRoundRect*
0 Rectangle with rounded corners*
0 $1 Rounding radius*
0 $2 $3 $4 $5 $6 $7 $8 $9 X,Y pos of 4 corners*
0 Add a 4 corners polygon primitive as box body*
4,1,4,$2,$3,$4,$5,$6,$7,$8,$9,$2,$3,0*
0 Add four circle primitives for the rounded corners*
1,1,$1+$1,$2,$3*
1,1,$1+$1,$4,$5*
1,1,$1+$1,$6,$7*
1,1,$1+$1,$8,$9*
0 Add four rect primitives between the rounded corners*
20,1,$1+$1,$2,$3,$4,$5,0*
20,1,$1+$1,$4,$5,$6,$7,0*
20,1,$1+$1,$6,$7,$8,$9,0*
20,1,$1+$1,$8,$9,$2,$3,0*%
G04 Aperture macros list end*
%TA.AperFunction,ComponentPad*%
%ADD10R,1.980000X3.960000*%
%TD*%
%TA.AperFunction,ComponentPad*%
%ADD11O,1.980000X3.960000*%
%TD*%
%TA.AperFunction,SMDPad,CuDef*%
%ADD12RoundRect,0.250000X0.350000X0.450000X-0.350000X0.450000X-0.350000X-0.450000X0.350000X-0.450000X0*%
%TD*%
%TA.AperFunction,SMDPad,CuDef*%
%ADD13RoundRect,0.250000X0.450000X-0.350000X0.450000X0.350000X-0.450000X0.350000X-0.450000X-0.350000X0*%
%TD*%
%TA.AperFunction,SMDPad,CuDef*%
%ADD14RoundRect,0.150000X0.150000X-0.587500X0.150000X0.587500X-0.150000X0.587500X-0.150000X-0.587500X0*%
%TD*%
%TA.AperFunction,SMDPad,CuDef*%
%ADD15RoundRect,0.250000X-0.275000X-0.350000X0.275000X-0.350000X0.275000X0.350000X-0.275000X0.350000X0*%
%TD*%
%TA.AperFunction,ComponentPad*%
%ADD16R,3.960000X1.980000*%
%TD*%
%TA.AperFunction,ComponentPad*%
%ADD17O,3.960000X1.980000*%
%TD*%
%TA.AperFunction,SMDPad,CuDef*%
%ADD18R,1.200000X0.900000*%
%TD*%
%TA.AperFunction,SMDPad,CuDef*%
%ADD19RoundRect,0.250000X0.475000X-0.337500X0.475000X0.337500X-0.475000X0.337500X-0.475000X-0.337500X0*%
%TD*%
%TA.AperFunction,ViaPad*%
%ADD20C,0.800000*%
%TD*%
%TA.AperFunction,Conductor*%
%ADD21C,0.250000*%
%TD*%
%TA.AperFunction,Conductor*%
%ADD22C,0.200000*%
%TD*%
G04 APERTURE END LIST*
D10*
%TO.P,J4,1,Pin_1*%
%TO.N,+3V3*%
X103000000Y-144250000D03*
D11*
%TO.P,J4,2,Pin_2*%
%TO.N,DQ*%
X98000000Y-144250000D03*
%TO.P,J4,3,Pin_3*%
%TO.N,GND*%
X93000000Y-144250000D03*
%TD*%
D12*
%TO.P,R7,1*%
%TO.N,VIN-*%
X79000000Y-135000000D03*
%TO.P,R7,2*%
%TO.N,GND*%
X77000000Y-135000000D03*
%TD*%
%TO.P,R6,1*%
%TO.N,VIN+*%
X79000000Y-141000000D03*
%TO.P,R6,2*%
%TO.N,GND*%
X77000000Y-141000000D03*
%TD*%
%TO.P,R5,1*%
%TO.N,+3V3*%
X84250000Y-143500000D03*
%TO.P,R5,2*%
%TO.N,VIN+*%
X82250000Y-143500000D03*
%TD*%
%TO.P,R4,1*%
%TO.N,Net-(D1-Pad1)*%
X109000000Y-126800000D03*
%TO.P,R4,2*%
%TO.N,GNDA*%
X107000000Y-126800000D03*
%TD*%
D13*
%TO.P,R3,1*%
%TO.N,VIN+*%
X111000000Y-128800000D03*
%TO.P,R3,2*%
%TO.N,Net-(D1-Pad1)*%
X111000000Y-126800000D03*
%TD*%
D14*
%TO.P,Q1,1,G*%
%TO.N,PCTLZ*%
X111000000Y-139250000D03*
%TO.P,Q1,2,S*%
%TO.N,+3V3*%
X109100000Y-139250000D03*
%TO.P,Q1,3,D*%
%TO.N,DQ*%
X110050000Y-137375000D03*
%TD*%
D15*
%TO.P,L1,2*%
%TO.N,GNDA*%
X101950000Y-129400000D03*
%TO.P,L1,1*%
%TO.N,GND*%
X99650000Y-129400000D03*
%TD*%
D16*
%TO.P,J3,1,Pin_1*%
%TO.N,VIN+*%
X82250000Y-141250000D03*
D17*
%TO.P,J3,2,Pin_2*%
%TO.N,VIN-*%
X82250000Y-136250000D03*
%TD*%
D18*
%TO.P,D1,1,K*%
%TO.N,Net-(D1-Pad1)*%
X113400000Y-126600000D03*
%TO.P,D1,2,A*%
%TO.N,GNDA*%
X113400000Y-129900000D03*
%TD*%
D19*
%TO.P,C3,1*%
%TO.N,VIN+*%
X78500000Y-139037500D03*
%TO.P,C3,2*%
%TO.N,VIN-*%
X78500000Y-136962500D03*
%TD*%
D20*
%TO.N,VIN-*%
X88465001Y-133784999D03*
%TO.N,Net-(R8-Pad2)*%
X97000000Y-128000000D03*
X96400000Y-130800000D03*
%TO.N,GNDA*%
X110085493Y-125738744D03*
%TO.N,Net-(D1-Pad1)*%
X111800000Y-125600000D03*
%TO.N,GNDA*%
X118000000Y-126600000D03*
%TO.N,VIN+*%
X111000000Y-130200000D03*
%TO.N,SCL*%
X115600000Y-128800000D03*
%TO.N,SDA*%
X115600000Y-129850499D03*
%TO.N,GNDA*%
X116000000Y-132200000D03*
X105000000Y-130800000D03*
X109600000Y-131600000D03*
X102000000Y-128000000D03*
%TO.N,GND*%
X91400000Y-126000000D03*
%TO.N,SCL*%
X94000000Y-129500000D03*
%TO.N,SDA*%
X93000000Y-129500000D03*
%TO.N,VIN+*%
X90000000Y-132500000D03*
X88800000Y-136400000D03*
%TO.N,GND*%
X94250000Y-133250000D03*
%TO.N,+3V3*%
X85750000Y-143500000D03*
%TO.N,GND*%
X88250000Y-131000000D03*
%TO.N,SCL*%
X84250000Y-130750000D03*
X105750000Y-140750000D03*
%TO.N,SDA*%
X84500000Y-146000000D03*
X114750000Y-140500000D03*
%TO.N,DQ*%
X109250000Y-137750000D03*
%TO.N,PCTLZ*%
X112000000Y-139250000D03*
%TO.N,+3V3*%
X110000000Y-139500000D03*
%TO.N,GND*%
X117500000Y-139250000D03*
%TO.N,Net-(JP2-Pad2)*%
X114500000Y-138000000D03*
X117750000Y-138000000D03*
%TO.N,GND*%
X106250000Y-139250000D03*
X81500000Y-145724500D03*
X78000000Y-131000000D03*
%TO.N,SCL*%
X80750000Y-132000000D03*
X79250000Y-142500000D03*
%TO.N,SDA*%
X79750000Y-131500000D03*
X79050000Y-145050000D03*
%TD*%
D21*
%TO.N,Net-(D1-Pad1)*%
X111000000Y-126400000D02*
X111800000Y-125600000D01*
X111000000Y-126800000D02*
X111000000Y-126400000D01*
X111000000Y-126800000D02*
X113200000Y-126800000D01*
X113200000Y-126800000D02*
X113400000Y-126600000D01*
X109000000Y-126800000D02*
X111000000Y-126800000D01*
D22*
%TO.N,VIN+*%
X111000000Y-130200000D02*
X111000000Y-128800000D01*
D21*
%TO.N,+3V3*%
X84250000Y-143500000D02*
X85750000Y-143500000D01*
D22*
%TO.N,VIN+*%
X82250000Y-143500000D02*
X82250000Y-141250000D01*
X79000000Y-141000000D02*
X79250000Y-141250000D01*
X79250000Y-141250000D02*
X82250000Y-141250000D01*
X78500000Y-139037500D02*
X78500000Y-140500000D01*
X78500000Y-140500000D02*
X79000000Y-141000000D01*
%TO.N,VIN-*%
X79000000Y-135000000D02*
X80000000Y-135000000D01*
X80000000Y-135000000D02*
X81250000Y-136250000D01*
X81250000Y-136250000D02*
X82250000Y-136250000D01*
X79000000Y-135000000D02*
X79000000Y-136462500D01*
X79000000Y-136462500D02*
X78500000Y-136962500D01*
D21*
%TO.N,DQ*%
X109625000Y-137375000D02*
X109250000Y-137750000D01*
X110050000Y-137375000D02*
X109625000Y-137375000D01*
%TO.N,PCTLZ*%
X111000000Y-139250000D02*
X112000000Y-139250000D01*
%TO.N,+3V3*%
X109750000Y-139250000D02*
X110000000Y-139500000D01*
X109100000Y-139250000D02*
X109750000Y-139250000D01*
%TD*%
%TA.AperFunction,Conductor*%
%TO.N,GNDA*%
G36*
X102414832Y-125261774D02*
G01*
X110782860Y-125262936D01*
X110850976Y-125282948D01*
X110897462Y-125336610D01*
X110907537Y-125406752D01*
X110906458Y-125410072D01*
X110905769Y-125416631D01*
X110905768Y-125416634D01*
X110889093Y-125575292D01*
X110862080Y-125640949D01*
X110852865Y-125651231D01*
X110849486Y-125654609D01*
X110787169Y-125688624D01*
X110760404Y-125691500D01*
X110499600Y-125691500D01*
X110496354Y-125691837D01*
X110496350Y-125691837D01*
X110400692Y-125701762D01*
X110400688Y-125701763D01*
X110393834Y-125702474D01*
X110387298Y-125704655D01*
X110387296Y-125704655D01*
X110260811Y-125746854D01*
X110226054Y-125758450D01*
X110075652Y-125851522D01*
X110075393Y-125851103D01*
X110013982Y-125875958D01*
X109944218Y-125862786D01*
X109912513Y-125839748D01*
X109828488Y-125755870D01*
X109828483Y-125755866D01*
X109823303Y-125750695D01*
X109748613Y-125704655D01*
X109678968Y-125661725D01*
X109678966Y-125661724D01*
X109672738Y-125657885D01*
X109546235Y-125615926D01*
X109511389Y-125604368D01*
X109511387Y-125604368D01*
X109504861Y-125602203D01*
X109498025Y-125601503D01*
X109498022Y-125601502D01*
X109454969Y-125597091D01*
X109400400Y-125591500D01*
X108599600Y-125591500D01*
X108596354Y-125591837D01*
X108596350Y-125591837D01*
X108500692Y-125601762D01*
X108500688Y-125601763D01*
X108493834Y-125602474D01*
X108487298Y-125604655D01*
X108487296Y-125604655D01*
X108436812Y-125621498D01*
X108326054Y-125658450D01*
X108175652Y-125751522D01*
X108170479Y-125756704D01*
X108088862Y-125838463D01*
X108026579Y-125872542D01*
X107955759Y-125867539D01*
X107910671Y-125838618D01*
X107828171Y-125756261D01*
X107816760Y-125747249D01*
X107678757Y-125662184D01*
X107665576Y-125656037D01*
X107511290Y-125604862D01*
X107497914Y-125601995D01*
X107403562Y-125592328D01*
X107397145Y-125592000D01*
X107272115Y-125592000D01*
X107256876Y-125596475D01*
X107255671Y-125597865D01*
X107254000Y-125605548D01*
X107254000Y-127989884D01*
X107258475Y-128005123D01*
X107259865Y-128006328D01*
X107267548Y-128007999D01*
X107397095Y-128007999D01*
X107403614Y-128007662D01*
X107499206Y-127997743D01*
X107512600Y-127994851D01*
X107666784Y-127943412D01*
X107679962Y-127937239D01*
X107817807Y-127851937D01*
X107829208Y-127842901D01*
X107910430Y-127761538D01*
X107972713Y-127727459D01*
X108043533Y-127732462D01*
X108088620Y-127761383D01*
X108171512Y-127844130D01*
X108171517Y-127844134D01*
X108176697Y-127849305D01*
X108182927Y-127853145D01*
X108182928Y-127853146D01*
X108320288Y-127937816D01*
X108327262Y-127942115D01*
X108407005Y-127968564D01*
X108488611Y-127995632D01*
X108488613Y-127995632D01*
X108495139Y-127997797D01*
X108501975Y-127998497D01*
X108501978Y-127998498D01*
X108545031Y-128002909D01*
X108599600Y-128008500D01*
X109400400Y-128008500D01*
X109403646Y-128008163D01*
X109403650Y-128008163D01*
X109499308Y-127998238D01*
X109499312Y-127998237D01*
X109506166Y-127997526D01*
X109512702Y-127995345D01*
X109512704Y-127995345D01*
X109644806Y-127951272D01*
X109673946Y-127941550D01*
X109680179Y-127937693D01*
X109703132Y-127923490D01*
X109771584Y-127904653D01*
X109839353Y-127925815D01*
X109884923Y-127980257D01*
X109893826Y-128050693D01*
X109876693Y-128096749D01*
X109857885Y-128127262D01*
X109802203Y-128295139D01*
X109801503Y-128301975D01*
X109801502Y-128301978D01*
X109800668Y-128310116D01*
X109791500Y-128399600D01*
X109791500Y-129200400D01*
X109802474Y-129306166D01*
X109804655Y-129312702D01*
X109804655Y-129312704D01*
X109829859Y-129388249D01*
X109858450Y-129473946D01*
X109951522Y-129624348D01*
X110076697Y-129749305D01*
X110082927Y-129753145D01*
X110082928Y-129753146D01*
X110087753Y-129756120D01*
X110135246Y-129808892D01*
X110146670Y-129878964D01*
X110141470Y-129902316D01*
X110106458Y-130010072D01*
X110105768Y-130016633D01*
X110105768Y-130016635D01*
X110099745Y-130073946D01*
X110086496Y-130200000D01*
X110087186Y-130206565D01*
X110102551Y-130352751D01*
X110106458Y-130389928D01*
X110165473Y-130571556D01*
X110260960Y-130736944D01*
X110265378Y-130741851D01*
X110265379Y-130741852D01*
X110361386Y-130848479D01*
X110388747Y-130878866D01*
X110543248Y-130991118D01*
X110549276Y-130993802D01*
X110549278Y-130993803D01*
X110711681Y-131066109D01*
X110717712Y-131068794D01*
X110811112Y-131088647D01*
X110898056Y-131107128D01*
X110898061Y-131107128D01*
X110904513Y-131108500D01*
X111095487Y-131108500D01*
X111101939Y-131107128D01*
X111101944Y-131107128D01*
X111188888Y-131088647D01*
X111282288Y-131068794D01*
X111288319Y-131066109D01*
X111450722Y-130993803D01*
X111450724Y-130993802D01*
X111456752Y-130991118D01*
X111611253Y-130878866D01*
X111638614Y-130848479D01*
X111734621Y-130741852D01*
X111734622Y-130741851D01*
X111739040Y-130736944D01*
X111834527Y-130571556D01*
X111892002Y-130394669D01*
X112292001Y-130394669D01*
X112292371Y-130401490D01*
X112297895Y-130452352D01*
X112301521Y-130467604D01*
X112346676Y-130588054D01*
X112355214Y-130603649D01*
X112431715Y-130705724D01*
X112444276Y-130718285D01*
X112546351Y-130794786D01*
X112561946Y-130803324D01*
X112682394Y-130848478D01*
X112697649Y-130852105D01*
X112748514Y-130857631D01*
X112755328Y-130858000D01*
X113127885Y-130858000D01*
X113143124Y-130853525D01*
X113144329Y-130852135D01*
X113146000Y-130844452D01*
X113146000Y-130839884D01*
X113654000Y-130839884D01*
X113658475Y-130855123D01*
X113659865Y-130856328D01*
X113667548Y-130857999D01*
X114044669Y-130857999D01*
X114051490Y-130857629D01*
X114102352Y-130852105D01*
X114117604Y-130848479D01*
X114238054Y-130803324D01*
X114253649Y-130794786D01*
X114355724Y-130718285D01*
X114368285Y-130705724D01*
X114444786Y-130603649D01*
X114453324Y-130588054D01*
X114498478Y-130467606D01*
X114502105Y-130452351D01*
X114507631Y-130401486D01*
X114508000Y-130394672D01*
X114508000Y-130225167D01*
X114528002Y-130157046D01*
X114581658Y-130110553D01*
X114651932Y-130100449D01*
X114716512Y-130129943D01*
X114753833Y-130186231D01*
X114765473Y-130222055D01*
X114860960Y-130387443D01*
X114865378Y-130392350D01*
X114865379Y-130392351D01*
X114969509Y-130507999D01*
X114988747Y-130529365D01*
X115143248Y-130641617D01*
X115149276Y-130644301D01*
X115149278Y-130644302D01*
X115287235Y-130705724D01*
X115317712Y-130719293D01*
X115400753Y-130736944D01*
X115498056Y-130757627D01*
X115498061Y-130757627D01*
X115504513Y-130758999D01*
X115695487Y-130758999D01*
X115701939Y-130757627D01*
X115701944Y-130757627D01*
X115799247Y-130736944D01*
X115882288Y-130719293D01*
X115912765Y-130705724D01*
X116050722Y-130644302D01*
X116050724Y-130644301D01*
X116056752Y-130641617D01*
X116211253Y-130529365D01*
X116230491Y-130507999D01*
X116334621Y-130392351D01*
X116334622Y-130392350D01*
X116339040Y-130387443D01*
X116434527Y-130222055D01*
X116493542Y-130040427D01*
X116496733Y-130010072D01*
X116512814Y-129857064D01*
X116513504Y-129850499D01*
X116505088Y-129770424D01*
X116494232Y-129667134D01*
X116494232Y-129667132D01*
X116493542Y-129660571D01*
X116434527Y-129478943D01*
X116382165Y-129388249D01*
X116365427Y-129319253D01*
X116382165Y-129262249D01*
X116431223Y-129177279D01*
X116431224Y-129177278D01*
X116434527Y-129171556D01*
X116493542Y-128989928D01*
X116496676Y-128960116D01*
X116512814Y-128806565D01*
X116513504Y-128800000D01*
X116493542Y-128610072D01*
X116434527Y-128428444D01*
X116415998Y-128396350D01*
X116361673Y-128302257D01*
X116339040Y-128263056D01*
X116211253Y-128121134D01*
X116056752Y-128008882D01*
X116050724Y-128006198D01*
X116050722Y-128006197D01*
X115888319Y-127933891D01*
X115888318Y-127933891D01*
X115882288Y-127931206D01*
X115757367Y-127904653D01*
X115701944Y-127892872D01*
X115701939Y-127892872D01*
X115695487Y-127891500D01*
X115504513Y-127891500D01*
X115498061Y-127892872D01*
X115498056Y-127892872D01*
X115442633Y-127904653D01*
X115317712Y-127931206D01*
X115311682Y-127933891D01*
X115311681Y-127933891D01*
X115149278Y-128006197D01*
X115149276Y-128006198D01*
X115143248Y-128008882D01*
X114988747Y-128121134D01*
X114860960Y-128263056D01*
X114838327Y-128302257D01*
X114784003Y-128396350D01*
X114765473Y-128428444D01*
X114706458Y-128610072D01*
X114686496Y-128800000D01*
X114687186Y-128806565D01*
X114703325Y-128960116D01*
X114706458Y-128989928D01*
X114765473Y-129171556D01*
X114768776Y-129177278D01*
X114768777Y-129177279D01*
X114817835Y-129262250D01*
X114834573Y-129331246D01*
X114817835Y-129388249D01*
X114765473Y-129478943D01*
X114763431Y-129485228D01*
X114753832Y-129514770D01*
X114713758Y-129573376D01*
X114648362Y-129601013D01*
X114578405Y-129588906D01*
X114526099Y-129540900D01*
X114507999Y-129475834D01*
X114507999Y-129405331D01*
X114507629Y-129398510D01*
X114502105Y-129347648D01*
X114498479Y-129332396D01*
X114453324Y-129211946D01*
X114444786Y-129196351D01*
X114368285Y-129094276D01*
X114355724Y-129081715D01*
X114253649Y-129005214D01*
X114238054Y-128996676D01*
X114117606Y-128951522D01*
X114102351Y-128947895D01*
X114051486Y-128942369D01*
X114044672Y-128942000D01*
X113672115Y-128942000D01*
X113656876Y-128946475D01*
X113655671Y-128947865D01*
X113654000Y-128955548D01*
X113654000Y-130839884D01*
X113146000Y-130839884D01*
X113146000Y-130172115D01*
X113141525Y-130156876D01*
X113140135Y-130155671D01*
X113132452Y-130154000D01*
X112310116Y-130154000D01*
X112294877Y-130158475D01*
X112293672Y-130159865D01*
X112292001Y-130167548D01*
X112292001Y-130394669D01*
X111892002Y-130394669D01*
X111893542Y-130389928D01*
X111897450Y-130352751D01*
X111912814Y-130206565D01*
X111913504Y-130200000D01*
X111900255Y-130073946D01*
X111894232Y-130016635D01*
X111894232Y-130016633D01*
X111893542Y-130010072D01*
X111858488Y-129902188D01*
X111856460Y-129831222D01*
X111893122Y-129770424D01*
X111912018Y-129756108D01*
X111918128Y-129752327D01*
X111924348Y-129748478D01*
X112049305Y-129623303D01*
X112064331Y-129598927D01*
X112117103Y-129551433D01*
X112187174Y-129540009D01*
X112252298Y-129568283D01*
X112292487Y-129629543D01*
X112296475Y-129643124D01*
X112297865Y-129644329D01*
X112305548Y-129646000D01*
X113127885Y-129646000D01*
X113143124Y-129641525D01*
X113144329Y-129640135D01*
X113146000Y-129632452D01*
X113146000Y-128960116D01*
X113141525Y-128944877D01*
X113140135Y-128943672D01*
X113132452Y-128942001D01*
X112755331Y-128942001D01*
X112748510Y-128942371D01*
X112697648Y-128947895D01*
X112682396Y-128951521D01*
X112561946Y-128996676D01*
X112546351Y-129005214D01*
X112444276Y-129081715D01*
X112425365Y-129100626D01*
X112423236Y-129098497D01*
X112378474Y-129131970D01*
X112307656Y-129137000D01*
X112245360Y-129102944D01*
X112211366Y-129040615D01*
X112208500Y-129013893D01*
X112208500Y-128399600D01*
X112204618Y-128362184D01*
X112198238Y-128300692D01*
X112198237Y-128300688D01*
X112197526Y-128293834D01*
X112189166Y-128268774D01*
X112143868Y-128133002D01*
X112141550Y-128126054D01*
X112048478Y-127975652D01*
X111961891Y-127889216D01*
X111927812Y-127826934D01*
X111932815Y-127756114D01*
X111961736Y-127711025D01*
X112044134Y-127628483D01*
X112049305Y-127623303D01*
X112084144Y-127566784D01*
X112129389Y-127493384D01*
X112182162Y-127445890D01*
X112236649Y-127433500D01*
X112421768Y-127433500D01*
X112489889Y-127453502D01*
X112497333Y-127458674D01*
X112546108Y-127495229D01*
X112546110Y-127495230D01*
X112553295Y-127500615D01*
X112689684Y-127551745D01*
X112751866Y-127558500D01*
X114048134Y-127558500D01*
X114110316Y-127551745D01*
X114246705Y-127500615D01*
X114363261Y-127413261D01*
X114450615Y-127296705D01*
X114501745Y-127160316D01*
X114508500Y-127098134D01*
X114508500Y-126101866D01*
X114501745Y-126039684D01*
X114450615Y-125903295D01*
X114363261Y-125786739D01*
X114246705Y-125699385D01*
X114110316Y-125648255D01*
X114048134Y-125641500D01*
X112831317Y-125641500D01*
X112763196Y-125621498D01*
X112716703Y-125567842D01*
X112706007Y-125528670D01*
X112694232Y-125416639D01*
X112693542Y-125410072D01*
X112694387Y-125409983D01*
X112699375Y-125344624D01*
X112742192Y-125287992D01*
X112808830Y-125263499D01*
X112817236Y-125263219D01*
X115282056Y-125263561D01*
X121783000Y-125264464D01*
X121851116Y-125284476D01*
X121897602Y-125338138D01*
X121908981Y-125390547D01*
X121903794Y-133274083D01*
X121883747Y-133342190D01*
X121830061Y-133388648D01*
X121777794Y-133400000D01*
X105800000Y-133400000D01*
X105800000Y-137674000D01*
X105779998Y-137742121D01*
X105726342Y-137788614D01*
X105674000Y-137800000D01*
X100726000Y-137800000D01*
X100657879Y-137779998D01*
X100611386Y-137726342D01*
X100600000Y-137674000D01*
X100600000Y-130135368D01*
X100611806Y-130082117D01*
X100613274Y-130078970D01*
X100617115Y-130072738D01*
X100635724Y-130016635D01*
X100670632Y-129911389D01*
X100670632Y-129911387D01*
X100672797Y-129904861D01*
X100674963Y-129883722D01*
X100701806Y-129817996D01*
X100759921Y-129777215D01*
X100830859Y-129774327D01*
X100892097Y-129810250D01*
X100924192Y-129873578D01*
X100925634Y-129883566D01*
X100927256Y-129899205D01*
X100930149Y-129912600D01*
X100981588Y-130066784D01*
X100987761Y-130079962D01*
X101073063Y-130217807D01*
X101082099Y-130229208D01*
X101196829Y-130343739D01*
X101208240Y-130352751D01*
X101346243Y-130437816D01*
X101359424Y-130443963D01*
X101513710Y-130495138D01*
X101527086Y-130498005D01*
X101621438Y-130507672D01*
X101627854Y-130508000D01*
X101677885Y-130508000D01*
X101693124Y-130503525D01*
X101694329Y-130502135D01*
X101696000Y-130494452D01*
X101696000Y-130489884D01*
X102204000Y-130489884D01*
X102208475Y-130505123D01*
X102209865Y-130506328D01*
X102217548Y-130507999D01*
X102272095Y-130507999D01*
X102278614Y-130507662D01*
X102374206Y-130497743D01*
X102387600Y-130494851D01*
X102541784Y-130443412D01*
X102554962Y-130437239D01*
X102692807Y-130351937D01*
X102704208Y-130342901D01*
X102818739Y-130228171D01*
X102827751Y-130216760D01*
X102912816Y-130078757D01*
X102918963Y-130065576D01*
X102970138Y-129911290D01*
X102973005Y-129897914D01*
X102982672Y-129803562D01*
X102983000Y-129797146D01*
X102983000Y-129672115D01*
X102978525Y-129656876D01*
X102977135Y-129655671D01*
X102969452Y-129654000D01*
X102222115Y-129654000D01*
X102206876Y-129658475D01*
X102205671Y-129659865D01*
X102204000Y-129667548D01*
X102204000Y-130489884D01*
X101696000Y-130489884D01*
X101696000Y-129127885D01*
X102204000Y-129127885D01*
X102208475Y-129143124D01*
X102209865Y-129144329D01*
X102217548Y-129146000D01*
X102964884Y-129146000D01*
X102980123Y-129141525D01*
X102981328Y-129140135D01*
X102982999Y-129132452D01*
X102982999Y-129002905D01*
X102982662Y-128996386D01*
X102972743Y-128900794D01*
X102969851Y-128887400D01*
X102918412Y-128733216D01*
X102912239Y-128720038D01*
X102826937Y-128582193D01*
X102817901Y-128570792D01*
X102703171Y-128456261D01*
X102691760Y-128447249D01*
X102553757Y-128362184D01*
X102540576Y-128356037D01*
X102386290Y-128304862D01*
X102372914Y-128301995D01*
X102278562Y-128292328D01*
X102272145Y-128292000D01*
X102222115Y-128292000D01*
X102206876Y-128296475D01*
X102205671Y-128297865D01*
X102204000Y-128305548D01*
X102204000Y-129127885D01*
X101696000Y-129127885D01*
X101696000Y-128310116D01*
X101691525Y-128294877D01*
X101690135Y-128293672D01*
X101682452Y-128292001D01*
X101627905Y-128292001D01*
X101621386Y-128292338D01*
X101525794Y-128302257D01*
X101512400Y-128305149D01*
X101358216Y-128356588D01*
X101345038Y-128362761D01*
X101207193Y-128448063D01*
X101195792Y-128457099D01*
X101081261Y-128571829D01*
X101072249Y-128583240D01*
X100987184Y-128721243D01*
X100981037Y-128734424D01*
X100929862Y-128888710D01*
X100926995Y-128902087D01*
X100925542Y-128916267D01*
X100898703Y-128981995D01*
X100840589Y-129022778D01*
X100769651Y-129025668D01*
X100708412Y-128989748D01*
X100676314Y-128926421D01*
X100674871Y-128916433D01*
X100673237Y-128900691D01*
X100672526Y-128893834D01*
X100643411Y-128806565D01*
X100618867Y-128732998D01*
X100618866Y-128732996D01*
X100616550Y-128726054D01*
X100612697Y-128719828D01*
X100611899Y-128718124D01*
X100600000Y-128664673D01*
X100600000Y-127297095D01*
X105892001Y-127297095D01*
X105892338Y-127303614D01*
X105902257Y-127399206D01*
X105905149Y-127412600D01*
X105956588Y-127566784D01*
X105962761Y-127579962D01*
X106048063Y-127717807D01*
X106057099Y-127729208D01*
X106171829Y-127843739D01*
X106183240Y-127852751D01*
X106321243Y-127937816D01*
X106334424Y-127943963D01*
X106488710Y-127995138D01*
X106502086Y-127998005D01*
X106596438Y-128007672D01*
X106602854Y-128008000D01*
X106727885Y-128008000D01*
X106743124Y-128003525D01*
X106744329Y-128002135D01*
X106746000Y-127994452D01*
X106746000Y-127072115D01*
X106741525Y-127056876D01*
X106740135Y-127055671D01*
X106732452Y-127054000D01*
X105910116Y-127054000D01*
X105894877Y-127058475D01*
X105893672Y-127059865D01*
X105892001Y-127067548D01*
X105892001Y-127297095D01*
X100600000Y-127297095D01*
X100600000Y-126527885D01*
X105892000Y-126527885D01*
X105896475Y-126543124D01*
X105897865Y-126544329D01*
X105905548Y-126546000D01*
X106727885Y-126546000D01*
X106743124Y-126541525D01*
X106744329Y-126540135D01*
X106746000Y-126532452D01*
X106746000Y-125610116D01*
X106741525Y-125594877D01*
X106740135Y-125593672D01*
X106732452Y-125592001D01*
X106602905Y-125592001D01*
X106596386Y-125592338D01*
X106500794Y-125602257D01*
X106487400Y-125605149D01*
X106333216Y-125656588D01*
X106320038Y-125662761D01*
X106182193Y-125748063D01*
X106170792Y-125757099D01*
X106056261Y-125871829D01*
X106047249Y-125883240D01*
X105962184Y-126021243D01*
X105956037Y-126034424D01*
X105904862Y-126188710D01*
X105901995Y-126202086D01*
X105892328Y-126296438D01*
X105892000Y-126302855D01*
X105892000Y-126527885D01*
X100600000Y-126527885D01*
X100600000Y-125387539D01*
X100620002Y-125319418D01*
X100673658Y-125272925D01*
X100726018Y-125261539D01*
X102414832Y-125261774D01*
G37*
%TD.AperFunction*%
%TD*%
%TA.AperFunction,Conductor*%
%TO.N,GND*%
G36*
X90386239Y-125260102D02*
G01*
X100274019Y-125261476D01*
X100342135Y-125281488D01*
X100388621Y-125335150D01*
X100400000Y-125387476D01*
X100400000Y-128234373D01*
X100379998Y-128302494D01*
X100326342Y-128348987D01*
X100256068Y-128359091D01*
X100234332Y-128353966D01*
X100086290Y-128304862D01*
X100072914Y-128301995D01*
X99978562Y-128292328D01*
X99972145Y-128292000D01*
X99922115Y-128292000D01*
X99906876Y-128296475D01*
X99905671Y-128297865D01*
X99904000Y-128305548D01*
X99904000Y-130489884D01*
X99908475Y-130505123D01*
X99909865Y-130506328D01*
X99917548Y-130507999D01*
X99972095Y-130507999D01*
X99978614Y-130507662D01*
X100074206Y-130497743D01*
X100087603Y-130494850D01*
X100234125Y-130445968D01*
X100305074Y-130443384D01*
X100366158Y-130479568D01*
X100397982Y-130543033D01*
X100400000Y-130565492D01*
X100400000Y-138000000D01*
X101268637Y-138029953D01*
X106181894Y-138199376D01*
X106181895Y-138199376D01*
X106200000Y-138200000D01*
X106200000Y-133926000D01*
X106220002Y-133857879D01*
X106273658Y-133811386D01*
X106326000Y-133800000D01*
X121777365Y-133800000D01*
X121845486Y-133820002D01*
X121891979Y-133873658D01*
X121903365Y-133926083D01*
X121898194Y-141786135D01*
X121894904Y-146787237D01*
X121892417Y-150566754D01*
X121872370Y-150634861D01*
X121818684Y-150681319D01*
X121766551Y-150692671D01*
X75884134Y-150741327D01*
X75815992Y-150721397D01*
X75769442Y-150667791D01*
X75758000Y-150615327D01*
X75758000Y-146000000D01*
X83586496Y-146000000D01*
X83587186Y-146006565D01*
X83605592Y-146181684D01*
X83606458Y-146189928D01*
X83665473Y-146371556D01*
X83760960Y-146536944D01*
X83765378Y-146541851D01*
X83765379Y-146541852D01*
X83884325Y-146673955D01*
X83888747Y-146678866D01*
X84043248Y-146791118D01*
X84049276Y-146793802D01*
X84049278Y-146793803D01*
X84211681Y-146866109D01*
X84217712Y-146868794D01*
X84311113Y-146888647D01*
X84398056Y-146907128D01*
X84398061Y-146907128D01*
X84404513Y-146908500D01*
X84595487Y-146908500D01*
X84601939Y-146907128D01*
X84601944Y-146907128D01*
X84688887Y-146888647D01*
X84782288Y-146868794D01*
X84788319Y-146866109D01*
X84950722Y-146793803D01*
X84950724Y-146793802D01*
X84956752Y-146791118D01*
X85111253Y-146678866D01*
X85115675Y-146673955D01*
X85234621Y-146541852D01*
X85234622Y-146541851D01*
X85239040Y-146536944D01*
X85334527Y-146371556D01*
X85393542Y-146189928D01*
X85394409Y-146181684D01*
X85412814Y-146006565D01*
X85413504Y-146000000D01*
X85393542Y-145810072D01*
X85334527Y-145628444D01*
X85239040Y-145463056D01*
X85111253Y-145321134D01*
X85081968Y-145299857D01*
X91502000Y-145299857D01*
X91502212Y-145305030D01*
X91516626Y-145480350D01*
X91518309Y-145490512D01*
X91575800Y-145719396D01*
X91579121Y-145729151D01*
X91673218Y-145945557D01*
X91678096Y-145954655D01*
X91806273Y-146152787D01*
X91812563Y-146160956D01*
X91971387Y-146335501D01*
X91978920Y-146342526D01*
X92164120Y-146488787D01*
X92172707Y-146494492D01*
X92379297Y-146608536D01*
X92388709Y-146612766D01*
X92611156Y-146691539D01*
X92621127Y-146694173D01*
X92728163Y-146713239D01*
X92741460Y-146711779D01*
X92745591Y-146698534D01*
X93254000Y-146698534D01*
X93257918Y-146711878D01*
X93272194Y-146713865D01*
X93343236Y-146702994D01*
X93353263Y-146700605D01*
X93577570Y-146627291D01*
X93587079Y-146623294D01*
X93796395Y-146514331D01*
X93805120Y-146508837D01*
X93993835Y-146367146D01*
X94001542Y-146360303D01*
X94164584Y-146189690D01*
X94171067Y-146181684D01*
X94304057Y-145986726D01*
X94309143Y-145977774D01*
X94408506Y-145763715D01*
X94412060Y-145754055D01*
X94475130Y-145526631D01*
X94477057Y-145516527D01*
X94497644Y-145323898D01*
X94498000Y-145317206D01*
X94498000Y-145302469D01*
X96501500Y-145302469D01*
X96501711Y-145305030D01*
X96501712Y-145305053D01*
X96516131Y-145480432D01*
X96516132Y-145480438D01*
X96516555Y-145485583D01*
X96576584Y-145724570D01*
X96578642Y-145729303D01*
X96578643Y-145729306D01*
X96672672Y-145945557D01*
X96674840Y-145950544D01*
X96677644Y-145954878D01*
X96677646Y-145954882D01*
X96805874Y-146153092D01*
X96805879Y-146153098D01*
X96808685Y-146157436D01*
X96812165Y-146161261D01*
X96812167Y-146161263D01*
X96834921Y-146186269D01*
X96974523Y-146339690D01*
X96978574Y-146342889D01*
X96978578Y-146342893D01*
X97022119Y-146377279D01*
X97167901Y-146492410D01*
X97248574Y-146536944D01*
X97350591Y-146593261D01*
X97383625Y-146611497D01*
X97615903Y-146693750D01*
X97620995Y-146694657D01*
X97853407Y-146736057D01*
X97853411Y-146736057D01*
X97858495Y-146736963D01*
X97937914Y-146737933D01*
X98099718Y-146739910D01*
X98099720Y-146739910D01*
X98104888Y-146739973D01*
X98348464Y-146702701D01*
X98582682Y-146626147D01*
X98587270Y-146623759D01*
X98587274Y-146623757D01*
X98796663Y-146514756D01*
X98796664Y-146514755D01*
X98801252Y-146512367D01*
X98805385Y-146509264D01*
X98805388Y-146509262D01*
X98994168Y-146367521D01*
X98994170Y-146367519D01*
X98998303Y-146364416D01*
X99080756Y-146278134D01*
X101501500Y-146278134D01*
X101508255Y-146340316D01*
X101559385Y-146476705D01*
X101646739Y-146593261D01*
X101763295Y-146680615D01*
X101899684Y-146731745D01*
X101961866Y-146738500D01*
X104038134Y-146738500D01*
X104100316Y-146731745D01*
X104236705Y-146680615D01*
X104353261Y-146593261D01*
X104440615Y-146476705D01*
X104491745Y-146340316D01*
X104498500Y-146278134D01*
X104498500Y-142221866D01*
X104491745Y-142159684D01*
X104440615Y-142023295D01*
X104353261Y-141906739D01*
X104236705Y-141819385D01*
X104100316Y-141768255D01*
X104038134Y-141761500D01*
X101961866Y-141761500D01*
X101899684Y-141768255D01*
X101763295Y-141819385D01*
X101646739Y-141906739D01*
X101559385Y-142023295D01*
X101508255Y-142159684D01*
X101501500Y-142221866D01*
X101501500Y-146278134D01*
X99080756Y-146278134D01*
X99168545Y-146186269D01*
X99185603Y-146161263D01*
X99304485Y-145986989D01*
X99304488Y-145986984D01*
X99307404Y-145982709D01*
X99309580Y-145978020D01*
X99309584Y-145978014D01*
X99408975Y-145763894D01*
X99408977Y-145763889D01*
X99411152Y-145759203D01*
X99418489Y-145732749D01*
X99475623Y-145526726D01*
X99475623Y-145526725D01*
X99477002Y-145521753D01*
X99488396Y-145415136D01*
X99498144Y-145323929D01*
X99498144Y-145323921D01*
X99498500Y-145320594D01*
X99498500Y-143197531D01*
X99498288Y-143194947D01*
X99483869Y-143019568D01*
X99483868Y-143019562D01*
X99483445Y-143014417D01*
X99423416Y-142775430D01*
X99410596Y-142745945D01*
X99327220Y-142554193D01*
X99327218Y-142554190D01*
X99325160Y-142549456D01*
X99307389Y-142521986D01*
X99194126Y-142346908D01*
X99194121Y-142346902D01*
X99191315Y-142342564D01*
X99167722Y-142316635D01*
X99112545Y-142255997D01*
X99025477Y-142160310D01*
X99021426Y-142157111D01*
X99021422Y-142157107D01*
X98876811Y-142042901D01*
X98832099Y-142007590D01*
X98696006Y-141932462D01*
X98620906Y-141891004D01*
X98620903Y-141891003D01*
X98616375Y-141888503D01*
X98384097Y-141806250D01*
X98333847Y-141797299D01*
X98146593Y-141763943D01*
X98146589Y-141763943D01*
X98141505Y-141763037D01*
X98062086Y-141762067D01*
X97900282Y-141760090D01*
X97900280Y-141760090D01*
X97895112Y-141760027D01*
X97651536Y-141797299D01*
X97417318Y-141873853D01*
X97412730Y-141876241D01*
X97412726Y-141876243D01*
X97249174Y-141961383D01*
X97198748Y-141987633D01*
X97194615Y-141990736D01*
X97194612Y-141990738D01*
X97111493Y-142053146D01*
X97001697Y-142135584D01*
X96831455Y-142313731D01*
X96828541Y-142318003D01*
X96828540Y-142318004D01*
X96695515Y-142513011D01*
X96695512Y-142513016D01*
X96692596Y-142517291D01*
X96690420Y-142521980D01*
X96690416Y-142521986D01*
X96591025Y-142736106D01*
X96588848Y-142740797D01*
X96587468Y-142745775D01*
X96587466Y-142745779D01*
X96544446Y-142900907D01*
X96522998Y-142978247D01*
X96511604Y-143084864D01*
X96502083Y-143173955D01*
X96501500Y-143179406D01*
X96501500Y-145302469D01*
X94498000Y-145302469D01*
X94498000Y-144522115D01*
X94493525Y-144506876D01*
X94492135Y-144505671D01*
X94484452Y-144504000D01*
X93272115Y-144504000D01*
X93256876Y-144508475D01*
X93255671Y-144509865D01*
X93254000Y-144517548D01*
X93254000Y-146698534D01*
X92745591Y-146698534D01*
X92746000Y-146697222D01*
X92746000Y-144522115D01*
X92741525Y-144506876D01*
X92740135Y-144505671D01*
X92732452Y-144504000D01*
X91520115Y-144504000D01*
X91504876Y-144508475D01*
X91503671Y-144509865D01*
X91502000Y-144517548D01*
X91502000Y-145299857D01*
X85081968Y-145299857D01*
X84956752Y-145208882D01*
X84950724Y-145206198D01*
X84950722Y-145206197D01*
X84788319Y-145133891D01*
X84788318Y-145133891D01*
X84782288Y-145131206D01*
X84688888Y-145111353D01*
X84601944Y-145092872D01*
X84601939Y-145092872D01*
X84595487Y-145091500D01*
X84404513Y-145091500D01*
X84398061Y-145092872D01*
X84398056Y-145092872D01*
X84311112Y-145111353D01*
X84217712Y-145131206D01*
X84211682Y-145133891D01*
X84211681Y-145133891D01*
X84049278Y-145206197D01*
X84049276Y-145206198D01*
X84043248Y-145208882D01*
X83888747Y-145321134D01*
X83760960Y-145463056D01*
X83665473Y-145628444D01*
X83606458Y-145810072D01*
X83586496Y-146000000D01*
X75758000Y-146000000D01*
X75758000Y-145050000D01*
X78136496Y-145050000D01*
X78156458Y-145239928D01*
X78215473Y-145421556D01*
X78310960Y-145586944D01*
X78438747Y-145728866D01*
X78593248Y-145841118D01*
X78599276Y-145843802D01*
X78599278Y-145843803D01*
X78761681Y-145916109D01*
X78767712Y-145918794D01*
X78861113Y-145938647D01*
X78948056Y-145957128D01*
X78948061Y-145957128D01*
X78954513Y-145958500D01*
X79145487Y-145958500D01*
X79151939Y-145957128D01*
X79151944Y-145957128D01*
X79238887Y-145938647D01*
X79332288Y-145918794D01*
X79338319Y-145916109D01*
X79500722Y-145843803D01*
X79500724Y-145843802D01*
X79506752Y-145841118D01*
X79661253Y-145728866D01*
X79789040Y-145586944D01*
X79884527Y-145421556D01*
X79943542Y-145239928D01*
X79963504Y-145050000D01*
X79943542Y-144860072D01*
X79884527Y-144678444D01*
X79864565Y-144643868D01*
X79792341Y-144518774D01*
X79789040Y-144513056D01*
X79694898Y-144408500D01*
X79665675Y-144376045D01*
X79665674Y-144376044D01*
X79661253Y-144371134D01*
X79506752Y-144258882D01*
X79500724Y-144256198D01*
X79500722Y-144256197D01*
X79338319Y-144183891D01*
X79338318Y-144183891D01*
X79332288Y-144181206D01*
X79238887Y-144161353D01*
X79151944Y-144142872D01*
X79151939Y-144142872D01*
X79145487Y-144141500D01*
X78954513Y-144141500D01*
X78948061Y-144142872D01*
X78948056Y-144142872D01*
X78861113Y-144161353D01*
X78767712Y-144181206D01*
X78761682Y-144183891D01*
X78761681Y-144183891D01*
X78599278Y-144256197D01*
X78599276Y-144256198D01*
X78593248Y-144258882D01*
X78438747Y-144371134D01*
X78434326Y-144376044D01*
X78434325Y-144376045D01*
X78405103Y-144408500D01*
X78310960Y-144513056D01*
X78307659Y-144518774D01*
X78235436Y-144643868D01*
X78215473Y-144678444D01*
X78156458Y-144860072D01*
X78136496Y-145050000D01*
X75758000Y-145050000D01*
X75758000Y-141892131D01*
X75778002Y-141824010D01*
X75831658Y-141777517D01*
X75901932Y-141767413D01*
X75966512Y-141796907D01*
X75991144Y-141825828D01*
X76048063Y-141917807D01*
X76057099Y-141929208D01*
X76171829Y-142043739D01*
X76183240Y-142052751D01*
X76321243Y-142137816D01*
X76334424Y-142143963D01*
X76488710Y-142195138D01*
X76502086Y-142198005D01*
X76596438Y-142207672D01*
X76602854Y-142208000D01*
X76727885Y-142208000D01*
X76743124Y-142203525D01*
X76744329Y-142202135D01*
X76746000Y-142194452D01*
X76746000Y-142189884D01*
X77254000Y-142189884D01*
X77258475Y-142205123D01*
X77259865Y-142206328D01*
X77267548Y-142207999D01*
X77397095Y-142207999D01*
X77403614Y-142207662D01*
X77499206Y-142197743D01*
X77512600Y-142194851D01*
X77666784Y-142143412D01*
X77679962Y-142137239D01*
X77817807Y-142051937D01*
X77829208Y-142042901D01*
X77910430Y-141961538D01*
X77972713Y-141927459D01*
X78043533Y-141932462D01*
X78088620Y-141961383D01*
X78171512Y-142044130D01*
X78171517Y-142044134D01*
X78176697Y-142049305D01*
X78182927Y-142053145D01*
X78182928Y-142053146D01*
X78312723Y-142133153D01*
X78360216Y-142185925D01*
X78371640Y-142255997D01*
X78366441Y-142279347D01*
X78356458Y-142310072D01*
X78355768Y-142316633D01*
X78355768Y-142316635D01*
X78354846Y-142325412D01*
X78336496Y-142500000D01*
X78337186Y-142506565D01*
X78352027Y-142647766D01*
X78356458Y-142689928D01*
X78415473Y-142871556D01*
X78510960Y-143036944D01*
X78638747Y-143178866D01*
X78793248Y-143291118D01*
X78799276Y-143293802D01*
X78799278Y-143293803D01*
X78850560Y-143316635D01*
X78967712Y-143368794D01*
X79061112Y-143388647D01*
X79148056Y-143407128D01*
X79148061Y-143407128D01*
X79154513Y-143408500D01*
X79345487Y-143408500D01*
X79351939Y-143407128D01*
X79351944Y-143407128D01*
X79438888Y-143388647D01*
X79532288Y-143368794D01*
X79649440Y-143316635D01*
X79700722Y-143293803D01*
X79700724Y-143293802D01*
X79706752Y-143291118D01*
X79861253Y-143178866D01*
X79989040Y-143036944D01*
X80084527Y-142871556D01*
X80096322Y-142835255D01*
X80136396Y-142776649D01*
X80201792Y-142749012D01*
X80221203Y-142748428D01*
X80221866Y-142748500D01*
X81028530Y-142748500D01*
X81096651Y-142768502D01*
X81143144Y-142822158D01*
X81153204Y-142892123D01*
X81152203Y-142895139D01*
X81141500Y-142999600D01*
X81141500Y-144000400D01*
X81141837Y-144003646D01*
X81141837Y-144003650D01*
X81145292Y-144036944D01*
X81152474Y-144106166D01*
X81208450Y-144273946D01*
X81301522Y-144424348D01*
X81426697Y-144549305D01*
X81432927Y-144553145D01*
X81432928Y-144553146D01*
X81570090Y-144637694D01*
X81577262Y-144642115D01*
X81657005Y-144668564D01*
X81738611Y-144695632D01*
X81738613Y-144695632D01*
X81745139Y-144697797D01*
X81751975Y-144698497D01*
X81751978Y-144698498D01*
X81795031Y-144702909D01*
X81849600Y-144708500D01*
X82650400Y-144708500D01*
X82653646Y-144708163D01*
X82653650Y-144708163D01*
X82749308Y-144698238D01*
X82749312Y-144698237D01*
X82756166Y-144697526D01*
X82762702Y-144695345D01*
X82762704Y-144695345D01*
X82894806Y-144651272D01*
X82923946Y-144641550D01*
X83074348Y-144548478D01*
X83160784Y-144461891D01*
X83223066Y-144427812D01*
X83293886Y-144432815D01*
X83338976Y-144461736D01*
X83426697Y-144549305D01*
X83432927Y-144553145D01*
X83432928Y-144553146D01*
X83570090Y-144637694D01*
X83577262Y-144642115D01*
X83657005Y-144668564D01*
X83738611Y-144695632D01*
X83738613Y-144695632D01*
X83745139Y-144697797D01*
X83751975Y-144698497D01*
X83751978Y-144698498D01*
X83795031Y-144702909D01*
X83849600Y-144708500D01*
X84650400Y-144708500D01*
X84653646Y-144708163D01*
X84653650Y-144708163D01*
X84749308Y-144698238D01*
X84749312Y-144698237D01*
X84756166Y-144697526D01*
X84762702Y-144695345D01*
X84762704Y-144695345D01*
X84894806Y-144651272D01*
X84923946Y-144641550D01*
X85074348Y-144548478D01*
X85199305Y-144423303D01*
X85208430Y-144408500D01*
X85225640Y-144380580D01*
X85278413Y-144333087D01*
X85348484Y-144321663D01*
X85384146Y-144331588D01*
X85467712Y-144368794D01*
X85561112Y-144388647D01*
X85648056Y-144407128D01*
X85648061Y-144407128D01*
X85654513Y-144408500D01*
X85845487Y-144408500D01*
X85851939Y-144407128D01*
X85851944Y-144407128D01*
X85938888Y-144388647D01*
X86032288Y-144368794D01*
X86038319Y-144366109D01*
X86200722Y-144293803D01*
X86200724Y-144293802D01*
X86206752Y-144291118D01*
X86221813Y-144280176D01*
X86262157Y-144250864D01*
X86361253Y-144178866D01*
X86393662Y-144142872D01*
X86484621Y-144041852D01*
X86484622Y-144041851D01*
X86489040Y-144036944D01*
X86523138Y-143977885D01*
X91502000Y-143977885D01*
X91506475Y-143993124D01*
X91507865Y-143994329D01*
X91515548Y-143996000D01*
X92727885Y-143996000D01*
X92743124Y-143991525D01*
X92744329Y-143990135D01*
X92746000Y-143982452D01*
X92746000Y-143977885D01*
X93254000Y-143977885D01*
X93258475Y-143993124D01*
X93259865Y-143994329D01*
X93267548Y-143996000D01*
X94479885Y-143996000D01*
X94495124Y-143991525D01*
X94496329Y-143990135D01*
X94498000Y-143982452D01*
X94498000Y-143200143D01*
X94497788Y-143194970D01*
X94483374Y-143019650D01*
X94481691Y-143009488D01*
X94424200Y-142780604D01*
X94420879Y-142770849D01*
X94326782Y-142554443D01*
X94321904Y-142545345D01*
X94193727Y-142347213D01*
X94187437Y-142339044D01*
X94028613Y-142164499D01*
X94021080Y-142157474D01*
X93835880Y-142011213D01*
X93827293Y-142005508D01*
X93620703Y-141891464D01*
X93611291Y-141887234D01*
X93388844Y-141808461D01*
X93378873Y-141805827D01*
X93271837Y-141786761D01*
X93258540Y-141788221D01*
X93254000Y-141802778D01*
X93254000Y-143977885D01*
X92746000Y-143977885D01*
X92746000Y-141801466D01*
X92742082Y-141788122D01*
X92727806Y-141786135D01*
X92656764Y-141797006D01*
X92646737Y-141799395D01*
X92422430Y-141872709D01*
X92412921Y-141876706D01*
X92203605Y-141985669D01*
X92194880Y-141991163D01*
X92006165Y-142132854D01*
X91998458Y-142139697D01*
X91835416Y-142310310D01*
X91828933Y-142318316D01*
X91695943Y-142513274D01*
X91690857Y-142522226D01*
X91591494Y-142736285D01*
X91587940Y-142745945D01*
X91524870Y-142973369D01*
X91522943Y-142983473D01*
X91502356Y-143176102D01*
X91502000Y-143182794D01*
X91502000Y-143977885D01*
X86523138Y-143977885D01*
X86584527Y-143871556D01*
X86643542Y-143689928D01*
X86663504Y-143500000D01*
X86643542Y-143310072D01*
X86584527Y-143128444D01*
X86489040Y-142963056D01*
X86361253Y-142821134D01*
X86244469Y-142736285D01*
X86212094Y-142712763D01*
X86212093Y-142712762D01*
X86206752Y-142708882D01*
X86200724Y-142706198D01*
X86200722Y-142706197D01*
X86038319Y-142633891D01*
X86038318Y-142633891D01*
X86032288Y-142631206D01*
X85938887Y-142611353D01*
X85851944Y-142592872D01*
X85851939Y-142592872D01*
X85845487Y-142591500D01*
X85654513Y-142591500D01*
X85648061Y-142592872D01*
X85648056Y-142592872D01*
X85561113Y-142611353D01*
X85467712Y-142631206D01*
X85384087Y-142668438D01*
X85313721Y-142677872D01*
X85249424Y-142647766D01*
X85225695Y-142619634D01*
X85202332Y-142581880D01*
X85198478Y-142575652D01*
X85073303Y-142450695D01*
X84922738Y-142357885D01*
X84824832Y-142325411D01*
X84766473Y-142284982D01*
X84739236Y-142219418D01*
X84738500Y-142205819D01*
X84738500Y-140750000D01*
X104836496Y-140750000D01*
X104856458Y-140939928D01*
X104915473Y-141121556D01*
X105010960Y-141286944D01*
X105138747Y-141428866D01*
X105293248Y-141541118D01*
X105299276Y-141543802D01*
X105299278Y-141543803D01*
X105439349Y-141606166D01*
X105467712Y-141618794D01*
X105561112Y-141638647D01*
X105648056Y-141657128D01*
X105648061Y-141657128D01*
X105654513Y-141658500D01*
X105845487Y-141658500D01*
X105851939Y-141657128D01*
X105851944Y-141657128D01*
X105938888Y-141638647D01*
X106032288Y-141618794D01*
X106060651Y-141606166D01*
X106200722Y-141543803D01*
X106200724Y-141543802D01*
X106206752Y-141541118D01*
X106361253Y-141428866D01*
X106489040Y-141286944D01*
X106584527Y-141121556D01*
X106643542Y-140939928D01*
X106663504Y-140750000D01*
X106657190Y-140689928D01*
X106644232Y-140566635D01*
X106644232Y-140566633D01*
X106643542Y-140560072D01*
X106624023Y-140500000D01*
X113836496Y-140500000D01*
X113837186Y-140506565D01*
X113843500Y-140566635D01*
X113856458Y-140689928D01*
X113915473Y-140871556D01*
X114010960Y-141036944D01*
X114138747Y-141178866D01*
X114293248Y-141291118D01*
X114299276Y-141293802D01*
X114299278Y-141293803D01*
X114461681Y-141366109D01*
X114467712Y-141368794D01*
X114561113Y-141388647D01*
X114648056Y-141407128D01*
X114648061Y-141407128D01*
X114654513Y-141408500D01*
X114845487Y-141408500D01*
X114851939Y-141407128D01*
X114851944Y-141407128D01*
X114938887Y-141388647D01*
X115032288Y-141368794D01*
X115038319Y-141366109D01*
X115200722Y-141293803D01*
X115200724Y-141293802D01*
X115206752Y-141291118D01*
X115361253Y-141178866D01*
X115489040Y-141036944D01*
X115584527Y-140871556D01*
X115643542Y-140689928D01*
X115656501Y-140566635D01*
X115662814Y-140506565D01*
X115663504Y-140500000D01*
X115662586Y-140491267D01*
X115644232Y-140316635D01*
X115644232Y-140316633D01*
X115643542Y-140310072D01*
X115584527Y-140128444D01*
X115577406Y-140116109D01*
X115534109Y-140041118D01*
X115489040Y-139963056D01*
X115461752Y-139932749D01*
X115365675Y-139826045D01*
X115365674Y-139826044D01*
X115361253Y-139821134D01*
X115262157Y-139749136D01*
X115212094Y-139712763D01*
X115212093Y-139712762D01*
X115206752Y-139708882D01*
X115200724Y-139706198D01*
X115200722Y-139706197D01*
X115038319Y-139633891D01*
X115038318Y-139633891D01*
X115032288Y-139631206D01*
X114938888Y-139611353D01*
X114851944Y-139592872D01*
X114851939Y-139592872D01*
X114845487Y-139591500D01*
X114654513Y-139591500D01*
X114648061Y-139592872D01*
X114648056Y-139592872D01*
X114561112Y-139611353D01*
X114467712Y-139631206D01*
X114461682Y-139633891D01*
X114461681Y-139633891D01*
X114299278Y-139706197D01*
X114299276Y-139706198D01*
X114293248Y-139708882D01*
X114287907Y-139712762D01*
X114287906Y-139712763D01*
X114237843Y-139749136D01*
X114138747Y-139821134D01*
X114134326Y-139826044D01*
X114134325Y-139826045D01*
X114038249Y-139932749D01*
X114010960Y-139963056D01*
X113965891Y-140041118D01*
X113922595Y-140116109D01*
X113915473Y-140128444D01*
X113856458Y-140310072D01*
X113855768Y-140316633D01*
X113855768Y-140316635D01*
X113837414Y-140491267D01*
X113836496Y-140500000D01*
X106624023Y-140500000D01*
X106584527Y-140378444D01*
X106489040Y-140213056D01*
X106428412Y-140145721D01*
X106365675Y-140076045D01*
X106365674Y-140076044D01*
X106361253Y-140071134D01*
X106206752Y-139958882D01*
X106200724Y-139956198D01*
X106200722Y-139956197D01*
X106083489Y-139904002D01*
X108291500Y-139904002D01*
X108291693Y-139906450D01*
X108291693Y-139906458D01*
X108293763Y-139932749D01*
X108294438Y-139941331D01*
X108298757Y-139956197D01*
X108333576Y-140076045D01*
X108340855Y-140101101D01*
X108344892Y-140107927D01*
X108421509Y-140237480D01*
X108421511Y-140237483D01*
X108425547Y-140244307D01*
X108543193Y-140361953D01*
X108550017Y-140365989D01*
X108550020Y-140365991D01*
X108621899Y-140408500D01*
X108686399Y-140446645D01*
X108694010Y-140448856D01*
X108694012Y-140448857D01*
X108732781Y-140460120D01*
X108846169Y-140493062D01*
X108852574Y-140493566D01*
X108852579Y-140493567D01*
X108881042Y-140495807D01*
X108881050Y-140495807D01*
X108883498Y-140496000D01*
X109316502Y-140496000D01*
X109318950Y-140495807D01*
X109318958Y-140495807D01*
X109347421Y-140493567D01*
X109347426Y-140493566D01*
X109353831Y-140493062D01*
X109467219Y-140460120D01*
X109505988Y-140448857D01*
X109505990Y-140448856D01*
X109513601Y-140446645D01*
X109622762Y-140382087D01*
X109691576Y-140364628D01*
X109717615Y-140369249D01*
X109717712Y-140368794D01*
X109898056Y-140407128D01*
X109898061Y-140407128D01*
X109904513Y-140408500D01*
X110095487Y-140408500D01*
X110101939Y-140407128D01*
X110101944Y-140407128D01*
X110207320Y-140384729D01*
X110282288Y-140368794D01*
X110288321Y-140366108D01*
X110288327Y-140366106D01*
X110322262Y-140350998D01*
X110392629Y-140341564D01*
X110442557Y-140363029D01*
X110443193Y-140361953D01*
X110586399Y-140446645D01*
X110594010Y-140448856D01*
X110594012Y-140448857D01*
X110632781Y-140460120D01*
X110746169Y-140493062D01*
X110752574Y-140493566D01*
X110752579Y-140493567D01*
X110781042Y-140495807D01*
X110781050Y-140495807D01*
X110783498Y-140496000D01*
X111216502Y-140496000D01*
X111218950Y-140495807D01*
X111218958Y-140495807D01*
X111247421Y-140493567D01*
X111247426Y-140493566D01*
X111253831Y-140493062D01*
X111367219Y-140460120D01*
X111405988Y-140448857D01*
X111405990Y-140448856D01*
X111413601Y-140446645D01*
X111478101Y-140408500D01*
X111549980Y-140365991D01*
X111549983Y-140365989D01*
X111556807Y-140361953D01*
X111674453Y-140244307D01*
X111699135Y-140202572D01*
X111751027Y-140154121D01*
X111820877Y-140141416D01*
X111833781Y-140143466D01*
X111849022Y-140146705D01*
X111898056Y-140157128D01*
X111898060Y-140157128D01*
X111904513Y-140158500D01*
X112095487Y-140158500D01*
X112101939Y-140157128D01*
X112101944Y-140157128D01*
X112207320Y-140134729D01*
X112282288Y-140118794D01*
X112306696Y-140107927D01*
X112450722Y-140043803D01*
X112450724Y-140043802D01*
X112456752Y-140041118D01*
X112483475Y-140021703D01*
X112548712Y-139974305D01*
X112611253Y-139928866D01*
X112701036Y-139829152D01*
X112734621Y-139791852D01*
X112734622Y-139791851D01*
X112739040Y-139786944D01*
X112821952Y-139643337D01*
X112831223Y-139627279D01*
X112831224Y-139627278D01*
X112834527Y-139621556D01*
X112893542Y-139439928D01*
X112894728Y-139428650D01*
X112912814Y-139256565D01*
X112913504Y-139250000D01*
X112893542Y-139060072D01*
X112834527Y-138878444D01*
X112827406Y-138866109D01*
X112784109Y-138791118D01*
X112739040Y-138713056D01*
X112711752Y-138682749D01*
X112615675Y-138576045D01*
X112615674Y-138576044D01*
X112611253Y-138571134D01*
X112456752Y-138458882D01*
X112450724Y-138456198D01*
X112450722Y-138456197D01*
X112288319Y-138383891D01*
X112288318Y-138383891D01*
X112282288Y-138381206D01*
X112188887Y-138361353D01*
X112101944Y-138342872D01*
X112101939Y-138342872D01*
X112095487Y-138341500D01*
X111904513Y-138341500D01*
X111898060Y-138342872D01*
X111898056Y-138342872D01*
X111849022Y-138353295D01*
X111833783Y-138356534D01*
X111762993Y-138351132D01*
X111706361Y-138308315D01*
X111699139Y-138297434D01*
X111674453Y-138255693D01*
X111556807Y-138138047D01*
X111549983Y-138134011D01*
X111549980Y-138134009D01*
X111420427Y-138057392D01*
X111420428Y-138057392D01*
X111413601Y-138053355D01*
X111405990Y-138051144D01*
X111405988Y-138051143D01*
X111333050Y-138029953D01*
X111253831Y-138006938D01*
X111247426Y-138006434D01*
X111247421Y-138006433D01*
X111218958Y-138004193D01*
X111218950Y-138004193D01*
X111216502Y-138004000D01*
X110984500Y-138004000D01*
X110970877Y-138000000D01*
X113586496Y-138000000D01*
X113587186Y-138006565D01*
X113600610Y-138134284D01*
X113606458Y-138189928D01*
X113665473Y-138371556D01*
X113668776Y-138377278D01*
X113668777Y-138377279D01*
X113685655Y-138406512D01*
X113760960Y-138536944D01*
X113765378Y-138541851D01*
X113765379Y-138541852D01*
X113884325Y-138673955D01*
X113888747Y-138678866D01*
X114043248Y-138791118D01*
X114049276Y-138793802D01*
X114049278Y-138793803D01*
X114211681Y-138866109D01*
X114217712Y-138868794D01*
X114292680Y-138884729D01*
X114398056Y-138907128D01*
X114398061Y-138907128D01*
X114404513Y-138908500D01*
X114595487Y-138908500D01*
X114601939Y-138907128D01*
X114601944Y-138907128D01*
X114707320Y-138884729D01*
X114782288Y-138868794D01*
X114788319Y-138866109D01*
X114950722Y-138793803D01*
X114950724Y-138793802D01*
X114956752Y-138791118D01*
X115111253Y-138678866D01*
X115115675Y-138673955D01*
X115234621Y-138541852D01*
X115234622Y-138541851D01*
X115239040Y-138536944D01*
X115314345Y-138406512D01*
X115331223Y-138377279D01*
X115331224Y-138377278D01*
X115334527Y-138371556D01*
X115393542Y-138189928D01*
X115399391Y-138134284D01*
X115412814Y-138006565D01*
X115413504Y-138000000D01*
X116836496Y-138000000D01*
X116837186Y-138006565D01*
X116850610Y-138134284D01*
X116856458Y-138189928D01*
X116915473Y-138371556D01*
X116918776Y-138377278D01*
X116918777Y-138377279D01*
X116935655Y-138406512D01*
X117010960Y-138536944D01*
X117015378Y-138541851D01*
X117015379Y-138541852D01*
X117134325Y-138673955D01*
X117138747Y-138678866D01*
X117293248Y-138791118D01*
X117299276Y-138793802D01*
X117299278Y-138793803D01*
X117461681Y-138866109D01*
X117467712Y-138868794D01*
X117542680Y-138884729D01*
X117648056Y-138907128D01*
X117648061Y-138907128D01*
X117654513Y-138908500D01*
X117845487Y-138908500D01*
X117851939Y-138907128D01*
X117851944Y-138907128D01*
X117957320Y-138884729D01*
X118032288Y-138868794D01*
X118038319Y-138866109D01*
X118200722Y-138793803D01*
X118200724Y-138793802D01*
X118206752Y-138791118D01*
X118361253Y-138678866D01*
X118365675Y-138673955D01*
X118484621Y-138541852D01*
X118484622Y-138541851D01*
X118489040Y-138536944D01*
X118564345Y-138406512D01*
X118581223Y-138377279D01*
X118581224Y-138377278D01*
X118584527Y-138371556D01*
X118643542Y-138189928D01*
X118649391Y-138134284D01*
X118662814Y-138006565D01*
X118663504Y-138000000D01*
X118657190Y-137939928D01*
X118644232Y-137816635D01*
X118644232Y-137816633D01*
X118643542Y-137810072D01*
X118584527Y-137628444D01*
X118489040Y-137463056D01*
X118475504Y-137448022D01*
X118365675Y-137326045D01*
X118365674Y-137326044D01*
X118361253Y-137321134D01*
X118206752Y-137208882D01*
X118200724Y-137206198D01*
X118200722Y-137206197D01*
X118038319Y-137133891D01*
X118038318Y-137133891D01*
X118032288Y-137131206D01*
X117938888Y-137111353D01*
X117851944Y-137092872D01*
X117851939Y-137092872D01*
X117845487Y-137091500D01*
X117654513Y-137091500D01*
X117648061Y-137092872D01*
X117648056Y-137092872D01*
X117561112Y-137111353D01*
X117467712Y-137131206D01*
X117461682Y-137133891D01*
X117461681Y-137133891D01*
X117299278Y-137206197D01*
X117299276Y-137206198D01*
X117293248Y-137208882D01*
X117138747Y-137321134D01*
X117134326Y-137326044D01*
X117134325Y-137326045D01*
X117024497Y-137448022D01*
X117010960Y-137463056D01*
X116915473Y-137628444D01*
X116856458Y-137810072D01*
X116855768Y-137816633D01*
X116855768Y-137816635D01*
X116842810Y-137939928D01*
X116836496Y-138000000D01*
X115413504Y-138000000D01*
X115407190Y-137939928D01*
X115394232Y-137816635D01*
X115394232Y-137816633D01*
X115393542Y-137810072D01*
X115334527Y-137628444D01*
X115239040Y-137463056D01*
X115225504Y-137448022D01*
X115115675Y-137326045D01*
X115115674Y-137326044D01*
X115111253Y-137321134D01*
X114956752Y-137208882D01*
X114950724Y-137206198D01*
X114950722Y-137206197D01*
X114788319Y-137133891D01*
X114788318Y-137133891D01*
X114782288Y-137131206D01*
X114688888Y-137111353D01*
X114601944Y-137092872D01*
X114601939Y-137092872D01*
X114595487Y-137091500D01*
X114404513Y-137091500D01*
X114398061Y-137092872D01*
X114398056Y-137092872D01*
X114311112Y-137111353D01*
X114217712Y-137131206D01*
X114211682Y-137133891D01*
X114211681Y-137133891D01*
X114049278Y-137206197D01*
X114049276Y-137206198D01*
X114043248Y-137208882D01*
X113888747Y-137321134D01*
X113884326Y-137326044D01*
X113884325Y-137326045D01*
X113774497Y-137448022D01*
X113760960Y-137463056D01*
X113665473Y-137628444D01*
X113606458Y-137810072D01*
X113605768Y-137816633D01*
X113605768Y-137816635D01*
X113592810Y-137939928D01*
X113586496Y-138000000D01*
X110970877Y-138000000D01*
X110916379Y-137983998D01*
X110869886Y-137930342D01*
X110858500Y-137878000D01*
X110858500Y-136720998D01*
X110855562Y-136683669D01*
X110809145Y-136523899D01*
X110739754Y-136406565D01*
X110728491Y-136387520D01*
X110728489Y-136387517D01*
X110724453Y-136380693D01*
X110606807Y-136263047D01*
X110599983Y-136259011D01*
X110599980Y-136259009D01*
X110470427Y-136182392D01*
X110470428Y-136182392D01*
X110463601Y-136178355D01*
X110455990Y-136176144D01*
X110455988Y-136176143D01*
X110403769Y-136160972D01*
X110303831Y-136131938D01*
X110297426Y-136131434D01*
X110297421Y-136131433D01*
X110268958Y-136129193D01*
X110268950Y-136129193D01*
X110266502Y-136129000D01*
X109833498Y-136129000D01*
X109831050Y-136129193D01*
X109831042Y-136129193D01*
X109802579Y-136131433D01*
X109802574Y-136131434D01*
X109796169Y-136131938D01*
X109696231Y-136160972D01*
X109644012Y-136176143D01*
X109644010Y-136176144D01*
X109636399Y-136178355D01*
X109629572Y-136182392D01*
X109629573Y-136182392D01*
X109500020Y-136259009D01*
X109500017Y-136259011D01*
X109493193Y-136263047D01*
X109375547Y-136380693D01*
X109371511Y-136387517D01*
X109371509Y-136387520D01*
X109360246Y-136406565D01*
X109290855Y-136523899D01*
X109244438Y-136683669D01*
X109241500Y-136720998D01*
X109241500Y-136723467D01*
X109241404Y-136725916D01*
X109218747Y-136793200D01*
X109163310Y-136837554D01*
X109141699Y-136844224D01*
X108967712Y-136881206D01*
X108961682Y-136883891D01*
X108961681Y-136883891D01*
X108799278Y-136956197D01*
X108799276Y-136956198D01*
X108793248Y-136958882D01*
X108787907Y-136962762D01*
X108787906Y-136962763D01*
X108737843Y-136999136D01*
X108638747Y-137071134D01*
X108634326Y-137076044D01*
X108634325Y-137076045D01*
X108534208Y-137187237D01*
X108510960Y-137213056D01*
X108477262Y-137271422D01*
X108433522Y-137347183D01*
X108415473Y-137378444D01*
X108356458Y-137560072D01*
X108355768Y-137566633D01*
X108355768Y-137566635D01*
X108349745Y-137623946D01*
X108336496Y-137750000D01*
X108337186Y-137756565D01*
X108352394Y-137901258D01*
X108356458Y-137939928D01*
X108415473Y-138121556D01*
X108418776Y-138127277D01*
X108422822Y-138134284D01*
X108439561Y-138203279D01*
X108422157Y-138261425D01*
X108394426Y-138308315D01*
X108340855Y-138398899D01*
X108294438Y-138558669D01*
X108293934Y-138565074D01*
X108293933Y-138565079D01*
X108293070Y-138576045D01*
X108291500Y-138595998D01*
X108291500Y-139904002D01*
X106083489Y-139904002D01*
X106038319Y-139883891D01*
X106038318Y-139883891D01*
X106032288Y-139881206D01*
X105922572Y-139857885D01*
X105851944Y-139842872D01*
X105851939Y-139842872D01*
X105845487Y-139841500D01*
X105654513Y-139841500D01*
X105648061Y-139842872D01*
X105648056Y-139842872D01*
X105577428Y-139857885D01*
X105467712Y-139881206D01*
X105461682Y-139883891D01*
X105461681Y-139883891D01*
X105299278Y-139956197D01*
X105299276Y-139956198D01*
X105293248Y-139958882D01*
X105138747Y-140071134D01*
X105134326Y-140076044D01*
X105134325Y-140076045D01*
X105071589Y-140145721D01*
X105010960Y-140213056D01*
X104915473Y-140378444D01*
X104856458Y-140560072D01*
X104855768Y-140566633D01*
X104855768Y-140566635D01*
X104842810Y-140689928D01*
X104836496Y-140750000D01*
X84738500Y-140750000D01*
X84738500Y-140211866D01*
X84731745Y-140149684D01*
X84680615Y-140013295D01*
X84593261Y-139896739D01*
X84476705Y-139809385D01*
X84340316Y-139758255D01*
X84278134Y-139751500D01*
X80221866Y-139751500D01*
X80159684Y-139758255D01*
X80023295Y-139809385D01*
X79906739Y-139896739D01*
X79906165Y-139895973D01*
X79850769Y-139926222D01*
X79779954Y-139921157D01*
X79757870Y-139910361D01*
X79704388Y-139877394D01*
X79656894Y-139824621D01*
X79645471Y-139754550D01*
X79660822Y-139710904D01*
X79660180Y-139710605D01*
X79663222Y-139704080D01*
X79663244Y-139704019D01*
X79663273Y-139703972D01*
X79663275Y-139703967D01*
X79667115Y-139697738D01*
X79722797Y-139529861D01*
X79733500Y-139425400D01*
X79733500Y-138649600D01*
X79728195Y-138598468D01*
X79723238Y-138550692D01*
X79723237Y-138550688D01*
X79722526Y-138543834D01*
X79720228Y-138536944D01*
X79668868Y-138383002D01*
X79666550Y-138376054D01*
X79573478Y-138225652D01*
X79448303Y-138100695D01*
X79444084Y-138098094D01*
X79403583Y-138040970D01*
X79400351Y-137970047D01*
X79435976Y-137908635D01*
X79443530Y-137902078D01*
X79449348Y-137898478D01*
X79574305Y-137773303D01*
X79578146Y-137767072D01*
X79663275Y-137628968D01*
X79663276Y-137628966D01*
X79667115Y-137622738D01*
X79722797Y-137454861D01*
X79733500Y-137350400D01*
X79733500Y-137077985D01*
X79753502Y-137009864D01*
X79807158Y-136963371D01*
X79877432Y-136953267D01*
X79942012Y-136982761D01*
X79971260Y-137019800D01*
X79987633Y-137051252D01*
X79990736Y-137055385D01*
X79990738Y-137055388D01*
X80113413Y-137218774D01*
X80135584Y-137248303D01*
X80313731Y-137418545D01*
X80318003Y-137421459D01*
X80318004Y-137421460D01*
X80513011Y-137554485D01*
X80513016Y-137554488D01*
X80517291Y-137557404D01*
X80521980Y-137559580D01*
X80521986Y-137559584D01*
X80736106Y-137658975D01*
X80736111Y-137658977D01*
X80740797Y-137661152D01*
X80745775Y-137662532D01*
X80745779Y-137662534D01*
X80973274Y-137725623D01*
X80978247Y-137727002D01*
X81084864Y-137738396D01*
X81176071Y-137748144D01*
X81176079Y-137748144D01*
X81179406Y-137748500D01*
X83302469Y-137748500D01*
X83305042Y-137748288D01*
X83305053Y-137748288D01*
X83480432Y-137733869D01*
X83480438Y-137733868D01*
X83485583Y-137733445D01*
X83605077Y-137703430D01*
X83719559Y-137674675D01*
X83719563Y-137674674D01*
X83724570Y-137673416D01*
X83729303Y-137671358D01*
X83729306Y-137671357D01*
X83945807Y-137577220D01*
X83945810Y-137577218D01*
X83950544Y-137575160D01*
X83954878Y-137572356D01*
X83954882Y-137572354D01*
X84153092Y-137444126D01*
X84153098Y-137444121D01*
X84157436Y-137441315D01*
X84179257Y-137421460D01*
X84253836Y-137353598D01*
X84339690Y-137275477D01*
X84342889Y-137271426D01*
X84342893Y-137271422D01*
X84483902Y-137092872D01*
X84492410Y-137082099D01*
X84611497Y-136866375D01*
X84693750Y-136634097D01*
X84722956Y-136470139D01*
X84735450Y-136400000D01*
X87886496Y-136400000D01*
X87906458Y-136589928D01*
X87965473Y-136771556D01*
X88060960Y-136936944D01*
X88065378Y-136941851D01*
X88065379Y-136941852D01*
X88084755Y-136963371D01*
X88188747Y-137078866D01*
X88343248Y-137191118D01*
X88349276Y-137193802D01*
X88349278Y-137193803D01*
X88471688Y-137248303D01*
X88517712Y-137268794D01*
X88611113Y-137288647D01*
X88698056Y-137307128D01*
X88698061Y-137307128D01*
X88704513Y-137308500D01*
X88895487Y-137308500D01*
X88901939Y-137307128D01*
X88901944Y-137307128D01*
X88988887Y-137288647D01*
X89082288Y-137268794D01*
X89128312Y-137248303D01*
X89250722Y-137193803D01*
X89250724Y-137193802D01*
X89256752Y-137191118D01*
X89411253Y-137078866D01*
X89515245Y-136963371D01*
X89534621Y-136941852D01*
X89534622Y-136941851D01*
X89539040Y-136936944D01*
X89634527Y-136771556D01*
X89693542Y-136589928D01*
X89713504Y-136400000D01*
X89708763Y-136354888D01*
X89694232Y-136216635D01*
X89694232Y-136216633D01*
X89693542Y-136210072D01*
X89634527Y-136028444D01*
X89539040Y-135863056D01*
X89462021Y-135777517D01*
X89415675Y-135726045D01*
X89415674Y-135726044D01*
X89411253Y-135721134D01*
X89256752Y-135608882D01*
X89250724Y-135606198D01*
X89250722Y-135606197D01*
X89088319Y-135533891D01*
X89088318Y-135533891D01*
X89082288Y-135531206D01*
X88988887Y-135511353D01*
X88901944Y-135492872D01*
X88901939Y-135492872D01*
X88895487Y-135491500D01*
X88704513Y-135491500D01*
X88698061Y-135492872D01*
X88698056Y-135492872D01*
X88611113Y-135511353D01*
X88517712Y-135531206D01*
X88511682Y-135533891D01*
X88511681Y-135533891D01*
X88349278Y-135606197D01*
X88349276Y-135606198D01*
X88343248Y-135608882D01*
X88188747Y-135721134D01*
X88184326Y-135726044D01*
X88184325Y-135726045D01*
X88137980Y-135777517D01*
X88060960Y-135863056D01*
X87965473Y-136028444D01*
X87906458Y-136210072D01*
X87905768Y-136216633D01*
X87905768Y-136216635D01*
X87891237Y-136354888D01*
X87886496Y-136400000D01*
X84735450Y-136400000D01*
X84736057Y-136396593D01*
X84736057Y-136396589D01*
X84736963Y-136391505D01*
X84739099Y-136216635D01*
X84739910Y-136150282D01*
X84739910Y-136150280D01*
X84739973Y-136145112D01*
X84702701Y-135901536D01*
X84626147Y-135667318D01*
X84595728Y-135608882D01*
X84514756Y-135453337D01*
X84514755Y-135453336D01*
X84512367Y-135448748D01*
X84364416Y-135251697D01*
X84186269Y-135081455D01*
X84181996Y-135078540D01*
X83986989Y-134945515D01*
X83986984Y-134945512D01*
X83982709Y-134942596D01*
X83978020Y-134940420D01*
X83978014Y-134940416D01*
X83763894Y-134841025D01*
X83763889Y-134841023D01*
X83759203Y-134838848D01*
X83754225Y-134837468D01*
X83754221Y-134837466D01*
X83526726Y-134774377D01*
X83526725Y-134774377D01*
X83521753Y-134772998D01*
X83415136Y-134761604D01*
X83323929Y-134751856D01*
X83323921Y-134751856D01*
X83320594Y-134751500D01*
X81197531Y-134751500D01*
X81194958Y-134751712D01*
X81194947Y-134751712D01*
X81019568Y-134766131D01*
X81019562Y-134766132D01*
X81014417Y-134766555D01*
X80775430Y-134826584D01*
X80774899Y-134824472D01*
X80713152Y-134827073D01*
X80654434Y-134793885D01*
X80464315Y-134603766D01*
X80453448Y-134591375D01*
X80439013Y-134572563D01*
X80433987Y-134566013D01*
X80402075Y-134541526D01*
X80402072Y-134541523D01*
X80313429Y-134473504D01*
X80313427Y-134473503D01*
X80306876Y-134468476D01*
X80158851Y-134407162D01*
X80158867Y-134407122D01*
X80101639Y-134372240D01*
X80075350Y-134327362D01*
X80043870Y-134233007D01*
X80043869Y-134233005D01*
X80041550Y-134226054D01*
X79948478Y-134075652D01*
X79823303Y-133950695D01*
X79783375Y-133926083D01*
X79678968Y-133861725D01*
X79678966Y-133861724D01*
X79672738Y-133857885D01*
X79558524Y-133820002D01*
X79511389Y-133804368D01*
X79511387Y-133804368D01*
X79504861Y-133802203D01*
X79498025Y-133801503D01*
X79498022Y-133801502D01*
X79454969Y-133797091D01*
X79400400Y-133791500D01*
X78599600Y-133791500D01*
X78596354Y-133791837D01*
X78596350Y-133791837D01*
X78500692Y-133801762D01*
X78500688Y-133801763D01*
X78493834Y-133802474D01*
X78487298Y-133804655D01*
X78487296Y-133804655D01*
X78441296Y-133820002D01*
X78326054Y-133858450D01*
X78175652Y-133951522D01*
X78170479Y-133956704D01*
X78088862Y-134038463D01*
X78026579Y-134072542D01*
X77955759Y-134067539D01*
X77910671Y-134038618D01*
X77828171Y-133956261D01*
X77816760Y-133947249D01*
X77678757Y-133862184D01*
X77665576Y-133856037D01*
X77511290Y-133804862D01*
X77497914Y-133801995D01*
X77403562Y-133792328D01*
X77397145Y-133792000D01*
X77272115Y-133792000D01*
X77256876Y-133796475D01*
X77255671Y-133797865D01*
X77254000Y-133805548D01*
X77254000Y-136189884D01*
X77258475Y-136205124D01*
X77277744Y-136221821D01*
X77316128Y-136281547D01*
X77314825Y-136356712D01*
X77277203Y-136470139D01*
X77266500Y-136574600D01*
X77266500Y-137350400D01*
X77266837Y-137353646D01*
X77266837Y-137353650D01*
X77276225Y-137444126D01*
X77277474Y-137456166D01*
X77279655Y-137462702D01*
X77279655Y-137462704D01*
X77281680Y-137468774D01*
X77333450Y-137623946D01*
X77426522Y-137774348D01*
X77551697Y-137899305D01*
X77555916Y-137901906D01*
X77596417Y-137959030D01*
X77599649Y-138029953D01*
X77564024Y-138091365D01*
X77556470Y-138097922D01*
X77550652Y-138101522D01*
X77425695Y-138226697D01*
X77421855Y-138232927D01*
X77421854Y-138232928D01*
X77407822Y-138255693D01*
X77332885Y-138377262D01*
X77277203Y-138545139D01*
X77276503Y-138551975D01*
X77276502Y-138551978D01*
X77274036Y-138576045D01*
X77266500Y-138649600D01*
X77266500Y-139425400D01*
X77277474Y-139531166D01*
X77279657Y-139537708D01*
X77279657Y-139537710D01*
X77314897Y-139643337D01*
X77317482Y-139714287D01*
X77281299Y-139775371D01*
X77269175Y-139782280D01*
X77255671Y-139797865D01*
X77254000Y-139805548D01*
X77254000Y-142189884D01*
X76746000Y-142189884D01*
X76746000Y-139810116D01*
X76741525Y-139794877D01*
X76740135Y-139793672D01*
X76732452Y-139792001D01*
X76602905Y-139792001D01*
X76596386Y-139792338D01*
X76500794Y-139802257D01*
X76487400Y-139805149D01*
X76333216Y-139856588D01*
X76320038Y-139862761D01*
X76182193Y-139948063D01*
X76170792Y-139957099D01*
X76056261Y-140071829D01*
X76047249Y-140083240D01*
X75991260Y-140174072D01*
X75938488Y-140221565D01*
X75868417Y-140232989D01*
X75803293Y-140204715D01*
X75763793Y-140145721D01*
X75758000Y-140107956D01*
X75758000Y-135892131D01*
X75778002Y-135824010D01*
X75831658Y-135777517D01*
X75901932Y-135767413D01*
X75966512Y-135796907D01*
X75991144Y-135825828D01*
X76048063Y-135917807D01*
X76057099Y-135929208D01*
X76171829Y-136043739D01*
X76183240Y-136052751D01*
X76321243Y-136137816D01*
X76334424Y-136143963D01*
X76488710Y-136195138D01*
X76502086Y-136198005D01*
X76596438Y-136207672D01*
X76602854Y-136208000D01*
X76727885Y-136208000D01*
X76743124Y-136203525D01*
X76744329Y-136202135D01*
X76746000Y-136194452D01*
X76746000Y-133810116D01*
X76741525Y-133794877D01*
X76740135Y-133793672D01*
X76732452Y-133792001D01*
X76602905Y-133792001D01*
X76596386Y-133792338D01*
X76500794Y-133802257D01*
X76487400Y-133805149D01*
X76333216Y-133856588D01*
X76320038Y-133862761D01*
X76182193Y-133948063D01*
X76170792Y-133957099D01*
X76056261Y-134071829D01*
X76047249Y-134083240D01*
X75991260Y-134174072D01*
X75938488Y-134221565D01*
X75868417Y-134232989D01*
X75803293Y-134204715D01*
X75763793Y-134145721D01*
X75758000Y-134107956D01*
X75758000Y-133784999D01*
X87551497Y-133784999D01*
X87552187Y-133791564D01*
X87569456Y-133955866D01*
X87571459Y-133974927D01*
X87630474Y-134156555D01*
X87725961Y-134321943D01*
X87730379Y-134326850D01*
X87730380Y-134326851D01*
X87790692Y-134393834D01*
X87853748Y-134463865D01*
X88008249Y-134576117D01*
X88014277Y-134578801D01*
X88014279Y-134578802D01*
X88176682Y-134651108D01*
X88182713Y-134653793D01*
X88276114Y-134673646D01*
X88363057Y-134692127D01*
X88363062Y-134692127D01*
X88369514Y-134693499D01*
X88560488Y-134693499D01*
X88566940Y-134692127D01*
X88566945Y-134692127D01*
X88653888Y-134673646D01*
X88747289Y-134653793D01*
X88753320Y-134651108D01*
X88915723Y-134578802D01*
X88915725Y-134578801D01*
X88921753Y-134576117D01*
X89076254Y-134463865D01*
X89139310Y-134393834D01*
X89199622Y-134326851D01*
X89199623Y-134326850D01*
X89204041Y-134321943D01*
X89299528Y-134156555D01*
X89358543Y-133974927D01*
X89360547Y-133955866D01*
X89377815Y-133791564D01*
X89378505Y-133784999D01*
X89358543Y-133595071D01*
X89299528Y-133413443D01*
X89296224Y-133407720D01*
X89293540Y-133401692D01*
X89295659Y-133400749D01*
X89281422Y-133342097D01*
X89304634Y-133275002D01*
X89360435Y-133231108D01*
X89431110Y-133224350D01*
X89481342Y-133246140D01*
X89543248Y-133291118D01*
X89549276Y-133293802D01*
X89549278Y-133293803D01*
X89657749Y-133342097D01*
X89717712Y-133368794D01*
X89811113Y-133388647D01*
X89898056Y-133407128D01*
X89898061Y-133407128D01*
X89904513Y-133408500D01*
X90095487Y-133408500D01*
X90101939Y-133407128D01*
X90101944Y-133407128D01*
X90188887Y-133388647D01*
X90282288Y-133368794D01*
X90342251Y-133342097D01*
X90450722Y-133293803D01*
X90450724Y-133293802D01*
X90456752Y-133291118D01*
X90611253Y-133178866D01*
X90739040Y-133036944D01*
X90813197Y-132908500D01*
X90831223Y-132877279D01*
X90831224Y-132877278D01*
X90834527Y-132871556D01*
X90893542Y-132689928D01*
X90913504Y-132500000D01*
X90893542Y-132310072D01*
X90834527Y-132128444D01*
X90739040Y-131963056D01*
X90611253Y-131821134D01*
X90456752Y-131708882D01*
X90450724Y-131706198D01*
X90450722Y-131706197D01*
X90288319Y-131633891D01*
X90288318Y-131633891D01*
X90282288Y-131631206D01*
X90188888Y-131611353D01*
X90101944Y-131592872D01*
X90101939Y-131592872D01*
X90095487Y-131591500D01*
X89904513Y-131591500D01*
X89898061Y-131592872D01*
X89898056Y-131592872D01*
X89811112Y-131611353D01*
X89717712Y-131631206D01*
X89711682Y-131633891D01*
X89711681Y-131633891D01*
X89549278Y-131706197D01*
X89549276Y-131706198D01*
X89543248Y-131708882D01*
X89388747Y-131821134D01*
X89260960Y-131963056D01*
X89165473Y-132128444D01*
X89106458Y-132310072D01*
X89086496Y-132500000D01*
X89106458Y-132689928D01*
X89165473Y-132871556D01*
X89168777Y-132877279D01*
X89171461Y-132883307D01*
X89169342Y-132884250D01*
X89183579Y-132942902D01*
X89160367Y-133009997D01*
X89104566Y-133053891D01*
X89033891Y-133060649D01*
X88983660Y-133038859D01*
X88927095Y-132997762D01*
X88927094Y-132997761D01*
X88921753Y-132993881D01*
X88915725Y-132991197D01*
X88915723Y-132991196D01*
X88753320Y-132918890D01*
X88753319Y-132918890D01*
X88747289Y-132916205D01*
X88653889Y-132896352D01*
X88566945Y-132877871D01*
X88566940Y-132877871D01*
X88560488Y-132876499D01*
X88369514Y-132876499D01*
X88363062Y-132877871D01*
X88363057Y-132877871D01*
X88276113Y-132896352D01*
X88182713Y-132916205D01*
X88176683Y-132918890D01*
X88176682Y-132918890D01*
X88014279Y-132991196D01*
X88014277Y-132991197D01*
X88008249Y-132993881D01*
X87853748Y-133106133D01*
X87725961Y-133248055D01*
X87630474Y-133413443D01*
X87571459Y-133595071D01*
X87551497Y-133784999D01*
X75758000Y-133784999D01*
X75758000Y-131500000D01*
X78836496Y-131500000D01*
X78837186Y-131506565D01*
X78853955Y-131666109D01*
X78856458Y-131689928D01*
X78915473Y-131871556D01*
X79010960Y-132036944D01*
X79138747Y-132178866D01*
X79237843Y-132250864D01*
X79276385Y-132278866D01*
X79293248Y-132291118D01*
X79299276Y-132293802D01*
X79299278Y-132293803D01*
X79350560Y-132316635D01*
X79467712Y-132368794D01*
X79561113Y-132388647D01*
X79648056Y-132407128D01*
X79648061Y-132407128D01*
X79654513Y-132408500D01*
X79845487Y-132408500D01*
X79850401Y-132407456D01*
X79919662Y-132420122D01*
X79972112Y-132469658D01*
X80010960Y-132536944D01*
X80138747Y-132678866D01*
X80293248Y-132791118D01*
X80299276Y-132793802D01*
X80299278Y-132793803D01*
X80459799Y-132865271D01*
X80467712Y-132868794D01*
X80561113Y-132888647D01*
X80648056Y-132907128D01*
X80648061Y-132907128D01*
X80654513Y-132908500D01*
X80845487Y-132908500D01*
X80851939Y-132907128D01*
X80851944Y-132907128D01*
X80938887Y-132888647D01*
X81032288Y-132868794D01*
X81040201Y-132865271D01*
X81200722Y-132793803D01*
X81200724Y-132793802D01*
X81206752Y-132791118D01*
X81361253Y-132678866D01*
X81489040Y-132536944D01*
X81563861Y-132407350D01*
X81581223Y-132377279D01*
X81581224Y-132377278D01*
X81584527Y-132371556D01*
X81643542Y-132189928D01*
X81663504Y-132000000D01*
X81643542Y-131810072D01*
X81584527Y-131628444D01*
X81577406Y-131616109D01*
X81534109Y-131541118D01*
X81489040Y-131463056D01*
X81461752Y-131432749D01*
X81365675Y-131326045D01*
X81365674Y-131326044D01*
X81361253Y-131321134D01*
X81206752Y-131208882D01*
X81200724Y-131206198D01*
X81200722Y-131206197D01*
X81038319Y-131133891D01*
X81038318Y-131133891D01*
X81032288Y-131131206D01*
X80938888Y-131111353D01*
X80851944Y-131092872D01*
X80851939Y-131092872D01*
X80845487Y-131091500D01*
X80654513Y-131091500D01*
X80649599Y-131092544D01*
X80580338Y-131079878D01*
X80527887Y-131030341D01*
X80508179Y-130996206D01*
X80489040Y-130963056D01*
X80468216Y-130939928D01*
X80365675Y-130826045D01*
X80365674Y-130826044D01*
X80361253Y-130821134D01*
X80263346Y-130750000D01*
X83336496Y-130750000D01*
X83337186Y-130756565D01*
X83354483Y-130921134D01*
X83356458Y-130939928D01*
X83415473Y-131121556D01*
X83418776Y-131127278D01*
X83418777Y-131127279D01*
X83423078Y-131134729D01*
X83510960Y-131286944D01*
X83515378Y-131291851D01*
X83515379Y-131291852D01*
X83555980Y-131336944D01*
X83638747Y-131428866D01*
X83793248Y-131541118D01*
X83799276Y-131543802D01*
X83799278Y-131543803D01*
X83961681Y-131616109D01*
X83967712Y-131618794D01*
X84042680Y-131634729D01*
X84148056Y-131657128D01*
X84148061Y-131657128D01*
X84154513Y-131658500D01*
X84345487Y-131658500D01*
X84351939Y-131657128D01*
X84351944Y-131657128D01*
X84457320Y-131634729D01*
X84532288Y-131618794D01*
X84538319Y-131616109D01*
X84700722Y-131543803D01*
X84700724Y-131543802D01*
X84706752Y-131541118D01*
X84861253Y-131428866D01*
X84944020Y-131336944D01*
X84984621Y-131291852D01*
X84984622Y-131291851D01*
X84989040Y-131286944D01*
X85076922Y-131134729D01*
X85081223Y-131127279D01*
X85081224Y-131127278D01*
X85084527Y-131121556D01*
X85143542Y-130939928D01*
X85145518Y-130921134D01*
X85158249Y-130800000D01*
X95486496Y-130800000D01*
X95487186Y-130806565D01*
X95504235Y-130968774D01*
X95506458Y-130989928D01*
X95565473Y-131171556D01*
X95660960Y-131336944D01*
X95788747Y-131478866D01*
X95943248Y-131591118D01*
X95949276Y-131593802D01*
X95949278Y-131593803D01*
X96094591Y-131658500D01*
X96117712Y-131668794D01*
X96186263Y-131683365D01*
X96298056Y-131707128D01*
X96298061Y-131707128D01*
X96304513Y-131708500D01*
X96495487Y-131708500D01*
X96501939Y-131707128D01*
X96501944Y-131707128D01*
X96613737Y-131683365D01*
X96682288Y-131668794D01*
X96705409Y-131658500D01*
X96850722Y-131593803D01*
X96850724Y-131593802D01*
X96856752Y-131591118D01*
X97011253Y-131478866D01*
X97139040Y-131336944D01*
X97234527Y-131171556D01*
X97293542Y-130989928D01*
X97295766Y-130968774D01*
X97312814Y-130806565D01*
X97313504Y-130800000D01*
X97306274Y-130731206D01*
X97294232Y-130616635D01*
X97294232Y-130616633D01*
X97293542Y-130610072D01*
X97234527Y-130428444D01*
X97217028Y-130398134D01*
X97188836Y-130349305D01*
X97139040Y-130263056D01*
X97099169Y-130218774D01*
X97015675Y-130126045D01*
X97015674Y-130126044D01*
X97011253Y-130121134D01*
X96856752Y-130008882D01*
X96850724Y-130006198D01*
X96850722Y-130006197D01*
X96688319Y-129933891D01*
X96688318Y-129933891D01*
X96682288Y-129931206D01*
X96564485Y-129906166D01*
X96501944Y-129892872D01*
X96501939Y-129892872D01*
X96495487Y-129891500D01*
X96304513Y-129891500D01*
X96298061Y-129892872D01*
X96298056Y-129892872D01*
X96235515Y-129906166D01*
X96117712Y-129931206D01*
X96111682Y-129933891D01*
X96111681Y-129933891D01*
X95949278Y-130006197D01*
X95949276Y-130006198D01*
X95943248Y-130008882D01*
X95788747Y-130121134D01*
X95784326Y-130126044D01*
X95784325Y-130126045D01*
X95700832Y-130218774D01*
X95660960Y-130263056D01*
X95611164Y-130349305D01*
X95582973Y-130398134D01*
X95565473Y-130428444D01*
X95506458Y-130610072D01*
X95505768Y-130616633D01*
X95505768Y-130616635D01*
X95493726Y-130731206D01*
X95486496Y-130800000D01*
X85158249Y-130800000D01*
X85162814Y-130756565D01*
X85163504Y-130750000D01*
X85158900Y-130706197D01*
X85144232Y-130566635D01*
X85144232Y-130566633D01*
X85143542Y-130560072D01*
X85084527Y-130378444D01*
X85077406Y-130366109D01*
X85034109Y-130291118D01*
X84989040Y-130213056D01*
X84977285Y-130200000D01*
X84865675Y-130076045D01*
X84865674Y-130076044D01*
X84861253Y-130071134D01*
X84706752Y-129958882D01*
X84700724Y-129956198D01*
X84700722Y-129956197D01*
X84538319Y-129883891D01*
X84538318Y-129883891D01*
X84532288Y-129881206D01*
X84438888Y-129861353D01*
X84351944Y-129842872D01*
X84351939Y-129842872D01*
X84345487Y-129841500D01*
X84154513Y-129841500D01*
X84148061Y-129842872D01*
X84148056Y-129842872D01*
X84061112Y-129861353D01*
X83967712Y-129881206D01*
X83961682Y-129883891D01*
X83961681Y-129883891D01*
X83799278Y-129956197D01*
X83799276Y-129956198D01*
X83793248Y-129958882D01*
X83638747Y-130071134D01*
X83634326Y-130076044D01*
X83634325Y-130076045D01*
X83522716Y-130200000D01*
X83510960Y-130213056D01*
X83465891Y-130291118D01*
X83422595Y-130366109D01*
X83415473Y-130378444D01*
X83356458Y-130560072D01*
X83355768Y-130566633D01*
X83355768Y-130566635D01*
X83341100Y-130706197D01*
X83336496Y-130750000D01*
X80263346Y-130750000D01*
X80237478Y-130731206D01*
X80212094Y-130712763D01*
X80212093Y-130712762D01*
X80206752Y-130708882D01*
X80200724Y-130706198D01*
X80200722Y-130706197D01*
X80038319Y-130633891D01*
X80038318Y-130633891D01*
X80032288Y-130631206D01*
X79932861Y-130610072D01*
X79851944Y-130592872D01*
X79851939Y-130592872D01*
X79845487Y-130591500D01*
X79654513Y-130591500D01*
X79648061Y-130592872D01*
X79648056Y-130592872D01*
X79567139Y-130610072D01*
X79467712Y-130631206D01*
X79461682Y-130633891D01*
X79461681Y-130633891D01*
X79299278Y-130706197D01*
X79299276Y-130706198D01*
X79293248Y-130708882D01*
X79287907Y-130712762D01*
X79287906Y-130712763D01*
X79262522Y-130731206D01*
X79138747Y-130821134D01*
X79134326Y-130826044D01*
X79134325Y-130826045D01*
X79031785Y-130939928D01*
X79010960Y-130963056D01*
X78991821Y-130996206D01*
X78936011Y-131092872D01*
X78915473Y-131128444D01*
X78856458Y-131310072D01*
X78855768Y-131316633D01*
X78855768Y-131316635D01*
X78843972Y-131428866D01*
X78836496Y-131500000D01*
X75758000Y-131500000D01*
X75758000Y-129500000D01*
X92086496Y-129500000D01*
X92087186Y-129506565D01*
X92099456Y-129623303D01*
X92106458Y-129689928D01*
X92165473Y-129871556D01*
X92168776Y-129877278D01*
X92168777Y-129877279D01*
X92176988Y-129891500D01*
X92260960Y-130036944D01*
X92265378Y-130041851D01*
X92265379Y-130041852D01*
X92333269Y-130117251D01*
X92388747Y-130178866D01*
X92458037Y-130229208D01*
X92500000Y-130259696D01*
X92543248Y-130291118D01*
X92549276Y-130293802D01*
X92549278Y-130293803D01*
X92711681Y-130366109D01*
X92717712Y-130368794D01*
X92792680Y-130384729D01*
X92898056Y-130407128D01*
X92898061Y-130407128D01*
X92904513Y-130408500D01*
X93095487Y-130408500D01*
X93101939Y-130407128D01*
X93101944Y-130407128D01*
X93207320Y-130384729D01*
X93282288Y-130368794D01*
X93318322Y-130352751D01*
X93350089Y-130338607D01*
X93448752Y-130294680D01*
X93519118Y-130285246D01*
X93551247Y-130294680D01*
X93649911Y-130338607D01*
X93681679Y-130352751D01*
X93717712Y-130368794D01*
X93792680Y-130384729D01*
X93898056Y-130407128D01*
X93898061Y-130407128D01*
X93904513Y-130408500D01*
X94095487Y-130408500D01*
X94101939Y-130407128D01*
X94101944Y-130407128D01*
X94207320Y-130384729D01*
X94282288Y-130368794D01*
X94288319Y-130366109D01*
X94450722Y-130293803D01*
X94450724Y-130293802D01*
X94456752Y-130291118D01*
X94500001Y-130259696D01*
X94541963Y-130229208D01*
X94611253Y-130178866D01*
X94666731Y-130117251D01*
X94734621Y-130041852D01*
X94734622Y-130041851D01*
X94739040Y-130036944D01*
X94823012Y-129891500D01*
X94831223Y-129877279D01*
X94831224Y-129877278D01*
X94834527Y-129871556D01*
X94858721Y-129797095D01*
X98617001Y-129797095D01*
X98617338Y-129803614D01*
X98627257Y-129899206D01*
X98630149Y-129912600D01*
X98681588Y-130066784D01*
X98687761Y-130079962D01*
X98773063Y-130217807D01*
X98782099Y-130229208D01*
X98896829Y-130343739D01*
X98908240Y-130352751D01*
X99046243Y-130437816D01*
X99059424Y-130443963D01*
X99213710Y-130495138D01*
X99227086Y-130498005D01*
X99321438Y-130507672D01*
X99327854Y-130508000D01*
X99377885Y-130508000D01*
X99393124Y-130503525D01*
X99394329Y-130502135D01*
X99396000Y-130494452D01*
X99396000Y-129672115D01*
X99391525Y-129656876D01*
X99390135Y-129655671D01*
X99382452Y-129654000D01*
X98635116Y-129654000D01*
X98619877Y-129658475D01*
X98618672Y-129659865D01*
X98617001Y-129667548D01*
X98617001Y-129797095D01*
X94858721Y-129797095D01*
X94893542Y-129689928D01*
X94900545Y-129623303D01*
X94912814Y-129506565D01*
X94913504Y-129500000D01*
X94893542Y-129310072D01*
X94834527Y-129128444D01*
X94834204Y-129127885D01*
X98617000Y-129127885D01*
X98621475Y-129143124D01*
X98622865Y-129144329D01*
X98630548Y-129146000D01*
X99377885Y-129146000D01*
X99393124Y-129141525D01*
X99394329Y-129140135D01*
X99396000Y-129132452D01*
X99396000Y-128310116D01*
X99391525Y-128294877D01*
X99390135Y-128293672D01*
X99382452Y-128292001D01*
X99327905Y-128292001D01*
X99321386Y-128292338D01*
X99225794Y-128302257D01*
X99212400Y-128305149D01*
X99058216Y-128356588D01*
X99045038Y-128362761D01*
X98907193Y-128448063D01*
X98895792Y-128457099D01*
X98781261Y-128571829D01*
X98772249Y-128583240D01*
X98687184Y-128721243D01*
X98681037Y-128734424D01*
X98629862Y-128888710D01*
X98626995Y-128902086D01*
X98617328Y-128996438D01*
X98617000Y-129002855D01*
X98617000Y-129127885D01*
X94834204Y-129127885D01*
X94739040Y-128963056D01*
X94684143Y-128902086D01*
X94615675Y-128826045D01*
X94615674Y-128826044D01*
X94611253Y-128821134D01*
X94512157Y-128749136D01*
X94462094Y-128712763D01*
X94462093Y-128712762D01*
X94456752Y-128708882D01*
X94450724Y-128706198D01*
X94450722Y-128706197D01*
X94288319Y-128633891D01*
X94288318Y-128633891D01*
X94282288Y-128631206D01*
X94182861Y-128610072D01*
X94101944Y-128592872D01*
X94101939Y-128592872D01*
X94095487Y-128591500D01*
X93904513Y-128591500D01*
X93898061Y-128592872D01*
X93898056Y-128592872D01*
X93817139Y-128610072D01*
X93717712Y-128631206D01*
X93551248Y-128705320D01*
X93480882Y-128714754D01*
X93448753Y-128705320D01*
X93282288Y-128631206D01*
X93182861Y-128610072D01*
X93101944Y-128592872D01*
X93101939Y-128592872D01*
X93095487Y-128591500D01*
X92904513Y-128591500D01*
X92898061Y-128592872D01*
X92898056Y-128592872D01*
X92817139Y-128610072D01*
X92717712Y-128631206D01*
X92711682Y-128633891D01*
X92711681Y-128633891D01*
X92549278Y-128706197D01*
X92549276Y-128706198D01*
X92543248Y-128708882D01*
X92537907Y-128712762D01*
X92537906Y-128712763D01*
X92487843Y-128749136D01*
X92388747Y-128821134D01*
X92384326Y-128826044D01*
X92384325Y-128826045D01*
X92315858Y-128902086D01*
X92260960Y-128963056D01*
X92165473Y-129128444D01*
X92106458Y-129310072D01*
X92086496Y-129500000D01*
X75758000Y-129500000D01*
X75758000Y-128000000D01*
X96086496Y-128000000D01*
X96087186Y-128006565D01*
X96099872Y-128127262D01*
X96106458Y-128189928D01*
X96165473Y-128371556D01*
X96260960Y-128536944D01*
X96265378Y-128541851D01*
X96265379Y-128541852D01*
X96295813Y-128575652D01*
X96388747Y-128678866D01*
X96543248Y-128791118D01*
X96549276Y-128793802D01*
X96549278Y-128793803D01*
X96711681Y-128866109D01*
X96717712Y-128868794D01*
X96811113Y-128888647D01*
X96898056Y-128907128D01*
X96898061Y-128907128D01*
X96904513Y-128908500D01*
X97095487Y-128908500D01*
X97101939Y-128907128D01*
X97101944Y-128907128D01*
X97188887Y-128888647D01*
X97282288Y-128868794D01*
X97288319Y-128866109D01*
X97450722Y-128793803D01*
X97450724Y-128793802D01*
X97456752Y-128791118D01*
X97611253Y-128678866D01*
X97704187Y-128575652D01*
X97734621Y-128541852D01*
X97734622Y-128541851D01*
X97739040Y-128536944D01*
X97834527Y-128371556D01*
X97893542Y-128189928D01*
X97900129Y-128127262D01*
X97912814Y-128006565D01*
X97913504Y-128000000D01*
X97893542Y-127810072D01*
X97834527Y-127628444D01*
X97739040Y-127463056D01*
X97694205Y-127413261D01*
X97615675Y-127326045D01*
X97615674Y-127326044D01*
X97611253Y-127321134D01*
X97456752Y-127208882D01*
X97450724Y-127206198D01*
X97450722Y-127206197D01*
X97288319Y-127133891D01*
X97288318Y-127133891D01*
X97282288Y-127131206D01*
X97188888Y-127111353D01*
X97101944Y-127092872D01*
X97101939Y-127092872D01*
X97095487Y-127091500D01*
X96904513Y-127091500D01*
X96898061Y-127092872D01*
X96898056Y-127092872D01*
X96811112Y-127111353D01*
X96717712Y-127131206D01*
X96711682Y-127133891D01*
X96711681Y-127133891D01*
X96549278Y-127206197D01*
X96549276Y-127206198D01*
X96543248Y-127208882D01*
X96388747Y-127321134D01*
X96384326Y-127326044D01*
X96384325Y-127326045D01*
X96305796Y-127413261D01*
X96260960Y-127463056D01*
X96165473Y-127628444D01*
X96106458Y-127810072D01*
X96086496Y-128000000D01*
X75758000Y-128000000D01*
X75758000Y-125384088D01*
X75778002Y-125315967D01*
X75831658Y-125269474D01*
X75884018Y-125258088D01*
X90386239Y-125260102D01*
G37*
%TD.AperFunction*%
%TD*%
M02*
