%TF.GenerationSoftware,KiCad,Pcbnew,6.0.2+dfsg-1*%
%TF.CreationDate,2023-01-31T13:21:46-05:00*%
%TF.ProjectId,sensor-board,73656e73-6f72-42d6-926f-6172642e6b69,v1.0*%
%TF.SameCoordinates,Original*%
%TF.FileFunction,Legend,Top*%
%TF.FilePolarity,Positive*%
%FSLAX46Y46*%
G04 Gerber Fmt 4.6, Leading zero omitted, Abs format (unit mm)*
G04 Created by KiCad (PCBNEW 6.0.2+dfsg-1) date 2023-01-31 13:21:46*
%MOMM*%
%LPD*%
G01*
G04 APERTURE LIST*
%ADD10C,0.150000*%
%ADD11C,0.120000*%
%ADD12C,0.100000*%
G04 APERTURE END LIST*
D10*
X89250000Y-151000000D02*
X89250000Y-137500000D01*
X90400000Y-125000000D02*
X98000000Y-125000000D01*
X100800000Y-137200000D02*
X100800000Y-125000000D01*
X122200000Y-125000000D02*
X122200000Y-133000000D01*
X121600000Y-133000000D02*
X106200000Y-133000000D01*
X106200000Y-133000000D02*
X103200000Y-137200000D01*
X122047000Y-133477000D02*
X122047000Y-143250000D01*
X98000000Y-125000000D02*
X97988677Y-137495932D01*
X103600000Y-137500000D02*
X106250000Y-133500000D01*
X106250000Y-143250000D02*
X106250000Y-151000000D01*
X90399999Y-137491072D02*
X90400000Y-124800000D01*
X122047000Y-143250000D02*
X106250000Y-143250000D01*
X106250000Y-151000000D02*
X89250000Y-151000000D01*
X89250000Y-137500000D02*
X103600000Y-137500000D01*
X122200000Y-133000000D02*
X121600000Y-133000000D01*
X103200000Y-137200000D02*
X100800000Y-137200000D01*
X100800000Y-125000000D02*
X122200000Y-125000000D01*
X106250000Y-133500000D02*
X122047000Y-133477000D01*
X130603714Y-132754666D02*
X131079904Y-132754666D01*
X130508476Y-133040380D02*
X130841809Y-132040380D01*
X131175142Y-133040380D01*
X131698952Y-132040380D02*
X131794190Y-132040380D01*
X131889428Y-132088000D01*
X131937047Y-132135619D01*
X131984666Y-132230857D01*
X132032285Y-132421333D01*
X132032285Y-132659428D01*
X131984666Y-132849904D01*
X131937047Y-132945142D01*
X131889428Y-132992761D01*
X131794190Y-133040380D01*
X131698952Y-133040380D01*
X131603714Y-132992761D01*
X131556095Y-132945142D01*
X131508476Y-132849904D01*
X131460857Y-132659428D01*
X131460857Y-132421333D01*
X131508476Y-132230857D01*
X131556095Y-132135619D01*
X131603714Y-132088000D01*
X131698952Y-132040380D01*
X115236714Y-132500666D02*
X115712904Y-132500666D01*
X115141476Y-132786380D02*
X115474809Y-131786380D01*
X115808142Y-132786380D01*
X116331952Y-131786380D02*
X116427190Y-131786380D01*
X116522428Y-131834000D01*
X116570047Y-131881619D01*
X116617666Y-131976857D01*
X116665285Y-132167333D01*
X116665285Y-132405428D01*
X116617666Y-132595904D01*
X116570047Y-132691142D01*
X116522428Y-132738761D01*
X116427190Y-132786380D01*
X116331952Y-132786380D01*
X116236714Y-132738761D01*
X116189095Y-132691142D01*
X116141476Y-132595904D01*
X116093857Y-132405428D01*
X116093857Y-132167333D01*
X116141476Y-131976857D01*
X116189095Y-131881619D01*
X116236714Y-131834000D01*
X116331952Y-131786380D01*
X128063714Y-132754666D02*
X128539904Y-132754666D01*
X127968476Y-133040380D02*
X128301809Y-132040380D01*
X128635142Y-133040380D01*
X129492285Y-133040380D02*
X128920857Y-133040380D01*
X129206571Y-133040380D02*
X129206571Y-132040380D01*
X129111333Y-132183238D01*
X129016095Y-132278476D01*
X128920857Y-132326095D01*
X106474476Y-141819380D02*
X106664952Y-141819380D01*
X106760190Y-141867000D01*
X106855428Y-141962238D01*
X106903047Y-142152714D01*
X106903047Y-142486047D01*
X106855428Y-142676523D01*
X106760190Y-142771761D01*
X106664952Y-142819380D01*
X106474476Y-142819380D01*
X106379238Y-142771761D01*
X106284000Y-142676523D01*
X106236380Y-142486047D01*
X106236380Y-142152714D01*
X106284000Y-141962238D01*
X106379238Y-141867000D01*
X106474476Y-141819380D01*
X107760190Y-142152714D02*
X107760190Y-142819380D01*
X107331619Y-142152714D02*
X107331619Y-142676523D01*
X107379238Y-142771761D01*
X107474476Y-142819380D01*
X107617333Y-142819380D01*
X107712571Y-142771761D01*
X107760190Y-142724142D01*
X108093523Y-142152714D02*
X108474476Y-142152714D01*
X108236380Y-141819380D02*
X108236380Y-142676523D01*
X108284000Y-142771761D01*
X108379238Y-142819380D01*
X108474476Y-142819380D01*
X109236380Y-142819380D02*
X109236380Y-141819380D01*
X109236380Y-142771761D02*
X109141142Y-142819380D01*
X108950666Y-142819380D01*
X108855428Y-142771761D01*
X108807809Y-142724142D01*
X108760190Y-142628904D01*
X108760190Y-142343190D01*
X108807809Y-142247952D01*
X108855428Y-142200333D01*
X108950666Y-142152714D01*
X109141142Y-142152714D01*
X109236380Y-142200333D01*
X109855428Y-142819380D02*
X109760190Y-142771761D01*
X109712571Y-142724142D01*
X109664952Y-142628904D01*
X109664952Y-142343190D01*
X109712571Y-142247952D01*
X109760190Y-142200333D01*
X109855428Y-142152714D01*
X109998285Y-142152714D01*
X110093523Y-142200333D01*
X110141142Y-142247952D01*
X110188761Y-142343190D01*
X110188761Y-142628904D01*
X110141142Y-142724142D01*
X110093523Y-142771761D01*
X109998285Y-142819380D01*
X109855428Y-142819380D01*
X110760190Y-142819380D02*
X110664952Y-142771761D01*
X110617333Y-142724142D01*
X110569714Y-142628904D01*
X110569714Y-142343190D01*
X110617333Y-142247952D01*
X110664952Y-142200333D01*
X110760190Y-142152714D01*
X110903047Y-142152714D01*
X110998285Y-142200333D01*
X111045904Y-142247952D01*
X111093523Y-142343190D01*
X111093523Y-142628904D01*
X111045904Y-142724142D01*
X110998285Y-142771761D01*
X110903047Y-142819380D01*
X110760190Y-142819380D01*
X111522095Y-142819380D02*
X111522095Y-142152714D01*
X111522095Y-142343190D02*
X111569714Y-142247952D01*
X111617333Y-142200333D01*
X111712571Y-142152714D01*
X111807809Y-142152714D01*
X112760190Y-141819380D02*
X113331619Y-141819380D01*
X113045904Y-142819380D02*
X113045904Y-141819380D01*
X114045904Y-142771761D02*
X113950666Y-142819380D01*
X113760190Y-142819380D01*
X113664952Y-142771761D01*
X113617333Y-142676523D01*
X113617333Y-142295571D01*
X113664952Y-142200333D01*
X113760190Y-142152714D01*
X113950666Y-142152714D01*
X114045904Y-142200333D01*
X114093523Y-142295571D01*
X114093523Y-142390809D01*
X113617333Y-142486047D01*
X114522095Y-142819380D02*
X114522095Y-142152714D01*
X114522095Y-142247952D02*
X114569714Y-142200333D01*
X114664952Y-142152714D01*
X114807809Y-142152714D01*
X114903047Y-142200333D01*
X114950666Y-142295571D01*
X114950666Y-142819380D01*
X114950666Y-142295571D02*
X114998285Y-142200333D01*
X115093523Y-142152714D01*
X115236380Y-142152714D01*
X115331619Y-142200333D01*
X115379238Y-142295571D01*
X115379238Y-142819380D01*
X115855428Y-142152714D02*
X115855428Y-143152714D01*
X115855428Y-142200333D02*
X115950666Y-142152714D01*
X116141142Y-142152714D01*
X116236380Y-142200333D01*
X116284000Y-142247952D01*
X116331619Y-142343190D01*
X116331619Y-142628904D01*
X116284000Y-142724142D01*
X116236380Y-142771761D01*
X116141142Y-142819380D01*
X115950666Y-142819380D01*
X115855428Y-142771761D01*
X117712571Y-141819380D02*
X117903047Y-141819380D01*
X117998285Y-141867000D01*
X118093523Y-141962238D01*
X118141142Y-142152714D01*
X118141142Y-142486047D01*
X118093523Y-142676523D01*
X117998285Y-142771761D01*
X117903047Y-142819380D01*
X117712571Y-142819380D01*
X117617333Y-142771761D01*
X117522095Y-142676523D01*
X117474476Y-142486047D01*
X117474476Y-142152714D01*
X117522095Y-141962238D01*
X117617333Y-141867000D01*
X117712571Y-141819380D01*
X118569714Y-142152714D02*
X118569714Y-142819380D01*
X118569714Y-142247952D02*
X118617333Y-142200333D01*
X118712571Y-142152714D01*
X118855428Y-142152714D01*
X118950666Y-142200333D01*
X118998285Y-142295571D01*
X118998285Y-142819380D01*
X119617333Y-142819380D02*
X119522095Y-142771761D01*
X119474476Y-142676523D01*
X119474476Y-141819380D01*
X119903047Y-142152714D02*
X120141142Y-142819380D01*
X120379238Y-142152714D02*
X120141142Y-142819380D01*
X120045904Y-143057476D01*
X119998285Y-143105095D01*
X119903047Y-143152714D01*
X125396714Y-132754666D02*
X125872904Y-132754666D01*
X125301476Y-133040380D02*
X125634809Y-132040380D01*
X125968142Y-133040380D01*
X126253857Y-132135619D02*
X126301476Y-132088000D01*
X126396714Y-132040380D01*
X126634809Y-132040380D01*
X126730047Y-132088000D01*
X126777666Y-132135619D01*
X126825285Y-132230857D01*
X126825285Y-132326095D01*
X126777666Y-132468952D01*
X126206238Y-133040380D01*
X126825285Y-133040380D01*
X121324666Y-140914285D02*
X121324666Y-140438095D01*
X121610380Y-141009523D02*
X120610380Y-140676190D01*
X121610380Y-140342857D01*
X121610380Y-140009523D02*
X120610380Y-140009523D01*
X120610380Y-139771428D01*
X120658000Y-139628571D01*
X120753238Y-139533333D01*
X120848476Y-139485714D01*
X121038952Y-139438095D01*
X121181809Y-139438095D01*
X121372285Y-139485714D01*
X121467523Y-139533333D01*
X121562761Y-139628571D01*
X121610380Y-139771428D01*
X121610380Y-140009523D01*
X121610380Y-138485714D02*
X121610380Y-139057142D01*
X121610380Y-138771428D02*
X120610380Y-138771428D01*
X120753238Y-138866666D01*
X120848476Y-138961904D01*
X120896095Y-139057142D01*
X107997714Y-132500666D02*
X108473904Y-132500666D01*
X107902476Y-132786380D02*
X108235809Y-131786380D01*
X108569142Y-132786380D01*
X109426285Y-132786380D02*
X108854857Y-132786380D01*
X109140571Y-132786380D02*
X109140571Y-131786380D01*
X109045333Y-131929238D01*
X108950095Y-132024476D01*
X108854857Y-132072095D01*
X121324666Y-137358285D02*
X121324666Y-136882095D01*
X121610380Y-137453523D02*
X120610380Y-137120190D01*
X121610380Y-136786857D01*
X121610380Y-136453523D02*
X120610380Y-136453523D01*
X120610380Y-136215428D01*
X120658000Y-136072571D01*
X120753238Y-135977333D01*
X120848476Y-135929714D01*
X121038952Y-135882095D01*
X121181809Y-135882095D01*
X121372285Y-135929714D01*
X121467523Y-135977333D01*
X121562761Y-136072571D01*
X121610380Y-136215428D01*
X121610380Y-136453523D01*
X120610380Y-135263047D02*
X120610380Y-135167809D01*
X120658000Y-135072571D01*
X120705619Y-135024952D01*
X120800857Y-134977333D01*
X120991333Y-134929714D01*
X121229428Y-134929714D01*
X121419904Y-134977333D01*
X121515142Y-135024952D01*
X121562761Y-135072571D01*
X121610380Y-135167809D01*
X121610380Y-135263047D01*
X121562761Y-135358285D01*
X121515142Y-135405904D01*
X121419904Y-135453523D01*
X121229428Y-135501142D01*
X120991333Y-135501142D01*
X120800857Y-135453523D01*
X120705619Y-135405904D01*
X120658000Y-135358285D01*
X120610380Y-135263047D01*
X107523809Y-146947619D02*
X107428571Y-146900000D01*
X107333333Y-146804761D01*
X107190476Y-146661904D01*
X107095238Y-146614285D01*
X107000000Y-146614285D01*
X107047619Y-146852380D02*
X106952380Y-146804761D01*
X106857142Y-146709523D01*
X106809523Y-146519047D01*
X106809523Y-146185714D01*
X106857142Y-145995238D01*
X106952380Y-145900000D01*
X107047619Y-145852380D01*
X107238095Y-145852380D01*
X107333333Y-145900000D01*
X107428571Y-145995238D01*
X107476190Y-146185714D01*
X107476190Y-146519047D01*
X107428571Y-146709523D01*
X107333333Y-146804761D01*
X107238095Y-146852380D01*
X107047619Y-146852380D01*
X107809523Y-145852380D02*
X108047619Y-146852380D01*
X108238095Y-146138095D01*
X108428571Y-146852380D01*
X108666666Y-145852380D01*
X109047619Y-146852380D02*
X109047619Y-145852380D01*
X109523809Y-146852380D02*
X109523809Y-145852380D01*
X110571428Y-146757142D02*
X110523809Y-146804761D01*
X110380952Y-146852380D01*
X110285714Y-146852380D01*
X110142857Y-146804761D01*
X110047619Y-146709523D01*
X110000000Y-146614285D01*
X109952380Y-146423809D01*
X109952380Y-146280952D01*
X110000000Y-146090476D01*
X110047619Y-145995238D01*
X110142857Y-145900000D01*
X110285714Y-145852380D01*
X110380952Y-145852380D01*
X110523809Y-145900000D01*
X110571428Y-145947619D01*
X111714285Y-146804761D02*
X111857142Y-146852380D01*
X112095238Y-146852380D01*
X112190476Y-146804761D01*
X112238095Y-146757142D01*
X112285714Y-146661904D01*
X112285714Y-146566666D01*
X112238095Y-146471428D01*
X112190476Y-146423809D01*
X112095238Y-146376190D01*
X111904761Y-146328571D01*
X111809523Y-146280952D01*
X111761904Y-146233333D01*
X111714285Y-146138095D01*
X111714285Y-146042857D01*
X111761904Y-145947619D01*
X111809523Y-145900000D01*
X111904761Y-145852380D01*
X112142857Y-145852380D01*
X112285714Y-145900000D01*
X113095238Y-146804761D02*
X113000000Y-146852380D01*
X112809523Y-146852380D01*
X112714285Y-146804761D01*
X112666666Y-146709523D01*
X112666666Y-146328571D01*
X112714285Y-146233333D01*
X112809523Y-146185714D01*
X113000000Y-146185714D01*
X113095238Y-146233333D01*
X113142857Y-146328571D01*
X113142857Y-146423809D01*
X112666666Y-146519047D01*
X113571428Y-146185714D02*
X113571428Y-146852380D01*
X113571428Y-146280952D02*
X113619047Y-146233333D01*
X113714285Y-146185714D01*
X113857142Y-146185714D01*
X113952380Y-146233333D01*
X114000000Y-146328571D01*
X114000000Y-146852380D01*
X114428571Y-146804761D02*
X114523809Y-146852380D01*
X114714285Y-146852380D01*
X114809523Y-146804761D01*
X114857142Y-146709523D01*
X114857142Y-146661904D01*
X114809523Y-146566666D01*
X114714285Y-146519047D01*
X114571428Y-146519047D01*
X114476190Y-146471428D01*
X114428571Y-146376190D01*
X114428571Y-146328571D01*
X114476190Y-146233333D01*
X114571428Y-146185714D01*
X114714285Y-146185714D01*
X114809523Y-146233333D01*
X115428571Y-146852380D02*
X115333333Y-146804761D01*
X115285714Y-146757142D01*
X115238095Y-146661904D01*
X115238095Y-146376190D01*
X115285714Y-146280952D01*
X115333333Y-146233333D01*
X115428571Y-146185714D01*
X115571428Y-146185714D01*
X115666666Y-146233333D01*
X115714285Y-146280952D01*
X115761904Y-146376190D01*
X115761904Y-146661904D01*
X115714285Y-146757142D01*
X115666666Y-146804761D01*
X115571428Y-146852380D01*
X115428571Y-146852380D01*
X116190476Y-146852380D02*
X116190476Y-146185714D01*
X116190476Y-146376190D02*
X116238095Y-146280952D01*
X116285714Y-146233333D01*
X116380952Y-146185714D01*
X116476190Y-146185714D01*
X116761904Y-146804761D02*
X116857142Y-146852380D01*
X117047619Y-146852380D01*
X117142857Y-146804761D01*
X117190476Y-146709523D01*
X117190476Y-146661904D01*
X117142857Y-146566666D01*
X117047619Y-146519047D01*
X116904761Y-146519047D01*
X116809523Y-146471428D01*
X116761904Y-146376190D01*
X116761904Y-146328571D01*
X116809523Y-146233333D01*
X116904761Y-146185714D01*
X117047619Y-146185714D01*
X117142857Y-146233333D01*
X121451666Y-132325666D02*
X121451666Y-131849476D01*
X121737380Y-132420904D02*
X120737380Y-132087571D01*
X121737380Y-131754238D01*
X121737380Y-131420904D02*
X120737380Y-131420904D01*
X120737380Y-131182809D01*
X120785000Y-131039952D01*
X120880238Y-130944714D01*
X120975476Y-130897095D01*
X121165952Y-130849476D01*
X121308809Y-130849476D01*
X121499285Y-130897095D01*
X121594523Y-130944714D01*
X121689761Y-131039952D01*
X121737380Y-131182809D01*
X121737380Y-131420904D01*
X121642142Y-129849476D02*
X121689761Y-129897095D01*
X121737380Y-130039952D01*
X121737380Y-130135190D01*
X121689761Y-130278047D01*
X121594523Y-130373285D01*
X121499285Y-130420904D01*
X121308809Y-130468523D01*
X121165952Y-130468523D01*
X120975476Y-130420904D01*
X120880238Y-130373285D01*
X120785000Y-130278047D01*
X120737380Y-130135190D01*
X120737380Y-130039952D01*
X120785000Y-129897095D01*
X120832619Y-129849476D01*
X121737380Y-128516142D02*
X121689761Y-128611380D01*
X121642142Y-128659000D01*
X121546904Y-128706619D01*
X121261190Y-128706619D01*
X121165952Y-128659000D01*
X121118333Y-128611380D01*
X121070714Y-128516142D01*
X121070714Y-128373285D01*
X121118333Y-128278047D01*
X121165952Y-128230428D01*
X121261190Y-128182809D01*
X121546904Y-128182809D01*
X121642142Y-128230428D01*
X121689761Y-128278047D01*
X121737380Y-128373285D01*
X121737380Y-128516142D01*
X121070714Y-127754238D02*
X121737380Y-127754238D01*
X121165952Y-127754238D02*
X121118333Y-127706619D01*
X121070714Y-127611380D01*
X121070714Y-127468523D01*
X121118333Y-127373285D01*
X121213571Y-127325666D01*
X121737380Y-127325666D01*
X121737380Y-126706619D02*
X121689761Y-126801857D01*
X121594523Y-126849476D01*
X120737380Y-126849476D01*
X121070714Y-126420904D02*
X121737380Y-126182809D01*
X121070714Y-125944714D02*
X121737380Y-126182809D01*
X121975476Y-126278047D01*
X122023095Y-126325666D01*
X122070714Y-126420904D01*
X96313888Y-137263540D02*
X96461784Y-136711582D01*
X97353762Y-137246380D02*
X96387836Y-136987561D01*
X97513983Y-136648426D02*
X96548057Y-136389607D01*
X97624906Y-136234458D02*
X97118945Y-136098886D01*
X97014627Y-136120233D01*
X96943981Y-136199901D01*
X96907007Y-136337891D01*
X96928354Y-136442208D01*
X96962026Y-136500530D01*
X97800754Y-135394197D02*
X97822101Y-135498515D01*
X97772802Y-135682500D01*
X97702156Y-135762169D01*
X97597839Y-135783516D01*
X97229867Y-135684918D01*
X97150199Y-135614272D01*
X97128852Y-135509954D01*
X97178151Y-135325969D01*
X97248797Y-135246300D01*
X97353114Y-135224953D01*
X97445107Y-135249603D01*
X97413853Y-135734217D01*
X97969998Y-134946557D02*
X97326047Y-134774011D01*
X97510033Y-134823310D02*
X97430365Y-134752664D01*
X97396693Y-134694343D01*
X97375346Y-134590025D01*
X97399996Y-134498032D01*
X98130219Y-134348603D02*
X97486269Y-134176057D01*
X97578261Y-134200706D02*
X97544590Y-134142385D01*
X97523243Y-134038067D01*
X97560217Y-133900078D01*
X97630863Y-133820410D01*
X97735180Y-133799063D01*
X98241142Y-133934635D01*
X97735180Y-133799063D02*
X97655512Y-133728417D01*
X97634165Y-133624099D01*
X97671139Y-133486110D01*
X97741785Y-133406442D01*
X97846103Y-133385095D01*
X98352064Y-133520666D01*
X98512285Y-132922712D02*
X98441639Y-133002381D01*
X98383318Y-133036052D01*
X98279001Y-133057399D01*
X98003022Y-132983451D01*
X97923354Y-132912805D01*
X97889682Y-132854484D01*
X97868335Y-132750166D01*
X97905309Y-132612177D01*
X97975955Y-132532509D01*
X98034276Y-132498837D01*
X98138594Y-132477490D01*
X98414572Y-132551438D01*
X98494241Y-132622084D01*
X98527912Y-132680405D01*
X98549259Y-132784723D01*
X98512285Y-132922712D01*
X98774407Y-131760476D02*
X98795754Y-131864794D01*
X98746455Y-132048779D01*
X98675809Y-132128448D01*
X98617488Y-132162119D01*
X98513170Y-132183466D01*
X98237191Y-132109518D01*
X98157523Y-132038872D01*
X98123851Y-131980551D01*
X98102504Y-131876233D01*
X98151803Y-131692248D01*
X98222449Y-131612579D01*
X98968300Y-131220843D02*
X98897654Y-131300511D01*
X98839333Y-131334183D01*
X98735015Y-131355530D01*
X98459036Y-131281582D01*
X98379368Y-131210936D01*
X98345696Y-131152615D01*
X98324349Y-131048297D01*
X98361323Y-130910308D01*
X98431969Y-130830639D01*
X98490290Y-130796968D01*
X98594608Y-130775621D01*
X98870587Y-130849569D01*
X98950255Y-130920215D01*
X98983927Y-130978536D01*
X99005274Y-131082854D01*
X98968300Y-131220843D01*
X98632467Y-129898385D02*
X99276418Y-130070931D01*
X98521545Y-130312354D02*
X99027506Y-130447925D01*
X99131824Y-130426578D01*
X99202469Y-130346910D01*
X99239444Y-130208921D01*
X99218097Y-130104603D01*
X99184425Y-130046282D01*
X98755714Y-129438421D02*
X99721640Y-129697240D01*
X98801711Y-129450745D02*
X98780364Y-129346428D01*
X98829663Y-129162442D01*
X98900309Y-129082774D01*
X98958630Y-129049102D01*
X99062947Y-129027755D01*
X99338926Y-129101703D01*
X99418594Y-129172349D01*
X99452266Y-129230670D01*
X99473613Y-129334988D01*
X99424314Y-129518974D01*
X99353668Y-129598642D01*
X99670809Y-128599044D02*
X99600163Y-128678713D01*
X99495845Y-128700060D01*
X98667909Y-128478215D01*
X99822008Y-127850776D02*
X99843355Y-127955094D01*
X99794056Y-128139080D01*
X99723410Y-128218748D01*
X99619092Y-128240095D01*
X99251121Y-128141497D01*
X99171452Y-128070851D01*
X99150105Y-127966534D01*
X99199404Y-127782548D01*
X99270050Y-127702880D01*
X99374368Y-127681533D01*
X99466361Y-127706182D01*
X99435106Y-128190796D01*
X99845581Y-134167348D02*
X99774935Y-134247016D01*
X99716614Y-134280688D01*
X99612297Y-134302035D01*
X99336318Y-134228086D01*
X99256650Y-134157441D01*
X99222978Y-134099119D01*
X99201631Y-133994802D01*
X99238605Y-133856812D01*
X99309251Y-133777144D01*
X99367572Y-133743472D01*
X99471890Y-133722125D01*
X99747869Y-133796074D01*
X99827537Y-133866720D01*
X99861209Y-133925041D01*
X99882556Y-134029358D01*
X99845581Y-134167348D01*
X99398826Y-133258858D02*
X100042777Y-133431404D01*
X99490819Y-133283508D02*
X99457147Y-133225187D01*
X99435800Y-133120869D01*
X99472775Y-132982879D01*
X99543421Y-132903211D01*
X99647738Y-132881864D01*
X100153699Y-133017436D01*
X100313921Y-132419482D02*
X100243275Y-132499150D01*
X100138957Y-132520497D01*
X99311021Y-132298652D01*
X99743918Y-131970957D02*
X100449492Y-131913521D01*
X99867166Y-131510992D02*
X100449492Y-131913521D01*
X100654825Y-132067137D01*
X100688497Y-132125459D01*
X100709844Y-132229776D01*
X107028571Y-147780714D02*
X107266666Y-148447380D01*
X107504761Y-147780714D01*
X108409523Y-148447380D02*
X107838095Y-148447380D01*
X108123809Y-148447380D02*
X108123809Y-147447380D01*
X108028571Y-147590238D01*
X107933333Y-147685476D01*
X107838095Y-147733095D01*
X108838095Y-148352142D02*
X108885714Y-148399761D01*
X108838095Y-148447380D01*
X108790476Y-148399761D01*
X108838095Y-148352142D01*
X108838095Y-148447380D01*
X109504761Y-147447380D02*
X109600000Y-147447380D01*
X109695238Y-147495000D01*
X109742857Y-147542619D01*
X109790476Y-147637857D01*
X109838095Y-147828333D01*
X109838095Y-148066428D01*
X109790476Y-148256904D01*
X109742857Y-148352142D01*
X109695238Y-148399761D01*
X109600000Y-148447380D01*
X109504761Y-148447380D01*
X109409523Y-148399761D01*
X109361904Y-148352142D01*
X109314285Y-148256904D01*
X109266666Y-148066428D01*
X109266666Y-147828333D01*
X109314285Y-147637857D01*
X109361904Y-147542619D01*
X109409523Y-147495000D01*
X109504761Y-147447380D01*
X111314285Y-148828333D02*
X111266666Y-148780714D01*
X111171428Y-148637857D01*
X111123809Y-148542619D01*
X111076190Y-148399761D01*
X111028571Y-148161666D01*
X111028571Y-147971190D01*
X111076190Y-147733095D01*
X111123809Y-147590238D01*
X111171428Y-147495000D01*
X111266666Y-147352142D01*
X111314285Y-147304523D01*
X112123809Y-148399761D02*
X112028571Y-148447380D01*
X111838095Y-148447380D01*
X111742857Y-148399761D01*
X111695238Y-148352142D01*
X111647619Y-148256904D01*
X111647619Y-147971190D01*
X111695238Y-147875952D01*
X111742857Y-147828333D01*
X111838095Y-147780714D01*
X112028571Y-147780714D01*
X112123809Y-147828333D01*
X112457142Y-148828333D02*
X112504761Y-148780714D01*
X112600000Y-148637857D01*
X112647619Y-148542619D01*
X112695238Y-148399761D01*
X112742857Y-148161666D01*
X112742857Y-147971190D01*
X112695238Y-147733095D01*
X112647619Y-147590238D01*
X112600000Y-147495000D01*
X112504761Y-147352142D01*
X112457142Y-147304523D01*
X113933333Y-147542619D02*
X113980952Y-147495000D01*
X114076190Y-147447380D01*
X114314285Y-147447380D01*
X114409523Y-147495000D01*
X114457142Y-147542619D01*
X114504761Y-147637857D01*
X114504761Y-147733095D01*
X114457142Y-147875952D01*
X113885714Y-148447380D01*
X114504761Y-148447380D01*
X115123809Y-147447380D02*
X115219047Y-147447380D01*
X115314285Y-147495000D01*
X115361904Y-147542619D01*
X115409523Y-147637857D01*
X115457142Y-147828333D01*
X115457142Y-148066428D01*
X115409523Y-148256904D01*
X115361904Y-148352142D01*
X115314285Y-148399761D01*
X115219047Y-148447380D01*
X115123809Y-148447380D01*
X115028571Y-148399761D01*
X114980952Y-148352142D01*
X114933333Y-148256904D01*
X114885714Y-148066428D01*
X114885714Y-147828333D01*
X114933333Y-147637857D01*
X114980952Y-147542619D01*
X115028571Y-147495000D01*
X115123809Y-147447380D01*
X115838095Y-147542619D02*
X115885714Y-147495000D01*
X115980952Y-147447380D01*
X116219047Y-147447380D01*
X116314285Y-147495000D01*
X116361904Y-147542619D01*
X116409523Y-147637857D01*
X116409523Y-147733095D01*
X116361904Y-147875952D01*
X115790476Y-148447380D01*
X116409523Y-148447380D01*
X116742857Y-147447380D02*
X117361904Y-147447380D01*
X117028571Y-147828333D01*
X117171428Y-147828333D01*
X117266666Y-147875952D01*
X117314285Y-147923571D01*
X117361904Y-148018809D01*
X117361904Y-148256904D01*
X117314285Y-148352142D01*
X117266666Y-148399761D01*
X117171428Y-148447380D01*
X116885714Y-148447380D01*
X116790476Y-148399761D01*
X116742857Y-148352142D01*
X109361904Y-149105000D02*
X109266666Y-149057380D01*
X109123809Y-149057380D01*
X108980952Y-149105000D01*
X108885714Y-149200238D01*
X108838095Y-149295476D01*
X108790476Y-149485952D01*
X108790476Y-149628809D01*
X108838095Y-149819285D01*
X108885714Y-149914523D01*
X108980952Y-150009761D01*
X109123809Y-150057380D01*
X109219047Y-150057380D01*
X109361904Y-150009761D01*
X109409523Y-149962142D01*
X109409523Y-149628809D01*
X109219047Y-149628809D01*
X110266666Y-150057380D02*
X110266666Y-149533571D01*
X110219047Y-149438333D01*
X110123809Y-149390714D01*
X109933333Y-149390714D01*
X109838095Y-149438333D01*
X110266666Y-150009761D02*
X110171428Y-150057380D01*
X109933333Y-150057380D01*
X109838095Y-150009761D01*
X109790476Y-149914523D01*
X109790476Y-149819285D01*
X109838095Y-149724047D01*
X109933333Y-149676428D01*
X110171428Y-149676428D01*
X110266666Y-149628809D01*
X110647619Y-149390714D02*
X110885714Y-150057380D01*
X111123809Y-149390714D01*
X111504761Y-150057380D02*
X111504761Y-149390714D01*
X111504761Y-149057380D02*
X111457142Y-149105000D01*
X111504761Y-149152619D01*
X111552380Y-149105000D01*
X111504761Y-149057380D01*
X111504761Y-149152619D01*
X111980952Y-149390714D02*
X111980952Y-150057380D01*
X111980952Y-149485952D02*
X112028571Y-149438333D01*
X112123809Y-149390714D01*
X112266666Y-149390714D01*
X112361904Y-149438333D01*
X112409523Y-149533571D01*
X112409523Y-150057380D01*
X113647619Y-150057380D02*
X113647619Y-149057380D01*
X113647619Y-149533571D02*
X114219047Y-149533571D01*
X114219047Y-150057380D02*
X114219047Y-149057380D01*
X115123809Y-149390714D02*
X115123809Y-150057380D01*
X114695238Y-149390714D02*
X114695238Y-149914523D01*
X114742857Y-150009761D01*
X114838095Y-150057380D01*
X114980952Y-150057380D01*
X115076190Y-150009761D01*
X115123809Y-149962142D01*
X115600000Y-150057380D02*
X115600000Y-149390714D01*
X115600000Y-149581190D02*
X115647619Y-149485952D01*
X115695238Y-149438333D01*
X115790476Y-149390714D01*
X115885714Y-149390714D01*
X116361904Y-150057380D02*
X116266666Y-150009761D01*
X116219047Y-149914523D01*
X116219047Y-149057380D01*
X116742857Y-150057380D02*
X116742857Y-149057380D01*
X116742857Y-149438333D02*
X116838095Y-149390714D01*
X117028571Y-149390714D01*
X117123809Y-149438333D01*
X117171428Y-149485952D01*
X117219047Y-149581190D01*
X117219047Y-149866904D01*
X117171428Y-149962142D01*
X117123809Y-150009761D01*
X117028571Y-150057380D01*
X116838095Y-150057380D01*
X116742857Y-150009761D01*
X118076190Y-149390714D02*
X118076190Y-150057380D01*
X117647619Y-149390714D02*
X117647619Y-149914523D01*
X117695238Y-150009761D01*
X117790476Y-150057380D01*
X117933333Y-150057380D01*
X118028571Y-150009761D01*
X118076190Y-149962142D01*
X118409523Y-149390714D02*
X118790476Y-149390714D01*
X118552380Y-149057380D02*
X118552380Y-149914523D01*
X118600000Y-150009761D01*
X118695238Y-150057380D01*
X118790476Y-150057380D01*
%TO.C,C6*%
X90448067Y-131129503D02*
X90400448Y-131177122D01*
X90257591Y-131224741D01*
X90162353Y-131224741D01*
X90019495Y-131177122D01*
X89924257Y-131081884D01*
X89876638Y-130986646D01*
X89829019Y-130796170D01*
X89829019Y-130653313D01*
X89876638Y-130462837D01*
X89924257Y-130367599D01*
X90019495Y-130272361D01*
X90162353Y-130224741D01*
X90257591Y-130224741D01*
X90400448Y-130272361D01*
X90448067Y-130319980D01*
X91305210Y-130224741D02*
X91114734Y-130224741D01*
X91019495Y-130272361D01*
X90971876Y-130319980D01*
X90876638Y-130462837D01*
X90829019Y-130653313D01*
X90829019Y-131034265D01*
X90876638Y-131129503D01*
X90924257Y-131177122D01*
X91019495Y-131224741D01*
X91209972Y-131224741D01*
X91305210Y-131177122D01*
X91352829Y-131129503D01*
X91400448Y-131034265D01*
X91400448Y-130796170D01*
X91352829Y-130700932D01*
X91305210Y-130653313D01*
X91209972Y-130605694D01*
X91019495Y-130605694D01*
X90924257Y-130653313D01*
X90876638Y-130700932D01*
X90829019Y-130796170D01*
%TO.C,J3*%
X104666666Y-136202380D02*
X104666666Y-136916666D01*
X104619047Y-137059523D01*
X104523809Y-137154761D01*
X104380952Y-137202380D01*
X104285714Y-137202380D01*
X105047619Y-136202380D02*
X105666666Y-136202380D01*
X105333333Y-136583333D01*
X105476190Y-136583333D01*
X105571428Y-136630952D01*
X105619047Y-136678571D01*
X105666666Y-136773809D01*
X105666666Y-137011904D01*
X105619047Y-137107142D01*
X105571428Y-137154761D01*
X105476190Y-137202380D01*
X105190476Y-137202380D01*
X105095238Y-137154761D01*
X105047619Y-137107142D01*
%TO.C,C2*%
X88583333Y-126357142D02*
X88535714Y-126404761D01*
X88392857Y-126452380D01*
X88297619Y-126452380D01*
X88154761Y-126404761D01*
X88059523Y-126309523D01*
X88011904Y-126214285D01*
X87964285Y-126023809D01*
X87964285Y-125880952D01*
X88011904Y-125690476D01*
X88059523Y-125595238D01*
X88154761Y-125500000D01*
X88297619Y-125452380D01*
X88392857Y-125452380D01*
X88535714Y-125500000D01*
X88583333Y-125547619D01*
X88964285Y-125547619D02*
X89011904Y-125500000D01*
X89107142Y-125452380D01*
X89345238Y-125452380D01*
X89440476Y-125500000D01*
X89488095Y-125547619D01*
X89535714Y-125642857D01*
X89535714Y-125738095D01*
X89488095Y-125880952D01*
X88916666Y-126452380D01*
X89535714Y-126452380D01*
%TO.C,C7*%
X104157142Y-131766666D02*
X104204761Y-131814285D01*
X104252380Y-131957142D01*
X104252380Y-132052380D01*
X104204761Y-132195238D01*
X104109523Y-132290476D01*
X104014285Y-132338095D01*
X103823809Y-132385714D01*
X103680952Y-132385714D01*
X103490476Y-132338095D01*
X103395238Y-132290476D01*
X103300000Y-132195238D01*
X103252380Y-132052380D01*
X103252380Y-131957142D01*
X103300000Y-131814285D01*
X103347619Y-131766666D01*
X103252380Y-131433333D02*
X103252380Y-130766666D01*
X104252380Y-131195238D01*
%TO.C,JP2*%
X112196666Y-134072380D02*
X112196666Y-134786666D01*
X112149047Y-134929523D01*
X112053809Y-135024761D01*
X111910952Y-135072380D01*
X111815714Y-135072380D01*
X112672857Y-135072380D02*
X112672857Y-134072380D01*
X113053809Y-134072380D01*
X113149047Y-134120000D01*
X113196666Y-134167619D01*
X113244285Y-134262857D01*
X113244285Y-134405714D01*
X113196666Y-134500952D01*
X113149047Y-134548571D01*
X113053809Y-134596190D01*
X112672857Y-134596190D01*
X113625238Y-134167619D02*
X113672857Y-134120000D01*
X113768095Y-134072380D01*
X114006190Y-134072380D01*
X114101428Y-134120000D01*
X114149047Y-134167619D01*
X114196666Y-134262857D01*
X114196666Y-134358095D01*
X114149047Y-134500952D01*
X113577619Y-135072380D01*
X114196666Y-135072380D01*
%TO.C,R5*%
X128533333Y-139452380D02*
X128200000Y-138976190D01*
X127961904Y-139452380D02*
X127961904Y-138452380D01*
X128342857Y-138452380D01*
X128438095Y-138500000D01*
X128485714Y-138547619D01*
X128533333Y-138642857D01*
X128533333Y-138785714D01*
X128485714Y-138880952D01*
X128438095Y-138928571D01*
X128342857Y-138976190D01*
X127961904Y-138976190D01*
X129438095Y-138452380D02*
X128961904Y-138452380D01*
X128914285Y-138928571D01*
X128961904Y-138880952D01*
X129057142Y-138833333D01*
X129295238Y-138833333D01*
X129390476Y-138880952D01*
X129438095Y-138928571D01*
X129485714Y-139023809D01*
X129485714Y-139261904D01*
X129438095Y-139357142D01*
X129390476Y-139404761D01*
X129295238Y-139452380D01*
X129057142Y-139452380D01*
X128961904Y-139404761D01*
X128914285Y-139357142D01*
%TO.C,R1*%
X84083333Y-125952380D02*
X83750000Y-125476190D01*
X83511904Y-125952380D02*
X83511904Y-124952380D01*
X83892857Y-124952380D01*
X83988095Y-125000000D01*
X84035714Y-125047619D01*
X84083333Y-125142857D01*
X84083333Y-125285714D01*
X84035714Y-125380952D01*
X83988095Y-125428571D01*
X83892857Y-125476190D01*
X83511904Y-125476190D01*
X85035714Y-125952380D02*
X84464285Y-125952380D01*
X84750000Y-125952380D02*
X84750000Y-124952380D01*
X84654761Y-125095238D01*
X84559523Y-125190476D01*
X84464285Y-125238095D01*
%TO.C,U4*%
X108038095Y-125252380D02*
X108038095Y-126061904D01*
X108085714Y-126157142D01*
X108133333Y-126204761D01*
X108228571Y-126252380D01*
X108419047Y-126252380D01*
X108514285Y-126204761D01*
X108561904Y-126157142D01*
X108609523Y-126061904D01*
X108609523Y-125252380D01*
X109514285Y-125585714D02*
X109514285Y-126252380D01*
X109276190Y-125204761D02*
X109038095Y-125919047D01*
X109657142Y-125919047D01*
%TO.C,U5*%
X89535095Y-134707380D02*
X89535095Y-135516904D01*
X89582714Y-135612142D01*
X89630333Y-135659761D01*
X89725571Y-135707380D01*
X89916047Y-135707380D01*
X90011285Y-135659761D01*
X90058904Y-135612142D01*
X90106523Y-135516904D01*
X90106523Y-134707380D01*
X91058904Y-134707380D02*
X90582714Y-134707380D01*
X90535095Y-135183571D01*
X90582714Y-135135952D01*
X90677952Y-135088333D01*
X90916047Y-135088333D01*
X91011285Y-135135952D01*
X91058904Y-135183571D01*
X91106523Y-135278809D01*
X91106523Y-135516904D01*
X91058904Y-135612142D01*
X91011285Y-135659761D01*
X90916047Y-135707380D01*
X90677952Y-135707380D01*
X90582714Y-135659761D01*
X90535095Y-135612142D01*
X90800000Y-131652380D02*
X90800000Y-131890476D01*
X90561904Y-131795238D02*
X90800000Y-131890476D01*
X91038095Y-131795238D01*
X90657142Y-132080952D02*
X90800000Y-131890476D01*
X90942857Y-132080952D01*
X90800000Y-131652380D02*
X90800000Y-131890476D01*
X90561904Y-131795238D02*
X90800000Y-131890476D01*
X91038095Y-131795238D01*
X90657142Y-132080952D02*
X90800000Y-131890476D01*
X90942857Y-132080952D01*
%TO.C,R13*%
X97274142Y-127579380D02*
X96940809Y-127103190D01*
X96702714Y-127579380D02*
X96702714Y-126579380D01*
X97083666Y-126579380D01*
X97178904Y-126627000D01*
X97226523Y-126674619D01*
X97274142Y-126769857D01*
X97274142Y-126912714D01*
X97226523Y-127007952D01*
X97178904Y-127055571D01*
X97083666Y-127103190D01*
X96702714Y-127103190D01*
X98226523Y-127579380D02*
X97655095Y-127579380D01*
X97940809Y-127579380D02*
X97940809Y-126579380D01*
X97845571Y-126722238D01*
X97750333Y-126817476D01*
X97655095Y-126865095D01*
X98559857Y-126579380D02*
X99178904Y-126579380D01*
X98845571Y-126960333D01*
X98988428Y-126960333D01*
X99083666Y-127007952D01*
X99131285Y-127055571D01*
X99178904Y-127150809D01*
X99178904Y-127388904D01*
X99131285Y-127484142D01*
X99083666Y-127531761D01*
X98988428Y-127579380D01*
X98702714Y-127579380D01*
X98607476Y-127531761D01*
X98559857Y-127484142D01*
%TO.C,D2*%
X117261904Y-144552380D02*
X117261904Y-143552380D01*
X117500000Y-143552380D01*
X117642857Y-143600000D01*
X117738095Y-143695238D01*
X117785714Y-143790476D01*
X117833333Y-143980952D01*
X117833333Y-144123809D01*
X117785714Y-144314285D01*
X117738095Y-144409523D01*
X117642857Y-144504761D01*
X117500000Y-144552380D01*
X117261904Y-144552380D01*
X118214285Y-143647619D02*
X118261904Y-143600000D01*
X118357142Y-143552380D01*
X118595238Y-143552380D01*
X118690476Y-143600000D01*
X118738095Y-143647619D01*
X118785714Y-143742857D01*
X118785714Y-143838095D01*
X118738095Y-143980952D01*
X118166666Y-144552380D01*
X118785714Y-144552380D01*
%TO.C,J2*%
X76416666Y-144702380D02*
X76416666Y-145416666D01*
X76369047Y-145559523D01*
X76273809Y-145654761D01*
X76130952Y-145702380D01*
X76035714Y-145702380D01*
X76845238Y-144797619D02*
X76892857Y-144750000D01*
X76988095Y-144702380D01*
X77226190Y-144702380D01*
X77321428Y-144750000D01*
X77369047Y-144797619D01*
X77416666Y-144892857D01*
X77416666Y-144988095D01*
X77369047Y-145130952D01*
X76797619Y-145702380D01*
X77416666Y-145702380D01*
X82064599Y-144419981D02*
X82064599Y-144658077D01*
X81826503Y-144562839D02*
X82064599Y-144658077D01*
X82302694Y-144562839D01*
X81921741Y-144848553D02*
X82064599Y-144658077D01*
X82207456Y-144848553D01*
%TO.C,JP8*%
X104481380Y-129992333D02*
X105195666Y-129992333D01*
X105338523Y-130039952D01*
X105433761Y-130135190D01*
X105481380Y-130278047D01*
X105481380Y-130373285D01*
X105481380Y-129516142D02*
X104481380Y-129516142D01*
X104481380Y-129135190D01*
X104529000Y-129039952D01*
X104576619Y-128992333D01*
X104671857Y-128944714D01*
X104814714Y-128944714D01*
X104909952Y-128992333D01*
X104957571Y-129039952D01*
X105005190Y-129135190D01*
X105005190Y-129516142D01*
X104909952Y-128373285D02*
X104862333Y-128468523D01*
X104814714Y-128516142D01*
X104719476Y-128563761D01*
X104671857Y-128563761D01*
X104576619Y-128516142D01*
X104529000Y-128468523D01*
X104481380Y-128373285D01*
X104481380Y-128182809D01*
X104529000Y-128087571D01*
X104576619Y-128039952D01*
X104671857Y-127992333D01*
X104719476Y-127992333D01*
X104814714Y-128039952D01*
X104862333Y-128087571D01*
X104909952Y-128182809D01*
X104909952Y-128373285D01*
X104957571Y-128468523D01*
X105005190Y-128516142D01*
X105100428Y-128563761D01*
X105290904Y-128563761D01*
X105386142Y-128516142D01*
X105433761Y-128468523D01*
X105481380Y-128373285D01*
X105481380Y-128182809D01*
X105433761Y-128087571D01*
X105386142Y-128039952D01*
X105290904Y-127992333D01*
X105100428Y-127992333D01*
X105005190Y-128039952D01*
X104957571Y-128087571D01*
X104909952Y-128182809D01*
%TO.C,JP1*%
X130611666Y-130606715D02*
X130611666Y-131321001D01*
X130564047Y-131463858D01*
X130468809Y-131559096D01*
X130325952Y-131606715D01*
X130230714Y-131606715D01*
X131087857Y-131606715D02*
X131087857Y-130606715D01*
X131468809Y-130606715D01*
X131564047Y-130654335D01*
X131611666Y-130701954D01*
X131659285Y-130797192D01*
X131659285Y-130940049D01*
X131611666Y-131035287D01*
X131564047Y-131082906D01*
X131468809Y-131130525D01*
X131087857Y-131130525D01*
X132611666Y-131606715D02*
X132040238Y-131606715D01*
X132325952Y-131606715D02*
X132325952Y-130606715D01*
X132230714Y-130749573D01*
X132135476Y-130844811D01*
X132040238Y-130892430D01*
%TO.C,U2*%
X109728095Y-134326380D02*
X109728095Y-135135904D01*
X109775714Y-135231142D01*
X109823333Y-135278761D01*
X109918571Y-135326380D01*
X110109047Y-135326380D01*
X110204285Y-135278761D01*
X110251904Y-135231142D01*
X110299523Y-135135904D01*
X110299523Y-134326380D01*
X110728095Y-134421619D02*
X110775714Y-134374000D01*
X110870952Y-134326380D01*
X111109047Y-134326380D01*
X111204285Y-134374000D01*
X111251904Y-134421619D01*
X111299523Y-134516857D01*
X111299523Y-134612095D01*
X111251904Y-134754952D01*
X110680476Y-135326380D01*
X111299523Y-135326380D01*
X106849850Y-135234480D02*
X106849850Y-135472576D01*
X106611754Y-135377338D02*
X106849850Y-135472576D01*
X107087945Y-135377338D01*
X106706992Y-135663052D02*
X106849850Y-135472576D01*
X106992707Y-135663052D01*
X106849850Y-135234480D02*
X106849850Y-135472576D01*
X106611754Y-135377338D02*
X106849850Y-135472576D01*
X107087945Y-135377338D01*
X106706992Y-135663052D02*
X106849850Y-135472576D01*
X106992707Y-135663052D01*
%TO.C,U3*%
X127538095Y-148952380D02*
X127538095Y-149761904D01*
X127585714Y-149857142D01*
X127633333Y-149904761D01*
X127728571Y-149952380D01*
X127919047Y-149952380D01*
X128014285Y-149904761D01*
X128061904Y-149857142D01*
X128109523Y-149761904D01*
X128109523Y-148952380D01*
X128490476Y-148952380D02*
X129109523Y-148952380D01*
X128776190Y-149333333D01*
X128919047Y-149333333D01*
X129014285Y-149380952D01*
X129061904Y-149428571D01*
X129109523Y-149523809D01*
X129109523Y-149761904D01*
X129061904Y-149857142D01*
X129014285Y-149904761D01*
X128919047Y-149952380D01*
X128633333Y-149952380D01*
X128538095Y-149904761D01*
X128490476Y-149857142D01*
X124206000Y-141692380D02*
X124206000Y-141930476D01*
X123967904Y-141835238D02*
X124206000Y-141930476D01*
X124444095Y-141835238D01*
X124063142Y-142120952D02*
X124206000Y-141930476D01*
X124348857Y-142120952D01*
X124206000Y-141692380D02*
X124206000Y-141930476D01*
X123967904Y-141835238D02*
X124206000Y-141930476D01*
X124444095Y-141835238D01*
X124063142Y-142120952D02*
X124206000Y-141930476D01*
X124348857Y-142120952D01*
%TO.C,C1*%
X86333333Y-126044642D02*
X86285714Y-126092261D01*
X86142857Y-126139880D01*
X86047619Y-126139880D01*
X85904761Y-126092261D01*
X85809523Y-125997023D01*
X85761904Y-125901785D01*
X85714285Y-125711309D01*
X85714285Y-125568452D01*
X85761904Y-125377976D01*
X85809523Y-125282738D01*
X85904761Y-125187500D01*
X86047619Y-125139880D01*
X86142857Y-125139880D01*
X86285714Y-125187500D01*
X86333333Y-125235119D01*
X87285714Y-126139880D02*
X86714285Y-126139880D01*
X87000000Y-126139880D02*
X87000000Y-125139880D01*
X86904761Y-125282738D01*
X86809523Y-125377976D01*
X86714285Y-125425595D01*
%TO.C,JP5*%
X125150666Y-130643380D02*
X125150666Y-131357666D01*
X125103047Y-131500523D01*
X125007809Y-131595761D01*
X124864952Y-131643380D01*
X124769714Y-131643380D01*
X125626857Y-131643380D02*
X125626857Y-130643380D01*
X126007809Y-130643380D01*
X126103047Y-130691000D01*
X126150666Y-130738619D01*
X126198285Y-130833857D01*
X126198285Y-130976714D01*
X126150666Y-131071952D01*
X126103047Y-131119571D01*
X126007809Y-131167190D01*
X125626857Y-131167190D01*
X127103047Y-130643380D02*
X126626857Y-130643380D01*
X126579238Y-131119571D01*
X126626857Y-131071952D01*
X126722095Y-131024333D01*
X126960190Y-131024333D01*
X127055428Y-131071952D01*
X127103047Y-131119571D01*
X127150666Y-131214809D01*
X127150666Y-131452904D01*
X127103047Y-131548142D01*
X127055428Y-131595761D01*
X126960190Y-131643380D01*
X126722095Y-131643380D01*
X126626857Y-131595761D01*
X126579238Y-131548142D01*
%TO.C,C3*%
X118433333Y-126357142D02*
X118385714Y-126404761D01*
X118242857Y-126452380D01*
X118147619Y-126452380D01*
X118004761Y-126404761D01*
X117909523Y-126309523D01*
X117861904Y-126214285D01*
X117814285Y-126023809D01*
X117814285Y-125880952D01*
X117861904Y-125690476D01*
X117909523Y-125595238D01*
X118004761Y-125500000D01*
X118147619Y-125452380D01*
X118242857Y-125452380D01*
X118385714Y-125500000D01*
X118433333Y-125547619D01*
X118766666Y-125452380D02*
X119385714Y-125452380D01*
X119052380Y-125833333D01*
X119195238Y-125833333D01*
X119290476Y-125880952D01*
X119338095Y-125928571D01*
X119385714Y-126023809D01*
X119385714Y-126261904D01*
X119338095Y-126357142D01*
X119290476Y-126404761D01*
X119195238Y-126452380D01*
X118909523Y-126452380D01*
X118814285Y-126404761D01*
X118766666Y-126357142D01*
%TO.C,J1*%
X76666666Y-131452380D02*
X76666666Y-132166666D01*
X76619047Y-132309523D01*
X76523809Y-132404761D01*
X76380952Y-132452380D01*
X76285714Y-132452380D01*
X77666666Y-132452380D02*
X77095238Y-132452380D01*
X77380952Y-132452380D02*
X77380952Y-131452380D01*
X77285714Y-131595238D01*
X77190476Y-131690476D01*
X77095238Y-131738095D01*
X76735400Y-130631380D02*
X76735400Y-130869476D01*
X76497304Y-130774238D02*
X76735400Y-130869476D01*
X76973495Y-130774238D01*
X76592542Y-131059952D02*
X76735400Y-130869476D01*
X76878257Y-131059952D01*
%TO.C,JP9*%
X116477380Y-130208333D02*
X117191666Y-130208333D01*
X117334523Y-130255952D01*
X117429761Y-130351190D01*
X117477380Y-130494047D01*
X117477380Y-130589285D01*
X117477380Y-129732142D02*
X116477380Y-129732142D01*
X116477380Y-129351190D01*
X116525000Y-129255952D01*
X116572619Y-129208333D01*
X116667857Y-129160714D01*
X116810714Y-129160714D01*
X116905952Y-129208333D01*
X116953571Y-129255952D01*
X117001190Y-129351190D01*
X117001190Y-129732142D01*
X117477380Y-128684523D02*
X117477380Y-128494047D01*
X117429761Y-128398809D01*
X117382142Y-128351190D01*
X117239285Y-128255952D01*
X117048809Y-128208333D01*
X116667857Y-128208333D01*
X116572619Y-128255952D01*
X116525000Y-128303571D01*
X116477380Y-128398809D01*
X116477380Y-128589285D01*
X116525000Y-128684523D01*
X116572619Y-128732142D01*
X116667857Y-128779761D01*
X116905952Y-128779761D01*
X117001190Y-128732142D01*
X117048809Y-128684523D01*
X117096428Y-128589285D01*
X117096428Y-128398809D01*
X117048809Y-128303571D01*
X117001190Y-128255952D01*
X116905952Y-128208333D01*
%TO.C,R15*%
X104252380Y-135242857D02*
X103776190Y-135576190D01*
X104252380Y-135814285D02*
X103252380Y-135814285D01*
X103252380Y-135433333D01*
X103300000Y-135338095D01*
X103347619Y-135290476D01*
X103442857Y-135242857D01*
X103585714Y-135242857D01*
X103680952Y-135290476D01*
X103728571Y-135338095D01*
X103776190Y-135433333D01*
X103776190Y-135814285D01*
X104252380Y-134290476D02*
X104252380Y-134861904D01*
X104252380Y-134576190D02*
X103252380Y-134576190D01*
X103395238Y-134671428D01*
X103490476Y-134766666D01*
X103538095Y-134861904D01*
X103252380Y-133385714D02*
X103252380Y-133861904D01*
X103728571Y-133909523D01*
X103680952Y-133861904D01*
X103633333Y-133766666D01*
X103633333Y-133528571D01*
X103680952Y-133433333D01*
X103728571Y-133385714D01*
X103823809Y-133338095D01*
X104061904Y-133338095D01*
X104157142Y-133385714D01*
X104204761Y-133433333D01*
X104252380Y-133528571D01*
X104252380Y-133766666D01*
X104204761Y-133861904D01*
X104157142Y-133909523D01*
%TO.C,J4*%
X86266666Y-144752380D02*
X86266666Y-145466666D01*
X86219047Y-145609523D01*
X86123809Y-145704761D01*
X85980952Y-145752380D01*
X85885714Y-145752380D01*
X87171428Y-145085714D02*
X87171428Y-145752380D01*
X86933333Y-144704761D02*
X86695238Y-145419047D01*
X87314285Y-145419047D01*
%TO.C,U6*%
X111038095Y-131652380D02*
X111038095Y-132461904D01*
X111085714Y-132557142D01*
X111133333Y-132604761D01*
X111228571Y-132652380D01*
X111419047Y-132652380D01*
X111514285Y-132604761D01*
X111561904Y-132557142D01*
X111609523Y-132461904D01*
X111609523Y-131652380D01*
X112514285Y-131652380D02*
X112323809Y-131652380D01*
X112228571Y-131700000D01*
X112180952Y-131747619D01*
X112085714Y-131890476D01*
X112038095Y-132080952D01*
X112038095Y-132461904D01*
X112085714Y-132557142D01*
X112133333Y-132604761D01*
X112228571Y-132652380D01*
X112419047Y-132652380D01*
X112514285Y-132604761D01*
X112561904Y-132557142D01*
X112609523Y-132461904D01*
X112609523Y-132223809D01*
X112561904Y-132128571D01*
X112514285Y-132080952D01*
X112419047Y-132033333D01*
X112228571Y-132033333D01*
X112133333Y-132080952D01*
X112085714Y-132128571D01*
X112038095Y-132223809D01*
X108966000Y-127468380D02*
X108966000Y-127706476D01*
X108727904Y-127611238D02*
X108966000Y-127706476D01*
X109204095Y-127611238D01*
X108823142Y-127896952D02*
X108966000Y-127706476D01*
X109108857Y-127896952D01*
X108966000Y-127468380D02*
X108966000Y-127706476D01*
X108727904Y-127611238D02*
X108966000Y-127706476D01*
X109204095Y-127611238D01*
X108823142Y-127896952D02*
X108966000Y-127706476D01*
X109108857Y-127896952D01*
%TO.C,C5*%
X105878333Y-126341142D02*
X105830714Y-126388761D01*
X105687857Y-126436380D01*
X105592619Y-126436380D01*
X105449761Y-126388761D01*
X105354523Y-126293523D01*
X105306904Y-126198285D01*
X105259285Y-126007809D01*
X105259285Y-125864952D01*
X105306904Y-125674476D01*
X105354523Y-125579238D01*
X105449761Y-125484000D01*
X105592619Y-125436380D01*
X105687857Y-125436380D01*
X105830714Y-125484000D01*
X105878333Y-125531619D01*
X106783095Y-125436380D02*
X106306904Y-125436380D01*
X106259285Y-125912571D01*
X106306904Y-125864952D01*
X106402142Y-125817333D01*
X106640238Y-125817333D01*
X106735476Y-125864952D01*
X106783095Y-125912571D01*
X106830714Y-126007809D01*
X106830714Y-126245904D01*
X106783095Y-126341142D01*
X106735476Y-126388761D01*
X106640238Y-126436380D01*
X106402142Y-126436380D01*
X106306904Y-126388761D01*
X106259285Y-126341142D01*
%TO.C,JP4*%
X127817666Y-130643380D02*
X127817666Y-131357666D01*
X127770047Y-131500523D01*
X127674809Y-131595761D01*
X127531952Y-131643380D01*
X127436714Y-131643380D01*
X128293857Y-131643380D02*
X128293857Y-130643380D01*
X128674809Y-130643380D01*
X128770047Y-130691000D01*
X128817666Y-130738619D01*
X128865285Y-130833857D01*
X128865285Y-130976714D01*
X128817666Y-131071952D01*
X128770047Y-131119571D01*
X128674809Y-131167190D01*
X128293857Y-131167190D01*
X129722428Y-130976714D02*
X129722428Y-131643380D01*
X129484333Y-130595761D02*
X129246238Y-131310047D01*
X129865285Y-131310047D01*
%TO.C,R2*%
X86952380Y-148666666D02*
X86476190Y-149000000D01*
X86952380Y-149238095D02*
X85952380Y-149238095D01*
X85952380Y-148857142D01*
X86000000Y-148761904D01*
X86047619Y-148714285D01*
X86142857Y-148666666D01*
X86285714Y-148666666D01*
X86380952Y-148714285D01*
X86428571Y-148761904D01*
X86476190Y-148857142D01*
X86476190Y-149238095D01*
X86047619Y-148285714D02*
X86000000Y-148238095D01*
X85952380Y-148142857D01*
X85952380Y-147904761D01*
X86000000Y-147809523D01*
X86047619Y-147761904D01*
X86142857Y-147714285D01*
X86238095Y-147714285D01*
X86380952Y-147761904D01*
X86952380Y-148333333D01*
X86952380Y-147714285D01*
%TO.C,R3*%
X133133333Y-140952380D02*
X132800000Y-140476190D01*
X132561904Y-140952380D02*
X132561904Y-139952380D01*
X132942857Y-139952380D01*
X133038095Y-140000000D01*
X133085714Y-140047619D01*
X133133333Y-140142857D01*
X133133333Y-140285714D01*
X133085714Y-140380952D01*
X133038095Y-140428571D01*
X132942857Y-140476190D01*
X132561904Y-140476190D01*
X133466666Y-139952380D02*
X134085714Y-139952380D01*
X133752380Y-140333333D01*
X133895238Y-140333333D01*
X133990476Y-140380952D01*
X134038095Y-140428571D01*
X134085714Y-140523809D01*
X134085714Y-140761904D01*
X134038095Y-140857142D01*
X133990476Y-140904761D01*
X133895238Y-140952380D01*
X133609523Y-140952380D01*
X133514285Y-140904761D01*
X133466666Y-140857142D01*
%TO.C,R7*%
X122933333Y-140752380D02*
X122600000Y-140276190D01*
X122361904Y-140752380D02*
X122361904Y-139752380D01*
X122742857Y-139752380D01*
X122838095Y-139800000D01*
X122885714Y-139847619D01*
X122933333Y-139942857D01*
X122933333Y-140085714D01*
X122885714Y-140180952D01*
X122838095Y-140228571D01*
X122742857Y-140276190D01*
X122361904Y-140276190D01*
X123266666Y-139752380D02*
X123933333Y-139752380D01*
X123504761Y-140752380D01*
%TO.C,R14*%
X97274142Y-126182380D02*
X96940809Y-125706190D01*
X96702714Y-126182380D02*
X96702714Y-125182380D01*
X97083666Y-125182380D01*
X97178904Y-125230000D01*
X97226523Y-125277619D01*
X97274142Y-125372857D01*
X97274142Y-125515714D01*
X97226523Y-125610952D01*
X97178904Y-125658571D01*
X97083666Y-125706190D01*
X96702714Y-125706190D01*
X98226523Y-126182380D02*
X97655095Y-126182380D01*
X97940809Y-126182380D02*
X97940809Y-125182380D01*
X97845571Y-125325238D01*
X97750333Y-125420476D01*
X97655095Y-125468095D01*
X99083666Y-125515714D02*
X99083666Y-126182380D01*
X98845571Y-125134761D02*
X98607476Y-125849047D01*
X99226523Y-125849047D01*
%TO.C,JP3*%
X116641666Y-140549380D02*
X116641666Y-141263666D01*
X116594047Y-141406523D01*
X116498809Y-141501761D01*
X116355952Y-141549380D01*
X116260714Y-141549380D01*
X117117857Y-141549380D02*
X117117857Y-140549380D01*
X117498809Y-140549380D01*
X117594047Y-140597000D01*
X117641666Y-140644619D01*
X117689285Y-140739857D01*
X117689285Y-140882714D01*
X117641666Y-140977952D01*
X117594047Y-141025571D01*
X117498809Y-141073190D01*
X117117857Y-141073190D01*
X118022619Y-140549380D02*
X118641666Y-140549380D01*
X118308333Y-140930333D01*
X118451190Y-140930333D01*
X118546428Y-140977952D01*
X118594047Y-141025571D01*
X118641666Y-141120809D01*
X118641666Y-141358904D01*
X118594047Y-141454142D01*
X118546428Y-141501761D01*
X118451190Y-141549380D01*
X118165476Y-141549380D01*
X118070238Y-141501761D01*
X118022619Y-141454142D01*
%TO.C,D1*%
X117461904Y-145952380D02*
X117461904Y-144952380D01*
X117700000Y-144952380D01*
X117842857Y-145000000D01*
X117938095Y-145095238D01*
X117985714Y-145190476D01*
X118033333Y-145380952D01*
X118033333Y-145523809D01*
X117985714Y-145714285D01*
X117938095Y-145809523D01*
X117842857Y-145904761D01*
X117700000Y-145952380D01*
X117461904Y-145952380D01*
X118985714Y-145952380D02*
X118414285Y-145952380D01*
X118700000Y-145952380D02*
X118700000Y-144952380D01*
X118604761Y-145095238D01*
X118509523Y-145190476D01*
X118414285Y-145238095D01*
D11*
%TO.C,C6*%
X90665000Y-128423752D02*
X90665000Y-127901248D01*
X92135000Y-128423752D02*
X92135000Y-127901248D01*
%TO.C,J3*%
X90250000Y-140350000D02*
X90250000Y-145750000D01*
X89750000Y-150550000D02*
X105650000Y-150550000D01*
X89750000Y-145500000D02*
X89750000Y-150550000D01*
X89750000Y-140600000D02*
X90250000Y-140350000D01*
X90250000Y-145750000D02*
X89750000Y-145500000D01*
X90250000Y-137950000D02*
X90250000Y-138900000D01*
X105650000Y-137950000D02*
X90250000Y-137950000D01*
X89750000Y-138600000D02*
X89750000Y-140600000D01*
X105650000Y-150550000D02*
X105650000Y-137950000D01*
X90250000Y-138900000D02*
X89750000Y-138600000D01*
%TO.C,C2*%
X89485000Y-128276248D02*
X89485000Y-128798752D01*
X88015000Y-128276248D02*
X88015000Y-128798752D01*
%TO.C,C7*%
X101065000Y-129237500D02*
X101065000Y-133322500D01*
X102935000Y-133322500D02*
X102935000Y-129237500D01*
X101065000Y-133322500D02*
X102935000Y-133322500D01*
%TO.C,JP2*%
X120098000Y-134305000D02*
X120098000Y-136255000D01*
X120098000Y-136255000D02*
X114598000Y-136255000D01*
X114598000Y-134305000D02*
X120098000Y-134305000D01*
X118748000Y-134055000D02*
X119048000Y-133755000D01*
X119048000Y-133755000D02*
X118448000Y-133755000D01*
X114598000Y-136255000D02*
X114598000Y-134305000D01*
X118448000Y-133755000D02*
X118748000Y-134055000D01*
%TO.C,R5*%
X130027064Y-141335000D02*
X129572936Y-141335000D01*
X130027064Y-139865000D02*
X129572936Y-139865000D01*
%TO.C,R1*%
X83515000Y-128022936D02*
X83515000Y-128477064D01*
X84985000Y-128022936D02*
X84985000Y-128477064D01*
%TO.C,U4*%
X112700000Y-125240000D02*
X110800000Y-125240000D01*
X111300000Y-127560000D02*
X112700000Y-127560000D01*
%TO.C,U5*%
X96993900Y-131349860D02*
X96993900Y-130506100D01*
X96993900Y-135763900D02*
X96993900Y-134920140D01*
X92579860Y-130506100D02*
X91736100Y-130506100D01*
X96150140Y-135763900D02*
X96993900Y-135763900D01*
X91736100Y-134920140D02*
X91736100Y-135763900D01*
X96993900Y-130506100D02*
X96150140Y-130506100D01*
X91736100Y-130506100D02*
X91736100Y-131349860D01*
X91736100Y-135763900D02*
X92579860Y-135763900D01*
D12*
X92874500Y-130074300D02*
X92874500Y-129820300D01*
X92874500Y-129820300D02*
X93255500Y-129820300D01*
X93255500Y-129820300D02*
X93255500Y-130074300D01*
X93255500Y-130074300D02*
X92874500Y-130074300D01*
G36*
X93255500Y-130074300D02*
G01*
X92874500Y-130074300D01*
X92874500Y-129820300D01*
X93255500Y-129820300D01*
X93255500Y-130074300D01*
G37*
X93255500Y-130074300D02*
X92874500Y-130074300D01*
X92874500Y-129820300D01*
X93255500Y-129820300D01*
X93255500Y-130074300D01*
X95474500Y-136195700D02*
X95474500Y-136449700D01*
X95474500Y-136449700D02*
X95855500Y-136449700D01*
X95855500Y-136449700D02*
X95855500Y-136195700D01*
X95855500Y-136195700D02*
X95474500Y-136195700D01*
G36*
X95855500Y-136449700D02*
G01*
X95474500Y-136449700D01*
X95474500Y-136195700D01*
X95855500Y-136195700D01*
X95855500Y-136449700D01*
G37*
X95855500Y-136449700D02*
X95474500Y-136449700D01*
X95474500Y-136195700D01*
X95855500Y-136195700D01*
X95855500Y-136449700D01*
D11*
%TO.C,R13*%
X94372936Y-128735000D02*
X94827064Y-128735000D01*
X94372936Y-127265000D02*
X94827064Y-127265000D01*
%TO.C,D2*%
X120800000Y-143800000D02*
X119500000Y-143800000D01*
X119500000Y-143800000D02*
X119500000Y-144600000D01*
X120800000Y-144600000D02*
X119500000Y-144600000D01*
%TO.C,J2*%
X82674199Y-146466201D02*
X81687539Y-146466201D01*
X82674199Y-148265560D02*
X82674199Y-146466201D01*
X76425799Y-146466201D02*
X76425799Y-148265560D01*
X77679640Y-150327001D02*
X81420358Y-150327001D01*
X77412459Y-146466201D02*
X76425799Y-146466201D01*
%TO.C,JP8*%
X105800000Y-126850000D02*
X107750000Y-126850000D01*
X107750000Y-126850000D02*
X107750000Y-132350000D01*
X105800000Y-132350000D02*
X105800000Y-126850000D01*
X108300000Y-130700000D02*
X108000000Y-131000000D01*
X108300000Y-131300000D02*
X108300000Y-130700000D01*
X107750000Y-132350000D02*
X105800000Y-132350000D01*
X108000000Y-131000000D02*
X108300000Y-131300000D01*
%TO.C,JP1*%
X132191000Y-133564335D02*
X132191000Y-136364335D01*
X130191000Y-136364335D02*
X130191000Y-133564335D01*
X132191000Y-136364335D02*
X130191000Y-136364335D01*
X130191000Y-133564335D02*
X132191000Y-133564335D01*
%TO.C,U2*%
X108379100Y-141128900D02*
X112620900Y-141128900D01*
X112620900Y-135871100D02*
X108379100Y-135871100D01*
%TO.C,U3*%
X126617433Y-148629000D02*
X130982567Y-148629000D01*
X130982567Y-141771000D02*
X126617433Y-141771000D01*
D12*
X132965600Y-142084563D02*
X132965600Y-142465563D01*
X132965600Y-142465563D02*
X132711600Y-142465563D01*
X132711600Y-142465563D02*
X132711600Y-142084563D01*
X132711600Y-142084563D02*
X132965600Y-142084563D01*
G36*
X132965600Y-142465563D02*
G01*
X132711600Y-142465563D01*
X132711600Y-142084563D01*
X132965600Y-142084563D01*
X132965600Y-142465563D01*
G37*
X132965600Y-142465563D02*
X132711600Y-142465563D01*
X132711600Y-142084563D01*
X132965600Y-142084563D01*
X132965600Y-142465563D01*
X124634400Y-147934437D02*
X124634400Y-148315437D01*
X124634400Y-148315437D02*
X124888400Y-148315437D01*
X124888400Y-148315437D02*
X124888400Y-147934437D01*
X124888400Y-147934437D02*
X124634400Y-147934437D01*
G36*
X124888400Y-148315437D02*
G01*
X124634400Y-148315437D01*
X124634400Y-147934437D01*
X124888400Y-147934437D01*
X124888400Y-148315437D01*
G37*
X124888400Y-148315437D02*
X124634400Y-148315437D01*
X124634400Y-147934437D01*
X124888400Y-147934437D01*
X124888400Y-148315437D01*
D11*
%TO.C,C1*%
X85565000Y-126452500D02*
X85565000Y-130537500D01*
X87435000Y-130537500D02*
X87435000Y-126452500D01*
X87435000Y-126452500D02*
X85565000Y-126452500D01*
%TO.C,JP5*%
X125093323Y-136340981D02*
X125093323Y-133540981D01*
X127093323Y-133540981D02*
X127093323Y-136340981D01*
X127093323Y-136340981D02*
X125093323Y-136340981D01*
X125093323Y-133540981D02*
X127093323Y-133540981D01*
%TO.C,C3*%
X115823752Y-125665000D02*
X115301248Y-125665000D01*
X115823752Y-127135000D02*
X115301248Y-127135000D01*
%TO.C,J1*%
X81120359Y-125819600D02*
X77379641Y-125819600D01*
X76125800Y-129680400D02*
X77112460Y-129680400D01*
X82374200Y-129680400D02*
X82374200Y-127881041D01*
X76125800Y-127881041D02*
X76125800Y-129680400D01*
X81387540Y-129680400D02*
X82374200Y-129680400D01*
%TO.C,JP9*%
X120300000Y-131200000D02*
X120000000Y-131500000D01*
X120300000Y-131800000D02*
X120300000Y-131200000D01*
X119750000Y-127350000D02*
X119750000Y-132850000D01*
X120000000Y-131500000D02*
X120300000Y-131800000D01*
X119750000Y-132850000D02*
X117800000Y-132850000D01*
X117800000Y-127350000D02*
X119750000Y-127350000D01*
X117800000Y-132850000D02*
X117800000Y-127350000D01*
%TO.C,R15*%
X101265000Y-135627064D02*
X101265000Y-135172936D01*
X102735000Y-135627064D02*
X102735000Y-135172936D01*
%TO.C,J4*%
X81100000Y-132965000D02*
X76000000Y-132965000D01*
X87650000Y-133465000D02*
X87900000Y-132965000D01*
X76000000Y-143815000D02*
X88600000Y-143815000D01*
X76000000Y-132965000D02*
X76000000Y-143815000D01*
X88600000Y-143815000D02*
X88600000Y-133465000D01*
X85950000Y-132965000D02*
X86200000Y-133465000D01*
X80800000Y-133465000D02*
X81100000Y-132965000D01*
X86000000Y-132965000D02*
X85950000Y-132965000D01*
X88600000Y-133465000D02*
X87650000Y-133465000D01*
X86200000Y-133465000D02*
X80800000Y-133465000D01*
X87900000Y-132965000D02*
X86000000Y-132965000D01*
%TO.C,U6*%
X113349400Y-128050600D02*
X110250600Y-128050600D01*
X110250600Y-131149400D02*
X113349400Y-131149400D01*
X111495200Y-128050600D02*
G75*
G03*
X112104800Y-128050600I304800J0D01*
G01*
%TO.C,C5*%
X103298752Y-127535000D02*
X102776248Y-127535000D01*
X103298752Y-126065000D02*
X102776248Y-126065000D01*
%TO.C,JP4*%
X129651000Y-136364000D02*
X127651000Y-136364000D01*
X127651000Y-133564000D02*
X129651000Y-133564000D01*
X127651000Y-136364000D02*
X127651000Y-133564000D01*
X129651000Y-133564000D02*
X129651000Y-136364000D01*
%TO.C,R2*%
X83765000Y-148727064D02*
X83765000Y-148272936D01*
X85235000Y-148727064D02*
X85235000Y-148272936D01*
%TO.C,R3*%
X132527064Y-137865000D02*
X132072936Y-137865000D01*
X132527064Y-139335000D02*
X132072936Y-139335000D01*
%TO.C,R7*%
X124772936Y-139335000D02*
X125227064Y-139335000D01*
X124772936Y-137865000D02*
X125227064Y-137865000D01*
%TO.C,R14*%
X94827064Y-125265000D02*
X94372936Y-125265000D01*
X94827064Y-126735000D02*
X94372936Y-126735000D01*
%TO.C,JP3*%
X114598000Y-137988000D02*
X120098000Y-137988000D01*
X120098000Y-139938000D02*
X114598000Y-139938000D01*
X118748000Y-137738000D02*
X119048000Y-137438000D01*
X118448000Y-137438000D02*
X118748000Y-137738000D01*
X114598000Y-139938000D02*
X114598000Y-137988000D01*
X119048000Y-137438000D02*
X118448000Y-137438000D01*
X120098000Y-137988000D02*
X120098000Y-139938000D01*
%TO.C,D1*%
X120800000Y-145000000D02*
X119500000Y-145000000D01*
X120800000Y-145800000D02*
X119500000Y-145800000D01*
X119500000Y-145000000D02*
X119500000Y-145800000D01*
%TD*%
M02*
