%TF.GenerationSoftware,KiCad,Pcbnew,6.0.2+dfsg-1*%
%TF.CreationDate,2023-01-19T17:09:43-05:00*%
%TF.ProjectId,sensor-board,73656e73-6f72-42d6-926f-6172642e6b69,rev?*%
%TF.SameCoordinates,Original*%
%TF.FileFunction,Copper,L1,Top*%
%TF.FilePolarity,Positive*%
%FSLAX46Y46*%
G04 Gerber Fmt 4.6, Leading zero omitted, Abs format (unit mm)*
G04 Created by KiCad (PCBNEW 6.0.2+dfsg-1) date 2023-01-19 17:09:43*
%MOMM*%
%LPD*%
G01*
G04 APERTURE LIST*
G04 Aperture macros list*
%AMRoundRect*
0 Rectangle with rounded corners*
0 $1 Rounding radius*
0 $2 $3 $4 $5 $6 $7 $8 $9 X,Y pos of 4 corners*
0 Add a 4 corners polygon primitive as box body*
4,1,4,$2,$3,$4,$5,$6,$7,$8,$9,$2,$3,0*
0 Add four circle primitives for the rounded corners*
1,1,$1+$1,$2,$3*
1,1,$1+$1,$4,$5*
1,1,$1+$1,$6,$7*
1,1,$1+$1,$8,$9*
0 Add four rect primitives between the rounded corners*
20,1,$1+$1,$2,$3,$4,$5,0*
20,1,$1+$1,$4,$5,$6,$7,0*
20,1,$1+$1,$6,$7,$8,$9,0*
20,1,$1+$1,$8,$9,$2,$3,0*%
G04 Aperture macros list end*
%TA.AperFunction,SMDPad,CuDef*%
%ADD10RoundRect,0.250000X0.475000X-0.337500X0.475000X0.337500X-0.475000X0.337500X-0.475000X-0.337500X0*%
%TD*%
%TA.AperFunction,ComponentPad*%
%ADD11R,1.980000X3.960000*%
%TD*%
%TA.AperFunction,ComponentPad*%
%ADD12O,1.980000X3.960000*%
%TD*%
%TA.AperFunction,SMDPad,CuDef*%
%ADD13RoundRect,0.250000X-0.475000X0.337500X-0.475000X-0.337500X0.475000X-0.337500X0.475000X0.337500X0*%
%TD*%
%TA.AperFunction,SMDPad,CuDef*%
%ADD14RoundRect,0.250000X0.425000X-0.537500X0.425000X0.537500X-0.425000X0.537500X-0.425000X-0.537500X0*%
%TD*%
%TA.AperFunction,SMDPad,CuDef*%
%ADD15R,1.500000X1.000000*%
%TD*%
%TA.AperFunction,ComponentPad*%
%ADD16R,3.960000X1.980000*%
%TD*%
%TA.AperFunction,ComponentPad*%
%ADD17O,3.960000X1.980000*%
%TD*%
%TA.AperFunction,SMDPad,CuDef*%
%ADD18RoundRect,0.250000X-0.450000X0.350000X-0.450000X-0.350000X0.450000X-0.350000X0.450000X0.350000X0*%
%TD*%
%TA.AperFunction,SMDPad,CuDef*%
%ADD19R,0.650000X0.400000*%
%TD*%
%TA.AperFunction,SMDPad,CuDef*%
%ADD20R,0.762000X0.304800*%
%TD*%
%TA.AperFunction,SMDPad,CuDef*%
%ADD21R,0.304800X0.762000*%
%TD*%
%TA.AperFunction,SMDPad,CuDef*%
%ADD22R,3.352800X3.352800*%
%TD*%
%TA.AperFunction,SMDPad,CuDef*%
%ADD23RoundRect,0.250000X-0.350000X-0.450000X0.350000X-0.450000X0.350000X0.450000X-0.350000X0.450000X0*%
%TD*%
%TA.AperFunction,SMDPad,CuDef*%
%ADD24R,0.609600X1.549400*%
%TD*%
%TA.AperFunction,SMDPad,CuDef*%
%ADD25R,1.193800X1.803400*%
%TD*%
%TA.AperFunction,SMDPad,CuDef*%
%ADD26R,1.460500X0.533400*%
%TD*%
%TA.AperFunction,SMDPad,CuDef*%
%ADD27RoundRect,0.250000X-0.425000X0.537500X-0.425000X-0.537500X0.425000X-0.537500X0.425000X0.537500X0*%
%TD*%
%TA.AperFunction,SMDPad,CuDef*%
%ADD28RoundRect,0.250000X0.337500X0.475000X-0.337500X0.475000X-0.337500X-0.475000X0.337500X-0.475000X0*%
%TD*%
%TA.AperFunction,SMDPad,CuDef*%
%ADD29RoundRect,0.250000X0.450000X-0.350000X0.450000X0.350000X-0.450000X0.350000X-0.450000X-0.350000X0*%
%TD*%
%TA.AperFunction,SMDPad,CuDef*%
%ADD30R,1.422400X0.431800*%
%TD*%
%TA.AperFunction,SMDPad,CuDef*%
%ADD31RoundRect,0.250000X0.350000X0.450000X-0.350000X0.450000X-0.350000X-0.450000X0.350000X-0.450000X0*%
%TD*%
%TA.AperFunction,ViaPad*%
%ADD32C,0.800000*%
%TD*%
%TA.AperFunction,Conductor*%
%ADD33C,0.250000*%
%TD*%
%TA.AperFunction,Conductor*%
%ADD34C,0.200000*%
%TD*%
G04 APERTURE END LIST*
D10*
%TO.P,C6,1*%
%TO.N,+3V3*%
X91400000Y-129200000D03*
%TO.P,C6,2*%
%TO.N,GND*%
X91400000Y-127125000D03*
%TD*%
D11*
%TO.P,J4,1,Pin_1*%
%TO.N,+3V3*%
X103000000Y-144250000D03*
D12*
%TO.P,J4,2,Pin_2*%
%TO.N,DQ*%
X98000000Y-144250000D03*
%TO.P,J4,3,Pin_3*%
%TO.N,GND*%
X93000000Y-144250000D03*
%TD*%
D13*
%TO.P,C2,1*%
%TO.N,+3V3*%
X88750000Y-127500000D03*
%TO.P,C2,2*%
%TO.N,GND*%
X88750000Y-129575000D03*
%TD*%
D14*
%TO.P,C7,1*%
%TO.N,+3V3A*%
X102000000Y-132275000D03*
%TO.P,C7,2*%
%TO.N,GNDA*%
X102000000Y-129400000D03*
%TD*%
D15*
%TO.P,JP1,1,A*%
%TO.N,GND*%
X116000000Y-137850000D03*
%TO.P,JP1,2,C*%
%TO.N,Net-(JP1-Pad2)*%
X116000000Y-136550000D03*
%TO.P,JP1,3,B*%
%TO.N,+3V3*%
X116000000Y-135250000D03*
%TD*%
D16*
%TO.P,J3,1,Pin_1*%
%TO.N,VIN+*%
X82250000Y-141250000D03*
D17*
%TO.P,J3,2,Pin_2*%
%TO.N,VIN-*%
X82250000Y-136250000D03*
%TD*%
D18*
%TO.P,R1,1*%
%TO.N,+3V3*%
X84250000Y-127250000D03*
%TO.P,R1,2*%
%TO.N,SCL*%
X84250000Y-129250000D03*
%TD*%
D19*
%TO.P,U3,1,+*%
%TO.N,Net-(D1-Pad1)*%
X111050000Y-125750000D03*
%TO.P,U3,2,V-*%
%TO.N,GNDA*%
X111050000Y-126400000D03*
%TO.P,U3,3,-*%
%TO.N,Net-(U3-Pad3)*%
X111050000Y-127050000D03*
%TO.P,U3,4*%
X112950000Y-127050000D03*
%TO.P,U3,5,~{SHDN}*%
%TO.N,+3V3A*%
X112950000Y-126400000D03*
%TO.P,U3,6,V+*%
X112950000Y-125750000D03*
%TD*%
D20*
%TO.P,U4,1,GND*%
%TO.N,GND*%
X91939300Y-131835000D03*
%TO.P,U4,2,VIN+*%
%TO.N,VIN+*%
X91939300Y-132485001D03*
%TO.P,U4,3,GND*%
%TO.N,GND*%
X91939300Y-133135000D03*
%TO.P,U4,4,VIN-*%
%TO.N,VIN-*%
X91939300Y-133784999D03*
%TO.P,U4,5,GND*%
%TO.N,GND*%
X91939300Y-134435000D03*
D21*
%TO.P,U4,6,VSENSE*%
%TO.N,VIN+*%
X93065000Y-135560700D03*
%TO.P,U4,7,SC_ALERT*%
%TO.N,unconnected-(U4-Pad7)*%
X93715001Y-135560700D03*
%TO.P,U4,8,VDD*%
%TO.N,+3V3*%
X94365000Y-135560700D03*
%TO.P,U4,9,OC_ALERT*%
%TO.N,unconnected-(U4-Pad9)*%
X95014999Y-135560700D03*
%TO.P,U4,10,GND*%
%TO.N,GND*%
X95665000Y-135560700D03*
D20*
%TO.P,U4,11,ALERT1*%
%TO.N,unconnected-(U4-Pad11)*%
X96790700Y-134435000D03*
%TO.P,U4,12,ALERT2*%
%TO.N,unconnected-(U4-Pad12)*%
X96790700Y-133784999D03*
%TO.P,U4,13,GND*%
%TO.N,GND*%
X96790700Y-133135000D03*
%TO.P,U4,14,ALERT3*%
%TO.N,unconnected-(U4-Pad14)*%
X96790700Y-132485001D03*
%TO.P,U4,15,ALERT4*%
%TO.N,unconnected-(U4-Pad15)*%
X96790700Y-131835000D03*
D21*
%TO.P,U4,16,ADDR*%
%TO.N,Net-(R8-Pad2)*%
X95665000Y-130709300D03*
%TO.P,U4,17,GND*%
%TO.N,GND*%
X95014999Y-130709300D03*
%TO.P,U4,18,GND*%
X94365000Y-130709300D03*
%TO.P,U4,19,SCL*%
%TO.N,SCL*%
X93715001Y-130709300D03*
%TO.P,U4,20,SDA*%
%TO.N,SDA*%
X93065000Y-130709300D03*
D22*
%TO.P,U4,21,GND*%
%TO.N,GND*%
X94365000Y-133135000D03*
%TD*%
D23*
%TO.P,R8,1*%
%TO.N,+3V3*%
X93600000Y-128000000D03*
%TO.P,R8,2*%
%TO.N,Net-(R8-Pad2)*%
X95600000Y-128000000D03*
%TD*%
D24*
%TO.P,J2,1,1*%
%TO.N,GND*%
X81049999Y-146975001D03*
%TO.P,J2,2,2*%
%TO.N,+3V3*%
X80049998Y-146975001D03*
%TO.P,J2,3,3*%
%TO.N,SDA*%
X79050000Y-146975001D03*
%TO.P,J2,4,4*%
%TO.N,SCL*%
X78049999Y-146975001D03*
D25*
%TO.P,J2,5*%
%TO.N,N/C*%
X82349998Y-149500000D03*
%TO.P,J2,6*%
X76750000Y-149500000D03*
%TD*%
D15*
%TO.P,JP3,1,A*%
%TO.N,GNDA*%
X106800000Y-130900000D03*
%TO.P,JP3,2,C*%
%TO.N,Net-(JP3-Pad2)*%
X106800000Y-129600000D03*
%TO.P,JP3,3,B*%
%TO.N,+3V3A*%
X106800000Y-128300000D03*
%TD*%
D26*
%TO.P,U2,1,VCC*%
%TO.N,+3V3*%
X107775850Y-136595000D03*
%TO.P,U2,2,IO*%
%TO.N,DQ*%
X107775850Y-137865000D03*
%TO.P,U2,3,GND*%
%TO.N,GND*%
X107775850Y-139135000D03*
%TO.P,U2,4,SCL*%
%TO.N,SCL*%
X107775850Y-140405000D03*
%TO.P,U2,5,SDA*%
%TO.N,SDA*%
X113224150Y-140405000D03*
%TO.P,U2,6,PCTLZ*%
%TO.N,PCTLZ*%
X113224150Y-139135000D03*
%TO.P,U2,7,AD1*%
%TO.N,Net-(JP2-Pad2)*%
X113224150Y-137865000D03*
%TO.P,U2,8,AD0*%
%TO.N,Net-(JP1-Pad2)*%
X113224150Y-136595000D03*
%TD*%
D27*
%TO.P,C1,1*%
%TO.N,+3V3*%
X86500000Y-127500000D03*
%TO.P,C1,2*%
%TO.N,GND*%
X86500000Y-130375000D03*
%TD*%
D28*
%TO.P,C4,1*%
%TO.N,GNDA*%
X116600000Y-126400000D03*
%TO.P,C4,2*%
%TO.N,+3V3A*%
X114525000Y-126400000D03*
%TD*%
D24*
%TO.P,J1,1,1*%
%TO.N,GND*%
X77750000Y-129171600D03*
%TO.P,J1,2,2*%
%TO.N,+3V3*%
X78750001Y-129171600D03*
%TO.P,J1,3,3*%
%TO.N,SDA*%
X79749999Y-129171600D03*
%TO.P,J1,4,4*%
%TO.N,SCL*%
X80750000Y-129171600D03*
D25*
%TO.P,J1,5*%
%TO.N,N/C*%
X76450001Y-126646601D03*
%TO.P,J1,6*%
X82049999Y-126646601D03*
%TD*%
D15*
%TO.P,JP4,1,A*%
%TO.N,GNDA*%
X117800000Y-131900000D03*
%TO.P,JP4,2,C*%
%TO.N,Net-(JP4-Pad2)*%
X117800000Y-130600000D03*
%TO.P,JP4,3,B*%
%TO.N,+3V3A*%
X117800000Y-129300000D03*
%TD*%
D29*
%TO.P,R10,1*%
%TO.N,+3V3*%
X102000000Y-136400000D03*
%TO.P,R10,2*%
%TO.N,+3V3A*%
X102000000Y-134400000D03*
%TD*%
D30*
%TO.P,U5,1,VREF*%
%TO.N,+3V3A*%
X109628300Y-128625001D03*
%TO.P,U5,2,AIN*%
%TO.N,Net-(U3-Pad3)*%
X109628300Y-129274999D03*
%TO.P,U5,3,A0*%
%TO.N,Net-(JP3-Pad2)*%
X109628300Y-129925001D03*
%TO.P,U5,4,GND*%
%TO.N,GNDA*%
X109628300Y-130574999D03*
%TO.P,U5,5,A1*%
%TO.N,Net-(JP4-Pad2)*%
X113971700Y-130574999D03*
%TO.P,U5,6,SDA*%
%TO.N,SDA*%
X113971700Y-129925001D03*
%TO.P,U5,7,SCL*%
%TO.N,SCL*%
X113971700Y-129274999D03*
%TO.P,U5,8,VDD*%
%TO.N,+3V3A*%
X113971700Y-128625001D03*
%TD*%
D28*
%TO.P,C5,1*%
%TO.N,+3V3A*%
X104075000Y-126800000D03*
%TO.P,C5,2*%
%TO.N,GNDA*%
X102000000Y-126800000D03*
%TD*%
D29*
%TO.P,R2,1*%
%TO.N,+3V3*%
X84500000Y-149500000D03*
%TO.P,R2,2*%
%TO.N,SDA*%
X84500000Y-147500000D03*
%TD*%
D31*
%TO.P,R9,1*%
%TO.N,Net-(R8-Pad2)*%
X95600000Y-126000000D03*
%TO.P,R9,2*%
%TO.N,GND*%
X93600000Y-126000000D03*
%TD*%
D15*
%TO.P,JP2,1,A*%
%TO.N,GND*%
X119500000Y-139300000D03*
%TO.P,JP2,2,C*%
%TO.N,Net-(JP2-Pad2)*%
X119500000Y-138000000D03*
%TO.P,JP2,3,B*%
%TO.N,+3V3*%
X119500000Y-136700000D03*
%TD*%
D32*
%TO.N,+3V3*%
X110000000Y-139500000D03*
X85750000Y-143500000D03*
%TO.N,GND*%
X78000000Y-131000000D03*
X117500000Y-139250000D03*
X106250000Y-139250000D03*
X88250000Y-131000000D03*
X91400000Y-126000000D03*
X81500000Y-145724500D03*
X94250000Y-133250000D03*
%TO.N,VIN+*%
X90000000Y-132500000D03*
X111000000Y-130200000D03*
X88800000Y-136400000D03*
%TO.N,VIN-*%
X88465001Y-133784999D03*
%TO.N,GNDA*%
X116000000Y-132200000D03*
X102000000Y-128000000D03*
X105000000Y-130800000D03*
X110085493Y-125738744D03*
X118000000Y-126600000D03*
X109600000Y-131600000D03*
%TO.N,Net-(D1-Pad1)*%
X111800000Y-125600000D03*
%TO.N,SDA*%
X115600000Y-129850499D03*
X93000000Y-129500000D03*
X114750000Y-140500000D03*
X79050000Y-145050000D03*
X79750000Y-131500000D03*
X84500000Y-146000000D03*
%TO.N,SCL*%
X80750000Y-132000000D03*
X84250000Y-130750000D03*
X79250000Y-142500000D03*
X94000000Y-129500000D03*
X105750000Y-140750000D03*
X115600000Y-128800000D03*
%TO.N,DQ*%
X109250000Y-137750000D03*
%TO.N,Net-(JP2-Pad2)*%
X114500000Y-138000000D03*
X117750000Y-138000000D03*
%TO.N,PCTLZ*%
X112000000Y-139250000D03*
%TO.N,Net-(R8-Pad2)*%
X97000000Y-128000000D03*
X96400000Y-130800000D03*
%TD*%
D33*
%TO.N,+3V3*%
X84500000Y-150500000D02*
X84500000Y-149500000D01*
X95000000Y-129400000D02*
X97200000Y-129400000D01*
X81000000Y-125200000D02*
X80400000Y-125800000D01*
X84200000Y-125600000D02*
X83600000Y-125600000D01*
X90450000Y-129200000D02*
X88750000Y-127500000D01*
X94365000Y-135560700D02*
X94365000Y-136965000D01*
X80600000Y-150600000D02*
X81400000Y-150600000D01*
X81600000Y-150800000D02*
X84200000Y-150800000D01*
X83600000Y-125600000D02*
X83200000Y-125200000D01*
X84200000Y-150800000D02*
X84500000Y-150500000D01*
X94365000Y-136965000D02*
X94400000Y-137000000D01*
X91400000Y-129200000D02*
X92600000Y-128000000D01*
X83200000Y-125200000D02*
X81000000Y-125200000D01*
X91400000Y-129200000D02*
X90450000Y-129200000D01*
X92600000Y-128000000D02*
X93600000Y-128000000D01*
X81400000Y-150600000D02*
X81600000Y-150800000D01*
X93600000Y-128000000D02*
X95000000Y-129400000D01*
%TO.N,GND*%
X106250000Y-139250000D02*
X107660850Y-139250000D01*
X95665000Y-135560700D02*
X95665000Y-134435000D01*
X95014999Y-130709300D02*
X95014999Y-132485001D01*
X88250000Y-131000000D02*
X88750000Y-130500000D01*
X88250000Y-131000000D02*
X87625000Y-130375000D01*
X95014999Y-132485001D02*
X94365000Y-133135000D01*
X94365000Y-133135000D02*
X94250000Y-133250000D01*
X77750000Y-129171600D02*
X77750000Y-130750000D01*
X117550000Y-139300000D02*
X117500000Y-139250000D01*
X93065000Y-131835000D02*
X94365000Y-133135000D01*
X93065000Y-134435000D02*
X94365000Y-133135000D01*
X95665000Y-134435000D02*
X94365000Y-133135000D01*
X88750000Y-130500000D02*
X88750000Y-129575000D01*
X81049999Y-146975001D02*
X81049999Y-146174501D01*
X87625000Y-130375000D02*
X86500000Y-130375000D01*
X94365000Y-130709300D02*
X94365000Y-133135000D01*
X117550000Y-139300000D02*
X119500000Y-139300000D01*
X81049999Y-146174501D02*
X81500000Y-145724500D01*
X107660850Y-139250000D02*
X107775850Y-139135000D01*
X91939300Y-133135000D02*
X94135000Y-133135000D01*
X116000000Y-137850000D02*
X117450000Y-139300000D01*
X77750000Y-130750000D02*
X78000000Y-131000000D01*
X117450000Y-139300000D02*
X117550000Y-139300000D01*
X91939300Y-131835000D02*
X93065000Y-131835000D01*
X91400000Y-126000000D02*
X93600000Y-126000000D01*
X91939300Y-134435000D02*
X93065000Y-134435000D01*
X91400000Y-127125000D02*
X91400000Y-126000000D01*
X94135000Y-133135000D02*
X94250000Y-133250000D01*
X96790700Y-133135000D02*
X94365000Y-133135000D01*
D34*
%TO.N,VIN+*%
X84250000Y-141250000D02*
X82250000Y-141250000D01*
X93065000Y-135560700D02*
X89939300Y-135560700D01*
X90014999Y-132485001D02*
X90000000Y-132500000D01*
X88800000Y-136400000D02*
X89639300Y-135560700D01*
X91939300Y-132485001D02*
X90014999Y-132485001D01*
X89639300Y-135560700D02*
X89939300Y-135560700D01*
%TO.N,VIN-*%
X91939300Y-133784999D02*
X88465001Y-133784999D01*
D33*
%TO.N,GNDA*%
X102000000Y-127237500D02*
X101762500Y-127000000D01*
X105100000Y-130900000D02*
X105000000Y-130800000D01*
X109628300Y-130574999D02*
X109628300Y-131571700D01*
X110475000Y-126400000D02*
X110085493Y-126010493D01*
X117800000Y-131900000D02*
X116300000Y-131900000D01*
X116600000Y-126400000D02*
X117800000Y-126400000D01*
X102000000Y-129400000D02*
X102000000Y-128000000D01*
X106800000Y-130900000D02*
X105100000Y-130900000D01*
X116300000Y-131900000D02*
X116000000Y-132200000D01*
X102000000Y-128000000D02*
X102000000Y-126800000D01*
X109628300Y-131571700D02*
X109600000Y-131600000D01*
X111050000Y-126400000D02*
X110475000Y-126400000D01*
X110085493Y-126010493D02*
X110085493Y-125738744D01*
X117800000Y-126400000D02*
X118000000Y-126600000D01*
%TO.N,+3V3A*%
X112950000Y-126400000D02*
X114525000Y-126400000D01*
%TO.N,Net-(D1-Pad1)*%
X111800000Y-125600000D02*
X111650000Y-125750000D01*
X111650000Y-125750000D02*
X111050000Y-125750000D01*
%TO.N,SDA*%
X79750000Y-131500000D02*
X79749999Y-129171600D01*
X93065000Y-129565000D02*
X93065000Y-130709300D01*
X79050000Y-146975001D02*
X79050000Y-145700000D01*
X79050000Y-145000000D02*
X79050000Y-145050000D01*
X115525498Y-129925001D02*
X113971700Y-129925001D01*
X93000000Y-129500000D02*
X93065000Y-129565000D01*
X113319150Y-140500000D02*
X113224150Y-140405000D01*
X83750000Y-145000000D02*
X84500000Y-145750000D01*
X84500000Y-146000000D02*
X84500000Y-147500000D01*
X84500000Y-145750000D02*
X84500000Y-146000000D01*
X79050000Y-145000000D02*
X83750000Y-145000000D01*
X114750000Y-140500000D02*
X113319150Y-140500000D01*
X79050000Y-145700000D02*
X79050000Y-145050000D01*
X115600000Y-129850499D02*
X115525498Y-129925001D01*
%TO.N,SCL*%
X80750000Y-132000000D02*
X80750000Y-129171600D01*
X78049999Y-146975001D02*
X78049999Y-143700001D01*
X93715001Y-129784999D02*
X93715001Y-130709300D01*
X78049999Y-143700001D02*
X79250000Y-142500000D01*
X115600000Y-128800000D02*
X115125001Y-129274999D01*
X107775850Y-140405000D02*
X106095000Y-140405000D01*
X94000000Y-129500000D02*
X93715001Y-129784999D01*
X115125001Y-129274999D02*
X113971700Y-129274999D01*
X84250000Y-129250000D02*
X84250000Y-130750000D01*
X106095000Y-140405000D02*
X105750000Y-140750000D01*
%TO.N,DQ*%
X98000000Y-144250000D02*
X98000000Y-143000000D01*
X103135000Y-137865000D02*
X107775850Y-137865000D01*
X109135000Y-137865000D02*
X107775850Y-137865000D01*
X109250000Y-137750000D02*
X109135000Y-137865000D01*
X98000000Y-143000000D02*
X103135000Y-137865000D01*
%TO.N,Net-(JP1-Pad2)*%
X113224150Y-136595000D02*
X115955000Y-136595000D01*
X115955000Y-136595000D02*
X116000000Y-136550000D01*
%TO.N,Net-(JP2-Pad2)*%
X119500000Y-138000000D02*
X117750000Y-138000000D01*
X114500000Y-138000000D02*
X114365000Y-137865000D01*
X114365000Y-137865000D02*
X113224150Y-137865000D01*
%TO.N,Net-(JP3-Pad2)*%
X109628300Y-129925001D02*
X109624908Y-129921609D01*
X109624908Y-129921609D02*
X107121609Y-129921609D01*
X107121609Y-129921609D02*
X106800000Y-129600000D01*
%TO.N,Net-(JP4-Pad2)*%
X117800000Y-130600000D02*
X117774999Y-130574999D01*
X117774999Y-130574999D02*
X113971700Y-130574999D01*
%TO.N,PCTLZ*%
X112115000Y-139135000D02*
X113224150Y-139135000D01*
X112000000Y-139250000D02*
X112115000Y-139135000D01*
%TO.N,Net-(R8-Pad2)*%
X95665000Y-128065000D02*
X95600000Y-128000000D01*
X96309300Y-130709300D02*
X96400000Y-130800000D01*
X97000000Y-128000000D02*
X95600000Y-128000000D01*
X95665000Y-130709300D02*
X96309300Y-130709300D01*
X95600000Y-128000000D02*
X95600000Y-126000000D01*
%TO.N,Net-(U3-Pad3)*%
X110589500Y-129274999D02*
X111050000Y-128814499D01*
X111050000Y-127050000D02*
X112950000Y-127050000D01*
X109628300Y-129274999D02*
X110589500Y-129274999D01*
X111050000Y-128814499D02*
X111050000Y-127050000D01*
%TD*%
%TA.AperFunction,Conductor*%
%TO.N,+3V3*%
G36*
X80178820Y-146741003D02*
G01*
X80225313Y-146794659D01*
X80236699Y-146847001D01*
X80236699Y-147797835D01*
X80243454Y-147860017D01*
X80246228Y-147867416D01*
X80294584Y-147996406D01*
X80292254Y-147997279D01*
X80303998Y-148043186D01*
X80303998Y-148239585D01*
X80308473Y-148254824D01*
X80309863Y-148256029D01*
X80317546Y-148257700D01*
X80399467Y-148257700D01*
X80406288Y-148257330D01*
X80457150Y-148251806D01*
X80472405Y-148248179D01*
X80505055Y-148235939D01*
X80575862Y-148230755D01*
X80593514Y-148235937D01*
X80634883Y-148251446D01*
X80697065Y-148258201D01*
X81155696Y-148258201D01*
X81223817Y-148278203D01*
X81270310Y-148331859D01*
X81280414Y-148402133D01*
X81273678Y-148428430D01*
X81254127Y-148480582D01*
X81254125Y-148480588D01*
X81251353Y-148487984D01*
X81244598Y-148550166D01*
X81244598Y-150449834D01*
X81251353Y-150512016D01*
X81261791Y-150539859D01*
X81271407Y-150565509D01*
X81276590Y-150636316D01*
X81242670Y-150698685D01*
X81180414Y-150732814D01*
X81153559Y-150735739D01*
X79546477Y-150737444D01*
X77945431Y-150739142D01*
X77877290Y-150719212D01*
X77830740Y-150665606D01*
X77820562Y-150595343D01*
X77827316Y-150568913D01*
X77845871Y-150519418D01*
X77845873Y-150519412D01*
X77848645Y-150512016D01*
X77855400Y-150449834D01*
X77855400Y-148550166D01*
X77848645Y-148487984D01*
X77845873Y-148480588D01*
X77845871Y-148480582D01*
X77826320Y-148428430D01*
X77821137Y-148357623D01*
X77855059Y-148295254D01*
X77917314Y-148261125D01*
X77944302Y-148258201D01*
X78402933Y-148258201D01*
X78465115Y-148251446D01*
X78505770Y-148236205D01*
X78576577Y-148231022D01*
X78594223Y-148236203D01*
X78634884Y-148251446D01*
X78697066Y-148258201D01*
X79402934Y-148258201D01*
X79407546Y-148257700D01*
X79457266Y-148252299D01*
X79457268Y-148252299D01*
X79465116Y-148251446D01*
X79472511Y-148248674D01*
X79472514Y-148248673D01*
X79506483Y-148235939D01*
X79577290Y-148230756D01*
X79594939Y-148235939D01*
X79627593Y-148248180D01*
X79642841Y-148251806D01*
X79693712Y-148257332D01*
X79700526Y-148257701D01*
X79777883Y-148257701D01*
X79793122Y-148253226D01*
X79794327Y-148251836D01*
X79795998Y-148244153D01*
X79795998Y-148043191D01*
X79807745Y-147997279D01*
X79805415Y-147996406D01*
X79853771Y-147867416D01*
X79856545Y-147860017D01*
X79863300Y-147797835D01*
X79863300Y-146847001D01*
X79883302Y-146778880D01*
X79936958Y-146732387D01*
X79989300Y-146721001D01*
X80110699Y-146721001D01*
X80178820Y-146741003D01*
G37*
%TD.AperFunction*%
%TA.AperFunction,Conductor*%
G36*
X99162048Y-125261322D02*
G01*
X100274018Y-125261476D01*
X100342135Y-125281488D01*
X100388621Y-125335150D01*
X100400000Y-125387476D01*
X100400000Y-135600000D01*
X100726081Y-135600000D01*
X100794202Y-135620002D01*
X100840695Y-135673658D01*
X100850799Y-135743932D01*
X100845674Y-135765668D01*
X100804862Y-135888710D01*
X100801995Y-135902086D01*
X100792328Y-135996438D01*
X100792000Y-136002855D01*
X100792000Y-136127885D01*
X100796475Y-136143124D01*
X100797865Y-136144329D01*
X100805548Y-136146000D01*
X103189884Y-136146000D01*
X103205123Y-136141525D01*
X103206328Y-136140135D01*
X103207999Y-136132452D01*
X103207999Y-136002905D01*
X103207662Y-135996386D01*
X103197743Y-135900794D01*
X103194851Y-135887400D01*
X103154308Y-135765876D01*
X103151724Y-135694926D01*
X103187908Y-135633842D01*
X103251372Y-135602018D01*
X103273832Y-135600000D01*
X106400000Y-135600000D01*
X106400000Y-134977885D01*
X114742000Y-134977885D01*
X114746475Y-134993124D01*
X114747865Y-134994329D01*
X114755548Y-134996000D01*
X115727885Y-134996000D01*
X115743124Y-134991525D01*
X115744329Y-134990135D01*
X115746000Y-134982452D01*
X115746000Y-134977885D01*
X116254000Y-134977885D01*
X116258475Y-134993124D01*
X116259865Y-134994329D01*
X116267548Y-134996000D01*
X117239884Y-134996000D01*
X117255123Y-134991525D01*
X117256328Y-134990135D01*
X117257999Y-134982452D01*
X117257999Y-134705331D01*
X117257629Y-134698510D01*
X117252105Y-134647648D01*
X117248479Y-134632396D01*
X117203324Y-134511946D01*
X117194786Y-134496351D01*
X117118285Y-134394276D01*
X117105724Y-134381715D01*
X117003649Y-134305214D01*
X116988054Y-134296676D01*
X116867606Y-134251522D01*
X116852351Y-134247895D01*
X116801486Y-134242369D01*
X116794672Y-134242000D01*
X116272115Y-134242000D01*
X116256876Y-134246475D01*
X116255671Y-134247865D01*
X116254000Y-134255548D01*
X116254000Y-134977885D01*
X115746000Y-134977885D01*
X115746000Y-134260116D01*
X115741525Y-134244877D01*
X115740135Y-134243672D01*
X115732452Y-134242001D01*
X115205331Y-134242001D01*
X115198510Y-134242371D01*
X115147648Y-134247895D01*
X115132396Y-134251521D01*
X115011946Y-134296676D01*
X114996351Y-134305214D01*
X114894276Y-134381715D01*
X114881715Y-134394276D01*
X114805214Y-134496351D01*
X114796676Y-134511946D01*
X114751522Y-134632394D01*
X114747895Y-134647649D01*
X114742369Y-134698514D01*
X114742000Y-134705328D01*
X114742000Y-134977885D01*
X106400000Y-134977885D01*
X106400000Y-133926000D01*
X106420002Y-133857879D01*
X106473658Y-133811386D01*
X106526000Y-133800000D01*
X121777365Y-133800000D01*
X121845486Y-133820002D01*
X121891979Y-133873658D01*
X121903365Y-133926083D01*
X121898447Y-141400662D01*
X121892435Y-150539859D01*
X121892417Y-150566754D01*
X121872370Y-150634861D01*
X121818684Y-150681319D01*
X121766551Y-150692671D01*
X102699203Y-150712891D01*
X85409675Y-150731226D01*
X85341534Y-150711296D01*
X85294984Y-150657690D01*
X85284806Y-150587427D01*
X85314230Y-150522815D01*
X85343238Y-150498082D01*
X85417810Y-150451934D01*
X85429208Y-150442901D01*
X85543739Y-150328171D01*
X85552751Y-150316760D01*
X85637816Y-150178757D01*
X85643963Y-150165576D01*
X85695138Y-150011290D01*
X85698005Y-149997914D01*
X85707672Y-149903562D01*
X85708000Y-149897146D01*
X85708000Y-149772115D01*
X85703525Y-149756876D01*
X85702135Y-149755671D01*
X85694452Y-149754000D01*
X84372000Y-149754000D01*
X84303879Y-149733998D01*
X84257386Y-149680342D01*
X84246000Y-149628000D01*
X84246000Y-149372000D01*
X84266002Y-149303879D01*
X84319658Y-149257386D01*
X84372000Y-149246000D01*
X85689884Y-149246000D01*
X85705123Y-149241525D01*
X85706328Y-149240135D01*
X85707999Y-149232452D01*
X85707999Y-149102905D01*
X85707662Y-149096386D01*
X85697743Y-149000794D01*
X85694851Y-148987400D01*
X85643412Y-148833216D01*
X85637239Y-148820038D01*
X85551937Y-148682193D01*
X85542901Y-148670792D01*
X85461538Y-148589570D01*
X85427459Y-148527287D01*
X85432462Y-148456467D01*
X85461383Y-148411380D01*
X85544130Y-148328488D01*
X85544134Y-148328483D01*
X85549305Y-148323303D01*
X85589743Y-148257701D01*
X85638275Y-148178968D01*
X85638276Y-148178966D01*
X85642115Y-148172738D01*
X85670594Y-148086876D01*
X85695632Y-148011389D01*
X85695632Y-148011387D01*
X85697797Y-148004861D01*
X85698664Y-147996406D01*
X85708172Y-147903598D01*
X85708500Y-147900400D01*
X85708500Y-147099600D01*
X85697526Y-146993834D01*
X85641550Y-146826054D01*
X85548478Y-146675652D01*
X85423303Y-146550695D01*
X85384285Y-146526644D01*
X85336792Y-146473872D01*
X85325368Y-146403800D01*
X85334170Y-146372175D01*
X85334527Y-146371556D01*
X85393542Y-146189928D01*
X85413504Y-146000000D01*
X85396812Y-145841183D01*
X85394232Y-145816635D01*
X85394232Y-145816633D01*
X85393542Y-145810072D01*
X85334527Y-145628444D01*
X85239040Y-145463056D01*
X85111253Y-145321134D01*
X85085563Y-145302469D01*
X91501500Y-145302469D01*
X91501712Y-145305042D01*
X91501712Y-145305053D01*
X91516131Y-145480432D01*
X91516132Y-145480438D01*
X91516555Y-145485583D01*
X91546569Y-145605076D01*
X91574526Y-145716375D01*
X91576584Y-145724570D01*
X91578642Y-145729303D01*
X91578643Y-145729306D01*
X91656283Y-145907865D01*
X91674840Y-145950544D01*
X91677644Y-145954878D01*
X91677646Y-145954882D01*
X91805874Y-146153092D01*
X91805879Y-146153098D01*
X91808685Y-146157436D01*
X91812165Y-146161261D01*
X91812167Y-146161263D01*
X91834921Y-146186269D01*
X91974523Y-146339690D01*
X91978574Y-146342889D01*
X91978578Y-146342893D01*
X92060068Y-146407249D01*
X92167901Y-146492410D01*
X92209942Y-146515618D01*
X92359692Y-146598285D01*
X92383625Y-146611497D01*
X92615903Y-146693750D01*
X92620995Y-146694657D01*
X92853407Y-146736057D01*
X92853411Y-146736057D01*
X92858495Y-146736963D01*
X92937914Y-146737933D01*
X93099718Y-146739910D01*
X93099720Y-146739910D01*
X93104888Y-146739973D01*
X93348464Y-146702701D01*
X93582682Y-146626147D01*
X93587270Y-146623759D01*
X93587274Y-146623757D01*
X93796663Y-146514756D01*
X93796664Y-146514755D01*
X93801252Y-146512367D01*
X93805385Y-146509264D01*
X93805388Y-146509262D01*
X93994168Y-146367521D01*
X93994170Y-146367519D01*
X93998303Y-146364416D01*
X94168545Y-146186269D01*
X94226180Y-146101779D01*
X94304485Y-145986989D01*
X94304488Y-145986984D01*
X94307404Y-145982709D01*
X94309580Y-145978020D01*
X94309584Y-145978014D01*
X94408975Y-145763894D01*
X94408977Y-145763889D01*
X94411152Y-145759203D01*
X94413126Y-145752088D01*
X94475623Y-145526726D01*
X94475623Y-145526725D01*
X94477002Y-145521753D01*
X94488396Y-145415136D01*
X94498144Y-145323929D01*
X94498144Y-145323921D01*
X94498500Y-145320594D01*
X94498500Y-145302469D01*
X96501500Y-145302469D01*
X96501712Y-145305042D01*
X96501712Y-145305053D01*
X96516131Y-145480432D01*
X96516132Y-145480438D01*
X96516555Y-145485583D01*
X96546569Y-145605076D01*
X96574526Y-145716375D01*
X96576584Y-145724570D01*
X96578642Y-145729303D01*
X96578643Y-145729306D01*
X96656283Y-145907865D01*
X96674840Y-145950544D01*
X96677644Y-145954878D01*
X96677646Y-145954882D01*
X96805874Y-146153092D01*
X96805879Y-146153098D01*
X96808685Y-146157436D01*
X96812165Y-146161261D01*
X96812167Y-146161263D01*
X96834921Y-146186269D01*
X96974523Y-146339690D01*
X96978574Y-146342889D01*
X96978578Y-146342893D01*
X97060068Y-146407249D01*
X97167901Y-146492410D01*
X97209942Y-146515618D01*
X97359692Y-146598285D01*
X97383625Y-146611497D01*
X97615903Y-146693750D01*
X97620995Y-146694657D01*
X97853407Y-146736057D01*
X97853411Y-146736057D01*
X97858495Y-146736963D01*
X97937914Y-146737933D01*
X98099718Y-146739910D01*
X98099720Y-146739910D01*
X98104888Y-146739973D01*
X98348464Y-146702701D01*
X98582682Y-146626147D01*
X98587270Y-146623759D01*
X98587274Y-146623757D01*
X98796663Y-146514756D01*
X98796664Y-146514755D01*
X98801252Y-146512367D01*
X98805385Y-146509264D01*
X98805388Y-146509262D01*
X98994168Y-146367521D01*
X98994170Y-146367519D01*
X98998303Y-146364416D01*
X99084068Y-146274669D01*
X101502001Y-146274669D01*
X101502371Y-146281490D01*
X101507895Y-146332352D01*
X101511521Y-146347604D01*
X101556676Y-146468054D01*
X101565214Y-146483649D01*
X101641715Y-146585724D01*
X101654276Y-146598285D01*
X101756351Y-146674786D01*
X101771946Y-146683324D01*
X101892394Y-146728478D01*
X101907649Y-146732105D01*
X101958514Y-146737631D01*
X101965328Y-146738000D01*
X102727885Y-146738000D01*
X102743124Y-146733525D01*
X102744329Y-146732135D01*
X102746000Y-146724452D01*
X102746000Y-146719884D01*
X103254000Y-146719884D01*
X103258475Y-146735123D01*
X103259865Y-146736328D01*
X103267548Y-146737999D01*
X104034669Y-146737999D01*
X104041490Y-146737629D01*
X104092352Y-146732105D01*
X104107604Y-146728479D01*
X104228054Y-146683324D01*
X104243649Y-146674786D01*
X104345724Y-146598285D01*
X104358285Y-146585724D01*
X104434786Y-146483649D01*
X104443324Y-146468054D01*
X104488478Y-146347606D01*
X104492105Y-146332351D01*
X104497631Y-146281486D01*
X104498000Y-146274672D01*
X104498000Y-144522115D01*
X104493525Y-144506876D01*
X104492135Y-144505671D01*
X104484452Y-144504000D01*
X103272115Y-144504000D01*
X103256876Y-144508475D01*
X103255671Y-144509865D01*
X103254000Y-144517548D01*
X103254000Y-146719884D01*
X102746000Y-146719884D01*
X102746000Y-144522115D01*
X102741525Y-144506876D01*
X102740135Y-144505671D01*
X102732452Y-144504000D01*
X101520116Y-144504000D01*
X101504877Y-144508475D01*
X101503672Y-144509865D01*
X101502001Y-144517548D01*
X101502001Y-146274669D01*
X99084068Y-146274669D01*
X99168545Y-146186269D01*
X99226180Y-146101779D01*
X99304485Y-145986989D01*
X99304488Y-145986984D01*
X99307404Y-145982709D01*
X99309580Y-145978020D01*
X99309584Y-145978014D01*
X99408975Y-145763894D01*
X99408977Y-145763889D01*
X99411152Y-145759203D01*
X99413126Y-145752088D01*
X99475623Y-145526726D01*
X99475623Y-145526725D01*
X99477002Y-145521753D01*
X99488396Y-145415136D01*
X99498144Y-145323929D01*
X99498144Y-145323921D01*
X99498500Y-145320594D01*
X99498500Y-143977885D01*
X101502000Y-143977885D01*
X101506475Y-143993124D01*
X101507865Y-143994329D01*
X101515548Y-143996000D01*
X102727885Y-143996000D01*
X102743124Y-143991525D01*
X102744329Y-143990135D01*
X102746000Y-143982452D01*
X102746000Y-143977885D01*
X103254000Y-143977885D01*
X103258475Y-143993124D01*
X103259865Y-143994329D01*
X103267548Y-143996000D01*
X104479884Y-143996000D01*
X104495123Y-143991525D01*
X104496328Y-143990135D01*
X104497999Y-143982452D01*
X104497999Y-142225331D01*
X104497629Y-142218510D01*
X104492105Y-142167648D01*
X104488479Y-142152396D01*
X104443324Y-142031946D01*
X104434786Y-142016351D01*
X104358285Y-141914276D01*
X104345724Y-141901715D01*
X104243649Y-141825214D01*
X104228054Y-141816676D01*
X104107606Y-141771522D01*
X104092351Y-141767895D01*
X104041486Y-141762369D01*
X104034672Y-141762000D01*
X103272115Y-141762000D01*
X103256876Y-141766475D01*
X103255671Y-141767865D01*
X103254000Y-141775548D01*
X103254000Y-143977885D01*
X102746000Y-143977885D01*
X102746000Y-141780116D01*
X102741525Y-141764877D01*
X102740135Y-141763672D01*
X102732452Y-141762001D01*
X101965331Y-141762001D01*
X101958510Y-141762371D01*
X101907648Y-141767895D01*
X101892396Y-141771521D01*
X101771946Y-141816676D01*
X101756351Y-141825214D01*
X101654276Y-141901715D01*
X101641715Y-141914276D01*
X101565214Y-142016351D01*
X101556676Y-142031946D01*
X101511522Y-142152394D01*
X101507895Y-142167649D01*
X101502369Y-142218514D01*
X101502000Y-142225328D01*
X101502000Y-143977885D01*
X99498500Y-143977885D01*
X99498500Y-143197531D01*
X99497010Y-143179406D01*
X99483869Y-143019568D01*
X99483868Y-143019562D01*
X99483445Y-143014417D01*
X99423416Y-142775430D01*
X99421357Y-142770694D01*
X99421355Y-142770688D01*
X99365820Y-142642968D01*
X99356999Y-142572521D01*
X99392274Y-142503630D01*
X103360499Y-138535405D01*
X103422811Y-138501379D01*
X103449594Y-138498500D01*
X105421147Y-138498500D01*
X105489268Y-138518502D01*
X105535761Y-138572158D01*
X105545865Y-138642432D01*
X105518017Y-138701906D01*
X105519259Y-138702808D01*
X105515380Y-138708148D01*
X105510960Y-138713056D01*
X105490514Y-138748469D01*
X105422595Y-138866109D01*
X105415473Y-138878444D01*
X105356458Y-139060072D01*
X105336496Y-139250000D01*
X105337186Y-139256565D01*
X105350838Y-139386453D01*
X105356458Y-139439928D01*
X105415473Y-139621556D01*
X105418776Y-139627278D01*
X105418777Y-139627279D01*
X105426120Y-139639997D01*
X105468132Y-139712763D01*
X105475441Y-139725423D01*
X105492179Y-139794418D01*
X105468959Y-139861510D01*
X105417571Y-139903530D01*
X105299278Y-139956197D01*
X105299276Y-139956198D01*
X105293248Y-139958882D01*
X105138747Y-140071134D01*
X105134326Y-140076044D01*
X105134325Y-140076045D01*
X105050951Y-140168642D01*
X105010960Y-140213056D01*
X104915473Y-140378444D01*
X104856458Y-140560072D01*
X104855768Y-140566633D01*
X104855768Y-140566635D01*
X104837186Y-140743435D01*
X104836496Y-140750000D01*
X104856458Y-140939928D01*
X104915473Y-141121556D01*
X104918776Y-141127278D01*
X104918777Y-141127279D01*
X104945855Y-141174179D01*
X105010960Y-141286944D01*
X105015378Y-141291851D01*
X105015379Y-141291852D01*
X105134325Y-141423955D01*
X105138747Y-141428866D01*
X105293248Y-141541118D01*
X105299276Y-141543802D01*
X105299278Y-141543803D01*
X105461681Y-141616109D01*
X105467712Y-141618794D01*
X105561112Y-141638647D01*
X105648056Y-141657128D01*
X105648061Y-141657128D01*
X105654513Y-141658500D01*
X105845487Y-141658500D01*
X105851939Y-141657128D01*
X105851944Y-141657128D01*
X105938888Y-141638647D01*
X106032288Y-141618794D01*
X106038319Y-141616109D01*
X106200722Y-141543803D01*
X106200724Y-141543802D01*
X106206752Y-141541118D01*
X106361253Y-141428866D01*
X106365675Y-141423955D01*
X106484621Y-141291852D01*
X106484622Y-141291851D01*
X106489040Y-141286944D01*
X106556170Y-141170671D01*
X106577943Y-141132960D01*
X106629326Y-141083967D01*
X106699039Y-141070531D01*
X106762626Y-141095133D01*
X106791709Y-141116930D01*
X106791712Y-141116932D01*
X106798895Y-141122315D01*
X106935284Y-141173445D01*
X106997466Y-141180200D01*
X108554234Y-141180200D01*
X108616416Y-141173445D01*
X108752805Y-141122315D01*
X108869361Y-141034961D01*
X108956715Y-140918405D01*
X109007845Y-140782016D01*
X109014600Y-140719834D01*
X109014600Y-140090166D01*
X109007845Y-140027984D01*
X108956715Y-139891595D01*
X108922216Y-139845563D01*
X108897369Y-139779059D01*
X108912422Y-139709677D01*
X108922210Y-139694445D01*
X108956715Y-139648405D01*
X109007845Y-139512016D01*
X109014600Y-139449834D01*
X109014600Y-139250000D01*
X111086496Y-139250000D01*
X111087186Y-139256565D01*
X111100838Y-139386453D01*
X111106458Y-139439928D01*
X111165473Y-139621556D01*
X111168776Y-139627278D01*
X111168777Y-139627279D01*
X111176120Y-139639997D01*
X111260960Y-139786944D01*
X111265378Y-139791851D01*
X111265379Y-139791852D01*
X111384325Y-139923955D01*
X111388747Y-139928866D01*
X111487843Y-140000864D01*
X111525171Y-140027984D01*
X111543248Y-140041118D01*
X111549276Y-140043802D01*
X111549278Y-140043803D01*
X111711681Y-140116109D01*
X111717712Y-140118794D01*
X111885598Y-140154479D01*
X111948070Y-140188207D01*
X111982392Y-140250357D01*
X111985400Y-140277726D01*
X111985400Y-140719834D01*
X111992155Y-140782016D01*
X112043285Y-140918405D01*
X112130639Y-141034961D01*
X112247195Y-141122315D01*
X112383584Y-141173445D01*
X112445766Y-141180200D01*
X114002534Y-141180200D01*
X114064716Y-141173445D01*
X114064835Y-141174538D01*
X114128368Y-141177854D01*
X114160679Y-141194800D01*
X114293248Y-141291118D01*
X114299276Y-141293802D01*
X114299278Y-141293803D01*
X114461681Y-141366109D01*
X114467712Y-141368794D01*
X114561113Y-141388647D01*
X114648056Y-141407128D01*
X114648061Y-141407128D01*
X114654513Y-141408500D01*
X114845487Y-141408500D01*
X114851939Y-141407128D01*
X114851944Y-141407128D01*
X114938887Y-141388647D01*
X115032288Y-141368794D01*
X115038319Y-141366109D01*
X115200722Y-141293803D01*
X115200724Y-141293802D01*
X115206752Y-141291118D01*
X115361253Y-141178866D01*
X115412855Y-141121556D01*
X115484621Y-141041852D01*
X115484622Y-141041851D01*
X115489040Y-141036944D01*
X115584527Y-140871556D01*
X115643542Y-140689928D01*
X115656501Y-140566635D01*
X115662814Y-140506565D01*
X115663504Y-140500000D01*
X115643542Y-140310072D01*
X115584527Y-140128444D01*
X115577406Y-140116109D01*
X115532478Y-140038293D01*
X115489040Y-139963056D01*
X115461752Y-139932749D01*
X115365675Y-139826045D01*
X115365674Y-139826044D01*
X115361253Y-139821134D01*
X115206752Y-139708882D01*
X115200724Y-139706198D01*
X115200722Y-139706197D01*
X115038319Y-139633891D01*
X115038318Y-139633891D01*
X115032288Y-139631206D01*
X114938888Y-139611353D01*
X114851944Y-139592872D01*
X114851939Y-139592872D01*
X114845487Y-139591500D01*
X114654513Y-139591500D01*
X114648053Y-139592873D01*
X114648054Y-139592873D01*
X114612875Y-139600350D01*
X114542084Y-139594948D01*
X114485452Y-139552130D01*
X114460959Y-139485493D01*
X114461416Y-139463496D01*
X114462531Y-139453233D01*
X114462531Y-139453229D01*
X114462900Y-139449834D01*
X114462900Y-139034500D01*
X114482902Y-138966379D01*
X114536558Y-138919886D01*
X114582394Y-138909915D01*
X114582318Y-138909190D01*
X114588885Y-138908500D01*
X114595487Y-138908500D01*
X114601939Y-138907128D01*
X114601944Y-138907128D01*
X114707320Y-138884729D01*
X114782288Y-138868794D01*
X114826812Y-138848971D01*
X114919297Y-138807794D01*
X114989664Y-138798360D01*
X115014776Y-138804919D01*
X115139684Y-138851745D01*
X115201866Y-138858500D01*
X116060406Y-138858500D01*
X116128527Y-138878502D01*
X116149501Y-138895405D01*
X116564623Y-139310527D01*
X116598649Y-139372839D01*
X116600837Y-139386449D01*
X116606458Y-139439928D01*
X116665473Y-139621556D01*
X116668776Y-139627278D01*
X116668777Y-139627279D01*
X116676120Y-139639997D01*
X116760960Y-139786944D01*
X116765378Y-139791851D01*
X116765379Y-139791852D01*
X116884325Y-139923955D01*
X116888747Y-139928866D01*
X116987843Y-140000864D01*
X117025171Y-140027984D01*
X117043248Y-140041118D01*
X117049276Y-140043802D01*
X117049278Y-140043803D01*
X117211681Y-140116109D01*
X117217712Y-140118794D01*
X117292680Y-140134729D01*
X117398056Y-140157128D01*
X117398061Y-140157128D01*
X117404513Y-140158500D01*
X117595487Y-140158500D01*
X117601939Y-140157128D01*
X117601944Y-140157128D01*
X117707320Y-140134729D01*
X117782288Y-140118794D01*
X117788319Y-140116109D01*
X117950722Y-140043803D01*
X117950724Y-140043802D01*
X117956752Y-140041118D01*
X117974830Y-140027984D01*
X118071754Y-139957564D01*
X118138622Y-139933705D01*
X118145815Y-139933500D01*
X118169618Y-139933500D01*
X118237739Y-139953502D01*
X118284232Y-140007158D01*
X118287599Y-140015269D01*
X118296231Y-140038293D01*
X118299385Y-140046705D01*
X118386739Y-140163261D01*
X118503295Y-140250615D01*
X118639684Y-140301745D01*
X118701866Y-140308500D01*
X120298134Y-140308500D01*
X120360316Y-140301745D01*
X120496705Y-140250615D01*
X120613261Y-140163261D01*
X120700615Y-140046705D01*
X120751745Y-139910316D01*
X120758500Y-139848134D01*
X120758500Y-138751866D01*
X120751745Y-138689684D01*
X120748971Y-138682285D01*
X120748225Y-138679146D01*
X120748225Y-138620854D01*
X120748971Y-138617715D01*
X120751745Y-138610316D01*
X120758500Y-138548134D01*
X120758500Y-137451866D01*
X120751745Y-137389684D01*
X120748971Y-137382284D01*
X120747966Y-137378058D01*
X120747966Y-137319761D01*
X120752105Y-137302354D01*
X120757631Y-137251486D01*
X120758000Y-137244672D01*
X120758000Y-136972115D01*
X120753525Y-136956876D01*
X120752135Y-136955671D01*
X120744452Y-136954000D01*
X118260116Y-136954000D01*
X118244877Y-136958475D01*
X118243672Y-136959865D01*
X118242001Y-136967548D01*
X118242001Y-137030553D01*
X118221999Y-137098674D01*
X118168343Y-137145167D01*
X118098069Y-137155271D01*
X118064752Y-137145660D01*
X118064252Y-137145437D01*
X118051333Y-137139685D01*
X118038319Y-137133891D01*
X118038318Y-137133891D01*
X118032288Y-137131206D01*
X117938888Y-137111353D01*
X117851944Y-137092872D01*
X117851939Y-137092872D01*
X117845487Y-137091500D01*
X117654513Y-137091500D01*
X117648061Y-137092872D01*
X117648056Y-137092872D01*
X117561112Y-137111353D01*
X117467712Y-137131206D01*
X117461682Y-137133891D01*
X117461681Y-137133891D01*
X117450849Y-137138714D01*
X117435748Y-137145437D01*
X117365382Y-137154871D01*
X117301085Y-137124765D01*
X117263272Y-137064676D01*
X117258500Y-137030330D01*
X117258500Y-136427885D01*
X118242000Y-136427885D01*
X118246475Y-136443124D01*
X118247865Y-136444329D01*
X118255548Y-136446000D01*
X119227885Y-136446000D01*
X119243124Y-136441525D01*
X119244329Y-136440135D01*
X119246000Y-136432452D01*
X119246000Y-136427885D01*
X119754000Y-136427885D01*
X119758475Y-136443124D01*
X119759865Y-136444329D01*
X119767548Y-136446000D01*
X120739884Y-136446000D01*
X120755123Y-136441525D01*
X120756328Y-136440135D01*
X120757999Y-136432452D01*
X120757999Y-136155331D01*
X120757629Y-136148510D01*
X120752105Y-136097648D01*
X120748479Y-136082396D01*
X120703324Y-135961946D01*
X120694786Y-135946351D01*
X120618285Y-135844276D01*
X120605724Y-135831715D01*
X120503649Y-135755214D01*
X120488054Y-135746676D01*
X120367606Y-135701522D01*
X120352351Y-135697895D01*
X120301486Y-135692369D01*
X120294672Y-135692000D01*
X119772115Y-135692000D01*
X119756876Y-135696475D01*
X119755671Y-135697865D01*
X119754000Y-135705548D01*
X119754000Y-136427885D01*
X119246000Y-136427885D01*
X119246000Y-135710116D01*
X119241525Y-135694877D01*
X119240135Y-135693672D01*
X119232452Y-135692001D01*
X118705331Y-135692001D01*
X118698510Y-135692371D01*
X118647648Y-135697895D01*
X118632396Y-135701521D01*
X118511946Y-135746676D01*
X118496351Y-135755214D01*
X118394276Y-135831715D01*
X118381715Y-135844276D01*
X118305214Y-135946351D01*
X118296676Y-135961946D01*
X118251522Y-136082394D01*
X118247895Y-136097649D01*
X118242369Y-136148514D01*
X118242000Y-136155328D01*
X118242000Y-136427885D01*
X117258500Y-136427885D01*
X117258500Y-136001866D01*
X117251745Y-135939684D01*
X117248971Y-135932284D01*
X117247966Y-135928058D01*
X117247966Y-135869761D01*
X117252105Y-135852354D01*
X117257631Y-135801486D01*
X117258000Y-135794672D01*
X117258000Y-135522115D01*
X117253525Y-135506876D01*
X117252135Y-135505671D01*
X117244452Y-135504000D01*
X114760116Y-135504000D01*
X114744877Y-135508475D01*
X114743672Y-135509865D01*
X114742001Y-135517548D01*
X114742001Y-135794669D01*
X114742370Y-135801486D01*
X114744587Y-135821893D01*
X114732058Y-135891776D01*
X114683737Y-135943791D01*
X114619324Y-135961500D01*
X114354914Y-135961500D01*
X114286793Y-135941498D01*
X114279349Y-135936326D01*
X114226371Y-135896621D01*
X114201105Y-135877685D01*
X114064716Y-135826555D01*
X114002534Y-135819800D01*
X112445766Y-135819800D01*
X112383584Y-135826555D01*
X112247195Y-135877685D01*
X112130639Y-135965039D01*
X112043285Y-136081595D01*
X111992155Y-136217984D01*
X111985400Y-136280166D01*
X111985400Y-136909834D01*
X111992155Y-136972016D01*
X112043285Y-137108405D01*
X112077784Y-137154437D01*
X112102631Y-137220941D01*
X112087578Y-137290323D01*
X112077790Y-137305555D01*
X112043285Y-137351595D01*
X111992155Y-137487984D01*
X111985400Y-137550166D01*
X111985400Y-138179834D01*
X111985769Y-138183228D01*
X111988445Y-138207861D01*
X111975917Y-138277744D01*
X111927597Y-138329760D01*
X111889380Y-138344717D01*
X111717712Y-138381206D01*
X111711682Y-138383891D01*
X111711681Y-138383891D01*
X111549278Y-138456197D01*
X111549276Y-138456198D01*
X111543248Y-138458882D01*
X111388747Y-138571134D01*
X111384326Y-138576044D01*
X111384325Y-138576045D01*
X111274931Y-138697540D01*
X111260960Y-138713056D01*
X111240514Y-138748469D01*
X111172595Y-138866109D01*
X111165473Y-138878444D01*
X111106458Y-139060072D01*
X111086496Y-139250000D01*
X109014600Y-139250000D01*
X109014600Y-138820166D01*
X109012007Y-138796295D01*
X109024535Y-138726413D01*
X109072856Y-138674397D01*
X109141628Y-138656763D01*
X109148646Y-138657253D01*
X109154513Y-138658500D01*
X109345487Y-138658500D01*
X109351939Y-138657128D01*
X109351944Y-138657128D01*
X109438887Y-138638647D01*
X109532288Y-138618794D01*
X109551330Y-138610316D01*
X109700722Y-138543803D01*
X109700724Y-138543802D01*
X109706752Y-138541118D01*
X109714616Y-138535405D01*
X109814598Y-138462763D01*
X109861253Y-138428866D01*
X109939918Y-138341500D01*
X109984621Y-138291852D01*
X109984622Y-138291851D01*
X109989040Y-138286944D01*
X110084527Y-138121556D01*
X110143542Y-137939928D01*
X110163504Y-137750000D01*
X110145811Y-137581657D01*
X110144232Y-137566635D01*
X110144232Y-137566633D01*
X110143542Y-137560072D01*
X110084527Y-137378444D01*
X109989040Y-137213056D01*
X109977285Y-137200000D01*
X109865675Y-137076045D01*
X109865674Y-137076044D01*
X109861253Y-137071134D01*
X109724966Y-136972115D01*
X109712094Y-136962763D01*
X109712093Y-136962762D01*
X109706752Y-136958882D01*
X109700724Y-136956198D01*
X109700722Y-136956197D01*
X109538319Y-136883891D01*
X109538318Y-136883891D01*
X109532288Y-136881206D01*
X109414292Y-136856125D01*
X109351944Y-136842872D01*
X109351939Y-136842872D01*
X109345487Y-136841500D01*
X109154513Y-136841500D01*
X109148061Y-136842872D01*
X109148056Y-136842872D01*
X109085708Y-136856125D01*
X109032729Y-136855999D01*
X109000553Y-136849000D01*
X106555716Y-136849000D01*
X106540477Y-136853475D01*
X106539272Y-136854865D01*
X106537601Y-136862548D01*
X106537601Y-136906369D01*
X106537971Y-136913190D01*
X106543495Y-136964052D01*
X106547121Y-136979303D01*
X106577849Y-137061270D01*
X106583032Y-137132077D01*
X106549111Y-137194446D01*
X106486856Y-137228576D01*
X106459867Y-137231500D01*
X103263471Y-137231500D01*
X103195350Y-137211498D01*
X103148857Y-137157842D01*
X103138753Y-137087568D01*
X103143878Y-137065832D01*
X103195138Y-136911290D01*
X103198005Y-136897914D01*
X103207672Y-136803562D01*
X103208000Y-136797145D01*
X103208000Y-136672115D01*
X103203525Y-136656876D01*
X103202135Y-136655671D01*
X103194452Y-136654000D01*
X102272115Y-136654000D01*
X102256876Y-136658475D01*
X102255671Y-136659865D01*
X102254000Y-136667548D01*
X102254000Y-137489884D01*
X102258475Y-137505123D01*
X102259865Y-137506328D01*
X102267548Y-137507999D01*
X102291907Y-137507999D01*
X102360028Y-137528001D01*
X102406521Y-137581657D01*
X102416625Y-137651931D01*
X102387131Y-137716511D01*
X102381003Y-137723093D01*
X100352595Y-139751500D01*
X98357365Y-141746730D01*
X98295053Y-141780756D01*
X98246175Y-141781682D01*
X98168609Y-141767865D01*
X98146592Y-141763943D01*
X98146590Y-141763943D01*
X98141505Y-141763037D01*
X98056700Y-141762001D01*
X97900282Y-141760090D01*
X97900280Y-141760090D01*
X97895112Y-141760027D01*
X97651536Y-141797299D01*
X97417318Y-141873853D01*
X97412730Y-141876241D01*
X97412726Y-141876243D01*
X97255388Y-141958148D01*
X97198748Y-141987633D01*
X97194615Y-141990736D01*
X97194612Y-141990738D01*
X97005832Y-142132479D01*
X97001697Y-142135584D01*
X96998125Y-142139322D01*
X96859182Y-142284717D01*
X96831455Y-142313731D01*
X96828541Y-142318003D01*
X96828540Y-142318004D01*
X96695515Y-142513011D01*
X96695512Y-142513016D01*
X96692596Y-142517291D01*
X96690420Y-142521980D01*
X96690416Y-142521986D01*
X96591025Y-142736106D01*
X96588848Y-142740797D01*
X96587468Y-142745775D01*
X96587466Y-142745779D01*
X96524377Y-142973274D01*
X96522998Y-142978247D01*
X96511604Y-143084864D01*
X96502083Y-143173955D01*
X96501500Y-143179406D01*
X96501500Y-145302469D01*
X94498500Y-145302469D01*
X94498500Y-143197531D01*
X94497010Y-143179406D01*
X94483869Y-143019568D01*
X94483868Y-143019562D01*
X94483445Y-143014417D01*
X94423416Y-142775430D01*
X94411546Y-142748131D01*
X94327220Y-142554193D01*
X94327218Y-142554190D01*
X94325160Y-142549456D01*
X94307389Y-142521986D01*
X94194126Y-142346908D01*
X94194121Y-142346902D01*
X94191315Y-142342564D01*
X94167722Y-142316635D01*
X94084641Y-142225331D01*
X94025477Y-142160310D01*
X94021426Y-142157111D01*
X94021422Y-142157107D01*
X93836157Y-142010795D01*
X93832099Y-142007590D01*
X93742536Y-141958148D01*
X93620906Y-141891004D01*
X93620903Y-141891003D01*
X93616375Y-141888503D01*
X93384097Y-141806250D01*
X93246176Y-141781682D01*
X93146593Y-141763943D01*
X93146589Y-141763943D01*
X93141505Y-141763037D01*
X93056700Y-141762001D01*
X92900282Y-141760090D01*
X92900280Y-141760090D01*
X92895112Y-141760027D01*
X92651536Y-141797299D01*
X92417318Y-141873853D01*
X92412730Y-141876241D01*
X92412726Y-141876243D01*
X92255388Y-141958148D01*
X92198748Y-141987633D01*
X92194615Y-141990736D01*
X92194612Y-141990738D01*
X92005832Y-142132479D01*
X92001697Y-142135584D01*
X91998125Y-142139322D01*
X91859182Y-142284717D01*
X91831455Y-142313731D01*
X91828541Y-142318003D01*
X91828540Y-142318004D01*
X91695515Y-142513011D01*
X91695512Y-142513016D01*
X91692596Y-142517291D01*
X91690420Y-142521980D01*
X91690416Y-142521986D01*
X91591025Y-142736106D01*
X91588848Y-142740797D01*
X91587468Y-142745775D01*
X91587466Y-142745779D01*
X91524377Y-142973274D01*
X91522998Y-142978247D01*
X91511604Y-143084864D01*
X91502083Y-143173955D01*
X91501500Y-143179406D01*
X91501500Y-145302469D01*
X85085563Y-145302469D01*
X84956752Y-145208882D01*
X84950724Y-145206198D01*
X84950722Y-145206197D01*
X84794287Y-145136548D01*
X84756441Y-145110536D01*
X84253652Y-144607747D01*
X84246112Y-144599461D01*
X84242000Y-144592982D01*
X84192348Y-144546356D01*
X84189507Y-144543602D01*
X84169770Y-144523865D01*
X84166573Y-144521385D01*
X84157551Y-144513680D01*
X84125321Y-144483414D01*
X84118375Y-144479595D01*
X84118372Y-144479593D01*
X84107566Y-144473652D01*
X84091047Y-144462801D01*
X84090583Y-144462441D01*
X84075041Y-144450386D01*
X84067772Y-144447241D01*
X84067768Y-144447238D01*
X84034463Y-144432826D01*
X84023813Y-144427609D01*
X83985060Y-144406305D01*
X83965437Y-144401267D01*
X83946734Y-144394863D01*
X83935420Y-144389967D01*
X83935419Y-144389967D01*
X83928145Y-144386819D01*
X83920322Y-144385580D01*
X83920312Y-144385577D01*
X83884476Y-144379901D01*
X83872856Y-144377495D01*
X83837711Y-144368472D01*
X83837710Y-144368472D01*
X83830030Y-144366500D01*
X83809776Y-144366500D01*
X83790065Y-144364949D01*
X83777886Y-144363020D01*
X83770057Y-144361780D01*
X83762165Y-144362526D01*
X83726039Y-144365941D01*
X83714181Y-144366500D01*
X79695815Y-144366500D01*
X79627694Y-144346498D01*
X79621754Y-144342436D01*
X79512094Y-144262763D01*
X79512093Y-144262762D01*
X79506752Y-144258882D01*
X79500724Y-144256198D01*
X79500722Y-144256197D01*
X79338319Y-144183891D01*
X79338318Y-144183891D01*
X79332288Y-144181206D01*
X79238887Y-144161353D01*
X79151944Y-144142872D01*
X79151939Y-144142872D01*
X79145487Y-144141500D01*
X78954513Y-144141500D01*
X78948061Y-144142872D01*
X78948056Y-144142872D01*
X78835696Y-144166755D01*
X78764905Y-144161353D01*
X78708272Y-144118536D01*
X78683779Y-144051898D01*
X78683499Y-144043508D01*
X78683499Y-144014595D01*
X78703501Y-143946474D01*
X78720404Y-143925500D01*
X79200499Y-143445405D01*
X79262811Y-143411379D01*
X79289594Y-143408500D01*
X79345487Y-143408500D01*
X79351939Y-143407128D01*
X79351944Y-143407128D01*
X79438888Y-143388647D01*
X79532288Y-143368794D01*
X79554389Y-143358954D01*
X79700722Y-143293803D01*
X79700724Y-143293802D01*
X79706752Y-143291118D01*
X79717348Y-143283420D01*
X79855889Y-143182763D01*
X79861253Y-143178866D01*
X79989040Y-143036944D01*
X80084527Y-142871556D01*
X80096322Y-142835255D01*
X80136396Y-142776649D01*
X80201792Y-142749012D01*
X80221203Y-142748428D01*
X80221866Y-142748500D01*
X84278134Y-142748500D01*
X84340316Y-142741745D01*
X84476705Y-142690615D01*
X84593261Y-142603261D01*
X84680615Y-142486705D01*
X84731745Y-142350316D01*
X84738500Y-142288134D01*
X84738500Y-141655717D01*
X84758502Y-141587596D01*
X84764538Y-141579012D01*
X84776498Y-141563426D01*
X84781524Y-141556876D01*
X84786939Y-141543803D01*
X84839678Y-141416480D01*
X84839679Y-141416477D01*
X84842838Y-141408850D01*
X84863751Y-141250000D01*
X84842838Y-141091150D01*
X84781524Y-140943125D01*
X84764537Y-140920987D01*
X84738937Y-140854766D01*
X84738500Y-140844283D01*
X84738500Y-140211866D01*
X84731745Y-140149684D01*
X84680615Y-140013295D01*
X84593261Y-139896739D01*
X84476705Y-139809385D01*
X84340316Y-139758255D01*
X84278134Y-139751500D01*
X80221866Y-139751500D01*
X80159684Y-139758255D01*
X80023295Y-139809385D01*
X79906739Y-139896739D01*
X79819385Y-140013295D01*
X79768255Y-140149684D01*
X79761500Y-140211866D01*
X79761500Y-141539234D01*
X79741498Y-141607355D01*
X79687842Y-141653848D01*
X79617568Y-141663952D01*
X79584252Y-141654341D01*
X79538323Y-141633892D01*
X79538315Y-141633889D01*
X79532288Y-141631206D01*
X79438887Y-141611353D01*
X79351944Y-141592872D01*
X79351939Y-141592872D01*
X79345487Y-141591500D01*
X79154513Y-141591500D01*
X79148061Y-141592872D01*
X79148056Y-141592872D01*
X79061113Y-141611353D01*
X78967712Y-141631206D01*
X78961682Y-141633891D01*
X78961681Y-141633891D01*
X78799278Y-141706197D01*
X78799276Y-141706198D01*
X78793248Y-141708882D01*
X78638747Y-141821134D01*
X78634326Y-141826044D01*
X78634325Y-141826045D01*
X78566192Y-141901715D01*
X78510960Y-141963056D01*
X78415473Y-142128444D01*
X78356458Y-142310072D01*
X78355768Y-142316633D01*
X78355768Y-142316635D01*
X78339093Y-142475292D01*
X78312080Y-142540949D01*
X78302878Y-142551218D01*
X77976816Y-142877279D01*
X77657741Y-143196354D01*
X77649462Y-143203888D01*
X77642981Y-143208001D01*
X77596356Y-143257652D01*
X77593601Y-143260494D01*
X77573864Y-143280231D01*
X77571384Y-143283428D01*
X77563681Y-143292448D01*
X77533413Y-143324680D01*
X77529594Y-143331626D01*
X77529592Y-143331629D01*
X77523651Y-143342435D01*
X77512800Y-143358954D01*
X77500385Y-143374960D01*
X77497240Y-143382229D01*
X77497237Y-143382233D01*
X77482825Y-143415538D01*
X77477608Y-143426188D01*
X77456304Y-143464941D01*
X77454333Y-143472616D01*
X77454333Y-143472617D01*
X77451266Y-143484563D01*
X77444862Y-143503267D01*
X77436818Y-143521856D01*
X77435579Y-143529679D01*
X77435576Y-143529689D01*
X77429900Y-143565525D01*
X77427494Y-143577145D01*
X77416499Y-143619971D01*
X77416499Y-143640225D01*
X77414948Y-143659935D01*
X77411779Y-143679944D01*
X77412525Y-143687836D01*
X77415940Y-143723962D01*
X77416499Y-143735820D01*
X77416499Y-145752088D01*
X77396497Y-145820209D01*
X77384450Y-145835157D01*
X77381938Y-145837040D01*
X77294584Y-145953596D01*
X77243454Y-146089985D01*
X77236699Y-146152167D01*
X77236699Y-147797835D01*
X77243454Y-147860017D01*
X77246226Y-147867413D01*
X77246228Y-147867419D01*
X77265779Y-147919571D01*
X77270962Y-147990378D01*
X77237040Y-148052747D01*
X77174785Y-148086876D01*
X77147797Y-148089800D01*
X76104966Y-148089800D01*
X76042784Y-148096555D01*
X76035388Y-148099327D01*
X76035382Y-148099329D01*
X75928229Y-148139499D01*
X75857422Y-148144682D01*
X75795053Y-148110761D01*
X75760924Y-148048505D01*
X75758000Y-148021517D01*
X75758000Y-136354888D01*
X79760027Y-136354888D01*
X79797299Y-136598464D01*
X79873853Y-136832682D01*
X79876241Y-136837270D01*
X79876243Y-136837274D01*
X79976742Y-137030330D01*
X79987633Y-137051252D01*
X79990736Y-137055385D01*
X79990738Y-137055388D01*
X80125625Y-137235039D01*
X80135584Y-137248303D01*
X80198576Y-137308500D01*
X80291750Y-137397539D01*
X80313731Y-137418545D01*
X80318003Y-137421459D01*
X80318004Y-137421460D01*
X80513011Y-137554485D01*
X80513016Y-137554488D01*
X80517291Y-137557404D01*
X80521980Y-137559580D01*
X80521986Y-137559584D01*
X80736106Y-137658975D01*
X80736111Y-137658977D01*
X80740797Y-137661152D01*
X80745775Y-137662532D01*
X80745779Y-137662534D01*
X80940417Y-137716511D01*
X80978247Y-137727002D01*
X81084864Y-137738396D01*
X81176071Y-137748144D01*
X81176079Y-137748144D01*
X81179406Y-137748500D01*
X83302469Y-137748500D01*
X83305042Y-137748288D01*
X83305053Y-137748288D01*
X83480432Y-137733869D01*
X83480438Y-137733868D01*
X83485583Y-137733445D01*
X83605077Y-137703430D01*
X83719559Y-137674675D01*
X83719563Y-137674674D01*
X83724570Y-137673416D01*
X83729303Y-137671358D01*
X83729306Y-137671357D01*
X83945807Y-137577220D01*
X83945810Y-137577218D01*
X83950544Y-137575160D01*
X83954878Y-137572356D01*
X83954882Y-137572354D01*
X84153092Y-137444126D01*
X84153098Y-137444121D01*
X84157436Y-137441315D01*
X84161282Y-137437816D01*
X84303398Y-137308500D01*
X84339690Y-137275477D01*
X84342889Y-137271426D01*
X84342893Y-137271422D01*
X84483902Y-137092872D01*
X84492410Y-137082099D01*
X84585979Y-136912600D01*
X84608996Y-136870906D01*
X84608997Y-136870903D01*
X84611497Y-136866375D01*
X84693750Y-136634097D01*
X84726508Y-136450200D01*
X84736057Y-136396593D01*
X84736057Y-136396589D01*
X84736963Y-136391505D01*
X84738731Y-136246766D01*
X84739910Y-136150282D01*
X84739910Y-136150280D01*
X84739973Y-136145112D01*
X84702701Y-135901536D01*
X84626147Y-135667318D01*
X84595728Y-135608882D01*
X84514756Y-135453337D01*
X84514755Y-135453336D01*
X84512367Y-135448748D01*
X84489207Y-135417901D01*
X84367521Y-135255832D01*
X84367519Y-135255830D01*
X84364416Y-135251697D01*
X84228369Y-135121687D01*
X84190006Y-135085026D01*
X84190005Y-135085025D01*
X84186269Y-135081455D01*
X84175261Y-135073946D01*
X83986989Y-134945515D01*
X83986984Y-134945512D01*
X83982709Y-134942596D01*
X83978020Y-134940420D01*
X83978014Y-134940416D01*
X83763894Y-134841025D01*
X83763889Y-134841023D01*
X83759203Y-134838848D01*
X83754225Y-134837468D01*
X83754221Y-134837466D01*
X83526726Y-134774377D01*
X83526725Y-134774377D01*
X83521753Y-134772998D01*
X83415136Y-134761604D01*
X83323929Y-134751856D01*
X83323921Y-134751856D01*
X83320594Y-134751500D01*
X81197531Y-134751500D01*
X81194958Y-134751712D01*
X81194947Y-134751712D01*
X81019568Y-134766131D01*
X81019562Y-134766132D01*
X81014417Y-134766555D01*
X80894924Y-134796569D01*
X80780441Y-134825325D01*
X80780437Y-134825326D01*
X80775430Y-134826584D01*
X80770697Y-134828642D01*
X80770694Y-134828643D01*
X80554193Y-134922780D01*
X80554190Y-134922782D01*
X80549456Y-134924840D01*
X80545122Y-134927644D01*
X80545118Y-134927646D01*
X80346908Y-135055874D01*
X80346902Y-135055879D01*
X80342564Y-135058685D01*
X80338739Y-135062165D01*
X80338737Y-135062167D01*
X80312137Y-135086371D01*
X80160310Y-135224523D01*
X80157111Y-135228574D01*
X80157107Y-135228578D01*
X80062417Y-135348478D01*
X80007590Y-135417901D01*
X79988028Y-135453337D01*
X79900020Y-135612763D01*
X79888503Y-135633625D01*
X79806250Y-135865903D01*
X79805343Y-135870995D01*
X79766288Y-136090246D01*
X79763037Y-136108495D01*
X79762614Y-136143124D01*
X79760898Y-136283628D01*
X79760027Y-136354888D01*
X75758000Y-136354888D01*
X75758000Y-128182801D01*
X75778002Y-128114680D01*
X75831658Y-128068187D01*
X75884000Y-128056801D01*
X76847798Y-128056801D01*
X76915919Y-128076803D01*
X76962412Y-128130459D01*
X76972516Y-128200733D01*
X76965780Y-128227030D01*
X76946229Y-128279182D01*
X76946227Y-128279188D01*
X76943455Y-128286584D01*
X76936700Y-128348766D01*
X76936700Y-129994434D01*
X76943455Y-130056616D01*
X76994585Y-130193005D01*
X77081638Y-130309159D01*
X77081939Y-130309561D01*
X77081881Y-130309604D01*
X77113621Y-130367730D01*
X77116500Y-130394513D01*
X77116500Y-130671233D01*
X77115973Y-130682416D01*
X77114298Y-130689909D01*
X77115863Y-130739671D01*
X77116360Y-130755491D01*
X77110254Y-130798388D01*
X77106458Y-130810072D01*
X77105768Y-130816633D01*
X77105768Y-130816635D01*
X77092854Y-130939505D01*
X77086496Y-131000000D01*
X77087186Y-131006565D01*
X77104937Y-131175452D01*
X77106458Y-131189928D01*
X77165473Y-131371556D01*
X77260960Y-131536944D01*
X77265378Y-131541851D01*
X77265379Y-131541852D01*
X77374512Y-131663056D01*
X77388747Y-131678866D01*
X77543248Y-131791118D01*
X77549276Y-131793802D01*
X77549278Y-131793803D01*
X77709799Y-131865271D01*
X77717712Y-131868794D01*
X77811112Y-131888647D01*
X77898056Y-131907128D01*
X77898061Y-131907128D01*
X77904513Y-131908500D01*
X78095487Y-131908500D01*
X78101939Y-131907128D01*
X78101944Y-131907128D01*
X78188888Y-131888647D01*
X78282288Y-131868794D01*
X78290201Y-131865271D01*
X78450722Y-131793803D01*
X78450724Y-131793802D01*
X78456752Y-131791118D01*
X78611253Y-131678866D01*
X78642830Y-131643796D01*
X78703273Y-131606558D01*
X78774257Y-131607909D01*
X78833242Y-131647423D01*
X78854248Y-131690646D01*
X78856458Y-131689928D01*
X78915473Y-131871556D01*
X78918776Y-131877278D01*
X78918777Y-131877279D01*
X78936803Y-131908500D01*
X79010960Y-132036944D01*
X79138747Y-132178866D01*
X79173659Y-132204231D01*
X79284094Y-132284467D01*
X79293248Y-132291118D01*
X79299276Y-132293802D01*
X79299278Y-132293803D01*
X79350560Y-132316635D01*
X79467712Y-132368794D01*
X79561113Y-132388647D01*
X79648056Y-132407128D01*
X79648061Y-132407128D01*
X79654513Y-132408500D01*
X79845487Y-132408500D01*
X79850401Y-132407456D01*
X79919662Y-132420122D01*
X79972112Y-132469658D01*
X80010960Y-132536944D01*
X80138747Y-132678866D01*
X80293248Y-132791118D01*
X80299276Y-132793802D01*
X80299278Y-132793803D01*
X80458925Y-132864882D01*
X80467712Y-132868794D01*
X80561113Y-132888647D01*
X80648056Y-132907128D01*
X80648061Y-132907128D01*
X80654513Y-132908500D01*
X80845487Y-132908500D01*
X80851939Y-132907128D01*
X80851944Y-132907128D01*
X80938887Y-132888647D01*
X81032288Y-132868794D01*
X81041075Y-132864882D01*
X81200722Y-132793803D01*
X81200724Y-132793802D01*
X81206752Y-132791118D01*
X81361253Y-132678866D01*
X81489040Y-132536944D01*
X81563861Y-132407350D01*
X81581223Y-132377279D01*
X81581224Y-132377278D01*
X81584527Y-132371556D01*
X81643542Y-132189928D01*
X81663504Y-132000000D01*
X81645221Y-131826045D01*
X81644232Y-131816635D01*
X81644232Y-131816633D01*
X81643542Y-131810072D01*
X81584527Y-131628444D01*
X81577406Y-131616109D01*
X81534109Y-131541118D01*
X81489040Y-131463056D01*
X81415863Y-131381785D01*
X81385147Y-131317779D01*
X81383500Y-131297476D01*
X81383500Y-130394513D01*
X81403502Y-130326392D01*
X81415549Y-130311444D01*
X81418061Y-130309561D01*
X81505415Y-130193005D01*
X81556545Y-130056616D01*
X81563300Y-129994434D01*
X81563300Y-128348766D01*
X81556545Y-128286584D01*
X81553773Y-128279188D01*
X81553771Y-128279182D01*
X81534220Y-128227030D01*
X81529037Y-128156223D01*
X81562959Y-128093854D01*
X81625214Y-128059725D01*
X81652202Y-128056801D01*
X82695033Y-128056801D01*
X82757215Y-128050046D01*
X82893604Y-127998916D01*
X82900791Y-127993530D01*
X82962250Y-127947469D01*
X83028757Y-127922621D01*
X83098139Y-127937674D01*
X83144959Y-127981992D01*
X83198063Y-128067807D01*
X83207099Y-128079208D01*
X83288462Y-128160430D01*
X83322541Y-128222713D01*
X83317538Y-128293533D01*
X83288617Y-128338620D01*
X83205870Y-128421512D01*
X83205866Y-128421517D01*
X83200695Y-128426697D01*
X83196855Y-128432927D01*
X83196854Y-128432928D01*
X83122659Y-128553295D01*
X83107885Y-128577262D01*
X83090875Y-128628546D01*
X83066774Y-128701210D01*
X83052203Y-128745139D01*
X83041500Y-128849600D01*
X83041500Y-129650400D01*
X83052474Y-129756166D01*
X83054655Y-129762702D01*
X83054655Y-129762704D01*
X83083946Y-129850499D01*
X83108450Y-129923946D01*
X83201522Y-130074348D01*
X83326697Y-130199305D01*
X83332927Y-130203145D01*
X83332928Y-130203146D01*
X83365715Y-130223356D01*
X83413208Y-130276128D01*
X83424632Y-130346200D01*
X83415830Y-130377825D01*
X83415473Y-130378444D01*
X83356458Y-130560072D01*
X83355768Y-130566633D01*
X83355768Y-130566635D01*
X83345785Y-130661621D01*
X83336496Y-130750000D01*
X83337186Y-130756565D01*
X83349668Y-130875321D01*
X83356458Y-130939928D01*
X83415473Y-131121556D01*
X83418776Y-131127278D01*
X83418777Y-131127279D01*
X83425557Y-131139022D01*
X83510960Y-131286944D01*
X83515378Y-131291851D01*
X83515379Y-131291852D01*
X83555980Y-131336944D01*
X83638747Y-131428866D01*
X83707566Y-131478866D01*
X83782938Y-131533627D01*
X83793248Y-131541118D01*
X83799276Y-131543802D01*
X83799278Y-131543803D01*
X83961681Y-131616109D01*
X83967712Y-131618794D01*
X84041443Y-131634466D01*
X84148056Y-131657128D01*
X84148061Y-131657128D01*
X84154513Y-131658500D01*
X84345487Y-131658500D01*
X84351939Y-131657128D01*
X84351944Y-131657128D01*
X84458557Y-131634466D01*
X84532288Y-131618794D01*
X84538319Y-131616109D01*
X84700722Y-131543803D01*
X84700724Y-131543802D01*
X84706752Y-131541118D01*
X84717063Y-131533627D01*
X84792434Y-131478866D01*
X84861253Y-131428866D01*
X84944020Y-131336944D01*
X84984621Y-131291852D01*
X84984622Y-131291851D01*
X84989040Y-131286944D01*
X85074443Y-131139022D01*
X85081223Y-131127279D01*
X85081224Y-131127278D01*
X85084527Y-131121556D01*
X85094850Y-131089785D01*
X85134924Y-131031179D01*
X85200321Y-131003543D01*
X85270278Y-131015650D01*
X85322584Y-131063657D01*
X85334206Y-131088843D01*
X85383450Y-131236446D01*
X85476522Y-131386848D01*
X85481704Y-131392021D01*
X85503275Y-131413554D01*
X85601697Y-131511805D01*
X85607927Y-131515645D01*
X85607928Y-131515646D01*
X85745090Y-131600194D01*
X85752262Y-131604615D01*
X85786916Y-131616109D01*
X85913611Y-131658132D01*
X85913613Y-131658132D01*
X85920139Y-131660297D01*
X85926975Y-131660997D01*
X85926978Y-131660998D01*
X85970031Y-131665409D01*
X86024600Y-131671000D01*
X86975400Y-131671000D01*
X86978646Y-131670663D01*
X86978650Y-131670663D01*
X87074308Y-131660738D01*
X87074312Y-131660737D01*
X87081166Y-131660026D01*
X87087702Y-131657845D01*
X87087704Y-131657845D01*
X87237379Y-131607909D01*
X87248946Y-131604050D01*
X87346304Y-131543803D01*
X87366502Y-131531304D01*
X87434954Y-131512466D01*
X87502724Y-131533627D01*
X87526439Y-131554136D01*
X87638747Y-131678866D01*
X87793248Y-131791118D01*
X87799276Y-131793802D01*
X87799278Y-131793803D01*
X87959799Y-131865271D01*
X87967712Y-131868794D01*
X88061112Y-131888647D01*
X88148056Y-131907128D01*
X88148061Y-131907128D01*
X88154513Y-131908500D01*
X88345487Y-131908500D01*
X88351939Y-131907128D01*
X88351944Y-131907128D01*
X88438888Y-131888647D01*
X88532288Y-131868794D01*
X88540201Y-131865271D01*
X88700722Y-131793803D01*
X88700724Y-131793802D01*
X88706752Y-131791118D01*
X88861253Y-131678866D01*
X88875488Y-131663056D01*
X88984621Y-131541852D01*
X88984622Y-131541851D01*
X88989040Y-131536944D01*
X89084527Y-131371556D01*
X89143542Y-131189928D01*
X89144586Y-131180002D01*
X89160836Y-131025385D01*
X89187849Y-130959729D01*
X89194295Y-130952305D01*
X89203644Y-130942349D01*
X89206400Y-130939505D01*
X89226135Y-130919770D01*
X89228615Y-130916573D01*
X89236320Y-130907551D01*
X89261159Y-130881100D01*
X89266586Y-130875321D01*
X89270405Y-130868375D01*
X89270407Y-130868372D01*
X89276348Y-130857566D01*
X89287199Y-130841047D01*
X89294758Y-130831301D01*
X89299614Y-130825041D01*
X89302759Y-130817772D01*
X89302762Y-130817768D01*
X89317174Y-130784463D01*
X89322391Y-130773813D01*
X89343695Y-130735060D01*
X89345666Y-130727384D01*
X89348584Y-130720013D01*
X89351352Y-130721109D01*
X89380492Y-130672142D01*
X89426352Y-130644951D01*
X89548946Y-130604050D01*
X89699348Y-130510978D01*
X89824305Y-130385803D01*
X89828841Y-130378444D01*
X89913275Y-130241468D01*
X89913276Y-130241466D01*
X89917115Y-130235238D01*
X89951610Y-130131239D01*
X89970632Y-130073889D01*
X89970632Y-130073887D01*
X89972797Y-130067361D01*
X89983500Y-129962900D01*
X89983500Y-129886475D01*
X90003502Y-129818354D01*
X90057158Y-129771861D01*
X90127432Y-129761757D01*
X90192012Y-129791251D01*
X90229023Y-129846598D01*
X90231586Y-129854279D01*
X90237761Y-129867462D01*
X90323063Y-130005307D01*
X90332099Y-130016708D01*
X90446829Y-130131239D01*
X90458240Y-130140251D01*
X90596243Y-130225316D01*
X90609424Y-130231463D01*
X90763710Y-130282638D01*
X90777086Y-130285505D01*
X90871438Y-130295172D01*
X90877854Y-130295500D01*
X91127885Y-130295500D01*
X91143124Y-130291025D01*
X91144329Y-130289635D01*
X91146000Y-130281952D01*
X91146000Y-129072000D01*
X91166002Y-129003879D01*
X91219658Y-128957386D01*
X91272000Y-128946000D01*
X91528000Y-128946000D01*
X91596121Y-128966002D01*
X91642614Y-129019658D01*
X91654000Y-129072000D01*
X91654000Y-130277384D01*
X91658475Y-130292623D01*
X91659865Y-130293828D01*
X91667548Y-130295499D01*
X91922095Y-130295499D01*
X91928614Y-130295162D01*
X92024206Y-130285243D01*
X92037600Y-130282351D01*
X92191784Y-130230912D01*
X92204958Y-130224741D01*
X92211796Y-130220509D01*
X92280248Y-130201671D01*
X92348018Y-130222832D01*
X92393589Y-130277272D01*
X92404100Y-130327653D01*
X92404100Y-130973284D01*
X92384098Y-131041405D01*
X92353665Y-131074110D01*
X92325339Y-131095339D01*
X92305691Y-131121556D01*
X92304110Y-131123665D01*
X92247251Y-131166180D01*
X92203284Y-131174100D01*
X91510166Y-131174100D01*
X91447984Y-131180855D01*
X91311595Y-131231985D01*
X91195039Y-131319339D01*
X91107685Y-131435895D01*
X91056555Y-131572284D01*
X91049800Y-131634466D01*
X91049800Y-131750501D01*
X91029798Y-131818622D01*
X90976142Y-131865115D01*
X90923800Y-131876501D01*
X90717205Y-131876501D01*
X90649084Y-131856499D01*
X90623570Y-131834812D01*
X90615674Y-131826042D01*
X90615665Y-131826033D01*
X90611253Y-131821134D01*
X90531598Y-131763261D01*
X90462094Y-131712763D01*
X90462093Y-131712762D01*
X90456752Y-131708882D01*
X90450724Y-131706198D01*
X90450722Y-131706197D01*
X90288319Y-131633891D01*
X90288318Y-131633891D01*
X90282288Y-131631206D01*
X90172685Y-131607909D01*
X90101944Y-131592872D01*
X90101939Y-131592872D01*
X90095487Y-131591500D01*
X89904513Y-131591500D01*
X89898061Y-131592872D01*
X89898056Y-131592872D01*
X89827315Y-131607909D01*
X89717712Y-131631206D01*
X89711682Y-131633891D01*
X89711681Y-131633891D01*
X89549278Y-131706197D01*
X89549276Y-131706198D01*
X89543248Y-131708882D01*
X89388747Y-131821134D01*
X89384328Y-131826042D01*
X89384325Y-131826045D01*
X89316165Y-131901745D01*
X89260960Y-131963056D01*
X89165473Y-132128444D01*
X89106458Y-132310072D01*
X89086496Y-132500000D01*
X89106458Y-132689928D01*
X89165473Y-132871556D01*
X89168777Y-132877279D01*
X89171461Y-132883307D01*
X89169342Y-132884250D01*
X89183579Y-132942902D01*
X89160367Y-133009997D01*
X89104566Y-133053891D01*
X89033891Y-133060649D01*
X88983660Y-133038859D01*
X88927095Y-132997762D01*
X88927094Y-132997761D01*
X88921753Y-132993881D01*
X88915725Y-132991197D01*
X88915723Y-132991196D01*
X88753320Y-132918890D01*
X88753319Y-132918890D01*
X88747289Y-132916205D01*
X88653889Y-132896352D01*
X88566945Y-132877871D01*
X88566940Y-132877871D01*
X88560488Y-132876499D01*
X88369514Y-132876499D01*
X88363062Y-132877871D01*
X88363057Y-132877871D01*
X88276113Y-132896352D01*
X88182713Y-132916205D01*
X88176683Y-132918890D01*
X88176682Y-132918890D01*
X88014279Y-132991196D01*
X88014277Y-132991197D01*
X88008249Y-132993881D01*
X87853748Y-133106133D01*
X87725961Y-133248055D01*
X87630474Y-133413443D01*
X87571459Y-133595071D01*
X87551497Y-133784999D01*
X87552187Y-133791564D01*
X87566317Y-133926000D01*
X87571459Y-133974927D01*
X87630474Y-134156555D01*
X87725961Y-134321943D01*
X87853748Y-134463865D01*
X88008249Y-134576117D01*
X88014277Y-134578801D01*
X88014279Y-134578802D01*
X88134654Y-134632396D01*
X88182713Y-134653793D01*
X88276114Y-134673646D01*
X88363057Y-134692127D01*
X88363062Y-134692127D01*
X88369514Y-134693499D01*
X88560488Y-134693499D01*
X88566940Y-134692127D01*
X88566945Y-134692127D01*
X88653888Y-134673646D01*
X88747289Y-134653793D01*
X88795348Y-134632396D01*
X88915723Y-134578802D01*
X88915725Y-134578801D01*
X88921753Y-134576117D01*
X89010077Y-134511946D01*
X89054672Y-134479545D01*
X89076254Y-134463865D01*
X89102075Y-134435188D01*
X89162521Y-134397949D01*
X89195711Y-134393499D01*
X90923800Y-134393499D01*
X90991921Y-134413501D01*
X91038414Y-134467157D01*
X91049800Y-134519499D01*
X91049800Y-134635534D01*
X91056555Y-134697716D01*
X91059327Y-134705112D01*
X91059329Y-134705118D01*
X91088140Y-134781971D01*
X91093323Y-134852778D01*
X91059402Y-134915147D01*
X90997146Y-134949276D01*
X90970158Y-134952200D01*
X89687436Y-134952200D01*
X89670990Y-134951122D01*
X89647488Y-134948028D01*
X89639300Y-134946950D01*
X89631112Y-134948028D01*
X89599429Y-134952199D01*
X89599420Y-134952200D01*
X89599415Y-134952200D01*
X89480450Y-134967862D01*
X89332425Y-135029176D01*
X89332423Y-135029177D01*
X89332424Y-135029177D01*
X89237228Y-135102223D01*
X89237225Y-135102226D01*
X89205313Y-135126713D01*
X89200283Y-135133268D01*
X89185848Y-135152079D01*
X89174981Y-135164470D01*
X88884856Y-135454595D01*
X88822544Y-135488621D01*
X88795761Y-135491500D01*
X88704513Y-135491500D01*
X88698061Y-135492872D01*
X88698056Y-135492872D01*
X88618113Y-135509865D01*
X88517712Y-135531206D01*
X88511682Y-135533891D01*
X88511681Y-135533891D01*
X88349278Y-135606197D01*
X88349276Y-135606198D01*
X88343248Y-135608882D01*
X88337907Y-135612762D01*
X88337906Y-135612763D01*
X88315429Y-135629094D01*
X88188747Y-135721134D01*
X88184326Y-135726044D01*
X88184325Y-135726045D01*
X88077870Y-135844276D01*
X88060960Y-135863056D01*
X88016719Y-135939684D01*
X87987765Y-135989834D01*
X87965473Y-136028444D01*
X87906458Y-136210072D01*
X87905768Y-136216633D01*
X87905768Y-136216635D01*
X87893167Y-136336525D01*
X87886496Y-136400000D01*
X87887186Y-136406565D01*
X87891720Y-136449699D01*
X87906458Y-136589928D01*
X87965473Y-136771556D01*
X88060960Y-136936944D01*
X88065378Y-136941851D01*
X88065379Y-136941852D01*
X88175970Y-137064676D01*
X88188747Y-137078866D01*
X88343248Y-137191118D01*
X88349276Y-137193802D01*
X88349278Y-137193803D01*
X88509159Y-137264986D01*
X88517712Y-137268794D01*
X88611113Y-137288647D01*
X88698056Y-137307128D01*
X88698061Y-137307128D01*
X88704513Y-137308500D01*
X88895487Y-137308500D01*
X88901939Y-137307128D01*
X88901944Y-137307128D01*
X88988887Y-137288647D01*
X89082288Y-137268794D01*
X89090841Y-137264986D01*
X89250722Y-137193803D01*
X89250724Y-137193802D01*
X89256752Y-137191118D01*
X89411253Y-137078866D01*
X89424030Y-137064676D01*
X89534621Y-136941852D01*
X89534622Y-136941851D01*
X89539040Y-136936944D01*
X89619782Y-136797095D01*
X100792001Y-136797095D01*
X100792338Y-136803614D01*
X100802257Y-136899206D01*
X100805149Y-136912600D01*
X100856588Y-137066784D01*
X100862761Y-137079962D01*
X100948063Y-137217807D01*
X100957099Y-137229208D01*
X101071829Y-137343739D01*
X101083240Y-137352751D01*
X101221243Y-137437816D01*
X101234424Y-137443963D01*
X101388710Y-137495138D01*
X101402086Y-137498005D01*
X101496438Y-137507672D01*
X101502854Y-137508000D01*
X101727885Y-137508000D01*
X101743124Y-137503525D01*
X101744329Y-137502135D01*
X101746000Y-137494452D01*
X101746000Y-136672115D01*
X101741525Y-136656876D01*
X101740135Y-136655671D01*
X101732452Y-136654000D01*
X100810116Y-136654000D01*
X100794877Y-136658475D01*
X100793672Y-136659865D01*
X100792001Y-136667548D01*
X100792001Y-136797095D01*
X89619782Y-136797095D01*
X89634527Y-136771556D01*
X89693542Y-136589928D01*
X89708281Y-136449699D01*
X89712814Y-136406565D01*
X89713504Y-136400000D01*
X89713316Y-136398214D01*
X89732816Y-136331804D01*
X89749719Y-136310830D01*
X89854444Y-136206105D01*
X89916756Y-136172079D01*
X89943539Y-136169200D01*
X92384565Y-136169200D01*
X92452686Y-136189202D01*
X92485390Y-136219634D01*
X92549339Y-136304961D01*
X92665895Y-136392315D01*
X92802284Y-136443445D01*
X92864466Y-136450200D01*
X93265534Y-136450200D01*
X93270146Y-136449699D01*
X93319866Y-136444298D01*
X93319868Y-136444298D01*
X93327716Y-136443445D01*
X93345773Y-136436676D01*
X93416578Y-136431493D01*
X93434218Y-136436672D01*
X93452285Y-136443445D01*
X93475805Y-136446000D01*
X93506468Y-136449331D01*
X93514467Y-136450200D01*
X93915535Y-136450200D01*
X93920147Y-136449699D01*
X93969867Y-136444298D01*
X93969869Y-136444298D01*
X93977717Y-136443445D01*
X93985110Y-136440673D01*
X93985112Y-136440673D01*
X93996483Y-136436410D01*
X94067290Y-136431227D01*
X94084941Y-136436410D01*
X94094991Y-136440178D01*
X94110249Y-136443805D01*
X94161114Y-136449331D01*
X94167928Y-136449700D01*
X94194485Y-136449700D01*
X94209724Y-136445225D01*
X94210929Y-136443835D01*
X94212600Y-136436152D01*
X94212600Y-136371036D01*
X94232602Y-136302915D01*
X94237760Y-136295490D01*
X94264176Y-136260244D01*
X94321034Y-136217731D01*
X94391852Y-136212706D01*
X94454145Y-136246766D01*
X94465820Y-136260238D01*
X94492227Y-136295473D01*
X94517074Y-136361977D01*
X94517400Y-136371036D01*
X94517400Y-136431584D01*
X94521875Y-136446823D01*
X94523265Y-136448028D01*
X94530948Y-136449699D01*
X94562069Y-136449699D01*
X94568890Y-136449329D01*
X94619752Y-136443805D01*
X94635007Y-136440178D01*
X94645059Y-136436410D01*
X94715866Y-136431227D01*
X94733517Y-136436410D01*
X94744888Y-136440673D01*
X94744890Y-136440673D01*
X94752283Y-136443445D01*
X94760131Y-136444298D01*
X94760133Y-136444298D01*
X94809853Y-136449699D01*
X94814465Y-136450200D01*
X95215533Y-136450200D01*
X95220145Y-136449699D01*
X95269865Y-136444298D01*
X95269867Y-136444298D01*
X95277715Y-136443445D01*
X95295772Y-136436676D01*
X95366577Y-136431493D01*
X95384217Y-136436672D01*
X95402284Y-136443445D01*
X95425804Y-136446000D01*
X95456467Y-136449331D01*
X95464466Y-136450200D01*
X95865534Y-136450200D01*
X95927716Y-136443445D01*
X96064105Y-136392315D01*
X96156745Y-136322885D01*
X106537600Y-136322885D01*
X106542075Y-136338124D01*
X106543465Y-136339329D01*
X106551148Y-136341000D01*
X107503735Y-136341000D01*
X107518974Y-136336525D01*
X107520179Y-136335135D01*
X107521850Y-136327452D01*
X107521850Y-136322885D01*
X108029850Y-136322885D01*
X108034325Y-136338124D01*
X108035715Y-136339329D01*
X108043398Y-136341000D01*
X108995984Y-136341000D01*
X109011223Y-136336525D01*
X109012428Y-136335135D01*
X109014099Y-136327452D01*
X109014099Y-136283631D01*
X109013729Y-136276810D01*
X109008205Y-136225948D01*
X109004579Y-136210696D01*
X108959424Y-136090246D01*
X108950886Y-136074651D01*
X108874385Y-135972576D01*
X108861824Y-135960015D01*
X108759749Y-135883514D01*
X108744154Y-135874976D01*
X108623706Y-135829822D01*
X108608451Y-135826195D01*
X108557586Y-135820669D01*
X108550772Y-135820300D01*
X108047965Y-135820300D01*
X108032726Y-135824775D01*
X108031521Y-135826165D01*
X108029850Y-135833848D01*
X108029850Y-136322885D01*
X107521850Y-136322885D01*
X107521850Y-135838416D01*
X107517375Y-135823177D01*
X107515985Y-135821972D01*
X107508302Y-135820301D01*
X107000931Y-135820301D01*
X106994110Y-135820671D01*
X106943248Y-135826195D01*
X106927996Y-135829821D01*
X106807546Y-135874976D01*
X106791951Y-135883514D01*
X106689876Y-135960015D01*
X106677315Y-135972576D01*
X106600814Y-136074651D01*
X106592276Y-136090246D01*
X106547122Y-136210694D01*
X106543495Y-136225949D01*
X106537969Y-136276814D01*
X106537600Y-136283628D01*
X106537600Y-136322885D01*
X96156745Y-136322885D01*
X96180661Y-136304961D01*
X96268015Y-136188405D01*
X96319145Y-136052016D01*
X96325900Y-135989834D01*
X96325900Y-135296716D01*
X96345902Y-135228595D01*
X96376335Y-135195890D01*
X96397481Y-135180042D01*
X96404661Y-135174661D01*
X96425890Y-135146335D01*
X96482749Y-135103820D01*
X96526716Y-135095900D01*
X97219834Y-135095900D01*
X97282016Y-135089145D01*
X97418405Y-135038015D01*
X97534961Y-134950661D01*
X97622315Y-134834105D01*
X97673445Y-134697716D01*
X97680200Y-134635534D01*
X97680200Y-134234466D01*
X97673445Y-134172284D01*
X97666676Y-134154227D01*
X97661493Y-134083423D01*
X97666674Y-134065777D01*
X97673445Y-134047715D01*
X97680200Y-133985533D01*
X97680200Y-133584465D01*
X97673445Y-133522283D01*
X97670673Y-133514888D01*
X97670671Y-133514881D01*
X97666677Y-133504228D01*
X97661494Y-133433420D01*
X97666677Y-133415770D01*
X97670673Y-133405111D01*
X97670673Y-133405109D01*
X97673445Y-133397716D01*
X97680200Y-133335534D01*
X97680200Y-132934466D01*
X97673445Y-132872284D01*
X97670673Y-132864889D01*
X97670671Y-132864882D01*
X97666677Y-132854229D01*
X97661494Y-132783421D01*
X97666677Y-132765771D01*
X97670673Y-132755112D01*
X97670673Y-132755110D01*
X97673445Y-132747717D01*
X97674616Y-132736944D01*
X97679831Y-132688932D01*
X97680200Y-132685535D01*
X97680200Y-132284467D01*
X97673445Y-132222285D01*
X97666676Y-132204228D01*
X97661493Y-132133424D01*
X97666674Y-132115778D01*
X97673445Y-132097716D01*
X97680200Y-132035534D01*
X97680200Y-131634466D01*
X97673445Y-131572284D01*
X97622315Y-131435895D01*
X97534961Y-131319339D01*
X97418405Y-131231985D01*
X97409996Y-131228833D01*
X97409995Y-131228832D01*
X97349835Y-131206279D01*
X97293070Y-131163638D01*
X97268370Y-131097076D01*
X97274231Y-131049361D01*
X97291502Y-130996206D01*
X97293542Y-130989928D01*
X97295292Y-130973284D01*
X97312814Y-130806565D01*
X97313504Y-130800000D01*
X97310231Y-130768856D01*
X97294232Y-130616635D01*
X97294232Y-130616633D01*
X97293542Y-130610072D01*
X97234527Y-130428444D01*
X97139040Y-130263056D01*
X97127285Y-130250000D01*
X97015675Y-130126045D01*
X97015674Y-130126044D01*
X97011253Y-130121134D01*
X96856752Y-130008882D01*
X96850724Y-130006198D01*
X96850722Y-130006197D01*
X96688319Y-129933891D01*
X96688318Y-129933891D01*
X96682288Y-129931206D01*
X96584009Y-129910316D01*
X96501944Y-129892872D01*
X96501939Y-129892872D01*
X96495487Y-129891500D01*
X96304513Y-129891500D01*
X96298060Y-129892872D01*
X96298056Y-129892872D01*
X96187555Y-129916360D01*
X96116764Y-129910958D01*
X96085793Y-129893939D01*
X96071288Y-129883068D01*
X96071287Y-129883067D01*
X96064105Y-129877685D01*
X96055704Y-129874536D01*
X96055701Y-129874534D01*
X95945772Y-129833324D01*
X95927716Y-129826555D01*
X95865534Y-129819800D01*
X95464466Y-129819800D01*
X95461069Y-129820169D01*
X95410134Y-129825702D01*
X95410132Y-129825702D01*
X95402284Y-129826555D01*
X95384227Y-129833324D01*
X95313422Y-129838507D01*
X95295782Y-129833328D01*
X95277715Y-129826555D01*
X95215533Y-129819800D01*
X95019829Y-129819800D01*
X94951708Y-129799798D01*
X94905215Y-129746142D01*
X94894519Y-129680629D01*
X94896628Y-129660571D01*
X94913504Y-129500000D01*
X94894450Y-129318714D01*
X94907222Y-129248877D01*
X94955724Y-129197031D01*
X95024557Y-129179636D01*
X95059427Y-129185952D01*
X95088611Y-129195632D01*
X95088613Y-129195632D01*
X95095139Y-129197797D01*
X95101975Y-129198497D01*
X95101978Y-129198498D01*
X95145031Y-129202909D01*
X95199600Y-129208500D01*
X96000400Y-129208500D01*
X96003646Y-129208163D01*
X96003650Y-129208163D01*
X96099308Y-129198238D01*
X96099312Y-129198237D01*
X96106166Y-129197526D01*
X96112702Y-129195345D01*
X96112704Y-129195345D01*
X96266998Y-129143868D01*
X96273946Y-129141550D01*
X96424348Y-129048478D01*
X96459604Y-129013161D01*
X96526648Y-128946000D01*
X96549305Y-128923303D01*
X96554103Y-128915519D01*
X96555034Y-128914681D01*
X96557683Y-128911327D01*
X96558257Y-128911780D01*
X96606871Y-128868025D01*
X96676942Y-128856598D01*
X96705266Y-128864480D01*
X96705400Y-128864068D01*
X96711680Y-128866108D01*
X96717712Y-128868794D01*
X96810153Y-128888443D01*
X96898056Y-128907128D01*
X96898061Y-128907128D01*
X96904513Y-128908500D01*
X97095487Y-128908500D01*
X97101939Y-128907128D01*
X97101944Y-128907128D01*
X97189847Y-128888443D01*
X97282288Y-128868794D01*
X97288319Y-128866109D01*
X97450722Y-128793803D01*
X97450724Y-128793802D01*
X97456752Y-128791118D01*
X97493806Y-128764197D01*
X97562089Y-128714586D01*
X97611253Y-128678866D01*
X97626776Y-128661626D01*
X97734621Y-128541852D01*
X97734622Y-128541851D01*
X97739040Y-128536944D01*
X97824945Y-128388152D01*
X97831223Y-128377279D01*
X97831224Y-128377278D01*
X97834527Y-128371556D01*
X97893542Y-128189928D01*
X97896643Y-128160430D01*
X97912814Y-128006565D01*
X97913504Y-128000000D01*
X97904209Y-127911562D01*
X97894232Y-127816635D01*
X97894232Y-127816633D01*
X97893542Y-127810072D01*
X97834527Y-127628444D01*
X97739040Y-127463056D01*
X97611253Y-127321134D01*
X97456752Y-127208882D01*
X97450724Y-127206198D01*
X97450722Y-127206197D01*
X97288319Y-127133891D01*
X97288318Y-127133891D01*
X97282288Y-127131206D01*
X97188888Y-127111353D01*
X97101944Y-127092872D01*
X97101939Y-127092872D01*
X97095487Y-127091500D01*
X96904513Y-127091500D01*
X96898061Y-127092872D01*
X96898056Y-127092872D01*
X96761023Y-127122000D01*
X96717712Y-127131206D01*
X96711676Y-127133893D01*
X96705402Y-127135932D01*
X96704951Y-127134543D01*
X96642114Y-127142965D01*
X96577819Y-127112855D01*
X96554098Y-127084733D01*
X96552335Y-127081884D01*
X96552333Y-127081881D01*
X96548478Y-127075652D01*
X96548362Y-127075536D01*
X96522827Y-127012457D01*
X96535996Y-126942692D01*
X96546864Y-126925749D01*
X96549305Y-126923303D01*
X96605254Y-126832538D01*
X96638275Y-126778968D01*
X96638276Y-126778966D01*
X96642115Y-126772738D01*
X96688584Y-126632639D01*
X96695632Y-126611389D01*
X96695632Y-126611387D01*
X96697797Y-126604861D01*
X96698886Y-126594239D01*
X96708172Y-126503598D01*
X96708500Y-126500400D01*
X96708500Y-125499600D01*
X96704709Y-125463056D01*
X96698166Y-125400000D01*
X96711031Y-125330179D01*
X96759602Y-125278397D01*
X96823510Y-125260997D01*
X99162048Y-125261322D01*
G37*
%TD.AperFunction*%
%TA.AperFunction,Conductor*%
G36*
X78892734Y-125258505D02*
G01*
X80930038Y-125258788D01*
X80998154Y-125278800D01*
X81044640Y-125332462D01*
X81054734Y-125402737D01*
X81030846Y-125460352D01*
X81028820Y-125463056D01*
X81002484Y-125498196D01*
X80951354Y-125634585D01*
X80944599Y-125696767D01*
X80944599Y-127596435D01*
X80951354Y-127658617D01*
X80954126Y-127666013D01*
X80954128Y-127666019D01*
X80973679Y-127718171D01*
X80978862Y-127788978D01*
X80944940Y-127851347D01*
X80882685Y-127885476D01*
X80855697Y-127888400D01*
X80397066Y-127888400D01*
X80334884Y-127895155D01*
X80294229Y-127910396D01*
X80223424Y-127915579D01*
X80205770Y-127910396D01*
X80179642Y-127900601D01*
X80165115Y-127895155D01*
X80102933Y-127888400D01*
X79397065Y-127888400D01*
X79393668Y-127888769D01*
X79342733Y-127894302D01*
X79342731Y-127894302D01*
X79334883Y-127895155D01*
X79327488Y-127897927D01*
X79327485Y-127897928D01*
X79293516Y-127910662D01*
X79222709Y-127915845D01*
X79205060Y-127910662D01*
X79172406Y-127898421D01*
X79157158Y-127894795D01*
X79106287Y-127889269D01*
X79099473Y-127888900D01*
X79022116Y-127888900D01*
X79006877Y-127893375D01*
X79005672Y-127894765D01*
X79004001Y-127902448D01*
X79004001Y-128103410D01*
X78992254Y-128149322D01*
X78994584Y-128150195D01*
X78943454Y-128286584D01*
X78936699Y-128348766D01*
X78936699Y-129299600D01*
X78916697Y-129367721D01*
X78863041Y-129414214D01*
X78810699Y-129425600D01*
X78689300Y-129425600D01*
X78621179Y-129405598D01*
X78574686Y-129351942D01*
X78563300Y-129299600D01*
X78563300Y-128348766D01*
X78556545Y-128286584D01*
X78505415Y-128150195D01*
X78507745Y-128149322D01*
X78496001Y-128103415D01*
X78496001Y-127907016D01*
X78491526Y-127891777D01*
X78490136Y-127890572D01*
X78482453Y-127888901D01*
X78400532Y-127888901D01*
X78393711Y-127889271D01*
X78342849Y-127894795D01*
X78327594Y-127898422D01*
X78294944Y-127910662D01*
X78224137Y-127915846D01*
X78206485Y-127910664D01*
X78165116Y-127895155D01*
X78102934Y-127888400D01*
X77644303Y-127888400D01*
X77576182Y-127868398D01*
X77529689Y-127814742D01*
X77519585Y-127744468D01*
X77526321Y-127718171D01*
X77545872Y-127666019D01*
X77545874Y-127666013D01*
X77548646Y-127658617D01*
X77555401Y-127596435D01*
X77555401Y-125696767D01*
X77548646Y-125634585D01*
X77497516Y-125498196D01*
X77468805Y-125459887D01*
X77443957Y-125393381D01*
X77459010Y-125323998D01*
X77509184Y-125273768D01*
X77569648Y-125258322D01*
X78892734Y-125258505D01*
G37*
%TD.AperFunction*%
%TA.AperFunction,Conductor*%
G36*
X90561979Y-125260127D02*
G01*
X90630096Y-125280139D01*
X90676582Y-125333801D01*
X90686676Y-125404076D01*
X90664188Y-125459471D01*
X90660960Y-125463056D01*
X90657659Y-125468774D01*
X90657658Y-125468775D01*
X90581287Y-125601054D01*
X90565473Y-125628444D01*
X90506458Y-125810072D01*
X90486496Y-126000000D01*
X90487186Y-126006565D01*
X90487186Y-126006566D01*
X90494943Y-126080371D01*
X90482171Y-126150209D01*
X90450599Y-126188970D01*
X90450652Y-126189022D01*
X90445483Y-126194200D01*
X90411299Y-126228444D01*
X90325695Y-126314197D01*
X90321855Y-126320427D01*
X90321854Y-126320428D01*
X90242515Y-126449140D01*
X90232885Y-126464762D01*
X90220004Y-126503598D01*
X90189940Y-126594239D01*
X90177203Y-126632639D01*
X90166500Y-126737100D01*
X90166500Y-126813525D01*
X90146498Y-126881646D01*
X90092842Y-126928139D01*
X90022568Y-126938243D01*
X89957988Y-126908749D01*
X89920977Y-126853402D01*
X89918414Y-126845721D01*
X89912239Y-126832538D01*
X89826937Y-126694693D01*
X89817901Y-126683292D01*
X89703171Y-126568761D01*
X89691760Y-126559749D01*
X89553757Y-126474684D01*
X89540576Y-126468537D01*
X89386290Y-126417362D01*
X89372914Y-126414495D01*
X89278562Y-126404828D01*
X89272145Y-126404500D01*
X89022115Y-126404500D01*
X89006876Y-126408975D01*
X89005671Y-126410365D01*
X89004000Y-126418048D01*
X89004000Y-127628000D01*
X88983998Y-127696121D01*
X88930342Y-127742614D01*
X88878000Y-127754000D01*
X86772115Y-127754000D01*
X86756876Y-127758475D01*
X86755671Y-127759865D01*
X86754000Y-127767548D01*
X86754000Y-128777384D01*
X86758475Y-128792623D01*
X86759865Y-128793828D01*
X86767548Y-128795499D01*
X86972095Y-128795499D01*
X86978614Y-128795162D01*
X87074206Y-128785243D01*
X87087600Y-128782351D01*
X87241784Y-128730912D01*
X87254962Y-128724739D01*
X87392807Y-128639437D01*
X87404208Y-128630401D01*
X87518739Y-128515671D01*
X87527751Y-128504260D01*
X87574549Y-128428339D01*
X87627321Y-128380846D01*
X87697393Y-128369422D01*
X87762516Y-128397696D01*
X87770827Y-128405282D01*
X87796828Y-128431238D01*
X87805762Y-128438294D01*
X87846823Y-128496212D01*
X87850053Y-128567135D01*
X87814426Y-128628546D01*
X87806593Y-128635346D01*
X87800652Y-128639022D01*
X87675695Y-128764197D01*
X87671855Y-128770427D01*
X87671854Y-128770428D01*
X87587591Y-128907128D01*
X87582885Y-128914762D01*
X87572524Y-128946000D01*
X87538534Y-129048478D01*
X87527203Y-129082639D01*
X87526503Y-129089475D01*
X87526502Y-129089478D01*
X87525027Y-129103875D01*
X87498185Y-129169602D01*
X87440069Y-129210383D01*
X87369131Y-129213271D01*
X87333567Y-129198291D01*
X87253968Y-129149225D01*
X87253966Y-129149224D01*
X87247738Y-129145385D01*
X87122589Y-129103875D01*
X87086389Y-129091868D01*
X87086387Y-129091868D01*
X87079861Y-129089703D01*
X87073025Y-129089003D01*
X87073022Y-129089002D01*
X87029969Y-129084591D01*
X86975400Y-129079000D01*
X86024600Y-129079000D01*
X86021354Y-129079337D01*
X86021350Y-129079337D01*
X85925692Y-129089262D01*
X85925688Y-129089263D01*
X85918834Y-129089974D01*
X85912298Y-129092155D01*
X85912296Y-129092155D01*
X85803526Y-129128444D01*
X85751054Y-129145950D01*
X85744822Y-129149806D01*
X85744823Y-129149806D01*
X85650803Y-129207987D01*
X85582351Y-129226825D01*
X85514581Y-129205664D01*
X85469010Y-129151223D01*
X85458500Y-129100843D01*
X85458500Y-128849600D01*
X85458163Y-128846348D01*
X85451475Y-128781889D01*
X85464340Y-128712068D01*
X85512911Y-128660286D01*
X85581767Y-128642984D01*
X85642918Y-128661626D01*
X85746243Y-128725316D01*
X85759424Y-128731463D01*
X85913710Y-128782638D01*
X85927086Y-128785505D01*
X86021438Y-128795172D01*
X86027854Y-128795500D01*
X86227885Y-128795500D01*
X86243124Y-128791025D01*
X86244329Y-128789635D01*
X86246000Y-128781952D01*
X86246000Y-127772115D01*
X86241525Y-127756876D01*
X86240135Y-127755671D01*
X86232452Y-127754000D01*
X85403000Y-127754000D01*
X85334879Y-127733998D01*
X85288386Y-127680342D01*
X85277000Y-127628000D01*
X85277000Y-127522115D01*
X85272525Y-127506876D01*
X85271135Y-127505671D01*
X85263452Y-127504000D01*
X84122000Y-127504000D01*
X84053879Y-127483998D01*
X84007386Y-127430342D01*
X83996000Y-127378000D01*
X83996000Y-126977885D01*
X84504000Y-126977885D01*
X84508475Y-126993124D01*
X84509865Y-126994329D01*
X84517548Y-126996000D01*
X85372000Y-126996000D01*
X85440121Y-127016002D01*
X85486614Y-127069658D01*
X85498000Y-127122000D01*
X85498000Y-127227885D01*
X85502475Y-127243124D01*
X85503865Y-127244329D01*
X85511548Y-127246000D01*
X86227885Y-127246000D01*
X86243124Y-127241525D01*
X86244329Y-127240135D01*
X86246000Y-127232452D01*
X86246000Y-127227885D01*
X86754000Y-127227885D01*
X86758475Y-127243124D01*
X86759865Y-127244329D01*
X86767548Y-127246000D01*
X88477885Y-127246000D01*
X88493124Y-127241525D01*
X88494329Y-127240135D01*
X88496000Y-127232452D01*
X88496000Y-126422616D01*
X88491525Y-126407377D01*
X88490135Y-126406172D01*
X88482452Y-126404501D01*
X88227905Y-126404501D01*
X88221386Y-126404838D01*
X88125794Y-126414757D01*
X88112400Y-126417649D01*
X87958216Y-126469088D01*
X87945038Y-126475261D01*
X87807193Y-126560563D01*
X87795792Y-126569599D01*
X87770950Y-126594484D01*
X87708667Y-126628563D01*
X87637847Y-126623560D01*
X87580974Y-126581062D01*
X87574633Y-126571769D01*
X87526937Y-126494693D01*
X87517901Y-126483292D01*
X87403171Y-126368761D01*
X87391760Y-126359749D01*
X87253757Y-126274684D01*
X87240576Y-126268537D01*
X87086290Y-126217362D01*
X87072914Y-126214495D01*
X86978562Y-126204828D01*
X86972145Y-126204500D01*
X86772115Y-126204500D01*
X86756876Y-126208975D01*
X86755671Y-126210365D01*
X86754000Y-126218048D01*
X86754000Y-127227885D01*
X86246000Y-127227885D01*
X86246000Y-126222616D01*
X86241525Y-126207377D01*
X86240135Y-126206172D01*
X86232452Y-126204501D01*
X86027905Y-126204501D01*
X86021386Y-126204838D01*
X85925794Y-126214757D01*
X85912400Y-126217649D01*
X85758216Y-126269088D01*
X85745038Y-126275261D01*
X85607193Y-126360563D01*
X85595792Y-126369599D01*
X85502990Y-126462562D01*
X85440707Y-126496641D01*
X85369887Y-126491638D01*
X85313014Y-126449140D01*
X85306671Y-126439844D01*
X85301935Y-126432191D01*
X85292901Y-126420792D01*
X85178171Y-126306261D01*
X85166760Y-126297249D01*
X85028757Y-126212184D01*
X85015576Y-126206037D01*
X84861290Y-126154862D01*
X84847914Y-126151995D01*
X84753562Y-126142328D01*
X84747145Y-126142000D01*
X84522115Y-126142000D01*
X84506876Y-126146475D01*
X84505671Y-126147865D01*
X84504000Y-126155548D01*
X84504000Y-126977885D01*
X83996000Y-126977885D01*
X83996000Y-126160116D01*
X83991525Y-126144877D01*
X83990135Y-126143672D01*
X83982452Y-126142001D01*
X83752905Y-126142001D01*
X83746386Y-126142338D01*
X83650794Y-126152257D01*
X83637400Y-126155149D01*
X83483216Y-126206588D01*
X83470042Y-126212760D01*
X83347703Y-126288466D01*
X83279251Y-126307304D01*
X83211481Y-126286143D01*
X83165910Y-126231702D01*
X83155399Y-126181322D01*
X83155399Y-125696767D01*
X83148644Y-125634585D01*
X83097514Y-125498196D01*
X83069386Y-125460665D01*
X83044538Y-125394159D01*
X83059591Y-125324776D01*
X83109765Y-125274546D01*
X83170230Y-125259100D01*
X90561979Y-125260127D01*
G37*
%TD.AperFunction*%
%TD*%
%TA.AperFunction,Conductor*%
%TO.N,+3V3A*%
G36*
X107221757Y-125262442D02*
G01*
X109111509Y-125262704D01*
X109179626Y-125282716D01*
X109226112Y-125336378D01*
X109236206Y-125406653D01*
X109231325Y-125427635D01*
X109191951Y-125548816D01*
X109191261Y-125555377D01*
X109191261Y-125555379D01*
X109182663Y-125637184D01*
X109171989Y-125738744D01*
X109172679Y-125745309D01*
X109190751Y-125917251D01*
X109191951Y-125928672D01*
X109250966Y-126110300D01*
X109346453Y-126275688D01*
X109350871Y-126280595D01*
X109350872Y-126280596D01*
X109454992Y-126396233D01*
X109474240Y-126417610D01*
X109628741Y-126529862D01*
X109634769Y-126532546D01*
X109634771Y-126532547D01*
X109752003Y-126584742D01*
X109789849Y-126610754D01*
X109971348Y-126792253D01*
X109978888Y-126800539D01*
X109983000Y-126807018D01*
X109988777Y-126812443D01*
X110032652Y-126853644D01*
X110035494Y-126856399D01*
X110055230Y-126876135D01*
X110058427Y-126878615D01*
X110067447Y-126886318D01*
X110099679Y-126916586D01*
X110106625Y-126920405D01*
X110106628Y-126920407D01*
X110117434Y-126926348D01*
X110133953Y-126937199D01*
X110149959Y-126949614D01*
X110155283Y-126951918D01*
X110203091Y-127003119D01*
X110216500Y-127059681D01*
X110216500Y-127298134D01*
X110223255Y-127360316D01*
X110274385Y-127496705D01*
X110361739Y-127613261D01*
X110368919Y-127618642D01*
X110375269Y-127624992D01*
X110373634Y-127626627D01*
X110408579Y-127673359D01*
X110416500Y-127717329D01*
X110416500Y-127775101D01*
X110396498Y-127843222D01*
X110342842Y-127889715D01*
X110290500Y-127901101D01*
X109862315Y-127901101D01*
X109847076Y-127905576D01*
X109845871Y-127906966D01*
X109844200Y-127914649D01*
X109844200Y-128424599D01*
X109824198Y-128492720D01*
X109770542Y-128539213D01*
X109718200Y-128550599D01*
X109535029Y-128550599D01*
X109466908Y-128530597D01*
X109420415Y-128476941D01*
X109410311Y-128406667D01*
X109411908Y-128397819D01*
X109412400Y-128395557D01*
X109412400Y-127919217D01*
X109407925Y-127903978D01*
X109406535Y-127902773D01*
X109398852Y-127901102D01*
X108872431Y-127901102D01*
X108865610Y-127901472D01*
X108814748Y-127906996D01*
X108799496Y-127910622D01*
X108679046Y-127955777D01*
X108663451Y-127964315D01*
X108561376Y-128040816D01*
X108548815Y-128053377D01*
X108472314Y-128155452D01*
X108463776Y-128171047D01*
X108418622Y-128291495D01*
X108414995Y-128306750D01*
X108409469Y-128357615D01*
X108409100Y-128364429D01*
X108409100Y-128390986D01*
X108413575Y-128406225D01*
X108414965Y-128407430D01*
X108422648Y-128409101D01*
X108558213Y-128409101D01*
X108626334Y-128429103D01*
X108672827Y-128482759D01*
X108682931Y-128553033D01*
X108653437Y-128617613D01*
X108633778Y-128635927D01*
X108553839Y-128695838D01*
X108487293Y-128784631D01*
X108475299Y-128800634D01*
X108418440Y-128843149D01*
X108412071Y-128845267D01*
X108410772Y-128846766D01*
X108409101Y-128854449D01*
X108409101Y-128885569D01*
X108409471Y-128892393D01*
X108413997Y-128934071D01*
X108413997Y-128961282D01*
X108410059Y-128997539D01*
X108408600Y-129010965D01*
X108408600Y-129162109D01*
X108388598Y-129230230D01*
X108334942Y-129276723D01*
X108282600Y-129288109D01*
X108184500Y-129288109D01*
X108116379Y-129268107D01*
X108069886Y-129214451D01*
X108058500Y-129162109D01*
X108058500Y-129051866D01*
X108051745Y-128989684D01*
X108048971Y-128982284D01*
X108047966Y-128978058D01*
X108047966Y-128919761D01*
X108052105Y-128902354D01*
X108057631Y-128851486D01*
X108058000Y-128844672D01*
X108058000Y-128572115D01*
X108053525Y-128556876D01*
X108052135Y-128555671D01*
X108044452Y-128554000D01*
X105560116Y-128554000D01*
X105544877Y-128558475D01*
X105543672Y-128559865D01*
X105542001Y-128567548D01*
X105542001Y-128844669D01*
X105542371Y-128851490D01*
X105547895Y-128902349D01*
X105552035Y-128919764D01*
X105552034Y-128978058D01*
X105551029Y-128982284D01*
X105548255Y-128989684D01*
X105541500Y-129051866D01*
X105541500Y-129852591D01*
X105521498Y-129920712D01*
X105467842Y-129967205D01*
X105397568Y-129977309D01*
X105364252Y-129967698D01*
X105288323Y-129933892D01*
X105288315Y-129933889D01*
X105282288Y-129931206D01*
X105188887Y-129911353D01*
X105101944Y-129892872D01*
X105101939Y-129892872D01*
X105095487Y-129891500D01*
X104904513Y-129891500D01*
X104898061Y-129892872D01*
X104898056Y-129892872D01*
X104811113Y-129911353D01*
X104717712Y-129931206D01*
X104711682Y-129933891D01*
X104711681Y-129933891D01*
X104549278Y-130006197D01*
X104549276Y-130006198D01*
X104543248Y-130008882D01*
X104388747Y-130121134D01*
X104384326Y-130126044D01*
X104384325Y-130126045D01*
X104268666Y-130254498D01*
X104260960Y-130263056D01*
X104257659Y-130268774D01*
X104179256Y-130404572D01*
X104165473Y-130428444D01*
X104106458Y-130610072D01*
X104105768Y-130616633D01*
X104105768Y-130616635D01*
X104087186Y-130793435D01*
X104086496Y-130800000D01*
X104087186Y-130806565D01*
X104105398Y-130979838D01*
X104106458Y-130989928D01*
X104165473Y-131171556D01*
X104168776Y-131177278D01*
X104168777Y-131177279D01*
X104201337Y-131233674D01*
X104260960Y-131336944D01*
X104265378Y-131341851D01*
X104265379Y-131341852D01*
X104337478Y-131421926D01*
X104388747Y-131478866D01*
X104543248Y-131591118D01*
X104549276Y-131593802D01*
X104549278Y-131593803D01*
X104704824Y-131663056D01*
X104717712Y-131668794D01*
X104788714Y-131683886D01*
X104898056Y-131707128D01*
X104898061Y-131707128D01*
X104904513Y-131708500D01*
X105095487Y-131708500D01*
X105101939Y-131707128D01*
X105101944Y-131707128D01*
X105211286Y-131683886D01*
X105282288Y-131668794D01*
X105288315Y-131666111D01*
X105288323Y-131666108D01*
X105442099Y-131597643D01*
X105512466Y-131588209D01*
X105576763Y-131618316D01*
X105599333Y-131646565D01*
X105599385Y-131646705D01*
X105604770Y-131653890D01*
X105604771Y-131653892D01*
X105645698Y-131708500D01*
X105686739Y-131763261D01*
X105803295Y-131850615D01*
X105939684Y-131901745D01*
X106001866Y-131908500D01*
X107598134Y-131908500D01*
X107660316Y-131901745D01*
X107796705Y-131850615D01*
X107913261Y-131763261D01*
X108000615Y-131646705D01*
X108051745Y-131510316D01*
X108058500Y-131448134D01*
X108058500Y-130681109D01*
X108078502Y-130612988D01*
X108132158Y-130566495D01*
X108184500Y-130555109D01*
X108282600Y-130555109D01*
X108350721Y-130575111D01*
X108397214Y-130628767D01*
X108408600Y-130681109D01*
X108408600Y-130839033D01*
X108415355Y-130901215D01*
X108466485Y-131037604D01*
X108553839Y-131154160D01*
X108653032Y-131228501D01*
X108670395Y-131241514D01*
X108668277Y-131244340D01*
X108706467Y-131282622D01*
X108721475Y-131352014D01*
X108715640Y-131381810D01*
X108708501Y-131403782D01*
X108708500Y-131403789D01*
X108706458Y-131410072D01*
X108705768Y-131416635D01*
X108705767Y-131416642D01*
X108698819Y-131482749D01*
X108686496Y-131600000D01*
X108687186Y-131606565D01*
X108702901Y-131756081D01*
X108706458Y-131789928D01*
X108765473Y-131971556D01*
X108860960Y-132136944D01*
X108988747Y-132278866D01*
X109143248Y-132391118D01*
X109149276Y-132393802D01*
X109149278Y-132393803D01*
X109278938Y-132451531D01*
X109317712Y-132468794D01*
X109411112Y-132488647D01*
X109498056Y-132507128D01*
X109498061Y-132507128D01*
X109504513Y-132508500D01*
X109695487Y-132508500D01*
X109701939Y-132507128D01*
X109701944Y-132507128D01*
X109788888Y-132488647D01*
X109882288Y-132468794D01*
X109921062Y-132451531D01*
X110050722Y-132393803D01*
X110050724Y-132393802D01*
X110056752Y-132391118D01*
X110211253Y-132278866D01*
X110339040Y-132136944D01*
X110434527Y-131971556D01*
X110493542Y-131789928D01*
X110497100Y-131756081D01*
X110512814Y-131606565D01*
X110513504Y-131600000D01*
X110501181Y-131482749D01*
X110494232Y-131416635D01*
X110494232Y-131416633D01*
X110493542Y-131410072D01*
X110491503Y-131403795D01*
X110490129Y-131397334D01*
X110491783Y-131396983D01*
X110489995Y-131334429D01*
X110526658Y-131273632D01*
X110567624Y-131248480D01*
X110577801Y-131244665D01*
X110577804Y-131244663D01*
X110586205Y-131241514D01*
X110593384Y-131236134D01*
X110593387Y-131236132D01*
X110695581Y-131159541D01*
X110702761Y-131154160D01*
X110708144Y-131146978D01*
X110711726Y-131142199D01*
X110768587Y-131099686D01*
X110838746Y-131094521D01*
X110898056Y-131107128D01*
X110898061Y-131107128D01*
X110904513Y-131108500D01*
X111095487Y-131108500D01*
X111101939Y-131107128D01*
X111101944Y-131107128D01*
X111188888Y-131088647D01*
X111282288Y-131068794D01*
X111325210Y-131049684D01*
X111450722Y-130993803D01*
X111450724Y-130993802D01*
X111456752Y-130991118D01*
X111464671Y-130985365D01*
X111512157Y-130950864D01*
X111611253Y-130878866D01*
X111647119Y-130839033D01*
X111734621Y-130741852D01*
X111734622Y-130741851D01*
X111739040Y-130736944D01*
X111834527Y-130571556D01*
X111893542Y-130389928D01*
X111907393Y-130258148D01*
X111912814Y-130206565D01*
X111913504Y-130200000D01*
X111900159Y-130073030D01*
X111894232Y-130016635D01*
X111894232Y-130016633D01*
X111893542Y-130010072D01*
X111834527Y-129828444D01*
X111739040Y-129663056D01*
X111734101Y-129657570D01*
X111615675Y-129526045D01*
X111615674Y-129526044D01*
X111611253Y-129521134D01*
X111515382Y-129451479D01*
X111472028Y-129395256D01*
X111465953Y-129324520D01*
X111497597Y-129263286D01*
X111503662Y-129256828D01*
X111506413Y-129253990D01*
X111526134Y-129234269D01*
X111528612Y-129231074D01*
X111536318Y-129222052D01*
X111561158Y-129195600D01*
X111566586Y-129189820D01*
X111576346Y-129172067D01*
X111587199Y-129155544D01*
X111594753Y-129145805D01*
X111599613Y-129139540D01*
X111617176Y-129098956D01*
X111622383Y-129088326D01*
X111643695Y-129049559D01*
X111645666Y-129041882D01*
X111645668Y-129041877D01*
X111648732Y-129029941D01*
X111655138Y-129011229D01*
X111655253Y-129010965D01*
X111663181Y-128992644D01*
X111665492Y-128978058D01*
X111670097Y-128948980D01*
X111672504Y-128937359D01*
X111681528Y-128902210D01*
X111681528Y-128902209D01*
X111683500Y-128894529D01*
X111683500Y-128874268D01*
X111685051Y-128854557D01*
X111685538Y-128851486D01*
X111688219Y-128834556D01*
X111684059Y-128790545D01*
X111683500Y-128778688D01*
X111683500Y-127809500D01*
X111703502Y-127741379D01*
X111757158Y-127694886D01*
X111809500Y-127683500D01*
X112317450Y-127683500D01*
X112375158Y-127698264D01*
X112378295Y-127700615D01*
X112514684Y-127751745D01*
X112576866Y-127758500D01*
X112903251Y-127758500D01*
X112971372Y-127778502D01*
X113017865Y-127832158D01*
X113027969Y-127902432D01*
X112998475Y-127967012D01*
X112978816Y-127985326D01*
X112904776Y-128040816D01*
X112892215Y-128053377D01*
X112815714Y-128155452D01*
X112807176Y-128171047D01*
X112762022Y-128291495D01*
X112758395Y-128306750D01*
X112752869Y-128357615D01*
X112752500Y-128364429D01*
X112752500Y-128390986D01*
X112756975Y-128406225D01*
X112758365Y-128407430D01*
X112766048Y-128409101D01*
X112901613Y-128409101D01*
X112969734Y-128429103D01*
X113016227Y-128482759D01*
X113026331Y-128553033D01*
X112996837Y-128617613D01*
X112977178Y-128635927D01*
X112897239Y-128695838D01*
X112830693Y-128784631D01*
X112818699Y-128800634D01*
X112761840Y-128843149D01*
X112755471Y-128845267D01*
X112754172Y-128846766D01*
X112752501Y-128854449D01*
X112752501Y-128885569D01*
X112752871Y-128892393D01*
X112757397Y-128934071D01*
X112757397Y-128961282D01*
X112753459Y-128997539D01*
X112752000Y-129010965D01*
X112752000Y-129539033D01*
X112752369Y-129542430D01*
X112757145Y-129586392D01*
X112757145Y-129613605D01*
X112752000Y-129660967D01*
X112752000Y-130189035D01*
X112753905Y-130206565D01*
X112757145Y-130236391D01*
X112757145Y-130263605D01*
X112752000Y-130310965D01*
X112752000Y-130839033D01*
X112758755Y-130901215D01*
X112809885Y-131037604D01*
X112897239Y-131154160D01*
X113013795Y-131241514D01*
X113150184Y-131292644D01*
X113212366Y-131299399D01*
X114731034Y-131299399D01*
X114793216Y-131292644D01*
X114929605Y-131241514D01*
X114940066Y-131233674D01*
X114943869Y-131232253D01*
X114944660Y-131231820D01*
X114944723Y-131231934D01*
X115006572Y-131208825D01*
X115015632Y-131208499D01*
X115431264Y-131208499D01*
X115499385Y-131228501D01*
X115545878Y-131282157D01*
X115555982Y-131352431D01*
X115526488Y-131417011D01*
X115505326Y-131436434D01*
X115484547Y-131451531D01*
X115403637Y-131510316D01*
X115388747Y-131521134D01*
X115384326Y-131526044D01*
X115384325Y-131526045D01*
X115323316Y-131593803D01*
X115260960Y-131663056D01*
X115165473Y-131828444D01*
X115106458Y-132010072D01*
X115105768Y-132016633D01*
X115105768Y-132016635D01*
X115087186Y-132193435D01*
X115086496Y-132200000D01*
X115106458Y-132389928D01*
X115165473Y-132571556D01*
X115260960Y-132736944D01*
X115388747Y-132878866D01*
X115543248Y-132991118D01*
X115549276Y-132993802D01*
X115549278Y-132993803D01*
X115700343Y-133061061D01*
X115717712Y-133068794D01*
X115811113Y-133088647D01*
X115898056Y-133107128D01*
X115898061Y-133107128D01*
X115904513Y-133108500D01*
X116095487Y-133108500D01*
X116101939Y-133107128D01*
X116101944Y-133107128D01*
X116188887Y-133088647D01*
X116282288Y-133068794D01*
X116299657Y-133061061D01*
X116450722Y-132993803D01*
X116450724Y-132993802D01*
X116456752Y-132991118D01*
X116611253Y-132878866D01*
X116626767Y-132861636D01*
X116687214Y-132824398D01*
X116758197Y-132825752D01*
X116788135Y-132841107D01*
X116788237Y-132840921D01*
X116795113Y-132844686D01*
X116795966Y-132845123D01*
X116796112Y-132845233D01*
X116796119Y-132845237D01*
X116803295Y-132850615D01*
X116939684Y-132901745D01*
X117001866Y-132908500D01*
X118598134Y-132908500D01*
X118660316Y-132901745D01*
X118796705Y-132850615D01*
X118913261Y-132763261D01*
X119000615Y-132646705D01*
X119051745Y-132510316D01*
X119058500Y-132448134D01*
X119058500Y-131351866D01*
X119051745Y-131289684D01*
X119048971Y-131282285D01*
X119048225Y-131279146D01*
X119048225Y-131220854D01*
X119048971Y-131217715D01*
X119051745Y-131210316D01*
X119058500Y-131148134D01*
X119058500Y-130051866D01*
X119051745Y-129989684D01*
X119048971Y-129982284D01*
X119047966Y-129978058D01*
X119047966Y-129919761D01*
X119052105Y-129902354D01*
X119057631Y-129851486D01*
X119058000Y-129844672D01*
X119058000Y-129572115D01*
X119053525Y-129556876D01*
X119052135Y-129555671D01*
X119044452Y-129554000D01*
X117672000Y-129554000D01*
X117603879Y-129533998D01*
X117557386Y-129480342D01*
X117546000Y-129428000D01*
X117546000Y-129027885D01*
X118054000Y-129027885D01*
X118058475Y-129043124D01*
X118059865Y-129044329D01*
X118067548Y-129046000D01*
X119039884Y-129046000D01*
X119055123Y-129041525D01*
X119056328Y-129040135D01*
X119057999Y-129032452D01*
X119057999Y-128755331D01*
X119057629Y-128748510D01*
X119052105Y-128697648D01*
X119048479Y-128682396D01*
X119003324Y-128561946D01*
X118994786Y-128546351D01*
X118918285Y-128444276D01*
X118905724Y-128431715D01*
X118803649Y-128355214D01*
X118788054Y-128346676D01*
X118667606Y-128301522D01*
X118652351Y-128297895D01*
X118601486Y-128292369D01*
X118594672Y-128292000D01*
X118072115Y-128292000D01*
X118056876Y-128296475D01*
X118055671Y-128297865D01*
X118054000Y-128305548D01*
X118054000Y-129027885D01*
X117546000Y-129027885D01*
X117546000Y-128310116D01*
X117541525Y-128294877D01*
X117540135Y-128293672D01*
X117532452Y-128292001D01*
X117005331Y-128292001D01*
X116998510Y-128292371D01*
X116947648Y-128297895D01*
X116932396Y-128301521D01*
X116811946Y-128346676D01*
X116796351Y-128355214D01*
X116694276Y-128431715D01*
X116681714Y-128444277D01*
X116658495Y-128475258D01*
X116601636Y-128517773D01*
X116530817Y-128522799D01*
X116468524Y-128488739D01*
X116437835Y-128438626D01*
X116436568Y-128434727D01*
X116434527Y-128428444D01*
X116339040Y-128263056D01*
X116326923Y-128249598D01*
X116215675Y-128126045D01*
X116215674Y-128126044D01*
X116211253Y-128121134D01*
X116099768Y-128040135D01*
X116062094Y-128012763D01*
X116062093Y-128012762D01*
X116056752Y-128008882D01*
X116050724Y-128006198D01*
X116050722Y-128006197D01*
X115888319Y-127933891D01*
X115888318Y-127933891D01*
X115882288Y-127931206D01*
X115785453Y-127910623D01*
X115701944Y-127892872D01*
X115701939Y-127892872D01*
X115695487Y-127891500D01*
X115504513Y-127891500D01*
X115498061Y-127892872D01*
X115498056Y-127892872D01*
X115414547Y-127910623D01*
X115317712Y-127931206D01*
X115311682Y-127933891D01*
X115311681Y-127933891D01*
X115149279Y-128006197D01*
X115143248Y-128008882D01*
X115137908Y-128012762D01*
X115132705Y-128015766D01*
X115063710Y-128032506D01*
X114994137Y-128007475D01*
X114936549Y-127964315D01*
X114920954Y-127955777D01*
X114800506Y-127910623D01*
X114785251Y-127906996D01*
X114734386Y-127901470D01*
X114727572Y-127901101D01*
X114205715Y-127901101D01*
X114190476Y-127905576D01*
X114189271Y-127906966D01*
X114187600Y-127914649D01*
X114187600Y-128424599D01*
X114167598Y-128492720D01*
X114113942Y-128539213D01*
X114061600Y-128550599D01*
X113878429Y-128550599D01*
X113810308Y-128530597D01*
X113763815Y-128476941D01*
X113753711Y-128406667D01*
X113755308Y-128397819D01*
X113755800Y-128395557D01*
X113755800Y-127919217D01*
X113751325Y-127903978D01*
X113749935Y-127902773D01*
X113742252Y-127901102D01*
X113632414Y-127901102D01*
X113564293Y-127881100D01*
X113517800Y-127827444D01*
X113507696Y-127757170D01*
X113537190Y-127692590D01*
X113556849Y-127674276D01*
X113624949Y-127623238D01*
X113638261Y-127613261D01*
X113664791Y-127577862D01*
X113721650Y-127535347D01*
X113792468Y-127530321D01*
X113831732Y-127546167D01*
X113858741Y-127562815D01*
X113871924Y-127568963D01*
X114026210Y-127620138D01*
X114039586Y-127623005D01*
X114133938Y-127632672D01*
X114140354Y-127633000D01*
X114252885Y-127633000D01*
X114268124Y-127628525D01*
X114269329Y-127627135D01*
X114271000Y-127619452D01*
X114271000Y-126672115D01*
X114266525Y-126656876D01*
X114265135Y-126655671D01*
X114257452Y-126654000D01*
X113826589Y-126654000D01*
X113758468Y-126633998D01*
X113728100Y-126601433D01*
X113725615Y-126603295D01*
X113643642Y-126493919D01*
X113638261Y-126486739D01*
X113521705Y-126399385D01*
X113496623Y-126389982D01*
X113439858Y-126347340D01*
X113415159Y-126280778D01*
X113430367Y-126211429D01*
X113480653Y-126161311D01*
X113540853Y-126146000D01*
X114653000Y-126146000D01*
X114721121Y-126166002D01*
X114767614Y-126219658D01*
X114779000Y-126272000D01*
X114779000Y-127614884D01*
X114783475Y-127630123D01*
X114784865Y-127631328D01*
X114792548Y-127632999D01*
X114909595Y-127632999D01*
X114916114Y-127632662D01*
X115011706Y-127622743D01*
X115025100Y-127619851D01*
X115179284Y-127568412D01*
X115192462Y-127562239D01*
X115330307Y-127476937D01*
X115341708Y-127467901D01*
X115456238Y-127353172D01*
X115463294Y-127344238D01*
X115521212Y-127303177D01*
X115592135Y-127299947D01*
X115653546Y-127335574D01*
X115660346Y-127343407D01*
X115664022Y-127349348D01*
X115789197Y-127474305D01*
X115795427Y-127478145D01*
X115795428Y-127478146D01*
X115932590Y-127562694D01*
X115939762Y-127567115D01*
X116010495Y-127590576D01*
X116101111Y-127620632D01*
X116101113Y-127620632D01*
X116107639Y-127622797D01*
X116114475Y-127623497D01*
X116114478Y-127623498D01*
X116157531Y-127627909D01*
X116212100Y-127633500D01*
X116987900Y-127633500D01*
X116991146Y-127633163D01*
X116991150Y-127633163D01*
X117086808Y-127623238D01*
X117086812Y-127623237D01*
X117093666Y-127622526D01*
X117100202Y-127620345D01*
X117100204Y-127620345D01*
X117232306Y-127576272D01*
X117261446Y-127566550D01*
X117411848Y-127473478D01*
X117447961Y-127437302D01*
X117510243Y-127403223D01*
X117581064Y-127408226D01*
X117588375Y-127411210D01*
X117717712Y-127468794D01*
X117809466Y-127488297D01*
X117898056Y-127507128D01*
X117898061Y-127507128D01*
X117904513Y-127508500D01*
X118095487Y-127508500D01*
X118101939Y-127507128D01*
X118101944Y-127507128D01*
X118190534Y-127488297D01*
X118282288Y-127468794D01*
X118355294Y-127436290D01*
X118450722Y-127393803D01*
X118450724Y-127393802D01*
X118456752Y-127391118D01*
X118611253Y-127278866D01*
X118739040Y-127136944D01*
X118834527Y-126971556D01*
X118893542Y-126789928D01*
X118905925Y-126672115D01*
X118912814Y-126606565D01*
X118913504Y-126600000D01*
X118907212Y-126540135D01*
X118894232Y-126416635D01*
X118894232Y-126416633D01*
X118893542Y-126410072D01*
X118834527Y-126228444D01*
X118829455Y-126219658D01*
X118781699Y-126136944D01*
X118739040Y-126063056D01*
X118678692Y-125996032D01*
X118615675Y-125926045D01*
X118615674Y-125926044D01*
X118611253Y-125921134D01*
X118456752Y-125808882D01*
X118450724Y-125806198D01*
X118450722Y-125806197D01*
X118288319Y-125733891D01*
X118288318Y-125733891D01*
X118282288Y-125731206D01*
X118188887Y-125711353D01*
X118101944Y-125692872D01*
X118101939Y-125692872D01*
X118095487Y-125691500D01*
X117904513Y-125691500D01*
X117898061Y-125692872D01*
X117898056Y-125692872D01*
X117785566Y-125716783D01*
X117714775Y-125711381D01*
X117658143Y-125668564D01*
X117639845Y-125633411D01*
X117631369Y-125608004D01*
X117631368Y-125608002D01*
X117629050Y-125601054D01*
X117539407Y-125456193D01*
X117520569Y-125387741D01*
X117541730Y-125319971D01*
X117596171Y-125274400D01*
X117646568Y-125263890D01*
X119220370Y-125264108D01*
X121783000Y-125264464D01*
X121851116Y-125284476D01*
X121897602Y-125338138D01*
X121908981Y-125390547D01*
X121903794Y-133274083D01*
X121883747Y-133342190D01*
X121830061Y-133388648D01*
X121777794Y-133400000D01*
X105800000Y-133400000D01*
X105800000Y-135274000D01*
X105779998Y-135342121D01*
X105726342Y-135388614D01*
X105674000Y-135400000D01*
X103165482Y-135400000D01*
X103097361Y-135379998D01*
X103050868Y-135326342D01*
X103040764Y-135256068D01*
X103058222Y-135207884D01*
X103137816Y-135078757D01*
X103143963Y-135065576D01*
X103195138Y-134911290D01*
X103198005Y-134897914D01*
X103207672Y-134803562D01*
X103208000Y-134797145D01*
X103208000Y-134672115D01*
X103203525Y-134656876D01*
X103202135Y-134655671D01*
X103194452Y-134654000D01*
X101872000Y-134654000D01*
X101803879Y-134633998D01*
X101757386Y-134580342D01*
X101746000Y-134528000D01*
X101746000Y-134127885D01*
X102254000Y-134127885D01*
X102258475Y-134143124D01*
X102259865Y-134144329D01*
X102267548Y-134146000D01*
X103189884Y-134146000D01*
X103205123Y-134141525D01*
X103206328Y-134140135D01*
X103207999Y-134132452D01*
X103207999Y-134002905D01*
X103207662Y-133996386D01*
X103197743Y-133900794D01*
X103194851Y-133887400D01*
X103143412Y-133733216D01*
X103137239Y-133720038D01*
X103051937Y-133582193D01*
X103042901Y-133570792D01*
X102979912Y-133507912D01*
X102945833Y-133445629D01*
X102950836Y-133374809D01*
X102979757Y-133329721D01*
X103018739Y-133290671D01*
X103027751Y-133279260D01*
X103112816Y-133141257D01*
X103118963Y-133128076D01*
X103170138Y-132973790D01*
X103173005Y-132960414D01*
X103182672Y-132866062D01*
X103183000Y-132859646D01*
X103183000Y-132547115D01*
X103178525Y-132531876D01*
X103177135Y-132530671D01*
X103169452Y-132529000D01*
X102272115Y-132529000D01*
X102256876Y-132533475D01*
X102255671Y-132534865D01*
X102254000Y-132542548D01*
X102254000Y-134127885D01*
X101746000Y-134127885D01*
X101746000Y-132002885D01*
X102254000Y-132002885D01*
X102258475Y-132018124D01*
X102259865Y-132019329D01*
X102267548Y-132021000D01*
X103164884Y-132021000D01*
X103180123Y-132016525D01*
X103181328Y-132015135D01*
X103182999Y-132007452D01*
X103182999Y-131690405D01*
X103182662Y-131683886D01*
X103172743Y-131588294D01*
X103169851Y-131574900D01*
X103118412Y-131420716D01*
X103112239Y-131407538D01*
X103026937Y-131269693D01*
X103017901Y-131258292D01*
X102903171Y-131143761D01*
X102891760Y-131134749D01*
X102753757Y-131049684D01*
X102740576Y-131043537D01*
X102586290Y-130992362D01*
X102572914Y-130989495D01*
X102478562Y-130979828D01*
X102472145Y-130979500D01*
X102272115Y-130979500D01*
X102256876Y-130983975D01*
X102255671Y-130985365D01*
X102254000Y-130993048D01*
X102254000Y-132002885D01*
X101746000Y-132002885D01*
X101746000Y-130997616D01*
X101741525Y-130982377D01*
X101740135Y-130981172D01*
X101732452Y-130979501D01*
X101527905Y-130979501D01*
X101521386Y-130979838D01*
X101425794Y-130989757D01*
X101412400Y-130992649D01*
X101258216Y-131044088D01*
X101245038Y-131050261D01*
X101107193Y-131135563D01*
X101095792Y-131144599D01*
X100981261Y-131259329D01*
X100972249Y-131270740D01*
X100887184Y-131408743D01*
X100881036Y-131421926D01*
X100845593Y-131528783D01*
X100805162Y-131587143D01*
X100739598Y-131614380D01*
X100669716Y-131601846D01*
X100617705Y-131553522D01*
X100600000Y-131489116D01*
X100600000Y-130187644D01*
X100620002Y-130119523D01*
X100673658Y-130073030D01*
X100743932Y-130062926D01*
X100808512Y-130092420D01*
X100845524Y-130147768D01*
X100883450Y-130261446D01*
X100976522Y-130411848D01*
X101101697Y-130536805D01*
X101107927Y-130540645D01*
X101107928Y-130540646D01*
X101245090Y-130625194D01*
X101252262Y-130629615D01*
X101332005Y-130656064D01*
X101413611Y-130683132D01*
X101413613Y-130683132D01*
X101420139Y-130685297D01*
X101426975Y-130685997D01*
X101426978Y-130685998D01*
X101470031Y-130690409D01*
X101524600Y-130696000D01*
X102475400Y-130696000D01*
X102478646Y-130695663D01*
X102478650Y-130695663D01*
X102574308Y-130685738D01*
X102574312Y-130685737D01*
X102581166Y-130685026D01*
X102587702Y-130682845D01*
X102587704Y-130682845D01*
X102719806Y-130638772D01*
X102748946Y-130629050D01*
X102899348Y-130535978D01*
X103024305Y-130410803D01*
X103083740Y-130314382D01*
X103113275Y-130266468D01*
X103113276Y-130266466D01*
X103117115Y-130260238D01*
X103143564Y-130180495D01*
X103170632Y-130098889D01*
X103170632Y-130098887D01*
X103172797Y-130092361D01*
X103175042Y-130070455D01*
X103180556Y-130016635D01*
X103183500Y-129987900D01*
X103183500Y-128812100D01*
X103183163Y-128808850D01*
X103173238Y-128713192D01*
X103173237Y-128713188D01*
X103172526Y-128706334D01*
X103162718Y-128676934D01*
X103118868Y-128545502D01*
X103116550Y-128538554D01*
X103023478Y-128388152D01*
X102929413Y-128294251D01*
X102895334Y-128231969D01*
X102895217Y-128190104D01*
X102893542Y-128189928D01*
X102912814Y-128006565D01*
X102913504Y-128000000D01*
X102898064Y-127853099D01*
X102910836Y-127783261D01*
X102927797Y-127759780D01*
X102927097Y-127759227D01*
X102931632Y-127753485D01*
X102936805Y-127748303D01*
X102939602Y-127743765D01*
X102996853Y-127703176D01*
X103067776Y-127699946D01*
X103129187Y-127735572D01*
X103136562Y-127744068D01*
X103144598Y-127754207D01*
X103259329Y-127868739D01*
X103270740Y-127877751D01*
X103408743Y-127962816D01*
X103421924Y-127968963D01*
X103576210Y-128020138D01*
X103589586Y-128023005D01*
X103683938Y-128032672D01*
X103690354Y-128033000D01*
X103802885Y-128033000D01*
X103818124Y-128028525D01*
X103819329Y-128027135D01*
X103821000Y-128019452D01*
X103821000Y-128014884D01*
X104329000Y-128014884D01*
X104333475Y-128030123D01*
X104334865Y-128031328D01*
X104342548Y-128032999D01*
X104459595Y-128032999D01*
X104466114Y-128032662D01*
X104512151Y-128027885D01*
X105542000Y-128027885D01*
X105546475Y-128043124D01*
X105547865Y-128044329D01*
X105555548Y-128046000D01*
X106527885Y-128046000D01*
X106543124Y-128041525D01*
X106544329Y-128040135D01*
X106546000Y-128032452D01*
X106546000Y-128027885D01*
X107054000Y-128027885D01*
X107058475Y-128043124D01*
X107059865Y-128044329D01*
X107067548Y-128046000D01*
X108039884Y-128046000D01*
X108055123Y-128041525D01*
X108056328Y-128040135D01*
X108057999Y-128032452D01*
X108057999Y-127755331D01*
X108057629Y-127748510D01*
X108052105Y-127697648D01*
X108048479Y-127682396D01*
X108003324Y-127561946D01*
X107994786Y-127546351D01*
X107918285Y-127444276D01*
X107905724Y-127431715D01*
X107803649Y-127355214D01*
X107788054Y-127346676D01*
X107667606Y-127301522D01*
X107652351Y-127297895D01*
X107601486Y-127292369D01*
X107594672Y-127292000D01*
X107072115Y-127292000D01*
X107056876Y-127296475D01*
X107055671Y-127297865D01*
X107054000Y-127305548D01*
X107054000Y-128027885D01*
X106546000Y-128027885D01*
X106546000Y-127310116D01*
X106541525Y-127294877D01*
X106540135Y-127293672D01*
X106532452Y-127292001D01*
X106005331Y-127292001D01*
X105998510Y-127292371D01*
X105947648Y-127297895D01*
X105932396Y-127301521D01*
X105811946Y-127346676D01*
X105796351Y-127355214D01*
X105694276Y-127431715D01*
X105681715Y-127444276D01*
X105605214Y-127546351D01*
X105596676Y-127561946D01*
X105551522Y-127682394D01*
X105547895Y-127697649D01*
X105542369Y-127748514D01*
X105542000Y-127755328D01*
X105542000Y-128027885D01*
X104512151Y-128027885D01*
X104561706Y-128022743D01*
X104575100Y-128019851D01*
X104729284Y-127968412D01*
X104742462Y-127962239D01*
X104880307Y-127876937D01*
X104891708Y-127867901D01*
X105006239Y-127753171D01*
X105015251Y-127741760D01*
X105100316Y-127603757D01*
X105106463Y-127590576D01*
X105157638Y-127436290D01*
X105160505Y-127422914D01*
X105170172Y-127328562D01*
X105170500Y-127322146D01*
X105170500Y-127072115D01*
X105166025Y-127056876D01*
X105164635Y-127055671D01*
X105156952Y-127054000D01*
X104347115Y-127054000D01*
X104331876Y-127058475D01*
X104330671Y-127059865D01*
X104329000Y-127067548D01*
X104329000Y-128014884D01*
X103821000Y-128014884D01*
X103821000Y-126527885D01*
X104329000Y-126527885D01*
X104333475Y-126543124D01*
X104334865Y-126544329D01*
X104342548Y-126546000D01*
X105152384Y-126546000D01*
X105167623Y-126541525D01*
X105168828Y-126540135D01*
X105170499Y-126532452D01*
X105170499Y-126277905D01*
X105170162Y-126271386D01*
X105160243Y-126175794D01*
X105157351Y-126162400D01*
X105105912Y-126008216D01*
X105099739Y-125995038D01*
X105014437Y-125857193D01*
X105005401Y-125845792D01*
X104890671Y-125731261D01*
X104879260Y-125722249D01*
X104741257Y-125637184D01*
X104728076Y-125631037D01*
X104573790Y-125579862D01*
X104560414Y-125576995D01*
X104466062Y-125567328D01*
X104459645Y-125567000D01*
X104347115Y-125567000D01*
X104331876Y-125571475D01*
X104330671Y-125572865D01*
X104329000Y-125580548D01*
X104329000Y-126527885D01*
X103821000Y-126527885D01*
X103821000Y-125585116D01*
X103816525Y-125569877D01*
X103815135Y-125568672D01*
X103807452Y-125567001D01*
X103690405Y-125567001D01*
X103683886Y-125567338D01*
X103588294Y-125577257D01*
X103574900Y-125580149D01*
X103420716Y-125631588D01*
X103407538Y-125637761D01*
X103269693Y-125723063D01*
X103258292Y-125732099D01*
X103143762Y-125846828D01*
X103136706Y-125855762D01*
X103078788Y-125896823D01*
X103007865Y-125900053D01*
X102946454Y-125864426D01*
X102939654Y-125856593D01*
X102935978Y-125850652D01*
X102810803Y-125725695D01*
X102787582Y-125711381D01*
X102666468Y-125636725D01*
X102666466Y-125636724D01*
X102660238Y-125632885D01*
X102545487Y-125594824D01*
X102498889Y-125579368D01*
X102498887Y-125579368D01*
X102492361Y-125577203D01*
X102485525Y-125576503D01*
X102485522Y-125576502D01*
X102442469Y-125572091D01*
X102387900Y-125566500D01*
X101612100Y-125566500D01*
X101608854Y-125566837D01*
X101608850Y-125566837D01*
X101513192Y-125576762D01*
X101513188Y-125576763D01*
X101506334Y-125577474D01*
X101499798Y-125579655D01*
X101499796Y-125579655D01*
X101367904Y-125623658D01*
X101338554Y-125633450D01*
X101188152Y-125726522D01*
X101063195Y-125851697D01*
X101059355Y-125857927D01*
X101059354Y-125857928D01*
X100989313Y-125971556D01*
X100970385Y-126002262D01*
X100968081Y-126009209D01*
X100922710Y-126146000D01*
X100914703Y-126170139D01*
X100904000Y-126274600D01*
X100904000Y-127325400D01*
X100904337Y-127328646D01*
X100904337Y-127328650D01*
X100914118Y-127422914D01*
X100914974Y-127431166D01*
X100917155Y-127437702D01*
X100917155Y-127437704D01*
X100939237Y-127503891D01*
X100970950Y-127598946D01*
X101064022Y-127749348D01*
X101069204Y-127754521D01*
X101073751Y-127760258D01*
X101071635Y-127761935D01*
X101099701Y-127813221D01*
X101101916Y-127853288D01*
X101086496Y-128000000D01*
X101087186Y-128006565D01*
X101106458Y-128189928D01*
X101103929Y-128190194D01*
X101099387Y-128249598D01*
X101070722Y-128294004D01*
X101066868Y-128297865D01*
X100975695Y-128389197D01*
X100971855Y-128395427D01*
X100971854Y-128395428D01*
X100921609Y-128476941D01*
X100882885Y-128539762D01*
X100858750Y-128612528D01*
X100845593Y-128652195D01*
X100805163Y-128710555D01*
X100739599Y-128737792D01*
X100669717Y-128725259D01*
X100617705Y-128676934D01*
X100600000Y-128612528D01*
X100600000Y-125387540D01*
X100620002Y-125319419D01*
X100673658Y-125272926D01*
X100726017Y-125261540D01*
X107221757Y-125262442D01*
G37*
%TD.AperFunction*%
%TA.AperFunction,Conductor*%
G36*
X113092121Y-125570002D02*
G01*
X113138614Y-125623658D01*
X113150000Y-125676000D01*
X113150000Y-126200000D01*
X113149448Y-126200000D01*
X113149447Y-126251000D01*
X113111062Y-126310725D01*
X113046481Y-126340218D01*
X113028551Y-126341500D01*
X112876000Y-126341500D01*
X112807879Y-126321498D01*
X112761386Y-126267842D01*
X112750000Y-126215500D01*
X112750000Y-125676000D01*
X112770002Y-125607879D01*
X112823658Y-125561386D01*
X112876000Y-125550000D01*
X113024000Y-125550000D01*
X113092121Y-125570002D01*
G37*
%TD.AperFunction*%
%TD*%
M02*
