%TF.GenerationSoftware,KiCad,Pcbnew,6.0.2+dfsg-1*%
%TF.CreationDate,2023-01-20T14:21:38-05:00*%
%TF.ProjectId,sensor-board,73656e73-6f72-42d6-926f-6172642e6b69,rev?*%
%TF.SameCoordinates,Original*%
%TF.FileFunction,Legend,Bot*%
%TF.FilePolarity,Positive*%
%FSLAX46Y46*%
G04 Gerber Fmt 4.6, Leading zero omitted, Abs format (unit mm)*
G04 Created by KiCad (PCBNEW 6.0.2+dfsg-1) date 2023-01-20 14:21:38*
%MOMM*%
%LPD*%
G01*
G04 APERTURE LIST*
%ADD10C,0.150000*%
%ADD11C,0.010000*%
%ADD12C,0.120000*%
G04 APERTURE END LIST*
D10*
X93800000Y-137400000D02*
X93800000Y-140100000D01*
X91836197Y-136500000D02*
X93800000Y-137400000D01*
X91836197Y-136500000D02*
X91836197Y-132257619D01*
X122200000Y-125000000D02*
X122200000Y-133000000D01*
X98600000Y-125000000D02*
X122200000Y-125000000D01*
X122200000Y-133000000D02*
X106200000Y-133000000D01*
X106200000Y-133000000D02*
X103200000Y-137200000D01*
X116750000Y-143250000D02*
X116750000Y-133500000D01*
X75500000Y-132250000D02*
X75500000Y-144500000D01*
X103200000Y-137200000D02*
X98400000Y-137200000D01*
X106250000Y-133500000D02*
X106250000Y-143250000D01*
X106250000Y-143250000D02*
X116750000Y-143250000D01*
X98400000Y-137200000D02*
X98600000Y-125000000D01*
X75500000Y-144500000D02*
X88250000Y-144500000D01*
X88250000Y-144500000D02*
X93800000Y-140100000D01*
X91836197Y-132257619D02*
X75500000Y-132250000D01*
X116750000Y-133500000D02*
X106250000Y-133500000D01*
X120833333Y-132166666D02*
X120833333Y-131690476D01*
X120547619Y-132261904D02*
X121547619Y-131928571D01*
X120547619Y-131595238D01*
X120547619Y-131261904D02*
X121547619Y-131261904D01*
X121547619Y-131023809D01*
X121500000Y-130880952D01*
X121404761Y-130785714D01*
X121309523Y-130738095D01*
X121119047Y-130690476D01*
X120976190Y-130690476D01*
X120785714Y-130738095D01*
X120690476Y-130785714D01*
X120595238Y-130880952D01*
X120547619Y-131023809D01*
X120547619Y-131261904D01*
X120642857Y-129690476D02*
X120595238Y-129738095D01*
X120547619Y-129880952D01*
X120547619Y-129976190D01*
X120595238Y-130119047D01*
X120690476Y-130214285D01*
X120785714Y-130261904D01*
X120976190Y-130309523D01*
X121119047Y-130309523D01*
X121309523Y-130261904D01*
X121404761Y-130214285D01*
X121500000Y-130119047D01*
X121547619Y-129976190D01*
X121547619Y-129880952D01*
X121500000Y-129738095D01*
X121452380Y-129690476D01*
X120547619Y-128357142D02*
X120595238Y-128452380D01*
X120642857Y-128500000D01*
X120738095Y-128547619D01*
X121023809Y-128547619D01*
X121119047Y-128500000D01*
X121166666Y-128452380D01*
X121214285Y-128357142D01*
X121214285Y-128214285D01*
X121166666Y-128119047D01*
X121119047Y-128071428D01*
X121023809Y-128023809D01*
X120738095Y-128023809D01*
X120642857Y-128071428D01*
X120595238Y-128119047D01*
X120547619Y-128214285D01*
X120547619Y-128357142D01*
X121214285Y-127595238D02*
X120547619Y-127595238D01*
X121119047Y-127595238D02*
X121166666Y-127547619D01*
X121214285Y-127452380D01*
X121214285Y-127309523D01*
X121166666Y-127214285D01*
X121071428Y-127166666D01*
X120547619Y-127166666D01*
X120547619Y-126547619D02*
X120595238Y-126642857D01*
X120690476Y-126690476D01*
X121547619Y-126690476D01*
X121214285Y-126261904D02*
X120547619Y-126023809D01*
X121214285Y-125785714D02*
X120547619Y-126023809D01*
X120309523Y-126119047D01*
X120261904Y-126166666D01*
X120214285Y-126261904D01*
X85047380Y-132547619D02*
X85047380Y-133119047D01*
X86047380Y-132833333D02*
X85047380Y-132833333D01*
X86047380Y-133452380D02*
X85047380Y-133452380D01*
X86047380Y-133880952D02*
X85523571Y-133880952D01*
X85428333Y-133833333D01*
X85380714Y-133738095D01*
X85380714Y-133595238D01*
X85428333Y-133500000D01*
X85475952Y-133452380D01*
X85999761Y-134738095D02*
X86047380Y-134642857D01*
X86047380Y-134452380D01*
X85999761Y-134357142D01*
X85904523Y-134309523D01*
X85523571Y-134309523D01*
X85428333Y-134357142D01*
X85380714Y-134452380D01*
X85380714Y-134642857D01*
X85428333Y-134738095D01*
X85523571Y-134785714D01*
X85618809Y-134785714D01*
X85714047Y-134309523D01*
X86047380Y-135214285D02*
X85380714Y-135214285D01*
X85571190Y-135214285D02*
X85475952Y-135261904D01*
X85428333Y-135309523D01*
X85380714Y-135404761D01*
X85380714Y-135500000D01*
X86047380Y-135833333D02*
X85380714Y-135833333D01*
X85475952Y-135833333D02*
X85428333Y-135880952D01*
X85380714Y-135976190D01*
X85380714Y-136119047D01*
X85428333Y-136214285D01*
X85523571Y-136261904D01*
X86047380Y-136261904D01*
X85523571Y-136261904D02*
X85428333Y-136309523D01*
X85380714Y-136404761D01*
X85380714Y-136547619D01*
X85428333Y-136642857D01*
X85523571Y-136690476D01*
X86047380Y-136690476D01*
X86047380Y-137309523D02*
X85999761Y-137214285D01*
X85952142Y-137166666D01*
X85856904Y-137119047D01*
X85571190Y-137119047D01*
X85475952Y-137166666D01*
X85428333Y-137214285D01*
X85380714Y-137309523D01*
X85380714Y-137452380D01*
X85428333Y-137547619D01*
X85475952Y-137595238D01*
X85571190Y-137642857D01*
X85856904Y-137642857D01*
X85952142Y-137595238D01*
X85999761Y-137547619D01*
X86047380Y-137452380D01*
X86047380Y-137309523D01*
X85999761Y-138500000D02*
X86047380Y-138404761D01*
X86047380Y-138214285D01*
X85999761Y-138119047D01*
X85952142Y-138071428D01*
X85856904Y-138023809D01*
X85571190Y-138023809D01*
X85475952Y-138071428D01*
X85428333Y-138119047D01*
X85380714Y-138214285D01*
X85380714Y-138404761D01*
X85428333Y-138500000D01*
X86047380Y-139071428D02*
X85999761Y-138976190D01*
X85952142Y-138928571D01*
X85856904Y-138880952D01*
X85571190Y-138880952D01*
X85475952Y-138928571D01*
X85428333Y-138976190D01*
X85380714Y-139071428D01*
X85380714Y-139214285D01*
X85428333Y-139309523D01*
X85475952Y-139357142D01*
X85571190Y-139404761D01*
X85856904Y-139404761D01*
X85952142Y-139357142D01*
X85999761Y-139309523D01*
X86047380Y-139214285D01*
X86047380Y-139071428D01*
X85380714Y-140261904D02*
X86047380Y-140261904D01*
X85380714Y-139833333D02*
X85904523Y-139833333D01*
X85999761Y-139880952D01*
X86047380Y-139976190D01*
X86047380Y-140119047D01*
X85999761Y-140214285D01*
X85952142Y-140261904D01*
X85380714Y-140738095D02*
X86380714Y-140738095D01*
X85428333Y-140738095D02*
X85380714Y-140833333D01*
X85380714Y-141023809D01*
X85428333Y-141119047D01*
X85475952Y-141166666D01*
X85571190Y-141214285D01*
X85856904Y-141214285D01*
X85952142Y-141166666D01*
X85999761Y-141119047D01*
X86047380Y-141023809D01*
X86047380Y-140833333D01*
X85999761Y-140738095D01*
X86047380Y-141785714D02*
X85999761Y-141690476D01*
X85904523Y-141642857D01*
X85047380Y-141642857D01*
X85999761Y-142547619D02*
X86047380Y-142452380D01*
X86047380Y-142261904D01*
X85999761Y-142166666D01*
X85904523Y-142119047D01*
X85523571Y-142119047D01*
X85428333Y-142166666D01*
X85380714Y-142261904D01*
X85380714Y-142452380D01*
X85428333Y-142547619D01*
X85523571Y-142595238D01*
X85618809Y-142595238D01*
X85714047Y-142119047D01*
X87657380Y-136833333D02*
X87609761Y-136738095D01*
X87562142Y-136690476D01*
X87466904Y-136642857D01*
X87181190Y-136642857D01*
X87085952Y-136690476D01*
X87038333Y-136738095D01*
X86990714Y-136833333D01*
X86990714Y-136976190D01*
X87038333Y-137071428D01*
X87085952Y-137119047D01*
X87181190Y-137166666D01*
X87466904Y-137166666D01*
X87562142Y-137119047D01*
X87609761Y-137071428D01*
X87657380Y-136976190D01*
X87657380Y-136833333D01*
X86990714Y-137595238D02*
X87657380Y-137595238D01*
X87085952Y-137595238D02*
X87038333Y-137642857D01*
X86990714Y-137738095D01*
X86990714Y-137880952D01*
X87038333Y-137976190D01*
X87133571Y-138023809D01*
X87657380Y-138023809D01*
X87657380Y-138642857D02*
X87609761Y-138547619D01*
X87514523Y-138500000D01*
X86657380Y-138500000D01*
X86990714Y-138928571D02*
X87657380Y-139166666D01*
X86990714Y-139404761D02*
X87657380Y-139166666D01*
X87895476Y-139071428D01*
X87943095Y-139023809D01*
X87990714Y-138928571D01*
X116409523Y-133747380D02*
X116219047Y-133747380D01*
X116123809Y-133795000D01*
X116028571Y-133890238D01*
X115980952Y-134080714D01*
X115980952Y-134414047D01*
X116028571Y-134604523D01*
X116123809Y-134699761D01*
X116219047Y-134747380D01*
X116409523Y-134747380D01*
X116504761Y-134699761D01*
X116600000Y-134604523D01*
X116647619Y-134414047D01*
X116647619Y-134080714D01*
X116600000Y-133890238D01*
X116504761Y-133795000D01*
X116409523Y-133747380D01*
X115123809Y-134080714D02*
X115123809Y-134747380D01*
X115552380Y-134080714D02*
X115552380Y-134604523D01*
X115504761Y-134699761D01*
X115409523Y-134747380D01*
X115266666Y-134747380D01*
X115171428Y-134699761D01*
X115123809Y-134652142D01*
X114790476Y-134080714D02*
X114409523Y-134080714D01*
X114647619Y-133747380D02*
X114647619Y-134604523D01*
X114600000Y-134699761D01*
X114504761Y-134747380D01*
X114409523Y-134747380D01*
X113647619Y-134747380D02*
X113647619Y-133747380D01*
X113647619Y-134699761D02*
X113742857Y-134747380D01*
X113933333Y-134747380D01*
X114028571Y-134699761D01*
X114076190Y-134652142D01*
X114123809Y-134556904D01*
X114123809Y-134271190D01*
X114076190Y-134175952D01*
X114028571Y-134128333D01*
X113933333Y-134080714D01*
X113742857Y-134080714D01*
X113647619Y-134128333D01*
X113028571Y-134747380D02*
X113123809Y-134699761D01*
X113171428Y-134652142D01*
X113219047Y-134556904D01*
X113219047Y-134271190D01*
X113171428Y-134175952D01*
X113123809Y-134128333D01*
X113028571Y-134080714D01*
X112885714Y-134080714D01*
X112790476Y-134128333D01*
X112742857Y-134175952D01*
X112695238Y-134271190D01*
X112695238Y-134556904D01*
X112742857Y-134652142D01*
X112790476Y-134699761D01*
X112885714Y-134747380D01*
X113028571Y-134747380D01*
X112123809Y-134747380D02*
X112219047Y-134699761D01*
X112266666Y-134652142D01*
X112314285Y-134556904D01*
X112314285Y-134271190D01*
X112266666Y-134175952D01*
X112219047Y-134128333D01*
X112123809Y-134080714D01*
X111980952Y-134080714D01*
X111885714Y-134128333D01*
X111838095Y-134175952D01*
X111790476Y-134271190D01*
X111790476Y-134556904D01*
X111838095Y-134652142D01*
X111885714Y-134699761D01*
X111980952Y-134747380D01*
X112123809Y-134747380D01*
X111361904Y-134747380D02*
X111361904Y-134080714D01*
X111361904Y-134271190D02*
X111314285Y-134175952D01*
X111266666Y-134128333D01*
X111171428Y-134080714D01*
X111076190Y-134080714D01*
X110123809Y-133747380D02*
X109552380Y-133747380D01*
X109838095Y-134747380D02*
X109838095Y-133747380D01*
X108838095Y-134699761D02*
X108933333Y-134747380D01*
X109123809Y-134747380D01*
X109219047Y-134699761D01*
X109266666Y-134604523D01*
X109266666Y-134223571D01*
X109219047Y-134128333D01*
X109123809Y-134080714D01*
X108933333Y-134080714D01*
X108838095Y-134128333D01*
X108790476Y-134223571D01*
X108790476Y-134318809D01*
X109266666Y-134414047D01*
X108361904Y-134747380D02*
X108361904Y-134080714D01*
X108361904Y-134175952D02*
X108314285Y-134128333D01*
X108219047Y-134080714D01*
X108076190Y-134080714D01*
X107980952Y-134128333D01*
X107933333Y-134223571D01*
X107933333Y-134747380D01*
X107933333Y-134223571D02*
X107885714Y-134128333D01*
X107790476Y-134080714D01*
X107647619Y-134080714D01*
X107552380Y-134128333D01*
X107504761Y-134223571D01*
X107504761Y-134747380D01*
X107028571Y-134080714D02*
X107028571Y-135080714D01*
X107028571Y-134128333D02*
X106933333Y-134080714D01*
X106742857Y-134080714D01*
X106647619Y-134128333D01*
X106600000Y-134175952D01*
X106552380Y-134271190D01*
X106552380Y-134556904D01*
X106600000Y-134652142D01*
X106647619Y-134699761D01*
X106742857Y-134747380D01*
X106933333Y-134747380D01*
X107028571Y-134699761D01*
X112790476Y-135357380D02*
X112600000Y-135357380D01*
X112504761Y-135405000D01*
X112409523Y-135500238D01*
X112361904Y-135690714D01*
X112361904Y-136024047D01*
X112409523Y-136214523D01*
X112504761Y-136309761D01*
X112600000Y-136357380D01*
X112790476Y-136357380D01*
X112885714Y-136309761D01*
X112980952Y-136214523D01*
X113028571Y-136024047D01*
X113028571Y-135690714D01*
X112980952Y-135500238D01*
X112885714Y-135405000D01*
X112790476Y-135357380D01*
X111933333Y-135690714D02*
X111933333Y-136357380D01*
X111933333Y-135785952D02*
X111885714Y-135738333D01*
X111790476Y-135690714D01*
X111647619Y-135690714D01*
X111552380Y-135738333D01*
X111504761Y-135833571D01*
X111504761Y-136357380D01*
X110885714Y-136357380D02*
X110980952Y-136309761D01*
X111028571Y-136214523D01*
X111028571Y-135357380D01*
X110600000Y-135690714D02*
X110361904Y-136357380D01*
X110123809Y-135690714D02*
X110361904Y-136357380D01*
X110457142Y-136595476D01*
X110504761Y-136643095D01*
X110600000Y-136690714D01*
%TO.C,R3*%
X130666666Y-143352380D02*
X131000000Y-142876190D01*
X131238095Y-143352380D02*
X131238095Y-142352380D01*
X130857142Y-142352380D01*
X130761904Y-142400000D01*
X130714285Y-142447619D01*
X130666666Y-142542857D01*
X130666666Y-142685714D01*
X130714285Y-142780952D01*
X130761904Y-142828571D01*
X130857142Y-142876190D01*
X131238095Y-142876190D01*
X130333333Y-142352380D02*
X129714285Y-142352380D01*
X130047619Y-142733333D01*
X129904761Y-142733333D01*
X129809523Y-142780952D01*
X129761904Y-142828571D01*
X129714285Y-142923809D01*
X129714285Y-143161904D01*
X129761904Y-143257142D01*
X129809523Y-143304761D01*
X129904761Y-143352380D01*
X130190476Y-143352380D01*
X130285714Y-143304761D01*
X130333333Y-143257142D01*
%TO.C,JP4*%
X90452380Y-133566666D02*
X91166666Y-133566666D01*
X91309523Y-133519047D01*
X91404761Y-133423809D01*
X91452380Y-133280952D01*
X91452380Y-133185714D01*
X91452380Y-134042857D02*
X90452380Y-134042857D01*
X90452380Y-134423809D01*
X90500000Y-134519047D01*
X90547619Y-134566666D01*
X90642857Y-134614285D01*
X90785714Y-134614285D01*
X90880952Y-134566666D01*
X90928571Y-134519047D01*
X90976190Y-134423809D01*
X90976190Y-134042857D01*
X90785714Y-135471428D02*
X91452380Y-135471428D01*
X90404761Y-135233333D02*
X91119047Y-134995238D01*
X91119047Y-135614285D01*
%TO.C,JP3*%
X89733333Y-139852380D02*
X89733333Y-140566666D01*
X89780952Y-140709523D01*
X89876190Y-140804761D01*
X90019047Y-140852380D01*
X90114285Y-140852380D01*
X89257142Y-140852380D02*
X89257142Y-139852380D01*
X88876190Y-139852380D01*
X88780952Y-139900000D01*
X88733333Y-139947619D01*
X88685714Y-140042857D01*
X88685714Y-140185714D01*
X88733333Y-140280952D01*
X88780952Y-140328571D01*
X88876190Y-140376190D01*
X89257142Y-140376190D01*
X88352380Y-139852380D02*
X87733333Y-139852380D01*
X88066666Y-140233333D01*
X87923809Y-140233333D01*
X87828571Y-140280952D01*
X87780952Y-140328571D01*
X87733333Y-140423809D01*
X87733333Y-140661904D01*
X87780952Y-140757142D01*
X87828571Y-140804761D01*
X87923809Y-140852380D01*
X88209523Y-140852380D01*
X88304761Y-140804761D01*
X88352380Y-140757142D01*
%TO.C,R4*%
X112052380Y-131433333D02*
X111576190Y-131100000D01*
X112052380Y-130861904D02*
X111052380Y-130861904D01*
X111052380Y-131242857D01*
X111100000Y-131338095D01*
X111147619Y-131385714D01*
X111242857Y-131433333D01*
X111385714Y-131433333D01*
X111480952Y-131385714D01*
X111528571Y-131338095D01*
X111576190Y-131242857D01*
X111576190Y-130861904D01*
X111385714Y-132290476D02*
X112052380Y-132290476D01*
X111004761Y-132052380D02*
X111719047Y-131814285D01*
X111719047Y-132433333D01*
%TO.C,C4*%
X80537142Y-137833333D02*
X80584761Y-137785714D01*
X80632380Y-137642857D01*
X80632380Y-137547619D01*
X80584761Y-137404761D01*
X80489523Y-137309523D01*
X80394285Y-137261904D01*
X80203809Y-137214285D01*
X80060952Y-137214285D01*
X79870476Y-137261904D01*
X79775238Y-137309523D01*
X79680000Y-137404761D01*
X79632380Y-137547619D01*
X79632380Y-137642857D01*
X79680000Y-137785714D01*
X79727619Y-137833333D01*
X79965714Y-138690476D02*
X80632380Y-138690476D01*
X79584761Y-138452380D02*
X80299047Y-138214285D01*
X80299047Y-138833333D01*
%TO.C,R10*%
X77892857Y-143202380D02*
X78226190Y-142726190D01*
X78464285Y-143202380D02*
X78464285Y-142202380D01*
X78083333Y-142202380D01*
X77988095Y-142250000D01*
X77940476Y-142297619D01*
X77892857Y-142392857D01*
X77892857Y-142535714D01*
X77940476Y-142630952D01*
X77988095Y-142678571D01*
X78083333Y-142726190D01*
X78464285Y-142726190D01*
X76940476Y-143202380D02*
X77511904Y-143202380D01*
X77226190Y-143202380D02*
X77226190Y-142202380D01*
X77321428Y-142345238D01*
X77416666Y-142440476D01*
X77511904Y-142488095D01*
X76321428Y-142202380D02*
X76226190Y-142202380D01*
X76130952Y-142250000D01*
X76083333Y-142297619D01*
X76035714Y-142392857D01*
X75988095Y-142583333D01*
X75988095Y-142821428D01*
X76035714Y-143011904D01*
X76083333Y-143107142D01*
X76130952Y-143154761D01*
X76226190Y-143202380D01*
X76321428Y-143202380D01*
X76416666Y-143154761D01*
X76464285Y-143107142D01*
X76511904Y-143011904D01*
X76559523Y-142821428D01*
X76559523Y-142583333D01*
X76511904Y-142392857D01*
X76464285Y-142297619D01*
X76416666Y-142250000D01*
X76321428Y-142202380D01*
%TO.C,D3*%
X114252380Y-131061904D02*
X113252380Y-131061904D01*
X113252380Y-131300000D01*
X113300000Y-131442857D01*
X113395238Y-131538095D01*
X113490476Y-131585714D01*
X113680952Y-131633333D01*
X113823809Y-131633333D01*
X114014285Y-131585714D01*
X114109523Y-131538095D01*
X114204761Y-131442857D01*
X114252380Y-131300000D01*
X114252380Y-131061904D01*
X113252380Y-131966666D02*
X113252380Y-132585714D01*
X113633333Y-132252380D01*
X113633333Y-132395238D01*
X113680952Y-132490476D01*
X113728571Y-132538095D01*
X113823809Y-132585714D01*
X114061904Y-132585714D01*
X114157142Y-132538095D01*
X114204761Y-132490476D01*
X114252380Y-132395238D01*
X114252380Y-132109523D01*
X114204761Y-132014285D01*
X114157142Y-131966666D01*
%TO.C,R11*%
X81642857Y-135202380D02*
X81976190Y-134726190D01*
X82214285Y-135202380D02*
X82214285Y-134202380D01*
X81833333Y-134202380D01*
X81738095Y-134250000D01*
X81690476Y-134297619D01*
X81642857Y-134392857D01*
X81642857Y-134535714D01*
X81690476Y-134630952D01*
X81738095Y-134678571D01*
X81833333Y-134726190D01*
X82214285Y-134726190D01*
X80690476Y-135202380D02*
X81261904Y-135202380D01*
X80976190Y-135202380D02*
X80976190Y-134202380D01*
X81071428Y-134345238D01*
X81166666Y-134440476D01*
X81261904Y-134488095D01*
X79738095Y-135202380D02*
X80309523Y-135202380D01*
X80023809Y-135202380D02*
X80023809Y-134202380D01*
X80119047Y-134345238D01*
X80214285Y-134440476D01*
X80309523Y-134488095D01*
%TO.C,R9*%
X84066666Y-145552380D02*
X84400000Y-145076190D01*
X84638095Y-145552380D02*
X84638095Y-144552380D01*
X84257142Y-144552380D01*
X84161904Y-144600000D01*
X84114285Y-144647619D01*
X84066666Y-144742857D01*
X84066666Y-144885714D01*
X84114285Y-144980952D01*
X84161904Y-145028571D01*
X84257142Y-145076190D01*
X84638095Y-145076190D01*
X83590476Y-145552380D02*
X83400000Y-145552380D01*
X83304761Y-145504761D01*
X83257142Y-145457142D01*
X83161904Y-145314285D01*
X83114285Y-145123809D01*
X83114285Y-144742857D01*
X83161904Y-144647619D01*
X83209523Y-144600000D01*
X83304761Y-144552380D01*
X83495238Y-144552380D01*
X83590476Y-144600000D01*
X83638095Y-144647619D01*
X83685714Y-144742857D01*
X83685714Y-144980952D01*
X83638095Y-145076190D01*
X83590476Y-145123809D01*
X83495238Y-145171428D01*
X83304761Y-145171428D01*
X83209523Y-145123809D01*
X83161904Y-145076190D01*
X83114285Y-144980952D01*
%TO.C,Q1*%
X112997619Y-138217261D02*
X112950000Y-138122023D01*
X112854761Y-138026785D01*
X112711904Y-137883928D01*
X112664285Y-137788690D01*
X112664285Y-137693452D01*
X112902380Y-137741071D02*
X112854761Y-137645833D01*
X112759523Y-137550595D01*
X112569047Y-137502976D01*
X112235714Y-137502976D01*
X112045238Y-137550595D01*
X111950000Y-137645833D01*
X111902380Y-137741071D01*
X111902380Y-137931547D01*
X111950000Y-138026785D01*
X112045238Y-138122023D01*
X112235714Y-138169642D01*
X112569047Y-138169642D01*
X112759523Y-138122023D01*
X112854761Y-138026785D01*
X112902380Y-137931547D01*
X112902380Y-137741071D01*
X112902380Y-139122023D02*
X112902380Y-138550595D01*
X112902380Y-138836309D02*
X111902380Y-138836309D01*
X112045238Y-138741071D01*
X112140476Y-138645833D01*
X112188095Y-138550595D01*
%TO.C,R6*%
X107166666Y-129052380D02*
X107500000Y-128576190D01*
X107738095Y-129052380D02*
X107738095Y-128052380D01*
X107357142Y-128052380D01*
X107261904Y-128100000D01*
X107214285Y-128147619D01*
X107166666Y-128242857D01*
X107166666Y-128385714D01*
X107214285Y-128480952D01*
X107261904Y-128528571D01*
X107357142Y-128576190D01*
X107738095Y-128576190D01*
X106309523Y-128052380D02*
X106500000Y-128052380D01*
X106595238Y-128100000D01*
X106642857Y-128147619D01*
X106738095Y-128290476D01*
X106785714Y-128480952D01*
X106785714Y-128861904D01*
X106738095Y-128957142D01*
X106690476Y-129004761D01*
X106595238Y-129052380D01*
X106404761Y-129052380D01*
X106309523Y-129004761D01*
X106261904Y-128957142D01*
X106214285Y-128861904D01*
X106214285Y-128623809D01*
X106261904Y-128528571D01*
X106309523Y-128480952D01*
X106404761Y-128433333D01*
X106595238Y-128433333D01*
X106690476Y-128480952D01*
X106738095Y-128528571D01*
X106785714Y-128623809D01*
%TO.C,L1*%
X100966666Y-131402380D02*
X101442857Y-131402380D01*
X101442857Y-130402380D01*
X100109523Y-131402380D02*
X100680952Y-131402380D01*
X100395238Y-131402380D02*
X100395238Y-130402380D01*
X100490476Y-130545238D01*
X100585714Y-130640476D01*
X100680952Y-130688095D01*
D11*
%TO.C,REF\u002A\u002A*%
X113828336Y-149895089D02*
X113765633Y-149931358D01*
X113765633Y-149931358D02*
X113722039Y-149967358D01*
X113722039Y-149967358D02*
X113690155Y-150005075D01*
X113690155Y-150005075D02*
X113668190Y-150051199D01*
X113668190Y-150051199D02*
X113654351Y-150112421D01*
X113654351Y-150112421D02*
X113646847Y-150195431D01*
X113646847Y-150195431D02*
X113643883Y-150306919D01*
X113643883Y-150306919D02*
X113643539Y-150387062D01*
X113643539Y-150387062D02*
X113643539Y-150682065D01*
X113643539Y-150682065D02*
X113809615Y-150756515D01*
X113809615Y-150756515D02*
X113819385Y-150433402D01*
X113819385Y-150433402D02*
X113823421Y-150312729D01*
X113823421Y-150312729D02*
X113827656Y-150225141D01*
X113827656Y-150225141D02*
X113832903Y-150164650D01*
X113832903Y-150164650D02*
X113839975Y-150125268D01*
X113839975Y-150125268D02*
X113849689Y-150101007D01*
X113849689Y-150101007D02*
X113862856Y-150085880D01*
X113862856Y-150085880D02*
X113867081Y-150082606D01*
X113867081Y-150082606D02*
X113931091Y-150057034D01*
X113931091Y-150057034D02*
X113995792Y-150067153D01*
X113995792Y-150067153D02*
X114034308Y-150094000D01*
X114034308Y-150094000D02*
X114049975Y-150113024D01*
X114049975Y-150113024D02*
X114060820Y-150137988D01*
X114060820Y-150137988D02*
X114067712Y-150175834D01*
X114067712Y-150175834D02*
X114071521Y-150233502D01*
X114071521Y-150233502D02*
X114073117Y-150317935D01*
X114073117Y-150317935D02*
X114073385Y-150405928D01*
X114073385Y-150405928D02*
X114073437Y-150516323D01*
X114073437Y-150516323D02*
X114075328Y-150594463D01*
X114075328Y-150594463D02*
X114081655Y-150647165D01*
X114081655Y-150647165D02*
X114095017Y-150681242D01*
X114095017Y-150681242D02*
X114118015Y-150703511D01*
X114118015Y-150703511D02*
X114153246Y-150720787D01*
X114153246Y-150720787D02*
X114200303Y-150738738D01*
X114200303Y-150738738D02*
X114251697Y-150758278D01*
X114251697Y-150758278D02*
X114245579Y-150411485D01*
X114245579Y-150411485D02*
X114243116Y-150286468D01*
X114243116Y-150286468D02*
X114240233Y-150194082D01*
X114240233Y-150194082D02*
X114236102Y-150127881D01*
X114236102Y-150127881D02*
X114229893Y-150081420D01*
X114229893Y-150081420D02*
X114220774Y-150048256D01*
X114220774Y-150048256D02*
X114207917Y-150021944D01*
X114207917Y-150021944D02*
X114192416Y-149998729D01*
X114192416Y-149998729D02*
X114117629Y-149924569D01*
X114117629Y-149924569D02*
X114026372Y-149881684D01*
X114026372Y-149881684D02*
X113927117Y-149871412D01*
X113927117Y-149871412D02*
X113828336Y-149895089D01*
X113828336Y-149895089D02*
X113828336Y-149895089D01*
G36*
X114026372Y-149881684D02*
G01*
X114117629Y-149924569D01*
X114192416Y-149998729D01*
X114207917Y-150021944D01*
X114220774Y-150048256D01*
X114229893Y-150081420D01*
X114236102Y-150127881D01*
X114240233Y-150194082D01*
X114243116Y-150286468D01*
X114245579Y-150411485D01*
X114251697Y-150758278D01*
X114200303Y-150738738D01*
X114153246Y-150720787D01*
X114118015Y-150703511D01*
X114095017Y-150681242D01*
X114081655Y-150647165D01*
X114075328Y-150594463D01*
X114073437Y-150516323D01*
X114073385Y-150405928D01*
X114073117Y-150317935D01*
X114071521Y-150233502D01*
X114067712Y-150175834D01*
X114060820Y-150137988D01*
X114049975Y-150113024D01*
X114034308Y-150094000D01*
X113995792Y-150067153D01*
X113931091Y-150057034D01*
X113867081Y-150082606D01*
X113862856Y-150085880D01*
X113849689Y-150101007D01*
X113839975Y-150125268D01*
X113832903Y-150164650D01*
X113827656Y-150225141D01*
X113823421Y-150312729D01*
X113819385Y-150433402D01*
X113809615Y-150756515D01*
X113643539Y-150682065D01*
X113643539Y-150387062D01*
X113643883Y-150306919D01*
X113646847Y-150195431D01*
X113654351Y-150112421D01*
X113668190Y-150051199D01*
X113690155Y-150005075D01*
X113722039Y-149967358D01*
X113765633Y-149931358D01*
X113828336Y-149895089D01*
X113927117Y-149871412D01*
X114026372Y-149881684D01*
G37*
X114026372Y-149881684D02*
X114117629Y-149924569D01*
X114192416Y-149998729D01*
X114207917Y-150021944D01*
X114220774Y-150048256D01*
X114229893Y-150081420D01*
X114236102Y-150127881D01*
X114240233Y-150194082D01*
X114243116Y-150286468D01*
X114245579Y-150411485D01*
X114251697Y-150758278D01*
X114200303Y-150738738D01*
X114153246Y-150720787D01*
X114118015Y-150703511D01*
X114095017Y-150681242D01*
X114081655Y-150647165D01*
X114075328Y-150594463D01*
X114073437Y-150516323D01*
X114073385Y-150405928D01*
X114073117Y-150317935D01*
X114071521Y-150233502D01*
X114067712Y-150175834D01*
X114060820Y-150137988D01*
X114049975Y-150113024D01*
X114034308Y-150094000D01*
X113995792Y-150067153D01*
X113931091Y-150057034D01*
X113867081Y-150082606D01*
X113862856Y-150085880D01*
X113849689Y-150101007D01*
X113839975Y-150125268D01*
X113832903Y-150164650D01*
X113827656Y-150225141D01*
X113823421Y-150312729D01*
X113819385Y-150433402D01*
X113809615Y-150756515D01*
X113643539Y-150682065D01*
X113643539Y-150387062D01*
X113643883Y-150306919D01*
X113646847Y-150195431D01*
X113654351Y-150112421D01*
X113668190Y-150051199D01*
X113690155Y-150005075D01*
X113722039Y-149967358D01*
X113765633Y-149931358D01*
X113828336Y-149895089D01*
X113927117Y-149871412D01*
X114026372Y-149881684D01*
X110497919Y-150080289D02*
X110498167Y-150226320D01*
X110498167Y-150226320D02*
X110499128Y-150338655D01*
X110499128Y-150338655D02*
X110501206Y-150422678D01*
X110501206Y-150422678D02*
X110504807Y-150483769D01*
X110504807Y-150483769D02*
X110510335Y-150527309D01*
X110510335Y-150527309D02*
X110518196Y-150558679D01*
X110518196Y-150558679D02*
X110528793Y-150583262D01*
X110528793Y-150583262D02*
X110536818Y-150597294D01*
X110536818Y-150597294D02*
X110603272Y-150673388D01*
X110603272Y-150673388D02*
X110687530Y-150721084D01*
X110687530Y-150721084D02*
X110780751Y-150738199D01*
X110780751Y-150738199D02*
X110874100Y-150722546D01*
X110874100Y-150722546D02*
X110929688Y-150694418D01*
X110929688Y-150694418D02*
X110988043Y-150645760D01*
X110988043Y-150645760D02*
X111027814Y-150586333D01*
X111027814Y-150586333D02*
X111051810Y-150508507D01*
X111051810Y-150508507D02*
X111062839Y-150404652D01*
X111062839Y-150404652D02*
X111064401Y-150328462D01*
X111064401Y-150328462D02*
X111064191Y-150322986D01*
X111064191Y-150322986D02*
X110927692Y-150322986D01*
X110927692Y-150322986D02*
X110926859Y-150410355D01*
X110926859Y-150410355D02*
X110923039Y-150468192D01*
X110923039Y-150468192D02*
X110914254Y-150506029D01*
X110914254Y-150506029D02*
X110898526Y-150533398D01*
X110898526Y-150533398D02*
X110879734Y-150554042D01*
X110879734Y-150554042D02*
X110816625Y-150593890D01*
X110816625Y-150593890D02*
X110748863Y-150597295D01*
X110748863Y-150597295D02*
X110684821Y-150564025D01*
X110684821Y-150564025D02*
X110679836Y-150559517D01*
X110679836Y-150559517D02*
X110658561Y-150536067D01*
X110658561Y-150536067D02*
X110645221Y-150508166D01*
X110645221Y-150508166D02*
X110637999Y-150466641D01*
X110637999Y-150466641D02*
X110635077Y-150402316D01*
X110635077Y-150402316D02*
X110634615Y-150331200D01*
X110634615Y-150331200D02*
X110635617Y-150241858D01*
X110635617Y-150241858D02*
X110639762Y-150182258D01*
X110639762Y-150182258D02*
X110648764Y-150143089D01*
X110648764Y-150143089D02*
X110664333Y-150115040D01*
X110664333Y-150115040D02*
X110677098Y-150100144D01*
X110677098Y-150100144D02*
X110736400Y-150062575D01*
X110736400Y-150062575D02*
X110804699Y-150058057D01*
X110804699Y-150058057D02*
X110869890Y-150086753D01*
X110869890Y-150086753D02*
X110882472Y-150097406D01*
X110882472Y-150097406D02*
X110903889Y-150121063D01*
X110903889Y-150121063D02*
X110917256Y-150149251D01*
X110917256Y-150149251D02*
X110924434Y-150191245D01*
X110924434Y-150191245D02*
X110927281Y-150256319D01*
X110927281Y-150256319D02*
X110927692Y-150322986D01*
X110927692Y-150322986D02*
X111064191Y-150322986D01*
X111064191Y-150322986D02*
X111059678Y-150205765D01*
X111059678Y-150205765D02*
X111043638Y-150113577D01*
X111043638Y-150113577D02*
X111013472Y-150044269D01*
X111013472Y-150044269D02*
X110966371Y-149990211D01*
X110966371Y-149990211D02*
X110929688Y-149962505D01*
X110929688Y-149962505D02*
X110863010Y-149932572D01*
X110863010Y-149932572D02*
X110785728Y-149918678D01*
X110785728Y-149918678D02*
X110713890Y-149922397D01*
X110713890Y-149922397D02*
X110673692Y-149937400D01*
X110673692Y-149937400D02*
X110657918Y-149941670D01*
X110657918Y-149941670D02*
X110647450Y-149925750D01*
X110647450Y-149925750D02*
X110640144Y-149883089D01*
X110640144Y-149883089D02*
X110634615Y-149818106D01*
X110634615Y-149818106D02*
X110628563Y-149745732D01*
X110628563Y-149745732D02*
X110620156Y-149702187D01*
X110620156Y-149702187D02*
X110604859Y-149677287D01*
X110604859Y-149677287D02*
X110578136Y-149660845D01*
X110578136Y-149660845D02*
X110561346Y-149653564D01*
X110561346Y-149653564D02*
X110497846Y-149626963D01*
X110497846Y-149626963D02*
X110497919Y-150080289D01*
X110497919Y-150080289D02*
X110497919Y-150080289D01*
G36*
X111062839Y-150404652D02*
G01*
X111051810Y-150508507D01*
X111027814Y-150586333D01*
X110988043Y-150645760D01*
X110929688Y-150694418D01*
X110874100Y-150722546D01*
X110780751Y-150738199D01*
X110687530Y-150721084D01*
X110603272Y-150673388D01*
X110536818Y-150597294D01*
X110528793Y-150583262D01*
X110518196Y-150558679D01*
X110510335Y-150527309D01*
X110504807Y-150483769D01*
X110501206Y-150422678D01*
X110499128Y-150338655D01*
X110499064Y-150331200D01*
X110634615Y-150331200D01*
X110635077Y-150402316D01*
X110637999Y-150466641D01*
X110645221Y-150508166D01*
X110658561Y-150536067D01*
X110679836Y-150559517D01*
X110684821Y-150564025D01*
X110748863Y-150597295D01*
X110816625Y-150593890D01*
X110879734Y-150554042D01*
X110898526Y-150533398D01*
X110914254Y-150506029D01*
X110923039Y-150468192D01*
X110926859Y-150410355D01*
X110927692Y-150322986D01*
X110927281Y-150256319D01*
X110924434Y-150191245D01*
X110917256Y-150149251D01*
X110903889Y-150121063D01*
X110882472Y-150097406D01*
X110869890Y-150086753D01*
X110804699Y-150058057D01*
X110736400Y-150062575D01*
X110677098Y-150100144D01*
X110664333Y-150115040D01*
X110648764Y-150143089D01*
X110639762Y-150182258D01*
X110635617Y-150241858D01*
X110634615Y-150331200D01*
X110499064Y-150331200D01*
X110498167Y-150226320D01*
X110497919Y-150080289D01*
X110497846Y-149626963D01*
X110561346Y-149653564D01*
X110578136Y-149660845D01*
X110604859Y-149677287D01*
X110620156Y-149702187D01*
X110628563Y-149745732D01*
X110634615Y-149818106D01*
X110640144Y-149883089D01*
X110647450Y-149925750D01*
X110657918Y-149941670D01*
X110673692Y-149937400D01*
X110713890Y-149922397D01*
X110785728Y-149918678D01*
X110863010Y-149932572D01*
X110929688Y-149962505D01*
X110966371Y-149990211D01*
X111013472Y-150044269D01*
X111043638Y-150113577D01*
X111059678Y-150205765D01*
X111064191Y-150322986D01*
X111064401Y-150328462D01*
X111062839Y-150404652D01*
G37*
X111062839Y-150404652D02*
X111051810Y-150508507D01*
X111027814Y-150586333D01*
X110988043Y-150645760D01*
X110929688Y-150694418D01*
X110874100Y-150722546D01*
X110780751Y-150738199D01*
X110687530Y-150721084D01*
X110603272Y-150673388D01*
X110536818Y-150597294D01*
X110528793Y-150583262D01*
X110518196Y-150558679D01*
X110510335Y-150527309D01*
X110504807Y-150483769D01*
X110501206Y-150422678D01*
X110499128Y-150338655D01*
X110499064Y-150331200D01*
X110634615Y-150331200D01*
X110635077Y-150402316D01*
X110637999Y-150466641D01*
X110645221Y-150508166D01*
X110658561Y-150536067D01*
X110679836Y-150559517D01*
X110684821Y-150564025D01*
X110748863Y-150597295D01*
X110816625Y-150593890D01*
X110879734Y-150554042D01*
X110898526Y-150533398D01*
X110914254Y-150506029D01*
X110923039Y-150468192D01*
X110926859Y-150410355D01*
X110927692Y-150322986D01*
X110927281Y-150256319D01*
X110924434Y-150191245D01*
X110917256Y-150149251D01*
X110903889Y-150121063D01*
X110882472Y-150097406D01*
X110869890Y-150086753D01*
X110804699Y-150058057D01*
X110736400Y-150062575D01*
X110677098Y-150100144D01*
X110664333Y-150115040D01*
X110648764Y-150143089D01*
X110639762Y-150182258D01*
X110635617Y-150241858D01*
X110634615Y-150331200D01*
X110499064Y-150331200D01*
X110498167Y-150226320D01*
X110497919Y-150080289D01*
X110497846Y-149626963D01*
X110561346Y-149653564D01*
X110578136Y-149660845D01*
X110604859Y-149677287D01*
X110620156Y-149702187D01*
X110628563Y-149745732D01*
X110634615Y-149818106D01*
X110640144Y-149883089D01*
X110647450Y-149925750D01*
X110657918Y-149941670D01*
X110673692Y-149937400D01*
X110713890Y-149922397D01*
X110785728Y-149918678D01*
X110863010Y-149932572D01*
X110929688Y-149962505D01*
X110966371Y-149990211D01*
X111013472Y-150044269D01*
X111043638Y-150113577D01*
X111059678Y-150205765D01*
X111064191Y-150322986D01*
X111064401Y-150328462D01*
X111062839Y-150404652D01*
X112940154Y-149792120D02*
X112934428Y-149871980D01*
X112934428Y-149871980D02*
X112927851Y-149919039D01*
X112927851Y-149919039D02*
X112918738Y-149939566D01*
X112918738Y-149939566D02*
X112905402Y-149939829D01*
X112905402Y-149939829D02*
X112901077Y-149937378D01*
X112901077Y-149937378D02*
X112843556Y-149919636D01*
X112843556Y-149919636D02*
X112768732Y-149920672D01*
X112768732Y-149920672D02*
X112692661Y-149938910D01*
X112692661Y-149938910D02*
X112645082Y-149962505D01*
X112645082Y-149962505D02*
X112596298Y-150000198D01*
X112596298Y-150000198D02*
X112560636Y-150042855D01*
X112560636Y-150042855D02*
X112536155Y-150097057D01*
X112536155Y-150097057D02*
X112520913Y-150169384D01*
X112520913Y-150169384D02*
X112512970Y-150266419D01*
X112512970Y-150266419D02*
X112510384Y-150394742D01*
X112510384Y-150394742D02*
X112510338Y-150419358D01*
X112510338Y-150419358D02*
X112510308Y-150695870D01*
X112510308Y-150695870D02*
X112571839Y-150717320D01*
X112571839Y-150717320D02*
X112615541Y-150731912D01*
X112615541Y-150731912D02*
X112639518Y-150738706D01*
X112639518Y-150738706D02*
X112640223Y-150738769D01*
X112640223Y-150738769D02*
X112642585Y-150720345D01*
X112642585Y-150720345D02*
X112644594Y-150669526D01*
X112644594Y-150669526D02*
X112646099Y-150592993D01*
X112646099Y-150592993D02*
X112646947Y-150497430D01*
X112646947Y-150497430D02*
X112647077Y-150439329D01*
X112647077Y-150439329D02*
X112647349Y-150324771D01*
X112647349Y-150324771D02*
X112648748Y-150242667D01*
X112648748Y-150242667D02*
X112652151Y-150186393D01*
X112652151Y-150186393D02*
X112658433Y-150149326D01*
X112658433Y-150149326D02*
X112668471Y-150124844D01*
X112668471Y-150124844D02*
X112683139Y-150106325D01*
X112683139Y-150106325D02*
X112692298Y-150097406D01*
X112692298Y-150097406D02*
X112755211Y-150061466D01*
X112755211Y-150061466D02*
X112823864Y-150058775D01*
X112823864Y-150058775D02*
X112886152Y-150089170D01*
X112886152Y-150089170D02*
X112897671Y-150100144D01*
X112897671Y-150100144D02*
X112914567Y-150120779D01*
X112914567Y-150120779D02*
X112926286Y-150145256D01*
X112926286Y-150145256D02*
X112933767Y-150180647D01*
X112933767Y-150180647D02*
X112937946Y-150234026D01*
X112937946Y-150234026D02*
X112939763Y-150312466D01*
X112939763Y-150312466D02*
X112940154Y-150420617D01*
X112940154Y-150420617D02*
X112940154Y-150695870D01*
X112940154Y-150695870D02*
X113001685Y-150717320D01*
X113001685Y-150717320D02*
X113045387Y-150731912D01*
X113045387Y-150731912D02*
X113069364Y-150738706D01*
X113069364Y-150738706D02*
X113070070Y-150738769D01*
X113070070Y-150738769D02*
X113071874Y-150720069D01*
X113071874Y-150720069D02*
X113073500Y-150667322D01*
X113073500Y-150667322D02*
X113074883Y-150585557D01*
X113074883Y-150585557D02*
X113075958Y-150479805D01*
X113075958Y-150479805D02*
X113076660Y-150355094D01*
X113076660Y-150355094D02*
X113076923Y-150216455D01*
X113076923Y-150216455D02*
X113076923Y-149681806D01*
X113076923Y-149681806D02*
X112949923Y-149628236D01*
X112949923Y-149628236D02*
X112940154Y-149792120D01*
X112940154Y-149792120D02*
X112940154Y-149792120D01*
G36*
X113076923Y-149681806D02*
G01*
X113076923Y-150216455D01*
X113076660Y-150355094D01*
X113075958Y-150479805D01*
X113074883Y-150585557D01*
X113073500Y-150667322D01*
X113071874Y-150720069D01*
X113070070Y-150738769D01*
X113069364Y-150738706D01*
X113045387Y-150731912D01*
X113001685Y-150717320D01*
X112940154Y-150695870D01*
X112940154Y-150420617D01*
X112939763Y-150312466D01*
X112937946Y-150234026D01*
X112933767Y-150180647D01*
X112926286Y-150145256D01*
X112914567Y-150120779D01*
X112897671Y-150100144D01*
X112886152Y-150089170D01*
X112823864Y-150058775D01*
X112755211Y-150061466D01*
X112692298Y-150097406D01*
X112683139Y-150106325D01*
X112668471Y-150124844D01*
X112658433Y-150149326D01*
X112652151Y-150186393D01*
X112648748Y-150242667D01*
X112647349Y-150324771D01*
X112647077Y-150439329D01*
X112646947Y-150497430D01*
X112646099Y-150592993D01*
X112644594Y-150669526D01*
X112642585Y-150720345D01*
X112640223Y-150738769D01*
X112639518Y-150738706D01*
X112615541Y-150731912D01*
X112571839Y-150717320D01*
X112510308Y-150695870D01*
X112510338Y-150419358D01*
X112510384Y-150394742D01*
X112512970Y-150266419D01*
X112520913Y-150169384D01*
X112536155Y-150097057D01*
X112560636Y-150042855D01*
X112596298Y-150000198D01*
X112645082Y-149962505D01*
X112692661Y-149938910D01*
X112768732Y-149920672D01*
X112843556Y-149919636D01*
X112901077Y-149937378D01*
X112905402Y-149939829D01*
X112918738Y-149939566D01*
X112927851Y-149919039D01*
X112934428Y-149871980D01*
X112940154Y-149792120D01*
X112949923Y-149628236D01*
X113076923Y-149681806D01*
G37*
X113076923Y-149681806D02*
X113076923Y-150216455D01*
X113076660Y-150355094D01*
X113075958Y-150479805D01*
X113074883Y-150585557D01*
X113073500Y-150667322D01*
X113071874Y-150720069D01*
X113070070Y-150738769D01*
X113069364Y-150738706D01*
X113045387Y-150731912D01*
X113001685Y-150717320D01*
X112940154Y-150695870D01*
X112940154Y-150420617D01*
X112939763Y-150312466D01*
X112937946Y-150234026D01*
X112933767Y-150180647D01*
X112926286Y-150145256D01*
X112914567Y-150120779D01*
X112897671Y-150100144D01*
X112886152Y-150089170D01*
X112823864Y-150058775D01*
X112755211Y-150061466D01*
X112692298Y-150097406D01*
X112683139Y-150106325D01*
X112668471Y-150124844D01*
X112658433Y-150149326D01*
X112652151Y-150186393D01*
X112648748Y-150242667D01*
X112647349Y-150324771D01*
X112647077Y-150439329D01*
X112646947Y-150497430D01*
X112646099Y-150592993D01*
X112644594Y-150669526D01*
X112642585Y-150720345D01*
X112640223Y-150738769D01*
X112639518Y-150738706D01*
X112615541Y-150731912D01*
X112571839Y-150717320D01*
X112510308Y-150695870D01*
X112510338Y-150419358D01*
X112510384Y-150394742D01*
X112512970Y-150266419D01*
X112520913Y-150169384D01*
X112536155Y-150097057D01*
X112560636Y-150042855D01*
X112596298Y-150000198D01*
X112645082Y-149962505D01*
X112692661Y-149938910D01*
X112768732Y-149920672D01*
X112843556Y-149919636D01*
X112901077Y-149937378D01*
X112905402Y-149939829D01*
X112918738Y-149939566D01*
X112927851Y-149919039D01*
X112934428Y-149871980D01*
X112940154Y-149792120D01*
X112949923Y-149628236D01*
X113076923Y-149681806D01*
X112046499Y-149926303D02*
X111969940Y-149954733D01*
X111969940Y-149954733D02*
X111969064Y-149955279D01*
X111969064Y-149955279D02*
X111921715Y-149990127D01*
X111921715Y-149990127D02*
X111886759Y-150030852D01*
X111886759Y-150030852D02*
X111862175Y-150083925D01*
X111862175Y-150083925D02*
X111845938Y-150155814D01*
X111845938Y-150155814D02*
X111836025Y-150252992D01*
X111836025Y-150252992D02*
X111830414Y-150381928D01*
X111830414Y-150381928D02*
X111829923Y-150400298D01*
X111829923Y-150400298D02*
X111822859Y-150677287D01*
X111822859Y-150677287D02*
X111882305Y-150708028D01*
X111882305Y-150708028D02*
X111925319Y-150728802D01*
X111925319Y-150728802D02*
X111951290Y-150738646D01*
X111951290Y-150738646D02*
X111952491Y-150738769D01*
X111952491Y-150738769D02*
X111956986Y-150720606D01*
X111956986Y-150720606D02*
X111960556Y-150671612D01*
X111960556Y-150671612D02*
X111962752Y-150600031D01*
X111962752Y-150600031D02*
X111963231Y-150542068D01*
X111963231Y-150542068D02*
X111963242Y-150448170D01*
X111963242Y-150448170D02*
X111967534Y-150389203D01*
X111967534Y-150389203D02*
X111982497Y-150361079D01*
X111982497Y-150361079D02*
X112014518Y-150359706D01*
X112014518Y-150359706D02*
X112069986Y-150380998D01*
X112069986Y-150380998D02*
X112153731Y-150420136D01*
X112153731Y-150420136D02*
X112215311Y-150452643D01*
X112215311Y-150452643D02*
X112246983Y-150480845D01*
X112246983Y-150480845D02*
X112256294Y-150511582D01*
X112256294Y-150511582D02*
X112256308Y-150513104D01*
X112256308Y-150513104D02*
X112240943Y-150566054D01*
X112240943Y-150566054D02*
X112195453Y-150594660D01*
X112195453Y-150594660D02*
X112125834Y-150598803D01*
X112125834Y-150598803D02*
X112075687Y-150598084D01*
X112075687Y-150598084D02*
X112049246Y-150612527D01*
X112049246Y-150612527D02*
X112032757Y-150647218D01*
X112032757Y-150647218D02*
X112023267Y-150691416D01*
X112023267Y-150691416D02*
X112036943Y-150716493D01*
X112036943Y-150716493D02*
X112042093Y-150720082D01*
X112042093Y-150720082D02*
X112090575Y-150734496D01*
X112090575Y-150734496D02*
X112158469Y-150736537D01*
X112158469Y-150736537D02*
X112228388Y-150726983D01*
X112228388Y-150726983D02*
X112277932Y-150709522D01*
X112277932Y-150709522D02*
X112346430Y-150651364D01*
X112346430Y-150651364D02*
X112385366Y-150570408D01*
X112385366Y-150570408D02*
X112393077Y-150507160D01*
X112393077Y-150507160D02*
X112387193Y-150450111D01*
X112387193Y-150450111D02*
X112365899Y-150403542D01*
X112365899Y-150403542D02*
X112323735Y-150362181D01*
X112323735Y-150362181D02*
X112255241Y-150320755D01*
X112255241Y-150320755D02*
X112154956Y-150273993D01*
X112154956Y-150273993D02*
X112148846Y-150271350D01*
X112148846Y-150271350D02*
X112058510Y-150229617D01*
X112058510Y-150229617D02*
X112002765Y-150195391D01*
X112002765Y-150195391D02*
X111978871Y-150164635D01*
X111978871Y-150164635D02*
X111984087Y-150133311D01*
X111984087Y-150133311D02*
X112015672Y-150097383D01*
X112015672Y-150097383D02*
X112025117Y-150089116D01*
X112025117Y-150089116D02*
X112088383Y-150057058D01*
X112088383Y-150057058D02*
X112153936Y-150058407D01*
X112153936Y-150058407D02*
X112211028Y-150089838D01*
X112211028Y-150089838D02*
X112248907Y-150148024D01*
X112248907Y-150148024D02*
X112252426Y-150159446D01*
X112252426Y-150159446D02*
X112286700Y-150214837D01*
X112286700Y-150214837D02*
X112330191Y-150241518D01*
X112330191Y-150241518D02*
X112393077Y-150267960D01*
X112393077Y-150267960D02*
X112393077Y-150199548D01*
X112393077Y-150199548D02*
X112373948Y-150100110D01*
X112373948Y-150100110D02*
X112317169Y-150008902D01*
X112317169Y-150008902D02*
X112287622Y-149978389D01*
X112287622Y-149978389D02*
X112220458Y-149939228D01*
X112220458Y-149939228D02*
X112135044Y-149921500D01*
X112135044Y-149921500D02*
X112046499Y-149926303D01*
X112046499Y-149926303D02*
X112046499Y-149926303D01*
G36*
X112220458Y-149939228D02*
G01*
X112287622Y-149978389D01*
X112317169Y-150008902D01*
X112373948Y-150100110D01*
X112393077Y-150199548D01*
X112393077Y-150267960D01*
X112330191Y-150241518D01*
X112286700Y-150214837D01*
X112252426Y-150159446D01*
X112248907Y-150148024D01*
X112211028Y-150089838D01*
X112153936Y-150058407D01*
X112088383Y-150057058D01*
X112025117Y-150089116D01*
X112015672Y-150097383D01*
X111984087Y-150133311D01*
X111978871Y-150164635D01*
X112002765Y-150195391D01*
X112058510Y-150229617D01*
X112148846Y-150271350D01*
X112154956Y-150273993D01*
X112255241Y-150320755D01*
X112323735Y-150362181D01*
X112365899Y-150403542D01*
X112387193Y-150450111D01*
X112393077Y-150507160D01*
X112385366Y-150570408D01*
X112346430Y-150651364D01*
X112277932Y-150709522D01*
X112228388Y-150726983D01*
X112158469Y-150736537D01*
X112090575Y-150734496D01*
X112042093Y-150720082D01*
X112036943Y-150716493D01*
X112023267Y-150691416D01*
X112032757Y-150647218D01*
X112049246Y-150612527D01*
X112075687Y-150598084D01*
X112125834Y-150598803D01*
X112195453Y-150594660D01*
X112240943Y-150566054D01*
X112256308Y-150513104D01*
X112256294Y-150511582D01*
X112246983Y-150480845D01*
X112215311Y-150452643D01*
X112153731Y-150420136D01*
X112069986Y-150380998D01*
X112014518Y-150359706D01*
X111982497Y-150361079D01*
X111967534Y-150389203D01*
X111963242Y-150448170D01*
X111963231Y-150542068D01*
X111962752Y-150600031D01*
X111960556Y-150671612D01*
X111956986Y-150720606D01*
X111952491Y-150738769D01*
X111951290Y-150738646D01*
X111925319Y-150728802D01*
X111882305Y-150708028D01*
X111822859Y-150677287D01*
X111829923Y-150400298D01*
X111830414Y-150381928D01*
X111836025Y-150252992D01*
X111845938Y-150155814D01*
X111862175Y-150083925D01*
X111886759Y-150030852D01*
X111921715Y-149990127D01*
X111969064Y-149955279D01*
X111969940Y-149954733D01*
X112046499Y-149926303D01*
X112135044Y-149921500D01*
X112220458Y-149939228D01*
G37*
X112220458Y-149939228D02*
X112287622Y-149978389D01*
X112317169Y-150008902D01*
X112373948Y-150100110D01*
X112393077Y-150199548D01*
X112393077Y-150267960D01*
X112330191Y-150241518D01*
X112286700Y-150214837D01*
X112252426Y-150159446D01*
X112248907Y-150148024D01*
X112211028Y-150089838D01*
X112153936Y-150058407D01*
X112088383Y-150057058D01*
X112025117Y-150089116D01*
X112015672Y-150097383D01*
X111984087Y-150133311D01*
X111978871Y-150164635D01*
X112002765Y-150195391D01*
X112058510Y-150229617D01*
X112148846Y-150271350D01*
X112154956Y-150273993D01*
X112255241Y-150320755D01*
X112323735Y-150362181D01*
X112365899Y-150403542D01*
X112387193Y-150450111D01*
X112393077Y-150507160D01*
X112385366Y-150570408D01*
X112346430Y-150651364D01*
X112277932Y-150709522D01*
X112228388Y-150726983D01*
X112158469Y-150736537D01*
X112090575Y-150734496D01*
X112042093Y-150720082D01*
X112036943Y-150716493D01*
X112023267Y-150691416D01*
X112032757Y-150647218D01*
X112049246Y-150612527D01*
X112075687Y-150598084D01*
X112125834Y-150598803D01*
X112195453Y-150594660D01*
X112240943Y-150566054D01*
X112256308Y-150513104D01*
X112256294Y-150511582D01*
X112246983Y-150480845D01*
X112215311Y-150452643D01*
X112153731Y-150420136D01*
X112069986Y-150380998D01*
X112014518Y-150359706D01*
X111982497Y-150361079D01*
X111967534Y-150389203D01*
X111963242Y-150448170D01*
X111963231Y-150542068D01*
X111962752Y-150600031D01*
X111960556Y-150671612D01*
X111956986Y-150720606D01*
X111952491Y-150738769D01*
X111951290Y-150738646D01*
X111925319Y-150728802D01*
X111882305Y-150708028D01*
X111822859Y-150677287D01*
X111829923Y-150400298D01*
X111830414Y-150381928D01*
X111836025Y-150252992D01*
X111845938Y-150155814D01*
X111862175Y-150083925D01*
X111886759Y-150030852D01*
X111921715Y-149990127D01*
X111969064Y-149955279D01*
X111969940Y-149954733D01*
X112046499Y-149926303D01*
X112135044Y-149921500D01*
X112220458Y-149939228D01*
X115331114Y-149884505D02*
X115256461Y-149921727D01*
X115256461Y-149921727D02*
X115190569Y-149990261D01*
X115190569Y-149990261D02*
X115172423Y-150015648D01*
X115172423Y-150015648D02*
X115152655Y-150048866D01*
X115152655Y-150048866D02*
X115139828Y-150084945D01*
X115139828Y-150084945D02*
X115132490Y-150133098D01*
X115132490Y-150133098D02*
X115129187Y-150202536D01*
X115129187Y-150202536D02*
X115128462Y-150294206D01*
X115128462Y-150294206D02*
X115131737Y-150419830D01*
X115131737Y-150419830D02*
X115143123Y-150514154D01*
X115143123Y-150514154D02*
X115164959Y-150584523D01*
X115164959Y-150584523D02*
X115199581Y-150638286D01*
X115199581Y-150638286D02*
X115249330Y-150682788D01*
X115249330Y-150682788D02*
X115252986Y-150685423D01*
X115252986Y-150685423D02*
X115302015Y-150712377D01*
X115302015Y-150712377D02*
X115361055Y-150725712D01*
X115361055Y-150725712D02*
X115436141Y-150729000D01*
X115436141Y-150729000D02*
X115558205Y-150729000D01*
X115558205Y-150729000D02*
X115558256Y-150847497D01*
X115558256Y-150847497D02*
X115559392Y-150913492D01*
X115559392Y-150913492D02*
X115566314Y-150952202D01*
X115566314Y-150952202D02*
X115584402Y-150975419D01*
X115584402Y-150975419D02*
X115619038Y-150994933D01*
X115619038Y-150994933D02*
X115627355Y-150998920D01*
X115627355Y-150998920D02*
X115666280Y-151017603D01*
X115666280Y-151017603D02*
X115696417Y-151029403D01*
X115696417Y-151029403D02*
X115718826Y-151030422D01*
X115718826Y-151030422D02*
X115734567Y-151016761D01*
X115734567Y-151016761D02*
X115744698Y-150984522D01*
X115744698Y-150984522D02*
X115750277Y-150929804D01*
X115750277Y-150929804D02*
X115752365Y-150848711D01*
X115752365Y-150848711D02*
X115752019Y-150737344D01*
X115752019Y-150737344D02*
X115750300Y-150591802D01*
X115750300Y-150591802D02*
X115749763Y-150548269D01*
X115749763Y-150548269D02*
X115747828Y-150398205D01*
X115747828Y-150398205D02*
X115746096Y-150300042D01*
X115746096Y-150300042D02*
X115558308Y-150300042D01*
X115558308Y-150300042D02*
X115557252Y-150383364D01*
X115557252Y-150383364D02*
X115552562Y-150437880D01*
X115552562Y-150437880D02*
X115541949Y-150473837D01*
X115541949Y-150473837D02*
X115523128Y-150501482D01*
X115523128Y-150501482D02*
X115510350Y-150514965D01*
X115510350Y-150514965D02*
X115458110Y-150554417D01*
X115458110Y-150554417D02*
X115411858Y-150557628D01*
X115411858Y-150557628D02*
X115364133Y-150525049D01*
X115364133Y-150525049D02*
X115362923Y-150523846D01*
X115362923Y-150523846D02*
X115343506Y-150498668D01*
X115343506Y-150498668D02*
X115331693Y-150464447D01*
X115331693Y-150464447D02*
X115325735Y-150411748D01*
X115325735Y-150411748D02*
X115323880Y-150331131D01*
X115323880Y-150331131D02*
X115323846Y-150313271D01*
X115323846Y-150313271D02*
X115328330Y-150202175D01*
X115328330Y-150202175D02*
X115342926Y-150125161D01*
X115342926Y-150125161D02*
X115369350Y-150078147D01*
X115369350Y-150078147D02*
X115409317Y-150057050D01*
X115409317Y-150057050D02*
X115432416Y-150054923D01*
X115432416Y-150054923D02*
X115487238Y-150064900D01*
X115487238Y-150064900D02*
X115524842Y-150097752D01*
X115524842Y-150097752D02*
X115547477Y-150157857D01*
X115547477Y-150157857D02*
X115557394Y-150249598D01*
X115557394Y-150249598D02*
X115558308Y-150300042D01*
X115558308Y-150300042D02*
X115746096Y-150300042D01*
X115746096Y-150300042D02*
X115745778Y-150282060D01*
X115745778Y-150282060D02*
X115743127Y-150194679D01*
X115743127Y-150194679D02*
X115739394Y-150130905D01*
X115739394Y-150130905D02*
X115734093Y-150085582D01*
X115734093Y-150085582D02*
X115726742Y-150053555D01*
X115726742Y-150053555D02*
X115716857Y-150029668D01*
X115716857Y-150029668D02*
X115703954Y-150008764D01*
X115703954Y-150008764D02*
X115698421Y-150000898D01*
X115698421Y-150000898D02*
X115625031Y-149926595D01*
X115625031Y-149926595D02*
X115532240Y-149884467D01*
X115532240Y-149884467D02*
X115424904Y-149872722D01*
X115424904Y-149872722D02*
X115331114Y-149884505D01*
X115331114Y-149884505D02*
X115331114Y-149884505D01*
G36*
X115749763Y-150548269D02*
G01*
X115750300Y-150591802D01*
X115752019Y-150737344D01*
X115752365Y-150848711D01*
X115750277Y-150929804D01*
X115744698Y-150984522D01*
X115734567Y-151016761D01*
X115718826Y-151030422D01*
X115696417Y-151029403D01*
X115666280Y-151017603D01*
X115627355Y-150998920D01*
X115619038Y-150994933D01*
X115584402Y-150975419D01*
X115566314Y-150952202D01*
X115559392Y-150913492D01*
X115558256Y-150847497D01*
X115558205Y-150729000D01*
X115436141Y-150729000D01*
X115361055Y-150725712D01*
X115302015Y-150712377D01*
X115252986Y-150685423D01*
X115249330Y-150682788D01*
X115199581Y-150638286D01*
X115164959Y-150584523D01*
X115143123Y-150514154D01*
X115131737Y-150419830D01*
X115128959Y-150313271D01*
X115323846Y-150313271D01*
X115323880Y-150331131D01*
X115325735Y-150411748D01*
X115331693Y-150464447D01*
X115343506Y-150498668D01*
X115362923Y-150523846D01*
X115364133Y-150525049D01*
X115411858Y-150557628D01*
X115458110Y-150554417D01*
X115510350Y-150514965D01*
X115523128Y-150501482D01*
X115541949Y-150473837D01*
X115552562Y-150437880D01*
X115557252Y-150383364D01*
X115558308Y-150300042D01*
X115557394Y-150249598D01*
X115547477Y-150157857D01*
X115524842Y-150097752D01*
X115487238Y-150064900D01*
X115432416Y-150054923D01*
X115409317Y-150057050D01*
X115369350Y-150078147D01*
X115342926Y-150125161D01*
X115328330Y-150202175D01*
X115323846Y-150313271D01*
X115128959Y-150313271D01*
X115128462Y-150294206D01*
X115129187Y-150202536D01*
X115132490Y-150133098D01*
X115139828Y-150084945D01*
X115152655Y-150048866D01*
X115172423Y-150015648D01*
X115190569Y-149990261D01*
X115256461Y-149921727D01*
X115331114Y-149884505D01*
X115424904Y-149872722D01*
X115532240Y-149884467D01*
X115625031Y-149926595D01*
X115698421Y-150000898D01*
X115703954Y-150008764D01*
X115716857Y-150029668D01*
X115726742Y-150053555D01*
X115734093Y-150085582D01*
X115739394Y-150130905D01*
X115743127Y-150194679D01*
X115745778Y-150282060D01*
X115746096Y-150300042D01*
X115747828Y-150398205D01*
X115749763Y-150548269D01*
G37*
X115749763Y-150548269D02*
X115750300Y-150591802D01*
X115752019Y-150737344D01*
X115752365Y-150848711D01*
X115750277Y-150929804D01*
X115744698Y-150984522D01*
X115734567Y-151016761D01*
X115718826Y-151030422D01*
X115696417Y-151029403D01*
X115666280Y-151017603D01*
X115627355Y-150998920D01*
X115619038Y-150994933D01*
X115584402Y-150975419D01*
X115566314Y-150952202D01*
X115559392Y-150913492D01*
X115558256Y-150847497D01*
X115558205Y-150729000D01*
X115436141Y-150729000D01*
X115361055Y-150725712D01*
X115302015Y-150712377D01*
X115252986Y-150685423D01*
X115249330Y-150682788D01*
X115199581Y-150638286D01*
X115164959Y-150584523D01*
X115143123Y-150514154D01*
X115131737Y-150419830D01*
X115128959Y-150313271D01*
X115323846Y-150313271D01*
X115323880Y-150331131D01*
X115325735Y-150411748D01*
X115331693Y-150464447D01*
X115343506Y-150498668D01*
X115362923Y-150523846D01*
X115364133Y-150525049D01*
X115411858Y-150557628D01*
X115458110Y-150554417D01*
X115510350Y-150514965D01*
X115523128Y-150501482D01*
X115541949Y-150473837D01*
X115552562Y-150437880D01*
X115557252Y-150383364D01*
X115558308Y-150300042D01*
X115557394Y-150249598D01*
X115547477Y-150157857D01*
X115524842Y-150097752D01*
X115487238Y-150064900D01*
X115432416Y-150054923D01*
X115409317Y-150057050D01*
X115369350Y-150078147D01*
X115342926Y-150125161D01*
X115328330Y-150202175D01*
X115323846Y-150313271D01*
X115128959Y-150313271D01*
X115128462Y-150294206D01*
X115129187Y-150202536D01*
X115132490Y-150133098D01*
X115139828Y-150084945D01*
X115152655Y-150048866D01*
X115172423Y-150015648D01*
X115190569Y-149990261D01*
X115256461Y-149921727D01*
X115331114Y-149884505D01*
X115424904Y-149872722D01*
X115532240Y-149884467D01*
X115625031Y-149926595D01*
X115698421Y-150000898D01*
X115703954Y-150008764D01*
X115716857Y-150029668D01*
X115726742Y-150053555D01*
X115734093Y-150085582D01*
X115739394Y-150130905D01*
X115743127Y-150194679D01*
X115745778Y-150282060D01*
X115746096Y-150300042D01*
X115747828Y-150398205D01*
X115749763Y-150548269D01*
X116083114Y-149887256D02*
X115991536Y-149935409D01*
X115991536Y-149935409D02*
X115923951Y-150012905D01*
X115923951Y-150012905D02*
X115899943Y-150062727D01*
X115899943Y-150062727D02*
X115881262Y-150137533D01*
X115881262Y-150137533D02*
X115871699Y-150232052D01*
X115871699Y-150232052D02*
X115870792Y-150335210D01*
X115870792Y-150335210D02*
X115878079Y-150435935D01*
X115878079Y-150435935D02*
X115893097Y-150523153D01*
X115893097Y-150523153D02*
X115915385Y-150585791D01*
X115915385Y-150585791D02*
X115922235Y-150596579D01*
X115922235Y-150596579D02*
X116003368Y-150677105D01*
X116003368Y-150677105D02*
X116099734Y-150725336D01*
X116099734Y-150725336D02*
X116204299Y-150739450D01*
X116204299Y-150739450D02*
X116310032Y-150717629D01*
X116310032Y-150717629D02*
X116339457Y-150704547D01*
X116339457Y-150704547D02*
X116396759Y-150664231D01*
X116396759Y-150664231D02*
X116447050Y-150610775D01*
X116447050Y-150610775D02*
X116451803Y-150603995D01*
X116451803Y-150603995D02*
X116471122Y-150571321D01*
X116471122Y-150571321D02*
X116483892Y-150536394D01*
X116483892Y-150536394D02*
X116491436Y-150490414D01*
X116491436Y-150490414D02*
X116495076Y-150424584D01*
X116495076Y-150424584D02*
X116496135Y-150330105D01*
X116496135Y-150330105D02*
X116496154Y-150308923D01*
X116496154Y-150308923D02*
X116496106Y-150302182D01*
X116496106Y-150302182D02*
X116300769Y-150302182D01*
X116300769Y-150302182D02*
X116299632Y-150391349D01*
X116299632Y-150391349D02*
X116295159Y-150450520D01*
X116295159Y-150450520D02*
X116285754Y-150488741D01*
X116285754Y-150488741D02*
X116269824Y-150515053D01*
X116269824Y-150515053D02*
X116261692Y-150523846D01*
X116261692Y-150523846D02*
X116214942Y-150557261D01*
X116214942Y-150557261D02*
X116169553Y-150555737D01*
X116169553Y-150555737D02*
X116123660Y-150526752D01*
X116123660Y-150526752D02*
X116096288Y-150495809D01*
X116096288Y-150495809D02*
X116080077Y-150450643D01*
X116080077Y-150450643D02*
X116070974Y-150379420D01*
X116070974Y-150379420D02*
X116070349Y-150371114D01*
X116070349Y-150371114D02*
X116068796Y-150242037D01*
X116068796Y-150242037D02*
X116085035Y-150146172D01*
X116085035Y-150146172D02*
X116118848Y-150084107D01*
X116118848Y-150084107D02*
X116170016Y-150056432D01*
X116170016Y-150056432D02*
X116188280Y-150054923D01*
X116188280Y-150054923D02*
X116236240Y-150062513D01*
X116236240Y-150062513D02*
X116269047Y-150088808D01*
X116269047Y-150088808D02*
X116289105Y-150139095D01*
X116289105Y-150139095D02*
X116298822Y-150218664D01*
X116298822Y-150218664D02*
X116300769Y-150302182D01*
X116300769Y-150302182D02*
X116496106Y-150302182D01*
X116496106Y-150302182D02*
X116495426Y-150208249D01*
X116495426Y-150208249D02*
X116492371Y-150137906D01*
X116492371Y-150137906D02*
X116485678Y-150089163D01*
X116485678Y-150089163D02*
X116474040Y-150053288D01*
X116474040Y-150053288D02*
X116456147Y-150021548D01*
X116456147Y-150021548D02*
X116452192Y-150015648D01*
X116452192Y-150015648D02*
X116385733Y-149936104D01*
X116385733Y-149936104D02*
X116313315Y-149889929D01*
X116313315Y-149889929D02*
X116225151Y-149871599D01*
X116225151Y-149871599D02*
X116195213Y-149870703D01*
X116195213Y-149870703D02*
X116083114Y-149887256D01*
X116083114Y-149887256D02*
X116083114Y-149887256D01*
G36*
X116496135Y-150330105D02*
G01*
X116495076Y-150424584D01*
X116491436Y-150490414D01*
X116483892Y-150536394D01*
X116471122Y-150571321D01*
X116451803Y-150603995D01*
X116447050Y-150610775D01*
X116396759Y-150664231D01*
X116339457Y-150704547D01*
X116310032Y-150717629D01*
X116204299Y-150739450D01*
X116099734Y-150725336D01*
X116003368Y-150677105D01*
X115922235Y-150596579D01*
X115915385Y-150585791D01*
X115893097Y-150523153D01*
X115878079Y-150435935D01*
X115870792Y-150335210D01*
X115871611Y-150242037D01*
X116068796Y-150242037D01*
X116070349Y-150371114D01*
X116070974Y-150379420D01*
X116080077Y-150450643D01*
X116096288Y-150495809D01*
X116123660Y-150526752D01*
X116169553Y-150555737D01*
X116214942Y-150557261D01*
X116261692Y-150523846D01*
X116269824Y-150515053D01*
X116285754Y-150488741D01*
X116295159Y-150450520D01*
X116299632Y-150391349D01*
X116300769Y-150302182D01*
X116298822Y-150218664D01*
X116289105Y-150139095D01*
X116269047Y-150088808D01*
X116236240Y-150062513D01*
X116188280Y-150054923D01*
X116170016Y-150056432D01*
X116118848Y-150084107D01*
X116085035Y-150146172D01*
X116068796Y-150242037D01*
X115871611Y-150242037D01*
X115871699Y-150232052D01*
X115881262Y-150137533D01*
X115899943Y-150062727D01*
X115923951Y-150012905D01*
X115991536Y-149935409D01*
X116083114Y-149887256D01*
X116195213Y-149870703D01*
X116225151Y-149871599D01*
X116313315Y-149889929D01*
X116385733Y-149936104D01*
X116452192Y-150015648D01*
X116456147Y-150021548D01*
X116474040Y-150053288D01*
X116485678Y-150089163D01*
X116492371Y-150137906D01*
X116495426Y-150208249D01*
X116496106Y-150302182D01*
X116496154Y-150308923D01*
X116496135Y-150330105D01*
G37*
X116496135Y-150330105D02*
X116495076Y-150424584D01*
X116491436Y-150490414D01*
X116483892Y-150536394D01*
X116471122Y-150571321D01*
X116451803Y-150603995D01*
X116447050Y-150610775D01*
X116396759Y-150664231D01*
X116339457Y-150704547D01*
X116310032Y-150717629D01*
X116204299Y-150739450D01*
X116099734Y-150725336D01*
X116003368Y-150677105D01*
X115922235Y-150596579D01*
X115915385Y-150585791D01*
X115893097Y-150523153D01*
X115878079Y-150435935D01*
X115870792Y-150335210D01*
X115871611Y-150242037D01*
X116068796Y-150242037D01*
X116070349Y-150371114D01*
X116070974Y-150379420D01*
X116080077Y-150450643D01*
X116096288Y-150495809D01*
X116123660Y-150526752D01*
X116169553Y-150555737D01*
X116214942Y-150557261D01*
X116261692Y-150523846D01*
X116269824Y-150515053D01*
X116285754Y-150488741D01*
X116295159Y-150450520D01*
X116299632Y-150391349D01*
X116300769Y-150302182D01*
X116298822Y-150218664D01*
X116289105Y-150139095D01*
X116269047Y-150088808D01*
X116236240Y-150062513D01*
X116188280Y-150054923D01*
X116170016Y-150056432D01*
X116118848Y-150084107D01*
X116085035Y-150146172D01*
X116068796Y-150242037D01*
X115871611Y-150242037D01*
X115871699Y-150232052D01*
X115881262Y-150137533D01*
X115899943Y-150062727D01*
X115923951Y-150012905D01*
X115991536Y-149935409D01*
X116083114Y-149887256D01*
X116195213Y-149870703D01*
X116225151Y-149871599D01*
X116313315Y-149889929D01*
X116385733Y-149936104D01*
X116452192Y-150015648D01*
X116456147Y-150021548D01*
X116474040Y-150053288D01*
X116485678Y-150089163D01*
X116492371Y-150137906D01*
X116495426Y-150208249D01*
X116496106Y-150302182D01*
X116496154Y-150308923D01*
X116496135Y-150330105D01*
X111960122Y-143587776D02*
X111854388Y-143588355D01*
X111854388Y-143588355D02*
X111777868Y-143589922D01*
X111777868Y-143589922D02*
X111725628Y-143592972D01*
X111725628Y-143592972D02*
X111692737Y-143597996D01*
X111692737Y-143597996D02*
X111674263Y-143605489D01*
X111674263Y-143605489D02*
X111665273Y-143615944D01*
X111665273Y-143615944D02*
X111660837Y-143629853D01*
X111660837Y-143629853D02*
X111660406Y-143631654D01*
X111660406Y-143631654D02*
X111653667Y-143664145D01*
X111653667Y-143664145D02*
X111641192Y-143728252D01*
X111641192Y-143728252D02*
X111624281Y-143817151D01*
X111624281Y-143817151D02*
X111604229Y-143924019D01*
X111604229Y-143924019D02*
X111582336Y-144042033D01*
X111582336Y-144042033D02*
X111581571Y-144046178D01*
X111581571Y-144046178D02*
X111559641Y-144161831D01*
X111559641Y-144161831D02*
X111539123Y-144264014D01*
X111539123Y-144264014D02*
X111521341Y-144346598D01*
X111521341Y-144346598D02*
X111507619Y-144403456D01*
X111507619Y-144403456D02*
X111499282Y-144428458D01*
X111499282Y-144428458D02*
X111498884Y-144428901D01*
X111498884Y-144428901D02*
X111474323Y-144441110D01*
X111474323Y-144441110D02*
X111423685Y-144461456D01*
X111423685Y-144461456D02*
X111357905Y-144485545D01*
X111357905Y-144485545D02*
X111357539Y-144485674D01*
X111357539Y-144485674D02*
X111274683Y-144516818D01*
X111274683Y-144516818D02*
X111177000Y-144556491D01*
X111177000Y-144556491D02*
X111084923Y-144596381D01*
X111084923Y-144596381D02*
X111080566Y-144598353D01*
X111080566Y-144598353D02*
X110930593Y-144666420D01*
X110930593Y-144666420D02*
X110598502Y-144439639D01*
X110598502Y-144439639D02*
X110496626Y-144370504D01*
X110496626Y-144370504D02*
X110404343Y-144308697D01*
X110404343Y-144308697D02*
X110326997Y-144257733D01*
X110326997Y-144257733D02*
X110269936Y-144221127D01*
X110269936Y-144221127D02*
X110238505Y-144202394D01*
X110238505Y-144202394D02*
X110235521Y-144201004D01*
X110235521Y-144201004D02*
X110212679Y-144207190D01*
X110212679Y-144207190D02*
X110170018Y-144237035D01*
X110170018Y-144237035D02*
X110105872Y-144291947D01*
X110105872Y-144291947D02*
X110018579Y-144373334D01*
X110018579Y-144373334D02*
X109929465Y-144459922D01*
X109929465Y-144459922D02*
X109843559Y-144545247D01*
X109843559Y-144545247D02*
X109766673Y-144623108D01*
X109766673Y-144623108D02*
X109703436Y-144688697D01*
X109703436Y-144688697D02*
X109658477Y-144737205D01*
X109658477Y-144737205D02*
X109636424Y-144763825D01*
X109636424Y-144763825D02*
X109635604Y-144765195D01*
X109635604Y-144765195D02*
X109633166Y-144783463D01*
X109633166Y-144783463D02*
X109642350Y-144813295D01*
X109642350Y-144813295D02*
X109665426Y-144858721D01*
X109665426Y-144858721D02*
X109704663Y-144923770D01*
X109704663Y-144923770D02*
X109762330Y-145012470D01*
X109762330Y-145012470D02*
X109839205Y-145126657D01*
X109839205Y-145126657D02*
X109907430Y-145227162D01*
X109907430Y-145227162D02*
X109968418Y-145317303D01*
X109968418Y-145317303D02*
X110018644Y-145391849D01*
X110018644Y-145391849D02*
X110054584Y-145445565D01*
X110054584Y-145445565D02*
X110072713Y-145473218D01*
X110072713Y-145473218D02*
X110073854Y-145475095D01*
X110073854Y-145475095D02*
X110071641Y-145501590D01*
X110071641Y-145501590D02*
X110054862Y-145553086D01*
X110054862Y-145553086D02*
X110026858Y-145619851D01*
X110026858Y-145619851D02*
X110016878Y-145641172D01*
X110016878Y-145641172D02*
X109973328Y-145736159D01*
X109973328Y-145736159D02*
X109926866Y-145843937D01*
X109926866Y-145843937D02*
X109889123Y-145937192D01*
X109889123Y-145937192D02*
X109861927Y-146006406D01*
X109861927Y-146006406D02*
X109840325Y-146059006D01*
X109840325Y-146059006D02*
X109827842Y-146086497D01*
X109827842Y-146086497D02*
X109826291Y-146088616D01*
X109826291Y-146088616D02*
X109803332Y-146092124D01*
X109803332Y-146092124D02*
X109749214Y-146101738D01*
X109749214Y-146101738D02*
X109671132Y-146116089D01*
X109671132Y-146116089D02*
X109576281Y-146133807D01*
X109576281Y-146133807D02*
X109471857Y-146153525D01*
X109471857Y-146153525D02*
X109365056Y-146173874D01*
X109365056Y-146173874D02*
X109263074Y-146193486D01*
X109263074Y-146193486D02*
X109173106Y-146210991D01*
X109173106Y-146210991D02*
X109102347Y-146225022D01*
X109102347Y-146225022D02*
X109057994Y-146234209D01*
X109057994Y-146234209D02*
X109047115Y-146236807D01*
X109047115Y-146236807D02*
X109035878Y-146243218D01*
X109035878Y-146243218D02*
X109027395Y-146257697D01*
X109027395Y-146257697D02*
X109021286Y-146285133D01*
X109021286Y-146285133D02*
X109017168Y-146330411D01*
X109017168Y-146330411D02*
X109014659Y-146398420D01*
X109014659Y-146398420D02*
X109013379Y-146494047D01*
X109013379Y-146494047D02*
X109012946Y-146622180D01*
X109012946Y-146622180D02*
X109012923Y-146674701D01*
X109012923Y-146674701D02*
X109012923Y-147101845D01*
X109012923Y-147101845D02*
X109115500Y-147122091D01*
X109115500Y-147122091D02*
X109172569Y-147133070D01*
X109172569Y-147133070D02*
X109257731Y-147149095D01*
X109257731Y-147149095D02*
X109360628Y-147168233D01*
X109360628Y-147168233D02*
X109470904Y-147188551D01*
X109470904Y-147188551D02*
X109501385Y-147194132D01*
X109501385Y-147194132D02*
X109603145Y-147213917D01*
X109603145Y-147213917D02*
X109691795Y-147233373D01*
X109691795Y-147233373D02*
X109759892Y-147250697D01*
X109759892Y-147250697D02*
X109799996Y-147264088D01*
X109799996Y-147264088D02*
X109806677Y-147268079D01*
X109806677Y-147268079D02*
X109823081Y-147296342D01*
X109823081Y-147296342D02*
X109846601Y-147351109D01*
X109846601Y-147351109D02*
X109872684Y-147421588D01*
X109872684Y-147421588D02*
X109877858Y-147436769D01*
X109877858Y-147436769D02*
X109912044Y-147530896D01*
X109912044Y-147530896D02*
X109954477Y-147637101D01*
X109954477Y-147637101D02*
X109996003Y-147732473D01*
X109996003Y-147732473D02*
X109996208Y-147732916D01*
X109996208Y-147732916D02*
X110065360Y-147882525D01*
X110065360Y-147882525D02*
X109610488Y-148551617D01*
X109610488Y-148551617D02*
X109902500Y-148844116D01*
X109902500Y-148844116D02*
X109990820Y-148931170D01*
X109990820Y-148931170D02*
X110071375Y-149007909D01*
X110071375Y-149007909D02*
X110139640Y-149070237D01*
X110139640Y-149070237D02*
X110191092Y-149114056D01*
X110191092Y-149114056D02*
X110221206Y-149135270D01*
X110221206Y-149135270D02*
X110225526Y-149136616D01*
X110225526Y-149136616D02*
X110250889Y-149126016D01*
X110250889Y-149126016D02*
X110302642Y-149096547D01*
X110302642Y-149096547D02*
X110375132Y-149051705D01*
X110375132Y-149051705D02*
X110462706Y-148994984D01*
X110462706Y-148994984D02*
X110557388Y-148931462D01*
X110557388Y-148931462D02*
X110653484Y-148866668D01*
X110653484Y-148866668D02*
X110739163Y-148810287D01*
X110739163Y-148810287D02*
X110808984Y-148765788D01*
X110808984Y-148765788D02*
X110857506Y-148736639D01*
X110857506Y-148736639D02*
X110879218Y-148726308D01*
X110879218Y-148726308D02*
X110905707Y-148735050D01*
X110905707Y-148735050D02*
X110955938Y-148758087D01*
X110955938Y-148758087D02*
X111019549Y-148790631D01*
X111019549Y-148790631D02*
X111026292Y-148794249D01*
X111026292Y-148794249D02*
X111111954Y-148837210D01*
X111111954Y-148837210D02*
X111170694Y-148858279D01*
X111170694Y-148858279D02*
X111207228Y-148858503D01*
X111207228Y-148858503D02*
X111226269Y-148838928D01*
X111226269Y-148838928D02*
X111226380Y-148838654D01*
X111226380Y-148838654D02*
X111235898Y-148815472D01*
X111235898Y-148815472D02*
X111258597Y-148760441D01*
X111258597Y-148760441D02*
X111292718Y-148677822D01*
X111292718Y-148677822D02*
X111336500Y-148571872D01*
X111336500Y-148571872D02*
X111388184Y-148446852D01*
X111388184Y-148446852D02*
X111446008Y-148307020D01*
X111446008Y-148307020D02*
X111502009Y-148171637D01*
X111502009Y-148171637D02*
X111563553Y-148022234D01*
X111563553Y-148022234D02*
X111620061Y-147883832D01*
X111620061Y-147883832D02*
X111669839Y-147760673D01*
X111669839Y-147760673D02*
X111711194Y-147657002D01*
X111711194Y-147657002D02*
X111742432Y-147577059D01*
X111742432Y-147577059D02*
X111761859Y-147525088D01*
X111761859Y-147525088D02*
X111767846Y-147505692D01*
X111767846Y-147505692D02*
X111752832Y-147483443D01*
X111752832Y-147483443D02*
X111713561Y-147447982D01*
X111713561Y-147447982D02*
X111661193Y-147408887D01*
X111661193Y-147408887D02*
X111512059Y-147285245D01*
X111512059Y-147285245D02*
X111395489Y-147143522D01*
X111395489Y-147143522D02*
X111312882Y-146986704D01*
X111312882Y-146986704D02*
X111265634Y-146817775D01*
X111265634Y-146817775D02*
X111255143Y-146639722D01*
X111255143Y-146639722D02*
X111262769Y-146557539D01*
X111262769Y-146557539D02*
X111304318Y-146387031D01*
X111304318Y-146387031D02*
X111375877Y-146236459D01*
X111375877Y-146236459D02*
X111473005Y-146107309D01*
X111473005Y-146107309D02*
X111591266Y-146001064D01*
X111591266Y-146001064D02*
X111726220Y-145919210D01*
X111726220Y-145919210D02*
X111873429Y-145863232D01*
X111873429Y-145863232D02*
X112028456Y-145834615D01*
X112028456Y-145834615D02*
X112186861Y-145834844D01*
X112186861Y-145834844D02*
X112344206Y-145865405D01*
X112344206Y-145865405D02*
X112496054Y-145927782D01*
X112496054Y-145927782D02*
X112637965Y-146023460D01*
X112637965Y-146023460D02*
X112697197Y-146077572D01*
X112697197Y-146077572D02*
X112810797Y-146216520D01*
X112810797Y-146216520D02*
X112889894Y-146368361D01*
X112889894Y-146368361D02*
X112935014Y-146528667D01*
X112935014Y-146528667D02*
X112946684Y-146693012D01*
X112946684Y-146693012D02*
X112925431Y-146856971D01*
X112925431Y-146856971D02*
X112871780Y-147016118D01*
X112871780Y-147016118D02*
X112786260Y-147166025D01*
X112786260Y-147166025D02*
X112669395Y-147302267D01*
X112669395Y-147302267D02*
X112538807Y-147408887D01*
X112538807Y-147408887D02*
X112484412Y-147449642D01*
X112484412Y-147449642D02*
X112445986Y-147484718D01*
X112445986Y-147484718D02*
X112432154Y-147505726D01*
X112432154Y-147505726D02*
X112439397Y-147528635D01*
X112439397Y-147528635D02*
X112459995Y-147583365D01*
X112459995Y-147583365D02*
X112492254Y-147665672D01*
X112492254Y-147665672D02*
X112534479Y-147771315D01*
X112534479Y-147771315D02*
X112584977Y-147896050D01*
X112584977Y-147896050D02*
X112642052Y-148035636D01*
X112642052Y-148035636D02*
X112698146Y-148171670D01*
X112698146Y-148171670D02*
X112760033Y-148321201D01*
X112760033Y-148321201D02*
X112817356Y-148459767D01*
X112817356Y-148459767D02*
X112868356Y-148583107D01*
X112868356Y-148583107D02*
X112911273Y-148686964D01*
X112911273Y-148686964D02*
X112944347Y-148767080D01*
X112944347Y-148767080D02*
X112965819Y-148819195D01*
X112965819Y-148819195D02*
X112973775Y-148838654D01*
X112973775Y-148838654D02*
X112992571Y-148858423D01*
X112992571Y-148858423D02*
X113028926Y-148858365D01*
X113028926Y-148858365D02*
X113087521Y-148837441D01*
X113087521Y-148837441D02*
X113173032Y-148794613D01*
X113173032Y-148794613D02*
X113173708Y-148794249D01*
X113173708Y-148794249D02*
X113238093Y-148761012D01*
X113238093Y-148761012D02*
X113290139Y-148736802D01*
X113290139Y-148736802D02*
X113319488Y-148726404D01*
X113319488Y-148726404D02*
X113320783Y-148726308D01*
X113320783Y-148726308D02*
X113342876Y-148736855D01*
X113342876Y-148736855D02*
X113391652Y-148766184D01*
X113391652Y-148766184D02*
X113461669Y-148810827D01*
X113461669Y-148810827D02*
X113547486Y-148867314D01*
X113547486Y-148867314D02*
X113642612Y-148931462D01*
X113642612Y-148931462D02*
X113739460Y-148996411D01*
X113739460Y-148996411D02*
X113826747Y-149052896D01*
X113826747Y-149052896D02*
X113898819Y-149097421D01*
X113898819Y-149097421D02*
X113950023Y-149126490D01*
X113950023Y-149126490D02*
X113974474Y-149136616D01*
X113974474Y-149136616D02*
X113996990Y-149123307D01*
X113996990Y-149123307D02*
X114042258Y-149086112D01*
X114042258Y-149086112D02*
X114105756Y-149029128D01*
X114105756Y-149029128D02*
X114182961Y-148956449D01*
X114182961Y-148956449D02*
X114269349Y-148872171D01*
X114269349Y-148872171D02*
X114297601Y-148844016D01*
X114297601Y-148844016D02*
X114589713Y-148551416D01*
X114589713Y-148551416D02*
X114367369Y-148225104D01*
X114367369Y-148225104D02*
X114299798Y-148124897D01*
X114299798Y-148124897D02*
X114240493Y-148034963D01*
X114240493Y-148034963D02*
X114192783Y-147960510D01*
X114192783Y-147960510D02*
X114159993Y-147906751D01*
X114159993Y-147906751D02*
X114145452Y-147878894D01*
X114145452Y-147878894D02*
X114145026Y-147876912D01*
X114145026Y-147876912D02*
X114152692Y-147850655D01*
X114152692Y-147850655D02*
X114173311Y-147797837D01*
X114173311Y-147797837D02*
X114203315Y-147727310D01*
X114203315Y-147727310D02*
X114224375Y-147680093D01*
X114224375Y-147680093D02*
X114263752Y-147589694D01*
X114263752Y-147589694D02*
X114300835Y-147498366D01*
X114300835Y-147498366D02*
X114329585Y-147421200D01*
X114329585Y-147421200D02*
X114337395Y-147397692D01*
X114337395Y-147397692D02*
X114359583Y-147334916D01*
X114359583Y-147334916D02*
X114381273Y-147286411D01*
X114381273Y-147286411D02*
X114393187Y-147268079D01*
X114393187Y-147268079D02*
X114419477Y-147256859D01*
X114419477Y-147256859D02*
X114476858Y-147240954D01*
X114476858Y-147240954D02*
X114557882Y-147222167D01*
X114557882Y-147222167D02*
X114655105Y-147202299D01*
X114655105Y-147202299D02*
X114698615Y-147194132D01*
X114698615Y-147194132D02*
X114809104Y-147173829D01*
X114809104Y-147173829D02*
X114915084Y-147154170D01*
X114915084Y-147154170D02*
X115006199Y-147137088D01*
X115006199Y-147137088D02*
X115072092Y-147124518D01*
X115072092Y-147124518D02*
X115084500Y-147122091D01*
X115084500Y-147122091D02*
X115187077Y-147101845D01*
X115187077Y-147101845D02*
X115187077Y-146674701D01*
X115187077Y-146674701D02*
X115186847Y-146534246D01*
X115186847Y-146534246D02*
X115185901Y-146427979D01*
X115185901Y-146427979D02*
X115183859Y-146351013D01*
X115183859Y-146351013D02*
X115180338Y-146298460D01*
X115180338Y-146298460D02*
X115174957Y-146265433D01*
X115174957Y-146265433D02*
X115167334Y-146247045D01*
X115167334Y-146247045D02*
X115157088Y-146238408D01*
X115157088Y-146238408D02*
X115152885Y-146236807D01*
X115152885Y-146236807D02*
X115127530Y-146231127D01*
X115127530Y-146231127D02*
X115071516Y-146219795D01*
X115071516Y-146219795D02*
X114992036Y-146204179D01*
X114992036Y-146204179D02*
X114896288Y-146185647D01*
X114896288Y-146185647D02*
X114791467Y-146165569D01*
X114791467Y-146165569D02*
X114684768Y-146145312D01*
X114684768Y-146145312D02*
X114583387Y-146126246D01*
X114583387Y-146126246D02*
X114494521Y-146109739D01*
X114494521Y-146109739D02*
X114425363Y-146097159D01*
X114425363Y-146097159D02*
X114383111Y-146089875D01*
X114383111Y-146089875D02*
X114373710Y-146088616D01*
X114373710Y-146088616D02*
X114365193Y-146071763D01*
X114365193Y-146071763D02*
X114346340Y-146026870D01*
X114346340Y-146026870D02*
X114320676Y-145962430D01*
X114320676Y-145962430D02*
X114310877Y-145937192D01*
X114310877Y-145937192D02*
X114271352Y-145839686D01*
X114271352Y-145839686D02*
X114224808Y-145731959D01*
X114224808Y-145731959D02*
X114183123Y-145641172D01*
X114183123Y-145641172D02*
X114152450Y-145571753D01*
X114152450Y-145571753D02*
X114132044Y-145514710D01*
X114132044Y-145514710D02*
X114125232Y-145479777D01*
X114125232Y-145479777D02*
X114126318Y-145475095D01*
X114126318Y-145475095D02*
X114140715Y-145452991D01*
X114140715Y-145452991D02*
X114173588Y-145403831D01*
X114173588Y-145403831D02*
X114221410Y-145332848D01*
X114221410Y-145332848D02*
X114280652Y-145245278D01*
X114280652Y-145245278D02*
X114347785Y-145146357D01*
X114347785Y-145146357D02*
X114361059Y-145126830D01*
X114361059Y-145126830D02*
X114438954Y-145011140D01*
X114438954Y-145011140D02*
X114496213Y-144923044D01*
X114496213Y-144923044D02*
X114535119Y-144858486D01*
X114535119Y-144858486D02*
X114557956Y-144813411D01*
X114557956Y-144813411D02*
X114567006Y-144783763D01*
X114567006Y-144783763D02*
X114564552Y-144765485D01*
X114564552Y-144765485D02*
X114564489Y-144765369D01*
X114564489Y-144765369D02*
X114545173Y-144741361D01*
X114545173Y-144741361D02*
X114502449Y-144694947D01*
X114502449Y-144694947D02*
X114440949Y-144630937D01*
X114440949Y-144630937D02*
X114365302Y-144554145D01*
X114365302Y-144554145D02*
X114280139Y-144469382D01*
X114280139Y-144469382D02*
X114270535Y-144459922D01*
X114270535Y-144459922D02*
X114163210Y-144355989D01*
X114163210Y-144355989D02*
X114080385Y-144279675D01*
X114080385Y-144279675D02*
X114020395Y-144229571D01*
X114020395Y-144229571D02*
X113981577Y-144204270D01*
X113981577Y-144204270D02*
X113964480Y-144201004D01*
X113964480Y-144201004D02*
X113939527Y-144215250D01*
X113939527Y-144215250D02*
X113887745Y-144248156D01*
X113887745Y-144248156D02*
X113814480Y-144296208D01*
X113814480Y-144296208D02*
X113725080Y-144355890D01*
X113725080Y-144355890D02*
X113624889Y-144423688D01*
X113624889Y-144423688D02*
X113601499Y-144439639D01*
X113601499Y-144439639D02*
X113269407Y-144666420D01*
X113269407Y-144666420D02*
X113119435Y-144598353D01*
X113119435Y-144598353D02*
X113028230Y-144558685D01*
X113028230Y-144558685D02*
X112930331Y-144518791D01*
X112930331Y-144518791D02*
X112846169Y-144486983D01*
X112846169Y-144486983D02*
X112842462Y-144485674D01*
X112842462Y-144485674D02*
X112776631Y-144461576D01*
X112776631Y-144461576D02*
X112725884Y-144441200D01*
X112725884Y-144441200D02*
X112701158Y-144428936D01*
X112701158Y-144428936D02*
X112701116Y-144428901D01*
X112701116Y-144428901D02*
X112693271Y-144406734D01*
X112693271Y-144406734D02*
X112679934Y-144352217D01*
X112679934Y-144352217D02*
X112662430Y-144271480D01*
X112662430Y-144271480D02*
X112642083Y-144170650D01*
X112642083Y-144170650D02*
X112620218Y-144055856D01*
X112620218Y-144055856D02*
X112618429Y-144046178D01*
X112618429Y-144046178D02*
X112596496Y-143927904D01*
X112596496Y-143927904D02*
X112576360Y-143820542D01*
X112576360Y-143820542D02*
X112559320Y-143730917D01*
X112559320Y-143730917D02*
X112546672Y-143665851D01*
X112546672Y-143665851D02*
X112539716Y-143632168D01*
X112539716Y-143632168D02*
X112539594Y-143631654D01*
X112539594Y-143631654D02*
X112535361Y-143617325D01*
X112535361Y-143617325D02*
X112527129Y-143606507D01*
X112527129Y-143606507D02*
X112509967Y-143598706D01*
X112509967Y-143598706D02*
X112478942Y-143593429D01*
X112478942Y-143593429D02*
X112429122Y-143590182D01*
X112429122Y-143590182D02*
X112355576Y-143588472D01*
X112355576Y-143588472D02*
X112253371Y-143587807D01*
X112253371Y-143587807D02*
X112117575Y-143587693D01*
X112117575Y-143587693D02*
X112100000Y-143587692D01*
X112100000Y-143587692D02*
X111960122Y-143587776D01*
X111960122Y-143587776D02*
X111960122Y-143587776D01*
G36*
X112117575Y-143587693D02*
G01*
X112253371Y-143587807D01*
X112355576Y-143588472D01*
X112429122Y-143590182D01*
X112478942Y-143593429D01*
X112509967Y-143598706D01*
X112527129Y-143606507D01*
X112535361Y-143617325D01*
X112539594Y-143631654D01*
X112539716Y-143632168D01*
X112546672Y-143665851D01*
X112559320Y-143730917D01*
X112576360Y-143820542D01*
X112596496Y-143927904D01*
X112618429Y-144046178D01*
X112620218Y-144055856D01*
X112642083Y-144170650D01*
X112662430Y-144271480D01*
X112679934Y-144352217D01*
X112693271Y-144406734D01*
X112701116Y-144428901D01*
X112701158Y-144428936D01*
X112725884Y-144441200D01*
X112776631Y-144461576D01*
X112842462Y-144485674D01*
X112846169Y-144486983D01*
X112930331Y-144518791D01*
X113028230Y-144558685D01*
X113119435Y-144598353D01*
X113269407Y-144666420D01*
X113601499Y-144439639D01*
X113624889Y-144423688D01*
X113725080Y-144355890D01*
X113814480Y-144296208D01*
X113887745Y-144248156D01*
X113939527Y-144215250D01*
X113964480Y-144201004D01*
X113981577Y-144204270D01*
X114020395Y-144229571D01*
X114080385Y-144279675D01*
X114163210Y-144355989D01*
X114270535Y-144459922D01*
X114280139Y-144469382D01*
X114365302Y-144554145D01*
X114440949Y-144630937D01*
X114502449Y-144694947D01*
X114545173Y-144741361D01*
X114564489Y-144765369D01*
X114564552Y-144765485D01*
X114567006Y-144783763D01*
X114557956Y-144813411D01*
X114535119Y-144858486D01*
X114496213Y-144923044D01*
X114438954Y-145011140D01*
X114361059Y-145126830D01*
X114347785Y-145146357D01*
X114280652Y-145245278D01*
X114221410Y-145332848D01*
X114173588Y-145403831D01*
X114140715Y-145452991D01*
X114126318Y-145475095D01*
X114125232Y-145479777D01*
X114132044Y-145514710D01*
X114152450Y-145571753D01*
X114183123Y-145641172D01*
X114224808Y-145731959D01*
X114271352Y-145839686D01*
X114310877Y-145937192D01*
X114320676Y-145962430D01*
X114346340Y-146026870D01*
X114365193Y-146071763D01*
X114373710Y-146088616D01*
X114383111Y-146089875D01*
X114425363Y-146097159D01*
X114494521Y-146109739D01*
X114583387Y-146126246D01*
X114684768Y-146145312D01*
X114791467Y-146165569D01*
X114896288Y-146185647D01*
X114992036Y-146204179D01*
X115071516Y-146219795D01*
X115127530Y-146231127D01*
X115152885Y-146236807D01*
X115157088Y-146238408D01*
X115167334Y-146247045D01*
X115174957Y-146265433D01*
X115180338Y-146298460D01*
X115183859Y-146351013D01*
X115185901Y-146427979D01*
X115186847Y-146534246D01*
X115187077Y-146674701D01*
X115187077Y-147101845D01*
X115084500Y-147122091D01*
X115072092Y-147124518D01*
X115006199Y-147137088D01*
X114915084Y-147154170D01*
X114809104Y-147173829D01*
X114698615Y-147194132D01*
X114655105Y-147202299D01*
X114557882Y-147222167D01*
X114476858Y-147240954D01*
X114419477Y-147256859D01*
X114393187Y-147268079D01*
X114381273Y-147286411D01*
X114359583Y-147334916D01*
X114337395Y-147397692D01*
X114329585Y-147421200D01*
X114300835Y-147498366D01*
X114263752Y-147589694D01*
X114224375Y-147680093D01*
X114203315Y-147727310D01*
X114173311Y-147797837D01*
X114152692Y-147850655D01*
X114145026Y-147876912D01*
X114145452Y-147878894D01*
X114159993Y-147906751D01*
X114192783Y-147960510D01*
X114240493Y-148034963D01*
X114299798Y-148124897D01*
X114367369Y-148225104D01*
X114589713Y-148551416D01*
X114297601Y-148844016D01*
X114269349Y-148872171D01*
X114182961Y-148956449D01*
X114105756Y-149029128D01*
X114042258Y-149086112D01*
X113996990Y-149123307D01*
X113974474Y-149136616D01*
X113950023Y-149126490D01*
X113898819Y-149097421D01*
X113826747Y-149052896D01*
X113739460Y-148996411D01*
X113642612Y-148931462D01*
X113547486Y-148867314D01*
X113461669Y-148810827D01*
X113391652Y-148766184D01*
X113342876Y-148736855D01*
X113320783Y-148726308D01*
X113319488Y-148726404D01*
X113290139Y-148736802D01*
X113238093Y-148761012D01*
X113173708Y-148794249D01*
X113173032Y-148794613D01*
X113087521Y-148837441D01*
X113028926Y-148858365D01*
X112992571Y-148858423D01*
X112973775Y-148838654D01*
X112965819Y-148819195D01*
X112944347Y-148767080D01*
X112911273Y-148686964D01*
X112868356Y-148583107D01*
X112817356Y-148459767D01*
X112760033Y-148321201D01*
X112698146Y-148171670D01*
X112642052Y-148035636D01*
X112584977Y-147896050D01*
X112534479Y-147771315D01*
X112492254Y-147665672D01*
X112459995Y-147583365D01*
X112439397Y-147528635D01*
X112432154Y-147505726D01*
X112445986Y-147484718D01*
X112484412Y-147449642D01*
X112538807Y-147408887D01*
X112669395Y-147302267D01*
X112786260Y-147166025D01*
X112871780Y-147016118D01*
X112925431Y-146856971D01*
X112946684Y-146693012D01*
X112935014Y-146528667D01*
X112889894Y-146368361D01*
X112810797Y-146216520D01*
X112697197Y-146077572D01*
X112637965Y-146023460D01*
X112496054Y-145927782D01*
X112344206Y-145865405D01*
X112186861Y-145834844D01*
X112028456Y-145834615D01*
X111873429Y-145863232D01*
X111726220Y-145919210D01*
X111591266Y-146001064D01*
X111473005Y-146107309D01*
X111375877Y-146236459D01*
X111304318Y-146387031D01*
X111262769Y-146557539D01*
X111255143Y-146639722D01*
X111265634Y-146817775D01*
X111312882Y-146986704D01*
X111395489Y-147143522D01*
X111512059Y-147285245D01*
X111661193Y-147408887D01*
X111713561Y-147447982D01*
X111752832Y-147483443D01*
X111767846Y-147505692D01*
X111761859Y-147525088D01*
X111742432Y-147577059D01*
X111711194Y-147657002D01*
X111669839Y-147760673D01*
X111620061Y-147883832D01*
X111563553Y-148022234D01*
X111502009Y-148171637D01*
X111446008Y-148307020D01*
X111388184Y-148446852D01*
X111336500Y-148571872D01*
X111292718Y-148677822D01*
X111258597Y-148760441D01*
X111235898Y-148815472D01*
X111226380Y-148838654D01*
X111226269Y-148838928D01*
X111207228Y-148858503D01*
X111170694Y-148858279D01*
X111111954Y-148837210D01*
X111026292Y-148794249D01*
X111019549Y-148790631D01*
X110955938Y-148758087D01*
X110905707Y-148735050D01*
X110879218Y-148726308D01*
X110857506Y-148736639D01*
X110808984Y-148765788D01*
X110739163Y-148810287D01*
X110653484Y-148866668D01*
X110557388Y-148931462D01*
X110462706Y-148994984D01*
X110375132Y-149051705D01*
X110302642Y-149096547D01*
X110250889Y-149126016D01*
X110225526Y-149136616D01*
X110221206Y-149135270D01*
X110191092Y-149114056D01*
X110139640Y-149070237D01*
X110071375Y-149007909D01*
X109990820Y-148931170D01*
X109902500Y-148844116D01*
X109610488Y-148551617D01*
X110065360Y-147882525D01*
X109996208Y-147732916D01*
X109996003Y-147732473D01*
X109954477Y-147637101D01*
X109912044Y-147530896D01*
X109877858Y-147436769D01*
X109872684Y-147421588D01*
X109846601Y-147351109D01*
X109823081Y-147296342D01*
X109806677Y-147268079D01*
X109799996Y-147264088D01*
X109759892Y-147250697D01*
X109691795Y-147233373D01*
X109603145Y-147213917D01*
X109501385Y-147194132D01*
X109470904Y-147188551D01*
X109360628Y-147168233D01*
X109257731Y-147149095D01*
X109172569Y-147133070D01*
X109115500Y-147122091D01*
X109012923Y-147101845D01*
X109012923Y-146674701D01*
X109012946Y-146622180D01*
X109013379Y-146494047D01*
X109014659Y-146398420D01*
X109017168Y-146330411D01*
X109021286Y-146285133D01*
X109027395Y-146257697D01*
X109035878Y-146243218D01*
X109047115Y-146236807D01*
X109057994Y-146234209D01*
X109102347Y-146225022D01*
X109173106Y-146210991D01*
X109263074Y-146193486D01*
X109365056Y-146173874D01*
X109471857Y-146153525D01*
X109576281Y-146133807D01*
X109671132Y-146116089D01*
X109749214Y-146101738D01*
X109803332Y-146092124D01*
X109826291Y-146088616D01*
X109827842Y-146086497D01*
X109840325Y-146059006D01*
X109861927Y-146006406D01*
X109889123Y-145937192D01*
X109926866Y-145843937D01*
X109973328Y-145736159D01*
X110016878Y-145641172D01*
X110026858Y-145619851D01*
X110054862Y-145553086D01*
X110071641Y-145501590D01*
X110073854Y-145475095D01*
X110072713Y-145473218D01*
X110054584Y-145445565D01*
X110018644Y-145391849D01*
X109968418Y-145317303D01*
X109907430Y-145227162D01*
X109839205Y-145126657D01*
X109762330Y-145012470D01*
X109704663Y-144923770D01*
X109665426Y-144858721D01*
X109642350Y-144813295D01*
X109633166Y-144783463D01*
X109635604Y-144765195D01*
X109636424Y-144763825D01*
X109658477Y-144737205D01*
X109703436Y-144688697D01*
X109766673Y-144623108D01*
X109843559Y-144545247D01*
X109929465Y-144459922D01*
X110018579Y-144373334D01*
X110105872Y-144291947D01*
X110170018Y-144237035D01*
X110212679Y-144207190D01*
X110235521Y-144201004D01*
X110238505Y-144202394D01*
X110269936Y-144221127D01*
X110326997Y-144257733D01*
X110404343Y-144308697D01*
X110496626Y-144370504D01*
X110598502Y-144439639D01*
X110930593Y-144666420D01*
X111080566Y-144598353D01*
X111084923Y-144596381D01*
X111177000Y-144556491D01*
X111274683Y-144516818D01*
X111357539Y-144485674D01*
X111357905Y-144485545D01*
X111423685Y-144461456D01*
X111474323Y-144441110D01*
X111498884Y-144428901D01*
X111499282Y-144428458D01*
X111507619Y-144403456D01*
X111521341Y-144346598D01*
X111539123Y-144264014D01*
X111559641Y-144161831D01*
X111581571Y-144046178D01*
X111582336Y-144042033D01*
X111604229Y-143924019D01*
X111624281Y-143817151D01*
X111641192Y-143728252D01*
X111653667Y-143664145D01*
X111660406Y-143631654D01*
X111660837Y-143629853D01*
X111665273Y-143615944D01*
X111674263Y-143605489D01*
X111692737Y-143597996D01*
X111725628Y-143592972D01*
X111777868Y-143589922D01*
X111854388Y-143588355D01*
X111960122Y-143587776D01*
X112100000Y-143587692D01*
X112117575Y-143587693D01*
G37*
X112117575Y-143587693D02*
X112253371Y-143587807D01*
X112355576Y-143588472D01*
X112429122Y-143590182D01*
X112478942Y-143593429D01*
X112509967Y-143598706D01*
X112527129Y-143606507D01*
X112535361Y-143617325D01*
X112539594Y-143631654D01*
X112539716Y-143632168D01*
X112546672Y-143665851D01*
X112559320Y-143730917D01*
X112576360Y-143820542D01*
X112596496Y-143927904D01*
X112618429Y-144046178D01*
X112620218Y-144055856D01*
X112642083Y-144170650D01*
X112662430Y-144271480D01*
X112679934Y-144352217D01*
X112693271Y-144406734D01*
X112701116Y-144428901D01*
X112701158Y-144428936D01*
X112725884Y-144441200D01*
X112776631Y-144461576D01*
X112842462Y-144485674D01*
X112846169Y-144486983D01*
X112930331Y-144518791D01*
X113028230Y-144558685D01*
X113119435Y-144598353D01*
X113269407Y-144666420D01*
X113601499Y-144439639D01*
X113624889Y-144423688D01*
X113725080Y-144355890D01*
X113814480Y-144296208D01*
X113887745Y-144248156D01*
X113939527Y-144215250D01*
X113964480Y-144201004D01*
X113981577Y-144204270D01*
X114020395Y-144229571D01*
X114080385Y-144279675D01*
X114163210Y-144355989D01*
X114270535Y-144459922D01*
X114280139Y-144469382D01*
X114365302Y-144554145D01*
X114440949Y-144630937D01*
X114502449Y-144694947D01*
X114545173Y-144741361D01*
X114564489Y-144765369D01*
X114564552Y-144765485D01*
X114567006Y-144783763D01*
X114557956Y-144813411D01*
X114535119Y-144858486D01*
X114496213Y-144923044D01*
X114438954Y-145011140D01*
X114361059Y-145126830D01*
X114347785Y-145146357D01*
X114280652Y-145245278D01*
X114221410Y-145332848D01*
X114173588Y-145403831D01*
X114140715Y-145452991D01*
X114126318Y-145475095D01*
X114125232Y-145479777D01*
X114132044Y-145514710D01*
X114152450Y-145571753D01*
X114183123Y-145641172D01*
X114224808Y-145731959D01*
X114271352Y-145839686D01*
X114310877Y-145937192D01*
X114320676Y-145962430D01*
X114346340Y-146026870D01*
X114365193Y-146071763D01*
X114373710Y-146088616D01*
X114383111Y-146089875D01*
X114425363Y-146097159D01*
X114494521Y-146109739D01*
X114583387Y-146126246D01*
X114684768Y-146145312D01*
X114791467Y-146165569D01*
X114896288Y-146185647D01*
X114992036Y-146204179D01*
X115071516Y-146219795D01*
X115127530Y-146231127D01*
X115152885Y-146236807D01*
X115157088Y-146238408D01*
X115167334Y-146247045D01*
X115174957Y-146265433D01*
X115180338Y-146298460D01*
X115183859Y-146351013D01*
X115185901Y-146427979D01*
X115186847Y-146534246D01*
X115187077Y-146674701D01*
X115187077Y-147101845D01*
X115084500Y-147122091D01*
X115072092Y-147124518D01*
X115006199Y-147137088D01*
X114915084Y-147154170D01*
X114809104Y-147173829D01*
X114698615Y-147194132D01*
X114655105Y-147202299D01*
X114557882Y-147222167D01*
X114476858Y-147240954D01*
X114419477Y-147256859D01*
X114393187Y-147268079D01*
X114381273Y-147286411D01*
X114359583Y-147334916D01*
X114337395Y-147397692D01*
X114329585Y-147421200D01*
X114300835Y-147498366D01*
X114263752Y-147589694D01*
X114224375Y-147680093D01*
X114203315Y-147727310D01*
X114173311Y-147797837D01*
X114152692Y-147850655D01*
X114145026Y-147876912D01*
X114145452Y-147878894D01*
X114159993Y-147906751D01*
X114192783Y-147960510D01*
X114240493Y-148034963D01*
X114299798Y-148124897D01*
X114367369Y-148225104D01*
X114589713Y-148551416D01*
X114297601Y-148844016D01*
X114269349Y-148872171D01*
X114182961Y-148956449D01*
X114105756Y-149029128D01*
X114042258Y-149086112D01*
X113996990Y-149123307D01*
X113974474Y-149136616D01*
X113950023Y-149126490D01*
X113898819Y-149097421D01*
X113826747Y-149052896D01*
X113739460Y-148996411D01*
X113642612Y-148931462D01*
X113547486Y-148867314D01*
X113461669Y-148810827D01*
X113391652Y-148766184D01*
X113342876Y-148736855D01*
X113320783Y-148726308D01*
X113319488Y-148726404D01*
X113290139Y-148736802D01*
X113238093Y-148761012D01*
X113173708Y-148794249D01*
X113173032Y-148794613D01*
X113087521Y-148837441D01*
X113028926Y-148858365D01*
X112992571Y-148858423D01*
X112973775Y-148838654D01*
X112965819Y-148819195D01*
X112944347Y-148767080D01*
X112911273Y-148686964D01*
X112868356Y-148583107D01*
X112817356Y-148459767D01*
X112760033Y-148321201D01*
X112698146Y-148171670D01*
X112642052Y-148035636D01*
X112584977Y-147896050D01*
X112534479Y-147771315D01*
X112492254Y-147665672D01*
X112459995Y-147583365D01*
X112439397Y-147528635D01*
X112432154Y-147505726D01*
X112445986Y-147484718D01*
X112484412Y-147449642D01*
X112538807Y-147408887D01*
X112669395Y-147302267D01*
X112786260Y-147166025D01*
X112871780Y-147016118D01*
X112925431Y-146856971D01*
X112946684Y-146693012D01*
X112935014Y-146528667D01*
X112889894Y-146368361D01*
X112810797Y-146216520D01*
X112697197Y-146077572D01*
X112637965Y-146023460D01*
X112496054Y-145927782D01*
X112344206Y-145865405D01*
X112186861Y-145834844D01*
X112028456Y-145834615D01*
X111873429Y-145863232D01*
X111726220Y-145919210D01*
X111591266Y-146001064D01*
X111473005Y-146107309D01*
X111375877Y-146236459D01*
X111304318Y-146387031D01*
X111262769Y-146557539D01*
X111255143Y-146639722D01*
X111265634Y-146817775D01*
X111312882Y-146986704D01*
X111395489Y-147143522D01*
X111512059Y-147285245D01*
X111661193Y-147408887D01*
X111713561Y-147447982D01*
X111752832Y-147483443D01*
X111767846Y-147505692D01*
X111761859Y-147525088D01*
X111742432Y-147577059D01*
X111711194Y-147657002D01*
X111669839Y-147760673D01*
X111620061Y-147883832D01*
X111563553Y-148022234D01*
X111502009Y-148171637D01*
X111446008Y-148307020D01*
X111388184Y-148446852D01*
X111336500Y-148571872D01*
X111292718Y-148677822D01*
X111258597Y-148760441D01*
X111235898Y-148815472D01*
X111226380Y-148838654D01*
X111226269Y-148838928D01*
X111207228Y-148858503D01*
X111170694Y-148858279D01*
X111111954Y-148837210D01*
X111026292Y-148794249D01*
X111019549Y-148790631D01*
X110955938Y-148758087D01*
X110905707Y-148735050D01*
X110879218Y-148726308D01*
X110857506Y-148736639D01*
X110808984Y-148765788D01*
X110739163Y-148810287D01*
X110653484Y-148866668D01*
X110557388Y-148931462D01*
X110462706Y-148994984D01*
X110375132Y-149051705D01*
X110302642Y-149096547D01*
X110250889Y-149126016D01*
X110225526Y-149136616D01*
X110221206Y-149135270D01*
X110191092Y-149114056D01*
X110139640Y-149070237D01*
X110071375Y-149007909D01*
X109990820Y-148931170D01*
X109902500Y-148844116D01*
X109610488Y-148551617D01*
X110065360Y-147882525D01*
X109996208Y-147732916D01*
X109996003Y-147732473D01*
X109954477Y-147637101D01*
X109912044Y-147530896D01*
X109877858Y-147436769D01*
X109872684Y-147421588D01*
X109846601Y-147351109D01*
X109823081Y-147296342D01*
X109806677Y-147268079D01*
X109799996Y-147264088D01*
X109759892Y-147250697D01*
X109691795Y-147233373D01*
X109603145Y-147213917D01*
X109501385Y-147194132D01*
X109470904Y-147188551D01*
X109360628Y-147168233D01*
X109257731Y-147149095D01*
X109172569Y-147133070D01*
X109115500Y-147122091D01*
X109012923Y-147101845D01*
X109012923Y-146674701D01*
X109012946Y-146622180D01*
X109013379Y-146494047D01*
X109014659Y-146398420D01*
X109017168Y-146330411D01*
X109021286Y-146285133D01*
X109027395Y-146257697D01*
X109035878Y-146243218D01*
X109047115Y-146236807D01*
X109057994Y-146234209D01*
X109102347Y-146225022D01*
X109173106Y-146210991D01*
X109263074Y-146193486D01*
X109365056Y-146173874D01*
X109471857Y-146153525D01*
X109576281Y-146133807D01*
X109671132Y-146116089D01*
X109749214Y-146101738D01*
X109803332Y-146092124D01*
X109826291Y-146088616D01*
X109827842Y-146086497D01*
X109840325Y-146059006D01*
X109861927Y-146006406D01*
X109889123Y-145937192D01*
X109926866Y-145843937D01*
X109973328Y-145736159D01*
X110016878Y-145641172D01*
X110026858Y-145619851D01*
X110054862Y-145553086D01*
X110071641Y-145501590D01*
X110073854Y-145475095D01*
X110072713Y-145473218D01*
X110054584Y-145445565D01*
X110018644Y-145391849D01*
X109968418Y-145317303D01*
X109907430Y-145227162D01*
X109839205Y-145126657D01*
X109762330Y-145012470D01*
X109704663Y-144923770D01*
X109665426Y-144858721D01*
X109642350Y-144813295D01*
X109633166Y-144783463D01*
X109635604Y-144765195D01*
X109636424Y-144763825D01*
X109658477Y-144737205D01*
X109703436Y-144688697D01*
X109766673Y-144623108D01*
X109843559Y-144545247D01*
X109929465Y-144459922D01*
X110018579Y-144373334D01*
X110105872Y-144291947D01*
X110170018Y-144237035D01*
X110212679Y-144207190D01*
X110235521Y-144201004D01*
X110238505Y-144202394D01*
X110269936Y-144221127D01*
X110326997Y-144257733D01*
X110404343Y-144308697D01*
X110496626Y-144370504D01*
X110598502Y-144439639D01*
X110930593Y-144666420D01*
X111080566Y-144598353D01*
X111084923Y-144596381D01*
X111177000Y-144556491D01*
X111274683Y-144516818D01*
X111357539Y-144485674D01*
X111357905Y-144485545D01*
X111423685Y-144461456D01*
X111474323Y-144441110D01*
X111498884Y-144428901D01*
X111499282Y-144428458D01*
X111507619Y-144403456D01*
X111521341Y-144346598D01*
X111539123Y-144264014D01*
X111559641Y-144161831D01*
X111581571Y-144046178D01*
X111582336Y-144042033D01*
X111604229Y-143924019D01*
X111624281Y-143817151D01*
X111641192Y-143728252D01*
X111653667Y-143664145D01*
X111660406Y-143631654D01*
X111660837Y-143629853D01*
X111665273Y-143615944D01*
X111674263Y-143605489D01*
X111692737Y-143597996D01*
X111725628Y-143592972D01*
X111777868Y-143589922D01*
X111854388Y-143588355D01*
X111960122Y-143587776D01*
X112100000Y-143587692D01*
X112117575Y-143587693D01*
X109704071Y-149936662D02*
X109701089Y-149988068D01*
X109701089Y-149988068D02*
X109698753Y-150066192D01*
X109698753Y-150066192D02*
X109697251Y-150164857D01*
X109697251Y-150164857D02*
X109696769Y-150268343D01*
X109696769Y-150268343D02*
X109696769Y-150618533D01*
X109696769Y-150618533D02*
X109758599Y-150680363D01*
X109758599Y-150680363D02*
X109801207Y-150718462D01*
X109801207Y-150718462D02*
X109838610Y-150733895D01*
X109838610Y-150733895D02*
X109889730Y-150732918D01*
X109889730Y-150732918D02*
X109910022Y-150730433D01*
X109910022Y-150730433D02*
X109973446Y-150723200D01*
X109973446Y-150723200D02*
X110025905Y-150719055D01*
X110025905Y-150719055D02*
X110038692Y-150718672D01*
X110038692Y-150718672D02*
X110081801Y-150721176D01*
X110081801Y-150721176D02*
X110143456Y-150727462D01*
X110143456Y-150727462D02*
X110167362Y-150730433D01*
X110167362Y-150730433D02*
X110226078Y-150735028D01*
X110226078Y-150735028D02*
X110265536Y-150725046D01*
X110265536Y-150725046D02*
X110304662Y-150694228D01*
X110304662Y-150694228D02*
X110318785Y-150680363D01*
X110318785Y-150680363D02*
X110380615Y-150618533D01*
X110380615Y-150618533D02*
X110380615Y-149963503D01*
X110380615Y-149963503D02*
X110330850Y-149940829D01*
X110330850Y-149940829D02*
X110287998Y-149924034D01*
X110287998Y-149924034D02*
X110262927Y-149918154D01*
X110262927Y-149918154D02*
X110256499Y-149936736D01*
X110256499Y-149936736D02*
X110250491Y-149988655D01*
X110250491Y-149988655D02*
X110245303Y-150068172D01*
X110245303Y-150068172D02*
X110241336Y-150169546D01*
X110241336Y-150169546D02*
X110239423Y-150255192D01*
X110239423Y-150255192D02*
X110234077Y-150592231D01*
X110234077Y-150592231D02*
X110187440Y-150598825D01*
X110187440Y-150598825D02*
X110145024Y-150594214D01*
X110145024Y-150594214D02*
X110124240Y-150579287D01*
X110124240Y-150579287D02*
X110118430Y-150551377D01*
X110118430Y-150551377D02*
X110113470Y-150491925D01*
X110113470Y-150491925D02*
X110109754Y-150408466D01*
X110109754Y-150408466D02*
X110107676Y-150308532D01*
X110107676Y-150308532D02*
X110107376Y-150257104D01*
X110107376Y-150257104D02*
X110107077Y-149961054D01*
X110107077Y-149961054D02*
X110045546Y-149939604D01*
X110045546Y-149939604D02*
X110001996Y-149925020D01*
X110001996Y-149925020D02*
X109978306Y-149918219D01*
X109978306Y-149918219D02*
X109977623Y-149918154D01*
X109977623Y-149918154D02*
X109975246Y-149936642D01*
X109975246Y-149936642D02*
X109972634Y-149987906D01*
X109972634Y-149987906D02*
X109970005Y-150065649D01*
X109970005Y-150065649D02*
X109967579Y-150163574D01*
X109967579Y-150163574D02*
X109965885Y-150255192D01*
X109965885Y-150255192D02*
X109960539Y-150592231D01*
X109960539Y-150592231D02*
X109843308Y-150592231D01*
X109843308Y-150592231D02*
X109837928Y-150284746D01*
X109837928Y-150284746D02*
X109832549Y-149977261D01*
X109832549Y-149977261D02*
X109775399Y-149947707D01*
X109775399Y-149947707D02*
X109733203Y-149927413D01*
X109733203Y-149927413D02*
X109708230Y-149918204D01*
X109708230Y-149918204D02*
X109707509Y-149918154D01*
X109707509Y-149918154D02*
X109704071Y-149936662D01*
X109704071Y-149936662D02*
X109704071Y-149936662D01*
G36*
X110287998Y-149924034D02*
G01*
X110330850Y-149940829D01*
X110380615Y-149963503D01*
X110380615Y-150618533D01*
X110318785Y-150680363D01*
X110304662Y-150694228D01*
X110265536Y-150725046D01*
X110226078Y-150735028D01*
X110167362Y-150730433D01*
X110143456Y-150727462D01*
X110081801Y-150721176D01*
X110038692Y-150718672D01*
X110025905Y-150719055D01*
X109973446Y-150723200D01*
X109910022Y-150730433D01*
X109889730Y-150732918D01*
X109838610Y-150733895D01*
X109801207Y-150718462D01*
X109758599Y-150680363D01*
X109696769Y-150618533D01*
X109696769Y-150268343D01*
X109697251Y-150164857D01*
X109698753Y-150066192D01*
X109701089Y-149988068D01*
X109704071Y-149936662D01*
X109707509Y-149918154D01*
X109708230Y-149918204D01*
X109733203Y-149927413D01*
X109775399Y-149947707D01*
X109832549Y-149977261D01*
X109837928Y-150284746D01*
X109843308Y-150592231D01*
X109960539Y-150592231D01*
X109965885Y-150255192D01*
X109967579Y-150163574D01*
X109970005Y-150065649D01*
X109972634Y-149987906D01*
X109975246Y-149936642D01*
X109977623Y-149918154D01*
X109978306Y-149918219D01*
X110001996Y-149925020D01*
X110045546Y-149939604D01*
X110107077Y-149961054D01*
X110107376Y-150257104D01*
X110107676Y-150308532D01*
X110109754Y-150408466D01*
X110113470Y-150491925D01*
X110118430Y-150551377D01*
X110124240Y-150579287D01*
X110145024Y-150594214D01*
X110187440Y-150598825D01*
X110234077Y-150592231D01*
X110239423Y-150255192D01*
X110241336Y-150169546D01*
X110245303Y-150068172D01*
X110250491Y-149988655D01*
X110256499Y-149936736D01*
X110262927Y-149918154D01*
X110287998Y-149924034D01*
G37*
X110287998Y-149924034D02*
X110330850Y-149940829D01*
X110380615Y-149963503D01*
X110380615Y-150618533D01*
X110318785Y-150680363D01*
X110304662Y-150694228D01*
X110265536Y-150725046D01*
X110226078Y-150735028D01*
X110167362Y-150730433D01*
X110143456Y-150727462D01*
X110081801Y-150721176D01*
X110038692Y-150718672D01*
X110025905Y-150719055D01*
X109973446Y-150723200D01*
X109910022Y-150730433D01*
X109889730Y-150732918D01*
X109838610Y-150733895D01*
X109801207Y-150718462D01*
X109758599Y-150680363D01*
X109696769Y-150618533D01*
X109696769Y-150268343D01*
X109697251Y-150164857D01*
X109698753Y-150066192D01*
X109701089Y-149988068D01*
X109704071Y-149936662D01*
X109707509Y-149918154D01*
X109708230Y-149918204D01*
X109733203Y-149927413D01*
X109775399Y-149947707D01*
X109832549Y-149977261D01*
X109837928Y-150284746D01*
X109843308Y-150592231D01*
X109960539Y-150592231D01*
X109965885Y-150255192D01*
X109967579Y-150163574D01*
X109970005Y-150065649D01*
X109972634Y-149987906D01*
X109975246Y-149936642D01*
X109977623Y-149918154D01*
X109978306Y-149918219D01*
X110001996Y-149925020D01*
X110045546Y-149939604D01*
X110107077Y-149961054D01*
X110107376Y-150257104D01*
X110107676Y-150308532D01*
X110109754Y-150408466D01*
X110113470Y-150491925D01*
X110118430Y-150551377D01*
X110124240Y-150579287D01*
X110145024Y-150594214D01*
X110187440Y-150598825D01*
X110234077Y-150592231D01*
X110239423Y-150255192D01*
X110241336Y-150169546D01*
X110245303Y-150068172D01*
X110250491Y-149988655D01*
X110256499Y-149936736D01*
X110262927Y-149918154D01*
X110287998Y-149924034D01*
X109212667Y-149933528D02*
X109156410Y-149959117D01*
X109156410Y-149959117D02*
X109112253Y-149990124D01*
X109112253Y-149990124D02*
X109079899Y-150024795D01*
X109079899Y-150024795D02*
X109057562Y-150069520D01*
X109057562Y-150069520D02*
X109043454Y-150130692D01*
X109043454Y-150130692D02*
X109035789Y-150214701D01*
X109035789Y-150214701D02*
X109032780Y-150327940D01*
X109032780Y-150327940D02*
X109032462Y-150402509D01*
X109032462Y-150402509D02*
X109032462Y-150693420D01*
X109032462Y-150693420D02*
X109082227Y-150716095D01*
X109082227Y-150716095D02*
X109121424Y-150732667D01*
X109121424Y-150732667D02*
X109140843Y-150738769D01*
X109140843Y-150738769D02*
X109144558Y-150720610D01*
X109144558Y-150720610D02*
X109147505Y-150671648D01*
X109147505Y-150671648D02*
X109149309Y-150600153D01*
X109149309Y-150600153D02*
X109149692Y-150543385D01*
X109149692Y-150543385D02*
X109151339Y-150461371D01*
X109151339Y-150461371D02*
X109155778Y-150396309D01*
X109155778Y-150396309D02*
X109162260Y-150356467D01*
X109162260Y-150356467D02*
X109167410Y-150348000D01*
X109167410Y-150348000D02*
X109202023Y-150356646D01*
X109202023Y-150356646D02*
X109256360Y-150378823D01*
X109256360Y-150378823D02*
X109319278Y-150408886D01*
X109319278Y-150408886D02*
X109379632Y-150441192D01*
X109379632Y-150441192D02*
X109426279Y-150470098D01*
X109426279Y-150470098D02*
X109448074Y-150489961D01*
X109448074Y-150489961D02*
X109448161Y-150490175D01*
X109448161Y-150490175D02*
X109446286Y-150526935D01*
X109446286Y-150526935D02*
X109429475Y-150562026D01*
X109429475Y-150562026D02*
X109399961Y-150590528D01*
X109399961Y-150590528D02*
X109356884Y-150600061D01*
X109356884Y-150600061D02*
X109320068Y-150598950D01*
X109320068Y-150598950D02*
X109267926Y-150598133D01*
X109267926Y-150598133D02*
X109240556Y-150610349D01*
X109240556Y-150610349D02*
X109224118Y-150642624D01*
X109224118Y-150642624D02*
X109222045Y-150648710D01*
X109222045Y-150648710D02*
X109214919Y-150694739D01*
X109214919Y-150694739D02*
X109233976Y-150722687D01*
X109233976Y-150722687D02*
X109283647Y-150736007D01*
X109283647Y-150736007D02*
X109337303Y-150738470D01*
X109337303Y-150738470D02*
X109433858Y-150720210D01*
X109433858Y-150720210D02*
X109483841Y-150694131D01*
X109483841Y-150694131D02*
X109545571Y-150632868D01*
X109545571Y-150632868D02*
X109578310Y-150557670D01*
X109578310Y-150557670D02*
X109581247Y-150478211D01*
X109581247Y-150478211D02*
X109553576Y-150404167D01*
X109553576Y-150404167D02*
X109511953Y-150357769D01*
X109511953Y-150357769D02*
X109470396Y-150331793D01*
X109470396Y-150331793D02*
X109405078Y-150298907D01*
X109405078Y-150298907D02*
X109328962Y-150265557D01*
X109328962Y-150265557D02*
X109316274Y-150260461D01*
X109316274Y-150260461D02*
X109232667Y-150223565D01*
X109232667Y-150223565D02*
X109184470Y-150191046D01*
X109184470Y-150191046D02*
X109168970Y-150158718D01*
X109168970Y-150158718D02*
X109183450Y-150122394D01*
X109183450Y-150122394D02*
X109208308Y-150094000D01*
X109208308Y-150094000D02*
X109267061Y-150059039D01*
X109267061Y-150059039D02*
X109331707Y-150056417D01*
X109331707Y-150056417D02*
X109390992Y-150083358D01*
X109390992Y-150083358D02*
X109433661Y-150137088D01*
X109433661Y-150137088D02*
X109439261Y-150150950D01*
X109439261Y-150150950D02*
X109471867Y-150201936D01*
X109471867Y-150201936D02*
X109519470Y-150239787D01*
X109519470Y-150239787D02*
X109579539Y-150270850D01*
X109579539Y-150270850D02*
X109579539Y-150182768D01*
X109579539Y-150182768D02*
X109576003Y-150128951D01*
X109576003Y-150128951D02*
X109560844Y-150086534D01*
X109560844Y-150086534D02*
X109527232Y-150041279D01*
X109527232Y-150041279D02*
X109494965Y-150006420D01*
X109494965Y-150006420D02*
X109444791Y-149957062D01*
X109444791Y-149957062D02*
X109405807Y-149930547D01*
X109405807Y-149930547D02*
X109363936Y-149919911D01*
X109363936Y-149919911D02*
X109316540Y-149918154D01*
X109316540Y-149918154D02*
X109212667Y-149933528D01*
X109212667Y-149933528D02*
X109212667Y-149933528D01*
G36*
X109363936Y-149919911D02*
G01*
X109405807Y-149930547D01*
X109444791Y-149957062D01*
X109494965Y-150006420D01*
X109527232Y-150041279D01*
X109560844Y-150086534D01*
X109576003Y-150128951D01*
X109579539Y-150182768D01*
X109579539Y-150270850D01*
X109519470Y-150239787D01*
X109471867Y-150201936D01*
X109439261Y-150150950D01*
X109433661Y-150137088D01*
X109390992Y-150083358D01*
X109331707Y-150056417D01*
X109267061Y-150059039D01*
X109208308Y-150094000D01*
X109183450Y-150122394D01*
X109168970Y-150158718D01*
X109184470Y-150191046D01*
X109232667Y-150223565D01*
X109316274Y-150260461D01*
X109328962Y-150265557D01*
X109405078Y-150298907D01*
X109470396Y-150331793D01*
X109511953Y-150357769D01*
X109553576Y-150404167D01*
X109581247Y-150478211D01*
X109578310Y-150557670D01*
X109545571Y-150632868D01*
X109483841Y-150694131D01*
X109433858Y-150720210D01*
X109337303Y-150738470D01*
X109283647Y-150736007D01*
X109233976Y-150722687D01*
X109214919Y-150694739D01*
X109222045Y-150648710D01*
X109224118Y-150642624D01*
X109240556Y-150610349D01*
X109267926Y-150598133D01*
X109320068Y-150598950D01*
X109356884Y-150600061D01*
X109399961Y-150590528D01*
X109429475Y-150562026D01*
X109446286Y-150526935D01*
X109448161Y-150490175D01*
X109448074Y-150489961D01*
X109426279Y-150470098D01*
X109379632Y-150441192D01*
X109319278Y-150408886D01*
X109256360Y-150378823D01*
X109202023Y-150356646D01*
X109167410Y-150348000D01*
X109162260Y-150356467D01*
X109155778Y-150396309D01*
X109151339Y-150461371D01*
X109149692Y-150543385D01*
X109149309Y-150600153D01*
X109147505Y-150671648D01*
X109144558Y-150720610D01*
X109140843Y-150738769D01*
X109121424Y-150732667D01*
X109082227Y-150716095D01*
X109032462Y-150693420D01*
X109032462Y-150402509D01*
X109032780Y-150327940D01*
X109035789Y-150214701D01*
X109043454Y-150130692D01*
X109057562Y-150069520D01*
X109079899Y-150024795D01*
X109112253Y-149990124D01*
X109156410Y-149959117D01*
X109212667Y-149933528D01*
X109316540Y-149918154D01*
X109363936Y-149919911D01*
G37*
X109363936Y-149919911D02*
X109405807Y-149930547D01*
X109444791Y-149957062D01*
X109494965Y-150006420D01*
X109527232Y-150041279D01*
X109560844Y-150086534D01*
X109576003Y-150128951D01*
X109579539Y-150182768D01*
X109579539Y-150270850D01*
X109519470Y-150239787D01*
X109471867Y-150201936D01*
X109439261Y-150150950D01*
X109433661Y-150137088D01*
X109390992Y-150083358D01*
X109331707Y-150056417D01*
X109267061Y-150059039D01*
X109208308Y-150094000D01*
X109183450Y-150122394D01*
X109168970Y-150158718D01*
X109184470Y-150191046D01*
X109232667Y-150223565D01*
X109316274Y-150260461D01*
X109328962Y-150265557D01*
X109405078Y-150298907D01*
X109470396Y-150331793D01*
X109511953Y-150357769D01*
X109553576Y-150404167D01*
X109581247Y-150478211D01*
X109578310Y-150557670D01*
X109545571Y-150632868D01*
X109483841Y-150694131D01*
X109433858Y-150720210D01*
X109337303Y-150738470D01*
X109283647Y-150736007D01*
X109233976Y-150722687D01*
X109214919Y-150694739D01*
X109222045Y-150648710D01*
X109224118Y-150642624D01*
X109240556Y-150610349D01*
X109267926Y-150598133D01*
X109320068Y-150598950D01*
X109356884Y-150600061D01*
X109399961Y-150590528D01*
X109429475Y-150562026D01*
X109446286Y-150526935D01*
X109448161Y-150490175D01*
X109448074Y-150489961D01*
X109426279Y-150470098D01*
X109379632Y-150441192D01*
X109319278Y-150408886D01*
X109256360Y-150378823D01*
X109202023Y-150356646D01*
X109167410Y-150348000D01*
X109162260Y-150356467D01*
X109155778Y-150396309D01*
X109151339Y-150461371D01*
X109149692Y-150543385D01*
X109149309Y-150600153D01*
X109147505Y-150671648D01*
X109144558Y-150720610D01*
X109140843Y-150738769D01*
X109121424Y-150732667D01*
X109082227Y-150716095D01*
X109032462Y-150693420D01*
X109032462Y-150402509D01*
X109032780Y-150327940D01*
X109035789Y-150214701D01*
X109043454Y-150130692D01*
X109057562Y-150069520D01*
X109079899Y-150024795D01*
X109112253Y-149990124D01*
X109156410Y-149959117D01*
X109212667Y-149933528D01*
X109316540Y-149918154D01*
X109363936Y-149919911D01*
X114565746Y-149899745D02*
X114488714Y-149951567D01*
X114488714Y-149951567D02*
X114429184Y-150026412D01*
X114429184Y-150026412D02*
X114393622Y-150121654D01*
X114393622Y-150121654D02*
X114386429Y-150191756D01*
X114386429Y-150191756D02*
X114387246Y-150221009D01*
X114387246Y-150221009D02*
X114394086Y-150243407D01*
X114394086Y-150243407D02*
X114412888Y-150263474D01*
X114412888Y-150263474D02*
X114449592Y-150285733D01*
X114449592Y-150285733D02*
X114510138Y-150314709D01*
X114510138Y-150314709D02*
X114600466Y-150354927D01*
X114600466Y-150354927D02*
X114600923Y-150355129D01*
X114600923Y-150355129D02*
X114684067Y-150393210D01*
X114684067Y-150393210D02*
X114752247Y-150427025D01*
X114752247Y-150427025D02*
X114798495Y-150452933D01*
X114798495Y-150452933D02*
X114815842Y-150467295D01*
X114815842Y-150467295D02*
X114815846Y-150467411D01*
X114815846Y-150467411D02*
X114800557Y-150498685D01*
X114800557Y-150498685D02*
X114764804Y-150533157D01*
X114764804Y-150533157D02*
X114723758Y-150557990D01*
X114723758Y-150557990D02*
X114702963Y-150562923D01*
X114702963Y-150562923D02*
X114646230Y-150545862D01*
X114646230Y-150545862D02*
X114597373Y-150503133D01*
X114597373Y-150503133D02*
X114573535Y-150456155D01*
X114573535Y-150456155D02*
X114550603Y-150421522D01*
X114550603Y-150421522D02*
X114505682Y-150382081D01*
X114505682Y-150382081D02*
X114452877Y-150348009D01*
X114452877Y-150348009D02*
X114406290Y-150329480D01*
X114406290Y-150329480D02*
X114396548Y-150328462D01*
X114396548Y-150328462D02*
X114385582Y-150345215D01*
X114385582Y-150345215D02*
X114384921Y-150388039D01*
X114384921Y-150388039D02*
X114392980Y-150445781D01*
X114392980Y-150445781D02*
X114408173Y-150507289D01*
X114408173Y-150507289D02*
X114428914Y-150561409D01*
X114428914Y-150561409D02*
X114429962Y-150563510D01*
X114429962Y-150563510D02*
X114492379Y-150650660D01*
X114492379Y-150650660D02*
X114573274Y-150709939D01*
X114573274Y-150709939D02*
X114665144Y-150739034D01*
X114665144Y-150739034D02*
X114760487Y-150735634D01*
X114760487Y-150735634D02*
X114851802Y-150697428D01*
X114851802Y-150697428D02*
X114855862Y-150694741D01*
X114855862Y-150694741D02*
X114927694Y-150629642D01*
X114927694Y-150629642D02*
X114974927Y-150544705D01*
X114974927Y-150544705D02*
X115001066Y-150433021D01*
X115001066Y-150433021D02*
X115004574Y-150401643D01*
X115004574Y-150401643D02*
X115010787Y-150253536D01*
X115010787Y-150253536D02*
X115003339Y-150184468D01*
X115003339Y-150184468D02*
X114815846Y-150184468D01*
X114815846Y-150184468D02*
X114813410Y-150227552D01*
X114813410Y-150227552D02*
X114800086Y-150240126D01*
X114800086Y-150240126D02*
X114766868Y-150230719D01*
X114766868Y-150230719D02*
X114714506Y-150208483D01*
X114714506Y-150208483D02*
X114655976Y-150180610D01*
X114655976Y-150180610D02*
X114654521Y-150179872D01*
X114654521Y-150179872D02*
X114604911Y-150153777D01*
X114604911Y-150153777D02*
X114585000Y-150136363D01*
X114585000Y-150136363D02*
X114589910Y-150118107D01*
X114589910Y-150118107D02*
X114610584Y-150094120D01*
X114610584Y-150094120D02*
X114663181Y-150059406D01*
X114663181Y-150059406D02*
X114719823Y-150056856D01*
X114719823Y-150056856D02*
X114770631Y-150082119D01*
X114770631Y-150082119D02*
X114805724Y-150130847D01*
X114805724Y-150130847D02*
X114815846Y-150184468D01*
X114815846Y-150184468D02*
X115003339Y-150184468D01*
X115003339Y-150184468D02*
X114998008Y-150135036D01*
X114998008Y-150135036D02*
X114965222Y-150041055D01*
X114965222Y-150041055D02*
X114919579Y-149975215D01*
X114919579Y-149975215D02*
X114837198Y-149908681D01*
X114837198Y-149908681D02*
X114746454Y-149875676D01*
X114746454Y-149875676D02*
X114653815Y-149873573D01*
X114653815Y-149873573D02*
X114565746Y-149899745D01*
X114565746Y-149899745D02*
X114565746Y-149899745D01*
G36*
X115004574Y-150401643D02*
G01*
X115001066Y-150433021D01*
X114974927Y-150544705D01*
X114927694Y-150629642D01*
X114855862Y-150694741D01*
X114851802Y-150697428D01*
X114760487Y-150735634D01*
X114665144Y-150739034D01*
X114573274Y-150709939D01*
X114492379Y-150650660D01*
X114429962Y-150563510D01*
X114428914Y-150561409D01*
X114408173Y-150507289D01*
X114392980Y-150445781D01*
X114384921Y-150388039D01*
X114385582Y-150345215D01*
X114396548Y-150328462D01*
X114406290Y-150329480D01*
X114452877Y-150348009D01*
X114505682Y-150382081D01*
X114550603Y-150421522D01*
X114573535Y-150456155D01*
X114597373Y-150503133D01*
X114646230Y-150545862D01*
X114702963Y-150562923D01*
X114723758Y-150557990D01*
X114764804Y-150533157D01*
X114800557Y-150498685D01*
X114815846Y-150467411D01*
X114815842Y-150467295D01*
X114798495Y-150452933D01*
X114752247Y-150427025D01*
X114684067Y-150393210D01*
X114600923Y-150355129D01*
X114600466Y-150354927D01*
X114510138Y-150314709D01*
X114449592Y-150285733D01*
X114412888Y-150263474D01*
X114394086Y-150243407D01*
X114387246Y-150221009D01*
X114386429Y-150191756D01*
X114392113Y-150136363D01*
X114585000Y-150136363D01*
X114604911Y-150153777D01*
X114654521Y-150179872D01*
X114655976Y-150180610D01*
X114714506Y-150208483D01*
X114766868Y-150230719D01*
X114800086Y-150240126D01*
X114813410Y-150227552D01*
X114815846Y-150184468D01*
X114805724Y-150130847D01*
X114770631Y-150082119D01*
X114719823Y-150056856D01*
X114663181Y-150059406D01*
X114610584Y-150094120D01*
X114589910Y-150118107D01*
X114585000Y-150136363D01*
X114392113Y-150136363D01*
X114393622Y-150121654D01*
X114429184Y-150026412D01*
X114488714Y-149951567D01*
X114565746Y-149899745D01*
X114653815Y-149873573D01*
X114746454Y-149875676D01*
X114837198Y-149908681D01*
X114919579Y-149975215D01*
X114965222Y-150041055D01*
X114998008Y-150135036D01*
X115003339Y-150184468D01*
X115010787Y-150253536D01*
X115004574Y-150401643D01*
G37*
X115004574Y-150401643D02*
X115001066Y-150433021D01*
X114974927Y-150544705D01*
X114927694Y-150629642D01*
X114855862Y-150694741D01*
X114851802Y-150697428D01*
X114760487Y-150735634D01*
X114665144Y-150739034D01*
X114573274Y-150709939D01*
X114492379Y-150650660D01*
X114429962Y-150563510D01*
X114428914Y-150561409D01*
X114408173Y-150507289D01*
X114392980Y-150445781D01*
X114384921Y-150388039D01*
X114385582Y-150345215D01*
X114396548Y-150328462D01*
X114406290Y-150329480D01*
X114452877Y-150348009D01*
X114505682Y-150382081D01*
X114550603Y-150421522D01*
X114573535Y-150456155D01*
X114597373Y-150503133D01*
X114646230Y-150545862D01*
X114702963Y-150562923D01*
X114723758Y-150557990D01*
X114764804Y-150533157D01*
X114800557Y-150498685D01*
X114815846Y-150467411D01*
X114815842Y-150467295D01*
X114798495Y-150452933D01*
X114752247Y-150427025D01*
X114684067Y-150393210D01*
X114600923Y-150355129D01*
X114600466Y-150354927D01*
X114510138Y-150314709D01*
X114449592Y-150285733D01*
X114412888Y-150263474D01*
X114394086Y-150243407D01*
X114387246Y-150221009D01*
X114386429Y-150191756D01*
X114392113Y-150136363D01*
X114585000Y-150136363D01*
X114604911Y-150153777D01*
X114654521Y-150179872D01*
X114655976Y-150180610D01*
X114714506Y-150208483D01*
X114766868Y-150230719D01*
X114800086Y-150240126D01*
X114813410Y-150227552D01*
X114815846Y-150184468D01*
X114805724Y-150130847D01*
X114770631Y-150082119D01*
X114719823Y-150056856D01*
X114663181Y-150059406D01*
X114610584Y-150094120D01*
X114589910Y-150118107D01*
X114585000Y-150136363D01*
X114392113Y-150136363D01*
X114393622Y-150121654D01*
X114429184Y-150026412D01*
X114488714Y-149951567D01*
X114565746Y-149899745D01*
X114653815Y-149873573D01*
X114746454Y-149875676D01*
X114837198Y-149908681D01*
X114919579Y-149975215D01*
X114965222Y-150041055D01*
X114998008Y-150135036D01*
X115003339Y-150184468D01*
X115010787Y-150253536D01*
X115004574Y-150401643D01*
X111386638Y-149924670D02*
X111297883Y-149957421D01*
X111297883Y-149957421D02*
X111225978Y-150015350D01*
X111225978Y-150015350D02*
X111197856Y-150056128D01*
X111197856Y-150056128D02*
X111167198Y-150130954D01*
X111167198Y-150130954D02*
X111167835Y-150185058D01*
X111167835Y-150185058D02*
X111200013Y-150221446D01*
X111200013Y-150221446D02*
X111211919Y-150227633D01*
X111211919Y-150227633D02*
X111263325Y-150246925D01*
X111263325Y-150246925D02*
X111289578Y-150241982D01*
X111289578Y-150241982D02*
X111298470Y-150209587D01*
X111298470Y-150209587D02*
X111298923Y-150191692D01*
X111298923Y-150191692D02*
X111315203Y-150125859D01*
X111315203Y-150125859D02*
X111357635Y-150079807D01*
X111357635Y-150079807D02*
X111416612Y-150057564D01*
X111416612Y-150057564D02*
X111482525Y-150063161D01*
X111482525Y-150063161D02*
X111536105Y-150092229D01*
X111536105Y-150092229D02*
X111554202Y-150108810D01*
X111554202Y-150108810D02*
X111567029Y-150128925D01*
X111567029Y-150128925D02*
X111575694Y-150159332D01*
X111575694Y-150159332D02*
X111581304Y-150206788D01*
X111581304Y-150206788D02*
X111584965Y-150278050D01*
X111584965Y-150278050D02*
X111587785Y-150379875D01*
X111587785Y-150379875D02*
X111588516Y-150412115D01*
X111588516Y-150412115D02*
X111591180Y-150522410D01*
X111591180Y-150522410D02*
X111594208Y-150600036D01*
X111594208Y-150600036D02*
X111598750Y-150651396D01*
X111598750Y-150651396D02*
X111605954Y-150682890D01*
X111605954Y-150682890D02*
X111616967Y-150700920D01*
X111616967Y-150700920D02*
X111632940Y-150711888D01*
X111632940Y-150711888D02*
X111643166Y-150716733D01*
X111643166Y-150716733D02*
X111686594Y-150733301D01*
X111686594Y-150733301D02*
X111712158Y-150738769D01*
X111712158Y-150738769D02*
X111720605Y-150720507D01*
X111720605Y-150720507D02*
X111725761Y-150665296D01*
X111725761Y-150665296D02*
X111727654Y-150572499D01*
X111727654Y-150572499D02*
X111726311Y-150441478D01*
X111726311Y-150441478D02*
X111725893Y-150421269D01*
X111725893Y-150421269D02*
X111722942Y-150301733D01*
X111722942Y-150301733D02*
X111719452Y-150214449D01*
X111719452Y-150214449D02*
X111714486Y-150152591D01*
X111714486Y-150152591D02*
X111707107Y-150109336D01*
X111707107Y-150109336D02*
X111696376Y-150077860D01*
X111696376Y-150077860D02*
X111681355Y-150051339D01*
X111681355Y-150051339D02*
X111673498Y-150039975D01*
X111673498Y-150039975D02*
X111628447Y-149989692D01*
X111628447Y-149989692D02*
X111578060Y-149950581D01*
X111578060Y-149950581D02*
X111571892Y-149947167D01*
X111571892Y-149947167D02*
X111481542Y-149920212D01*
X111481542Y-149920212D02*
X111386638Y-149924670D01*
X111386638Y-149924670D02*
X111386638Y-149924670D01*
G36*
X111571892Y-149947167D02*
G01*
X111578060Y-149950581D01*
X111628447Y-149989692D01*
X111673498Y-150039975D01*
X111681355Y-150051339D01*
X111696376Y-150077860D01*
X111707107Y-150109336D01*
X111714486Y-150152591D01*
X111719452Y-150214449D01*
X111722942Y-150301733D01*
X111725893Y-150421269D01*
X111726311Y-150441478D01*
X111727654Y-150572499D01*
X111725761Y-150665296D01*
X111720605Y-150720507D01*
X111712158Y-150738769D01*
X111686594Y-150733301D01*
X111643166Y-150716733D01*
X111632940Y-150711888D01*
X111616967Y-150700920D01*
X111605954Y-150682890D01*
X111598750Y-150651396D01*
X111594208Y-150600036D01*
X111591180Y-150522410D01*
X111588516Y-150412115D01*
X111587785Y-150379875D01*
X111584965Y-150278050D01*
X111581304Y-150206788D01*
X111575694Y-150159332D01*
X111567029Y-150128925D01*
X111554202Y-150108810D01*
X111536105Y-150092229D01*
X111482525Y-150063161D01*
X111416612Y-150057564D01*
X111357635Y-150079807D01*
X111315203Y-150125859D01*
X111298923Y-150191692D01*
X111298470Y-150209587D01*
X111289578Y-150241982D01*
X111263325Y-150246925D01*
X111211919Y-150227633D01*
X111200013Y-150221446D01*
X111167835Y-150185058D01*
X111167198Y-150130954D01*
X111197856Y-150056128D01*
X111225978Y-150015350D01*
X111297883Y-149957421D01*
X111386638Y-149924670D01*
X111481542Y-149920212D01*
X111571892Y-149947167D01*
G37*
X111571892Y-149947167D02*
X111578060Y-149950581D01*
X111628447Y-149989692D01*
X111673498Y-150039975D01*
X111681355Y-150051339D01*
X111696376Y-150077860D01*
X111707107Y-150109336D01*
X111714486Y-150152591D01*
X111719452Y-150214449D01*
X111722942Y-150301733D01*
X111725893Y-150421269D01*
X111726311Y-150441478D01*
X111727654Y-150572499D01*
X111725761Y-150665296D01*
X111720605Y-150720507D01*
X111712158Y-150738769D01*
X111686594Y-150733301D01*
X111643166Y-150716733D01*
X111632940Y-150711888D01*
X111616967Y-150700920D01*
X111605954Y-150682890D01*
X111598750Y-150651396D01*
X111594208Y-150600036D01*
X111591180Y-150522410D01*
X111588516Y-150412115D01*
X111587785Y-150379875D01*
X111584965Y-150278050D01*
X111581304Y-150206788D01*
X111575694Y-150159332D01*
X111567029Y-150128925D01*
X111554202Y-150108810D01*
X111536105Y-150092229D01*
X111482525Y-150063161D01*
X111416612Y-150057564D01*
X111357635Y-150079807D01*
X111315203Y-150125859D01*
X111298923Y-150191692D01*
X111298470Y-150209587D01*
X111289578Y-150241982D01*
X111263325Y-150246925D01*
X111211919Y-150227633D01*
X111200013Y-150221446D01*
X111167835Y-150185058D01*
X111167198Y-150130954D01*
X111197856Y-150056128D01*
X111225978Y-150015350D01*
X111297883Y-149957421D01*
X111386638Y-149924670D01*
X111481542Y-149920212D01*
X111571892Y-149947167D01*
X108529193Y-149936782D02*
X108505839Y-149946988D01*
X108505839Y-149946988D02*
X108450098Y-149991134D01*
X108450098Y-149991134D02*
X108402431Y-150054967D01*
X108402431Y-150054967D02*
X108372952Y-150123087D01*
X108372952Y-150123087D02*
X108368154Y-150156670D01*
X108368154Y-150156670D02*
X108384240Y-150203556D01*
X108384240Y-150203556D02*
X108419525Y-150228365D01*
X108419525Y-150228365D02*
X108457356Y-150243387D01*
X108457356Y-150243387D02*
X108474679Y-150246155D01*
X108474679Y-150246155D02*
X108483114Y-150226066D01*
X108483114Y-150226066D02*
X108499770Y-150182351D01*
X108499770Y-150182351D02*
X108507077Y-150162598D01*
X108507077Y-150162598D02*
X108548052Y-150094271D01*
X108548052Y-150094271D02*
X108607378Y-150060191D01*
X108607378Y-150060191D02*
X108683448Y-150061239D01*
X108683448Y-150061239D02*
X108689082Y-150062581D01*
X108689082Y-150062581D02*
X108729695Y-150081836D01*
X108729695Y-150081836D02*
X108759552Y-150119375D01*
X108759552Y-150119375D02*
X108779945Y-150179809D01*
X108779945Y-150179809D02*
X108792164Y-150267751D01*
X108792164Y-150267751D02*
X108797500Y-150387813D01*
X108797500Y-150387813D02*
X108798000Y-150451698D01*
X108798000Y-150451698D02*
X108798248Y-150552403D01*
X108798248Y-150552403D02*
X108799874Y-150621054D01*
X108799874Y-150621054D02*
X108804199Y-150664673D01*
X108804199Y-150664673D02*
X108812546Y-150690282D01*
X108812546Y-150690282D02*
X108826235Y-150704903D01*
X108826235Y-150704903D02*
X108846589Y-150715558D01*
X108846589Y-150715558D02*
X108847766Y-150716095D01*
X108847766Y-150716095D02*
X108886962Y-150732667D01*
X108886962Y-150732667D02*
X108906381Y-150738769D01*
X108906381Y-150738769D02*
X108909365Y-150720319D01*
X108909365Y-150720319D02*
X108911919Y-150669323D01*
X108911919Y-150669323D02*
X108913860Y-150592308D01*
X108913860Y-150592308D02*
X108915003Y-150495805D01*
X108915003Y-150495805D02*
X108915231Y-150425184D01*
X108915231Y-150425184D02*
X108914068Y-150288525D01*
X108914068Y-150288525D02*
X108909521Y-150184851D01*
X108909521Y-150184851D02*
X108900001Y-150108108D01*
X108900001Y-150108108D02*
X108883919Y-150052246D01*
X108883919Y-150052246D02*
X108859687Y-150011212D01*
X108859687Y-150011212D02*
X108825714Y-149978954D01*
X108825714Y-149978954D02*
X108792167Y-149956440D01*
X108792167Y-149956440D02*
X108711501Y-149926476D01*
X108711501Y-149926476D02*
X108617619Y-149919718D01*
X108617619Y-149919718D02*
X108529193Y-149936782D01*
X108529193Y-149936782D02*
X108529193Y-149936782D01*
G36*
X108711501Y-149926476D02*
G01*
X108792167Y-149956440D01*
X108825714Y-149978954D01*
X108859687Y-150011212D01*
X108883919Y-150052246D01*
X108900001Y-150108108D01*
X108909521Y-150184851D01*
X108914068Y-150288525D01*
X108915231Y-150425184D01*
X108915003Y-150495805D01*
X108913860Y-150592308D01*
X108911919Y-150669323D01*
X108909365Y-150720319D01*
X108906381Y-150738769D01*
X108886962Y-150732667D01*
X108847766Y-150716095D01*
X108846589Y-150715558D01*
X108826235Y-150704903D01*
X108812546Y-150690282D01*
X108804199Y-150664673D01*
X108799874Y-150621054D01*
X108798248Y-150552403D01*
X108798000Y-150451698D01*
X108797500Y-150387813D01*
X108792164Y-150267751D01*
X108779945Y-150179809D01*
X108759552Y-150119375D01*
X108729695Y-150081836D01*
X108689082Y-150062581D01*
X108683448Y-150061239D01*
X108607378Y-150060191D01*
X108548052Y-150094271D01*
X108507077Y-150162598D01*
X108499770Y-150182351D01*
X108483114Y-150226066D01*
X108474679Y-150246155D01*
X108457356Y-150243387D01*
X108419525Y-150228365D01*
X108384240Y-150203556D01*
X108368154Y-150156670D01*
X108372952Y-150123087D01*
X108402431Y-150054967D01*
X108450098Y-149991134D01*
X108505839Y-149946988D01*
X108529193Y-149936782D01*
X108617619Y-149919718D01*
X108711501Y-149926476D01*
G37*
X108711501Y-149926476D02*
X108792167Y-149956440D01*
X108825714Y-149978954D01*
X108859687Y-150011212D01*
X108883919Y-150052246D01*
X108900001Y-150108108D01*
X108909521Y-150184851D01*
X108914068Y-150288525D01*
X108915231Y-150425184D01*
X108915003Y-150495805D01*
X108913860Y-150592308D01*
X108911919Y-150669323D01*
X108909365Y-150720319D01*
X108906381Y-150738769D01*
X108886962Y-150732667D01*
X108847766Y-150716095D01*
X108846589Y-150715558D01*
X108826235Y-150704903D01*
X108812546Y-150690282D01*
X108804199Y-150664673D01*
X108799874Y-150621054D01*
X108798248Y-150552403D01*
X108798000Y-150451698D01*
X108797500Y-150387813D01*
X108792164Y-150267751D01*
X108779945Y-150179809D01*
X108759552Y-150119375D01*
X108729695Y-150081836D01*
X108689082Y-150062581D01*
X108683448Y-150061239D01*
X108607378Y-150060191D01*
X108548052Y-150094271D01*
X108507077Y-150162598D01*
X108499770Y-150182351D01*
X108483114Y-150226066D01*
X108474679Y-150246155D01*
X108457356Y-150243387D01*
X108419525Y-150228365D01*
X108384240Y-150203556D01*
X108368154Y-150156670D01*
X108372952Y-150123087D01*
X108402431Y-150054967D01*
X108450098Y-149991134D01*
X108505839Y-149946988D01*
X108529193Y-149936782D01*
X108617619Y-149919718D01*
X108711501Y-149926476D01*
X107854776Y-149947838D02*
X107777472Y-149998361D01*
X107777472Y-149998361D02*
X107740186Y-150043590D01*
X107740186Y-150043590D02*
X107710647Y-150125663D01*
X107710647Y-150125663D02*
X107708301Y-150190607D01*
X107708301Y-150190607D02*
X107713615Y-150277445D01*
X107713615Y-150277445D02*
X107913885Y-150365103D01*
X107913885Y-150365103D02*
X108011261Y-150409887D01*
X108011261Y-150409887D02*
X108074887Y-150445913D01*
X108074887Y-150445913D02*
X108107971Y-150477117D01*
X108107971Y-150477117D02*
X108113720Y-150507436D01*
X108113720Y-150507436D02*
X108095342Y-150540805D01*
X108095342Y-150540805D02*
X108075077Y-150562923D01*
X108075077Y-150562923D02*
X108016111Y-150598393D01*
X108016111Y-150598393D02*
X107951976Y-150600879D01*
X107951976Y-150600879D02*
X107893074Y-150573235D01*
X107893074Y-150573235D02*
X107849803Y-150518320D01*
X107849803Y-150518320D02*
X107842064Y-150498928D01*
X107842064Y-150498928D02*
X107804994Y-150438364D01*
X107804994Y-150438364D02*
X107762346Y-150412552D01*
X107762346Y-150412552D02*
X107703846Y-150390471D01*
X107703846Y-150390471D02*
X107703846Y-150474184D01*
X107703846Y-150474184D02*
X107709018Y-150531150D01*
X107709018Y-150531150D02*
X107729277Y-150579189D01*
X107729277Y-150579189D02*
X107771738Y-150634346D01*
X107771738Y-150634346D02*
X107778049Y-150641514D01*
X107778049Y-150641514D02*
X107825280Y-150690585D01*
X107825280Y-150690585D02*
X107865879Y-150716920D01*
X107865879Y-150716920D02*
X107916672Y-150729035D01*
X107916672Y-150729035D02*
X107958780Y-150733003D01*
X107958780Y-150733003D02*
X108034098Y-150733991D01*
X108034098Y-150733991D02*
X108087714Y-150721466D01*
X108087714Y-150721466D02*
X108121162Y-150702869D01*
X108121162Y-150702869D02*
X108173732Y-150661975D01*
X108173732Y-150661975D02*
X108210121Y-150617748D01*
X108210121Y-150617748D02*
X108233150Y-150562126D01*
X108233150Y-150562126D02*
X108245641Y-150487047D01*
X108245641Y-150487047D02*
X108250413Y-150384449D01*
X108250413Y-150384449D02*
X108250794Y-150332376D01*
X108250794Y-150332376D02*
X108249499Y-150269948D01*
X108249499Y-150269948D02*
X108131529Y-150269948D01*
X108131529Y-150269948D02*
X108130161Y-150303438D01*
X108130161Y-150303438D02*
X108126751Y-150308923D01*
X108126751Y-150308923D02*
X108104247Y-150301472D01*
X108104247Y-150301472D02*
X108055818Y-150281753D01*
X108055818Y-150281753D02*
X107991092Y-150253718D01*
X107991092Y-150253718D02*
X107977557Y-150247692D01*
X107977557Y-150247692D02*
X107895756Y-150206096D01*
X107895756Y-150206096D02*
X107850688Y-150169538D01*
X107850688Y-150169538D02*
X107840783Y-150135296D01*
X107840783Y-150135296D02*
X107864474Y-150100648D01*
X107864474Y-150100648D02*
X107884040Y-150085339D01*
X107884040Y-150085339D02*
X107954640Y-150054721D01*
X107954640Y-150054721D02*
X108020720Y-150059780D01*
X108020720Y-150059780D02*
X108076041Y-150097151D01*
X108076041Y-150097151D02*
X108114364Y-150163473D01*
X108114364Y-150163473D02*
X108126651Y-150216116D01*
X108126651Y-150216116D02*
X108131529Y-150269948D01*
X108131529Y-150269948D02*
X108249499Y-150269948D01*
X108249499Y-150269948D02*
X108248270Y-150210720D01*
X108248270Y-150210720D02*
X108238968Y-150120710D01*
X108238968Y-150120710D02*
X108220540Y-150055167D01*
X108220540Y-150055167D02*
X108190640Y-150006912D01*
X108190640Y-150006912D02*
X108146920Y-149968767D01*
X108146920Y-149968767D02*
X108127859Y-149956440D01*
X108127859Y-149956440D02*
X108041274Y-149924336D01*
X108041274Y-149924336D02*
X107946478Y-149922316D01*
X107946478Y-149922316D02*
X107854776Y-149947838D01*
X107854776Y-149947838D02*
X107854776Y-149947838D01*
G36*
X108250413Y-150384449D02*
G01*
X108245641Y-150487047D01*
X108233150Y-150562126D01*
X108210121Y-150617748D01*
X108173732Y-150661975D01*
X108121162Y-150702869D01*
X108087714Y-150721466D01*
X108034098Y-150733991D01*
X107958780Y-150733003D01*
X107916672Y-150729035D01*
X107865879Y-150716920D01*
X107825280Y-150690585D01*
X107778049Y-150641514D01*
X107771738Y-150634346D01*
X107729277Y-150579189D01*
X107709018Y-150531150D01*
X107703846Y-150474184D01*
X107703846Y-150390471D01*
X107762346Y-150412552D01*
X107804994Y-150438364D01*
X107842064Y-150498928D01*
X107849803Y-150518320D01*
X107893074Y-150573235D01*
X107951976Y-150600879D01*
X108016111Y-150598393D01*
X108075077Y-150562923D01*
X108095342Y-150540805D01*
X108113720Y-150507436D01*
X108107971Y-150477117D01*
X108074887Y-150445913D01*
X108011261Y-150409887D01*
X107913885Y-150365103D01*
X107713615Y-150277445D01*
X107708301Y-150190607D01*
X107710299Y-150135296D01*
X107840783Y-150135296D01*
X107850688Y-150169538D01*
X107895756Y-150206096D01*
X107977557Y-150247692D01*
X107991092Y-150253718D01*
X108055818Y-150281753D01*
X108104247Y-150301472D01*
X108126751Y-150308923D01*
X108130161Y-150303438D01*
X108131529Y-150269948D01*
X108126651Y-150216116D01*
X108114364Y-150163473D01*
X108076041Y-150097151D01*
X108020720Y-150059780D01*
X107954640Y-150054721D01*
X107884040Y-150085339D01*
X107864474Y-150100648D01*
X107840783Y-150135296D01*
X107710299Y-150135296D01*
X107710647Y-150125663D01*
X107740186Y-150043590D01*
X107777472Y-149998361D01*
X107854776Y-149947838D01*
X107946478Y-149922316D01*
X108041274Y-149924336D01*
X108127859Y-149956440D01*
X108146920Y-149968767D01*
X108190640Y-150006912D01*
X108220540Y-150055167D01*
X108238968Y-150120710D01*
X108248270Y-150210720D01*
X108249499Y-150269948D01*
X108250794Y-150332376D01*
X108250413Y-150384449D01*
G37*
X108250413Y-150384449D02*
X108245641Y-150487047D01*
X108233150Y-150562126D01*
X108210121Y-150617748D01*
X108173732Y-150661975D01*
X108121162Y-150702869D01*
X108087714Y-150721466D01*
X108034098Y-150733991D01*
X107958780Y-150733003D01*
X107916672Y-150729035D01*
X107865879Y-150716920D01*
X107825280Y-150690585D01*
X107778049Y-150641514D01*
X107771738Y-150634346D01*
X107729277Y-150579189D01*
X107709018Y-150531150D01*
X107703846Y-150474184D01*
X107703846Y-150390471D01*
X107762346Y-150412552D01*
X107804994Y-150438364D01*
X107842064Y-150498928D01*
X107849803Y-150518320D01*
X107893074Y-150573235D01*
X107951976Y-150600879D01*
X108016111Y-150598393D01*
X108075077Y-150562923D01*
X108095342Y-150540805D01*
X108113720Y-150507436D01*
X108107971Y-150477117D01*
X108074887Y-150445913D01*
X108011261Y-150409887D01*
X107913885Y-150365103D01*
X107713615Y-150277445D01*
X107708301Y-150190607D01*
X107710299Y-150135296D01*
X107840783Y-150135296D01*
X107850688Y-150169538D01*
X107895756Y-150206096D01*
X107977557Y-150247692D01*
X107991092Y-150253718D01*
X108055818Y-150281753D01*
X108104247Y-150301472D01*
X108126751Y-150308923D01*
X108130161Y-150303438D01*
X108131529Y-150269948D01*
X108126651Y-150216116D01*
X108114364Y-150163473D01*
X108076041Y-150097151D01*
X108020720Y-150059780D01*
X107954640Y-150054721D01*
X107884040Y-150085339D01*
X107864474Y-150100648D01*
X107840783Y-150135296D01*
X107710299Y-150135296D01*
X107710647Y-150125663D01*
X107740186Y-150043590D01*
X107777472Y-149998361D01*
X107854776Y-149947838D01*
X107946478Y-149922316D01*
X108041274Y-149924336D01*
X108127859Y-149956440D01*
X108146920Y-149968767D01*
X108190640Y-150006912D01*
X108220540Y-150055167D01*
X108238968Y-150120710D01*
X108248270Y-150210720D01*
X108249499Y-150269948D01*
X108250794Y-150332376D01*
X108250413Y-150384449D01*
D12*
%TO.C,R3*%
X130472936Y-145435000D02*
X130927064Y-145435000D01*
X130472936Y-143965000D02*
X130927064Y-143965000D01*
%TO.C,JP4*%
X90200000Y-135100000D02*
X90200000Y-133700000D01*
X88200000Y-133700000D02*
X88200000Y-135100000D01*
X89500000Y-133000000D02*
X88900000Y-133000000D01*
X88900000Y-135800000D02*
X89500000Y-135800000D01*
X90200000Y-133700000D02*
G75*
G03*
X89500000Y-133000000I-699999J1D01*
G01*
X89500000Y-135800000D02*
G75*
G03*
X90200000Y-135100000I1J699999D01*
G01*
X88200000Y-135100000D02*
G75*
G03*
X88900000Y-135800000I699999J-1D01*
G01*
X88900000Y-133000000D02*
G75*
G03*
X88200000Y-133700000I-1J-699999D01*
G01*
%TO.C,JP3*%
X93050000Y-138600000D02*
G75*
G03*
X92350000Y-137900000I-699999J1D01*
G01*
X90950000Y-137900000D02*
G75*
G03*
X90250000Y-138600000I-1J-699999D01*
G01*
X90250000Y-139200000D02*
G75*
G03*
X90950000Y-139900000I699999J-1D01*
G01*
X92350000Y-139900000D02*
G75*
G03*
X93050000Y-139200000I1J699999D01*
G01*
X90250000Y-138600000D02*
X90250000Y-139200000D01*
X93050000Y-139200000D02*
X93050000Y-138600000D01*
X92350000Y-137900000D02*
X90950000Y-137900000D01*
X90950000Y-139900000D02*
X92350000Y-139900000D01*
%TO.C,R4*%
X111735000Y-128027064D02*
X111735000Y-127572936D01*
X110265000Y-128027064D02*
X110265000Y-127572936D01*
%TO.C,C4*%
X79235000Y-138261252D02*
X79235000Y-137738748D01*
X77765000Y-138261252D02*
X77765000Y-137738748D01*
%TO.C,R10*%
X78227064Y-141735000D02*
X77772936Y-141735000D01*
X78227064Y-140265000D02*
X77772936Y-140265000D01*
%TO.C,D3*%
X112400000Y-126000000D02*
X112400000Y-129900000D01*
X112400000Y-126000000D02*
X114400000Y-126000000D01*
X114400000Y-126000000D02*
X114400000Y-129900000D01*
%TO.C,R11*%
X78227064Y-134265000D02*
X77772936Y-134265000D01*
X78227064Y-135735000D02*
X77772936Y-135735000D01*
%TO.C,R9*%
X83477064Y-142765000D02*
X83022936Y-142765000D01*
X83477064Y-144235000D02*
X83022936Y-144235000D01*
%TO.C,Q1*%
X111610000Y-138312500D02*
X111610000Y-139987500D01*
X108490000Y-138312500D02*
X108490000Y-138962500D01*
X111610000Y-138312500D02*
X111610000Y-137662500D01*
X108490000Y-138312500D02*
X108490000Y-137662500D01*
%TO.C,G\u002A\u002A\u002A*%
G36*
X92801438Y-150582558D02*
G01*
X92747750Y-150665214D01*
X92673730Y-150733565D01*
X92581335Y-150782854D01*
X92565935Y-150787617D01*
X92502888Y-150795368D01*
X92428602Y-150792437D01*
X92355458Y-150779869D01*
X92295837Y-150758713D01*
X92206226Y-150697638D01*
X92140629Y-150619377D01*
X92100512Y-150525644D01*
X92087318Y-150422397D01*
X92167492Y-150422397D01*
X92181975Y-150503113D01*
X92218479Y-150577805D01*
X92275682Y-150640988D01*
X92352263Y-150687175D01*
X92361403Y-150690809D01*
X92448404Y-150708556D01*
X92535694Y-150698502D01*
X92617861Y-150662036D01*
X92689495Y-150600550D01*
X92715393Y-150564886D01*
X92746499Y-150487297D01*
X92754182Y-150403166D01*
X92738237Y-150320657D01*
X92698455Y-150247934D01*
X92645769Y-150194706D01*
X92567896Y-150148784D01*
X92483440Y-150128620D01*
X92397441Y-150134464D01*
X92314939Y-150166566D01*
X92240972Y-150225177D01*
X92209872Y-150264834D01*
X92176350Y-150341142D01*
X92167492Y-150422397D01*
X92087318Y-150422397D01*
X92086735Y-150417838D01*
X92087035Y-150386859D01*
X92091838Y-150331048D01*
X92105060Y-150284785D01*
X92130017Y-150233987D01*
X92150176Y-150201430D01*
X92188007Y-150152134D01*
X92224032Y-150116685D01*
X92287539Y-150077102D01*
X92382952Y-150044474D01*
X92480936Y-150037873D01*
X92576609Y-150056177D01*
X92665084Y-150098262D01*
X92741479Y-150163007D01*
X92800910Y-150249287D01*
X92820914Y-150296373D01*
X92839979Y-150393378D01*
X92839258Y-150403166D01*
X92832833Y-150490360D01*
X92801438Y-150582558D01*
G37*
G36*
X102619533Y-148265294D02*
G01*
X102728719Y-148279587D01*
X102822660Y-148316186D01*
X102907594Y-148377342D01*
X102946425Y-148415559D01*
X103015609Y-148509506D01*
X103061590Y-148617678D01*
X103085274Y-148742644D01*
X103087567Y-148886969D01*
X103080944Y-148958281D01*
X103050945Y-149087571D01*
X102999073Y-149197085D01*
X102925795Y-149286176D01*
X102831578Y-149354197D01*
X102716890Y-149400500D01*
X102697851Y-149405041D01*
X102633987Y-149413389D01*
X102572004Y-149413838D01*
X102514501Y-149407097D01*
X102403500Y-149377396D01*
X102311121Y-149325567D01*
X102234297Y-149249580D01*
X102169961Y-149147401D01*
X102153563Y-149114588D01*
X102130845Y-149062929D01*
X102117042Y-149016195D01*
X102109173Y-148962743D01*
X102104253Y-148890929D01*
X102102699Y-148809570D01*
X102115118Y-148677521D01*
X102148119Y-148564069D01*
X102202736Y-148466213D01*
X102280001Y-148380954D01*
X102302590Y-148361635D01*
X102389043Y-148306127D01*
X102484367Y-148274774D01*
X102595806Y-148264914D01*
X102619533Y-148265294D01*
G37*
G36*
X97731098Y-150811520D02*
G01*
X94126639Y-150807027D01*
X93981125Y-150773563D01*
X93914898Y-150757500D01*
X93685780Y-150687093D01*
X93476981Y-150597419D01*
X93284879Y-150486464D01*
X93105853Y-150352215D01*
X92936282Y-150192659D01*
X92871488Y-150122412D01*
X92719830Y-149930187D01*
X92596345Y-149727867D01*
X92500766Y-149514788D01*
X92464163Y-149393835D01*
X93923490Y-149393835D01*
X93927545Y-149695796D01*
X93931601Y-149997756D01*
X94074129Y-149999928D01*
X94143860Y-149999872D01*
X94291896Y-149989951D01*
X94369694Y-149975251D01*
X95409391Y-149975251D01*
X96159539Y-149975251D01*
X96309569Y-149975251D01*
X97059716Y-149975251D01*
X97059716Y-147689495D01*
X97164737Y-147689495D01*
X97165696Y-147692776D01*
X97174965Y-147719593D01*
X97193455Y-147771542D01*
X97220397Y-147846501D01*
X97255020Y-147942347D01*
X97296555Y-148056958D01*
X97344233Y-148188213D01*
X97397284Y-148333989D01*
X97454938Y-148492164D01*
X97516426Y-148660615D01*
X97580977Y-148837221D01*
X97997218Y-149975251D01*
X98372383Y-149975233D01*
X98747549Y-149975216D01*
X98964114Y-149269867D01*
X98971019Y-149247401D01*
X99013575Y-149109926D01*
X99053568Y-148982384D01*
X99090121Y-148867458D01*
X99122360Y-148767832D01*
X99149407Y-148686189D01*
X99170387Y-148625213D01*
X99184423Y-148587589D01*
X99190639Y-148575999D01*
X99190797Y-148576224D01*
X99197665Y-148594282D01*
X99212401Y-148638007D01*
X99234105Y-148704576D01*
X99261878Y-148791169D01*
X99294820Y-148894965D01*
X99332031Y-149013143D01*
X99372611Y-149142884D01*
X99415659Y-149281365D01*
X99630720Y-149975251D01*
X100382870Y-149974735D01*
X101212626Y-147687301D01*
X100836304Y-147683287D01*
X100790500Y-147682855D01*
X100667888Y-147682453D01*
X100573692Y-147683498D01*
X100506735Y-147686030D01*
X100465840Y-147690084D01*
X100449829Y-147695700D01*
X100448357Y-147699287D01*
X100439131Y-147727249D01*
X100422628Y-147780171D01*
X100399673Y-147855317D01*
X100371091Y-147949950D01*
X100337706Y-148061332D01*
X100300343Y-148186728D01*
X100259825Y-148323399D01*
X100216979Y-148468609D01*
X100198255Y-148532059D01*
X100156481Y-148672469D01*
X100117384Y-148802329D01*
X100081777Y-148919032D01*
X100050475Y-149019967D01*
X100024290Y-149102525D01*
X100004037Y-149164097D01*
X99990529Y-149202073D01*
X99984580Y-149213845D01*
X99981089Y-149205058D01*
X99969738Y-149170058D01*
X99951665Y-149111288D01*
X99927755Y-149031722D01*
X99898893Y-148934333D01*
X99865965Y-148822096D01*
X99829855Y-148697985D01*
X99791449Y-148564974D01*
X99769188Y-148487636D01*
X99729953Y-148351529D01*
X99692549Y-148222027D01*
X99658053Y-148102836D01*
X99627538Y-147997664D01*
X99602078Y-147910214D01*
X99582748Y-147844194D01*
X99570623Y-147803309D01*
X99533226Y-147679270D01*
X99171274Y-147683286D01*
X98809321Y-147687301D01*
X98737353Y-147934850D01*
X98724581Y-147978782D01*
X98661325Y-148196298D01*
X98605801Y-148387001D01*
X98557475Y-148552579D01*
X98515813Y-148694719D01*
X98480282Y-148815109D01*
X98450348Y-148915437D01*
X98425477Y-148997388D01*
X98405135Y-149062651D01*
X98388788Y-149112913D01*
X98375903Y-149149862D01*
X98365946Y-149175183D01*
X98358382Y-149190566D01*
X98352679Y-149197697D01*
X98348302Y-149198263D01*
X98344718Y-149193952D01*
X98341392Y-149186451D01*
X98340396Y-149183743D01*
X98331074Y-149154946D01*
X98314403Y-149100935D01*
X98291259Y-149024635D01*
X98262519Y-148928972D01*
X98229059Y-148816870D01*
X98191755Y-148691256D01*
X98151485Y-148555055D01*
X98109124Y-148411193D01*
X97894199Y-147679799D01*
X97529468Y-147679799D01*
X97454936Y-147680004D01*
X97361328Y-147680898D01*
X97281430Y-147682402D01*
X97219316Y-147684409D01*
X97179061Y-147686809D01*
X97164737Y-147689495D01*
X97059716Y-147689495D01*
X97059716Y-147679799D01*
X96309569Y-147679799D01*
X96309569Y-149975251D01*
X96159539Y-149975251D01*
X96159539Y-147679799D01*
X95409391Y-147679799D01*
X95409391Y-149975251D01*
X94369694Y-149975251D01*
X94426693Y-149964481D01*
X94558144Y-149921204D01*
X94696142Y-149857859D01*
X94799280Y-149797173D01*
X94931507Y-149690835D01*
X95042401Y-149563855D01*
X95130524Y-149417688D01*
X95153140Y-149370739D01*
X95189801Y-149287249D01*
X95216288Y-149211475D01*
X95234166Y-149135893D01*
X95245003Y-149052975D01*
X95250365Y-148955195D01*
X95251819Y-148835027D01*
X95249773Y-148710388D01*
X95242054Y-148600265D01*
X95226978Y-148504755D01*
X95202870Y-148416094D01*
X95168052Y-148326517D01*
X95120848Y-148228256D01*
X95097164Y-148185611D01*
X95013710Y-148067819D01*
X94910452Y-147957417D01*
X94794822Y-147861725D01*
X94674247Y-147788067D01*
X94647492Y-147774988D01*
X94522627Y-147722636D01*
X94399624Y-147687516D01*
X94268467Y-147667311D01*
X94119137Y-147659705D01*
X93931601Y-147657295D01*
X93927545Y-147968606D01*
X93923490Y-148279917D01*
X94040068Y-148280247D01*
X94105727Y-148283074D01*
X94192024Y-148299634D01*
X94266765Y-148334135D01*
X94339654Y-148390134D01*
X94408541Y-148471504D01*
X94459240Y-148571503D01*
X94491285Y-148684435D01*
X94504512Y-148804878D01*
X94498756Y-148927406D01*
X94473851Y-149046596D01*
X94429633Y-149157024D01*
X94365936Y-149253265D01*
X94321011Y-149299226D01*
X94249642Y-149346185D01*
X94163348Y-149374740D01*
X94056117Y-149387494D01*
X93923490Y-149393835D01*
X92464163Y-149393835D01*
X92432826Y-149290284D01*
X92392258Y-149053691D01*
X92378795Y-148804342D01*
X92379562Y-148742142D01*
X92396943Y-148515903D01*
X92438326Y-148302236D01*
X92505168Y-148095078D01*
X92598928Y-147888366D01*
X92628782Y-147832644D01*
X92759974Y-147626466D01*
X92912845Y-147440507D01*
X93086231Y-147275660D01*
X93278964Y-147132817D01*
X93489882Y-147012870D01*
X93717818Y-146916710D01*
X93961606Y-146845230D01*
X93971929Y-146842928D01*
X93985357Y-146840352D01*
X94000982Y-146837954D01*
X94019834Y-146835726D01*
X94042943Y-146833663D01*
X94071338Y-146831758D01*
X94106050Y-146830005D01*
X94148109Y-146828398D01*
X94198545Y-146826930D01*
X94258388Y-146825595D01*
X94328667Y-146824387D01*
X94410412Y-146823299D01*
X94504654Y-146822326D01*
X94612423Y-146821460D01*
X94734748Y-146820696D01*
X94872660Y-146820027D01*
X95027188Y-146819447D01*
X95199362Y-146818950D01*
X95390213Y-146818529D01*
X95600770Y-146818178D01*
X95832063Y-146817891D01*
X96085123Y-146817661D01*
X96360979Y-146817482D01*
X96660660Y-146817348D01*
X96985198Y-146817253D01*
X97335622Y-146817189D01*
X97712962Y-146817152D01*
X98118248Y-146817134D01*
X98552510Y-146817129D01*
X103023390Y-146817129D01*
X103185031Y-146858185D01*
X103282715Y-146885212D01*
X103510838Y-146967901D01*
X103721519Y-147074139D01*
X103917020Y-147205173D01*
X104099606Y-147362251D01*
X104260785Y-147534800D01*
X104404828Y-147729400D01*
X104521843Y-147936853D01*
X104612078Y-148157670D01*
X104675777Y-148392365D01*
X104713187Y-148641450D01*
X104719941Y-148863035D01*
X104699297Y-149091307D01*
X104651852Y-149321017D01*
X104578278Y-149547667D01*
X104537606Y-149644628D01*
X104428344Y-149850691D01*
X104295279Y-150041415D01*
X104140686Y-150215109D01*
X103966837Y-150370082D01*
X103776007Y-150504640D01*
X103570471Y-150617092D01*
X103352502Y-150705747D01*
X103124375Y-150768912D01*
X102888364Y-150804896D01*
X102872011Y-150805904D01*
X102824235Y-150807575D01*
X102754573Y-150809204D01*
X102668052Y-150810697D01*
X102569696Y-150811959D01*
X102464530Y-150812895D01*
X102100709Y-150815417D01*
X102100709Y-149693318D01*
X102189562Y-149780261D01*
X102208476Y-149798165D01*
X102328679Y-149888219D01*
X102464578Y-149952996D01*
X102615214Y-149992131D01*
X102779626Y-150005257D01*
X102935330Y-149995830D01*
X103107361Y-149960163D01*
X103270939Y-149897162D01*
X103398305Y-149821808D01*
X103520848Y-149717663D01*
X103626390Y-149592510D01*
X103711189Y-149450148D01*
X103744295Y-149379341D01*
X103781052Y-149286965D01*
X103808099Y-149195465D01*
X103828318Y-149094552D01*
X103844589Y-148973939D01*
X103852861Y-148846498D01*
X103846625Y-148676551D01*
X103822397Y-148508842D01*
X103781442Y-148351438D01*
X103725028Y-148212404D01*
X103640508Y-148071016D01*
X103529860Y-147939503D01*
X103400211Y-147830588D01*
X103252985Y-147745453D01*
X103089605Y-147685279D01*
X103087406Y-147684677D01*
X103001385Y-147668170D01*
X102898776Y-147659013D01*
X102788745Y-147657078D01*
X102680459Y-147662239D01*
X102583085Y-147674369D01*
X102505788Y-147693343D01*
X102426330Y-147724848D01*
X102296560Y-147797664D01*
X102179474Y-147894548D01*
X102100709Y-147971332D01*
X102100709Y-147679799D01*
X101335558Y-147679799D01*
X101335558Y-150816013D01*
X97731098Y-150811520D01*
G37*
G36*
X92566332Y-150590372D02*
G01*
X92544237Y-150587910D01*
X92531627Y-150573373D01*
X92528824Y-150537862D01*
X92526440Y-150503033D01*
X92513972Y-150488255D01*
X92483573Y-150485352D01*
X92461198Y-150487234D01*
X92435232Y-150501896D01*
X92413281Y-150537862D01*
X92397026Y-150567083D01*
X92373869Y-150585925D01*
X92337623Y-150590372D01*
X92327346Y-150590329D01*
X92303579Y-150587965D01*
X92297277Y-150577892D01*
X92308384Y-150554505D01*
X92336843Y-150512203D01*
X92339115Y-150508915D01*
X92355661Y-150481444D01*
X92354242Y-150463385D01*
X92334383Y-150440939D01*
X92324182Y-150427998D01*
X92306835Y-150380603D01*
X92305338Y-150342141D01*
X92379229Y-150342141D01*
X92387901Y-150376580D01*
X92415841Y-150396895D01*
X92466590Y-150407449D01*
X92528824Y-150412062D01*
X92528824Y-150288588D01*
X92466590Y-150293201D01*
X92439040Y-150297065D01*
X92397293Y-150314558D01*
X92379229Y-150342141D01*
X92305338Y-150342141D01*
X92304674Y-150325071D01*
X92318960Y-150274980D01*
X92334417Y-150257691D01*
X92379565Y-150235344D01*
X92445016Y-150220692D01*
X92525074Y-150215382D01*
X92603839Y-150215298D01*
X92603839Y-150590372D01*
X92566332Y-150590372D01*
G37*
%TO.C,R6*%
X108227064Y-126065000D02*
X107772936Y-126065000D01*
X108227064Y-127535000D02*
X107772936Y-127535000D01*
%TO.C,L1*%
X100389758Y-128840000D02*
X101210242Y-128840000D01*
X100389758Y-129960000D02*
X101210242Y-129960000D01*
%TD*%
M02*
