%TF.GenerationSoftware,KiCad,Pcbnew,6.0.2+dfsg-1*%
%TF.CreationDate,2023-01-29T17:25:43-05:00*%
%TF.ProjectId,sensor-board,73656e73-6f72-42d6-926f-6172642e6b69,rev?*%
%TF.SameCoordinates,Original*%
%TF.FileFunction,Copper,L4,Bot*%
%TF.FilePolarity,Positive*%
%FSLAX46Y46*%
G04 Gerber Fmt 4.6, Leading zero omitted, Abs format (unit mm)*
G04 Created by KiCad (PCBNEW 6.0.2+dfsg-1) date 2023-01-29 17:25:43*
%MOMM*%
%LPD*%
G01*
G04 APERTURE LIST*
G04 Aperture macros list*
%AMRoundRect*
0 Rectangle with rounded corners*
0 $1 Rounding radius*
0 $2 $3 $4 $5 $6 $7 $8 $9 X,Y pos of 4 corners*
0 Add a 4 corners polygon primitive as box body*
4,1,4,$2,$3,$4,$5,$6,$7,$8,$9,$2,$3,0*
0 Add four circle primitives for the rounded corners*
1,1,$1+$1,$2,$3*
1,1,$1+$1,$4,$5*
1,1,$1+$1,$6,$7*
1,1,$1+$1,$8,$9*
0 Add four rect primitives between the rounded corners*
20,1,$1+$1,$2,$3,$4,$5,0*
20,1,$1+$1,$4,$5,$6,$7,0*
20,1,$1+$1,$6,$7,$8,$9,0*
20,1,$1+$1,$8,$9,$2,$3,0*%
%AMFreePoly0*
4,1,6,1.000000,0.000000,0.500000,-0.750000,-0.500000,-0.750000,-0.500000,0.750000,0.500000,0.750000,1.000000,0.000000,1.000000,0.000000,$1*%
%AMFreePoly1*
4,1,6,0.500000,-0.750000,-0.650000,-0.750000,-0.150000,0.000000,-0.650000,0.750000,0.500000,0.750000,0.500000,-0.750000,0.500000,-0.750000,$1*%
G04 Aperture macros list end*
%TA.AperFunction,SMDPad,CuDef*%
%ADD10RoundRect,0.250000X0.350000X0.450000X-0.350000X0.450000X-0.350000X-0.450000X0.350000X-0.450000X0*%
%TD*%
%TA.AperFunction,ComponentPad*%
%ADD11R,1.980000X3.960000*%
%TD*%
%TA.AperFunction,ComponentPad*%
%ADD12O,1.980000X3.960000*%
%TD*%
%TA.AperFunction,ComponentPad*%
%ADD13R,3.960000X1.980000*%
%TD*%
%TA.AperFunction,ComponentPad*%
%ADD14O,3.960000X1.980000*%
%TD*%
%TA.AperFunction,SMDPad,CuDef*%
%ADD15FreePoly0,90.000000*%
%TD*%
%TA.AperFunction,SMDPad,CuDef*%
%ADD16FreePoly1,90.000000*%
%TD*%
%TA.AperFunction,SMDPad,CuDef*%
%ADD17RoundRect,0.250000X-0.350000X-0.450000X0.350000X-0.450000X0.350000X0.450000X-0.350000X0.450000X0*%
%TD*%
%TA.AperFunction,SMDPad,CuDef*%
%ADD18RoundRect,0.250000X0.450000X-0.350000X0.450000X0.350000X-0.450000X0.350000X-0.450000X-0.350000X0*%
%TD*%
%TA.AperFunction,SMDPad,CuDef*%
%ADD19RoundRect,0.250000X0.475000X-0.337500X0.475000X0.337500X-0.475000X0.337500X-0.475000X-0.337500X0*%
%TD*%
%TA.AperFunction,SMDPad,CuDef*%
%ADD20R,1.200000X0.900000*%
%TD*%
%TA.AperFunction,SMDPad,CuDef*%
%ADD21FreePoly0,0.000000*%
%TD*%
%TA.AperFunction,SMDPad,CuDef*%
%ADD22FreePoly1,0.000000*%
%TD*%
%TA.AperFunction,SMDPad,CuDef*%
%ADD23RoundRect,0.150000X0.150000X-0.587500X0.150000X0.587500X-0.150000X0.587500X-0.150000X-0.587500X0*%
%TD*%
%TA.AperFunction,SMDPad,CuDef*%
%ADD24RoundRect,0.250000X-0.275000X-0.350000X0.275000X-0.350000X0.275000X0.350000X-0.275000X0.350000X0*%
%TD*%
%TA.AperFunction,ViaPad*%
%ADD25C,0.800000*%
%TD*%
%TA.AperFunction,Conductor*%
%ADD26C,0.250000*%
%TD*%
%TA.AperFunction,Conductor*%
%ADD27C,0.200000*%
%TD*%
G04 APERTURE END LIST*
D10*
%TO.P,R6,1*%
%TO.N,+3V3A*%
X117500000Y-126400000D03*
%TO.P,R6,2*%
%TO.N,Net-(D3-Pad1)*%
X115500000Y-126400000D03*
%TD*%
D11*
%TO.P,J3,1,Pin_1*%
%TO.N,+3V3*%
X103000000Y-144250000D03*
D12*
%TO.P,J3,2,Pin_2*%
%TO.N,DQ*%
X98000000Y-144250000D03*
%TO.P,J3,3,Pin_3*%
%TO.N,GND*%
X93000000Y-144250000D03*
%TD*%
D13*
%TO.P,J4,1,Pin_1*%
%TO.N,VIN+*%
X82300000Y-141165000D03*
D14*
%TO.P,J4,2,Pin_2*%
%TO.N,VIN-*%
X82300000Y-136165000D03*
%TD*%
D15*
%TO.P,JP4,1,A*%
%TO.N,VIN-*%
X89200000Y-135125000D03*
D16*
%TO.P,JP4,2,B*%
%TO.N,Net-(C4-Pad2)*%
X89200000Y-133675000D03*
%TD*%
D17*
%TO.P,R3,1*%
%TO.N,+3V3*%
X129700000Y-144700000D03*
%TO.P,R3,2*%
%TO.N,Net-(R3-Pad2)*%
X131700000Y-144700000D03*
%TD*%
D18*
%TO.P,R4,1*%
%TO.N,VIN+*%
X111000000Y-128800000D03*
%TO.P,R4,2*%
%TO.N,Net-(D3-Pad1)*%
X111000000Y-126800000D03*
%TD*%
D19*
%TO.P,C4,1*%
%TO.N,Net-(C4-Pad1)*%
X78500000Y-139037500D03*
%TO.P,C4,2*%
%TO.N,Net-(C4-Pad2)*%
X78500000Y-136962500D03*
%TD*%
D10*
%TO.P,R11,1*%
%TO.N,Net-(C4-Pad1)*%
X79000000Y-141000000D03*
%TO.P,R11,2*%
%TO.N,GND*%
X77000000Y-141000000D03*
%TD*%
D20*
%TO.P,D3,1,K*%
%TO.N,Net-(D3-Pad1)*%
X113400000Y-126600000D03*
%TO.P,D3,2,A*%
%TO.N,GNDA*%
X113400000Y-129900000D03*
%TD*%
D10*
%TO.P,R12,1*%
%TO.N,Net-(C4-Pad2)*%
X79000000Y-135000000D03*
%TO.P,R12,2*%
%TO.N,GND*%
X77000000Y-135000000D03*
%TD*%
D21*
%TO.P,JP3,1,A*%
%TO.N,VIN+*%
X89900000Y-138900000D03*
D22*
%TO.P,JP3,2,B*%
%TO.N,Net-(C4-Pad1)*%
X91350000Y-138900000D03*
%TD*%
D10*
%TO.P,R10,1*%
%TO.N,+3V3*%
X84250000Y-143500000D03*
%TO.P,R10,2*%
%TO.N,Net-(C4-Pad1)*%
X82250000Y-143500000D03*
%TD*%
D23*
%TO.P,Q1,1,G*%
%TO.N,PCTLZ*%
X111000000Y-139250000D03*
%TO.P,Q1,2,S*%
%TO.N,+3V3*%
X109100000Y-139250000D03*
%TO.P,Q1,3,D*%
%TO.N,DQ*%
X110050000Y-137375000D03*
%TD*%
D10*
%TO.P,R7,1*%
%TO.N,Net-(D3-Pad1)*%
X109000000Y-126800000D03*
%TO.P,R7,2*%
%TO.N,GNDA*%
X107000000Y-126800000D03*
%TD*%
D24*
%TO.P,L1,1*%
%TO.N,GND*%
X99650000Y-129400000D03*
%TO.P,L1,2*%
%TO.N,GNDA*%
X101950000Y-129400000D03*
%TD*%
D25*
%TO.N,+3V3A*%
X120100000Y-126000000D03*
%TO.N,+3V3*%
X128500000Y-144700000D03*
X110000000Y-139500000D03*
X85750000Y-143500000D03*
%TO.N,GND*%
X78000000Y-131000000D03*
X117500000Y-139250000D03*
X106250000Y-139250000D03*
X124700000Y-127400000D03*
X88250000Y-131000000D03*
X91400000Y-126000000D03*
X81500000Y-145724500D03*
X94250000Y-133250000D03*
X123900000Y-149100000D03*
%TO.N,VIN+*%
X89600000Y-141175500D03*
X111000000Y-130200000D03*
X102300000Y-139900000D03*
X116900000Y-145400000D03*
%TO.N,VIN-*%
X104100000Y-139900000D03*
X116700000Y-144200000D03*
X88100000Y-136200000D03*
%TO.N,GNDA*%
X117200000Y-131700000D03*
X102000000Y-128000000D03*
X105000000Y-130800000D03*
X110085493Y-125738744D03*
X119000000Y-126800000D03*
X109600000Y-131600000D03*
%TO.N,Net-(C4-Pad1)*%
X90000000Y-132500000D03*
X80900000Y-143400000D03*
X80600000Y-139200000D03*
X90912299Y-136387701D03*
%TO.N,SDA*%
X115600000Y-129850499D03*
X93000000Y-129500000D03*
X133510377Y-142606611D03*
X114750000Y-140500000D03*
X79050000Y-145050000D03*
X79750000Y-131500000D03*
X84500000Y-146000000D03*
%TO.N,SCL*%
X85900000Y-141900000D03*
X80750000Y-132000000D03*
X133400000Y-143600000D03*
X84250000Y-130750000D03*
X79250000Y-142500000D03*
X94000000Y-129500000D03*
X105750000Y-140750000D03*
X115600000Y-128800000D03*
%TO.N,DQ*%
X109250000Y-137750000D03*
%TO.N,Net-(JP2-Pad2)*%
X114500000Y-138000000D03*
X117750000Y-138000000D03*
%TO.N,Net-(C4-Pad2)*%
X80900000Y-133800000D03*
X87300000Y-133800000D03*
%TO.N,PCTLZ*%
X112000000Y-139250000D03*
%TO.N,Net-(D3-Pad1)*%
X111800000Y-125600000D03*
%TO.N,A0*%
X133500000Y-147300000D03*
X128924937Y-142275063D03*
%TO.N,A1*%
X127300000Y-140600000D03*
X133400000Y-146000000D03*
%TO.N,A2*%
X129800000Y-146200000D03*
X124368369Y-140231631D03*
%TO.N,Net-(R13-Pad2)*%
X97000000Y-128000000D03*
X96400000Y-130800000D03*
%TO.N,Net-(R3-Pad2)*%
X133300000Y-144600000D03*
%TD*%
D26*
%TO.N,+3V3A*%
X117900000Y-126000000D02*
X120100000Y-126000000D01*
X117500000Y-126400000D02*
X117900000Y-126000000D01*
%TO.N,Net-(D3-Pad1)*%
X113400000Y-126600000D02*
X115300000Y-126600000D01*
X115300000Y-126600000D02*
X115500000Y-126400000D01*
%TO.N,+3V3*%
X84250000Y-143500000D02*
X85750000Y-143500000D01*
X129700000Y-144700000D02*
X128500000Y-144700000D01*
X109750000Y-139250000D02*
X110000000Y-139500000D01*
X109100000Y-139250000D02*
X109750000Y-139250000D01*
D27*
%TO.N,VIN+*%
X89600000Y-141175500D02*
X89900000Y-140875500D01*
X111000000Y-130200000D02*
X111000000Y-128800000D01*
X89900000Y-140875500D02*
X89900000Y-138900000D01*
%TO.N,VIN-*%
X88100000Y-136150000D02*
X89200000Y-135050000D01*
X88100000Y-136200000D02*
X88100000Y-136150000D01*
%TO.N,Net-(C4-Pad1)*%
X90912299Y-136387701D02*
X91350000Y-136825402D01*
X79000000Y-141000000D02*
X79250000Y-141250000D01*
D26*
X81000000Y-143500000D02*
X80900000Y-143400000D01*
X80600000Y-139200000D02*
X78662500Y-139200000D01*
X82250000Y-143500000D02*
X81000000Y-143500000D01*
D27*
X78500000Y-139037500D02*
X78500000Y-140500000D01*
X91350000Y-136825402D02*
X91350000Y-138900000D01*
X78500000Y-140500000D02*
X79000000Y-141000000D01*
D26*
X78662500Y-139200000D02*
X78500000Y-139037500D01*
%TO.N,DQ*%
X109625000Y-137375000D02*
X109250000Y-137750000D01*
X110050000Y-137375000D02*
X109625000Y-137375000D01*
D27*
%TO.N,Net-(C4-Pad2)*%
X79000000Y-136462500D02*
X78500000Y-136962500D01*
X79000000Y-135000000D02*
X79000000Y-136462500D01*
X87300000Y-133800000D02*
X89150000Y-133800000D01*
X89150000Y-133800000D02*
X89200000Y-133750000D01*
X79700000Y-135000000D02*
X80900000Y-133800000D01*
X79000000Y-135000000D02*
X79700000Y-135000000D01*
D26*
%TO.N,PCTLZ*%
X111000000Y-139250000D02*
X112000000Y-139250000D01*
%TO.N,Net-(D3-Pad1)*%
X111000000Y-126400000D02*
X111800000Y-125600000D01*
X111000000Y-126800000D02*
X111000000Y-126400000D01*
X113200000Y-126800000D02*
X113400000Y-126600000D01*
X111000000Y-126800000D02*
X113200000Y-126800000D01*
X109000000Y-126800000D02*
X111000000Y-126800000D01*
%TO.N,Net-(R3-Pad2)*%
X131800000Y-144600000D02*
X131700000Y-144700000D01*
X133300000Y-144600000D02*
X131800000Y-144600000D01*
%TD*%
%TA.AperFunction,Conductor*%
%TO.N,GND*%
G36*
X100274107Y-125279117D02*
G01*
X100342210Y-125299177D01*
X100388658Y-125352871D01*
X100400000Y-125405117D01*
X100400000Y-128234373D01*
X100379998Y-128302494D01*
X100326342Y-128348987D01*
X100256068Y-128359091D01*
X100234332Y-128353966D01*
X100086290Y-128304862D01*
X100072914Y-128301995D01*
X99978562Y-128292328D01*
X99972145Y-128292000D01*
X99922115Y-128292000D01*
X99906876Y-128296475D01*
X99905671Y-128297865D01*
X99904000Y-128305548D01*
X99904000Y-130489884D01*
X99908475Y-130505123D01*
X99909865Y-130506328D01*
X99917548Y-130507999D01*
X99972095Y-130507999D01*
X99978614Y-130507662D01*
X100074206Y-130497743D01*
X100087603Y-130494850D01*
X100234125Y-130445968D01*
X100305074Y-130443384D01*
X100366158Y-130479568D01*
X100397982Y-130543033D01*
X100400000Y-130565492D01*
X100400000Y-138000000D01*
X101268637Y-138029953D01*
X106181894Y-138199376D01*
X106181895Y-138199376D01*
X106200000Y-138200000D01*
X106200000Y-133926000D01*
X106220002Y-133857879D01*
X106273658Y-133811386D01*
X106326000Y-133800000D01*
X122700000Y-133800000D01*
X122700000Y-125424149D01*
X122720002Y-125356028D01*
X122773658Y-125309535D01*
X122826104Y-125298150D01*
X129661952Y-125303918D01*
X133865689Y-125307466D01*
X133933793Y-125327526D01*
X133980241Y-125381220D01*
X133991583Y-125433549D01*
X133980928Y-141627697D01*
X133960881Y-141695804D01*
X133907195Y-141742262D01*
X133836914Y-141752320D01*
X133803677Y-141742720D01*
X133802649Y-141742262D01*
X133792665Y-141737817D01*
X133693012Y-141716635D01*
X133612321Y-141699483D01*
X133612316Y-141699483D01*
X133605864Y-141698111D01*
X133414890Y-141698111D01*
X133408438Y-141699483D01*
X133408433Y-141699483D01*
X133327742Y-141716635D01*
X133228089Y-141737817D01*
X133222059Y-141740502D01*
X133222058Y-141740502D01*
X133059655Y-141812808D01*
X133059653Y-141812809D01*
X133053625Y-141815493D01*
X133048284Y-141819373D01*
X133048283Y-141819374D01*
X133000121Y-141854366D01*
X132899124Y-141927745D01*
X132894703Y-141932655D01*
X132894702Y-141932656D01*
X132786213Y-142053146D01*
X132771337Y-142069667D01*
X132734856Y-142132854D01*
X132691660Y-142207672D01*
X132675850Y-142235055D01*
X132616835Y-142416683D01*
X132616145Y-142423244D01*
X132616145Y-142423246D01*
X132613260Y-142450695D01*
X132596873Y-142606611D01*
X132597563Y-142613176D01*
X132614119Y-142770694D01*
X132616835Y-142796539D01*
X132638448Y-142863056D01*
X132670802Y-142962631D01*
X132672830Y-143033598D01*
X132660089Y-143064565D01*
X132613517Y-143145229D01*
X132584813Y-143194947D01*
X132565473Y-143228444D01*
X132506458Y-143410072D01*
X132505768Y-143416633D01*
X132505768Y-143416635D01*
X132503307Y-143440051D01*
X132476293Y-143505708D01*
X132418071Y-143546337D01*
X132347126Y-143549040D01*
X132338351Y-143546480D01*
X132204861Y-143502203D01*
X132198025Y-143501503D01*
X132198022Y-143501502D01*
X132154969Y-143497091D01*
X132100400Y-143491500D01*
X131299600Y-143491500D01*
X131296354Y-143491837D01*
X131296350Y-143491837D01*
X131200692Y-143501762D01*
X131200688Y-143501763D01*
X131193834Y-143502474D01*
X131187298Y-143504655D01*
X131187296Y-143504655D01*
X131149542Y-143517251D01*
X131026054Y-143558450D01*
X130875652Y-143651522D01*
X130843865Y-143683365D01*
X130789216Y-143738109D01*
X130726934Y-143772188D01*
X130656114Y-143767185D01*
X130611025Y-143738264D01*
X130528483Y-143655866D01*
X130523303Y-143650695D01*
X130414074Y-143583365D01*
X130378968Y-143561725D01*
X130378966Y-143561724D01*
X130372738Y-143557885D01*
X130250230Y-143517251D01*
X130211389Y-143504368D01*
X130211387Y-143504368D01*
X130204861Y-143502203D01*
X130198025Y-143501503D01*
X130198022Y-143501502D01*
X130154969Y-143497091D01*
X130100400Y-143491500D01*
X129299600Y-143491500D01*
X129296354Y-143491837D01*
X129296350Y-143491837D01*
X129200692Y-143501762D01*
X129200688Y-143501763D01*
X129193834Y-143502474D01*
X129187298Y-143504655D01*
X129187296Y-143504655D01*
X129149542Y-143517251D01*
X129026054Y-143558450D01*
X128875652Y-143651522D01*
X128870479Y-143656704D01*
X128759719Y-143767657D01*
X128697436Y-143801736D01*
X128644349Y-143801886D01*
X128601944Y-143792872D01*
X128601939Y-143792872D01*
X128595487Y-143791500D01*
X128404513Y-143791500D01*
X128398061Y-143792872D01*
X128398056Y-143792872D01*
X128311112Y-143811353D01*
X128217712Y-143831206D01*
X128211682Y-143833891D01*
X128211681Y-143833891D01*
X128049278Y-143906197D01*
X128049276Y-143906198D01*
X128043248Y-143908882D01*
X127888747Y-144021134D01*
X127760960Y-144163056D01*
X127665473Y-144328444D01*
X127606458Y-144510072D01*
X127605768Y-144516633D01*
X127605768Y-144516635D01*
X127592983Y-144638275D01*
X127586496Y-144700000D01*
X127587186Y-144706565D01*
X127604235Y-144868774D01*
X127606458Y-144889928D01*
X127665473Y-145071556D01*
X127760960Y-145236944D01*
X127765378Y-145241851D01*
X127765379Y-145241852D01*
X127841187Y-145326045D01*
X127888747Y-145378866D01*
X127938854Y-145415271D01*
X128035630Y-145485583D01*
X128043248Y-145491118D01*
X128049276Y-145493802D01*
X128049278Y-145493803D01*
X128211681Y-145566109D01*
X128217712Y-145568794D01*
X128286263Y-145583365D01*
X128398056Y-145607128D01*
X128398061Y-145607128D01*
X128404513Y-145608500D01*
X128595487Y-145608500D01*
X128601939Y-145607128D01*
X128601944Y-145607128D01*
X128644194Y-145598147D01*
X128714985Y-145603549D01*
X128759408Y-145632221D01*
X128876697Y-145749305D01*
X128882927Y-145753145D01*
X128882928Y-145753146D01*
X128887753Y-145756120D01*
X128935246Y-145808892D01*
X128946670Y-145878964D01*
X128941470Y-145902316D01*
X128936116Y-145918794D01*
X128906458Y-146010072D01*
X128905768Y-146016633D01*
X128905768Y-146016635D01*
X128898819Y-146082749D01*
X128886496Y-146200000D01*
X128887186Y-146206565D01*
X128905129Y-146377279D01*
X128906458Y-146389928D01*
X128965473Y-146571556D01*
X128968776Y-146577278D01*
X128968777Y-146577279D01*
X128996991Y-146626147D01*
X129060960Y-146736944D01*
X129065378Y-146741851D01*
X129065379Y-146741852D01*
X129179678Y-146868794D01*
X129188747Y-146878866D01*
X129343248Y-146991118D01*
X129349276Y-146993802D01*
X129349278Y-146993803D01*
X129511681Y-147066109D01*
X129517712Y-147068794D01*
X129611112Y-147088647D01*
X129698056Y-147107128D01*
X129698061Y-147107128D01*
X129704513Y-147108500D01*
X129895487Y-147108500D01*
X129901939Y-147107128D01*
X129901944Y-147107128D01*
X129988888Y-147088647D01*
X130082288Y-147068794D01*
X130088319Y-147066109D01*
X130250722Y-146993803D01*
X130250724Y-146993802D01*
X130256752Y-146991118D01*
X130411253Y-146878866D01*
X130420322Y-146868794D01*
X130534621Y-146741852D01*
X130534622Y-146741851D01*
X130539040Y-146736944D01*
X130603009Y-146626147D01*
X130631223Y-146577279D01*
X130631224Y-146577278D01*
X130634527Y-146571556D01*
X130693542Y-146389928D01*
X130694872Y-146377279D01*
X130712814Y-146206565D01*
X130713504Y-146200000D01*
X130701181Y-146082749D01*
X130694232Y-146016635D01*
X130694232Y-146016633D01*
X130693542Y-146010072D01*
X130663884Y-145918794D01*
X130642082Y-145851694D01*
X130640055Y-145780726D01*
X130676717Y-145719929D01*
X130740429Y-145688603D01*
X130810963Y-145696696D01*
X130850931Y-145723584D01*
X130876697Y-145749305D01*
X130882927Y-145753145D01*
X130882928Y-145753146D01*
X131005084Y-145828444D01*
X131027262Y-145842115D01*
X131056142Y-145851694D01*
X131188611Y-145895632D01*
X131188613Y-145895632D01*
X131195139Y-145897797D01*
X131201975Y-145898497D01*
X131201978Y-145898498D01*
X131239244Y-145902316D01*
X131299600Y-145908500D01*
X132100400Y-145908500D01*
X132103646Y-145908163D01*
X132103650Y-145908163D01*
X132199308Y-145898238D01*
X132199312Y-145898237D01*
X132206166Y-145897526D01*
X132212702Y-145895345D01*
X132212704Y-145895345D01*
X132322203Y-145858813D01*
X132393152Y-145856229D01*
X132454236Y-145892412D01*
X132486061Y-145955877D01*
X132487388Y-145991513D01*
X132486496Y-146000000D01*
X132487186Y-146006565D01*
X132505592Y-146181684D01*
X132506458Y-146189928D01*
X132565473Y-146371556D01*
X132660960Y-146536944D01*
X132740180Y-146624926D01*
X132770895Y-146688931D01*
X132762132Y-146759384D01*
X132755661Y-146772234D01*
X132665473Y-146928444D01*
X132606458Y-147110072D01*
X132586496Y-147300000D01*
X132606458Y-147489928D01*
X132665473Y-147671556D01*
X132760960Y-147836944D01*
X132888747Y-147978866D01*
X133043248Y-148091118D01*
X133049276Y-148093802D01*
X133049278Y-148093803D01*
X133211679Y-148166108D01*
X133217712Y-148168794D01*
X133311113Y-148188647D01*
X133398056Y-148207128D01*
X133398061Y-148207128D01*
X133404513Y-148208500D01*
X133595487Y-148208500D01*
X133601939Y-148207128D01*
X133601944Y-148207128D01*
X133688887Y-148188647D01*
X133782288Y-148168794D01*
X133788315Y-148166111D01*
X133788323Y-148166108D01*
X133799308Y-148161217D01*
X133869675Y-148151784D01*
X133933971Y-148181892D01*
X133971783Y-148241982D01*
X133976554Y-148276408D01*
X133975019Y-150609601D01*
X133954972Y-150677708D01*
X133901286Y-150724166D01*
X133849033Y-150735518D01*
X102185896Y-150739021D01*
X75884014Y-150741930D01*
X75815891Y-150721935D01*
X75769392Y-150668285D01*
X75758000Y-150615930D01*
X75758000Y-146000000D01*
X83586496Y-146000000D01*
X83587186Y-146006565D01*
X83605592Y-146181684D01*
X83606458Y-146189928D01*
X83665473Y-146371556D01*
X83760960Y-146536944D01*
X83765375Y-146541847D01*
X83765379Y-146541852D01*
X83884325Y-146673955D01*
X83888747Y-146678866D01*
X83987843Y-146750864D01*
X84017257Y-146772234D01*
X84043248Y-146791118D01*
X84049276Y-146793802D01*
X84049278Y-146793803D01*
X84211681Y-146866109D01*
X84217712Y-146868794D01*
X84283365Y-146882749D01*
X84398056Y-146907128D01*
X84398061Y-146907128D01*
X84404513Y-146908500D01*
X84595487Y-146908500D01*
X84601939Y-146907128D01*
X84601944Y-146907128D01*
X84716635Y-146882749D01*
X84782288Y-146868794D01*
X84788319Y-146866109D01*
X84950722Y-146793803D01*
X84950724Y-146793802D01*
X84956752Y-146791118D01*
X84982744Y-146772234D01*
X85012157Y-146750864D01*
X85111253Y-146678866D01*
X85115675Y-146673955D01*
X85234621Y-146541852D01*
X85234625Y-146541847D01*
X85239040Y-146536944D01*
X85334527Y-146371556D01*
X85393542Y-146189928D01*
X85394409Y-146181684D01*
X85412814Y-146006565D01*
X85413504Y-146000000D01*
X85407782Y-145945557D01*
X85394232Y-145816635D01*
X85394232Y-145816633D01*
X85393542Y-145810072D01*
X85334527Y-145628444D01*
X85239040Y-145463056D01*
X85111253Y-145321134D01*
X85081968Y-145299857D01*
X91502000Y-145299857D01*
X91502212Y-145305030D01*
X91516626Y-145480350D01*
X91518309Y-145490512D01*
X91575800Y-145719396D01*
X91579121Y-145729151D01*
X91673218Y-145945557D01*
X91678096Y-145954655D01*
X91806273Y-146152787D01*
X91812563Y-146160956D01*
X91971387Y-146335501D01*
X91978920Y-146342526D01*
X92164120Y-146488787D01*
X92172707Y-146494492D01*
X92379297Y-146608536D01*
X92388709Y-146612766D01*
X92611156Y-146691539D01*
X92621127Y-146694173D01*
X92728163Y-146713239D01*
X92741460Y-146711779D01*
X92745591Y-146698534D01*
X93254000Y-146698534D01*
X93257918Y-146711878D01*
X93272194Y-146713865D01*
X93343236Y-146702994D01*
X93353263Y-146700605D01*
X93577570Y-146627291D01*
X93587079Y-146623294D01*
X93796395Y-146514331D01*
X93805120Y-146508837D01*
X93993835Y-146367146D01*
X94001542Y-146360303D01*
X94164584Y-146189690D01*
X94171067Y-146181684D01*
X94304057Y-145986726D01*
X94309143Y-145977774D01*
X94408506Y-145763715D01*
X94412060Y-145754055D01*
X94475130Y-145526631D01*
X94477057Y-145516527D01*
X94497644Y-145323898D01*
X94498000Y-145317206D01*
X94498000Y-145302469D01*
X96501500Y-145302469D01*
X96501711Y-145305030D01*
X96501712Y-145305053D01*
X96516131Y-145480432D01*
X96516132Y-145480438D01*
X96516555Y-145485583D01*
X96543248Y-145591852D01*
X96572385Y-145707852D01*
X96576584Y-145724570D01*
X96578642Y-145729303D01*
X96578643Y-145729306D01*
X96672672Y-145945557D01*
X96674840Y-145950544D01*
X96677644Y-145954878D01*
X96677646Y-145954882D01*
X96805874Y-146153092D01*
X96805879Y-146153098D01*
X96808685Y-146157436D01*
X96812165Y-146161261D01*
X96812167Y-146161263D01*
X96834921Y-146186269D01*
X96974523Y-146339690D01*
X96978574Y-146342889D01*
X96978578Y-146342893D01*
X97046085Y-146396206D01*
X97167901Y-146492410D01*
X97248574Y-146536944D01*
X97350591Y-146593261D01*
X97383625Y-146611497D01*
X97615903Y-146693750D01*
X97620995Y-146694657D01*
X97853407Y-146736057D01*
X97853411Y-146736057D01*
X97858495Y-146736963D01*
X97937914Y-146737933D01*
X98099718Y-146739910D01*
X98099720Y-146739910D01*
X98104888Y-146739973D01*
X98348464Y-146702701D01*
X98582682Y-146626147D01*
X98587270Y-146623759D01*
X98587274Y-146623757D01*
X98796663Y-146514756D01*
X98796664Y-146514755D01*
X98801252Y-146512367D01*
X98805385Y-146509264D01*
X98805388Y-146509262D01*
X98994168Y-146367521D01*
X98994170Y-146367519D01*
X98998303Y-146364416D01*
X99080756Y-146278134D01*
X101501500Y-146278134D01*
X101508255Y-146340316D01*
X101559385Y-146476705D01*
X101646739Y-146593261D01*
X101763295Y-146680615D01*
X101899684Y-146731745D01*
X101961866Y-146738500D01*
X104038134Y-146738500D01*
X104100316Y-146731745D01*
X104236705Y-146680615D01*
X104353261Y-146593261D01*
X104440615Y-146476705D01*
X104491745Y-146340316D01*
X104498500Y-146278134D01*
X104498500Y-144200000D01*
X115786496Y-144200000D01*
X115787186Y-144206565D01*
X115804483Y-144371134D01*
X115806458Y-144389928D01*
X115865473Y-144571556D01*
X115960960Y-144736944D01*
X115965378Y-144741851D01*
X115965379Y-144741852D01*
X116065930Y-144853525D01*
X116096647Y-144917532D01*
X116087883Y-144987986D01*
X116081412Y-145000837D01*
X116065473Y-145028444D01*
X116006458Y-145210072D01*
X116005768Y-145216633D01*
X116005768Y-145216635D01*
X115994491Y-145323929D01*
X115986496Y-145400000D01*
X115987186Y-145406565D01*
X116003955Y-145566109D01*
X116006458Y-145589928D01*
X116065473Y-145771556D01*
X116160960Y-145936944D01*
X116165378Y-145941851D01*
X116165379Y-145941852D01*
X116202167Y-145982709D01*
X116288747Y-146078866D01*
X116387843Y-146150864D01*
X116430693Y-146181996D01*
X116443248Y-146191118D01*
X116449276Y-146193802D01*
X116449278Y-146193803D01*
X116611681Y-146266109D01*
X116617712Y-146268794D01*
X116677635Y-146281531D01*
X116798056Y-146307128D01*
X116798061Y-146307128D01*
X116804513Y-146308500D01*
X116995487Y-146308500D01*
X117001939Y-146307128D01*
X117001944Y-146307128D01*
X117122365Y-146281531D01*
X117182288Y-146268794D01*
X117188319Y-146266109D01*
X117350722Y-146193803D01*
X117350724Y-146193802D01*
X117356752Y-146191118D01*
X117369308Y-146181996D01*
X117412157Y-146150864D01*
X117511253Y-146078866D01*
X117597833Y-145982709D01*
X117634621Y-145941852D01*
X117634622Y-145941851D01*
X117639040Y-145936944D01*
X117734527Y-145771556D01*
X117793542Y-145589928D01*
X117796046Y-145566109D01*
X117812814Y-145406565D01*
X117813504Y-145400000D01*
X117805509Y-145323929D01*
X117794232Y-145216635D01*
X117794232Y-145216633D01*
X117793542Y-145210072D01*
X117734527Y-145028444D01*
X117639040Y-144863056D01*
X117630701Y-144853794D01*
X117534070Y-144746475D01*
X117503353Y-144682468D01*
X117512117Y-144612014D01*
X117518588Y-144599163D01*
X117531227Y-144577272D01*
X117531228Y-144577271D01*
X117534527Y-144571556D01*
X117593542Y-144389928D01*
X117595518Y-144371134D01*
X117612814Y-144206565D01*
X117613504Y-144200000D01*
X117611529Y-144181206D01*
X117594232Y-144016635D01*
X117594232Y-144016633D01*
X117593542Y-144010072D01*
X117534527Y-143828444D01*
X117513990Y-143792872D01*
X117458179Y-143696206D01*
X117439040Y-143663056D01*
X117348325Y-143562306D01*
X117315675Y-143526045D01*
X117315674Y-143526044D01*
X117311253Y-143521134D01*
X117156752Y-143408882D01*
X117150724Y-143406198D01*
X117150722Y-143406197D01*
X116988319Y-143333891D01*
X116988318Y-143333891D01*
X116982288Y-143331206D01*
X116882861Y-143310072D01*
X116801944Y-143292872D01*
X116801939Y-143292872D01*
X116795487Y-143291500D01*
X116604513Y-143291500D01*
X116598061Y-143292872D01*
X116598056Y-143292872D01*
X116517139Y-143310072D01*
X116417712Y-143331206D01*
X116411682Y-143333891D01*
X116411681Y-143333891D01*
X116249278Y-143406197D01*
X116249276Y-143406198D01*
X116243248Y-143408882D01*
X116088747Y-143521134D01*
X116084326Y-143526044D01*
X116084325Y-143526045D01*
X116051676Y-143562306D01*
X115960960Y-143663056D01*
X115941821Y-143696206D01*
X115886011Y-143792872D01*
X115865473Y-143828444D01*
X115806458Y-144010072D01*
X115805768Y-144016633D01*
X115805768Y-144016635D01*
X115788471Y-144181206D01*
X115786496Y-144200000D01*
X104498500Y-144200000D01*
X104498500Y-142275063D01*
X128011433Y-142275063D01*
X128012123Y-142281628D01*
X128018528Y-142342564D01*
X128031395Y-142464991D01*
X128090410Y-142646619D01*
X128093713Y-142652341D01*
X128093714Y-142652342D01*
X128119039Y-142696206D01*
X128185897Y-142812007D01*
X128190315Y-142816914D01*
X128190316Y-142816915D01*
X128231862Y-142863056D01*
X128313684Y-142953929D01*
X128354348Y-142983473D01*
X128423339Y-143033598D01*
X128468185Y-143066181D01*
X128474213Y-143068865D01*
X128474215Y-143068866D01*
X128622147Y-143134729D01*
X128642649Y-143143857D01*
X128736050Y-143163710D01*
X128822993Y-143182191D01*
X128822998Y-143182191D01*
X128829450Y-143183563D01*
X129020424Y-143183563D01*
X129026876Y-143182191D01*
X129026881Y-143182191D01*
X129113824Y-143163710D01*
X129207225Y-143143857D01*
X129227727Y-143134729D01*
X129375659Y-143068866D01*
X129375661Y-143068865D01*
X129381689Y-143066181D01*
X129426536Y-143033598D01*
X129495526Y-142983473D01*
X129536190Y-142953929D01*
X129618012Y-142863056D01*
X129659558Y-142816915D01*
X129659559Y-142816914D01*
X129663977Y-142812007D01*
X129730835Y-142696206D01*
X129756160Y-142652342D01*
X129756161Y-142652341D01*
X129759464Y-142646619D01*
X129818479Y-142464991D01*
X129831347Y-142342564D01*
X129837751Y-142281628D01*
X129838441Y-142275063D01*
X129831430Y-142208361D01*
X129819169Y-142091698D01*
X129819169Y-142091696D01*
X129818479Y-142085135D01*
X129759464Y-141903507D01*
X129752246Y-141891004D01*
X129704309Y-141807976D01*
X129663977Y-141738119D01*
X129645279Y-141717352D01*
X129540612Y-141601108D01*
X129540611Y-141601107D01*
X129536190Y-141596197D01*
X129381689Y-141483945D01*
X129375661Y-141481261D01*
X129375659Y-141481260D01*
X129213256Y-141408954D01*
X129213255Y-141408954D01*
X129207225Y-141406269D01*
X129113825Y-141386416D01*
X129026881Y-141367935D01*
X129026876Y-141367935D01*
X129020424Y-141366563D01*
X128829450Y-141366563D01*
X128822998Y-141367935D01*
X128822993Y-141367935D01*
X128736049Y-141386416D01*
X128642649Y-141406269D01*
X128636619Y-141408954D01*
X128636618Y-141408954D01*
X128474215Y-141481260D01*
X128474213Y-141481261D01*
X128468185Y-141483945D01*
X128313684Y-141596197D01*
X128309263Y-141601107D01*
X128309262Y-141601108D01*
X128204596Y-141717352D01*
X128185897Y-141738119D01*
X128145565Y-141807976D01*
X128097629Y-141891004D01*
X128090410Y-141903507D01*
X128031395Y-142085135D01*
X128030705Y-142091696D01*
X128030705Y-142091698D01*
X128018444Y-142208361D01*
X128011433Y-142275063D01*
X104498500Y-142275063D01*
X104498500Y-142221866D01*
X104491745Y-142159684D01*
X104440615Y-142023295D01*
X104353261Y-141906739D01*
X104236705Y-141819385D01*
X104100316Y-141768255D01*
X104038134Y-141761500D01*
X101961866Y-141761500D01*
X101899684Y-141768255D01*
X101763295Y-141819385D01*
X101646739Y-141906739D01*
X101559385Y-142023295D01*
X101508255Y-142159684D01*
X101501500Y-142221866D01*
X101501500Y-146278134D01*
X99080756Y-146278134D01*
X99168545Y-146186269D01*
X99185603Y-146161263D01*
X99304485Y-145986989D01*
X99304488Y-145986984D01*
X99307404Y-145982709D01*
X99309580Y-145978020D01*
X99309584Y-145978014D01*
X99408975Y-145763894D01*
X99408977Y-145763889D01*
X99411152Y-145759203D01*
X99414127Y-145748478D01*
X99475623Y-145526726D01*
X99475623Y-145526725D01*
X99477002Y-145521753D01*
X99490014Y-145400000D01*
X99498144Y-145323929D01*
X99498144Y-145323921D01*
X99498500Y-145320594D01*
X99498500Y-143197531D01*
X99497352Y-143183563D01*
X99483869Y-143019568D01*
X99483868Y-143019562D01*
X99483445Y-143014417D01*
X99433836Y-142816915D01*
X99424675Y-142780441D01*
X99424674Y-142780437D01*
X99423416Y-142775430D01*
X99410596Y-142745945D01*
X99327220Y-142554193D01*
X99327218Y-142554190D01*
X99325160Y-142549456D01*
X99307389Y-142521986D01*
X99194126Y-142346908D01*
X99194121Y-142346902D01*
X99191315Y-142342564D01*
X99167722Y-142316635D01*
X99099208Y-142241340D01*
X99025477Y-142160310D01*
X99021426Y-142157111D01*
X99021422Y-142157107D01*
X98875175Y-142041609D01*
X98832099Y-142007590D01*
X98748396Y-141961383D01*
X98620906Y-141891004D01*
X98620903Y-141891003D01*
X98616375Y-141888503D01*
X98384097Y-141806250D01*
X98333847Y-141797299D01*
X98146593Y-141763943D01*
X98146589Y-141763943D01*
X98141505Y-141763037D01*
X98062086Y-141762067D01*
X97900282Y-141760090D01*
X97900280Y-141760090D01*
X97895112Y-141760027D01*
X97651536Y-141797299D01*
X97417318Y-141873853D01*
X97412730Y-141876241D01*
X97412726Y-141876243D01*
X97203337Y-141985244D01*
X97198748Y-141987633D01*
X97194615Y-141990736D01*
X97194612Y-141990738D01*
X97054143Y-142096206D01*
X97001697Y-142135584D01*
X96945441Y-142194452D01*
X96871759Y-142271556D01*
X96831455Y-142313731D01*
X96828541Y-142318003D01*
X96828540Y-142318004D01*
X96695515Y-142513011D01*
X96695512Y-142513016D01*
X96692596Y-142517291D01*
X96690420Y-142521980D01*
X96690416Y-142521986D01*
X96611908Y-142691118D01*
X96588848Y-142740797D01*
X96587468Y-142745775D01*
X96587466Y-142745779D01*
X96531104Y-142949018D01*
X96522998Y-142978247D01*
X96511604Y-143084864D01*
X96502083Y-143173955D01*
X96501500Y-143179406D01*
X96501500Y-145302469D01*
X94498000Y-145302469D01*
X94498000Y-144522115D01*
X94493525Y-144506876D01*
X94492135Y-144505671D01*
X94484452Y-144504000D01*
X93272115Y-144504000D01*
X93256876Y-144508475D01*
X93255671Y-144509865D01*
X93254000Y-144517548D01*
X93254000Y-146698534D01*
X92745591Y-146698534D01*
X92746000Y-146697222D01*
X92746000Y-144522115D01*
X92741525Y-144506876D01*
X92740135Y-144505671D01*
X92732452Y-144504000D01*
X91520115Y-144504000D01*
X91504876Y-144508475D01*
X91503671Y-144509865D01*
X91502000Y-144517548D01*
X91502000Y-145299857D01*
X85081968Y-145299857D01*
X84956752Y-145208882D01*
X84950724Y-145206198D01*
X84950722Y-145206197D01*
X84788319Y-145133891D01*
X84788318Y-145133891D01*
X84782288Y-145131206D01*
X84688888Y-145111353D01*
X84601944Y-145092872D01*
X84601939Y-145092872D01*
X84595487Y-145091500D01*
X84404513Y-145091500D01*
X84398061Y-145092872D01*
X84398056Y-145092872D01*
X84311112Y-145111353D01*
X84217712Y-145131206D01*
X84211682Y-145133891D01*
X84211681Y-145133891D01*
X84049278Y-145206197D01*
X84049276Y-145206198D01*
X84043248Y-145208882D01*
X83888747Y-145321134D01*
X83760960Y-145463056D01*
X83665473Y-145628444D01*
X83606458Y-145810072D01*
X83605768Y-145816633D01*
X83605768Y-145816635D01*
X83592218Y-145945557D01*
X83586496Y-146000000D01*
X75758000Y-146000000D01*
X75758000Y-145050000D01*
X78136496Y-145050000D01*
X78156458Y-145239928D01*
X78215473Y-145421556D01*
X78310960Y-145586944D01*
X78315378Y-145591851D01*
X78315379Y-145591852D01*
X78353986Y-145634729D01*
X78438747Y-145728866D01*
X78593248Y-145841118D01*
X78599276Y-145843802D01*
X78599278Y-145843803D01*
X78743834Y-145908163D01*
X78767712Y-145918794D01*
X78853101Y-145936944D01*
X78948056Y-145957128D01*
X78948061Y-145957128D01*
X78954513Y-145958500D01*
X79145487Y-145958500D01*
X79151939Y-145957128D01*
X79151944Y-145957128D01*
X79246899Y-145936944D01*
X79332288Y-145918794D01*
X79356166Y-145908163D01*
X79500722Y-145843803D01*
X79500724Y-145843802D01*
X79506752Y-145841118D01*
X79661253Y-145728866D01*
X79746014Y-145634729D01*
X79784621Y-145591852D01*
X79784622Y-145591851D01*
X79789040Y-145586944D01*
X79884527Y-145421556D01*
X79943542Y-145239928D01*
X79963504Y-145050000D01*
X79945990Y-144883365D01*
X79944232Y-144866635D01*
X79944232Y-144866633D01*
X79943542Y-144860072D01*
X79884527Y-144678444D01*
X79864565Y-144643868D01*
X79792341Y-144518774D01*
X79789040Y-144513056D01*
X79780701Y-144503794D01*
X79665675Y-144376045D01*
X79665674Y-144376044D01*
X79661253Y-144371134D01*
X79542513Y-144284864D01*
X79512094Y-144262763D01*
X79512093Y-144262762D01*
X79506752Y-144258882D01*
X79500724Y-144256198D01*
X79500722Y-144256197D01*
X79338319Y-144183891D01*
X79338318Y-144183891D01*
X79332288Y-144181206D01*
X79238887Y-144161353D01*
X79151944Y-144142872D01*
X79151939Y-144142872D01*
X79145487Y-144141500D01*
X78954513Y-144141500D01*
X78948061Y-144142872D01*
X78948056Y-144142872D01*
X78861113Y-144161353D01*
X78767712Y-144181206D01*
X78761682Y-144183891D01*
X78761681Y-144183891D01*
X78599278Y-144256197D01*
X78599276Y-144256198D01*
X78593248Y-144258882D01*
X78587907Y-144262762D01*
X78587906Y-144262763D01*
X78557487Y-144284864D01*
X78438747Y-144371134D01*
X78434326Y-144376044D01*
X78434325Y-144376045D01*
X78319300Y-144503794D01*
X78310960Y-144513056D01*
X78307659Y-144518774D01*
X78235436Y-144643868D01*
X78215473Y-144678444D01*
X78156458Y-144860072D01*
X78155768Y-144866633D01*
X78155768Y-144866635D01*
X78154010Y-144883365D01*
X78136496Y-145050000D01*
X75758000Y-145050000D01*
X75758000Y-141892131D01*
X75778002Y-141824010D01*
X75831658Y-141777517D01*
X75901932Y-141767413D01*
X75966512Y-141796907D01*
X75991144Y-141825828D01*
X76048063Y-141917807D01*
X76057099Y-141929208D01*
X76171829Y-142043739D01*
X76183240Y-142052751D01*
X76321243Y-142137816D01*
X76334424Y-142143963D01*
X76488710Y-142195138D01*
X76502086Y-142198005D01*
X76596438Y-142207672D01*
X76602854Y-142208000D01*
X76727885Y-142208000D01*
X76743124Y-142203525D01*
X76744329Y-142202135D01*
X76746000Y-142194452D01*
X76746000Y-142189884D01*
X77254000Y-142189884D01*
X77258475Y-142205123D01*
X77259865Y-142206328D01*
X77267548Y-142207999D01*
X77397095Y-142207999D01*
X77403614Y-142207662D01*
X77499206Y-142197743D01*
X77512600Y-142194851D01*
X77666784Y-142143412D01*
X77679962Y-142137239D01*
X77817807Y-142051937D01*
X77829208Y-142042901D01*
X77910430Y-141961538D01*
X77972713Y-141927459D01*
X78043533Y-141932462D01*
X78088620Y-141961383D01*
X78171512Y-142044130D01*
X78171517Y-142044134D01*
X78176697Y-142049305D01*
X78182927Y-142053145D01*
X78182928Y-142053146D01*
X78312723Y-142133153D01*
X78360216Y-142185925D01*
X78371640Y-142255997D01*
X78366441Y-142279347D01*
X78356458Y-142310072D01*
X78355768Y-142316633D01*
X78355768Y-142316635D01*
X78341678Y-142450695D01*
X78336496Y-142500000D01*
X78337186Y-142506565D01*
X78353389Y-142660724D01*
X78356458Y-142689928D01*
X78415473Y-142871556D01*
X78510960Y-143036944D01*
X78515378Y-143041851D01*
X78515379Y-143041852D01*
X78588194Y-143122721D01*
X78638747Y-143178866D01*
X78696233Y-143220632D01*
X78766310Y-143271546D01*
X78793248Y-143291118D01*
X78799276Y-143293802D01*
X78799278Y-143293803D01*
X78961681Y-143366109D01*
X78967712Y-143368794D01*
X79061112Y-143388647D01*
X79148056Y-143407128D01*
X79148061Y-143407128D01*
X79154513Y-143408500D01*
X79345487Y-143408500D01*
X79351939Y-143407128D01*
X79351944Y-143407128D01*
X79438888Y-143388647D01*
X79532288Y-143368794D01*
X79538319Y-143366109D01*
X79700722Y-143293803D01*
X79700724Y-143293802D01*
X79706752Y-143291118D01*
X79733691Y-143271546D01*
X79793062Y-143228410D01*
X79859930Y-143204551D01*
X79929081Y-143220632D01*
X79978561Y-143271546D01*
X79992433Y-143343515D01*
X79986496Y-143400000D01*
X79987186Y-143406565D01*
X80003150Y-143558450D01*
X80006458Y-143589928D01*
X80065473Y-143771556D01*
X80160960Y-143936944D01*
X80165378Y-143941851D01*
X80165379Y-143941852D01*
X80214134Y-143996000D01*
X80288747Y-144078866D01*
X80374955Y-144141500D01*
X80426385Y-144178866D01*
X80443248Y-144191118D01*
X80449276Y-144193802D01*
X80449278Y-144193803D01*
X80604166Y-144262763D01*
X80617712Y-144268794D01*
X80693315Y-144284864D01*
X80798056Y-144307128D01*
X80798061Y-144307128D01*
X80804513Y-144308500D01*
X80995487Y-144308500D01*
X81001939Y-144307128D01*
X81001944Y-144307128D01*
X81115892Y-144282907D01*
X81186683Y-144288309D01*
X81243315Y-144331126D01*
X81249231Y-144339847D01*
X81301522Y-144424348D01*
X81426697Y-144549305D01*
X81432927Y-144553145D01*
X81432928Y-144553146D01*
X81570090Y-144637694D01*
X81577262Y-144642115D01*
X81657005Y-144668564D01*
X81738611Y-144695632D01*
X81738613Y-144695632D01*
X81745139Y-144697797D01*
X81751975Y-144698497D01*
X81751978Y-144698498D01*
X81795031Y-144702909D01*
X81849600Y-144708500D01*
X82650400Y-144708500D01*
X82653646Y-144708163D01*
X82653650Y-144708163D01*
X82749308Y-144698238D01*
X82749312Y-144698237D01*
X82756166Y-144697526D01*
X82762702Y-144695345D01*
X82762704Y-144695345D01*
X82894806Y-144651272D01*
X82923946Y-144641550D01*
X83074348Y-144548478D01*
X83160784Y-144461891D01*
X83223066Y-144427812D01*
X83293886Y-144432815D01*
X83338975Y-144461736D01*
X83390385Y-144513056D01*
X83426697Y-144549305D01*
X83432927Y-144553145D01*
X83432928Y-144553146D01*
X83570090Y-144637694D01*
X83577262Y-144642115D01*
X83657005Y-144668564D01*
X83738611Y-144695632D01*
X83738613Y-144695632D01*
X83745139Y-144697797D01*
X83751975Y-144698497D01*
X83751978Y-144698498D01*
X83795031Y-144702909D01*
X83849600Y-144708500D01*
X84650400Y-144708500D01*
X84653646Y-144708163D01*
X84653650Y-144708163D01*
X84749308Y-144698238D01*
X84749312Y-144698237D01*
X84756166Y-144697526D01*
X84762702Y-144695345D01*
X84762704Y-144695345D01*
X84894806Y-144651272D01*
X84923946Y-144641550D01*
X85074348Y-144548478D01*
X85199305Y-144423303D01*
X85208430Y-144408500D01*
X85225640Y-144380580D01*
X85278413Y-144333087D01*
X85348484Y-144321663D01*
X85384146Y-144331588D01*
X85467712Y-144368794D01*
X85536263Y-144383365D01*
X85648056Y-144407128D01*
X85648061Y-144407128D01*
X85654513Y-144408500D01*
X85845487Y-144408500D01*
X85851939Y-144407128D01*
X85851944Y-144407128D01*
X85963737Y-144383365D01*
X86032288Y-144368794D01*
X86038319Y-144366109D01*
X86200722Y-144293803D01*
X86200724Y-144293802D01*
X86206752Y-144291118D01*
X86218054Y-144282907D01*
X86262157Y-144250864D01*
X86361253Y-144178866D01*
X86393662Y-144142872D01*
X86484621Y-144041852D01*
X86484622Y-144041851D01*
X86489040Y-144036944D01*
X86523138Y-143977885D01*
X91502000Y-143977885D01*
X91506475Y-143993124D01*
X91507865Y-143994329D01*
X91515548Y-143996000D01*
X92727885Y-143996000D01*
X92743124Y-143991525D01*
X92744329Y-143990135D01*
X92746000Y-143982452D01*
X92746000Y-143977885D01*
X93254000Y-143977885D01*
X93258475Y-143993124D01*
X93259865Y-143994329D01*
X93267548Y-143996000D01*
X94479885Y-143996000D01*
X94495124Y-143991525D01*
X94496329Y-143990135D01*
X94498000Y-143982452D01*
X94498000Y-143200143D01*
X94497788Y-143194970D01*
X94483374Y-143019650D01*
X94481691Y-143009488D01*
X94424200Y-142780604D01*
X94420879Y-142770849D01*
X94326782Y-142554443D01*
X94321904Y-142545345D01*
X94193727Y-142347213D01*
X94187437Y-142339044D01*
X94028613Y-142164499D01*
X94021080Y-142157474D01*
X93835880Y-142011213D01*
X93827293Y-142005508D01*
X93620703Y-141891464D01*
X93611291Y-141887234D01*
X93388844Y-141808461D01*
X93378873Y-141805827D01*
X93271837Y-141786761D01*
X93258540Y-141788221D01*
X93254000Y-141802778D01*
X93254000Y-143977885D01*
X92746000Y-143977885D01*
X92746000Y-141801466D01*
X92742082Y-141788122D01*
X92727806Y-141786135D01*
X92656764Y-141797006D01*
X92646737Y-141799395D01*
X92422430Y-141872709D01*
X92412921Y-141876706D01*
X92203605Y-141985669D01*
X92194880Y-141991163D01*
X92006165Y-142132854D01*
X91998458Y-142139697D01*
X91835416Y-142310310D01*
X91828933Y-142318316D01*
X91695943Y-142513274D01*
X91690857Y-142522226D01*
X91591494Y-142736285D01*
X91587940Y-142745945D01*
X91524870Y-142973369D01*
X91522943Y-142983473D01*
X91502356Y-143176102D01*
X91502000Y-143182794D01*
X91502000Y-143977885D01*
X86523138Y-143977885D01*
X86584527Y-143871556D01*
X86643542Y-143689928D01*
X86645766Y-143668774D01*
X86662814Y-143506565D01*
X86663504Y-143500000D01*
X86653645Y-143406197D01*
X86644232Y-143316635D01*
X86644232Y-143316633D01*
X86643542Y-143310072D01*
X86584527Y-143128444D01*
X86489040Y-142963056D01*
X86382339Y-142844552D01*
X86351621Y-142780545D01*
X86360386Y-142710091D01*
X86401914Y-142658306D01*
X86442429Y-142628870D01*
X86511253Y-142578866D01*
X86537734Y-142549456D01*
X86634621Y-142441852D01*
X86634622Y-142441851D01*
X86639040Y-142436944D01*
X86734527Y-142271556D01*
X86793542Y-142089928D01*
X86795672Y-142069667D01*
X86812814Y-141906565D01*
X86813504Y-141900000D01*
X86801602Y-141786761D01*
X86794232Y-141716635D01*
X86794232Y-141716633D01*
X86793542Y-141710072D01*
X86734527Y-141528444D01*
X86708836Y-141483945D01*
X86656792Y-141393803D01*
X86639040Y-141363056D01*
X86576685Y-141293803D01*
X86515675Y-141226045D01*
X86515674Y-141226044D01*
X86511253Y-141221134D01*
X86356752Y-141108882D01*
X86350724Y-141106198D01*
X86350722Y-141106197D01*
X86188319Y-141033891D01*
X86188318Y-141033891D01*
X86182288Y-141031206D01*
X86081214Y-141009722D01*
X86001944Y-140992872D01*
X86001939Y-140992872D01*
X85995487Y-140991500D01*
X85804513Y-140991500D01*
X85798061Y-140992872D01*
X85798056Y-140992872D01*
X85718786Y-141009722D01*
X85617712Y-141031206D01*
X85611682Y-141033891D01*
X85611681Y-141033891D01*
X85449278Y-141106197D01*
X85449276Y-141106198D01*
X85443248Y-141108882D01*
X85288747Y-141221134D01*
X85284326Y-141226044D01*
X85284325Y-141226045D01*
X85223316Y-141293803D01*
X85160960Y-141363056D01*
X85143208Y-141393803D01*
X85091165Y-141483945D01*
X85065473Y-141528444D01*
X85035671Y-141620166D01*
X85034333Y-141624283D01*
X84994259Y-141682888D01*
X84928863Y-141710525D01*
X84858906Y-141698418D01*
X84806600Y-141650412D01*
X84788500Y-141585346D01*
X84788500Y-140126866D01*
X84781745Y-140064684D01*
X84730615Y-139928295D01*
X84643261Y-139811739D01*
X84526705Y-139724385D01*
X84390316Y-139673255D01*
X84328134Y-139666500D01*
X81577102Y-139666500D01*
X81508981Y-139646498D01*
X81462488Y-139592842D01*
X81452384Y-139522568D01*
X81457269Y-139501564D01*
X81482016Y-139425400D01*
X81493542Y-139389928D01*
X81495766Y-139368774D01*
X81512814Y-139206565D01*
X81513504Y-139200000D01*
X81498137Y-139053794D01*
X81494232Y-139016635D01*
X81494232Y-139016633D01*
X81493542Y-139010072D01*
X81434527Y-138828444D01*
X81339040Y-138663056D01*
X81276450Y-138593542D01*
X81215675Y-138526045D01*
X81215674Y-138526044D01*
X81211253Y-138521134D01*
X81056752Y-138408882D01*
X81050724Y-138406198D01*
X81050722Y-138406197D01*
X80888319Y-138333891D01*
X80888318Y-138333891D01*
X80882288Y-138331206D01*
X80774595Y-138308315D01*
X80701944Y-138292872D01*
X80701939Y-138292872D01*
X80695487Y-138291500D01*
X80504513Y-138291500D01*
X80498061Y-138292872D01*
X80498056Y-138292872D01*
X80425405Y-138308315D01*
X80317712Y-138331206D01*
X80311682Y-138333891D01*
X80311681Y-138333891D01*
X80149278Y-138406197D01*
X80149276Y-138406198D01*
X80143248Y-138408882D01*
X79988747Y-138521134D01*
X79984332Y-138526037D01*
X79979420Y-138530460D01*
X79978295Y-138529211D01*
X79924986Y-138562051D01*
X79891800Y-138566500D01*
X79820879Y-138566500D01*
X79752758Y-138546498D01*
X79706265Y-138492842D01*
X79701356Y-138480377D01*
X79668870Y-138383007D01*
X79668869Y-138383005D01*
X79666550Y-138376054D01*
X79573478Y-138225652D01*
X79448303Y-138100695D01*
X79444084Y-138098094D01*
X79403583Y-138040970D01*
X79400351Y-137970047D01*
X79435976Y-137908635D01*
X79443530Y-137902078D01*
X79449348Y-137898478D01*
X79574305Y-137773303D01*
X79578146Y-137767072D01*
X79663275Y-137628968D01*
X79663276Y-137628966D01*
X79667115Y-137622738D01*
X79716978Y-137472404D01*
X79720632Y-137461389D01*
X79720632Y-137461387D01*
X79722797Y-137454861D01*
X79733500Y-137350400D01*
X79733500Y-136896936D01*
X79753502Y-136828815D01*
X79807158Y-136782322D01*
X79877432Y-136772218D01*
X79942012Y-136801712D01*
X79971263Y-136838756D01*
X80037633Y-136966252D01*
X80040736Y-136970385D01*
X80040738Y-136970388D01*
X80182479Y-137159168D01*
X80185584Y-137163303D01*
X80363731Y-137333545D01*
X80368003Y-137336459D01*
X80368004Y-137336460D01*
X80563011Y-137469485D01*
X80563016Y-137469488D01*
X80567291Y-137472404D01*
X80571980Y-137474580D01*
X80571986Y-137474584D01*
X80786106Y-137573975D01*
X80786111Y-137573977D01*
X80790797Y-137576152D01*
X80795775Y-137577532D01*
X80795779Y-137577534D01*
X81023274Y-137640623D01*
X81028247Y-137642002D01*
X81134864Y-137653396D01*
X81226071Y-137663144D01*
X81226079Y-137663144D01*
X81229406Y-137663500D01*
X83352469Y-137663500D01*
X83355042Y-137663288D01*
X83355053Y-137663288D01*
X83530432Y-137648869D01*
X83530438Y-137648868D01*
X83535583Y-137648445D01*
X83665585Y-137615791D01*
X83769559Y-137589675D01*
X83769563Y-137589674D01*
X83774570Y-137588416D01*
X83779303Y-137586358D01*
X83779306Y-137586357D01*
X83995807Y-137492220D01*
X83995810Y-137492218D01*
X84000544Y-137490160D01*
X84004878Y-137487356D01*
X84004882Y-137487354D01*
X84203092Y-137359126D01*
X84203098Y-137359121D01*
X84207436Y-137356315D01*
X84229257Y-137336460D01*
X84317137Y-137256495D01*
X84389690Y-137190477D01*
X84392889Y-137186426D01*
X84392893Y-137186422D01*
X84539205Y-137001157D01*
X84542410Y-136997099D01*
X84610390Y-136873955D01*
X84658996Y-136785906D01*
X84658997Y-136785903D01*
X84661497Y-136781375D01*
X84743750Y-136549097D01*
X84758047Y-136468834D01*
X84786057Y-136311593D01*
X84786057Y-136311589D01*
X84786963Y-136306505D01*
X84788184Y-136206565D01*
X84789910Y-136065282D01*
X84789910Y-136065280D01*
X84789973Y-136060112D01*
X84752701Y-135816536D01*
X84676147Y-135582318D01*
X84646854Y-135526045D01*
X84564756Y-135368337D01*
X84564755Y-135368336D01*
X84562367Y-135363748D01*
X84536904Y-135329834D01*
X84417521Y-135170832D01*
X84417519Y-135170830D01*
X84414416Y-135166697D01*
X84236269Y-134996455D01*
X84231996Y-134993540D01*
X84036989Y-134860515D01*
X84036984Y-134860512D01*
X84032709Y-134857596D01*
X84028020Y-134855420D01*
X84028014Y-134855416D01*
X83813894Y-134756025D01*
X83813889Y-134756023D01*
X83809203Y-134753848D01*
X83804225Y-134752468D01*
X83804221Y-134752466D01*
X83576726Y-134689377D01*
X83576725Y-134689377D01*
X83571753Y-134687998D01*
X83465136Y-134676604D01*
X83373929Y-134666856D01*
X83373921Y-134666856D01*
X83370594Y-134666500D01*
X81625307Y-134666500D01*
X81557186Y-134646498D01*
X81510693Y-134592842D01*
X81500589Y-134522568D01*
X81531671Y-134456190D01*
X81634621Y-134341852D01*
X81634622Y-134341851D01*
X81639040Y-134336944D01*
X81734527Y-134171556D01*
X81793542Y-133989928D01*
X81796993Y-133957099D01*
X81812814Y-133806565D01*
X81813504Y-133800000D01*
X86386496Y-133800000D01*
X86387186Y-133806565D01*
X86403008Y-133957099D01*
X86406458Y-133989928D01*
X86465473Y-134171556D01*
X86560960Y-134336944D01*
X86565378Y-134341851D01*
X86565379Y-134341852D01*
X86684325Y-134473955D01*
X86688747Y-134478866D01*
X86843248Y-134591118D01*
X86849276Y-134593802D01*
X86849278Y-134593803D01*
X87011681Y-134666109D01*
X87017712Y-134668794D01*
X87105481Y-134687450D01*
X87198056Y-134707128D01*
X87198061Y-134707128D01*
X87204513Y-134708500D01*
X87395487Y-134708500D01*
X87401939Y-134707128D01*
X87401944Y-134707128D01*
X87494519Y-134687450D01*
X87582288Y-134668794D01*
X87680652Y-134625000D01*
X87756752Y-134591118D01*
X87757708Y-134593266D01*
X87816249Y-134579056D01*
X87883344Y-134602267D01*
X87927239Y-134658068D01*
X87936271Y-134704914D01*
X87936271Y-135203973D01*
X87916269Y-135272094D01*
X87862613Y-135318587D01*
X87836472Y-135327218D01*
X87817712Y-135331206D01*
X87811683Y-135333890D01*
X87811684Y-135333890D01*
X87649278Y-135406197D01*
X87649276Y-135406198D01*
X87643248Y-135408882D01*
X87488747Y-135521134D01*
X87484326Y-135526044D01*
X87484325Y-135526045D01*
X87429229Y-135587236D01*
X87360960Y-135663056D01*
X87265473Y-135828444D01*
X87206458Y-136010072D01*
X87205768Y-136016633D01*
X87205768Y-136016635D01*
X87193485Y-136133500D01*
X87186496Y-136200000D01*
X87187186Y-136206565D01*
X87194684Y-136277900D01*
X87206458Y-136389928D01*
X87265473Y-136571556D01*
X87360960Y-136736944D01*
X87365378Y-136741851D01*
X87365379Y-136741852D01*
X87457555Y-136844224D01*
X87488747Y-136878866D01*
X87643248Y-136991118D01*
X87649276Y-136993802D01*
X87649278Y-136993803D01*
X87811681Y-137066109D01*
X87817712Y-137068794D01*
X87911113Y-137088647D01*
X87998056Y-137107128D01*
X87998061Y-137107128D01*
X88004513Y-137108500D01*
X88195487Y-137108500D01*
X88201939Y-137107128D01*
X88201944Y-137107128D01*
X88288887Y-137088647D01*
X88382288Y-137068794D01*
X88388319Y-137066109D01*
X88550722Y-136993803D01*
X88550724Y-136993802D01*
X88556752Y-136991118D01*
X88711253Y-136878866D01*
X88742445Y-136844224D01*
X88834621Y-136741852D01*
X88834622Y-136741851D01*
X88839040Y-136736944D01*
X88934527Y-136571556D01*
X88993542Y-136389928D01*
X89005317Y-136277900D01*
X89008085Y-136251559D01*
X89035098Y-136185902D01*
X89093320Y-136145272D01*
X89133395Y-136138729D01*
X89885026Y-136138729D01*
X89953147Y-136158731D01*
X89999640Y-136212387D01*
X90010336Y-136277898D01*
X89998795Y-136387701D01*
X89999485Y-136394266D01*
X90008368Y-136478779D01*
X90018757Y-136577629D01*
X90077772Y-136759257D01*
X90081075Y-136764979D01*
X90081076Y-136764980D01*
X90093158Y-136785906D01*
X90173259Y-136924645D01*
X90177677Y-136929552D01*
X90177678Y-136929553D01*
X90296624Y-137061656D01*
X90301046Y-137066567D01*
X90337252Y-137092872D01*
X90439108Y-137166875D01*
X90455547Y-137178819D01*
X90461575Y-137181503D01*
X90461577Y-137181504D01*
X90623980Y-137253810D01*
X90630011Y-137256495D01*
X90636466Y-137257867D01*
X90636475Y-137257870D01*
X90641698Y-137258980D01*
X90704171Y-137292708D01*
X90738492Y-137354858D01*
X90741500Y-137382226D01*
X90741500Y-137516626D01*
X90721498Y-137584747D01*
X90667842Y-137631240D01*
X90632163Y-137640506D01*
X90632241Y-137640908D01*
X90625876Y-137642139D01*
X90625546Y-137642225D01*
X90625523Y-137642227D01*
X90625353Y-137642240D01*
X90625350Y-137642241D01*
X90618355Y-137642800D01*
X90611657Y-137644890D01*
X90611655Y-137644890D01*
X90591019Y-137651328D01*
X90535562Y-137655762D01*
X90459945Y-137644890D01*
X90400000Y-137636271D01*
X89400000Y-137636271D01*
X89391024Y-137636913D01*
X89333627Y-137641018D01*
X89333626Y-137641018D01*
X89326889Y-137641500D01*
X89256249Y-137662242D01*
X89195235Y-137680157D01*
X89195233Y-137680158D01*
X89186589Y-137682696D01*
X89179010Y-137687567D01*
X89071159Y-137756878D01*
X89071156Y-137756880D01*
X89063579Y-137761750D01*
X89057678Y-137768560D01*
X88973726Y-137865445D01*
X88973724Y-137865448D01*
X88967824Y-137872257D01*
X88907081Y-138005266D01*
X88886271Y-138150000D01*
X88886271Y-139650000D01*
X88891500Y-139723111D01*
X88910243Y-139786944D01*
X88928567Y-139849348D01*
X88932696Y-139863411D01*
X88944132Y-139881206D01*
X89006878Y-139978841D01*
X89006880Y-139978844D01*
X89011750Y-139986421D01*
X89018560Y-139992322D01*
X89115445Y-140076274D01*
X89115448Y-140076276D01*
X89122257Y-140082176D01*
X89130454Y-140085920D01*
X89130455Y-140085920D01*
X89145585Y-140092830D01*
X89213528Y-140123858D01*
X89267183Y-140170350D01*
X89287185Y-140238470D01*
X89267183Y-140306591D01*
X89212434Y-140353577D01*
X89149286Y-140381693D01*
X89149281Y-140381696D01*
X89143248Y-140384382D01*
X89137907Y-140388262D01*
X89137906Y-140388263D01*
X89107889Y-140410072D01*
X88988747Y-140496634D01*
X88984326Y-140501544D01*
X88984325Y-140501545D01*
X88873377Y-140624766D01*
X88860960Y-140638556D01*
X88832854Y-140687237D01*
X88769941Y-140796206D01*
X88765473Y-140803944D01*
X88706458Y-140985572D01*
X88705768Y-140992133D01*
X88705768Y-140992135D01*
X88687186Y-141168934D01*
X88686496Y-141175500D01*
X88706458Y-141365428D01*
X88765473Y-141547056D01*
X88860960Y-141712444D01*
X88865378Y-141717351D01*
X88865379Y-141717352D01*
X88963051Y-141825828D01*
X88988747Y-141854366D01*
X89060832Y-141906739D01*
X89136043Y-141961383D01*
X89143248Y-141966618D01*
X89149276Y-141969302D01*
X89149278Y-141969303D01*
X89243410Y-142011213D01*
X89317712Y-142044294D01*
X89411113Y-142064147D01*
X89498056Y-142082628D01*
X89498061Y-142082628D01*
X89504513Y-142084000D01*
X89695487Y-142084000D01*
X89701939Y-142082628D01*
X89701944Y-142082628D01*
X89788887Y-142064147D01*
X89882288Y-142044294D01*
X89956590Y-142011213D01*
X90050722Y-141969303D01*
X90050724Y-141969302D01*
X90056752Y-141966618D01*
X90063958Y-141961383D01*
X90139168Y-141906739D01*
X90211253Y-141854366D01*
X90236949Y-141825828D01*
X90334621Y-141717352D01*
X90334622Y-141717351D01*
X90339040Y-141712444D01*
X90434527Y-141547056D01*
X90493542Y-141365428D01*
X90513504Y-141175500D01*
X90512814Y-141168934D01*
X90497639Y-141024551D01*
X90498027Y-140994935D01*
X90502023Y-140964581D01*
X90502023Y-140964580D01*
X90508500Y-140915385D01*
X90508500Y-140915380D01*
X90512672Y-140883689D01*
X90513750Y-140875500D01*
X90509578Y-140843807D01*
X90508500Y-140827364D01*
X90508500Y-140281607D01*
X90528502Y-140213486D01*
X90582158Y-140166993D01*
X90652429Y-140156889D01*
X90700000Y-140163729D01*
X91850000Y-140163729D01*
X91881986Y-140161441D01*
X91916373Y-140158982D01*
X91916374Y-140158982D01*
X91923111Y-140158500D01*
X92025472Y-140128444D01*
X92054765Y-140119843D01*
X92054767Y-140119842D01*
X92063411Y-140117304D01*
X92116221Y-140083365D01*
X92178841Y-140043122D01*
X92178844Y-140043120D01*
X92186421Y-140038250D01*
X92194883Y-140028484D01*
X92276274Y-139934555D01*
X92276276Y-139934552D01*
X92282176Y-139927743D01*
X92288832Y-139913170D01*
X92294846Y-139900000D01*
X101386496Y-139900000D01*
X101387186Y-139906565D01*
X101404483Y-140071134D01*
X101406458Y-140089928D01*
X101465473Y-140271556D01*
X101468776Y-140277278D01*
X101468777Y-140277279D01*
X101491499Y-140316635D01*
X101560960Y-140436944D01*
X101565378Y-140441851D01*
X101565379Y-140441852D01*
X101613960Y-140495807D01*
X101688747Y-140578866D01*
X101729791Y-140608686D01*
X101822000Y-140675680D01*
X101843248Y-140691118D01*
X101849276Y-140693802D01*
X101849278Y-140693803D01*
X101990245Y-140756565D01*
X102017712Y-140768794D01*
X102086263Y-140783365D01*
X102198056Y-140807128D01*
X102198061Y-140807128D01*
X102204513Y-140808500D01*
X102395487Y-140808500D01*
X102401939Y-140807128D01*
X102401944Y-140807128D01*
X102513737Y-140783365D01*
X102582288Y-140768794D01*
X102609755Y-140756565D01*
X102750722Y-140693803D01*
X102750724Y-140693802D01*
X102756752Y-140691118D01*
X102778001Y-140675680D01*
X102870209Y-140608686D01*
X102911253Y-140578866D01*
X102986040Y-140495807D01*
X103034621Y-140441852D01*
X103034622Y-140441851D01*
X103039040Y-140436944D01*
X103090881Y-140347153D01*
X103142264Y-140298160D01*
X103211977Y-140284724D01*
X103277888Y-140311110D01*
X103309119Y-140347153D01*
X103360960Y-140436944D01*
X103365378Y-140441851D01*
X103365379Y-140441852D01*
X103413960Y-140495807D01*
X103488747Y-140578866D01*
X103529791Y-140608686D01*
X103622000Y-140675680D01*
X103643248Y-140691118D01*
X103649276Y-140693802D01*
X103649278Y-140693803D01*
X103790245Y-140756565D01*
X103817712Y-140768794D01*
X103886263Y-140783365D01*
X103998056Y-140807128D01*
X103998061Y-140807128D01*
X104004513Y-140808500D01*
X104195487Y-140808500D01*
X104201939Y-140807128D01*
X104201944Y-140807128D01*
X104313737Y-140783365D01*
X104382288Y-140768794D01*
X104409755Y-140756565D01*
X104550722Y-140693803D01*
X104550724Y-140693802D01*
X104556752Y-140691118D01*
X104578001Y-140675680D01*
X104637372Y-140632544D01*
X104704240Y-140608686D01*
X104773391Y-140624766D01*
X104822871Y-140675680D01*
X104834657Y-140736830D01*
X104837186Y-140736830D01*
X104837186Y-140743435D01*
X104836496Y-140750000D01*
X104837186Y-140756565D01*
X104852849Y-140905586D01*
X104856458Y-140939928D01*
X104915473Y-141121556D01*
X105010960Y-141286944D01*
X105015378Y-141291851D01*
X105015379Y-141291852D01*
X105119174Y-141407128D01*
X105138747Y-141428866D01*
X105293248Y-141541118D01*
X105299276Y-141543802D01*
X105299278Y-141543803D01*
X105416958Y-141596197D01*
X105467712Y-141618794D01*
X105561112Y-141638647D01*
X105648056Y-141657128D01*
X105648061Y-141657128D01*
X105654513Y-141658500D01*
X105845487Y-141658500D01*
X105851939Y-141657128D01*
X105851944Y-141657128D01*
X105938888Y-141638647D01*
X106032288Y-141618794D01*
X106083042Y-141596197D01*
X106200722Y-141543803D01*
X106200724Y-141543802D01*
X106206752Y-141541118D01*
X106361253Y-141428866D01*
X106380826Y-141407128D01*
X106484621Y-141291852D01*
X106484622Y-141291851D01*
X106489040Y-141286944D01*
X106584527Y-141121556D01*
X106643542Y-140939928D01*
X106647152Y-140905586D01*
X106662814Y-140756565D01*
X106663504Y-140750000D01*
X106656907Y-140687237D01*
X106644232Y-140566635D01*
X106644232Y-140566633D01*
X106643542Y-140560072D01*
X106624023Y-140500000D01*
X113836496Y-140500000D01*
X113837186Y-140506565D01*
X113851660Y-140644274D01*
X113856458Y-140689928D01*
X113915473Y-140871556D01*
X114010960Y-141036944D01*
X114015378Y-141041851D01*
X114015379Y-141041852D01*
X114103870Y-141140131D01*
X114138747Y-141178866D01*
X114191579Y-141217251D01*
X114276385Y-141278866D01*
X114293248Y-141291118D01*
X114299276Y-141293802D01*
X114299278Y-141293803D01*
X114461681Y-141366109D01*
X114467712Y-141368794D01*
X114554479Y-141387237D01*
X114648056Y-141407128D01*
X114648061Y-141407128D01*
X114654513Y-141408500D01*
X114845487Y-141408500D01*
X114851939Y-141407128D01*
X114851944Y-141407128D01*
X114945521Y-141387237D01*
X115032288Y-141368794D01*
X115038319Y-141366109D01*
X115200722Y-141293803D01*
X115200724Y-141293802D01*
X115206752Y-141291118D01*
X115223616Y-141278866D01*
X115308421Y-141217251D01*
X115361253Y-141178866D01*
X115396130Y-141140131D01*
X115484621Y-141041852D01*
X115484622Y-141041851D01*
X115489040Y-141036944D01*
X115584527Y-140871556D01*
X115643542Y-140689928D01*
X115648341Y-140644274D01*
X115662814Y-140506565D01*
X115663504Y-140500000D01*
X115662586Y-140491267D01*
X115644232Y-140316635D01*
X115644232Y-140316633D01*
X115643542Y-140310072D01*
X115618055Y-140231631D01*
X123454865Y-140231631D01*
X123455555Y-140238196D01*
X123473620Y-140410072D01*
X123474827Y-140421559D01*
X123533842Y-140603187D01*
X123629329Y-140768575D01*
X123633747Y-140773482D01*
X123633748Y-140773483D01*
X123727206Y-140877279D01*
X123757116Y-140910497D01*
X123911617Y-141022749D01*
X123917645Y-141025433D01*
X123917647Y-141025434D01*
X123954523Y-141041852D01*
X124086081Y-141100425D01*
X124155926Y-141115271D01*
X124266425Y-141138759D01*
X124266430Y-141138759D01*
X124272882Y-141140131D01*
X124463856Y-141140131D01*
X124470308Y-141138759D01*
X124470313Y-141138759D01*
X124580812Y-141115271D01*
X124650657Y-141100425D01*
X124782215Y-141041852D01*
X124819091Y-141025434D01*
X124819093Y-141025433D01*
X124825121Y-141022749D01*
X124979622Y-140910497D01*
X125009532Y-140877279D01*
X125102990Y-140773483D01*
X125102991Y-140773482D01*
X125107409Y-140768575D01*
X125202896Y-140603187D01*
X125203932Y-140600000D01*
X126386496Y-140600000D01*
X126387186Y-140606565D01*
X126404730Y-140773483D01*
X126406458Y-140789928D01*
X126465473Y-140971556D01*
X126468776Y-140977278D01*
X126468777Y-140977279D01*
X126473565Y-140985572D01*
X126560960Y-141136944D01*
X126688747Y-141278866D01*
X126843248Y-141391118D01*
X126849276Y-141393802D01*
X126849278Y-141393803D01*
X126936753Y-141432749D01*
X127017712Y-141468794D01*
X127107250Y-141487826D01*
X127198056Y-141507128D01*
X127198061Y-141507128D01*
X127204513Y-141508500D01*
X127395487Y-141508500D01*
X127401939Y-141507128D01*
X127401944Y-141507128D01*
X127492750Y-141487826D01*
X127582288Y-141468794D01*
X127663247Y-141432749D01*
X127750722Y-141393803D01*
X127750724Y-141393802D01*
X127756752Y-141391118D01*
X127911253Y-141278866D01*
X128039040Y-141136944D01*
X128126435Y-140985572D01*
X128131223Y-140977279D01*
X128131224Y-140977278D01*
X128134527Y-140971556D01*
X128193542Y-140789928D01*
X128195271Y-140773483D01*
X128212814Y-140606565D01*
X128213504Y-140600000D01*
X128202304Y-140493435D01*
X128194232Y-140416635D01*
X128194232Y-140416633D01*
X128193542Y-140410072D01*
X128134527Y-140228444D01*
X128130556Y-140221565D01*
X128093045Y-140156596D01*
X128039040Y-140063056D01*
X128021092Y-140043122D01*
X127915675Y-139926045D01*
X127915674Y-139926044D01*
X127911253Y-139921134D01*
X127780375Y-139826045D01*
X127762094Y-139812763D01*
X127762093Y-139812762D01*
X127756752Y-139808882D01*
X127750724Y-139806198D01*
X127750722Y-139806197D01*
X127588319Y-139733891D01*
X127588318Y-139733891D01*
X127582288Y-139731206D01*
X127482861Y-139710072D01*
X127401944Y-139692872D01*
X127401939Y-139692872D01*
X127395487Y-139691500D01*
X127204513Y-139691500D01*
X127198061Y-139692872D01*
X127198056Y-139692872D01*
X127117139Y-139710072D01*
X127017712Y-139731206D01*
X127011682Y-139733891D01*
X127011681Y-139733891D01*
X126849278Y-139806197D01*
X126849276Y-139806198D01*
X126843248Y-139808882D01*
X126837907Y-139812762D01*
X126837906Y-139812763D01*
X126819625Y-139826045D01*
X126688747Y-139921134D01*
X126684326Y-139926044D01*
X126684325Y-139926045D01*
X126578909Y-140043122D01*
X126560960Y-140063056D01*
X126506955Y-140156596D01*
X126469445Y-140221565D01*
X126465473Y-140228444D01*
X126406458Y-140410072D01*
X126405768Y-140416633D01*
X126405768Y-140416635D01*
X126397696Y-140493435D01*
X126386496Y-140600000D01*
X125203932Y-140600000D01*
X125261911Y-140421559D01*
X125263119Y-140410072D01*
X125281183Y-140238196D01*
X125281873Y-140231631D01*
X125273987Y-140156596D01*
X125262601Y-140048266D01*
X125262601Y-140048264D01*
X125261911Y-140041703D01*
X125202896Y-139860075D01*
X125107409Y-139694687D01*
X125082030Y-139666500D01*
X124984044Y-139557676D01*
X124984043Y-139557675D01*
X124979622Y-139552765D01*
X124825121Y-139440513D01*
X124819093Y-139437829D01*
X124819091Y-139437828D01*
X124656688Y-139365522D01*
X124656687Y-139365522D01*
X124650657Y-139362837D01*
X124557256Y-139342984D01*
X124470313Y-139324503D01*
X124470308Y-139324503D01*
X124463856Y-139323131D01*
X124272882Y-139323131D01*
X124266430Y-139324503D01*
X124266425Y-139324503D01*
X124179482Y-139342984D01*
X124086081Y-139362837D01*
X124080051Y-139365522D01*
X124080050Y-139365522D01*
X123917647Y-139437828D01*
X123917645Y-139437829D01*
X123911617Y-139440513D01*
X123757116Y-139552765D01*
X123752695Y-139557675D01*
X123752694Y-139557676D01*
X123654709Y-139666500D01*
X123629329Y-139694687D01*
X123533842Y-139860075D01*
X123474827Y-140041703D01*
X123474137Y-140048264D01*
X123474137Y-140048266D01*
X123462751Y-140156596D01*
X123454865Y-140231631D01*
X115618055Y-140231631D01*
X115584527Y-140128444D01*
X115577406Y-140116109D01*
X115546775Y-140063056D01*
X115489040Y-139963056D01*
X115461752Y-139932749D01*
X115365675Y-139826045D01*
X115365674Y-139826044D01*
X115361253Y-139821134D01*
X115228090Y-139724385D01*
X115212094Y-139712763D01*
X115212093Y-139712762D01*
X115206752Y-139708882D01*
X115200724Y-139706198D01*
X115200722Y-139706197D01*
X115038319Y-139633891D01*
X115038318Y-139633891D01*
X115032288Y-139631206D01*
X114938888Y-139611353D01*
X114851944Y-139592872D01*
X114851939Y-139592872D01*
X114845487Y-139591500D01*
X114654513Y-139591500D01*
X114648061Y-139592872D01*
X114648056Y-139592872D01*
X114561112Y-139611353D01*
X114467712Y-139631206D01*
X114461682Y-139633891D01*
X114461681Y-139633891D01*
X114299278Y-139706197D01*
X114299276Y-139706198D01*
X114293248Y-139708882D01*
X114287907Y-139712762D01*
X114287906Y-139712763D01*
X114271910Y-139724385D01*
X114138747Y-139821134D01*
X114134326Y-139826044D01*
X114134325Y-139826045D01*
X114038249Y-139932749D01*
X114010960Y-139963056D01*
X113953225Y-140063056D01*
X113922595Y-140116109D01*
X113915473Y-140128444D01*
X113856458Y-140310072D01*
X113855768Y-140316633D01*
X113855768Y-140316635D01*
X113837414Y-140491267D01*
X113836496Y-140500000D01*
X106624023Y-140500000D01*
X106584527Y-140378444D01*
X106489040Y-140213056D01*
X106450588Y-140170350D01*
X106365675Y-140076045D01*
X106365674Y-140076044D01*
X106361253Y-140071134D01*
X106233162Y-139978070D01*
X106212094Y-139962763D01*
X106212093Y-139962762D01*
X106206752Y-139958882D01*
X106200724Y-139956198D01*
X106200722Y-139956197D01*
X106083489Y-139904002D01*
X108291500Y-139904002D01*
X108291693Y-139906450D01*
X108291693Y-139906458D01*
X108293905Y-139934555D01*
X108294438Y-139941331D01*
X108298757Y-139956197D01*
X108336445Y-140085920D01*
X108340855Y-140101101D01*
X108351319Y-140118794D01*
X108421509Y-140237480D01*
X108421511Y-140237483D01*
X108425547Y-140244307D01*
X108543193Y-140361953D01*
X108550017Y-140365989D01*
X108550020Y-140365991D01*
X108635655Y-140416635D01*
X108686399Y-140446645D01*
X108694010Y-140448856D01*
X108694012Y-140448857D01*
X108732781Y-140460120D01*
X108846169Y-140493062D01*
X108852574Y-140493566D01*
X108852579Y-140493567D01*
X108881042Y-140495807D01*
X108881050Y-140495807D01*
X108883498Y-140496000D01*
X109316502Y-140496000D01*
X109318950Y-140495807D01*
X109318958Y-140495807D01*
X109347421Y-140493567D01*
X109347426Y-140493566D01*
X109353831Y-140493062D01*
X109467219Y-140460120D01*
X109505988Y-140448857D01*
X109505990Y-140448856D01*
X109513601Y-140446645D01*
X109622762Y-140382087D01*
X109691576Y-140364628D01*
X109717615Y-140369249D01*
X109717712Y-140368794D01*
X109898056Y-140407128D01*
X109898061Y-140407128D01*
X109904513Y-140408500D01*
X110095487Y-140408500D01*
X110101939Y-140407128D01*
X110101944Y-140407128D01*
X110207320Y-140384729D01*
X110282288Y-140368794D01*
X110288321Y-140366108D01*
X110288327Y-140366106D01*
X110322262Y-140350998D01*
X110392629Y-140341564D01*
X110442557Y-140363029D01*
X110443193Y-140361953D01*
X110586399Y-140446645D01*
X110594010Y-140448856D01*
X110594012Y-140448857D01*
X110632781Y-140460120D01*
X110746169Y-140493062D01*
X110752574Y-140493566D01*
X110752579Y-140493567D01*
X110781042Y-140495807D01*
X110781050Y-140495807D01*
X110783498Y-140496000D01*
X111216502Y-140496000D01*
X111218950Y-140495807D01*
X111218958Y-140495807D01*
X111247421Y-140493567D01*
X111247426Y-140493566D01*
X111253831Y-140493062D01*
X111367219Y-140460120D01*
X111405988Y-140448857D01*
X111405990Y-140448856D01*
X111413601Y-140446645D01*
X111464345Y-140416635D01*
X111549980Y-140365991D01*
X111549983Y-140365989D01*
X111556807Y-140361953D01*
X111674453Y-140244307D01*
X111699135Y-140202572D01*
X111751027Y-140154121D01*
X111820877Y-140141416D01*
X111833781Y-140143466D01*
X111849022Y-140146705D01*
X111898056Y-140157128D01*
X111898060Y-140157128D01*
X111904513Y-140158500D01*
X112095487Y-140158500D01*
X112101939Y-140157128D01*
X112101944Y-140157128D01*
X112207320Y-140134729D01*
X112282288Y-140118794D01*
X112306696Y-140107927D01*
X112450722Y-140043803D01*
X112450724Y-140043802D01*
X112456752Y-140041118D01*
X112478615Y-140025234D01*
X112532036Y-139986421D01*
X112611253Y-139928866D01*
X112618215Y-139921134D01*
X112734621Y-139791852D01*
X112734622Y-139791851D01*
X112739040Y-139786944D01*
X112805171Y-139672402D01*
X112831223Y-139627279D01*
X112831224Y-139627278D01*
X112834527Y-139621556D01*
X112893542Y-139439928D01*
X112894728Y-139428650D01*
X112912814Y-139256565D01*
X112913504Y-139250000D01*
X112893542Y-139060072D01*
X112834527Y-138878444D01*
X112827406Y-138866109D01*
X112784109Y-138791118D01*
X112739040Y-138713056D01*
X112711752Y-138682749D01*
X112615675Y-138576045D01*
X112615674Y-138576044D01*
X112611253Y-138571134D01*
X112456752Y-138458882D01*
X112450724Y-138456198D01*
X112450722Y-138456197D01*
X112288319Y-138383891D01*
X112288318Y-138383891D01*
X112282288Y-138381206D01*
X112188887Y-138361353D01*
X112101944Y-138342872D01*
X112101939Y-138342872D01*
X112095487Y-138341500D01*
X111904513Y-138341500D01*
X111898060Y-138342872D01*
X111898056Y-138342872D01*
X111849022Y-138353295D01*
X111833783Y-138356534D01*
X111762993Y-138351132D01*
X111706361Y-138308315D01*
X111699139Y-138297434D01*
X111674453Y-138255693D01*
X111556807Y-138138047D01*
X111549983Y-138134011D01*
X111549980Y-138134009D01*
X111420427Y-138057392D01*
X111420428Y-138057392D01*
X111413601Y-138053355D01*
X111405990Y-138051144D01*
X111405988Y-138051143D01*
X111333050Y-138029953D01*
X111253831Y-138006938D01*
X111247426Y-138006434D01*
X111247421Y-138006433D01*
X111218958Y-138004193D01*
X111218950Y-138004193D01*
X111216502Y-138004000D01*
X110984500Y-138004000D01*
X110970877Y-138000000D01*
X113586496Y-138000000D01*
X113587186Y-138006565D01*
X113602499Y-138152257D01*
X113606458Y-138189928D01*
X113665473Y-138371556D01*
X113668776Y-138377278D01*
X113668777Y-138377279D01*
X113685473Y-138406197D01*
X113760960Y-138536944D01*
X113765378Y-138541851D01*
X113765379Y-138541852D01*
X113811921Y-138593542D01*
X113888747Y-138678866D01*
X114043248Y-138791118D01*
X114049276Y-138793802D01*
X114049278Y-138793803D01*
X114141200Y-138834729D01*
X114217712Y-138868794D01*
X114292680Y-138884729D01*
X114398056Y-138907128D01*
X114398061Y-138907128D01*
X114404513Y-138908500D01*
X114595487Y-138908500D01*
X114601939Y-138907128D01*
X114601944Y-138907128D01*
X114707320Y-138884729D01*
X114782288Y-138868794D01*
X114858800Y-138834729D01*
X114950722Y-138793803D01*
X114950724Y-138793802D01*
X114956752Y-138791118D01*
X115111253Y-138678866D01*
X115188079Y-138593542D01*
X115234621Y-138541852D01*
X115234622Y-138541851D01*
X115239040Y-138536944D01*
X115314527Y-138406197D01*
X115331223Y-138377279D01*
X115331224Y-138377278D01*
X115334527Y-138371556D01*
X115393542Y-138189928D01*
X115397502Y-138152257D01*
X115412814Y-138006565D01*
X115413504Y-138000000D01*
X116836496Y-138000000D01*
X116837186Y-138006565D01*
X116852499Y-138152257D01*
X116856458Y-138189928D01*
X116915473Y-138371556D01*
X116918776Y-138377278D01*
X116918777Y-138377279D01*
X116935473Y-138406197D01*
X117010960Y-138536944D01*
X117015378Y-138541851D01*
X117015379Y-138541852D01*
X117061921Y-138593542D01*
X117138747Y-138678866D01*
X117293248Y-138791118D01*
X117299276Y-138793802D01*
X117299278Y-138793803D01*
X117391200Y-138834729D01*
X117467712Y-138868794D01*
X117542680Y-138884729D01*
X117648056Y-138907128D01*
X117648061Y-138907128D01*
X117654513Y-138908500D01*
X117845487Y-138908500D01*
X117851939Y-138907128D01*
X117851944Y-138907128D01*
X117957320Y-138884729D01*
X118032288Y-138868794D01*
X118108800Y-138834729D01*
X118200722Y-138793803D01*
X118200724Y-138793802D01*
X118206752Y-138791118D01*
X118361253Y-138678866D01*
X118438079Y-138593542D01*
X118484621Y-138541852D01*
X118484622Y-138541851D01*
X118489040Y-138536944D01*
X118564527Y-138406197D01*
X118581223Y-138377279D01*
X118581224Y-138377278D01*
X118584527Y-138371556D01*
X118643542Y-138189928D01*
X118647502Y-138152257D01*
X118662814Y-138006565D01*
X118663504Y-138000000D01*
X118656839Y-137936589D01*
X118644232Y-137816635D01*
X118644232Y-137816633D01*
X118643542Y-137810072D01*
X118584527Y-137628444D01*
X118559299Y-137584747D01*
X118505878Y-137492220D01*
X118489040Y-137463056D01*
X118475504Y-137448022D01*
X118365675Y-137326045D01*
X118365674Y-137326044D01*
X118361253Y-137321134D01*
X118206752Y-137208882D01*
X118200724Y-137206198D01*
X118200722Y-137206197D01*
X118038319Y-137133891D01*
X118038318Y-137133891D01*
X118032288Y-137131206D01*
X117938888Y-137111353D01*
X117851944Y-137092872D01*
X117851939Y-137092872D01*
X117845487Y-137091500D01*
X117654513Y-137091500D01*
X117648061Y-137092872D01*
X117648056Y-137092872D01*
X117561112Y-137111353D01*
X117467712Y-137131206D01*
X117461682Y-137133891D01*
X117461681Y-137133891D01*
X117299278Y-137206197D01*
X117299276Y-137206198D01*
X117293248Y-137208882D01*
X117138747Y-137321134D01*
X117134326Y-137326044D01*
X117134325Y-137326045D01*
X117024497Y-137448022D01*
X117010960Y-137463056D01*
X116994122Y-137492220D01*
X116940702Y-137584747D01*
X116915473Y-137628444D01*
X116856458Y-137810072D01*
X116855768Y-137816633D01*
X116855768Y-137816635D01*
X116843161Y-137936589D01*
X116836496Y-138000000D01*
X115413504Y-138000000D01*
X115406839Y-137936589D01*
X115394232Y-137816635D01*
X115394232Y-137816633D01*
X115393542Y-137810072D01*
X115334527Y-137628444D01*
X115309299Y-137584747D01*
X115255878Y-137492220D01*
X115239040Y-137463056D01*
X115225504Y-137448022D01*
X115115675Y-137326045D01*
X115115674Y-137326044D01*
X115111253Y-137321134D01*
X114956752Y-137208882D01*
X114950724Y-137206198D01*
X114950722Y-137206197D01*
X114788319Y-137133891D01*
X114788318Y-137133891D01*
X114782288Y-137131206D01*
X114688888Y-137111353D01*
X114601944Y-137092872D01*
X114601939Y-137092872D01*
X114595487Y-137091500D01*
X114404513Y-137091500D01*
X114398061Y-137092872D01*
X114398056Y-137092872D01*
X114311112Y-137111353D01*
X114217712Y-137131206D01*
X114211682Y-137133891D01*
X114211681Y-137133891D01*
X114049278Y-137206197D01*
X114049276Y-137206198D01*
X114043248Y-137208882D01*
X113888747Y-137321134D01*
X113884326Y-137326044D01*
X113884325Y-137326045D01*
X113774497Y-137448022D01*
X113760960Y-137463056D01*
X113744122Y-137492220D01*
X113690702Y-137584747D01*
X113665473Y-137628444D01*
X113606458Y-137810072D01*
X113605768Y-137816633D01*
X113605768Y-137816635D01*
X113593161Y-137936589D01*
X113586496Y-138000000D01*
X110970877Y-138000000D01*
X110916379Y-137983998D01*
X110869886Y-137930342D01*
X110858500Y-137878000D01*
X110858500Y-136720998D01*
X110855562Y-136683669D01*
X110823875Y-136574600D01*
X110811357Y-136531512D01*
X110811356Y-136531510D01*
X110809145Y-136523899D01*
X110736387Y-136400872D01*
X110728491Y-136387520D01*
X110728489Y-136387517D01*
X110724453Y-136380693D01*
X110606807Y-136263047D01*
X110599983Y-136259011D01*
X110599980Y-136259009D01*
X110470427Y-136182392D01*
X110470428Y-136182392D01*
X110463601Y-136178355D01*
X110455990Y-136176144D01*
X110455988Y-136176143D01*
X110396054Y-136158731D01*
X110303831Y-136131938D01*
X110297426Y-136131434D01*
X110297421Y-136131433D01*
X110268958Y-136129193D01*
X110268950Y-136129193D01*
X110266502Y-136129000D01*
X109833498Y-136129000D01*
X109831050Y-136129193D01*
X109831042Y-136129193D01*
X109802579Y-136131433D01*
X109802574Y-136131434D01*
X109796169Y-136131938D01*
X109703946Y-136158731D01*
X109644012Y-136176143D01*
X109644010Y-136176144D01*
X109636399Y-136178355D01*
X109629572Y-136182392D01*
X109629573Y-136182392D01*
X109500020Y-136259009D01*
X109500017Y-136259011D01*
X109493193Y-136263047D01*
X109375547Y-136380693D01*
X109371511Y-136387517D01*
X109371509Y-136387520D01*
X109363613Y-136400872D01*
X109290855Y-136523899D01*
X109288644Y-136531510D01*
X109288643Y-136531512D01*
X109276125Y-136574600D01*
X109244438Y-136683669D01*
X109241500Y-136720998D01*
X109241500Y-136723467D01*
X109241404Y-136725916D01*
X109218747Y-136793200D01*
X109163310Y-136837554D01*
X109141699Y-136844224D01*
X108967712Y-136881206D01*
X108961682Y-136883891D01*
X108961681Y-136883891D01*
X108799278Y-136956197D01*
X108799276Y-136956198D01*
X108793248Y-136958882D01*
X108638747Y-137071134D01*
X108634326Y-137076044D01*
X108634325Y-137076045D01*
X108528159Y-137193955D01*
X108510960Y-137213056D01*
X108485087Y-137257870D01*
X108430260Y-137352833D01*
X108415473Y-137378444D01*
X108356458Y-137560072D01*
X108355768Y-137566633D01*
X108355768Y-137566635D01*
X108347543Y-137644890D01*
X108336496Y-137750000D01*
X108337186Y-137756565D01*
X108352394Y-137901258D01*
X108356458Y-137939928D01*
X108415473Y-138121556D01*
X108418776Y-138127277D01*
X108422822Y-138134284D01*
X108439561Y-138203279D01*
X108422157Y-138261425D01*
X108394426Y-138308315D01*
X108340855Y-138398899D01*
X108338644Y-138406510D01*
X108338643Y-138406512D01*
X108336827Y-138412763D01*
X108294438Y-138558669D01*
X108293934Y-138565074D01*
X108293933Y-138565079D01*
X108293070Y-138576045D01*
X108291500Y-138595998D01*
X108291500Y-139904002D01*
X106083489Y-139904002D01*
X106038319Y-139883891D01*
X106038318Y-139883891D01*
X106032288Y-139881206D01*
X105922572Y-139857885D01*
X105851944Y-139842872D01*
X105851939Y-139842872D01*
X105845487Y-139841500D01*
X105654513Y-139841500D01*
X105648061Y-139842872D01*
X105648056Y-139842872D01*
X105577428Y-139857885D01*
X105467712Y-139881206D01*
X105461682Y-139883891D01*
X105461681Y-139883891D01*
X105299278Y-139956197D01*
X105299276Y-139956198D01*
X105293248Y-139958882D01*
X105287907Y-139962762D01*
X105287906Y-139962763D01*
X105212628Y-140017456D01*
X105145760Y-140041314D01*
X105076609Y-140025234D01*
X105027129Y-139974320D01*
X105015343Y-139913170D01*
X105012814Y-139913170D01*
X105012814Y-139906565D01*
X105013504Y-139900000D01*
X105011529Y-139881206D01*
X104994232Y-139716635D01*
X104994232Y-139716633D01*
X104993542Y-139710072D01*
X104934527Y-139528444D01*
X104931135Y-139522568D01*
X104858179Y-139396206D01*
X104839040Y-139363056D01*
X104803092Y-139323131D01*
X104715675Y-139226045D01*
X104715674Y-139226044D01*
X104711253Y-139221134D01*
X104556752Y-139108882D01*
X104550724Y-139106198D01*
X104550722Y-139106197D01*
X104388319Y-139033891D01*
X104388318Y-139033891D01*
X104382288Y-139031206D01*
X104282861Y-139010072D01*
X104201944Y-138992872D01*
X104201939Y-138992872D01*
X104195487Y-138991500D01*
X104004513Y-138991500D01*
X103998061Y-138992872D01*
X103998056Y-138992872D01*
X103917139Y-139010072D01*
X103817712Y-139031206D01*
X103811682Y-139033891D01*
X103811681Y-139033891D01*
X103649278Y-139106197D01*
X103649276Y-139106198D01*
X103643248Y-139108882D01*
X103488747Y-139221134D01*
X103484326Y-139226044D01*
X103484325Y-139226045D01*
X103396909Y-139323131D01*
X103360960Y-139363056D01*
X103341821Y-139396206D01*
X103309119Y-139452847D01*
X103257736Y-139501840D01*
X103188023Y-139515276D01*
X103122112Y-139488890D01*
X103090881Y-139452847D01*
X103058179Y-139396206D01*
X103039040Y-139363056D01*
X103003092Y-139323131D01*
X102915675Y-139226045D01*
X102915674Y-139226044D01*
X102911253Y-139221134D01*
X102756752Y-139108882D01*
X102750724Y-139106198D01*
X102750722Y-139106197D01*
X102588319Y-139033891D01*
X102588318Y-139033891D01*
X102582288Y-139031206D01*
X102482861Y-139010072D01*
X102401944Y-138992872D01*
X102401939Y-138992872D01*
X102395487Y-138991500D01*
X102204513Y-138991500D01*
X102198061Y-138992872D01*
X102198056Y-138992872D01*
X102117139Y-139010072D01*
X102017712Y-139031206D01*
X102011682Y-139033891D01*
X102011681Y-139033891D01*
X101849278Y-139106197D01*
X101849276Y-139106198D01*
X101843248Y-139108882D01*
X101688747Y-139221134D01*
X101684326Y-139226044D01*
X101684325Y-139226045D01*
X101596909Y-139323131D01*
X101560960Y-139363056D01*
X101541821Y-139396206D01*
X101468866Y-139522568D01*
X101465473Y-139528444D01*
X101406458Y-139710072D01*
X101405768Y-139716633D01*
X101405768Y-139716635D01*
X101388471Y-139881206D01*
X101386496Y-139900000D01*
X92294846Y-139900000D01*
X92336458Y-139808882D01*
X92342919Y-139794734D01*
X92363729Y-139650000D01*
X92363729Y-138150000D01*
X92360632Y-138106704D01*
X92358982Y-138083627D01*
X92358982Y-138083626D01*
X92358500Y-138076889D01*
X92327128Y-137970047D01*
X92319843Y-137945235D01*
X92319842Y-137945233D01*
X92317304Y-137936589D01*
X92275960Y-137872257D01*
X92243122Y-137821159D01*
X92243120Y-137821156D01*
X92238250Y-137813579D01*
X92191769Y-137773303D01*
X92134555Y-137723726D01*
X92134552Y-137723724D01*
X92127743Y-137717824D01*
X92032158Y-137674172D01*
X91978502Y-137627679D01*
X91958500Y-137559558D01*
X91958500Y-136873546D01*
X91959578Y-136857100D01*
X91962673Y-136833590D01*
X91963751Y-136825402D01*
X91942838Y-136666551D01*
X91881524Y-136518526D01*
X91851025Y-136478779D01*
X91825424Y-136412559D01*
X91825547Y-136400872D01*
X91825113Y-136400872D01*
X91825113Y-136394266D01*
X91825803Y-136387701D01*
X91816823Y-136302262D01*
X91806531Y-136204336D01*
X91806531Y-136204334D01*
X91805841Y-136197773D01*
X91746826Y-136016145D01*
X91651339Y-135850757D01*
X91636908Y-135834729D01*
X91527974Y-135713746D01*
X91527973Y-135713745D01*
X91523552Y-135708835D01*
X91369051Y-135596583D01*
X91363023Y-135593899D01*
X91363021Y-135593898D01*
X91200618Y-135521592D01*
X91200617Y-135521592D01*
X91194587Y-135518907D01*
X91101186Y-135499054D01*
X91014243Y-135480573D01*
X91014238Y-135480573D01*
X91007786Y-135479201D01*
X90816812Y-135479201D01*
X90810360Y-135480573D01*
X90810355Y-135480573D01*
X90636469Y-135517534D01*
X90636466Y-135517535D01*
X90630011Y-135518907D01*
X90627314Y-135520108D01*
X90557701Y-135522099D01*
X90496902Y-135485438D01*
X90465575Y-135421727D01*
X90463729Y-135400237D01*
X90463729Y-134625000D01*
X90462295Y-134602267D01*
X90460066Y-134566920D01*
X90460065Y-134566916D01*
X90459657Y-134560443D01*
X90447075Y-134514768D01*
X90443833Y-134463375D01*
X90461306Y-134341852D01*
X90463729Y-134325000D01*
X90463729Y-133350249D01*
X90483731Y-133282128D01*
X90515668Y-133248313D01*
X90531447Y-133236849D01*
X90611253Y-133178866D01*
X90739040Y-133036944D01*
X90814957Y-132905453D01*
X90831223Y-132877279D01*
X90831224Y-132877278D01*
X90834527Y-132871556D01*
X90893542Y-132689928D01*
X90896005Y-132666500D01*
X90912814Y-132506565D01*
X90912814Y-132506564D01*
X90913504Y-132500000D01*
X90902060Y-132391118D01*
X90894232Y-132316635D01*
X90894232Y-132316633D01*
X90893542Y-132310072D01*
X90834527Y-132128444D01*
X90739040Y-131963056D01*
X90611253Y-131821134D01*
X90456752Y-131708882D01*
X90450724Y-131706198D01*
X90450722Y-131706197D01*
X90288319Y-131633891D01*
X90288318Y-131633891D01*
X90282288Y-131631206D01*
X90188888Y-131611353D01*
X90101944Y-131592872D01*
X90101939Y-131592872D01*
X90095487Y-131591500D01*
X89904513Y-131591500D01*
X89898061Y-131592872D01*
X89898056Y-131592872D01*
X89811112Y-131611353D01*
X89717712Y-131631206D01*
X89711682Y-131633891D01*
X89711681Y-131633891D01*
X89549278Y-131706197D01*
X89549276Y-131706198D01*
X89543248Y-131708882D01*
X89388747Y-131821134D01*
X89260960Y-131963056D01*
X89165473Y-132128444D01*
X89106458Y-132310072D01*
X89105768Y-132316633D01*
X89105768Y-132316635D01*
X89097940Y-132391118D01*
X89086496Y-132500000D01*
X89087186Y-132506564D01*
X89088819Y-132522100D01*
X89076047Y-132591938D01*
X89027545Y-132643785D01*
X88963509Y-132661271D01*
X88450000Y-132661271D01*
X88418014Y-132663559D01*
X88383627Y-132666018D01*
X88383626Y-132666018D01*
X88376889Y-132666500D01*
X88297382Y-132689845D01*
X88245235Y-132705157D01*
X88245233Y-132705158D01*
X88236589Y-132707696D01*
X88229010Y-132712567D01*
X88121159Y-132781878D01*
X88121156Y-132781880D01*
X88113579Y-132786750D01*
X88107678Y-132793560D01*
X88023726Y-132890445D01*
X88023724Y-132890448D01*
X88017824Y-132897257D01*
X87978516Y-132983330D01*
X87932023Y-133036985D01*
X87863902Y-133056987D01*
X87795781Y-133036985D01*
X87789865Y-133032940D01*
X87756752Y-133008882D01*
X87750724Y-133006198D01*
X87750722Y-133006197D01*
X87588319Y-132933891D01*
X87588318Y-132933891D01*
X87582288Y-132931206D01*
X87488888Y-132911353D01*
X87401944Y-132892872D01*
X87401939Y-132892872D01*
X87395487Y-132891500D01*
X87204513Y-132891500D01*
X87198061Y-132892872D01*
X87198056Y-132892872D01*
X87111112Y-132911353D01*
X87017712Y-132931206D01*
X87011682Y-132933891D01*
X87011681Y-132933891D01*
X86849278Y-133006197D01*
X86849276Y-133006198D01*
X86843248Y-133008882D01*
X86837907Y-133012762D01*
X86837906Y-133012763D01*
X86804624Y-133036944D01*
X86688747Y-133121134D01*
X86684326Y-133126044D01*
X86684325Y-133126045D01*
X86574235Y-133248313D01*
X86560960Y-133263056D01*
X86465473Y-133428444D01*
X86406458Y-133610072D01*
X86386496Y-133800000D01*
X81813504Y-133800000D01*
X81793542Y-133610072D01*
X81734527Y-133428444D01*
X81639040Y-133263056D01*
X81625766Y-133248313D01*
X81515675Y-133126045D01*
X81515674Y-133126044D01*
X81511253Y-133121134D01*
X81395376Y-133036944D01*
X81362094Y-133012763D01*
X81362093Y-133012762D01*
X81356752Y-133008882D01*
X81350726Y-133006199D01*
X81350719Y-133006195D01*
X81277276Y-132973497D01*
X81223180Y-132927517D01*
X81202530Y-132859590D01*
X81221882Y-132791282D01*
X81254463Y-132756454D01*
X81321572Y-132707696D01*
X81361253Y-132678866D01*
X81370673Y-132668404D01*
X81484621Y-132541852D01*
X81484622Y-132541851D01*
X81489040Y-132536944D01*
X81563861Y-132407350D01*
X81581223Y-132377279D01*
X81581224Y-132377278D01*
X81584527Y-132371556D01*
X81643542Y-132189928D01*
X81663504Y-132000000D01*
X81643542Y-131810072D01*
X81584527Y-131628444D01*
X81577406Y-131616109D01*
X81534109Y-131541118D01*
X81489040Y-131463056D01*
X81461752Y-131432749D01*
X81365675Y-131326045D01*
X81365674Y-131326044D01*
X81361253Y-131321134D01*
X81206752Y-131208882D01*
X81200724Y-131206198D01*
X81200722Y-131206197D01*
X81038319Y-131133891D01*
X81038318Y-131133891D01*
X81032288Y-131131206D01*
X80938888Y-131111353D01*
X80851944Y-131092872D01*
X80851939Y-131092872D01*
X80845487Y-131091500D01*
X80654513Y-131091500D01*
X80649599Y-131092544D01*
X80580338Y-131079878D01*
X80527887Y-131030341D01*
X80489040Y-130963056D01*
X80468216Y-130939928D01*
X80365675Y-130826045D01*
X80365674Y-130826044D01*
X80361253Y-130821134D01*
X80263346Y-130750000D01*
X83336496Y-130750000D01*
X83337186Y-130756565D01*
X83354483Y-130921134D01*
X83356458Y-130939928D01*
X83415473Y-131121556D01*
X83418776Y-131127278D01*
X83418777Y-131127279D01*
X83423078Y-131134729D01*
X83510960Y-131286944D01*
X83515378Y-131291851D01*
X83515379Y-131291852D01*
X83555980Y-131336944D01*
X83638747Y-131428866D01*
X83793248Y-131541118D01*
X83799276Y-131543802D01*
X83799278Y-131543803D01*
X83961681Y-131616109D01*
X83967712Y-131618794D01*
X84042680Y-131634729D01*
X84148056Y-131657128D01*
X84148061Y-131657128D01*
X84154513Y-131658500D01*
X84345487Y-131658500D01*
X84351939Y-131657128D01*
X84351944Y-131657128D01*
X84457320Y-131634729D01*
X84532288Y-131618794D01*
X84538319Y-131616109D01*
X84700722Y-131543803D01*
X84700724Y-131543802D01*
X84706752Y-131541118D01*
X84861253Y-131428866D01*
X84944020Y-131336944D01*
X84984621Y-131291852D01*
X84984622Y-131291851D01*
X84989040Y-131286944D01*
X85076922Y-131134729D01*
X85081223Y-131127279D01*
X85081224Y-131127278D01*
X85084527Y-131121556D01*
X85143542Y-130939928D01*
X85145518Y-130921134D01*
X85158249Y-130800000D01*
X95486496Y-130800000D01*
X95487186Y-130806565D01*
X95504235Y-130968774D01*
X95506458Y-130989928D01*
X95565473Y-131171556D01*
X95660960Y-131336944D01*
X95788747Y-131478866D01*
X95943248Y-131591118D01*
X95949276Y-131593802D01*
X95949278Y-131593803D01*
X96094591Y-131658500D01*
X96117712Y-131668794D01*
X96186263Y-131683365D01*
X96298056Y-131707128D01*
X96298061Y-131707128D01*
X96304513Y-131708500D01*
X96495487Y-131708500D01*
X96501939Y-131707128D01*
X96501944Y-131707128D01*
X96613737Y-131683365D01*
X96682288Y-131668794D01*
X96705409Y-131658500D01*
X96850722Y-131593803D01*
X96850724Y-131593802D01*
X96856752Y-131591118D01*
X97011253Y-131478866D01*
X97139040Y-131336944D01*
X97234527Y-131171556D01*
X97293542Y-130989928D01*
X97295766Y-130968774D01*
X97312814Y-130806565D01*
X97313504Y-130800000D01*
X97306274Y-130731206D01*
X97294232Y-130616635D01*
X97294232Y-130616633D01*
X97293542Y-130610072D01*
X97234527Y-130428444D01*
X97217028Y-130398134D01*
X97188836Y-130349305D01*
X97139040Y-130263056D01*
X97099169Y-130218774D01*
X97015675Y-130126045D01*
X97015674Y-130126044D01*
X97011253Y-130121134D01*
X96856752Y-130008882D01*
X96850724Y-130006198D01*
X96850722Y-130006197D01*
X96688319Y-129933891D01*
X96688318Y-129933891D01*
X96682288Y-129931206D01*
X96564485Y-129906166D01*
X96501944Y-129892872D01*
X96501939Y-129892872D01*
X96495487Y-129891500D01*
X96304513Y-129891500D01*
X96298061Y-129892872D01*
X96298056Y-129892872D01*
X96235515Y-129906166D01*
X96117712Y-129931206D01*
X96111682Y-129933891D01*
X96111681Y-129933891D01*
X95949278Y-130006197D01*
X95949276Y-130006198D01*
X95943248Y-130008882D01*
X95788747Y-130121134D01*
X95784326Y-130126044D01*
X95784325Y-130126045D01*
X95700832Y-130218774D01*
X95660960Y-130263056D01*
X95611164Y-130349305D01*
X95582973Y-130398134D01*
X95565473Y-130428444D01*
X95506458Y-130610072D01*
X95505768Y-130616633D01*
X95505768Y-130616635D01*
X95493726Y-130731206D01*
X95486496Y-130800000D01*
X85158249Y-130800000D01*
X85162814Y-130756565D01*
X85163504Y-130750000D01*
X85158900Y-130706197D01*
X85144232Y-130566635D01*
X85144232Y-130566633D01*
X85143542Y-130560072D01*
X85084527Y-130378444D01*
X85077406Y-130366109D01*
X85034109Y-130291118D01*
X84989040Y-130213056D01*
X84977285Y-130200000D01*
X84865675Y-130076045D01*
X84865674Y-130076044D01*
X84861253Y-130071134D01*
X84706752Y-129958882D01*
X84700724Y-129956198D01*
X84700722Y-129956197D01*
X84538319Y-129883891D01*
X84538318Y-129883891D01*
X84532288Y-129881206D01*
X84438888Y-129861353D01*
X84351944Y-129842872D01*
X84351939Y-129842872D01*
X84345487Y-129841500D01*
X84154513Y-129841500D01*
X84148061Y-129842872D01*
X84148056Y-129842872D01*
X84061112Y-129861353D01*
X83967712Y-129881206D01*
X83961682Y-129883891D01*
X83961681Y-129883891D01*
X83799278Y-129956197D01*
X83799276Y-129956198D01*
X83793248Y-129958882D01*
X83638747Y-130071134D01*
X83634326Y-130076044D01*
X83634325Y-130076045D01*
X83522716Y-130200000D01*
X83510960Y-130213056D01*
X83465891Y-130291118D01*
X83422595Y-130366109D01*
X83415473Y-130378444D01*
X83356458Y-130560072D01*
X83355768Y-130566633D01*
X83355768Y-130566635D01*
X83341100Y-130706197D01*
X83336496Y-130750000D01*
X80263346Y-130750000D01*
X80237478Y-130731206D01*
X80212094Y-130712763D01*
X80212093Y-130712762D01*
X80206752Y-130708882D01*
X80200724Y-130706198D01*
X80200722Y-130706197D01*
X80038319Y-130633891D01*
X80038318Y-130633891D01*
X80032288Y-130631206D01*
X79932861Y-130610072D01*
X79851944Y-130592872D01*
X79851939Y-130592872D01*
X79845487Y-130591500D01*
X79654513Y-130591500D01*
X79648061Y-130592872D01*
X79648056Y-130592872D01*
X79567139Y-130610072D01*
X79467712Y-130631206D01*
X79461682Y-130633891D01*
X79461681Y-130633891D01*
X79299278Y-130706197D01*
X79299276Y-130706198D01*
X79293248Y-130708882D01*
X79287907Y-130712762D01*
X79287906Y-130712763D01*
X79262522Y-130731206D01*
X79138747Y-130821134D01*
X79134326Y-130826044D01*
X79134325Y-130826045D01*
X79031785Y-130939928D01*
X79010960Y-130963056D01*
X78991821Y-130996206D01*
X78936011Y-131092872D01*
X78915473Y-131128444D01*
X78856458Y-131310072D01*
X78855768Y-131316633D01*
X78855768Y-131316635D01*
X78843972Y-131428866D01*
X78836496Y-131500000D01*
X78837186Y-131506565D01*
X78853955Y-131666109D01*
X78856458Y-131689928D01*
X78915473Y-131871556D01*
X79010960Y-132036944D01*
X79138747Y-132178866D01*
X79218684Y-132236944D01*
X79276385Y-132278866D01*
X79293248Y-132291118D01*
X79299276Y-132293802D01*
X79299278Y-132293803D01*
X79350560Y-132316635D01*
X79467712Y-132368794D01*
X79561113Y-132388647D01*
X79648056Y-132407128D01*
X79648061Y-132407128D01*
X79654513Y-132408500D01*
X79845487Y-132408500D01*
X79850401Y-132407456D01*
X79919662Y-132420122D01*
X79972112Y-132469658D01*
X80010960Y-132536944D01*
X80015378Y-132541851D01*
X80015379Y-132541852D01*
X80129327Y-132668404D01*
X80138747Y-132678866D01*
X80293248Y-132791118D01*
X80299274Y-132793801D01*
X80299281Y-132793805D01*
X80372724Y-132826503D01*
X80426820Y-132872483D01*
X80447470Y-132940410D01*
X80428118Y-133008718D01*
X80395537Y-133043546D01*
X80288747Y-133121134D01*
X80284326Y-133126044D01*
X80284325Y-133126045D01*
X80174235Y-133248313D01*
X80160960Y-133263056D01*
X80065473Y-133428444D01*
X80006458Y-133610072D01*
X79986496Y-133800000D01*
X79986684Y-133801786D01*
X79967184Y-133868196D01*
X79950281Y-133889170D01*
X79934223Y-133905228D01*
X79871911Y-133939254D01*
X79801096Y-133934189D01*
X79779012Y-133923393D01*
X79678968Y-133861725D01*
X79678966Y-133861724D01*
X79672738Y-133857885D01*
X79592995Y-133831436D01*
X79511389Y-133804368D01*
X79511387Y-133804368D01*
X79504861Y-133802203D01*
X79498025Y-133801503D01*
X79498022Y-133801502D01*
X79454969Y-133797091D01*
X79400400Y-133791500D01*
X78599600Y-133791500D01*
X78596354Y-133791837D01*
X78596350Y-133791837D01*
X78500692Y-133801762D01*
X78500688Y-133801763D01*
X78493834Y-133802474D01*
X78487298Y-133804655D01*
X78487296Y-133804655D01*
X78357619Y-133847919D01*
X78326054Y-133858450D01*
X78175652Y-133951522D01*
X78170479Y-133956704D01*
X78088862Y-134038463D01*
X78026579Y-134072542D01*
X77955759Y-134067539D01*
X77910671Y-134038618D01*
X77828171Y-133956261D01*
X77816760Y-133947249D01*
X77678757Y-133862184D01*
X77665576Y-133856037D01*
X77511290Y-133804862D01*
X77497914Y-133801995D01*
X77403562Y-133792328D01*
X77397145Y-133792000D01*
X77272115Y-133792000D01*
X77256876Y-133796475D01*
X77255671Y-133797865D01*
X77254000Y-133805548D01*
X77254000Y-136189884D01*
X77258475Y-136205124D01*
X77277744Y-136221821D01*
X77316128Y-136281547D01*
X77314825Y-136356712D01*
X77277203Y-136470139D01*
X77276503Y-136476975D01*
X77276502Y-136476978D01*
X77272917Y-136511973D01*
X77266500Y-136574600D01*
X77266500Y-137350400D01*
X77266837Y-137353646D01*
X77266837Y-137353650D01*
X77266963Y-137354858D01*
X77277474Y-137456166D01*
X77279655Y-137462702D01*
X77279655Y-137462704D01*
X77297645Y-137516626D01*
X77333450Y-137623946D01*
X77426522Y-137774348D01*
X77551697Y-137899305D01*
X77555916Y-137901906D01*
X77596417Y-137959030D01*
X77599649Y-138029953D01*
X77564024Y-138091365D01*
X77556470Y-138097922D01*
X77550652Y-138101522D01*
X77425695Y-138226697D01*
X77421855Y-138232927D01*
X77421854Y-138232928D01*
X77407822Y-138255693D01*
X77332885Y-138377262D01*
X77323288Y-138406197D01*
X77286452Y-138517255D01*
X77277203Y-138545139D01*
X77276503Y-138551975D01*
X77276502Y-138551978D01*
X77274036Y-138576045D01*
X77266500Y-138649600D01*
X77266500Y-139425400D01*
X77266837Y-139428646D01*
X77266837Y-139428650D01*
X77276598Y-139522721D01*
X77277474Y-139531166D01*
X77279657Y-139537708D01*
X77279657Y-139537710D01*
X77314897Y-139643337D01*
X77317482Y-139714287D01*
X77281299Y-139775371D01*
X77269175Y-139782280D01*
X77255671Y-139797865D01*
X77254000Y-139805548D01*
X77254000Y-142189884D01*
X76746000Y-142189884D01*
X76746000Y-139810116D01*
X76741525Y-139794877D01*
X76740135Y-139793672D01*
X76732452Y-139792001D01*
X76602905Y-139792001D01*
X76596386Y-139792338D01*
X76500794Y-139802257D01*
X76487400Y-139805149D01*
X76333216Y-139856588D01*
X76320038Y-139862761D01*
X76182193Y-139948063D01*
X76170792Y-139957099D01*
X76056261Y-140071829D01*
X76047249Y-140083240D01*
X75991260Y-140174072D01*
X75938488Y-140221565D01*
X75868417Y-140232989D01*
X75803293Y-140204715D01*
X75763793Y-140145721D01*
X75758000Y-140107956D01*
X75758000Y-135892131D01*
X75778002Y-135824010D01*
X75831658Y-135777517D01*
X75901932Y-135767413D01*
X75966512Y-135796907D01*
X75991144Y-135825828D01*
X76048063Y-135917807D01*
X76057099Y-135929208D01*
X76171829Y-136043739D01*
X76183240Y-136052751D01*
X76321243Y-136137816D01*
X76334424Y-136143963D01*
X76488710Y-136195138D01*
X76502086Y-136198005D01*
X76596438Y-136207672D01*
X76602854Y-136208000D01*
X76727885Y-136208000D01*
X76743124Y-136203525D01*
X76744329Y-136202135D01*
X76746000Y-136194452D01*
X76746000Y-133810116D01*
X76741525Y-133794877D01*
X76740135Y-133793672D01*
X76732452Y-133792001D01*
X76602905Y-133792001D01*
X76596386Y-133792338D01*
X76500794Y-133802257D01*
X76487400Y-133805149D01*
X76333216Y-133856588D01*
X76320038Y-133862761D01*
X76182193Y-133948063D01*
X76170792Y-133957099D01*
X76056261Y-134071829D01*
X76047249Y-134083240D01*
X75991260Y-134174072D01*
X75938488Y-134221565D01*
X75868417Y-134232989D01*
X75803293Y-134204715D01*
X75763793Y-134145721D01*
X75758000Y-134107956D01*
X75758000Y-129500000D01*
X92086496Y-129500000D01*
X92087186Y-129506565D01*
X92099456Y-129623303D01*
X92106458Y-129689928D01*
X92165473Y-129871556D01*
X92168776Y-129877278D01*
X92168777Y-129877279D01*
X92176988Y-129891500D01*
X92260960Y-130036944D01*
X92265378Y-130041851D01*
X92265379Y-130041852D01*
X92333269Y-130117251D01*
X92388747Y-130178866D01*
X92458037Y-130229208D01*
X92500000Y-130259696D01*
X92543248Y-130291118D01*
X92549276Y-130293802D01*
X92549278Y-130293803D01*
X92711681Y-130366109D01*
X92717712Y-130368794D01*
X92792680Y-130384729D01*
X92898056Y-130407128D01*
X92898061Y-130407128D01*
X92904513Y-130408500D01*
X93095487Y-130408500D01*
X93101939Y-130407128D01*
X93101944Y-130407128D01*
X93207320Y-130384729D01*
X93282288Y-130368794D01*
X93318322Y-130352751D01*
X93350089Y-130338607D01*
X93448752Y-130294680D01*
X93519118Y-130285246D01*
X93551247Y-130294680D01*
X93649911Y-130338607D01*
X93681679Y-130352751D01*
X93717712Y-130368794D01*
X93792680Y-130384729D01*
X93898056Y-130407128D01*
X93898061Y-130407128D01*
X93904513Y-130408500D01*
X94095487Y-130408500D01*
X94101939Y-130407128D01*
X94101944Y-130407128D01*
X94207320Y-130384729D01*
X94282288Y-130368794D01*
X94288319Y-130366109D01*
X94450722Y-130293803D01*
X94450724Y-130293802D01*
X94456752Y-130291118D01*
X94500001Y-130259696D01*
X94541963Y-130229208D01*
X94611253Y-130178866D01*
X94666731Y-130117251D01*
X94734621Y-130041852D01*
X94734622Y-130041851D01*
X94739040Y-130036944D01*
X94823012Y-129891500D01*
X94831223Y-129877279D01*
X94831224Y-129877278D01*
X94834527Y-129871556D01*
X94858721Y-129797095D01*
X98617001Y-129797095D01*
X98617338Y-129803614D01*
X98627257Y-129899206D01*
X98630149Y-129912600D01*
X98681588Y-130066784D01*
X98687761Y-130079962D01*
X98773063Y-130217807D01*
X98782099Y-130229208D01*
X98896829Y-130343739D01*
X98908240Y-130352751D01*
X99046243Y-130437816D01*
X99059424Y-130443963D01*
X99213710Y-130495138D01*
X99227086Y-130498005D01*
X99321438Y-130507672D01*
X99327854Y-130508000D01*
X99377885Y-130508000D01*
X99393124Y-130503525D01*
X99394329Y-130502135D01*
X99396000Y-130494452D01*
X99396000Y-129672115D01*
X99391525Y-129656876D01*
X99390135Y-129655671D01*
X99382452Y-129654000D01*
X98635116Y-129654000D01*
X98619877Y-129658475D01*
X98618672Y-129659865D01*
X98617001Y-129667548D01*
X98617001Y-129797095D01*
X94858721Y-129797095D01*
X94893542Y-129689928D01*
X94900545Y-129623303D01*
X94912814Y-129506565D01*
X94913504Y-129500000D01*
X94893542Y-129310072D01*
X94834527Y-129128444D01*
X94834204Y-129127885D01*
X98617000Y-129127885D01*
X98621475Y-129143124D01*
X98622865Y-129144329D01*
X98630548Y-129146000D01*
X99377885Y-129146000D01*
X99393124Y-129141525D01*
X99394329Y-129140135D01*
X99396000Y-129132452D01*
X99396000Y-128310116D01*
X99391525Y-128294877D01*
X99390135Y-128293672D01*
X99382452Y-128292001D01*
X99327905Y-128292001D01*
X99321386Y-128292338D01*
X99225794Y-128302257D01*
X99212400Y-128305149D01*
X99058216Y-128356588D01*
X99045038Y-128362761D01*
X98907193Y-128448063D01*
X98895792Y-128457099D01*
X98781261Y-128571829D01*
X98772249Y-128583240D01*
X98687184Y-128721243D01*
X98681037Y-128734424D01*
X98629862Y-128888710D01*
X98626995Y-128902086D01*
X98617328Y-128996438D01*
X98617000Y-129002855D01*
X98617000Y-129127885D01*
X94834204Y-129127885D01*
X94739040Y-128963056D01*
X94684143Y-128902086D01*
X94615675Y-128826045D01*
X94615674Y-128826044D01*
X94611253Y-128821134D01*
X94512157Y-128749136D01*
X94462094Y-128712763D01*
X94462093Y-128712762D01*
X94456752Y-128708882D01*
X94450724Y-128706198D01*
X94450722Y-128706197D01*
X94288319Y-128633891D01*
X94288318Y-128633891D01*
X94282288Y-128631206D01*
X94182861Y-128610072D01*
X94101944Y-128592872D01*
X94101939Y-128592872D01*
X94095487Y-128591500D01*
X93904513Y-128591500D01*
X93898061Y-128592872D01*
X93898056Y-128592872D01*
X93817139Y-128610072D01*
X93717712Y-128631206D01*
X93551248Y-128705320D01*
X93480882Y-128714754D01*
X93448753Y-128705320D01*
X93282288Y-128631206D01*
X93182861Y-128610072D01*
X93101944Y-128592872D01*
X93101939Y-128592872D01*
X93095487Y-128591500D01*
X92904513Y-128591500D01*
X92898061Y-128592872D01*
X92898056Y-128592872D01*
X92817139Y-128610072D01*
X92717712Y-128631206D01*
X92711682Y-128633891D01*
X92711681Y-128633891D01*
X92549278Y-128706197D01*
X92549276Y-128706198D01*
X92543248Y-128708882D01*
X92537907Y-128712762D01*
X92537906Y-128712763D01*
X92487843Y-128749136D01*
X92388747Y-128821134D01*
X92384326Y-128826044D01*
X92384325Y-128826045D01*
X92315858Y-128902086D01*
X92260960Y-128963056D01*
X92165473Y-129128444D01*
X92106458Y-129310072D01*
X92086496Y-129500000D01*
X75758000Y-129500000D01*
X75758000Y-128000000D01*
X96086496Y-128000000D01*
X96087186Y-128006565D01*
X96099872Y-128127262D01*
X96106458Y-128189928D01*
X96165473Y-128371556D01*
X96260960Y-128536944D01*
X96265378Y-128541851D01*
X96265379Y-128541852D01*
X96295813Y-128575652D01*
X96388747Y-128678866D01*
X96543248Y-128791118D01*
X96549276Y-128793802D01*
X96549278Y-128793803D01*
X96711681Y-128866109D01*
X96717712Y-128868794D01*
X96811113Y-128888647D01*
X96898056Y-128907128D01*
X96898061Y-128907128D01*
X96904513Y-128908500D01*
X97095487Y-128908500D01*
X97101939Y-128907128D01*
X97101944Y-128907128D01*
X97188887Y-128888647D01*
X97282288Y-128868794D01*
X97288319Y-128866109D01*
X97450722Y-128793803D01*
X97450724Y-128793802D01*
X97456752Y-128791118D01*
X97611253Y-128678866D01*
X97704187Y-128575652D01*
X97734621Y-128541852D01*
X97734622Y-128541851D01*
X97739040Y-128536944D01*
X97834527Y-128371556D01*
X97893542Y-128189928D01*
X97900129Y-128127262D01*
X97912814Y-128006565D01*
X97913504Y-128000000D01*
X97893542Y-127810072D01*
X97834527Y-127628444D01*
X97816677Y-127597526D01*
X97742341Y-127468774D01*
X97739040Y-127463056D01*
X97694205Y-127413261D01*
X97615675Y-127326045D01*
X97615674Y-127326044D01*
X97611253Y-127321134D01*
X97456752Y-127208882D01*
X97450724Y-127206198D01*
X97450722Y-127206197D01*
X97288319Y-127133891D01*
X97288318Y-127133891D01*
X97282288Y-127131206D01*
X97188888Y-127111353D01*
X97101944Y-127092872D01*
X97101939Y-127092872D01*
X97095487Y-127091500D01*
X96904513Y-127091500D01*
X96898061Y-127092872D01*
X96898056Y-127092872D01*
X96811112Y-127111353D01*
X96717712Y-127131206D01*
X96711682Y-127133891D01*
X96711681Y-127133891D01*
X96549278Y-127206197D01*
X96549276Y-127206198D01*
X96543248Y-127208882D01*
X96388747Y-127321134D01*
X96384326Y-127326044D01*
X96384325Y-127326045D01*
X96305796Y-127413261D01*
X96260960Y-127463056D01*
X96257659Y-127468774D01*
X96183324Y-127597526D01*
X96165473Y-127628444D01*
X96106458Y-127810072D01*
X96086496Y-128000000D01*
X75758000Y-128000000D01*
X75758000Y-125384534D01*
X75778002Y-125316413D01*
X75831658Y-125269920D01*
X75884104Y-125258534D01*
X100274107Y-125279117D01*
G37*
%TD.AperFunction*%
%TD*%
%TA.AperFunction,Conductor*%
%TO.N,GNDA*%
G36*
X110779460Y-125287983D02*
G01*
X110847563Y-125308043D01*
X110894011Y-125361737D01*
X110904663Y-125427153D01*
X110893993Y-125528671D01*
X110889093Y-125575293D01*
X110862080Y-125640949D01*
X110852865Y-125651231D01*
X110849486Y-125654609D01*
X110787169Y-125688624D01*
X110760404Y-125691500D01*
X110499600Y-125691500D01*
X110496354Y-125691837D01*
X110496350Y-125691837D01*
X110400692Y-125701762D01*
X110400688Y-125701763D01*
X110393834Y-125702474D01*
X110387298Y-125704655D01*
X110387296Y-125704655D01*
X110307561Y-125731257D01*
X110226054Y-125758450D01*
X110075652Y-125851522D01*
X110075393Y-125851103D01*
X110013982Y-125875958D01*
X109944218Y-125862786D01*
X109912513Y-125839748D01*
X109828488Y-125755870D01*
X109828483Y-125755866D01*
X109823303Y-125750695D01*
X109791769Y-125731257D01*
X109678968Y-125661725D01*
X109678966Y-125661724D01*
X109672738Y-125657885D01*
X109546235Y-125615926D01*
X109511389Y-125604368D01*
X109511387Y-125604368D01*
X109504861Y-125602203D01*
X109498025Y-125601503D01*
X109498022Y-125601502D01*
X109454969Y-125597091D01*
X109400400Y-125591500D01*
X108599600Y-125591500D01*
X108596354Y-125591837D01*
X108596350Y-125591837D01*
X108500692Y-125601762D01*
X108500688Y-125601763D01*
X108493834Y-125602474D01*
X108487298Y-125604655D01*
X108487296Y-125604655D01*
X108398722Y-125634206D01*
X108326054Y-125658450D01*
X108175652Y-125751522D01*
X108170479Y-125756704D01*
X108088862Y-125838463D01*
X108026579Y-125872542D01*
X107955759Y-125867539D01*
X107910671Y-125838618D01*
X107828171Y-125756261D01*
X107816760Y-125747249D01*
X107678757Y-125662184D01*
X107665576Y-125656037D01*
X107511290Y-125604862D01*
X107497914Y-125601995D01*
X107403562Y-125592328D01*
X107397145Y-125592000D01*
X107272115Y-125592000D01*
X107256876Y-125596475D01*
X107255671Y-125597865D01*
X107254000Y-125605548D01*
X107254000Y-127989884D01*
X107258475Y-128005123D01*
X107259865Y-128006328D01*
X107267548Y-128007999D01*
X107397095Y-128007999D01*
X107403614Y-128007662D01*
X107499206Y-127997743D01*
X107512600Y-127994851D01*
X107666784Y-127943412D01*
X107679962Y-127937239D01*
X107817807Y-127851937D01*
X107829208Y-127842901D01*
X107910430Y-127761538D01*
X107972713Y-127727459D01*
X108043533Y-127732462D01*
X108088620Y-127761383D01*
X108171512Y-127844130D01*
X108171517Y-127844134D01*
X108176697Y-127849305D01*
X108182927Y-127853145D01*
X108182928Y-127853146D01*
X108320288Y-127937816D01*
X108327262Y-127942115D01*
X108407005Y-127968564D01*
X108488611Y-127995632D01*
X108488613Y-127995632D01*
X108495139Y-127997797D01*
X108501975Y-127998497D01*
X108501978Y-127998498D01*
X108545031Y-128002909D01*
X108599600Y-128008500D01*
X109400400Y-128008500D01*
X109403646Y-128008163D01*
X109403650Y-128008163D01*
X109499308Y-127998238D01*
X109499312Y-127998237D01*
X109506166Y-127997526D01*
X109512702Y-127995345D01*
X109512704Y-127995345D01*
X109644806Y-127951272D01*
X109673946Y-127941550D01*
X109680179Y-127937693D01*
X109703132Y-127923490D01*
X109771584Y-127904653D01*
X109839353Y-127925815D01*
X109884923Y-127980257D01*
X109893826Y-128050693D01*
X109876693Y-128096749D01*
X109857885Y-128127262D01*
X109802203Y-128295139D01*
X109801503Y-128301975D01*
X109801502Y-128301978D01*
X109800668Y-128310116D01*
X109791500Y-128399600D01*
X109791500Y-129200400D01*
X109802474Y-129306166D01*
X109804655Y-129312702D01*
X109804655Y-129312704D01*
X109829859Y-129388249D01*
X109858450Y-129473946D01*
X109951522Y-129624348D01*
X110076697Y-129749305D01*
X110082927Y-129753145D01*
X110082928Y-129753146D01*
X110087753Y-129756120D01*
X110135246Y-129808892D01*
X110146670Y-129878964D01*
X110141470Y-129902316D01*
X110106458Y-130010072D01*
X110105768Y-130016633D01*
X110105768Y-130016635D01*
X110099745Y-130073946D01*
X110086496Y-130200000D01*
X110087186Y-130206565D01*
X110102551Y-130352751D01*
X110106458Y-130389928D01*
X110165473Y-130571556D01*
X110260960Y-130736944D01*
X110265378Y-130741851D01*
X110265379Y-130741852D01*
X110361386Y-130848479D01*
X110388747Y-130878866D01*
X110543248Y-130991118D01*
X110549276Y-130993802D01*
X110549278Y-130993803D01*
X110711681Y-131066109D01*
X110717712Y-131068794D01*
X110811112Y-131088647D01*
X110898056Y-131107128D01*
X110898061Y-131107128D01*
X110904513Y-131108500D01*
X111095487Y-131108500D01*
X111101939Y-131107128D01*
X111101944Y-131107128D01*
X111188888Y-131088647D01*
X111282288Y-131068794D01*
X111288319Y-131066109D01*
X111450722Y-130993803D01*
X111450724Y-130993802D01*
X111456752Y-130991118D01*
X111611253Y-130878866D01*
X111638614Y-130848479D01*
X111734621Y-130741852D01*
X111734622Y-130741851D01*
X111739040Y-130736944D01*
X111834527Y-130571556D01*
X111892002Y-130394669D01*
X112292001Y-130394669D01*
X112292371Y-130401490D01*
X112297895Y-130452352D01*
X112301521Y-130467604D01*
X112346676Y-130588054D01*
X112355214Y-130603649D01*
X112431715Y-130705724D01*
X112444276Y-130718285D01*
X112546351Y-130794786D01*
X112561946Y-130803324D01*
X112682394Y-130848478D01*
X112697649Y-130852105D01*
X112748514Y-130857631D01*
X112755328Y-130858000D01*
X113127885Y-130858000D01*
X113143124Y-130853525D01*
X113144329Y-130852135D01*
X113146000Y-130844452D01*
X113146000Y-130839884D01*
X113654000Y-130839884D01*
X113658475Y-130855123D01*
X113659865Y-130856328D01*
X113667548Y-130857999D01*
X114044669Y-130857999D01*
X114051490Y-130857629D01*
X114102352Y-130852105D01*
X114117604Y-130848479D01*
X114238054Y-130803324D01*
X114253649Y-130794786D01*
X114355724Y-130718285D01*
X114368285Y-130705724D01*
X114444786Y-130603649D01*
X114453324Y-130588054D01*
X114498478Y-130467606D01*
X114502105Y-130452351D01*
X114507631Y-130401486D01*
X114508000Y-130394672D01*
X114508000Y-130225167D01*
X114528002Y-130157046D01*
X114581658Y-130110553D01*
X114651932Y-130100449D01*
X114716512Y-130129943D01*
X114753833Y-130186231D01*
X114765473Y-130222055D01*
X114860960Y-130387443D01*
X114865378Y-130392350D01*
X114865379Y-130392351D01*
X114969509Y-130507999D01*
X114988747Y-130529365D01*
X115143248Y-130641617D01*
X115149276Y-130644301D01*
X115149278Y-130644302D01*
X115287235Y-130705724D01*
X115317712Y-130719293D01*
X115400753Y-130736944D01*
X115498056Y-130757627D01*
X115498061Y-130757627D01*
X115504513Y-130758999D01*
X115695487Y-130758999D01*
X115701939Y-130757627D01*
X115701944Y-130757627D01*
X115799247Y-130736944D01*
X115882288Y-130719293D01*
X115912765Y-130705724D01*
X116050722Y-130644302D01*
X116050724Y-130644301D01*
X116056752Y-130641617D01*
X116211253Y-130529365D01*
X116230491Y-130507999D01*
X116334621Y-130392351D01*
X116334622Y-130392350D01*
X116339040Y-130387443D01*
X116434527Y-130222055D01*
X116493542Y-130040427D01*
X116496733Y-130010072D01*
X116512814Y-129857064D01*
X116513504Y-129850499D01*
X116505088Y-129770424D01*
X116494232Y-129667134D01*
X116494232Y-129667132D01*
X116493542Y-129660571D01*
X116434527Y-129478943D01*
X116382165Y-129388249D01*
X116365427Y-129319253D01*
X116382165Y-129262249D01*
X116431223Y-129177279D01*
X116431224Y-129177278D01*
X116434527Y-129171556D01*
X116493542Y-128989928D01*
X116496676Y-128960116D01*
X116512814Y-128806565D01*
X116513504Y-128800000D01*
X116493542Y-128610072D01*
X116434527Y-128428444D01*
X116415998Y-128396350D01*
X116361673Y-128302257D01*
X116339040Y-128263056D01*
X116211253Y-128121134D01*
X116056752Y-128008882D01*
X116050724Y-128006198D01*
X116050722Y-128006197D01*
X115888319Y-127933891D01*
X115888318Y-127933891D01*
X115882288Y-127931206D01*
X115757367Y-127904653D01*
X115701944Y-127892872D01*
X115701939Y-127892872D01*
X115695487Y-127891500D01*
X115504513Y-127891500D01*
X115498061Y-127892872D01*
X115498056Y-127892872D01*
X115442633Y-127904653D01*
X115317712Y-127931206D01*
X115311682Y-127933891D01*
X115311681Y-127933891D01*
X115149278Y-128006197D01*
X115149276Y-128006198D01*
X115143248Y-128008882D01*
X114988747Y-128121134D01*
X114860960Y-128263056D01*
X114838327Y-128302257D01*
X114784003Y-128396350D01*
X114765473Y-128428444D01*
X114706458Y-128610072D01*
X114686496Y-128800000D01*
X114687186Y-128806565D01*
X114703325Y-128960116D01*
X114706458Y-128989928D01*
X114765473Y-129171556D01*
X114768776Y-129177278D01*
X114768777Y-129177279D01*
X114817835Y-129262250D01*
X114834573Y-129331246D01*
X114817835Y-129388249D01*
X114765473Y-129478943D01*
X114763431Y-129485228D01*
X114753832Y-129514770D01*
X114713758Y-129573376D01*
X114648362Y-129601013D01*
X114578405Y-129588906D01*
X114526099Y-129540900D01*
X114507999Y-129475834D01*
X114507999Y-129405331D01*
X114507629Y-129398510D01*
X114502105Y-129347648D01*
X114498479Y-129332396D01*
X114453324Y-129211946D01*
X114444786Y-129196351D01*
X114368285Y-129094276D01*
X114355724Y-129081715D01*
X114253649Y-129005214D01*
X114238054Y-128996676D01*
X114117606Y-128951522D01*
X114102351Y-128947895D01*
X114051486Y-128942369D01*
X114044672Y-128942000D01*
X113672115Y-128942000D01*
X113656876Y-128946475D01*
X113655671Y-128947865D01*
X113654000Y-128955548D01*
X113654000Y-130839884D01*
X113146000Y-130839884D01*
X113146000Y-130172115D01*
X113141525Y-130156876D01*
X113140135Y-130155671D01*
X113132452Y-130154000D01*
X112310116Y-130154000D01*
X112294877Y-130158475D01*
X112293672Y-130159865D01*
X112292001Y-130167548D01*
X112292001Y-130394669D01*
X111892002Y-130394669D01*
X111893542Y-130389928D01*
X111897450Y-130352751D01*
X111912814Y-130206565D01*
X111913504Y-130200000D01*
X111900255Y-130073946D01*
X111894232Y-130016635D01*
X111894232Y-130016633D01*
X111893542Y-130010072D01*
X111858488Y-129902188D01*
X111856460Y-129831222D01*
X111893122Y-129770424D01*
X111912018Y-129756108D01*
X111918128Y-129752327D01*
X111924348Y-129748478D01*
X112049305Y-129623303D01*
X112064331Y-129598927D01*
X112117103Y-129551433D01*
X112187174Y-129540009D01*
X112252298Y-129568283D01*
X112292487Y-129629543D01*
X112296475Y-129643124D01*
X112297865Y-129644329D01*
X112305548Y-129646000D01*
X113127885Y-129646000D01*
X113143124Y-129641525D01*
X113144329Y-129640135D01*
X113146000Y-129632452D01*
X113146000Y-128960116D01*
X113141525Y-128944877D01*
X113140135Y-128943672D01*
X113132452Y-128942001D01*
X112755331Y-128942001D01*
X112748510Y-128942371D01*
X112697648Y-128947895D01*
X112682396Y-128951521D01*
X112561946Y-128996676D01*
X112546351Y-129005214D01*
X112444276Y-129081715D01*
X112425365Y-129100626D01*
X112423236Y-129098497D01*
X112378474Y-129131970D01*
X112307656Y-129137000D01*
X112245360Y-129102944D01*
X112211366Y-129040615D01*
X112208500Y-129013893D01*
X112208500Y-128399600D01*
X112204618Y-128362184D01*
X112198238Y-128300692D01*
X112198237Y-128300688D01*
X112197526Y-128293834D01*
X112189166Y-128268774D01*
X112143868Y-128133002D01*
X112141550Y-128126054D01*
X112048478Y-127975652D01*
X111961891Y-127889216D01*
X111927812Y-127826934D01*
X111932815Y-127756114D01*
X111961736Y-127711025D01*
X112044134Y-127628483D01*
X112049305Y-127623303D01*
X112058632Y-127608172D01*
X112129389Y-127493384D01*
X112182162Y-127445890D01*
X112236649Y-127433500D01*
X112421768Y-127433500D01*
X112489889Y-127453502D01*
X112497333Y-127458674D01*
X112546108Y-127495229D01*
X112546110Y-127495230D01*
X112553295Y-127500615D01*
X112689684Y-127551745D01*
X112751866Y-127558500D01*
X114048134Y-127558500D01*
X114110316Y-127551745D01*
X114246705Y-127500615D01*
X114363261Y-127413261D01*
X114394868Y-127371088D01*
X114451727Y-127328573D01*
X114522546Y-127323547D01*
X114584712Y-127357480D01*
X114676697Y-127449305D01*
X114682927Y-127453145D01*
X114682928Y-127453146D01*
X114820090Y-127537694D01*
X114827262Y-127542115D01*
X114875549Y-127558131D01*
X114988611Y-127595632D01*
X114988613Y-127595632D01*
X114995139Y-127597797D01*
X115001975Y-127598497D01*
X115001978Y-127598498D01*
X115045031Y-127602909D01*
X115099600Y-127608500D01*
X115900400Y-127608500D01*
X115903646Y-127608163D01*
X115903650Y-127608163D01*
X115999308Y-127598238D01*
X115999312Y-127598237D01*
X116006166Y-127597526D01*
X116012702Y-127595345D01*
X116012704Y-127595345D01*
X116151703Y-127548971D01*
X116173946Y-127541550D01*
X116324348Y-127448478D01*
X116410784Y-127361891D01*
X116473066Y-127327812D01*
X116543886Y-127332815D01*
X116588975Y-127361736D01*
X116660864Y-127433500D01*
X116676697Y-127449305D01*
X116682927Y-127453145D01*
X116682928Y-127453146D01*
X116820090Y-127537694D01*
X116827262Y-127542115D01*
X116875549Y-127558131D01*
X116988611Y-127595632D01*
X116988613Y-127595632D01*
X116995139Y-127597797D01*
X117001975Y-127598497D01*
X117001978Y-127598498D01*
X117045031Y-127602909D01*
X117099600Y-127608500D01*
X117900400Y-127608500D01*
X117903646Y-127608163D01*
X117903650Y-127608163D01*
X117999308Y-127598238D01*
X117999312Y-127598237D01*
X118006166Y-127597526D01*
X118012702Y-127595345D01*
X118012704Y-127595345D01*
X118151703Y-127548971D01*
X118173946Y-127541550D01*
X118324348Y-127448478D01*
X118449305Y-127323303D01*
X118542115Y-127172738D01*
X118580014Y-127058475D01*
X118595632Y-127011389D01*
X118595632Y-127011387D01*
X118597797Y-127004861D01*
X118608500Y-126900400D01*
X118608500Y-126759500D01*
X118628502Y-126691379D01*
X118682158Y-126644886D01*
X118734500Y-126633500D01*
X119391800Y-126633500D01*
X119459921Y-126653502D01*
X119479147Y-126669843D01*
X119479420Y-126669540D01*
X119484332Y-126673963D01*
X119488747Y-126678866D01*
X119643248Y-126791118D01*
X119649276Y-126793802D01*
X119649278Y-126793803D01*
X119811681Y-126866109D01*
X119817712Y-126868794D01*
X119911112Y-126888647D01*
X119998056Y-126907128D01*
X119998061Y-126907128D01*
X120004513Y-126908500D01*
X120195487Y-126908500D01*
X120201939Y-126907128D01*
X120201944Y-126907128D01*
X120288888Y-126888647D01*
X120382288Y-126868794D01*
X120388319Y-126866109D01*
X120550722Y-126793803D01*
X120550724Y-126793802D01*
X120556752Y-126791118D01*
X120711253Y-126678866D01*
X120839040Y-126536944D01*
X120934527Y-126371556D01*
X120993542Y-126189928D01*
X121013504Y-126000000D01*
X121001232Y-125883240D01*
X120994232Y-125816635D01*
X120994232Y-125816633D01*
X120993542Y-125810072D01*
X120934527Y-125628444D01*
X120920793Y-125604655D01*
X120852042Y-125485576D01*
X120835304Y-125416581D01*
X120858524Y-125349489D01*
X120914331Y-125305602D01*
X120961267Y-125296576D01*
X122274106Y-125297684D01*
X122342210Y-125317744D01*
X122388658Y-125371438D01*
X122400000Y-125423684D01*
X122400000Y-133274000D01*
X122379998Y-133342121D01*
X122326342Y-133388614D01*
X122274000Y-133400000D01*
X105800000Y-133400000D01*
X105800000Y-137674000D01*
X105779998Y-137742121D01*
X105726342Y-137788614D01*
X105674000Y-137800000D01*
X100726000Y-137800000D01*
X100657879Y-137779998D01*
X100611386Y-137726342D01*
X100600000Y-137674000D01*
X100600000Y-130135368D01*
X100611806Y-130082117D01*
X100613274Y-130078970D01*
X100617115Y-130072738D01*
X100635724Y-130016635D01*
X100670632Y-129911389D01*
X100670632Y-129911387D01*
X100672797Y-129904861D01*
X100674963Y-129883722D01*
X100701806Y-129817996D01*
X100759921Y-129777215D01*
X100830859Y-129774327D01*
X100892097Y-129810250D01*
X100924192Y-129873578D01*
X100925634Y-129883566D01*
X100927256Y-129899205D01*
X100930149Y-129912600D01*
X100981588Y-130066784D01*
X100987761Y-130079962D01*
X101073063Y-130217807D01*
X101082099Y-130229208D01*
X101196829Y-130343739D01*
X101208240Y-130352751D01*
X101346243Y-130437816D01*
X101359424Y-130443963D01*
X101513710Y-130495138D01*
X101527086Y-130498005D01*
X101621438Y-130507672D01*
X101627854Y-130508000D01*
X101677885Y-130508000D01*
X101693124Y-130503525D01*
X101694329Y-130502135D01*
X101696000Y-130494452D01*
X101696000Y-130489884D01*
X102204000Y-130489884D01*
X102208475Y-130505123D01*
X102209865Y-130506328D01*
X102217548Y-130507999D01*
X102272095Y-130507999D01*
X102278614Y-130507662D01*
X102374206Y-130497743D01*
X102387600Y-130494851D01*
X102541784Y-130443412D01*
X102554962Y-130437239D01*
X102692807Y-130351937D01*
X102704208Y-130342901D01*
X102818739Y-130228171D01*
X102827751Y-130216760D01*
X102912816Y-130078757D01*
X102918963Y-130065576D01*
X102970138Y-129911290D01*
X102973005Y-129897914D01*
X102982672Y-129803562D01*
X102983000Y-129797146D01*
X102983000Y-129672115D01*
X102978525Y-129656876D01*
X102977135Y-129655671D01*
X102969452Y-129654000D01*
X102222115Y-129654000D01*
X102206876Y-129658475D01*
X102205671Y-129659865D01*
X102204000Y-129667548D01*
X102204000Y-130489884D01*
X101696000Y-130489884D01*
X101696000Y-129127885D01*
X102204000Y-129127885D01*
X102208475Y-129143124D01*
X102209865Y-129144329D01*
X102217548Y-129146000D01*
X102964884Y-129146000D01*
X102980123Y-129141525D01*
X102981328Y-129140135D01*
X102982999Y-129132452D01*
X102982999Y-129002905D01*
X102982662Y-128996386D01*
X102972743Y-128900794D01*
X102969851Y-128887400D01*
X102918412Y-128733216D01*
X102912239Y-128720038D01*
X102826937Y-128582193D01*
X102817901Y-128570792D01*
X102703171Y-128456261D01*
X102691760Y-128447249D01*
X102553757Y-128362184D01*
X102540576Y-128356037D01*
X102386290Y-128304862D01*
X102372914Y-128301995D01*
X102278562Y-128292328D01*
X102272145Y-128292000D01*
X102222115Y-128292000D01*
X102206876Y-128296475D01*
X102205671Y-128297865D01*
X102204000Y-128305548D01*
X102204000Y-129127885D01*
X101696000Y-129127885D01*
X101696000Y-128310116D01*
X101691525Y-128294877D01*
X101690135Y-128293672D01*
X101682452Y-128292001D01*
X101627905Y-128292001D01*
X101621386Y-128292338D01*
X101525794Y-128302257D01*
X101512400Y-128305149D01*
X101358216Y-128356588D01*
X101345038Y-128362761D01*
X101207193Y-128448063D01*
X101195792Y-128457099D01*
X101081261Y-128571829D01*
X101072249Y-128583240D01*
X100987184Y-128721243D01*
X100981037Y-128734424D01*
X100929862Y-128888710D01*
X100926995Y-128902087D01*
X100925542Y-128916267D01*
X100898703Y-128981995D01*
X100840589Y-129022778D01*
X100769651Y-129025668D01*
X100708412Y-128989748D01*
X100676314Y-128926421D01*
X100674871Y-128916433D01*
X100673237Y-128900691D01*
X100672526Y-128893834D01*
X100643411Y-128806565D01*
X100618867Y-128732998D01*
X100618866Y-128732996D01*
X100616550Y-128726054D01*
X100612697Y-128719828D01*
X100611899Y-128718124D01*
X100600000Y-128664673D01*
X100600000Y-127297095D01*
X105892001Y-127297095D01*
X105892338Y-127303614D01*
X105902257Y-127399206D01*
X105905149Y-127412600D01*
X105956588Y-127566784D01*
X105962761Y-127579962D01*
X106048063Y-127717807D01*
X106057099Y-127729208D01*
X106171829Y-127843739D01*
X106183240Y-127852751D01*
X106321243Y-127937816D01*
X106334424Y-127943963D01*
X106488710Y-127995138D01*
X106502086Y-127998005D01*
X106596438Y-128007672D01*
X106602854Y-128008000D01*
X106727885Y-128008000D01*
X106743124Y-128003525D01*
X106744329Y-128002135D01*
X106746000Y-127994452D01*
X106746000Y-127072115D01*
X106741525Y-127056876D01*
X106740135Y-127055671D01*
X106732452Y-127054000D01*
X105910116Y-127054000D01*
X105894877Y-127058475D01*
X105893672Y-127059865D01*
X105892001Y-127067548D01*
X105892001Y-127297095D01*
X100600000Y-127297095D01*
X100600000Y-126527885D01*
X105892000Y-126527885D01*
X105896475Y-126543124D01*
X105897865Y-126544329D01*
X105905548Y-126546000D01*
X106727885Y-126546000D01*
X106743124Y-126541525D01*
X106744329Y-126540135D01*
X106746000Y-126532452D01*
X106746000Y-125610116D01*
X106741525Y-125594877D01*
X106740135Y-125593672D01*
X106732452Y-125592001D01*
X106602905Y-125592001D01*
X106596386Y-125592338D01*
X106500794Y-125602257D01*
X106487400Y-125605149D01*
X106333216Y-125656588D01*
X106320038Y-125662761D01*
X106182193Y-125748063D01*
X106170792Y-125757099D01*
X106056261Y-125871829D01*
X106047249Y-125883240D01*
X105962184Y-126021243D01*
X105956037Y-126034424D01*
X105904862Y-126188710D01*
X105901995Y-126202086D01*
X105892328Y-126296438D01*
X105892000Y-126302855D01*
X105892000Y-126527885D01*
X100600000Y-126527885D01*
X100600000Y-125405499D01*
X100620002Y-125337378D01*
X100673658Y-125290885D01*
X100726105Y-125279499D01*
X110779460Y-125287983D01*
G37*
%TD.AperFunction*%
%TD*%
M02*
