%TF.GenerationSoftware,KiCad,Pcbnew,6.0.2+dfsg-1*%
%TF.CreationDate,2023-01-20T14:21:37-05:00*%
%TF.ProjectId,sensor-board,73656e73-6f72-42d6-926f-6172642e6b69,rev?*%
%TF.SameCoordinates,Original*%
%TF.FileFunction,Copper,L3,Inr*%
%TF.FilePolarity,Positive*%
%FSLAX46Y46*%
G04 Gerber Fmt 4.6, Leading zero omitted, Abs format (unit mm)*
G04 Created by KiCad (PCBNEW 6.0.2+dfsg-1) date 2023-01-20 14:21:37*
%MOMM*%
%LPD*%
G01*
G04 APERTURE LIST*
%TA.AperFunction,ComponentPad*%
%ADD10R,3.960000X1.980000*%
%TD*%
%TA.AperFunction,ComponentPad*%
%ADD11O,3.960000X1.980000*%
%TD*%
%TA.AperFunction,ComponentPad*%
%ADD12R,1.980000X3.960000*%
%TD*%
%TA.AperFunction,ComponentPad*%
%ADD13O,1.980000X3.960000*%
%TD*%
%TA.AperFunction,ViaPad*%
%ADD14C,0.800000*%
%TD*%
%TA.AperFunction,Conductor*%
%ADD15C,0.200000*%
%TD*%
%TA.AperFunction,Conductor*%
%ADD16C,0.250000*%
%TD*%
G04 APERTURE END LIST*
D10*
%TO.N,VIN+*%
%TO.C,J4*%
X82300000Y-141165000D03*
D11*
%TO.N,VIN-*%
X82300000Y-136165000D03*
%TD*%
D12*
%TO.N,+3V3*%
%TO.C,J3*%
X103000000Y-144250000D03*
D13*
%TO.N,DQ*%
X98000000Y-144250000D03*
%TO.N,GND*%
X93000000Y-144250000D03*
%TD*%
D14*
%TO.N,VIN+*%
X116900000Y-145400000D03*
%TO.N,VIN-*%
X116700000Y-144200000D03*
%TO.N,Net-(C4-Pad2)*%
X87300000Y-133800000D03*
%TO.N,A2*%
X129800000Y-146200000D03*
X124368369Y-140231631D03*
%TO.N,A1*%
X133400000Y-146000000D03*
X127300000Y-140600000D03*
%TO.N,A0*%
X133500000Y-147300000D03*
X128924937Y-142275063D03*
%TO.N,GND*%
X124700000Y-127400000D03*
%TO.N,SDA*%
X133510377Y-142606611D03*
%TO.N,SCL*%
X133400000Y-143600000D03*
%TO.N,GND*%
X123900000Y-149100000D03*
%TO.N,+3V3*%
X128500000Y-144700000D03*
%TO.N,Net-(R3-Pad2)*%
X133300000Y-144600000D03*
%TO.N,VIN+*%
X102300000Y-139900000D03*
%TO.N,VIN-*%
X104100000Y-139900000D03*
%TO.N,SCL*%
X85900000Y-141900000D03*
%TO.N,VIN-*%
X88100000Y-136200000D03*
%TO.N,Net-(C4-Pad1)*%
X80600000Y-139200000D03*
X80900000Y-143400000D03*
%TO.N,Net-(C4-Pad2)*%
X80900000Y-133800000D03*
%TO.N,VIN+*%
X91000000Y-141175500D03*
%TO.N,Net-(C4-Pad1)*%
X90912299Y-136387701D03*
%TO.N,+3V3*%
X110000000Y-139500000D03*
X85750000Y-143500000D03*
%TO.N,GND*%
X78000000Y-131000000D03*
X117500000Y-139250000D03*
X106250000Y-139250000D03*
X88250000Y-131000000D03*
X91400000Y-126000000D03*
X81500000Y-145724500D03*
X94250000Y-133250000D03*
%TO.N,Net-(C4-Pad1)*%
X90000000Y-132500000D03*
%TO.N,VIN+*%
X111000000Y-130200000D03*
%TO.N,GNDA*%
X116000000Y-132200000D03*
X102000000Y-128000000D03*
X105000000Y-130800000D03*
X110085493Y-125738744D03*
X118000000Y-126600000D03*
X109600000Y-131600000D03*
%TO.N,Net-(D3-Pad1)*%
X111800000Y-125600000D03*
%TO.N,SDA*%
X115600000Y-129850499D03*
X93000000Y-129500000D03*
X114750000Y-140500000D03*
X79050000Y-145050000D03*
X79750000Y-131500000D03*
X84500000Y-146000000D03*
%TO.N,SCL*%
X80750000Y-132000000D03*
X84250000Y-130750000D03*
X79250000Y-142500000D03*
X94000000Y-129500000D03*
X105750000Y-140750000D03*
X115600000Y-128800000D03*
%TO.N,DQ*%
X109250000Y-137750000D03*
%TO.N,Net-(JP2-Pad2)*%
X114500000Y-138000000D03*
X117750000Y-138000000D03*
%TO.N,PCTLZ*%
X112000000Y-139250000D03*
%TO.N,Net-(R12-Pad2)*%
X97000000Y-128000000D03*
X96400000Y-130800000D03*
%TD*%
D15*
%TO.N,VIN-*%
X108210741Y-144200000D02*
X116700000Y-144200000D01*
%TO.N,VIN+*%
X107800000Y-145400000D02*
X116900000Y-145400000D01*
D16*
%TO.N,SDA*%
X114750000Y-140500000D02*
X117250000Y-143000000D01*
X117250000Y-143000000D02*
X132975386Y-143000000D01*
X133241499Y-142875489D02*
X133510377Y-142606611D01*
X132975386Y-143000000D02*
X133099897Y-142875489D01*
X133099897Y-142875489D02*
X133241499Y-142875489D01*
%TO.N,SCL*%
X108600000Y-143600000D02*
X133400000Y-143600000D01*
X105750000Y-140750000D02*
X108600000Y-143600000D01*
X105750000Y-140750000D02*
X105525489Y-140525489D01*
X105525489Y-140525489D02*
X105525489Y-138874511D01*
X105525489Y-138874511D02*
X115600000Y-128800000D01*
D15*
%TO.N,VIN-*%
X104100000Y-140089259D02*
X108210741Y-144200000D01*
%TO.N,VIN+*%
X102300000Y-139900000D02*
X107800000Y-145400000D01*
X91000000Y-141175500D02*
X91074500Y-141250000D01*
X91074500Y-141250000D02*
X100950000Y-141250000D01*
X100950000Y-141250000D02*
X111000000Y-131200000D01*
X111000000Y-131200000D02*
X111000000Y-130200000D01*
X91000000Y-141175500D02*
X90989500Y-141165000D01*
X90989500Y-141165000D02*
X82300000Y-141165000D01*
D16*
%TO.N,SCL*%
X85900000Y-141900000D02*
X85124511Y-142675489D01*
X85124511Y-142675489D02*
X79425489Y-142675489D01*
X79425489Y-142675489D02*
X79250000Y-142500000D01*
%TO.N,Net-(C4-Pad1)*%
X80600000Y-139200000D02*
X88100000Y-139200000D01*
X88100000Y-139200000D02*
X90912299Y-136387701D01*
D15*
%TO.N,VIN-*%
X82300000Y-136165000D02*
X88085000Y-136165000D01*
%TO.N,Net-(C4-Pad1)*%
X90912299Y-136387701D02*
X90000000Y-135475402D01*
X90000000Y-135475402D02*
X90000000Y-132500000D01*
D16*
%TO.N,SDA*%
X115224511Y-140025489D02*
X115224511Y-130225988D01*
X82000000Y-129250000D02*
X92750000Y-129250000D01*
X92750000Y-129250000D02*
X93000000Y-129500000D01*
X115224511Y-130225988D02*
X115600000Y-129850499D01*
X114750000Y-140500000D02*
X115224511Y-140025489D01*
X79750000Y-131500000D02*
X82000000Y-129250000D01*
%TO.N,SCL*%
X84775489Y-130224511D02*
X93525489Y-130224511D01*
X84250000Y-130750000D02*
X83000000Y-132000000D01*
X83000000Y-132000000D02*
X80750000Y-132000000D01*
X84250000Y-130750000D02*
X84775489Y-130224511D01*
X93525489Y-130224511D02*
X94000000Y-129750000D01*
X94000000Y-129750000D02*
X94000000Y-129500000D01*
%TO.N,Net-(R12-Pad2)*%
X96400000Y-130800000D02*
X96400000Y-128600000D01*
X96400000Y-128600000D02*
X97000000Y-128000000D01*
%TD*%
M02*
