M48
; DRILL file {KiCad 6.0.2+dfsg-1} date Fri 20 Jan 2023 02:21:35 PM EST
; FORMAT={-:-/ absolute / inch / decimal}
; #@! TF.CreationDate,2023-01-20T14:21:35-05:00
; #@! TF.GenerationSoftware,Kicad,Pcbnew,6.0.2+dfsg-1
; #@! TF.FileFunction,Plated,1,4,PTH
FMAT,2
INCH
; #@! TA.AperFunction,Plated,PTH,ViaDrill
T1C0.0157
; #@! TA.AperFunction,Plated,PTH,ComponentDrill
T2C0.0520
%
G90
G05
T1
X3.0709Y-5.1575
X3.1122Y-5.7106
X3.1201Y-5.6102
X3.1398Y-5.1772
X3.1732Y-5.4803
X3.1791Y-5.1969
X3.185Y-5.2677
X3.185Y-5.6457
X3.2087Y-5.7372
X3.3169Y-5.1476
X3.3268Y-5.748
X3.376Y-5.6496
X3.3819Y-5.5866
X3.437Y-5.2677
X3.4685Y-5.3622
X3.4744Y-5.1575
X3.5433Y-5.2165
X3.5792Y-5.3696
X3.5827Y-5.5581
X3.5984Y-4.9606
X3.6614Y-5.0984
X3.7008Y-5.0984
X3.7106Y-5.2461
X3.7953Y-5.1496
X3.8189Y-5.0394
X4.0157Y-5.0394
X4.0276Y-5.5079
X4.0984Y-5.5079
X4.1339Y-5.1496
X4.1634Y-5.5413
X4.1831Y-5.4823
X4.3012Y-5.4232
X4.315Y-5.1811
X4.3307Y-5.4921
X4.3341Y-4.9503
X4.3701Y-5.126
X4.4016Y-4.9449
X4.4094Y-5.4823
X4.5079Y-5.4331
X4.5177Y-5.5315
X4.5512Y-5.0709
X4.5512Y-5.1122
X4.5669Y-5.2047
X4.5945Y-5.6772
X4.6024Y-5.7244
X4.626Y-5.4823
X4.6358Y-5.4331
X4.6457Y-4.9843
X4.878Y-5.8701
X4.8964Y-5.5209
X4.9094Y-5.0157
X5.0118Y-5.5354
X5.0591Y-5.6969
X5.0758Y-5.6014
X5.1102Y-5.7559
X5.248Y-5.6929
X5.252Y-5.6535
X5.252Y-5.748
X5.2559Y-5.7992
X5.2563Y-5.6144
T2
X3.2402Y-5.3608
X3.2402Y-5.5577
X3.6614Y-5.6791
X3.8583Y-5.6791
X4.0551Y-5.6791
T0
M30
