%TF.GenerationSoftware,KiCad,Pcbnew,(6.0.10)*%
%TF.CreationDate,2023-01-27T02:02:35-05:00*%
%TF.ProjectId,sensor-board,73656e73-6f72-42d6-926f-6172642e6b69,rev?*%
%TF.SameCoordinates,Original*%
%TF.FileFunction,Paste,Top*%
%TF.FilePolarity,Positive*%
%FSLAX46Y46*%
G04 Gerber Fmt 4.6, Leading zero omitted, Abs format (unit mm)*
G04 Created by KiCad (PCBNEW (6.0.10)) date 2023-01-27 02:02:35*
%MOMM*%
%LPD*%
G01*
G04 APERTURE LIST*
G04 Aperture macros list*
%AMRoundRect*
0 Rectangle with rounded corners*
0 $1 Rounding radius*
0 $2 $3 $4 $5 $6 $7 $8 $9 X,Y pos of 4 corners*
0 Add a 4 corners polygon primitive as box body*
4,1,4,$2,$3,$4,$5,$6,$7,$8,$9,$2,$3,0*
0 Add four circle primitives for the rounded corners*
1,1,$1+$1,$2,$3*
1,1,$1+$1,$4,$5*
1,1,$1+$1,$6,$7*
1,1,$1+$1,$8,$9*
0 Add four rect primitives between the rounded corners*
20,1,$1+$1,$2,$3,$4,$5,0*
20,1,$1+$1,$4,$5,$6,$7,0*
20,1,$1+$1,$6,$7,$8,$9,0*
20,1,$1+$1,$8,$9,$2,$3,0*%
G04 Aperture macros list end*
%ADD10C,0.100000*%
%ADD11RoundRect,0.250000X0.475000X-0.337500X0.475000X0.337500X-0.475000X0.337500X-0.475000X-0.337500X0*%
%ADD12RoundRect,0.250000X-0.475000X0.337500X-0.475000X-0.337500X0.475000X-0.337500X0.475000X0.337500X0*%
%ADD13RoundRect,0.250000X0.425000X-0.537500X0.425000X0.537500X-0.425000X0.537500X-0.425000X-0.537500X0*%
%ADD14RoundRect,0.250000X0.350000X0.450000X-0.350000X0.450000X-0.350000X-0.450000X0.350000X-0.450000X0*%
%ADD15RoundRect,0.250000X-0.450000X0.350000X-0.450000X-0.350000X0.450000X-0.350000X0.450000X0.350000X0*%
%ADD16R,0.650000X0.400000*%
%ADD17R,0.762000X0.304800*%
%ADD18R,0.304800X0.762000*%
%ADD19RoundRect,0.250000X-0.350000X-0.450000X0.350000X-0.450000X0.350000X0.450000X-0.350000X0.450000X0*%
%ADD20R,0.360000X0.250000*%
%ADD21R,0.609600X1.549400*%
%ADD22R,1.193800X1.803400*%
%ADD23R,1.120000X2.440000*%
%ADD24R,1.460500X0.533400*%
%ADD25R,1.409700X0.355600*%
%ADD26RoundRect,0.250000X-0.425000X0.537500X-0.425000X-0.537500X0.425000X-0.537500X0.425000X0.537500X0*%
%ADD27RoundRect,0.250000X0.337500X0.475000X-0.337500X0.475000X-0.337500X-0.475000X0.337500X-0.475000X0*%
%ADD28RoundRect,0.250000X0.450000X-0.350000X0.450000X0.350000X-0.450000X0.350000X-0.450000X-0.350000X0*%
%ADD29R,1.422400X0.431800*%
G04 APERTURE END LIST*
%TO.C,U5*%
G36*
X94265000Y-133035000D02*
G01*
X92788600Y-133035000D01*
X92788600Y-131558600D01*
X94265000Y-131558600D01*
X94265000Y-133035000D01*
G37*
D10*
X94265000Y-133035000D02*
X92788600Y-133035000D01*
X92788600Y-131558600D01*
X94265000Y-131558600D01*
X94265000Y-133035000D01*
G36*
X95941400Y-133035000D02*
G01*
X94465000Y-133035000D01*
X94465000Y-131558600D01*
X95941400Y-131558600D01*
X95941400Y-133035000D01*
G37*
X95941400Y-133035000D02*
X94465000Y-133035000D01*
X94465000Y-131558600D01*
X95941400Y-131558600D01*
X95941400Y-133035000D01*
G36*
X95941400Y-134711400D02*
G01*
X94465000Y-134711400D01*
X94465000Y-133235000D01*
X95941400Y-133235000D01*
X95941400Y-134711400D01*
G37*
X95941400Y-134711400D02*
X94465000Y-134711400D01*
X94465000Y-133235000D01*
X95941400Y-133235000D01*
X95941400Y-134711400D01*
G36*
X94265000Y-134711400D02*
G01*
X92788600Y-134711400D01*
X92788600Y-133235000D01*
X94265000Y-133235000D01*
X94265000Y-134711400D01*
G37*
X94265000Y-134711400D02*
X92788600Y-134711400D01*
X92788600Y-133235000D01*
X94265000Y-133235000D01*
X94265000Y-134711400D01*
%TD*%
D11*
%TO.C,C6*%
X91400000Y-129200000D03*
X91400000Y-127125000D03*
%TD*%
D12*
%TO.C,C2*%
X88750000Y-127500000D03*
X88750000Y-129575000D03*
%TD*%
D13*
%TO.C,C7*%
X102000000Y-132275000D03*
X102000000Y-129400000D03*
%TD*%
D14*
%TO.C,R7*%
X130800000Y-140600000D03*
X128800000Y-140600000D03*
%TD*%
D15*
%TO.C,R1*%
X84250000Y-127250000D03*
X84250000Y-129250000D03*
%TD*%
D16*
%TO.C,U4*%
X111050000Y-125750000D03*
X111050000Y-126400000D03*
X111050000Y-127050000D03*
X112950000Y-127050000D03*
X112950000Y-126400000D03*
X112950000Y-125750000D03*
%TD*%
D17*
%TO.C,U5*%
X91939300Y-131835000D03*
X91939300Y-132485001D03*
X91939300Y-133135000D03*
X91939300Y-133784999D03*
X91939300Y-134435000D03*
D18*
X93065000Y-135560700D03*
X93715001Y-135560700D03*
X94365000Y-135560700D03*
X95014999Y-135560700D03*
X95665000Y-135560700D03*
D17*
X96790700Y-134435000D03*
X96790700Y-133784999D03*
X96790700Y-133135000D03*
X96790700Y-132485001D03*
X96790700Y-131835000D03*
D18*
X95665000Y-130709300D03*
X95014999Y-130709300D03*
X94365000Y-130709300D03*
X93715001Y-130709300D03*
X93065000Y-130709300D03*
%TD*%
D19*
%TO.C,R12*%
X93600000Y-128000000D03*
X95600000Y-128000000D03*
%TD*%
D20*
%TO.C,D2*%
X119880000Y-144200000D03*
X120720000Y-144200000D03*
%TD*%
D21*
%TO.C,J2*%
X81049999Y-146975001D03*
X80049998Y-146975001D03*
X79050000Y-146975001D03*
X78049999Y-146975001D03*
D22*
X82349998Y-149500000D03*
X76750000Y-149500000D03*
%TD*%
D23*
%TO.C,SW1*%
X131240000Y-127395000D03*
X128700000Y-127395000D03*
X126160000Y-127395000D03*
X126160000Y-136005000D03*
X128700000Y-136005000D03*
X131240000Y-136005000D03*
%TD*%
D24*
%TO.C,U2*%
X107775850Y-136595000D03*
X107775850Y-137865000D03*
X107775850Y-139135000D03*
X107775850Y-140405000D03*
X113224150Y-140405000D03*
X113224150Y-139135000D03*
X113224150Y-137865000D03*
X113224150Y-136595000D03*
%TD*%
D25*
%TO.C,U3*%
X125847250Y-142275063D03*
X125847250Y-142925049D03*
X125847250Y-143575035D03*
X125847250Y-144225021D03*
X125847250Y-144875007D03*
X125847250Y-145524993D03*
X125847250Y-146174979D03*
X125847250Y-146824965D03*
X125847250Y-147474951D03*
X125847250Y-148124937D03*
X131752750Y-148124937D03*
X131752750Y-147474951D03*
X131752750Y-146824965D03*
X131752750Y-146174979D03*
X131752750Y-145524993D03*
X131752750Y-144875007D03*
X131752750Y-144225021D03*
X131752750Y-143575035D03*
X131752750Y-142925049D03*
X131752750Y-142275063D03*
%TD*%
D26*
%TO.C,C1*%
X86500000Y-127500000D03*
X86500000Y-130375000D03*
%TD*%
D27*
%TO.C,C3*%
X116600000Y-126400000D03*
X114525000Y-126400000D03*
%TD*%
D21*
%TO.C,J1*%
X77750000Y-129171600D03*
X78750001Y-129171600D03*
X79749999Y-129171600D03*
X80750000Y-129171600D03*
D22*
X76450001Y-126646601D03*
X82049999Y-126646601D03*
%TD*%
D28*
%TO.C,R14*%
X102000000Y-136400000D03*
X102000000Y-134400000D03*
%TD*%
D29*
%TO.C,U6*%
X109628300Y-128625001D03*
X109628300Y-129274999D03*
X109628300Y-129925001D03*
X109628300Y-130574999D03*
X113971700Y-130574999D03*
X113971700Y-129925001D03*
X113971700Y-129274999D03*
X113971700Y-128625001D03*
%TD*%
D27*
%TO.C,C5*%
X104075000Y-126800000D03*
X102000000Y-126800000D03*
%TD*%
D28*
%TO.C,R2*%
X84500000Y-149500000D03*
X84500000Y-147500000D03*
%TD*%
D14*
%TO.C,R5*%
X133300000Y-138600000D03*
X131300000Y-138600000D03*
%TD*%
D19*
%TO.C,R8*%
X124000000Y-138600000D03*
X126000000Y-138600000D03*
%TD*%
D14*
%TO.C,R13*%
X95600000Y-126000000D03*
X93600000Y-126000000D03*
%TD*%
D20*
%TO.C,D1*%
X119880000Y-145400000D03*
X120720000Y-145400000D03*
%TD*%
M02*
