%TF.GenerationSoftware,KiCad,Pcbnew,6.0.2+dfsg-1*%
%TF.CreationDate,2023-01-19T17:09:44-05:00*%
%TF.ProjectId,sensor-board,73656e73-6f72-42d6-926f-6172642e6b69,rev?*%
%TF.SameCoordinates,Original*%
%TF.FileFunction,Legend,Bot*%
%TF.FilePolarity,Positive*%
%FSLAX46Y46*%
G04 Gerber Fmt 4.6, Leading zero omitted, Abs format (unit mm)*
G04 Created by KiCad (PCBNEW 6.0.2+dfsg-1) date 2023-01-19 17:09:44*
%MOMM*%
%LPD*%
G01*
G04 APERTURE LIST*
%ADD10C,0.150000*%
%ADD11C,0.010000*%
%ADD12C,0.120000*%
G04 APERTURE END LIST*
D10*
X122200000Y-125000000D02*
X122200000Y-133000000D01*
X98600000Y-125000000D02*
X122200000Y-125000000D01*
X122200000Y-133000000D02*
X106200000Y-133000000D01*
X106200000Y-133000000D02*
X103200000Y-137200000D01*
X116750000Y-143250000D02*
X116750000Y-133500000D01*
X75500000Y-132250000D02*
X75500000Y-144500000D01*
X103200000Y-137200000D02*
X98400000Y-137200000D01*
X106250000Y-133500000D02*
X106250000Y-143250000D01*
X106250000Y-143250000D02*
X116750000Y-143250000D01*
X98400000Y-137200000D02*
X98600000Y-125000000D01*
X75500000Y-144500000D02*
X88250000Y-144500000D01*
X88250000Y-144500000D02*
X88250000Y-132250000D01*
X88250000Y-132250000D02*
X75500000Y-132250000D01*
X116750000Y-133500000D02*
X106250000Y-133500000D01*
X120833333Y-132166666D02*
X120833333Y-131690476D01*
X120547619Y-132261904D02*
X121547619Y-131928571D01*
X120547619Y-131595238D01*
X120547619Y-131261904D02*
X121547619Y-131261904D01*
X121547619Y-131023809D01*
X121500000Y-130880952D01*
X121404761Y-130785714D01*
X121309523Y-130738095D01*
X121119047Y-130690476D01*
X120976190Y-130690476D01*
X120785714Y-130738095D01*
X120690476Y-130785714D01*
X120595238Y-130880952D01*
X120547619Y-131023809D01*
X120547619Y-131261904D01*
X120642857Y-129690476D02*
X120595238Y-129738095D01*
X120547619Y-129880952D01*
X120547619Y-129976190D01*
X120595238Y-130119047D01*
X120690476Y-130214285D01*
X120785714Y-130261904D01*
X120976190Y-130309523D01*
X121119047Y-130309523D01*
X121309523Y-130261904D01*
X121404761Y-130214285D01*
X121500000Y-130119047D01*
X121547619Y-129976190D01*
X121547619Y-129880952D01*
X121500000Y-129738095D01*
X121452380Y-129690476D01*
X120547619Y-128357142D02*
X120595238Y-128452380D01*
X120642857Y-128500000D01*
X120738095Y-128547619D01*
X121023809Y-128547619D01*
X121119047Y-128500000D01*
X121166666Y-128452380D01*
X121214285Y-128357142D01*
X121214285Y-128214285D01*
X121166666Y-128119047D01*
X121119047Y-128071428D01*
X121023809Y-128023809D01*
X120738095Y-128023809D01*
X120642857Y-128071428D01*
X120595238Y-128119047D01*
X120547619Y-128214285D01*
X120547619Y-128357142D01*
X121214285Y-127595238D02*
X120547619Y-127595238D01*
X121119047Y-127595238D02*
X121166666Y-127547619D01*
X121214285Y-127452380D01*
X121214285Y-127309523D01*
X121166666Y-127214285D01*
X121071428Y-127166666D01*
X120547619Y-127166666D01*
X120547619Y-126547619D02*
X120595238Y-126642857D01*
X120690476Y-126690476D01*
X121547619Y-126690476D01*
X121214285Y-126261904D02*
X120547619Y-126023809D01*
X121214285Y-125785714D02*
X120547619Y-126023809D01*
X120309523Y-126119047D01*
X120261904Y-126166666D01*
X120214285Y-126261904D01*
X85047380Y-132547619D02*
X85047380Y-133119047D01*
X86047380Y-132833333D02*
X85047380Y-132833333D01*
X86047380Y-133452380D02*
X85047380Y-133452380D01*
X86047380Y-133880952D02*
X85523571Y-133880952D01*
X85428333Y-133833333D01*
X85380714Y-133738095D01*
X85380714Y-133595238D01*
X85428333Y-133500000D01*
X85475952Y-133452380D01*
X85999761Y-134738095D02*
X86047380Y-134642857D01*
X86047380Y-134452380D01*
X85999761Y-134357142D01*
X85904523Y-134309523D01*
X85523571Y-134309523D01*
X85428333Y-134357142D01*
X85380714Y-134452380D01*
X85380714Y-134642857D01*
X85428333Y-134738095D01*
X85523571Y-134785714D01*
X85618809Y-134785714D01*
X85714047Y-134309523D01*
X86047380Y-135214285D02*
X85380714Y-135214285D01*
X85571190Y-135214285D02*
X85475952Y-135261904D01*
X85428333Y-135309523D01*
X85380714Y-135404761D01*
X85380714Y-135500000D01*
X86047380Y-135833333D02*
X85380714Y-135833333D01*
X85475952Y-135833333D02*
X85428333Y-135880952D01*
X85380714Y-135976190D01*
X85380714Y-136119047D01*
X85428333Y-136214285D01*
X85523571Y-136261904D01*
X86047380Y-136261904D01*
X85523571Y-136261904D02*
X85428333Y-136309523D01*
X85380714Y-136404761D01*
X85380714Y-136547619D01*
X85428333Y-136642857D01*
X85523571Y-136690476D01*
X86047380Y-136690476D01*
X86047380Y-137309523D02*
X85999761Y-137214285D01*
X85952142Y-137166666D01*
X85856904Y-137119047D01*
X85571190Y-137119047D01*
X85475952Y-137166666D01*
X85428333Y-137214285D01*
X85380714Y-137309523D01*
X85380714Y-137452380D01*
X85428333Y-137547619D01*
X85475952Y-137595238D01*
X85571190Y-137642857D01*
X85856904Y-137642857D01*
X85952142Y-137595238D01*
X85999761Y-137547619D01*
X86047380Y-137452380D01*
X86047380Y-137309523D01*
X85999761Y-138500000D02*
X86047380Y-138404761D01*
X86047380Y-138214285D01*
X85999761Y-138119047D01*
X85952142Y-138071428D01*
X85856904Y-138023809D01*
X85571190Y-138023809D01*
X85475952Y-138071428D01*
X85428333Y-138119047D01*
X85380714Y-138214285D01*
X85380714Y-138404761D01*
X85428333Y-138500000D01*
X86047380Y-139071428D02*
X85999761Y-138976190D01*
X85952142Y-138928571D01*
X85856904Y-138880952D01*
X85571190Y-138880952D01*
X85475952Y-138928571D01*
X85428333Y-138976190D01*
X85380714Y-139071428D01*
X85380714Y-139214285D01*
X85428333Y-139309523D01*
X85475952Y-139357142D01*
X85571190Y-139404761D01*
X85856904Y-139404761D01*
X85952142Y-139357142D01*
X85999761Y-139309523D01*
X86047380Y-139214285D01*
X86047380Y-139071428D01*
X85380714Y-140261904D02*
X86047380Y-140261904D01*
X85380714Y-139833333D02*
X85904523Y-139833333D01*
X85999761Y-139880952D01*
X86047380Y-139976190D01*
X86047380Y-140119047D01*
X85999761Y-140214285D01*
X85952142Y-140261904D01*
X85380714Y-140738095D02*
X86380714Y-140738095D01*
X85428333Y-140738095D02*
X85380714Y-140833333D01*
X85380714Y-141023809D01*
X85428333Y-141119047D01*
X85475952Y-141166666D01*
X85571190Y-141214285D01*
X85856904Y-141214285D01*
X85952142Y-141166666D01*
X85999761Y-141119047D01*
X86047380Y-141023809D01*
X86047380Y-140833333D01*
X85999761Y-140738095D01*
X86047380Y-141785714D02*
X85999761Y-141690476D01*
X85904523Y-141642857D01*
X85047380Y-141642857D01*
X85999761Y-142547619D02*
X86047380Y-142452380D01*
X86047380Y-142261904D01*
X85999761Y-142166666D01*
X85904523Y-142119047D01*
X85523571Y-142119047D01*
X85428333Y-142166666D01*
X85380714Y-142261904D01*
X85380714Y-142452380D01*
X85428333Y-142547619D01*
X85523571Y-142595238D01*
X85618809Y-142595238D01*
X85714047Y-142119047D01*
X87657380Y-136833333D02*
X87609761Y-136738095D01*
X87562142Y-136690476D01*
X87466904Y-136642857D01*
X87181190Y-136642857D01*
X87085952Y-136690476D01*
X87038333Y-136738095D01*
X86990714Y-136833333D01*
X86990714Y-136976190D01*
X87038333Y-137071428D01*
X87085952Y-137119047D01*
X87181190Y-137166666D01*
X87466904Y-137166666D01*
X87562142Y-137119047D01*
X87609761Y-137071428D01*
X87657380Y-136976190D01*
X87657380Y-136833333D01*
X86990714Y-137595238D02*
X87657380Y-137595238D01*
X87085952Y-137595238D02*
X87038333Y-137642857D01*
X86990714Y-137738095D01*
X86990714Y-137880952D01*
X87038333Y-137976190D01*
X87133571Y-138023809D01*
X87657380Y-138023809D01*
X87657380Y-138642857D02*
X87609761Y-138547619D01*
X87514523Y-138500000D01*
X86657380Y-138500000D01*
X86990714Y-138928571D02*
X87657380Y-139166666D01*
X86990714Y-139404761D02*
X87657380Y-139166666D01*
X87895476Y-139071428D01*
X87943095Y-139023809D01*
X87990714Y-138928571D01*
X116409523Y-133747380D02*
X116219047Y-133747380D01*
X116123809Y-133795000D01*
X116028571Y-133890238D01*
X115980952Y-134080714D01*
X115980952Y-134414047D01*
X116028571Y-134604523D01*
X116123809Y-134699761D01*
X116219047Y-134747380D01*
X116409523Y-134747380D01*
X116504761Y-134699761D01*
X116600000Y-134604523D01*
X116647619Y-134414047D01*
X116647619Y-134080714D01*
X116600000Y-133890238D01*
X116504761Y-133795000D01*
X116409523Y-133747380D01*
X115123809Y-134080714D02*
X115123809Y-134747380D01*
X115552380Y-134080714D02*
X115552380Y-134604523D01*
X115504761Y-134699761D01*
X115409523Y-134747380D01*
X115266666Y-134747380D01*
X115171428Y-134699761D01*
X115123809Y-134652142D01*
X114790476Y-134080714D02*
X114409523Y-134080714D01*
X114647619Y-133747380D02*
X114647619Y-134604523D01*
X114600000Y-134699761D01*
X114504761Y-134747380D01*
X114409523Y-134747380D01*
X113647619Y-134747380D02*
X113647619Y-133747380D01*
X113647619Y-134699761D02*
X113742857Y-134747380D01*
X113933333Y-134747380D01*
X114028571Y-134699761D01*
X114076190Y-134652142D01*
X114123809Y-134556904D01*
X114123809Y-134271190D01*
X114076190Y-134175952D01*
X114028571Y-134128333D01*
X113933333Y-134080714D01*
X113742857Y-134080714D01*
X113647619Y-134128333D01*
X113028571Y-134747380D02*
X113123809Y-134699761D01*
X113171428Y-134652142D01*
X113219047Y-134556904D01*
X113219047Y-134271190D01*
X113171428Y-134175952D01*
X113123809Y-134128333D01*
X113028571Y-134080714D01*
X112885714Y-134080714D01*
X112790476Y-134128333D01*
X112742857Y-134175952D01*
X112695238Y-134271190D01*
X112695238Y-134556904D01*
X112742857Y-134652142D01*
X112790476Y-134699761D01*
X112885714Y-134747380D01*
X113028571Y-134747380D01*
X112123809Y-134747380D02*
X112219047Y-134699761D01*
X112266666Y-134652142D01*
X112314285Y-134556904D01*
X112314285Y-134271190D01*
X112266666Y-134175952D01*
X112219047Y-134128333D01*
X112123809Y-134080714D01*
X111980952Y-134080714D01*
X111885714Y-134128333D01*
X111838095Y-134175952D01*
X111790476Y-134271190D01*
X111790476Y-134556904D01*
X111838095Y-134652142D01*
X111885714Y-134699761D01*
X111980952Y-134747380D01*
X112123809Y-134747380D01*
X111361904Y-134747380D02*
X111361904Y-134080714D01*
X111361904Y-134271190D02*
X111314285Y-134175952D01*
X111266666Y-134128333D01*
X111171428Y-134080714D01*
X111076190Y-134080714D01*
X110123809Y-133747380D02*
X109552380Y-133747380D01*
X109838095Y-134747380D02*
X109838095Y-133747380D01*
X108838095Y-134699761D02*
X108933333Y-134747380D01*
X109123809Y-134747380D01*
X109219047Y-134699761D01*
X109266666Y-134604523D01*
X109266666Y-134223571D01*
X109219047Y-134128333D01*
X109123809Y-134080714D01*
X108933333Y-134080714D01*
X108838095Y-134128333D01*
X108790476Y-134223571D01*
X108790476Y-134318809D01*
X109266666Y-134414047D01*
X108361904Y-134747380D02*
X108361904Y-134080714D01*
X108361904Y-134175952D02*
X108314285Y-134128333D01*
X108219047Y-134080714D01*
X108076190Y-134080714D01*
X107980952Y-134128333D01*
X107933333Y-134223571D01*
X107933333Y-134747380D01*
X107933333Y-134223571D02*
X107885714Y-134128333D01*
X107790476Y-134080714D01*
X107647619Y-134080714D01*
X107552380Y-134128333D01*
X107504761Y-134223571D01*
X107504761Y-134747380D01*
X107028571Y-134080714D02*
X107028571Y-135080714D01*
X107028571Y-134128333D02*
X106933333Y-134080714D01*
X106742857Y-134080714D01*
X106647619Y-134128333D01*
X106600000Y-134175952D01*
X106552380Y-134271190D01*
X106552380Y-134556904D01*
X106600000Y-134652142D01*
X106647619Y-134699761D01*
X106742857Y-134747380D01*
X106933333Y-134747380D01*
X107028571Y-134699761D01*
X112790476Y-135357380D02*
X112600000Y-135357380D01*
X112504761Y-135405000D01*
X112409523Y-135500238D01*
X112361904Y-135690714D01*
X112361904Y-136024047D01*
X112409523Y-136214523D01*
X112504761Y-136309761D01*
X112600000Y-136357380D01*
X112790476Y-136357380D01*
X112885714Y-136309761D01*
X112980952Y-136214523D01*
X113028571Y-136024047D01*
X113028571Y-135690714D01*
X112980952Y-135500238D01*
X112885714Y-135405000D01*
X112790476Y-135357380D01*
X111933333Y-135690714D02*
X111933333Y-136357380D01*
X111933333Y-135785952D02*
X111885714Y-135738333D01*
X111790476Y-135690714D01*
X111647619Y-135690714D01*
X111552380Y-135738333D01*
X111504761Y-135833571D01*
X111504761Y-136357380D01*
X110885714Y-136357380D02*
X110980952Y-136309761D01*
X111028571Y-136214523D01*
X111028571Y-135357380D01*
X110600000Y-135690714D02*
X110361904Y-136357380D01*
X110123809Y-135690714D02*
X110361904Y-136357380D01*
X110457142Y-136595476D01*
X110504761Y-136643095D01*
X110600000Y-136690714D01*
%TO.C,R3*%
X112052380Y-131433333D02*
X111576190Y-131100000D01*
X112052380Y-130861904D02*
X111052380Y-130861904D01*
X111052380Y-131242857D01*
X111100000Y-131338095D01*
X111147619Y-131385714D01*
X111242857Y-131433333D01*
X111385714Y-131433333D01*
X111480952Y-131385714D01*
X111528571Y-131338095D01*
X111576190Y-131242857D01*
X111576190Y-130861904D01*
X111052380Y-131766666D02*
X111052380Y-132385714D01*
X111433333Y-132052380D01*
X111433333Y-132195238D01*
X111480952Y-132290476D01*
X111528571Y-132338095D01*
X111623809Y-132385714D01*
X111861904Y-132385714D01*
X111957142Y-132338095D01*
X112004761Y-132290476D01*
X112052380Y-132195238D01*
X112052380Y-131909523D01*
X112004761Y-131814285D01*
X111957142Y-131766666D01*
%TO.C,C3*%
X80537142Y-137833333D02*
X80584761Y-137785714D01*
X80632380Y-137642857D01*
X80632380Y-137547619D01*
X80584761Y-137404761D01*
X80489523Y-137309523D01*
X80394285Y-137261904D01*
X80203809Y-137214285D01*
X80060952Y-137214285D01*
X79870476Y-137261904D01*
X79775238Y-137309523D01*
X79680000Y-137404761D01*
X79632380Y-137547619D01*
X79632380Y-137642857D01*
X79680000Y-137785714D01*
X79727619Y-137833333D01*
X79632380Y-138166666D02*
X79632380Y-138785714D01*
X80013333Y-138452380D01*
X80013333Y-138595238D01*
X80060952Y-138690476D01*
X80108571Y-138738095D01*
X80203809Y-138785714D01*
X80441904Y-138785714D01*
X80537142Y-138738095D01*
X80584761Y-138690476D01*
X80632380Y-138595238D01*
X80632380Y-138309523D01*
X80584761Y-138214285D01*
X80537142Y-138166666D01*
%TO.C,R6*%
X77416666Y-143202380D02*
X77750000Y-142726190D01*
X77988095Y-143202380D02*
X77988095Y-142202380D01*
X77607142Y-142202380D01*
X77511904Y-142250000D01*
X77464285Y-142297619D01*
X77416666Y-142392857D01*
X77416666Y-142535714D01*
X77464285Y-142630952D01*
X77511904Y-142678571D01*
X77607142Y-142726190D01*
X77988095Y-142726190D01*
X76559523Y-142202380D02*
X76750000Y-142202380D01*
X76845238Y-142250000D01*
X76892857Y-142297619D01*
X76988095Y-142440476D01*
X77035714Y-142630952D01*
X77035714Y-143011904D01*
X76988095Y-143107142D01*
X76940476Y-143154761D01*
X76845238Y-143202380D01*
X76654761Y-143202380D01*
X76559523Y-143154761D01*
X76511904Y-143107142D01*
X76464285Y-143011904D01*
X76464285Y-142773809D01*
X76511904Y-142678571D01*
X76559523Y-142630952D01*
X76654761Y-142583333D01*
X76845238Y-142583333D01*
X76940476Y-142630952D01*
X76988095Y-142678571D01*
X77035714Y-142773809D01*
%TO.C,D1*%
X114252380Y-131061904D02*
X113252380Y-131061904D01*
X113252380Y-131300000D01*
X113300000Y-131442857D01*
X113395238Y-131538095D01*
X113490476Y-131585714D01*
X113680952Y-131633333D01*
X113823809Y-131633333D01*
X114014285Y-131585714D01*
X114109523Y-131538095D01*
X114204761Y-131442857D01*
X114252380Y-131300000D01*
X114252380Y-131061904D01*
X114252380Y-132585714D02*
X114252380Y-132014285D01*
X114252380Y-132300000D02*
X113252380Y-132300000D01*
X113395238Y-132204761D01*
X113490476Y-132109523D01*
X113538095Y-132014285D01*
%TO.C,R7*%
X81166666Y-135202380D02*
X81500000Y-134726190D01*
X81738095Y-135202380D02*
X81738095Y-134202380D01*
X81357142Y-134202380D01*
X81261904Y-134250000D01*
X81214285Y-134297619D01*
X81166666Y-134392857D01*
X81166666Y-134535714D01*
X81214285Y-134630952D01*
X81261904Y-134678571D01*
X81357142Y-134726190D01*
X81738095Y-134726190D01*
X80833333Y-134202380D02*
X80166666Y-134202380D01*
X80595238Y-135202380D01*
%TO.C,R5*%
X80666666Y-143952380D02*
X81000000Y-143476190D01*
X81238095Y-143952380D02*
X81238095Y-142952380D01*
X80857142Y-142952380D01*
X80761904Y-143000000D01*
X80714285Y-143047619D01*
X80666666Y-143142857D01*
X80666666Y-143285714D01*
X80714285Y-143380952D01*
X80761904Y-143428571D01*
X80857142Y-143476190D01*
X81238095Y-143476190D01*
X79761904Y-142952380D02*
X80238095Y-142952380D01*
X80285714Y-143428571D01*
X80238095Y-143380952D01*
X80142857Y-143333333D01*
X79904761Y-143333333D01*
X79809523Y-143380952D01*
X79761904Y-143428571D01*
X79714285Y-143523809D01*
X79714285Y-143761904D01*
X79761904Y-143857142D01*
X79809523Y-143904761D01*
X79904761Y-143952380D01*
X80142857Y-143952380D01*
X80238095Y-143904761D01*
X80285714Y-143857142D01*
%TO.C,Q1*%
X112997619Y-138217261D02*
X112950000Y-138122023D01*
X112854761Y-138026785D01*
X112711904Y-137883928D01*
X112664285Y-137788690D01*
X112664285Y-137693452D01*
X112902380Y-137741071D02*
X112854761Y-137645833D01*
X112759523Y-137550595D01*
X112569047Y-137502976D01*
X112235714Y-137502976D01*
X112045238Y-137550595D01*
X111950000Y-137645833D01*
X111902380Y-137741071D01*
X111902380Y-137931547D01*
X111950000Y-138026785D01*
X112045238Y-138122023D01*
X112235714Y-138169642D01*
X112569047Y-138169642D01*
X112759523Y-138122023D01*
X112854761Y-138026785D01*
X112902380Y-137931547D01*
X112902380Y-137741071D01*
X112902380Y-139122023D02*
X112902380Y-138550595D01*
X112902380Y-138836309D02*
X111902380Y-138836309D01*
X112045238Y-138741071D01*
X112140476Y-138645833D01*
X112188095Y-138550595D01*
%TO.C,R4*%
X107166666Y-129052380D02*
X107500000Y-128576190D01*
X107738095Y-129052380D02*
X107738095Y-128052380D01*
X107357142Y-128052380D01*
X107261904Y-128100000D01*
X107214285Y-128147619D01*
X107166666Y-128242857D01*
X107166666Y-128385714D01*
X107214285Y-128480952D01*
X107261904Y-128528571D01*
X107357142Y-128576190D01*
X107738095Y-128576190D01*
X106309523Y-128385714D02*
X106309523Y-129052380D01*
X106547619Y-128004761D02*
X106785714Y-128719047D01*
X106166666Y-128719047D01*
%TO.C,L1*%
X100966666Y-131402380D02*
X101442857Y-131402380D01*
X101442857Y-130402380D01*
X100109523Y-131402380D02*
X100680952Y-131402380D01*
X100395238Y-131402380D02*
X100395238Y-130402380D01*
X100490476Y-130545238D01*
X100585714Y-130640476D01*
X100680952Y-130688095D01*
D11*
%TO.C,REF\u002A\u002A*%
X109620167Y-149058663D02*
X109617952Y-149096850D01*
X109617952Y-149096850D02*
X109616216Y-149154886D01*
X109616216Y-149154886D02*
X109615101Y-149228180D01*
X109615101Y-149228180D02*
X109614743Y-149305055D01*
X109614743Y-149305055D02*
X109614743Y-149565196D01*
X109614743Y-149565196D02*
X109660674Y-149611127D01*
X109660674Y-149611127D02*
X109692325Y-149639429D01*
X109692325Y-149639429D02*
X109720110Y-149650893D01*
X109720110Y-149650893D02*
X109758085Y-149650168D01*
X109758085Y-149650168D02*
X109773160Y-149648321D01*
X109773160Y-149648321D02*
X109820274Y-149642948D01*
X109820274Y-149642948D02*
X109859244Y-149639869D01*
X109859244Y-149639869D02*
X109868743Y-149639585D01*
X109868743Y-149639585D02*
X109900767Y-149641445D01*
X109900767Y-149641445D02*
X109946568Y-149646114D01*
X109946568Y-149646114D02*
X109964326Y-149648321D01*
X109964326Y-149648321D02*
X110007943Y-149651735D01*
X110007943Y-149651735D02*
X110037255Y-149644320D01*
X110037255Y-149644320D02*
X110066320Y-149621427D01*
X110066320Y-149621427D02*
X110076812Y-149611127D01*
X110076812Y-149611127D02*
X110122743Y-149565196D01*
X110122743Y-149565196D02*
X110122743Y-149078602D01*
X110122743Y-149078602D02*
X110085774Y-149061758D01*
X110085774Y-149061758D02*
X110053941Y-149049282D01*
X110053941Y-149049282D02*
X110035317Y-149044914D01*
X110035317Y-149044914D02*
X110030542Y-149058718D01*
X110030542Y-149058718D02*
X110026079Y-149097286D01*
X110026079Y-149097286D02*
X110022225Y-149156356D01*
X110022225Y-149156356D02*
X110019278Y-149231663D01*
X110019278Y-149231663D02*
X110017857Y-149295286D01*
X110017857Y-149295286D02*
X110013886Y-149545657D01*
X110013886Y-149545657D02*
X109979241Y-149550556D01*
X109979241Y-149550556D02*
X109947732Y-149547131D01*
X109947732Y-149547131D02*
X109932292Y-149536041D01*
X109932292Y-149536041D02*
X109927977Y-149515308D01*
X109927977Y-149515308D02*
X109924292Y-149471145D01*
X109924292Y-149471145D02*
X109921531Y-149409146D01*
X109921531Y-149409146D02*
X109919988Y-149334909D01*
X109919988Y-149334909D02*
X109919765Y-149296706D01*
X109919765Y-149296706D02*
X109919543Y-149076783D01*
X109919543Y-149076783D02*
X109873834Y-149060849D01*
X109873834Y-149060849D02*
X109841482Y-149050015D01*
X109841482Y-149050015D02*
X109823885Y-149044962D01*
X109823885Y-149044962D02*
X109823377Y-149044914D01*
X109823377Y-149044914D02*
X109821612Y-149058648D01*
X109821612Y-149058648D02*
X109819671Y-149096730D01*
X109819671Y-149096730D02*
X109817718Y-149154482D01*
X109817718Y-149154482D02*
X109815916Y-149227227D01*
X109815916Y-149227227D02*
X109814657Y-149295286D01*
X109814657Y-149295286D02*
X109810686Y-149545657D01*
X109810686Y-149545657D02*
X109723600Y-149545657D01*
X109723600Y-149545657D02*
X109719604Y-149317240D01*
X109719604Y-149317240D02*
X109715608Y-149088822D01*
X109715608Y-149088822D02*
X109673153Y-149066868D01*
X109673153Y-149066868D02*
X109641808Y-149051793D01*
X109641808Y-149051793D02*
X109623256Y-149044951D01*
X109623256Y-149044951D02*
X109622721Y-149044914D01*
X109622721Y-149044914D02*
X109620167Y-149058663D01*
X109620167Y-149058663D02*
X109620167Y-149058663D01*
G36*
X110053941Y-149049282D02*
G01*
X110085774Y-149061758D01*
X110122743Y-149078602D01*
X110122743Y-149565196D01*
X110076812Y-149611127D01*
X110066320Y-149621427D01*
X110037255Y-149644320D01*
X110007943Y-149651735D01*
X109964326Y-149648321D01*
X109946568Y-149646114D01*
X109900767Y-149641445D01*
X109868743Y-149639585D01*
X109859244Y-149639869D01*
X109820274Y-149642948D01*
X109773160Y-149648321D01*
X109758085Y-149650168D01*
X109720110Y-149650893D01*
X109692325Y-149639429D01*
X109660674Y-149611127D01*
X109614743Y-149565196D01*
X109614743Y-149305055D01*
X109615101Y-149228180D01*
X109616216Y-149154886D01*
X109617952Y-149096850D01*
X109620167Y-149058663D01*
X109622721Y-149044914D01*
X109623256Y-149044951D01*
X109641808Y-149051793D01*
X109673153Y-149066868D01*
X109715608Y-149088822D01*
X109719604Y-149317240D01*
X109723600Y-149545657D01*
X109810686Y-149545657D01*
X109814657Y-149295286D01*
X109815916Y-149227227D01*
X109817718Y-149154482D01*
X109819671Y-149096730D01*
X109821612Y-149058648D01*
X109823377Y-149044914D01*
X109823885Y-149044962D01*
X109841482Y-149050015D01*
X109873834Y-149060849D01*
X109919543Y-149076783D01*
X109919765Y-149296706D01*
X109919988Y-149334909D01*
X109921531Y-149409146D01*
X109924292Y-149471145D01*
X109927977Y-149515308D01*
X109932292Y-149536041D01*
X109947732Y-149547131D01*
X109979241Y-149550556D01*
X110013886Y-149545657D01*
X110017857Y-149295286D01*
X110019278Y-149231663D01*
X110022225Y-149156356D01*
X110026079Y-149097286D01*
X110030542Y-149058718D01*
X110035317Y-149044914D01*
X110053941Y-149049282D01*
G37*
X110053941Y-149049282D02*
X110085774Y-149061758D01*
X110122743Y-149078602D01*
X110122743Y-149565196D01*
X110076812Y-149611127D01*
X110066320Y-149621427D01*
X110037255Y-149644320D01*
X110007943Y-149651735D01*
X109964326Y-149648321D01*
X109946568Y-149646114D01*
X109900767Y-149641445D01*
X109868743Y-149639585D01*
X109859244Y-149639869D01*
X109820274Y-149642948D01*
X109773160Y-149648321D01*
X109758085Y-149650168D01*
X109720110Y-149650893D01*
X109692325Y-149639429D01*
X109660674Y-149611127D01*
X109614743Y-149565196D01*
X109614743Y-149305055D01*
X109615101Y-149228180D01*
X109616216Y-149154886D01*
X109617952Y-149096850D01*
X109620167Y-149058663D01*
X109622721Y-149044914D01*
X109623256Y-149044951D01*
X109641808Y-149051793D01*
X109673153Y-149066868D01*
X109715608Y-149088822D01*
X109719604Y-149317240D01*
X109723600Y-149545657D01*
X109810686Y-149545657D01*
X109814657Y-149295286D01*
X109815916Y-149227227D01*
X109817718Y-149154482D01*
X109819671Y-149096730D01*
X109821612Y-149058648D01*
X109823377Y-149044914D01*
X109823885Y-149044962D01*
X109841482Y-149050015D01*
X109873834Y-149060849D01*
X109919543Y-149076783D01*
X109919765Y-149296706D01*
X109919988Y-149334909D01*
X109921531Y-149409146D01*
X109924292Y-149471145D01*
X109927977Y-149515308D01*
X109932292Y-149536041D01*
X109947732Y-149547131D01*
X109979241Y-149550556D01*
X110013886Y-149545657D01*
X110017857Y-149295286D01*
X110019278Y-149231663D01*
X110022225Y-149156356D01*
X110026079Y-149097286D01*
X110030542Y-149058718D01*
X110035317Y-149044914D01*
X110053941Y-149049282D01*
X114358885Y-149021962D02*
X114290855Y-149057733D01*
X114290855Y-149057733D02*
X114240649Y-149115301D01*
X114240649Y-149115301D02*
X114222815Y-149152312D01*
X114222815Y-149152312D02*
X114208937Y-149207882D01*
X114208937Y-149207882D02*
X114201833Y-149278096D01*
X114201833Y-149278096D02*
X114201160Y-149354727D01*
X114201160Y-149354727D02*
X114206573Y-149429552D01*
X114206573Y-149429552D02*
X114217730Y-149494342D01*
X114217730Y-149494342D02*
X114234286Y-149540873D01*
X114234286Y-149540873D02*
X114239374Y-149548887D01*
X114239374Y-149548887D02*
X114299645Y-149608707D01*
X114299645Y-149608707D02*
X114371231Y-149644535D01*
X114371231Y-149644535D02*
X114448908Y-149655020D01*
X114448908Y-149655020D02*
X114527452Y-149638810D01*
X114527452Y-149638810D02*
X114549311Y-149629092D01*
X114549311Y-149629092D02*
X114591878Y-149599143D01*
X114591878Y-149599143D02*
X114629237Y-149559433D01*
X114629237Y-149559433D02*
X114632768Y-149554397D01*
X114632768Y-149554397D02*
X114647119Y-149530124D01*
X114647119Y-149530124D02*
X114656606Y-149504178D01*
X114656606Y-149504178D02*
X114662210Y-149470022D01*
X114662210Y-149470022D02*
X114664914Y-149421119D01*
X114664914Y-149421119D02*
X114665701Y-149350935D01*
X114665701Y-149350935D02*
X114665714Y-149335200D01*
X114665714Y-149335200D02*
X114665678Y-149330192D01*
X114665678Y-149330192D02*
X114520571Y-149330192D01*
X114520571Y-149330192D02*
X114519727Y-149396430D01*
X114519727Y-149396430D02*
X114516404Y-149440386D01*
X114516404Y-149440386D02*
X114509417Y-149468779D01*
X114509417Y-149468779D02*
X114497584Y-149488325D01*
X114497584Y-149488325D02*
X114491543Y-149494857D01*
X114491543Y-149494857D02*
X114456814Y-149519680D01*
X114456814Y-149519680D02*
X114423097Y-149518548D01*
X114423097Y-149518548D02*
X114389005Y-149497016D01*
X114389005Y-149497016D02*
X114368671Y-149474029D01*
X114368671Y-149474029D02*
X114356629Y-149440478D01*
X114356629Y-149440478D02*
X114349866Y-149387569D01*
X114349866Y-149387569D02*
X114349402Y-149381399D01*
X114349402Y-149381399D02*
X114348248Y-149285513D01*
X114348248Y-149285513D02*
X114360312Y-149214299D01*
X114360312Y-149214299D02*
X114385430Y-149168194D01*
X114385430Y-149168194D02*
X114423440Y-149147635D01*
X114423440Y-149147635D02*
X114437008Y-149146514D01*
X114437008Y-149146514D02*
X114472636Y-149152152D01*
X114472636Y-149152152D02*
X114497006Y-149171686D01*
X114497006Y-149171686D02*
X114511907Y-149209042D01*
X114511907Y-149209042D02*
X114519125Y-149268150D01*
X114519125Y-149268150D02*
X114520571Y-149330192D01*
X114520571Y-149330192D02*
X114665678Y-149330192D01*
X114665678Y-149330192D02*
X114665174Y-149260413D01*
X114665174Y-149260413D02*
X114662904Y-149208159D01*
X114662904Y-149208159D02*
X114657932Y-149171949D01*
X114657932Y-149171949D02*
X114649287Y-149145299D01*
X114649287Y-149145299D02*
X114635995Y-149121722D01*
X114635995Y-149121722D02*
X114633057Y-149117338D01*
X114633057Y-149117338D02*
X114583687Y-149058249D01*
X114583687Y-149058249D02*
X114529891Y-149023947D01*
X114529891Y-149023947D02*
X114464398Y-149010331D01*
X114464398Y-149010331D02*
X114442158Y-149009665D01*
X114442158Y-149009665D02*
X114358885Y-149021962D01*
X114358885Y-149021962D02*
X114358885Y-149021962D01*
G36*
X114665701Y-149350935D02*
G01*
X114664914Y-149421119D01*
X114662210Y-149470022D01*
X114656606Y-149504178D01*
X114647119Y-149530124D01*
X114632768Y-149554397D01*
X114629237Y-149559433D01*
X114591878Y-149599143D01*
X114549311Y-149629092D01*
X114527452Y-149638810D01*
X114448908Y-149655020D01*
X114371231Y-149644535D01*
X114299645Y-149608707D01*
X114239374Y-149548887D01*
X114234286Y-149540873D01*
X114217730Y-149494342D01*
X114206573Y-149429552D01*
X114201160Y-149354727D01*
X114201768Y-149285513D01*
X114348248Y-149285513D01*
X114349402Y-149381399D01*
X114349866Y-149387569D01*
X114356629Y-149440478D01*
X114368671Y-149474029D01*
X114389005Y-149497016D01*
X114423097Y-149518548D01*
X114456814Y-149519680D01*
X114491543Y-149494857D01*
X114497584Y-149488325D01*
X114509417Y-149468779D01*
X114516404Y-149440386D01*
X114519727Y-149396430D01*
X114520571Y-149330192D01*
X114519125Y-149268150D01*
X114511907Y-149209042D01*
X114497006Y-149171686D01*
X114472636Y-149152152D01*
X114437008Y-149146514D01*
X114423440Y-149147635D01*
X114385430Y-149168194D01*
X114360312Y-149214299D01*
X114348248Y-149285513D01*
X114201768Y-149285513D01*
X114201833Y-149278096D01*
X114208937Y-149207882D01*
X114222815Y-149152312D01*
X114240649Y-149115301D01*
X114290855Y-149057733D01*
X114358885Y-149021962D01*
X114442158Y-149009665D01*
X114464398Y-149010331D01*
X114529891Y-149023947D01*
X114583687Y-149058249D01*
X114633057Y-149117338D01*
X114635995Y-149121722D01*
X114649287Y-149145299D01*
X114657932Y-149171949D01*
X114662904Y-149208159D01*
X114665174Y-149260413D01*
X114665678Y-149330192D01*
X114665714Y-149335200D01*
X114665701Y-149350935D01*
G37*
X114665701Y-149350935D02*
X114664914Y-149421119D01*
X114662210Y-149470022D01*
X114656606Y-149504178D01*
X114647119Y-149530124D01*
X114632768Y-149554397D01*
X114629237Y-149559433D01*
X114591878Y-149599143D01*
X114549311Y-149629092D01*
X114527452Y-149638810D01*
X114448908Y-149655020D01*
X114371231Y-149644535D01*
X114299645Y-149608707D01*
X114239374Y-149548887D01*
X114234286Y-149540873D01*
X114217730Y-149494342D01*
X114206573Y-149429552D01*
X114201160Y-149354727D01*
X114201768Y-149285513D01*
X114348248Y-149285513D01*
X114349402Y-149381399D01*
X114349866Y-149387569D01*
X114356629Y-149440478D01*
X114368671Y-149474029D01*
X114389005Y-149497016D01*
X114423097Y-149518548D01*
X114456814Y-149519680D01*
X114491543Y-149494857D01*
X114497584Y-149488325D01*
X114509417Y-149468779D01*
X114516404Y-149440386D01*
X114519727Y-149396430D01*
X114520571Y-149330192D01*
X114519125Y-149268150D01*
X114511907Y-149209042D01*
X114497006Y-149171686D01*
X114472636Y-149152152D01*
X114437008Y-149146514D01*
X114423440Y-149147635D01*
X114385430Y-149168194D01*
X114360312Y-149214299D01*
X114348248Y-149285513D01*
X114201768Y-149285513D01*
X114201833Y-149278096D01*
X114208937Y-149207882D01*
X114222815Y-149152312D01*
X114240649Y-149115301D01*
X114290855Y-149057733D01*
X114358885Y-149021962D01*
X114442158Y-149009665D01*
X114464398Y-149010331D01*
X114529891Y-149023947D01*
X114583687Y-149058249D01*
X114633057Y-149117338D01*
X114635995Y-149121722D01*
X114649287Y-149145299D01*
X114657932Y-149171949D01*
X114662904Y-149208159D01*
X114665174Y-149260413D01*
X114665678Y-149330192D01*
X114665714Y-149335200D01*
X114665701Y-149350935D01*
X108246405Y-149066966D02*
X108188979Y-149104497D01*
X108188979Y-149104497D02*
X108161281Y-149138096D01*
X108161281Y-149138096D02*
X108139338Y-149199064D01*
X108139338Y-149199064D02*
X108137595Y-149247308D01*
X108137595Y-149247308D02*
X108141543Y-149311816D01*
X108141543Y-149311816D02*
X108290314Y-149376934D01*
X108290314Y-149376934D02*
X108362651Y-149410202D01*
X108362651Y-149410202D02*
X108409916Y-149436964D01*
X108409916Y-149436964D02*
X108434493Y-149460144D01*
X108434493Y-149460144D02*
X108438763Y-149482667D01*
X108438763Y-149482667D02*
X108425111Y-149507455D01*
X108425111Y-149507455D02*
X108410057Y-149523886D01*
X108410057Y-149523886D02*
X108366254Y-149550235D01*
X108366254Y-149550235D02*
X108318611Y-149552081D01*
X108318611Y-149552081D02*
X108274855Y-149531546D01*
X108274855Y-149531546D02*
X108242711Y-149490752D01*
X108242711Y-149490752D02*
X108236962Y-149476347D01*
X108236962Y-149476347D02*
X108209424Y-149431356D01*
X108209424Y-149431356D02*
X108177742Y-149412182D01*
X108177742Y-149412182D02*
X108134286Y-149395779D01*
X108134286Y-149395779D02*
X108134286Y-149457966D01*
X108134286Y-149457966D02*
X108138128Y-149500283D01*
X108138128Y-149500283D02*
X108153177Y-149535969D01*
X108153177Y-149535969D02*
X108184720Y-149576943D01*
X108184720Y-149576943D02*
X108189408Y-149582267D01*
X108189408Y-149582267D02*
X108224494Y-149618720D01*
X108224494Y-149618720D02*
X108254653Y-149638283D01*
X108254653Y-149638283D02*
X108292385Y-149647283D01*
X108292385Y-149647283D02*
X108323665Y-149650230D01*
X108323665Y-149650230D02*
X108379615Y-149650965D01*
X108379615Y-149650965D02*
X108419445Y-149641660D01*
X108419445Y-149641660D02*
X108444292Y-149627846D01*
X108444292Y-149627846D02*
X108483344Y-149597467D01*
X108483344Y-149597467D02*
X108510375Y-149564613D01*
X108510375Y-149564613D02*
X108527483Y-149523294D01*
X108527483Y-149523294D02*
X108536762Y-149467521D01*
X108536762Y-149467521D02*
X108540307Y-149391305D01*
X108540307Y-149391305D02*
X108540590Y-149352622D01*
X108540590Y-149352622D02*
X108539628Y-149306247D01*
X108539628Y-149306247D02*
X108451993Y-149306247D01*
X108451993Y-149306247D02*
X108450977Y-149331126D01*
X108450977Y-149331126D02*
X108448444Y-149335200D01*
X108448444Y-149335200D02*
X108431726Y-149329665D01*
X108431726Y-149329665D02*
X108395751Y-149315017D01*
X108395751Y-149315017D02*
X108347669Y-149294190D01*
X108347669Y-149294190D02*
X108337614Y-149289714D01*
X108337614Y-149289714D02*
X108276848Y-149258814D01*
X108276848Y-149258814D02*
X108243368Y-149231657D01*
X108243368Y-149231657D02*
X108236010Y-149206220D01*
X108236010Y-149206220D02*
X108253609Y-149180481D01*
X108253609Y-149180481D02*
X108268144Y-149169109D01*
X108268144Y-149169109D02*
X108320590Y-149146364D01*
X108320590Y-149146364D02*
X108369678Y-149150122D01*
X108369678Y-149150122D02*
X108410773Y-149177884D01*
X108410773Y-149177884D02*
X108439242Y-149227152D01*
X108439242Y-149227152D02*
X108448369Y-149266257D01*
X108448369Y-149266257D02*
X108451993Y-149306247D01*
X108451993Y-149306247D02*
X108539628Y-149306247D01*
X108539628Y-149306247D02*
X108538715Y-149262249D01*
X108538715Y-149262249D02*
X108531804Y-149195384D01*
X108531804Y-149195384D02*
X108518116Y-149146695D01*
X108518116Y-149146695D02*
X108495904Y-149110849D01*
X108495904Y-149110849D02*
X108463426Y-149082513D01*
X108463426Y-149082513D02*
X108449267Y-149073355D01*
X108449267Y-149073355D02*
X108384947Y-149049507D01*
X108384947Y-149049507D02*
X108314527Y-149048006D01*
X108314527Y-149048006D02*
X108246405Y-149066966D01*
X108246405Y-149066966D02*
X108246405Y-149066966D01*
G36*
X108540307Y-149391305D02*
G01*
X108536762Y-149467521D01*
X108527483Y-149523294D01*
X108510375Y-149564613D01*
X108483344Y-149597467D01*
X108444292Y-149627846D01*
X108419445Y-149641660D01*
X108379615Y-149650965D01*
X108323665Y-149650230D01*
X108292385Y-149647283D01*
X108254653Y-149638283D01*
X108224494Y-149618720D01*
X108189408Y-149582267D01*
X108184720Y-149576943D01*
X108153177Y-149535969D01*
X108138128Y-149500283D01*
X108134286Y-149457966D01*
X108134286Y-149395779D01*
X108177742Y-149412182D01*
X108209424Y-149431356D01*
X108236962Y-149476347D01*
X108242711Y-149490752D01*
X108274855Y-149531546D01*
X108318611Y-149552081D01*
X108366254Y-149550235D01*
X108410057Y-149523886D01*
X108425111Y-149507455D01*
X108438763Y-149482667D01*
X108434493Y-149460144D01*
X108409916Y-149436964D01*
X108362651Y-149410202D01*
X108290314Y-149376934D01*
X108141543Y-149311816D01*
X108137595Y-149247308D01*
X108139079Y-149206220D01*
X108236010Y-149206220D01*
X108243368Y-149231657D01*
X108276848Y-149258814D01*
X108337614Y-149289714D01*
X108347669Y-149294190D01*
X108395751Y-149315017D01*
X108431726Y-149329665D01*
X108448444Y-149335200D01*
X108450977Y-149331126D01*
X108451993Y-149306247D01*
X108448369Y-149266257D01*
X108439242Y-149227152D01*
X108410773Y-149177884D01*
X108369678Y-149150122D01*
X108320590Y-149146364D01*
X108268144Y-149169109D01*
X108253609Y-149180481D01*
X108236010Y-149206220D01*
X108139079Y-149206220D01*
X108139338Y-149199064D01*
X108161281Y-149138096D01*
X108188979Y-149104497D01*
X108246405Y-149066966D01*
X108314527Y-149048006D01*
X108384947Y-149049507D01*
X108449267Y-149073355D01*
X108463426Y-149082513D01*
X108495904Y-149110849D01*
X108518116Y-149146695D01*
X108531804Y-149195384D01*
X108538715Y-149262249D01*
X108539628Y-149306247D01*
X108540590Y-149352622D01*
X108540307Y-149391305D01*
G37*
X108540307Y-149391305D02*
X108536762Y-149467521D01*
X108527483Y-149523294D01*
X108510375Y-149564613D01*
X108483344Y-149597467D01*
X108444292Y-149627846D01*
X108419445Y-149641660D01*
X108379615Y-149650965D01*
X108323665Y-149650230D01*
X108292385Y-149647283D01*
X108254653Y-149638283D01*
X108224494Y-149618720D01*
X108189408Y-149582267D01*
X108184720Y-149576943D01*
X108153177Y-149535969D01*
X108138128Y-149500283D01*
X108134286Y-149457966D01*
X108134286Y-149395779D01*
X108177742Y-149412182D01*
X108209424Y-149431356D01*
X108236962Y-149476347D01*
X108242711Y-149490752D01*
X108274855Y-149531546D01*
X108318611Y-149552081D01*
X108366254Y-149550235D01*
X108410057Y-149523886D01*
X108425111Y-149507455D01*
X108438763Y-149482667D01*
X108434493Y-149460144D01*
X108409916Y-149436964D01*
X108362651Y-149410202D01*
X108290314Y-149376934D01*
X108141543Y-149311816D01*
X108137595Y-149247308D01*
X108139079Y-149206220D01*
X108236010Y-149206220D01*
X108243368Y-149231657D01*
X108276848Y-149258814D01*
X108337614Y-149289714D01*
X108347669Y-149294190D01*
X108395751Y-149315017D01*
X108431726Y-149329665D01*
X108448444Y-149335200D01*
X108450977Y-149331126D01*
X108451993Y-149306247D01*
X108448369Y-149266257D01*
X108439242Y-149227152D01*
X108410773Y-149177884D01*
X108369678Y-149150122D01*
X108320590Y-149146364D01*
X108268144Y-149169109D01*
X108253609Y-149180481D01*
X108236010Y-149206220D01*
X108139079Y-149206220D01*
X108139338Y-149199064D01*
X108161281Y-149138096D01*
X108188979Y-149104497D01*
X108246405Y-149066966D01*
X108314527Y-149048006D01*
X108384947Y-149049507D01*
X108449267Y-149073355D01*
X108463426Y-149082513D01*
X108495904Y-149110849D01*
X108518116Y-149146695D01*
X108531804Y-149195384D01*
X108538715Y-149262249D01*
X108539628Y-149306247D01*
X108540590Y-149352622D01*
X108540307Y-149391305D01*
X112683907Y-149027780D02*
X112637328Y-149054723D01*
X112637328Y-149054723D02*
X112604943Y-149081466D01*
X112604943Y-149081466D02*
X112581258Y-149109484D01*
X112581258Y-149109484D02*
X112564941Y-149143748D01*
X112564941Y-149143748D02*
X112554661Y-149189227D01*
X112554661Y-149189227D02*
X112549086Y-149250892D01*
X112549086Y-149250892D02*
X112546884Y-149333711D01*
X112546884Y-149333711D02*
X112546629Y-149393246D01*
X112546629Y-149393246D02*
X112546629Y-149612391D01*
X112546629Y-149612391D02*
X112608314Y-149640044D01*
X112608314Y-149640044D02*
X112670000Y-149667697D01*
X112670000Y-149667697D02*
X112677257Y-149427670D01*
X112677257Y-149427670D02*
X112680256Y-149338028D01*
X112680256Y-149338028D02*
X112683402Y-149272962D01*
X112683402Y-149272962D02*
X112687299Y-149228026D01*
X112687299Y-149228026D02*
X112692553Y-149198770D01*
X112692553Y-149198770D02*
X112699769Y-149180748D01*
X112699769Y-149180748D02*
X112709550Y-149169511D01*
X112709550Y-149169511D02*
X112712688Y-149167079D01*
X112712688Y-149167079D02*
X112760239Y-149148083D01*
X112760239Y-149148083D02*
X112808303Y-149155600D01*
X112808303Y-149155600D02*
X112836914Y-149175543D01*
X112836914Y-149175543D02*
X112848553Y-149189675D01*
X112848553Y-149189675D02*
X112856609Y-149208220D01*
X112856609Y-149208220D02*
X112861729Y-149236334D01*
X112861729Y-149236334D02*
X112864559Y-149279173D01*
X112864559Y-149279173D02*
X112865744Y-149341895D01*
X112865744Y-149341895D02*
X112865943Y-149407261D01*
X112865943Y-149407261D02*
X112865982Y-149489268D01*
X112865982Y-149489268D02*
X112867386Y-149547316D01*
X112867386Y-149547316D02*
X112872086Y-149586465D01*
X112872086Y-149586465D02*
X112882013Y-149611780D01*
X112882013Y-149611780D02*
X112899097Y-149628323D01*
X112899097Y-149628323D02*
X112925268Y-149641156D01*
X112925268Y-149641156D02*
X112960225Y-149654491D01*
X112960225Y-149654491D02*
X112998404Y-149669007D01*
X112998404Y-149669007D02*
X112993859Y-149411389D01*
X112993859Y-149411389D02*
X112992029Y-149318519D01*
X112992029Y-149318519D02*
X112989888Y-149249889D01*
X112989888Y-149249889D02*
X112986819Y-149200711D01*
X112986819Y-149200711D02*
X112982206Y-149166198D01*
X112982206Y-149166198D02*
X112975432Y-149141562D01*
X112975432Y-149141562D02*
X112965881Y-149122016D01*
X112965881Y-149122016D02*
X112954366Y-149104770D01*
X112954366Y-149104770D02*
X112898810Y-149049680D01*
X112898810Y-149049680D02*
X112831020Y-149017822D01*
X112831020Y-149017822D02*
X112757287Y-149010191D01*
X112757287Y-149010191D02*
X112683907Y-149027780D01*
X112683907Y-149027780D02*
X112683907Y-149027780D01*
G36*
X112831020Y-149017822D02*
G01*
X112898810Y-149049680D01*
X112954366Y-149104770D01*
X112965881Y-149122016D01*
X112975432Y-149141562D01*
X112982206Y-149166198D01*
X112986819Y-149200711D01*
X112989888Y-149249889D01*
X112992029Y-149318519D01*
X112993859Y-149411389D01*
X112998404Y-149669007D01*
X112960225Y-149654491D01*
X112925268Y-149641156D01*
X112899097Y-149628323D01*
X112882013Y-149611780D01*
X112872086Y-149586465D01*
X112867386Y-149547316D01*
X112865982Y-149489268D01*
X112865943Y-149407261D01*
X112865744Y-149341895D01*
X112864559Y-149279173D01*
X112861729Y-149236334D01*
X112856609Y-149208220D01*
X112848553Y-149189675D01*
X112836914Y-149175543D01*
X112808303Y-149155600D01*
X112760239Y-149148083D01*
X112712688Y-149167079D01*
X112709550Y-149169511D01*
X112699769Y-149180748D01*
X112692553Y-149198770D01*
X112687299Y-149228026D01*
X112683402Y-149272962D01*
X112680256Y-149338028D01*
X112677257Y-149427670D01*
X112670000Y-149667697D01*
X112608314Y-149640044D01*
X112546629Y-149612391D01*
X112546629Y-149393246D01*
X112546884Y-149333711D01*
X112549086Y-149250892D01*
X112554661Y-149189227D01*
X112564941Y-149143748D01*
X112581258Y-149109484D01*
X112604943Y-149081466D01*
X112637328Y-149054723D01*
X112683907Y-149027780D01*
X112757287Y-149010191D01*
X112831020Y-149017822D01*
G37*
X112831020Y-149017822D02*
X112898810Y-149049680D01*
X112954366Y-149104770D01*
X112965881Y-149122016D01*
X112975432Y-149141562D01*
X112982206Y-149166198D01*
X112986819Y-149200711D01*
X112989888Y-149249889D01*
X112992029Y-149318519D01*
X112993859Y-149411389D01*
X112998404Y-149669007D01*
X112960225Y-149654491D01*
X112925268Y-149641156D01*
X112899097Y-149628323D01*
X112882013Y-149611780D01*
X112872086Y-149586465D01*
X112867386Y-149547316D01*
X112865982Y-149489268D01*
X112865943Y-149407261D01*
X112865744Y-149341895D01*
X112864559Y-149279173D01*
X112861729Y-149236334D01*
X112856609Y-149208220D01*
X112848553Y-149189675D01*
X112836914Y-149175543D01*
X112808303Y-149155600D01*
X112760239Y-149148083D01*
X112712688Y-149167079D01*
X112709550Y-149169511D01*
X112699769Y-149180748D01*
X112692553Y-149198770D01*
X112687299Y-149228026D01*
X112683402Y-149272962D01*
X112680256Y-149338028D01*
X112677257Y-149427670D01*
X112670000Y-149667697D01*
X112608314Y-149640044D01*
X112546629Y-149612391D01*
X112546629Y-149393246D01*
X112546884Y-149333711D01*
X112549086Y-149250892D01*
X112554661Y-149189227D01*
X112564941Y-149143748D01*
X112581258Y-149109484D01*
X112604943Y-149081466D01*
X112637328Y-149054723D01*
X112683907Y-149027780D01*
X112757287Y-149010191D01*
X112831020Y-149017822D01*
X108747400Y-149058752D02*
X108730052Y-149066334D01*
X108730052Y-149066334D02*
X108688644Y-149099128D01*
X108688644Y-149099128D02*
X108653235Y-149146547D01*
X108653235Y-149146547D02*
X108631336Y-149197151D01*
X108631336Y-149197151D02*
X108627771Y-149222098D01*
X108627771Y-149222098D02*
X108639721Y-149256927D01*
X108639721Y-149256927D02*
X108665933Y-149275357D01*
X108665933Y-149275357D02*
X108694036Y-149286516D01*
X108694036Y-149286516D02*
X108706905Y-149288572D01*
X108706905Y-149288572D02*
X108713171Y-149273649D01*
X108713171Y-149273649D02*
X108725544Y-149241175D01*
X108725544Y-149241175D02*
X108730972Y-149226502D01*
X108730972Y-149226502D02*
X108761410Y-149175744D01*
X108761410Y-149175744D02*
X108805480Y-149150427D01*
X108805480Y-149150427D02*
X108861990Y-149151206D01*
X108861990Y-149151206D02*
X108866175Y-149152203D01*
X108866175Y-149152203D02*
X108896345Y-149166507D01*
X108896345Y-149166507D02*
X108918524Y-149194393D01*
X108918524Y-149194393D02*
X108933673Y-149239287D01*
X108933673Y-149239287D02*
X108942750Y-149304615D01*
X108942750Y-149304615D02*
X108946714Y-149393804D01*
X108946714Y-149393804D02*
X108947086Y-149441261D01*
X108947086Y-149441261D02*
X108947270Y-149516071D01*
X108947270Y-149516071D02*
X108948478Y-149567069D01*
X108948478Y-149567069D02*
X108951691Y-149599471D01*
X108951691Y-149599471D02*
X108957891Y-149618495D01*
X108957891Y-149618495D02*
X108968060Y-149629356D01*
X108968060Y-149629356D02*
X108983181Y-149637272D01*
X108983181Y-149637272D02*
X108984054Y-149637670D01*
X108984054Y-149637670D02*
X109013172Y-149649981D01*
X109013172Y-149649981D02*
X109027597Y-149654514D01*
X109027597Y-149654514D02*
X109029814Y-149640809D01*
X109029814Y-149640809D02*
X109031711Y-149602925D01*
X109031711Y-149602925D02*
X109033153Y-149545715D01*
X109033153Y-149545715D02*
X109034002Y-149474027D01*
X109034002Y-149474027D02*
X109034171Y-149421565D01*
X109034171Y-149421565D02*
X109033308Y-149320047D01*
X109033308Y-149320047D02*
X109029930Y-149243032D01*
X109029930Y-149243032D02*
X109022858Y-149186023D01*
X109022858Y-149186023D02*
X109010912Y-149144526D01*
X109010912Y-149144526D02*
X108992910Y-149114043D01*
X108992910Y-149114043D02*
X108967673Y-149090080D01*
X108967673Y-149090080D02*
X108942753Y-149073355D01*
X108942753Y-149073355D02*
X108882829Y-149051097D01*
X108882829Y-149051097D02*
X108813089Y-149046076D01*
X108813089Y-149046076D02*
X108747400Y-149058752D01*
X108747400Y-149058752D02*
X108747400Y-149058752D01*
G36*
X108882829Y-149051097D02*
G01*
X108942753Y-149073355D01*
X108967673Y-149090080D01*
X108992910Y-149114043D01*
X109010912Y-149144526D01*
X109022858Y-149186023D01*
X109029930Y-149243032D01*
X109033308Y-149320047D01*
X109034171Y-149421565D01*
X109034002Y-149474027D01*
X109033153Y-149545715D01*
X109031711Y-149602925D01*
X109029814Y-149640809D01*
X109027597Y-149654514D01*
X109013172Y-149649981D01*
X108984054Y-149637670D01*
X108983181Y-149637272D01*
X108968060Y-149629356D01*
X108957891Y-149618495D01*
X108951691Y-149599471D01*
X108948478Y-149567069D01*
X108947270Y-149516071D01*
X108947086Y-149441261D01*
X108946714Y-149393804D01*
X108942750Y-149304615D01*
X108933673Y-149239287D01*
X108918524Y-149194393D01*
X108896345Y-149166507D01*
X108866175Y-149152203D01*
X108861990Y-149151206D01*
X108805480Y-149150427D01*
X108761410Y-149175744D01*
X108730972Y-149226502D01*
X108725544Y-149241175D01*
X108713171Y-149273649D01*
X108706905Y-149288572D01*
X108694036Y-149286516D01*
X108665933Y-149275357D01*
X108639721Y-149256927D01*
X108627771Y-149222098D01*
X108631336Y-149197151D01*
X108653235Y-149146547D01*
X108688644Y-149099128D01*
X108730052Y-149066334D01*
X108747400Y-149058752D01*
X108813089Y-149046076D01*
X108882829Y-149051097D01*
G37*
X108882829Y-149051097D02*
X108942753Y-149073355D01*
X108967673Y-149090080D01*
X108992910Y-149114043D01*
X109010912Y-149144526D01*
X109022858Y-149186023D01*
X109029930Y-149243032D01*
X109033308Y-149320047D01*
X109034171Y-149421565D01*
X109034002Y-149474027D01*
X109033153Y-149545715D01*
X109031711Y-149602925D01*
X109029814Y-149640809D01*
X109027597Y-149654514D01*
X109013172Y-149649981D01*
X108984054Y-149637670D01*
X108983181Y-149637272D01*
X108968060Y-149629356D01*
X108957891Y-149618495D01*
X108951691Y-149599471D01*
X108948478Y-149567069D01*
X108947270Y-149516071D01*
X108947086Y-149441261D01*
X108946714Y-149393804D01*
X108942750Y-149304615D01*
X108933673Y-149239287D01*
X108918524Y-149194393D01*
X108896345Y-149166507D01*
X108866175Y-149152203D01*
X108861990Y-149151206D01*
X108805480Y-149150427D01*
X108761410Y-149175744D01*
X108730972Y-149226502D01*
X108725544Y-149241175D01*
X108713171Y-149273649D01*
X108706905Y-149288572D01*
X108694036Y-149286516D01*
X108665933Y-149275357D01*
X108639721Y-149256927D01*
X108627771Y-149222098D01*
X108631336Y-149197151D01*
X108653235Y-149146547D01*
X108688644Y-149099128D01*
X108730052Y-149066334D01*
X108747400Y-149058752D01*
X108813089Y-149046076D01*
X108882829Y-149051097D01*
X110209883Y-149165358D02*
X110210067Y-149273837D01*
X110210067Y-149273837D02*
X110210781Y-149357287D01*
X110210781Y-149357287D02*
X110212325Y-149419704D01*
X110212325Y-149419704D02*
X110214999Y-149465085D01*
X110214999Y-149465085D02*
X110219106Y-149497429D01*
X110219106Y-149497429D02*
X110224945Y-149520733D01*
X110224945Y-149520733D02*
X110232818Y-149538995D01*
X110232818Y-149538995D02*
X110238779Y-149549418D01*
X110238779Y-149549418D02*
X110288145Y-149605945D01*
X110288145Y-149605945D02*
X110350736Y-149641377D01*
X110350736Y-149641377D02*
X110419987Y-149654090D01*
X110419987Y-149654090D02*
X110489332Y-149642463D01*
X110489332Y-149642463D02*
X110530625Y-149621568D01*
X110530625Y-149621568D02*
X110573975Y-149585422D01*
X110573975Y-149585422D02*
X110603519Y-149541276D01*
X110603519Y-149541276D02*
X110621345Y-149483462D01*
X110621345Y-149483462D02*
X110629537Y-149406313D01*
X110629537Y-149406313D02*
X110630698Y-149349714D01*
X110630698Y-149349714D02*
X110630542Y-149345647D01*
X110630542Y-149345647D02*
X110529143Y-149345647D01*
X110529143Y-149345647D02*
X110528524Y-149410550D01*
X110528524Y-149410550D02*
X110525686Y-149453514D01*
X110525686Y-149453514D02*
X110519160Y-149481622D01*
X110519160Y-149481622D02*
X110507477Y-149501953D01*
X110507477Y-149501953D02*
X110493517Y-149517288D01*
X110493517Y-149517288D02*
X110446635Y-149546890D01*
X110446635Y-149546890D02*
X110396299Y-149549419D01*
X110396299Y-149549419D02*
X110348724Y-149524705D01*
X110348724Y-149524705D02*
X110345021Y-149521356D01*
X110345021Y-149521356D02*
X110329217Y-149503935D01*
X110329217Y-149503935D02*
X110319307Y-149483209D01*
X110319307Y-149483209D02*
X110313942Y-149452362D01*
X110313942Y-149452362D02*
X110311772Y-149404577D01*
X110311772Y-149404577D02*
X110311429Y-149351748D01*
X110311429Y-149351748D02*
X110312173Y-149285381D01*
X110312173Y-149285381D02*
X110315252Y-149241106D01*
X110315252Y-149241106D02*
X110321939Y-149212009D01*
X110321939Y-149212009D02*
X110333504Y-149191173D01*
X110333504Y-149191173D02*
X110342987Y-149180107D01*
X110342987Y-149180107D02*
X110387040Y-149152198D01*
X110387040Y-149152198D02*
X110437776Y-149148843D01*
X110437776Y-149148843D02*
X110486204Y-149170159D01*
X110486204Y-149170159D02*
X110495550Y-149178073D01*
X110495550Y-149178073D02*
X110511460Y-149195647D01*
X110511460Y-149195647D02*
X110521390Y-149216587D01*
X110521390Y-149216587D02*
X110526722Y-149247782D01*
X110526722Y-149247782D02*
X110528837Y-149296122D01*
X110528837Y-149296122D02*
X110529143Y-149345647D01*
X110529143Y-149345647D02*
X110630542Y-149345647D01*
X110630542Y-149345647D02*
X110627190Y-149258568D01*
X110627190Y-149258568D02*
X110615274Y-149190086D01*
X110615274Y-149190086D02*
X110592865Y-149138600D01*
X110592865Y-149138600D02*
X110557876Y-149098443D01*
X110557876Y-149098443D02*
X110530625Y-149077861D01*
X110530625Y-149077861D02*
X110481093Y-149055625D01*
X110481093Y-149055625D02*
X110423684Y-149045304D01*
X110423684Y-149045304D02*
X110370318Y-149048067D01*
X110370318Y-149048067D02*
X110340457Y-149059212D01*
X110340457Y-149059212D02*
X110328739Y-149062383D01*
X110328739Y-149062383D02*
X110320963Y-149050557D01*
X110320963Y-149050557D02*
X110315535Y-149018866D01*
X110315535Y-149018866D02*
X110311429Y-148970593D01*
X110311429Y-148970593D02*
X110306933Y-148916829D01*
X110306933Y-148916829D02*
X110300687Y-148884482D01*
X110300687Y-148884482D02*
X110289324Y-148865985D01*
X110289324Y-148865985D02*
X110269472Y-148853770D01*
X110269472Y-148853770D02*
X110257000Y-148848362D01*
X110257000Y-148848362D02*
X110209829Y-148828601D01*
X110209829Y-148828601D02*
X110209883Y-149165358D01*
X110209883Y-149165358D02*
X110209883Y-149165358D01*
G36*
X110629537Y-149406313D02*
G01*
X110621345Y-149483462D01*
X110603519Y-149541276D01*
X110573975Y-149585422D01*
X110530625Y-149621568D01*
X110489332Y-149642463D01*
X110419987Y-149654090D01*
X110350736Y-149641377D01*
X110288145Y-149605945D01*
X110238779Y-149549418D01*
X110232818Y-149538995D01*
X110224945Y-149520733D01*
X110219106Y-149497429D01*
X110214999Y-149465085D01*
X110212325Y-149419704D01*
X110210781Y-149357287D01*
X110210734Y-149351748D01*
X110311429Y-149351748D01*
X110311772Y-149404577D01*
X110313942Y-149452362D01*
X110319307Y-149483209D01*
X110329217Y-149503935D01*
X110345021Y-149521356D01*
X110348724Y-149524705D01*
X110396299Y-149549419D01*
X110446635Y-149546890D01*
X110493517Y-149517288D01*
X110507477Y-149501953D01*
X110519160Y-149481622D01*
X110525686Y-149453514D01*
X110528524Y-149410550D01*
X110529143Y-149345647D01*
X110528837Y-149296122D01*
X110526722Y-149247782D01*
X110521390Y-149216587D01*
X110511460Y-149195647D01*
X110495550Y-149178073D01*
X110486204Y-149170159D01*
X110437776Y-149148843D01*
X110387040Y-149152198D01*
X110342987Y-149180107D01*
X110333504Y-149191173D01*
X110321939Y-149212009D01*
X110315252Y-149241106D01*
X110312173Y-149285381D01*
X110311429Y-149351748D01*
X110210734Y-149351748D01*
X110210067Y-149273837D01*
X110209883Y-149165358D01*
X110209829Y-148828601D01*
X110257000Y-148848362D01*
X110269472Y-148853770D01*
X110289324Y-148865985D01*
X110300687Y-148884482D01*
X110306933Y-148916829D01*
X110311429Y-148970593D01*
X110315535Y-149018866D01*
X110320963Y-149050557D01*
X110328739Y-149062383D01*
X110340457Y-149059212D01*
X110370318Y-149048067D01*
X110423684Y-149045304D01*
X110481093Y-149055625D01*
X110530625Y-149077861D01*
X110557876Y-149098443D01*
X110592865Y-149138600D01*
X110615274Y-149190086D01*
X110627190Y-149258568D01*
X110630542Y-149345647D01*
X110630698Y-149349714D01*
X110629537Y-149406313D01*
G37*
X110629537Y-149406313D02*
X110621345Y-149483462D01*
X110603519Y-149541276D01*
X110573975Y-149585422D01*
X110530625Y-149621568D01*
X110489332Y-149642463D01*
X110419987Y-149654090D01*
X110350736Y-149641377D01*
X110288145Y-149605945D01*
X110238779Y-149549418D01*
X110232818Y-149538995D01*
X110224945Y-149520733D01*
X110219106Y-149497429D01*
X110214999Y-149465085D01*
X110212325Y-149419704D01*
X110210781Y-149357287D01*
X110210734Y-149351748D01*
X110311429Y-149351748D01*
X110311772Y-149404577D01*
X110313942Y-149452362D01*
X110319307Y-149483209D01*
X110329217Y-149503935D01*
X110345021Y-149521356D01*
X110348724Y-149524705D01*
X110396299Y-149549419D01*
X110446635Y-149546890D01*
X110493517Y-149517288D01*
X110507477Y-149501953D01*
X110519160Y-149481622D01*
X110525686Y-149453514D01*
X110528524Y-149410550D01*
X110529143Y-149345647D01*
X110528837Y-149296122D01*
X110526722Y-149247782D01*
X110521390Y-149216587D01*
X110511460Y-149195647D01*
X110495550Y-149178073D01*
X110486204Y-149170159D01*
X110437776Y-149148843D01*
X110387040Y-149152198D01*
X110342987Y-149180107D01*
X110333504Y-149191173D01*
X110321939Y-149212009D01*
X110315252Y-149241106D01*
X110312173Y-149285381D01*
X110311429Y-149351748D01*
X110210734Y-149351748D01*
X110210067Y-149273837D01*
X110209883Y-149165358D01*
X110209829Y-148828601D01*
X110257000Y-148848362D01*
X110269472Y-148853770D01*
X110289324Y-148865985D01*
X110300687Y-148884482D01*
X110306933Y-148916829D01*
X110311429Y-148970593D01*
X110315535Y-149018866D01*
X110320963Y-149050557D01*
X110328739Y-149062383D01*
X110340457Y-149059212D01*
X110370318Y-149048067D01*
X110423684Y-149045304D01*
X110481093Y-149055625D01*
X110530625Y-149077861D01*
X110557876Y-149098443D01*
X110592865Y-149138600D01*
X110615274Y-149190086D01*
X110627190Y-149258568D01*
X110630542Y-149345647D01*
X110630698Y-149349714D01*
X110629537Y-149406313D01*
X112024114Y-148951289D02*
X112019861Y-149010613D01*
X112019861Y-149010613D02*
X112014975Y-149045572D01*
X112014975Y-149045572D02*
X112008205Y-149060820D01*
X112008205Y-149060820D02*
X111998298Y-149061015D01*
X111998298Y-149061015D02*
X111995086Y-149059195D01*
X111995086Y-149059195D02*
X111952356Y-149046015D01*
X111952356Y-149046015D02*
X111896773Y-149046785D01*
X111896773Y-149046785D02*
X111840263Y-149060333D01*
X111840263Y-149060333D02*
X111804918Y-149077861D01*
X111804918Y-149077861D02*
X111768679Y-149105861D01*
X111768679Y-149105861D02*
X111742187Y-149137549D01*
X111742187Y-149137549D02*
X111724001Y-149177813D01*
X111724001Y-149177813D02*
X111712678Y-149231543D01*
X111712678Y-149231543D02*
X111706778Y-149303626D01*
X111706778Y-149303626D02*
X111704857Y-149398951D01*
X111704857Y-149398951D02*
X111704823Y-149417237D01*
X111704823Y-149417237D02*
X111704800Y-149622646D01*
X111704800Y-149622646D02*
X111750509Y-149638580D01*
X111750509Y-149638580D02*
X111782973Y-149649420D01*
X111782973Y-149649420D02*
X111800785Y-149654468D01*
X111800785Y-149654468D02*
X111801309Y-149654514D01*
X111801309Y-149654514D02*
X111803063Y-149640828D01*
X111803063Y-149640828D02*
X111804556Y-149603076D01*
X111804556Y-149603076D02*
X111805674Y-149546224D01*
X111805674Y-149546224D02*
X111806303Y-149475234D01*
X111806303Y-149475234D02*
X111806400Y-149432073D01*
X111806400Y-149432073D02*
X111806602Y-149346973D01*
X111806602Y-149346973D02*
X111807642Y-149285981D01*
X111807642Y-149285981D02*
X111810169Y-149244177D01*
X111810169Y-149244177D02*
X111814836Y-149216642D01*
X111814836Y-149216642D02*
X111822293Y-149198456D01*
X111822293Y-149198456D02*
X111833189Y-149184698D01*
X111833189Y-149184698D02*
X111839993Y-149178073D01*
X111839993Y-149178073D02*
X111886728Y-149151375D01*
X111886728Y-149151375D02*
X111937728Y-149149375D01*
X111937728Y-149149375D02*
X111983999Y-149171955D01*
X111983999Y-149171955D02*
X111992556Y-149180107D01*
X111992556Y-149180107D02*
X112005107Y-149195436D01*
X112005107Y-149195436D02*
X112013812Y-149213618D01*
X112013812Y-149213618D02*
X112019369Y-149239909D01*
X112019369Y-149239909D02*
X112022474Y-149279562D01*
X112022474Y-149279562D02*
X112023824Y-149337832D01*
X112023824Y-149337832D02*
X112024114Y-149418173D01*
X112024114Y-149418173D02*
X112024114Y-149622646D01*
X112024114Y-149622646D02*
X112069823Y-149638580D01*
X112069823Y-149638580D02*
X112102287Y-149649420D01*
X112102287Y-149649420D02*
X112120099Y-149654468D01*
X112120099Y-149654468D02*
X112120623Y-149654514D01*
X112120623Y-149654514D02*
X112121963Y-149640623D01*
X112121963Y-149640623D02*
X112123172Y-149601439D01*
X112123172Y-149601439D02*
X112124199Y-149540700D01*
X112124199Y-149540700D02*
X112124998Y-149462141D01*
X112124998Y-149462141D02*
X112125519Y-149369498D01*
X112125519Y-149369498D02*
X112125714Y-149266509D01*
X112125714Y-149266509D02*
X112125714Y-148869342D01*
X112125714Y-148869342D02*
X112078543Y-148849444D01*
X112078543Y-148849444D02*
X112031371Y-148829547D01*
X112031371Y-148829547D02*
X112024114Y-148951289D01*
X112024114Y-148951289D02*
X112024114Y-148951289D01*
G36*
X112078543Y-148849444D02*
G01*
X112125714Y-148869342D01*
X112125714Y-149266509D01*
X112125519Y-149369498D01*
X112124998Y-149462141D01*
X112124199Y-149540700D01*
X112123172Y-149601439D01*
X112121963Y-149640623D01*
X112120623Y-149654514D01*
X112120099Y-149654468D01*
X112102287Y-149649420D01*
X112069823Y-149638580D01*
X112024114Y-149622646D01*
X112024114Y-149418173D01*
X112023824Y-149337832D01*
X112022474Y-149279562D01*
X112019369Y-149239909D01*
X112013812Y-149213618D01*
X112005107Y-149195436D01*
X111992556Y-149180107D01*
X111983999Y-149171955D01*
X111937728Y-149149375D01*
X111886728Y-149151375D01*
X111839993Y-149178073D01*
X111833189Y-149184698D01*
X111822293Y-149198456D01*
X111814836Y-149216642D01*
X111810169Y-149244177D01*
X111807642Y-149285981D01*
X111806602Y-149346973D01*
X111806400Y-149432073D01*
X111806303Y-149475234D01*
X111805674Y-149546224D01*
X111804556Y-149603076D01*
X111803063Y-149640828D01*
X111801309Y-149654514D01*
X111800785Y-149654468D01*
X111782973Y-149649420D01*
X111750509Y-149638580D01*
X111704800Y-149622646D01*
X111704823Y-149417237D01*
X111704857Y-149398951D01*
X111706778Y-149303626D01*
X111712678Y-149231543D01*
X111724001Y-149177813D01*
X111742187Y-149137549D01*
X111768679Y-149105861D01*
X111804918Y-149077861D01*
X111840263Y-149060333D01*
X111896773Y-149046785D01*
X111952356Y-149046015D01*
X111995086Y-149059195D01*
X111998298Y-149061015D01*
X112008205Y-149060820D01*
X112014975Y-149045572D01*
X112019861Y-149010613D01*
X112024114Y-148951289D01*
X112031371Y-148829547D01*
X112078543Y-148849444D01*
G37*
X112078543Y-148849444D02*
X112125714Y-148869342D01*
X112125714Y-149266509D01*
X112125519Y-149369498D01*
X112124998Y-149462141D01*
X112124199Y-149540700D01*
X112123172Y-149601439D01*
X112121963Y-149640623D01*
X112120623Y-149654514D01*
X112120099Y-149654468D01*
X112102287Y-149649420D01*
X112069823Y-149638580D01*
X112024114Y-149622646D01*
X112024114Y-149418173D01*
X112023824Y-149337832D01*
X112022474Y-149279562D01*
X112019369Y-149239909D01*
X112013812Y-149213618D01*
X112005107Y-149195436D01*
X111992556Y-149180107D01*
X111983999Y-149171955D01*
X111937728Y-149149375D01*
X111886728Y-149151375D01*
X111839993Y-149178073D01*
X111833189Y-149184698D01*
X111822293Y-149198456D01*
X111814836Y-149216642D01*
X111810169Y-149244177D01*
X111807642Y-149285981D01*
X111806602Y-149346973D01*
X111806400Y-149432073D01*
X111806303Y-149475234D01*
X111805674Y-149546224D01*
X111804556Y-149603076D01*
X111803063Y-149640828D01*
X111801309Y-149654514D01*
X111800785Y-149654468D01*
X111782973Y-149649420D01*
X111750509Y-149638580D01*
X111704800Y-149622646D01*
X111704823Y-149417237D01*
X111704857Y-149398951D01*
X111706778Y-149303626D01*
X111712678Y-149231543D01*
X111724001Y-149177813D01*
X111742187Y-149137549D01*
X111768679Y-149105861D01*
X111804918Y-149077861D01*
X111840263Y-149060333D01*
X111896773Y-149046785D01*
X111952356Y-149046015D01*
X111995086Y-149059195D01*
X111998298Y-149061015D01*
X112008205Y-149060820D01*
X112014975Y-149045572D01*
X112019861Y-149010613D01*
X112024114Y-148951289D01*
X112031371Y-148829547D01*
X112078543Y-148849444D01*
X111360256Y-149050968D02*
X111303384Y-149072087D01*
X111303384Y-149072087D02*
X111302733Y-149072493D01*
X111302733Y-149072493D02*
X111267560Y-149098380D01*
X111267560Y-149098380D02*
X111241593Y-149128633D01*
X111241593Y-149128633D02*
X111223330Y-149168058D01*
X111223330Y-149168058D02*
X111211268Y-149221462D01*
X111211268Y-149221462D02*
X111203904Y-149293651D01*
X111203904Y-149293651D02*
X111199736Y-149389432D01*
X111199736Y-149389432D02*
X111199371Y-149403078D01*
X111199371Y-149403078D02*
X111194124Y-149608842D01*
X111194124Y-149608842D02*
X111238284Y-149631678D01*
X111238284Y-149631678D02*
X111270237Y-149647110D01*
X111270237Y-149647110D02*
X111289530Y-149654423D01*
X111289530Y-149654423D02*
X111290422Y-149654514D01*
X111290422Y-149654514D02*
X111293761Y-149641022D01*
X111293761Y-149641022D02*
X111296413Y-149604626D01*
X111296413Y-149604626D02*
X111298044Y-149551452D01*
X111298044Y-149551452D02*
X111298400Y-149508393D01*
X111298400Y-149508393D02*
X111298408Y-149438641D01*
X111298408Y-149438641D02*
X111301597Y-149394837D01*
X111301597Y-149394837D02*
X111312712Y-149373944D01*
X111312712Y-149373944D02*
X111336499Y-149372925D01*
X111336499Y-149372925D02*
X111377704Y-149388741D01*
X111377704Y-149388741D02*
X111439914Y-149417815D01*
X111439914Y-149417815D02*
X111485659Y-149441963D01*
X111485659Y-149441963D02*
X111509187Y-149462913D01*
X111509187Y-149462913D02*
X111516104Y-149485747D01*
X111516104Y-149485747D02*
X111516114Y-149486877D01*
X111516114Y-149486877D02*
X111504701Y-149526212D01*
X111504701Y-149526212D02*
X111470908Y-149547462D01*
X111470908Y-149547462D02*
X111419191Y-149550539D01*
X111419191Y-149550539D02*
X111381939Y-149550006D01*
X111381939Y-149550006D02*
X111362297Y-149560735D01*
X111362297Y-149560735D02*
X111350048Y-149586505D01*
X111350048Y-149586505D02*
X111342998Y-149619337D01*
X111342998Y-149619337D02*
X111353158Y-149637966D01*
X111353158Y-149637966D02*
X111356983Y-149640632D01*
X111356983Y-149640632D02*
X111392999Y-149651340D01*
X111392999Y-149651340D02*
X111443434Y-149652856D01*
X111443434Y-149652856D02*
X111495374Y-149645759D01*
X111495374Y-149645759D02*
X111532178Y-149632788D01*
X111532178Y-149632788D02*
X111583062Y-149589585D01*
X111583062Y-149589585D02*
X111611986Y-149529446D01*
X111611986Y-149529446D02*
X111617714Y-149482462D01*
X111617714Y-149482462D02*
X111613343Y-149440082D01*
X111613343Y-149440082D02*
X111597525Y-149405488D01*
X111597525Y-149405488D02*
X111566203Y-149374763D01*
X111566203Y-149374763D02*
X111515322Y-149343990D01*
X111515322Y-149343990D02*
X111440824Y-149309252D01*
X111440824Y-149309252D02*
X111436286Y-149307288D01*
X111436286Y-149307288D02*
X111369179Y-149276287D01*
X111369179Y-149276287D02*
X111327768Y-149250862D01*
X111327768Y-149250862D02*
X111310019Y-149228014D01*
X111310019Y-149228014D02*
X111313893Y-149204745D01*
X111313893Y-149204745D02*
X111337357Y-149178056D01*
X111337357Y-149178056D02*
X111344373Y-149171914D01*
X111344373Y-149171914D02*
X111391370Y-149148100D01*
X111391370Y-149148100D02*
X111440067Y-149149103D01*
X111440067Y-149149103D02*
X111482478Y-149172451D01*
X111482478Y-149172451D02*
X111510616Y-149215675D01*
X111510616Y-149215675D02*
X111513231Y-149224160D01*
X111513231Y-149224160D02*
X111538692Y-149265308D01*
X111538692Y-149265308D02*
X111570999Y-149285128D01*
X111570999Y-149285128D02*
X111617714Y-149304770D01*
X111617714Y-149304770D02*
X111617714Y-149253950D01*
X111617714Y-149253950D02*
X111603504Y-149180082D01*
X111603504Y-149180082D02*
X111561325Y-149112327D01*
X111561325Y-149112327D02*
X111539376Y-149089661D01*
X111539376Y-149089661D02*
X111489483Y-149060569D01*
X111489483Y-149060569D02*
X111426033Y-149047400D01*
X111426033Y-149047400D02*
X111360256Y-149050968D01*
X111360256Y-149050968D02*
X111360256Y-149050968D01*
G36*
X111489483Y-149060569D02*
G01*
X111539376Y-149089661D01*
X111561325Y-149112327D01*
X111603504Y-149180082D01*
X111617714Y-149253950D01*
X111617714Y-149304770D01*
X111570999Y-149285128D01*
X111538692Y-149265308D01*
X111513231Y-149224160D01*
X111510616Y-149215675D01*
X111482478Y-149172451D01*
X111440067Y-149149103D01*
X111391370Y-149148100D01*
X111344373Y-149171914D01*
X111337357Y-149178056D01*
X111313893Y-149204745D01*
X111310019Y-149228014D01*
X111327768Y-149250862D01*
X111369179Y-149276287D01*
X111436286Y-149307288D01*
X111440824Y-149309252D01*
X111515322Y-149343990D01*
X111566203Y-149374763D01*
X111597525Y-149405488D01*
X111613343Y-149440082D01*
X111617714Y-149482462D01*
X111611986Y-149529446D01*
X111583062Y-149589585D01*
X111532178Y-149632788D01*
X111495374Y-149645759D01*
X111443434Y-149652856D01*
X111392999Y-149651340D01*
X111356983Y-149640632D01*
X111353158Y-149637966D01*
X111342998Y-149619337D01*
X111350048Y-149586505D01*
X111362297Y-149560735D01*
X111381939Y-149550006D01*
X111419191Y-149550539D01*
X111470908Y-149547462D01*
X111504701Y-149526212D01*
X111516114Y-149486877D01*
X111516104Y-149485747D01*
X111509187Y-149462913D01*
X111485659Y-149441963D01*
X111439914Y-149417815D01*
X111377704Y-149388741D01*
X111336499Y-149372925D01*
X111312712Y-149373944D01*
X111301597Y-149394837D01*
X111298408Y-149438641D01*
X111298400Y-149508393D01*
X111298044Y-149551452D01*
X111296413Y-149604626D01*
X111293761Y-149641022D01*
X111290422Y-149654514D01*
X111289530Y-149654423D01*
X111270237Y-149647110D01*
X111238284Y-149631678D01*
X111194124Y-149608842D01*
X111199371Y-149403078D01*
X111199736Y-149389432D01*
X111203904Y-149293651D01*
X111211268Y-149221462D01*
X111223330Y-149168058D01*
X111241593Y-149128633D01*
X111267560Y-149098380D01*
X111302733Y-149072493D01*
X111303384Y-149072087D01*
X111360256Y-149050968D01*
X111426033Y-149047400D01*
X111489483Y-149060569D01*
G37*
X111489483Y-149060569D02*
X111539376Y-149089661D01*
X111561325Y-149112327D01*
X111603504Y-149180082D01*
X111617714Y-149253950D01*
X111617714Y-149304770D01*
X111570999Y-149285128D01*
X111538692Y-149265308D01*
X111513231Y-149224160D01*
X111510616Y-149215675D01*
X111482478Y-149172451D01*
X111440067Y-149149103D01*
X111391370Y-149148100D01*
X111344373Y-149171914D01*
X111337357Y-149178056D01*
X111313893Y-149204745D01*
X111310019Y-149228014D01*
X111327768Y-149250862D01*
X111369179Y-149276287D01*
X111436286Y-149307288D01*
X111440824Y-149309252D01*
X111515322Y-149343990D01*
X111566203Y-149374763D01*
X111597525Y-149405488D01*
X111613343Y-149440082D01*
X111617714Y-149482462D01*
X111611986Y-149529446D01*
X111583062Y-149589585D01*
X111532178Y-149632788D01*
X111495374Y-149645759D01*
X111443434Y-149652856D01*
X111392999Y-149651340D01*
X111356983Y-149640632D01*
X111353158Y-149637966D01*
X111342998Y-149619337D01*
X111350048Y-149586505D01*
X111362297Y-149560735D01*
X111381939Y-149550006D01*
X111419191Y-149550539D01*
X111470908Y-149547462D01*
X111504701Y-149526212D01*
X111516114Y-149486877D01*
X111516104Y-149485747D01*
X111509187Y-149462913D01*
X111485659Y-149441963D01*
X111439914Y-149417815D01*
X111377704Y-149388741D01*
X111336499Y-149372925D01*
X111312712Y-149373944D01*
X111301597Y-149394837D01*
X111298408Y-149438641D01*
X111298400Y-149508393D01*
X111298044Y-149551452D01*
X111296413Y-149604626D01*
X111293761Y-149641022D01*
X111290422Y-149654514D01*
X111289530Y-149654423D01*
X111270237Y-149647110D01*
X111238284Y-149631678D01*
X111194124Y-149608842D01*
X111199371Y-149403078D01*
X111199736Y-149389432D01*
X111203904Y-149293651D01*
X111211268Y-149221462D01*
X111223330Y-149168058D01*
X111241593Y-149128633D01*
X111267560Y-149098380D01*
X111302733Y-149072493D01*
X111303384Y-149072087D01*
X111360256Y-149050968D01*
X111426033Y-149047400D01*
X111489483Y-149060569D01*
X111296090Y-144342348D02*
X111217546Y-144342778D01*
X111217546Y-144342778D02*
X111160702Y-144343942D01*
X111160702Y-144343942D02*
X111121895Y-144346207D01*
X111121895Y-144346207D02*
X111097462Y-144349940D01*
X111097462Y-144349940D02*
X111083738Y-144355506D01*
X111083738Y-144355506D02*
X111077060Y-144363273D01*
X111077060Y-144363273D02*
X111073764Y-144373605D01*
X111073764Y-144373605D02*
X111073444Y-144374943D01*
X111073444Y-144374943D02*
X111068438Y-144399079D01*
X111068438Y-144399079D02*
X111059171Y-144446701D01*
X111059171Y-144446701D02*
X111046608Y-144512741D01*
X111046608Y-144512741D02*
X111031713Y-144592128D01*
X111031713Y-144592128D02*
X111015449Y-144679796D01*
X111015449Y-144679796D02*
X111014881Y-144682875D01*
X111014881Y-144682875D02*
X110998590Y-144768789D01*
X110998590Y-144768789D02*
X110983348Y-144844696D01*
X110983348Y-144844696D02*
X110970139Y-144906045D01*
X110970139Y-144906045D02*
X110959946Y-144948282D01*
X110959946Y-144948282D02*
X110953752Y-144966855D01*
X110953752Y-144966855D02*
X110953457Y-144967184D01*
X110953457Y-144967184D02*
X110935212Y-144976253D01*
X110935212Y-144976253D02*
X110897595Y-144991367D01*
X110897595Y-144991367D02*
X110848729Y-145009262D01*
X110848729Y-145009262D02*
X110848457Y-145009358D01*
X110848457Y-145009358D02*
X110786907Y-145032493D01*
X110786907Y-145032493D02*
X110714343Y-145061965D01*
X110714343Y-145061965D02*
X110645943Y-145091597D01*
X110645943Y-145091597D02*
X110642706Y-145093062D01*
X110642706Y-145093062D02*
X110531298Y-145143626D01*
X110531298Y-145143626D02*
X110284601Y-144975160D01*
X110284601Y-144975160D02*
X110208923Y-144923803D01*
X110208923Y-144923803D02*
X110140369Y-144877889D01*
X110140369Y-144877889D02*
X110082912Y-144840030D01*
X110082912Y-144840030D02*
X110040524Y-144812837D01*
X110040524Y-144812837D02*
X110017175Y-144798921D01*
X110017175Y-144798921D02*
X110014958Y-144797889D01*
X110014958Y-144797889D02*
X109997990Y-144802484D01*
X109997990Y-144802484D02*
X109966299Y-144824655D01*
X109966299Y-144824655D02*
X109918648Y-144865447D01*
X109918648Y-144865447D02*
X109853802Y-144925905D01*
X109853802Y-144925905D02*
X109787603Y-144990227D01*
X109787603Y-144990227D02*
X109723786Y-145053612D01*
X109723786Y-145053612D02*
X109666671Y-145111451D01*
X109666671Y-145111451D02*
X109619695Y-145160175D01*
X109619695Y-145160175D02*
X109586297Y-145196210D01*
X109586297Y-145196210D02*
X109569915Y-145215984D01*
X109569915Y-145215984D02*
X109569306Y-145217002D01*
X109569306Y-145217002D02*
X109567495Y-145230572D01*
X109567495Y-145230572D02*
X109574317Y-145252733D01*
X109574317Y-145252733D02*
X109591460Y-145286478D01*
X109591460Y-145286478D02*
X109620607Y-145334800D01*
X109620607Y-145334800D02*
X109663445Y-145400692D01*
X109663445Y-145400692D02*
X109720552Y-145485517D01*
X109720552Y-145485517D02*
X109771234Y-145560177D01*
X109771234Y-145560177D02*
X109816539Y-145627140D01*
X109816539Y-145627140D02*
X109853850Y-145682516D01*
X109853850Y-145682516D02*
X109880548Y-145722420D01*
X109880548Y-145722420D02*
X109894015Y-145742962D01*
X109894015Y-145742962D02*
X109894863Y-145744356D01*
X109894863Y-145744356D02*
X109893219Y-145764038D01*
X109893219Y-145764038D02*
X109880755Y-145802293D01*
X109880755Y-145802293D02*
X109859952Y-145851889D01*
X109859952Y-145851889D02*
X109852538Y-145867728D01*
X109852538Y-145867728D02*
X109820186Y-145938290D01*
X109820186Y-145938290D02*
X109785672Y-146018353D01*
X109785672Y-146018353D02*
X109757635Y-146087629D01*
X109757635Y-146087629D02*
X109737432Y-146139045D01*
X109737432Y-146139045D02*
X109721385Y-146178119D01*
X109721385Y-146178119D02*
X109712112Y-146198541D01*
X109712112Y-146198541D02*
X109710959Y-146200114D01*
X109710959Y-146200114D02*
X109693904Y-146202721D01*
X109693904Y-146202721D02*
X109653702Y-146209863D01*
X109653702Y-146209863D02*
X109595698Y-146220523D01*
X109595698Y-146220523D02*
X109525237Y-146233685D01*
X109525237Y-146233685D02*
X109447665Y-146248333D01*
X109447665Y-146248333D02*
X109368328Y-146263449D01*
X109368328Y-146263449D02*
X109292569Y-146278018D01*
X109292569Y-146278018D02*
X109225736Y-146291022D01*
X109225736Y-146291022D02*
X109173172Y-146301445D01*
X109173172Y-146301445D02*
X109140224Y-146308270D01*
X109140224Y-146308270D02*
X109132143Y-146310199D01*
X109132143Y-146310199D02*
X109123795Y-146314962D01*
X109123795Y-146314962D02*
X109117494Y-146325718D01*
X109117494Y-146325718D02*
X109112955Y-146346098D01*
X109112955Y-146346098D02*
X109109896Y-146379734D01*
X109109896Y-146379734D02*
X109108033Y-146430255D01*
X109108033Y-146430255D02*
X109107082Y-146501292D01*
X109107082Y-146501292D02*
X109106760Y-146596476D01*
X109106760Y-146596476D02*
X109106743Y-146635492D01*
X109106743Y-146635492D02*
X109106743Y-146952799D01*
X109106743Y-146952799D02*
X109182943Y-146967839D01*
X109182943Y-146967839D02*
X109225337Y-146975995D01*
X109225337Y-146975995D02*
X109288600Y-146987899D01*
X109288600Y-146987899D02*
X109365038Y-147002116D01*
X109365038Y-147002116D02*
X109446957Y-147017210D01*
X109446957Y-147017210D02*
X109469600Y-147021355D01*
X109469600Y-147021355D02*
X109545194Y-147036053D01*
X109545194Y-147036053D02*
X109611047Y-147050505D01*
X109611047Y-147050505D02*
X109661634Y-147063375D01*
X109661634Y-147063375D02*
X109691426Y-147073322D01*
X109691426Y-147073322D02*
X109696388Y-147076287D01*
X109696388Y-147076287D02*
X109708574Y-147097283D01*
X109708574Y-147097283D02*
X109726047Y-147137967D01*
X109726047Y-147137967D02*
X109745423Y-147190322D01*
X109745423Y-147190322D02*
X109749266Y-147201600D01*
X109749266Y-147201600D02*
X109774661Y-147271523D01*
X109774661Y-147271523D02*
X109806183Y-147350418D01*
X109806183Y-147350418D02*
X109837031Y-147421266D01*
X109837031Y-147421266D02*
X109837183Y-147421595D01*
X109837183Y-147421595D02*
X109888553Y-147532733D01*
X109888553Y-147532733D02*
X109719601Y-147781253D01*
X109719601Y-147781253D02*
X109550648Y-148029772D01*
X109550648Y-148029772D02*
X109767571Y-148247058D01*
X109767571Y-148247058D02*
X109833181Y-148311726D01*
X109833181Y-148311726D02*
X109893021Y-148368733D01*
X109893021Y-148368733D02*
X109943733Y-148415033D01*
X109943733Y-148415033D02*
X109981954Y-148447584D01*
X109981954Y-148447584D02*
X110004325Y-148463343D01*
X110004325Y-148463343D02*
X110007534Y-148464343D01*
X110007534Y-148464343D02*
X110026374Y-148456469D01*
X110026374Y-148456469D02*
X110064820Y-148434578D01*
X110064820Y-148434578D02*
X110118670Y-148401267D01*
X110118670Y-148401267D02*
X110183724Y-148359131D01*
X110183724Y-148359131D02*
X110254060Y-148311943D01*
X110254060Y-148311943D02*
X110325445Y-148263810D01*
X110325445Y-148263810D02*
X110389092Y-148221928D01*
X110389092Y-148221928D02*
X110440959Y-148188871D01*
X110440959Y-148188871D02*
X110477005Y-148167218D01*
X110477005Y-148167218D02*
X110493133Y-148159543D01*
X110493133Y-148159543D02*
X110512811Y-148166037D01*
X110512811Y-148166037D02*
X110550125Y-148183150D01*
X110550125Y-148183150D02*
X110597379Y-148207326D01*
X110597379Y-148207326D02*
X110602388Y-148210013D01*
X110602388Y-148210013D02*
X110666023Y-148241927D01*
X110666023Y-148241927D02*
X110709659Y-148257579D01*
X110709659Y-148257579D02*
X110736798Y-148257745D01*
X110736798Y-148257745D02*
X110750943Y-148243204D01*
X110750943Y-148243204D02*
X110751025Y-148243000D01*
X110751025Y-148243000D02*
X110758095Y-148225779D01*
X110758095Y-148225779D02*
X110774958Y-148184899D01*
X110774958Y-148184899D02*
X110800305Y-148123525D01*
X110800305Y-148123525D02*
X110832829Y-148044819D01*
X110832829Y-148044819D02*
X110871222Y-147951947D01*
X110871222Y-147951947D02*
X110914178Y-147848072D01*
X110914178Y-147848072D02*
X110955778Y-147747502D01*
X110955778Y-147747502D02*
X111001496Y-147636516D01*
X111001496Y-147636516D02*
X111043474Y-147533703D01*
X111043474Y-147533703D02*
X111080452Y-147442215D01*
X111080452Y-147442215D02*
X111111173Y-147365201D01*
X111111173Y-147365201D02*
X111134378Y-147305815D01*
X111134378Y-147305815D02*
X111148810Y-147267209D01*
X111148810Y-147267209D02*
X111153257Y-147252800D01*
X111153257Y-147252800D02*
X111142104Y-147236272D01*
X111142104Y-147236272D02*
X111112931Y-147209930D01*
X111112931Y-147209930D02*
X111074029Y-147180887D01*
X111074029Y-147180887D02*
X110963243Y-147089039D01*
X110963243Y-147089039D02*
X110876649Y-146983759D01*
X110876649Y-146983759D02*
X110815284Y-146867266D01*
X110815284Y-146867266D02*
X110780185Y-146741776D01*
X110780185Y-146741776D02*
X110772392Y-146609507D01*
X110772392Y-146609507D02*
X110778057Y-146548457D01*
X110778057Y-146548457D02*
X110808922Y-146421795D01*
X110808922Y-146421795D02*
X110862080Y-146309941D01*
X110862080Y-146309941D02*
X110934233Y-146214001D01*
X110934233Y-146214001D02*
X111022083Y-146135076D01*
X111022083Y-146135076D02*
X111122335Y-146074270D01*
X111122335Y-146074270D02*
X111231690Y-146032687D01*
X111231690Y-146032687D02*
X111346853Y-146011428D01*
X111346853Y-146011428D02*
X111464525Y-146011599D01*
X111464525Y-146011599D02*
X111581410Y-146034301D01*
X111581410Y-146034301D02*
X111694211Y-146080638D01*
X111694211Y-146080638D02*
X111799631Y-146151713D01*
X111799631Y-146151713D02*
X111843632Y-146191911D01*
X111843632Y-146191911D02*
X111928021Y-146295129D01*
X111928021Y-146295129D02*
X111986778Y-146407925D01*
X111986778Y-146407925D02*
X112020296Y-146527010D01*
X112020296Y-146527010D02*
X112028965Y-146649095D01*
X112028965Y-146649095D02*
X112013177Y-146770893D01*
X112013177Y-146770893D02*
X111973322Y-146889116D01*
X111973322Y-146889116D02*
X111909793Y-147000475D01*
X111909793Y-147000475D02*
X111822979Y-147101684D01*
X111822979Y-147101684D02*
X111725971Y-147180887D01*
X111725971Y-147180887D02*
X111685563Y-147211162D01*
X111685563Y-147211162D02*
X111657018Y-147237219D01*
X111657018Y-147237219D02*
X111646743Y-147252825D01*
X111646743Y-147252825D02*
X111652123Y-147269843D01*
X111652123Y-147269843D02*
X111667425Y-147310500D01*
X111667425Y-147310500D02*
X111691388Y-147371642D01*
X111691388Y-147371642D02*
X111722756Y-147450119D01*
X111722756Y-147450119D02*
X111760268Y-147542780D01*
X111760268Y-147542780D02*
X111802667Y-147646472D01*
X111802667Y-147646472D02*
X111844337Y-147747526D01*
X111844337Y-147747526D02*
X111890310Y-147858607D01*
X111890310Y-147858607D02*
X111932893Y-147961541D01*
X111932893Y-147961541D02*
X111970779Y-148053165D01*
X111970779Y-148053165D02*
X112002660Y-148130316D01*
X112002660Y-148130316D02*
X112027229Y-148189831D01*
X112027229Y-148189831D02*
X112043180Y-148228544D01*
X112043180Y-148228544D02*
X112049090Y-148243000D01*
X112049090Y-148243000D02*
X112063052Y-148257685D01*
X112063052Y-148257685D02*
X112090060Y-148257642D01*
X112090060Y-148257642D02*
X112133587Y-148242099D01*
X112133587Y-148242099D02*
X112197110Y-148210284D01*
X112197110Y-148210284D02*
X112197612Y-148210013D01*
X112197612Y-148210013D02*
X112245440Y-148185323D01*
X112245440Y-148185323D02*
X112284103Y-148167338D01*
X112284103Y-148167338D02*
X112305905Y-148159614D01*
X112305905Y-148159614D02*
X112306867Y-148159543D01*
X112306867Y-148159543D02*
X112323279Y-148167378D01*
X112323279Y-148167378D02*
X112359513Y-148189165D01*
X112359513Y-148189165D02*
X112411526Y-148222328D01*
X112411526Y-148222328D02*
X112475275Y-148264291D01*
X112475275Y-148264291D02*
X112545940Y-148311943D01*
X112545940Y-148311943D02*
X112617884Y-148360191D01*
X112617884Y-148360191D02*
X112682726Y-148402151D01*
X112682726Y-148402151D02*
X112736265Y-148435227D01*
X112736265Y-148435227D02*
X112774303Y-148456821D01*
X112774303Y-148456821D02*
X112792467Y-148464343D01*
X112792467Y-148464343D02*
X112809192Y-148454457D01*
X112809192Y-148454457D02*
X112842820Y-148426826D01*
X112842820Y-148426826D02*
X112889990Y-148384495D01*
X112889990Y-148384495D02*
X112947342Y-148330505D01*
X112947342Y-148330505D02*
X113011516Y-148267899D01*
X113011516Y-148267899D02*
X113032503Y-148246983D01*
X113032503Y-148246983D02*
X113249501Y-148029623D01*
X113249501Y-148029623D02*
X113084332Y-147787220D01*
X113084332Y-147787220D02*
X113034136Y-147712781D01*
X113034136Y-147712781D02*
X112990081Y-147645972D01*
X112990081Y-147645972D02*
X112954638Y-147590665D01*
X112954638Y-147590665D02*
X112930281Y-147550729D01*
X112930281Y-147550729D02*
X112919478Y-147530036D01*
X112919478Y-147530036D02*
X112919162Y-147528563D01*
X112919162Y-147528563D02*
X112924857Y-147509058D01*
X112924857Y-147509058D02*
X112940174Y-147469822D01*
X112940174Y-147469822D02*
X112962463Y-147417430D01*
X112962463Y-147417430D02*
X112978107Y-147382355D01*
X112978107Y-147382355D02*
X113007359Y-147315201D01*
X113007359Y-147315201D02*
X113034906Y-147247358D01*
X113034906Y-147247358D02*
X113056263Y-147190034D01*
X113056263Y-147190034D02*
X113062065Y-147172572D01*
X113062065Y-147172572D02*
X113078548Y-147125938D01*
X113078548Y-147125938D02*
X113094660Y-147089905D01*
X113094660Y-147089905D02*
X113103510Y-147076287D01*
X113103510Y-147076287D02*
X113123040Y-147067952D01*
X113123040Y-147067952D02*
X113165666Y-147056137D01*
X113165666Y-147056137D02*
X113225855Y-147042181D01*
X113225855Y-147042181D02*
X113298078Y-147027422D01*
X113298078Y-147027422D02*
X113330400Y-147021355D01*
X113330400Y-147021355D02*
X113412478Y-147006273D01*
X113412478Y-147006273D02*
X113491205Y-146991669D01*
X113491205Y-146991669D02*
X113558891Y-146978980D01*
X113558891Y-146978980D02*
X113607840Y-146969642D01*
X113607840Y-146969642D02*
X113617057Y-146967839D01*
X113617057Y-146967839D02*
X113693257Y-146952799D01*
X113693257Y-146952799D02*
X113693257Y-146635492D01*
X113693257Y-146635492D02*
X113693086Y-146531154D01*
X113693086Y-146531154D02*
X113692384Y-146452213D01*
X113692384Y-146452213D02*
X113690866Y-146395038D01*
X113690866Y-146395038D02*
X113688251Y-146355999D01*
X113688251Y-146355999D02*
X113684254Y-146331465D01*
X113684254Y-146331465D02*
X113678591Y-146317805D01*
X113678591Y-146317805D02*
X113670980Y-146311389D01*
X113670980Y-146311389D02*
X113667857Y-146310199D01*
X113667857Y-146310199D02*
X113649022Y-146305980D01*
X113649022Y-146305980D02*
X113607412Y-146297562D01*
X113607412Y-146297562D02*
X113548370Y-146285961D01*
X113548370Y-146285961D02*
X113477243Y-146272195D01*
X113477243Y-146272195D02*
X113399375Y-146257280D01*
X113399375Y-146257280D02*
X113320113Y-146242232D01*
X113320113Y-146242232D02*
X113244802Y-146228069D01*
X113244802Y-146228069D02*
X113178787Y-146215806D01*
X113178787Y-146215806D02*
X113127413Y-146206461D01*
X113127413Y-146206461D02*
X113096025Y-146201050D01*
X113096025Y-146201050D02*
X113089041Y-146200114D01*
X113089041Y-146200114D02*
X113082715Y-146187596D01*
X113082715Y-146187596D02*
X113068710Y-146154246D01*
X113068710Y-146154246D02*
X113049645Y-146106377D01*
X113049645Y-146106377D02*
X113042366Y-146087629D01*
X113042366Y-146087629D02*
X113013004Y-146015195D01*
X113013004Y-146015195D02*
X112978429Y-145935170D01*
X112978429Y-145935170D02*
X112947463Y-145867728D01*
X112947463Y-145867728D02*
X112924677Y-145816159D01*
X112924677Y-145816159D02*
X112909518Y-145773785D01*
X112909518Y-145773785D02*
X112904458Y-145747834D01*
X112904458Y-145747834D02*
X112905264Y-145744356D01*
X112905264Y-145744356D02*
X112915959Y-145727936D01*
X112915959Y-145727936D02*
X112940380Y-145691417D01*
X112940380Y-145691417D02*
X112975905Y-145638687D01*
X112975905Y-145638687D02*
X113019913Y-145573635D01*
X113019913Y-145573635D02*
X113069783Y-145500151D01*
X113069783Y-145500151D02*
X113079644Y-145485645D01*
X113079644Y-145485645D02*
X113137508Y-145399704D01*
X113137508Y-145399704D02*
X113180044Y-145334261D01*
X113180044Y-145334261D02*
X113208946Y-145286304D01*
X113208946Y-145286304D02*
X113225910Y-145252820D01*
X113225910Y-145252820D02*
X113232633Y-145230795D01*
X113232633Y-145230795D02*
X113230810Y-145217217D01*
X113230810Y-145217217D02*
X113230764Y-145217131D01*
X113230764Y-145217131D02*
X113216414Y-145199297D01*
X113216414Y-145199297D02*
X113184677Y-145164817D01*
X113184677Y-145164817D02*
X113138990Y-145117268D01*
X113138990Y-145117268D02*
X113082796Y-145060222D01*
X113082796Y-145060222D02*
X113019532Y-144997255D01*
X113019532Y-144997255D02*
X113012398Y-144990227D01*
X113012398Y-144990227D02*
X112932670Y-144913020D01*
X112932670Y-144913020D02*
X112871143Y-144856330D01*
X112871143Y-144856330D02*
X112826579Y-144819110D01*
X112826579Y-144819110D02*
X112797743Y-144800315D01*
X112797743Y-144800315D02*
X112785042Y-144797889D01*
X112785042Y-144797889D02*
X112766506Y-144808471D01*
X112766506Y-144808471D02*
X112728039Y-144832916D01*
X112728039Y-144832916D02*
X112673614Y-144868612D01*
X112673614Y-144868612D02*
X112607202Y-144912947D01*
X112607202Y-144912947D02*
X112532775Y-144963311D01*
X112532775Y-144963311D02*
X112515399Y-144975160D01*
X112515399Y-144975160D02*
X112268703Y-145143626D01*
X112268703Y-145143626D02*
X112157294Y-145093062D01*
X112157294Y-145093062D02*
X112089543Y-145063595D01*
X112089543Y-145063595D02*
X112016817Y-145033959D01*
X112016817Y-145033959D02*
X111954297Y-145010330D01*
X111954297Y-145010330D02*
X111951543Y-145009358D01*
X111951543Y-145009358D02*
X111902640Y-144991457D01*
X111902640Y-144991457D02*
X111864943Y-144976320D01*
X111864943Y-144976320D02*
X111846575Y-144967210D01*
X111846575Y-144967210D02*
X111846544Y-144967184D01*
X111846544Y-144967184D02*
X111840715Y-144950717D01*
X111840715Y-144950717D02*
X111830808Y-144910219D01*
X111830808Y-144910219D02*
X111817805Y-144850242D01*
X111817805Y-144850242D02*
X111802691Y-144775340D01*
X111802691Y-144775340D02*
X111786448Y-144690064D01*
X111786448Y-144690064D02*
X111785119Y-144682875D01*
X111785119Y-144682875D02*
X111768825Y-144595014D01*
X111768825Y-144595014D02*
X111753867Y-144515260D01*
X111753867Y-144515260D02*
X111741209Y-144448681D01*
X111741209Y-144448681D02*
X111731814Y-144400347D01*
X111731814Y-144400347D02*
X111726646Y-144375325D01*
X111726646Y-144375325D02*
X111726556Y-144374943D01*
X111726556Y-144374943D02*
X111723411Y-144364299D01*
X111723411Y-144364299D02*
X111717296Y-144356262D01*
X111717296Y-144356262D02*
X111704547Y-144350467D01*
X111704547Y-144350467D02*
X111681500Y-144346547D01*
X111681500Y-144346547D02*
X111644491Y-144344135D01*
X111644491Y-144344135D02*
X111589856Y-144342865D01*
X111589856Y-144342865D02*
X111513933Y-144342371D01*
X111513933Y-144342371D02*
X111413056Y-144342286D01*
X111413056Y-144342286D02*
X111400000Y-144342286D01*
X111400000Y-144342286D02*
X111296090Y-144342348D01*
X111296090Y-144342348D02*
X111296090Y-144342348D01*
G36*
X111513933Y-144342371D02*
G01*
X111589856Y-144342865D01*
X111644491Y-144344135D01*
X111681500Y-144346547D01*
X111704547Y-144350467D01*
X111717296Y-144356262D01*
X111723411Y-144364299D01*
X111726556Y-144374943D01*
X111726646Y-144375325D01*
X111731814Y-144400347D01*
X111741209Y-144448681D01*
X111753867Y-144515260D01*
X111768825Y-144595014D01*
X111785119Y-144682875D01*
X111786448Y-144690064D01*
X111802691Y-144775340D01*
X111817805Y-144850242D01*
X111830808Y-144910219D01*
X111840715Y-144950717D01*
X111846544Y-144967184D01*
X111846575Y-144967210D01*
X111864943Y-144976320D01*
X111902640Y-144991457D01*
X111951543Y-145009358D01*
X111954297Y-145010330D01*
X112016817Y-145033959D01*
X112089543Y-145063595D01*
X112157294Y-145093062D01*
X112268703Y-145143626D01*
X112515399Y-144975160D01*
X112532775Y-144963311D01*
X112607202Y-144912947D01*
X112673614Y-144868612D01*
X112728039Y-144832916D01*
X112766506Y-144808471D01*
X112785042Y-144797889D01*
X112797743Y-144800315D01*
X112826579Y-144819110D01*
X112871143Y-144856330D01*
X112932670Y-144913020D01*
X113012398Y-144990227D01*
X113019532Y-144997255D01*
X113082796Y-145060222D01*
X113138990Y-145117268D01*
X113184677Y-145164817D01*
X113216414Y-145199297D01*
X113230764Y-145217131D01*
X113230810Y-145217217D01*
X113232633Y-145230795D01*
X113225910Y-145252820D01*
X113208946Y-145286304D01*
X113180044Y-145334261D01*
X113137508Y-145399704D01*
X113079644Y-145485645D01*
X113069783Y-145500151D01*
X113019913Y-145573635D01*
X112975905Y-145638687D01*
X112940380Y-145691417D01*
X112915959Y-145727936D01*
X112905264Y-145744356D01*
X112904458Y-145747834D01*
X112909518Y-145773785D01*
X112924677Y-145816159D01*
X112947463Y-145867728D01*
X112978429Y-145935170D01*
X113013004Y-146015195D01*
X113042366Y-146087629D01*
X113049645Y-146106377D01*
X113068710Y-146154246D01*
X113082715Y-146187596D01*
X113089041Y-146200114D01*
X113096025Y-146201050D01*
X113127413Y-146206461D01*
X113178787Y-146215806D01*
X113244802Y-146228069D01*
X113320113Y-146242232D01*
X113399375Y-146257280D01*
X113477243Y-146272195D01*
X113548370Y-146285961D01*
X113607412Y-146297562D01*
X113649022Y-146305980D01*
X113667857Y-146310199D01*
X113670980Y-146311389D01*
X113678591Y-146317805D01*
X113684254Y-146331465D01*
X113688251Y-146355999D01*
X113690866Y-146395038D01*
X113692384Y-146452213D01*
X113693086Y-146531154D01*
X113693257Y-146635492D01*
X113693257Y-146952799D01*
X113617057Y-146967839D01*
X113607840Y-146969642D01*
X113558891Y-146978980D01*
X113491205Y-146991669D01*
X113412478Y-147006273D01*
X113330400Y-147021355D01*
X113298078Y-147027422D01*
X113225855Y-147042181D01*
X113165666Y-147056137D01*
X113123040Y-147067952D01*
X113103510Y-147076287D01*
X113094660Y-147089905D01*
X113078548Y-147125938D01*
X113062065Y-147172572D01*
X113056263Y-147190034D01*
X113034906Y-147247358D01*
X113007359Y-147315201D01*
X112978107Y-147382355D01*
X112962463Y-147417430D01*
X112940174Y-147469822D01*
X112924857Y-147509058D01*
X112919162Y-147528563D01*
X112919478Y-147530036D01*
X112930281Y-147550729D01*
X112954638Y-147590665D01*
X112990081Y-147645972D01*
X113034136Y-147712781D01*
X113084332Y-147787220D01*
X113249501Y-148029623D01*
X113032503Y-148246983D01*
X113011516Y-148267899D01*
X112947342Y-148330505D01*
X112889990Y-148384495D01*
X112842820Y-148426826D01*
X112809192Y-148454457D01*
X112792467Y-148464343D01*
X112774303Y-148456821D01*
X112736265Y-148435227D01*
X112682726Y-148402151D01*
X112617884Y-148360191D01*
X112545940Y-148311943D01*
X112475275Y-148264291D01*
X112411526Y-148222328D01*
X112359513Y-148189165D01*
X112323279Y-148167378D01*
X112306867Y-148159543D01*
X112305905Y-148159614D01*
X112284103Y-148167338D01*
X112245440Y-148185323D01*
X112197612Y-148210013D01*
X112197110Y-148210284D01*
X112133587Y-148242099D01*
X112090060Y-148257642D01*
X112063052Y-148257685D01*
X112049090Y-148243000D01*
X112043180Y-148228544D01*
X112027229Y-148189831D01*
X112002660Y-148130316D01*
X111970779Y-148053165D01*
X111932893Y-147961541D01*
X111890310Y-147858607D01*
X111844337Y-147747526D01*
X111802667Y-147646472D01*
X111760268Y-147542780D01*
X111722756Y-147450119D01*
X111691388Y-147371642D01*
X111667425Y-147310500D01*
X111652123Y-147269843D01*
X111646743Y-147252825D01*
X111657018Y-147237219D01*
X111685563Y-147211162D01*
X111725971Y-147180887D01*
X111822979Y-147101684D01*
X111909793Y-147000475D01*
X111973322Y-146889116D01*
X112013177Y-146770893D01*
X112028965Y-146649095D01*
X112020296Y-146527010D01*
X111986778Y-146407925D01*
X111928021Y-146295129D01*
X111843632Y-146191911D01*
X111799631Y-146151713D01*
X111694211Y-146080638D01*
X111581410Y-146034301D01*
X111464525Y-146011599D01*
X111346853Y-146011428D01*
X111231690Y-146032687D01*
X111122335Y-146074270D01*
X111022083Y-146135076D01*
X110934233Y-146214001D01*
X110862080Y-146309941D01*
X110808922Y-146421795D01*
X110778057Y-146548457D01*
X110772392Y-146609507D01*
X110780185Y-146741776D01*
X110815284Y-146867266D01*
X110876649Y-146983759D01*
X110963243Y-147089039D01*
X111074029Y-147180887D01*
X111112931Y-147209930D01*
X111142104Y-147236272D01*
X111153257Y-147252800D01*
X111148810Y-147267209D01*
X111134378Y-147305815D01*
X111111173Y-147365201D01*
X111080452Y-147442215D01*
X111043474Y-147533703D01*
X111001496Y-147636516D01*
X110955778Y-147747502D01*
X110914178Y-147848072D01*
X110871222Y-147951947D01*
X110832829Y-148044819D01*
X110800305Y-148123525D01*
X110774958Y-148184899D01*
X110758095Y-148225779D01*
X110751025Y-148243000D01*
X110750943Y-148243204D01*
X110736798Y-148257745D01*
X110709659Y-148257579D01*
X110666023Y-148241927D01*
X110602388Y-148210013D01*
X110597379Y-148207326D01*
X110550125Y-148183150D01*
X110512811Y-148166037D01*
X110493133Y-148159543D01*
X110477005Y-148167218D01*
X110440959Y-148188871D01*
X110389092Y-148221928D01*
X110325445Y-148263810D01*
X110254060Y-148311943D01*
X110183724Y-148359131D01*
X110118670Y-148401267D01*
X110064820Y-148434578D01*
X110026374Y-148456469D01*
X110007534Y-148464343D01*
X110004325Y-148463343D01*
X109981954Y-148447584D01*
X109943733Y-148415033D01*
X109893021Y-148368733D01*
X109833181Y-148311726D01*
X109767571Y-148247058D01*
X109550648Y-148029772D01*
X109719601Y-147781253D01*
X109888553Y-147532733D01*
X109837183Y-147421595D01*
X109837031Y-147421266D01*
X109806183Y-147350418D01*
X109774661Y-147271523D01*
X109749266Y-147201600D01*
X109745423Y-147190322D01*
X109726047Y-147137967D01*
X109708574Y-147097283D01*
X109696388Y-147076287D01*
X109691426Y-147073322D01*
X109661634Y-147063375D01*
X109611047Y-147050505D01*
X109545194Y-147036053D01*
X109469600Y-147021355D01*
X109446957Y-147017210D01*
X109365038Y-147002116D01*
X109288600Y-146987899D01*
X109225337Y-146975995D01*
X109182943Y-146967839D01*
X109106743Y-146952799D01*
X109106743Y-146635492D01*
X109106760Y-146596476D01*
X109107082Y-146501292D01*
X109108033Y-146430255D01*
X109109896Y-146379734D01*
X109112955Y-146346098D01*
X109117494Y-146325718D01*
X109123795Y-146314962D01*
X109132143Y-146310199D01*
X109140224Y-146308270D01*
X109173172Y-146301445D01*
X109225736Y-146291022D01*
X109292569Y-146278018D01*
X109368328Y-146263449D01*
X109447665Y-146248333D01*
X109525237Y-146233685D01*
X109595698Y-146220523D01*
X109653702Y-146209863D01*
X109693904Y-146202721D01*
X109710959Y-146200114D01*
X109712112Y-146198541D01*
X109721385Y-146178119D01*
X109737432Y-146139045D01*
X109757635Y-146087629D01*
X109785672Y-146018353D01*
X109820186Y-145938290D01*
X109852538Y-145867728D01*
X109859952Y-145851889D01*
X109880755Y-145802293D01*
X109893219Y-145764038D01*
X109894863Y-145744356D01*
X109894015Y-145742962D01*
X109880548Y-145722420D01*
X109853850Y-145682516D01*
X109816539Y-145627140D01*
X109771234Y-145560177D01*
X109720552Y-145485517D01*
X109663445Y-145400692D01*
X109620607Y-145334800D01*
X109591460Y-145286478D01*
X109574317Y-145252733D01*
X109567495Y-145230572D01*
X109569306Y-145217002D01*
X109569915Y-145215984D01*
X109586297Y-145196210D01*
X109619695Y-145160175D01*
X109666671Y-145111451D01*
X109723786Y-145053612D01*
X109787603Y-144990227D01*
X109853802Y-144925905D01*
X109918648Y-144865447D01*
X109966299Y-144824655D01*
X109997990Y-144802484D01*
X110014958Y-144797889D01*
X110017175Y-144798921D01*
X110040524Y-144812837D01*
X110082912Y-144840030D01*
X110140369Y-144877889D01*
X110208923Y-144923803D01*
X110284601Y-144975160D01*
X110531298Y-145143626D01*
X110642706Y-145093062D01*
X110645943Y-145091597D01*
X110714343Y-145061965D01*
X110786907Y-145032493D01*
X110848457Y-145009358D01*
X110848729Y-145009262D01*
X110897595Y-144991367D01*
X110935212Y-144976253D01*
X110953457Y-144967184D01*
X110953752Y-144966855D01*
X110959946Y-144948282D01*
X110970139Y-144906045D01*
X110983348Y-144844696D01*
X110998590Y-144768789D01*
X111014881Y-144682875D01*
X111015449Y-144679796D01*
X111031713Y-144592128D01*
X111046608Y-144512741D01*
X111059171Y-144446701D01*
X111068438Y-144399079D01*
X111073444Y-144374943D01*
X111073764Y-144373605D01*
X111077060Y-144363273D01*
X111083738Y-144355506D01*
X111097462Y-144349940D01*
X111121895Y-144346207D01*
X111160702Y-144343942D01*
X111217546Y-144342778D01*
X111296090Y-144342348D01*
X111400000Y-144342286D01*
X111413056Y-144342286D01*
X111513933Y-144342371D01*
G37*
X111513933Y-144342371D02*
X111589856Y-144342865D01*
X111644491Y-144344135D01*
X111681500Y-144346547D01*
X111704547Y-144350467D01*
X111717296Y-144356262D01*
X111723411Y-144364299D01*
X111726556Y-144374943D01*
X111726646Y-144375325D01*
X111731814Y-144400347D01*
X111741209Y-144448681D01*
X111753867Y-144515260D01*
X111768825Y-144595014D01*
X111785119Y-144682875D01*
X111786448Y-144690064D01*
X111802691Y-144775340D01*
X111817805Y-144850242D01*
X111830808Y-144910219D01*
X111840715Y-144950717D01*
X111846544Y-144967184D01*
X111846575Y-144967210D01*
X111864943Y-144976320D01*
X111902640Y-144991457D01*
X111951543Y-145009358D01*
X111954297Y-145010330D01*
X112016817Y-145033959D01*
X112089543Y-145063595D01*
X112157294Y-145093062D01*
X112268703Y-145143626D01*
X112515399Y-144975160D01*
X112532775Y-144963311D01*
X112607202Y-144912947D01*
X112673614Y-144868612D01*
X112728039Y-144832916D01*
X112766506Y-144808471D01*
X112785042Y-144797889D01*
X112797743Y-144800315D01*
X112826579Y-144819110D01*
X112871143Y-144856330D01*
X112932670Y-144913020D01*
X113012398Y-144990227D01*
X113019532Y-144997255D01*
X113082796Y-145060222D01*
X113138990Y-145117268D01*
X113184677Y-145164817D01*
X113216414Y-145199297D01*
X113230764Y-145217131D01*
X113230810Y-145217217D01*
X113232633Y-145230795D01*
X113225910Y-145252820D01*
X113208946Y-145286304D01*
X113180044Y-145334261D01*
X113137508Y-145399704D01*
X113079644Y-145485645D01*
X113069783Y-145500151D01*
X113019913Y-145573635D01*
X112975905Y-145638687D01*
X112940380Y-145691417D01*
X112915959Y-145727936D01*
X112905264Y-145744356D01*
X112904458Y-145747834D01*
X112909518Y-145773785D01*
X112924677Y-145816159D01*
X112947463Y-145867728D01*
X112978429Y-145935170D01*
X113013004Y-146015195D01*
X113042366Y-146087629D01*
X113049645Y-146106377D01*
X113068710Y-146154246D01*
X113082715Y-146187596D01*
X113089041Y-146200114D01*
X113096025Y-146201050D01*
X113127413Y-146206461D01*
X113178787Y-146215806D01*
X113244802Y-146228069D01*
X113320113Y-146242232D01*
X113399375Y-146257280D01*
X113477243Y-146272195D01*
X113548370Y-146285961D01*
X113607412Y-146297562D01*
X113649022Y-146305980D01*
X113667857Y-146310199D01*
X113670980Y-146311389D01*
X113678591Y-146317805D01*
X113684254Y-146331465D01*
X113688251Y-146355999D01*
X113690866Y-146395038D01*
X113692384Y-146452213D01*
X113693086Y-146531154D01*
X113693257Y-146635492D01*
X113693257Y-146952799D01*
X113617057Y-146967839D01*
X113607840Y-146969642D01*
X113558891Y-146978980D01*
X113491205Y-146991669D01*
X113412478Y-147006273D01*
X113330400Y-147021355D01*
X113298078Y-147027422D01*
X113225855Y-147042181D01*
X113165666Y-147056137D01*
X113123040Y-147067952D01*
X113103510Y-147076287D01*
X113094660Y-147089905D01*
X113078548Y-147125938D01*
X113062065Y-147172572D01*
X113056263Y-147190034D01*
X113034906Y-147247358D01*
X113007359Y-147315201D01*
X112978107Y-147382355D01*
X112962463Y-147417430D01*
X112940174Y-147469822D01*
X112924857Y-147509058D01*
X112919162Y-147528563D01*
X112919478Y-147530036D01*
X112930281Y-147550729D01*
X112954638Y-147590665D01*
X112990081Y-147645972D01*
X113034136Y-147712781D01*
X113084332Y-147787220D01*
X113249501Y-148029623D01*
X113032503Y-148246983D01*
X113011516Y-148267899D01*
X112947342Y-148330505D01*
X112889990Y-148384495D01*
X112842820Y-148426826D01*
X112809192Y-148454457D01*
X112792467Y-148464343D01*
X112774303Y-148456821D01*
X112736265Y-148435227D01*
X112682726Y-148402151D01*
X112617884Y-148360191D01*
X112545940Y-148311943D01*
X112475275Y-148264291D01*
X112411526Y-148222328D01*
X112359513Y-148189165D01*
X112323279Y-148167378D01*
X112306867Y-148159543D01*
X112305905Y-148159614D01*
X112284103Y-148167338D01*
X112245440Y-148185323D01*
X112197612Y-148210013D01*
X112197110Y-148210284D01*
X112133587Y-148242099D01*
X112090060Y-148257642D01*
X112063052Y-148257685D01*
X112049090Y-148243000D01*
X112043180Y-148228544D01*
X112027229Y-148189831D01*
X112002660Y-148130316D01*
X111970779Y-148053165D01*
X111932893Y-147961541D01*
X111890310Y-147858607D01*
X111844337Y-147747526D01*
X111802667Y-147646472D01*
X111760268Y-147542780D01*
X111722756Y-147450119D01*
X111691388Y-147371642D01*
X111667425Y-147310500D01*
X111652123Y-147269843D01*
X111646743Y-147252825D01*
X111657018Y-147237219D01*
X111685563Y-147211162D01*
X111725971Y-147180887D01*
X111822979Y-147101684D01*
X111909793Y-147000475D01*
X111973322Y-146889116D01*
X112013177Y-146770893D01*
X112028965Y-146649095D01*
X112020296Y-146527010D01*
X111986778Y-146407925D01*
X111928021Y-146295129D01*
X111843632Y-146191911D01*
X111799631Y-146151713D01*
X111694211Y-146080638D01*
X111581410Y-146034301D01*
X111464525Y-146011599D01*
X111346853Y-146011428D01*
X111231690Y-146032687D01*
X111122335Y-146074270D01*
X111022083Y-146135076D01*
X110934233Y-146214001D01*
X110862080Y-146309941D01*
X110808922Y-146421795D01*
X110778057Y-146548457D01*
X110772392Y-146609507D01*
X110780185Y-146741776D01*
X110815284Y-146867266D01*
X110876649Y-146983759D01*
X110963243Y-147089039D01*
X111074029Y-147180887D01*
X111112931Y-147209930D01*
X111142104Y-147236272D01*
X111153257Y-147252800D01*
X111148810Y-147267209D01*
X111134378Y-147305815D01*
X111111173Y-147365201D01*
X111080452Y-147442215D01*
X111043474Y-147533703D01*
X111001496Y-147636516D01*
X110955778Y-147747502D01*
X110914178Y-147848072D01*
X110871222Y-147951947D01*
X110832829Y-148044819D01*
X110800305Y-148123525D01*
X110774958Y-148184899D01*
X110758095Y-148225779D01*
X110751025Y-148243000D01*
X110750943Y-148243204D01*
X110736798Y-148257745D01*
X110709659Y-148257579D01*
X110666023Y-148241927D01*
X110602388Y-148210013D01*
X110597379Y-148207326D01*
X110550125Y-148183150D01*
X110512811Y-148166037D01*
X110493133Y-148159543D01*
X110477005Y-148167218D01*
X110440959Y-148188871D01*
X110389092Y-148221928D01*
X110325445Y-148263810D01*
X110254060Y-148311943D01*
X110183724Y-148359131D01*
X110118670Y-148401267D01*
X110064820Y-148434578D01*
X110026374Y-148456469D01*
X110007534Y-148464343D01*
X110004325Y-148463343D01*
X109981954Y-148447584D01*
X109943733Y-148415033D01*
X109893021Y-148368733D01*
X109833181Y-148311726D01*
X109767571Y-148247058D01*
X109550648Y-148029772D01*
X109719601Y-147781253D01*
X109888553Y-147532733D01*
X109837183Y-147421595D01*
X109837031Y-147421266D01*
X109806183Y-147350418D01*
X109774661Y-147271523D01*
X109749266Y-147201600D01*
X109745423Y-147190322D01*
X109726047Y-147137967D01*
X109708574Y-147097283D01*
X109696388Y-147076287D01*
X109691426Y-147073322D01*
X109661634Y-147063375D01*
X109611047Y-147050505D01*
X109545194Y-147036053D01*
X109469600Y-147021355D01*
X109446957Y-147017210D01*
X109365038Y-147002116D01*
X109288600Y-146987899D01*
X109225337Y-146975995D01*
X109182943Y-146967839D01*
X109106743Y-146952799D01*
X109106743Y-146635492D01*
X109106760Y-146596476D01*
X109107082Y-146501292D01*
X109108033Y-146430255D01*
X109109896Y-146379734D01*
X109112955Y-146346098D01*
X109117494Y-146325718D01*
X109123795Y-146314962D01*
X109132143Y-146310199D01*
X109140224Y-146308270D01*
X109173172Y-146301445D01*
X109225736Y-146291022D01*
X109292569Y-146278018D01*
X109368328Y-146263449D01*
X109447665Y-146248333D01*
X109525237Y-146233685D01*
X109595698Y-146220523D01*
X109653702Y-146209863D01*
X109693904Y-146202721D01*
X109710959Y-146200114D01*
X109712112Y-146198541D01*
X109721385Y-146178119D01*
X109737432Y-146139045D01*
X109757635Y-146087629D01*
X109785672Y-146018353D01*
X109820186Y-145938290D01*
X109852538Y-145867728D01*
X109859952Y-145851889D01*
X109880755Y-145802293D01*
X109893219Y-145764038D01*
X109894863Y-145744356D01*
X109894015Y-145742962D01*
X109880548Y-145722420D01*
X109853850Y-145682516D01*
X109816539Y-145627140D01*
X109771234Y-145560177D01*
X109720552Y-145485517D01*
X109663445Y-145400692D01*
X109620607Y-145334800D01*
X109591460Y-145286478D01*
X109574317Y-145252733D01*
X109567495Y-145230572D01*
X109569306Y-145217002D01*
X109569915Y-145215984D01*
X109586297Y-145196210D01*
X109619695Y-145160175D01*
X109666671Y-145111451D01*
X109723786Y-145053612D01*
X109787603Y-144990227D01*
X109853802Y-144925905D01*
X109918648Y-144865447D01*
X109966299Y-144824655D01*
X109997990Y-144802484D01*
X110014958Y-144797889D01*
X110017175Y-144798921D01*
X110040524Y-144812837D01*
X110082912Y-144840030D01*
X110140369Y-144877889D01*
X110208923Y-144923803D01*
X110284601Y-144975160D01*
X110531298Y-145143626D01*
X110642706Y-145093062D01*
X110645943Y-145091597D01*
X110714343Y-145061965D01*
X110786907Y-145032493D01*
X110848457Y-145009358D01*
X110848729Y-145009262D01*
X110897595Y-144991367D01*
X110935212Y-144976253D01*
X110953457Y-144967184D01*
X110953752Y-144966855D01*
X110959946Y-144948282D01*
X110970139Y-144906045D01*
X110983348Y-144844696D01*
X110998590Y-144768789D01*
X111014881Y-144682875D01*
X111015449Y-144679796D01*
X111031713Y-144592128D01*
X111046608Y-144512741D01*
X111059171Y-144446701D01*
X111068438Y-144399079D01*
X111073444Y-144374943D01*
X111073764Y-144373605D01*
X111077060Y-144363273D01*
X111083738Y-144355506D01*
X111097462Y-144349940D01*
X111121895Y-144346207D01*
X111160702Y-144343942D01*
X111217546Y-144342778D01*
X111296090Y-144342348D01*
X111400000Y-144342286D01*
X111413056Y-144342286D01*
X111513933Y-144342371D01*
X109255124Y-149056335D02*
X109213333Y-149075344D01*
X109213333Y-149075344D02*
X109180531Y-149098378D01*
X109180531Y-149098378D02*
X109156497Y-149124133D01*
X109156497Y-149124133D02*
X109139903Y-149157358D01*
X109139903Y-149157358D02*
X109129423Y-149202800D01*
X109129423Y-149202800D02*
X109123729Y-149265207D01*
X109123729Y-149265207D02*
X109121493Y-149349327D01*
X109121493Y-149349327D02*
X109121257Y-149404721D01*
X109121257Y-149404721D02*
X109121257Y-149620826D01*
X109121257Y-149620826D02*
X109158226Y-149637670D01*
X109158226Y-149637670D02*
X109187344Y-149649981D01*
X109187344Y-149649981D02*
X109201769Y-149654514D01*
X109201769Y-149654514D02*
X109204528Y-149641025D01*
X109204528Y-149641025D02*
X109206718Y-149604653D01*
X109206718Y-149604653D02*
X109208058Y-149551542D01*
X109208058Y-149551542D02*
X109208343Y-149509372D01*
X109208343Y-149509372D02*
X109209566Y-149448447D01*
X109209566Y-149448447D02*
X109212864Y-149400115D01*
X109212864Y-149400115D02*
X109217679Y-149370518D01*
X109217679Y-149370518D02*
X109221504Y-149364229D01*
X109221504Y-149364229D02*
X109247217Y-149370652D01*
X109247217Y-149370652D02*
X109287582Y-149387125D01*
X109287582Y-149387125D02*
X109334321Y-149409458D01*
X109334321Y-149409458D02*
X109379155Y-149433457D01*
X109379155Y-149433457D02*
X109413807Y-149454930D01*
X109413807Y-149454930D02*
X109429998Y-149469685D01*
X109429998Y-149469685D02*
X109430062Y-149469845D01*
X109430062Y-149469845D02*
X109428670Y-149497152D01*
X109428670Y-149497152D02*
X109416182Y-149523219D01*
X109416182Y-149523219D02*
X109394257Y-149544392D01*
X109394257Y-149544392D02*
X109362257Y-149551474D01*
X109362257Y-149551474D02*
X109334908Y-149550649D01*
X109334908Y-149550649D02*
X109296174Y-149550042D01*
X109296174Y-149550042D02*
X109275842Y-149559116D01*
X109275842Y-149559116D02*
X109263631Y-149583092D01*
X109263631Y-149583092D02*
X109262091Y-149587613D01*
X109262091Y-149587613D02*
X109256797Y-149621806D01*
X109256797Y-149621806D02*
X109270953Y-149642568D01*
X109270953Y-149642568D02*
X109307852Y-149652462D01*
X109307852Y-149652462D02*
X109347711Y-149654292D01*
X109347711Y-149654292D02*
X109419438Y-149640727D01*
X109419438Y-149640727D02*
X109456568Y-149621355D01*
X109456568Y-149621355D02*
X109502424Y-149575845D01*
X109502424Y-149575845D02*
X109526744Y-149519983D01*
X109526744Y-149519983D02*
X109528927Y-149460957D01*
X109528927Y-149460957D02*
X109508371Y-149405953D01*
X109508371Y-149405953D02*
X109477451Y-149371486D01*
X109477451Y-149371486D02*
X109446580Y-149352189D01*
X109446580Y-149352189D02*
X109398058Y-149327759D01*
X109398058Y-149327759D02*
X109341515Y-149302985D01*
X109341515Y-149302985D02*
X109332090Y-149299199D01*
X109332090Y-149299199D02*
X109269981Y-149271791D01*
X109269981Y-149271791D02*
X109234178Y-149247634D01*
X109234178Y-149247634D02*
X109222663Y-149223619D01*
X109222663Y-149223619D02*
X109233420Y-149196635D01*
X109233420Y-149196635D02*
X109251886Y-149175543D01*
X109251886Y-149175543D02*
X109295531Y-149149572D01*
X109295531Y-149149572D02*
X109343554Y-149147624D01*
X109343554Y-149147624D02*
X109387594Y-149167637D01*
X109387594Y-149167637D02*
X109419291Y-149207551D01*
X109419291Y-149207551D02*
X109423451Y-149217848D01*
X109423451Y-149217848D02*
X109447673Y-149255724D01*
X109447673Y-149255724D02*
X109483035Y-149283842D01*
X109483035Y-149283842D02*
X109527657Y-149306917D01*
X109527657Y-149306917D02*
X109527657Y-149241485D01*
X109527657Y-149241485D02*
X109525031Y-149201506D01*
X109525031Y-149201506D02*
X109513770Y-149169997D01*
X109513770Y-149169997D02*
X109488801Y-149136378D01*
X109488801Y-149136378D02*
X109464831Y-149110484D01*
X109464831Y-149110484D02*
X109427559Y-149073817D01*
X109427559Y-149073817D02*
X109398599Y-149054121D01*
X109398599Y-149054121D02*
X109367495Y-149046220D01*
X109367495Y-149046220D02*
X109332287Y-149044914D01*
X109332287Y-149044914D02*
X109255124Y-149056335D01*
X109255124Y-149056335D02*
X109255124Y-149056335D01*
G36*
X109367495Y-149046220D02*
G01*
X109398599Y-149054121D01*
X109427559Y-149073817D01*
X109464831Y-149110484D01*
X109488801Y-149136378D01*
X109513770Y-149169997D01*
X109525031Y-149201506D01*
X109527657Y-149241485D01*
X109527657Y-149306917D01*
X109483035Y-149283842D01*
X109447673Y-149255724D01*
X109423451Y-149217848D01*
X109419291Y-149207551D01*
X109387594Y-149167637D01*
X109343554Y-149147624D01*
X109295531Y-149149572D01*
X109251886Y-149175543D01*
X109233420Y-149196635D01*
X109222663Y-149223619D01*
X109234178Y-149247634D01*
X109269981Y-149271791D01*
X109332090Y-149299199D01*
X109341515Y-149302985D01*
X109398058Y-149327759D01*
X109446580Y-149352189D01*
X109477451Y-149371486D01*
X109508371Y-149405953D01*
X109528927Y-149460957D01*
X109526744Y-149519983D01*
X109502424Y-149575845D01*
X109456568Y-149621355D01*
X109419438Y-149640727D01*
X109347711Y-149654292D01*
X109307852Y-149652462D01*
X109270953Y-149642568D01*
X109256797Y-149621806D01*
X109262091Y-149587613D01*
X109263631Y-149583092D01*
X109275842Y-149559116D01*
X109296174Y-149550042D01*
X109334908Y-149550649D01*
X109362257Y-149551474D01*
X109394257Y-149544392D01*
X109416182Y-149523219D01*
X109428670Y-149497152D01*
X109430062Y-149469845D01*
X109429998Y-149469685D01*
X109413807Y-149454930D01*
X109379155Y-149433457D01*
X109334321Y-149409458D01*
X109287582Y-149387125D01*
X109247217Y-149370652D01*
X109221504Y-149364229D01*
X109217679Y-149370518D01*
X109212864Y-149400115D01*
X109209566Y-149448447D01*
X109208343Y-149509372D01*
X109208058Y-149551542D01*
X109206718Y-149604653D01*
X109204528Y-149641025D01*
X109201769Y-149654514D01*
X109187344Y-149649981D01*
X109158226Y-149637670D01*
X109121257Y-149620826D01*
X109121257Y-149404721D01*
X109121493Y-149349327D01*
X109123729Y-149265207D01*
X109129423Y-149202800D01*
X109139903Y-149157358D01*
X109156497Y-149124133D01*
X109180531Y-149098378D01*
X109213333Y-149075344D01*
X109255124Y-149056335D01*
X109332287Y-149044914D01*
X109367495Y-149046220D01*
G37*
X109367495Y-149046220D02*
X109398599Y-149054121D01*
X109427559Y-149073817D01*
X109464831Y-149110484D01*
X109488801Y-149136378D01*
X109513770Y-149169997D01*
X109525031Y-149201506D01*
X109527657Y-149241485D01*
X109527657Y-149306917D01*
X109483035Y-149283842D01*
X109447673Y-149255724D01*
X109423451Y-149217848D01*
X109419291Y-149207551D01*
X109387594Y-149167637D01*
X109343554Y-149147624D01*
X109295531Y-149149572D01*
X109251886Y-149175543D01*
X109233420Y-149196635D01*
X109222663Y-149223619D01*
X109234178Y-149247634D01*
X109269981Y-149271791D01*
X109332090Y-149299199D01*
X109341515Y-149302985D01*
X109398058Y-149327759D01*
X109446580Y-149352189D01*
X109477451Y-149371486D01*
X109508371Y-149405953D01*
X109528927Y-149460957D01*
X109526744Y-149519983D01*
X109502424Y-149575845D01*
X109456568Y-149621355D01*
X109419438Y-149640727D01*
X109347711Y-149654292D01*
X109307852Y-149652462D01*
X109270953Y-149642568D01*
X109256797Y-149621806D01*
X109262091Y-149587613D01*
X109263631Y-149583092D01*
X109275842Y-149559116D01*
X109296174Y-149550042D01*
X109334908Y-149550649D01*
X109362257Y-149551474D01*
X109394257Y-149544392D01*
X109416182Y-149523219D01*
X109428670Y-149497152D01*
X109430062Y-149469845D01*
X109429998Y-149469685D01*
X109413807Y-149454930D01*
X109379155Y-149433457D01*
X109334321Y-149409458D01*
X109287582Y-149387125D01*
X109247217Y-149370652D01*
X109221504Y-149364229D01*
X109217679Y-149370518D01*
X109212864Y-149400115D01*
X109209566Y-149448447D01*
X109208343Y-149509372D01*
X109208058Y-149551542D01*
X109206718Y-149604653D01*
X109204528Y-149641025D01*
X109201769Y-149654514D01*
X109187344Y-149649981D01*
X109158226Y-149637670D01*
X109121257Y-149620826D01*
X109121257Y-149404721D01*
X109121493Y-149349327D01*
X109123729Y-149265207D01*
X109129423Y-149202800D01*
X109139903Y-149157358D01*
X109156497Y-149124133D01*
X109180531Y-149098378D01*
X109213333Y-149075344D01*
X109255124Y-149056335D01*
X109332287Y-149044914D01*
X109367495Y-149046220D01*
X113231697Y-149031239D02*
X113174473Y-149069735D01*
X113174473Y-149069735D02*
X113130251Y-149125335D01*
X113130251Y-149125335D02*
X113103833Y-149196086D01*
X113103833Y-149196086D02*
X113098490Y-149248162D01*
X113098490Y-149248162D02*
X113099097Y-149269893D01*
X113099097Y-149269893D02*
X113104178Y-149286531D01*
X113104178Y-149286531D02*
X113118145Y-149301437D01*
X113118145Y-149301437D02*
X113145411Y-149317973D01*
X113145411Y-149317973D02*
X113190388Y-149339498D01*
X113190388Y-149339498D02*
X113257489Y-149369374D01*
X113257489Y-149369374D02*
X113257829Y-149369524D01*
X113257829Y-149369524D02*
X113319593Y-149397813D01*
X113319593Y-149397813D02*
X113370241Y-149422933D01*
X113370241Y-149422933D02*
X113404596Y-149442179D01*
X113404596Y-149442179D02*
X113417482Y-149452848D01*
X113417482Y-149452848D02*
X113417486Y-149452934D01*
X113417486Y-149452934D02*
X113406128Y-149476166D01*
X113406128Y-149476166D02*
X113379569Y-149501774D01*
X113379569Y-149501774D02*
X113349077Y-149520221D01*
X113349077Y-149520221D02*
X113333630Y-149523886D01*
X113333630Y-149523886D02*
X113291485Y-149511212D01*
X113291485Y-149511212D02*
X113255192Y-149479471D01*
X113255192Y-149479471D02*
X113237483Y-149444572D01*
X113237483Y-149444572D02*
X113220448Y-149418845D01*
X113220448Y-149418845D02*
X113187078Y-149389546D01*
X113187078Y-149389546D02*
X113147851Y-149364235D01*
X113147851Y-149364235D02*
X113113244Y-149350471D01*
X113113244Y-149350471D02*
X113106007Y-149349714D01*
X113106007Y-149349714D02*
X113097861Y-149362160D01*
X113097861Y-149362160D02*
X113097370Y-149393972D01*
X113097370Y-149393972D02*
X113103357Y-149436866D01*
X113103357Y-149436866D02*
X113114643Y-149482558D01*
X113114643Y-149482558D02*
X113130050Y-149522761D01*
X113130050Y-149522761D02*
X113130829Y-149524322D01*
X113130829Y-149524322D02*
X113177196Y-149589062D01*
X113177196Y-149589062D02*
X113237289Y-149633097D01*
X113237289Y-149633097D02*
X113305535Y-149654711D01*
X113305535Y-149654711D02*
X113376362Y-149652185D01*
X113376362Y-149652185D02*
X113444196Y-149623804D01*
X113444196Y-149623804D02*
X113447212Y-149621808D01*
X113447212Y-149621808D02*
X113500573Y-149573448D01*
X113500573Y-149573448D02*
X113535660Y-149510352D01*
X113535660Y-149510352D02*
X113555078Y-149427387D01*
X113555078Y-149427387D02*
X113557684Y-149404078D01*
X113557684Y-149404078D02*
X113562299Y-149294055D01*
X113562299Y-149294055D02*
X113556767Y-149242748D01*
X113556767Y-149242748D02*
X113417486Y-149242748D01*
X113417486Y-149242748D02*
X113415676Y-149274753D01*
X113415676Y-149274753D02*
X113405778Y-149284093D01*
X113405778Y-149284093D02*
X113381102Y-149277105D01*
X113381102Y-149277105D02*
X113342205Y-149260587D01*
X113342205Y-149260587D02*
X113298725Y-149239881D01*
X113298725Y-149239881D02*
X113297644Y-149239333D01*
X113297644Y-149239333D02*
X113260791Y-149219949D01*
X113260791Y-149219949D02*
X113246000Y-149207013D01*
X113246000Y-149207013D02*
X113249647Y-149193451D01*
X113249647Y-149193451D02*
X113265005Y-149175632D01*
X113265005Y-149175632D02*
X113304077Y-149149845D01*
X113304077Y-149149845D02*
X113346154Y-149147950D01*
X113346154Y-149147950D02*
X113383897Y-149166717D01*
X113383897Y-149166717D02*
X113409966Y-149202915D01*
X113409966Y-149202915D02*
X113417486Y-149242748D01*
X113417486Y-149242748D02*
X113556767Y-149242748D01*
X113556767Y-149242748D02*
X113552806Y-149206027D01*
X113552806Y-149206027D02*
X113528450Y-149136212D01*
X113528450Y-149136212D02*
X113494544Y-149087302D01*
X113494544Y-149087302D02*
X113433347Y-149037878D01*
X113433347Y-149037878D02*
X113365937Y-149013359D01*
X113365937Y-149013359D02*
X113297120Y-149011797D01*
X113297120Y-149011797D02*
X113231697Y-149031239D01*
X113231697Y-149031239D02*
X113231697Y-149031239D01*
G36*
X113557684Y-149404078D02*
G01*
X113555078Y-149427387D01*
X113535660Y-149510352D01*
X113500573Y-149573448D01*
X113447212Y-149621808D01*
X113444196Y-149623804D01*
X113376362Y-149652185D01*
X113305535Y-149654711D01*
X113237289Y-149633097D01*
X113177196Y-149589062D01*
X113130829Y-149524322D01*
X113130050Y-149522761D01*
X113114643Y-149482558D01*
X113103357Y-149436866D01*
X113097370Y-149393972D01*
X113097861Y-149362160D01*
X113106007Y-149349714D01*
X113113244Y-149350471D01*
X113147851Y-149364235D01*
X113187078Y-149389546D01*
X113220448Y-149418845D01*
X113237483Y-149444572D01*
X113255192Y-149479471D01*
X113291485Y-149511212D01*
X113333630Y-149523886D01*
X113349077Y-149520221D01*
X113379569Y-149501774D01*
X113406128Y-149476166D01*
X113417486Y-149452934D01*
X113417482Y-149452848D01*
X113404596Y-149442179D01*
X113370241Y-149422933D01*
X113319593Y-149397813D01*
X113257829Y-149369524D01*
X113257489Y-149369374D01*
X113190388Y-149339498D01*
X113145411Y-149317973D01*
X113118145Y-149301437D01*
X113104178Y-149286531D01*
X113099097Y-149269893D01*
X113098490Y-149248162D01*
X113102712Y-149207013D01*
X113246000Y-149207013D01*
X113260791Y-149219949D01*
X113297644Y-149239333D01*
X113298725Y-149239881D01*
X113342205Y-149260587D01*
X113381102Y-149277105D01*
X113405778Y-149284093D01*
X113415676Y-149274753D01*
X113417486Y-149242748D01*
X113409966Y-149202915D01*
X113383897Y-149166717D01*
X113346154Y-149147950D01*
X113304077Y-149149845D01*
X113265005Y-149175632D01*
X113249647Y-149193451D01*
X113246000Y-149207013D01*
X113102712Y-149207013D01*
X113103833Y-149196086D01*
X113130251Y-149125335D01*
X113174473Y-149069735D01*
X113231697Y-149031239D01*
X113297120Y-149011797D01*
X113365937Y-149013359D01*
X113433347Y-149037878D01*
X113494544Y-149087302D01*
X113528450Y-149136212D01*
X113552806Y-149206027D01*
X113556767Y-149242748D01*
X113562299Y-149294055D01*
X113557684Y-149404078D01*
G37*
X113557684Y-149404078D02*
X113555078Y-149427387D01*
X113535660Y-149510352D01*
X113500573Y-149573448D01*
X113447212Y-149621808D01*
X113444196Y-149623804D01*
X113376362Y-149652185D01*
X113305535Y-149654711D01*
X113237289Y-149633097D01*
X113177196Y-149589062D01*
X113130829Y-149524322D01*
X113130050Y-149522761D01*
X113114643Y-149482558D01*
X113103357Y-149436866D01*
X113097370Y-149393972D01*
X113097861Y-149362160D01*
X113106007Y-149349714D01*
X113113244Y-149350471D01*
X113147851Y-149364235D01*
X113187078Y-149389546D01*
X113220448Y-149418845D01*
X113237483Y-149444572D01*
X113255192Y-149479471D01*
X113291485Y-149511212D01*
X113333630Y-149523886D01*
X113349077Y-149520221D01*
X113379569Y-149501774D01*
X113406128Y-149476166D01*
X113417486Y-149452934D01*
X113417482Y-149452848D01*
X113404596Y-149442179D01*
X113370241Y-149422933D01*
X113319593Y-149397813D01*
X113257829Y-149369524D01*
X113257489Y-149369374D01*
X113190388Y-149339498D01*
X113145411Y-149317973D01*
X113118145Y-149301437D01*
X113104178Y-149286531D01*
X113099097Y-149269893D01*
X113098490Y-149248162D01*
X113102712Y-149207013D01*
X113246000Y-149207013D01*
X113260791Y-149219949D01*
X113297644Y-149239333D01*
X113298725Y-149239881D01*
X113342205Y-149260587D01*
X113381102Y-149277105D01*
X113405778Y-149284093D01*
X113415676Y-149274753D01*
X113417486Y-149242748D01*
X113409966Y-149202915D01*
X113383897Y-149166717D01*
X113346154Y-149147950D01*
X113304077Y-149149845D01*
X113265005Y-149175632D01*
X113249647Y-149193451D01*
X113246000Y-149207013D01*
X113102712Y-149207013D01*
X113103833Y-149196086D01*
X113130251Y-149125335D01*
X113174473Y-149069735D01*
X113231697Y-149031239D01*
X113297120Y-149011797D01*
X113365937Y-149013359D01*
X113433347Y-149037878D01*
X113494544Y-149087302D01*
X113528450Y-149136212D01*
X113552806Y-149206027D01*
X113556767Y-149242748D01*
X113562299Y-149294055D01*
X113557684Y-149404078D01*
X110870074Y-149049755D02*
X110804142Y-149074084D01*
X110804142Y-149074084D02*
X110750727Y-149117117D01*
X110750727Y-149117117D02*
X110729836Y-149147409D01*
X110729836Y-149147409D02*
X110707061Y-149202994D01*
X110707061Y-149202994D02*
X110707534Y-149243186D01*
X110707534Y-149243186D02*
X110731438Y-149270217D01*
X110731438Y-149270217D02*
X110740283Y-149274813D01*
X110740283Y-149274813D02*
X110778470Y-149289144D01*
X110778470Y-149289144D02*
X110797972Y-149285472D01*
X110797972Y-149285472D02*
X110804578Y-149261407D01*
X110804578Y-149261407D02*
X110804914Y-149248114D01*
X110804914Y-149248114D02*
X110817008Y-149199210D01*
X110817008Y-149199210D02*
X110848529Y-149164999D01*
X110848529Y-149164999D02*
X110892341Y-149148476D01*
X110892341Y-149148476D02*
X110941305Y-149152634D01*
X110941305Y-149152634D02*
X110981106Y-149174227D01*
X110981106Y-149174227D02*
X110994550Y-149186544D01*
X110994550Y-149186544D02*
X111004079Y-149201487D01*
X111004079Y-149201487D02*
X111010515Y-149224075D01*
X111010515Y-149224075D02*
X111014683Y-149259328D01*
X111014683Y-149259328D02*
X111017403Y-149312266D01*
X111017403Y-149312266D02*
X111019498Y-149387907D01*
X111019498Y-149387907D02*
X111020040Y-149411857D01*
X111020040Y-149411857D02*
X111022019Y-149493790D01*
X111022019Y-149493790D02*
X111024269Y-149551455D01*
X111024269Y-149551455D02*
X111027643Y-149589608D01*
X111027643Y-149589608D02*
X111032994Y-149613004D01*
X111032994Y-149613004D02*
X111041176Y-149626398D01*
X111041176Y-149626398D02*
X111053041Y-149634545D01*
X111053041Y-149634545D02*
X111060638Y-149638144D01*
X111060638Y-149638144D02*
X111092898Y-149650452D01*
X111092898Y-149650452D02*
X111111889Y-149654514D01*
X111111889Y-149654514D02*
X111118164Y-149640948D01*
X111118164Y-149640948D02*
X111121994Y-149599934D01*
X111121994Y-149599934D02*
X111123400Y-149530999D01*
X111123400Y-149530999D02*
X111122402Y-149433669D01*
X111122402Y-149433669D02*
X111122092Y-149418657D01*
X111122092Y-149418657D02*
X111119899Y-149329859D01*
X111119899Y-149329859D02*
X111117307Y-149265019D01*
X111117307Y-149265019D02*
X111113618Y-149219067D01*
X111113618Y-149219067D02*
X111108136Y-149186935D01*
X111108136Y-149186935D02*
X111100165Y-149163553D01*
X111100165Y-149163553D02*
X111089007Y-149143852D01*
X111089007Y-149143852D02*
X111083170Y-149135410D01*
X111083170Y-149135410D02*
X111049704Y-149098057D01*
X111049704Y-149098057D02*
X111012273Y-149069003D01*
X111012273Y-149069003D02*
X111007691Y-149066467D01*
X111007691Y-149066467D02*
X110940574Y-149046443D01*
X110940574Y-149046443D02*
X110870074Y-149049755D01*
X110870074Y-149049755D02*
X110870074Y-149049755D01*
G36*
X111007691Y-149066467D02*
G01*
X111012273Y-149069003D01*
X111049704Y-149098057D01*
X111083170Y-149135410D01*
X111089007Y-149143852D01*
X111100165Y-149163553D01*
X111108136Y-149186935D01*
X111113618Y-149219067D01*
X111117307Y-149265019D01*
X111119899Y-149329859D01*
X111122092Y-149418657D01*
X111122402Y-149433669D01*
X111123400Y-149530999D01*
X111121994Y-149599934D01*
X111118164Y-149640948D01*
X111111889Y-149654514D01*
X111092898Y-149650452D01*
X111060638Y-149638144D01*
X111053041Y-149634545D01*
X111041176Y-149626398D01*
X111032994Y-149613004D01*
X111027643Y-149589608D01*
X111024269Y-149551455D01*
X111022019Y-149493790D01*
X111020040Y-149411857D01*
X111019498Y-149387907D01*
X111017403Y-149312266D01*
X111014683Y-149259328D01*
X111010515Y-149224075D01*
X111004079Y-149201487D01*
X110994550Y-149186544D01*
X110981106Y-149174227D01*
X110941305Y-149152634D01*
X110892341Y-149148476D01*
X110848529Y-149164999D01*
X110817008Y-149199210D01*
X110804914Y-149248114D01*
X110804578Y-149261407D01*
X110797972Y-149285472D01*
X110778470Y-149289144D01*
X110740283Y-149274813D01*
X110731438Y-149270217D01*
X110707534Y-149243186D01*
X110707061Y-149202994D01*
X110729836Y-149147409D01*
X110750727Y-149117117D01*
X110804142Y-149074084D01*
X110870074Y-149049755D01*
X110940574Y-149046443D01*
X111007691Y-149066467D01*
G37*
X111007691Y-149066467D02*
X111012273Y-149069003D01*
X111049704Y-149098057D01*
X111083170Y-149135410D01*
X111089007Y-149143852D01*
X111100165Y-149163553D01*
X111108136Y-149186935D01*
X111113618Y-149219067D01*
X111117307Y-149265019D01*
X111119899Y-149329859D01*
X111122092Y-149418657D01*
X111122402Y-149433669D01*
X111123400Y-149530999D01*
X111121994Y-149599934D01*
X111118164Y-149640948D01*
X111111889Y-149654514D01*
X111092898Y-149650452D01*
X111060638Y-149638144D01*
X111053041Y-149634545D01*
X111041176Y-149626398D01*
X111032994Y-149613004D01*
X111027643Y-149589608D01*
X111024269Y-149551455D01*
X111022019Y-149493790D01*
X111020040Y-149411857D01*
X111019498Y-149387907D01*
X111017403Y-149312266D01*
X111014683Y-149259328D01*
X111010515Y-149224075D01*
X111004079Y-149201487D01*
X110994550Y-149186544D01*
X110981106Y-149174227D01*
X110941305Y-149152634D01*
X110892341Y-149148476D01*
X110848529Y-149164999D01*
X110817008Y-149199210D01*
X110804914Y-149248114D01*
X110804578Y-149261407D01*
X110797972Y-149285472D01*
X110778470Y-149289144D01*
X110740283Y-149274813D01*
X110731438Y-149270217D01*
X110707534Y-149243186D01*
X110707061Y-149202994D01*
X110729836Y-149147409D01*
X110750727Y-149117117D01*
X110804142Y-149074084D01*
X110870074Y-149049755D01*
X110940574Y-149046443D01*
X111007691Y-149066467D01*
X113800256Y-149019918D02*
X113744799Y-149047568D01*
X113744799Y-149047568D02*
X113695852Y-149098480D01*
X113695852Y-149098480D02*
X113682371Y-149117338D01*
X113682371Y-149117338D02*
X113667686Y-149142015D01*
X113667686Y-149142015D02*
X113658158Y-149168816D01*
X113658158Y-149168816D02*
X113652707Y-149204587D01*
X113652707Y-149204587D02*
X113650253Y-149256169D01*
X113650253Y-149256169D02*
X113649714Y-149324267D01*
X113649714Y-149324267D02*
X113652148Y-149417588D01*
X113652148Y-149417588D02*
X113660606Y-149487657D01*
X113660606Y-149487657D02*
X113676826Y-149539931D01*
X113676826Y-149539931D02*
X113702546Y-149579869D01*
X113702546Y-149579869D02*
X113739503Y-149612929D01*
X113739503Y-149612929D02*
X113742218Y-149614886D01*
X113742218Y-149614886D02*
X113778640Y-149634908D01*
X113778640Y-149634908D02*
X113822498Y-149644815D01*
X113822498Y-149644815D02*
X113878276Y-149647257D01*
X113878276Y-149647257D02*
X113968952Y-149647257D01*
X113968952Y-149647257D02*
X113968990Y-149735283D01*
X113968990Y-149735283D02*
X113969834Y-149784308D01*
X113969834Y-149784308D02*
X113974976Y-149813065D01*
X113974976Y-149813065D02*
X113988413Y-149830311D01*
X113988413Y-149830311D02*
X114014142Y-149844808D01*
X114014142Y-149844808D02*
X114020321Y-149847769D01*
X114020321Y-149847769D02*
X114049236Y-149861648D01*
X114049236Y-149861648D02*
X114071624Y-149870414D01*
X114071624Y-149870414D02*
X114088271Y-149871171D01*
X114088271Y-149871171D02*
X114099964Y-149861023D01*
X114099964Y-149861023D02*
X114107490Y-149837073D01*
X114107490Y-149837073D02*
X114111634Y-149796426D01*
X114111634Y-149796426D02*
X114113185Y-149736186D01*
X114113185Y-149736186D02*
X114112929Y-149653455D01*
X114112929Y-149653455D02*
X114111651Y-149545339D01*
X114111651Y-149545339D02*
X114111252Y-149513000D01*
X114111252Y-149513000D02*
X114109815Y-149401524D01*
X114109815Y-149401524D02*
X114108528Y-149328603D01*
X114108528Y-149328603D02*
X113969029Y-149328603D01*
X113969029Y-149328603D02*
X113968245Y-149390499D01*
X113968245Y-149390499D02*
X113964760Y-149430997D01*
X113964760Y-149430997D02*
X113956876Y-149457708D01*
X113956876Y-149457708D02*
X113942895Y-149478244D01*
X113942895Y-149478244D02*
X113933403Y-149488260D01*
X113933403Y-149488260D02*
X113894596Y-149517567D01*
X113894596Y-149517567D02*
X113860237Y-149519952D01*
X113860237Y-149519952D02*
X113824784Y-149495750D01*
X113824784Y-149495750D02*
X113823886Y-149494857D01*
X113823886Y-149494857D02*
X113809461Y-149476153D01*
X113809461Y-149476153D02*
X113800687Y-149450732D01*
X113800687Y-149450732D02*
X113796261Y-149411584D01*
X113796261Y-149411584D02*
X113794882Y-149351697D01*
X113794882Y-149351697D02*
X113794857Y-149338430D01*
X113794857Y-149338430D02*
X113798188Y-149255901D01*
X113798188Y-149255901D02*
X113809031Y-149198691D01*
X113809031Y-149198691D02*
X113828660Y-149163766D01*
X113828660Y-149163766D02*
X113858350Y-149148094D01*
X113858350Y-149148094D02*
X113875509Y-149146514D01*
X113875509Y-149146514D02*
X113916234Y-149153926D01*
X113916234Y-149153926D02*
X113944168Y-149178330D01*
X113944168Y-149178330D02*
X113960983Y-149222980D01*
X113960983Y-149222980D02*
X113968350Y-149291130D01*
X113968350Y-149291130D02*
X113969029Y-149328603D01*
X113969029Y-149328603D02*
X114108528Y-149328603D01*
X114108528Y-149328603D02*
X114108292Y-149315245D01*
X114108292Y-149315245D02*
X114106323Y-149250333D01*
X114106323Y-149250333D02*
X114103550Y-149202958D01*
X114103550Y-149202958D02*
X114099612Y-149169290D01*
X114099612Y-149169290D02*
X114094151Y-149145498D01*
X114094151Y-149145498D02*
X114086808Y-149127753D01*
X114086808Y-149127753D02*
X114077223Y-149112224D01*
X114077223Y-149112224D02*
X114073113Y-149106381D01*
X114073113Y-149106381D02*
X114018595Y-149051185D01*
X114018595Y-149051185D02*
X113949664Y-149019890D01*
X113949664Y-149019890D02*
X113869928Y-149011165D01*
X113869928Y-149011165D02*
X113800256Y-149019918D01*
X113800256Y-149019918D02*
X113800256Y-149019918D01*
G36*
X114111252Y-149513000D02*
G01*
X114111651Y-149545339D01*
X114112929Y-149653455D01*
X114113185Y-149736186D01*
X114111634Y-149796426D01*
X114107490Y-149837073D01*
X114099964Y-149861023D01*
X114088271Y-149871171D01*
X114071624Y-149870414D01*
X114049236Y-149861648D01*
X114020321Y-149847769D01*
X114014142Y-149844808D01*
X113988413Y-149830311D01*
X113974976Y-149813065D01*
X113969834Y-149784308D01*
X113968990Y-149735283D01*
X113968952Y-149647257D01*
X113878276Y-149647257D01*
X113822498Y-149644815D01*
X113778640Y-149634908D01*
X113742218Y-149614886D01*
X113739503Y-149612929D01*
X113702546Y-149579869D01*
X113676826Y-149539931D01*
X113660606Y-149487657D01*
X113652148Y-149417588D01*
X113650083Y-149338430D01*
X113794857Y-149338430D01*
X113794882Y-149351697D01*
X113796261Y-149411584D01*
X113800687Y-149450732D01*
X113809461Y-149476153D01*
X113823886Y-149494857D01*
X113824784Y-149495750D01*
X113860237Y-149519952D01*
X113894596Y-149517567D01*
X113933403Y-149488260D01*
X113942895Y-149478244D01*
X113956876Y-149457708D01*
X113964760Y-149430997D01*
X113968245Y-149390499D01*
X113969029Y-149328603D01*
X113968350Y-149291130D01*
X113960983Y-149222980D01*
X113944168Y-149178330D01*
X113916234Y-149153926D01*
X113875509Y-149146514D01*
X113858350Y-149148094D01*
X113828660Y-149163766D01*
X113809031Y-149198691D01*
X113798188Y-149255901D01*
X113794857Y-149338430D01*
X113650083Y-149338430D01*
X113649714Y-149324267D01*
X113650253Y-149256169D01*
X113652707Y-149204587D01*
X113658158Y-149168816D01*
X113667686Y-149142015D01*
X113682371Y-149117338D01*
X113695852Y-149098480D01*
X113744799Y-149047568D01*
X113800256Y-149019918D01*
X113869928Y-149011165D01*
X113949664Y-149019890D01*
X114018595Y-149051185D01*
X114073113Y-149106381D01*
X114077223Y-149112224D01*
X114086808Y-149127753D01*
X114094151Y-149145498D01*
X114099612Y-149169290D01*
X114103550Y-149202958D01*
X114106323Y-149250333D01*
X114108292Y-149315245D01*
X114108528Y-149328603D01*
X114109815Y-149401524D01*
X114111252Y-149513000D01*
G37*
X114111252Y-149513000D02*
X114111651Y-149545339D01*
X114112929Y-149653455D01*
X114113185Y-149736186D01*
X114111634Y-149796426D01*
X114107490Y-149837073D01*
X114099964Y-149861023D01*
X114088271Y-149871171D01*
X114071624Y-149870414D01*
X114049236Y-149861648D01*
X114020321Y-149847769D01*
X114014142Y-149844808D01*
X113988413Y-149830311D01*
X113974976Y-149813065D01*
X113969834Y-149784308D01*
X113968990Y-149735283D01*
X113968952Y-149647257D01*
X113878276Y-149647257D01*
X113822498Y-149644815D01*
X113778640Y-149634908D01*
X113742218Y-149614886D01*
X113739503Y-149612929D01*
X113702546Y-149579869D01*
X113676826Y-149539931D01*
X113660606Y-149487657D01*
X113652148Y-149417588D01*
X113650083Y-149338430D01*
X113794857Y-149338430D01*
X113794882Y-149351697D01*
X113796261Y-149411584D01*
X113800687Y-149450732D01*
X113809461Y-149476153D01*
X113823886Y-149494857D01*
X113824784Y-149495750D01*
X113860237Y-149519952D01*
X113894596Y-149517567D01*
X113933403Y-149488260D01*
X113942895Y-149478244D01*
X113956876Y-149457708D01*
X113964760Y-149430997D01*
X113968245Y-149390499D01*
X113969029Y-149328603D01*
X113968350Y-149291130D01*
X113960983Y-149222980D01*
X113944168Y-149178330D01*
X113916234Y-149153926D01*
X113875509Y-149146514D01*
X113858350Y-149148094D01*
X113828660Y-149163766D01*
X113809031Y-149198691D01*
X113798188Y-149255901D01*
X113794857Y-149338430D01*
X113650083Y-149338430D01*
X113649714Y-149324267D01*
X113650253Y-149256169D01*
X113652707Y-149204587D01*
X113658158Y-149168816D01*
X113667686Y-149142015D01*
X113682371Y-149117338D01*
X113695852Y-149098480D01*
X113744799Y-149047568D01*
X113800256Y-149019918D01*
X113869928Y-149011165D01*
X113949664Y-149019890D01*
X114018595Y-149051185D01*
X114073113Y-149106381D01*
X114077223Y-149112224D01*
X114086808Y-149127753D01*
X114094151Y-149145498D01*
X114099612Y-149169290D01*
X114103550Y-149202958D01*
X114106323Y-149250333D01*
X114108292Y-149315245D01*
X114108528Y-149328603D01*
X114109815Y-149401524D01*
X114111252Y-149513000D01*
%TO.C,G\u002A\u002A\u002A*%
G36*
X97731098Y-150811520D02*
G01*
X94126639Y-150807027D01*
X93981125Y-150773563D01*
X93914898Y-150757500D01*
X93685780Y-150687093D01*
X93476981Y-150597419D01*
X93284879Y-150486464D01*
X93105853Y-150352215D01*
X92936282Y-150192659D01*
X92871488Y-150122412D01*
X92719830Y-149930187D01*
X92596345Y-149727867D01*
X92500766Y-149514788D01*
X92464163Y-149393835D01*
X93923490Y-149393835D01*
X93927545Y-149695796D01*
X93931601Y-149997756D01*
X94074129Y-149999928D01*
X94143860Y-149999872D01*
X94291896Y-149989951D01*
X94369694Y-149975251D01*
X95409391Y-149975251D01*
X96159539Y-149975251D01*
X96309569Y-149975251D01*
X97059716Y-149975251D01*
X97059716Y-147689495D01*
X97164737Y-147689495D01*
X97165696Y-147692776D01*
X97174965Y-147719593D01*
X97193455Y-147771542D01*
X97220397Y-147846501D01*
X97255020Y-147942347D01*
X97296555Y-148056958D01*
X97344233Y-148188213D01*
X97397284Y-148333989D01*
X97454938Y-148492164D01*
X97516426Y-148660615D01*
X97580977Y-148837221D01*
X97997218Y-149975251D01*
X98372383Y-149975233D01*
X98747549Y-149975216D01*
X98964114Y-149269867D01*
X98971019Y-149247401D01*
X99013575Y-149109926D01*
X99053568Y-148982384D01*
X99090121Y-148867458D01*
X99122360Y-148767832D01*
X99149407Y-148686189D01*
X99170387Y-148625213D01*
X99184423Y-148587589D01*
X99190639Y-148575999D01*
X99190797Y-148576224D01*
X99197665Y-148594282D01*
X99212401Y-148638007D01*
X99234105Y-148704576D01*
X99261878Y-148791169D01*
X99294820Y-148894965D01*
X99332031Y-149013143D01*
X99372611Y-149142884D01*
X99415659Y-149281365D01*
X99630720Y-149975251D01*
X100382870Y-149974735D01*
X101212626Y-147687301D01*
X100836304Y-147683287D01*
X100790500Y-147682855D01*
X100667888Y-147682453D01*
X100573692Y-147683498D01*
X100506735Y-147686030D01*
X100465840Y-147690084D01*
X100449829Y-147695700D01*
X100448357Y-147699287D01*
X100439131Y-147727249D01*
X100422628Y-147780171D01*
X100399673Y-147855317D01*
X100371091Y-147949950D01*
X100337706Y-148061332D01*
X100300343Y-148186728D01*
X100259825Y-148323399D01*
X100216979Y-148468609D01*
X100198255Y-148532059D01*
X100156481Y-148672469D01*
X100117384Y-148802329D01*
X100081777Y-148919032D01*
X100050475Y-149019967D01*
X100024290Y-149102525D01*
X100004037Y-149164097D01*
X99990529Y-149202073D01*
X99984580Y-149213845D01*
X99981089Y-149205058D01*
X99969738Y-149170058D01*
X99951665Y-149111288D01*
X99927755Y-149031722D01*
X99898893Y-148934333D01*
X99865965Y-148822096D01*
X99829855Y-148697985D01*
X99791449Y-148564974D01*
X99769188Y-148487636D01*
X99729953Y-148351529D01*
X99692549Y-148222027D01*
X99658053Y-148102836D01*
X99627538Y-147997664D01*
X99602078Y-147910214D01*
X99582748Y-147844194D01*
X99570623Y-147803309D01*
X99533226Y-147679270D01*
X99171274Y-147683286D01*
X98809321Y-147687301D01*
X98737353Y-147934850D01*
X98724581Y-147978782D01*
X98661325Y-148196298D01*
X98605801Y-148387001D01*
X98557475Y-148552579D01*
X98515813Y-148694719D01*
X98480282Y-148815109D01*
X98450348Y-148915437D01*
X98425477Y-148997388D01*
X98405135Y-149062651D01*
X98388788Y-149112913D01*
X98375903Y-149149862D01*
X98365946Y-149175183D01*
X98358382Y-149190566D01*
X98352679Y-149197697D01*
X98348302Y-149198263D01*
X98344718Y-149193952D01*
X98341392Y-149186451D01*
X98340396Y-149183743D01*
X98331074Y-149154946D01*
X98314403Y-149100935D01*
X98291259Y-149024635D01*
X98262519Y-148928972D01*
X98229059Y-148816870D01*
X98191755Y-148691256D01*
X98151485Y-148555055D01*
X98109124Y-148411193D01*
X97894199Y-147679799D01*
X97529468Y-147679799D01*
X97454936Y-147680004D01*
X97361328Y-147680898D01*
X97281430Y-147682402D01*
X97219316Y-147684409D01*
X97179061Y-147686809D01*
X97164737Y-147689495D01*
X97059716Y-147689495D01*
X97059716Y-147679799D01*
X96309569Y-147679799D01*
X96309569Y-149975251D01*
X96159539Y-149975251D01*
X96159539Y-147679799D01*
X95409391Y-147679799D01*
X95409391Y-149975251D01*
X94369694Y-149975251D01*
X94426693Y-149964481D01*
X94558144Y-149921204D01*
X94696142Y-149857859D01*
X94799280Y-149797173D01*
X94931507Y-149690835D01*
X95042401Y-149563855D01*
X95130524Y-149417688D01*
X95153140Y-149370739D01*
X95189801Y-149287249D01*
X95216288Y-149211475D01*
X95234166Y-149135893D01*
X95245003Y-149052975D01*
X95250365Y-148955195D01*
X95251819Y-148835027D01*
X95249773Y-148710388D01*
X95242054Y-148600265D01*
X95226978Y-148504755D01*
X95202870Y-148416094D01*
X95168052Y-148326517D01*
X95120848Y-148228256D01*
X95097164Y-148185611D01*
X95013710Y-148067819D01*
X94910452Y-147957417D01*
X94794822Y-147861725D01*
X94674247Y-147788067D01*
X94647492Y-147774988D01*
X94522627Y-147722636D01*
X94399624Y-147687516D01*
X94268467Y-147667311D01*
X94119137Y-147659705D01*
X93931601Y-147657295D01*
X93927545Y-147968606D01*
X93923490Y-148279917D01*
X94040068Y-148280247D01*
X94105727Y-148283074D01*
X94192024Y-148299634D01*
X94266765Y-148334135D01*
X94339654Y-148390134D01*
X94408541Y-148471504D01*
X94459240Y-148571503D01*
X94491285Y-148684435D01*
X94504512Y-148804878D01*
X94498756Y-148927406D01*
X94473851Y-149046596D01*
X94429633Y-149157024D01*
X94365936Y-149253265D01*
X94321011Y-149299226D01*
X94249642Y-149346185D01*
X94163348Y-149374740D01*
X94056117Y-149387494D01*
X93923490Y-149393835D01*
X92464163Y-149393835D01*
X92432826Y-149290284D01*
X92392258Y-149053691D01*
X92378795Y-148804342D01*
X92379562Y-148742142D01*
X92396943Y-148515903D01*
X92438326Y-148302236D01*
X92505168Y-148095078D01*
X92598928Y-147888366D01*
X92628782Y-147832644D01*
X92759974Y-147626466D01*
X92912845Y-147440507D01*
X93086231Y-147275660D01*
X93278964Y-147132817D01*
X93489882Y-147012870D01*
X93717818Y-146916710D01*
X93961606Y-146845230D01*
X93971929Y-146842928D01*
X93985357Y-146840352D01*
X94000982Y-146837954D01*
X94019834Y-146835726D01*
X94042943Y-146833663D01*
X94071338Y-146831758D01*
X94106050Y-146830005D01*
X94148109Y-146828398D01*
X94198545Y-146826930D01*
X94258388Y-146825595D01*
X94328667Y-146824387D01*
X94410412Y-146823299D01*
X94504654Y-146822326D01*
X94612423Y-146821460D01*
X94734748Y-146820696D01*
X94872660Y-146820027D01*
X95027188Y-146819447D01*
X95199362Y-146818950D01*
X95390213Y-146818529D01*
X95600770Y-146818178D01*
X95832063Y-146817891D01*
X96085123Y-146817661D01*
X96360979Y-146817482D01*
X96660660Y-146817348D01*
X96985198Y-146817253D01*
X97335622Y-146817189D01*
X97712962Y-146817152D01*
X98118248Y-146817134D01*
X98552510Y-146817129D01*
X103023390Y-146817129D01*
X103185031Y-146858185D01*
X103282715Y-146885212D01*
X103510838Y-146967901D01*
X103721519Y-147074139D01*
X103917020Y-147205173D01*
X104099606Y-147362251D01*
X104260785Y-147534800D01*
X104404828Y-147729400D01*
X104521843Y-147936853D01*
X104612078Y-148157670D01*
X104675777Y-148392365D01*
X104713187Y-148641450D01*
X104719941Y-148863035D01*
X104699297Y-149091307D01*
X104651852Y-149321017D01*
X104578278Y-149547667D01*
X104537606Y-149644628D01*
X104428344Y-149850691D01*
X104295279Y-150041415D01*
X104140686Y-150215109D01*
X103966837Y-150370082D01*
X103776007Y-150504640D01*
X103570471Y-150617092D01*
X103352502Y-150705747D01*
X103124375Y-150768912D01*
X102888364Y-150804896D01*
X102872011Y-150805904D01*
X102824235Y-150807575D01*
X102754573Y-150809204D01*
X102668052Y-150810697D01*
X102569696Y-150811959D01*
X102464530Y-150812895D01*
X102100709Y-150815417D01*
X102100709Y-149693318D01*
X102189562Y-149780261D01*
X102208476Y-149798165D01*
X102328679Y-149888219D01*
X102464578Y-149952996D01*
X102615214Y-149992131D01*
X102779626Y-150005257D01*
X102935330Y-149995830D01*
X103107361Y-149960163D01*
X103270939Y-149897162D01*
X103398305Y-149821808D01*
X103520848Y-149717663D01*
X103626390Y-149592510D01*
X103711189Y-149450148D01*
X103744295Y-149379341D01*
X103781052Y-149286965D01*
X103808099Y-149195465D01*
X103828318Y-149094552D01*
X103844589Y-148973939D01*
X103852861Y-148846498D01*
X103846625Y-148676551D01*
X103822397Y-148508842D01*
X103781442Y-148351438D01*
X103725028Y-148212404D01*
X103640508Y-148071016D01*
X103529860Y-147939503D01*
X103400211Y-147830588D01*
X103252985Y-147745453D01*
X103089605Y-147685279D01*
X103087406Y-147684677D01*
X103001385Y-147668170D01*
X102898776Y-147659013D01*
X102788745Y-147657078D01*
X102680459Y-147662239D01*
X102583085Y-147674369D01*
X102505788Y-147693343D01*
X102426330Y-147724848D01*
X102296560Y-147797664D01*
X102179474Y-147894548D01*
X102100709Y-147971332D01*
X102100709Y-147679799D01*
X101335558Y-147679799D01*
X101335558Y-150816013D01*
X97731098Y-150811520D01*
G37*
G36*
X92566332Y-150590372D02*
G01*
X92544237Y-150587910D01*
X92531627Y-150573373D01*
X92528824Y-150537862D01*
X92526440Y-150503033D01*
X92513972Y-150488255D01*
X92483573Y-150485352D01*
X92461198Y-150487234D01*
X92435232Y-150501896D01*
X92413281Y-150537862D01*
X92397026Y-150567083D01*
X92373869Y-150585925D01*
X92337623Y-150590372D01*
X92327346Y-150590329D01*
X92303579Y-150587965D01*
X92297277Y-150577892D01*
X92308384Y-150554505D01*
X92336843Y-150512203D01*
X92339115Y-150508915D01*
X92355661Y-150481444D01*
X92354242Y-150463385D01*
X92334383Y-150440939D01*
X92324182Y-150427998D01*
X92306835Y-150380603D01*
X92305338Y-150342141D01*
X92379229Y-150342141D01*
X92387901Y-150376580D01*
X92415841Y-150396895D01*
X92466590Y-150407449D01*
X92528824Y-150412062D01*
X92528824Y-150288588D01*
X92466590Y-150293201D01*
X92439040Y-150297065D01*
X92397293Y-150314558D01*
X92379229Y-150342141D01*
X92305338Y-150342141D01*
X92304674Y-150325071D01*
X92318960Y-150274980D01*
X92334417Y-150257691D01*
X92379565Y-150235344D01*
X92445016Y-150220692D01*
X92525074Y-150215382D01*
X92603839Y-150215298D01*
X92603839Y-150590372D01*
X92566332Y-150590372D01*
G37*
G36*
X102619533Y-148265294D02*
G01*
X102728719Y-148279587D01*
X102822660Y-148316186D01*
X102907594Y-148377342D01*
X102946425Y-148415559D01*
X103015609Y-148509506D01*
X103061590Y-148617678D01*
X103085274Y-148742644D01*
X103087567Y-148886969D01*
X103080944Y-148958281D01*
X103050945Y-149087571D01*
X102999073Y-149197085D01*
X102925795Y-149286176D01*
X102831578Y-149354197D01*
X102716890Y-149400500D01*
X102697851Y-149405041D01*
X102633987Y-149413389D01*
X102572004Y-149413838D01*
X102514501Y-149407097D01*
X102403500Y-149377396D01*
X102311121Y-149325567D01*
X102234297Y-149249580D01*
X102169961Y-149147401D01*
X102153563Y-149114588D01*
X102130845Y-149062929D01*
X102117042Y-149016195D01*
X102109173Y-148962743D01*
X102104253Y-148890929D01*
X102102699Y-148809570D01*
X102115118Y-148677521D01*
X102148119Y-148564069D01*
X102202736Y-148466213D01*
X102280001Y-148380954D01*
X102302590Y-148361635D01*
X102389043Y-148306127D01*
X102484367Y-148274774D01*
X102595806Y-148264914D01*
X102619533Y-148265294D01*
G37*
G36*
X92801438Y-150582558D02*
G01*
X92747750Y-150665214D01*
X92673730Y-150733565D01*
X92581335Y-150782854D01*
X92565935Y-150787617D01*
X92502888Y-150795368D01*
X92428602Y-150792437D01*
X92355458Y-150779869D01*
X92295837Y-150758713D01*
X92206226Y-150697638D01*
X92140629Y-150619377D01*
X92100512Y-150525644D01*
X92087318Y-150422397D01*
X92167492Y-150422397D01*
X92181975Y-150503113D01*
X92218479Y-150577805D01*
X92275682Y-150640988D01*
X92352263Y-150687175D01*
X92361403Y-150690809D01*
X92448404Y-150708556D01*
X92535694Y-150698502D01*
X92617861Y-150662036D01*
X92689495Y-150600550D01*
X92715393Y-150564886D01*
X92746499Y-150487297D01*
X92754182Y-150403166D01*
X92738237Y-150320657D01*
X92698455Y-150247934D01*
X92645769Y-150194706D01*
X92567896Y-150148784D01*
X92483440Y-150128620D01*
X92397441Y-150134464D01*
X92314939Y-150166566D01*
X92240972Y-150225177D01*
X92209872Y-150264834D01*
X92176350Y-150341142D01*
X92167492Y-150422397D01*
X92087318Y-150422397D01*
X92086735Y-150417838D01*
X92087035Y-150386859D01*
X92091838Y-150331048D01*
X92105060Y-150284785D01*
X92130017Y-150233987D01*
X92150176Y-150201430D01*
X92188007Y-150152134D01*
X92224032Y-150116685D01*
X92287539Y-150077102D01*
X92382952Y-150044474D01*
X92480936Y-150037873D01*
X92576609Y-150056177D01*
X92665084Y-150098262D01*
X92741479Y-150163007D01*
X92800910Y-150249287D01*
X92820914Y-150296373D01*
X92839979Y-150393378D01*
X92839258Y-150403166D01*
X92832833Y-150490360D01*
X92801438Y-150582558D01*
G37*
D12*
%TO.C,R3*%
X111735000Y-128027064D02*
X111735000Y-127572936D01*
X110265000Y-128027064D02*
X110265000Y-127572936D01*
%TO.C,C3*%
X79235000Y-138261252D02*
X79235000Y-137738748D01*
X77765000Y-138261252D02*
X77765000Y-137738748D01*
%TO.C,R6*%
X78227064Y-141735000D02*
X77772936Y-141735000D01*
X78227064Y-140265000D02*
X77772936Y-140265000D01*
%TO.C,D1*%
X112400000Y-126000000D02*
X112400000Y-129900000D01*
X112400000Y-126000000D02*
X114400000Y-126000000D01*
X114400000Y-126000000D02*
X114400000Y-129900000D01*
%TO.C,R7*%
X78227064Y-134265000D02*
X77772936Y-134265000D01*
X78227064Y-135735000D02*
X77772936Y-135735000D01*
%TO.C,R5*%
X83477064Y-142765000D02*
X83022936Y-142765000D01*
X83477064Y-144235000D02*
X83022936Y-144235000D01*
%TO.C,Q1*%
X111610000Y-138312500D02*
X111610000Y-139987500D01*
X108490000Y-138312500D02*
X108490000Y-138962500D01*
X111610000Y-138312500D02*
X111610000Y-137662500D01*
X108490000Y-138312500D02*
X108490000Y-137662500D01*
%TO.C,R4*%
X108227064Y-126065000D02*
X107772936Y-126065000D01*
X108227064Y-127535000D02*
X107772936Y-127535000D01*
%TO.C,L1*%
X100389758Y-128840000D02*
X101210242Y-128840000D01*
X100389758Y-129960000D02*
X101210242Y-129960000D01*
%TD*%
M02*
