%TF.GenerationSoftware,KiCad,Pcbnew,6.0.2+dfsg-1*%
%TF.CreationDate,2023-01-29T17:25:43-05:00*%
%TF.ProjectId,sensor-board,73656e73-6f72-42d6-926f-6172642e6b69,rev?*%
%TF.SameCoordinates,Original*%
%TF.FileFunction,Legend,Top*%
%TF.FilePolarity,Positive*%
%FSLAX46Y46*%
G04 Gerber Fmt 4.6, Leading zero omitted, Abs format (unit mm)*
G04 Created by KiCad (PCBNEW 6.0.2+dfsg-1) date 2023-01-29 17:25:43*
%MOMM*%
%LPD*%
G01*
G04 APERTURE LIST*
%ADD10C,0.150000*%
%ADD11C,0.120000*%
%ADD12C,0.100000*%
G04 APERTURE END LIST*
D10*
X89250000Y-151000000D02*
X89250000Y-137500000D01*
X90400000Y-125000000D02*
X98000000Y-125000000D01*
X100800000Y-137200000D02*
X100800000Y-125000000D01*
X122200000Y-125000000D02*
X122200000Y-133000000D01*
X121600000Y-133000000D02*
X106200000Y-133000000D01*
X106200000Y-133000000D02*
X103200000Y-137200000D01*
X121500000Y-133500000D02*
X121500000Y-143250000D01*
X98000000Y-125000000D02*
X98000000Y-137000000D01*
X103600000Y-137500000D02*
X106250000Y-133500000D01*
X106250000Y-143250000D02*
X106250000Y-151000000D01*
X90400000Y-137000000D02*
X90400000Y-124800000D01*
X121500000Y-143250000D02*
X106250000Y-143250000D01*
X106250000Y-151000000D02*
X89250000Y-151000000D01*
X89250000Y-137500000D02*
X103600000Y-137500000D01*
X122200000Y-133000000D02*
X121600000Y-133000000D01*
X103200000Y-137200000D02*
X100800000Y-137200000D01*
X100800000Y-125000000D02*
X122200000Y-125000000D01*
X106250000Y-133500000D02*
X121500000Y-133500000D01*
X106790476Y-141452380D02*
X106980952Y-141452380D01*
X107076190Y-141500000D01*
X107171428Y-141595238D01*
X107219047Y-141785714D01*
X107219047Y-142119047D01*
X107171428Y-142309523D01*
X107076190Y-142404761D01*
X106980952Y-142452380D01*
X106790476Y-142452380D01*
X106695238Y-142404761D01*
X106600000Y-142309523D01*
X106552380Y-142119047D01*
X106552380Y-141785714D01*
X106600000Y-141595238D01*
X106695238Y-141500000D01*
X106790476Y-141452380D01*
X108076190Y-141785714D02*
X108076190Y-142452380D01*
X107647619Y-141785714D02*
X107647619Y-142309523D01*
X107695238Y-142404761D01*
X107790476Y-142452380D01*
X107933333Y-142452380D01*
X108028571Y-142404761D01*
X108076190Y-142357142D01*
X108409523Y-141785714D02*
X108790476Y-141785714D01*
X108552380Y-141452380D02*
X108552380Y-142309523D01*
X108600000Y-142404761D01*
X108695238Y-142452380D01*
X108790476Y-142452380D01*
X109552380Y-142452380D02*
X109552380Y-141452380D01*
X109552380Y-142404761D02*
X109457142Y-142452380D01*
X109266666Y-142452380D01*
X109171428Y-142404761D01*
X109123809Y-142357142D01*
X109076190Y-142261904D01*
X109076190Y-141976190D01*
X109123809Y-141880952D01*
X109171428Y-141833333D01*
X109266666Y-141785714D01*
X109457142Y-141785714D01*
X109552380Y-141833333D01*
X110171428Y-142452380D02*
X110076190Y-142404761D01*
X110028571Y-142357142D01*
X109980952Y-142261904D01*
X109980952Y-141976190D01*
X110028571Y-141880952D01*
X110076190Y-141833333D01*
X110171428Y-141785714D01*
X110314285Y-141785714D01*
X110409523Y-141833333D01*
X110457142Y-141880952D01*
X110504761Y-141976190D01*
X110504761Y-142261904D01*
X110457142Y-142357142D01*
X110409523Y-142404761D01*
X110314285Y-142452380D01*
X110171428Y-142452380D01*
X111076190Y-142452380D02*
X110980952Y-142404761D01*
X110933333Y-142357142D01*
X110885714Y-142261904D01*
X110885714Y-141976190D01*
X110933333Y-141880952D01*
X110980952Y-141833333D01*
X111076190Y-141785714D01*
X111219047Y-141785714D01*
X111314285Y-141833333D01*
X111361904Y-141880952D01*
X111409523Y-141976190D01*
X111409523Y-142261904D01*
X111361904Y-142357142D01*
X111314285Y-142404761D01*
X111219047Y-142452380D01*
X111076190Y-142452380D01*
X111838095Y-142452380D02*
X111838095Y-141785714D01*
X111838095Y-141976190D02*
X111885714Y-141880952D01*
X111933333Y-141833333D01*
X112028571Y-141785714D01*
X112123809Y-141785714D01*
X113076190Y-141452380D02*
X113647619Y-141452380D01*
X113361904Y-142452380D02*
X113361904Y-141452380D01*
X114361904Y-142404761D02*
X114266666Y-142452380D01*
X114076190Y-142452380D01*
X113980952Y-142404761D01*
X113933333Y-142309523D01*
X113933333Y-141928571D01*
X113980952Y-141833333D01*
X114076190Y-141785714D01*
X114266666Y-141785714D01*
X114361904Y-141833333D01*
X114409523Y-141928571D01*
X114409523Y-142023809D01*
X113933333Y-142119047D01*
X114838095Y-142452380D02*
X114838095Y-141785714D01*
X114838095Y-141880952D02*
X114885714Y-141833333D01*
X114980952Y-141785714D01*
X115123809Y-141785714D01*
X115219047Y-141833333D01*
X115266666Y-141928571D01*
X115266666Y-142452380D01*
X115266666Y-141928571D02*
X115314285Y-141833333D01*
X115409523Y-141785714D01*
X115552380Y-141785714D01*
X115647619Y-141833333D01*
X115695238Y-141928571D01*
X115695238Y-142452380D01*
X116171428Y-141785714D02*
X116171428Y-142785714D01*
X116171428Y-141833333D02*
X116266666Y-141785714D01*
X116457142Y-141785714D01*
X116552380Y-141833333D01*
X116600000Y-141880952D01*
X116647619Y-141976190D01*
X116647619Y-142261904D01*
X116600000Y-142357142D01*
X116552380Y-142404761D01*
X116457142Y-142452380D01*
X116266666Y-142452380D01*
X116171428Y-142404761D01*
X118028571Y-141452380D02*
X118219047Y-141452380D01*
X118314285Y-141500000D01*
X118409523Y-141595238D01*
X118457142Y-141785714D01*
X118457142Y-142119047D01*
X118409523Y-142309523D01*
X118314285Y-142404761D01*
X118219047Y-142452380D01*
X118028571Y-142452380D01*
X117933333Y-142404761D01*
X117838095Y-142309523D01*
X117790476Y-142119047D01*
X117790476Y-141785714D01*
X117838095Y-141595238D01*
X117933333Y-141500000D01*
X118028571Y-141452380D01*
X118885714Y-141785714D02*
X118885714Y-142452380D01*
X118885714Y-141880952D02*
X118933333Y-141833333D01*
X119028571Y-141785714D01*
X119171428Y-141785714D01*
X119266666Y-141833333D01*
X119314285Y-141928571D01*
X119314285Y-142452380D01*
X119933333Y-142452380D02*
X119838095Y-142404761D01*
X119790476Y-142309523D01*
X119790476Y-141452380D01*
X120219047Y-141785714D02*
X120457142Y-142452380D01*
X120695238Y-141785714D02*
X120457142Y-142452380D01*
X120361904Y-142690476D01*
X120314285Y-142738095D01*
X120219047Y-142785714D01*
X107523809Y-146947619D02*
X107428571Y-146900000D01*
X107333333Y-146804761D01*
X107190476Y-146661904D01*
X107095238Y-146614285D01*
X107000000Y-146614285D01*
X107047619Y-146852380D02*
X106952380Y-146804761D01*
X106857142Y-146709523D01*
X106809523Y-146519047D01*
X106809523Y-146185714D01*
X106857142Y-145995238D01*
X106952380Y-145900000D01*
X107047619Y-145852380D01*
X107238095Y-145852380D01*
X107333333Y-145900000D01*
X107428571Y-145995238D01*
X107476190Y-146185714D01*
X107476190Y-146519047D01*
X107428571Y-146709523D01*
X107333333Y-146804761D01*
X107238095Y-146852380D01*
X107047619Y-146852380D01*
X107809523Y-145852380D02*
X108047619Y-146852380D01*
X108238095Y-146138095D01*
X108428571Y-146852380D01*
X108666666Y-145852380D01*
X109047619Y-146852380D02*
X109047619Y-145852380D01*
X109523809Y-146852380D02*
X109523809Y-145852380D01*
X110571428Y-146757142D02*
X110523809Y-146804761D01*
X110380952Y-146852380D01*
X110285714Y-146852380D01*
X110142857Y-146804761D01*
X110047619Y-146709523D01*
X110000000Y-146614285D01*
X109952380Y-146423809D01*
X109952380Y-146280952D01*
X110000000Y-146090476D01*
X110047619Y-145995238D01*
X110142857Y-145900000D01*
X110285714Y-145852380D01*
X110380952Y-145852380D01*
X110523809Y-145900000D01*
X110571428Y-145947619D01*
X111714285Y-146804761D02*
X111857142Y-146852380D01*
X112095238Y-146852380D01*
X112190476Y-146804761D01*
X112238095Y-146757142D01*
X112285714Y-146661904D01*
X112285714Y-146566666D01*
X112238095Y-146471428D01*
X112190476Y-146423809D01*
X112095238Y-146376190D01*
X111904761Y-146328571D01*
X111809523Y-146280952D01*
X111761904Y-146233333D01*
X111714285Y-146138095D01*
X111714285Y-146042857D01*
X111761904Y-145947619D01*
X111809523Y-145900000D01*
X111904761Y-145852380D01*
X112142857Y-145852380D01*
X112285714Y-145900000D01*
X113095238Y-146804761D02*
X113000000Y-146852380D01*
X112809523Y-146852380D01*
X112714285Y-146804761D01*
X112666666Y-146709523D01*
X112666666Y-146328571D01*
X112714285Y-146233333D01*
X112809523Y-146185714D01*
X113000000Y-146185714D01*
X113095238Y-146233333D01*
X113142857Y-146328571D01*
X113142857Y-146423809D01*
X112666666Y-146519047D01*
X113571428Y-146185714D02*
X113571428Y-146852380D01*
X113571428Y-146280952D02*
X113619047Y-146233333D01*
X113714285Y-146185714D01*
X113857142Y-146185714D01*
X113952380Y-146233333D01*
X114000000Y-146328571D01*
X114000000Y-146852380D01*
X114428571Y-146804761D02*
X114523809Y-146852380D01*
X114714285Y-146852380D01*
X114809523Y-146804761D01*
X114857142Y-146709523D01*
X114857142Y-146661904D01*
X114809523Y-146566666D01*
X114714285Y-146519047D01*
X114571428Y-146519047D01*
X114476190Y-146471428D01*
X114428571Y-146376190D01*
X114428571Y-146328571D01*
X114476190Y-146233333D01*
X114571428Y-146185714D01*
X114714285Y-146185714D01*
X114809523Y-146233333D01*
X115428571Y-146852380D02*
X115333333Y-146804761D01*
X115285714Y-146757142D01*
X115238095Y-146661904D01*
X115238095Y-146376190D01*
X115285714Y-146280952D01*
X115333333Y-146233333D01*
X115428571Y-146185714D01*
X115571428Y-146185714D01*
X115666666Y-146233333D01*
X115714285Y-146280952D01*
X115761904Y-146376190D01*
X115761904Y-146661904D01*
X115714285Y-146757142D01*
X115666666Y-146804761D01*
X115571428Y-146852380D01*
X115428571Y-146852380D01*
X116190476Y-146852380D02*
X116190476Y-146185714D01*
X116190476Y-146376190D02*
X116238095Y-146280952D01*
X116285714Y-146233333D01*
X116380952Y-146185714D01*
X116476190Y-146185714D01*
X116761904Y-146804761D02*
X116857142Y-146852380D01*
X117047619Y-146852380D01*
X117142857Y-146804761D01*
X117190476Y-146709523D01*
X117190476Y-146661904D01*
X117142857Y-146566666D01*
X117047619Y-146519047D01*
X116904761Y-146519047D01*
X116809523Y-146471428D01*
X116761904Y-146376190D01*
X116761904Y-146328571D01*
X116809523Y-146233333D01*
X116904761Y-146185714D01*
X117047619Y-146185714D01*
X117142857Y-146233333D01*
X121166666Y-132166666D02*
X121166666Y-131690476D01*
X121452380Y-132261904D02*
X120452380Y-131928571D01*
X121452380Y-131595238D01*
X121452380Y-131261904D02*
X120452380Y-131261904D01*
X120452380Y-131023809D01*
X120500000Y-130880952D01*
X120595238Y-130785714D01*
X120690476Y-130738095D01*
X120880952Y-130690476D01*
X121023809Y-130690476D01*
X121214285Y-130738095D01*
X121309523Y-130785714D01*
X121404761Y-130880952D01*
X121452380Y-131023809D01*
X121452380Y-131261904D01*
X121357142Y-129690476D02*
X121404761Y-129738095D01*
X121452380Y-129880952D01*
X121452380Y-129976190D01*
X121404761Y-130119047D01*
X121309523Y-130214285D01*
X121214285Y-130261904D01*
X121023809Y-130309523D01*
X120880952Y-130309523D01*
X120690476Y-130261904D01*
X120595238Y-130214285D01*
X120500000Y-130119047D01*
X120452380Y-129976190D01*
X120452380Y-129880952D01*
X120500000Y-129738095D01*
X120547619Y-129690476D01*
X121452380Y-128357142D02*
X121404761Y-128452380D01*
X121357142Y-128500000D01*
X121261904Y-128547619D01*
X120976190Y-128547619D01*
X120880952Y-128500000D01*
X120833333Y-128452380D01*
X120785714Y-128357142D01*
X120785714Y-128214285D01*
X120833333Y-128119047D01*
X120880952Y-128071428D01*
X120976190Y-128023809D01*
X121261904Y-128023809D01*
X121357142Y-128071428D01*
X121404761Y-128119047D01*
X121452380Y-128214285D01*
X121452380Y-128357142D01*
X120785714Y-127595238D02*
X121452380Y-127595238D01*
X120880952Y-127595238D02*
X120833333Y-127547619D01*
X120785714Y-127452380D01*
X120785714Y-127309523D01*
X120833333Y-127214285D01*
X120928571Y-127166666D01*
X121452380Y-127166666D01*
X121452380Y-126547619D02*
X121404761Y-126642857D01*
X121309523Y-126690476D01*
X120452380Y-126690476D01*
X120785714Y-126261904D02*
X121452380Y-126023809D01*
X120785714Y-125785714D02*
X121452380Y-126023809D01*
X121690476Y-126119047D01*
X121738095Y-126166666D01*
X121785714Y-126261904D01*
X97847380Y-136471428D02*
X97847380Y-135900000D01*
X98847380Y-136185714D02*
X97847380Y-136185714D01*
X98847380Y-135566666D02*
X97847380Y-135566666D01*
X98847380Y-135138095D02*
X98323571Y-135138095D01*
X98228333Y-135185714D01*
X98180714Y-135280952D01*
X98180714Y-135423809D01*
X98228333Y-135519047D01*
X98275952Y-135566666D01*
X98799761Y-134280952D02*
X98847380Y-134376190D01*
X98847380Y-134566666D01*
X98799761Y-134661904D01*
X98704523Y-134709523D01*
X98323571Y-134709523D01*
X98228333Y-134661904D01*
X98180714Y-134566666D01*
X98180714Y-134376190D01*
X98228333Y-134280952D01*
X98323571Y-134233333D01*
X98418809Y-134233333D01*
X98514047Y-134709523D01*
X98847380Y-133804761D02*
X98180714Y-133804761D01*
X98371190Y-133804761D02*
X98275952Y-133757142D01*
X98228333Y-133709523D01*
X98180714Y-133614285D01*
X98180714Y-133519047D01*
X98847380Y-133185714D02*
X98180714Y-133185714D01*
X98275952Y-133185714D02*
X98228333Y-133138095D01*
X98180714Y-133042857D01*
X98180714Y-132900000D01*
X98228333Y-132804761D01*
X98323571Y-132757142D01*
X98847380Y-132757142D01*
X98323571Y-132757142D02*
X98228333Y-132709523D01*
X98180714Y-132614285D01*
X98180714Y-132471428D01*
X98228333Y-132376190D01*
X98323571Y-132328571D01*
X98847380Y-132328571D01*
X98847380Y-131709523D02*
X98799761Y-131804761D01*
X98752142Y-131852380D01*
X98656904Y-131900000D01*
X98371190Y-131900000D01*
X98275952Y-131852380D01*
X98228333Y-131804761D01*
X98180714Y-131709523D01*
X98180714Y-131566666D01*
X98228333Y-131471428D01*
X98275952Y-131423809D01*
X98371190Y-131376190D01*
X98656904Y-131376190D01*
X98752142Y-131423809D01*
X98799761Y-131471428D01*
X98847380Y-131566666D01*
X98847380Y-131709523D01*
X98799761Y-130519047D02*
X98847380Y-130614285D01*
X98847380Y-130804761D01*
X98799761Y-130900000D01*
X98752142Y-130947619D01*
X98656904Y-130995238D01*
X98371190Y-130995238D01*
X98275952Y-130947619D01*
X98228333Y-130900000D01*
X98180714Y-130804761D01*
X98180714Y-130614285D01*
X98228333Y-130519047D01*
X98847380Y-129947619D02*
X98799761Y-130042857D01*
X98752142Y-130090476D01*
X98656904Y-130138095D01*
X98371190Y-130138095D01*
X98275952Y-130090476D01*
X98228333Y-130042857D01*
X98180714Y-129947619D01*
X98180714Y-129804761D01*
X98228333Y-129709523D01*
X98275952Y-129661904D01*
X98371190Y-129614285D01*
X98656904Y-129614285D01*
X98752142Y-129661904D01*
X98799761Y-129709523D01*
X98847380Y-129804761D01*
X98847380Y-129947619D01*
X98180714Y-128757142D02*
X98847380Y-128757142D01*
X98180714Y-129185714D02*
X98704523Y-129185714D01*
X98799761Y-129138095D01*
X98847380Y-129042857D01*
X98847380Y-128900000D01*
X98799761Y-128804761D01*
X98752142Y-128757142D01*
X98180714Y-128280952D02*
X99180714Y-128280952D01*
X98228333Y-128280952D02*
X98180714Y-128185714D01*
X98180714Y-127995238D01*
X98228333Y-127900000D01*
X98275952Y-127852380D01*
X98371190Y-127804761D01*
X98656904Y-127804761D01*
X98752142Y-127852380D01*
X98799761Y-127900000D01*
X98847380Y-127995238D01*
X98847380Y-128185714D01*
X98799761Y-128280952D01*
X98847380Y-127233333D02*
X98799761Y-127328571D01*
X98704523Y-127376190D01*
X97847380Y-127376190D01*
X98799761Y-126471428D02*
X98847380Y-126566666D01*
X98847380Y-126757142D01*
X98799761Y-126852380D01*
X98704523Y-126900000D01*
X98323571Y-126900000D01*
X98228333Y-126852380D01*
X98180714Y-126757142D01*
X98180714Y-126566666D01*
X98228333Y-126471428D01*
X98323571Y-126423809D01*
X98418809Y-126423809D01*
X98514047Y-126900000D01*
X100457380Y-132566666D02*
X100409761Y-132661904D01*
X100362142Y-132709523D01*
X100266904Y-132757142D01*
X99981190Y-132757142D01*
X99885952Y-132709523D01*
X99838333Y-132661904D01*
X99790714Y-132566666D01*
X99790714Y-132423809D01*
X99838333Y-132328571D01*
X99885952Y-132280952D01*
X99981190Y-132233333D01*
X100266904Y-132233333D01*
X100362142Y-132280952D01*
X100409761Y-132328571D01*
X100457380Y-132423809D01*
X100457380Y-132566666D01*
X99790714Y-131804761D02*
X100457380Y-131804761D01*
X99885952Y-131804761D02*
X99838333Y-131757142D01*
X99790714Y-131661904D01*
X99790714Y-131519047D01*
X99838333Y-131423809D01*
X99933571Y-131376190D01*
X100457380Y-131376190D01*
X100457380Y-130757142D02*
X100409761Y-130852380D01*
X100314523Y-130900000D01*
X99457380Y-130900000D01*
X99790714Y-130471428D02*
X100457380Y-130233333D01*
X99790714Y-129995238D02*
X100457380Y-130233333D01*
X100695476Y-130328571D01*
X100743095Y-130376190D01*
X100790714Y-130471428D01*
X107028571Y-147780714D02*
X107266666Y-148447380D01*
X107504761Y-147780714D01*
X108409523Y-148447380D02*
X107838095Y-148447380D01*
X108123809Y-148447380D02*
X108123809Y-147447380D01*
X108028571Y-147590238D01*
X107933333Y-147685476D01*
X107838095Y-147733095D01*
X108838095Y-148352142D02*
X108885714Y-148399761D01*
X108838095Y-148447380D01*
X108790476Y-148399761D01*
X108838095Y-148352142D01*
X108838095Y-148447380D01*
X109504761Y-147447380D02*
X109600000Y-147447380D01*
X109695238Y-147495000D01*
X109742857Y-147542619D01*
X109790476Y-147637857D01*
X109838095Y-147828333D01*
X109838095Y-148066428D01*
X109790476Y-148256904D01*
X109742857Y-148352142D01*
X109695238Y-148399761D01*
X109600000Y-148447380D01*
X109504761Y-148447380D01*
X109409523Y-148399761D01*
X109361904Y-148352142D01*
X109314285Y-148256904D01*
X109266666Y-148066428D01*
X109266666Y-147828333D01*
X109314285Y-147637857D01*
X109361904Y-147542619D01*
X109409523Y-147495000D01*
X109504761Y-147447380D01*
X111314285Y-148828333D02*
X111266666Y-148780714D01*
X111171428Y-148637857D01*
X111123809Y-148542619D01*
X111076190Y-148399761D01*
X111028571Y-148161666D01*
X111028571Y-147971190D01*
X111076190Y-147733095D01*
X111123809Y-147590238D01*
X111171428Y-147495000D01*
X111266666Y-147352142D01*
X111314285Y-147304523D01*
X112123809Y-148399761D02*
X112028571Y-148447380D01*
X111838095Y-148447380D01*
X111742857Y-148399761D01*
X111695238Y-148352142D01*
X111647619Y-148256904D01*
X111647619Y-147971190D01*
X111695238Y-147875952D01*
X111742857Y-147828333D01*
X111838095Y-147780714D01*
X112028571Y-147780714D01*
X112123809Y-147828333D01*
X112457142Y-148828333D02*
X112504761Y-148780714D01*
X112600000Y-148637857D01*
X112647619Y-148542619D01*
X112695238Y-148399761D01*
X112742857Y-148161666D01*
X112742857Y-147971190D01*
X112695238Y-147733095D01*
X112647619Y-147590238D01*
X112600000Y-147495000D01*
X112504761Y-147352142D01*
X112457142Y-147304523D01*
X113933333Y-147542619D02*
X113980952Y-147495000D01*
X114076190Y-147447380D01*
X114314285Y-147447380D01*
X114409523Y-147495000D01*
X114457142Y-147542619D01*
X114504761Y-147637857D01*
X114504761Y-147733095D01*
X114457142Y-147875952D01*
X113885714Y-148447380D01*
X114504761Y-148447380D01*
X115123809Y-147447380D02*
X115219047Y-147447380D01*
X115314285Y-147495000D01*
X115361904Y-147542619D01*
X115409523Y-147637857D01*
X115457142Y-147828333D01*
X115457142Y-148066428D01*
X115409523Y-148256904D01*
X115361904Y-148352142D01*
X115314285Y-148399761D01*
X115219047Y-148447380D01*
X115123809Y-148447380D01*
X115028571Y-148399761D01*
X114980952Y-148352142D01*
X114933333Y-148256904D01*
X114885714Y-148066428D01*
X114885714Y-147828333D01*
X114933333Y-147637857D01*
X114980952Y-147542619D01*
X115028571Y-147495000D01*
X115123809Y-147447380D01*
X115838095Y-147542619D02*
X115885714Y-147495000D01*
X115980952Y-147447380D01*
X116219047Y-147447380D01*
X116314285Y-147495000D01*
X116361904Y-147542619D01*
X116409523Y-147637857D01*
X116409523Y-147733095D01*
X116361904Y-147875952D01*
X115790476Y-148447380D01*
X116409523Y-148447380D01*
X116742857Y-147447380D02*
X117361904Y-147447380D01*
X117028571Y-147828333D01*
X117171428Y-147828333D01*
X117266666Y-147875952D01*
X117314285Y-147923571D01*
X117361904Y-148018809D01*
X117361904Y-148256904D01*
X117314285Y-148352142D01*
X117266666Y-148399761D01*
X117171428Y-148447380D01*
X116885714Y-148447380D01*
X116790476Y-148399761D01*
X116742857Y-148352142D01*
X109361904Y-149105000D02*
X109266666Y-149057380D01*
X109123809Y-149057380D01*
X108980952Y-149105000D01*
X108885714Y-149200238D01*
X108838095Y-149295476D01*
X108790476Y-149485952D01*
X108790476Y-149628809D01*
X108838095Y-149819285D01*
X108885714Y-149914523D01*
X108980952Y-150009761D01*
X109123809Y-150057380D01*
X109219047Y-150057380D01*
X109361904Y-150009761D01*
X109409523Y-149962142D01*
X109409523Y-149628809D01*
X109219047Y-149628809D01*
X110266666Y-150057380D02*
X110266666Y-149533571D01*
X110219047Y-149438333D01*
X110123809Y-149390714D01*
X109933333Y-149390714D01*
X109838095Y-149438333D01*
X110266666Y-150009761D02*
X110171428Y-150057380D01*
X109933333Y-150057380D01*
X109838095Y-150009761D01*
X109790476Y-149914523D01*
X109790476Y-149819285D01*
X109838095Y-149724047D01*
X109933333Y-149676428D01*
X110171428Y-149676428D01*
X110266666Y-149628809D01*
X110647619Y-149390714D02*
X110885714Y-150057380D01*
X111123809Y-149390714D01*
X111504761Y-150057380D02*
X111504761Y-149390714D01*
X111504761Y-149057380D02*
X111457142Y-149105000D01*
X111504761Y-149152619D01*
X111552380Y-149105000D01*
X111504761Y-149057380D01*
X111504761Y-149152619D01*
X111980952Y-149390714D02*
X111980952Y-150057380D01*
X111980952Y-149485952D02*
X112028571Y-149438333D01*
X112123809Y-149390714D01*
X112266666Y-149390714D01*
X112361904Y-149438333D01*
X112409523Y-149533571D01*
X112409523Y-150057380D01*
X113647619Y-150057380D02*
X113647619Y-149057380D01*
X113647619Y-149533571D02*
X114219047Y-149533571D01*
X114219047Y-150057380D02*
X114219047Y-149057380D01*
X115123809Y-149390714D02*
X115123809Y-150057380D01*
X114695238Y-149390714D02*
X114695238Y-149914523D01*
X114742857Y-150009761D01*
X114838095Y-150057380D01*
X114980952Y-150057380D01*
X115076190Y-150009761D01*
X115123809Y-149962142D01*
X115600000Y-150057380D02*
X115600000Y-149390714D01*
X115600000Y-149581190D02*
X115647619Y-149485952D01*
X115695238Y-149438333D01*
X115790476Y-149390714D01*
X115885714Y-149390714D01*
X116361904Y-150057380D02*
X116266666Y-150009761D01*
X116219047Y-149914523D01*
X116219047Y-149057380D01*
X116742857Y-150057380D02*
X116742857Y-149057380D01*
X116742857Y-149438333D02*
X116838095Y-149390714D01*
X117028571Y-149390714D01*
X117123809Y-149438333D01*
X117171428Y-149485952D01*
X117219047Y-149581190D01*
X117219047Y-149866904D01*
X117171428Y-149962142D01*
X117123809Y-150009761D01*
X117028571Y-150057380D01*
X116838095Y-150057380D01*
X116742857Y-150009761D01*
X118076190Y-149390714D02*
X118076190Y-150057380D01*
X117647619Y-149390714D02*
X117647619Y-149914523D01*
X117695238Y-150009761D01*
X117790476Y-150057380D01*
X117933333Y-150057380D01*
X118028571Y-150009761D01*
X118076190Y-149962142D01*
X118409523Y-149390714D02*
X118790476Y-149390714D01*
X118552380Y-149057380D02*
X118552380Y-149914523D01*
X118600000Y-150009761D01*
X118695238Y-150057380D01*
X118790476Y-150057380D01*
%TO.C,C6*%
X90448067Y-131129503D02*
X90400448Y-131177122D01*
X90257591Y-131224741D01*
X90162353Y-131224741D01*
X90019495Y-131177122D01*
X89924257Y-131081884D01*
X89876638Y-130986646D01*
X89829019Y-130796170D01*
X89829019Y-130653313D01*
X89876638Y-130462837D01*
X89924257Y-130367599D01*
X90019495Y-130272361D01*
X90162353Y-130224741D01*
X90257591Y-130224741D01*
X90400448Y-130272361D01*
X90448067Y-130319980D01*
X91305210Y-130224741D02*
X91114734Y-130224741D01*
X91019495Y-130272361D01*
X90971876Y-130319980D01*
X90876638Y-130462837D01*
X90829019Y-130653313D01*
X90829019Y-131034265D01*
X90876638Y-131129503D01*
X90924257Y-131177122D01*
X91019495Y-131224741D01*
X91209972Y-131224741D01*
X91305210Y-131177122D01*
X91352829Y-131129503D01*
X91400448Y-131034265D01*
X91400448Y-130796170D01*
X91352829Y-130700932D01*
X91305210Y-130653313D01*
X91209972Y-130605694D01*
X91019495Y-130605694D01*
X90924257Y-130653313D01*
X90876638Y-130700932D01*
X90829019Y-130796170D01*
%TO.C,J3*%
X104666666Y-136202380D02*
X104666666Y-136916666D01*
X104619047Y-137059523D01*
X104523809Y-137154761D01*
X104380952Y-137202380D01*
X104285714Y-137202380D01*
X105047619Y-136202380D02*
X105666666Y-136202380D01*
X105333333Y-136583333D01*
X105476190Y-136583333D01*
X105571428Y-136630952D01*
X105619047Y-136678571D01*
X105666666Y-136773809D01*
X105666666Y-137011904D01*
X105619047Y-137107142D01*
X105571428Y-137154761D01*
X105476190Y-137202380D01*
X105190476Y-137202380D01*
X105095238Y-137154761D01*
X105047619Y-137107142D01*
%TO.C,C2*%
X88583333Y-126357142D02*
X88535714Y-126404761D01*
X88392857Y-126452380D01*
X88297619Y-126452380D01*
X88154761Y-126404761D01*
X88059523Y-126309523D01*
X88011904Y-126214285D01*
X87964285Y-126023809D01*
X87964285Y-125880952D01*
X88011904Y-125690476D01*
X88059523Y-125595238D01*
X88154761Y-125500000D01*
X88297619Y-125452380D01*
X88392857Y-125452380D01*
X88535714Y-125500000D01*
X88583333Y-125547619D01*
X88964285Y-125547619D02*
X89011904Y-125500000D01*
X89107142Y-125452380D01*
X89345238Y-125452380D01*
X89440476Y-125500000D01*
X89488095Y-125547619D01*
X89535714Y-125642857D01*
X89535714Y-125738095D01*
X89488095Y-125880952D01*
X88916666Y-126452380D01*
X89535714Y-126452380D01*
%TO.C,C7*%
X104157142Y-131766666D02*
X104204761Y-131814285D01*
X104252380Y-131957142D01*
X104252380Y-132052380D01*
X104204761Y-132195238D01*
X104109523Y-132290476D01*
X104014285Y-132338095D01*
X103823809Y-132385714D01*
X103680952Y-132385714D01*
X103490476Y-132338095D01*
X103395238Y-132290476D01*
X103300000Y-132195238D01*
X103252380Y-132052380D01*
X103252380Y-131957142D01*
X103300000Y-131814285D01*
X103347619Y-131766666D01*
X103252380Y-131433333D02*
X103252380Y-130766666D01*
X104252380Y-131195238D01*
%TO.C,JP1*%
X113677380Y-136658333D02*
X114391666Y-136658333D01*
X114534523Y-136705952D01*
X114629761Y-136801190D01*
X114677380Y-136944047D01*
X114677380Y-137039285D01*
X114677380Y-136182142D02*
X113677380Y-136182142D01*
X113677380Y-135801190D01*
X113725000Y-135705952D01*
X113772619Y-135658333D01*
X113867857Y-135610714D01*
X114010714Y-135610714D01*
X114105952Y-135658333D01*
X114153571Y-135705952D01*
X114201190Y-135801190D01*
X114201190Y-136182142D01*
X114677380Y-134658333D02*
X114677380Y-135229761D01*
X114677380Y-134944047D02*
X113677380Y-134944047D01*
X113820238Y-135039285D01*
X113915476Y-135134523D01*
X113963095Y-135229761D01*
%TO.C,R8*%
X128533333Y-139452380D02*
X128200000Y-138976190D01*
X127961904Y-139452380D02*
X127961904Y-138452380D01*
X128342857Y-138452380D01*
X128438095Y-138500000D01*
X128485714Y-138547619D01*
X128533333Y-138642857D01*
X128533333Y-138785714D01*
X128485714Y-138880952D01*
X128438095Y-138928571D01*
X128342857Y-138976190D01*
X127961904Y-138976190D01*
X129104761Y-138880952D02*
X129009523Y-138833333D01*
X128961904Y-138785714D01*
X128914285Y-138690476D01*
X128914285Y-138642857D01*
X128961904Y-138547619D01*
X129009523Y-138500000D01*
X129104761Y-138452380D01*
X129295238Y-138452380D01*
X129390476Y-138500000D01*
X129438095Y-138547619D01*
X129485714Y-138642857D01*
X129485714Y-138690476D01*
X129438095Y-138785714D01*
X129390476Y-138833333D01*
X129295238Y-138880952D01*
X129104761Y-138880952D01*
X129009523Y-138928571D01*
X128961904Y-138976190D01*
X128914285Y-139071428D01*
X128914285Y-139261904D01*
X128961904Y-139357142D01*
X129009523Y-139404761D01*
X129104761Y-139452380D01*
X129295238Y-139452380D01*
X129390476Y-139404761D01*
X129438095Y-139357142D01*
X129485714Y-139261904D01*
X129485714Y-139071428D01*
X129438095Y-138976190D01*
X129390476Y-138928571D01*
X129295238Y-138880952D01*
%TO.C,R1*%
X84083333Y-125952380D02*
X83750000Y-125476190D01*
X83511904Y-125952380D02*
X83511904Y-124952380D01*
X83892857Y-124952380D01*
X83988095Y-125000000D01*
X84035714Y-125047619D01*
X84083333Y-125142857D01*
X84083333Y-125285714D01*
X84035714Y-125380952D01*
X83988095Y-125428571D01*
X83892857Y-125476190D01*
X83511904Y-125476190D01*
X85035714Y-125952380D02*
X84464285Y-125952380D01*
X84750000Y-125952380D02*
X84750000Y-124952380D01*
X84654761Y-125095238D01*
X84559523Y-125190476D01*
X84464285Y-125238095D01*
%TO.C,U4*%
X108038095Y-125252380D02*
X108038095Y-126061904D01*
X108085714Y-126157142D01*
X108133333Y-126204761D01*
X108228571Y-126252380D01*
X108419047Y-126252380D01*
X108514285Y-126204761D01*
X108561904Y-126157142D01*
X108609523Y-126061904D01*
X108609523Y-125252380D01*
X109514285Y-125585714D02*
X109514285Y-126252380D01*
X109276190Y-125204761D02*
X109038095Y-125919047D01*
X109657142Y-125919047D01*
%TO.C,U5*%
X96238095Y-129252380D02*
X96238095Y-130061904D01*
X96285714Y-130157142D01*
X96333333Y-130204761D01*
X96428571Y-130252380D01*
X96619047Y-130252380D01*
X96714285Y-130204761D01*
X96761904Y-130157142D01*
X96809523Y-130061904D01*
X96809523Y-129252380D01*
X97761904Y-129252380D02*
X97285714Y-129252380D01*
X97238095Y-129728571D01*
X97285714Y-129680952D01*
X97380952Y-129633333D01*
X97619047Y-129633333D01*
X97714285Y-129680952D01*
X97761904Y-129728571D01*
X97809523Y-129823809D01*
X97809523Y-130061904D01*
X97761904Y-130157142D01*
X97714285Y-130204761D01*
X97619047Y-130252380D01*
X97380952Y-130252380D01*
X97285714Y-130204761D01*
X97238095Y-130157142D01*
X90800000Y-131652380D02*
X90800000Y-131890476D01*
X90561904Y-131795238D02*
X90800000Y-131890476D01*
X91038095Y-131795238D01*
X90657142Y-132080952D02*
X90800000Y-131890476D01*
X90942857Y-132080952D01*
X90800000Y-131652380D02*
X90800000Y-131890476D01*
X90561904Y-131795238D02*
X90800000Y-131890476D01*
X91038095Y-131795238D01*
X90657142Y-132080952D02*
X90800000Y-131890476D01*
X90942857Y-132080952D01*
%TO.C,R13*%
X97652380Y-128642857D02*
X97176190Y-128976190D01*
X97652380Y-129214285D02*
X96652380Y-129214285D01*
X96652380Y-128833333D01*
X96700000Y-128738095D01*
X96747619Y-128690476D01*
X96842857Y-128642857D01*
X96985714Y-128642857D01*
X97080952Y-128690476D01*
X97128571Y-128738095D01*
X97176190Y-128833333D01*
X97176190Y-129214285D01*
X97652380Y-127690476D02*
X97652380Y-128261904D01*
X97652380Y-127976190D02*
X96652380Y-127976190D01*
X96795238Y-128071428D01*
X96890476Y-128166666D01*
X96938095Y-128261904D01*
X96652380Y-127357142D02*
X96652380Y-126738095D01*
X97033333Y-127071428D01*
X97033333Y-126928571D01*
X97080952Y-126833333D01*
X97128571Y-126785714D01*
X97223809Y-126738095D01*
X97461904Y-126738095D01*
X97557142Y-126785714D01*
X97604761Y-126833333D01*
X97652380Y-126928571D01*
X97652380Y-127214285D01*
X97604761Y-127309523D01*
X97557142Y-127357142D01*
%TO.C,D2*%
X117261904Y-144552380D02*
X117261904Y-143552380D01*
X117500000Y-143552380D01*
X117642857Y-143600000D01*
X117738095Y-143695238D01*
X117785714Y-143790476D01*
X117833333Y-143980952D01*
X117833333Y-144123809D01*
X117785714Y-144314285D01*
X117738095Y-144409523D01*
X117642857Y-144504761D01*
X117500000Y-144552380D01*
X117261904Y-144552380D01*
X118214285Y-143647619D02*
X118261904Y-143600000D01*
X118357142Y-143552380D01*
X118595238Y-143552380D01*
X118690476Y-143600000D01*
X118738095Y-143647619D01*
X118785714Y-143742857D01*
X118785714Y-143838095D01*
X118738095Y-143980952D01*
X118166666Y-144552380D01*
X118785714Y-144552380D01*
%TO.C,J2*%
X76416666Y-144702380D02*
X76416666Y-145416666D01*
X76369047Y-145559523D01*
X76273809Y-145654761D01*
X76130952Y-145702380D01*
X76035714Y-145702380D01*
X76845238Y-144797619D02*
X76892857Y-144750000D01*
X76988095Y-144702380D01*
X77226190Y-144702380D01*
X77321428Y-144750000D01*
X77369047Y-144797619D01*
X77416666Y-144892857D01*
X77416666Y-144988095D01*
X77369047Y-145130952D01*
X76797619Y-145702380D01*
X77416666Y-145702380D01*
X82064599Y-144419981D02*
X82064599Y-144658077D01*
X81826503Y-144562839D02*
X82064599Y-144658077D01*
X82302694Y-144562839D01*
X81921741Y-144848553D02*
X82064599Y-144658077D01*
X82207456Y-144848553D01*
%TO.C,JP5*%
X104477380Y-129708333D02*
X105191666Y-129708333D01*
X105334523Y-129755952D01*
X105429761Y-129851190D01*
X105477380Y-129994047D01*
X105477380Y-130089285D01*
X105477380Y-129232142D02*
X104477380Y-129232142D01*
X104477380Y-128851190D01*
X104525000Y-128755952D01*
X104572619Y-128708333D01*
X104667857Y-128660714D01*
X104810714Y-128660714D01*
X104905952Y-128708333D01*
X104953571Y-128755952D01*
X105001190Y-128851190D01*
X105001190Y-129232142D01*
X104477380Y-127755952D02*
X104477380Y-128232142D01*
X104953571Y-128279761D01*
X104905952Y-128232142D01*
X104858333Y-128136904D01*
X104858333Y-127898809D01*
X104905952Y-127803571D01*
X104953571Y-127755952D01*
X105048809Y-127708333D01*
X105286904Y-127708333D01*
X105382142Y-127755952D01*
X105429761Y-127803571D01*
X105477380Y-127898809D01*
X105477380Y-128136904D01*
X105429761Y-128232142D01*
X105382142Y-128279761D01*
%TO.C,SW1*%
X123004761Y-136833333D02*
X123052380Y-136690476D01*
X123052380Y-136452380D01*
X123004761Y-136357142D01*
X122957142Y-136309523D01*
X122861904Y-136261904D01*
X122766666Y-136261904D01*
X122671428Y-136309523D01*
X122623809Y-136357142D01*
X122576190Y-136452380D01*
X122528571Y-136642857D01*
X122480952Y-136738095D01*
X122433333Y-136785714D01*
X122338095Y-136833333D01*
X122242857Y-136833333D01*
X122147619Y-136785714D01*
X122100000Y-136738095D01*
X122052380Y-136642857D01*
X122052380Y-136404761D01*
X122100000Y-136261904D01*
X122052380Y-135928571D02*
X123052380Y-135690476D01*
X122338095Y-135500000D01*
X123052380Y-135309523D01*
X122052380Y-135071428D01*
X123052380Y-134166666D02*
X123052380Y-134738095D01*
X123052380Y-134452380D02*
X122052380Y-134452380D01*
X122195238Y-134547619D01*
X122290476Y-134642857D01*
X122338095Y-134738095D01*
%TO.C,U2*%
X109488095Y-134202380D02*
X109488095Y-135011904D01*
X109535714Y-135107142D01*
X109583333Y-135154761D01*
X109678571Y-135202380D01*
X109869047Y-135202380D01*
X109964285Y-135154761D01*
X110011904Y-135107142D01*
X110059523Y-135011904D01*
X110059523Y-134202380D01*
X110488095Y-134297619D02*
X110535714Y-134250000D01*
X110630952Y-134202380D01*
X110869047Y-134202380D01*
X110964285Y-134250000D01*
X111011904Y-134297619D01*
X111059523Y-134392857D01*
X111059523Y-134488095D01*
X111011904Y-134630952D01*
X110440476Y-135202380D01*
X111059523Y-135202380D01*
X106849850Y-135234480D02*
X106849850Y-135472576D01*
X106611754Y-135377338D02*
X106849850Y-135472576D01*
X107087945Y-135377338D01*
X106706992Y-135663052D02*
X106849850Y-135472576D01*
X106992707Y-135663052D01*
X106849850Y-135234480D02*
X106849850Y-135472576D01*
X106611754Y-135377338D02*
X106849850Y-135472576D01*
X107087945Y-135377338D01*
X106706992Y-135663052D02*
X106849850Y-135472576D01*
X106992707Y-135663052D01*
%TO.C,U3*%
X127538095Y-148952380D02*
X127538095Y-149761904D01*
X127585714Y-149857142D01*
X127633333Y-149904761D01*
X127728571Y-149952380D01*
X127919047Y-149952380D01*
X128014285Y-149904761D01*
X128061904Y-149857142D01*
X128109523Y-149761904D01*
X128109523Y-148952380D01*
X128490476Y-148952380D02*
X129109523Y-148952380D01*
X128776190Y-149333333D01*
X128919047Y-149333333D01*
X129014285Y-149380952D01*
X129061904Y-149428571D01*
X129109523Y-149523809D01*
X129109523Y-149761904D01*
X129061904Y-149857142D01*
X129014285Y-149904761D01*
X128919047Y-149952380D01*
X128633333Y-149952380D01*
X128538095Y-149904761D01*
X128490476Y-149857142D01*
X124336250Y-141114380D02*
X124336250Y-141352476D01*
X124098154Y-141257238D02*
X124336250Y-141352476D01*
X124574345Y-141257238D01*
X124193392Y-141542952D02*
X124336250Y-141352476D01*
X124479107Y-141542952D01*
X124336250Y-141114380D02*
X124336250Y-141352476D01*
X124098154Y-141257238D02*
X124336250Y-141352476D01*
X124574345Y-141257238D01*
X124193392Y-141542952D02*
X124336250Y-141352476D01*
X124479107Y-141542952D01*
%TO.C,C1*%
X86333333Y-126044642D02*
X86285714Y-126092261D01*
X86142857Y-126139880D01*
X86047619Y-126139880D01*
X85904761Y-126092261D01*
X85809523Y-125997023D01*
X85761904Y-125901785D01*
X85714285Y-125711309D01*
X85714285Y-125568452D01*
X85761904Y-125377976D01*
X85809523Y-125282738D01*
X85904761Y-125187500D01*
X86047619Y-125139880D01*
X86142857Y-125139880D01*
X86285714Y-125187500D01*
X86333333Y-125235119D01*
X87285714Y-126139880D02*
X86714285Y-126139880D01*
X87000000Y-126139880D02*
X87000000Y-125139880D01*
X86904761Y-125282738D01*
X86809523Y-125377976D01*
X86714285Y-125425595D01*
%TO.C,C3*%
X118433333Y-126357142D02*
X118385714Y-126404761D01*
X118242857Y-126452380D01*
X118147619Y-126452380D01*
X118004761Y-126404761D01*
X117909523Y-126309523D01*
X117861904Y-126214285D01*
X117814285Y-126023809D01*
X117814285Y-125880952D01*
X117861904Y-125690476D01*
X117909523Y-125595238D01*
X118004761Y-125500000D01*
X118147619Y-125452380D01*
X118242857Y-125452380D01*
X118385714Y-125500000D01*
X118433333Y-125547619D01*
X118766666Y-125452380D02*
X119385714Y-125452380D01*
X119052380Y-125833333D01*
X119195238Y-125833333D01*
X119290476Y-125880952D01*
X119338095Y-125928571D01*
X119385714Y-126023809D01*
X119385714Y-126261904D01*
X119338095Y-126357142D01*
X119290476Y-126404761D01*
X119195238Y-126452380D01*
X118909523Y-126452380D01*
X118814285Y-126404761D01*
X118766666Y-126357142D01*
%TO.C,J1*%
X76666666Y-131452380D02*
X76666666Y-132166666D01*
X76619047Y-132309523D01*
X76523809Y-132404761D01*
X76380952Y-132452380D01*
X76285714Y-132452380D01*
X77666666Y-132452380D02*
X77095238Y-132452380D01*
X77380952Y-132452380D02*
X77380952Y-131452380D01*
X77285714Y-131595238D01*
X77190476Y-131690476D01*
X77095238Y-131738095D01*
X76735400Y-130631380D02*
X76735400Y-130869476D01*
X76497304Y-130774238D02*
X76735400Y-130869476D01*
X76973495Y-130774238D01*
X76592542Y-131059952D02*
X76735400Y-130869476D01*
X76878257Y-131059952D01*
%TO.C,JP6*%
X116477380Y-130208333D02*
X117191666Y-130208333D01*
X117334523Y-130255952D01*
X117429761Y-130351190D01*
X117477380Y-130494047D01*
X117477380Y-130589285D01*
X117477380Y-129732142D02*
X116477380Y-129732142D01*
X116477380Y-129351190D01*
X116525000Y-129255952D01*
X116572619Y-129208333D01*
X116667857Y-129160714D01*
X116810714Y-129160714D01*
X116905952Y-129208333D01*
X116953571Y-129255952D01*
X117001190Y-129351190D01*
X117001190Y-129732142D01*
X116477380Y-128303571D02*
X116477380Y-128494047D01*
X116525000Y-128589285D01*
X116572619Y-128636904D01*
X116715476Y-128732142D01*
X116905952Y-128779761D01*
X117286904Y-128779761D01*
X117382142Y-128732142D01*
X117429761Y-128684523D01*
X117477380Y-128589285D01*
X117477380Y-128398809D01*
X117429761Y-128303571D01*
X117382142Y-128255952D01*
X117286904Y-128208333D01*
X117048809Y-128208333D01*
X116953571Y-128255952D01*
X116905952Y-128303571D01*
X116858333Y-128398809D01*
X116858333Y-128589285D01*
X116905952Y-128684523D01*
X116953571Y-128732142D01*
X117048809Y-128779761D01*
%TO.C,R15*%
X104252380Y-135242857D02*
X103776190Y-135576190D01*
X104252380Y-135814285D02*
X103252380Y-135814285D01*
X103252380Y-135433333D01*
X103300000Y-135338095D01*
X103347619Y-135290476D01*
X103442857Y-135242857D01*
X103585714Y-135242857D01*
X103680952Y-135290476D01*
X103728571Y-135338095D01*
X103776190Y-135433333D01*
X103776190Y-135814285D01*
X104252380Y-134290476D02*
X104252380Y-134861904D01*
X104252380Y-134576190D02*
X103252380Y-134576190D01*
X103395238Y-134671428D01*
X103490476Y-134766666D01*
X103538095Y-134861904D01*
X103252380Y-133385714D02*
X103252380Y-133861904D01*
X103728571Y-133909523D01*
X103680952Y-133861904D01*
X103633333Y-133766666D01*
X103633333Y-133528571D01*
X103680952Y-133433333D01*
X103728571Y-133385714D01*
X103823809Y-133338095D01*
X104061904Y-133338095D01*
X104157142Y-133385714D01*
X104204761Y-133433333D01*
X104252380Y-133528571D01*
X104252380Y-133766666D01*
X104204761Y-133861904D01*
X104157142Y-133909523D01*
%TO.C,J4*%
X86266666Y-144752380D02*
X86266666Y-145466666D01*
X86219047Y-145609523D01*
X86123809Y-145704761D01*
X85980952Y-145752380D01*
X85885714Y-145752380D01*
X87171428Y-145085714D02*
X87171428Y-145752380D01*
X86933333Y-144704761D02*
X86695238Y-145419047D01*
X87314285Y-145419047D01*
%TO.C,U6*%
X111038095Y-131652380D02*
X111038095Y-132461904D01*
X111085714Y-132557142D01*
X111133333Y-132604761D01*
X111228571Y-132652380D01*
X111419047Y-132652380D01*
X111514285Y-132604761D01*
X111561904Y-132557142D01*
X111609523Y-132461904D01*
X111609523Y-131652380D01*
X112514285Y-131652380D02*
X112323809Y-131652380D01*
X112228571Y-131700000D01*
X112180952Y-131747619D01*
X112085714Y-131890476D01*
X112038095Y-132080952D01*
X112038095Y-132461904D01*
X112085714Y-132557142D01*
X112133333Y-132604761D01*
X112228571Y-132652380D01*
X112419047Y-132652380D01*
X112514285Y-132604761D01*
X112561904Y-132557142D01*
X112609523Y-132461904D01*
X112609523Y-132223809D01*
X112561904Y-132128571D01*
X112514285Y-132080952D01*
X112419047Y-132033333D01*
X112228571Y-132033333D01*
X112133333Y-132080952D01*
X112085714Y-132128571D01*
X112038095Y-132223809D01*
X109600000Y-127036980D02*
X109600000Y-127275076D01*
X109361904Y-127179838D02*
X109600000Y-127275076D01*
X109838095Y-127179838D01*
X109457142Y-127465552D02*
X109600000Y-127275076D01*
X109742857Y-127465552D01*
X109600000Y-127036980D02*
X109600000Y-127275076D01*
X109361904Y-127179838D02*
X109600000Y-127275076D01*
X109838095Y-127179838D01*
X109457142Y-127465552D02*
X109600000Y-127275076D01*
X109742857Y-127465552D01*
%TO.C,C5*%
X104270833Y-128957142D02*
X104223214Y-129004761D01*
X104080357Y-129052380D01*
X103985119Y-129052380D01*
X103842261Y-129004761D01*
X103747023Y-128909523D01*
X103699404Y-128814285D01*
X103651785Y-128623809D01*
X103651785Y-128480952D01*
X103699404Y-128290476D01*
X103747023Y-128195238D01*
X103842261Y-128100000D01*
X103985119Y-128052380D01*
X104080357Y-128052380D01*
X104223214Y-128100000D01*
X104270833Y-128147619D01*
X105175595Y-128052380D02*
X104699404Y-128052380D01*
X104651785Y-128528571D01*
X104699404Y-128480952D01*
X104794642Y-128433333D01*
X105032738Y-128433333D01*
X105127976Y-128480952D01*
X105175595Y-128528571D01*
X105223214Y-128623809D01*
X105223214Y-128861904D01*
X105175595Y-128957142D01*
X105127976Y-129004761D01*
X105032738Y-129052380D01*
X104794642Y-129052380D01*
X104699404Y-129004761D01*
X104651785Y-128957142D01*
%TO.C,R2*%
X86952380Y-148666666D02*
X86476190Y-149000000D01*
X86952380Y-149238095D02*
X85952380Y-149238095D01*
X85952380Y-148857142D01*
X86000000Y-148761904D01*
X86047619Y-148714285D01*
X86142857Y-148666666D01*
X86285714Y-148666666D01*
X86380952Y-148714285D01*
X86428571Y-148761904D01*
X86476190Y-148857142D01*
X86476190Y-149238095D01*
X86047619Y-148285714D02*
X86000000Y-148238095D01*
X85952380Y-148142857D01*
X85952380Y-147904761D01*
X86000000Y-147809523D01*
X86047619Y-147761904D01*
X86142857Y-147714285D01*
X86238095Y-147714285D01*
X86380952Y-147761904D01*
X86952380Y-148333333D01*
X86952380Y-147714285D01*
%TO.C,R5*%
X133133333Y-140952380D02*
X132800000Y-140476190D01*
X132561904Y-140952380D02*
X132561904Y-139952380D01*
X132942857Y-139952380D01*
X133038095Y-140000000D01*
X133085714Y-140047619D01*
X133133333Y-140142857D01*
X133133333Y-140285714D01*
X133085714Y-140380952D01*
X133038095Y-140428571D01*
X132942857Y-140476190D01*
X132561904Y-140476190D01*
X134038095Y-139952380D02*
X133561904Y-139952380D01*
X133514285Y-140428571D01*
X133561904Y-140380952D01*
X133657142Y-140333333D01*
X133895238Y-140333333D01*
X133990476Y-140380952D01*
X134038095Y-140428571D01*
X134085714Y-140523809D01*
X134085714Y-140761904D01*
X134038095Y-140857142D01*
X133990476Y-140904761D01*
X133895238Y-140952380D01*
X133657142Y-140952380D01*
X133561904Y-140904761D01*
X133514285Y-140857142D01*
%TO.C,R9*%
X122933333Y-140752380D02*
X122600000Y-140276190D01*
X122361904Y-140752380D02*
X122361904Y-139752380D01*
X122742857Y-139752380D01*
X122838095Y-139800000D01*
X122885714Y-139847619D01*
X122933333Y-139942857D01*
X122933333Y-140085714D01*
X122885714Y-140180952D01*
X122838095Y-140228571D01*
X122742857Y-140276190D01*
X122361904Y-140276190D01*
X123409523Y-140752380D02*
X123600000Y-140752380D01*
X123695238Y-140704761D01*
X123742857Y-140657142D01*
X123838095Y-140514285D01*
X123885714Y-140323809D01*
X123885714Y-139942857D01*
X123838095Y-139847619D01*
X123790476Y-139800000D01*
X123695238Y-139752380D01*
X123504761Y-139752380D01*
X123409523Y-139800000D01*
X123361904Y-139847619D01*
X123314285Y-139942857D01*
X123314285Y-140180952D01*
X123361904Y-140276190D01*
X123409523Y-140323809D01*
X123504761Y-140371428D01*
X123695238Y-140371428D01*
X123790476Y-140323809D01*
X123838095Y-140276190D01*
X123885714Y-140180952D01*
%TO.C,R14*%
X97652380Y-126642857D02*
X97176190Y-126976190D01*
X97652380Y-127214285D02*
X96652380Y-127214285D01*
X96652380Y-126833333D01*
X96700000Y-126738095D01*
X96747619Y-126690476D01*
X96842857Y-126642857D01*
X96985714Y-126642857D01*
X97080952Y-126690476D01*
X97128571Y-126738095D01*
X97176190Y-126833333D01*
X97176190Y-127214285D01*
X97652380Y-125690476D02*
X97652380Y-126261904D01*
X97652380Y-125976190D02*
X96652380Y-125976190D01*
X96795238Y-126071428D01*
X96890476Y-126166666D01*
X96938095Y-126261904D01*
X96985714Y-124833333D02*
X97652380Y-124833333D01*
X96604761Y-125071428D02*
X97319047Y-125309523D01*
X97319047Y-124690476D01*
%TO.C,JP2*%
X117177380Y-138108333D02*
X117891666Y-138108333D01*
X118034523Y-138155952D01*
X118129761Y-138251190D01*
X118177380Y-138394047D01*
X118177380Y-138489285D01*
X118177380Y-137632142D02*
X117177380Y-137632142D01*
X117177380Y-137251190D01*
X117225000Y-137155952D01*
X117272619Y-137108333D01*
X117367857Y-137060714D01*
X117510714Y-137060714D01*
X117605952Y-137108333D01*
X117653571Y-137155952D01*
X117701190Y-137251190D01*
X117701190Y-137632142D01*
X117272619Y-136679761D02*
X117225000Y-136632142D01*
X117177380Y-136536904D01*
X117177380Y-136298809D01*
X117225000Y-136203571D01*
X117272619Y-136155952D01*
X117367857Y-136108333D01*
X117463095Y-136108333D01*
X117605952Y-136155952D01*
X118177380Y-136727380D01*
X118177380Y-136108333D01*
%TO.C,D1*%
X117461904Y-145952380D02*
X117461904Y-144952380D01*
X117700000Y-144952380D01*
X117842857Y-145000000D01*
X117938095Y-145095238D01*
X117985714Y-145190476D01*
X118033333Y-145380952D01*
X118033333Y-145523809D01*
X117985714Y-145714285D01*
X117938095Y-145809523D01*
X117842857Y-145904761D01*
X117700000Y-145952380D01*
X117461904Y-145952380D01*
X118985714Y-145952380D02*
X118414285Y-145952380D01*
X118700000Y-145952380D02*
X118700000Y-144952380D01*
X118604761Y-145095238D01*
X118509523Y-145190476D01*
X118414285Y-145238095D01*
D11*
%TO.C,C6*%
X90665000Y-128423752D02*
X90665000Y-127901248D01*
X92135000Y-128423752D02*
X92135000Y-127901248D01*
%TO.C,J3*%
X90250000Y-140350000D02*
X90250000Y-145750000D01*
X89750000Y-150550000D02*
X105650000Y-150550000D01*
X89750000Y-145500000D02*
X89750000Y-150550000D01*
X89750000Y-140600000D02*
X90250000Y-140350000D01*
X90250000Y-145750000D02*
X89750000Y-145500000D01*
X90250000Y-137950000D02*
X90250000Y-138900000D01*
X105650000Y-137950000D02*
X90250000Y-137950000D01*
X89750000Y-138600000D02*
X89750000Y-140600000D01*
X105650000Y-150550000D02*
X105650000Y-137950000D01*
X90250000Y-138900000D02*
X89750000Y-138600000D01*
%TO.C,C2*%
X89485000Y-128276248D02*
X89485000Y-128798752D01*
X88015000Y-128276248D02*
X88015000Y-128798752D01*
%TO.C,C7*%
X101065000Y-129237500D02*
X101065000Y-133322500D01*
X102935000Y-133322500D02*
X102935000Y-129237500D01*
X101065000Y-133322500D02*
X102935000Y-133322500D01*
%TO.C,JP1*%
X116950000Y-139300000D02*
X115000000Y-139300000D01*
X115000000Y-139300000D02*
X115000000Y-133800000D01*
X116950000Y-133800000D02*
X116950000Y-139300000D01*
X117200000Y-137950000D02*
X117500000Y-138250000D01*
X117500000Y-138250000D02*
X117500000Y-137650000D01*
X115000000Y-133800000D02*
X116950000Y-133800000D01*
X117500000Y-137650000D02*
X117200000Y-137950000D01*
%TO.C,R8*%
X130027064Y-141335000D02*
X129572936Y-141335000D01*
X130027064Y-139865000D02*
X129572936Y-139865000D01*
%TO.C,R1*%
X83515000Y-128022936D02*
X83515000Y-128477064D01*
X84985000Y-128022936D02*
X84985000Y-128477064D01*
%TO.C,U4*%
X112700000Y-125240000D02*
X110800000Y-125240000D01*
X111300000Y-127560000D02*
X112700000Y-127560000D01*
%TO.C,U5*%
X96993900Y-131349860D02*
X96993900Y-130506100D01*
X96993900Y-135763900D02*
X96993900Y-134920140D01*
X92579860Y-130506100D02*
X91736100Y-130506100D01*
X96150140Y-135763900D02*
X96993900Y-135763900D01*
X91736100Y-134920140D02*
X91736100Y-135763900D01*
X96993900Y-130506100D02*
X96150140Y-130506100D01*
X91736100Y-130506100D02*
X91736100Y-131349860D01*
X91736100Y-135763900D02*
X92579860Y-135763900D01*
D12*
X92874500Y-130074300D02*
X92874500Y-129820300D01*
X92874500Y-129820300D02*
X93255500Y-129820300D01*
X93255500Y-129820300D02*
X93255500Y-130074300D01*
X93255500Y-130074300D02*
X92874500Y-130074300D01*
G36*
X93255500Y-130074300D02*
G01*
X92874500Y-130074300D01*
X92874500Y-129820300D01*
X93255500Y-129820300D01*
X93255500Y-130074300D01*
G37*
X93255500Y-130074300D02*
X92874500Y-130074300D01*
X92874500Y-129820300D01*
X93255500Y-129820300D01*
X93255500Y-130074300D01*
X95474500Y-136195700D02*
X95474500Y-136449700D01*
X95474500Y-136449700D02*
X95855500Y-136449700D01*
X95855500Y-136449700D02*
X95855500Y-136195700D01*
X95855500Y-136195700D02*
X95474500Y-136195700D01*
G36*
X95855500Y-136449700D02*
G01*
X95474500Y-136449700D01*
X95474500Y-136195700D01*
X95855500Y-136195700D01*
X95855500Y-136449700D01*
G37*
X95855500Y-136449700D02*
X95474500Y-136449700D01*
X95474500Y-136195700D01*
X95855500Y-136195700D01*
X95855500Y-136449700D01*
D11*
%TO.C,R13*%
X94372936Y-128735000D02*
X94827064Y-128735000D01*
X94372936Y-127265000D02*
X94827064Y-127265000D01*
%TO.C,D2*%
X120800000Y-143800000D02*
X119500000Y-143800000D01*
X119500000Y-143800000D02*
X119500000Y-144600000D01*
X120800000Y-144600000D02*
X119500000Y-144600000D01*
%TO.C,J2*%
X82674199Y-146466201D02*
X81687539Y-146466201D01*
X82674199Y-148265560D02*
X82674199Y-146466201D01*
X76425799Y-146466201D02*
X76425799Y-148265560D01*
X77679640Y-150327001D02*
X81420358Y-150327001D01*
X77412459Y-146466201D02*
X76425799Y-146466201D01*
%TO.C,JP5*%
X105800000Y-126850000D02*
X107750000Y-126850000D01*
X107750000Y-126850000D02*
X107750000Y-132350000D01*
X105800000Y-132350000D02*
X105800000Y-126850000D01*
X108300000Y-130700000D02*
X108000000Y-131000000D01*
X108300000Y-131300000D02*
X108300000Y-130700000D01*
X107750000Y-132350000D02*
X105800000Y-132350000D01*
X108000000Y-131000000D02*
X108300000Y-131300000D01*
%TO.C,SW1*%
X133900000Y-126510000D02*
X132517000Y-126510000D01*
X128735000Y-129670000D02*
X128735000Y-131023333D01*
X129215000Y-129670000D02*
X129215000Y-131023333D01*
X126075000Y-129670000D02*
X126075000Y-131023333D01*
X125955000Y-129670000D02*
X125955000Y-131023333D01*
X133900000Y-126510000D02*
X133900000Y-127894000D01*
X130605000Y-129670000D02*
X130605000Y-133730000D01*
X126795000Y-133730000D02*
X126795000Y-129670000D01*
X131875000Y-129670000D02*
X130605000Y-129670000D01*
X125360000Y-136650000D02*
X123740000Y-136650000D01*
X130675000Y-129670000D02*
X130675000Y-131023333D01*
X123740000Y-126750000D02*
X123740000Y-136650000D01*
X125525000Y-129670000D02*
X125525000Y-133730000D01*
X131395000Y-129670000D02*
X131395000Y-131023333D01*
X133660000Y-126750000D02*
X132040000Y-126750000D01*
X131275000Y-129670000D02*
X131275000Y-131023333D01*
X128065000Y-133730000D02*
X129335000Y-133730000D01*
X130795000Y-129670000D02*
X130795000Y-131023333D01*
X130440000Y-126750000D02*
X129500000Y-126750000D01*
X125595000Y-129670000D02*
X125595000Y-131023333D01*
X128255000Y-129670000D02*
X128255000Y-131023333D01*
X131875000Y-131023333D02*
X130605000Y-131023333D01*
X131035000Y-129670000D02*
X131035000Y-131023333D01*
X133660000Y-126750000D02*
X133660000Y-136650000D01*
X129095000Y-129670000D02*
X129095000Y-131023333D01*
X128975000Y-129670000D02*
X128975000Y-131023333D01*
X128065000Y-129670000D02*
X128065000Y-133730000D01*
X126675000Y-129670000D02*
X126675000Y-131023333D01*
X131755000Y-129670000D02*
X131755000Y-131023333D01*
X128495000Y-129670000D02*
X128495000Y-131023333D01*
X127900000Y-126750000D02*
X126960000Y-126750000D01*
X129335000Y-131023333D02*
X128065000Y-131023333D01*
X125525000Y-133730000D02*
X126795000Y-133730000D01*
X126795000Y-129670000D02*
X125525000Y-129670000D01*
X128615000Y-129670000D02*
X128615000Y-131023333D01*
X129335000Y-133730000D02*
X129335000Y-129670000D01*
X128375000Y-129670000D02*
X128375000Y-131023333D01*
X130605000Y-133730000D02*
X131875000Y-133730000D01*
X130440000Y-136650000D02*
X129500000Y-136650000D01*
X130915000Y-129670000D02*
X130915000Y-131023333D01*
X131515000Y-129670000D02*
X131515000Y-131023333D01*
X126795000Y-131023333D02*
X125525000Y-131023333D01*
X128855000Y-129670000D02*
X128855000Y-131023333D01*
X127900000Y-136650000D02*
X126960000Y-136650000D01*
X128135000Y-129670000D02*
X128135000Y-131023333D01*
X131635000Y-129670000D02*
X131635000Y-131023333D01*
X125360000Y-126750000D02*
X123740000Y-126750000D01*
X131875000Y-133730000D02*
X131875000Y-129670000D01*
X125835000Y-129670000D02*
X125835000Y-131023333D01*
X126555000Y-129670000D02*
X126555000Y-131023333D01*
X125715000Y-129670000D02*
X125715000Y-131023333D01*
X126195000Y-129670000D02*
X126195000Y-131023333D01*
X131155000Y-129670000D02*
X131155000Y-131023333D01*
X126435000Y-129670000D02*
X126435000Y-131023333D01*
X133660000Y-136650000D02*
X132040000Y-136650000D01*
X126315000Y-129670000D02*
X126315000Y-131023333D01*
X129335000Y-129670000D02*
X128065000Y-129670000D01*
%TO.C,U2*%
X108379100Y-141128900D02*
X112620900Y-141128900D01*
X112620900Y-135871100D02*
X108379100Y-135871100D01*
%TO.C,U3*%
X126617433Y-148629000D02*
X130982567Y-148629000D01*
X130982567Y-141771000D02*
X126617433Y-141771000D01*
D12*
X132965600Y-142084563D02*
X132965600Y-142465563D01*
X132965600Y-142465563D02*
X132711600Y-142465563D01*
X132711600Y-142465563D02*
X132711600Y-142084563D01*
X132711600Y-142084563D02*
X132965600Y-142084563D01*
G36*
X132965600Y-142465563D02*
G01*
X132711600Y-142465563D01*
X132711600Y-142084563D01*
X132965600Y-142084563D01*
X132965600Y-142465563D01*
G37*
X132965600Y-142465563D02*
X132711600Y-142465563D01*
X132711600Y-142084563D01*
X132965600Y-142084563D01*
X132965600Y-142465563D01*
X124634400Y-147934437D02*
X124634400Y-148315437D01*
X124634400Y-148315437D02*
X124888400Y-148315437D01*
X124888400Y-148315437D02*
X124888400Y-147934437D01*
X124888400Y-147934437D02*
X124634400Y-147934437D01*
G36*
X124888400Y-148315437D02*
G01*
X124634400Y-148315437D01*
X124634400Y-147934437D01*
X124888400Y-147934437D01*
X124888400Y-148315437D01*
G37*
X124888400Y-148315437D02*
X124634400Y-148315437D01*
X124634400Y-147934437D01*
X124888400Y-147934437D01*
X124888400Y-148315437D01*
D11*
%TO.C,C1*%
X85565000Y-126452500D02*
X85565000Y-130537500D01*
X87435000Y-130537500D02*
X87435000Y-126452500D01*
X87435000Y-126452500D02*
X85565000Y-126452500D01*
%TO.C,C3*%
X115823752Y-125665000D02*
X115301248Y-125665000D01*
X115823752Y-127135000D02*
X115301248Y-127135000D01*
%TO.C,J1*%
X81120359Y-125819600D02*
X77379641Y-125819600D01*
X76125800Y-129680400D02*
X77112460Y-129680400D01*
X82374200Y-129680400D02*
X82374200Y-127881041D01*
X76125800Y-127881041D02*
X76125800Y-129680400D01*
X81387540Y-129680400D02*
X82374200Y-129680400D01*
%TO.C,JP6*%
X120300000Y-131200000D02*
X120000000Y-131500000D01*
X120300000Y-131800000D02*
X120300000Y-131200000D01*
X119750000Y-127350000D02*
X119750000Y-132850000D01*
X120000000Y-131500000D02*
X120300000Y-131800000D01*
X119750000Y-132850000D02*
X117800000Y-132850000D01*
X117800000Y-127350000D02*
X119750000Y-127350000D01*
X117800000Y-132850000D02*
X117800000Y-127350000D01*
%TO.C,R15*%
X101265000Y-135627064D02*
X101265000Y-135172936D01*
X102735000Y-135627064D02*
X102735000Y-135172936D01*
%TO.C,J4*%
X81100000Y-132965000D02*
X76000000Y-132965000D01*
X87650000Y-133465000D02*
X87900000Y-132965000D01*
X76000000Y-143815000D02*
X88600000Y-143815000D01*
X76000000Y-132965000D02*
X76000000Y-143815000D01*
X88600000Y-143815000D02*
X88600000Y-133465000D01*
X85950000Y-132965000D02*
X86200000Y-133465000D01*
X80800000Y-133465000D02*
X81100000Y-132965000D01*
X86000000Y-132965000D02*
X85950000Y-132965000D01*
X88600000Y-133465000D02*
X87650000Y-133465000D01*
X86200000Y-133465000D02*
X80800000Y-133465000D01*
X87900000Y-132965000D02*
X86000000Y-132965000D01*
%TO.C,U6*%
X113349400Y-128050600D02*
X110250600Y-128050600D01*
X110250600Y-131149400D02*
X113349400Y-131149400D01*
X111495200Y-128050600D02*
G75*
G03*
X112104800Y-128050600I304800J0D01*
G01*
%TO.C,C5*%
X103298752Y-127535000D02*
X102776248Y-127535000D01*
X103298752Y-126065000D02*
X102776248Y-126065000D01*
%TO.C,R2*%
X83765000Y-148727064D02*
X83765000Y-148272936D01*
X85235000Y-148727064D02*
X85235000Y-148272936D01*
%TO.C,R5*%
X132527064Y-137865000D02*
X132072936Y-137865000D01*
X132527064Y-139335000D02*
X132072936Y-139335000D01*
%TO.C,R9*%
X124772936Y-139335000D02*
X125227064Y-139335000D01*
X124772936Y-137865000D02*
X125227064Y-137865000D01*
%TO.C,R14*%
X94827064Y-125265000D02*
X94372936Y-125265000D01*
X94827064Y-126735000D02*
X94372936Y-126735000D01*
%TO.C,JP2*%
X120450000Y-135250000D02*
X120450000Y-140750000D01*
X118500000Y-140750000D02*
X118500000Y-135250000D01*
X120700000Y-139400000D02*
X121000000Y-139700000D01*
X121000000Y-139100000D02*
X120700000Y-139400000D01*
X118500000Y-135250000D02*
X120450000Y-135250000D01*
X121000000Y-139700000D02*
X121000000Y-139100000D01*
X120450000Y-140750000D02*
X118500000Y-140750000D01*
%TO.C,D1*%
X120800000Y-145000000D02*
X119500000Y-145000000D01*
X120800000Y-145800000D02*
X119500000Y-145800000D01*
X119500000Y-145000000D02*
X119500000Y-145800000D01*
%TD*%
M02*
