%TF.GenerationSoftware,KiCad,Pcbnew,6.0.11-2627ca5db0~126~ubuntu22.04.1*%
%TF.CreationDate,2023-02-14T22:11:30-05:00*%
%TF.ProjectId,sensor-board,73656e73-6f72-42d6-926f-6172642e6b69,v2.0*%
%TF.SameCoordinates,Original*%
%TF.FileFunction,Copper,L1,Top*%
%TF.FilePolarity,Positive*%
%FSLAX46Y46*%
G04 Gerber Fmt 4.6, Leading zero omitted, Abs format (unit mm)*
G04 Created by KiCad (PCBNEW 6.0.11-2627ca5db0~126~ubuntu22.04.1) date 2023-02-14 22:11:30*
%MOMM*%
%LPD*%
G01*
G04 APERTURE LIST*
G04 Aperture macros list*
%AMRoundRect*
0 Rectangle with rounded corners*
0 $1 Rounding radius*
0 $2 $3 $4 $5 $6 $7 $8 $9 X,Y pos of 4 corners*
0 Add a 4 corners polygon primitive as box body*
4,1,4,$2,$3,$4,$5,$6,$7,$8,$9,$2,$3,0*
0 Add four circle primitives for the rounded corners*
1,1,$1+$1,$2,$3*
1,1,$1+$1,$4,$5*
1,1,$1+$1,$6,$7*
1,1,$1+$1,$8,$9*
0 Add four rect primitives between the rounded corners*
20,1,$1+$1,$2,$3,$4,$5,0*
20,1,$1+$1,$4,$5,$6,$7,0*
20,1,$1+$1,$6,$7,$8,$9,0*
20,1,$1+$1,$8,$9,$2,$3,0*%
%AMFreePoly0*
4,1,6,1.000000,0.000000,0.500000,-0.750000,-0.500000,-0.750000,-0.500000,0.750000,0.500000,0.750000,1.000000,0.000000,1.000000,0.000000,$1*%
%AMFreePoly1*
4,1,7,0.700000,0.000000,1.200000,-0.750000,-1.200000,-0.750000,-0.700000,0.000000,-1.200000,0.750000,1.200000,0.750000,0.700000,0.000000,0.700000,0.000000,$1*%
%AMFreePoly2*
4,1,6,0.500000,-0.750000,-0.650000,-0.750000,-0.150000,0.000000,-0.650000,0.750000,0.500000,0.750000,0.500000,-0.750000,0.500000,-0.750000,$1*%
G04 Aperture macros list end*
%TA.AperFunction,SMDPad,CuDef*%
%ADD10R,3.500000X1.800000*%
%TD*%
%TA.AperFunction,SMDPad,CuDef*%
%ADD11RoundRect,0.250000X0.475000X-0.337500X0.475000X0.337500X-0.475000X0.337500X-0.475000X-0.337500X0*%
%TD*%
%TA.AperFunction,ComponentPad*%
%ADD12R,1.980000X3.960000*%
%TD*%
%TA.AperFunction,ComponentPad*%
%ADD13O,1.980000X3.960000*%
%TD*%
%TA.AperFunction,SMDPad,CuDef*%
%ADD14RoundRect,0.250000X-0.475000X0.337500X-0.475000X-0.337500X0.475000X-0.337500X0.475000X0.337500X0*%
%TD*%
%TA.AperFunction,SMDPad,CuDef*%
%ADD15RoundRect,0.250000X0.425000X-0.537500X0.425000X0.537500X-0.425000X0.537500X-0.425000X-0.537500X0*%
%TD*%
%TA.AperFunction,SMDPad,CuDef*%
%ADD16FreePoly0,180.000000*%
%TD*%
%TA.AperFunction,SMDPad,CuDef*%
%ADD17FreePoly1,180.000000*%
%TD*%
%TA.AperFunction,SMDPad,CuDef*%
%ADD18FreePoly0,0.000000*%
%TD*%
%TA.AperFunction,SMDPad,CuDef*%
%ADD19RoundRect,0.250000X0.350000X0.450000X-0.350000X0.450000X-0.350000X-0.450000X0.350000X-0.450000X0*%
%TD*%
%TA.AperFunction,SMDPad,CuDef*%
%ADD20RoundRect,0.250000X-0.450000X0.350000X-0.450000X-0.350000X0.450000X-0.350000X0.450000X0.350000X0*%
%TD*%
%TA.AperFunction,SMDPad,CuDef*%
%ADD21R,0.650000X0.400000*%
%TD*%
%TA.AperFunction,SMDPad,CuDef*%
%ADD22R,0.762000X0.304800*%
%TD*%
%TA.AperFunction,SMDPad,CuDef*%
%ADD23R,0.304800X0.762000*%
%TD*%
%TA.AperFunction,SMDPad,CuDef*%
%ADD24R,3.352800X3.352800*%
%TD*%
%TA.AperFunction,SMDPad,CuDef*%
%ADD25RoundRect,0.250000X-0.350000X-0.450000X0.350000X-0.450000X0.350000X0.450000X-0.350000X0.450000X0*%
%TD*%
%TA.AperFunction,SMDPad,CuDef*%
%ADD26R,0.609600X1.549400*%
%TD*%
%TA.AperFunction,SMDPad,CuDef*%
%ADD27R,1.193800X1.803400*%
%TD*%
%TA.AperFunction,SMDPad,CuDef*%
%ADD28FreePoly0,90.000000*%
%TD*%
%TA.AperFunction,SMDPad,CuDef*%
%ADD29FreePoly1,90.000000*%
%TD*%
%TA.AperFunction,SMDPad,CuDef*%
%ADD30FreePoly0,270.000000*%
%TD*%
%TA.AperFunction,SMDPad,CuDef*%
%ADD31FreePoly2,270.000000*%
%TD*%
%TA.AperFunction,SMDPad,CuDef*%
%ADD32R,1.460500X0.533400*%
%TD*%
%TA.AperFunction,SMDPad,CuDef*%
%ADD33R,1.409700X0.355600*%
%TD*%
%TA.AperFunction,SMDPad,CuDef*%
%ADD34RoundRect,0.250000X-0.425000X0.537500X-0.425000X-0.537500X0.425000X-0.537500X0.425000X0.537500X0*%
%TD*%
%TA.AperFunction,SMDPad,CuDef*%
%ADD35RoundRect,0.250000X0.337500X0.475000X-0.337500X0.475000X-0.337500X-0.475000X0.337500X-0.475000X0*%
%TD*%
%TA.AperFunction,SMDPad,CuDef*%
%ADD36RoundRect,0.250000X0.450000X-0.350000X0.450000X0.350000X-0.450000X0.350000X-0.450000X-0.350000X0*%
%TD*%
%TA.AperFunction,ComponentPad*%
%ADD37R,3.960000X1.980000*%
%TD*%
%TA.AperFunction,ComponentPad*%
%ADD38O,3.960000X1.980000*%
%TD*%
%TA.AperFunction,SMDPad,CuDef*%
%ADD39R,1.422400X0.431800*%
%TD*%
%TA.AperFunction,ViaPad*%
%ADD40C,0.800000*%
%TD*%
%TA.AperFunction,Conductor*%
%ADD41C,0.200000*%
%TD*%
%TA.AperFunction,Conductor*%
%ADD42C,0.250000*%
%TD*%
G04 APERTURE END LIST*
D10*
%TO.P,D2,1,K*%
%TO.N,VIN-*%
X116447000Y-145621000D03*
%TO.P,D2,2,A*%
%TO.N,Net-(U3-Pad4)*%
X121447000Y-145621000D03*
%TD*%
D11*
%TO.P,C6,1*%
%TO.N,+3V3*%
X91400000Y-129200000D03*
%TO.P,C6,2*%
%TO.N,GND*%
X91400000Y-127125000D03*
%TD*%
D12*
%TO.P,J3,1,Pin_1*%
%TO.N,+3V3*%
X103000000Y-144250000D03*
D13*
%TO.P,J3,2,Pin_2*%
%TO.N,DQ*%
X98000000Y-144250000D03*
%TO.P,J3,3,Pin_3*%
%TO.N,GND*%
X93000000Y-144250000D03*
%TD*%
D14*
%TO.P,C2,1*%
%TO.N,+3V3*%
X88750000Y-127500000D03*
%TO.P,C2,2*%
%TO.N,GND*%
X88750000Y-129575000D03*
%TD*%
D15*
%TO.P,C7,1*%
%TO.N,+3V3A*%
X102000000Y-132275000D03*
%TO.P,C7,2*%
%TO.N,GNDA*%
X102000000Y-129400000D03*
%TD*%
D16*
%TO.P,JP2,1,A*%
%TO.N,GND*%
X119348000Y-135255000D03*
D17*
%TO.P,JP2,2,C*%
%TO.N,Net-(JP2-Pad2)*%
X117348000Y-135255000D03*
D18*
%TO.P,JP2,3,B*%
%TO.N,+3V3*%
X115348000Y-135255000D03*
%TD*%
D19*
%TO.P,R5,1*%
%TO.N,+3V3*%
X130800000Y-140600000D03*
%TO.P,R5,2*%
%TO.N,A1*%
X128800000Y-140600000D03*
%TD*%
D20*
%TO.P,R1,1*%
%TO.N,+3V3*%
X84250000Y-127250000D03*
%TO.P,R1,2*%
%TO.N,SCL*%
X84250000Y-129250000D03*
%TD*%
D21*
%TO.P,U4,1,+*%
%TO.N,Net-(D3-Pad1)*%
X111050000Y-125750000D03*
%TO.P,U4,2,V-*%
%TO.N,GNDA*%
X111050000Y-126400000D03*
%TO.P,U4,3,-*%
%TO.N,Net-(U4-Pad3)*%
X111050000Y-127050000D03*
%TO.P,U4,4*%
X112950000Y-127050000D03*
%TO.P,U4,5,~{SHDN}*%
%TO.N,+3V3A*%
X112950000Y-126400000D03*
%TO.P,U4,6,V+*%
X112950000Y-125750000D03*
%TD*%
D22*
%TO.P,U5,1,GND*%
%TO.N,GND*%
X91939300Y-131835000D03*
%TO.P,U5,2,VIN+*%
%TO.N,Net-(C4-Pad1)*%
X91939300Y-132485001D03*
%TO.P,U5,3,GND*%
%TO.N,GND*%
X91939300Y-133135000D03*
%TO.P,U5,4,VIN-*%
%TO.N,Net-(C4-Pad2)*%
X91939300Y-133784999D03*
%TO.P,U5,5,GND*%
%TO.N,GND*%
X91939300Y-134435000D03*
D23*
%TO.P,U5,6,VSENSE*%
%TO.N,Net-(C4-Pad1)*%
X93065000Y-135560700D03*
%TO.P,U5,7,SC_ALERT*%
%TO.N,unconnected-(U5-Pad7)*%
X93715001Y-135560700D03*
%TO.P,U5,8,VDD*%
%TO.N,+3V3*%
X94365000Y-135560700D03*
%TO.P,U5,9,OC_ALERT*%
%TO.N,unconnected-(U5-Pad9)*%
X95014999Y-135560700D03*
%TO.P,U5,10,GND*%
%TO.N,GND*%
X95665000Y-135560700D03*
D22*
%TO.P,U5,11,ALERT1*%
%TO.N,unconnected-(U5-Pad11)*%
X96790700Y-134435000D03*
%TO.P,U5,12,ALERT2*%
%TO.N,unconnected-(U5-Pad12)*%
X96790700Y-133784999D03*
%TO.P,U5,13,GND*%
%TO.N,GND*%
X96790700Y-133135000D03*
%TO.P,U5,14,ALERT3*%
%TO.N,unconnected-(U5-Pad14)*%
X96790700Y-132485001D03*
%TO.P,U5,15,ALERT4*%
%TO.N,unconnected-(U5-Pad15)*%
X96790700Y-131835000D03*
D23*
%TO.P,U5,16,ADDR*%
%TO.N,Net-(R13-Pad2)*%
X95665000Y-130709300D03*
%TO.P,U5,17,GND*%
%TO.N,GND*%
X95014999Y-130709300D03*
%TO.P,U5,18,GND*%
X94365000Y-130709300D03*
%TO.P,U5,19,SCL*%
%TO.N,SCL*%
X93715001Y-130709300D03*
%TO.P,U5,20,SDA*%
%TO.N,SDA*%
X93065000Y-130709300D03*
D24*
%TO.P,U5,21,GND*%
%TO.N,GND*%
X94365000Y-133135000D03*
%TD*%
D25*
%TO.P,R13,1*%
%TO.N,+3V3*%
X93600000Y-128000000D03*
%TO.P,R13,2*%
%TO.N,Net-(R13-Pad2)*%
X95600000Y-128000000D03*
%TD*%
D26*
%TO.P,J2,1,1*%
%TO.N,GND*%
X81049999Y-146975001D03*
%TO.P,J2,2,2*%
%TO.N,+3V3*%
X80049998Y-146975001D03*
%TO.P,J2,3,3*%
%TO.N,SDA*%
X79050000Y-146975001D03*
%TO.P,J2,4,4*%
%TO.N,SCL*%
X78049999Y-146975001D03*
D27*
%TO.P,J2,5*%
%TO.N,N/C*%
X82349998Y-149500000D03*
%TO.P,J2,6*%
X76750000Y-149500000D03*
%TD*%
D28*
%TO.P,JP8,1,A*%
%TO.N,GNDA*%
X106800000Y-131600000D03*
D29*
%TO.P,JP8,2,C*%
%TO.N,Net-(JP8-Pad2)*%
X106800000Y-129600000D03*
D30*
%TO.P,JP8,3,B*%
%TO.N,+3V3A*%
X106800000Y-127600000D03*
%TD*%
%TO.P,JP1,1,A*%
%TO.N,GND*%
X131191000Y-134239335D03*
D31*
%TO.P,JP1,2,B*%
%TO.N,A0*%
X131191000Y-135689335D03*
%TD*%
D32*
%TO.P,U2,1,VCC*%
%TO.N,+3V3*%
X107775850Y-136595000D03*
%TO.P,U2,2,IO*%
%TO.N,DQ*%
X107775850Y-137865000D03*
%TO.P,U2,3,GND*%
%TO.N,GND*%
X107775850Y-139135000D03*
%TO.P,U2,4,SCL*%
%TO.N,SCL*%
X107775850Y-140405000D03*
%TO.P,U2,5,SDA*%
%TO.N,SDA*%
X113224150Y-140405000D03*
%TO.P,U2,6,PCTLZ*%
%TO.N,PCTLZ*%
X113224150Y-139135000D03*
%TO.P,U2,7,AD1*%
%TO.N,Net-(JP3-Pad2)*%
X113224150Y-137865000D03*
%TO.P,U2,8,AD0*%
%TO.N,Net-(JP2-Pad2)*%
X113224150Y-136595000D03*
%TD*%
D33*
%TO.P,U3,1,A0*%
%TO.N,A0*%
X125847250Y-142275063D03*
%TO.P,U3,2,A1*%
%TO.N,A1*%
X125847250Y-142925049D03*
%TO.P,U3,3,A2*%
%TO.N,A2*%
X125847250Y-143575035D03*
%TO.P,U3,4,IO0*%
%TO.N,Net-(U3-Pad4)*%
X125847250Y-144225021D03*
%TO.P,U3,5,IO1*%
%TO.N,Net-(U3-Pad5)*%
X125847250Y-144875007D03*
%TO.P,U3,6,IO2*%
%TO.N,unconnected-(U3-Pad6)*%
X125847250Y-145524993D03*
%TO.P,U3,7,IO3*%
%TO.N,unconnected-(U3-Pad7)*%
X125847250Y-146174979D03*
%TO.P,U3,8,INT*%
%TO.N,unconnected-(U3-Pad8)*%
X125847250Y-146824965D03*
%TO.P,U3,9,A5*%
%TO.N,+3V3*%
X125847250Y-147474951D03*
%TO.P,U3,10,VSS*%
%TO.N,GND*%
X125847250Y-148124937D03*
%TO.P,U3,11,A4*%
%TO.N,+3V3*%
X131752750Y-148124937D03*
%TO.P,U3,12,A3*%
X131752750Y-147474951D03*
%TO.P,U3,13,IO4*%
%TO.N,A0*%
X131752750Y-146824965D03*
%TO.P,U3,14,IO5*%
%TO.N,A1*%
X131752750Y-146174979D03*
%TO.P,U3,15,IO6*%
%TO.N,A2*%
X131752750Y-145524993D03*
%TO.P,U3,16,IO7*%
%TO.N,Net-(R4-Pad2)*%
X131752750Y-144875007D03*
%TO.P,U3,17,WC*%
X131752750Y-144225021D03*
%TO.P,U3,18,SCL*%
%TO.N,SCL*%
X131752750Y-143575035D03*
%TO.P,U3,19,SDA*%
%TO.N,SDA*%
X131752750Y-142925049D03*
%TO.P,U3,20,VDD*%
%TO.N,+3V3*%
X131752750Y-142275063D03*
%TD*%
D34*
%TO.P,C1,1*%
%TO.N,+3V3*%
X86500000Y-127500000D03*
%TO.P,C1,2*%
%TO.N,GND*%
X86500000Y-130375000D03*
%TD*%
D30*
%TO.P,JP5,1,A*%
%TO.N,GND*%
X126093323Y-134215981D03*
D31*
%TO.P,JP5,2,B*%
%TO.N,A2*%
X126093323Y-135665981D03*
%TD*%
D35*
%TO.P,C3,1*%
%TO.N,GNDA*%
X116600000Y-126400000D03*
%TO.P,C3,2*%
%TO.N,+3V3A*%
X114525000Y-126400000D03*
%TD*%
D26*
%TO.P,J1,1,1*%
%TO.N,GND*%
X77750000Y-129171600D03*
%TO.P,J1,2,2*%
%TO.N,+3V3*%
X78750001Y-129171600D03*
%TO.P,J1,3,3*%
%TO.N,SDA*%
X79749999Y-129171600D03*
%TO.P,J1,4,4*%
%TO.N,SCL*%
X80750000Y-129171600D03*
D27*
%TO.P,J1,5*%
%TO.N,N/C*%
X76450001Y-126646601D03*
%TO.P,J1,6*%
X82049999Y-126646601D03*
%TD*%
D28*
%TO.P,JP9,1,A*%
%TO.N,GNDA*%
X118800000Y-132100000D03*
D29*
%TO.P,JP9,2,C*%
%TO.N,Net-(JP9-Pad2)*%
X118800000Y-130100000D03*
D30*
%TO.P,JP9,3,B*%
%TO.N,+3V3A*%
X118800000Y-128100000D03*
%TD*%
D36*
%TO.P,R15,1*%
%TO.N,+3V3*%
X102000000Y-136400000D03*
%TO.P,R15,2*%
%TO.N,+3V3A*%
X102000000Y-134400000D03*
%TD*%
D37*
%TO.P,J4,1,Pin_1*%
%TO.N,VIN+*%
X82300000Y-141165000D03*
D38*
%TO.P,J4,2,Pin_2*%
%TO.N,VIN-*%
X82300000Y-136165000D03*
%TD*%
D39*
%TO.P,U6,1,VREF*%
%TO.N,+3V3A*%
X109628300Y-128625001D03*
%TO.P,U6,2,AIN*%
%TO.N,Net-(U4-Pad3)*%
X109628300Y-129274999D03*
%TO.P,U6,3,A0*%
%TO.N,Net-(JP8-Pad2)*%
X109628300Y-129925001D03*
%TO.P,U6,4,GND*%
%TO.N,GNDA*%
X109628300Y-130574999D03*
%TO.P,U6,5,A1*%
%TO.N,Net-(JP9-Pad2)*%
X113971700Y-130574999D03*
%TO.P,U6,6,SDA*%
%TO.N,SDA*%
X113971700Y-129925001D03*
%TO.P,U6,7,SCL*%
%TO.N,SCL*%
X113971700Y-129274999D03*
%TO.P,U6,8,VDD*%
%TO.N,+3V3A*%
X113971700Y-128625001D03*
%TD*%
D35*
%TO.P,C5,1*%
%TO.N,+3V3A*%
X104075000Y-126800000D03*
%TO.P,C5,2*%
%TO.N,GNDA*%
X102000000Y-126800000D03*
%TD*%
D30*
%TO.P,JP4,1,A*%
%TO.N,GND*%
X128651000Y-134239000D03*
D31*
%TO.P,JP4,2,B*%
%TO.N,A1*%
X128651000Y-135689000D03*
%TD*%
D36*
%TO.P,R2,1*%
%TO.N,+3V3*%
X84500000Y-149500000D03*
%TO.P,R2,2*%
%TO.N,SDA*%
X84500000Y-147500000D03*
%TD*%
D19*
%TO.P,R3,1*%
%TO.N,+3V3*%
X133300000Y-138600000D03*
%TO.P,R3,2*%
%TO.N,A0*%
X131300000Y-138600000D03*
%TD*%
D25*
%TO.P,R7,1*%
%TO.N,+3V3*%
X124000000Y-138600000D03*
%TO.P,R7,2*%
%TO.N,A2*%
X126000000Y-138600000D03*
%TD*%
D19*
%TO.P,R14,1*%
%TO.N,Net-(R13-Pad2)*%
X95600000Y-126000000D03*
%TO.P,R14,2*%
%TO.N,GND*%
X93600000Y-126000000D03*
%TD*%
D16*
%TO.P,JP3,1,A*%
%TO.N,GND*%
X119348000Y-138938000D03*
D17*
%TO.P,JP3,2,C*%
%TO.N,Net-(JP3-Pad2)*%
X117348000Y-138938000D03*
D18*
%TO.P,JP3,3,B*%
%TO.N,+3V3*%
X115348000Y-138938000D03*
%TD*%
D40*
%TO.N,Net-(U3-Pad5)*%
X124147000Y-145121000D03*
%TO.N,+3V3*%
X128500000Y-144700000D03*
X110000000Y-139500000D03*
X85750000Y-143500000D03*
%TO.N,GND*%
X120142000Y-140970000D03*
X78000000Y-131000000D03*
X121158000Y-134366000D03*
X106250000Y-139250000D03*
X123952000Y-134493000D03*
X88250000Y-131000000D03*
X91400000Y-126000000D03*
X81500000Y-145724500D03*
X94250000Y-133250000D03*
X123900000Y-149100000D03*
%TO.N,VIN+*%
X89600000Y-141175500D03*
X111000000Y-130200000D03*
X102300000Y-139900000D03*
X110547000Y-145400000D03*
%TO.N,VIN-*%
X104100000Y-139900000D03*
X109526000Y-144324500D03*
X88100000Y-136200000D03*
%TO.N,GNDA*%
X117200000Y-131700000D03*
X102000000Y-128000000D03*
X105000000Y-130800000D03*
X110085493Y-125738744D03*
X119000000Y-126800000D03*
X109600000Y-131600000D03*
%TO.N,+3V3A*%
X120100000Y-126000000D03*
%TO.N,Net-(C4-Pad1)*%
X90000000Y-132500000D03*
X80900000Y-143400000D03*
X80600000Y-139200000D03*
X90912299Y-136387701D03*
%TO.N,SDA*%
X115600000Y-129850499D03*
X93000000Y-129500000D03*
X133510377Y-142606611D03*
X114790000Y-141750000D03*
X79050000Y-145050000D03*
X79750000Y-131500000D03*
X84500000Y-146000000D03*
%TO.N,SCL*%
X85900000Y-141900000D03*
X80750000Y-132000000D03*
X133400000Y-143600000D03*
X84250000Y-130750000D03*
X79250000Y-142500000D03*
X94000000Y-129500000D03*
X105750000Y-140750000D03*
X115600000Y-128800000D03*
%TO.N,DQ*%
X109250000Y-137750000D03*
%TO.N,Net-(C4-Pad2)*%
X80900000Y-133800000D03*
X87300000Y-133800000D03*
%TO.N,PCTLZ*%
X112000000Y-139250000D03*
%TO.N,Net-(D3-Pad1)*%
X111800000Y-125600000D03*
%TO.N,A0*%
X133500000Y-147300000D03*
X128924937Y-142275063D03*
%TO.N,A1*%
X127300000Y-140600000D03*
X133400000Y-146000000D03*
%TO.N,A2*%
X129800000Y-146200000D03*
X124368369Y-140231631D03*
%TO.N,Net-(R13-Pad2)*%
X97000000Y-128000000D03*
X96400000Y-130800000D03*
%TO.N,Net-(R4-Pad2)*%
X133300000Y-144600000D03*
%TD*%
D41*
%TO.N,VIN-*%
X114447000Y-145621000D02*
X113147000Y-144321000D01*
X116447000Y-145621000D02*
X114447000Y-145621000D01*
X113147000Y-144321000D02*
X109529500Y-144321000D01*
X109529500Y-144321000D02*
X109526000Y-144324500D01*
D42*
%TO.N,Net-(U3-Pad5)*%
X124392993Y-144875007D02*
X124147000Y-145121000D01*
X125847250Y-144875007D02*
X124392993Y-144875007D01*
%TO.N,Net-(U3-Pad4)*%
X125847250Y-144225021D02*
X123742979Y-144225021D01*
X123742979Y-144225021D02*
X122347000Y-145621000D01*
X122347000Y-145621000D02*
X121447000Y-145621000D01*
%TO.N,+3V3*%
X132224937Y-142275063D02*
X132624937Y-142275063D01*
X84500000Y-150500000D02*
X84500000Y-149500000D01*
X95000000Y-129400000D02*
X97200000Y-129400000D01*
X131752750Y-142275063D02*
X132224937Y-142275063D01*
X81000000Y-125200000D02*
X80400000Y-125800000D01*
X84200000Y-125600000D02*
X83600000Y-125600000D01*
X90450000Y-129200000D02*
X88750000Y-127500000D01*
X94365000Y-135560700D02*
X94365000Y-136965000D01*
X80600000Y-150600000D02*
X81400000Y-150600000D01*
X81600000Y-150800000D02*
X84200000Y-150800000D01*
X83600000Y-125600000D02*
X83200000Y-125200000D01*
X84200000Y-150800000D02*
X84500000Y-150500000D01*
X94365000Y-136965000D02*
X94400000Y-137000000D01*
X91400000Y-129200000D02*
X92600000Y-128000000D01*
X83200000Y-125200000D02*
X81000000Y-125200000D01*
X91400000Y-129200000D02*
X90450000Y-129200000D01*
X92600000Y-128000000D02*
X93600000Y-128000000D01*
X81400000Y-150600000D02*
X81600000Y-150800000D01*
X132624937Y-142275063D02*
X133100000Y-141800000D01*
X123874951Y-147474951D02*
X123700000Y-147300000D01*
X133100000Y-141800000D02*
X133100000Y-141400000D01*
X93600000Y-128000000D02*
X95000000Y-129400000D01*
X125847250Y-147474951D02*
X123874951Y-147474951D01*
%TO.N,GND*%
X106250000Y-139250000D02*
X107660850Y-139250000D01*
X128651000Y-134239000D02*
X126116342Y-134239000D01*
X120904000Y-134112000D02*
X121158000Y-134366000D01*
X119507000Y-134112000D02*
X120904000Y-134112000D01*
X95665000Y-135560700D02*
X95665000Y-134435000D01*
X95014999Y-130709300D02*
X95014999Y-132485001D01*
X128651335Y-134239335D02*
X128651000Y-134239000D01*
X88250000Y-131000000D02*
X88750000Y-130500000D01*
X88250000Y-131000000D02*
X87625000Y-130375000D01*
X124229019Y-134215981D02*
X123952000Y-134493000D01*
X95014999Y-132485001D02*
X94365000Y-133135000D01*
X94365000Y-133135000D02*
X94250000Y-133250000D01*
X77750000Y-129171600D02*
X77750000Y-130750000D01*
X93065000Y-131835000D02*
X94365000Y-133135000D01*
X93065000Y-134435000D02*
X94365000Y-133135000D01*
X95665000Y-134435000D02*
X94365000Y-133135000D01*
X126093323Y-134215981D02*
X124229019Y-134215981D01*
X124875063Y-148124937D02*
X125847250Y-148124937D01*
X88750000Y-130500000D02*
X88750000Y-129575000D01*
X81049999Y-146975001D02*
X81049999Y-146174501D01*
X87625000Y-130375000D02*
X86500000Y-130375000D01*
X94365000Y-130709300D02*
X94365000Y-133135000D01*
X81049999Y-146174501D02*
X81500000Y-145724500D01*
X107660850Y-139250000D02*
X107775850Y-139135000D01*
X91939300Y-133135000D02*
X94135000Y-133135000D01*
X77750000Y-130750000D02*
X78000000Y-131000000D01*
X91939300Y-131835000D02*
X93065000Y-131835000D01*
X91400000Y-126000000D02*
X93600000Y-126000000D01*
X119348000Y-140176000D02*
X120142000Y-140970000D01*
X119348000Y-135255000D02*
X119348000Y-134271000D01*
X119348000Y-134271000D02*
X119507000Y-134112000D01*
X91939300Y-134435000D02*
X93065000Y-134435000D01*
X91400000Y-127125000D02*
X91400000Y-126000000D01*
X131191000Y-134239335D02*
X128651335Y-134239335D01*
X94135000Y-133135000D02*
X94250000Y-133250000D01*
X126116342Y-134239000D02*
X126093323Y-134215981D01*
X96790700Y-133135000D02*
X94365000Y-133135000D01*
X119348000Y-138938000D02*
X119348000Y-140176000D01*
X123900000Y-149100000D02*
X124875063Y-148124937D01*
D41*
%TO.N,VIN-*%
X104100000Y-139900000D02*
X104100000Y-140089259D01*
X88085000Y-136185000D02*
X88100000Y-136200000D01*
X88085000Y-136165000D02*
X88085000Y-136185000D01*
D42*
%TO.N,GNDA*%
X102000000Y-127237500D02*
X101762500Y-127000000D01*
X118800000Y-132100000D02*
X117600000Y-132100000D01*
X117000000Y-126800000D02*
X116600000Y-126400000D01*
X109628300Y-130574999D02*
X109628300Y-131571700D01*
X110475000Y-126400000D02*
X110085493Y-126010493D01*
X105800000Y-131600000D02*
X105000000Y-130800000D01*
X117600000Y-132100000D02*
X117200000Y-131700000D01*
X102000000Y-129400000D02*
X102000000Y-128000000D01*
X102000000Y-128000000D02*
X102000000Y-126800000D01*
X106800000Y-131600000D02*
X105800000Y-131600000D01*
X109628300Y-131571700D02*
X109600000Y-131600000D01*
X111050000Y-126400000D02*
X110475000Y-126400000D01*
X110085493Y-126010493D02*
X110085493Y-125738744D01*
X119000000Y-126800000D02*
X117000000Y-126800000D01*
%TO.N,+3V3A*%
X108725001Y-128625001D02*
X108300000Y-128200000D01*
X109628300Y-128625001D02*
X108725001Y-128625001D01*
X112600000Y-127900000D02*
X114000000Y-127900000D01*
X112950000Y-126400000D02*
X114525000Y-126400000D01*
D41*
%TO.N,Net-(C4-Pad1)*%
X93065000Y-136635000D02*
X93065000Y-136335000D01*
X90912299Y-136387701D02*
X91524598Y-137000000D01*
X90014999Y-132485001D02*
X90000000Y-132500000D01*
D42*
X93065000Y-136335000D02*
X93065000Y-135560700D01*
D41*
X91524598Y-137000000D02*
X92700000Y-137000000D01*
X92700000Y-137000000D02*
X93065000Y-136635000D01*
X91939300Y-132485001D02*
X90014999Y-132485001D01*
D42*
%TO.N,SDA*%
X79750000Y-131500000D02*
X79749999Y-129171600D01*
X93065000Y-129565000D02*
X93065000Y-130709300D01*
X133026038Y-142606611D02*
X132707600Y-142925049D01*
X79050000Y-146975001D02*
X79050000Y-145700000D01*
X133510377Y-142606611D02*
X133026038Y-142606611D01*
X79050000Y-145000000D02*
X79050000Y-145050000D01*
X132707600Y-142925049D02*
X131752750Y-142925049D01*
X115525498Y-129925001D02*
X113971700Y-129925001D01*
X114116000Y-140405000D02*
X113224150Y-140405000D01*
X93000000Y-129500000D02*
X93065000Y-129565000D01*
X114790000Y-141079000D02*
X114116000Y-140405000D01*
X83750000Y-145000000D02*
X84500000Y-145750000D01*
X84500000Y-146000000D02*
X84500000Y-147500000D01*
X84500000Y-145750000D02*
X84500000Y-146000000D01*
X79050000Y-145000000D02*
X83750000Y-145000000D01*
X114790000Y-141750000D02*
X114790000Y-141079000D01*
X79050000Y-145700000D02*
X79050000Y-145050000D01*
X115600000Y-129850499D02*
X115525498Y-129925001D01*
%TO.N,SCL*%
X80750000Y-132000000D02*
X80750000Y-129171600D01*
X78049999Y-146975001D02*
X78049999Y-143700001D01*
X93715001Y-129784999D02*
X93715001Y-130709300D01*
X131777715Y-143600000D02*
X131752750Y-143575035D01*
X78049999Y-143700001D02*
X79250000Y-142500000D01*
X115600000Y-128800000D02*
X115125001Y-129274999D01*
X107775850Y-140405000D02*
X106095000Y-140405000D01*
X94000000Y-129500000D02*
X93715001Y-129784999D01*
X115125001Y-129274999D02*
X113971700Y-129274999D01*
X84250000Y-129250000D02*
X84250000Y-130750000D01*
X106095000Y-140405000D02*
X105750000Y-140750000D01*
X133400000Y-143600000D02*
X131777715Y-143600000D01*
%TO.N,DQ*%
X98000000Y-144250000D02*
X98000000Y-143000000D01*
X103135000Y-137865000D02*
X107775850Y-137865000D01*
X109135000Y-137865000D02*
X107775850Y-137865000D01*
X109250000Y-137750000D02*
X109135000Y-137865000D01*
X98000000Y-143000000D02*
X103135000Y-137865000D01*
%TO.N,Net-(JP3-Pad2)*%
X114554000Y-137541000D02*
X116840000Y-137541000D01*
X113224150Y-137865000D02*
X114230000Y-137865000D01*
X114230000Y-137865000D02*
X114554000Y-137541000D01*
X117348000Y-138049000D02*
X117348000Y-138938000D01*
X116840000Y-137541000D02*
X117348000Y-138049000D01*
%TO.N,Net-(JP2-Pad2)*%
X113224150Y-136595000D02*
X113224150Y-135187850D01*
X114427000Y-133985000D02*
X116967000Y-133985000D01*
X117348000Y-134366000D02*
X117348000Y-135255000D01*
X113224150Y-135187850D02*
X114427000Y-133985000D01*
X116967000Y-133985000D02*
X117348000Y-134366000D01*
D41*
%TO.N,Net-(C4-Pad2)*%
X80900000Y-133800000D02*
X87300000Y-133800000D01*
X89150000Y-133800000D02*
X87300000Y-133800000D01*
X89150000Y-133800000D02*
X89165001Y-133784999D01*
X89165001Y-133784999D02*
X91939300Y-133784999D01*
D42*
%TO.N,PCTLZ*%
X112115000Y-139135000D02*
X113224150Y-139135000D01*
X112000000Y-139250000D02*
X112115000Y-139135000D01*
%TO.N,Net-(U3-Pad4)*%
X125822229Y-144200000D02*
X125847250Y-144225021D01*
%TO.N,Net-(D3-Pad1)*%
X111800000Y-125600000D02*
X111650000Y-125750000D01*
X111650000Y-125750000D02*
X111050000Y-125750000D01*
%TO.N,Net-(JP8-Pad2)*%
X109628300Y-129925001D02*
X109624908Y-129921609D01*
X109624908Y-129921609D02*
X107121609Y-129921609D01*
X107121609Y-129921609D02*
X106800000Y-129600000D01*
%TO.N,Net-(JP9-Pad2)*%
X116600000Y-130000000D02*
X118700000Y-130000000D01*
X113971700Y-130574999D02*
X116025001Y-130574999D01*
X118700000Y-130000000D02*
X118800000Y-130100000D01*
X116025001Y-130574999D02*
X116600000Y-130000000D01*
%TO.N,A0*%
X129724520Y-140062987D02*
X129724520Y-141475480D01*
X131300000Y-138600000D02*
X131187507Y-138600000D01*
X133500000Y-147300000D02*
X133024965Y-146824965D01*
X129724520Y-141475480D02*
X128924937Y-142275063D01*
X133024965Y-146824965D02*
X131752750Y-146824965D01*
X131240000Y-138540000D02*
X131300000Y-138600000D01*
X131300000Y-135798335D02*
X131191000Y-135689335D01*
X131300000Y-138600000D02*
X131300000Y-135798335D01*
X131187507Y-138600000D02*
X129724520Y-140062987D01*
X128924937Y-142275063D02*
X125847250Y-142275063D01*
%TO.N,A1*%
X128800000Y-140600000D02*
X127300000Y-140600000D01*
X124817889Y-141772752D02*
X125990641Y-140600000D01*
X128800000Y-140600000D02*
X128800000Y-135838000D01*
X128700000Y-140500000D02*
X128800000Y-140600000D01*
X124817889Y-142617889D02*
X124817889Y-141772752D01*
X125990641Y-140600000D02*
X127300000Y-140600000D01*
X133225021Y-146174979D02*
X131752750Y-146174979D01*
X128800000Y-135838000D02*
X128651000Y-135689000D01*
X133400000Y-146000000D02*
X133225021Y-146174979D01*
X125125049Y-142925049D02*
X124817889Y-142617889D01*
X125847250Y-142925049D02*
X125125049Y-142925049D01*
%TO.N,A2*%
X126000000Y-138600000D02*
X124368369Y-140231631D01*
X129800000Y-146200000D02*
X130475007Y-145524993D01*
X124368369Y-142968369D02*
X124975035Y-143575035D01*
X124975035Y-143575035D02*
X125847250Y-143575035D01*
X126000000Y-138600000D02*
X126000000Y-135759304D01*
X130475007Y-145524993D02*
X131752750Y-145524993D01*
X126000000Y-135759304D02*
X126093323Y-135665981D01*
X126160000Y-138440000D02*
X126000000Y-138600000D01*
X124368369Y-140231631D02*
X124368369Y-142968369D01*
%TO.N,Net-(R13-Pad2)*%
X95665000Y-128065000D02*
X95600000Y-128000000D01*
X96309300Y-130709300D02*
X96400000Y-130800000D01*
X97000000Y-128000000D02*
X95600000Y-128000000D01*
X95665000Y-130709300D02*
X96309300Y-130709300D01*
X95600000Y-128000000D02*
X95600000Y-126000000D01*
%TO.N,Net-(U4-Pad3)*%
X110589500Y-129274999D02*
X111050000Y-128814499D01*
X111050000Y-127050000D02*
X112950000Y-127050000D01*
X109628300Y-129274999D02*
X110589500Y-129274999D01*
X111050000Y-128814499D02*
X111050000Y-127050000D01*
%TO.N,Net-(R4-Pad2)*%
X133024993Y-144875007D02*
X133300000Y-144600000D01*
X131752750Y-144875007D02*
X133024993Y-144875007D01*
X131752750Y-144225021D02*
X132925021Y-144225021D01*
X132925021Y-144225021D02*
X133300000Y-144600000D01*
%TD*%
%TA.AperFunction,Conductor*%
%TO.N,+3V3*%
G36*
X80178820Y-146741003D02*
G01*
X80225313Y-146794659D01*
X80236699Y-146847001D01*
X80236699Y-147797835D01*
X80243454Y-147860017D01*
X80275638Y-147945868D01*
X80294584Y-147996406D01*
X80292254Y-147997279D01*
X80303998Y-148043186D01*
X80303998Y-148239585D01*
X80308473Y-148254824D01*
X80309863Y-148256029D01*
X80317546Y-148257700D01*
X80399467Y-148257700D01*
X80406288Y-148257330D01*
X80457150Y-148251806D01*
X80472405Y-148248179D01*
X80505055Y-148235939D01*
X80575862Y-148230755D01*
X80593514Y-148235937D01*
X80634883Y-148251446D01*
X80697065Y-148258201D01*
X81155696Y-148258201D01*
X81223817Y-148278203D01*
X81270310Y-148331859D01*
X81280414Y-148402133D01*
X81273678Y-148428430D01*
X81254127Y-148480582D01*
X81254125Y-148480588D01*
X81251353Y-148487984D01*
X81244598Y-148550166D01*
X81244598Y-150449834D01*
X81251353Y-150512016D01*
X81258798Y-150531875D01*
X81273322Y-150570617D01*
X81278505Y-150641424D01*
X81244585Y-150703793D01*
X81182330Y-150737922D01*
X81155355Y-150740847D01*
X79239735Y-150741059D01*
X77944539Y-150741202D01*
X77876416Y-150721207D01*
X77829917Y-150667557D01*
X77819806Y-150597284D01*
X77826543Y-150570972D01*
X77841200Y-150531875D01*
X77848645Y-150512016D01*
X77855400Y-150449834D01*
X77855400Y-148550166D01*
X77848645Y-148487984D01*
X77845873Y-148480588D01*
X77845871Y-148480582D01*
X77826320Y-148428430D01*
X77821137Y-148357623D01*
X77855059Y-148295254D01*
X77917314Y-148261125D01*
X77944302Y-148258201D01*
X78402933Y-148258201D01*
X78465115Y-148251446D01*
X78505770Y-148236205D01*
X78576577Y-148231022D01*
X78594223Y-148236203D01*
X78634884Y-148251446D01*
X78697066Y-148258201D01*
X79402934Y-148258201D01*
X79407546Y-148257700D01*
X79457266Y-148252299D01*
X79457268Y-148252299D01*
X79465116Y-148251446D01*
X79472511Y-148248674D01*
X79472514Y-148248673D01*
X79506483Y-148235939D01*
X79577290Y-148230756D01*
X79594939Y-148235939D01*
X79627593Y-148248180D01*
X79642841Y-148251806D01*
X79693712Y-148257332D01*
X79700526Y-148257701D01*
X79777883Y-148257701D01*
X79793122Y-148253226D01*
X79794327Y-148251836D01*
X79795998Y-148244153D01*
X79795998Y-148043191D01*
X79807745Y-147997279D01*
X79805415Y-147996406D01*
X79824361Y-147945868D01*
X79856545Y-147860017D01*
X79863300Y-147797835D01*
X79863300Y-146847001D01*
X79883302Y-146778880D01*
X79936958Y-146732387D01*
X79989300Y-146721001D01*
X80110699Y-146721001D01*
X80178820Y-146741003D01*
G37*
%TD.AperFunction*%
%TA.AperFunction,Conductor*%
G36*
X100274106Y-125279618D02*
G01*
X100342210Y-125299678D01*
X100388658Y-125353372D01*
X100400000Y-125405618D01*
X100400000Y-135600000D01*
X100726081Y-135600000D01*
X100794202Y-135620002D01*
X100840695Y-135673658D01*
X100850799Y-135743932D01*
X100845674Y-135765668D01*
X100804862Y-135888710D01*
X100801995Y-135902086D01*
X100792328Y-135996438D01*
X100792000Y-136002855D01*
X100792000Y-136127885D01*
X100796475Y-136143124D01*
X100797865Y-136144329D01*
X100805548Y-136146000D01*
X103189884Y-136146000D01*
X103205123Y-136141525D01*
X103206328Y-136140135D01*
X103207999Y-136132452D01*
X103207999Y-136002905D01*
X103207662Y-135996386D01*
X103197743Y-135900794D01*
X103194851Y-135887400D01*
X103154308Y-135765876D01*
X103151724Y-135694926D01*
X103187908Y-135633842D01*
X103251372Y-135602018D01*
X103273832Y-135600000D01*
X106400000Y-135600000D01*
X106400000Y-133926000D01*
X106420002Y-133857879D01*
X106473658Y-133811386D01*
X106526000Y-133800000D01*
X113411905Y-133800000D01*
X113480026Y-133820002D01*
X113526519Y-133873658D01*
X113536623Y-133943932D01*
X113507129Y-134008512D01*
X113501005Y-134015090D01*
X112831892Y-134684203D01*
X112823613Y-134691737D01*
X112817132Y-134695850D01*
X112783870Y-134731271D01*
X112770507Y-134745501D01*
X112767752Y-134748343D01*
X112748015Y-134768080D01*
X112745535Y-134771277D01*
X112737832Y-134780297D01*
X112707564Y-134812529D01*
X112703745Y-134819475D01*
X112703743Y-134819478D01*
X112697802Y-134830284D01*
X112686951Y-134846803D01*
X112674536Y-134862809D01*
X112671391Y-134870078D01*
X112671388Y-134870082D01*
X112656976Y-134903387D01*
X112651759Y-134914037D01*
X112630455Y-134952790D01*
X112628484Y-134960465D01*
X112628484Y-134960466D01*
X112625417Y-134972412D01*
X112619013Y-134991116D01*
X112610969Y-135009705D01*
X112609730Y-135017528D01*
X112609727Y-135017538D01*
X112604051Y-135053374D01*
X112601645Y-135064994D01*
X112590650Y-135107820D01*
X112590650Y-135128074D01*
X112589099Y-135147784D01*
X112585930Y-135167793D01*
X112586676Y-135175685D01*
X112590091Y-135211811D01*
X112590650Y-135223669D01*
X112590650Y-135693800D01*
X112570648Y-135761921D01*
X112516992Y-135808414D01*
X112464650Y-135819800D01*
X112445766Y-135819800D01*
X112383584Y-135826555D01*
X112247195Y-135877685D01*
X112130639Y-135965039D01*
X112043285Y-136081595D01*
X111992155Y-136217984D01*
X111985400Y-136280166D01*
X111985400Y-136909834D01*
X111992155Y-136972016D01*
X112043285Y-137108405D01*
X112077784Y-137154437D01*
X112102631Y-137220941D01*
X112087578Y-137290323D01*
X112077790Y-137305555D01*
X112043285Y-137351595D01*
X111992155Y-137487984D01*
X111985400Y-137550166D01*
X111985400Y-138179834D01*
X111986994Y-138194502D01*
X111988445Y-138207861D01*
X111975917Y-138277744D01*
X111927597Y-138329760D01*
X111889380Y-138344717D01*
X111717712Y-138381206D01*
X111711682Y-138383891D01*
X111711681Y-138383891D01*
X111549278Y-138456197D01*
X111549276Y-138456198D01*
X111543248Y-138458882D01*
X111537907Y-138462762D01*
X111537906Y-138462763D01*
X111523863Y-138472966D01*
X111388747Y-138571134D01*
X111384326Y-138576044D01*
X111384325Y-138576045D01*
X111300832Y-138668774D01*
X111260960Y-138713056D01*
X111239293Y-138750585D01*
X111171441Y-138868108D01*
X111165473Y-138878444D01*
X111106458Y-139060072D01*
X111105768Y-139066633D01*
X111105768Y-139066635D01*
X111101610Y-139106197D01*
X111086496Y-139250000D01*
X111087186Y-139256565D01*
X111102812Y-139405235D01*
X111106458Y-139439928D01*
X111165473Y-139621556D01*
X111168776Y-139627278D01*
X111168777Y-139627279D01*
X111193506Y-139670111D01*
X111260960Y-139786944D01*
X111265378Y-139791851D01*
X111265379Y-139791852D01*
X111381766Y-139921113D01*
X111388747Y-139928866D01*
X111435402Y-139962763D01*
X111528389Y-140030322D01*
X111543248Y-140041118D01*
X111549276Y-140043802D01*
X111549278Y-140043803D01*
X111711681Y-140116109D01*
X111717712Y-140118794D01*
X111885598Y-140154479D01*
X111948070Y-140188207D01*
X111982392Y-140250357D01*
X111985400Y-140277726D01*
X111985400Y-140719834D01*
X111992155Y-140782016D01*
X112043285Y-140918405D01*
X112130639Y-141034961D01*
X112247195Y-141122315D01*
X112383584Y-141173445D01*
X112445766Y-141180200D01*
X113851691Y-141180200D01*
X113919812Y-141200202D01*
X113966305Y-141253858D01*
X113976409Y-141324132D01*
X113960810Y-141369200D01*
X113955473Y-141378444D01*
X113896458Y-141560072D01*
X113895768Y-141566633D01*
X113895768Y-141566635D01*
X113888736Y-141633545D01*
X113876496Y-141750000D01*
X113877186Y-141756565D01*
X113895178Y-141927745D01*
X113896458Y-141939928D01*
X113955473Y-142121556D01*
X113958776Y-142127278D01*
X113958777Y-142127279D01*
X113975998Y-142157107D01*
X114050960Y-142286944D01*
X114055378Y-142291851D01*
X114055379Y-142291852D01*
X114154291Y-142401705D01*
X114178747Y-142428866D01*
X114242647Y-142475292D01*
X114282646Y-142504353D01*
X114333248Y-142541118D01*
X114339276Y-142543802D01*
X114339278Y-142543803D01*
X114501681Y-142616109D01*
X114507712Y-142618794D01*
X114579942Y-142634147D01*
X114688056Y-142657128D01*
X114688061Y-142657128D01*
X114694513Y-142658500D01*
X114885487Y-142658500D01*
X114891939Y-142657128D01*
X114891944Y-142657128D01*
X115000058Y-142634147D01*
X115072288Y-142618794D01*
X115078319Y-142616109D01*
X115240722Y-142543803D01*
X115240724Y-142543802D01*
X115246752Y-142541118D01*
X115297355Y-142504353D01*
X115337353Y-142475292D01*
X115401253Y-142428866D01*
X115425709Y-142401705D01*
X115524621Y-142291852D01*
X115524622Y-142291851D01*
X115529040Y-142286944D01*
X115604002Y-142157107D01*
X115621223Y-142127279D01*
X115621224Y-142127278D01*
X115624527Y-142121556D01*
X115683542Y-141939928D01*
X115684823Y-141927745D01*
X115702814Y-141756565D01*
X115703504Y-141750000D01*
X115691264Y-141633545D01*
X115684232Y-141566635D01*
X115684232Y-141566633D01*
X115683542Y-141560072D01*
X115624527Y-141378444D01*
X115567036Y-141278866D01*
X115540843Y-141233500D01*
X115529040Y-141213056D01*
X115501136Y-141182065D01*
X115455864Y-141131786D01*
X115425147Y-141067778D01*
X115423500Y-141047475D01*
X115423500Y-141039144D01*
X115422996Y-141035153D01*
X115422063Y-141023311D01*
X115421107Y-140992872D01*
X115420674Y-140979111D01*
X115418462Y-140971497D01*
X115418461Y-140971492D01*
X115415023Y-140959659D01*
X115411012Y-140940295D01*
X115409467Y-140928064D01*
X115408474Y-140920203D01*
X115405557Y-140912836D01*
X115405556Y-140912831D01*
X115392198Y-140879092D01*
X115388354Y-140867865D01*
X115378230Y-140833022D01*
X115376018Y-140825407D01*
X115365707Y-140807972D01*
X115357012Y-140790224D01*
X115349552Y-140771383D01*
X115323564Y-140735613D01*
X115317048Y-140725693D01*
X115298580Y-140694465D01*
X115298578Y-140694462D01*
X115294542Y-140687638D01*
X115280221Y-140673317D01*
X115267380Y-140658283D01*
X115260132Y-140648307D01*
X115255472Y-140641893D01*
X115221407Y-140613712D01*
X115212626Y-140605722D01*
X114619647Y-140012742D01*
X114612113Y-140004463D01*
X114608000Y-139997982D01*
X114558348Y-139951356D01*
X114555507Y-139948602D01*
X114535770Y-139928865D01*
X114532573Y-139926385D01*
X114523551Y-139918680D01*
X114491321Y-139888414D01*
X114484375Y-139884595D01*
X114484372Y-139884593D01*
X114473566Y-139878652D01*
X114457047Y-139867801D01*
X114447304Y-139860244D01*
X114447305Y-139860244D01*
X114441041Y-139855386D01*
X114433766Y-139852238D01*
X114428976Y-139849405D01*
X114380523Y-139797512D01*
X114367817Y-139727662D01*
X114392288Y-139665387D01*
X114405015Y-139648405D01*
X114456145Y-139512016D01*
X114462900Y-139449834D01*
X114462900Y-138820166D01*
X114456145Y-138757984D01*
X114405015Y-138621595D01*
X114406855Y-138620905D01*
X114394125Y-138562711D01*
X114418857Y-138496161D01*
X114469776Y-138455914D01*
X114475979Y-138453230D01*
X114483593Y-138451018D01*
X114490413Y-138446985D01*
X114490419Y-138446982D01*
X114501028Y-138440707D01*
X114518776Y-138432012D01*
X114537617Y-138424552D01*
X114553844Y-138412763D01*
X114573387Y-138398564D01*
X114583307Y-138392048D01*
X114614535Y-138373580D01*
X114614538Y-138373578D01*
X114621362Y-138369542D01*
X114635683Y-138355221D01*
X114650717Y-138342380D01*
X114660694Y-138335131D01*
X114667107Y-138330472D01*
X114695298Y-138296395D01*
X114703288Y-138287616D01*
X114779499Y-138211405D01*
X114841811Y-138177379D01*
X114868594Y-138174500D01*
X115523441Y-138174500D01*
X115591562Y-138194502D01*
X115638055Y-138248158D01*
X115647840Y-138280475D01*
X115657582Y-138340996D01*
X115678050Y-138383891D01*
X115715684Y-138462763D01*
X115720552Y-138472966D01*
X115983980Y-138868108D01*
X116005124Y-138935883D01*
X115983980Y-139007892D01*
X115733665Y-139383365D01*
X115720552Y-139403034D01*
X115719327Y-139405234D01*
X115719326Y-139405235D01*
X115695414Y-139448166D01*
X115680696Y-139474589D01*
X115639500Y-139614889D01*
X115639500Y-139761111D01*
X115642038Y-139769754D01*
X115642038Y-139769755D01*
X115677814Y-139891595D01*
X115680696Y-139901411D01*
X115697973Y-139928295D01*
X115754878Y-140016841D01*
X115754880Y-140016844D01*
X115759750Y-140024421D01*
X115766560Y-140030322D01*
X115863445Y-140114274D01*
X115863448Y-140114276D01*
X115870257Y-140120176D01*
X115878454Y-140123920D01*
X115878455Y-140123920D01*
X115936761Y-140150547D01*
X116003266Y-140180919D01*
X116148000Y-140201729D01*
X118548000Y-140201729D01*
X118556029Y-140201087D01*
X118566502Y-140200249D01*
X118590041Y-140198367D01*
X118659539Y-140212875D01*
X118710161Y-140262654D01*
X118721082Y-140288813D01*
X118722978Y-140295339D01*
X118726987Y-140314700D01*
X118729526Y-140334797D01*
X118732445Y-140342168D01*
X118732445Y-140342170D01*
X118745804Y-140375912D01*
X118749649Y-140387142D01*
X118757741Y-140414996D01*
X118761982Y-140429593D01*
X118766015Y-140436412D01*
X118766017Y-140436417D01*
X118772293Y-140447028D01*
X118780988Y-140464776D01*
X118788448Y-140483617D01*
X118793110Y-140490033D01*
X118793110Y-140490034D01*
X118814436Y-140519387D01*
X118820952Y-140529307D01*
X118839147Y-140560072D01*
X118843458Y-140567362D01*
X118857779Y-140581683D01*
X118870619Y-140596716D01*
X118882528Y-140613107D01*
X118916605Y-140641298D01*
X118925384Y-140649288D01*
X119194878Y-140918782D01*
X119228904Y-140981094D01*
X119231093Y-140994707D01*
X119245624Y-141132960D01*
X119248458Y-141159928D01*
X119307473Y-141341556D01*
X119310776Y-141347278D01*
X119310777Y-141347279D01*
X119321341Y-141365576D01*
X119402960Y-141506944D01*
X119407378Y-141511851D01*
X119407379Y-141511852D01*
X119514846Y-141631206D01*
X119530747Y-141648866D01*
X119615613Y-141710525D01*
X119676127Y-141754491D01*
X119685248Y-141761118D01*
X119691276Y-141763802D01*
X119691278Y-141763803D01*
X119843008Y-141831357D01*
X119859712Y-141838794D01*
X119933156Y-141854405D01*
X120040056Y-141877128D01*
X120040061Y-141877128D01*
X120046513Y-141878500D01*
X120237487Y-141878500D01*
X120243939Y-141877128D01*
X120243944Y-141877128D01*
X120350844Y-141854405D01*
X120424288Y-141838794D01*
X120440992Y-141831357D01*
X120592722Y-141763803D01*
X120592724Y-141763802D01*
X120598752Y-141761118D01*
X120607874Y-141754491D01*
X120668387Y-141710525D01*
X120753253Y-141648866D01*
X120769154Y-141631206D01*
X120876621Y-141511852D01*
X120876622Y-141511851D01*
X120881040Y-141506944D01*
X120962659Y-141365576D01*
X120973223Y-141347279D01*
X120973224Y-141347278D01*
X120976527Y-141341556D01*
X121035542Y-141159928D01*
X121038377Y-141132960D01*
X121054814Y-140976565D01*
X121055504Y-140970000D01*
X121051096Y-140928064D01*
X121036232Y-140786635D01*
X121036232Y-140786633D01*
X121035542Y-140780072D01*
X120976527Y-140598444D01*
X120967466Y-140582749D01*
X120936611Y-140529307D01*
X120881040Y-140433056D01*
X120829588Y-140375912D01*
X120757675Y-140296045D01*
X120757674Y-140296044D01*
X120753253Y-140291134D01*
X120630198Y-140201729D01*
X120604094Y-140182763D01*
X120604093Y-140182762D01*
X120598752Y-140178882D01*
X120592724Y-140176198D01*
X120592722Y-140176197D01*
X120430319Y-140103891D01*
X120430318Y-140103891D01*
X120424288Y-140101206D01*
X120390226Y-140093966D01*
X120327752Y-140060239D01*
X120293430Y-139998090D01*
X120298156Y-139927251D01*
X120301807Y-139918377D01*
X120308588Y-139903530D01*
X120340919Y-139832734D01*
X120361729Y-139688000D01*
X120361729Y-138327885D01*
X122892000Y-138327885D01*
X122896475Y-138343124D01*
X122897865Y-138344329D01*
X122905548Y-138346000D01*
X123727885Y-138346000D01*
X123743124Y-138341525D01*
X123744329Y-138340135D01*
X123746000Y-138332452D01*
X123746000Y-137410116D01*
X123741525Y-137394877D01*
X123740135Y-137393672D01*
X123732452Y-137392001D01*
X123602905Y-137392001D01*
X123596386Y-137392338D01*
X123500794Y-137402257D01*
X123487400Y-137405149D01*
X123333216Y-137456588D01*
X123320038Y-137462761D01*
X123182193Y-137548063D01*
X123170792Y-137557099D01*
X123056261Y-137671829D01*
X123047249Y-137683240D01*
X122962184Y-137821243D01*
X122956037Y-137834424D01*
X122904862Y-137988710D01*
X122901995Y-138002086D01*
X122892328Y-138096438D01*
X122892000Y-138102855D01*
X122892000Y-138327885D01*
X120361729Y-138327885D01*
X120361729Y-138188000D01*
X120356500Y-138114889D01*
X120320955Y-137993834D01*
X120317843Y-137983235D01*
X120317842Y-137983233D01*
X120315304Y-137974589D01*
X120288811Y-137933365D01*
X120241122Y-137859159D01*
X120241120Y-137859156D01*
X120236250Y-137851579D01*
X120206793Y-137826054D01*
X120132555Y-137761726D01*
X120132552Y-137761724D01*
X120125743Y-137755824D01*
X119992734Y-137695081D01*
X119848000Y-137674271D01*
X118848000Y-137674271D01*
X118846036Y-137674395D01*
X118846032Y-137674395D01*
X118789920Y-137677934D01*
X118789916Y-137677935D01*
X118783443Y-137678343D01*
X118737768Y-137690925D01*
X118686376Y-137694167D01*
X118548000Y-137674271D01*
X117922992Y-137674271D01*
X117854871Y-137654269D01*
X117821057Y-137622333D01*
X117813472Y-137611893D01*
X117779406Y-137583711D01*
X117770627Y-137575722D01*
X117343652Y-137148747D01*
X117336112Y-137140461D01*
X117332000Y-137133982D01*
X117282348Y-137087356D01*
X117279507Y-137084602D01*
X117259770Y-137064865D01*
X117256573Y-137062385D01*
X117247551Y-137054680D01*
X117221100Y-137029841D01*
X117215321Y-137024414D01*
X117208375Y-137020595D01*
X117208372Y-137020593D01*
X117197566Y-137014652D01*
X117181047Y-137003801D01*
X117172406Y-136997099D01*
X117165041Y-136991386D01*
X117157772Y-136988241D01*
X117157768Y-136988238D01*
X117124463Y-136973826D01*
X117113813Y-136968609D01*
X117075060Y-136947305D01*
X117055437Y-136942267D01*
X117036734Y-136935863D01*
X117025420Y-136930967D01*
X117025419Y-136930967D01*
X117018145Y-136927819D01*
X117010322Y-136926580D01*
X117010312Y-136926577D01*
X116974476Y-136920901D01*
X116962856Y-136918495D01*
X116927711Y-136909472D01*
X116927710Y-136909472D01*
X116920030Y-136907500D01*
X116899776Y-136907500D01*
X116880065Y-136905949D01*
X116867886Y-136904020D01*
X116860057Y-136902780D01*
X116826364Y-136905965D01*
X116816039Y-136906941D01*
X116804181Y-136907500D01*
X114632767Y-136907500D01*
X114621584Y-136906973D01*
X114614091Y-136905298D01*
X114606164Y-136905547D01*
X114606162Y-136905547D01*
X114592856Y-136905965D01*
X114524141Y-136888112D01*
X114475986Y-136835942D01*
X114462900Y-136780027D01*
X114462900Y-136280166D01*
X114456145Y-136217984D01*
X114405015Y-136081595D01*
X114317661Y-135965039D01*
X114201105Y-135877685D01*
X114064716Y-135826555D01*
X114002534Y-135819800D01*
X113983650Y-135819800D01*
X113915529Y-135799798D01*
X113869036Y-135746142D01*
X113857650Y-135693800D01*
X113857650Y-135502445D01*
X113877652Y-135434324D01*
X113894555Y-135413349D01*
X114652501Y-134655404D01*
X114714813Y-134621379D01*
X114741596Y-134618500D01*
X115559249Y-134618500D01*
X115627370Y-134638502D01*
X115672967Y-134690239D01*
X115711631Y-134771269D01*
X115720552Y-134789966D01*
X115983980Y-135185108D01*
X116005124Y-135252883D01*
X115983980Y-135324892D01*
X115730607Y-135704952D01*
X115720552Y-135720034D01*
X115680696Y-135791589D01*
X115678717Y-135798329D01*
X115652179Y-135888710D01*
X115639500Y-135931889D01*
X115639500Y-136078111D01*
X115642038Y-136086754D01*
X115642038Y-136086755D01*
X115677218Y-136206565D01*
X115680696Y-136218411D01*
X115685567Y-136225990D01*
X115754878Y-136333841D01*
X115754880Y-136333844D01*
X115759750Y-136341421D01*
X115766560Y-136347322D01*
X115863445Y-136431274D01*
X115863448Y-136431276D01*
X115870257Y-136437176D01*
X115878454Y-136440920D01*
X115878455Y-136440920D01*
X115897681Y-136449700D01*
X116003266Y-136497919D01*
X116012189Y-136499202D01*
X116028100Y-136501490D01*
X116148000Y-136518729D01*
X118548000Y-136518729D01*
X118552377Y-136518379D01*
X118622647Y-136512760D01*
X118622650Y-136512759D01*
X118629645Y-136512200D01*
X118636343Y-136510110D01*
X118636345Y-136510110D01*
X118656981Y-136503672D01*
X118712438Y-136499238D01*
X118770214Y-136507545D01*
X118848000Y-136518729D01*
X119848000Y-136518729D01*
X119879986Y-136516441D01*
X119914373Y-136513982D01*
X119914374Y-136513982D01*
X119921111Y-136513500D01*
X120008037Y-136487976D01*
X120052765Y-136474843D01*
X120052767Y-136474842D01*
X120061411Y-136472304D01*
X120104989Y-136444298D01*
X120176841Y-136398122D01*
X120176844Y-136398120D01*
X120184421Y-136393250D01*
X120190322Y-136386440D01*
X120274274Y-136289555D01*
X120274276Y-136289552D01*
X120280176Y-136282743D01*
X120290451Y-136260245D01*
X120337175Y-136157932D01*
X120340919Y-136149734D01*
X120361729Y-136005000D01*
X120361729Y-135157731D01*
X120381731Y-135089610D01*
X120435387Y-135043117D01*
X120505661Y-135033013D01*
X120561789Y-135055794D01*
X120644309Y-135115749D01*
X120686407Y-135146335D01*
X120701248Y-135157118D01*
X120707276Y-135159802D01*
X120707278Y-135159803D01*
X120869681Y-135232109D01*
X120875712Y-135234794D01*
X120960183Y-135252749D01*
X121056056Y-135273128D01*
X121056061Y-135273128D01*
X121062513Y-135274500D01*
X121253487Y-135274500D01*
X121259939Y-135273128D01*
X121259944Y-135273128D01*
X121355817Y-135252749D01*
X121440288Y-135234794D01*
X121446319Y-135232109D01*
X121608722Y-135159803D01*
X121608724Y-135159802D01*
X121614752Y-135157118D01*
X121629594Y-135146335D01*
X121688110Y-135103820D01*
X121769253Y-135044866D01*
X121778270Y-135034852D01*
X121892621Y-134907852D01*
X121892622Y-134907851D01*
X121897040Y-134902944D01*
X121986299Y-134748343D01*
X121989223Y-134743279D01*
X121989224Y-134743278D01*
X121992527Y-134737556D01*
X122051542Y-134555928D01*
X122059642Y-134478866D01*
X122070814Y-134372565D01*
X122071504Y-134366000D01*
X122058039Y-134237883D01*
X122052232Y-134182635D01*
X122052232Y-134182633D01*
X122051542Y-134176072D01*
X121992527Y-133994444D01*
X121989223Y-133988721D01*
X121986539Y-133982693D01*
X121987725Y-133982165D01*
X121972646Y-133920003D01*
X121995867Y-133852911D01*
X122051675Y-133809025D01*
X122098503Y-133800000D01*
X122700000Y-133800000D01*
X122700000Y-125424649D01*
X122720002Y-125356528D01*
X122773658Y-125310035D01*
X122826106Y-125298649D01*
X133865188Y-125307965D01*
X133933292Y-125328025D01*
X133979740Y-125381719D01*
X133991082Y-125434048D01*
X133989964Y-127133891D01*
X133983283Y-137287452D01*
X133963237Y-137355557D01*
X133909551Y-137402015D01*
X133839270Y-137412073D01*
X133817621Y-137406961D01*
X133811298Y-137404864D01*
X133797914Y-137401995D01*
X133703562Y-137392328D01*
X133697145Y-137392000D01*
X133572115Y-137392000D01*
X133556876Y-137396475D01*
X133555671Y-137397865D01*
X133554000Y-137405548D01*
X133554000Y-139789884D01*
X133558475Y-139805123D01*
X133559865Y-139806328D01*
X133567548Y-139807999D01*
X133697095Y-139807999D01*
X133703614Y-139807662D01*
X133799206Y-139797743D01*
X133812604Y-139794850D01*
X133815680Y-139793824D01*
X133817696Y-139793751D01*
X133819343Y-139793395D01*
X133819406Y-139793688D01*
X133886630Y-139791240D01*
X133947714Y-139827425D01*
X133979537Y-139890889D01*
X133981555Y-139913431D01*
X133980428Y-141627474D01*
X133960381Y-141695581D01*
X133906695Y-141742039D01*
X133836414Y-141752097D01*
X133803180Y-141742498D01*
X133798700Y-141740504D01*
X133792665Y-141737817D01*
X133674796Y-141712763D01*
X133612321Y-141699483D01*
X133612316Y-141699483D01*
X133605864Y-141698111D01*
X133414890Y-141698111D01*
X133408438Y-141699483D01*
X133408433Y-141699483D01*
X133345958Y-141712763D01*
X133228089Y-141737817D01*
X133222059Y-141740502D01*
X133222058Y-141740502D01*
X133059655Y-141812808D01*
X133059653Y-141812809D01*
X133053625Y-141815493D01*
X133048285Y-141819373D01*
X133042493Y-141823581D01*
X132975625Y-141847439D01*
X132906474Y-141831357D01*
X132867606Y-141797209D01*
X132825881Y-141741535D01*
X132813324Y-141728978D01*
X132711249Y-141652477D01*
X132695654Y-141643939D01*
X132575206Y-141598785D01*
X132559951Y-141595158D01*
X132509086Y-141589632D01*
X132502272Y-141589263D01*
X131933740Y-141589264D01*
X131865619Y-141569262D01*
X131819126Y-141515606D01*
X131809022Y-141445333D01*
X131826480Y-141397148D01*
X131837817Y-141378757D01*
X131843963Y-141365576D01*
X131895138Y-141211290D01*
X131898005Y-141197914D01*
X131907672Y-141103562D01*
X131908000Y-141097146D01*
X131908000Y-140872115D01*
X131903525Y-140856876D01*
X131902135Y-140855671D01*
X131894452Y-140854000D01*
X130672000Y-140854000D01*
X130603879Y-140833998D01*
X130557386Y-140780342D01*
X130546000Y-140728000D01*
X130546000Y-140472000D01*
X130566002Y-140403879D01*
X130619658Y-140357386D01*
X130672000Y-140346000D01*
X131889884Y-140346000D01*
X131905123Y-140341525D01*
X131906328Y-140340135D01*
X131907999Y-140332452D01*
X131907999Y-140102905D01*
X131907662Y-140096386D01*
X131897743Y-140000794D01*
X131894851Y-139987400D01*
X131868843Y-139909443D01*
X131866259Y-139838493D01*
X131902443Y-139777409D01*
X131948488Y-139750044D01*
X131966997Y-139743869D01*
X131967002Y-139743867D01*
X131973946Y-139741550D01*
X132124348Y-139648478D01*
X132157879Y-139614889D01*
X132211138Y-139561537D01*
X132273421Y-139527458D01*
X132344241Y-139532461D01*
X132389329Y-139561382D01*
X132471829Y-139643739D01*
X132483240Y-139652751D01*
X132621243Y-139737816D01*
X132634424Y-139743963D01*
X132788710Y-139795138D01*
X132802086Y-139798005D01*
X132896438Y-139807672D01*
X132902854Y-139808000D01*
X133027885Y-139808000D01*
X133043124Y-139803525D01*
X133044329Y-139802135D01*
X133046000Y-139794452D01*
X133046000Y-137410116D01*
X133041525Y-137394877D01*
X133040135Y-137393672D01*
X133032452Y-137392001D01*
X132902905Y-137392001D01*
X132896386Y-137392338D01*
X132800794Y-137402257D01*
X132787400Y-137405149D01*
X132633216Y-137456588D01*
X132620038Y-137462761D01*
X132482193Y-137548063D01*
X132470792Y-137557099D01*
X132389570Y-137638462D01*
X132327287Y-137672541D01*
X132256467Y-137667538D01*
X132211380Y-137638617D01*
X132128488Y-137555870D01*
X132128483Y-137555866D01*
X132123303Y-137550695D01*
X132116934Y-137546769D01*
X131993384Y-137470611D01*
X131945890Y-137417838D01*
X131933500Y-137363351D01*
X131933500Y-136815827D01*
X131953502Y-136747706D01*
X132007158Y-136701213D01*
X132024001Y-136694931D01*
X132063946Y-136683202D01*
X132154411Y-136656639D01*
X132209071Y-136621511D01*
X132269841Y-136582457D01*
X132269844Y-136582455D01*
X132277421Y-136577585D01*
X132293436Y-136559103D01*
X132367274Y-136473890D01*
X132367276Y-136473887D01*
X132373176Y-136467078D01*
X132381053Y-136449831D01*
X132421174Y-136361977D01*
X132433919Y-136334069D01*
X132454729Y-136189335D01*
X132454729Y-135039335D01*
X132452986Y-135017538D01*
X132448760Y-134964688D01*
X132448759Y-134964685D01*
X132448200Y-134957690D01*
X132439672Y-134930354D01*
X132435238Y-134874897D01*
X132448839Y-134780299D01*
X132454729Y-134739335D01*
X132454729Y-133739335D01*
X132449500Y-133666224D01*
X132422906Y-133575652D01*
X132410843Y-133534570D01*
X132410842Y-133534568D01*
X132408304Y-133525924D01*
X132374793Y-133473780D01*
X132334122Y-133410494D01*
X132334120Y-133410491D01*
X132329250Y-133402914D01*
X132311048Y-133387142D01*
X132225555Y-133313061D01*
X132225552Y-133313059D01*
X132218743Y-133307159D01*
X132159407Y-133280061D01*
X132141090Y-133271696D01*
X132085734Y-133246416D01*
X131941000Y-133225606D01*
X130441000Y-133225606D01*
X130432024Y-133226248D01*
X130374627Y-133230353D01*
X130374626Y-133230353D01*
X130367889Y-133230835D01*
X130290536Y-133253548D01*
X130236235Y-133269492D01*
X130236233Y-133269493D01*
X130227589Y-133272031D01*
X130200085Y-133289707D01*
X130112159Y-133346213D01*
X130112156Y-133346215D01*
X130104579Y-133351085D01*
X130098677Y-133357896D01*
X130098675Y-133357898D01*
X130014752Y-133454750D01*
X129955026Y-133493134D01*
X129884030Y-133493134D01*
X129824304Y-133454751D01*
X129813530Y-133440359D01*
X129794122Y-133410159D01*
X129794120Y-133410156D01*
X129789250Y-133402579D01*
X129776239Y-133391305D01*
X129685555Y-133312726D01*
X129685552Y-133312724D01*
X129678743Y-133306824D01*
X129545734Y-133246081D01*
X129401000Y-133225271D01*
X127901000Y-133225271D01*
X127892024Y-133225913D01*
X127834627Y-133230018D01*
X127834626Y-133230018D01*
X127827889Y-133230500D01*
X127760934Y-133250160D01*
X127696235Y-133269157D01*
X127696233Y-133269158D01*
X127687589Y-133271696D01*
X127648270Y-133296965D01*
X127572159Y-133345878D01*
X127572156Y-133345880D01*
X127564579Y-133350750D01*
X127558677Y-133357561D01*
X127558675Y-133357563D01*
X127472973Y-133456468D01*
X127413247Y-133494852D01*
X127342251Y-133494852D01*
X127282525Y-133456468D01*
X127271752Y-133442078D01*
X127236446Y-133387142D01*
X127236445Y-133387141D01*
X127231573Y-133379560D01*
X127224763Y-133373659D01*
X127127878Y-133289707D01*
X127127875Y-133289705D01*
X127121066Y-133283805D01*
X127105951Y-133276902D01*
X127054561Y-133253433D01*
X126988057Y-133223062D01*
X126843323Y-133202252D01*
X125343323Y-133202252D01*
X125334347Y-133202894D01*
X125276950Y-133206999D01*
X125276949Y-133206999D01*
X125270212Y-133207481D01*
X125193458Y-133230018D01*
X125138558Y-133246138D01*
X125138556Y-133246139D01*
X125129912Y-133248677D01*
X125122333Y-133253548D01*
X125014482Y-133322859D01*
X125014479Y-133322861D01*
X125006902Y-133327731D01*
X125001001Y-133334541D01*
X124917049Y-133431426D01*
X124917047Y-133431429D01*
X124911147Y-133438238D01*
X124907403Y-133446435D01*
X124907403Y-133446436D01*
X124878912Y-133508823D01*
X124832419Y-133562479D01*
X124764298Y-133582481D01*
X124307786Y-133582481D01*
X124296603Y-133581954D01*
X124289110Y-133580279D01*
X124281184Y-133580528D01*
X124281183Y-133580528D01*
X124221033Y-133582419D01*
X124217074Y-133582481D01*
X124189163Y-133582481D01*
X124185229Y-133582978D01*
X124185228Y-133582978D01*
X124185163Y-133582986D01*
X124173326Y-133583919D01*
X124141068Y-133584933D01*
X124137049Y-133585059D01*
X124129130Y-133585308D01*
X124121520Y-133587519D01*
X124113691Y-133588759D01*
X124113336Y-133586519D01*
X124065283Y-133588283D01*
X124047487Y-133584500D01*
X123856513Y-133584500D01*
X123850061Y-133585872D01*
X123850056Y-133585872D01*
X123765742Y-133603794D01*
X123669712Y-133624206D01*
X123663682Y-133626891D01*
X123663681Y-133626891D01*
X123501278Y-133699197D01*
X123501276Y-133699198D01*
X123495248Y-133701882D01*
X123489907Y-133705762D01*
X123489906Y-133705763D01*
X123446795Y-133737085D01*
X123340747Y-133814134D01*
X123336326Y-133819044D01*
X123336325Y-133819045D01*
X123237418Y-133928893D01*
X123212960Y-133956056D01*
X123117473Y-134121444D01*
X123058458Y-134303072D01*
X123057768Y-134309633D01*
X123057768Y-134309635D01*
X123041212Y-134467157D01*
X123038496Y-134493000D01*
X123039186Y-134499565D01*
X123057117Y-134670166D01*
X123058458Y-134682928D01*
X123117473Y-134864556D01*
X123120776Y-134870278D01*
X123120777Y-134870279D01*
X123136335Y-134897226D01*
X123212960Y-135029944D01*
X123217378Y-135034851D01*
X123217379Y-135034852D01*
X123336093Y-135166697D01*
X123340747Y-135171866D01*
X123423664Y-135232109D01*
X123480122Y-135273128D01*
X123495248Y-135284118D01*
X123501276Y-135286802D01*
X123501278Y-135286803D01*
X123641661Y-135349305D01*
X123669712Y-135361794D01*
X123763113Y-135381647D01*
X123850056Y-135400128D01*
X123850061Y-135400128D01*
X123856513Y-135401500D01*
X124047487Y-135401500D01*
X124053939Y-135400128D01*
X124053944Y-135400128D01*
X124140887Y-135381647D01*
X124234288Y-135361794D01*
X124262339Y-135349305D01*
X124402722Y-135286803D01*
X124402724Y-135286802D01*
X124408752Y-135284118D01*
X124423879Y-135273128D01*
X124480336Y-135232109D01*
X124563253Y-135171866D01*
X124609960Y-135119993D01*
X124670404Y-135082755D01*
X124741388Y-135084107D01*
X124800372Y-135123621D01*
X124828630Y-135188751D01*
X124829594Y-135204305D01*
X124829594Y-136165981D01*
X124834823Y-136239092D01*
X124851377Y-136295470D01*
X124863902Y-136338124D01*
X124876019Y-136379392D01*
X124891028Y-136402746D01*
X124950201Y-136494822D01*
X124950203Y-136494825D01*
X124955073Y-136502402D01*
X124961883Y-136508303D01*
X125058768Y-136592255D01*
X125058771Y-136592257D01*
X125065580Y-136598157D01*
X125073777Y-136601901D01*
X125073778Y-136601901D01*
X125128326Y-136626812D01*
X125198589Y-136658900D01*
X125258435Y-136667505D01*
X125323012Y-136696996D01*
X125361396Y-136756722D01*
X125366500Y-136792221D01*
X125366500Y-137363219D01*
X125346498Y-137431340D01*
X125306803Y-137470363D01*
X125175652Y-137551522D01*
X125170479Y-137556704D01*
X125088862Y-137638463D01*
X125026579Y-137672542D01*
X124955759Y-137667539D01*
X124910671Y-137638618D01*
X124828171Y-137556261D01*
X124816760Y-137547249D01*
X124678757Y-137462184D01*
X124665576Y-137456037D01*
X124511290Y-137404862D01*
X124497914Y-137401995D01*
X124403562Y-137392328D01*
X124397145Y-137392000D01*
X124272115Y-137392000D01*
X124256876Y-137396475D01*
X124255671Y-137397865D01*
X124254000Y-137405548D01*
X124254000Y-138728000D01*
X124233998Y-138796121D01*
X124180342Y-138842614D01*
X124128000Y-138854000D01*
X122910116Y-138854000D01*
X122894877Y-138858475D01*
X122893672Y-138859865D01*
X122892001Y-138867548D01*
X122892001Y-139097095D01*
X122892338Y-139103614D01*
X122902257Y-139199206D01*
X122905149Y-139212600D01*
X122956588Y-139366784D01*
X122962761Y-139379962D01*
X123048063Y-139517807D01*
X123057099Y-139529208D01*
X123171829Y-139643739D01*
X123183240Y-139652751D01*
X123321243Y-139737816D01*
X123334424Y-139743963D01*
X123429634Y-139775543D01*
X123487993Y-139815974D01*
X123515230Y-139881538D01*
X123509799Y-139934070D01*
X123474827Y-140041703D01*
X123474137Y-140048264D01*
X123474137Y-140048266D01*
X123466580Y-140120166D01*
X123454865Y-140231631D01*
X123455555Y-140238196D01*
X123471210Y-140387142D01*
X123474827Y-140421559D01*
X123533842Y-140603187D01*
X123537145Y-140608909D01*
X123537146Y-140608910D01*
X123546301Y-140624766D01*
X123629329Y-140768575D01*
X123702506Y-140849846D01*
X123733222Y-140913852D01*
X123734869Y-140934155D01*
X123734869Y-142889602D01*
X123734342Y-142900785D01*
X123732667Y-142908278D01*
X123732916Y-142916204D01*
X123732916Y-142916205D01*
X123734807Y-142976355D01*
X123734869Y-142980314D01*
X123734869Y-143008225D01*
X123735366Y-143012159D01*
X123735366Y-143012160D01*
X123735374Y-143012225D01*
X123736307Y-143024062D01*
X123737696Y-143068258D01*
X123743347Y-143087708D01*
X123747356Y-143107069D01*
X123749895Y-143127166D01*
X123752814Y-143134537D01*
X123752814Y-143134539D01*
X123766173Y-143168281D01*
X123770018Y-143179511D01*
X123780140Y-143214352D01*
X123782351Y-143221962D01*
X123786384Y-143228781D01*
X123786386Y-143228786D01*
X123792662Y-143239397D01*
X123801357Y-143257145D01*
X123808817Y-143275986D01*
X123813479Y-143282402D01*
X123813479Y-143282403D01*
X123834805Y-143311756D01*
X123841321Y-143321676D01*
X123863827Y-143359731D01*
X123878148Y-143374052D01*
X123891040Y-143389156D01*
X123891433Y-143389698D01*
X123891435Y-143389700D01*
X123915244Y-143456585D01*
X123899112Y-143525725D01*
X123848162Y-143575168D01*
X123793403Y-143589624D01*
X123735012Y-143591459D01*
X123731054Y-143591521D01*
X123703123Y-143591521D01*
X123699208Y-143592016D01*
X123699204Y-143592016D01*
X123699146Y-143592024D01*
X123699117Y-143592027D01*
X123687275Y-143592960D01*
X123643089Y-143594348D01*
X123625723Y-143599393D01*
X123623637Y-143599999D01*
X123604285Y-143604007D01*
X123592047Y-143605553D01*
X123592045Y-143605554D01*
X123584182Y-143606547D01*
X123543065Y-143622827D01*
X123531864Y-143626662D01*
X123489385Y-143639003D01*
X123482566Y-143643036D01*
X123482561Y-143643038D01*
X123471950Y-143649314D01*
X123454200Y-143658011D01*
X123435362Y-143665469D01*
X123428946Y-143670130D01*
X123428945Y-143670131D01*
X123399604Y-143691449D01*
X123389680Y-143697968D01*
X123358439Y-143716443D01*
X123358434Y-143716447D01*
X123351616Y-143720479D01*
X123337292Y-143734803D01*
X123322260Y-143747642D01*
X123305872Y-143759549D01*
X123282703Y-143787556D01*
X123277691Y-143793614D01*
X123269701Y-143802394D01*
X122896500Y-144175595D01*
X122834188Y-144209621D01*
X122807405Y-144212500D01*
X119648866Y-144212500D01*
X119586684Y-144219255D01*
X119450295Y-144270385D01*
X119333739Y-144357739D01*
X119246385Y-144474295D01*
X119195255Y-144610684D01*
X119188500Y-144672866D01*
X119188500Y-146569134D01*
X119195255Y-146631316D01*
X119246385Y-146767705D01*
X119333739Y-146884261D01*
X119450295Y-146971615D01*
X119586684Y-147022745D01*
X119648866Y-147029500D01*
X123245134Y-147029500D01*
X123307316Y-147022745D01*
X123443705Y-146971615D01*
X123560261Y-146884261D01*
X123647615Y-146767705D01*
X123698745Y-146631316D01*
X123705500Y-146569134D01*
X123705500Y-146110762D01*
X123725502Y-146042641D01*
X123779158Y-145996148D01*
X123849432Y-145986044D01*
X123863786Y-145989382D01*
X123864712Y-145989794D01*
X123881846Y-145993436D01*
X124045056Y-146028128D01*
X124045061Y-146028128D01*
X124051513Y-146029500D01*
X124242487Y-146029500D01*
X124248939Y-146028128D01*
X124248944Y-146028128D01*
X124350387Y-146006565D01*
X124429288Y-145989794D01*
X124435315Y-145987111D01*
X124435323Y-145987108D01*
X124456650Y-145977612D01*
X124527017Y-145968177D01*
X124591315Y-145998283D01*
X124629128Y-146058371D01*
X124633900Y-146092718D01*
X124633900Y-146400913D01*
X124640655Y-146463095D01*
X124643425Y-146470483D01*
X124643507Y-146470829D01*
X124643507Y-146529115D01*
X124643425Y-146529461D01*
X124640655Y-146536849D01*
X124639803Y-146544695D01*
X124639802Y-146544698D01*
X124634269Y-146595634D01*
X124633900Y-146599031D01*
X124633900Y-147050899D01*
X124634269Y-147054296D01*
X124639191Y-147099600D01*
X124640655Y-147113081D01*
X124643431Y-147120487D01*
X124643767Y-147121898D01*
X124643767Y-147180200D01*
X124640294Y-147194803D01*
X124634769Y-147245665D01*
X124634400Y-147252479D01*
X124634400Y-147279036D01*
X124638875Y-147294275D01*
X124657562Y-147310468D01*
X124685708Y-147325837D01*
X124719732Y-147388149D01*
X124714666Y-147458965D01*
X124672119Y-147515800D01*
X124631764Y-147535928D01*
X124629082Y-147536707D01*
X124629079Y-147536708D01*
X124621470Y-147538919D01*
X124614648Y-147542953D01*
X124614642Y-147542956D01*
X124604031Y-147549231D01*
X124586281Y-147557927D01*
X124574819Y-147562465D01*
X124574814Y-147562468D01*
X124567446Y-147565385D01*
X124561031Y-147570046D01*
X124531688Y-147591364D01*
X124521770Y-147597880D01*
X124503082Y-147608932D01*
X124483700Y-147620395D01*
X124469376Y-147634719D01*
X124454344Y-147647558D01*
X124437956Y-147659465D01*
X124409775Y-147693530D01*
X124401785Y-147702310D01*
X123949500Y-148154595D01*
X123887188Y-148188621D01*
X123860405Y-148191500D01*
X123804513Y-148191500D01*
X123798061Y-148192872D01*
X123798056Y-148192872D01*
X123711112Y-148211353D01*
X123617712Y-148231206D01*
X123611682Y-148233891D01*
X123611681Y-148233891D01*
X123449278Y-148306197D01*
X123449276Y-148306198D01*
X123443248Y-148308882D01*
X123437907Y-148312762D01*
X123437906Y-148312763D01*
X123431975Y-148317072D01*
X123288747Y-148421134D01*
X123284326Y-148426044D01*
X123284325Y-148426045D01*
X123169490Y-148553583D01*
X123160960Y-148563056D01*
X123065473Y-148728444D01*
X123006458Y-148910072D01*
X123005768Y-148916633D01*
X123005768Y-148916635D01*
X122996923Y-149000794D01*
X122986496Y-149100000D01*
X122987186Y-149106565D01*
X123001225Y-149240135D01*
X123006458Y-149289928D01*
X123065473Y-149471556D01*
X123160960Y-149636944D01*
X123165378Y-149641851D01*
X123165379Y-149641852D01*
X123267862Y-149755671D01*
X123288747Y-149778866D01*
X123443248Y-149891118D01*
X123449276Y-149893802D01*
X123449278Y-149893803D01*
X123611681Y-149966109D01*
X123617712Y-149968794D01*
X123711112Y-149988647D01*
X123798056Y-150007128D01*
X123798061Y-150007128D01*
X123804513Y-150008500D01*
X123995487Y-150008500D01*
X124001939Y-150007128D01*
X124001944Y-150007128D01*
X124088888Y-149988647D01*
X124182288Y-149968794D01*
X124188319Y-149966109D01*
X124350722Y-149893803D01*
X124350724Y-149893802D01*
X124356752Y-149891118D01*
X124511253Y-149778866D01*
X124532138Y-149755671D01*
X124634621Y-149641852D01*
X124634622Y-149641851D01*
X124639040Y-149636944D01*
X124734527Y-149471556D01*
X124793542Y-149289928D01*
X124810907Y-149124706D01*
X124837920Y-149059050D01*
X124847122Y-149048782D01*
X125047762Y-148848142D01*
X125110074Y-148814116D01*
X125136857Y-148811237D01*
X126600234Y-148811237D01*
X126662416Y-148804482D01*
X126798805Y-148753352D01*
X126915361Y-148665998D01*
X127002715Y-148549442D01*
X127053845Y-148413053D01*
X127060600Y-148350871D01*
X127060600Y-148347406D01*
X130539901Y-148347406D01*
X130540271Y-148354227D01*
X130545795Y-148405089D01*
X130549421Y-148420341D01*
X130594576Y-148540791D01*
X130603114Y-148556386D01*
X130679615Y-148658461D01*
X130692176Y-148671022D01*
X130794251Y-148747523D01*
X130809846Y-148756061D01*
X130930294Y-148801215D01*
X130945549Y-148804842D01*
X130996414Y-148810368D01*
X131003228Y-148810737D01*
X131556835Y-148810737D01*
X131572074Y-148806262D01*
X131573279Y-148804872D01*
X131574950Y-148797189D01*
X131574950Y-148320852D01*
X131570475Y-148305613D01*
X131569085Y-148304408D01*
X131561402Y-148302737D01*
X130558016Y-148302737D01*
X130542777Y-148307212D01*
X130541572Y-148308602D01*
X130539901Y-148316285D01*
X130539901Y-148347406D01*
X127060600Y-148347406D01*
X127060600Y-147899003D01*
X127056365Y-147860017D01*
X127054699Y-147844680D01*
X127054699Y-147844678D01*
X127053845Y-147836821D01*
X127051069Y-147829415D01*
X127050733Y-147828004D01*
X127050733Y-147769702D01*
X127054206Y-147755099D01*
X127059731Y-147704237D01*
X127060100Y-147697423D01*
X127060100Y-147670866D01*
X127055625Y-147655627D01*
X127054235Y-147654422D01*
X127046552Y-147652751D01*
X127030007Y-147652751D01*
X126961886Y-147632749D01*
X126929181Y-147602316D01*
X126925856Y-147597880D01*
X126915361Y-147583876D01*
X126904553Y-147575776D01*
X126901859Y-147572173D01*
X126901831Y-147572145D01*
X126901835Y-147572141D01*
X126862039Y-147518915D01*
X126857015Y-147448097D01*
X126891076Y-147385804D01*
X126904553Y-147374126D01*
X126908182Y-147371406D01*
X126915361Y-147366026D01*
X126929181Y-147347586D01*
X126986040Y-147305071D01*
X127030007Y-147297151D01*
X127041984Y-147297151D01*
X127057223Y-147292676D01*
X127058428Y-147291286D01*
X127060099Y-147283603D01*
X127060099Y-147252482D01*
X127059729Y-147245661D01*
X127054205Y-147194801D01*
X127050733Y-147180198D01*
X127050733Y-147121900D01*
X127051070Y-147120484D01*
X127053845Y-147113081D01*
X127055310Y-147099600D01*
X127060231Y-147054296D01*
X127060600Y-147050899D01*
X127060600Y-146599031D01*
X127060231Y-146595634D01*
X127054698Y-146544698D01*
X127054697Y-146544695D01*
X127053845Y-146536849D01*
X127051075Y-146529461D01*
X127050993Y-146529115D01*
X127050993Y-146470829D01*
X127051075Y-146470483D01*
X127053845Y-146463095D01*
X127060600Y-146400913D01*
X127060600Y-145949045D01*
X127059819Y-145941852D01*
X127054698Y-145894712D01*
X127054697Y-145894709D01*
X127053845Y-145886863D01*
X127051075Y-145879475D01*
X127050993Y-145879129D01*
X127050993Y-145820843D01*
X127051075Y-145820497D01*
X127053845Y-145813109D01*
X127060600Y-145750927D01*
X127060600Y-145299059D01*
X127053845Y-145236877D01*
X127051075Y-145229489D01*
X127050993Y-145229143D01*
X127050993Y-145170857D01*
X127051075Y-145170511D01*
X127053845Y-145163123D01*
X127060600Y-145100941D01*
X127060600Y-144649073D01*
X127055626Y-144603285D01*
X127054698Y-144594740D01*
X127054697Y-144594737D01*
X127053845Y-144586891D01*
X127051075Y-144579503D01*
X127050993Y-144579157D01*
X127050993Y-144520871D01*
X127051075Y-144520525D01*
X127053845Y-144513137D01*
X127056485Y-144488841D01*
X127060231Y-144454352D01*
X127060600Y-144450955D01*
X127060600Y-143999087D01*
X127056270Y-143959229D01*
X127054698Y-143944754D01*
X127054697Y-143944751D01*
X127053845Y-143936905D01*
X127051075Y-143929517D01*
X127050993Y-143929171D01*
X127050993Y-143870885D01*
X127051075Y-143870539D01*
X127053845Y-143863151D01*
X127060600Y-143800969D01*
X127060600Y-143349101D01*
X127053845Y-143286919D01*
X127051075Y-143279531D01*
X127050993Y-143279185D01*
X127050993Y-143220899D01*
X127051075Y-143220553D01*
X127053845Y-143213165D01*
X127054804Y-143204342D01*
X127060231Y-143154380D01*
X127060600Y-143150983D01*
X127060600Y-143034563D01*
X127080602Y-142966442D01*
X127134258Y-142919949D01*
X127186600Y-142908563D01*
X128216737Y-142908563D01*
X128284858Y-142928565D01*
X128304084Y-142944906D01*
X128304357Y-142944603D01*
X128309269Y-142949026D01*
X128313684Y-142953929D01*
X128330907Y-142966442D01*
X128410222Y-143024068D01*
X128468185Y-143066181D01*
X128474213Y-143068865D01*
X128474215Y-143068866D01*
X128605160Y-143127166D01*
X128642649Y-143143857D01*
X128736050Y-143163710D01*
X128822993Y-143182191D01*
X128822998Y-143182191D01*
X128829450Y-143183563D01*
X129020424Y-143183563D01*
X129026876Y-143182191D01*
X129026881Y-143182191D01*
X129113824Y-143163710D01*
X129207225Y-143143857D01*
X129244714Y-143127166D01*
X129375659Y-143068866D01*
X129375661Y-143068865D01*
X129381689Y-143066181D01*
X129536190Y-142953929D01*
X129577294Y-142908278D01*
X129659558Y-142816915D01*
X129659559Y-142816914D01*
X129663977Y-142812007D01*
X129732222Y-142693803D01*
X129756160Y-142652342D01*
X129756161Y-142652341D01*
X129759464Y-142646619D01*
X129818479Y-142464991D01*
X129819284Y-142457338D01*
X129835844Y-142299771D01*
X129862857Y-142234114D01*
X129872059Y-142223845D01*
X129980634Y-142115271D01*
X130116778Y-141979127D01*
X130125057Y-141971593D01*
X130131538Y-141967480D01*
X130178164Y-141917828D01*
X130180918Y-141914987D01*
X130200655Y-141895250D01*
X130203135Y-141892053D01*
X130210840Y-141883031D01*
X130212130Y-141881658D01*
X130241106Y-141850801D01*
X130241479Y-141851152D01*
X130293483Y-141811052D01*
X130352037Y-141803123D01*
X130396438Y-141807672D01*
X130402854Y-141808000D01*
X130431975Y-141808000D01*
X130500096Y-141828002D01*
X130546589Y-141881658D01*
X130556693Y-141951932D01*
X130549956Y-141978233D01*
X130549421Y-141979660D01*
X130545795Y-141994912D01*
X130540269Y-142045777D01*
X130539900Y-142052591D01*
X130539900Y-142079148D01*
X130544375Y-142094387D01*
X130545765Y-142095592D01*
X130553448Y-142097263D01*
X130688997Y-142097263D01*
X130757118Y-142117265D01*
X130803611Y-142170921D01*
X130813715Y-142241195D01*
X130784221Y-142305775D01*
X130764562Y-142324089D01*
X130684639Y-142383988D01*
X130679258Y-142391168D01*
X130670819Y-142402428D01*
X130613960Y-142444943D01*
X130569993Y-142452863D01*
X130558016Y-142452863D01*
X130542777Y-142457338D01*
X130541572Y-142458728D01*
X130539901Y-142466411D01*
X130539901Y-142497532D01*
X130540271Y-142504353D01*
X130545795Y-142555213D01*
X130549267Y-142569816D01*
X130549267Y-142628114D01*
X130548930Y-142629530D01*
X130546155Y-142636933D01*
X130545302Y-142644786D01*
X130545301Y-142644790D01*
X130543961Y-142657128D01*
X130539400Y-142699115D01*
X130539400Y-143150983D01*
X130539769Y-143154380D01*
X130545197Y-143204342D01*
X130546155Y-143213165D01*
X130548925Y-143220553D01*
X130549007Y-143220899D01*
X130549007Y-143279185D01*
X130548925Y-143279531D01*
X130546155Y-143286919D01*
X130539400Y-143349101D01*
X130539400Y-143800969D01*
X130546155Y-143863151D01*
X130548925Y-143870539D01*
X130549007Y-143870885D01*
X130549007Y-143929171D01*
X130548925Y-143929517D01*
X130546155Y-143936905D01*
X130545303Y-143944751D01*
X130545302Y-143944754D01*
X130543730Y-143959229D01*
X130539400Y-143999087D01*
X130539400Y-144450955D01*
X130539769Y-144454352D01*
X130543516Y-144488841D01*
X130546155Y-144513137D01*
X130548925Y-144520525D01*
X130549007Y-144520871D01*
X130549007Y-144579157D01*
X130548925Y-144579503D01*
X130546155Y-144586891D01*
X130545303Y-144594737D01*
X130545302Y-144594740D01*
X130544374Y-144603285D01*
X130539400Y-144649073D01*
X130539400Y-144767054D01*
X130519398Y-144835175D01*
X130465742Y-144881668D01*
X130417359Y-144892992D01*
X130383037Y-144894071D01*
X130375118Y-144894320D01*
X130355664Y-144899972D01*
X130336307Y-144903980D01*
X130324077Y-144905525D01*
X130324076Y-144905525D01*
X130316210Y-144906519D01*
X130308839Y-144909438D01*
X130308837Y-144909438D01*
X130275095Y-144922797D01*
X130263865Y-144926642D01*
X130229024Y-144936764D01*
X130229023Y-144936764D01*
X130221414Y-144938975D01*
X130214595Y-144943008D01*
X130214590Y-144943010D01*
X130203979Y-144949286D01*
X130186231Y-144957981D01*
X130167390Y-144965441D01*
X130160974Y-144970103D01*
X130160973Y-144970103D01*
X130131620Y-144991429D01*
X130121700Y-144997945D01*
X130090472Y-145016413D01*
X130090469Y-145016415D01*
X130083645Y-145020451D01*
X130069324Y-145034772D01*
X130054291Y-145047612D01*
X130037900Y-145059521D01*
X130032847Y-145065629D01*
X130009715Y-145093591D01*
X130001725Y-145102371D01*
X129849501Y-145254595D01*
X129787189Y-145288621D01*
X129760406Y-145291500D01*
X129704513Y-145291500D01*
X129698061Y-145292872D01*
X129698056Y-145292872D01*
X129611112Y-145311353D01*
X129517712Y-145331206D01*
X129511682Y-145333891D01*
X129511681Y-145333891D01*
X129349278Y-145406197D01*
X129349276Y-145406198D01*
X129343248Y-145408882D01*
X129188747Y-145521134D01*
X129060960Y-145663056D01*
X129012882Y-145746329D01*
X128975465Y-145811138D01*
X128965473Y-145828444D01*
X128906458Y-146010072D01*
X128905768Y-146016633D01*
X128905768Y-146016635D01*
X128898819Y-146082749D01*
X128886496Y-146200000D01*
X128887186Y-146206565D01*
X128903777Y-146364416D01*
X128906458Y-146389928D01*
X128965473Y-146571556D01*
X128968776Y-146577278D01*
X128968777Y-146577279D01*
X128987089Y-146608996D01*
X129060960Y-146736944D01*
X129065378Y-146741851D01*
X129065379Y-146741852D01*
X129147451Y-146833002D01*
X129188747Y-146878866D01*
X129249956Y-146923337D01*
X129320033Y-146974251D01*
X129343248Y-146991118D01*
X129349276Y-146993802D01*
X129349278Y-146993803D01*
X129511681Y-147066109D01*
X129517712Y-147068794D01*
X129611112Y-147088647D01*
X129698056Y-147107128D01*
X129698061Y-147107128D01*
X129704513Y-147108500D01*
X129895487Y-147108500D01*
X129901939Y-147107128D01*
X129901944Y-147107128D01*
X129988888Y-147088647D01*
X130082288Y-147068794D01*
X130088319Y-147066109D01*
X130250722Y-146993803D01*
X130250724Y-146993802D01*
X130256752Y-146991118D01*
X130279257Y-146974767D01*
X130339339Y-146931115D01*
X130406207Y-146907256D01*
X130475358Y-146923337D01*
X130524839Y-146974251D01*
X130539400Y-147033051D01*
X130539400Y-147050899D01*
X130539769Y-147054296D01*
X130544691Y-147099600D01*
X130546155Y-147113081D01*
X130548931Y-147120487D01*
X130549267Y-147121898D01*
X130549267Y-147180200D01*
X130545794Y-147194803D01*
X130540269Y-147245665D01*
X130539900Y-147252479D01*
X130539900Y-147279036D01*
X130544375Y-147294275D01*
X130545765Y-147295480D01*
X130553448Y-147297151D01*
X130569993Y-147297151D01*
X130638114Y-147317153D01*
X130670819Y-147347586D01*
X130684639Y-147366026D01*
X130691818Y-147371406D01*
X130691819Y-147371407D01*
X130764562Y-147425925D01*
X130807077Y-147482784D01*
X130812103Y-147553603D01*
X130778043Y-147615896D01*
X130715712Y-147649886D01*
X130688997Y-147652751D01*
X130558016Y-147652751D01*
X130542777Y-147657226D01*
X130541572Y-147658616D01*
X130539901Y-147666299D01*
X130539901Y-147697420D01*
X130540271Y-147704241D01*
X130545795Y-147755100D01*
X130549527Y-147770799D01*
X130549526Y-147829093D01*
X130545795Y-147844785D01*
X130540269Y-147895651D01*
X130539900Y-147902465D01*
X130539900Y-147929022D01*
X130544375Y-147944261D01*
X130545765Y-147945466D01*
X130553448Y-147947137D01*
X131556835Y-147947137D01*
X131572074Y-147942662D01*
X131573279Y-147941272D01*
X131574950Y-147933589D01*
X131574950Y-147652751D01*
X131575507Y-147652751D01*
X131575507Y-147601766D01*
X131613891Y-147542040D01*
X131678472Y-147512547D01*
X131696403Y-147511265D01*
X131804550Y-147511265D01*
X131872671Y-147531267D01*
X131919164Y-147584923D01*
X131930550Y-147637265D01*
X131930550Y-148792621D01*
X131935025Y-148807860D01*
X131936415Y-148809065D01*
X131944098Y-148810736D01*
X132502269Y-148810736D01*
X132509090Y-148810366D01*
X132559952Y-148804842D01*
X132575204Y-148801216D01*
X132695654Y-148756061D01*
X132711249Y-148747523D01*
X132813324Y-148671022D01*
X132825885Y-148658461D01*
X132902386Y-148556386D01*
X132910924Y-148540791D01*
X132956078Y-148420343D01*
X132959705Y-148405088D01*
X132965231Y-148354223D01*
X132965600Y-148347409D01*
X132965600Y-148250570D01*
X132985602Y-148182449D01*
X133039258Y-148135956D01*
X133109532Y-148125852D01*
X133142849Y-148135463D01*
X133217712Y-148168794D01*
X133310990Y-148188621D01*
X133398056Y-148207128D01*
X133398061Y-148207128D01*
X133404513Y-148208500D01*
X133595487Y-148208500D01*
X133601939Y-148207128D01*
X133601944Y-148207128D01*
X133689010Y-148188621D01*
X133782288Y-148168794D01*
X133788315Y-148166111D01*
X133788323Y-148166108D01*
X133798804Y-148161441D01*
X133869171Y-148152006D01*
X133933468Y-148182112D01*
X133971282Y-148242200D01*
X133976054Y-148276627D01*
X133974588Y-150504160D01*
X133974519Y-150609101D01*
X133954472Y-150677208D01*
X133900786Y-150723666D01*
X133848533Y-150735018D01*
X126874402Y-150735789D01*
X85394767Y-150740377D01*
X85326644Y-150720382D01*
X85280145Y-150666732D01*
X85270034Y-150596459D01*
X85299519Y-150531875D01*
X85328450Y-150507233D01*
X85417807Y-150451937D01*
X85429208Y-150442901D01*
X85543739Y-150328171D01*
X85552751Y-150316760D01*
X85637816Y-150178757D01*
X85643963Y-150165576D01*
X85695138Y-150011290D01*
X85698005Y-149997914D01*
X85707672Y-149903562D01*
X85708000Y-149897146D01*
X85708000Y-149772115D01*
X85703525Y-149756876D01*
X85702135Y-149755671D01*
X85694452Y-149754000D01*
X84372000Y-149754000D01*
X84303879Y-149733998D01*
X84257386Y-149680342D01*
X84246000Y-149628000D01*
X84246000Y-149372000D01*
X84266002Y-149303879D01*
X84319658Y-149257386D01*
X84372000Y-149246000D01*
X85689884Y-149246000D01*
X85705123Y-149241525D01*
X85706328Y-149240135D01*
X85707999Y-149232452D01*
X85707999Y-149102905D01*
X85707662Y-149096386D01*
X85697743Y-149000794D01*
X85694851Y-148987400D01*
X85643412Y-148833216D01*
X85637239Y-148820038D01*
X85551937Y-148682193D01*
X85542901Y-148670792D01*
X85461538Y-148589570D01*
X85427459Y-148527287D01*
X85432462Y-148456467D01*
X85461383Y-148411380D01*
X85544130Y-148328488D01*
X85544134Y-148328483D01*
X85549305Y-148323303D01*
X85589743Y-148257701D01*
X85638275Y-148178968D01*
X85638276Y-148178966D01*
X85642115Y-148172738D01*
X85673870Y-148076999D01*
X85695632Y-148011389D01*
X85695632Y-148011387D01*
X85697797Y-148004861D01*
X85698664Y-147996406D01*
X85708172Y-147903598D01*
X85708500Y-147900400D01*
X85708500Y-147099600D01*
X85705025Y-147066109D01*
X85698238Y-147000692D01*
X85698237Y-147000688D01*
X85697526Y-146993834D01*
X85660970Y-146884261D01*
X85643868Y-146833002D01*
X85641550Y-146826054D01*
X85548478Y-146675652D01*
X85423303Y-146550695D01*
X85384285Y-146526644D01*
X85336792Y-146473872D01*
X85325368Y-146403800D01*
X85334170Y-146372175D01*
X85334527Y-146371556D01*
X85393542Y-146189928D01*
X85397548Y-146151818D01*
X85412814Y-146006565D01*
X85413504Y-146000000D01*
X85408306Y-145950544D01*
X85394232Y-145816635D01*
X85394232Y-145816633D01*
X85393542Y-145810072D01*
X85334527Y-145628444D01*
X85239040Y-145463056D01*
X85122740Y-145333891D01*
X85115675Y-145326045D01*
X85115674Y-145326044D01*
X85111253Y-145321134D01*
X85085563Y-145302469D01*
X91501500Y-145302469D01*
X91501712Y-145305042D01*
X91501712Y-145305053D01*
X91516131Y-145480432D01*
X91516132Y-145480438D01*
X91516555Y-145485583D01*
X91544341Y-145596206D01*
X91574526Y-145716375D01*
X91576584Y-145724570D01*
X91578642Y-145729303D01*
X91578643Y-145729306D01*
X91671061Y-145941852D01*
X91674840Y-145950544D01*
X91677644Y-145954878D01*
X91677646Y-145954882D01*
X91805874Y-146153092D01*
X91805879Y-146153098D01*
X91808685Y-146157436D01*
X91812165Y-146161261D01*
X91812167Y-146161263D01*
X91834921Y-146186269D01*
X91974523Y-146339690D01*
X91978574Y-146342889D01*
X91978578Y-146342893D01*
X92060068Y-146407249D01*
X92167901Y-146492410D01*
X92248401Y-146536849D01*
X92367233Y-146602448D01*
X92383625Y-146611497D01*
X92615903Y-146693750D01*
X92620995Y-146694657D01*
X92853407Y-146736057D01*
X92853411Y-146736057D01*
X92858495Y-146736963D01*
X92937914Y-146737933D01*
X93099718Y-146739910D01*
X93099720Y-146739910D01*
X93104888Y-146739973D01*
X93348464Y-146702701D01*
X93582682Y-146626147D01*
X93587270Y-146623759D01*
X93587274Y-146623757D01*
X93796663Y-146514756D01*
X93796664Y-146514755D01*
X93801252Y-146512367D01*
X93805385Y-146509264D01*
X93805388Y-146509262D01*
X93994168Y-146367521D01*
X93994170Y-146367519D01*
X93998303Y-146364416D01*
X94168545Y-146186269D01*
X94194125Y-146148770D01*
X94304485Y-145986989D01*
X94304488Y-145986984D01*
X94307404Y-145982709D01*
X94309580Y-145978020D01*
X94309584Y-145978014D01*
X94408975Y-145763894D01*
X94408977Y-145763889D01*
X94411152Y-145759203D01*
X94413126Y-145752088D01*
X94475623Y-145526726D01*
X94475623Y-145526725D01*
X94477002Y-145521753D01*
X94490014Y-145400000D01*
X94498144Y-145323929D01*
X94498144Y-145323921D01*
X94498500Y-145320594D01*
X94498500Y-145302469D01*
X96501500Y-145302469D01*
X96501712Y-145305042D01*
X96501712Y-145305053D01*
X96516131Y-145480432D01*
X96516132Y-145480438D01*
X96516555Y-145485583D01*
X96544341Y-145596206D01*
X96574526Y-145716375D01*
X96576584Y-145724570D01*
X96578642Y-145729303D01*
X96578643Y-145729306D01*
X96671061Y-145941852D01*
X96674840Y-145950544D01*
X96677644Y-145954878D01*
X96677646Y-145954882D01*
X96805874Y-146153092D01*
X96805879Y-146153098D01*
X96808685Y-146157436D01*
X96812165Y-146161261D01*
X96812167Y-146161263D01*
X96834921Y-146186269D01*
X96974523Y-146339690D01*
X96978574Y-146342889D01*
X96978578Y-146342893D01*
X97060068Y-146407249D01*
X97167901Y-146492410D01*
X97248401Y-146536849D01*
X97367233Y-146602448D01*
X97383625Y-146611497D01*
X97615903Y-146693750D01*
X97620995Y-146694657D01*
X97853407Y-146736057D01*
X97853411Y-146736057D01*
X97858495Y-146736963D01*
X97937914Y-146737933D01*
X98099718Y-146739910D01*
X98099720Y-146739910D01*
X98104888Y-146739973D01*
X98348464Y-146702701D01*
X98582682Y-146626147D01*
X98587270Y-146623759D01*
X98587274Y-146623757D01*
X98796663Y-146514756D01*
X98796664Y-146514755D01*
X98801252Y-146512367D01*
X98805385Y-146509264D01*
X98805388Y-146509262D01*
X98994168Y-146367521D01*
X98994170Y-146367519D01*
X98998303Y-146364416D01*
X99084068Y-146274669D01*
X101502001Y-146274669D01*
X101502371Y-146281490D01*
X101507895Y-146332352D01*
X101511521Y-146347604D01*
X101556676Y-146468054D01*
X101565214Y-146483649D01*
X101641715Y-146585724D01*
X101654276Y-146598285D01*
X101756351Y-146674786D01*
X101771946Y-146683324D01*
X101892394Y-146728478D01*
X101907649Y-146732105D01*
X101958514Y-146737631D01*
X101965328Y-146738000D01*
X102727885Y-146738000D01*
X102743124Y-146733525D01*
X102744329Y-146732135D01*
X102746000Y-146724452D01*
X102746000Y-146719884D01*
X103254000Y-146719884D01*
X103258475Y-146735123D01*
X103259865Y-146736328D01*
X103267548Y-146737999D01*
X104034669Y-146737999D01*
X104041490Y-146737629D01*
X104092352Y-146732105D01*
X104107604Y-146728479D01*
X104228054Y-146683324D01*
X104243649Y-146674786D01*
X104345724Y-146598285D01*
X104358285Y-146585724D01*
X104434786Y-146483649D01*
X104443324Y-146468054D01*
X104488478Y-146347606D01*
X104492105Y-146332351D01*
X104497631Y-146281486D01*
X104498000Y-146274672D01*
X104498000Y-144522115D01*
X104493525Y-144506876D01*
X104492135Y-144505671D01*
X104484452Y-144504000D01*
X103272115Y-144504000D01*
X103256876Y-144508475D01*
X103255671Y-144509865D01*
X103254000Y-144517548D01*
X103254000Y-146719884D01*
X102746000Y-146719884D01*
X102746000Y-144522115D01*
X102741525Y-144506876D01*
X102740135Y-144505671D01*
X102732452Y-144504000D01*
X101520116Y-144504000D01*
X101504877Y-144508475D01*
X101503672Y-144509865D01*
X101502001Y-144517548D01*
X101502001Y-146274669D01*
X99084068Y-146274669D01*
X99168545Y-146186269D01*
X99194125Y-146148770D01*
X99304485Y-145986989D01*
X99304488Y-145986984D01*
X99307404Y-145982709D01*
X99309580Y-145978020D01*
X99309584Y-145978014D01*
X99408975Y-145763894D01*
X99408977Y-145763889D01*
X99411152Y-145759203D01*
X99413126Y-145752088D01*
X99475623Y-145526726D01*
X99475623Y-145526725D01*
X99477002Y-145521753D01*
X99490014Y-145400000D01*
X99498144Y-145323929D01*
X99498144Y-145323921D01*
X99498500Y-145320594D01*
X99498500Y-144324500D01*
X108612496Y-144324500D01*
X108613186Y-144331065D01*
X108631538Y-144505671D01*
X108632458Y-144514428D01*
X108691473Y-144696056D01*
X108786960Y-144861444D01*
X108791378Y-144866351D01*
X108791379Y-144866352D01*
X108877973Y-144962524D01*
X108914747Y-145003366D01*
X109000444Y-145065629D01*
X109038931Y-145093591D01*
X109069248Y-145115618D01*
X109075276Y-145118302D01*
X109075278Y-145118303D01*
X109158317Y-145155274D01*
X109243712Y-145193294D01*
X109322646Y-145210072D01*
X109424056Y-145231628D01*
X109424061Y-145231628D01*
X109430513Y-145233000D01*
X109511111Y-145233000D01*
X109579232Y-145253002D01*
X109625725Y-145306658D01*
X109636421Y-145372171D01*
X109633496Y-145400000D01*
X109634186Y-145406565D01*
X109646293Y-145521753D01*
X109653458Y-145589928D01*
X109712473Y-145771556D01*
X109715776Y-145777278D01*
X109715777Y-145777279D01*
X109731086Y-145803794D01*
X109807960Y-145936944D01*
X109812378Y-145941851D01*
X109812379Y-145941852D01*
X109890062Y-146028128D01*
X109935747Y-146078866D01*
X109951051Y-146089985D01*
X110077693Y-146181996D01*
X110090248Y-146191118D01*
X110096276Y-146193802D01*
X110096278Y-146193803D01*
X110258681Y-146266109D01*
X110264712Y-146268794D01*
X110358112Y-146288647D01*
X110445056Y-146307128D01*
X110445061Y-146307128D01*
X110451513Y-146308500D01*
X110642487Y-146308500D01*
X110648939Y-146307128D01*
X110648944Y-146307128D01*
X110735888Y-146288647D01*
X110829288Y-146268794D01*
X110835319Y-146266109D01*
X110997722Y-146193803D01*
X110997724Y-146193802D01*
X111003752Y-146191118D01*
X111016308Y-146181996D01*
X111142949Y-146089985D01*
X111158253Y-146078866D01*
X111203938Y-146028128D01*
X111281621Y-145941852D01*
X111281622Y-145941851D01*
X111286040Y-145936944D01*
X111362914Y-145803794D01*
X111378223Y-145777279D01*
X111378224Y-145777278D01*
X111381527Y-145771556D01*
X111440542Y-145589928D01*
X111447708Y-145521753D01*
X111459814Y-145406565D01*
X111460504Y-145400000D01*
X111451805Y-145317237D01*
X111441232Y-145216635D01*
X111441232Y-145216633D01*
X111440542Y-145210072D01*
X111402969Y-145094435D01*
X111400941Y-145023469D01*
X111437604Y-144962671D01*
X111501316Y-144931346D01*
X111522802Y-144929500D01*
X112842761Y-144929500D01*
X112910882Y-144949502D01*
X112931856Y-144966405D01*
X113982685Y-146017234D01*
X113993552Y-146029625D01*
X114013013Y-146054987D01*
X114019563Y-146060013D01*
X114044921Y-146079471D01*
X114044937Y-146079485D01*
X114139204Y-146151818D01*
X114181071Y-146209156D01*
X114188500Y-146251780D01*
X114188500Y-146569134D01*
X114195255Y-146631316D01*
X114246385Y-146767705D01*
X114333739Y-146884261D01*
X114450295Y-146971615D01*
X114586684Y-147022745D01*
X114648866Y-147029500D01*
X118245134Y-147029500D01*
X118307316Y-147022745D01*
X118443705Y-146971615D01*
X118560261Y-146884261D01*
X118647615Y-146767705D01*
X118698745Y-146631316D01*
X118705500Y-146569134D01*
X118705500Y-144672866D01*
X118698745Y-144610684D01*
X118647615Y-144474295D01*
X118560261Y-144357739D01*
X118443705Y-144270385D01*
X118307316Y-144219255D01*
X118245134Y-144212500D01*
X114648866Y-144212500D01*
X114586684Y-144219255D01*
X114450295Y-144270385D01*
X114333739Y-144357739D01*
X114328358Y-144364919D01*
X114328357Y-144364920D01*
X114296897Y-144406897D01*
X114240038Y-144449412D01*
X114169219Y-144454438D01*
X114106976Y-144420427D01*
X113611315Y-143924766D01*
X113600448Y-143912375D01*
X113586013Y-143893563D01*
X113580987Y-143887013D01*
X113549075Y-143862526D01*
X113549072Y-143862523D01*
X113460429Y-143794504D01*
X113460427Y-143794503D01*
X113453876Y-143789476D01*
X113305851Y-143728162D01*
X113297664Y-143727084D01*
X113297663Y-143727084D01*
X113274350Y-143724015D01*
X113186893Y-143712501D01*
X113186891Y-143712501D01*
X113186885Y-143712500D01*
X113186883Y-143712500D01*
X113186874Y-143712499D01*
X113155189Y-143708328D01*
X113147000Y-143707250D01*
X113115307Y-143711422D01*
X113098864Y-143712500D01*
X110253558Y-143712500D01*
X110185437Y-143692498D01*
X110159921Y-143670809D01*
X110141677Y-143650546D01*
X110141670Y-143650540D01*
X110137253Y-143645634D01*
X110129809Y-143640225D01*
X109988094Y-143537263D01*
X109988093Y-143537262D01*
X109982752Y-143533382D01*
X109976724Y-143530698D01*
X109976722Y-143530697D01*
X109814319Y-143458391D01*
X109814318Y-143458391D01*
X109808288Y-143455706D01*
X109714887Y-143435853D01*
X109627944Y-143417372D01*
X109627939Y-143417372D01*
X109621487Y-143416000D01*
X109430513Y-143416000D01*
X109424061Y-143417372D01*
X109424056Y-143417372D01*
X109337113Y-143435853D01*
X109243712Y-143455706D01*
X109237682Y-143458391D01*
X109237681Y-143458391D01*
X109075278Y-143530697D01*
X109075276Y-143530698D01*
X109069248Y-143533382D01*
X108914747Y-143645634D01*
X108910326Y-143650544D01*
X108910325Y-143650545D01*
X108812178Y-143759549D01*
X108786960Y-143787556D01*
X108777255Y-143804366D01*
X108696202Y-143944754D01*
X108691473Y-143952944D01*
X108632458Y-144134572D01*
X108631768Y-144141133D01*
X108631768Y-144141135D01*
X108623266Y-144222029D01*
X108612496Y-144324500D01*
X99498500Y-144324500D01*
X99498500Y-143977885D01*
X101502000Y-143977885D01*
X101506475Y-143993124D01*
X101507865Y-143994329D01*
X101515548Y-143996000D01*
X102727885Y-143996000D01*
X102743124Y-143991525D01*
X102744329Y-143990135D01*
X102746000Y-143982452D01*
X102746000Y-143977885D01*
X103254000Y-143977885D01*
X103258475Y-143993124D01*
X103259865Y-143994329D01*
X103267548Y-143996000D01*
X104479884Y-143996000D01*
X104495123Y-143991525D01*
X104496328Y-143990135D01*
X104497999Y-143982452D01*
X104497999Y-142225331D01*
X104497629Y-142218510D01*
X104492105Y-142167648D01*
X104488479Y-142152396D01*
X104443324Y-142031946D01*
X104434786Y-142016351D01*
X104358285Y-141914276D01*
X104345724Y-141901715D01*
X104243649Y-141825214D01*
X104228054Y-141816676D01*
X104107606Y-141771522D01*
X104092351Y-141767895D01*
X104041486Y-141762369D01*
X104034672Y-141762000D01*
X103272115Y-141762000D01*
X103256876Y-141766475D01*
X103255671Y-141767865D01*
X103254000Y-141775548D01*
X103254000Y-143977885D01*
X102746000Y-143977885D01*
X102746000Y-141780116D01*
X102741525Y-141764877D01*
X102740135Y-141763672D01*
X102732452Y-141762001D01*
X101965331Y-141762001D01*
X101958510Y-141762371D01*
X101907648Y-141767895D01*
X101892396Y-141771521D01*
X101771946Y-141816676D01*
X101756351Y-141825214D01*
X101654276Y-141901715D01*
X101641715Y-141914276D01*
X101565214Y-142016351D01*
X101556676Y-142031946D01*
X101511522Y-142152394D01*
X101507895Y-142167649D01*
X101502369Y-142218514D01*
X101502000Y-142225328D01*
X101502000Y-143977885D01*
X99498500Y-143977885D01*
X99498500Y-143197531D01*
X99497239Y-143182191D01*
X99483869Y-143019568D01*
X99483868Y-143019562D01*
X99483445Y-143014417D01*
X99433836Y-142816915D01*
X99424675Y-142780441D01*
X99424674Y-142780437D01*
X99423416Y-142775430D01*
X99421357Y-142770694D01*
X99421355Y-142770688D01*
X99365820Y-142642968D01*
X99356999Y-142572521D01*
X99392274Y-142503630D01*
X101418746Y-140477158D01*
X101481058Y-140443132D01*
X101551873Y-140448197D01*
X101601475Y-140481941D01*
X101688747Y-140578866D01*
X101742828Y-140618158D01*
X101822000Y-140675680D01*
X101843248Y-140691118D01*
X101849276Y-140693802D01*
X101849278Y-140693803D01*
X101990245Y-140756565D01*
X102017712Y-140768794D01*
X102101647Y-140786635D01*
X102198056Y-140807128D01*
X102198061Y-140807128D01*
X102204513Y-140808500D01*
X102395487Y-140808500D01*
X102401939Y-140807128D01*
X102401944Y-140807128D01*
X102498353Y-140786635D01*
X102582288Y-140768794D01*
X102609755Y-140756565D01*
X102750722Y-140693803D01*
X102750724Y-140693802D01*
X102756752Y-140691118D01*
X102778001Y-140675680D01*
X102857172Y-140618158D01*
X102911253Y-140578866D01*
X102991238Y-140490034D01*
X103034621Y-140441852D01*
X103034622Y-140441851D01*
X103039040Y-140436944D01*
X103090881Y-140347153D01*
X103142264Y-140298160D01*
X103211977Y-140284724D01*
X103277888Y-140311110D01*
X103309119Y-140347153D01*
X103360960Y-140436944D01*
X103365378Y-140441851D01*
X103365379Y-140441852D01*
X103408762Y-140490034D01*
X103488747Y-140578866D01*
X103542828Y-140618158D01*
X103622000Y-140675680D01*
X103643248Y-140691118D01*
X103649276Y-140693802D01*
X103649278Y-140693803D01*
X103790245Y-140756565D01*
X103817712Y-140768794D01*
X103901647Y-140786635D01*
X103998056Y-140807128D01*
X103998061Y-140807128D01*
X104004513Y-140808500D01*
X104195487Y-140808500D01*
X104201939Y-140807128D01*
X104201944Y-140807128D01*
X104298353Y-140786635D01*
X104382288Y-140768794D01*
X104409755Y-140756565D01*
X104550722Y-140693803D01*
X104550724Y-140693802D01*
X104556752Y-140691118D01*
X104578001Y-140675680D01*
X104637372Y-140632544D01*
X104704240Y-140608686D01*
X104773391Y-140624766D01*
X104822871Y-140675680D01*
X104834657Y-140736830D01*
X104837186Y-140736830D01*
X104837186Y-140743435D01*
X104836496Y-140750000D01*
X104837186Y-140756565D01*
X104844422Y-140825407D01*
X104856458Y-140939928D01*
X104915473Y-141121556D01*
X105010960Y-141286944D01*
X105015378Y-141291851D01*
X105015379Y-141291852D01*
X105134325Y-141423955D01*
X105138747Y-141428866D01*
X105293248Y-141541118D01*
X105299276Y-141543802D01*
X105299278Y-141543803D01*
X105434688Y-141604091D01*
X105467712Y-141618794D01*
X105561112Y-141638647D01*
X105648056Y-141657128D01*
X105648061Y-141657128D01*
X105654513Y-141658500D01*
X105845487Y-141658500D01*
X105851939Y-141657128D01*
X105851944Y-141657128D01*
X105938888Y-141638647D01*
X106032288Y-141618794D01*
X106065312Y-141604091D01*
X106200722Y-141543803D01*
X106200724Y-141543802D01*
X106206752Y-141541118D01*
X106361253Y-141428866D01*
X106365675Y-141423955D01*
X106484621Y-141291852D01*
X106484622Y-141291851D01*
X106489040Y-141286944D01*
X106577943Y-141132960D01*
X106629326Y-141083967D01*
X106699039Y-141070531D01*
X106762626Y-141095133D01*
X106791709Y-141116930D01*
X106791712Y-141116932D01*
X106798895Y-141122315D01*
X106935284Y-141173445D01*
X106997466Y-141180200D01*
X108554234Y-141180200D01*
X108616416Y-141173445D01*
X108752805Y-141122315D01*
X108869361Y-141034961D01*
X108956715Y-140918405D01*
X109007845Y-140782016D01*
X109014600Y-140719834D01*
X109014600Y-140090166D01*
X109007845Y-140027984D01*
X108956715Y-139891595D01*
X108922216Y-139845563D01*
X108897369Y-139779059D01*
X108912422Y-139709677D01*
X108922210Y-139694445D01*
X108956715Y-139648405D01*
X109007845Y-139512016D01*
X109014600Y-139449834D01*
X109014600Y-138820166D01*
X109012007Y-138796295D01*
X109024535Y-138726413D01*
X109072856Y-138674397D01*
X109141628Y-138656763D01*
X109148646Y-138657253D01*
X109154513Y-138658500D01*
X109345487Y-138658500D01*
X109351939Y-138657128D01*
X109351944Y-138657128D01*
X109438887Y-138638647D01*
X109532288Y-138618794D01*
X109538319Y-138616109D01*
X109700722Y-138543803D01*
X109700724Y-138543802D01*
X109706752Y-138541118D01*
X109714616Y-138535405D01*
X109786092Y-138483474D01*
X109861253Y-138428866D01*
X109937021Y-138344717D01*
X109984621Y-138291852D01*
X109984622Y-138291851D01*
X109989040Y-138286944D01*
X110084527Y-138121556D01*
X110143542Y-137939928D01*
X110155511Y-137826054D01*
X110162814Y-137756565D01*
X110163504Y-137750000D01*
X110152008Y-137640623D01*
X110144232Y-137566635D01*
X110144232Y-137566633D01*
X110143542Y-137560072D01*
X110084527Y-137378444D01*
X110069741Y-137352833D01*
X110014912Y-137257867D01*
X109989040Y-137213056D01*
X109972284Y-137194446D01*
X109865675Y-137076045D01*
X109865674Y-137076044D01*
X109861253Y-137071134D01*
X109727321Y-136973826D01*
X109712094Y-136962763D01*
X109712093Y-136962762D01*
X109706752Y-136958882D01*
X109700724Y-136956198D01*
X109700722Y-136956197D01*
X109538319Y-136883891D01*
X109538318Y-136883891D01*
X109532288Y-136881206D01*
X109414292Y-136856125D01*
X109351944Y-136842872D01*
X109351939Y-136842872D01*
X109345487Y-136841500D01*
X109154513Y-136841500D01*
X109148061Y-136842872D01*
X109148056Y-136842872D01*
X109085708Y-136856125D01*
X109032729Y-136855999D01*
X109000553Y-136849000D01*
X106555716Y-136849000D01*
X106540477Y-136853475D01*
X106539272Y-136854865D01*
X106537601Y-136862548D01*
X106537601Y-136906369D01*
X106537971Y-136913190D01*
X106543495Y-136964052D01*
X106547121Y-136979303D01*
X106577849Y-137061270D01*
X106583032Y-137132077D01*
X106549111Y-137194446D01*
X106486856Y-137228576D01*
X106459867Y-137231500D01*
X103263471Y-137231500D01*
X103195350Y-137211498D01*
X103148857Y-137157842D01*
X103138753Y-137087568D01*
X103143878Y-137065832D01*
X103195138Y-136911290D01*
X103198005Y-136897914D01*
X103207672Y-136803562D01*
X103208000Y-136797145D01*
X103208000Y-136672115D01*
X103203525Y-136656876D01*
X103202135Y-136655671D01*
X103194452Y-136654000D01*
X102272115Y-136654000D01*
X102256876Y-136658475D01*
X102255671Y-136659865D01*
X102254000Y-136667548D01*
X102254000Y-137489884D01*
X102258475Y-137505123D01*
X102259865Y-137506328D01*
X102267548Y-137507999D01*
X102291907Y-137507999D01*
X102360028Y-137528001D01*
X102406521Y-137581657D01*
X102416625Y-137651931D01*
X102387131Y-137716511D01*
X102381003Y-137723093D01*
X100367151Y-139736944D01*
X98357365Y-141746730D01*
X98295053Y-141780756D01*
X98246175Y-141781682D01*
X98168609Y-141767865D01*
X98146592Y-141763943D01*
X98146590Y-141763943D01*
X98141505Y-141763037D01*
X98056700Y-141762001D01*
X97900282Y-141760090D01*
X97900280Y-141760090D01*
X97895112Y-141760027D01*
X97651536Y-141797299D01*
X97417318Y-141873853D01*
X97412730Y-141876241D01*
X97412726Y-141876243D01*
X97227075Y-141972887D01*
X97198748Y-141987633D01*
X97194615Y-141990736D01*
X97194612Y-141990738D01*
X97005832Y-142132479D01*
X97001697Y-142135584D01*
X96985633Y-142152394D01*
X96844796Y-142299771D01*
X96831455Y-142313731D01*
X96828541Y-142318003D01*
X96828540Y-142318004D01*
X96695515Y-142513011D01*
X96695512Y-142513016D01*
X96692596Y-142517291D01*
X96690420Y-142521980D01*
X96690416Y-142521986D01*
X96591025Y-142736106D01*
X96588848Y-142740797D01*
X96587468Y-142745775D01*
X96587466Y-142745779D01*
X96539165Y-142919949D01*
X96522998Y-142978247D01*
X96512565Y-143075866D01*
X96504175Y-143154380D01*
X96501500Y-143179406D01*
X96501500Y-145302469D01*
X94498500Y-145302469D01*
X94498500Y-143197531D01*
X94497239Y-143182191D01*
X94483869Y-143019568D01*
X94483868Y-143019562D01*
X94483445Y-143014417D01*
X94433836Y-142816915D01*
X94424675Y-142780441D01*
X94424674Y-142780437D01*
X94423416Y-142775430D01*
X94419363Y-142766109D01*
X94327220Y-142554193D01*
X94327218Y-142554190D01*
X94325160Y-142549456D01*
X94319657Y-142540949D01*
X94194126Y-142346908D01*
X94194121Y-142346902D01*
X94191315Y-142342564D01*
X94167722Y-142316635D01*
X94102997Y-142245504D01*
X94025477Y-142160310D01*
X94021426Y-142157111D01*
X94021422Y-142157107D01*
X93836157Y-142010795D01*
X93832099Y-142007590D01*
X93720903Y-141946206D01*
X93620906Y-141891004D01*
X93620903Y-141891003D01*
X93616375Y-141888503D01*
X93384097Y-141806250D01*
X93310887Y-141793209D01*
X93146593Y-141763943D01*
X93146589Y-141763943D01*
X93141505Y-141763037D01*
X93056700Y-141762001D01*
X92900282Y-141760090D01*
X92900280Y-141760090D01*
X92895112Y-141760027D01*
X92651536Y-141797299D01*
X92417318Y-141873853D01*
X92412730Y-141876241D01*
X92412726Y-141876243D01*
X92227075Y-141972887D01*
X92198748Y-141987633D01*
X92194615Y-141990736D01*
X92194612Y-141990738D01*
X92005832Y-142132479D01*
X92001697Y-142135584D01*
X91985633Y-142152394D01*
X91844796Y-142299771D01*
X91831455Y-142313731D01*
X91828541Y-142318003D01*
X91828540Y-142318004D01*
X91695515Y-142513011D01*
X91695512Y-142513016D01*
X91692596Y-142517291D01*
X91690420Y-142521980D01*
X91690416Y-142521986D01*
X91591025Y-142736106D01*
X91588848Y-142740797D01*
X91587468Y-142745775D01*
X91587466Y-142745779D01*
X91539165Y-142919949D01*
X91522998Y-142978247D01*
X91512565Y-143075866D01*
X91504175Y-143154380D01*
X91501500Y-143179406D01*
X91501500Y-145302469D01*
X85085563Y-145302469D01*
X84995284Y-145236877D01*
X84962094Y-145212763D01*
X84962093Y-145212762D01*
X84956752Y-145208882D01*
X84950724Y-145206198D01*
X84950722Y-145206197D01*
X84794287Y-145136548D01*
X84756441Y-145110536D01*
X84253652Y-144607747D01*
X84246112Y-144599461D01*
X84242000Y-144592982D01*
X84192348Y-144546356D01*
X84189507Y-144543602D01*
X84169770Y-144523865D01*
X84166573Y-144521385D01*
X84157551Y-144513680D01*
X84156973Y-144513137D01*
X84125321Y-144483414D01*
X84118375Y-144479595D01*
X84118372Y-144479593D01*
X84107566Y-144473652D01*
X84091047Y-144462801D01*
X84090583Y-144462441D01*
X84075041Y-144450386D01*
X84067772Y-144447241D01*
X84067768Y-144447238D01*
X84034463Y-144432826D01*
X84023813Y-144427609D01*
X83985060Y-144406305D01*
X83965437Y-144401267D01*
X83946734Y-144394863D01*
X83935420Y-144389967D01*
X83935419Y-144389967D01*
X83928145Y-144386819D01*
X83920322Y-144385580D01*
X83920312Y-144385577D01*
X83884476Y-144379901D01*
X83872856Y-144377495D01*
X83837711Y-144368472D01*
X83837710Y-144368472D01*
X83830030Y-144366500D01*
X83809776Y-144366500D01*
X83790065Y-144364949D01*
X83777886Y-144363020D01*
X83770057Y-144361780D01*
X83762165Y-144362526D01*
X83726039Y-144365941D01*
X83714181Y-144366500D01*
X81503147Y-144366500D01*
X81435026Y-144346498D01*
X81388533Y-144292842D01*
X81378429Y-144222568D01*
X81407923Y-144157988D01*
X81429086Y-144138564D01*
X81505909Y-144082749D01*
X81505911Y-144082747D01*
X81511253Y-144078866D01*
X81535535Y-144051898D01*
X81634621Y-143941852D01*
X81634622Y-143941851D01*
X81639040Y-143936944D01*
X81724181Y-143789476D01*
X81731223Y-143777279D01*
X81731224Y-143777278D01*
X81734527Y-143771556D01*
X81793542Y-143589928D01*
X81795094Y-143575168D01*
X81812814Y-143406565D01*
X81813504Y-143400000D01*
X81808554Y-143352904D01*
X81794232Y-143216635D01*
X81794232Y-143216633D01*
X81793542Y-143210072D01*
X81734527Y-143028444D01*
X81729403Y-143019568D01*
X81642343Y-142868777D01*
X81639040Y-142863056D01*
X81637937Y-142861831D01*
X81614695Y-142796698D01*
X81630773Y-142727546D01*
X81681685Y-142678064D01*
X81740489Y-142663500D01*
X84328134Y-142663500D01*
X84390316Y-142656745D01*
X84526705Y-142605615D01*
X84643261Y-142518261D01*
X84730615Y-142401705D01*
X84781745Y-142265316D01*
X84788500Y-142203134D01*
X84789206Y-142203211D01*
X84811802Y-142139261D01*
X84867890Y-142095734D01*
X84938608Y-142089441D01*
X85001501Y-142122380D01*
X85033798Y-142174071D01*
X85065473Y-142271556D01*
X85160960Y-142436944D01*
X85165378Y-142441851D01*
X85165379Y-142441852D01*
X85257176Y-142543803D01*
X85288747Y-142578866D01*
X85443248Y-142691118D01*
X85449276Y-142693802D01*
X85449278Y-142693803D01*
X85468884Y-142702532D01*
X85617712Y-142768794D01*
X85711112Y-142788647D01*
X85798056Y-142807128D01*
X85798061Y-142807128D01*
X85804513Y-142808500D01*
X85995487Y-142808500D01*
X86001939Y-142807128D01*
X86001944Y-142807128D01*
X86088888Y-142788647D01*
X86182288Y-142768794D01*
X86331116Y-142702532D01*
X86350722Y-142693803D01*
X86350724Y-142693802D01*
X86356752Y-142691118D01*
X86511253Y-142578866D01*
X86542824Y-142543803D01*
X86634621Y-142441852D01*
X86634622Y-142441851D01*
X86639040Y-142436944D01*
X86734527Y-142271556D01*
X86793542Y-142089928D01*
X86798183Y-142045777D01*
X86812814Y-141906565D01*
X86813504Y-141900000D01*
X86812296Y-141888503D01*
X86794232Y-141716635D01*
X86794232Y-141716633D01*
X86793542Y-141710072D01*
X86734527Y-141528444D01*
X86639040Y-141363056D01*
X86624835Y-141347279D01*
X86515675Y-141226045D01*
X86515674Y-141226044D01*
X86511253Y-141221134D01*
X86448444Y-141175500D01*
X88686496Y-141175500D01*
X88687186Y-141182065D01*
X88702118Y-141324132D01*
X88706458Y-141365428D01*
X88765473Y-141547056D01*
X88860960Y-141712444D01*
X88865378Y-141717351D01*
X88865379Y-141717352D01*
X88972308Y-141836109D01*
X88988747Y-141854366D01*
X89071206Y-141914276D01*
X89136478Y-141961699D01*
X89143248Y-141966618D01*
X89149276Y-141969302D01*
X89149278Y-141969303D01*
X89298975Y-142035952D01*
X89317712Y-142044294D01*
X89411113Y-142064147D01*
X89498056Y-142082628D01*
X89498061Y-142082628D01*
X89504513Y-142084000D01*
X89695487Y-142084000D01*
X89701939Y-142082628D01*
X89701944Y-142082628D01*
X89788887Y-142064147D01*
X89882288Y-142044294D01*
X89901025Y-142035952D01*
X90050722Y-141969303D01*
X90050724Y-141969302D01*
X90056752Y-141966618D01*
X90063523Y-141961699D01*
X90128794Y-141914276D01*
X90211253Y-141854366D01*
X90227692Y-141836109D01*
X90334621Y-141717352D01*
X90334622Y-141717351D01*
X90339040Y-141712444D01*
X90434527Y-141547056D01*
X90493542Y-141365428D01*
X90497883Y-141324132D01*
X90512814Y-141182065D01*
X90513504Y-141175500D01*
X90503884Y-141083967D01*
X90494232Y-140992135D01*
X90494232Y-140992133D01*
X90493542Y-140985572D01*
X90434527Y-140803944D01*
X90426600Y-140790213D01*
X90369387Y-140691118D01*
X90339040Y-140638556D01*
X90326624Y-140624766D01*
X90215675Y-140501545D01*
X90215674Y-140501544D01*
X90211253Y-140496634D01*
X90056752Y-140384382D01*
X90050724Y-140381698D01*
X90050722Y-140381697D01*
X89888319Y-140309391D01*
X89888318Y-140309391D01*
X89882288Y-140306706D01*
X89788887Y-140286853D01*
X89701944Y-140268372D01*
X89701939Y-140268372D01*
X89695487Y-140267000D01*
X89504513Y-140267000D01*
X89498061Y-140268372D01*
X89498056Y-140268372D01*
X89411113Y-140286853D01*
X89317712Y-140306706D01*
X89311682Y-140309391D01*
X89311681Y-140309391D01*
X89149278Y-140381697D01*
X89149276Y-140381698D01*
X89143248Y-140384382D01*
X88988747Y-140496634D01*
X88984326Y-140501544D01*
X88984325Y-140501545D01*
X88873377Y-140624766D01*
X88860960Y-140638556D01*
X88830613Y-140691118D01*
X88773401Y-140790213D01*
X88765473Y-140803944D01*
X88706458Y-140985572D01*
X88705768Y-140992133D01*
X88705768Y-140992135D01*
X88696116Y-141083967D01*
X88686496Y-141175500D01*
X86448444Y-141175500D01*
X86412157Y-141149136D01*
X86362094Y-141112763D01*
X86362093Y-141112762D01*
X86356752Y-141108882D01*
X86350724Y-141106198D01*
X86350722Y-141106197D01*
X86188319Y-141033891D01*
X86188318Y-141033891D01*
X86182288Y-141031206D01*
X86088887Y-141011353D01*
X86001944Y-140992872D01*
X86001939Y-140992872D01*
X85995487Y-140991500D01*
X85804513Y-140991500D01*
X85798061Y-140992872D01*
X85798056Y-140992872D01*
X85711113Y-141011353D01*
X85617712Y-141031206D01*
X85611682Y-141033891D01*
X85611681Y-141033891D01*
X85449278Y-141106197D01*
X85449276Y-141106198D01*
X85443248Y-141108882D01*
X85437907Y-141112762D01*
X85437906Y-141112763D01*
X85387843Y-141149136D01*
X85288747Y-141221134D01*
X85284326Y-141226044D01*
X85284325Y-141226045D01*
X85175166Y-141347279D01*
X85160960Y-141363056D01*
X85065473Y-141528444D01*
X85035671Y-141620166D01*
X85034333Y-141624283D01*
X84994259Y-141682888D01*
X84928863Y-141710525D01*
X84858906Y-141698418D01*
X84806600Y-141650412D01*
X84788500Y-141585346D01*
X84788500Y-140126866D01*
X84781745Y-140064684D01*
X84730615Y-139928295D01*
X84643261Y-139811739D01*
X84526705Y-139724385D01*
X84390316Y-139673255D01*
X84328134Y-139666500D01*
X81577102Y-139666500D01*
X81508981Y-139646498D01*
X81462488Y-139592842D01*
X81452384Y-139522568D01*
X81457269Y-139501564D01*
X81488568Y-139405235D01*
X81493542Y-139389928D01*
X81494590Y-139379962D01*
X81512814Y-139206565D01*
X81513504Y-139200000D01*
X81502688Y-139097095D01*
X81494232Y-139016635D01*
X81494232Y-139016633D01*
X81493542Y-139010072D01*
X81434527Y-138828444D01*
X81427787Y-138816769D01*
X81381736Y-138737008D01*
X81339040Y-138663056D01*
X81333703Y-138657128D01*
X81215675Y-138526045D01*
X81215674Y-138526044D01*
X81211253Y-138521134D01*
X81056752Y-138408882D01*
X81050724Y-138406198D01*
X81050722Y-138406197D01*
X80888319Y-138333891D01*
X80888318Y-138333891D01*
X80882288Y-138331206D01*
X80788888Y-138311353D01*
X80701944Y-138292872D01*
X80701939Y-138292872D01*
X80695487Y-138291500D01*
X80504513Y-138291500D01*
X80498061Y-138292872D01*
X80498056Y-138292872D01*
X80411112Y-138311353D01*
X80317712Y-138331206D01*
X80311682Y-138333891D01*
X80311681Y-138333891D01*
X80149278Y-138406197D01*
X80149276Y-138406198D01*
X80143248Y-138408882D01*
X79988747Y-138521134D01*
X79984326Y-138526044D01*
X79984325Y-138526045D01*
X79866298Y-138657128D01*
X79860960Y-138663056D01*
X79818264Y-138737008D01*
X79772214Y-138816769D01*
X79765473Y-138828444D01*
X79706458Y-139010072D01*
X79705768Y-139016633D01*
X79705768Y-139016635D01*
X79697312Y-139097095D01*
X79686496Y-139200000D01*
X79687186Y-139206565D01*
X79705411Y-139379962D01*
X79706458Y-139389928D01*
X79765473Y-139571556D01*
X79768776Y-139577278D01*
X79768777Y-139577279D01*
X79783901Y-139603474D01*
X79860960Y-139736944D01*
X79865378Y-139741851D01*
X79865379Y-139741852D01*
X79874509Y-139751992D01*
X79905226Y-139816000D01*
X79896461Y-139886453D01*
X79881701Y-139911862D01*
X79869385Y-139928295D01*
X79818255Y-140064684D01*
X79811500Y-140126866D01*
X79811500Y-141561496D01*
X79791498Y-141629617D01*
X79737842Y-141676110D01*
X79667568Y-141686214D01*
X79634253Y-141676604D01*
X79532288Y-141631206D01*
X79438887Y-141611353D01*
X79351944Y-141592872D01*
X79351939Y-141592872D01*
X79345487Y-141591500D01*
X79154513Y-141591500D01*
X79148061Y-141592872D01*
X79148056Y-141592872D01*
X79061113Y-141611353D01*
X78967712Y-141631206D01*
X78961682Y-141633891D01*
X78961681Y-141633891D01*
X78799278Y-141706197D01*
X78799276Y-141706198D01*
X78793248Y-141708882D01*
X78787907Y-141712762D01*
X78787906Y-141712763D01*
X78749727Y-141740502D01*
X78638747Y-141821134D01*
X78634326Y-141826044D01*
X78634325Y-141826045D01*
X78531785Y-141939928D01*
X78510960Y-141963056D01*
X78415473Y-142128444D01*
X78356458Y-142310072D01*
X78355768Y-142316633D01*
X78355768Y-142316635D01*
X78339093Y-142475292D01*
X78312080Y-142540949D01*
X78302878Y-142551218D01*
X77964493Y-142889602D01*
X77657741Y-143196354D01*
X77649462Y-143203888D01*
X77642981Y-143208001D01*
X77605484Y-143247932D01*
X77596356Y-143257652D01*
X77593601Y-143260494D01*
X77573864Y-143280231D01*
X77571384Y-143283428D01*
X77563681Y-143292448D01*
X77533413Y-143324680D01*
X77529594Y-143331626D01*
X77529592Y-143331629D01*
X77523651Y-143342435D01*
X77512800Y-143358954D01*
X77500385Y-143374960D01*
X77497240Y-143382229D01*
X77497237Y-143382233D01*
X77482825Y-143415538D01*
X77477608Y-143426188D01*
X77456304Y-143464941D01*
X77454333Y-143472616D01*
X77454333Y-143472617D01*
X77451266Y-143484563D01*
X77444862Y-143503267D01*
X77436818Y-143521856D01*
X77435579Y-143529679D01*
X77435576Y-143529689D01*
X77429900Y-143565525D01*
X77427494Y-143577145D01*
X77419196Y-143609465D01*
X77416499Y-143619971D01*
X77416499Y-143640225D01*
X77414948Y-143659935D01*
X77411779Y-143679944D01*
X77412525Y-143687836D01*
X77415940Y-143723962D01*
X77416499Y-143735820D01*
X77416499Y-145752088D01*
X77396497Y-145820209D01*
X77384450Y-145835157D01*
X77381938Y-145837040D01*
X77294584Y-145953596D01*
X77243454Y-146089985D01*
X77236699Y-146152167D01*
X77236699Y-147797835D01*
X77243454Y-147860017D01*
X77246226Y-147867413D01*
X77246228Y-147867419D01*
X77265779Y-147919571D01*
X77270962Y-147990378D01*
X77237040Y-148052747D01*
X77174785Y-148086876D01*
X77147797Y-148089800D01*
X76104966Y-148089800D01*
X76042784Y-148096555D01*
X75938997Y-148135463D01*
X75928730Y-148139312D01*
X75857922Y-148144495D01*
X75795553Y-148110574D01*
X75761424Y-148048319D01*
X75758500Y-148021330D01*
X75758500Y-128182801D01*
X75778502Y-128114680D01*
X75832158Y-128068187D01*
X75884500Y-128056801D01*
X76847798Y-128056801D01*
X76915919Y-128076803D01*
X76962412Y-128130459D01*
X76972516Y-128200733D01*
X76965780Y-128227030D01*
X76946229Y-128279182D01*
X76946227Y-128279188D01*
X76943455Y-128286584D01*
X76936700Y-128348766D01*
X76936700Y-129994434D01*
X76943455Y-130056616D01*
X76994585Y-130193005D01*
X77081638Y-130309159D01*
X77081939Y-130309561D01*
X77081881Y-130309604D01*
X77113621Y-130367730D01*
X77116500Y-130394513D01*
X77116500Y-130671233D01*
X77115973Y-130682416D01*
X77114298Y-130689909D01*
X77115718Y-130735060D01*
X77116360Y-130755491D01*
X77110254Y-130798388D01*
X77106458Y-130810072D01*
X77105768Y-130816633D01*
X77105768Y-130816635D01*
X77092854Y-130939505D01*
X77086496Y-131000000D01*
X77087186Y-131006565D01*
X77104937Y-131175452D01*
X77106458Y-131189928D01*
X77165473Y-131371556D01*
X77260960Y-131536944D01*
X77265378Y-131541851D01*
X77265379Y-131541852D01*
X77379678Y-131668794D01*
X77388747Y-131678866D01*
X77543248Y-131791118D01*
X77549276Y-131793802D01*
X77549278Y-131793803D01*
X77709799Y-131865271D01*
X77717712Y-131868794D01*
X77811112Y-131888647D01*
X77898056Y-131907128D01*
X77898061Y-131907128D01*
X77904513Y-131908500D01*
X78095487Y-131908500D01*
X78101939Y-131907128D01*
X78101944Y-131907128D01*
X78188888Y-131888647D01*
X78282288Y-131868794D01*
X78290201Y-131865271D01*
X78450722Y-131793803D01*
X78450724Y-131793802D01*
X78456752Y-131791118D01*
X78611253Y-131678866D01*
X78642830Y-131643796D01*
X78703273Y-131606558D01*
X78774257Y-131607909D01*
X78833242Y-131647423D01*
X78854248Y-131690646D01*
X78856458Y-131689928D01*
X78915473Y-131871556D01*
X78918776Y-131877278D01*
X78918777Y-131877279D01*
X78936803Y-131908500D01*
X79010960Y-132036944D01*
X79015378Y-132041851D01*
X79015379Y-132041852D01*
X79134325Y-132173955D01*
X79138747Y-132178866D01*
X79173659Y-132204231D01*
X79284094Y-132284467D01*
X79293248Y-132291118D01*
X79299276Y-132293802D01*
X79299278Y-132293803D01*
X79343319Y-132313411D01*
X79467712Y-132368794D01*
X79561113Y-132388647D01*
X79648056Y-132407128D01*
X79648061Y-132407128D01*
X79654513Y-132408500D01*
X79845487Y-132408500D01*
X79850401Y-132407456D01*
X79919662Y-132420122D01*
X79972112Y-132469658D01*
X80010960Y-132536944D01*
X80015378Y-132541851D01*
X80015379Y-132541852D01*
X80130339Y-132669528D01*
X80138747Y-132678866D01*
X80293248Y-132791118D01*
X80299274Y-132793801D01*
X80299281Y-132793805D01*
X80372724Y-132826503D01*
X80426820Y-132872483D01*
X80447470Y-132940410D01*
X80428118Y-133008718D01*
X80395537Y-133043546D01*
X80288747Y-133121134D01*
X80284326Y-133126044D01*
X80284325Y-133126045D01*
X80172572Y-133250160D01*
X80160960Y-133263056D01*
X80113143Y-133345878D01*
X80075080Y-133411805D01*
X80065473Y-133428444D01*
X80006458Y-133610072D01*
X80005768Y-133616633D01*
X80005768Y-133616635D01*
X79992872Y-133739335D01*
X79986496Y-133800000D01*
X79987186Y-133806565D01*
X80005698Y-133982693D01*
X80006458Y-133989928D01*
X80065473Y-134171556D01*
X80160960Y-134336944D01*
X80288747Y-134478866D01*
X80443248Y-134591118D01*
X80449276Y-134593802D01*
X80449278Y-134593803D01*
X80551069Y-134639123D01*
X80605165Y-134685103D01*
X80625814Y-134753030D01*
X80606462Y-134821339D01*
X80568261Y-134860021D01*
X80392564Y-134973685D01*
X80388739Y-134977165D01*
X80388737Y-134977167D01*
X80352978Y-135009705D01*
X80210310Y-135139523D01*
X80207111Y-135143574D01*
X80207107Y-135143578D01*
X80135070Y-135234794D01*
X80057590Y-135332901D01*
X80038028Y-135368337D01*
X79955823Y-135517251D01*
X79938503Y-135548625D01*
X79856250Y-135780903D01*
X79853146Y-135798329D01*
X79815366Y-136010422D01*
X79813037Y-136023495D01*
X79812527Y-136065282D01*
X79810486Y-136232354D01*
X79810027Y-136269888D01*
X79847299Y-136513464D01*
X79923853Y-136747682D01*
X79926241Y-136752270D01*
X79926243Y-136752274D01*
X80024944Y-136941876D01*
X80037633Y-136966252D01*
X80040736Y-136970385D01*
X80040738Y-136970388D01*
X80182479Y-137159168D01*
X80185584Y-137163303D01*
X80204630Y-137181504D01*
X80291989Y-137264986D01*
X80363731Y-137333545D01*
X80368003Y-137336459D01*
X80368004Y-137336460D01*
X80563011Y-137469485D01*
X80563016Y-137469488D01*
X80567291Y-137472404D01*
X80571980Y-137474580D01*
X80571986Y-137474584D01*
X80786106Y-137573975D01*
X80786111Y-137573977D01*
X80790797Y-137576152D01*
X80795775Y-137577532D01*
X80795779Y-137577534D01*
X81023274Y-137640623D01*
X81028247Y-137642002D01*
X81121154Y-137651931D01*
X81226071Y-137663144D01*
X81226079Y-137663144D01*
X81229406Y-137663500D01*
X83352469Y-137663500D01*
X83355042Y-137663288D01*
X83355053Y-137663288D01*
X83530432Y-137648869D01*
X83530438Y-137648868D01*
X83535583Y-137648445D01*
X83655584Y-137618303D01*
X83769559Y-137589675D01*
X83769563Y-137589674D01*
X83774570Y-137588416D01*
X83779303Y-137586358D01*
X83779306Y-137586357D01*
X83995807Y-137492220D01*
X83995810Y-137492218D01*
X84000544Y-137490160D01*
X84004878Y-137487356D01*
X84004882Y-137487354D01*
X84203092Y-137359126D01*
X84203098Y-137359121D01*
X84207436Y-137356315D01*
X84212624Y-137351595D01*
X84317137Y-137256495D01*
X84389690Y-137190477D01*
X84392889Y-137186426D01*
X84392893Y-137186422D01*
X84523856Y-137020593D01*
X84542410Y-136997099D01*
X84593793Y-136904020D01*
X84658996Y-136785906D01*
X84658997Y-136785903D01*
X84661497Y-136781375D01*
X84743750Y-136549097D01*
X84761667Y-136448513D01*
X84786057Y-136311593D01*
X84786057Y-136311589D01*
X84786963Y-136306505D01*
X84788264Y-136200000D01*
X87186496Y-136200000D01*
X87187186Y-136206565D01*
X87205427Y-136380114D01*
X87206458Y-136389928D01*
X87265473Y-136571556D01*
X87268776Y-136577278D01*
X87268777Y-136577279D01*
X87279078Y-136595120D01*
X87360960Y-136736944D01*
X87365378Y-136741851D01*
X87365379Y-136741852D01*
X87465885Y-136853475D01*
X87488747Y-136878866D01*
X87643248Y-136991118D01*
X87649276Y-136993802D01*
X87649278Y-136993803D01*
X87808887Y-137064865D01*
X87817712Y-137068794D01*
X87898735Y-137086016D01*
X87998056Y-137107128D01*
X87998061Y-137107128D01*
X88004513Y-137108500D01*
X88195487Y-137108500D01*
X88201939Y-137107128D01*
X88201944Y-137107128D01*
X88301265Y-137086016D01*
X88382288Y-137068794D01*
X88391113Y-137064865D01*
X88550722Y-136993803D01*
X88550724Y-136993802D01*
X88556752Y-136991118D01*
X88711253Y-136878866D01*
X88734115Y-136853475D01*
X88834621Y-136741852D01*
X88834622Y-136741851D01*
X88839040Y-136736944D01*
X88920922Y-136595120D01*
X88931223Y-136577279D01*
X88931224Y-136577278D01*
X88934527Y-136571556D01*
X88993542Y-136389928D01*
X88994574Y-136380114D01*
X89012814Y-136206565D01*
X89013504Y-136200000D01*
X89006139Y-136129928D01*
X88994232Y-136016635D01*
X88994232Y-136016633D01*
X88993542Y-136010072D01*
X88934527Y-135828444D01*
X88930791Y-135821972D01*
X88868306Y-135713746D01*
X88839040Y-135663056D01*
X88770772Y-135587236D01*
X88715675Y-135526045D01*
X88715674Y-135526044D01*
X88711253Y-135521134D01*
X88602493Y-135442115D01*
X88562094Y-135412763D01*
X88562093Y-135412762D01*
X88556752Y-135408882D01*
X88550724Y-135406198D01*
X88550722Y-135406197D01*
X88388319Y-135333891D01*
X88388318Y-135333891D01*
X88382288Y-135331206D01*
X88288888Y-135311353D01*
X88201944Y-135292872D01*
X88201939Y-135292872D01*
X88195487Y-135291500D01*
X88004513Y-135291500D01*
X87998061Y-135292872D01*
X87998056Y-135292872D01*
X87911112Y-135311353D01*
X87817712Y-135331206D01*
X87811682Y-135333891D01*
X87811681Y-135333891D01*
X87649278Y-135406197D01*
X87649276Y-135406198D01*
X87643248Y-135408882D01*
X87637907Y-135412762D01*
X87637906Y-135412763D01*
X87597507Y-135442115D01*
X87488747Y-135521134D01*
X87484326Y-135526044D01*
X87484325Y-135526045D01*
X87429229Y-135587236D01*
X87360960Y-135663056D01*
X87331694Y-135713746D01*
X87269210Y-135821972D01*
X87265473Y-135828444D01*
X87206458Y-136010072D01*
X87205768Y-136016633D01*
X87205768Y-136016635D01*
X87193861Y-136129928D01*
X87186496Y-136200000D01*
X84788264Y-136200000D01*
X84788394Y-136189335D01*
X84789910Y-136065282D01*
X84789910Y-136065280D01*
X84789973Y-136060112D01*
X84752701Y-135816536D01*
X84676147Y-135582318D01*
X84646854Y-135526045D01*
X84564756Y-135368337D01*
X84564755Y-135368336D01*
X84562367Y-135363748D01*
X84539207Y-135332901D01*
X84417521Y-135170832D01*
X84417519Y-135170830D01*
X84414416Y-135166697D01*
X84250134Y-135009705D01*
X84240006Y-135000026D01*
X84240005Y-135000025D01*
X84236269Y-134996455D01*
X84231996Y-134993540D01*
X84036989Y-134860515D01*
X84036984Y-134860512D01*
X84032709Y-134857596D01*
X84028020Y-134855420D01*
X84028014Y-134855416D01*
X83813894Y-134756025D01*
X83813889Y-134756023D01*
X83809203Y-134753848D01*
X83804225Y-134752468D01*
X83804221Y-134752466D01*
X83576726Y-134689377D01*
X83576725Y-134689377D01*
X83571753Y-134687998D01*
X83462902Y-134676365D01*
X83373929Y-134666856D01*
X83373921Y-134666856D01*
X83370594Y-134666500D01*
X81625308Y-134666500D01*
X81557187Y-134646498D01*
X81510694Y-134592842D01*
X81500590Y-134522568D01*
X81531668Y-134456193D01*
X81537070Y-134450193D01*
X81597515Y-134412951D01*
X81630710Y-134408500D01*
X86569290Y-134408500D01*
X86637411Y-134428502D01*
X86662926Y-134450189D01*
X86688747Y-134478866D01*
X86843248Y-134591118D01*
X86849276Y-134593802D01*
X86849278Y-134593803D01*
X86967634Y-134646498D01*
X87017712Y-134668794D01*
X87105481Y-134687450D01*
X87198056Y-134707128D01*
X87198061Y-134707128D01*
X87204513Y-134708500D01*
X87395487Y-134708500D01*
X87401939Y-134707128D01*
X87401944Y-134707128D01*
X87494519Y-134687450D01*
X87582288Y-134668794D01*
X87632366Y-134646498D01*
X87750722Y-134593803D01*
X87750724Y-134593802D01*
X87756752Y-134591118D01*
X87911253Y-134478866D01*
X87937074Y-134450189D01*
X87997520Y-134412950D01*
X88030710Y-134408500D01*
X89101864Y-134408500D01*
X89118307Y-134409578D01*
X89150000Y-134413750D01*
X89158189Y-134412672D01*
X89189874Y-134408501D01*
X89189884Y-134408500D01*
X89189885Y-134408500D01*
X89293142Y-134394906D01*
X89295634Y-134394578D01*
X89312086Y-134393499D01*
X90923800Y-134393499D01*
X90991921Y-134413501D01*
X91038414Y-134467157D01*
X91049800Y-134519499D01*
X91049800Y-134635534D01*
X91056555Y-134697716D01*
X91107685Y-134834105D01*
X91195039Y-134950661D01*
X91311595Y-135038015D01*
X91447984Y-135089145D01*
X91510166Y-135095900D01*
X92203284Y-135095900D01*
X92271405Y-135115902D01*
X92304110Y-135146335D01*
X92325339Y-135174661D01*
X92339279Y-135185108D01*
X92353665Y-135195890D01*
X92396180Y-135252749D01*
X92404100Y-135296716D01*
X92404100Y-135989834D01*
X92410855Y-136052016D01*
X92413629Y-136059415D01*
X92423482Y-136085698D01*
X92431500Y-136129928D01*
X92431500Y-136265500D01*
X92411498Y-136333621D01*
X92357842Y-136380114D01*
X92305500Y-136391500D01*
X91939654Y-136391500D01*
X91871533Y-136371498D01*
X91825040Y-136317842D01*
X91814344Y-136278671D01*
X91806531Y-136204336D01*
X91806531Y-136204334D01*
X91805841Y-136197773D01*
X91746826Y-136016145D01*
X91740392Y-136005000D01*
X91670251Y-135883514D01*
X91651339Y-135850757D01*
X91636908Y-135834729D01*
X91527974Y-135713746D01*
X91527973Y-135713745D01*
X91523552Y-135708835D01*
X91369051Y-135596583D01*
X91363023Y-135593899D01*
X91363021Y-135593898D01*
X91200618Y-135521592D01*
X91200617Y-135521592D01*
X91194587Y-135518907D01*
X91093998Y-135497526D01*
X91014243Y-135480573D01*
X91014238Y-135480573D01*
X91007786Y-135479201D01*
X90816812Y-135479201D01*
X90810360Y-135480573D01*
X90810355Y-135480573D01*
X90730600Y-135497526D01*
X90630011Y-135518907D01*
X90623981Y-135521592D01*
X90623980Y-135521592D01*
X90461577Y-135593898D01*
X90461575Y-135593899D01*
X90455547Y-135596583D01*
X90301046Y-135708835D01*
X90296625Y-135713745D01*
X90296624Y-135713746D01*
X90187691Y-135834729D01*
X90173259Y-135850757D01*
X90154347Y-135883514D01*
X90084207Y-136005000D01*
X90077772Y-136016145D01*
X90018757Y-136197773D01*
X90018067Y-136204334D01*
X90018067Y-136204336D01*
X90007706Y-136302915D01*
X89998795Y-136387701D01*
X89999485Y-136394266D01*
X90018037Y-136570775D01*
X90018757Y-136577629D01*
X90077772Y-136759257D01*
X90081075Y-136764979D01*
X90081076Y-136764980D01*
X90103382Y-136803614D01*
X90173259Y-136924645D01*
X90177677Y-136929552D01*
X90177678Y-136929553D01*
X90296624Y-137061656D01*
X90301046Y-137066567D01*
X90356873Y-137107128D01*
X90439108Y-137166875D01*
X90455547Y-137178819D01*
X90461575Y-137181503D01*
X90461577Y-137181504D01*
X90607620Y-137246526D01*
X90630011Y-137256495D01*
X90723412Y-137276348D01*
X90810355Y-137294829D01*
X90810360Y-137294829D01*
X90816812Y-137296201D01*
X90908060Y-137296201D01*
X90976181Y-137316203D01*
X90997155Y-137333106D01*
X91060283Y-137396234D01*
X91071148Y-137408623D01*
X91090611Y-137433987D01*
X91097161Y-137439013D01*
X91122519Y-137458471D01*
X91122535Y-137458485D01*
X91166500Y-137492220D01*
X91217722Y-137531524D01*
X91365747Y-137592838D01*
X91524598Y-137613751D01*
X91556297Y-137609578D01*
X91572742Y-137608500D01*
X92651864Y-137608500D01*
X92668307Y-137609578D01*
X92700000Y-137613750D01*
X92708189Y-137612672D01*
X92739874Y-137608501D01*
X92739884Y-137608500D01*
X92739885Y-137608500D01*
X92839457Y-137595391D01*
X92850664Y-137593916D01*
X92850666Y-137593915D01*
X92858851Y-137592838D01*
X93006876Y-137531524D01*
X93037533Y-137508000D01*
X93102069Y-137458480D01*
X93102075Y-137458474D01*
X93127434Y-137439015D01*
X93133987Y-137433987D01*
X93153450Y-137408623D01*
X93164316Y-137396233D01*
X93461229Y-137099319D01*
X93473621Y-137088451D01*
X93492441Y-137074010D01*
X93498987Y-137068987D01*
X93542040Y-137012880D01*
X93549007Y-137003801D01*
X93591498Y-136948426D01*
X93596524Y-136941876D01*
X93601629Y-136929553D01*
X93633141Y-136853475D01*
X93656494Y-136797095D01*
X100792001Y-136797095D01*
X100792338Y-136803614D01*
X100802257Y-136899206D01*
X100805149Y-136912600D01*
X100856588Y-137066784D01*
X100862761Y-137079962D01*
X100948063Y-137217807D01*
X100957099Y-137229208D01*
X101071829Y-137343739D01*
X101083240Y-137352751D01*
X101221243Y-137437816D01*
X101234424Y-137443963D01*
X101388710Y-137495138D01*
X101402086Y-137498005D01*
X101496438Y-137507672D01*
X101502854Y-137508000D01*
X101727885Y-137508000D01*
X101743124Y-137503525D01*
X101744329Y-137502135D01*
X101746000Y-137494452D01*
X101746000Y-136672115D01*
X101741525Y-136656876D01*
X101740135Y-136655671D01*
X101732452Y-136654000D01*
X100810116Y-136654000D01*
X100794877Y-136658475D01*
X100793672Y-136659865D01*
X100792001Y-136667548D01*
X100792001Y-136797095D01*
X93656494Y-136797095D01*
X93657838Y-136793851D01*
X93660123Y-136776497D01*
X93660391Y-136774458D01*
X93673500Y-136674886D01*
X93673500Y-136674880D01*
X93677672Y-136643189D01*
X93678750Y-136635000D01*
X93674578Y-136603307D01*
X93673500Y-136586864D01*
X93673500Y-136576200D01*
X93693502Y-136508079D01*
X93747158Y-136461586D01*
X93799500Y-136450200D01*
X93915535Y-136450200D01*
X93920147Y-136449699D01*
X93969867Y-136444298D01*
X93969869Y-136444298D01*
X93977717Y-136443445D01*
X93985110Y-136440673D01*
X93985112Y-136440673D01*
X93996483Y-136436410D01*
X94067290Y-136431227D01*
X94084941Y-136436410D01*
X94094991Y-136440178D01*
X94110249Y-136443805D01*
X94161114Y-136449331D01*
X94167928Y-136449700D01*
X94194485Y-136449700D01*
X94209724Y-136445225D01*
X94210929Y-136443835D01*
X94212600Y-136436152D01*
X94212600Y-136371036D01*
X94232602Y-136302915D01*
X94237760Y-136295490D01*
X94264176Y-136260244D01*
X94321034Y-136217731D01*
X94391852Y-136212706D01*
X94454145Y-136246766D01*
X94465820Y-136260238D01*
X94492227Y-136295473D01*
X94517074Y-136361977D01*
X94517400Y-136371036D01*
X94517400Y-136431584D01*
X94521875Y-136446823D01*
X94523265Y-136448028D01*
X94530948Y-136449699D01*
X94562069Y-136449699D01*
X94568890Y-136449329D01*
X94619752Y-136443805D01*
X94635007Y-136440178D01*
X94645059Y-136436410D01*
X94715866Y-136431227D01*
X94733517Y-136436410D01*
X94744888Y-136440673D01*
X94744890Y-136440673D01*
X94752283Y-136443445D01*
X94760131Y-136444298D01*
X94760133Y-136444298D01*
X94809853Y-136449699D01*
X94814465Y-136450200D01*
X95215533Y-136450200D01*
X95220145Y-136449699D01*
X95269865Y-136444298D01*
X95269867Y-136444298D01*
X95277715Y-136443445D01*
X95295772Y-136436676D01*
X95366577Y-136431493D01*
X95384217Y-136436672D01*
X95402284Y-136443445D01*
X95433380Y-136446823D01*
X95456467Y-136449331D01*
X95464466Y-136450200D01*
X95865534Y-136450200D01*
X95927716Y-136443445D01*
X96064105Y-136392315D01*
X96156745Y-136322885D01*
X106537600Y-136322885D01*
X106542075Y-136338124D01*
X106543465Y-136339329D01*
X106551148Y-136341000D01*
X107503735Y-136341000D01*
X107518974Y-136336525D01*
X107520179Y-136335135D01*
X107521850Y-136327452D01*
X107521850Y-136322885D01*
X108029850Y-136322885D01*
X108034325Y-136338124D01*
X108035715Y-136339329D01*
X108043398Y-136341000D01*
X108995984Y-136341000D01*
X109011223Y-136336525D01*
X109012428Y-136335135D01*
X109014099Y-136327452D01*
X109014099Y-136283631D01*
X109013729Y-136276810D01*
X109008205Y-136225948D01*
X109004579Y-136210696D01*
X108959424Y-136090246D01*
X108950886Y-136074651D01*
X108874385Y-135972576D01*
X108861824Y-135960015D01*
X108759749Y-135883514D01*
X108744154Y-135874976D01*
X108623706Y-135829822D01*
X108608451Y-135826195D01*
X108557586Y-135820669D01*
X108550772Y-135820300D01*
X108047965Y-135820300D01*
X108032726Y-135824775D01*
X108031521Y-135826165D01*
X108029850Y-135833848D01*
X108029850Y-136322885D01*
X107521850Y-136322885D01*
X107521850Y-135838416D01*
X107517375Y-135823177D01*
X107515985Y-135821972D01*
X107508302Y-135820301D01*
X107000931Y-135820301D01*
X106994110Y-135820671D01*
X106943248Y-135826195D01*
X106927996Y-135829821D01*
X106807546Y-135874976D01*
X106791951Y-135883514D01*
X106689876Y-135960015D01*
X106677315Y-135972576D01*
X106600814Y-136074651D01*
X106592276Y-136090246D01*
X106547122Y-136210694D01*
X106543495Y-136225949D01*
X106537969Y-136276814D01*
X106537600Y-136283628D01*
X106537600Y-136322885D01*
X96156745Y-136322885D01*
X96180661Y-136304961D01*
X96268015Y-136188405D01*
X96319145Y-136052016D01*
X96325900Y-135989834D01*
X96325900Y-135296716D01*
X96345902Y-135228595D01*
X96376335Y-135195890D01*
X96390722Y-135185108D01*
X96404661Y-135174661D01*
X96425890Y-135146335D01*
X96482749Y-135103820D01*
X96526716Y-135095900D01*
X97219834Y-135095900D01*
X97282016Y-135089145D01*
X97418405Y-135038015D01*
X97534961Y-134950661D01*
X97622315Y-134834105D01*
X97673445Y-134697716D01*
X97680200Y-134635534D01*
X97680200Y-134234466D01*
X97673445Y-134172284D01*
X97666676Y-134154227D01*
X97661493Y-134083423D01*
X97666674Y-134065777D01*
X97673445Y-134047715D01*
X97676989Y-134015096D01*
X97679831Y-133988930D01*
X97680200Y-133985533D01*
X97680200Y-133584465D01*
X97673445Y-133522283D01*
X97670673Y-133514888D01*
X97670671Y-133514881D01*
X97666677Y-133504228D01*
X97661494Y-133433420D01*
X97666677Y-133415770D01*
X97670673Y-133405111D01*
X97670673Y-133405109D01*
X97673445Y-133397716D01*
X97675418Y-133379560D01*
X97679831Y-133338931D01*
X97680200Y-133335534D01*
X97680200Y-132934466D01*
X97673445Y-132872284D01*
X97670673Y-132864889D01*
X97670671Y-132864882D01*
X97666677Y-132854229D01*
X97661494Y-132783421D01*
X97666677Y-132765771D01*
X97670673Y-132755112D01*
X97670673Y-132755110D01*
X97673445Y-132747717D01*
X97674990Y-132733500D01*
X97679831Y-132688932D01*
X97680200Y-132685535D01*
X97680200Y-132284467D01*
X97673445Y-132222285D01*
X97666676Y-132204228D01*
X97661493Y-132133424D01*
X97666674Y-132115778D01*
X97673445Y-132097716D01*
X97675790Y-132076135D01*
X97679831Y-132038931D01*
X97680200Y-132035534D01*
X97680200Y-131634466D01*
X97673445Y-131572284D01*
X97622315Y-131435895D01*
X97534961Y-131319339D01*
X97418405Y-131231985D01*
X97409996Y-131228833D01*
X97409995Y-131228832D01*
X97349835Y-131206279D01*
X97293070Y-131163638D01*
X97268370Y-131097076D01*
X97274231Y-131049361D01*
X97291502Y-130996206D01*
X97293542Y-130989928D01*
X97295292Y-130973284D01*
X97312814Y-130806565D01*
X97313504Y-130800000D01*
X97310751Y-130773802D01*
X97294232Y-130616635D01*
X97294232Y-130616633D01*
X97293542Y-130610072D01*
X97234527Y-130428444D01*
X97139040Y-130263056D01*
X97127285Y-130250000D01*
X97015675Y-130126045D01*
X97015674Y-130126044D01*
X97011253Y-130121134D01*
X96856752Y-130008882D01*
X96850724Y-130006198D01*
X96850722Y-130006197D01*
X96688319Y-129933891D01*
X96688318Y-129933891D01*
X96682288Y-129931206D01*
X96587029Y-129910958D01*
X96501944Y-129892872D01*
X96501939Y-129892872D01*
X96495487Y-129891500D01*
X96304513Y-129891500D01*
X96298060Y-129892872D01*
X96298056Y-129892872D01*
X96187555Y-129916360D01*
X96116764Y-129910958D01*
X96085793Y-129893939D01*
X96071288Y-129883068D01*
X96071287Y-129883067D01*
X96064105Y-129877685D01*
X96055704Y-129874536D01*
X96055701Y-129874534D01*
X95945772Y-129833324D01*
X95927716Y-129826555D01*
X95865534Y-129819800D01*
X95464466Y-129819800D01*
X95461069Y-129820169D01*
X95410134Y-129825702D01*
X95410132Y-129825702D01*
X95402284Y-129826555D01*
X95384227Y-129833324D01*
X95313422Y-129838507D01*
X95295782Y-129833328D01*
X95277715Y-129826555D01*
X95215533Y-129819800D01*
X95019829Y-129819800D01*
X94951708Y-129799798D01*
X94905215Y-129746142D01*
X94894519Y-129680629D01*
X94897697Y-129650400D01*
X94913504Y-129500000D01*
X94894450Y-129318714D01*
X94907222Y-129248877D01*
X94955724Y-129197031D01*
X95024557Y-129179636D01*
X95059427Y-129185952D01*
X95088611Y-129195632D01*
X95088613Y-129195632D01*
X95095139Y-129197797D01*
X95101975Y-129198497D01*
X95101978Y-129198498D01*
X95145031Y-129202909D01*
X95199600Y-129208500D01*
X96000400Y-129208500D01*
X96003646Y-129208163D01*
X96003650Y-129208163D01*
X96099308Y-129198238D01*
X96099312Y-129198237D01*
X96106166Y-129197526D01*
X96112702Y-129195345D01*
X96112704Y-129195345D01*
X96266998Y-129143868D01*
X96273946Y-129141550D01*
X96424348Y-129048478D01*
X96449287Y-129023496D01*
X96526648Y-128946000D01*
X96549305Y-128923303D01*
X96554103Y-128915519D01*
X96555034Y-128914681D01*
X96557683Y-128911327D01*
X96558257Y-128911780D01*
X96606871Y-128868025D01*
X96676942Y-128856598D01*
X96705266Y-128864480D01*
X96705400Y-128864068D01*
X96711680Y-128866108D01*
X96717712Y-128868794D01*
X96810153Y-128888443D01*
X96898056Y-128907128D01*
X96898061Y-128907128D01*
X96904513Y-128908500D01*
X97095487Y-128908500D01*
X97101939Y-128907128D01*
X97101944Y-128907128D01*
X97189847Y-128888443D01*
X97282288Y-128868794D01*
X97288319Y-128866109D01*
X97450722Y-128793803D01*
X97450724Y-128793802D01*
X97456752Y-128791118D01*
X97493806Y-128764197D01*
X97562089Y-128714586D01*
X97611253Y-128678866D01*
X97626776Y-128661626D01*
X97734621Y-128541852D01*
X97734622Y-128541851D01*
X97739040Y-128536944D01*
X97824945Y-128388152D01*
X97831223Y-128377279D01*
X97831224Y-128377278D01*
X97834527Y-128371556D01*
X97893542Y-128189928D01*
X97895440Y-128171875D01*
X97912814Y-128006565D01*
X97913504Y-128000000D01*
X97904209Y-127911562D01*
X97894232Y-127816635D01*
X97894232Y-127816633D01*
X97893542Y-127810072D01*
X97834527Y-127628444D01*
X97739040Y-127463056D01*
X97611253Y-127321134D01*
X97456752Y-127208882D01*
X97450724Y-127206198D01*
X97450722Y-127206197D01*
X97288319Y-127133891D01*
X97288318Y-127133891D01*
X97282288Y-127131206D01*
X97188888Y-127111353D01*
X97101944Y-127092872D01*
X97101939Y-127092872D01*
X97095487Y-127091500D01*
X96904513Y-127091500D01*
X96898061Y-127092872D01*
X96898056Y-127092872D01*
X96761023Y-127122000D01*
X96717712Y-127131206D01*
X96711676Y-127133893D01*
X96705402Y-127135932D01*
X96704951Y-127134543D01*
X96642114Y-127142965D01*
X96577819Y-127112855D01*
X96554098Y-127084733D01*
X96552335Y-127081884D01*
X96552333Y-127081881D01*
X96548478Y-127075652D01*
X96548362Y-127075536D01*
X96522827Y-127012457D01*
X96535996Y-126942692D01*
X96546864Y-126925749D01*
X96549305Y-126923303D01*
X96611591Y-126822257D01*
X96638275Y-126778968D01*
X96638276Y-126778966D01*
X96642115Y-126772738D01*
X96688584Y-126632639D01*
X96695632Y-126611389D01*
X96695632Y-126611387D01*
X96697797Y-126604861D01*
X96698886Y-126594239D01*
X96708172Y-126503598D01*
X96708500Y-126500400D01*
X96708500Y-125499600D01*
X96707610Y-125491014D01*
X96699796Y-125415710D01*
X96712661Y-125345889D01*
X96761232Y-125294107D01*
X96825229Y-125276707D01*
X100274106Y-125279618D01*
G37*
%TD.AperFunction*%
%TA.AperFunction,Conductor*%
G36*
X83098139Y-127937674D02*
G01*
X83144959Y-127981992D01*
X83198063Y-128067807D01*
X83207099Y-128079208D01*
X83288462Y-128160430D01*
X83322541Y-128222713D01*
X83317538Y-128293533D01*
X83288617Y-128338620D01*
X83205870Y-128421512D01*
X83205866Y-128421517D01*
X83200695Y-128426697D01*
X83196855Y-128432927D01*
X83196854Y-128432928D01*
X83126586Y-128546924D01*
X83107885Y-128577262D01*
X83090875Y-128628546D01*
X83066774Y-128701210D01*
X83052203Y-128745139D01*
X83051503Y-128751975D01*
X83051502Y-128751978D01*
X83050887Y-128757979D01*
X83041500Y-128849600D01*
X83041500Y-129650400D01*
X83052474Y-129756166D01*
X83054655Y-129762702D01*
X83054655Y-129762704D01*
X83085207Y-129854279D01*
X83108450Y-129923946D01*
X83201522Y-130074348D01*
X83326697Y-130199305D01*
X83332927Y-130203145D01*
X83332928Y-130203146D01*
X83365715Y-130223356D01*
X83413208Y-130276128D01*
X83424632Y-130346200D01*
X83415830Y-130377825D01*
X83415473Y-130378444D01*
X83356458Y-130560072D01*
X83355768Y-130566633D01*
X83355768Y-130566635D01*
X83345785Y-130661621D01*
X83336496Y-130750000D01*
X83337186Y-130756565D01*
X83349668Y-130875321D01*
X83356458Y-130939928D01*
X83415473Y-131121556D01*
X83418776Y-131127278D01*
X83418777Y-131127279D01*
X83425557Y-131139022D01*
X83510960Y-131286944D01*
X83515378Y-131291851D01*
X83515379Y-131291852D01*
X83546593Y-131326519D01*
X83638747Y-131428866D01*
X83707566Y-131478866D01*
X83782938Y-131533627D01*
X83793248Y-131541118D01*
X83799276Y-131543802D01*
X83799278Y-131543803D01*
X83961681Y-131616109D01*
X83967712Y-131618794D01*
X84041443Y-131634466D01*
X84148056Y-131657128D01*
X84148061Y-131657128D01*
X84154513Y-131658500D01*
X84345487Y-131658500D01*
X84351939Y-131657128D01*
X84351944Y-131657128D01*
X84458557Y-131634466D01*
X84532288Y-131618794D01*
X84538319Y-131616109D01*
X84700722Y-131543803D01*
X84700724Y-131543802D01*
X84706752Y-131541118D01*
X84717063Y-131533627D01*
X84792434Y-131478866D01*
X84861253Y-131428866D01*
X84953407Y-131326519D01*
X84984621Y-131291852D01*
X84984622Y-131291851D01*
X84989040Y-131286944D01*
X85074443Y-131139022D01*
X85081223Y-131127279D01*
X85081224Y-131127278D01*
X85084527Y-131121556D01*
X85094850Y-131089785D01*
X85134924Y-131031179D01*
X85200321Y-131003543D01*
X85270278Y-131015650D01*
X85322584Y-131063657D01*
X85334206Y-131088843D01*
X85383450Y-131236446D01*
X85476522Y-131386848D01*
X85481704Y-131392021D01*
X85503275Y-131413554D01*
X85601697Y-131511805D01*
X85607927Y-131515645D01*
X85607928Y-131515646D01*
X85745090Y-131600194D01*
X85752262Y-131604615D01*
X85786916Y-131616109D01*
X85913611Y-131658132D01*
X85913613Y-131658132D01*
X85920139Y-131660297D01*
X85926975Y-131660997D01*
X85926978Y-131660998D01*
X85970031Y-131665409D01*
X86024600Y-131671000D01*
X86975400Y-131671000D01*
X86978646Y-131670663D01*
X86978650Y-131670663D01*
X87074308Y-131660738D01*
X87074312Y-131660737D01*
X87081166Y-131660026D01*
X87087702Y-131657845D01*
X87087704Y-131657845D01*
X87237379Y-131607909D01*
X87248946Y-131604050D01*
X87346304Y-131543803D01*
X87366502Y-131531304D01*
X87434954Y-131512466D01*
X87502724Y-131533627D01*
X87526439Y-131554136D01*
X87638747Y-131678866D01*
X87793248Y-131791118D01*
X87799276Y-131793802D01*
X87799278Y-131793803D01*
X87959799Y-131865271D01*
X87967712Y-131868794D01*
X88061112Y-131888647D01*
X88148056Y-131907128D01*
X88148061Y-131907128D01*
X88154513Y-131908500D01*
X88345487Y-131908500D01*
X88351939Y-131907128D01*
X88351944Y-131907128D01*
X88438888Y-131888647D01*
X88532288Y-131868794D01*
X88540201Y-131865271D01*
X88700722Y-131793803D01*
X88700724Y-131793802D01*
X88706752Y-131791118D01*
X88861253Y-131678866D01*
X88870322Y-131668794D01*
X88984621Y-131541852D01*
X88984622Y-131541851D01*
X88989040Y-131536944D01*
X89084527Y-131371556D01*
X89143542Y-131189928D01*
X89144586Y-131180002D01*
X89160836Y-131025385D01*
X89187849Y-130959729D01*
X89194295Y-130952305D01*
X89203644Y-130942349D01*
X89206400Y-130939505D01*
X89226135Y-130919770D01*
X89228615Y-130916573D01*
X89236320Y-130907551D01*
X89261159Y-130881100D01*
X89266586Y-130875321D01*
X89270405Y-130868375D01*
X89270407Y-130868372D01*
X89276348Y-130857566D01*
X89287199Y-130841047D01*
X89294758Y-130831301D01*
X89299614Y-130825041D01*
X89302759Y-130817772D01*
X89302762Y-130817768D01*
X89317174Y-130784463D01*
X89322391Y-130773813D01*
X89343695Y-130735060D01*
X89345666Y-130727384D01*
X89348584Y-130720013D01*
X89351352Y-130721109D01*
X89380492Y-130672142D01*
X89426352Y-130644951D01*
X89548946Y-130604050D01*
X89699348Y-130510978D01*
X89824305Y-130385803D01*
X89828841Y-130378444D01*
X89913275Y-130241468D01*
X89913276Y-130241466D01*
X89917115Y-130235238D01*
X89951610Y-130131239D01*
X89970632Y-130073889D01*
X89970632Y-130073887D01*
X89972797Y-130067361D01*
X89983500Y-129962900D01*
X89983500Y-129886475D01*
X90003502Y-129818354D01*
X90057158Y-129771861D01*
X90127432Y-129761757D01*
X90192012Y-129791251D01*
X90229023Y-129846598D01*
X90231586Y-129854279D01*
X90237761Y-129867462D01*
X90323063Y-130005307D01*
X90332099Y-130016708D01*
X90446829Y-130131239D01*
X90458240Y-130140251D01*
X90596243Y-130225316D01*
X90609424Y-130231463D01*
X90763710Y-130282638D01*
X90777086Y-130285505D01*
X90871438Y-130295172D01*
X90877854Y-130295500D01*
X91127885Y-130295500D01*
X91143124Y-130291025D01*
X91144329Y-130289635D01*
X91146000Y-130281952D01*
X91146000Y-129072000D01*
X91166002Y-129003879D01*
X91219658Y-128957386D01*
X91272000Y-128946000D01*
X91528000Y-128946000D01*
X91596121Y-128966002D01*
X91642614Y-129019658D01*
X91654000Y-129072000D01*
X91654000Y-130277384D01*
X91658475Y-130292623D01*
X91659865Y-130293828D01*
X91667548Y-130295499D01*
X91922095Y-130295499D01*
X91928614Y-130295162D01*
X92024206Y-130285243D01*
X92037600Y-130282351D01*
X92191784Y-130230912D01*
X92204958Y-130224741D01*
X92211796Y-130220509D01*
X92280248Y-130201671D01*
X92348018Y-130222832D01*
X92393589Y-130277272D01*
X92404100Y-130327653D01*
X92404100Y-130973284D01*
X92384098Y-131041405D01*
X92353665Y-131074110D01*
X92325339Y-131095339D01*
X92305691Y-131121556D01*
X92304110Y-131123665D01*
X92247251Y-131166180D01*
X92203284Y-131174100D01*
X91510166Y-131174100D01*
X91447984Y-131180855D01*
X91311595Y-131231985D01*
X91195039Y-131319339D01*
X91107685Y-131435895D01*
X91056555Y-131572284D01*
X91049800Y-131634466D01*
X91049800Y-131750501D01*
X91029798Y-131818622D01*
X90976142Y-131865115D01*
X90923800Y-131876501D01*
X90717205Y-131876501D01*
X90649084Y-131856499D01*
X90623570Y-131834812D01*
X90615674Y-131826042D01*
X90615665Y-131826033D01*
X90611253Y-131821134D01*
X90564598Y-131787237D01*
X90462094Y-131712763D01*
X90462093Y-131712762D01*
X90456752Y-131708882D01*
X90450724Y-131706198D01*
X90450722Y-131706197D01*
X90288319Y-131633891D01*
X90288318Y-131633891D01*
X90282288Y-131631206D01*
X90172685Y-131607909D01*
X90101944Y-131592872D01*
X90101939Y-131592872D01*
X90095487Y-131591500D01*
X89904513Y-131591500D01*
X89898061Y-131592872D01*
X89898056Y-131592872D01*
X89827315Y-131607909D01*
X89717712Y-131631206D01*
X89711682Y-131633891D01*
X89711681Y-131633891D01*
X89549278Y-131706197D01*
X89549276Y-131706198D01*
X89543248Y-131708882D01*
X89388747Y-131821134D01*
X89260960Y-131963056D01*
X89165473Y-132128444D01*
X89106458Y-132310072D01*
X89105768Y-132316633D01*
X89105768Y-132316635D01*
X89097940Y-132391118D01*
X89086496Y-132500000D01*
X89087186Y-132506565D01*
X89098750Y-132616586D01*
X89106458Y-132689928D01*
X89165473Y-132871556D01*
X89168776Y-132877278D01*
X89168777Y-132877279D01*
X89231958Y-132986712D01*
X89248696Y-133055708D01*
X89225475Y-133122799D01*
X89169668Y-133166686D01*
X89139288Y-133174633D01*
X89028134Y-133189267D01*
X89019359Y-133190422D01*
X89002913Y-133191500D01*
X88030710Y-133191500D01*
X87962589Y-133171498D01*
X87937074Y-133149811D01*
X87915668Y-133126037D01*
X87915666Y-133126036D01*
X87911253Y-133121134D01*
X87795376Y-133036944D01*
X87762094Y-133012763D01*
X87762093Y-133012762D01*
X87756752Y-133008882D01*
X87750724Y-133006198D01*
X87750722Y-133006197D01*
X87588319Y-132933891D01*
X87588318Y-132933891D01*
X87582288Y-132931206D01*
X87488888Y-132911353D01*
X87401944Y-132892872D01*
X87401939Y-132892872D01*
X87395487Y-132891500D01*
X87204513Y-132891500D01*
X87198061Y-132892872D01*
X87198056Y-132892872D01*
X87111112Y-132911353D01*
X87017712Y-132931206D01*
X87011682Y-132933891D01*
X87011681Y-132933891D01*
X86849278Y-133006197D01*
X86849276Y-133006198D01*
X86843248Y-133008882D01*
X86837907Y-133012762D01*
X86837906Y-133012763D01*
X86804624Y-133036944D01*
X86688747Y-133121134D01*
X86684334Y-133126036D01*
X86684332Y-133126037D01*
X86662926Y-133149811D01*
X86602480Y-133187050D01*
X86569290Y-133191500D01*
X81630710Y-133191500D01*
X81562589Y-133171498D01*
X81537074Y-133149811D01*
X81515668Y-133126037D01*
X81515666Y-133126036D01*
X81511253Y-133121134D01*
X81395376Y-133036944D01*
X81362094Y-133012763D01*
X81362093Y-133012762D01*
X81356752Y-133008882D01*
X81350726Y-133006199D01*
X81350719Y-133006195D01*
X81277276Y-132973497D01*
X81223180Y-132927517D01*
X81202530Y-132859590D01*
X81221882Y-132791282D01*
X81254463Y-132756454D01*
X81303225Y-132721026D01*
X81361253Y-132678866D01*
X81369661Y-132669528D01*
X81484621Y-132541852D01*
X81484622Y-132541851D01*
X81489040Y-132536944D01*
X81563861Y-132407350D01*
X81581223Y-132377279D01*
X81581224Y-132377278D01*
X81584527Y-132371556D01*
X81643542Y-132189928D01*
X81651251Y-132116586D01*
X81662814Y-132006565D01*
X81663504Y-132000000D01*
X81645221Y-131826045D01*
X81644232Y-131816635D01*
X81644232Y-131816633D01*
X81643542Y-131810072D01*
X81584527Y-131628444D01*
X81577406Y-131616109D01*
X81534109Y-131541118D01*
X81489040Y-131463056D01*
X81415863Y-131381785D01*
X81385147Y-131317779D01*
X81383500Y-131297476D01*
X81383500Y-130394513D01*
X81403502Y-130326392D01*
X81415549Y-130311444D01*
X81418061Y-130309561D01*
X81505415Y-130193005D01*
X81556545Y-130056616D01*
X81563300Y-129994434D01*
X81563300Y-128348766D01*
X81556545Y-128286584D01*
X81553773Y-128279188D01*
X81553771Y-128279182D01*
X81534220Y-128227030D01*
X81529037Y-128156223D01*
X81562959Y-128093854D01*
X81625214Y-128059725D01*
X81652202Y-128056801D01*
X82695033Y-128056801D01*
X82757215Y-128050046D01*
X82893604Y-127998916D01*
X82900791Y-127993530D01*
X82962250Y-127947469D01*
X83028757Y-127922621D01*
X83098139Y-127937674D01*
G37*
%TD.AperFunction*%
%TA.AperFunction,Conductor*%
G36*
X80926752Y-125263290D02*
G01*
X80994856Y-125283350D01*
X81041304Y-125337044D01*
X81051348Y-125407327D01*
X81027473Y-125464853D01*
X81002484Y-125498196D01*
X80951354Y-125634585D01*
X80944599Y-125696767D01*
X80944599Y-127596435D01*
X80951354Y-127658617D01*
X80954126Y-127666013D01*
X80954128Y-127666019D01*
X80973679Y-127718171D01*
X80978862Y-127788978D01*
X80944940Y-127851347D01*
X80882685Y-127885476D01*
X80855697Y-127888400D01*
X80397066Y-127888400D01*
X80334884Y-127895155D01*
X80294229Y-127910396D01*
X80223424Y-127915579D01*
X80205770Y-127910396D01*
X80179642Y-127900601D01*
X80165115Y-127895155D01*
X80102933Y-127888400D01*
X79397065Y-127888400D01*
X79393668Y-127888769D01*
X79342733Y-127894302D01*
X79342731Y-127894302D01*
X79334883Y-127895155D01*
X79327488Y-127897927D01*
X79327485Y-127897928D01*
X79293516Y-127910662D01*
X79222709Y-127915845D01*
X79205060Y-127910662D01*
X79172406Y-127898421D01*
X79157158Y-127894795D01*
X79106287Y-127889269D01*
X79099473Y-127888900D01*
X79022116Y-127888900D01*
X79006877Y-127893375D01*
X79005672Y-127894765D01*
X79004001Y-127902448D01*
X79004001Y-128103410D01*
X78992254Y-128149322D01*
X78994584Y-128150195D01*
X78943454Y-128286584D01*
X78936699Y-128348766D01*
X78936699Y-129299600D01*
X78916697Y-129367721D01*
X78863041Y-129414214D01*
X78810699Y-129425600D01*
X78689300Y-129425600D01*
X78621179Y-129405598D01*
X78574686Y-129351942D01*
X78563300Y-129299600D01*
X78563300Y-128348766D01*
X78556545Y-128286584D01*
X78505415Y-128150195D01*
X78507745Y-128149322D01*
X78496001Y-128103415D01*
X78496001Y-127907016D01*
X78491526Y-127891777D01*
X78490136Y-127890572D01*
X78482453Y-127888901D01*
X78400532Y-127888901D01*
X78393711Y-127889271D01*
X78342849Y-127894795D01*
X78327594Y-127898422D01*
X78294944Y-127910662D01*
X78224137Y-127915846D01*
X78206485Y-127910664D01*
X78165116Y-127895155D01*
X78102934Y-127888400D01*
X77644303Y-127888400D01*
X77576182Y-127868398D01*
X77529689Y-127814742D01*
X77519585Y-127744468D01*
X77526321Y-127718171D01*
X77545872Y-127666019D01*
X77545874Y-127666013D01*
X77548646Y-127658617D01*
X77555401Y-127596435D01*
X77555401Y-125696767D01*
X77548646Y-125634585D01*
X77497516Y-125498196D01*
X77492133Y-125491013D01*
X77492131Y-125491010D01*
X77470406Y-125462023D01*
X77445559Y-125395517D01*
X77460612Y-125326134D01*
X77510787Y-125275905D01*
X77571338Y-125260459D01*
X80926752Y-125263290D01*
G37*
%TD.AperFunction*%
%TA.AperFunction,Conductor*%
G36*
X87398056Y-125268751D02*
G01*
X90553867Y-125271414D01*
X90621970Y-125291474D01*
X90668418Y-125345168D01*
X90678462Y-125415451D01*
X90659471Y-125462196D01*
X90660960Y-125463056D01*
X90581287Y-125601054D01*
X90565473Y-125628444D01*
X90506458Y-125810072D01*
X90486496Y-126000000D01*
X90487186Y-126006565D01*
X90487186Y-126006566D01*
X90494943Y-126080371D01*
X90482171Y-126150209D01*
X90450599Y-126188970D01*
X90450652Y-126189022D01*
X90445483Y-126194200D01*
X90408046Y-126231702D01*
X90325695Y-126314197D01*
X90321855Y-126320427D01*
X90321854Y-126320428D01*
X90242515Y-126449140D01*
X90232885Y-126464762D01*
X90220004Y-126503598D01*
X90189940Y-126594239D01*
X90177203Y-126632639D01*
X90166500Y-126737100D01*
X90166500Y-126813525D01*
X90146498Y-126881646D01*
X90092842Y-126928139D01*
X90022568Y-126938243D01*
X89957988Y-126908749D01*
X89920977Y-126853402D01*
X89918414Y-126845721D01*
X89912239Y-126832538D01*
X89826937Y-126694693D01*
X89817901Y-126683292D01*
X89703171Y-126568761D01*
X89691760Y-126559749D01*
X89553757Y-126474684D01*
X89540576Y-126468537D01*
X89386290Y-126417362D01*
X89372914Y-126414495D01*
X89278562Y-126404828D01*
X89272145Y-126404500D01*
X89022115Y-126404500D01*
X89006876Y-126408975D01*
X89005671Y-126410365D01*
X89004000Y-126418048D01*
X89004000Y-127628000D01*
X88983998Y-127696121D01*
X88930342Y-127742614D01*
X88878000Y-127754000D01*
X86772115Y-127754000D01*
X86756876Y-127758475D01*
X86755671Y-127759865D01*
X86754000Y-127767548D01*
X86754000Y-128777384D01*
X86758475Y-128792623D01*
X86759865Y-128793828D01*
X86767548Y-128795499D01*
X86972095Y-128795499D01*
X86978614Y-128795162D01*
X87074206Y-128785243D01*
X87087600Y-128782351D01*
X87241784Y-128730912D01*
X87254962Y-128724739D01*
X87392807Y-128639437D01*
X87404208Y-128630401D01*
X87518739Y-128515671D01*
X87527751Y-128504260D01*
X87574549Y-128428339D01*
X87627321Y-128380846D01*
X87697393Y-128369422D01*
X87762516Y-128397696D01*
X87770827Y-128405282D01*
X87796828Y-128431238D01*
X87805762Y-128438294D01*
X87846823Y-128496212D01*
X87850053Y-128567135D01*
X87814426Y-128628546D01*
X87806593Y-128635346D01*
X87800652Y-128639022D01*
X87675695Y-128764197D01*
X87671855Y-128770427D01*
X87671854Y-128770428D01*
X87587591Y-128907128D01*
X87582885Y-128914762D01*
X87572524Y-128946000D01*
X87538534Y-129048478D01*
X87527203Y-129082639D01*
X87526503Y-129089475D01*
X87526502Y-129089478D01*
X87525027Y-129103875D01*
X87498185Y-129169602D01*
X87440069Y-129210383D01*
X87369131Y-129213271D01*
X87333567Y-129198291D01*
X87253968Y-129149225D01*
X87253966Y-129149224D01*
X87247738Y-129145385D01*
X87114328Y-129101135D01*
X87086389Y-129091868D01*
X87086387Y-129091868D01*
X87079861Y-129089703D01*
X87073025Y-129089003D01*
X87073022Y-129089002D01*
X87029969Y-129084591D01*
X86975400Y-129079000D01*
X86024600Y-129079000D01*
X86021354Y-129079337D01*
X86021350Y-129079337D01*
X85925692Y-129089262D01*
X85925688Y-129089263D01*
X85918834Y-129089974D01*
X85912298Y-129092155D01*
X85912296Y-129092155D01*
X85803526Y-129128444D01*
X85751054Y-129145950D01*
X85744822Y-129149806D01*
X85744823Y-129149806D01*
X85650803Y-129207987D01*
X85582351Y-129226825D01*
X85514581Y-129205664D01*
X85469010Y-129151223D01*
X85458500Y-129100843D01*
X85458500Y-128849600D01*
X85458163Y-128846348D01*
X85451475Y-128781889D01*
X85464340Y-128712068D01*
X85512911Y-128660286D01*
X85581767Y-128642984D01*
X85642918Y-128661626D01*
X85746243Y-128725316D01*
X85759424Y-128731463D01*
X85913710Y-128782638D01*
X85927086Y-128785505D01*
X86021438Y-128795172D01*
X86027854Y-128795500D01*
X86227885Y-128795500D01*
X86243124Y-128791025D01*
X86244329Y-128789635D01*
X86246000Y-128781952D01*
X86246000Y-127772115D01*
X86241525Y-127756876D01*
X86240135Y-127755671D01*
X86232452Y-127754000D01*
X85403000Y-127754000D01*
X85334879Y-127733998D01*
X85288386Y-127680342D01*
X85277000Y-127628000D01*
X85277000Y-127522115D01*
X85272525Y-127506876D01*
X85271135Y-127505671D01*
X85263452Y-127504000D01*
X84122000Y-127504000D01*
X84053879Y-127483998D01*
X84007386Y-127430342D01*
X83996000Y-127378000D01*
X83996000Y-126977885D01*
X84504000Y-126977885D01*
X84508475Y-126993124D01*
X84509865Y-126994329D01*
X84517548Y-126996000D01*
X85372000Y-126996000D01*
X85440121Y-127016002D01*
X85486614Y-127069658D01*
X85498000Y-127122000D01*
X85498000Y-127227885D01*
X85502475Y-127243124D01*
X85503865Y-127244329D01*
X85511548Y-127246000D01*
X86227885Y-127246000D01*
X86243124Y-127241525D01*
X86244329Y-127240135D01*
X86246000Y-127232452D01*
X86246000Y-127227885D01*
X86754000Y-127227885D01*
X86758475Y-127243124D01*
X86759865Y-127244329D01*
X86767548Y-127246000D01*
X88477885Y-127246000D01*
X88493124Y-127241525D01*
X88494329Y-127240135D01*
X88496000Y-127232452D01*
X88496000Y-126422616D01*
X88491525Y-126407377D01*
X88490135Y-126406172D01*
X88482452Y-126404501D01*
X88227905Y-126404501D01*
X88221386Y-126404838D01*
X88125794Y-126414757D01*
X88112400Y-126417649D01*
X87958216Y-126469088D01*
X87945038Y-126475261D01*
X87807193Y-126560563D01*
X87795792Y-126569599D01*
X87770950Y-126594484D01*
X87708667Y-126628563D01*
X87637847Y-126623560D01*
X87580974Y-126581062D01*
X87574633Y-126571769D01*
X87526937Y-126494693D01*
X87517901Y-126483292D01*
X87403171Y-126368761D01*
X87391760Y-126359749D01*
X87253757Y-126274684D01*
X87240576Y-126268537D01*
X87086290Y-126217362D01*
X87072914Y-126214495D01*
X86978562Y-126204828D01*
X86972145Y-126204500D01*
X86772115Y-126204500D01*
X86756876Y-126208975D01*
X86755671Y-126210365D01*
X86754000Y-126218048D01*
X86754000Y-127227885D01*
X86246000Y-127227885D01*
X86246000Y-126222616D01*
X86241525Y-126207377D01*
X86240135Y-126206172D01*
X86232452Y-126204501D01*
X86027905Y-126204501D01*
X86021386Y-126204838D01*
X85925794Y-126214757D01*
X85912400Y-126217649D01*
X85758216Y-126269088D01*
X85745038Y-126275261D01*
X85607193Y-126360563D01*
X85595792Y-126369599D01*
X85502990Y-126462562D01*
X85440707Y-126496641D01*
X85369887Y-126491638D01*
X85313014Y-126449140D01*
X85306671Y-126439844D01*
X85301935Y-126432191D01*
X85292901Y-126420792D01*
X85178171Y-126306261D01*
X85166760Y-126297249D01*
X85028757Y-126212184D01*
X85015576Y-126206037D01*
X84861290Y-126154862D01*
X84847914Y-126151995D01*
X84753562Y-126142328D01*
X84747145Y-126142000D01*
X84522115Y-126142000D01*
X84506876Y-126146475D01*
X84505671Y-126147865D01*
X84504000Y-126155548D01*
X84504000Y-126977885D01*
X83996000Y-126977885D01*
X83996000Y-126160116D01*
X83991525Y-126144877D01*
X83990135Y-126143672D01*
X83982452Y-126142001D01*
X83752905Y-126142001D01*
X83746386Y-126142338D01*
X83650794Y-126152257D01*
X83637400Y-126155149D01*
X83483216Y-126206588D01*
X83470042Y-126212760D01*
X83347703Y-126288466D01*
X83279251Y-126307304D01*
X83211481Y-126286143D01*
X83165910Y-126231702D01*
X83155399Y-126181322D01*
X83155399Y-125696767D01*
X83148644Y-125634585D01*
X83097514Y-125498196D01*
X83073948Y-125466752D01*
X83049100Y-125400249D01*
X83064152Y-125330866D01*
X83114325Y-125280635D01*
X83174880Y-125265188D01*
X87398056Y-125268751D01*
G37*
%TD.AperFunction*%
%TD*%
%TA.AperFunction,Conductor*%
%TO.N,+3V3A*%
G36*
X109103680Y-125287069D02*
G01*
X109171784Y-125307129D01*
X109218232Y-125360823D01*
X109228276Y-125431106D01*
X109223407Y-125452005D01*
X109191951Y-125548816D01*
X109191261Y-125555377D01*
X109191261Y-125555379D01*
X109182663Y-125637184D01*
X109171989Y-125738744D01*
X109172679Y-125745309D01*
X109188604Y-125896823D01*
X109191951Y-125928672D01*
X109250966Y-126110300D01*
X109254269Y-126116022D01*
X109254270Y-126116023D01*
X109281046Y-126162400D01*
X109346453Y-126275688D01*
X109350871Y-126280595D01*
X109350872Y-126280596D01*
X109454992Y-126396233D01*
X109474240Y-126417610D01*
X109628741Y-126529862D01*
X109634769Y-126532546D01*
X109634771Y-126532547D01*
X109752003Y-126584742D01*
X109789849Y-126610754D01*
X109971348Y-126792253D01*
X109978888Y-126800539D01*
X109983000Y-126807018D01*
X109988777Y-126812443D01*
X110032652Y-126853644D01*
X110035494Y-126856399D01*
X110055230Y-126876135D01*
X110058427Y-126878615D01*
X110067447Y-126886318D01*
X110099679Y-126916586D01*
X110106625Y-126920405D01*
X110106628Y-126920407D01*
X110117434Y-126926348D01*
X110133953Y-126937199D01*
X110149959Y-126949614D01*
X110155283Y-126951918D01*
X110203091Y-127003119D01*
X110216500Y-127059681D01*
X110216500Y-127298134D01*
X110223255Y-127360316D01*
X110274385Y-127496705D01*
X110361739Y-127613261D01*
X110368919Y-127618642D01*
X110375269Y-127624992D01*
X110373634Y-127626627D01*
X110408579Y-127673359D01*
X110416500Y-127717329D01*
X110416500Y-127775101D01*
X110396498Y-127843222D01*
X110342842Y-127889715D01*
X110290500Y-127901101D01*
X109862315Y-127901101D01*
X109847076Y-127905576D01*
X109845871Y-127906966D01*
X109844200Y-127914649D01*
X109844200Y-128424599D01*
X109824198Y-128492720D01*
X109770542Y-128539213D01*
X109718200Y-128550599D01*
X109535029Y-128550599D01*
X109466908Y-128530597D01*
X109420415Y-128476941D01*
X109410311Y-128406667D01*
X109411908Y-128397819D01*
X109412400Y-128395557D01*
X109412400Y-127919217D01*
X109407925Y-127903978D01*
X109406535Y-127902773D01*
X109398852Y-127901102D01*
X108872431Y-127901102D01*
X108865610Y-127901472D01*
X108814748Y-127906996D01*
X108799496Y-127910622D01*
X108679046Y-127955777D01*
X108663451Y-127964315D01*
X108561376Y-128040816D01*
X108548815Y-128053377D01*
X108472314Y-128155452D01*
X108463776Y-128171047D01*
X108418622Y-128291495D01*
X108414995Y-128306750D01*
X108409469Y-128357615D01*
X108409100Y-128364429D01*
X108409100Y-128390986D01*
X108413575Y-128406225D01*
X108414965Y-128407430D01*
X108422648Y-128409101D01*
X108558213Y-128409101D01*
X108626334Y-128429103D01*
X108672827Y-128482759D01*
X108682931Y-128553033D01*
X108653437Y-128617613D01*
X108633778Y-128635927D01*
X108553839Y-128695838D01*
X108487293Y-128784631D01*
X108475299Y-128800634D01*
X108418440Y-128843149D01*
X108412071Y-128845267D01*
X108410772Y-128846766D01*
X108409101Y-128854449D01*
X108409101Y-128885569D01*
X108409471Y-128892393D01*
X108413997Y-128934071D01*
X108413997Y-128961282D01*
X108411441Y-128984817D01*
X108408600Y-129010965D01*
X108408600Y-129162109D01*
X108388598Y-129230230D01*
X108334942Y-129276723D01*
X108282600Y-129288109D01*
X108189729Y-129288109D01*
X108121608Y-129268107D01*
X108075115Y-129214451D01*
X108063729Y-129162109D01*
X108063729Y-128400000D01*
X108062782Y-128388152D01*
X108057760Y-128325355D01*
X108057760Y-128325353D01*
X108057200Y-128318355D01*
X108013652Y-128178767D01*
X108008506Y-128171047D01*
X107973097Y-128117934D01*
X107932543Y-128057103D01*
X107856523Y-127993436D01*
X107827352Y-127969005D01*
X107827351Y-127969005D01*
X107820442Y-127963218D01*
X107812187Y-127959614D01*
X107812183Y-127959612D01*
X107694692Y-127908324D01*
X107694691Y-127908324D01*
X107686431Y-127904718D01*
X107677490Y-127903585D01*
X107677488Y-127903585D01*
X107550307Y-127887476D01*
X107550305Y-127887476D01*
X107541368Y-127886344D01*
X107397004Y-127909582D01*
X107338354Y-127937567D01*
X107269095Y-127970614D01*
X107269092Y-127970616D01*
X107265034Y-127972552D01*
X106869892Y-128235980D01*
X106802117Y-128257124D01*
X106730108Y-128235980D01*
X106337062Y-127973949D01*
X106337056Y-127973945D01*
X106334966Y-127972552D01*
X106320178Y-127964315D01*
X106269548Y-127936114D01*
X106269546Y-127936113D01*
X106263411Y-127932696D01*
X106180408Y-127908324D01*
X106131755Y-127894038D01*
X106131754Y-127894038D01*
X106123111Y-127891500D01*
X105976889Y-127891500D01*
X105968246Y-127894038D01*
X105968245Y-127894038D01*
X105845235Y-127930157D01*
X105845233Y-127930158D01*
X105836589Y-127932696D01*
X105829010Y-127937567D01*
X105721159Y-128006878D01*
X105721156Y-128006880D01*
X105713579Y-128011750D01*
X105707678Y-128018560D01*
X105623726Y-128115445D01*
X105623724Y-128115448D01*
X105617824Y-128122257D01*
X105557081Y-128255266D01*
X105536271Y-128400000D01*
X105536271Y-129850263D01*
X105516269Y-129918384D01*
X105462613Y-129964877D01*
X105392339Y-129974981D01*
X105359022Y-129965370D01*
X105288319Y-129933891D01*
X105288318Y-129933891D01*
X105282288Y-129931206D01*
X105188887Y-129911353D01*
X105101944Y-129892872D01*
X105101939Y-129892872D01*
X105095487Y-129891500D01*
X104904513Y-129891500D01*
X104898061Y-129892872D01*
X104898056Y-129892872D01*
X104811113Y-129911353D01*
X104717712Y-129931206D01*
X104711682Y-129933891D01*
X104711681Y-129933891D01*
X104549278Y-130006197D01*
X104549276Y-130006198D01*
X104543248Y-130008882D01*
X104388747Y-130121134D01*
X104384326Y-130126044D01*
X104384325Y-130126045D01*
X104268666Y-130254498D01*
X104260960Y-130263056D01*
X104257659Y-130268774D01*
X104179256Y-130404572D01*
X104165473Y-130428444D01*
X104106458Y-130610072D01*
X104105768Y-130616633D01*
X104105768Y-130616635D01*
X104087389Y-130791500D01*
X104086496Y-130800000D01*
X104087186Y-130806565D01*
X104105398Y-130979838D01*
X104106458Y-130989928D01*
X104165473Y-131171556D01*
X104168776Y-131177278D01*
X104168777Y-131177279D01*
X104201337Y-131233674D01*
X104260960Y-131336944D01*
X104265378Y-131341851D01*
X104265379Y-131341852D01*
X104337478Y-131421926D01*
X104388747Y-131478866D01*
X104543248Y-131591118D01*
X104549276Y-131593802D01*
X104549278Y-131593803D01*
X104711681Y-131666109D01*
X104717712Y-131668794D01*
X104788714Y-131683886D01*
X104898056Y-131707128D01*
X104898061Y-131707128D01*
X104904513Y-131708500D01*
X104960405Y-131708500D01*
X105028526Y-131728502D01*
X105049500Y-131745405D01*
X105296348Y-131992253D01*
X105303888Y-132000539D01*
X105308000Y-132007018D01*
X105313777Y-132012443D01*
X105357651Y-132053643D01*
X105360493Y-132056398D01*
X105380230Y-132076135D01*
X105383427Y-132078615D01*
X105392447Y-132086318D01*
X105424679Y-132116586D01*
X105431625Y-132120405D01*
X105431628Y-132120407D01*
X105442434Y-132126348D01*
X105458953Y-132137199D01*
X105474959Y-132149614D01*
X105488441Y-132155448D01*
X105489069Y-132155720D01*
X105543643Y-132201131D01*
X105559924Y-132235858D01*
X105582696Y-132313411D01*
X105587568Y-132320992D01*
X105656878Y-132428841D01*
X105656880Y-132428844D01*
X105661750Y-132436421D01*
X105668560Y-132442322D01*
X105765445Y-132526274D01*
X105765448Y-132526276D01*
X105772257Y-132532176D01*
X105780454Y-132535920D01*
X105780455Y-132535920D01*
X105804969Y-132547115D01*
X105905266Y-132592919D01*
X106050000Y-132613729D01*
X107550000Y-132613729D01*
X107581986Y-132611441D01*
X107616373Y-132608982D01*
X107616374Y-132608982D01*
X107623111Y-132608500D01*
X107702618Y-132585155D01*
X107754765Y-132569843D01*
X107754767Y-132569842D01*
X107763411Y-132567304D01*
X107827255Y-132526274D01*
X107878841Y-132493122D01*
X107878844Y-132493120D01*
X107886421Y-132488250D01*
X107931331Y-132436421D01*
X107976274Y-132384555D01*
X107976276Y-132384552D01*
X107982176Y-132377743D01*
X108042919Y-132244734D01*
X108063729Y-132100000D01*
X108063729Y-131100000D01*
X108063605Y-131098032D01*
X108060066Y-131041920D01*
X108060065Y-131041916D01*
X108059657Y-131035443D01*
X108047075Y-130989768D01*
X108043833Y-130938375D01*
X108049176Y-130901215D01*
X108063729Y-130800000D01*
X108063729Y-130681109D01*
X108083731Y-130612988D01*
X108137387Y-130566495D01*
X108189729Y-130555109D01*
X108282600Y-130555109D01*
X108350721Y-130575111D01*
X108397214Y-130628767D01*
X108408600Y-130681109D01*
X108408600Y-130839033D01*
X108415355Y-130901215D01*
X108466485Y-131037604D01*
X108553839Y-131154160D01*
X108624425Y-131207061D01*
X108670395Y-131241514D01*
X108668277Y-131244340D01*
X108706467Y-131282622D01*
X108721475Y-131352014D01*
X108715640Y-131381810D01*
X108708501Y-131403782D01*
X108708500Y-131403789D01*
X108706458Y-131410072D01*
X108705768Y-131416635D01*
X108705767Y-131416642D01*
X108693281Y-131535443D01*
X108686496Y-131600000D01*
X108706458Y-131789928D01*
X108765473Y-131971556D01*
X108860960Y-132136944D01*
X108865378Y-132141851D01*
X108865379Y-132141852D01*
X108918754Y-132201131D01*
X108988747Y-132278866D01*
X109036294Y-132313411D01*
X109126385Y-132378866D01*
X109143248Y-132391118D01*
X109149276Y-132393802D01*
X109149278Y-132393803D01*
X109311681Y-132466109D01*
X109317712Y-132468794D01*
X109404479Y-132487237D01*
X109498056Y-132507128D01*
X109498061Y-132507128D01*
X109504513Y-132508500D01*
X109695487Y-132508500D01*
X109701939Y-132507128D01*
X109701944Y-132507128D01*
X109795521Y-132487237D01*
X109882288Y-132468794D01*
X109888319Y-132466109D01*
X110050722Y-132393803D01*
X110050724Y-132393802D01*
X110056752Y-132391118D01*
X110073616Y-132378866D01*
X110163706Y-132313411D01*
X110211253Y-132278866D01*
X110281246Y-132201131D01*
X110334621Y-132141852D01*
X110334622Y-132141851D01*
X110339040Y-132136944D01*
X110434527Y-131971556D01*
X110493542Y-131789928D01*
X110513504Y-131600000D01*
X110506719Y-131535443D01*
X110494232Y-131416635D01*
X110494232Y-131416633D01*
X110493542Y-131410072D01*
X110491503Y-131403795D01*
X110490129Y-131397334D01*
X110491783Y-131396983D01*
X110489995Y-131334429D01*
X110526658Y-131273632D01*
X110567624Y-131248480D01*
X110577801Y-131244665D01*
X110577804Y-131244663D01*
X110586205Y-131241514D01*
X110593384Y-131236134D01*
X110593387Y-131236132D01*
X110695581Y-131159541D01*
X110702761Y-131154160D01*
X110710555Y-131143761D01*
X110711726Y-131142199D01*
X110768587Y-131099686D01*
X110838746Y-131094521D01*
X110898056Y-131107128D01*
X110898061Y-131107128D01*
X110904513Y-131108500D01*
X111095487Y-131108500D01*
X111101939Y-131107128D01*
X111101944Y-131107128D01*
X111188888Y-131088647D01*
X111282288Y-131068794D01*
X111288319Y-131066109D01*
X111450722Y-130993803D01*
X111450724Y-130993802D01*
X111456752Y-130991118D01*
X111464671Y-130985365D01*
X111529346Y-130938375D01*
X111611253Y-130878866D01*
X111647119Y-130839033D01*
X111734621Y-130741852D01*
X111734622Y-130741851D01*
X111739040Y-130736944D01*
X111834527Y-130571556D01*
X111893542Y-130389928D01*
X111907393Y-130258148D01*
X111912814Y-130206565D01*
X111913504Y-130200000D01*
X111893542Y-130010072D01*
X111834527Y-129828444D01*
X111739040Y-129663056D01*
X111734101Y-129657570D01*
X111615675Y-129526045D01*
X111615674Y-129526044D01*
X111611253Y-129521134D01*
X111515382Y-129451479D01*
X111472028Y-129395256D01*
X111465953Y-129324520D01*
X111497597Y-129263286D01*
X111503662Y-129256828D01*
X111506413Y-129253990D01*
X111526134Y-129234269D01*
X111528612Y-129231074D01*
X111536318Y-129222052D01*
X111561158Y-129195600D01*
X111566586Y-129189820D01*
X111576346Y-129172067D01*
X111587199Y-129155544D01*
X111594753Y-129145805D01*
X111599613Y-129139540D01*
X111617176Y-129098956D01*
X111622383Y-129088326D01*
X111643695Y-129049559D01*
X111645666Y-129041882D01*
X111645668Y-129041877D01*
X111648732Y-129029941D01*
X111655138Y-129011229D01*
X111655253Y-129010965D01*
X111663181Y-128992644D01*
X111668149Y-128961282D01*
X111670097Y-128948980D01*
X111672504Y-128937359D01*
X111681528Y-128902210D01*
X111681528Y-128902209D01*
X111683500Y-128894529D01*
X111683500Y-128874268D01*
X111685051Y-128854557D01*
X111686523Y-128845267D01*
X111688219Y-128834556D01*
X111684059Y-128790545D01*
X111683500Y-128778688D01*
X111683500Y-127809500D01*
X111703502Y-127741379D01*
X111757158Y-127694886D01*
X111809500Y-127683500D01*
X112317450Y-127683500D01*
X112375158Y-127698264D01*
X112378295Y-127700615D01*
X112514684Y-127751745D01*
X112576866Y-127758500D01*
X112903251Y-127758500D01*
X112971372Y-127778502D01*
X113017865Y-127832158D01*
X113027969Y-127902432D01*
X112998475Y-127967012D01*
X112978816Y-127985326D01*
X112904776Y-128040816D01*
X112892215Y-128053377D01*
X112815714Y-128155452D01*
X112807176Y-128171047D01*
X112762022Y-128291495D01*
X112758395Y-128306750D01*
X112752869Y-128357615D01*
X112752500Y-128364429D01*
X112752500Y-128390986D01*
X112756975Y-128406225D01*
X112758365Y-128407430D01*
X112766048Y-128409101D01*
X112901613Y-128409101D01*
X112969734Y-128429103D01*
X113016227Y-128482759D01*
X113026331Y-128553033D01*
X112996837Y-128617613D01*
X112977178Y-128635927D01*
X112897239Y-128695838D01*
X112830693Y-128784631D01*
X112818699Y-128800634D01*
X112761840Y-128843149D01*
X112755471Y-128845267D01*
X112754172Y-128846766D01*
X112752501Y-128854449D01*
X112752501Y-128885569D01*
X112752871Y-128892393D01*
X112757397Y-128934071D01*
X112757397Y-128961282D01*
X112754841Y-128984817D01*
X112752000Y-129010965D01*
X112752000Y-129539033D01*
X112752369Y-129542430D01*
X112757145Y-129586392D01*
X112757145Y-129613605D01*
X112752000Y-129660967D01*
X112752000Y-130189035D01*
X112753905Y-130206565D01*
X112757145Y-130236391D01*
X112757145Y-130263605D01*
X112752000Y-130310965D01*
X112752000Y-130839033D01*
X112758755Y-130901215D01*
X112809885Y-131037604D01*
X112897239Y-131154160D01*
X113013795Y-131241514D01*
X113150184Y-131292644D01*
X113212366Y-131299399D01*
X114731034Y-131299399D01*
X114793216Y-131292644D01*
X114929605Y-131241514D01*
X114940066Y-131233674D01*
X114943869Y-131232253D01*
X114944660Y-131231820D01*
X114944723Y-131231934D01*
X115006572Y-131208825D01*
X115015632Y-131208499D01*
X115946234Y-131208499D01*
X115957417Y-131209026D01*
X115964910Y-131210701D01*
X115972836Y-131210452D01*
X115972837Y-131210452D01*
X116032987Y-131208561D01*
X116036946Y-131208499D01*
X116064857Y-131208499D01*
X116068792Y-131208002D01*
X116068857Y-131207994D01*
X116080694Y-131207061D01*
X116112952Y-131206047D01*
X116116971Y-131205921D01*
X116124890Y-131205672D01*
X116144344Y-131200020D01*
X116163701Y-131196012D01*
X116175931Y-131194467D01*
X116175932Y-131194467D01*
X116183798Y-131193473D01*
X116191834Y-131190291D01*
X116193667Y-131189566D01*
X116195771Y-131189373D01*
X116198849Y-131188583D01*
X116198976Y-131189080D01*
X116264367Y-131183088D01*
X116327346Y-131215862D01*
X116362609Y-131277482D01*
X116359881Y-131345654D01*
X116306458Y-131510072D01*
X116305768Y-131516633D01*
X116305768Y-131516635D01*
X116298348Y-131587237D01*
X116286496Y-131700000D01*
X116287186Y-131706565D01*
X116296608Y-131796206D01*
X116306458Y-131889928D01*
X116365473Y-132071556D01*
X116460960Y-132236944D01*
X116465378Y-132241851D01*
X116465379Y-132241852D01*
X116494285Y-132273955D01*
X116588747Y-132378866D01*
X116743248Y-132491118D01*
X116749276Y-132493802D01*
X116749278Y-132493803D01*
X116903425Y-132562433D01*
X116917712Y-132568794D01*
X117011113Y-132588647D01*
X117098056Y-132607128D01*
X117098061Y-132607128D01*
X117104513Y-132608500D01*
X117177620Y-132608500D01*
X117238331Y-132624091D01*
X117242441Y-132626351D01*
X117258956Y-132637199D01*
X117274959Y-132649613D01*
X117315543Y-132667176D01*
X117326173Y-132672383D01*
X117364940Y-132693695D01*
X117372617Y-132695666D01*
X117372622Y-132695668D01*
X117384558Y-132698732D01*
X117403266Y-132705137D01*
X117421855Y-132713181D01*
X117429680Y-132714420D01*
X117429682Y-132714421D01*
X117465519Y-132720097D01*
X117477140Y-132722504D01*
X117493051Y-132726589D01*
X117554058Y-132762903D01*
X117573882Y-132797724D01*
X117576414Y-132796568D01*
X117580157Y-132804764D01*
X117582696Y-132813411D01*
X117587567Y-132820990D01*
X117656878Y-132928841D01*
X117656880Y-132928844D01*
X117661750Y-132936421D01*
X117668560Y-132942322D01*
X117765445Y-133026274D01*
X117765448Y-133026276D01*
X117772257Y-133032176D01*
X117780454Y-133035920D01*
X117780455Y-133035920D01*
X117838511Y-133062433D01*
X117905266Y-133092919D01*
X118050000Y-133113729D01*
X119550000Y-133113729D01*
X119581986Y-133111441D01*
X119616373Y-133108982D01*
X119616374Y-133108982D01*
X119623111Y-133108500D01*
X119702618Y-133085155D01*
X119754765Y-133069843D01*
X119754767Y-133069842D01*
X119763411Y-133067304D01*
X119827255Y-133026274D01*
X119878841Y-132993122D01*
X119878844Y-132993120D01*
X119886421Y-132988250D01*
X119931399Y-132936343D01*
X119976274Y-132884555D01*
X119976276Y-132884552D01*
X119982176Y-132877743D01*
X120042919Y-132744734D01*
X120063729Y-132600000D01*
X120063729Y-131600000D01*
X120062146Y-131574900D01*
X120060066Y-131541920D01*
X120060065Y-131541916D01*
X120059657Y-131535443D01*
X120047075Y-131489768D01*
X120043833Y-131438375D01*
X120046959Y-131416635D01*
X120063729Y-131300000D01*
X120063729Y-128900000D01*
X120063372Y-128895537D01*
X120057760Y-128825355D01*
X120057760Y-128825353D01*
X120057200Y-128818355D01*
X120051672Y-128800634D01*
X120021218Y-128703018D01*
X120013652Y-128678767D01*
X119995938Y-128652195D01*
X119972231Y-128616635D01*
X119932543Y-128557103D01*
X119855668Y-128492720D01*
X119827352Y-128469005D01*
X119827351Y-128469005D01*
X119820442Y-128463218D01*
X119812187Y-128459614D01*
X119812183Y-128459612D01*
X119694692Y-128408324D01*
X119694691Y-128408324D01*
X119686431Y-128404718D01*
X119677490Y-128403585D01*
X119677488Y-128403585D01*
X119550307Y-128387476D01*
X119550305Y-128387476D01*
X119541368Y-128386344D01*
X119397004Y-128409582D01*
X119338354Y-128437567D01*
X119269095Y-128470614D01*
X119269092Y-128470616D01*
X119265034Y-128472552D01*
X118869892Y-128735980D01*
X118802117Y-128757124D01*
X118730108Y-128735980D01*
X118337062Y-128473949D01*
X118337056Y-128473945D01*
X118334966Y-128472552D01*
X118328598Y-128469005D01*
X118269548Y-128436114D01*
X118269546Y-128436113D01*
X118263411Y-128432696D01*
X118180408Y-128408324D01*
X118131755Y-128394038D01*
X118131754Y-128394038D01*
X118123111Y-128391500D01*
X117976889Y-128391500D01*
X117968246Y-128394038D01*
X117968245Y-128394038D01*
X117845235Y-128430157D01*
X117845233Y-128430158D01*
X117836589Y-128432696D01*
X117829010Y-128437567D01*
X117721159Y-128506878D01*
X117721156Y-128506880D01*
X117713579Y-128511750D01*
X117707678Y-128518560D01*
X117623726Y-128615445D01*
X117623724Y-128615448D01*
X117617824Y-128622257D01*
X117557081Y-128755266D01*
X117536271Y-128900000D01*
X117536271Y-129240500D01*
X117516269Y-129308621D01*
X117462613Y-129355114D01*
X117410271Y-129366500D01*
X116678763Y-129366500D01*
X116667579Y-129365973D01*
X116660091Y-129364299D01*
X116652168Y-129364548D01*
X116592033Y-129366438D01*
X116588075Y-129366500D01*
X116560144Y-129366500D01*
X116556229Y-129366995D01*
X116556225Y-129366995D01*
X116556167Y-129367003D01*
X116556139Y-129367006D01*
X116544213Y-129367941D01*
X116543206Y-129367972D01*
X116474502Y-129350076D01*
X116426380Y-129297876D01*
X116414119Y-129227946D01*
X116428771Y-129183410D01*
X116428539Y-129183307D01*
X116429558Y-129181019D01*
X116430212Y-129179029D01*
X116434527Y-129171556D01*
X116493542Y-128989928D01*
X116497867Y-128948783D01*
X116512814Y-128806565D01*
X116513504Y-128800000D01*
X116506775Y-128735980D01*
X116494232Y-128616635D01*
X116494232Y-128616633D01*
X116493542Y-128610072D01*
X116434527Y-128428444D01*
X116339040Y-128263056D01*
X116326923Y-128249598D01*
X116215675Y-128126045D01*
X116215674Y-128126044D01*
X116211253Y-128121134D01*
X116100705Y-128040816D01*
X116062094Y-128012763D01*
X116062093Y-128012762D01*
X116056752Y-128008882D01*
X116050724Y-128006198D01*
X116050722Y-128006197D01*
X115888319Y-127933891D01*
X115888318Y-127933891D01*
X115882288Y-127931206D01*
X115785453Y-127910623D01*
X115701944Y-127892872D01*
X115701939Y-127892872D01*
X115695487Y-127891500D01*
X115504513Y-127891500D01*
X115498061Y-127892872D01*
X115498056Y-127892872D01*
X115414547Y-127910623D01*
X115317712Y-127931206D01*
X115311682Y-127933891D01*
X115311681Y-127933891D01*
X115149279Y-128006197D01*
X115143248Y-128008882D01*
X115137908Y-128012762D01*
X115132705Y-128015766D01*
X115063710Y-128032506D01*
X114994137Y-128007475D01*
X114936549Y-127964315D01*
X114920954Y-127955777D01*
X114800506Y-127910623D01*
X114785251Y-127906996D01*
X114734386Y-127901470D01*
X114727572Y-127901101D01*
X114205715Y-127901101D01*
X114190476Y-127905576D01*
X114189271Y-127906966D01*
X114187600Y-127914649D01*
X114187600Y-128424599D01*
X114167598Y-128492720D01*
X114113942Y-128539213D01*
X114061600Y-128550599D01*
X113878429Y-128550599D01*
X113810308Y-128530597D01*
X113763815Y-128476941D01*
X113753711Y-128406667D01*
X113755308Y-128397819D01*
X113755800Y-128395557D01*
X113755800Y-127919217D01*
X113751325Y-127903978D01*
X113749935Y-127902773D01*
X113742252Y-127901102D01*
X113632414Y-127901102D01*
X113564293Y-127881100D01*
X113517800Y-127827444D01*
X113507696Y-127757170D01*
X113537190Y-127692590D01*
X113556849Y-127674276D01*
X113624949Y-127623238D01*
X113638261Y-127613261D01*
X113664791Y-127577862D01*
X113721650Y-127535347D01*
X113792468Y-127530321D01*
X113831732Y-127546167D01*
X113858741Y-127562815D01*
X113871924Y-127568963D01*
X114026210Y-127620138D01*
X114039586Y-127623005D01*
X114133938Y-127632672D01*
X114140354Y-127633000D01*
X114252885Y-127633000D01*
X114268124Y-127628525D01*
X114269329Y-127627135D01*
X114271000Y-127619452D01*
X114271000Y-126672115D01*
X114266525Y-126656876D01*
X114265135Y-126655671D01*
X114257452Y-126654000D01*
X113826589Y-126654000D01*
X113758468Y-126633998D01*
X113728100Y-126601433D01*
X113725615Y-126603295D01*
X113643642Y-126493919D01*
X113638261Y-126486739D01*
X113521705Y-126399385D01*
X113496623Y-126389982D01*
X113439858Y-126347340D01*
X113415159Y-126280778D01*
X113430367Y-126211429D01*
X113480653Y-126161311D01*
X113540853Y-126146000D01*
X114653000Y-126146000D01*
X114721121Y-126166002D01*
X114767614Y-126219658D01*
X114779000Y-126272000D01*
X114779000Y-127614884D01*
X114783475Y-127630123D01*
X114784865Y-127631328D01*
X114792548Y-127632999D01*
X114909595Y-127632999D01*
X114916114Y-127632662D01*
X115011706Y-127622743D01*
X115025100Y-127619851D01*
X115179284Y-127568412D01*
X115192462Y-127562239D01*
X115330307Y-127476937D01*
X115341708Y-127467901D01*
X115456238Y-127353172D01*
X115463294Y-127344238D01*
X115521212Y-127303177D01*
X115592135Y-127299947D01*
X115653546Y-127335574D01*
X115660346Y-127343407D01*
X115664022Y-127349348D01*
X115789197Y-127474305D01*
X115795427Y-127478145D01*
X115795428Y-127478146D01*
X115932590Y-127562694D01*
X115939762Y-127567115D01*
X116000428Y-127587237D01*
X116101111Y-127620632D01*
X116101113Y-127620632D01*
X116107639Y-127622797D01*
X116114475Y-127623497D01*
X116114478Y-127623498D01*
X116157531Y-127627909D01*
X116212100Y-127633500D01*
X116987900Y-127633500D01*
X116991146Y-127633163D01*
X116991150Y-127633163D01*
X117086808Y-127623238D01*
X117086812Y-127623237D01*
X117093666Y-127622526D01*
X117100202Y-127620345D01*
X117100204Y-127620345D01*
X117232306Y-127576272D01*
X117261446Y-127566550D01*
X117387901Y-127488297D01*
X117405622Y-127477331D01*
X117405623Y-127477330D01*
X117411848Y-127473478D01*
X117417021Y-127468296D01*
X117422755Y-127463751D01*
X117424081Y-127465424D01*
X117477125Y-127436402D01*
X117504011Y-127433500D01*
X118291800Y-127433500D01*
X118359921Y-127453502D01*
X118379147Y-127469843D01*
X118379420Y-127469540D01*
X118384332Y-127473963D01*
X118388747Y-127478866D01*
X118401728Y-127488297D01*
X118512624Y-127568868D01*
X118543248Y-127591118D01*
X118549276Y-127593802D01*
X118549278Y-127593803D01*
X118637683Y-127633163D01*
X118717712Y-127668794D01*
X118811112Y-127688647D01*
X118898056Y-127707128D01*
X118898061Y-127707128D01*
X118904513Y-127708500D01*
X119095487Y-127708500D01*
X119101939Y-127707128D01*
X119101944Y-127707128D01*
X119188888Y-127688647D01*
X119282288Y-127668794D01*
X119362317Y-127633163D01*
X119450722Y-127593803D01*
X119450724Y-127593802D01*
X119456752Y-127591118D01*
X119487377Y-127568868D01*
X119533514Y-127535347D01*
X119611253Y-127478866D01*
X119634091Y-127453502D01*
X119734621Y-127341852D01*
X119734622Y-127341851D01*
X119739040Y-127336944D01*
X119834527Y-127171556D01*
X119893542Y-126989928D01*
X119894501Y-126980809D01*
X119912814Y-126806565D01*
X119913504Y-126800000D01*
X119893542Y-126610072D01*
X119834527Y-126428444D01*
X119739040Y-126263056D01*
X119696221Y-126215500D01*
X119615675Y-126126045D01*
X119615674Y-126126044D01*
X119611253Y-126121134D01*
X119456752Y-126008882D01*
X119450724Y-126006198D01*
X119450722Y-126006197D01*
X119288319Y-125933891D01*
X119288318Y-125933891D01*
X119282288Y-125931206D01*
X119188887Y-125911353D01*
X119101944Y-125892872D01*
X119101939Y-125892872D01*
X119095487Y-125891500D01*
X118904513Y-125891500D01*
X118898061Y-125892872D01*
X118898056Y-125892872D01*
X118811113Y-125911353D01*
X118717712Y-125931206D01*
X118711682Y-125933891D01*
X118711681Y-125933891D01*
X118549278Y-126006197D01*
X118549276Y-126006198D01*
X118543248Y-126008882D01*
X118388747Y-126121134D01*
X118384332Y-126126037D01*
X118379420Y-126130460D01*
X118378295Y-126129211D01*
X118324986Y-126162051D01*
X118291800Y-126166500D01*
X117822000Y-126166500D01*
X117753879Y-126146498D01*
X117707386Y-126092842D01*
X117696000Y-126040500D01*
X117696000Y-125874600D01*
X117695663Y-125871350D01*
X117685738Y-125775692D01*
X117685737Y-125775688D01*
X117685026Y-125768834D01*
X117677178Y-125745309D01*
X117631368Y-125608002D01*
X117629050Y-125601054D01*
X117558222Y-125486597D01*
X117539384Y-125418145D01*
X117560545Y-125350375D01*
X117614986Y-125304804D01*
X117665471Y-125294294D01*
X118997309Y-125295418D01*
X122274106Y-125298184D01*
X122342210Y-125318244D01*
X122388658Y-125371938D01*
X122400000Y-125424184D01*
X122400000Y-133274000D01*
X122379998Y-133342121D01*
X122326342Y-133388614D01*
X122274000Y-133400000D01*
X117245357Y-133400000D01*
X117203274Y-133391972D01*
X117202060Y-133391305D01*
X117182437Y-133386267D01*
X117163734Y-133379863D01*
X117152420Y-133374967D01*
X117152419Y-133374967D01*
X117145145Y-133371819D01*
X117137322Y-133370580D01*
X117137312Y-133370577D01*
X117101476Y-133364901D01*
X117089856Y-133362495D01*
X117054711Y-133353472D01*
X117054710Y-133353472D01*
X117047030Y-133351500D01*
X117026776Y-133351500D01*
X117007065Y-133349949D01*
X116994886Y-133348020D01*
X116987057Y-133346780D01*
X116957786Y-133349547D01*
X116943039Y-133350941D01*
X116931181Y-133351500D01*
X114505768Y-133351500D01*
X114494585Y-133350973D01*
X114487092Y-133349298D01*
X114479166Y-133349547D01*
X114479165Y-133349547D01*
X114419002Y-133351438D01*
X114415044Y-133351500D01*
X114387144Y-133351500D01*
X114383154Y-133352004D01*
X114371320Y-133352936D01*
X114327111Y-133354326D01*
X114319497Y-133356538D01*
X114319492Y-133356539D01*
X114307659Y-133359977D01*
X114288296Y-133363988D01*
X114268203Y-133366526D01*
X114260836Y-133369443D01*
X114260831Y-133369444D01*
X114227092Y-133382802D01*
X114215865Y-133386646D01*
X114187126Y-133394996D01*
X114151971Y-133400000D01*
X105800000Y-133400000D01*
X105800000Y-135274000D01*
X105779998Y-135342121D01*
X105726342Y-135388614D01*
X105674000Y-135400000D01*
X103165482Y-135400000D01*
X103097361Y-135379998D01*
X103050868Y-135326342D01*
X103040764Y-135256068D01*
X103058222Y-135207884D01*
X103137816Y-135078757D01*
X103143963Y-135065576D01*
X103195138Y-134911290D01*
X103198005Y-134897914D01*
X103207672Y-134803562D01*
X103208000Y-134797145D01*
X103208000Y-134672115D01*
X103203525Y-134656876D01*
X103202135Y-134655671D01*
X103194452Y-134654000D01*
X101872000Y-134654000D01*
X101803879Y-134633998D01*
X101757386Y-134580342D01*
X101746000Y-134528000D01*
X101746000Y-134127885D01*
X102254000Y-134127885D01*
X102258475Y-134143124D01*
X102259865Y-134144329D01*
X102267548Y-134146000D01*
X103189884Y-134146000D01*
X103205123Y-134141525D01*
X103206328Y-134140135D01*
X103207999Y-134132452D01*
X103207999Y-134002905D01*
X103207662Y-133996386D01*
X103197743Y-133900794D01*
X103194851Y-133887400D01*
X103143412Y-133733216D01*
X103137239Y-133720038D01*
X103051937Y-133582193D01*
X103042901Y-133570792D01*
X102979912Y-133507912D01*
X102945833Y-133445629D01*
X102950836Y-133374809D01*
X102979757Y-133329721D01*
X103018739Y-133290671D01*
X103027751Y-133279260D01*
X103112816Y-133141257D01*
X103118963Y-133128076D01*
X103170138Y-132973790D01*
X103173005Y-132960414D01*
X103182672Y-132866062D01*
X103183000Y-132859646D01*
X103183000Y-132547115D01*
X103178525Y-132531876D01*
X103177135Y-132530671D01*
X103169452Y-132529000D01*
X102272115Y-132529000D01*
X102256876Y-132533475D01*
X102255671Y-132534865D01*
X102254000Y-132542548D01*
X102254000Y-134127885D01*
X101746000Y-134127885D01*
X101746000Y-132002885D01*
X102254000Y-132002885D01*
X102258475Y-132018124D01*
X102259865Y-132019329D01*
X102267548Y-132021000D01*
X103164884Y-132021000D01*
X103180123Y-132016525D01*
X103181328Y-132015135D01*
X103182999Y-132007452D01*
X103182999Y-131690405D01*
X103182662Y-131683886D01*
X103172743Y-131588294D01*
X103169851Y-131574900D01*
X103118412Y-131420716D01*
X103112239Y-131407538D01*
X103026937Y-131269693D01*
X103017901Y-131258292D01*
X102903171Y-131143761D01*
X102891760Y-131134749D01*
X102753757Y-131049684D01*
X102740576Y-131043537D01*
X102586290Y-130992362D01*
X102572914Y-130989495D01*
X102478562Y-130979828D01*
X102472145Y-130979500D01*
X102272115Y-130979500D01*
X102256876Y-130983975D01*
X102255671Y-130985365D01*
X102254000Y-130993048D01*
X102254000Y-132002885D01*
X101746000Y-132002885D01*
X101746000Y-130997616D01*
X101741525Y-130982377D01*
X101740135Y-130981172D01*
X101732452Y-130979501D01*
X101527905Y-130979501D01*
X101521386Y-130979838D01*
X101425794Y-130989757D01*
X101412400Y-130992649D01*
X101258216Y-131044088D01*
X101245038Y-131050261D01*
X101107193Y-131135563D01*
X101095792Y-131144599D01*
X100981261Y-131259329D01*
X100972249Y-131270740D01*
X100887184Y-131408743D01*
X100881036Y-131421926D01*
X100845593Y-131528783D01*
X100805162Y-131587143D01*
X100739598Y-131614380D01*
X100669716Y-131601846D01*
X100617705Y-131553522D01*
X100600000Y-131489116D01*
X100600000Y-130187644D01*
X100620002Y-130119523D01*
X100673658Y-130073030D01*
X100743932Y-130062926D01*
X100808512Y-130092420D01*
X100845524Y-130147768D01*
X100883450Y-130261446D01*
X100976522Y-130411848D01*
X101101697Y-130536805D01*
X101107927Y-130540645D01*
X101107928Y-130540646D01*
X101245090Y-130625194D01*
X101252262Y-130629615D01*
X101332005Y-130656064D01*
X101413611Y-130683132D01*
X101413613Y-130683132D01*
X101420139Y-130685297D01*
X101426975Y-130685997D01*
X101426978Y-130685998D01*
X101470031Y-130690409D01*
X101524600Y-130696000D01*
X102475400Y-130696000D01*
X102478646Y-130695663D01*
X102478650Y-130695663D01*
X102574308Y-130685738D01*
X102574312Y-130685737D01*
X102581166Y-130685026D01*
X102587702Y-130682845D01*
X102587704Y-130682845D01*
X102735608Y-130633500D01*
X102748946Y-130629050D01*
X102899348Y-130535978D01*
X103024305Y-130410803D01*
X103083740Y-130314382D01*
X103113275Y-130266468D01*
X103113276Y-130266466D01*
X103117115Y-130260238D01*
X103143564Y-130180495D01*
X103170632Y-130098889D01*
X103170632Y-130098887D01*
X103172797Y-130092361D01*
X103183500Y-129987900D01*
X103183500Y-128812100D01*
X103182926Y-128806565D01*
X103173238Y-128713192D01*
X103173237Y-128713188D01*
X103172526Y-128706334D01*
X103166201Y-128687374D01*
X103118868Y-128545502D01*
X103116550Y-128538554D01*
X103023478Y-128388152D01*
X102929413Y-128294251D01*
X102895334Y-128231969D01*
X102895217Y-128190104D01*
X102893542Y-128189928D01*
X102912814Y-128006565D01*
X102913504Y-128000000D01*
X102898064Y-127853099D01*
X102910836Y-127783261D01*
X102927797Y-127759780D01*
X102927097Y-127759227D01*
X102931632Y-127753485D01*
X102936805Y-127748303D01*
X102939602Y-127743765D01*
X102996853Y-127703176D01*
X103067776Y-127699946D01*
X103129187Y-127735572D01*
X103136562Y-127744068D01*
X103144598Y-127754207D01*
X103259329Y-127868739D01*
X103270740Y-127877751D01*
X103408743Y-127962816D01*
X103421924Y-127968963D01*
X103576210Y-128020138D01*
X103589586Y-128023005D01*
X103683938Y-128032672D01*
X103690354Y-128033000D01*
X103802885Y-128033000D01*
X103818124Y-128028525D01*
X103819329Y-128027135D01*
X103821000Y-128019452D01*
X103821000Y-128014884D01*
X104329000Y-128014884D01*
X104333475Y-128030123D01*
X104334865Y-128031328D01*
X104342548Y-128032999D01*
X104459595Y-128032999D01*
X104466114Y-128032662D01*
X104561706Y-128022743D01*
X104575100Y-128019851D01*
X104729284Y-127968412D01*
X104742462Y-127962239D01*
X104880307Y-127876937D01*
X104891708Y-127867901D01*
X105006239Y-127753171D01*
X105015251Y-127741760D01*
X105100316Y-127603757D01*
X105106463Y-127590576D01*
X105157638Y-127436290D01*
X105160505Y-127422914D01*
X105170172Y-127328562D01*
X105170500Y-127322146D01*
X105170500Y-127072115D01*
X105166025Y-127056876D01*
X105164635Y-127055671D01*
X105156952Y-127054000D01*
X104347115Y-127054000D01*
X104331876Y-127058475D01*
X104330671Y-127059865D01*
X104329000Y-127067548D01*
X104329000Y-128014884D01*
X103821000Y-128014884D01*
X103821000Y-126527885D01*
X104329000Y-126527885D01*
X104333475Y-126543124D01*
X104334865Y-126544329D01*
X104342548Y-126546000D01*
X105152384Y-126546000D01*
X105167623Y-126541525D01*
X105168828Y-126540135D01*
X105170499Y-126532452D01*
X105170499Y-126277905D01*
X105170162Y-126271386D01*
X105160243Y-126175794D01*
X105157351Y-126162400D01*
X105105912Y-126008216D01*
X105099739Y-125995038D01*
X105014437Y-125857193D01*
X105005401Y-125845792D01*
X104890671Y-125731261D01*
X104879260Y-125722249D01*
X104741257Y-125637184D01*
X104728076Y-125631037D01*
X104573790Y-125579862D01*
X104560414Y-125576995D01*
X104466062Y-125567328D01*
X104459645Y-125567000D01*
X104347115Y-125567000D01*
X104331876Y-125571475D01*
X104330671Y-125572865D01*
X104329000Y-125580548D01*
X104329000Y-126527885D01*
X103821000Y-126527885D01*
X103821000Y-125585116D01*
X103816525Y-125569877D01*
X103815135Y-125568672D01*
X103807452Y-125567001D01*
X103690405Y-125567001D01*
X103683886Y-125567338D01*
X103588294Y-125577257D01*
X103574900Y-125580149D01*
X103420716Y-125631588D01*
X103407538Y-125637761D01*
X103269693Y-125723063D01*
X103258292Y-125732099D01*
X103143762Y-125846828D01*
X103136706Y-125855762D01*
X103078788Y-125896823D01*
X103007865Y-125900053D01*
X102946454Y-125864426D01*
X102939654Y-125856593D01*
X102935978Y-125850652D01*
X102810803Y-125725695D01*
X102730183Y-125676000D01*
X102666468Y-125636725D01*
X102666466Y-125636724D01*
X102660238Y-125632885D01*
X102545484Y-125594823D01*
X102498889Y-125579368D01*
X102498887Y-125579368D01*
X102492361Y-125577203D01*
X102485525Y-125576503D01*
X102485522Y-125576502D01*
X102442469Y-125572091D01*
X102387900Y-125566500D01*
X101612100Y-125566500D01*
X101608854Y-125566837D01*
X101608850Y-125566837D01*
X101513192Y-125576762D01*
X101513188Y-125576763D01*
X101506334Y-125577474D01*
X101499798Y-125579655D01*
X101499796Y-125579655D01*
X101367904Y-125623658D01*
X101338554Y-125633450D01*
X101188152Y-125726522D01*
X101063195Y-125851697D01*
X101059355Y-125857927D01*
X101059354Y-125857928D01*
X100989313Y-125971556D01*
X100970385Y-126002262D01*
X100968081Y-126009209D01*
X100917386Y-126162051D01*
X100914703Y-126170139D01*
X100904000Y-126274600D01*
X100904000Y-127325400D01*
X100904337Y-127328646D01*
X100904337Y-127328650D01*
X100914118Y-127422914D01*
X100914974Y-127431166D01*
X100917155Y-127437702D01*
X100917155Y-127437704D01*
X100939237Y-127503891D01*
X100970950Y-127598946D01*
X101064022Y-127749348D01*
X101069204Y-127754521D01*
X101073751Y-127760258D01*
X101071635Y-127761935D01*
X101099701Y-127813221D01*
X101101916Y-127853288D01*
X101086496Y-128000000D01*
X101087186Y-128006565D01*
X101106458Y-128189928D01*
X101103929Y-128190194D01*
X101099387Y-128249598D01*
X101070722Y-128294004D01*
X101039426Y-128325355D01*
X100975695Y-128389197D01*
X100971855Y-128395427D01*
X100971854Y-128395428D01*
X100921609Y-128476941D01*
X100882885Y-128539762D01*
X100858750Y-128612528D01*
X100845593Y-128652195D01*
X100805163Y-128710555D01*
X100739599Y-128737792D01*
X100669717Y-128725259D01*
X100617705Y-128676934D01*
X100600000Y-128612528D01*
X100600000Y-125405999D01*
X100620002Y-125337878D01*
X100673658Y-125291385D01*
X100726106Y-125279999D01*
X109103680Y-125287069D01*
G37*
%TD.AperFunction*%
%TA.AperFunction,Conductor*%
G36*
X113092121Y-125570002D02*
G01*
X113138614Y-125623658D01*
X113150000Y-125676000D01*
X113150000Y-126200000D01*
X113149448Y-126200000D01*
X113149447Y-126251000D01*
X113111062Y-126310725D01*
X113046481Y-126340218D01*
X113028551Y-126341500D01*
X112876000Y-126341500D01*
X112807879Y-126321498D01*
X112761386Y-126267842D01*
X112750000Y-126215500D01*
X112750000Y-125676000D01*
X112770002Y-125607879D01*
X112823658Y-125561386D01*
X112876000Y-125550000D01*
X113024000Y-125550000D01*
X113092121Y-125570002D01*
G37*
%TD.AperFunction*%
%TD*%
M02*
