%TF.GenerationSoftware,KiCad,Pcbnew,6.0.11-2627ca5db0~126~ubuntu22.04.1*%
%TF.CreationDate,2023-02-28T18:34:57-05:00*%
%TF.ProjectId,canbus-thermistor,63616e62-7573-42d7-9468-65726d697374,1.0*%
%TF.SameCoordinates,Original*%
%TF.FileFunction,Copper,L4,Bot*%
%TF.FilePolarity,Positive*%
%FSLAX46Y46*%
G04 Gerber Fmt 4.6, Leading zero omitted, Abs format (unit mm)*
G04 Created by KiCad (PCBNEW 6.0.11-2627ca5db0~126~ubuntu22.04.1) date 2023-02-28 18:34:57*
%MOMM*%
%LPD*%
G01*
G04 APERTURE LIST*
G04 Aperture macros list*
%AMRoundRect*
0 Rectangle with rounded corners*
0 $1 Rounding radius*
0 $2 $3 $4 $5 $6 $7 $8 $9 X,Y pos of 4 corners*
0 Add a 4 corners polygon primitive as box body*
4,1,4,$2,$3,$4,$5,$6,$7,$8,$9,$2,$3,0*
0 Add four circle primitives for the rounded corners*
1,1,$1+$1,$2,$3*
1,1,$1+$1,$4,$5*
1,1,$1+$1,$6,$7*
1,1,$1+$1,$8,$9*
0 Add four rect primitives between the rounded corners*
20,1,$1+$1,$2,$3,$4,$5,0*
20,1,$1+$1,$4,$5,$6,$7,0*
20,1,$1+$1,$6,$7,$8,$9,0*
20,1,$1+$1,$8,$9,$2,$3,0*%
%AMFreePoly0*
4,1,6,1.000000,0.000000,0.500000,-0.750000,-0.500000,-0.750000,-0.500000,0.750000,0.500000,0.750000,1.000000,0.000000,1.000000,0.000000,$1*%
%AMFreePoly1*
4,1,6,0.500000,-0.750000,-0.650000,-0.750000,-0.150000,0.000000,-0.650000,0.750000,0.500000,0.750000,0.500000,-0.750000,0.500000,-0.750000,$1*%
G04 Aperture macros list end*
%TA.AperFunction,ComponentPad*%
%ADD10R,1.700000X1.700000*%
%TD*%
%TA.AperFunction,ComponentPad*%
%ADD11O,1.700000X1.700000*%
%TD*%
%TA.AperFunction,ComponentPad*%
%ADD12R,2.100000X2.100000*%
%TD*%
%TA.AperFunction,ComponentPad*%
%ADD13C,2.100000*%
%TD*%
%TA.AperFunction,ComponentPad*%
%ADD14C,1.879600*%
%TD*%
%TA.AperFunction,ComponentPad*%
%ADD15R,1.879600X1.879600*%
%TD*%
%TA.AperFunction,ComponentPad*%
%ADD16O,0.950000X1.250000*%
%TD*%
%TA.AperFunction,ComponentPad*%
%ADD17O,1.550000X0.890000*%
%TD*%
%TA.AperFunction,SMDPad,CuDef*%
%ADD18RoundRect,0.250000X-0.337500X-0.475000X0.337500X-0.475000X0.337500X0.475000X-0.337500X0.475000X0*%
%TD*%
%TA.AperFunction,SMDPad,CuDef*%
%ADD19RoundRect,0.150000X-0.150000X0.587500X-0.150000X-0.587500X0.150000X-0.587500X0.150000X0.587500X0*%
%TD*%
%TA.AperFunction,SMDPad,CuDef*%
%ADD20RoundRect,0.250000X0.350000X0.450000X-0.350000X0.450000X-0.350000X-0.450000X0.350000X-0.450000X0*%
%TD*%
%TA.AperFunction,SMDPad,CuDef*%
%ADD21RoundRect,0.250000X0.475000X-0.337500X0.475000X0.337500X-0.475000X0.337500X-0.475000X-0.337500X0*%
%TD*%
%TA.AperFunction,SMDPad,CuDef*%
%ADD22RoundRect,0.250000X0.450000X-0.350000X0.450000X0.350000X-0.450000X0.350000X-0.450000X-0.350000X0*%
%TD*%
%TA.AperFunction,SMDPad,CuDef*%
%ADD23RoundRect,0.250000X-0.350000X-0.450000X0.350000X-0.450000X0.350000X0.450000X-0.350000X0.450000X0*%
%TD*%
%TA.AperFunction,SMDPad,CuDef*%
%ADD24RoundRect,0.250000X-0.475000X0.337500X-0.475000X-0.337500X0.475000X-0.337500X0.475000X0.337500X0*%
%TD*%
%TA.AperFunction,SMDPad,CuDef*%
%ADD25RoundRect,0.150000X-0.587500X-0.150000X0.587500X-0.150000X0.587500X0.150000X-0.587500X0.150000X0*%
%TD*%
%TA.AperFunction,SMDPad,CuDef*%
%ADD26FreePoly0,270.000000*%
%TD*%
%TA.AperFunction,SMDPad,CuDef*%
%ADD27FreePoly1,270.000000*%
%TD*%
%TA.AperFunction,ViaPad*%
%ADD28C,0.800000*%
%TD*%
%TA.AperFunction,Conductor*%
%ADD29C,0.250000*%
%TD*%
G04 APERTURE END LIST*
D10*
%TO.P,JP1,1,A*%
%TO.N,CAN_RX*%
X73400000Y-97140000D03*
D11*
%TO.P,JP1,2,C*%
%TO.N,Net-(JP1-Pad2)*%
X73400000Y-94600000D03*
%TO.P,JP1,3,B*%
%TO.N,USB_D-*%
X73400000Y-92060000D03*
%TD*%
D12*
%TO.P,J5,1,Pin_1*%
%TO.N,+BATT*%
X59625000Y-94100000D03*
D13*
%TO.P,J5,2,Pin_2*%
%TO.N,CANH*%
X62165000Y-94100000D03*
%TO.P,J5,3,Pin_3*%
%TO.N,CANL*%
X64705000Y-94100000D03*
%TO.P,J5,4,Pin_4*%
%TO.N,GND*%
X67245000Y-94100000D03*
%TD*%
D10*
%TO.P,J6,1,Pin_1*%
%TO.N,SWDIO*%
X87490000Y-96350000D03*
D11*
%TO.P,J6,2,Pin_2*%
%TO.N,GND*%
X84950000Y-96350000D03*
%TO.P,J6,3,Pin_3*%
%TO.N,SWDCLK*%
X82410000Y-96350000D03*
%TD*%
D14*
%TO.P,S1,1,1*%
%TO.N,+3V3*%
X96435600Y-92998800D03*
%TO.P,S1,2,1*%
%TO.N,unconnected-(S1-Pad2)*%
X96435600Y-99501200D03*
%TO.P,S1,3,2*%
%TO.N,Net-(R1-Pad1)*%
X91914400Y-92998800D03*
%TO.P,S1,4,2*%
%TO.N,unconnected-(S1-Pad4)*%
X91914400Y-99501200D03*
%TD*%
D15*
%TO.P,J2,1,DTR*%
%TO.N,unconnected-(J2-Pad1)*%
X96500000Y-70990000D03*
D14*
%TO.P,J2,2,RXD*%
%TO.N,RXD2*%
X96500000Y-73530000D03*
%TO.P,J2,3,TXD*%
%TO.N,TXD2*%
X96500000Y-76070000D03*
%TO.P,J2,4,VCC*%
%TO.N,Net-(JP3-Pad1)*%
X96500000Y-78610000D03*
%TO.P,J2,5,CTS*%
%TO.N,unconnected-(J2-Pad5)*%
X96500000Y-81150000D03*
%TO.P,J2,6,GND*%
%TO.N,GND*%
X96500000Y-83690000D03*
%TD*%
D12*
%TO.P,J4,1,Pin_1*%
%TO.N,+BATT*%
X59660000Y-78075000D03*
D13*
%TO.P,J4,2,Pin_2*%
%TO.N,CANH*%
X62200000Y-78075000D03*
%TO.P,J4,3,Pin_3*%
%TO.N,CANL*%
X64740000Y-78075000D03*
%TO.P,J4,4,Pin_4*%
%TO.N,GND*%
X67280000Y-78075000D03*
%TD*%
D10*
%TO.P,U3,1,Vout*%
%TO.N,+5V*%
X75247300Y-81002600D03*
D11*
%TO.P,U3,2,GND*%
%TO.N,GND*%
X75247300Y-78462600D03*
%TO.P,U3,3,Vin*%
%TO.N,+12V*%
X75247300Y-75922600D03*
%TO.P,U3,4,EN*%
%TO.N,unconnected-(U3-Pad4)*%
X75247300Y-73382600D03*
%TD*%
D14*
%TO.P,S2,1,1*%
%TO.N,GND*%
X103960600Y-90323800D03*
%TO.P,S2,2,1*%
%TO.N,unconnected-(S2-Pad2)*%
X103960600Y-96826200D03*
%TO.P,S2,3,2*%
%TO.N,~{RESET}*%
X99439400Y-90323800D03*
%TO.P,S2,4,2*%
%TO.N,unconnected-(S2-Pad4)*%
X99439400Y-96826200D03*
%TD*%
D16*
%TO.P,J1,6,Shield*%
%TO.N,GND*%
X59210000Y-83550000D03*
D17*
X56510000Y-82550000D03*
X56510000Y-89550000D03*
D16*
X59210000Y-88550000D03*
%TD*%
D12*
%TO.P,J3,1,Pin_1*%
%TO.N,VTHERM*%
X103350000Y-77425000D03*
D13*
%TO.P,J3,2,Pin_2*%
%TO.N,GND*%
X105890000Y-77425000D03*
%TD*%
D10*
%TO.P,JP2,1,A*%
%TO.N,CAN_TX*%
X78525000Y-97425000D03*
D11*
%TO.P,JP2,2,C*%
%TO.N,Net-(JP2-Pad2)*%
X78525000Y-94885000D03*
%TO.P,JP2,3,B*%
%TO.N,USB_D+*%
X78525000Y-92345000D03*
%TD*%
D18*
%TO.P,C7,1*%
%TO.N,+5V*%
X77787500Y-82300000D03*
%TO.P,C7,2*%
%TO.N,GND*%
X79862500Y-82300000D03*
%TD*%
D19*
%TO.P,U1,1,GND*%
%TO.N,GND*%
X65775000Y-81987500D03*
%TO.P,U1,2,VO*%
%TO.N,+3V3*%
X67675000Y-81987500D03*
%TO.P,U1,3,VI*%
%TO.N,+5VP*%
X66725000Y-83862500D03*
%TD*%
D20*
%TO.P,R1,1*%
%TO.N,Net-(R1-Pad1)*%
X88750000Y-93250000D03*
%TO.P,R1,2*%
%TO.N,GND*%
X86750000Y-93250000D03*
%TD*%
D21*
%TO.P,C1,1*%
%TO.N,GND*%
X83450000Y-90887500D03*
%TO.P,C1,2*%
%TO.N,+3V3*%
X83450000Y-88812500D03*
%TD*%
D22*
%TO.P,R7,1*%
%TO.N,+3V3*%
X103375000Y-82275000D03*
%TO.P,R7,2*%
%TO.N,VTHERM*%
X103375000Y-80275000D03*
%TD*%
D21*
%TO.P,C4,1*%
%TO.N,+3V3*%
X69900000Y-78712500D03*
%TO.P,C4,2*%
%TO.N,GND*%
X69900000Y-76637500D03*
%TD*%
D23*
%TO.P,R3,1*%
%TO.N,+12V*%
X79225000Y-75950000D03*
%TO.P,R3,2*%
%TO.N,VBAT_MON*%
X81225000Y-75950000D03*
%TD*%
D24*
%TO.P,C2,1*%
%TO.N,+5VP*%
X68425000Y-83950000D03*
%TO.P,C2,2*%
%TO.N,GND*%
X68425000Y-86025000D03*
%TD*%
D25*
%TO.P,Q2,1,G*%
%TO.N,VBUS*%
X61437500Y-85525000D03*
%TO.P,Q2,2,S*%
X61437500Y-83625000D03*
%TO.P,Q2,3,D*%
%TO.N,+5VP*%
X63312500Y-84575000D03*
%TD*%
D23*
%TO.P,R4,1*%
%TO.N,VBAT_MON*%
X83775000Y-75925000D03*
%TO.P,R4,2*%
%TO.N,GND*%
X85775000Y-75925000D03*
%TD*%
D19*
%TO.P,Q1,1,G*%
%TO.N,+5V*%
X70600000Y-81000000D03*
%TO.P,Q1,2,S*%
X72500000Y-81000000D03*
%TO.P,Q1,3,D*%
%TO.N,+5VP*%
X71550000Y-82875000D03*
%TD*%
D26*
%TO.P,JP3,1,A*%
%TO.N,Net-(JP3-Pad1)*%
X93475000Y-78700000D03*
D27*
%TO.P,JP3,2,B*%
%TO.N,+3V3*%
X93475000Y-80150000D03*
%TD*%
D23*
%TO.P,R2,1*%
%TO.N,+3V3*%
X95000000Y-90325000D03*
%TO.P,R2,2*%
%TO.N,~{RESET}*%
X97000000Y-90325000D03*
%TD*%
D28*
%TO.N,GND*%
X80450000Y-88350000D03*
X72725000Y-70575000D03*
X93350000Y-91850000D03*
X80600000Y-85425000D03*
X75300000Y-86775000D03*
%TO.N,+3V3*%
X78150000Y-80600000D03*
X85100000Y-88800000D03*
X93575000Y-81950000D03*
X78750000Y-89250000D03*
X103450000Y-83900000D03*
X68975000Y-82275000D03*
%TO.N,VBUS*%
X57884502Y-84775000D03*
%TO.N,USB_D-*%
X63750000Y-85825000D03*
%TO.N,USB_D+*%
X63050000Y-86875000D03*
%TO.N,VTHERM*%
X91125000Y-87150000D03*
%TO.N,CAN_RX*%
X71525000Y-84850000D03*
%TO.N,Net-(JP1-Pad2)*%
X80025000Y-89475000D03*
%TO.N,CAN_TX*%
X75400000Y-88550000D03*
%TO.N,Net-(JP2-Pad2)*%
X80950000Y-90450000D03*
%TO.N,VBAT_MON*%
X82550000Y-75950000D03*
X86125000Y-87100000D03*
%TO.N,CAN_STBY*%
X70550000Y-87450000D03*
X79650000Y-87500000D03*
%TO.N,TXD2*%
X90600000Y-86275000D03*
%TO.N,RXD2*%
X89990592Y-85482770D03*
%TO.N,~{RESET}*%
X90475000Y-90300000D03*
%TD*%
D29*
%TO.N,+3V3*%
X83462500Y-88800000D02*
X83450000Y-88812500D01*
X68687500Y-81987500D02*
X68975000Y-82275000D01*
X85100000Y-88800000D02*
X83462500Y-88800000D01*
X103375000Y-82275000D02*
X103375000Y-83825000D01*
X67675000Y-81987500D02*
X68687500Y-81987500D01*
X68975000Y-79650000D02*
X68975000Y-82275000D01*
X103375000Y-83825000D02*
X103450000Y-83900000D01*
X69900000Y-78725000D02*
X68975000Y-79650000D01*
X95000000Y-90325000D02*
X95000000Y-91563200D01*
X93475000Y-80150000D02*
X93475000Y-81850000D01*
X93475000Y-81850000D02*
X93575000Y-81950000D01*
X95000000Y-91563200D02*
X96435600Y-92998800D01*
X69900000Y-78712500D02*
X69900000Y-78725000D01*
%TO.N,+5VP*%
X63312500Y-84575000D02*
X64200000Y-84575000D01*
X64200000Y-84575000D02*
X65000000Y-83775000D01*
X68425000Y-83950000D02*
X69300000Y-83950000D01*
X65000000Y-83775000D02*
X66675000Y-83775000D01*
X70375000Y-82875000D02*
X71550000Y-82875000D01*
X69300000Y-83950000D02*
X70375000Y-82875000D01*
X68337500Y-83862500D02*
X68425000Y-83950000D01*
X66725000Y-83862500D02*
X68337500Y-83862500D01*
%TO.N,+12V*%
X79197600Y-75922600D02*
X75247300Y-75922600D01*
X79225000Y-75950000D02*
X79197600Y-75922600D01*
%TO.N,+5V*%
X77787500Y-82300000D02*
X76490100Y-81002600D01*
X72500000Y-81000000D02*
X72502600Y-81002600D01*
X72500000Y-81000000D02*
X70600000Y-81000000D01*
X76490100Y-81002600D02*
X75247300Y-81002600D01*
X72502600Y-81002600D02*
X75247300Y-81002600D01*
%TO.N,VBUS*%
X57884502Y-84775000D02*
X60125000Y-84775000D01*
X60125000Y-84775000D02*
X61275000Y-83625000D01*
X61437500Y-85525000D02*
X61437500Y-83625000D01*
X61275000Y-83625000D02*
X61437500Y-83625000D01*
%TO.N,VTHERM*%
X103375000Y-80275000D02*
X103350000Y-80250000D01*
X103350000Y-80250000D02*
X103350000Y-77425000D01*
%TO.N,Net-(R1-Pad1)*%
X89001200Y-92998800D02*
X91914400Y-92998800D01*
X88750000Y-93250000D02*
X89001200Y-92998800D01*
%TO.N,VBAT_MON*%
X81225000Y-75950000D02*
X83750000Y-75950000D01*
X83750000Y-75950000D02*
X83775000Y-75925000D01*
%TO.N,~{RESET}*%
X99438200Y-90325000D02*
X99439400Y-90323800D01*
X97000000Y-90325000D02*
X99438200Y-90325000D01*
%TO.N,Net-(JP3-Pad1)*%
X93565000Y-78610000D02*
X96500000Y-78610000D01*
X93475000Y-78700000D02*
X93565000Y-78610000D01*
%TD*%
%TA.AperFunction,Conductor*%
%TO.N,GND*%
G36*
X99961288Y-69127468D02*
G01*
X99976121Y-69129778D01*
X99976125Y-69129778D01*
X99984994Y-69131159D01*
X100008118Y-69128135D01*
X100028399Y-69127135D01*
X100583290Y-69144571D01*
X100591190Y-69145068D01*
X100925772Y-69176694D01*
X101176940Y-69200436D01*
X101184776Y-69201426D01*
X101505358Y-69252200D01*
X101765890Y-69293463D01*
X101773666Y-69294946D01*
X102347862Y-69423292D01*
X102355528Y-69425261D01*
X102756319Y-69541700D01*
X102779571Y-69548455D01*
X102920513Y-69589402D01*
X102928030Y-69591844D01*
X103267511Y-69714064D01*
X103481618Y-69791147D01*
X103488977Y-69794061D01*
X104028934Y-70027719D01*
X104036096Y-70031089D01*
X104036116Y-70031099D01*
X104560326Y-70298195D01*
X104567247Y-70301999D01*
X105073704Y-70601514D01*
X105080367Y-70605743D01*
X105080387Y-70605757D01*
X105566975Y-70936440D01*
X105573379Y-70941092D01*
X106038283Y-71301707D01*
X106044382Y-71306753D01*
X106485706Y-71695829D01*
X106491476Y-71701247D01*
X106907503Y-72117272D01*
X106912922Y-72123042D01*
X107195228Y-72443252D01*
X107302018Y-72564381D01*
X107307063Y-72570481D01*
X107667664Y-73035363D01*
X107672317Y-73041766D01*
X107765262Y-73178529D01*
X107976505Y-73489361D01*
X108003025Y-73528384D01*
X108007261Y-73535060D01*
X108283187Y-74001620D01*
X108306760Y-74041480D01*
X108310568Y-74048407D01*
X108469253Y-74359840D01*
X108577686Y-74572650D01*
X108581055Y-74579809D01*
X108810026Y-75108925D01*
X108814720Y-75119773D01*
X108817632Y-75127128D01*
X109008563Y-75657452D01*
X109016933Y-75680701D01*
X109019378Y-75688226D01*
X109162799Y-76181876D01*
X109183529Y-76253229D01*
X109185494Y-76260886D01*
X109212529Y-76381829D01*
X109313838Y-76835057D01*
X109315322Y-76842832D01*
X109379511Y-77248091D01*
X109395689Y-77350230D01*
X109407366Y-77423956D01*
X109408357Y-77431804D01*
X109409180Y-77440505D01*
X109463728Y-78017550D01*
X109464225Y-78025450D01*
X109481416Y-78572430D01*
X109479978Y-78595771D01*
X109478958Y-78602319D01*
X109478958Y-78602325D01*
X109477577Y-78611194D01*
X109478741Y-78620096D01*
X109478741Y-78620098D01*
X109481704Y-78642753D01*
X109482768Y-78659091D01*
X109482768Y-93568101D01*
X109481268Y-93587486D01*
X109478958Y-93602319D01*
X109478958Y-93602323D01*
X109477577Y-93611192D01*
X109480379Y-93632617D01*
X109480599Y-93634302D01*
X109481601Y-93654597D01*
X109464163Y-94209486D01*
X109463666Y-94217385D01*
X109424704Y-94629570D01*
X109409566Y-94789715D01*
X109408298Y-94803125D01*
X109407307Y-94810970D01*
X109378714Y-94991500D01*
X109315265Y-95392100D01*
X109313786Y-95399856D01*
X109185432Y-95974073D01*
X109183475Y-95981694D01*
X109019888Y-96544767D01*
X109019326Y-96546701D01*
X109016884Y-96554217D01*
X108948124Y-96745205D01*
X108817583Y-97107797D01*
X108814669Y-97115156D01*
X108623865Y-97556081D01*
X108597749Y-97616433D01*
X108581009Y-97655116D01*
X108577646Y-97662264D01*
X108398761Y-98013344D01*
X108310531Y-98186504D01*
X108306718Y-98193440D01*
X108007221Y-98699863D01*
X108002979Y-98706547D01*
X107954693Y-98777598D01*
X107777809Y-99037875D01*
X107672279Y-99193157D01*
X107667632Y-99199553D01*
X107307007Y-99664469D01*
X107301985Y-99670538D01*
X106979627Y-100036182D01*
X106912888Y-100111882D01*
X106907469Y-100117652D01*
X106491452Y-100533669D01*
X106485683Y-100539087D01*
X106044338Y-100928185D01*
X106038269Y-100933207D01*
X105885778Y-101051491D01*
X105573360Y-101293827D01*
X105566957Y-101298479D01*
X105080347Y-101629179D01*
X105073663Y-101633421D01*
X104567240Y-101932918D01*
X104560306Y-101936730D01*
X104036064Y-102203846D01*
X104028916Y-102207209D01*
X103488956Y-102440869D01*
X103481597Y-102443783D01*
X103204813Y-102543431D01*
X102928017Y-102643084D01*
X102920513Y-102645522D01*
X102355494Y-102809675D01*
X102347873Y-102811632D01*
X101773656Y-102939986D01*
X101765900Y-102941465D01*
X101431794Y-102994382D01*
X101184770Y-103033507D01*
X101176931Y-103034497D01*
X101011993Y-103050088D01*
X100591185Y-103089866D01*
X100583286Y-103090363D01*
X100035968Y-103107563D01*
X100012626Y-103106125D01*
X100006418Y-103105158D01*
X100006413Y-103105158D01*
X99997544Y-103103777D01*
X99988642Y-103104941D01*
X99988640Y-103104941D01*
X99974434Y-103106799D01*
X99965982Y-103107904D01*
X99949647Y-103108968D01*
X65040635Y-103108968D01*
X65021250Y-103107468D01*
X65006417Y-103105158D01*
X65006413Y-103105158D01*
X64997544Y-103103777D01*
X64988642Y-103104941D01*
X64988640Y-103104941D01*
X64980844Y-103105961D01*
X64974431Y-103106799D01*
X64954139Y-103107801D01*
X64399250Y-103090363D01*
X64391350Y-103089866D01*
X64054857Y-103058058D01*
X63805603Y-103034496D01*
X63797767Y-103033506D01*
X63216645Y-102941466D01*
X63208877Y-102939983D01*
X62634687Y-102811636D01*
X62627020Y-102809668D01*
X62356581Y-102731098D01*
X62062024Y-102645521D01*
X62054521Y-102643083D01*
X61500925Y-102443777D01*
X61493597Y-102440875D01*
X60953606Y-102207200D01*
X60946474Y-102203844D01*
X60422233Y-101936730D01*
X60415297Y-101932917D01*
X60347544Y-101892848D01*
X59908859Y-101633411D01*
X59902207Y-101629189D01*
X59415574Y-101298473D01*
X59409185Y-101293831D01*
X58944269Y-100933206D01*
X58938200Y-100928184D01*
X58496856Y-100539087D01*
X58491086Y-100533668D01*
X58075069Y-100117651D01*
X58069650Y-100111881D01*
X57680567Y-99670552D01*
X57675521Y-99664453D01*
X57521348Y-99465694D01*
X90461570Y-99465694D01*
X90461867Y-99470846D01*
X90461867Y-99470850D01*
X90467902Y-99575513D01*
X90475279Y-99703455D01*
X90476416Y-99708501D01*
X90476417Y-99708507D01*
X90509511Y-99855356D01*
X90527637Y-99935785D01*
X90529579Y-99940567D01*
X90529580Y-99940571D01*
X90599142Y-100111881D01*
X90617237Y-100156444D01*
X90741674Y-100359506D01*
X90897604Y-100539517D01*
X91080842Y-100691644D01*
X91085294Y-100694246D01*
X91085299Y-100694249D01*
X91183733Y-100751769D01*
X91286465Y-100811801D01*
X91508952Y-100896760D01*
X91514018Y-100897791D01*
X91514019Y-100897791D01*
X91568356Y-100908846D01*
X91742328Y-100944241D01*
X91876521Y-100949162D01*
X91975160Y-100952779D01*
X91975164Y-100952779D01*
X91980324Y-100952968D01*
X91985444Y-100952312D01*
X91985446Y-100952312D01*
X92211423Y-100923364D01*
X92211424Y-100923364D01*
X92216551Y-100922707D01*
X92299600Y-100897791D01*
X92439716Y-100855754D01*
X92439717Y-100855753D01*
X92444662Y-100854270D01*
X92658533Y-100749495D01*
X92662736Y-100746497D01*
X92662741Y-100746494D01*
X92848216Y-100614196D01*
X92848218Y-100614194D01*
X92852420Y-100611197D01*
X93021116Y-100443089D01*
X93160090Y-100249686D01*
X93206174Y-100156444D01*
X93263317Y-100040824D01*
X93263318Y-100040822D01*
X93265611Y-100036182D01*
X93334843Y-99808311D01*
X93349328Y-99698286D01*
X93365492Y-99575513D01*
X93365492Y-99575509D01*
X93365929Y-99572192D01*
X93367664Y-99501200D01*
X93364745Y-99465694D01*
X94982770Y-99465694D01*
X94983067Y-99470846D01*
X94983067Y-99470850D01*
X94989102Y-99575513D01*
X94996479Y-99703455D01*
X94997616Y-99708501D01*
X94997617Y-99708507D01*
X95030711Y-99855356D01*
X95048837Y-99935785D01*
X95050779Y-99940567D01*
X95050780Y-99940571D01*
X95120342Y-100111881D01*
X95138437Y-100156444D01*
X95262874Y-100359506D01*
X95418804Y-100539517D01*
X95602042Y-100691644D01*
X95606494Y-100694246D01*
X95606499Y-100694249D01*
X95704933Y-100751769D01*
X95807665Y-100811801D01*
X96030152Y-100896760D01*
X96035218Y-100897791D01*
X96035219Y-100897791D01*
X96089556Y-100908846D01*
X96263528Y-100944241D01*
X96397721Y-100949162D01*
X96496360Y-100952779D01*
X96496364Y-100952779D01*
X96501524Y-100952968D01*
X96506644Y-100952312D01*
X96506646Y-100952312D01*
X96732623Y-100923364D01*
X96732624Y-100923364D01*
X96737751Y-100922707D01*
X96820800Y-100897791D01*
X96960916Y-100855754D01*
X96960917Y-100855753D01*
X96965862Y-100854270D01*
X97179733Y-100749495D01*
X97183936Y-100746497D01*
X97183941Y-100746494D01*
X97369416Y-100614196D01*
X97369418Y-100614194D01*
X97373620Y-100611197D01*
X97542316Y-100443089D01*
X97681290Y-100249686D01*
X97727374Y-100156444D01*
X97784517Y-100040824D01*
X97784518Y-100040822D01*
X97786811Y-100036182D01*
X97856043Y-99808311D01*
X97870528Y-99698286D01*
X97886692Y-99575513D01*
X97886692Y-99575509D01*
X97887129Y-99572192D01*
X97888864Y-99501200D01*
X97869350Y-99263844D01*
X97811331Y-99032863D01*
X97716367Y-98814459D01*
X97699294Y-98788067D01*
X97589816Y-98618842D01*
X97587006Y-98614498D01*
X97426724Y-98438350D01*
X97422673Y-98435151D01*
X97422669Y-98435147D01*
X97243878Y-98293947D01*
X97243873Y-98293944D01*
X97239824Y-98290746D01*
X97235308Y-98288253D01*
X97235305Y-98288251D01*
X97035850Y-98178146D01*
X97035846Y-98178144D01*
X97031326Y-98175649D01*
X97026457Y-98173925D01*
X97026453Y-98173923D01*
X96811705Y-98097876D01*
X96811701Y-98097875D01*
X96806830Y-98096150D01*
X96801740Y-98095243D01*
X96801735Y-98095242D01*
X96674414Y-98072564D01*
X96572364Y-98054386D01*
X96483237Y-98053297D01*
X96339395Y-98051539D01*
X96339393Y-98051539D01*
X96334225Y-98051476D01*
X96098809Y-98087500D01*
X95872438Y-98161489D01*
X95867846Y-98163879D01*
X95867847Y-98163879D01*
X95714146Y-98243891D01*
X95661190Y-98271458D01*
X95657057Y-98274561D01*
X95657054Y-98274563D01*
X95474875Y-98411347D01*
X95470740Y-98414452D01*
X95306202Y-98586631D01*
X95303288Y-98590903D01*
X95303287Y-98590904D01*
X95228960Y-98699863D01*
X95171994Y-98783372D01*
X95071722Y-98999391D01*
X95008077Y-99228885D01*
X95007528Y-99234019D01*
X95007528Y-99234021D01*
X95002049Y-99285289D01*
X94982770Y-99465694D01*
X93364745Y-99465694D01*
X93348150Y-99263844D01*
X93290131Y-99032863D01*
X93195167Y-98814459D01*
X93178094Y-98788067D01*
X93068616Y-98618842D01*
X93065806Y-98614498D01*
X92905524Y-98438350D01*
X92901473Y-98435151D01*
X92901469Y-98435147D01*
X92722678Y-98293947D01*
X92722673Y-98293944D01*
X92718624Y-98290746D01*
X92714108Y-98288253D01*
X92714105Y-98288251D01*
X92514650Y-98178146D01*
X92514646Y-98178144D01*
X92510126Y-98175649D01*
X92505257Y-98173925D01*
X92505253Y-98173923D01*
X92290505Y-98097876D01*
X92290501Y-98097875D01*
X92285630Y-98096150D01*
X92280540Y-98095243D01*
X92280535Y-98095242D01*
X92153214Y-98072564D01*
X92051164Y-98054386D01*
X91962037Y-98053297D01*
X91818195Y-98051539D01*
X91818193Y-98051539D01*
X91813025Y-98051476D01*
X91577609Y-98087500D01*
X91351238Y-98161489D01*
X91346646Y-98163879D01*
X91346647Y-98163879D01*
X91192946Y-98243891D01*
X91139990Y-98271458D01*
X91135857Y-98274561D01*
X91135854Y-98274563D01*
X90953675Y-98411347D01*
X90949540Y-98414452D01*
X90785002Y-98586631D01*
X90782088Y-98590903D01*
X90782087Y-98590904D01*
X90707760Y-98699863D01*
X90650794Y-98783372D01*
X90550522Y-98999391D01*
X90486877Y-99228885D01*
X90486328Y-99234019D01*
X90486328Y-99234021D01*
X90480849Y-99285289D01*
X90461570Y-99465694D01*
X57521348Y-99465694D01*
X57364777Y-99263844D01*
X57314907Y-99199552D01*
X57310260Y-99193155D01*
X56979560Y-98706544D01*
X56975318Y-98699861D01*
X56675821Y-98193439D01*
X56672008Y-98186503D01*
X56583779Y-98013344D01*
X56404894Y-97662263D01*
X56401538Y-97655131D01*
X56167864Y-97115141D01*
X56164962Y-97107811D01*
X55965655Y-96554215D01*
X55963217Y-96546712D01*
X55839604Y-96121233D01*
X55799071Y-95981717D01*
X55797103Y-95974050D01*
X55668756Y-95399860D01*
X55667272Y-95392085D01*
X55665652Y-95381857D01*
X55636553Y-95198134D01*
X58066500Y-95198134D01*
X58073255Y-95260316D01*
X58124385Y-95396705D01*
X58211739Y-95513261D01*
X58328295Y-95600615D01*
X58464684Y-95651745D01*
X58526866Y-95658500D01*
X60723134Y-95658500D01*
X60785316Y-95651745D01*
X60921705Y-95600615D01*
X61038261Y-95513261D01*
X61111128Y-95416035D01*
X61167988Y-95373521D01*
X61238806Y-95368496D01*
X61277788Y-95384168D01*
X61303395Y-95399860D01*
X61455268Y-95492927D01*
X61526946Y-95522617D01*
X61677335Y-95584911D01*
X61677337Y-95584912D01*
X61681908Y-95586805D01*
X61716997Y-95595229D01*
X61915630Y-95642917D01*
X61915636Y-95642918D01*
X61920443Y-95644072D01*
X62165000Y-95663319D01*
X62409557Y-95644072D01*
X62414364Y-95642918D01*
X62414370Y-95642917D01*
X62613003Y-95595229D01*
X62648092Y-95586805D01*
X62652663Y-95584912D01*
X62652665Y-95584911D01*
X62803054Y-95522617D01*
X62874732Y-95492927D01*
X63026605Y-95399860D01*
X63079670Y-95367342D01*
X63079673Y-95367340D01*
X63083896Y-95364752D01*
X63089819Y-95359694D01*
X63266677Y-95208641D01*
X63270433Y-95205433D01*
X63302456Y-95167939D01*
X63339189Y-95124931D01*
X63398640Y-95086122D01*
X63469635Y-95085616D01*
X63530811Y-95124931D01*
X63567544Y-95167939D01*
X63599567Y-95205433D01*
X63603323Y-95208641D01*
X63780182Y-95359694D01*
X63786104Y-95364752D01*
X63790327Y-95367340D01*
X63790330Y-95367342D01*
X63843395Y-95399860D01*
X63995268Y-95492927D01*
X64066946Y-95522617D01*
X64217335Y-95584911D01*
X64217337Y-95584912D01*
X64221908Y-95586805D01*
X64256997Y-95595229D01*
X64455630Y-95642917D01*
X64455636Y-95642918D01*
X64460443Y-95644072D01*
X64705000Y-95663319D01*
X64949557Y-95644072D01*
X64954364Y-95642918D01*
X64954370Y-95642917D01*
X65153003Y-95595229D01*
X65188092Y-95586805D01*
X65192663Y-95584912D01*
X65192665Y-95584911D01*
X65343054Y-95522617D01*
X65414732Y-95492927D01*
X65566605Y-95399860D01*
X65616915Y-95369030D01*
X66340800Y-95369030D01*
X66346527Y-95376680D01*
X66531272Y-95489893D01*
X66540067Y-95494375D01*
X66757490Y-95584434D01*
X66766875Y-95587483D01*
X66995708Y-95642422D01*
X67005455Y-95643965D01*
X67240070Y-95662430D01*
X67249930Y-95662430D01*
X67484545Y-95643965D01*
X67494292Y-95642422D01*
X67723125Y-95587483D01*
X67732510Y-95584434D01*
X67949933Y-95494375D01*
X67958728Y-95489893D01*
X68139805Y-95378928D01*
X68149267Y-95368470D01*
X68145484Y-95359694D01*
X67257812Y-94472022D01*
X67243868Y-94464408D01*
X67242035Y-94464539D01*
X67235420Y-94468790D01*
X66347560Y-95356650D01*
X66340800Y-95369030D01*
X65616915Y-95369030D01*
X65619670Y-95367342D01*
X65619673Y-95367340D01*
X65623896Y-95364752D01*
X65629819Y-95359694D01*
X65806677Y-95208641D01*
X65810433Y-95205433D01*
X65969752Y-95018896D01*
X65971190Y-95016549D01*
X65982605Y-95003185D01*
X66872978Y-94112812D01*
X66879356Y-94101132D01*
X67609408Y-94101132D01*
X67609539Y-94102965D01*
X67613790Y-94109580D01*
X68501650Y-94997440D01*
X68514030Y-95004200D01*
X68521680Y-94998473D01*
X68634893Y-94813728D01*
X68639375Y-94804933D01*
X68729434Y-94587510D01*
X68732483Y-94578125D01*
X68735227Y-94566695D01*
X72037251Y-94566695D01*
X72037548Y-94571848D01*
X72037548Y-94571851D01*
X72043202Y-94669908D01*
X72050110Y-94789715D01*
X72051247Y-94794761D01*
X72051248Y-94794767D01*
X72062921Y-94846562D01*
X72099222Y-95007639D01*
X72146849Y-95124931D01*
X72177174Y-95199612D01*
X72183266Y-95214616D01*
X72211271Y-95260316D01*
X72295362Y-95397540D01*
X72299987Y-95405088D01*
X72446250Y-95573938D01*
X72450230Y-95577242D01*
X72454981Y-95581187D01*
X72494616Y-95640090D01*
X72496113Y-95711071D01*
X72458997Y-95771593D01*
X72418724Y-95796112D01*
X72303295Y-95839385D01*
X72186739Y-95926739D01*
X72099385Y-96043295D01*
X72048255Y-96179684D01*
X72041500Y-96241866D01*
X72041500Y-98038134D01*
X72048255Y-98100316D01*
X72099385Y-98236705D01*
X72186739Y-98353261D01*
X72303295Y-98440615D01*
X72439684Y-98491745D01*
X72501866Y-98498500D01*
X74298134Y-98498500D01*
X74360316Y-98491745D01*
X74496705Y-98440615D01*
X74613261Y-98353261D01*
X74700615Y-98236705D01*
X74751745Y-98100316D01*
X74758500Y-98038134D01*
X74758500Y-96241866D01*
X74751745Y-96179684D01*
X74700615Y-96043295D01*
X74613261Y-95926739D01*
X74496705Y-95839385D01*
X74484132Y-95834672D01*
X74378203Y-95794960D01*
X74321439Y-95752318D01*
X74296739Y-95685756D01*
X74311947Y-95616408D01*
X74333493Y-95587727D01*
X74403186Y-95518277D01*
X74438096Y-95483489D01*
X74470287Y-95438691D01*
X74565435Y-95306277D01*
X74568453Y-95302077D01*
X74589093Y-95260316D01*
X74665136Y-95106453D01*
X74665137Y-95106451D01*
X74667430Y-95101811D01*
X74732370Y-94888069D01*
X74737159Y-94851695D01*
X77162251Y-94851695D01*
X77162548Y-94856848D01*
X77162548Y-94856851D01*
X77173960Y-95054771D01*
X77175110Y-95074715D01*
X77176247Y-95079761D01*
X77176248Y-95079767D01*
X77186427Y-95124931D01*
X77224222Y-95292639D01*
X77271467Y-95408990D01*
X77306319Y-95494820D01*
X77308266Y-95499616D01*
X77319925Y-95518642D01*
X77419648Y-95681375D01*
X77424987Y-95690088D01*
X77571250Y-95858938D01*
X77575230Y-95862242D01*
X77579981Y-95866187D01*
X77619616Y-95925090D01*
X77621113Y-95996071D01*
X77583997Y-96056593D01*
X77543725Y-96081112D01*
X77458486Y-96113067D01*
X77428295Y-96124385D01*
X77311739Y-96211739D01*
X77224385Y-96328295D01*
X77173255Y-96464684D01*
X77166500Y-96526866D01*
X77166500Y-98323134D01*
X77173255Y-98385316D01*
X77224385Y-98521705D01*
X77311739Y-98638261D01*
X77428295Y-98725615D01*
X77564684Y-98776745D01*
X77626866Y-98783500D01*
X79423134Y-98783500D01*
X79485316Y-98776745D01*
X79621705Y-98725615D01*
X79738261Y-98638261D01*
X79825615Y-98521705D01*
X79876745Y-98385316D01*
X79883500Y-98323134D01*
X79883500Y-96526866D01*
X79876745Y-96464684D01*
X79825615Y-96328295D01*
X79816921Y-96316695D01*
X81047251Y-96316695D01*
X81047548Y-96321848D01*
X81047548Y-96321851D01*
X81053011Y-96416590D01*
X81060110Y-96539715D01*
X81061247Y-96544761D01*
X81061248Y-96544767D01*
X81071182Y-96588844D01*
X81109222Y-96757639D01*
X81193266Y-96964616D01*
X81235482Y-97033507D01*
X81299672Y-97138255D01*
X81309987Y-97155088D01*
X81456250Y-97323938D01*
X81628126Y-97466632D01*
X81821000Y-97579338D01*
X82029692Y-97659030D01*
X82034760Y-97660061D01*
X82034763Y-97660062D01*
X82129862Y-97679410D01*
X82248597Y-97703567D01*
X82253772Y-97703757D01*
X82253774Y-97703757D01*
X82466673Y-97711564D01*
X82466677Y-97711564D01*
X82471837Y-97711753D01*
X82476957Y-97711097D01*
X82476959Y-97711097D01*
X82688288Y-97684025D01*
X82688289Y-97684025D01*
X82693416Y-97683368D01*
X82698366Y-97681883D01*
X82902429Y-97620661D01*
X82902434Y-97620659D01*
X82907384Y-97619174D01*
X83107994Y-97520896D01*
X83289860Y-97391173D01*
X83448096Y-97233489D01*
X83507594Y-97150689D01*
X83578453Y-97052077D01*
X83579640Y-97052930D01*
X83626960Y-97009362D01*
X83696897Y-96997145D01*
X83762338Y-97024678D01*
X83790166Y-97056511D01*
X83847694Y-97150388D01*
X83853777Y-97158699D01*
X83993213Y-97319667D01*
X84000580Y-97326883D01*
X84164434Y-97462916D01*
X84172881Y-97468831D01*
X84356756Y-97576279D01*
X84366042Y-97580729D01*
X84565001Y-97656703D01*
X84574899Y-97659579D01*
X84678250Y-97680606D01*
X84692299Y-97679410D01*
X84696000Y-97669065D01*
X84696000Y-97668517D01*
X85204000Y-97668517D01*
X85208064Y-97682359D01*
X85221478Y-97684393D01*
X85228184Y-97683534D01*
X85238262Y-97681392D01*
X85442255Y-97620191D01*
X85451842Y-97616433D01*
X85643095Y-97522739D01*
X85651945Y-97517464D01*
X85825328Y-97393792D01*
X85833193Y-97387145D01*
X85937897Y-97282805D01*
X86000268Y-97248889D01*
X86071075Y-97254077D01*
X86127837Y-97296723D01*
X86144819Y-97327826D01*
X86155468Y-97356231D01*
X86189385Y-97446705D01*
X86276739Y-97563261D01*
X86393295Y-97650615D01*
X86529684Y-97701745D01*
X86591866Y-97708500D01*
X88388134Y-97708500D01*
X88450316Y-97701745D01*
X88586705Y-97650615D01*
X88703261Y-97563261D01*
X88790615Y-97446705D01*
X88841745Y-97310316D01*
X88848500Y-97248134D01*
X88848500Y-96790694D01*
X97986570Y-96790694D01*
X97986867Y-96795846D01*
X97986867Y-96795850D01*
X97992902Y-96900513D01*
X98000279Y-97028455D01*
X98001416Y-97033501D01*
X98001417Y-97033507D01*
X98027758Y-97150388D01*
X98052637Y-97260785D01*
X98054579Y-97265567D01*
X98054580Y-97265571D01*
X98134880Y-97463327D01*
X98142237Y-97481444D01*
X98266674Y-97684506D01*
X98422604Y-97864517D01*
X98605842Y-98016644D01*
X98610294Y-98019246D01*
X98610299Y-98019249D01*
X98807007Y-98134196D01*
X98811465Y-98136801D01*
X99033952Y-98221760D01*
X99039018Y-98222791D01*
X99039019Y-98222791D01*
X99066082Y-98228297D01*
X99267328Y-98269241D01*
X99401521Y-98274162D01*
X99500160Y-98277779D01*
X99500164Y-98277779D01*
X99505324Y-98277968D01*
X99510444Y-98277312D01*
X99510446Y-98277312D01*
X99736423Y-98248364D01*
X99736424Y-98248364D01*
X99741551Y-98247707D01*
X99746501Y-98246222D01*
X99964716Y-98180754D01*
X99964717Y-98180753D01*
X99969662Y-98179270D01*
X100183533Y-98074495D01*
X100187736Y-98071497D01*
X100187741Y-98071494D01*
X100373216Y-97939196D01*
X100373218Y-97939194D01*
X100377420Y-97936197D01*
X100546116Y-97768089D01*
X100685090Y-97574686D01*
X100710550Y-97523173D01*
X100788317Y-97365824D01*
X100788318Y-97365822D01*
X100790611Y-97361182D01*
X100859843Y-97133311D01*
X100862233Y-97115156D01*
X100890492Y-96900513D01*
X100890492Y-96900509D01*
X100890929Y-96897192D01*
X100892664Y-96826200D01*
X100889745Y-96790694D01*
X102507770Y-96790694D01*
X102508067Y-96795846D01*
X102508067Y-96795850D01*
X102514102Y-96900513D01*
X102521479Y-97028455D01*
X102522616Y-97033501D01*
X102522617Y-97033507D01*
X102548958Y-97150388D01*
X102573837Y-97260785D01*
X102575779Y-97265567D01*
X102575780Y-97265571D01*
X102656080Y-97463327D01*
X102663437Y-97481444D01*
X102787874Y-97684506D01*
X102943804Y-97864517D01*
X103127042Y-98016644D01*
X103131494Y-98019246D01*
X103131499Y-98019249D01*
X103328207Y-98134196D01*
X103332665Y-98136801D01*
X103555152Y-98221760D01*
X103560218Y-98222791D01*
X103560219Y-98222791D01*
X103587282Y-98228297D01*
X103788528Y-98269241D01*
X103922721Y-98274162D01*
X104021360Y-98277779D01*
X104021364Y-98277779D01*
X104026524Y-98277968D01*
X104031644Y-98277312D01*
X104031646Y-98277312D01*
X104257623Y-98248364D01*
X104257624Y-98248364D01*
X104262751Y-98247707D01*
X104267701Y-98246222D01*
X104485916Y-98180754D01*
X104485917Y-98180753D01*
X104490862Y-98179270D01*
X104704733Y-98074495D01*
X104708936Y-98071497D01*
X104708941Y-98071494D01*
X104894416Y-97939196D01*
X104894418Y-97939194D01*
X104898620Y-97936197D01*
X105067316Y-97768089D01*
X105206290Y-97574686D01*
X105231750Y-97523173D01*
X105309517Y-97365824D01*
X105309518Y-97365822D01*
X105311811Y-97361182D01*
X105381043Y-97133311D01*
X105383433Y-97115156D01*
X105411692Y-96900513D01*
X105411692Y-96900509D01*
X105412129Y-96897192D01*
X105413864Y-96826200D01*
X105394350Y-96588844D01*
X105336331Y-96357863D01*
X105241367Y-96139459D01*
X105237490Y-96133465D01*
X105139309Y-95981702D01*
X105112006Y-95939498D01*
X104951724Y-95763350D01*
X104947673Y-95760151D01*
X104947669Y-95760147D01*
X104768878Y-95618947D01*
X104768873Y-95618944D01*
X104764824Y-95615746D01*
X104760308Y-95613253D01*
X104760305Y-95613251D01*
X104560850Y-95503146D01*
X104560846Y-95503144D01*
X104556326Y-95500649D01*
X104551457Y-95498925D01*
X104551453Y-95498923D01*
X104336705Y-95422876D01*
X104336701Y-95422875D01*
X104331830Y-95421150D01*
X104326740Y-95420243D01*
X104326735Y-95420242D01*
X104168741Y-95392100D01*
X104097364Y-95379386D01*
X104008237Y-95378297D01*
X103864395Y-95376539D01*
X103864393Y-95376539D01*
X103859225Y-95376476D01*
X103623809Y-95412500D01*
X103397438Y-95486489D01*
X103385071Y-95492927D01*
X103196143Y-95591277D01*
X103186190Y-95596458D01*
X103182057Y-95599561D01*
X103182054Y-95599563D01*
X103026133Y-95716632D01*
X102995740Y-95739452D01*
X102992168Y-95743190D01*
X102868380Y-95872727D01*
X102831202Y-95911631D01*
X102828288Y-95915903D01*
X102828287Y-95915904D01*
X102785991Y-95977908D01*
X102696994Y-96108372D01*
X102684578Y-96135121D01*
X102635029Y-96241866D01*
X102596722Y-96324391D01*
X102533077Y-96553885D01*
X102532528Y-96559019D01*
X102532528Y-96559021D01*
X102527049Y-96610289D01*
X102507770Y-96790694D01*
X100889745Y-96790694D01*
X100873150Y-96588844D01*
X100815131Y-96357863D01*
X100720167Y-96139459D01*
X100716290Y-96133465D01*
X100618109Y-95981702D01*
X100590806Y-95939498D01*
X100430524Y-95763350D01*
X100426473Y-95760151D01*
X100426469Y-95760147D01*
X100247678Y-95618947D01*
X100247673Y-95618944D01*
X100243624Y-95615746D01*
X100239108Y-95613253D01*
X100239105Y-95613251D01*
X100039650Y-95503146D01*
X100039646Y-95503144D01*
X100035126Y-95500649D01*
X100030257Y-95498925D01*
X100030253Y-95498923D01*
X99815505Y-95422876D01*
X99815501Y-95422875D01*
X99810630Y-95421150D01*
X99805540Y-95420243D01*
X99805535Y-95420242D01*
X99647541Y-95392100D01*
X99576164Y-95379386D01*
X99487037Y-95378297D01*
X99343195Y-95376539D01*
X99343193Y-95376539D01*
X99338025Y-95376476D01*
X99102609Y-95412500D01*
X98876238Y-95486489D01*
X98863871Y-95492927D01*
X98674943Y-95591277D01*
X98664990Y-95596458D01*
X98660857Y-95599561D01*
X98660854Y-95599563D01*
X98504933Y-95716632D01*
X98474540Y-95739452D01*
X98470968Y-95743190D01*
X98347180Y-95872727D01*
X98310002Y-95911631D01*
X98307088Y-95915903D01*
X98307087Y-95915904D01*
X98264791Y-95977908D01*
X98175794Y-96108372D01*
X98163378Y-96135121D01*
X98113829Y-96241866D01*
X98075522Y-96324391D01*
X98011877Y-96553885D01*
X98011328Y-96559019D01*
X98011328Y-96559021D01*
X98005849Y-96610289D01*
X97986570Y-96790694D01*
X88848500Y-96790694D01*
X88848500Y-95451866D01*
X88841745Y-95389684D01*
X88790615Y-95253295D01*
X88703261Y-95136739D01*
X88586705Y-95049385D01*
X88450316Y-94998255D01*
X88388134Y-94991500D01*
X86591866Y-94991500D01*
X86529684Y-94998255D01*
X86393295Y-95049385D01*
X86276739Y-95136739D01*
X86189385Y-95253295D01*
X86186233Y-95261703D01*
X86186232Y-95261705D01*
X86144722Y-95372433D01*
X86102081Y-95429198D01*
X86035519Y-95453898D01*
X85966170Y-95438691D01*
X85933546Y-95413004D01*
X85882799Y-95357234D01*
X85875273Y-95350215D01*
X85708139Y-95218222D01*
X85699552Y-95212517D01*
X85513117Y-95109599D01*
X85503705Y-95105369D01*
X85302959Y-95034280D01*
X85292988Y-95031646D01*
X85221837Y-95018972D01*
X85208540Y-95020432D01*
X85204000Y-95034989D01*
X85204000Y-97668517D01*
X84696000Y-97668517D01*
X84696000Y-95033102D01*
X84692082Y-95019758D01*
X84677806Y-95017771D01*
X84639324Y-95023660D01*
X84629288Y-95026051D01*
X84426868Y-95092212D01*
X84417359Y-95096209D01*
X84228463Y-95194542D01*
X84219738Y-95200036D01*
X84049433Y-95327905D01*
X84041726Y-95334748D01*
X83894590Y-95488717D01*
X83888109Y-95496722D01*
X83783498Y-95650074D01*
X83728587Y-95695076D01*
X83658062Y-95703247D01*
X83594315Y-95671993D01*
X83573618Y-95647509D01*
X83492822Y-95522617D01*
X83492820Y-95522614D01*
X83490014Y-95518277D01*
X83339670Y-95353051D01*
X83335619Y-95349852D01*
X83335615Y-95349848D01*
X83168414Y-95217800D01*
X83168410Y-95217798D01*
X83164359Y-95214598D01*
X83134535Y-95198134D01*
X83079836Y-95167939D01*
X82968789Y-95106638D01*
X82963920Y-95104914D01*
X82963916Y-95104912D01*
X82763087Y-95033795D01*
X82763083Y-95033794D01*
X82758212Y-95032069D01*
X82753119Y-95031162D01*
X82753116Y-95031161D01*
X82543373Y-94993800D01*
X82543367Y-94993799D01*
X82538284Y-94992894D01*
X82464452Y-94991992D01*
X82320081Y-94990228D01*
X82320079Y-94990228D01*
X82314911Y-94990165D01*
X82094091Y-95023955D01*
X81881756Y-95093357D01*
X81821103Y-95124931D01*
X81738486Y-95167939D01*
X81683607Y-95196507D01*
X81679474Y-95199610D01*
X81679471Y-95199612D01*
X81509100Y-95327530D01*
X81504965Y-95330635D01*
X81350629Y-95492138D01*
X81347715Y-95496410D01*
X81347714Y-95496411D01*
X81287669Y-95584434D01*
X81224743Y-95676680D01*
X81206198Y-95716632D01*
X81141956Y-95855031D01*
X81130688Y-95879305D01*
X81070989Y-96094570D01*
X81047251Y-96316695D01*
X79816921Y-96316695D01*
X79738261Y-96211739D01*
X79621705Y-96124385D01*
X79609132Y-96119672D01*
X79503203Y-96079960D01*
X79446439Y-96037318D01*
X79421739Y-95970756D01*
X79436947Y-95901408D01*
X79458493Y-95872727D01*
X79559435Y-95772137D01*
X79563096Y-95768489D01*
X79622594Y-95685689D01*
X79690435Y-95591277D01*
X79693453Y-95587077D01*
X79727276Y-95518642D01*
X79790136Y-95391453D01*
X79790137Y-95391451D01*
X79792430Y-95386811D01*
X79843409Y-95219020D01*
X79855865Y-95178023D01*
X79855865Y-95178021D01*
X79857370Y-95173069D01*
X79886529Y-94951590D01*
X79888156Y-94885000D01*
X79869852Y-94662361D01*
X79815431Y-94445702D01*
X79726354Y-94240840D01*
X79654199Y-94129305D01*
X79607822Y-94057617D01*
X79607820Y-94057614D01*
X79605014Y-94053277D01*
X79454670Y-93888051D01*
X79450619Y-93884852D01*
X79450615Y-93884848D01*
X79283414Y-93752800D01*
X79283410Y-93752798D01*
X79279359Y-93749598D01*
X79274825Y-93747095D01*
X85642001Y-93747095D01*
X85642338Y-93753614D01*
X85652257Y-93849206D01*
X85655149Y-93862600D01*
X85706588Y-94016784D01*
X85712761Y-94029962D01*
X85798063Y-94167807D01*
X85807099Y-94179208D01*
X85921829Y-94293739D01*
X85933240Y-94302751D01*
X86071243Y-94387816D01*
X86084424Y-94393963D01*
X86238710Y-94445138D01*
X86252086Y-94448005D01*
X86346438Y-94457672D01*
X86352854Y-94458000D01*
X86477885Y-94458000D01*
X86493124Y-94453525D01*
X86494329Y-94452135D01*
X86496000Y-94444452D01*
X86496000Y-94439884D01*
X87004000Y-94439884D01*
X87008475Y-94455123D01*
X87009865Y-94456328D01*
X87017548Y-94457999D01*
X87147095Y-94457999D01*
X87153614Y-94457662D01*
X87249206Y-94447743D01*
X87262600Y-94444851D01*
X87416784Y-94393412D01*
X87429962Y-94387239D01*
X87567807Y-94301937D01*
X87579208Y-94292901D01*
X87660430Y-94211538D01*
X87722713Y-94177459D01*
X87793533Y-94182462D01*
X87838620Y-94211383D01*
X87921512Y-94294130D01*
X87921517Y-94294134D01*
X87926697Y-94299305D01*
X87932927Y-94303145D01*
X87932928Y-94303146D01*
X88070288Y-94387816D01*
X88077262Y-94392115D01*
X88087139Y-94395391D01*
X88238611Y-94445632D01*
X88238613Y-94445632D01*
X88245139Y-94447797D01*
X88251975Y-94448497D01*
X88251978Y-94448498D01*
X88295031Y-94452909D01*
X88349600Y-94458500D01*
X89150400Y-94458500D01*
X89153646Y-94458163D01*
X89153650Y-94458163D01*
X89249308Y-94448238D01*
X89249312Y-94448237D01*
X89256166Y-94447526D01*
X89262702Y-94445345D01*
X89262704Y-94445345D01*
X89412433Y-94395391D01*
X89423946Y-94391550D01*
X89574348Y-94298478D01*
X89699305Y-94173303D01*
X89703979Y-94165720D01*
X89788275Y-94028968D01*
X89788276Y-94028966D01*
X89792115Y-94022738D01*
X89835522Y-93891870D01*
X89845632Y-93861389D01*
X89845632Y-93861387D01*
X89847797Y-93854861D01*
X89858500Y-93750400D01*
X89858769Y-93750428D01*
X89881704Y-93684871D01*
X89937657Y-93641170D01*
X89984096Y-93632300D01*
X90533349Y-93632300D01*
X90601470Y-93652302D01*
X90640781Y-93692464D01*
X90741674Y-93857106D01*
X90897604Y-94037117D01*
X90988779Y-94112812D01*
X91068754Y-94179208D01*
X91080842Y-94189244D01*
X91085294Y-94191846D01*
X91085299Y-94191849D01*
X91269188Y-94299305D01*
X91286465Y-94309401D01*
X91508952Y-94394360D01*
X91514018Y-94395391D01*
X91514019Y-94395391D01*
X91568356Y-94406446D01*
X91742328Y-94441841D01*
X91876521Y-94446762D01*
X91975160Y-94450379D01*
X91975164Y-94450379D01*
X91980324Y-94450568D01*
X91985444Y-94449912D01*
X91985446Y-94449912D01*
X92211423Y-94420964D01*
X92211424Y-94420964D01*
X92216551Y-94420307D01*
X92302840Y-94394419D01*
X92439716Y-94353354D01*
X92439717Y-94353353D01*
X92444662Y-94351870D01*
X92658533Y-94247095D01*
X92662736Y-94244097D01*
X92662741Y-94244094D01*
X92848216Y-94111796D01*
X92848218Y-94111794D01*
X92852420Y-94108797D01*
X93021116Y-93940689D01*
X93031183Y-93926680D01*
X93075048Y-93865635D01*
X93160090Y-93747286D01*
X93162635Y-93742138D01*
X93263317Y-93538424D01*
X93263318Y-93538422D01*
X93265611Y-93533782D01*
X93334843Y-93305911D01*
X93345036Y-93228489D01*
X93365492Y-93073113D01*
X93365492Y-93073109D01*
X93365929Y-93069792D01*
X93366011Y-93066440D01*
X93367582Y-93002165D01*
X93367582Y-93002161D01*
X93367664Y-92998800D01*
X93348150Y-92761444D01*
X93290131Y-92530463D01*
X93210953Y-92348365D01*
X93197227Y-92316796D01*
X93197225Y-92316793D01*
X93195167Y-92312059D01*
X93180003Y-92288618D01*
X93072445Y-92122361D01*
X93065806Y-92112098D01*
X93061973Y-92107885D01*
X93002022Y-92042000D01*
X92905524Y-91935950D01*
X92901473Y-91932751D01*
X92901469Y-91932747D01*
X92722678Y-91791547D01*
X92722673Y-91791544D01*
X92718624Y-91788346D01*
X92714108Y-91785853D01*
X92714105Y-91785851D01*
X92514650Y-91675746D01*
X92514646Y-91675744D01*
X92510126Y-91673249D01*
X92505257Y-91671525D01*
X92505253Y-91671523D01*
X92290505Y-91595476D01*
X92290501Y-91595475D01*
X92285630Y-91593750D01*
X92280540Y-91592843D01*
X92280535Y-91592842D01*
X92153214Y-91570164D01*
X92051164Y-91551986D01*
X91962037Y-91550897D01*
X91818195Y-91549139D01*
X91818193Y-91549139D01*
X91813025Y-91549076D01*
X91577609Y-91585100D01*
X91351238Y-91659089D01*
X91139990Y-91769058D01*
X91135857Y-91772161D01*
X91135854Y-91772163D01*
X90953675Y-91908947D01*
X90949540Y-91912052D01*
X90945968Y-91915790D01*
X90816279Y-92051502D01*
X90785002Y-92084231D01*
X90782088Y-92088503D01*
X90782087Y-92088504D01*
X90755471Y-92127522D01*
X90650794Y-92280972D01*
X90648613Y-92285670D01*
X90648611Y-92285674D01*
X90645514Y-92292346D01*
X90598692Y-92345715D01*
X90531225Y-92365300D01*
X89789732Y-92365300D01*
X89721611Y-92345298D01*
X89699161Y-92324968D01*
X89698478Y-92325652D01*
X89622409Y-92249715D01*
X89573303Y-92200695D01*
X89453083Y-92126590D01*
X89428968Y-92111725D01*
X89428966Y-92111724D01*
X89422738Y-92107885D01*
X89288514Y-92063365D01*
X89261389Y-92054368D01*
X89261387Y-92054368D01*
X89254861Y-92052203D01*
X89248025Y-92051503D01*
X89248022Y-92051502D01*
X89204969Y-92047091D01*
X89150400Y-92041500D01*
X88349600Y-92041500D01*
X88346354Y-92041837D01*
X88346350Y-92041837D01*
X88250692Y-92051762D01*
X88250688Y-92051763D01*
X88243834Y-92052474D01*
X88237298Y-92054655D01*
X88237296Y-92054655D01*
X88159848Y-92080494D01*
X88076054Y-92108450D01*
X87925652Y-92201522D01*
X87920479Y-92206704D01*
X87838862Y-92288463D01*
X87776579Y-92322542D01*
X87705759Y-92317539D01*
X87660671Y-92288618D01*
X87578171Y-92206261D01*
X87566760Y-92197249D01*
X87428757Y-92112184D01*
X87415576Y-92106037D01*
X87261290Y-92054862D01*
X87247914Y-92051995D01*
X87153562Y-92042328D01*
X87147145Y-92042000D01*
X87022115Y-92042000D01*
X87006876Y-92046475D01*
X87005671Y-92047865D01*
X87004000Y-92055548D01*
X87004000Y-94439884D01*
X86496000Y-94439884D01*
X86496000Y-93522115D01*
X86491525Y-93506876D01*
X86490135Y-93505671D01*
X86482452Y-93504000D01*
X85660116Y-93504000D01*
X85644877Y-93508475D01*
X85643672Y-93509865D01*
X85642001Y-93517548D01*
X85642001Y-93747095D01*
X79274825Y-93747095D01*
X79238053Y-93726796D01*
X79188084Y-93676364D01*
X79173312Y-93606921D01*
X79198428Y-93540516D01*
X79225780Y-93513909D01*
X79290422Y-93467800D01*
X79404860Y-93386173D01*
X79434499Y-93356638D01*
X79559435Y-93232137D01*
X79563096Y-93228489D01*
X79569573Y-93219476D01*
X79690435Y-93051277D01*
X79693453Y-93047077D01*
X79717477Y-92998469D01*
X79727650Y-92977885D01*
X85642000Y-92977885D01*
X85646475Y-92993124D01*
X85647865Y-92994329D01*
X85655548Y-92996000D01*
X86477885Y-92996000D01*
X86493124Y-92991525D01*
X86494329Y-92990135D01*
X86496000Y-92982452D01*
X86496000Y-92060116D01*
X86491525Y-92044877D01*
X86490135Y-92043672D01*
X86482452Y-92042001D01*
X86352905Y-92042001D01*
X86346386Y-92042338D01*
X86250794Y-92052257D01*
X86237400Y-92055149D01*
X86083216Y-92106588D01*
X86070038Y-92112761D01*
X85932193Y-92198063D01*
X85920792Y-92207099D01*
X85806261Y-92321829D01*
X85797249Y-92333240D01*
X85712184Y-92471243D01*
X85706037Y-92484424D01*
X85654862Y-92638710D01*
X85651995Y-92652086D01*
X85642328Y-92746438D01*
X85642000Y-92752855D01*
X85642000Y-92977885D01*
X79727650Y-92977885D01*
X79790136Y-92851453D01*
X79790137Y-92851451D01*
X79792430Y-92846811D01*
X79844747Y-92674616D01*
X79855865Y-92638023D01*
X79855865Y-92638021D01*
X79857370Y-92633069D01*
X79886529Y-92411590D01*
X79888156Y-92345000D01*
X79869852Y-92122361D01*
X79815431Y-91905702D01*
X79726354Y-91700840D01*
X79652518Y-91586707D01*
X79607822Y-91517617D01*
X79607820Y-91517614D01*
X79605014Y-91513277D01*
X79454670Y-91348051D01*
X79450619Y-91344852D01*
X79450615Y-91344848D01*
X79283414Y-91212800D01*
X79283410Y-91212798D01*
X79279359Y-91209598D01*
X79083789Y-91101638D01*
X79078920Y-91099914D01*
X79078916Y-91099912D01*
X78878087Y-91028795D01*
X78878083Y-91028794D01*
X78873212Y-91027069D01*
X78868119Y-91026162D01*
X78868116Y-91026161D01*
X78658373Y-90988800D01*
X78658367Y-90988799D01*
X78653284Y-90987894D01*
X78575525Y-90986944D01*
X78435081Y-90985228D01*
X78435079Y-90985228D01*
X78429911Y-90985165D01*
X78209091Y-91018955D01*
X77996756Y-91088357D01*
X77966443Y-91104137D01*
X77809169Y-91186009D01*
X77798607Y-91191507D01*
X77794474Y-91194610D01*
X77794471Y-91194612D01*
X77671567Y-91286891D01*
X77619965Y-91325635D01*
X77465629Y-91487138D01*
X77462715Y-91491410D01*
X77462714Y-91491411D01*
X77399876Y-91583528D01*
X77339743Y-91671680D01*
X77317132Y-91720391D01*
X77250729Y-91863446D01*
X77245688Y-91874305D01*
X77185989Y-92089570D01*
X77162251Y-92311695D01*
X77162548Y-92316848D01*
X77162548Y-92316851D01*
X77168011Y-92411590D01*
X77175110Y-92534715D01*
X77176247Y-92539761D01*
X77176248Y-92539767D01*
X77188974Y-92596233D01*
X77224222Y-92752639D01*
X77271467Y-92868990D01*
X77301718Y-92943489D01*
X77308266Y-92959616D01*
X77319461Y-92977885D01*
X77403108Y-93114384D01*
X77424987Y-93150088D01*
X77571250Y-93318938D01*
X77743126Y-93461632D01*
X77813595Y-93502811D01*
X77816445Y-93504476D01*
X77865169Y-93556114D01*
X77878240Y-93625897D01*
X77851509Y-93691669D01*
X77811055Y-93725027D01*
X77798607Y-93731507D01*
X77794474Y-93734610D01*
X77794471Y-93734612D01*
X77626864Y-93860455D01*
X77619965Y-93865635D01*
X77616393Y-93869373D01*
X77475524Y-94016784D01*
X77465629Y-94027138D01*
X77462715Y-94031410D01*
X77462714Y-94031411D01*
X77416698Y-94098868D01*
X77339743Y-94211680D01*
X77302042Y-94292901D01*
X77254468Y-94395391D01*
X77245688Y-94414305D01*
X77185989Y-94629570D01*
X77162251Y-94851695D01*
X74737159Y-94851695D01*
X74761529Y-94666590D01*
X74763156Y-94600000D01*
X74744852Y-94377361D01*
X74690431Y-94160702D01*
X74601354Y-93955840D01*
X74532369Y-93849206D01*
X74482822Y-93772617D01*
X74482820Y-93772614D01*
X74480014Y-93768277D01*
X74329670Y-93603051D01*
X74325619Y-93599852D01*
X74325615Y-93599848D01*
X74158414Y-93467800D01*
X74158410Y-93467798D01*
X74154359Y-93464598D01*
X74113053Y-93441796D01*
X74063084Y-93391364D01*
X74048312Y-93321921D01*
X74073428Y-93255516D01*
X74100780Y-93228909D01*
X74167800Y-93181104D01*
X74279860Y-93101173D01*
X74306056Y-93075069D01*
X74382591Y-92998800D01*
X74438096Y-92943489D01*
X74497594Y-92860689D01*
X74565435Y-92766277D01*
X74568453Y-92762077D01*
X74571247Y-92756425D01*
X74665136Y-92566453D01*
X74665137Y-92566451D01*
X74667430Y-92561811D01*
X74732370Y-92348069D01*
X74761529Y-92126590D01*
X74763156Y-92060000D01*
X74744852Y-91837361D01*
X74690431Y-91620702D01*
X74601354Y-91415840D01*
X74517833Y-91286736D01*
X74482822Y-91232617D01*
X74482820Y-91232614D01*
X74480014Y-91228277D01*
X74329670Y-91063051D01*
X74325619Y-91059852D01*
X74325615Y-91059848D01*
X74158414Y-90927800D01*
X74158410Y-90927798D01*
X74154359Y-90924598D01*
X73958789Y-90816638D01*
X73953920Y-90814914D01*
X73953916Y-90814912D01*
X73753087Y-90743795D01*
X73753083Y-90743794D01*
X73748212Y-90742069D01*
X73743119Y-90741162D01*
X73743116Y-90741161D01*
X73533373Y-90703800D01*
X73533367Y-90703799D01*
X73528284Y-90702894D01*
X73454452Y-90701992D01*
X73310081Y-90700228D01*
X73310079Y-90700228D01*
X73304911Y-90700165D01*
X73084091Y-90733955D01*
X72871756Y-90803357D01*
X72841443Y-90819137D01*
X72756369Y-90863424D01*
X72673607Y-90906507D01*
X72669474Y-90909610D01*
X72669471Y-90909612D01*
X72513033Y-91027069D01*
X72494965Y-91040635D01*
X72491393Y-91044373D01*
X72363982Y-91177701D01*
X72340629Y-91202138D01*
X72337715Y-91206410D01*
X72337714Y-91206411D01*
X72305604Y-91253483D01*
X72214743Y-91386680D01*
X72176593Y-91468868D01*
X72123370Y-91583528D01*
X72120688Y-91589305D01*
X72060989Y-91804570D01*
X72037251Y-92026695D01*
X72037548Y-92031848D01*
X72037548Y-92031851D01*
X72047630Y-92206704D01*
X72050110Y-92249715D01*
X72051247Y-92254761D01*
X72051248Y-92254767D01*
X72067069Y-92324968D01*
X72099222Y-92467639D01*
X72151438Y-92596233D01*
X72174118Y-92652086D01*
X72183266Y-92674616D01*
X72190695Y-92686739D01*
X72284801Y-92840306D01*
X72299987Y-92865088D01*
X72446250Y-93033938D01*
X72618126Y-93176632D01*
X72659921Y-93201055D01*
X72691445Y-93219476D01*
X72740169Y-93271114D01*
X72753240Y-93340897D01*
X72726509Y-93406669D01*
X72686055Y-93440027D01*
X72673607Y-93446507D01*
X72669474Y-93449610D01*
X72669471Y-93449612D01*
X72501342Y-93575847D01*
X72494965Y-93580635D01*
X72465764Y-93611192D01*
X72346885Y-93735592D01*
X72340629Y-93742138D01*
X72337715Y-93746410D01*
X72337714Y-93746411D01*
X72325404Y-93764457D01*
X72214743Y-93926680D01*
X72199003Y-93960590D01*
X72128344Y-94112812D01*
X72120688Y-94129305D01*
X72060989Y-94344570D01*
X72037251Y-94566695D01*
X68735227Y-94566695D01*
X68787422Y-94349292D01*
X68788965Y-94339545D01*
X68807430Y-94104930D01*
X68807430Y-94095070D01*
X68788965Y-93860455D01*
X68787422Y-93850708D01*
X68732483Y-93621875D01*
X68729434Y-93612490D01*
X68639375Y-93395067D01*
X68634893Y-93386272D01*
X68523928Y-93205195D01*
X68513470Y-93195733D01*
X68504694Y-93199516D01*
X67617022Y-94087188D01*
X67609408Y-94101132D01*
X66879356Y-94101132D01*
X66880592Y-94098868D01*
X66880461Y-94097035D01*
X66876210Y-94090420D01*
X65982605Y-93196815D01*
X65971190Y-93183451D01*
X65969752Y-93181104D01*
X65810433Y-92994567D01*
X65769511Y-92959616D01*
X65627663Y-92838465D01*
X65627660Y-92838463D01*
X65623896Y-92835248D01*
X65619673Y-92832660D01*
X65619670Y-92832658D01*
X65617829Y-92831530D01*
X66340733Y-92831530D01*
X66344516Y-92840306D01*
X67232188Y-93727978D01*
X67246132Y-93735592D01*
X67247965Y-93735461D01*
X67254580Y-93731210D01*
X68142440Y-92843350D01*
X68149200Y-92830970D01*
X68143473Y-92823320D01*
X67958728Y-92710107D01*
X67949933Y-92705625D01*
X67732510Y-92615566D01*
X67723125Y-92612517D01*
X67494292Y-92557578D01*
X67484545Y-92556035D01*
X67249930Y-92537570D01*
X67240070Y-92537570D01*
X67005455Y-92556035D01*
X66995708Y-92557578D01*
X66766875Y-92612517D01*
X66757490Y-92615566D01*
X66540067Y-92705625D01*
X66531272Y-92710107D01*
X66350195Y-92821072D01*
X66340733Y-92831530D01*
X65617829Y-92831530D01*
X65503458Y-92761444D01*
X65414732Y-92707073D01*
X65223687Y-92627939D01*
X65192665Y-92615089D01*
X65192663Y-92615088D01*
X65188092Y-92613195D01*
X65105437Y-92593351D01*
X64954370Y-92557083D01*
X64954364Y-92557082D01*
X64949557Y-92555928D01*
X64705000Y-92536681D01*
X64460443Y-92555928D01*
X64455636Y-92557082D01*
X64455630Y-92557083D01*
X64304563Y-92593351D01*
X64221908Y-92613195D01*
X64217337Y-92615088D01*
X64217335Y-92615089D01*
X64186313Y-92627939D01*
X63995268Y-92707073D01*
X63906542Y-92761444D01*
X63790330Y-92832658D01*
X63790327Y-92832660D01*
X63786104Y-92835248D01*
X63782340Y-92838463D01*
X63782337Y-92838465D01*
X63640489Y-92959616D01*
X63599567Y-92994567D01*
X63596359Y-92998323D01*
X63530811Y-93075069D01*
X63471360Y-93113878D01*
X63400365Y-93114384D01*
X63339189Y-93075069D01*
X63273641Y-92998323D01*
X63270433Y-92994567D01*
X63229511Y-92959616D01*
X63087663Y-92838465D01*
X63087660Y-92838463D01*
X63083896Y-92835248D01*
X63079673Y-92832660D01*
X63079670Y-92832658D01*
X62963458Y-92761444D01*
X62874732Y-92707073D01*
X62683687Y-92627939D01*
X62652665Y-92615089D01*
X62652663Y-92615088D01*
X62648092Y-92613195D01*
X62565437Y-92593351D01*
X62414370Y-92557083D01*
X62414364Y-92557082D01*
X62409557Y-92555928D01*
X62165000Y-92536681D01*
X61920443Y-92555928D01*
X61915636Y-92557082D01*
X61915630Y-92557083D01*
X61764563Y-92593351D01*
X61681908Y-92613195D01*
X61677337Y-92615088D01*
X61677335Y-92615089D01*
X61646313Y-92627939D01*
X61455268Y-92707073D01*
X61358120Y-92766605D01*
X61277788Y-92815832D01*
X61209255Y-92834370D01*
X61141578Y-92812913D01*
X61111128Y-92783965D01*
X61098117Y-92766605D01*
X61038261Y-92686739D01*
X60921705Y-92599385D01*
X60785316Y-92548255D01*
X60723134Y-92541500D01*
X58526866Y-92541500D01*
X58464684Y-92548255D01*
X58328295Y-92599385D01*
X58211739Y-92686739D01*
X58124385Y-92803295D01*
X58073255Y-92939684D01*
X58066500Y-93001866D01*
X58066500Y-95198134D01*
X55636553Y-95198134D01*
X55575233Y-94810969D01*
X55574242Y-94803125D01*
X55572975Y-94789715D01*
X55542638Y-94468790D01*
X55518874Y-94217386D01*
X55518377Y-94209486D01*
X55501176Y-93662149D01*
X55502614Y-93638805D01*
X55503578Y-93632617D01*
X55503578Y-93632612D01*
X55504959Y-93623744D01*
X55503488Y-93612490D01*
X55500832Y-93592185D01*
X55499768Y-93575847D01*
X55499768Y-90479152D01*
X55519770Y-90411031D01*
X55573426Y-90364538D01*
X55643700Y-90354434D01*
X55698038Y-90375938D01*
X55707444Y-90382524D01*
X55718531Y-90388720D01*
X55884495Y-90460540D01*
X55896607Y-90464382D01*
X56075134Y-90501677D01*
X56084666Y-90502915D01*
X56087889Y-90503000D01*
X56237885Y-90503000D01*
X56253124Y-90498525D01*
X56254329Y-90497135D01*
X56256000Y-90489452D01*
X56256000Y-90484885D01*
X56764000Y-90484885D01*
X56768475Y-90500124D01*
X56769865Y-90501329D01*
X56777548Y-90503000D01*
X56885192Y-90503000D01*
X56891567Y-90502677D01*
X57026267Y-90488995D01*
X57038707Y-90486441D01*
X57211264Y-90432365D01*
X57222952Y-90427356D01*
X57381111Y-90339686D01*
X57391544Y-90332435D01*
X57528843Y-90214756D01*
X57537612Y-90205547D01*
X57648442Y-90062667D01*
X57655178Y-90051887D01*
X57735019Y-89889626D01*
X57739445Y-89877727D01*
X57754082Y-89821531D01*
X57753648Y-89807436D01*
X57745467Y-89804000D01*
X56782115Y-89804000D01*
X56766876Y-89808475D01*
X56765671Y-89809865D01*
X56764000Y-89817548D01*
X56764000Y-90484885D01*
X56256000Y-90484885D01*
X56256000Y-89277885D01*
X56764000Y-89277885D01*
X56768475Y-89293124D01*
X56769865Y-89294329D01*
X56777548Y-89296000D01*
X57743901Y-89296000D01*
X57757432Y-89292027D01*
X57758309Y-89285925D01*
X57703170Y-89136064D01*
X57697608Y-89124658D01*
X57602309Y-88970956D01*
X57594560Y-88960895D01*
X57470310Y-88829504D01*
X57460690Y-88821201D01*
X57459967Y-88820695D01*
X58234191Y-88820695D01*
X58241467Y-88892331D01*
X58244021Y-88904770D01*
X58299920Y-89083143D01*
X58304929Y-89094831D01*
X58395553Y-89258320D01*
X58402804Y-89268753D01*
X58524456Y-89410688D01*
X58533647Y-89419441D01*
X58681364Y-89534021D01*
X58692124Y-89540745D01*
X58859860Y-89623281D01*
X58871767Y-89627709D01*
X58938469Y-89645083D01*
X58952564Y-89644649D01*
X58956000Y-89636468D01*
X58956000Y-89635867D01*
X59464000Y-89635867D01*
X59467973Y-89649398D01*
X59474075Y-89650275D01*
X59637145Y-89590277D01*
X59648573Y-89584703D01*
X59807440Y-89486201D01*
X59817504Y-89478451D01*
X59953322Y-89350014D01*
X59961625Y-89340394D01*
X60068845Y-89187269D01*
X60075042Y-89176180D01*
X60149284Y-89004618D01*
X60153123Y-88992515D01*
X60188801Y-88821736D01*
X60187678Y-88807675D01*
X60177571Y-88804000D01*
X59482115Y-88804000D01*
X59466876Y-88808475D01*
X59465671Y-88809865D01*
X59464000Y-88817548D01*
X59464000Y-89635867D01*
X58956000Y-89635867D01*
X58956000Y-88822115D01*
X58951525Y-88806876D01*
X58950135Y-88805671D01*
X58942452Y-88804000D01*
X58250610Y-88804000D01*
X58236250Y-88808216D01*
X58234191Y-88820695D01*
X57459967Y-88820695D01*
X57312557Y-88717477D01*
X57301469Y-88711280D01*
X57135505Y-88639460D01*
X57123393Y-88635618D01*
X56944866Y-88598323D01*
X56935334Y-88597085D01*
X56932111Y-88597000D01*
X56782115Y-88597000D01*
X56766876Y-88601475D01*
X56765671Y-88602865D01*
X56764000Y-88610548D01*
X56764000Y-89277885D01*
X56256000Y-89277885D01*
X56256000Y-88615115D01*
X56251525Y-88599876D01*
X56250135Y-88598671D01*
X56242452Y-88597000D01*
X56134808Y-88597000D01*
X56128433Y-88597323D01*
X55993733Y-88611005D01*
X55981293Y-88613559D01*
X55808736Y-88667635D01*
X55797048Y-88672644D01*
X55686854Y-88733726D01*
X55617577Y-88749258D01*
X55550901Y-88724870D01*
X55507994Y-88668305D01*
X55499768Y-88623524D01*
X55499768Y-88550000D01*
X74486496Y-88550000D01*
X74487186Y-88556565D01*
X74505735Y-88733045D01*
X74506458Y-88739928D01*
X74565473Y-88921556D01*
X74568776Y-88927278D01*
X74568777Y-88927279D01*
X74588185Y-88960895D01*
X74660960Y-89086944D01*
X74665378Y-89091851D01*
X74665379Y-89091852D01*
X74747854Y-89183450D01*
X74788747Y-89228866D01*
X74943248Y-89341118D01*
X74949276Y-89343802D01*
X74949278Y-89343803D01*
X75105830Y-89413504D01*
X75117712Y-89418794D01*
X75203825Y-89437098D01*
X75298056Y-89457128D01*
X75298061Y-89457128D01*
X75304513Y-89458500D01*
X75495487Y-89458500D01*
X75501939Y-89457128D01*
X75501944Y-89457128D01*
X75596175Y-89437098D01*
X75682288Y-89418794D01*
X75694170Y-89413504D01*
X75850722Y-89343803D01*
X75850724Y-89343802D01*
X75856752Y-89341118D01*
X75982165Y-89250000D01*
X77836496Y-89250000D01*
X77837186Y-89256565D01*
X77853955Y-89416109D01*
X77856458Y-89439928D01*
X77915473Y-89621556D01*
X77918776Y-89627278D01*
X77918777Y-89627279D01*
X77927295Y-89642033D01*
X78010960Y-89786944D01*
X78015378Y-89791851D01*
X78015379Y-89791852D01*
X78077313Y-89860637D01*
X78138747Y-89928866D01*
X78293248Y-90041118D01*
X78299276Y-90043802D01*
X78299278Y-90043803D01*
X78385504Y-90082193D01*
X78467712Y-90118794D01*
X78561112Y-90138647D01*
X78648056Y-90157128D01*
X78648061Y-90157128D01*
X78654513Y-90158500D01*
X78845487Y-90158500D01*
X78851939Y-90157128D01*
X78851944Y-90157128D01*
X78938888Y-90138647D01*
X79032288Y-90118794D01*
X79116037Y-90081507D01*
X79198415Y-90044830D01*
X79268782Y-90035396D01*
X79333079Y-90065503D01*
X79343295Y-90075621D01*
X79413747Y-90153866D01*
X79484880Y-90205547D01*
X79551286Y-90253794D01*
X79568248Y-90266118D01*
X79574276Y-90268802D01*
X79574278Y-90268803D01*
X79733485Y-90339686D01*
X79742712Y-90343794D01*
X79836113Y-90363647D01*
X79923056Y-90382128D01*
X79923061Y-90382128D01*
X79929513Y-90383500D01*
X79930873Y-90383500D01*
X79994731Y-90409772D01*
X80035362Y-90467993D01*
X80041215Y-90494899D01*
X80055607Y-90631829D01*
X80056458Y-90639928D01*
X80115473Y-90821556D01*
X80118776Y-90827278D01*
X80118777Y-90827279D01*
X80152686Y-90886010D01*
X80210960Y-90986944D01*
X80215378Y-90991851D01*
X80215379Y-90991852D01*
X80305551Y-91091998D01*
X80338747Y-91128866D01*
X80493248Y-91241118D01*
X80499276Y-91243802D01*
X80499278Y-91243803D01*
X80595708Y-91286736D01*
X80667712Y-91318794D01*
X80761113Y-91338647D01*
X80848056Y-91357128D01*
X80848061Y-91357128D01*
X80854513Y-91358500D01*
X81045487Y-91358500D01*
X81051939Y-91357128D01*
X81051944Y-91357128D01*
X81138887Y-91338647D01*
X81232288Y-91318794D01*
X81304292Y-91286736D01*
X81337177Y-91272095D01*
X82217001Y-91272095D01*
X82217338Y-91278614D01*
X82227257Y-91374206D01*
X82230149Y-91387600D01*
X82281588Y-91541784D01*
X82287761Y-91554962D01*
X82373063Y-91692807D01*
X82382099Y-91704208D01*
X82496829Y-91818739D01*
X82508240Y-91827751D01*
X82646243Y-91912816D01*
X82659424Y-91918963D01*
X82813710Y-91970138D01*
X82827086Y-91973005D01*
X82921438Y-91982672D01*
X82927854Y-91983000D01*
X83177885Y-91983000D01*
X83193124Y-91978525D01*
X83194329Y-91977135D01*
X83196000Y-91969452D01*
X83196000Y-91964884D01*
X83704000Y-91964884D01*
X83708475Y-91980123D01*
X83709865Y-91981328D01*
X83717548Y-91982999D01*
X83972095Y-91982999D01*
X83978614Y-91982662D01*
X84074206Y-91972743D01*
X84087600Y-91969851D01*
X84241784Y-91918412D01*
X84254962Y-91912239D01*
X84392807Y-91826937D01*
X84404208Y-91817901D01*
X84518739Y-91703171D01*
X84527751Y-91691760D01*
X84612816Y-91553757D01*
X84618963Y-91540576D01*
X84670138Y-91386290D01*
X84673005Y-91372914D01*
X84682672Y-91278562D01*
X84683000Y-91272146D01*
X84683000Y-91159615D01*
X84678525Y-91144376D01*
X84677135Y-91143171D01*
X84669452Y-91141500D01*
X83722115Y-91141500D01*
X83706876Y-91145975D01*
X83705671Y-91147365D01*
X83704000Y-91155048D01*
X83704000Y-91964884D01*
X83196000Y-91964884D01*
X83196000Y-91159615D01*
X83191525Y-91144376D01*
X83190135Y-91143171D01*
X83182452Y-91141500D01*
X82235116Y-91141500D01*
X82219877Y-91145975D01*
X82218672Y-91147365D01*
X82217001Y-91155048D01*
X82217001Y-91272095D01*
X81337177Y-91272095D01*
X81400722Y-91243803D01*
X81400724Y-91243802D01*
X81406752Y-91241118D01*
X81561253Y-91128866D01*
X81594449Y-91091998D01*
X81684621Y-90991852D01*
X81684622Y-90991851D01*
X81689040Y-90986944D01*
X81747314Y-90886010D01*
X81781223Y-90827279D01*
X81781224Y-90827278D01*
X81784527Y-90821556D01*
X81843542Y-90639928D01*
X81845029Y-90625785D01*
X81862814Y-90456565D01*
X81863504Y-90450000D01*
X81858048Y-90398088D01*
X81844232Y-90266635D01*
X81844232Y-90266633D01*
X81843542Y-90260072D01*
X81784527Y-90078444D01*
X81777056Y-90065503D01*
X81715792Y-89959392D01*
X81689040Y-89913056D01*
X81606515Y-89821402D01*
X81565675Y-89776045D01*
X81565674Y-89776044D01*
X81561253Y-89771134D01*
X81406752Y-89658882D01*
X81400724Y-89656198D01*
X81400722Y-89656197D01*
X81238319Y-89583891D01*
X81238318Y-89583891D01*
X81232288Y-89581206D01*
X81128801Y-89559209D01*
X81051944Y-89542872D01*
X81051939Y-89542872D01*
X81045487Y-89541500D01*
X81044127Y-89541500D01*
X80980269Y-89515228D01*
X80939638Y-89457007D01*
X80933785Y-89430101D01*
X80919232Y-89291634D01*
X80919231Y-89291631D01*
X80918542Y-89285072D01*
X80891030Y-89200400D01*
X82216500Y-89200400D01*
X82216837Y-89203646D01*
X82216837Y-89203650D01*
X82226246Y-89294329D01*
X82227474Y-89306166D01*
X82229655Y-89312702D01*
X82229655Y-89312704D01*
X82268733Y-89429834D01*
X82283450Y-89473946D01*
X82376522Y-89624348D01*
X82501697Y-89749305D01*
X82506235Y-89752102D01*
X82546824Y-89809353D01*
X82550054Y-89880276D01*
X82514428Y-89941687D01*
X82505932Y-89949062D01*
X82495793Y-89957098D01*
X82381261Y-90071829D01*
X82372249Y-90083240D01*
X82287184Y-90221243D01*
X82281037Y-90234424D01*
X82229862Y-90388710D01*
X82226995Y-90402086D01*
X82217328Y-90496438D01*
X82217000Y-90502855D01*
X82217000Y-90615385D01*
X82221475Y-90630624D01*
X82222865Y-90631829D01*
X82230548Y-90633500D01*
X84664884Y-90633500D01*
X84680123Y-90629025D01*
X84681328Y-90627635D01*
X84682999Y-90619952D01*
X84682999Y-90502905D01*
X84682662Y-90496386D01*
X84672743Y-90400794D01*
X84669851Y-90387400D01*
X84640693Y-90300000D01*
X89561496Y-90300000D01*
X89562186Y-90306565D01*
X89579153Y-90467993D01*
X89581458Y-90489928D01*
X89640473Y-90671556D01*
X89643776Y-90677278D01*
X89643777Y-90677279D01*
X89658530Y-90702831D01*
X89735960Y-90836944D01*
X89740378Y-90841851D01*
X89740379Y-90841852D01*
X89845409Y-90958500D01*
X89863747Y-90978866D01*
X89932468Y-91028795D01*
X89992919Y-91072715D01*
X90018248Y-91091118D01*
X90024276Y-91093802D01*
X90024278Y-91093803D01*
X90186605Y-91166075D01*
X90192712Y-91168794D01*
X90255340Y-91182106D01*
X90373056Y-91207128D01*
X90373061Y-91207128D01*
X90379513Y-91208500D01*
X90570487Y-91208500D01*
X90576939Y-91207128D01*
X90576944Y-91207128D01*
X90694660Y-91182106D01*
X90757288Y-91168794D01*
X90763395Y-91166075D01*
X90925722Y-91093803D01*
X90925724Y-91093802D01*
X90931752Y-91091118D01*
X90957082Y-91072715D01*
X91017532Y-91028795D01*
X91086253Y-90978866D01*
X91104591Y-90958500D01*
X91209621Y-90841852D01*
X91209622Y-90841851D01*
X91214040Y-90836944D01*
X91220705Y-90825400D01*
X93891500Y-90825400D01*
X93891837Y-90828646D01*
X93891837Y-90828650D01*
X93900238Y-90909612D01*
X93902474Y-90931166D01*
X93904655Y-90937702D01*
X93904655Y-90937704D01*
X93931502Y-91018173D01*
X93958450Y-91098946D01*
X94051522Y-91249348D01*
X94056704Y-91254521D01*
X94071546Y-91269337D01*
X94176697Y-91374305D01*
X94182927Y-91378145D01*
X94182928Y-91378146D01*
X94306183Y-91454122D01*
X94353677Y-91506895D01*
X94366005Y-91557420D01*
X94366438Y-91571183D01*
X94366500Y-91575145D01*
X94366500Y-91603056D01*
X94366997Y-91606990D01*
X94366997Y-91606991D01*
X94367005Y-91607056D01*
X94367938Y-91618893D01*
X94369327Y-91663089D01*
X94373762Y-91678354D01*
X94374978Y-91682539D01*
X94378987Y-91701900D01*
X94381526Y-91721997D01*
X94384445Y-91729368D01*
X94384445Y-91729370D01*
X94397804Y-91763112D01*
X94401649Y-91774342D01*
X94410431Y-91804570D01*
X94413982Y-91816793D01*
X94418015Y-91823612D01*
X94418017Y-91823617D01*
X94424293Y-91834228D01*
X94432988Y-91851976D01*
X94440448Y-91870817D01*
X94445110Y-91877233D01*
X94445110Y-91877234D01*
X94466436Y-91906587D01*
X94472952Y-91916507D01*
X94486712Y-91939773D01*
X94495458Y-91954562D01*
X94509779Y-91968883D01*
X94522619Y-91983916D01*
X94534528Y-92000307D01*
X94540634Y-92005358D01*
X94568605Y-92028498D01*
X94577384Y-92036488D01*
X95012417Y-92471521D01*
X95046443Y-92533833D01*
X95044739Y-92594288D01*
X95008077Y-92726485D01*
X95007528Y-92731619D01*
X95007528Y-92731621D01*
X95002049Y-92782889D01*
X94982770Y-92963294D01*
X94983067Y-92968446D01*
X94983067Y-92968450D01*
X94989102Y-93073113D01*
X94996479Y-93201055D01*
X94997616Y-93206101D01*
X94997617Y-93206107D01*
X95022165Y-93315031D01*
X95048837Y-93433385D01*
X95050779Y-93438167D01*
X95050780Y-93438171D01*
X95136493Y-93649257D01*
X95138437Y-93654044D01*
X95262874Y-93857106D01*
X95418804Y-94037117D01*
X95509979Y-94112812D01*
X95589954Y-94179208D01*
X95602042Y-94189244D01*
X95606494Y-94191846D01*
X95606499Y-94191849D01*
X95790388Y-94299305D01*
X95807665Y-94309401D01*
X96030152Y-94394360D01*
X96035218Y-94395391D01*
X96035219Y-94395391D01*
X96089556Y-94406446D01*
X96263528Y-94441841D01*
X96397721Y-94446762D01*
X96496360Y-94450379D01*
X96496364Y-94450379D01*
X96501524Y-94450568D01*
X96506644Y-94449912D01*
X96506646Y-94449912D01*
X96732623Y-94420964D01*
X96732624Y-94420964D01*
X96737751Y-94420307D01*
X96824040Y-94394419D01*
X96960916Y-94353354D01*
X96960917Y-94353353D01*
X96965862Y-94351870D01*
X97179733Y-94247095D01*
X97183936Y-94244097D01*
X97183941Y-94244094D01*
X97369416Y-94111796D01*
X97369418Y-94111794D01*
X97373620Y-94108797D01*
X97542316Y-93940689D01*
X97552383Y-93926680D01*
X97596248Y-93865635D01*
X97681290Y-93747286D01*
X97683835Y-93742138D01*
X97784517Y-93538424D01*
X97784518Y-93538422D01*
X97786811Y-93533782D01*
X97856043Y-93305911D01*
X97866236Y-93228489D01*
X97886692Y-93073113D01*
X97886692Y-93073109D01*
X97887129Y-93069792D01*
X97887211Y-93066440D01*
X97888782Y-93002165D01*
X97888782Y-93002161D01*
X97888864Y-92998800D01*
X97869350Y-92761444D01*
X97811331Y-92530463D01*
X97732153Y-92348365D01*
X97718427Y-92316796D01*
X97718425Y-92316793D01*
X97716367Y-92312059D01*
X97701203Y-92288618D01*
X97593645Y-92122361D01*
X97587006Y-92112098D01*
X97583173Y-92107885D01*
X97523222Y-92042000D01*
X97426724Y-91935950D01*
X97422673Y-91932751D01*
X97422669Y-91932747D01*
X97243878Y-91791547D01*
X97243873Y-91791544D01*
X97239824Y-91788346D01*
X97235306Y-91785852D01*
X97235300Y-91785848D01*
X97206245Y-91769809D01*
X97156274Y-91719376D01*
X97141502Y-91649934D01*
X97166618Y-91583528D01*
X97223649Y-91541243D01*
X97267138Y-91533500D01*
X97400400Y-91533500D01*
X97403646Y-91533163D01*
X97403650Y-91533163D01*
X97499308Y-91523238D01*
X97499312Y-91523237D01*
X97506166Y-91522526D01*
X97512702Y-91520345D01*
X97512704Y-91520345D01*
X97666998Y-91468868D01*
X97673946Y-91466550D01*
X97824348Y-91373478D01*
X97949305Y-91248303D01*
X98021223Y-91131631D01*
X98073994Y-91084139D01*
X98144066Y-91072715D01*
X98209190Y-91100989D01*
X98235914Y-91131912D01*
X98263974Y-91177701D01*
X98263978Y-91177706D01*
X98266674Y-91182106D01*
X98422604Y-91362117D01*
X98605842Y-91514244D01*
X98610294Y-91516846D01*
X98610299Y-91516849D01*
X98788022Y-91620702D01*
X98811465Y-91634401D01*
X99033952Y-91719360D01*
X99039018Y-91720391D01*
X99039019Y-91720391D01*
X99046913Y-91721997D01*
X99267328Y-91766841D01*
X99401521Y-91771762D01*
X99500160Y-91775379D01*
X99500164Y-91775379D01*
X99505324Y-91775568D01*
X99510444Y-91774912D01*
X99510446Y-91774912D01*
X99736423Y-91745964D01*
X99736424Y-91745964D01*
X99741551Y-91745307D01*
X99748141Y-91743330D01*
X99964716Y-91678354D01*
X99964717Y-91678353D01*
X99969662Y-91676870D01*
X100183533Y-91572095D01*
X100187736Y-91569097D01*
X100187741Y-91569094D01*
X100264555Y-91514303D01*
X103134926Y-91514303D01*
X103140207Y-91521358D01*
X103328421Y-91631341D01*
X103337708Y-91635791D01*
X103550461Y-91717033D01*
X103560363Y-91719910D01*
X103783511Y-91765310D01*
X103793763Y-91766533D01*
X104021338Y-91774877D01*
X104031624Y-91774410D01*
X104257515Y-91745473D01*
X104267601Y-91743330D01*
X104485728Y-91677888D01*
X104495323Y-91674128D01*
X104699837Y-91573937D01*
X104708683Y-91568663D01*
X104774231Y-91521908D01*
X104782632Y-91511208D01*
X104775645Y-91498056D01*
X103973411Y-90695821D01*
X103959468Y-90688208D01*
X103957634Y-90688339D01*
X103951020Y-90692590D01*
X103141683Y-91501928D01*
X103134926Y-91514303D01*
X100264555Y-91514303D01*
X100373216Y-91436796D01*
X100373218Y-91436794D01*
X100377420Y-91433797D01*
X100546116Y-91265689D01*
X100562334Y-91243120D01*
X100575744Y-91224457D01*
X100685090Y-91072286D01*
X100689655Y-91063051D01*
X100788317Y-90863424D01*
X100788318Y-90863422D01*
X100790611Y-90858782D01*
X100855196Y-90646206D01*
X100858341Y-90635855D01*
X100858341Y-90635854D01*
X100859843Y-90630911D01*
X100876694Y-90502915D01*
X100890492Y-90398113D01*
X100890492Y-90398109D01*
X100890929Y-90394792D01*
X100891390Y-90375938D01*
X100892582Y-90327165D01*
X100892582Y-90327161D01*
X100892664Y-90323800D01*
X100890170Y-90293462D01*
X102508569Y-90293462D01*
X102521678Y-90520817D01*
X102523114Y-90531037D01*
X102573180Y-90753193D01*
X102576259Y-90763021D01*
X102661938Y-90974023D01*
X102666591Y-90983234D01*
X102761753Y-91138523D01*
X102772211Y-91147985D01*
X102780987Y-91144202D01*
X103588579Y-90336611D01*
X103594956Y-90324932D01*
X104325008Y-90324932D01*
X104325139Y-90326766D01*
X104329390Y-90333380D01*
X105135426Y-91139415D01*
X105147432Y-91145971D01*
X105159171Y-91137002D01*
X105202841Y-91076229D01*
X105208151Y-91067392D01*
X105309050Y-90863238D01*
X105312849Y-90853643D01*
X105379049Y-90635757D01*
X105381228Y-90625676D01*
X105411191Y-90398088D01*
X105411710Y-90391415D01*
X105413280Y-90327165D01*
X105413086Y-90320446D01*
X105394279Y-90091687D01*
X105392594Y-90081507D01*
X105337115Y-89860637D01*
X105333795Y-89850886D01*
X105242984Y-89642033D01*
X105238118Y-89632958D01*
X105158608Y-89510056D01*
X105147922Y-89500852D01*
X105138355Y-89505256D01*
X104332621Y-90310989D01*
X104325008Y-90324932D01*
X103594956Y-90324932D01*
X103596192Y-90322668D01*
X103596061Y-90320834D01*
X103591810Y-90314220D01*
X102785820Y-89508231D01*
X102774288Y-89501934D01*
X102762006Y-89511557D01*
X102700347Y-89601946D01*
X102695254Y-89610910D01*
X102599368Y-89817479D01*
X102595811Y-89827147D01*
X102534952Y-90046597D01*
X102533021Y-90056716D01*
X102508821Y-90283173D01*
X102508569Y-90293462D01*
X100890170Y-90293462D01*
X100873150Y-90086444D01*
X100815131Y-89855463D01*
X100756291Y-89720139D01*
X100722227Y-89641796D01*
X100722225Y-89641793D01*
X100720167Y-89637059D01*
X100715291Y-89629521D01*
X100635508Y-89506197D01*
X100590806Y-89437098D01*
X100584440Y-89430101D01*
X100502812Y-89340394D01*
X100430524Y-89260950D01*
X100426473Y-89257751D01*
X100426469Y-89257747D01*
X100272418Y-89136085D01*
X103137681Y-89136085D01*
X103144425Y-89148414D01*
X103947789Y-89951779D01*
X103961732Y-89959392D01*
X103963566Y-89959261D01*
X103970180Y-89955010D01*
X104777931Y-89147258D01*
X104784948Y-89134407D01*
X104777174Y-89123737D01*
X104768604Y-89116969D01*
X104760017Y-89111264D01*
X104560655Y-89001210D01*
X104551243Y-88996980D01*
X104336571Y-88920960D01*
X104326614Y-88918330D01*
X104102405Y-88878391D01*
X104092154Y-88877422D01*
X103864430Y-88874640D01*
X103854146Y-88875360D01*
X103629037Y-88909806D01*
X103619010Y-88912195D01*
X103402551Y-88982944D01*
X103393042Y-88986941D01*
X103191051Y-89092092D01*
X103182316Y-89097593D01*
X103146135Y-89124758D01*
X103137681Y-89136085D01*
X100272418Y-89136085D01*
X100247678Y-89116547D01*
X100247673Y-89116544D01*
X100243624Y-89113346D01*
X100239108Y-89110853D01*
X100239105Y-89110851D01*
X100039650Y-89000746D01*
X100039646Y-89000744D01*
X100035126Y-88998249D01*
X100030257Y-88996525D01*
X100030253Y-88996523D01*
X99815505Y-88920476D01*
X99815501Y-88920475D01*
X99810630Y-88918750D01*
X99805540Y-88917843D01*
X99805535Y-88917842D01*
X99662312Y-88892331D01*
X99576164Y-88876986D01*
X99487037Y-88875897D01*
X99343195Y-88874139D01*
X99343193Y-88874139D01*
X99338025Y-88874076D01*
X99102609Y-88910100D01*
X98876238Y-88984089D01*
X98664990Y-89094058D01*
X98660857Y-89097161D01*
X98660854Y-89097163D01*
X98480271Y-89232749D01*
X98474540Y-89237052D01*
X98440505Y-89272668D01*
X98321511Y-89397188D01*
X98310002Y-89409231D01*
X98307088Y-89413503D01*
X98307087Y-89413504D01*
X98295765Y-89430101D01*
X98242025Y-89508882D01*
X98232456Y-89522909D01*
X98177545Y-89567912D01*
X98107020Y-89576083D01*
X98043273Y-89544829D01*
X98021224Y-89518208D01*
X98016180Y-89510056D01*
X97948478Y-89400652D01*
X97823303Y-89275695D01*
X97812041Y-89268753D01*
X97678968Y-89186725D01*
X97678966Y-89186724D01*
X97672738Y-89182885D01*
X97568811Y-89148414D01*
X97511389Y-89129368D01*
X97511387Y-89129368D01*
X97504861Y-89127203D01*
X97498025Y-89126503D01*
X97498022Y-89126502D01*
X97454969Y-89122091D01*
X97400400Y-89116500D01*
X96599600Y-89116500D01*
X96596354Y-89116837D01*
X96596350Y-89116837D01*
X96500692Y-89126762D01*
X96500688Y-89126763D01*
X96493834Y-89127474D01*
X96487298Y-89129655D01*
X96487296Y-89129655D01*
X96434534Y-89147258D01*
X96326054Y-89183450D01*
X96175652Y-89276522D01*
X96111169Y-89341118D01*
X96089216Y-89363109D01*
X96026934Y-89397188D01*
X95956114Y-89392185D01*
X95911025Y-89363264D01*
X95828483Y-89280866D01*
X95823303Y-89275695D01*
X95812041Y-89268753D01*
X95678968Y-89186725D01*
X95678966Y-89186724D01*
X95672738Y-89182885D01*
X95568811Y-89148414D01*
X95511389Y-89129368D01*
X95511387Y-89129368D01*
X95504861Y-89127203D01*
X95498025Y-89126503D01*
X95498022Y-89126502D01*
X95454969Y-89122091D01*
X95400400Y-89116500D01*
X94599600Y-89116500D01*
X94596354Y-89116837D01*
X94596350Y-89116837D01*
X94500692Y-89126762D01*
X94500688Y-89126763D01*
X94493834Y-89127474D01*
X94487298Y-89129655D01*
X94487296Y-89129655D01*
X94434534Y-89147258D01*
X94326054Y-89183450D01*
X94175652Y-89276522D01*
X94050695Y-89401697D01*
X94046855Y-89407927D01*
X94046854Y-89407928D01*
X93964063Y-89542240D01*
X93957885Y-89552262D01*
X93932259Y-89629521D01*
X93906519Y-89707128D01*
X93902203Y-89720139D01*
X93891500Y-89824600D01*
X93891500Y-90825400D01*
X91220705Y-90825400D01*
X91291470Y-90702831D01*
X91306223Y-90677279D01*
X91306224Y-90677278D01*
X91309527Y-90671556D01*
X91368542Y-90489928D01*
X91370848Y-90467993D01*
X91387814Y-90306565D01*
X91388504Y-90300000D01*
X91368542Y-90110072D01*
X91309527Y-89928444D01*
X91291677Y-89897526D01*
X91251043Y-89827147D01*
X91214040Y-89763056D01*
X91203577Y-89751435D01*
X91090675Y-89626045D01*
X91090674Y-89626044D01*
X91086253Y-89621134D01*
X90976491Y-89541387D01*
X90937094Y-89512763D01*
X90937093Y-89512762D01*
X90931752Y-89508882D01*
X90925724Y-89506198D01*
X90925722Y-89506197D01*
X90763319Y-89433891D01*
X90763318Y-89433891D01*
X90757288Y-89431206D01*
X90660759Y-89410688D01*
X90576944Y-89392872D01*
X90576939Y-89392872D01*
X90570487Y-89391500D01*
X90379513Y-89391500D01*
X90373061Y-89392872D01*
X90373056Y-89392872D01*
X90289241Y-89410688D01*
X90192712Y-89431206D01*
X90186682Y-89433891D01*
X90186681Y-89433891D01*
X90024278Y-89506197D01*
X90024276Y-89506198D01*
X90018248Y-89508882D01*
X90012907Y-89512762D01*
X90012906Y-89512763D01*
X89973509Y-89541387D01*
X89863747Y-89621134D01*
X89859326Y-89626044D01*
X89859325Y-89626045D01*
X89746424Y-89751435D01*
X89735960Y-89763056D01*
X89698957Y-89827147D01*
X89658324Y-89897526D01*
X89640473Y-89928444D01*
X89581458Y-90110072D01*
X89561496Y-90300000D01*
X84640693Y-90300000D01*
X84618412Y-90233216D01*
X84612239Y-90220038D01*
X84526937Y-90082193D01*
X84517901Y-90070792D01*
X84403172Y-89956262D01*
X84394238Y-89949206D01*
X84353177Y-89891288D01*
X84349947Y-89820365D01*
X84385574Y-89758954D01*
X84393407Y-89752154D01*
X84399348Y-89748478D01*
X84521909Y-89625703D01*
X84584191Y-89591624D01*
X84655011Y-89596627D01*
X84662324Y-89599611D01*
X84725433Y-89627709D01*
X84789419Y-89656197D01*
X84817712Y-89668794D01*
X84911112Y-89688647D01*
X84998056Y-89707128D01*
X84998061Y-89707128D01*
X85004513Y-89708500D01*
X85195487Y-89708500D01*
X85201939Y-89707128D01*
X85201944Y-89707128D01*
X85288888Y-89688647D01*
X85382288Y-89668794D01*
X85404551Y-89658882D01*
X85550722Y-89593803D01*
X85550724Y-89593802D01*
X85556752Y-89591118D01*
X85565582Y-89584703D01*
X85623157Y-89542872D01*
X85711253Y-89478866D01*
X85764107Y-89420166D01*
X85834621Y-89341852D01*
X85834622Y-89341851D01*
X85839040Y-89336944D01*
X85904274Y-89223955D01*
X85931223Y-89177279D01*
X85931224Y-89177278D01*
X85934527Y-89171556D01*
X85993542Y-88989928D01*
X85996594Y-88960895D01*
X86012814Y-88806565D01*
X86013504Y-88800000D01*
X86006538Y-88733726D01*
X85994232Y-88616635D01*
X85994232Y-88616633D01*
X85993542Y-88610072D01*
X85934527Y-88428444D01*
X85931135Y-88422568D01*
X85875030Y-88325393D01*
X85839040Y-88263056D01*
X85769985Y-88186362D01*
X85739269Y-88122357D01*
X85748033Y-88051903D01*
X85793495Y-87997372D01*
X85861223Y-87976077D01*
X85889819Y-87978807D01*
X86023056Y-88007128D01*
X86023061Y-88007128D01*
X86029513Y-88008500D01*
X86220487Y-88008500D01*
X86226939Y-88007128D01*
X86226944Y-88007128D01*
X86321899Y-87986944D01*
X86407288Y-87968794D01*
X86485682Y-87933891D01*
X86575722Y-87893803D01*
X86575724Y-87893802D01*
X86581752Y-87891118D01*
X86736253Y-87778866D01*
X86821769Y-87683891D01*
X86859621Y-87641852D01*
X86859625Y-87641847D01*
X86864040Y-87636944D01*
X86959527Y-87471556D01*
X87018542Y-87289928D01*
X87036350Y-87120499D01*
X87037814Y-87106565D01*
X87038504Y-87100000D01*
X87024487Y-86966635D01*
X87019232Y-86916635D01*
X87019232Y-86916633D01*
X87018542Y-86910072D01*
X86959527Y-86728444D01*
X86864040Y-86563056D01*
X86814242Y-86507749D01*
X86740675Y-86426045D01*
X86740674Y-86426044D01*
X86736253Y-86421134D01*
X86609121Y-86328767D01*
X86587094Y-86312763D01*
X86587093Y-86312762D01*
X86581752Y-86308882D01*
X86575724Y-86306198D01*
X86575722Y-86306197D01*
X86413319Y-86233891D01*
X86413318Y-86233891D01*
X86407288Y-86231206D01*
X86313888Y-86211353D01*
X86226944Y-86192872D01*
X86226939Y-86192872D01*
X86220487Y-86191500D01*
X86029513Y-86191500D01*
X86023061Y-86192872D01*
X86023056Y-86192872D01*
X85936112Y-86211353D01*
X85842712Y-86231206D01*
X85836682Y-86233891D01*
X85836681Y-86233891D01*
X85674278Y-86306197D01*
X85674276Y-86306198D01*
X85668248Y-86308882D01*
X85662907Y-86312762D01*
X85662906Y-86312763D01*
X85640879Y-86328767D01*
X85513747Y-86421134D01*
X85509326Y-86426044D01*
X85509325Y-86426045D01*
X85435759Y-86507749D01*
X85385960Y-86563056D01*
X85290473Y-86728444D01*
X85231458Y-86910072D01*
X85230768Y-86916633D01*
X85230768Y-86916635D01*
X85225513Y-86966635D01*
X85211496Y-87100000D01*
X85212186Y-87106565D01*
X85213651Y-87120499D01*
X85231458Y-87289928D01*
X85290473Y-87471556D01*
X85385960Y-87636944D01*
X85455015Y-87713638D01*
X85485731Y-87777643D01*
X85476967Y-87848097D01*
X85431505Y-87902628D01*
X85363777Y-87923923D01*
X85335181Y-87921193D01*
X85201944Y-87892872D01*
X85201939Y-87892872D01*
X85195487Y-87891500D01*
X85004513Y-87891500D01*
X84998061Y-87892872D01*
X84998056Y-87892872D01*
X84911112Y-87911353D01*
X84817712Y-87931206D01*
X84811682Y-87933891D01*
X84811681Y-87933891D01*
X84762333Y-87955862D01*
X84645157Y-88008032D01*
X84574791Y-88017466D01*
X84510494Y-87987360D01*
X84504902Y-87982108D01*
X84398303Y-87875695D01*
X84392072Y-87871854D01*
X84253968Y-87786725D01*
X84253966Y-87786724D01*
X84247738Y-87782885D01*
X84087254Y-87729655D01*
X84086389Y-87729368D01*
X84086387Y-87729368D01*
X84079861Y-87727203D01*
X84073025Y-87726503D01*
X84073022Y-87726502D01*
X84029969Y-87722091D01*
X83975400Y-87716500D01*
X82924600Y-87716500D01*
X82921354Y-87716837D01*
X82921350Y-87716837D01*
X82825692Y-87726762D01*
X82825688Y-87726763D01*
X82818834Y-87727474D01*
X82812298Y-87729655D01*
X82812296Y-87729655D01*
X82732741Y-87756197D01*
X82651054Y-87783450D01*
X82500652Y-87876522D01*
X82375695Y-88001697D01*
X82371855Y-88007927D01*
X82371854Y-88007928D01*
X82297307Y-88128866D01*
X82282885Y-88152262D01*
X82280581Y-88159209D01*
X82235210Y-88296000D01*
X82227203Y-88320139D01*
X82226503Y-88326975D01*
X82226502Y-88326978D01*
X82223111Y-88360072D01*
X82216500Y-88424600D01*
X82216500Y-89200400D01*
X80891030Y-89200400D01*
X80859527Y-89103444D01*
X80852835Y-89091852D01*
X80800234Y-89000746D01*
X80764040Y-88938056D01*
X80754337Y-88927279D01*
X80640675Y-88801045D01*
X80640674Y-88801044D01*
X80636253Y-88796134D01*
X80481752Y-88683882D01*
X80475724Y-88681198D01*
X80475722Y-88681197D01*
X80313319Y-88608891D01*
X80313318Y-88608891D01*
X80307288Y-88606206D01*
X80213888Y-88586353D01*
X80126944Y-88567872D01*
X80126939Y-88567872D01*
X80120487Y-88566500D01*
X80081018Y-88566500D01*
X80012897Y-88546498D01*
X79966404Y-88492842D01*
X79956300Y-88422568D01*
X79985794Y-88357988D01*
X80029769Y-88325393D01*
X80100722Y-88293803D01*
X80100724Y-88293802D01*
X80106752Y-88291118D01*
X80261253Y-88178866D01*
X80389040Y-88036944D01*
X80484527Y-87871556D01*
X80543542Y-87689928D01*
X80546453Y-87662237D01*
X80562814Y-87506565D01*
X80563504Y-87500000D01*
X80543542Y-87310072D01*
X80484527Y-87128444D01*
X80479746Y-87120162D01*
X80392341Y-86968774D01*
X80389040Y-86963056D01*
X80382148Y-86955401D01*
X80265675Y-86826045D01*
X80265674Y-86826044D01*
X80261253Y-86821134D01*
X80106752Y-86708882D01*
X80100724Y-86706198D01*
X80100722Y-86706197D01*
X79938319Y-86633891D01*
X79938318Y-86633891D01*
X79932288Y-86631206D01*
X79838887Y-86611353D01*
X79751944Y-86592872D01*
X79751939Y-86592872D01*
X79745487Y-86591500D01*
X79554513Y-86591500D01*
X79548061Y-86592872D01*
X79548056Y-86592872D01*
X79461113Y-86611353D01*
X79367712Y-86631206D01*
X79361682Y-86633891D01*
X79361681Y-86633891D01*
X79199278Y-86706197D01*
X79199276Y-86706198D01*
X79193248Y-86708882D01*
X79038747Y-86821134D01*
X79034326Y-86826044D01*
X79034325Y-86826045D01*
X78917853Y-86955401D01*
X78910960Y-86963056D01*
X78907659Y-86968774D01*
X78820255Y-87120162D01*
X78815473Y-87128444D01*
X78756458Y-87310072D01*
X78736496Y-87500000D01*
X78737186Y-87506565D01*
X78753548Y-87662237D01*
X78756458Y-87689928D01*
X78815473Y-87871556D01*
X78910960Y-88036944D01*
X79006105Y-88142614D01*
X79036821Y-88206619D01*
X79028057Y-88277073D01*
X78982595Y-88331604D01*
X78914867Y-88352899D01*
X78886271Y-88350169D01*
X78851944Y-88342872D01*
X78851939Y-88342872D01*
X78845487Y-88341500D01*
X78654513Y-88341500D01*
X78648061Y-88342872D01*
X78648056Y-88342872D01*
X78567139Y-88360072D01*
X78467712Y-88381206D01*
X78461682Y-88383891D01*
X78461681Y-88383891D01*
X78299278Y-88456197D01*
X78299276Y-88456198D01*
X78293248Y-88458882D01*
X78138747Y-88571134D01*
X78134326Y-88576044D01*
X78134325Y-88576045D01*
X78103259Y-88610548D01*
X78010960Y-88713056D01*
X77915473Y-88878444D01*
X77856458Y-89060072D01*
X77855768Y-89066633D01*
X77855768Y-89066635D01*
X77839233Y-89223955D01*
X77836496Y-89250000D01*
X75982165Y-89250000D01*
X76011253Y-89228866D01*
X76052146Y-89183450D01*
X76134621Y-89091852D01*
X76134622Y-89091851D01*
X76139040Y-89086944D01*
X76211815Y-88960895D01*
X76231223Y-88927279D01*
X76231224Y-88927278D01*
X76234527Y-88921556D01*
X76293542Y-88739928D01*
X76294266Y-88733045D01*
X76312814Y-88556565D01*
X76313504Y-88550000D01*
X76298632Y-88408500D01*
X76294232Y-88366635D01*
X76294232Y-88366633D01*
X76293542Y-88360072D01*
X76234527Y-88178444D01*
X76139040Y-88013056D01*
X76134517Y-88008032D01*
X76015675Y-87876045D01*
X76015674Y-87876044D01*
X76011253Y-87871134D01*
X75895874Y-87787306D01*
X75862094Y-87762763D01*
X75862093Y-87762762D01*
X75856752Y-87758882D01*
X75850724Y-87756198D01*
X75850722Y-87756197D01*
X75688319Y-87683891D01*
X75688318Y-87683891D01*
X75682288Y-87681206D01*
X75588888Y-87661353D01*
X75501944Y-87642872D01*
X75501939Y-87642872D01*
X75495487Y-87641500D01*
X75304513Y-87641500D01*
X75298061Y-87642872D01*
X75298056Y-87642872D01*
X75211112Y-87661353D01*
X75117712Y-87681206D01*
X75111682Y-87683891D01*
X75111681Y-87683891D01*
X74949278Y-87756197D01*
X74949276Y-87756198D01*
X74943248Y-87758882D01*
X74937907Y-87762762D01*
X74937906Y-87762763D01*
X74904126Y-87787306D01*
X74788747Y-87871134D01*
X74784326Y-87876044D01*
X74784325Y-87876045D01*
X74665484Y-88008032D01*
X74660960Y-88013056D01*
X74565473Y-88178444D01*
X74506458Y-88360072D01*
X74505768Y-88366633D01*
X74505768Y-88366635D01*
X74501368Y-88408500D01*
X74486496Y-88550000D01*
X55499768Y-88550000D01*
X55499768Y-88278264D01*
X58231199Y-88278264D01*
X58232322Y-88292325D01*
X58242429Y-88296000D01*
X58937885Y-88296000D01*
X58953124Y-88291525D01*
X58954329Y-88290135D01*
X58956000Y-88282452D01*
X58956000Y-88277885D01*
X59464000Y-88277885D01*
X59468475Y-88293124D01*
X59469865Y-88294329D01*
X59477548Y-88296000D01*
X60169390Y-88296000D01*
X60183750Y-88291784D01*
X60185809Y-88279305D01*
X60178533Y-88207669D01*
X60175979Y-88195230D01*
X60120080Y-88016857D01*
X60115071Y-88005169D01*
X60024447Y-87841680D01*
X60017196Y-87831247D01*
X59895544Y-87689312D01*
X59886353Y-87680559D01*
X59738636Y-87565979D01*
X59727876Y-87559255D01*
X59560140Y-87476719D01*
X59548233Y-87472291D01*
X59481531Y-87454917D01*
X59467436Y-87455351D01*
X59464000Y-87463532D01*
X59464000Y-88277885D01*
X58956000Y-88277885D01*
X58956000Y-87464133D01*
X58952027Y-87450602D01*
X58945925Y-87449725D01*
X58782855Y-87509723D01*
X58771427Y-87515297D01*
X58612560Y-87613799D01*
X58602496Y-87621549D01*
X58466678Y-87749986D01*
X58458375Y-87759606D01*
X58351155Y-87912731D01*
X58344958Y-87923820D01*
X58270716Y-88095382D01*
X58266877Y-88107485D01*
X58231199Y-88278264D01*
X55499768Y-88278264D01*
X55499768Y-84775000D01*
X56970998Y-84775000D01*
X56971688Y-84781565D01*
X56990218Y-84957865D01*
X56990960Y-84964928D01*
X57049975Y-85146556D01*
X57145462Y-85311944D01*
X57149880Y-85316851D01*
X57149881Y-85316852D01*
X57234384Y-85410702D01*
X57273249Y-85453866D01*
X57427750Y-85566118D01*
X57433778Y-85568802D01*
X57433780Y-85568803D01*
X57594602Y-85640405D01*
X57602214Y-85643794D01*
X57695614Y-85663647D01*
X57782558Y-85682128D01*
X57782563Y-85682128D01*
X57789015Y-85683500D01*
X57979989Y-85683500D01*
X57986441Y-85682128D01*
X57986446Y-85682128D01*
X58073390Y-85663647D01*
X58166790Y-85643794D01*
X58174402Y-85640405D01*
X58335224Y-85568803D01*
X58335226Y-85568802D01*
X58341254Y-85566118D01*
X58379551Y-85538294D01*
X58487685Y-85459729D01*
X58495755Y-85453866D01*
X58500170Y-85448963D01*
X58505082Y-85444540D01*
X58506207Y-85445789D01*
X58559516Y-85412949D01*
X58592702Y-85408500D01*
X60046233Y-85408500D01*
X60057421Y-85409028D01*
X60064909Y-85410702D01*
X60072827Y-85410453D01*
X60077362Y-85410882D01*
X60143297Y-85437208D01*
X60184532Y-85495003D01*
X60191500Y-85536322D01*
X60191500Y-85741502D01*
X60191693Y-85743950D01*
X60191693Y-85743958D01*
X60193822Y-85771000D01*
X60194438Y-85778831D01*
X60240855Y-85938601D01*
X60244892Y-85945427D01*
X60321509Y-86074980D01*
X60321511Y-86074983D01*
X60325547Y-86081807D01*
X60443193Y-86199453D01*
X60450017Y-86203489D01*
X60450020Y-86203491D01*
X60494564Y-86229834D01*
X60586399Y-86284145D01*
X60594010Y-86286356D01*
X60594012Y-86286357D01*
X60631042Y-86297115D01*
X60746169Y-86330562D01*
X60752574Y-86331066D01*
X60752579Y-86331067D01*
X60781042Y-86333307D01*
X60781050Y-86333307D01*
X60783498Y-86333500D01*
X62091502Y-86333500D01*
X62093156Y-86333370D01*
X62161900Y-86350662D01*
X62210459Y-86402455D01*
X62223307Y-86472280D01*
X62215014Y-86503295D01*
X62215473Y-86503444D01*
X62156458Y-86685072D01*
X62155768Y-86691633D01*
X62155768Y-86691635D01*
X62142566Y-86817251D01*
X62136496Y-86875000D01*
X62137186Y-86881565D01*
X62154862Y-87049739D01*
X62156458Y-87064928D01*
X62215473Y-87246556D01*
X62310960Y-87411944D01*
X62315378Y-87416851D01*
X62315379Y-87416852D01*
X62403996Y-87515271D01*
X62438747Y-87553866D01*
X62521237Y-87613799D01*
X62565842Y-87646206D01*
X62593248Y-87666118D01*
X62599276Y-87668802D01*
X62599278Y-87668803D01*
X62735955Y-87729655D01*
X62767712Y-87743794D01*
X62856954Y-87762763D01*
X62948056Y-87782128D01*
X62948061Y-87782128D01*
X62954513Y-87783500D01*
X63145487Y-87783500D01*
X63151939Y-87782128D01*
X63151944Y-87782128D01*
X63243046Y-87762763D01*
X63332288Y-87743794D01*
X63364045Y-87729655D01*
X63500722Y-87668803D01*
X63500724Y-87668802D01*
X63506752Y-87666118D01*
X63534159Y-87646206D01*
X63578763Y-87613799D01*
X63661253Y-87553866D01*
X63696004Y-87515271D01*
X63754774Y-87450000D01*
X69636496Y-87450000D01*
X69656458Y-87639928D01*
X69715473Y-87821556D01*
X69718776Y-87827278D01*
X69718777Y-87827279D01*
X69730796Y-87848097D01*
X69810960Y-87986944D01*
X69815378Y-87991851D01*
X69815379Y-87991852D01*
X69908598Y-88095382D01*
X69938747Y-88128866D01*
X70093248Y-88241118D01*
X70099276Y-88243802D01*
X70099278Y-88243803D01*
X70261681Y-88316109D01*
X70267712Y-88318794D01*
X70361112Y-88338647D01*
X70448056Y-88357128D01*
X70448061Y-88357128D01*
X70454513Y-88358500D01*
X70645487Y-88358500D01*
X70651939Y-88357128D01*
X70651944Y-88357128D01*
X70738888Y-88338647D01*
X70832288Y-88318794D01*
X70838319Y-88316109D01*
X71000722Y-88243803D01*
X71000724Y-88243802D01*
X71006752Y-88241118D01*
X71161253Y-88128866D01*
X71191402Y-88095382D01*
X71284621Y-87991852D01*
X71284622Y-87991851D01*
X71289040Y-87986944D01*
X71369204Y-87848097D01*
X71381223Y-87827279D01*
X71381224Y-87827278D01*
X71384527Y-87821556D01*
X71443542Y-87639928D01*
X71463504Y-87450000D01*
X71443542Y-87260072D01*
X71384527Y-87078444D01*
X71379478Y-87069698D01*
X71318705Y-86964437D01*
X71289040Y-86913056D01*
X71280701Y-86903794D01*
X71165675Y-86776045D01*
X71165674Y-86776044D01*
X71161253Y-86771134D01*
X71052971Y-86692462D01*
X71012094Y-86662763D01*
X71012093Y-86662762D01*
X71006752Y-86658882D01*
X71000724Y-86656198D01*
X71000722Y-86656197D01*
X70838319Y-86583891D01*
X70838318Y-86583891D01*
X70832288Y-86581206D01*
X70738888Y-86561353D01*
X70651944Y-86542872D01*
X70651939Y-86542872D01*
X70645487Y-86541500D01*
X70454513Y-86541500D01*
X70448061Y-86542872D01*
X70448056Y-86542872D01*
X70361112Y-86561353D01*
X70267712Y-86581206D01*
X70261682Y-86583891D01*
X70261681Y-86583891D01*
X70099278Y-86656197D01*
X70099276Y-86656198D01*
X70093248Y-86658882D01*
X70087907Y-86662762D01*
X70087906Y-86662763D01*
X70047029Y-86692462D01*
X69938747Y-86771134D01*
X69934326Y-86776044D01*
X69934325Y-86776045D01*
X69819300Y-86903794D01*
X69810960Y-86913056D01*
X69781295Y-86964437D01*
X69720523Y-87069698D01*
X69715473Y-87078444D01*
X69656458Y-87260072D01*
X69636496Y-87450000D01*
X63754774Y-87450000D01*
X63784621Y-87416852D01*
X63784622Y-87416851D01*
X63789040Y-87411944D01*
X63884527Y-87246556D01*
X63943542Y-87064928D01*
X63945139Y-87049739D01*
X63962814Y-86881565D01*
X63963504Y-86875000D01*
X63957950Y-86822161D01*
X63970722Y-86752324D01*
X64019223Y-86700477D01*
X64032582Y-86694453D01*
X64032288Y-86693794D01*
X64200722Y-86618803D01*
X64200724Y-86618802D01*
X64206752Y-86616118D01*
X64251109Y-86583891D01*
X64279785Y-86563056D01*
X64361253Y-86503866D01*
X64439030Y-86417486D01*
X64446135Y-86409595D01*
X67192001Y-86409595D01*
X67192338Y-86416114D01*
X67202257Y-86511706D01*
X67205149Y-86525100D01*
X67256588Y-86679284D01*
X67262761Y-86692462D01*
X67348063Y-86830307D01*
X67357099Y-86841708D01*
X67471829Y-86956239D01*
X67483240Y-86965251D01*
X67621243Y-87050316D01*
X67634424Y-87056463D01*
X67788710Y-87107638D01*
X67802086Y-87110505D01*
X67896438Y-87120172D01*
X67902854Y-87120500D01*
X68152885Y-87120500D01*
X68168124Y-87116025D01*
X68169329Y-87114635D01*
X68171000Y-87106952D01*
X68171000Y-87102384D01*
X68679000Y-87102384D01*
X68683475Y-87117623D01*
X68684865Y-87118828D01*
X68692548Y-87120499D01*
X68947095Y-87120499D01*
X68953614Y-87120162D01*
X69049206Y-87110243D01*
X69062600Y-87107351D01*
X69216784Y-87055912D01*
X69229962Y-87049739D01*
X69367807Y-86964437D01*
X69379208Y-86955401D01*
X69493739Y-86840671D01*
X69502751Y-86829260D01*
X69587816Y-86691257D01*
X69593963Y-86678076D01*
X69645138Y-86523790D01*
X69648005Y-86510414D01*
X69657672Y-86416062D01*
X69658000Y-86409646D01*
X69658000Y-86297115D01*
X69653525Y-86281876D01*
X69652135Y-86280671D01*
X69644452Y-86279000D01*
X68697115Y-86279000D01*
X68681876Y-86283475D01*
X68680671Y-86284865D01*
X68679000Y-86292548D01*
X68679000Y-87102384D01*
X68171000Y-87102384D01*
X68171000Y-86297115D01*
X68166525Y-86281876D01*
X68165135Y-86280671D01*
X68157452Y-86279000D01*
X67210116Y-86279000D01*
X67194877Y-86283475D01*
X67193672Y-86284865D01*
X67192001Y-86292548D01*
X67192001Y-86409595D01*
X64446135Y-86409595D01*
X64484621Y-86366852D01*
X64484622Y-86366851D01*
X64489040Y-86361944D01*
X64584527Y-86196556D01*
X64643542Y-86014928D01*
X64663504Y-85825000D01*
X64656405Y-85757452D01*
X64644232Y-85641635D01*
X64644232Y-85641633D01*
X64643542Y-85635072D01*
X64584527Y-85453444D01*
X64580108Y-85445789D01*
X64489040Y-85288056D01*
X64491617Y-85286568D01*
X64472108Y-85231912D01*
X64488178Y-85162758D01*
X64523840Y-85122766D01*
X64543397Y-85108557D01*
X64553307Y-85102048D01*
X64584535Y-85083580D01*
X64584538Y-85083578D01*
X64591362Y-85079542D01*
X64605683Y-85065221D01*
X64620717Y-85052380D01*
X64637107Y-85040472D01*
X64642158Y-85034367D01*
X64642163Y-85034362D01*
X64665299Y-85006396D01*
X64673287Y-84997618D01*
X65225500Y-84445405D01*
X65287812Y-84411379D01*
X65314595Y-84408500D01*
X65791526Y-84408500D01*
X65859647Y-84428502D01*
X65906140Y-84482158D01*
X65917137Y-84524612D01*
X65918932Y-84547411D01*
X65918933Y-84547418D01*
X65919438Y-84553831D01*
X65935826Y-84610238D01*
X65958196Y-84687237D01*
X65965855Y-84713601D01*
X65969892Y-84720427D01*
X66046509Y-84849980D01*
X66046511Y-84849983D01*
X66050547Y-84856807D01*
X66168193Y-84974453D01*
X66175017Y-84978489D01*
X66175020Y-84978491D01*
X66269493Y-85034362D01*
X66311399Y-85059145D01*
X66319010Y-85061356D01*
X66319012Y-85061357D01*
X66362293Y-85073931D01*
X66471169Y-85105562D01*
X66477574Y-85106066D01*
X66477579Y-85106067D01*
X66506042Y-85108307D01*
X66506050Y-85108307D01*
X66508498Y-85108500D01*
X66941502Y-85108500D01*
X66943950Y-85108307D01*
X66943958Y-85108307D01*
X66972421Y-85106067D01*
X66972426Y-85106066D01*
X66978831Y-85105562D01*
X67087707Y-85073931D01*
X67130988Y-85061357D01*
X67130990Y-85061356D01*
X67138601Y-85059145D01*
X67187244Y-85030377D01*
X67256058Y-85012919D01*
X67323390Y-85035436D01*
X67367859Y-85090781D01*
X67375347Y-85161381D01*
X67350262Y-85216925D01*
X67347250Y-85220739D01*
X67262184Y-85358743D01*
X67256037Y-85371924D01*
X67204862Y-85526210D01*
X67201995Y-85539586D01*
X67192328Y-85633936D01*
X67192000Y-85640355D01*
X67192000Y-85752885D01*
X67196475Y-85768124D01*
X67197865Y-85769329D01*
X67205548Y-85771000D01*
X69639884Y-85771000D01*
X69655123Y-85766525D01*
X69656328Y-85765135D01*
X69657999Y-85757452D01*
X69657999Y-85640405D01*
X69657662Y-85633886D01*
X69647743Y-85538294D01*
X69644851Y-85524900D01*
X69593412Y-85370716D01*
X69587239Y-85357538D01*
X69501937Y-85219693D01*
X69492901Y-85208292D01*
X69378172Y-85093762D01*
X69369238Y-85086706D01*
X69328177Y-85028788D01*
X69324947Y-84957865D01*
X69360574Y-84896454D01*
X69368407Y-84889654D01*
X69374348Y-84885978D01*
X69499305Y-84760803D01*
X69540605Y-84693803D01*
X69588275Y-84616468D01*
X69588276Y-84616466D01*
X69592115Y-84610238D01*
X69617289Y-84534340D01*
X69657719Y-84475980D01*
X69672742Y-84465554D01*
X69684535Y-84458580D01*
X69684538Y-84458578D01*
X69691362Y-84454542D01*
X69705683Y-84440221D01*
X69720717Y-84427380D01*
X69730694Y-84420131D01*
X69737107Y-84415472D01*
X69765298Y-84381395D01*
X69773288Y-84372616D01*
X70556671Y-83589233D01*
X70618983Y-83555207D01*
X70689798Y-83560272D01*
X70746634Y-83602819D01*
X70766763Y-83643175D01*
X70777584Y-83680420D01*
X70790855Y-83726101D01*
X70794892Y-83732927D01*
X70871509Y-83862480D01*
X70871511Y-83862483D01*
X70875547Y-83869307D01*
X70962120Y-83955880D01*
X70996146Y-84018192D01*
X70991081Y-84089007D01*
X70947088Y-84146910D01*
X70913747Y-84171134D01*
X70785960Y-84313056D01*
X70782659Y-84318774D01*
X70701942Y-84458580D01*
X70690473Y-84478444D01*
X70631458Y-84660072D01*
X70630768Y-84666633D01*
X70630768Y-84666635D01*
X70621526Y-84754572D01*
X70611496Y-84850000D01*
X70612186Y-84856565D01*
X70627454Y-85001828D01*
X70631458Y-85039928D01*
X70690473Y-85221556D01*
X70785960Y-85386944D01*
X70790378Y-85391851D01*
X70790379Y-85391852D01*
X70838944Y-85445789D01*
X70913747Y-85528866D01*
X71000989Y-85592251D01*
X71051286Y-85628794D01*
X71068248Y-85641118D01*
X71074276Y-85643802D01*
X71074278Y-85643803D01*
X71160358Y-85682128D01*
X71242712Y-85718794D01*
X71333332Y-85738056D01*
X71423056Y-85757128D01*
X71423061Y-85757128D01*
X71429513Y-85758500D01*
X71620487Y-85758500D01*
X71626939Y-85757128D01*
X71626944Y-85757128D01*
X71716668Y-85738056D01*
X71807288Y-85718794D01*
X71889642Y-85682128D01*
X71975722Y-85643803D01*
X71975724Y-85643802D01*
X71981752Y-85641118D01*
X71998715Y-85628794D01*
X72049011Y-85592251D01*
X72136253Y-85528866D01*
X72177758Y-85482770D01*
X89077088Y-85482770D01*
X89077778Y-85489335D01*
X89093651Y-85640355D01*
X89097050Y-85672698D01*
X89156065Y-85854326D01*
X89251552Y-86019714D01*
X89255970Y-86024621D01*
X89255971Y-86024622D01*
X89312511Y-86087416D01*
X89379339Y-86161636D01*
X89533840Y-86273888D01*
X89539866Y-86276571D01*
X89539873Y-86276575D01*
X89627410Y-86315548D01*
X89681506Y-86361528D01*
X89701472Y-86417485D01*
X89706458Y-86464928D01*
X89765473Y-86646556D01*
X89768776Y-86652278D01*
X89768777Y-86652279D01*
X89787710Y-86685072D01*
X89860960Y-86811944D01*
X89865378Y-86816851D01*
X89865379Y-86816852D01*
X89955224Y-86916635D01*
X89988747Y-86953866D01*
X89994641Y-86958148D01*
X90137903Y-87062235D01*
X90137906Y-87062236D01*
X90143248Y-87066118D01*
X90149283Y-87068805D01*
X90150830Y-87069698D01*
X90199824Y-87121081D01*
X90213140Y-87165646D01*
X90231458Y-87339928D01*
X90290473Y-87521556D01*
X90293776Y-87527278D01*
X90293777Y-87527279D01*
X90316121Y-87565979D01*
X90385960Y-87686944D01*
X90390378Y-87691851D01*
X90390379Y-87691852D01*
X90472854Y-87783450D01*
X90513747Y-87828866D01*
X90668248Y-87941118D01*
X90674276Y-87943802D01*
X90674278Y-87943803D01*
X90819591Y-88008500D01*
X90842712Y-88018794D01*
X90928101Y-88036944D01*
X91023056Y-88057128D01*
X91023061Y-88057128D01*
X91029513Y-88058500D01*
X91220487Y-88058500D01*
X91226939Y-88057128D01*
X91226944Y-88057128D01*
X91321899Y-88036944D01*
X91407288Y-88018794D01*
X91430409Y-88008500D01*
X91575722Y-87943803D01*
X91575724Y-87943802D01*
X91581752Y-87941118D01*
X91736253Y-87828866D01*
X91777146Y-87783450D01*
X91859621Y-87691852D01*
X91859622Y-87691851D01*
X91864040Y-87686944D01*
X91933879Y-87565979D01*
X91956223Y-87527279D01*
X91956224Y-87527278D01*
X91959527Y-87521556D01*
X92018542Y-87339928D01*
X92038504Y-87150000D01*
X92034052Y-87107638D01*
X92019232Y-86966635D01*
X92019232Y-86966633D01*
X92018542Y-86960072D01*
X91959527Y-86778444D01*
X91864040Y-86613056D01*
X91824169Y-86568774D01*
X91740675Y-86476045D01*
X91740674Y-86476044D01*
X91736253Y-86471134D01*
X91592722Y-86366852D01*
X91587097Y-86362765D01*
X91587094Y-86362764D01*
X91581752Y-86358882D01*
X91575717Y-86356195D01*
X91574170Y-86355302D01*
X91525176Y-86303919D01*
X91511859Y-86259352D01*
X91494232Y-86091635D01*
X91494232Y-86091633D01*
X91493542Y-86085072D01*
X91434527Y-85903444D01*
X91339040Y-85738056D01*
X91321697Y-85718794D01*
X91215675Y-85601045D01*
X91215674Y-85601044D01*
X91211253Y-85596134D01*
X91072059Y-85495003D01*
X91062094Y-85487763D01*
X91062093Y-85487762D01*
X91056752Y-85483882D01*
X91050726Y-85481199D01*
X91050719Y-85481195D01*
X90963182Y-85442222D01*
X90909086Y-85396242D01*
X90889120Y-85340284D01*
X90884824Y-85299406D01*
X90884824Y-85299405D01*
X90884134Y-85292842D01*
X90825119Y-85111214D01*
X90821574Y-85105073D01*
X90742921Y-84968844D01*
X90729632Y-84945826D01*
X90670815Y-84880503D01*
X95674326Y-84880503D01*
X95679607Y-84887558D01*
X95867821Y-84997541D01*
X95877108Y-85001991D01*
X96089861Y-85083233D01*
X96099763Y-85086110D01*
X96322911Y-85131510D01*
X96333163Y-85132733D01*
X96560738Y-85141077D01*
X96571024Y-85140610D01*
X96796915Y-85111673D01*
X96807001Y-85109530D01*
X97025128Y-85044088D01*
X97034723Y-85040328D01*
X97239237Y-84940137D01*
X97248083Y-84934863D01*
X97313631Y-84888108D01*
X97322032Y-84877408D01*
X97315045Y-84864256D01*
X96512811Y-84062021D01*
X96498868Y-84054408D01*
X96497034Y-84054539D01*
X96490420Y-84058790D01*
X95681083Y-84868128D01*
X95674326Y-84880503D01*
X90670815Y-84880503D01*
X90659673Y-84868128D01*
X90606267Y-84808815D01*
X90606266Y-84808814D01*
X90601845Y-84803904D01*
X90447344Y-84691652D01*
X90441316Y-84688968D01*
X90441314Y-84688967D01*
X90278911Y-84616661D01*
X90278910Y-84616661D01*
X90272880Y-84613976D01*
X90179479Y-84594123D01*
X90092536Y-84575642D01*
X90092531Y-84575642D01*
X90086079Y-84574270D01*
X89895105Y-84574270D01*
X89888653Y-84575642D01*
X89888648Y-84575642D01*
X89801705Y-84594123D01*
X89708304Y-84613976D01*
X89702274Y-84616661D01*
X89702273Y-84616661D01*
X89539870Y-84688967D01*
X89539868Y-84688968D01*
X89533840Y-84691652D01*
X89379339Y-84803904D01*
X89374918Y-84808814D01*
X89374917Y-84808815D01*
X89321512Y-84868128D01*
X89251552Y-84945826D01*
X89238263Y-84968844D01*
X89159611Y-85105073D01*
X89156065Y-85111214D01*
X89097050Y-85292842D01*
X89096360Y-85299403D01*
X89096360Y-85299405D01*
X89084644Y-85410882D01*
X89077088Y-85482770D01*
X72177758Y-85482770D01*
X72211056Y-85445789D01*
X72259621Y-85391852D01*
X72259622Y-85391851D01*
X72264040Y-85386944D01*
X72359527Y-85221556D01*
X72418542Y-85039928D01*
X72422547Y-85001828D01*
X72437814Y-84856565D01*
X72438504Y-84850000D01*
X72428474Y-84754572D01*
X72419232Y-84666635D01*
X72419232Y-84666633D01*
X72418542Y-84660072D01*
X72359527Y-84478444D01*
X72348059Y-84458580D01*
X72267341Y-84318774D01*
X72264040Y-84313056D01*
X72136253Y-84171134D01*
X72130909Y-84167251D01*
X72126002Y-84162833D01*
X72127039Y-84161681D01*
X72088521Y-84111734D01*
X72082443Y-84040998D01*
X72116839Y-83976921D01*
X72224453Y-83869307D01*
X72228489Y-83862483D01*
X72228491Y-83862480D01*
X72305108Y-83732927D01*
X72309145Y-83726101D01*
X72323120Y-83678000D01*
X72328447Y-83659662D01*
X95047969Y-83659662D01*
X95061078Y-83887017D01*
X95062514Y-83897237D01*
X95112580Y-84119393D01*
X95115659Y-84129221D01*
X95201338Y-84340223D01*
X95205991Y-84349434D01*
X95301153Y-84504723D01*
X95311611Y-84514185D01*
X95320387Y-84510402D01*
X96127979Y-83702811D01*
X96134356Y-83691132D01*
X96864408Y-83691132D01*
X96864539Y-83692966D01*
X96868790Y-83699580D01*
X97674826Y-84505615D01*
X97686832Y-84512171D01*
X97698571Y-84503202D01*
X97742241Y-84442429D01*
X97747551Y-84433592D01*
X97848450Y-84229438D01*
X97852249Y-84219843D01*
X97918449Y-84001957D01*
X97920628Y-83991876D01*
X97950591Y-83764288D01*
X97951110Y-83757615D01*
X97952680Y-83693365D01*
X97952486Y-83686646D01*
X97933679Y-83457887D01*
X97931994Y-83447707D01*
X97876515Y-83226837D01*
X97873195Y-83217086D01*
X97782384Y-83008233D01*
X97777518Y-82999158D01*
X97698008Y-82876256D01*
X97687322Y-82867052D01*
X97677755Y-82871456D01*
X96872021Y-83677189D01*
X96864408Y-83691132D01*
X96134356Y-83691132D01*
X96135592Y-83688868D01*
X96135461Y-83687034D01*
X96131210Y-83680420D01*
X95325220Y-82874431D01*
X95313688Y-82868134D01*
X95301406Y-82877757D01*
X95239747Y-82968146D01*
X95234654Y-82977110D01*
X95138768Y-83183679D01*
X95135211Y-83193347D01*
X95074352Y-83412797D01*
X95072421Y-83422916D01*
X95048221Y-83649373D01*
X95047969Y-83659662D01*
X72328447Y-83659662D01*
X72353767Y-83572508D01*
X72355562Y-83566331D01*
X72358050Y-83534729D01*
X72358307Y-83531458D01*
X72358307Y-83531450D01*
X72358500Y-83529002D01*
X72358500Y-82372000D01*
X72378502Y-82303879D01*
X72432158Y-82257386D01*
X72484500Y-82246000D01*
X72716502Y-82246000D01*
X72718950Y-82245807D01*
X72718958Y-82245807D01*
X72747421Y-82243567D01*
X72747426Y-82243566D01*
X72753831Y-82243062D01*
X72853769Y-82214028D01*
X72905988Y-82198857D01*
X72905990Y-82198856D01*
X72913601Y-82196645D01*
X72970776Y-82162832D01*
X73049980Y-82115991D01*
X73049983Y-82115989D01*
X73056807Y-82111953D01*
X73174453Y-81994307D01*
X73178489Y-81987483D01*
X73178491Y-81987480D01*
X73255108Y-81857927D01*
X73259145Y-81851101D01*
X73261357Y-81843488D01*
X73295215Y-81726947D01*
X73333428Y-81667112D01*
X73397924Y-81637434D01*
X73416212Y-81636100D01*
X73762800Y-81636100D01*
X73830921Y-81656102D01*
X73877414Y-81709758D01*
X73888800Y-81762100D01*
X73888800Y-81900734D01*
X73895555Y-81962916D01*
X73946685Y-82099305D01*
X74034039Y-82215861D01*
X74150595Y-82303215D01*
X74286984Y-82354345D01*
X74349166Y-82361100D01*
X76145434Y-82361100D01*
X76207616Y-82354345D01*
X76344005Y-82303215D01*
X76460561Y-82215861D01*
X76465942Y-82208681D01*
X76472292Y-82202331D01*
X76473634Y-82203673D01*
X76521533Y-82167858D01*
X76592351Y-82162832D01*
X76654645Y-82196892D01*
X76688635Y-82259223D01*
X76691500Y-82285938D01*
X76691500Y-82825400D01*
X76691837Y-82828646D01*
X76691837Y-82828650D01*
X76701712Y-82923820D01*
X76702474Y-82931166D01*
X76704655Y-82937702D01*
X76704655Y-82937704D01*
X76717802Y-82977110D01*
X76758450Y-83098946D01*
X76851522Y-83249348D01*
X76976697Y-83374305D01*
X76982927Y-83378145D01*
X76982928Y-83378146D01*
X77120288Y-83462816D01*
X77127262Y-83467115D01*
X77193229Y-83488995D01*
X77288611Y-83520632D01*
X77288613Y-83520632D01*
X77295139Y-83522797D01*
X77301975Y-83523497D01*
X77301978Y-83523498D01*
X77345031Y-83527909D01*
X77399600Y-83533500D01*
X78175400Y-83533500D01*
X78178646Y-83533163D01*
X78178650Y-83533163D01*
X78274308Y-83523238D01*
X78274312Y-83523237D01*
X78281166Y-83522526D01*
X78287702Y-83520345D01*
X78287704Y-83520345D01*
X78419806Y-83476272D01*
X78448946Y-83466550D01*
X78599348Y-83373478D01*
X78724305Y-83248303D01*
X78727102Y-83243765D01*
X78784353Y-83203176D01*
X78855276Y-83199946D01*
X78916687Y-83235572D01*
X78924062Y-83244068D01*
X78932098Y-83254207D01*
X79046829Y-83368739D01*
X79058240Y-83377751D01*
X79196243Y-83462816D01*
X79209424Y-83468963D01*
X79363710Y-83520138D01*
X79377086Y-83523005D01*
X79471438Y-83532672D01*
X79477854Y-83533000D01*
X79590385Y-83533000D01*
X79605624Y-83528525D01*
X79606829Y-83527135D01*
X79608500Y-83519452D01*
X79608500Y-83514884D01*
X80116500Y-83514884D01*
X80120975Y-83530123D01*
X80122365Y-83531328D01*
X80130048Y-83532999D01*
X80247095Y-83532999D01*
X80253614Y-83532662D01*
X80349206Y-83522743D01*
X80362600Y-83519851D01*
X80516784Y-83468412D01*
X80529962Y-83462239D01*
X80667807Y-83376937D01*
X80679208Y-83367901D01*
X80793739Y-83253171D01*
X80802751Y-83241760D01*
X80887816Y-83103757D01*
X80893963Y-83090576D01*
X80945138Y-82936290D01*
X80948005Y-82922914D01*
X80957672Y-82828562D01*
X80958000Y-82822146D01*
X80958000Y-82572115D01*
X80953525Y-82556876D01*
X80952135Y-82555671D01*
X80944452Y-82554000D01*
X80134615Y-82554000D01*
X80119376Y-82558475D01*
X80118171Y-82559865D01*
X80116500Y-82567548D01*
X80116500Y-83514884D01*
X79608500Y-83514884D01*
X79608500Y-82027885D01*
X80116500Y-82027885D01*
X80120975Y-82043124D01*
X80122365Y-82044329D01*
X80130048Y-82046000D01*
X80939884Y-82046000D01*
X80955123Y-82041525D01*
X80956328Y-82040135D01*
X80957999Y-82032452D01*
X80957999Y-81777905D01*
X80957662Y-81771386D01*
X80947743Y-81675794D01*
X80944851Y-81662400D01*
X80893412Y-81508216D01*
X80887239Y-81495038D01*
X80801937Y-81357193D01*
X80792901Y-81345792D01*
X80678171Y-81231261D01*
X80666760Y-81222249D01*
X80528757Y-81137184D01*
X80515576Y-81131037D01*
X80361290Y-81079862D01*
X80347914Y-81076995D01*
X80253562Y-81067328D01*
X80247145Y-81067000D01*
X80134615Y-81067000D01*
X80119376Y-81071475D01*
X80118171Y-81072865D01*
X80116500Y-81080548D01*
X80116500Y-82027885D01*
X79608500Y-82027885D01*
X79608500Y-81085116D01*
X79604025Y-81069877D01*
X79602635Y-81068672D01*
X79594952Y-81067001D01*
X79477905Y-81067001D01*
X79471386Y-81067338D01*
X79375794Y-81077257D01*
X79362400Y-81080149D01*
X79208216Y-81131588D01*
X79195038Y-81137761D01*
X79143982Y-81169356D01*
X79075531Y-81188194D01*
X79007761Y-81167033D01*
X78962190Y-81112592D01*
X78953285Y-81042156D01*
X78968559Y-80999213D01*
X78972035Y-80993193D01*
X78984527Y-80971556D01*
X79043542Y-80789928D01*
X79046360Y-80763122D01*
X79058249Y-80650000D01*
X92211271Y-80650000D01*
X92216500Y-80723111D01*
X92235080Y-80786389D01*
X92252066Y-80844236D01*
X92257696Y-80863411D01*
X92269100Y-80881156D01*
X92331878Y-80978841D01*
X92331880Y-80978844D01*
X92336750Y-80986421D01*
X92343560Y-80992322D01*
X92440445Y-81076274D01*
X92440448Y-81076276D01*
X92447257Y-81082176D01*
X92455454Y-81085920D01*
X92455455Y-81085920D01*
X92493913Y-81103483D01*
X92580266Y-81142919D01*
X92589189Y-81144202D01*
X92720539Y-81163088D01*
X92720545Y-81163088D01*
X92725000Y-81163729D01*
X92725451Y-81163729D01*
X92791008Y-81188180D01*
X92833555Y-81245016D01*
X92841500Y-81289049D01*
X92841500Y-81369699D01*
X92824619Y-81432699D01*
X92788628Y-81495038D01*
X92740473Y-81578444D01*
X92681458Y-81760072D01*
X92680768Y-81766633D01*
X92680768Y-81766635D01*
X92671173Y-81857927D01*
X92661496Y-81950000D01*
X92662186Y-81956565D01*
X92677944Y-82106491D01*
X92681458Y-82139928D01*
X92740473Y-82321556D01*
X92835960Y-82486944D01*
X92840378Y-82491851D01*
X92840379Y-82491852D01*
X92955258Y-82619438D01*
X92963747Y-82628866D01*
X93118248Y-82741118D01*
X93124276Y-82743802D01*
X93124278Y-82743803D01*
X93222882Y-82787704D01*
X93292712Y-82818794D01*
X93386113Y-82838647D01*
X93473056Y-82857128D01*
X93473061Y-82857128D01*
X93479513Y-82858500D01*
X93670487Y-82858500D01*
X93676939Y-82857128D01*
X93676944Y-82857128D01*
X93763887Y-82838647D01*
X93857288Y-82818794D01*
X93927118Y-82787704D01*
X94025722Y-82743803D01*
X94025724Y-82743802D01*
X94031752Y-82741118D01*
X94186253Y-82628866D01*
X94194742Y-82619438D01*
X94309621Y-82491852D01*
X94309622Y-82491851D01*
X94314040Y-82486944D01*
X94409527Y-82321556D01*
X94468542Y-82139928D01*
X94472057Y-82106491D01*
X94487814Y-81956565D01*
X94488504Y-81950000D01*
X94478827Y-81857927D01*
X94469232Y-81766635D01*
X94469232Y-81766633D01*
X94468542Y-81760072D01*
X94409527Y-81578444D01*
X94314040Y-81413056D01*
X94263407Y-81356823D01*
X94232692Y-81292818D01*
X94241455Y-81222365D01*
X94286918Y-81167833D01*
X94321546Y-81151619D01*
X94353175Y-81142332D01*
X94438411Y-81117304D01*
X94502255Y-81076274D01*
X94553841Y-81043122D01*
X94553844Y-81043120D01*
X94561421Y-81038250D01*
X94605053Y-80987896D01*
X94651274Y-80934555D01*
X94651276Y-80934552D01*
X94657176Y-80927743D01*
X94664072Y-80912644D01*
X94714175Y-80802932D01*
X94717919Y-80794734D01*
X94738729Y-80650000D01*
X94738729Y-79500000D01*
X94736280Y-79469375D01*
X94732760Y-79425353D01*
X94732759Y-79425350D01*
X94732200Y-79418355D01*
X94730108Y-79411648D01*
X94728667Y-79407028D01*
X94727471Y-79336042D01*
X94764844Y-79275678D01*
X94828920Y-79245102D01*
X94848948Y-79243500D01*
X95118949Y-79243500D01*
X95187070Y-79263502D01*
X95226381Y-79303664D01*
X95327274Y-79468306D01*
X95483204Y-79648317D01*
X95595504Y-79741550D01*
X95647560Y-79784768D01*
X95687195Y-79843671D01*
X95688693Y-79914651D01*
X95651578Y-79975174D01*
X95642728Y-79982472D01*
X95539275Y-80060147D01*
X95535140Y-80063252D01*
X95370602Y-80235431D01*
X95367688Y-80239703D01*
X95367687Y-80239704D01*
X95295178Y-80345998D01*
X95236394Y-80432172D01*
X95197353Y-80516280D01*
X95157764Y-80601568D01*
X95136122Y-80648191D01*
X95072477Y-80877685D01*
X95071928Y-80882819D01*
X95071928Y-80882821D01*
X95068004Y-80919545D01*
X95047170Y-81114494D01*
X95047467Y-81119646D01*
X95047467Y-81119650D01*
X95056202Y-81271134D01*
X95060879Y-81352255D01*
X95062016Y-81357301D01*
X95062017Y-81357307D01*
X95093057Y-81495038D01*
X95113237Y-81584585D01*
X95115179Y-81589367D01*
X95115180Y-81589371D01*
X95188052Y-81768834D01*
X95202837Y-81805244D01*
X95327274Y-82008306D01*
X95483204Y-82188317D01*
X95608123Y-82292027D01*
X95655535Y-82331389D01*
X95695170Y-82390292D01*
X95696668Y-82461272D01*
X95676887Y-82501929D01*
X95683825Y-82514614D01*
X96487189Y-83317979D01*
X96501132Y-83325592D01*
X96502966Y-83325461D01*
X96509580Y-83321210D01*
X97317331Y-82513458D01*
X97324348Y-82500607D01*
X97322815Y-82498503D01*
X97298865Y-82431668D01*
X97314851Y-82362495D01*
X97351480Y-82321726D01*
X97438020Y-82259997D01*
X97606716Y-82091889D01*
X97745690Y-81898486D01*
X97755906Y-81877817D01*
X97848917Y-81689624D01*
X97848918Y-81689622D01*
X97851211Y-81684982D01*
X97920443Y-81457111D01*
X97921838Y-81446517D01*
X97951092Y-81224313D01*
X97951093Y-81224305D01*
X97951529Y-81220992D01*
X97952384Y-81186025D01*
X97953182Y-81153365D01*
X97953182Y-81153361D01*
X97953264Y-81150000D01*
X97933750Y-80912644D01*
X97875731Y-80681663D01*
X97789000Y-80482193D01*
X97782827Y-80467996D01*
X97782825Y-80467993D01*
X97780767Y-80463259D01*
X97763694Y-80436867D01*
X97670519Y-80292842D01*
X97651406Y-80263298D01*
X97491124Y-80087150D01*
X97487073Y-80083951D01*
X97487069Y-80083947D01*
X97407959Y-80021470D01*
X97353347Y-79978341D01*
X97312285Y-79920425D01*
X97309053Y-79849502D01*
X97344678Y-79788091D01*
X97358271Y-79776882D01*
X97433814Y-79722998D01*
X97433821Y-79722992D01*
X97438020Y-79719997D01*
X97606716Y-79551889D01*
X97745690Y-79358486D01*
X97758954Y-79331650D01*
X97848917Y-79149624D01*
X97848918Y-79149622D01*
X97851211Y-79144982D01*
X97920443Y-78917111D01*
X97927298Y-78865046D01*
X97951092Y-78684313D01*
X97951092Y-78684309D01*
X97951529Y-78680992D01*
X97951875Y-78666835D01*
X97953182Y-78613365D01*
X97953182Y-78613361D01*
X97953264Y-78610000D01*
X97946122Y-78523134D01*
X101791500Y-78523134D01*
X101798255Y-78585316D01*
X101849385Y-78721705D01*
X101936739Y-78838261D01*
X102053295Y-78925615D01*
X102189684Y-78976745D01*
X102251866Y-78983500D01*
X102574444Y-78983500D01*
X102642565Y-79003502D01*
X102689058Y-79057158D01*
X102699162Y-79127432D01*
X102669668Y-79192012D01*
X102614321Y-79229023D01*
X102608007Y-79231129D01*
X102607997Y-79231133D01*
X102601054Y-79233450D01*
X102450652Y-79326522D01*
X102325695Y-79451697D01*
X102321855Y-79457927D01*
X102321854Y-79457928D01*
X102246047Y-79580910D01*
X102232885Y-79602262D01*
X102209104Y-79673961D01*
X102181582Y-79756938D01*
X102177203Y-79770139D01*
X102176503Y-79776975D01*
X102176502Y-79776978D01*
X102173233Y-79808882D01*
X102166500Y-79874600D01*
X102166500Y-80675400D01*
X102166837Y-80678646D01*
X102166837Y-80678650D01*
X102175602Y-80763122D01*
X102177474Y-80781166D01*
X102179655Y-80787702D01*
X102179655Y-80787704D01*
X102182052Y-80794889D01*
X102233450Y-80948946D01*
X102326522Y-81099348D01*
X102395127Y-81167833D01*
X102413109Y-81185784D01*
X102447188Y-81248066D01*
X102442185Y-81318886D01*
X102413264Y-81363975D01*
X102407550Y-81369699D01*
X102325695Y-81451697D01*
X102321855Y-81457927D01*
X102321854Y-81457928D01*
X102243693Y-81584729D01*
X102232885Y-81602262D01*
X102221219Y-81637434D01*
X102189281Y-81733726D01*
X102177203Y-81770139D01*
X102166500Y-81874600D01*
X102166500Y-82675400D01*
X102166837Y-82678646D01*
X102166837Y-82678650D01*
X102174239Y-82749986D01*
X102177474Y-82781166D01*
X102179655Y-82787702D01*
X102179655Y-82787704D01*
X102207075Y-82869892D01*
X102233450Y-82948946D01*
X102326522Y-83099348D01*
X102451697Y-83224305D01*
X102457927Y-83228145D01*
X102457928Y-83228146D01*
X102597777Y-83314351D01*
X102645271Y-83367124D01*
X102656693Y-83437195D01*
X102640780Y-83484611D01*
X102620665Y-83519452D01*
X102615473Y-83528444D01*
X102556458Y-83710072D01*
X102555768Y-83716633D01*
X102555768Y-83716635D01*
X102544483Y-83824011D01*
X102536496Y-83900000D01*
X102537186Y-83906565D01*
X102552739Y-84054539D01*
X102556458Y-84089928D01*
X102615473Y-84271556D01*
X102710960Y-84436944D01*
X102715378Y-84441851D01*
X102715379Y-84441852D01*
X102798656Y-84534340D01*
X102838747Y-84578866D01*
X102993248Y-84691118D01*
X102999276Y-84693802D01*
X102999278Y-84693803D01*
X103161398Y-84765983D01*
X103167712Y-84768794D01*
X103261112Y-84788647D01*
X103348056Y-84807128D01*
X103348061Y-84807128D01*
X103354513Y-84808500D01*
X103545487Y-84808500D01*
X103551939Y-84807128D01*
X103551944Y-84807128D01*
X103638888Y-84788647D01*
X103732288Y-84768794D01*
X103738602Y-84765983D01*
X103900722Y-84693803D01*
X103900724Y-84693802D01*
X103906752Y-84691118D01*
X104061253Y-84578866D01*
X104101344Y-84534340D01*
X104184621Y-84441852D01*
X104184622Y-84441851D01*
X104189040Y-84436944D01*
X104284527Y-84271556D01*
X104343542Y-84089928D01*
X104347262Y-84054539D01*
X104362814Y-83906565D01*
X104363504Y-83900000D01*
X104355517Y-83824011D01*
X104344232Y-83716635D01*
X104344232Y-83716633D01*
X104343542Y-83710072D01*
X104284527Y-83528444D01*
X104279336Y-83519452D01*
X104246303Y-83462239D01*
X104219808Y-83416347D01*
X104203070Y-83347353D01*
X104226290Y-83280261D01*
X104262623Y-83246204D01*
X104269805Y-83241760D01*
X104299348Y-83223478D01*
X104424305Y-83098303D01*
X104428146Y-83092072D01*
X104513275Y-82953968D01*
X104513276Y-82953966D01*
X104517115Y-82947738D01*
X104556644Y-82828562D01*
X104570632Y-82786389D01*
X104570632Y-82786387D01*
X104572797Y-82779861D01*
X104574873Y-82759606D01*
X104577909Y-82729969D01*
X104583500Y-82675400D01*
X104583500Y-81874600D01*
X104578821Y-81829504D01*
X104573238Y-81775692D01*
X104573237Y-81775688D01*
X104572526Y-81768834D01*
X104570280Y-81762100D01*
X104518868Y-81608002D01*
X104516550Y-81601054D01*
X104423478Y-81450652D01*
X104336891Y-81364216D01*
X104302812Y-81301934D01*
X104307815Y-81231114D01*
X104336736Y-81186025D01*
X104419134Y-81103483D01*
X104424305Y-81098303D01*
X104434246Y-81082176D01*
X104513275Y-80953968D01*
X104513276Y-80953966D01*
X104517115Y-80947738D01*
X104567659Y-80795352D01*
X104570632Y-80786389D01*
X104570632Y-80786387D01*
X104572797Y-80779861D01*
X104575102Y-80757370D01*
X104579302Y-80716373D01*
X104583500Y-80675400D01*
X104583500Y-79874600D01*
X104577084Y-79812763D01*
X104573238Y-79775692D01*
X104573237Y-79775688D01*
X104572526Y-79768834D01*
X104567642Y-79754193D01*
X104518868Y-79608002D01*
X104516550Y-79601054D01*
X104423478Y-79450652D01*
X104298303Y-79325695D01*
X104262564Y-79303665D01*
X104153968Y-79236725D01*
X104153966Y-79236724D01*
X104147738Y-79232885D01*
X104136304Y-79229092D01*
X104077946Y-79188664D01*
X104050708Y-79123100D01*
X104063241Y-79053218D01*
X104111565Y-79001205D01*
X104175972Y-78983500D01*
X104448134Y-78983500D01*
X104510316Y-78976745D01*
X104646705Y-78925615D01*
X104763261Y-78838261D01*
X104836430Y-78740633D01*
X104893288Y-78698118D01*
X104964107Y-78693092D01*
X105003090Y-78708766D01*
X105176272Y-78814893D01*
X105185067Y-78819375D01*
X105402490Y-78909434D01*
X105411875Y-78912483D01*
X105640708Y-78967422D01*
X105650455Y-78968965D01*
X105885070Y-78987430D01*
X105894930Y-78987430D01*
X106129545Y-78968965D01*
X106139292Y-78967422D01*
X106368125Y-78912483D01*
X106377510Y-78909434D01*
X106594933Y-78819375D01*
X106603728Y-78814893D01*
X106784805Y-78703928D01*
X106794267Y-78693470D01*
X106790484Y-78684694D01*
X105619885Y-77514095D01*
X105585859Y-77451783D01*
X105587694Y-77426132D01*
X106254408Y-77426132D01*
X106254539Y-77427965D01*
X106258790Y-77434580D01*
X107146650Y-78322440D01*
X107159030Y-78329200D01*
X107166680Y-78323473D01*
X107279893Y-78138728D01*
X107284375Y-78129933D01*
X107374434Y-77912510D01*
X107377483Y-77903125D01*
X107432422Y-77674292D01*
X107433965Y-77664545D01*
X107452430Y-77429930D01*
X107452430Y-77420070D01*
X107433965Y-77185455D01*
X107432422Y-77175708D01*
X107377483Y-76946875D01*
X107374434Y-76937490D01*
X107284375Y-76720067D01*
X107279893Y-76711272D01*
X107168928Y-76530195D01*
X107158470Y-76520733D01*
X107149694Y-76524516D01*
X106262022Y-77412188D01*
X106254408Y-77426132D01*
X105587694Y-77426132D01*
X105590924Y-77380968D01*
X105619885Y-77335905D01*
X106787440Y-76168350D01*
X106794200Y-76155970D01*
X106788473Y-76148320D01*
X106603728Y-76035107D01*
X106594933Y-76030625D01*
X106377510Y-75940566D01*
X106368125Y-75937517D01*
X106139292Y-75882578D01*
X106129545Y-75881035D01*
X105894930Y-75862570D01*
X105885070Y-75862570D01*
X105650455Y-75881035D01*
X105640708Y-75882578D01*
X105411875Y-75937517D01*
X105402490Y-75940566D01*
X105185067Y-76030625D01*
X105176272Y-76035107D01*
X105003090Y-76141234D01*
X104934557Y-76159773D01*
X104866880Y-76138317D01*
X104836429Y-76109367D01*
X104830506Y-76101463D01*
X104763261Y-76011739D01*
X104646705Y-75924385D01*
X104510316Y-75873255D01*
X104448134Y-75866500D01*
X102251866Y-75866500D01*
X102189684Y-75873255D01*
X102053295Y-75924385D01*
X101936739Y-76011739D01*
X101849385Y-76128295D01*
X101798255Y-76264684D01*
X101791500Y-76326866D01*
X101791500Y-78523134D01*
X97946122Y-78523134D01*
X97933750Y-78372644D01*
X97875731Y-78141663D01*
X97780767Y-77923259D01*
X97773814Y-77912510D01*
X97654216Y-77727642D01*
X97651406Y-77723298D01*
X97640057Y-77710825D01*
X97564213Y-77627474D01*
X97491124Y-77547150D01*
X97487073Y-77543951D01*
X97487069Y-77543947D01*
X97372125Y-77453171D01*
X97353347Y-77438341D01*
X97312285Y-77380425D01*
X97309053Y-77309502D01*
X97344678Y-77248091D01*
X97358271Y-77236882D01*
X97433814Y-77182998D01*
X97433821Y-77182992D01*
X97438020Y-77179997D01*
X97606716Y-77011889D01*
X97612999Y-77003146D01*
X97638325Y-76967901D01*
X97745690Y-76818486D01*
X97750196Y-76809370D01*
X97848917Y-76609624D01*
X97848918Y-76609622D01*
X97851211Y-76604982D01*
X97920443Y-76377111D01*
X97934928Y-76267086D01*
X97951092Y-76144313D01*
X97951092Y-76144309D01*
X97951529Y-76140992D01*
X97952015Y-76121109D01*
X97953182Y-76073365D01*
X97953182Y-76073361D01*
X97953264Y-76070000D01*
X97933750Y-75832644D01*
X97875731Y-75601663D01*
X97820363Y-75474324D01*
X97782827Y-75387996D01*
X97782825Y-75387993D01*
X97780767Y-75383259D01*
X97763694Y-75356867D01*
X97654216Y-75187642D01*
X97651406Y-75183298D01*
X97491124Y-75007150D01*
X97487073Y-75003951D01*
X97487069Y-75003947D01*
X97407959Y-74941470D01*
X97353347Y-74898341D01*
X97312285Y-74840425D01*
X97309053Y-74769502D01*
X97344678Y-74708091D01*
X97358271Y-74696882D01*
X97433814Y-74642998D01*
X97433821Y-74642992D01*
X97438020Y-74639997D01*
X97606716Y-74471889D01*
X97745690Y-74278486D01*
X97753892Y-74261892D01*
X97848917Y-74069624D01*
X97848918Y-74069622D01*
X97851211Y-74064982D01*
X97920443Y-73837111D01*
X97951529Y-73600992D01*
X97951611Y-73597640D01*
X97953182Y-73533365D01*
X97953182Y-73533361D01*
X97953264Y-73530000D01*
X97933750Y-73292644D01*
X97875731Y-73061663D01*
X97820363Y-72934324D01*
X97782827Y-72847996D01*
X97782825Y-72847993D01*
X97780767Y-72843259D01*
X97763694Y-72816867D01*
X97654216Y-72647642D01*
X97651406Y-72643298D01*
X97607101Y-72594607D01*
X97576049Y-72530761D01*
X97584445Y-72460263D01*
X97629622Y-72405495D01*
X97656062Y-72391828D01*
X97686505Y-72380415D01*
X97803061Y-72293061D01*
X97890415Y-72176505D01*
X97941545Y-72040116D01*
X97948300Y-71977934D01*
X97948300Y-70002066D01*
X97941545Y-69939884D01*
X97890415Y-69803495D01*
X97803061Y-69686939D01*
X97686505Y-69599585D01*
X97550116Y-69548455D01*
X97487934Y-69541700D01*
X95512066Y-69541700D01*
X95449884Y-69548455D01*
X95313495Y-69599585D01*
X95196939Y-69686939D01*
X95109585Y-69803495D01*
X95058455Y-69939884D01*
X95051700Y-70002066D01*
X95051700Y-71977934D01*
X95058455Y-72040116D01*
X95109585Y-72176505D01*
X95196939Y-72293061D01*
X95313495Y-72380415D01*
X95321904Y-72383567D01*
X95321905Y-72383568D01*
X95342130Y-72391150D01*
X95398895Y-72433791D01*
X95423595Y-72500352D01*
X95408388Y-72569701D01*
X95388997Y-72596181D01*
X95374174Y-72611693D01*
X95370602Y-72615431D01*
X95367688Y-72619703D01*
X95367687Y-72619704D01*
X95350270Y-72645236D01*
X95236394Y-72812172D01*
X95136122Y-73028191D01*
X95072477Y-73257685D01*
X95071928Y-73262819D01*
X95071928Y-73262821D01*
X95066449Y-73314089D01*
X95047170Y-73494494D01*
X95047467Y-73499646D01*
X95047467Y-73499650D01*
X95053502Y-73604313D01*
X95060879Y-73732255D01*
X95062016Y-73737301D01*
X95062017Y-73737307D01*
X95095111Y-73884156D01*
X95113237Y-73964585D01*
X95115179Y-73969367D01*
X95115180Y-73969371D01*
X95200893Y-74180457D01*
X95202837Y-74185244D01*
X95327274Y-74388306D01*
X95483204Y-74568317D01*
X95583729Y-74651774D01*
X95647560Y-74704768D01*
X95687195Y-74763671D01*
X95688693Y-74834651D01*
X95651578Y-74895174D01*
X95642728Y-74902472D01*
X95561291Y-74963617D01*
X95535140Y-74983252D01*
X95512117Y-75007344D01*
X95404678Y-75119773D01*
X95370602Y-75155431D01*
X95236394Y-75352172D01*
X95234215Y-75356867D01*
X95141991Y-75555548D01*
X95136122Y-75568191D01*
X95072477Y-75797685D01*
X95071928Y-75802819D01*
X95071928Y-75802821D01*
X95066449Y-75854089D01*
X95047170Y-76034494D01*
X95047467Y-76039646D01*
X95047467Y-76039650D01*
X95059053Y-76240592D01*
X95060879Y-76272255D01*
X95062016Y-76277301D01*
X95062017Y-76277307D01*
X95085949Y-76383500D01*
X95113237Y-76504585D01*
X95115179Y-76509367D01*
X95115180Y-76509371D01*
X95200735Y-76720067D01*
X95202837Y-76725244D01*
X95327274Y-76928306D01*
X95483204Y-77108317D01*
X95576117Y-77185455D01*
X95647560Y-77244768D01*
X95687195Y-77303671D01*
X95688693Y-77374651D01*
X95651578Y-77435174D01*
X95642728Y-77442472D01*
X95539275Y-77520147D01*
X95535140Y-77523252D01*
X95484792Y-77575938D01*
X95374359Y-77691500D01*
X95370602Y-77695431D01*
X95367688Y-77699703D01*
X95367687Y-77699704D01*
X95354203Y-77719471D01*
X95236394Y-77892172D01*
X95234213Y-77896870D01*
X95234211Y-77896874D01*
X95231114Y-77903546D01*
X95184292Y-77956915D01*
X95116825Y-77976500D01*
X94754621Y-77976500D01*
X94686500Y-77956498D01*
X94648623Y-77918620D01*
X94618124Y-77871162D01*
X94618121Y-77871159D01*
X94613250Y-77863579D01*
X94575009Y-77830443D01*
X94509555Y-77773726D01*
X94509552Y-77773724D01*
X94502743Y-77767824D01*
X94369734Y-77707081D01*
X94225000Y-77686271D01*
X92725000Y-77686271D01*
X92716024Y-77686913D01*
X92658627Y-77691018D01*
X92658626Y-77691018D01*
X92651889Y-77691500D01*
X92572382Y-77714845D01*
X92520235Y-77730157D01*
X92520233Y-77730158D01*
X92511589Y-77732696D01*
X92504010Y-77737567D01*
X92396159Y-77806878D01*
X92396156Y-77806880D01*
X92388579Y-77811750D01*
X92382678Y-77818560D01*
X92298726Y-77915445D01*
X92298724Y-77915448D01*
X92292824Y-77922257D01*
X92232081Y-78055266D01*
X92211271Y-78200000D01*
X92211271Y-79200000D01*
X92211395Y-79201964D01*
X92211395Y-79201968D01*
X92214116Y-79245102D01*
X92215343Y-79264557D01*
X92227925Y-79310232D01*
X92231167Y-79361624D01*
X92211271Y-79500000D01*
X92211271Y-80650000D01*
X79058249Y-80650000D01*
X79062814Y-80606565D01*
X79063504Y-80600000D01*
X79055775Y-80526465D01*
X79044232Y-80416635D01*
X79044232Y-80416633D01*
X79043542Y-80410072D01*
X78984527Y-80228444D01*
X78889040Y-80063056D01*
X78877411Y-80050140D01*
X78765675Y-79926045D01*
X78765674Y-79926044D01*
X78761253Y-79921134D01*
X78606752Y-79808882D01*
X78600724Y-79806198D01*
X78600722Y-79806197D01*
X78438319Y-79733891D01*
X78438318Y-79733891D01*
X78432288Y-79731206D01*
X78320154Y-79707371D01*
X78251944Y-79692872D01*
X78251939Y-79692872D01*
X78245487Y-79691500D01*
X78054513Y-79691500D01*
X78048061Y-79692872D01*
X78048056Y-79692872D01*
X77979846Y-79707371D01*
X77867712Y-79731206D01*
X77861682Y-79733891D01*
X77861681Y-79733891D01*
X77699278Y-79806197D01*
X77699276Y-79806198D01*
X77693248Y-79808882D01*
X77538747Y-79921134D01*
X77534326Y-79926044D01*
X77534325Y-79926045D01*
X77422590Y-80050140D01*
X77410960Y-80063056D01*
X77315473Y-80228444D01*
X77256458Y-80410072D01*
X77242151Y-80546202D01*
X77240038Y-80566303D01*
X77213025Y-80631960D01*
X77154804Y-80672590D01*
X77083858Y-80675293D01*
X77025633Y-80642228D01*
X76993752Y-80610347D01*
X76986212Y-80602061D01*
X76982100Y-80595582D01*
X76932448Y-80548956D01*
X76929607Y-80546202D01*
X76909870Y-80526465D01*
X76906673Y-80523985D01*
X76897651Y-80516280D01*
X76871200Y-80491441D01*
X76865421Y-80486014D01*
X76858475Y-80482195D01*
X76858472Y-80482193D01*
X76847666Y-80476252D01*
X76831147Y-80465401D01*
X76828385Y-80463259D01*
X76815141Y-80452986D01*
X76807872Y-80449841D01*
X76807868Y-80449838D01*
X76774563Y-80435426D01*
X76763913Y-80430209D01*
X76725160Y-80408905D01*
X76705537Y-80403867D01*
X76686833Y-80397463D01*
X76681754Y-80395265D01*
X76627182Y-80349851D01*
X76605800Y-80279630D01*
X76605800Y-80104466D01*
X76599045Y-80042284D01*
X76547915Y-79905895D01*
X76460561Y-79789339D01*
X76344005Y-79701985D01*
X76224987Y-79657367D01*
X76168223Y-79614725D01*
X76143523Y-79548164D01*
X76158730Y-79478815D01*
X76180277Y-79450135D01*
X76281352Y-79349412D01*
X76288030Y-79341565D01*
X76412303Y-79168620D01*
X76417613Y-79159783D01*
X76511970Y-78968867D01*
X76515769Y-78959272D01*
X76577677Y-78755510D01*
X76579855Y-78745437D01*
X76581286Y-78734562D01*
X76579075Y-78720378D01*
X76565917Y-78716600D01*
X73930525Y-78716600D01*
X73916994Y-78720573D01*
X73915557Y-78730566D01*
X73945865Y-78865046D01*
X73948945Y-78874875D01*
X74029070Y-79072203D01*
X74033713Y-79081394D01*
X74144994Y-79262988D01*
X74151077Y-79271299D01*
X74290513Y-79432267D01*
X74297877Y-79439479D01*
X74302822Y-79443585D01*
X74342456Y-79502489D01*
X74343953Y-79573470D01*
X74306837Y-79633992D01*
X74266564Y-79658510D01*
X74159005Y-79698832D01*
X74159004Y-79698833D01*
X74150595Y-79701985D01*
X74034039Y-79789339D01*
X73946685Y-79905895D01*
X73895555Y-80042284D01*
X73888800Y-80104466D01*
X73888800Y-80243100D01*
X73868798Y-80311221D01*
X73815142Y-80357714D01*
X73762800Y-80369100D01*
X73417722Y-80369100D01*
X73349601Y-80349098D01*
X73303108Y-80295442D01*
X73296725Y-80278252D01*
X73293643Y-80267642D01*
X73259145Y-80148899D01*
X73222627Y-80087150D01*
X73178491Y-80012520D01*
X73178489Y-80012517D01*
X73174453Y-80005693D01*
X73056807Y-79888047D01*
X73049983Y-79884011D01*
X73049980Y-79884009D01*
X72927169Y-79811379D01*
X72913601Y-79803355D01*
X72905990Y-79801144D01*
X72905988Y-79801143D01*
X72846835Y-79783958D01*
X72753831Y-79756938D01*
X72747426Y-79756434D01*
X72747421Y-79756433D01*
X72718958Y-79754193D01*
X72718950Y-79754193D01*
X72716502Y-79754000D01*
X72283498Y-79754000D01*
X72281050Y-79754193D01*
X72281042Y-79754193D01*
X72252579Y-79756433D01*
X72252574Y-79756434D01*
X72246169Y-79756938D01*
X72153165Y-79783958D01*
X72094012Y-79801143D01*
X72094010Y-79801144D01*
X72086399Y-79803355D01*
X72072831Y-79811379D01*
X71950020Y-79884009D01*
X71950017Y-79884011D01*
X71943193Y-79888047D01*
X71825547Y-80005693D01*
X71821511Y-80012517D01*
X71821509Y-80012520D01*
X71777373Y-80087150D01*
X71740855Y-80148899D01*
X71738644Y-80156509D01*
X71738642Y-80156514D01*
X71704030Y-80275652D01*
X71665817Y-80335488D01*
X71601321Y-80365166D01*
X71583033Y-80366500D01*
X71516967Y-80366500D01*
X71448846Y-80346498D01*
X71402353Y-80292842D01*
X71395970Y-80275652D01*
X71361358Y-80156514D01*
X71361356Y-80156509D01*
X71359145Y-80148899D01*
X71322627Y-80087150D01*
X71278491Y-80012520D01*
X71278489Y-80012517D01*
X71274453Y-80005693D01*
X71156807Y-79888047D01*
X71149983Y-79884011D01*
X71149980Y-79884009D01*
X71027169Y-79811379D01*
X71013601Y-79803355D01*
X70990071Y-79796519D01*
X70970817Y-79790925D01*
X70910982Y-79752711D01*
X70881305Y-79688215D01*
X70891209Y-79617912D01*
X70916798Y-79580910D01*
X70918938Y-79578767D01*
X70974305Y-79523303D01*
X70978146Y-79517072D01*
X71063275Y-79378968D01*
X71063276Y-79378966D01*
X71067115Y-79372738D01*
X71109981Y-79243500D01*
X71120632Y-79211389D01*
X71120632Y-79211387D01*
X71122797Y-79204861D01*
X71124114Y-79192012D01*
X71133172Y-79103598D01*
X71133500Y-79100400D01*
X71133500Y-78324600D01*
X71122526Y-78218834D01*
X71116243Y-78200000D01*
X71068868Y-78058002D01*
X71066550Y-78051054D01*
X70973478Y-77900652D01*
X70848303Y-77775695D01*
X70843765Y-77772898D01*
X70803176Y-77715647D01*
X70799946Y-77644724D01*
X70835572Y-77583313D01*
X70844068Y-77575938D01*
X70854207Y-77567902D01*
X70968739Y-77453171D01*
X70977751Y-77441760D01*
X71062816Y-77303757D01*
X71068963Y-77290576D01*
X71120138Y-77136290D01*
X71123005Y-77122914D01*
X71132672Y-77028562D01*
X71133000Y-77022146D01*
X71133000Y-76909615D01*
X71128525Y-76894376D01*
X71127135Y-76893171D01*
X71119452Y-76891500D01*
X68685116Y-76891500D01*
X68669877Y-76895975D01*
X68668672Y-76897365D01*
X68667001Y-76905048D01*
X68667001Y-77022095D01*
X68667506Y-77031852D01*
X68666542Y-77031902D01*
X68654407Y-77097772D01*
X68605837Y-77149555D01*
X68583941Y-77155058D01*
X68584081Y-77155383D01*
X68539694Y-77174516D01*
X66382560Y-79331650D01*
X66375800Y-79344030D01*
X66381527Y-79351680D01*
X66566272Y-79464893D01*
X66575067Y-79469375D01*
X66792490Y-79559434D01*
X66801875Y-79562483D01*
X67030708Y-79617422D01*
X67040455Y-79618965D01*
X67275070Y-79637430D01*
X67284930Y-79637430D01*
X67519545Y-79618965D01*
X67529292Y-79617422D01*
X67758125Y-79562483D01*
X67767510Y-79559434D01*
X67984933Y-79469375D01*
X67993728Y-79464893D01*
X68169567Y-79357138D01*
X68238100Y-79338599D01*
X68305777Y-79360055D01*
X68351110Y-79414694D01*
X68359850Y-79484284D01*
X68354901Y-79515525D01*
X68352495Y-79527144D01*
X68344205Y-79559434D01*
X68341500Y-79569970D01*
X68341500Y-79590224D01*
X68339949Y-79609934D01*
X68336780Y-79629943D01*
X68337526Y-79637835D01*
X68340941Y-79673961D01*
X68341500Y-79685819D01*
X68341500Y-80719518D01*
X68321498Y-80787639D01*
X68267842Y-80834132D01*
X68197568Y-80844236D01*
X68151364Y-80827973D01*
X68088601Y-80790855D01*
X68080990Y-80788644D01*
X68080988Y-80788643D01*
X67993142Y-80763122D01*
X67928831Y-80744438D01*
X67922426Y-80743934D01*
X67922421Y-80743933D01*
X67893958Y-80741693D01*
X67893950Y-80741693D01*
X67891502Y-80741500D01*
X67458498Y-80741500D01*
X67456050Y-80741693D01*
X67456042Y-80741693D01*
X67427579Y-80743933D01*
X67427574Y-80743934D01*
X67421169Y-80744438D01*
X67356858Y-80763122D01*
X67269012Y-80788643D01*
X67269010Y-80788644D01*
X67261399Y-80790855D01*
X67254572Y-80794892D01*
X67254573Y-80794892D01*
X67125020Y-80871509D01*
X67125017Y-80871511D01*
X67118193Y-80875547D01*
X67000547Y-80993193D01*
X66996511Y-81000017D01*
X66996509Y-81000020D01*
X66934708Y-81104521D01*
X66915855Y-81136399D01*
X66913644Y-81144010D01*
X66913643Y-81144012D01*
X66911433Y-81151619D01*
X66869438Y-81296169D01*
X66868934Y-81302574D01*
X66868933Y-81302579D01*
X66867114Y-81325695D01*
X66866500Y-81333498D01*
X66866500Y-82490500D01*
X66846498Y-82558621D01*
X66792842Y-82605114D01*
X66740500Y-82616500D01*
X66709000Y-82616500D01*
X66640879Y-82596498D01*
X66594386Y-82542842D01*
X66583000Y-82490500D01*
X66583000Y-82259615D01*
X66578525Y-82244376D01*
X66577135Y-82243171D01*
X66569452Y-82241500D01*
X64985116Y-82241500D01*
X64969877Y-82245975D01*
X64968672Y-82247365D01*
X64967001Y-82255048D01*
X64967001Y-82638984D01*
X64967195Y-82643920D01*
X64969430Y-82672336D01*
X64971730Y-82684931D01*
X65014107Y-82830790D01*
X65020352Y-82845221D01*
X65083122Y-82951361D01*
X65100581Y-83020178D01*
X65078064Y-83087509D01*
X65022719Y-83131978D01*
X64974668Y-83141500D01*
X64960144Y-83141500D01*
X64956154Y-83142004D01*
X64944320Y-83142936D01*
X64900111Y-83144326D01*
X64892497Y-83146538D01*
X64892492Y-83146539D01*
X64880659Y-83149977D01*
X64861296Y-83153988D01*
X64841203Y-83156526D01*
X64833836Y-83159443D01*
X64833831Y-83159444D01*
X64800092Y-83172802D01*
X64788865Y-83176646D01*
X64746407Y-83188982D01*
X64739581Y-83193019D01*
X64728972Y-83199293D01*
X64711224Y-83207988D01*
X64692383Y-83215448D01*
X64685967Y-83220110D01*
X64685966Y-83220110D01*
X64656613Y-83241436D01*
X64646693Y-83247952D01*
X64615465Y-83266420D01*
X64615462Y-83266422D01*
X64608638Y-83270458D01*
X64594317Y-83284779D01*
X64579284Y-83297619D01*
X64562893Y-83309528D01*
X64557842Y-83315633D01*
X64557837Y-83315638D01*
X64534706Y-83343598D01*
X64526719Y-83352376D01*
X64312765Y-83566331D01*
X64138525Y-83740571D01*
X64076212Y-83774596D01*
X64014275Y-83772472D01*
X64003831Y-83769438D01*
X63997426Y-83768934D01*
X63997421Y-83768933D01*
X63968958Y-83766693D01*
X63968950Y-83766693D01*
X63966502Y-83766500D01*
X62809500Y-83766500D01*
X62741379Y-83746498D01*
X62694886Y-83692842D01*
X62683500Y-83640500D01*
X62683500Y-83408498D01*
X62683307Y-83406042D01*
X62681067Y-83377579D01*
X62681066Y-83377574D01*
X62680562Y-83371169D01*
X62645170Y-83249348D01*
X62636357Y-83219012D01*
X62636356Y-83219010D01*
X62634145Y-83211399D01*
X62592807Y-83141500D01*
X62553491Y-83075020D01*
X62553489Y-83075017D01*
X62549453Y-83068193D01*
X62431807Y-82950547D01*
X62424983Y-82946511D01*
X62424980Y-82946509D01*
X62295427Y-82869892D01*
X62295428Y-82869892D01*
X62288601Y-82865855D01*
X62280990Y-82863644D01*
X62280988Y-82863643D01*
X62228769Y-82848472D01*
X62128831Y-82819438D01*
X62122426Y-82818934D01*
X62122421Y-82818933D01*
X62093958Y-82816693D01*
X62093950Y-82816693D01*
X62091502Y-82816500D01*
X60783498Y-82816500D01*
X60781050Y-82816693D01*
X60781042Y-82816693D01*
X60752579Y-82818933D01*
X60752574Y-82818934D01*
X60746169Y-82819438D01*
X60646231Y-82848472D01*
X60594012Y-82863643D01*
X60594010Y-82863644D01*
X60586399Y-82865855D01*
X60579572Y-82869892D01*
X60579573Y-82869892D01*
X60450020Y-82946509D01*
X60450017Y-82946511D01*
X60443193Y-82950547D01*
X60328469Y-83065271D01*
X60266157Y-83099297D01*
X60195342Y-83094232D01*
X60138506Y-83051685D01*
X60123478Y-83022335D01*
X60122591Y-83022715D01*
X60115071Y-83005169D01*
X60024447Y-82841680D01*
X60017196Y-82831247D01*
X59895544Y-82689312D01*
X59886353Y-82680559D01*
X59738636Y-82565979D01*
X59727876Y-82559255D01*
X59560140Y-82476719D01*
X59548233Y-82472291D01*
X59481531Y-82454917D01*
X59467436Y-82455351D01*
X59464000Y-82463532D01*
X59464000Y-83678000D01*
X59443998Y-83746121D01*
X59390342Y-83792614D01*
X59338000Y-83804000D01*
X58250610Y-83804000D01*
X58235371Y-83808475D01*
X58221909Y-83824011D01*
X58208922Y-83850951D01*
X58148411Y-83888083D01*
X58089239Y-83889722D01*
X58051760Y-83881755D01*
X57986446Y-83867872D01*
X57986441Y-83867872D01*
X57979989Y-83866500D01*
X57789015Y-83866500D01*
X57782563Y-83867872D01*
X57782558Y-83867872D01*
X57695614Y-83886353D01*
X57602214Y-83906206D01*
X57596184Y-83908891D01*
X57596183Y-83908891D01*
X57433780Y-83981197D01*
X57433778Y-83981198D01*
X57427750Y-83983882D01*
X57422409Y-83987762D01*
X57422408Y-83987763D01*
X57372345Y-84024136D01*
X57273249Y-84096134D01*
X57268828Y-84101044D01*
X57268827Y-84101045D01*
X57153222Y-84229438D01*
X57145462Y-84238056D01*
X57126121Y-84271556D01*
X57067774Y-84372616D01*
X57049975Y-84403444D01*
X56990960Y-84585072D01*
X56970998Y-84775000D01*
X55499768Y-84775000D01*
X55499768Y-83479152D01*
X55519770Y-83411031D01*
X55573426Y-83364538D01*
X55643700Y-83354434D01*
X55698038Y-83375938D01*
X55707444Y-83382524D01*
X55718531Y-83388720D01*
X55884495Y-83460540D01*
X55896607Y-83464382D01*
X56075134Y-83501677D01*
X56084666Y-83502915D01*
X56087889Y-83503000D01*
X56237885Y-83503000D01*
X56253124Y-83498525D01*
X56254329Y-83497135D01*
X56256000Y-83489452D01*
X56256000Y-83484885D01*
X56764000Y-83484885D01*
X56768475Y-83500124D01*
X56769865Y-83501329D01*
X56777548Y-83503000D01*
X56885192Y-83503000D01*
X56891567Y-83502677D01*
X57026267Y-83488995D01*
X57038707Y-83486441D01*
X57211264Y-83432365D01*
X57222952Y-83427356D01*
X57381111Y-83339686D01*
X57391544Y-83332435D01*
X57454747Y-83278264D01*
X58231199Y-83278264D01*
X58232322Y-83292325D01*
X58242429Y-83296000D01*
X58937885Y-83296000D01*
X58953124Y-83291525D01*
X58954329Y-83290135D01*
X58956000Y-83282452D01*
X58956000Y-82464133D01*
X58952027Y-82450602D01*
X58945925Y-82449725D01*
X58782855Y-82509723D01*
X58771427Y-82515297D01*
X58612560Y-82613799D01*
X58602496Y-82621549D01*
X58466678Y-82749986D01*
X58458375Y-82759606D01*
X58351155Y-82912731D01*
X58344958Y-82923820D01*
X58270716Y-83095382D01*
X58266877Y-83107485D01*
X58231199Y-83278264D01*
X57454747Y-83278264D01*
X57528843Y-83214756D01*
X57537612Y-83205547D01*
X57648442Y-83062667D01*
X57655178Y-83051887D01*
X57735019Y-82889626D01*
X57739445Y-82877727D01*
X57754082Y-82821531D01*
X57753648Y-82807436D01*
X57745467Y-82804000D01*
X56782115Y-82804000D01*
X56766876Y-82808475D01*
X56765671Y-82809865D01*
X56764000Y-82817548D01*
X56764000Y-83484885D01*
X56256000Y-83484885D01*
X56256000Y-82277885D01*
X56764000Y-82277885D01*
X56768475Y-82293124D01*
X56769865Y-82294329D01*
X56777548Y-82296000D01*
X57743901Y-82296000D01*
X57757432Y-82292027D01*
X57758309Y-82285925D01*
X57703170Y-82136064D01*
X57697608Y-82124658D01*
X57602309Y-81970956D01*
X57594560Y-81960895D01*
X57470310Y-81829504D01*
X57460690Y-81821201D01*
X57312557Y-81717477D01*
X57308814Y-81715385D01*
X64967000Y-81715385D01*
X64971475Y-81730624D01*
X64972865Y-81731829D01*
X64980548Y-81733500D01*
X65502885Y-81733500D01*
X65518124Y-81729025D01*
X65519329Y-81727635D01*
X65521000Y-81719952D01*
X65521000Y-81715385D01*
X66029000Y-81715385D01*
X66033475Y-81730624D01*
X66034865Y-81731829D01*
X66042548Y-81733500D01*
X66564884Y-81733500D01*
X66580123Y-81729025D01*
X66581328Y-81727635D01*
X66582999Y-81719952D01*
X66582999Y-81336017D01*
X66582805Y-81331080D01*
X66580570Y-81302664D01*
X66578270Y-81290069D01*
X66535893Y-81144210D01*
X66529648Y-81129779D01*
X66453089Y-81000322D01*
X66443449Y-80987896D01*
X66337104Y-80881551D01*
X66324678Y-80871911D01*
X66195221Y-80795352D01*
X66180790Y-80789107D01*
X66046395Y-80750061D01*
X66032294Y-80750101D01*
X66029000Y-80757370D01*
X66029000Y-81715385D01*
X65521000Y-81715385D01*
X65521000Y-80763122D01*
X65517027Y-80749591D01*
X65509129Y-80748456D01*
X65369210Y-80789107D01*
X65354779Y-80795352D01*
X65225322Y-80871911D01*
X65212896Y-80881551D01*
X65106551Y-80987896D01*
X65096911Y-81000322D01*
X65020352Y-81129779D01*
X65014107Y-81144210D01*
X64971731Y-81290065D01*
X64969430Y-81302667D01*
X64967193Y-81331084D01*
X64967000Y-81336014D01*
X64967000Y-81715385D01*
X57308814Y-81715385D01*
X57301469Y-81711280D01*
X57135505Y-81639460D01*
X57123393Y-81635618D01*
X56944866Y-81598323D01*
X56935334Y-81597085D01*
X56932111Y-81597000D01*
X56782115Y-81597000D01*
X56766876Y-81601475D01*
X56765671Y-81602865D01*
X56764000Y-81610548D01*
X56764000Y-82277885D01*
X56256000Y-82277885D01*
X56256000Y-81615115D01*
X56251525Y-81599876D01*
X56250135Y-81598671D01*
X56242452Y-81597000D01*
X56134808Y-81597000D01*
X56128433Y-81597323D01*
X55993733Y-81611005D01*
X55981293Y-81613559D01*
X55808736Y-81667635D01*
X55797048Y-81672644D01*
X55686854Y-81733726D01*
X55617577Y-81749258D01*
X55550901Y-81724870D01*
X55507994Y-81668305D01*
X55499768Y-81623524D01*
X55499768Y-79173134D01*
X58101500Y-79173134D01*
X58108255Y-79235316D01*
X58159385Y-79371705D01*
X58246739Y-79488261D01*
X58363295Y-79575615D01*
X58499684Y-79626745D01*
X58561866Y-79633500D01*
X60758134Y-79633500D01*
X60820316Y-79626745D01*
X60956705Y-79575615D01*
X61073261Y-79488261D01*
X61146128Y-79391035D01*
X61202988Y-79348521D01*
X61273806Y-79343496D01*
X61312788Y-79359168D01*
X61319526Y-79363297D01*
X61490268Y-79467927D01*
X61573785Y-79502521D01*
X61712335Y-79559911D01*
X61712337Y-79559912D01*
X61716908Y-79561805D01*
X61774431Y-79575615D01*
X61950630Y-79617917D01*
X61950636Y-79617918D01*
X61955443Y-79619072D01*
X62200000Y-79638319D01*
X62444557Y-79619072D01*
X62449364Y-79617918D01*
X62449370Y-79617917D01*
X62625569Y-79575615D01*
X62683092Y-79561805D01*
X62687663Y-79559912D01*
X62687665Y-79559911D01*
X62826215Y-79502521D01*
X62909732Y-79467927D01*
X63055027Y-79378891D01*
X63114670Y-79342342D01*
X63114673Y-79342340D01*
X63118896Y-79339752D01*
X63128383Y-79331650D01*
X63301677Y-79183641D01*
X63305433Y-79180433D01*
X63350701Y-79127432D01*
X63374189Y-79099931D01*
X63433640Y-79061122D01*
X63504635Y-79060616D01*
X63565811Y-79099931D01*
X63589299Y-79127432D01*
X63634567Y-79180433D01*
X63638323Y-79183641D01*
X63811618Y-79331650D01*
X63821104Y-79339752D01*
X63825327Y-79342340D01*
X63825330Y-79342342D01*
X63884973Y-79378891D01*
X64030268Y-79467927D01*
X64113785Y-79502521D01*
X64252335Y-79559911D01*
X64252337Y-79559912D01*
X64256908Y-79561805D01*
X64314431Y-79575615D01*
X64490630Y-79617917D01*
X64490636Y-79617918D01*
X64495443Y-79619072D01*
X64740000Y-79638319D01*
X64984557Y-79619072D01*
X64989364Y-79617918D01*
X64989370Y-79617917D01*
X65165569Y-79575615D01*
X65223092Y-79561805D01*
X65227663Y-79559912D01*
X65227665Y-79559911D01*
X65366215Y-79502521D01*
X65449732Y-79467927D01*
X65595027Y-79378891D01*
X65654670Y-79342342D01*
X65654673Y-79342340D01*
X65658896Y-79339752D01*
X65668383Y-79331650D01*
X65841677Y-79183641D01*
X65845433Y-79180433D01*
X66004752Y-78993896D01*
X66006190Y-78991549D01*
X66017605Y-78978185D01*
X66907978Y-78087812D01*
X66915592Y-78073868D01*
X66915461Y-78072035D01*
X66911210Y-78065420D01*
X66017605Y-77171815D01*
X66006190Y-77158451D01*
X66004752Y-77156104D01*
X65845433Y-76969567D01*
X65759269Y-76895975D01*
X65662663Y-76813465D01*
X65662660Y-76813463D01*
X65658896Y-76810248D01*
X65654673Y-76807660D01*
X65654670Y-76807658D01*
X65652829Y-76806530D01*
X66375733Y-76806530D01*
X66379516Y-76815306D01*
X67267188Y-77702978D01*
X67281132Y-77710592D01*
X67282965Y-77710461D01*
X67289580Y-77706210D01*
X68177440Y-76818350D01*
X68184200Y-76805970D01*
X68178473Y-76798320D01*
X67993728Y-76685107D01*
X67984933Y-76680625D01*
X67767510Y-76590566D01*
X67758125Y-76587517D01*
X67529292Y-76532578D01*
X67519545Y-76531035D01*
X67284930Y-76512570D01*
X67275070Y-76512570D01*
X67040455Y-76531035D01*
X67030708Y-76532578D01*
X66801875Y-76587517D01*
X66792490Y-76590566D01*
X66575067Y-76680625D01*
X66566272Y-76685107D01*
X66385195Y-76796072D01*
X66375733Y-76806530D01*
X65652829Y-76806530D01*
X65528229Y-76730176D01*
X65449732Y-76682073D01*
X65263619Y-76604982D01*
X65227665Y-76590089D01*
X65227663Y-76590088D01*
X65223092Y-76588195D01*
X65140437Y-76568351D01*
X64989370Y-76532083D01*
X64989364Y-76532082D01*
X64984557Y-76530928D01*
X64740000Y-76511681D01*
X64495443Y-76530928D01*
X64490636Y-76532082D01*
X64490630Y-76532083D01*
X64339563Y-76568351D01*
X64256908Y-76588195D01*
X64252337Y-76590088D01*
X64252335Y-76590089D01*
X64216381Y-76604982D01*
X64030268Y-76682073D01*
X63951771Y-76730176D01*
X63825330Y-76807658D01*
X63825327Y-76807660D01*
X63821104Y-76810248D01*
X63817340Y-76813463D01*
X63817337Y-76813465D01*
X63720731Y-76895975D01*
X63634567Y-76969567D01*
X63631359Y-76973323D01*
X63565811Y-77050069D01*
X63506360Y-77088878D01*
X63435365Y-77089384D01*
X63374189Y-77050069D01*
X63308641Y-76973323D01*
X63305433Y-76969567D01*
X63219269Y-76895975D01*
X63122663Y-76813465D01*
X63122660Y-76813463D01*
X63118896Y-76810248D01*
X63114673Y-76807660D01*
X63114670Y-76807658D01*
X62988229Y-76730176D01*
X62909732Y-76682073D01*
X62723619Y-76604982D01*
X62687665Y-76590089D01*
X62687663Y-76590088D01*
X62683092Y-76588195D01*
X62600437Y-76568351D01*
X62449370Y-76532083D01*
X62449364Y-76532082D01*
X62444557Y-76530928D01*
X62200000Y-76511681D01*
X61955443Y-76530928D01*
X61950636Y-76532082D01*
X61950630Y-76532083D01*
X61799563Y-76568351D01*
X61716908Y-76588195D01*
X61712337Y-76590088D01*
X61712335Y-76590089D01*
X61676381Y-76604982D01*
X61490268Y-76682073D01*
X61364791Y-76758965D01*
X61312788Y-76790832D01*
X61244255Y-76809370D01*
X61176578Y-76787913D01*
X61146128Y-76758965D01*
X61120855Y-76725244D01*
X61073261Y-76661739D01*
X60956705Y-76574385D01*
X60820316Y-76523255D01*
X60758134Y-76516500D01*
X58561866Y-76516500D01*
X58499684Y-76523255D01*
X58363295Y-76574385D01*
X58246739Y-76661739D01*
X58159385Y-76778295D01*
X58108255Y-76914684D01*
X58101500Y-76976866D01*
X58101500Y-79173134D01*
X55499768Y-79173134D01*
X55499768Y-78666835D01*
X55501268Y-78647450D01*
X55503578Y-78632617D01*
X55503578Y-78632613D01*
X55504959Y-78623744D01*
X55501937Y-78600631D01*
X55500935Y-78580339D01*
X55518373Y-78025450D01*
X55518870Y-78017550D01*
X55572351Y-77451783D01*
X55574240Y-77431803D01*
X55575231Y-77423958D01*
X55575232Y-77423956D01*
X55667270Y-76842843D01*
X55668753Y-76835076D01*
X55773742Y-76365385D01*
X68667000Y-76365385D01*
X68671475Y-76380624D01*
X68672865Y-76381829D01*
X68680548Y-76383500D01*
X69627885Y-76383500D01*
X69643124Y-76379025D01*
X69644329Y-76377635D01*
X69646000Y-76369952D01*
X69646000Y-76365385D01*
X70154000Y-76365385D01*
X70158475Y-76380624D01*
X70159865Y-76381829D01*
X70167548Y-76383500D01*
X71114884Y-76383500D01*
X71130123Y-76379025D01*
X71131328Y-76377635D01*
X71132999Y-76369952D01*
X71132999Y-76252905D01*
X71132662Y-76246386D01*
X71122743Y-76150794D01*
X71119851Y-76137400D01*
X71068412Y-75983216D01*
X71062239Y-75970038D01*
X71012273Y-75889295D01*
X73884551Y-75889295D01*
X73884848Y-75894448D01*
X73884848Y-75894451D01*
X73889276Y-75971243D01*
X73897410Y-76112315D01*
X73898547Y-76117361D01*
X73898548Y-76117367D01*
X73916521Y-76197115D01*
X73946522Y-76330239D01*
X73985163Y-76425400D01*
X74024759Y-76522914D01*
X74030566Y-76537216D01*
X74033265Y-76541620D01*
X74144039Y-76722387D01*
X74147287Y-76727688D01*
X74293550Y-76896538D01*
X74465426Y-77039232D01*
X74513142Y-77067115D01*
X74539255Y-77082374D01*
X74587979Y-77134012D01*
X74601050Y-77203795D01*
X74574319Y-77269567D01*
X74533862Y-77302927D01*
X74525757Y-77307146D01*
X74517038Y-77312636D01*
X74346733Y-77440505D01*
X74339026Y-77447348D01*
X74191890Y-77601317D01*
X74185404Y-77609327D01*
X74065398Y-77785249D01*
X74060300Y-77794223D01*
X73970638Y-77987383D01*
X73967075Y-77997070D01*
X73911689Y-78196783D01*
X73913212Y-78205207D01*
X73925592Y-78208600D01*
X76565644Y-78208600D01*
X76579175Y-78204627D01*
X76580480Y-78195547D01*
X76538514Y-78028475D01*
X76535194Y-78018724D01*
X76450272Y-77823414D01*
X76445405Y-77814339D01*
X76329726Y-77635526D01*
X76323436Y-77627357D01*
X76180106Y-77469840D01*
X76172573Y-77462815D01*
X76005439Y-77330822D01*
X75996856Y-77325120D01*
X75959902Y-77304720D01*
X75909931Y-77254287D01*
X75895159Y-77184845D01*
X75920275Y-77118439D01*
X75947627Y-77091832D01*
X75983071Y-77066550D01*
X76127160Y-76963773D01*
X76158835Y-76932209D01*
X76223148Y-76868120D01*
X76285396Y-76806089D01*
X76291281Y-76797900D01*
X76412735Y-76628877D01*
X76415753Y-76624677D01*
X76418046Y-76620037D01*
X76419746Y-76617208D01*
X76471974Y-76569118D01*
X76527751Y-76556100D01*
X78036661Y-76556100D01*
X78104782Y-76576102D01*
X78151275Y-76629758D01*
X78156184Y-76642223D01*
X78181130Y-76716993D01*
X78183450Y-76723946D01*
X78276522Y-76874348D01*
X78401697Y-76999305D01*
X78407927Y-77003145D01*
X78407928Y-77003146D01*
X78545090Y-77087694D01*
X78552262Y-77092115D01*
X78601110Y-77108317D01*
X78713611Y-77145632D01*
X78713613Y-77145632D01*
X78720139Y-77147797D01*
X78726975Y-77148497D01*
X78726978Y-77148498D01*
X78770031Y-77152909D01*
X78824600Y-77158500D01*
X79625400Y-77158500D01*
X79628646Y-77158163D01*
X79628650Y-77158163D01*
X79724308Y-77148238D01*
X79724312Y-77148237D01*
X79731166Y-77147526D01*
X79737702Y-77145345D01*
X79737704Y-77145345D01*
X79880296Y-77097772D01*
X79898946Y-77091550D01*
X80049348Y-76998478D01*
X80135784Y-76911891D01*
X80198066Y-76877812D01*
X80268886Y-76882815D01*
X80313975Y-76911736D01*
X80369106Y-76966771D01*
X80401697Y-76999305D01*
X80407927Y-77003145D01*
X80407928Y-77003146D01*
X80545090Y-77087694D01*
X80552262Y-77092115D01*
X80601110Y-77108317D01*
X80713611Y-77145632D01*
X80713613Y-77145632D01*
X80720139Y-77147797D01*
X80726975Y-77148497D01*
X80726978Y-77148498D01*
X80770031Y-77152909D01*
X80824600Y-77158500D01*
X81625400Y-77158500D01*
X81628646Y-77158163D01*
X81628650Y-77158163D01*
X81724308Y-77148238D01*
X81724312Y-77148237D01*
X81731166Y-77147526D01*
X81737702Y-77145345D01*
X81737704Y-77145345D01*
X81880296Y-77097772D01*
X81898946Y-77091550D01*
X82049348Y-76998478D01*
X82070852Y-76976937D01*
X82169135Y-76878482D01*
X82174305Y-76873303D01*
X82176319Y-76870035D01*
X82233068Y-76829799D01*
X82300231Y-76825706D01*
X82362463Y-76838934D01*
X82448056Y-76857128D01*
X82448061Y-76857128D01*
X82454513Y-76858500D01*
X82645487Y-76858500D01*
X82651940Y-76857128D01*
X82651944Y-76857128D01*
X82710039Y-76844779D01*
X82735453Y-76839377D01*
X82806242Y-76844779D01*
X82850667Y-76873451D01*
X82870421Y-76893171D01*
X82951697Y-76974305D01*
X82957927Y-76978145D01*
X82957928Y-76978146D01*
X83095288Y-77062816D01*
X83102262Y-77067115D01*
X83148267Y-77082374D01*
X83263611Y-77120632D01*
X83263613Y-77120632D01*
X83270139Y-77122797D01*
X83276975Y-77123497D01*
X83276978Y-77123498D01*
X83320031Y-77127909D01*
X83374600Y-77133500D01*
X84175400Y-77133500D01*
X84178646Y-77133163D01*
X84178650Y-77133163D01*
X84274308Y-77123238D01*
X84274312Y-77123237D01*
X84281166Y-77122526D01*
X84287702Y-77120345D01*
X84287704Y-77120345D01*
X84419806Y-77076272D01*
X84448946Y-77066550D01*
X84599348Y-76973478D01*
X84640545Y-76932209D01*
X84686138Y-76886537D01*
X84748421Y-76852458D01*
X84819241Y-76857461D01*
X84864329Y-76886382D01*
X84946829Y-76968739D01*
X84958240Y-76977751D01*
X85096243Y-77062816D01*
X85109424Y-77068963D01*
X85263710Y-77120138D01*
X85277086Y-77123005D01*
X85371438Y-77132672D01*
X85377854Y-77133000D01*
X85502885Y-77133000D01*
X85518124Y-77128525D01*
X85519329Y-77127135D01*
X85521000Y-77119452D01*
X85521000Y-77114884D01*
X86029000Y-77114884D01*
X86033475Y-77130123D01*
X86034865Y-77131328D01*
X86042548Y-77132999D01*
X86172095Y-77132999D01*
X86178614Y-77132662D01*
X86274206Y-77122743D01*
X86287600Y-77119851D01*
X86441784Y-77068412D01*
X86454962Y-77062239D01*
X86592807Y-76976937D01*
X86604208Y-76967901D01*
X86718739Y-76853171D01*
X86727751Y-76841760D01*
X86812816Y-76703757D01*
X86818963Y-76690576D01*
X86870138Y-76536290D01*
X86873005Y-76522914D01*
X86882672Y-76428562D01*
X86883000Y-76422146D01*
X86883000Y-76197115D01*
X86878525Y-76181876D01*
X86877135Y-76180671D01*
X86869452Y-76179000D01*
X86047115Y-76179000D01*
X86031876Y-76183475D01*
X86030671Y-76184865D01*
X86029000Y-76192548D01*
X86029000Y-77114884D01*
X85521000Y-77114884D01*
X85521000Y-75652885D01*
X86029000Y-75652885D01*
X86033475Y-75668124D01*
X86034865Y-75669329D01*
X86042548Y-75671000D01*
X86864884Y-75671000D01*
X86880123Y-75666525D01*
X86881328Y-75665135D01*
X86882999Y-75657452D01*
X86882999Y-75427905D01*
X86882662Y-75421386D01*
X86872743Y-75325794D01*
X86869851Y-75312400D01*
X86818412Y-75158216D01*
X86812239Y-75145038D01*
X86726937Y-75007193D01*
X86717901Y-74995792D01*
X86603171Y-74881261D01*
X86591760Y-74872249D01*
X86453757Y-74787184D01*
X86440576Y-74781037D01*
X86286290Y-74729862D01*
X86272914Y-74726995D01*
X86178562Y-74717328D01*
X86172145Y-74717000D01*
X86047115Y-74717000D01*
X86031876Y-74721475D01*
X86030671Y-74722865D01*
X86029000Y-74730548D01*
X86029000Y-75652885D01*
X85521000Y-75652885D01*
X85521000Y-74735116D01*
X85516525Y-74719877D01*
X85515135Y-74718672D01*
X85507452Y-74717001D01*
X85377905Y-74717001D01*
X85371386Y-74717338D01*
X85275794Y-74727257D01*
X85262400Y-74730149D01*
X85108216Y-74781588D01*
X85095038Y-74787761D01*
X84957193Y-74873063D01*
X84945792Y-74882099D01*
X84864570Y-74963462D01*
X84802287Y-74997541D01*
X84731467Y-74992538D01*
X84686380Y-74963617D01*
X84603488Y-74880870D01*
X84603483Y-74880866D01*
X84598303Y-74875695D01*
X84531718Y-74834651D01*
X84453968Y-74786725D01*
X84453966Y-74786724D01*
X84447738Y-74782885D01*
X84353121Y-74751502D01*
X84286389Y-74729368D01*
X84286387Y-74729368D01*
X84279861Y-74727203D01*
X84273025Y-74726503D01*
X84273022Y-74726502D01*
X84229969Y-74722091D01*
X84175400Y-74716500D01*
X83374600Y-74716500D01*
X83371354Y-74716837D01*
X83371350Y-74716837D01*
X83275692Y-74726762D01*
X83275688Y-74726763D01*
X83268834Y-74727474D01*
X83262298Y-74729655D01*
X83262296Y-74729655D01*
X83151206Y-74766718D01*
X83101054Y-74783450D01*
X82950652Y-74876522D01*
X82825695Y-75001697D01*
X82822135Y-75007472D01*
X82764399Y-75048407D01*
X82697235Y-75052499D01*
X82651951Y-75042873D01*
X82651942Y-75042872D01*
X82645487Y-75041500D01*
X82454513Y-75041500D01*
X82448061Y-75042872D01*
X82448056Y-75042872D01*
X82300238Y-75074292D01*
X82229447Y-75068890D01*
X82176110Y-75029905D01*
X82173478Y-75025652D01*
X82048303Y-74900695D01*
X82042072Y-74896854D01*
X81903968Y-74811725D01*
X81903966Y-74811724D01*
X81897738Y-74807885D01*
X81782016Y-74769502D01*
X81736389Y-74754368D01*
X81736387Y-74754368D01*
X81729861Y-74752203D01*
X81723025Y-74751503D01*
X81723022Y-74751502D01*
X81679969Y-74747091D01*
X81625400Y-74741500D01*
X80824600Y-74741500D01*
X80821354Y-74741837D01*
X80821350Y-74741837D01*
X80725692Y-74751762D01*
X80725688Y-74751763D01*
X80718834Y-74752474D01*
X80712298Y-74754655D01*
X80712296Y-74754655D01*
X80614796Y-74787184D01*
X80551054Y-74808450D01*
X80400652Y-74901522D01*
X80319065Y-74983252D01*
X80314216Y-74988109D01*
X80251934Y-75022188D01*
X80181114Y-75017185D01*
X80136025Y-74988264D01*
X80053483Y-74905866D01*
X80048303Y-74900695D01*
X80042072Y-74896854D01*
X79903968Y-74811725D01*
X79903966Y-74811724D01*
X79897738Y-74807885D01*
X79782016Y-74769502D01*
X79736389Y-74754368D01*
X79736387Y-74754368D01*
X79729861Y-74752203D01*
X79723025Y-74751503D01*
X79723022Y-74751502D01*
X79679969Y-74747091D01*
X79625400Y-74741500D01*
X78824600Y-74741500D01*
X78821354Y-74741837D01*
X78821350Y-74741837D01*
X78725692Y-74751762D01*
X78725688Y-74751763D01*
X78718834Y-74752474D01*
X78712298Y-74754655D01*
X78712296Y-74754655D01*
X78614796Y-74787184D01*
X78551054Y-74808450D01*
X78400652Y-74901522D01*
X78275695Y-75026697D01*
X78271855Y-75032927D01*
X78271854Y-75032928D01*
X78216078Y-75123414D01*
X78182885Y-75177262D01*
X78174425Y-75202769D01*
X78133993Y-75261128D01*
X78068429Y-75288364D01*
X78054832Y-75289100D01*
X76524105Y-75289100D01*
X76455984Y-75269098D01*
X76418313Y-75231540D01*
X76330122Y-75095217D01*
X76330120Y-75095214D01*
X76327314Y-75090877D01*
X76176970Y-74925651D01*
X76172919Y-74922452D01*
X76172915Y-74922448D01*
X76005714Y-74790400D01*
X76005710Y-74790398D01*
X76001659Y-74787198D01*
X75960353Y-74764396D01*
X75910384Y-74713964D01*
X75895612Y-74644521D01*
X75920728Y-74578116D01*
X75948080Y-74551509D01*
X75991903Y-74520250D01*
X76127160Y-74423773D01*
X76158835Y-74392209D01*
X76268742Y-74282685D01*
X76285396Y-74266089D01*
X76344894Y-74183289D01*
X76412735Y-74088877D01*
X76415753Y-74084677D01*
X76433667Y-74048432D01*
X76512436Y-73889053D01*
X76512437Y-73889051D01*
X76514730Y-73884411D01*
X76561129Y-73731696D01*
X76578165Y-73675623D01*
X76578165Y-73675621D01*
X76579670Y-73670669D01*
X76608829Y-73449190D01*
X76610456Y-73382600D01*
X76592152Y-73159961D01*
X76537731Y-72943302D01*
X76448654Y-72738440D01*
X76366658Y-72611693D01*
X76330122Y-72555217D01*
X76330120Y-72555214D01*
X76327314Y-72550877D01*
X76176970Y-72385651D01*
X76172919Y-72382452D01*
X76172915Y-72382448D01*
X76005714Y-72250400D01*
X76005710Y-72250398D01*
X76001659Y-72247198D01*
X75806089Y-72139238D01*
X75801220Y-72137514D01*
X75801216Y-72137512D01*
X75600387Y-72066395D01*
X75600383Y-72066394D01*
X75595512Y-72064669D01*
X75590419Y-72063762D01*
X75590416Y-72063761D01*
X75380673Y-72026400D01*
X75380667Y-72026399D01*
X75375584Y-72025494D01*
X75301752Y-72024592D01*
X75157381Y-72022828D01*
X75157379Y-72022828D01*
X75152211Y-72022765D01*
X74931391Y-72056555D01*
X74719056Y-72125957D01*
X74520907Y-72229107D01*
X74516774Y-72232210D01*
X74516771Y-72232212D01*
X74492547Y-72250400D01*
X74342265Y-72363235D01*
X74187929Y-72524738D01*
X74062043Y-72709280D01*
X73967988Y-72911905D01*
X73908289Y-73127170D01*
X73884551Y-73349295D01*
X73884848Y-73354448D01*
X73884848Y-73354451D01*
X73890311Y-73449190D01*
X73897410Y-73572315D01*
X73898547Y-73577361D01*
X73898548Y-73577367D01*
X73904621Y-73604313D01*
X73946522Y-73790239D01*
X74030566Y-73997216D01*
X74147287Y-74187688D01*
X74293550Y-74356538D01*
X74465426Y-74499232D01*
X74535895Y-74540411D01*
X74538745Y-74542076D01*
X74587469Y-74593714D01*
X74600540Y-74663497D01*
X74573809Y-74729269D01*
X74533355Y-74762627D01*
X74520907Y-74769107D01*
X74516774Y-74772210D01*
X74516771Y-74772212D01*
X74346400Y-74900130D01*
X74342265Y-74903235D01*
X74187929Y-75064738D01*
X74062043Y-75249280D01*
X74043901Y-75288364D01*
X73980663Y-75424600D01*
X73967988Y-75451905D01*
X73908289Y-75667170D01*
X73884551Y-75889295D01*
X71012273Y-75889295D01*
X70976937Y-75832193D01*
X70967901Y-75820792D01*
X70853171Y-75706261D01*
X70841760Y-75697249D01*
X70703757Y-75612184D01*
X70690576Y-75606037D01*
X70536290Y-75554862D01*
X70522914Y-75551995D01*
X70428562Y-75542328D01*
X70422145Y-75542000D01*
X70172115Y-75542000D01*
X70156876Y-75546475D01*
X70155671Y-75547865D01*
X70154000Y-75555548D01*
X70154000Y-76365385D01*
X69646000Y-76365385D01*
X69646000Y-75560116D01*
X69641525Y-75544877D01*
X69640135Y-75543672D01*
X69632452Y-75542001D01*
X69377905Y-75542001D01*
X69371386Y-75542338D01*
X69275794Y-75552257D01*
X69262400Y-75555149D01*
X69108216Y-75606588D01*
X69095038Y-75612761D01*
X68957193Y-75698063D01*
X68945792Y-75707099D01*
X68831261Y-75821829D01*
X68822249Y-75833240D01*
X68737184Y-75971243D01*
X68731037Y-75984424D01*
X68679862Y-76138710D01*
X68676995Y-76152086D01*
X68667328Y-76246438D01*
X68667000Y-76252855D01*
X68667000Y-76365385D01*
X55773742Y-76365385D01*
X55797100Y-76260886D01*
X55799068Y-76253219D01*
X55906749Y-75882578D01*
X55963215Y-75688223D01*
X55965657Y-75680707D01*
X56164959Y-75127124D01*
X56167861Y-75119796D01*
X56401536Y-74579805D01*
X56404892Y-74572673D01*
X56672014Y-74048417D01*
X56675819Y-74041496D01*
X56765973Y-73889053D01*
X56975325Y-73535058D01*
X56979547Y-73528406D01*
X57310268Y-73041766D01*
X57314910Y-73035377D01*
X57324126Y-73023496D01*
X57675530Y-72570468D01*
X57680552Y-72564399D01*
X58069649Y-72123055D01*
X58075068Y-72117285D01*
X58491085Y-71701268D01*
X58496855Y-71695849D01*
X58553569Y-71645849D01*
X58938199Y-71306752D01*
X58944268Y-71301730D01*
X59409184Y-70941105D01*
X59415580Y-70936458D01*
X59902206Y-70605747D01*
X59908858Y-70601525D01*
X60415296Y-70302019D01*
X60422232Y-70298206D01*
X60507700Y-70254658D01*
X60946479Y-70031089D01*
X60953605Y-70027736D01*
X61493596Y-69794061D01*
X61500924Y-69791159D01*
X62054520Y-69591853D01*
X62062023Y-69589415D01*
X62356580Y-69503838D01*
X62627019Y-69425268D01*
X62634686Y-69423300D01*
X63208876Y-69294953D01*
X63216643Y-69293470D01*
X63797767Y-69201430D01*
X63805603Y-69200440D01*
X64054857Y-69176878D01*
X64391350Y-69145070D01*
X64399250Y-69144573D01*
X64946568Y-69127373D01*
X64969910Y-69128811D01*
X64976118Y-69129778D01*
X64976123Y-69129778D01*
X64984992Y-69131159D01*
X64993894Y-69129995D01*
X64993896Y-69129995D01*
X65008945Y-69128027D01*
X65016554Y-69127032D01*
X65032889Y-69125968D01*
X99941903Y-69125968D01*
X99961288Y-69127468D01*
G37*
%TD.AperFunction*%
%TD*%
M02*
