M48
; DRILL file {KiCad 6.0.11-2627ca5db0~126~ubuntu22.04.1} date Sat 25 Feb 2023 03:13:57 PM EST
; FORMAT={-:-/ absolute / inch / decimal}
; #@! TF.CreationDate,2023-02-25T15:13:57-05:00
; #@! TF.GenerationSoftware,Kicad,Pcbnew,6.0.11-2627ca5db0~126~ubuntu22.04.1
; #@! TF.FileFunction,Plated,1,4,PTH
FMAT,2
INCH
; #@! TA.AperFunction,Plated,PTH,ViaDrill
T1C0.0157
; #@! TA.AperFunction,Plated,PTH,ComponentDrill
T2C0.0197
; #@! TA.AperFunction,Plated,PTH,ComponentDrill
T3C0.0217
; #@! TA.AperFunction,Plated,PTH,ComponentDrill
T4C0.0394
; #@! TA.AperFunction,Plated,PTH,ComponentDrill
T5C0.0400
; #@! TA.AperFunction,Plated,PTH,ComponentDrill
T6C0.0433
%
G90
G05
T1
X2.2789Y-3.3376
X2.4823Y-3.4203
X2.5098Y-3.3789
X2.7156Y-3.2392
X2.7776Y-3.4429
X2.8159Y-3.3406
X2.8632Y-2.7785
X2.9646Y-3.4163
X2.9685Y-3.4862
X3.0768Y-3.1732
X3.1004Y-3.5138
X3.1358Y-3.4449
X3.1506Y-3.5226
X3.1673Y-3.4783
X3.1732Y-3.3632
X3.187Y-3.561
X3.25Y-2.9902
X3.3504Y-3.4961
X3.3907Y-3.4291
X3.5429Y-3.3655
X3.562Y-3.5551
X3.5669Y-3.3967
X3.5876Y-3.4311
X3.6752Y-3.6161
X3.6841Y-3.2264
X4.0728Y-3.3031
T4
X2.8898Y-3.6244
X2.8898Y-3.7244
X2.8898Y-3.8244
X2.9625Y-2.8891
X2.9625Y-2.9891
X2.9625Y-3.0891
X2.9625Y-3.1891
X3.0915Y-3.6356
X3.0915Y-3.7356
X3.0915Y-3.8356
X3.2445Y-3.7933
X3.3445Y-3.7933
X3.4445Y-3.7933
T5
X3.6187Y-3.6614
X3.6187Y-3.9174
X3.7967Y-3.6614
X3.7967Y-3.9174
X3.7992Y-2.7949
X3.7992Y-2.8949
X3.7992Y-2.9949
X3.7992Y-3.0949
X3.7992Y-3.1949
X3.7992Y-3.2949
X3.9149Y-3.5561
X3.9149Y-3.8121
X4.0929Y-3.5561
X4.0929Y-3.8121
T6
X2.3474Y-3.7047
X2.3488Y-3.0738
X2.4474Y-3.7047
X2.4488Y-3.0738
X2.5474Y-3.7047
X2.5488Y-3.0738
X2.6474Y-3.7047
X2.6488Y-3.0738
X4.0689Y-3.0482
X4.1689Y-3.0482
T2
G00X2.2376Y-3.25
M15
G01X2.212Y-3.25
M16
G05
G00X2.2376Y-3.5256
M15
G01X2.212Y-3.5256
M16
G05
T3
G00X2.3311Y-3.2835
M15
G01X2.3311Y-3.2953
M16
G05
G00X2.3311Y-3.4803
M15
G01X2.3311Y-3.4921
M16
G05
T0
M30
