%TF.GenerationSoftware,KiCad,Pcbnew,6.0.11-2627ca5db0~126~ubuntu22.04.1*%
%TF.CreationDate,2023-02-28T18:33:25-05:00*%
%TF.ProjectId,canbus-gpios,63616e62-7573-42d6-9770-696f732e6b69,1.0*%
%TF.SameCoordinates,Original*%
%TF.FileFunction,Paste,Top*%
%TF.FilePolarity,Positive*%
%FSLAX46Y46*%
G04 Gerber Fmt 4.6, Leading zero omitted, Abs format (unit mm)*
G04 Created by KiCad (PCBNEW 6.0.11-2627ca5db0~126~ubuntu22.04.1) date 2023-02-28 18:33:25*
%MOMM*%
%LPD*%
G01*
G04 APERTURE LIST*
G04 Aperture macros list*
%AMRoundRect*
0 Rectangle with rounded corners*
0 $1 Rounding radius*
0 $2 $3 $4 $5 $6 $7 $8 $9 X,Y pos of 4 corners*
0 Add a 4 corners polygon primitive as box body*
4,1,4,$2,$3,$4,$5,$6,$7,$8,$9,$2,$3,0*
0 Add four circle primitives for the rounded corners*
1,1,$1+$1,$2,$3*
1,1,$1+$1,$4,$5*
1,1,$1+$1,$6,$7*
1,1,$1+$1,$8,$9*
0 Add four rect primitives between the rounded corners*
20,1,$1+$1,$2,$3,$4,$5,0*
20,1,$1+$1,$4,$5,$6,$7,0*
20,1,$1+$1,$6,$7,$8,$9,0*
20,1,$1+$1,$8,$9,$2,$3,0*%
G04 Aperture macros list end*
%ADD10RoundRect,0.250000X0.450000X-0.350000X0.450000X0.350000X-0.450000X0.350000X-0.450000X-0.350000X0*%
%ADD11RoundRect,0.250000X-0.475000X0.337500X-0.475000X-0.337500X0.475000X-0.337500X0.475000X0.337500X0*%
%ADD12RoundRect,0.250000X-0.350000X-0.450000X0.350000X-0.450000X0.350000X0.450000X-0.350000X0.450000X0*%
%ADD13R,1.879600X1.879600*%
%ADD14C,1.879600*%
%ADD15RoundRect,0.250000X-0.400000X-1.450000X0.400000X-1.450000X0.400000X1.450000X-0.400000X1.450000X0*%
%ADD16RoundRect,0.250000X-0.537500X-0.425000X0.537500X-0.425000X0.537500X0.425000X-0.537500X0.425000X0*%
%ADD17RoundRect,0.250000X1.100000X-0.412500X1.100000X0.412500X-1.100000X0.412500X-1.100000X-0.412500X0*%
%ADD18RoundRect,0.100000X0.637500X0.100000X-0.637500X0.100000X-0.637500X-0.100000X0.637500X-0.100000X0*%
%ADD19O,1.550000X0.890000*%
%ADD20O,0.950000X1.250000*%
%ADD21R,1.350000X0.400000*%
%ADD22R,1.550000X1.500000*%
%ADD23R,1.550000X1.200000*%
%ADD24RoundRect,0.250000X-0.325000X-0.450000X0.325000X-0.450000X0.325000X0.450000X-0.325000X0.450000X0*%
%ADD25RoundRect,0.150000X0.825000X0.150000X-0.825000X0.150000X-0.825000X-0.150000X0.825000X-0.150000X0*%
G04 APERTURE END LIST*
D10*
%TO.C,R10*%
X65700000Y-87200000D03*
X65700000Y-85200000D03*
%TD*%
D11*
%TO.C,C3*%
X92325000Y-88762500D03*
X92325000Y-90837500D03*
%TD*%
D12*
%TO.C,R3*%
X76475000Y-87525000D03*
X78475000Y-87525000D03*
%TD*%
D13*
%TO.C,J3*%
X96500000Y-70990000D03*
D14*
X96500000Y-73530000D03*
X96500000Y-76070000D03*
X96500000Y-78610000D03*
X96500000Y-81150000D03*
X96500000Y-83690000D03*
%TD*%
D15*
%TO.C,F1*%
X63000000Y-71775000D03*
X67450000Y-71775000D03*
%TD*%
D16*
%TO.C,C6*%
X76100000Y-84725000D03*
X78975000Y-84725000D03*
%TD*%
D17*
%TO.C,C5*%
X70225000Y-73175000D03*
X70225000Y-70050000D03*
%TD*%
D18*
%TO.C,U2*%
X88125000Y-91400000D03*
X88125000Y-90750000D03*
X88125000Y-90100000D03*
X88125000Y-89450000D03*
X88125000Y-88800000D03*
X88125000Y-88150000D03*
X88125000Y-87500000D03*
X88125000Y-86850000D03*
X88125000Y-86200000D03*
X88125000Y-85550000D03*
X82400000Y-85550000D03*
X82400000Y-86200000D03*
X82400000Y-86850000D03*
X82400000Y-87500000D03*
X82400000Y-88150000D03*
X82400000Y-88800000D03*
X82400000Y-89450000D03*
X82400000Y-90100000D03*
X82400000Y-90750000D03*
X82400000Y-91400000D03*
%TD*%
D19*
%TO.C,J1*%
X56510000Y-89550000D03*
D20*
X59210000Y-88550000D03*
D19*
X56510000Y-82550000D03*
D20*
X59210000Y-83550000D03*
D21*
X59210000Y-84750000D03*
X59210000Y-85400000D03*
X59210000Y-86050000D03*
X59210000Y-86700000D03*
X59210000Y-87350000D03*
D22*
X56510000Y-87050000D03*
X56510000Y-85050000D03*
D23*
X56510000Y-88950000D03*
X56510000Y-83150000D03*
%TD*%
D24*
%TO.C,FB1*%
X94400000Y-88775000D03*
X96450000Y-88775000D03*
%TD*%
D25*
%TO.C,U4*%
X73325000Y-88015000D03*
X73325000Y-86745000D03*
X73325000Y-85475000D03*
X73325000Y-84205000D03*
X68375000Y-84205000D03*
X68375000Y-85475000D03*
X68375000Y-86745000D03*
X68375000Y-88015000D03*
%TD*%
M02*
