%TF.GenerationSoftware,KiCad,Pcbnew,6.0.11-2627ca5db0~126~ubuntu22.04.1*%
%TF.CreationDate,2023-02-28T18:33:24-05:00*%
%TF.ProjectId,canbus-gpios,63616e62-7573-42d6-9770-696f732e6b69,1.0*%
%TF.SameCoordinates,Original*%
%TF.FileFunction,Copper,L3,Inr*%
%TF.FilePolarity,Positive*%
%FSLAX46Y46*%
G04 Gerber Fmt 4.6, Leading zero omitted, Abs format (unit mm)*
G04 Created by KiCad (PCBNEW 6.0.11-2627ca5db0~126~ubuntu22.04.1) date 2023-02-28 18:33:24*
%MOMM*%
%LPD*%
G01*
G04 APERTURE LIST*
%TA.AperFunction,ComponentPad*%
%ADD10R,1.700000X1.700000*%
%TD*%
%TA.AperFunction,ComponentPad*%
%ADD11O,1.700000X1.700000*%
%TD*%
%TA.AperFunction,ComponentPad*%
%ADD12R,2.100000X2.100000*%
%TD*%
%TA.AperFunction,ComponentPad*%
%ADD13C,2.100000*%
%TD*%
%TA.AperFunction,ComponentPad*%
%ADD14C,1.879600*%
%TD*%
%TA.AperFunction,ComponentPad*%
%ADD15R,1.879600X1.879600*%
%TD*%
%TA.AperFunction,ComponentPad*%
%ADD16O,0.950000X1.250000*%
%TD*%
%TA.AperFunction,ComponentPad*%
%ADD17O,1.550000X0.890000*%
%TD*%
%TA.AperFunction,ViaPad*%
%ADD18C,0.800000*%
%TD*%
%TA.AperFunction,Conductor*%
%ADD19C,0.250000*%
%TD*%
G04 APERTURE END LIST*
D10*
%TO.N,CAN_RX*%
%TO.C,JP1*%
X73400000Y-97140000D03*
D11*
%TO.N,Net-(JP1-Pad2)*%
X73400000Y-94600000D03*
%TO.N,USB_D-*%
X73400000Y-92060000D03*
%TD*%
D12*
%TO.N,+BATT*%
%TO.C,J5*%
X59625000Y-94100000D03*
D13*
%TO.N,CANH*%
X62165000Y-94100000D03*
%TO.N,CANL*%
X64705000Y-94100000D03*
%TO.N,GND*%
X67245000Y-94100000D03*
%TD*%
D10*
%TO.N,SWDIO*%
%TO.C,J2*%
X87490000Y-96350000D03*
D11*
%TO.N,GND*%
X84950000Y-96350000D03*
%TO.N,SWDCLK*%
X82410000Y-96350000D03*
%TD*%
D14*
%TO.N,+3V3*%
%TO.C,S1*%
X96435600Y-92998800D03*
%TO.N,unconnected-(S1-Pad2)*%
X96435600Y-99501200D03*
%TO.N,Net-(R1-Pad1)*%
X91914400Y-92998800D03*
%TO.N,unconnected-(S1-Pad4)*%
X91914400Y-99501200D03*
%TD*%
D15*
%TO.N,unconnected-(J3-Pad1)*%
%TO.C,J3*%
X96500000Y-70990000D03*
D14*
%TO.N,RXD2*%
X96500000Y-73530000D03*
%TO.N,TXD2*%
X96500000Y-76070000D03*
%TO.N,Net-(J3-Pad4)*%
X96500000Y-78610000D03*
%TO.N,unconnected-(J3-Pad5)*%
X96500000Y-81150000D03*
%TO.N,GND*%
X96500000Y-83690000D03*
%TD*%
D12*
%TO.N,START_RUN*%
%TO.C,J6*%
X104500000Y-78775000D03*
D13*
%TO.N,IGNITION_SENSE*%
X104500000Y-81315000D03*
%TO.N,~{EMERGENCY_STOP}*%
X104500000Y-83855000D03*
%TD*%
D12*
%TO.N,+BATT*%
%TO.C,J4*%
X59660000Y-78075000D03*
D13*
%TO.N,CANH*%
X62200000Y-78075000D03*
%TO.N,CANL*%
X64740000Y-78075000D03*
%TO.N,GND*%
X67280000Y-78075000D03*
%TD*%
D10*
%TO.N,+5V*%
%TO.C,U3*%
X75247300Y-81002600D03*
D11*
%TO.N,GND*%
X75247300Y-78462600D03*
%TO.N,+12V*%
X75247300Y-75922600D03*
%TO.N,unconnected-(U3-Pad4)*%
X75247300Y-73382600D03*
%TD*%
D14*
%TO.N,GND*%
%TO.C,S2*%
X103960600Y-90323800D03*
%TO.N,unconnected-(S2-Pad2)*%
X103960600Y-96826200D03*
%TO.N,~{RESET}*%
X99439400Y-90323800D03*
%TO.N,unconnected-(S2-Pad4)*%
X99439400Y-96826200D03*
%TD*%
D16*
%TO.N,GND*%
%TO.C,J1*%
X59210000Y-83550000D03*
D17*
X56510000Y-82550000D03*
X56510000Y-89550000D03*
D16*
X59210000Y-88550000D03*
%TD*%
D10*
%TO.N,CAN_TX*%
%TO.C,JP2*%
X78525000Y-97425000D03*
D11*
%TO.N,Net-(JP2-Pad2)*%
X78525000Y-94885000D03*
%TO.N,USB_D+*%
X78525000Y-92345000D03*
%TD*%
D18*
%TO.N,GND*%
X80450000Y-88350000D03*
X72725000Y-70575000D03*
X93350000Y-91850000D03*
X80600000Y-85425000D03*
X75300000Y-86775000D03*
%TO.N,+3V3*%
X78150000Y-80600000D03*
X85100000Y-88800000D03*
X92999500Y-81725000D03*
X101100000Y-82550000D03*
X78750000Y-89250000D03*
X68975000Y-82275000D03*
X101075000Y-78700000D03*
X89725000Y-80750000D03*
%TO.N,+12V*%
X98425000Y-87750000D03*
%TO.N,VBUS*%
X57884502Y-84775000D03*
%TO.N,USB_D-*%
X63750000Y-85825000D03*
%TO.N,USB_D+*%
X63050000Y-86875000D03*
%TO.N,CAN_RX*%
X71525000Y-84850000D03*
%TO.N,Net-(JP1-Pad2)*%
X80025000Y-89475000D03*
%TO.N,CAN_TX*%
X75400000Y-88550000D03*
%TO.N,Net-(JP2-Pad2)*%
X80950000Y-90450000D03*
%TO.N,CAN_STBY*%
X70550000Y-87450000D03*
X79650000Y-87500000D03*
%TO.N,TXD2*%
X90600000Y-86275000D03*
%TO.N,RXD2*%
X89990592Y-85482770D03*
%TO.N,EMERGENCY_STOP_3V*%
X88225000Y-84225000D03*
X101000000Y-84775000D03*
%TO.N,IGNITION_SENSE_3V*%
X86075000Y-84225000D03*
X101000000Y-80300000D03*
%TO.N,~{RESET}*%
X90475000Y-90300000D03*
%TO.N,START_RUN_3V*%
X101150000Y-76700000D03*
X83775000Y-84225000D03*
%TD*%
D19*
%TO.N,+3V3*%
X101100000Y-82550000D02*
X100975200Y-82425200D01*
%TO.N,+12V*%
X78122600Y-75922600D02*
X75247300Y-75922600D01*
X98425000Y-87750000D02*
X85075000Y-87750000D01*
X80650000Y-78450000D02*
X78122600Y-75922600D01*
X80650000Y-83325000D02*
X80650000Y-78450000D01*
X85075000Y-87750000D02*
X80650000Y-83325000D01*
%TO.N,CANH*%
X62165000Y-78110000D02*
X62200000Y-78075000D01*
X62165000Y-94100000D02*
X62165000Y-78110000D01*
%TO.N,CANL*%
X64705000Y-94100000D02*
X64705000Y-78110000D01*
X64705000Y-78110000D02*
X64740000Y-78075000D01*
%TO.N,CAN_RX*%
X71525000Y-95265000D02*
X73400000Y-97140000D01*
X71525000Y-84850000D02*
X71525000Y-95265000D01*
%TO.N,CAN_TX*%
X76700000Y-95725000D02*
X78400000Y-97425000D01*
X78400000Y-97425000D02*
X78525000Y-97425000D01*
X76700000Y-89850000D02*
X76700000Y-95725000D01*
X75400000Y-88550000D02*
X76700000Y-89850000D01*
%TO.N,EMERGENCY_STOP_3V*%
X101000000Y-84775000D02*
X99950000Y-85825000D01*
X91800000Y-84225000D02*
X88225000Y-84225000D01*
X99950000Y-85825000D02*
X93400000Y-85825000D01*
X93400000Y-85825000D02*
X91800000Y-84225000D01*
%TO.N,IGNITION_SENSE_3V*%
X98874800Y-82425200D02*
X93324605Y-82425200D01*
X92699195Y-82450000D02*
X92674395Y-82425200D01*
X87874800Y-82425200D02*
X86075000Y-84225000D01*
X93299805Y-82450000D02*
X92699195Y-82450000D01*
X101000000Y-80300000D02*
X98874800Y-82425200D01*
X93324605Y-82425200D02*
X93299805Y-82450000D01*
X92674395Y-82425200D02*
X87874800Y-82425200D01*
%TO.N,START_RUN_3V*%
X101150000Y-76700000D02*
X100515200Y-77334800D01*
X100515200Y-77334800D02*
X90665200Y-77334800D01*
X90665200Y-77334800D02*
X83775000Y-84225000D01*
%TD*%
%TA.AperFunction,Conductor*%
%TO.N,+3V3*%
G36*
X78791165Y-79820532D02*
G01*
X78838139Y-79873768D01*
X78850000Y-79927138D01*
X78850000Y-84024000D01*
X78829998Y-84092121D01*
X78776342Y-84138614D01*
X78724000Y-84150000D01*
X72148105Y-84150000D01*
X72074044Y-84125936D01*
X71987094Y-84062763D01*
X71987093Y-84062762D01*
X71981752Y-84058882D01*
X71975724Y-84056198D01*
X71975722Y-84056197D01*
X71813319Y-83983891D01*
X71813318Y-83983891D01*
X71807288Y-83981206D01*
X71713887Y-83961353D01*
X71626944Y-83942872D01*
X71626939Y-83942872D01*
X71620487Y-83941500D01*
X71429513Y-83941500D01*
X71423061Y-83942872D01*
X71423056Y-83942872D01*
X71336113Y-83961353D01*
X71242712Y-83981206D01*
X71236682Y-83983891D01*
X71236681Y-83983891D01*
X71074278Y-84056197D01*
X71074276Y-84056198D01*
X71068248Y-84058882D01*
X71062907Y-84062762D01*
X71062906Y-84062763D01*
X70975956Y-84125936D01*
X70901895Y-84150000D01*
X67851000Y-84150000D01*
X67782879Y-84129998D01*
X67736386Y-84076342D01*
X67725000Y-84024000D01*
X67725000Y-80024873D01*
X67745002Y-79956752D01*
X67798658Y-79910259D01*
X67849867Y-79898878D01*
X70256931Y-79877241D01*
X73786393Y-79845516D01*
X73854689Y-79864904D01*
X73901663Y-79918140D01*
X73912398Y-79988320D01*
X73905506Y-80015739D01*
X73895555Y-80042284D01*
X73888800Y-80104466D01*
X73888800Y-81900734D01*
X73895555Y-81962916D01*
X73946685Y-82099305D01*
X74034039Y-82215861D01*
X74150595Y-82303215D01*
X74286984Y-82354345D01*
X74349166Y-82361100D01*
X76145434Y-82361100D01*
X76207616Y-82354345D01*
X76344005Y-82303215D01*
X76460561Y-82215861D01*
X76547915Y-82099305D01*
X76599045Y-81962916D01*
X76605800Y-81900734D01*
X76605800Y-80104466D01*
X76599045Y-80042284D01*
X76579289Y-79989585D01*
X76574106Y-79918779D01*
X76608026Y-79856410D01*
X76670281Y-79822281D01*
X76696138Y-79819361D01*
X78722867Y-79801143D01*
X78791165Y-79820532D01*
G37*
%TD.AperFunction*%
%TD*%
M02*
