%TF.GenerationSoftware,KiCad,Pcbnew,6.0.11-2627ca5db0~126~ubuntu22.04.1*%
%TF.CreationDate,2023-02-28T15:21:50-05:00*%
%TF.ProjectId,canbus-gpios,63616e62-7573-42d6-9770-696f732e6b69,1.0*%
%TF.SameCoordinates,Original*%
%TF.FileFunction,Legend,Bot*%
%TF.FilePolarity,Positive*%
%FSLAX46Y46*%
G04 Gerber Fmt 4.6, Leading zero omitted, Abs format (unit mm)*
G04 Created by KiCad (PCBNEW 6.0.11-2627ca5db0~126~ubuntu22.04.1) date 2023-02-28 15:21:50*
%MOMM*%
%LPD*%
G01*
G04 APERTURE LIST*
%ADD10C,0.150000*%
%ADD11C,0.120000*%
G04 APERTURE END LIST*
D10*
%TO.C,R10*%
X103202380Y-72832142D02*
X102726190Y-72498809D01*
X103202380Y-72260714D02*
X102202380Y-72260714D01*
X102202380Y-72641666D01*
X102250000Y-72736904D01*
X102297619Y-72784523D01*
X102392857Y-72832142D01*
X102535714Y-72832142D01*
X102630952Y-72784523D01*
X102678571Y-72736904D01*
X102726190Y-72641666D01*
X102726190Y-72260714D01*
X103202380Y-73784523D02*
X103202380Y-73213095D01*
X103202380Y-73498809D02*
X102202380Y-73498809D01*
X102345238Y-73403571D01*
X102440476Y-73308333D01*
X102488095Y-73213095D01*
X102202380Y-74403571D02*
X102202380Y-74498809D01*
X102250000Y-74594047D01*
X102297619Y-74641666D01*
X102392857Y-74689285D01*
X102583333Y-74736904D01*
X102821428Y-74736904D01*
X103011904Y-74689285D01*
X103107142Y-74641666D01*
X103154761Y-74594047D01*
X103202380Y-74498809D01*
X103202380Y-74403571D01*
X103154761Y-74308333D01*
X103107142Y-74260714D01*
X103011904Y-74213095D01*
X102821428Y-74165476D01*
X102583333Y-74165476D01*
X102392857Y-74213095D01*
X102297619Y-74260714D01*
X102250000Y-74308333D01*
X102202380Y-74403571D01*
%TO.C,R9*%
X107752380Y-76883333D02*
X107276190Y-76550000D01*
X107752380Y-76311904D02*
X106752380Y-76311904D01*
X106752380Y-76692857D01*
X106800000Y-76788095D01*
X106847619Y-76835714D01*
X106942857Y-76883333D01*
X107085714Y-76883333D01*
X107180952Y-76835714D01*
X107228571Y-76788095D01*
X107276190Y-76692857D01*
X107276190Y-76311904D01*
X107752380Y-77359523D02*
X107752380Y-77550000D01*
X107704761Y-77645238D01*
X107657142Y-77692857D01*
X107514285Y-77788095D01*
X107323809Y-77835714D01*
X106942857Y-77835714D01*
X106847619Y-77788095D01*
X106800000Y-77740476D01*
X106752380Y-77645238D01*
X106752380Y-77454761D01*
X106800000Y-77359523D01*
X106847619Y-77311904D01*
X106942857Y-77264285D01*
X107180952Y-77264285D01*
X107276190Y-77311904D01*
X107323809Y-77359523D01*
X107371428Y-77454761D01*
X107371428Y-77645238D01*
X107323809Y-77740476D01*
X107276190Y-77788095D01*
X107180952Y-77835714D01*
%TO.C,R8*%
X104466666Y-88277380D02*
X104800000Y-87801190D01*
X105038095Y-88277380D02*
X105038095Y-87277380D01*
X104657142Y-87277380D01*
X104561904Y-87325000D01*
X104514285Y-87372619D01*
X104466666Y-87467857D01*
X104466666Y-87610714D01*
X104514285Y-87705952D01*
X104561904Y-87753571D01*
X104657142Y-87801190D01*
X105038095Y-87801190D01*
X103895238Y-87705952D02*
X103990476Y-87658333D01*
X104038095Y-87610714D01*
X104085714Y-87515476D01*
X104085714Y-87467857D01*
X104038095Y-87372619D01*
X103990476Y-87325000D01*
X103895238Y-87277380D01*
X103704761Y-87277380D01*
X103609523Y-87325000D01*
X103561904Y-87372619D01*
X103514285Y-87467857D01*
X103514285Y-87515476D01*
X103561904Y-87610714D01*
X103609523Y-87658333D01*
X103704761Y-87705952D01*
X103895238Y-87705952D01*
X103990476Y-87753571D01*
X104038095Y-87801190D01*
X104085714Y-87896428D01*
X104085714Y-88086904D01*
X104038095Y-88182142D01*
X103990476Y-88229761D01*
X103895238Y-88277380D01*
X103704761Y-88277380D01*
X103609523Y-88229761D01*
X103561904Y-88182142D01*
X103514285Y-88086904D01*
X103514285Y-87896428D01*
X103561904Y-87801190D01*
X103609523Y-87753571D01*
X103704761Y-87705952D01*
%TO.C,R7*%
X84402380Y-78408333D02*
X83926190Y-78075000D01*
X84402380Y-77836904D02*
X83402380Y-77836904D01*
X83402380Y-78217857D01*
X83450000Y-78313095D01*
X83497619Y-78360714D01*
X83592857Y-78408333D01*
X83735714Y-78408333D01*
X83830952Y-78360714D01*
X83878571Y-78313095D01*
X83926190Y-78217857D01*
X83926190Y-77836904D01*
X83402380Y-78741666D02*
X83402380Y-79408333D01*
X84402380Y-78979761D01*
%TO.C,R4*%
X86502380Y-78458333D02*
X86026190Y-78125000D01*
X86502380Y-77886904D02*
X85502380Y-77886904D01*
X85502380Y-78267857D01*
X85550000Y-78363095D01*
X85597619Y-78410714D01*
X85692857Y-78458333D01*
X85835714Y-78458333D01*
X85930952Y-78410714D01*
X85978571Y-78363095D01*
X86026190Y-78267857D01*
X86026190Y-77886904D01*
X85835714Y-79315476D02*
X86502380Y-79315476D01*
X85454761Y-79077380D02*
X86169047Y-78839285D01*
X86169047Y-79458333D01*
%TO.C,R3*%
X88727380Y-78408333D02*
X88251190Y-78075000D01*
X88727380Y-77836904D02*
X87727380Y-77836904D01*
X87727380Y-78217857D01*
X87775000Y-78313095D01*
X87822619Y-78360714D01*
X87917857Y-78408333D01*
X88060714Y-78408333D01*
X88155952Y-78360714D01*
X88203571Y-78313095D01*
X88251190Y-78217857D01*
X88251190Y-77836904D01*
X87727380Y-78741666D02*
X87727380Y-79360714D01*
X88108333Y-79027380D01*
X88108333Y-79170238D01*
X88155952Y-79265476D01*
X88203571Y-79313095D01*
X88298809Y-79360714D01*
X88536904Y-79360714D01*
X88632142Y-79313095D01*
X88679761Y-79265476D01*
X88727380Y-79170238D01*
X88727380Y-78884523D01*
X88679761Y-78789285D01*
X88632142Y-78741666D01*
%TO.C,Q5*%
X102245238Y-79972619D02*
X102340476Y-79925000D01*
X102435714Y-79829761D01*
X102578571Y-79686904D01*
X102673809Y-79639285D01*
X102769047Y-79639285D01*
X102721428Y-79877380D02*
X102816666Y-79829761D01*
X102911904Y-79734523D01*
X102959523Y-79544047D01*
X102959523Y-79210714D01*
X102911904Y-79020238D01*
X102816666Y-78925000D01*
X102721428Y-78877380D01*
X102530952Y-78877380D01*
X102435714Y-78925000D01*
X102340476Y-79020238D01*
X102292857Y-79210714D01*
X102292857Y-79544047D01*
X102340476Y-79734523D01*
X102435714Y-79829761D01*
X102530952Y-79877380D01*
X102721428Y-79877380D01*
X101388095Y-78877380D02*
X101864285Y-78877380D01*
X101911904Y-79353571D01*
X101864285Y-79305952D01*
X101769047Y-79258333D01*
X101530952Y-79258333D01*
X101435714Y-79305952D01*
X101388095Y-79353571D01*
X101340476Y-79448809D01*
X101340476Y-79686904D01*
X101388095Y-79782142D01*
X101435714Y-79829761D01*
X101530952Y-79877380D01*
X101769047Y-79877380D01*
X101864285Y-79829761D01*
X101911904Y-79782142D01*
%TO.C,Q4*%
X102345238Y-83347619D02*
X102440476Y-83300000D01*
X102535714Y-83204761D01*
X102678571Y-83061904D01*
X102773809Y-83014285D01*
X102869047Y-83014285D01*
X102821428Y-83252380D02*
X102916666Y-83204761D01*
X103011904Y-83109523D01*
X103059523Y-82919047D01*
X103059523Y-82585714D01*
X103011904Y-82395238D01*
X102916666Y-82300000D01*
X102821428Y-82252380D01*
X102630952Y-82252380D01*
X102535714Y-82300000D01*
X102440476Y-82395238D01*
X102392857Y-82585714D01*
X102392857Y-82919047D01*
X102440476Y-83109523D01*
X102535714Y-83204761D01*
X102630952Y-83252380D01*
X102821428Y-83252380D01*
X101535714Y-82585714D02*
X101535714Y-83252380D01*
X101773809Y-82204761D02*
X102011904Y-82919047D01*
X101392857Y-82919047D01*
%TO.C,Q3*%
X98295238Y-86772619D02*
X98390476Y-86725000D01*
X98485714Y-86629761D01*
X98628571Y-86486904D01*
X98723809Y-86439285D01*
X98819047Y-86439285D01*
X98771428Y-86677380D02*
X98866666Y-86629761D01*
X98961904Y-86534523D01*
X99009523Y-86344047D01*
X99009523Y-86010714D01*
X98961904Y-85820238D01*
X98866666Y-85725000D01*
X98771428Y-85677380D01*
X98580952Y-85677380D01*
X98485714Y-85725000D01*
X98390476Y-85820238D01*
X98342857Y-86010714D01*
X98342857Y-86344047D01*
X98390476Y-86534523D01*
X98485714Y-86629761D01*
X98580952Y-86677380D01*
X98771428Y-86677380D01*
X98009523Y-85677380D02*
X97390476Y-85677380D01*
X97723809Y-86058333D01*
X97580952Y-86058333D01*
X97485714Y-86105952D01*
X97438095Y-86153571D01*
X97390476Y-86248809D01*
X97390476Y-86486904D01*
X97438095Y-86582142D01*
X97485714Y-86629761D01*
X97580952Y-86677380D01*
X97866666Y-86677380D01*
X97961904Y-86629761D01*
X98009523Y-86582142D01*
%TO.C,C7*%
X78991666Y-84337142D02*
X79039285Y-84384761D01*
X79182142Y-84432380D01*
X79277380Y-84432380D01*
X79420238Y-84384761D01*
X79515476Y-84289523D01*
X79563095Y-84194285D01*
X79610714Y-84003809D01*
X79610714Y-83860952D01*
X79563095Y-83670476D01*
X79515476Y-83575238D01*
X79420238Y-83480000D01*
X79277380Y-83432380D01*
X79182142Y-83432380D01*
X79039285Y-83480000D01*
X78991666Y-83527619D01*
X78658333Y-83432380D02*
X77991666Y-83432380D01*
X78420238Y-84432380D01*
%TO.C,U1*%
X67436904Y-79727380D02*
X67436904Y-80536904D01*
X67389285Y-80632142D01*
X67341666Y-80679761D01*
X67246428Y-80727380D01*
X67055952Y-80727380D01*
X66960714Y-80679761D01*
X66913095Y-80632142D01*
X66865476Y-80536904D01*
X66865476Y-79727380D01*
X65865476Y-80727380D02*
X66436904Y-80727380D01*
X66151190Y-80727380D02*
X66151190Y-79727380D01*
X66246428Y-79870238D01*
X66341666Y-79965476D01*
X66436904Y-80013095D01*
%TO.C,R1*%
X87916666Y-92052380D02*
X88250000Y-91576190D01*
X88488095Y-92052380D02*
X88488095Y-91052380D01*
X88107142Y-91052380D01*
X88011904Y-91100000D01*
X87964285Y-91147619D01*
X87916666Y-91242857D01*
X87916666Y-91385714D01*
X87964285Y-91480952D01*
X88011904Y-91528571D01*
X88107142Y-91576190D01*
X88488095Y-91576190D01*
X86964285Y-92052380D02*
X87535714Y-92052380D01*
X87250000Y-92052380D02*
X87250000Y-91052380D01*
X87345238Y-91195238D01*
X87440476Y-91290476D01*
X87535714Y-91338095D01*
%TO.C,C1*%
X83491666Y-93157142D02*
X83539285Y-93204761D01*
X83682142Y-93252380D01*
X83777380Y-93252380D01*
X83920238Y-93204761D01*
X84015476Y-93109523D01*
X84063095Y-93014285D01*
X84110714Y-92823809D01*
X84110714Y-92680952D01*
X84063095Y-92490476D01*
X84015476Y-92395238D01*
X83920238Y-92300000D01*
X83777380Y-92252380D01*
X83682142Y-92252380D01*
X83539285Y-92300000D01*
X83491666Y-92347619D01*
X82539285Y-93252380D02*
X83110714Y-93252380D01*
X82825000Y-93252380D02*
X82825000Y-92252380D01*
X82920238Y-92395238D01*
X83015476Y-92490476D01*
X83110714Y-92538095D01*
%TO.C,C4*%
X72266666Y-76857142D02*
X72314285Y-76904761D01*
X72457142Y-76952380D01*
X72552380Y-76952380D01*
X72695238Y-76904761D01*
X72790476Y-76809523D01*
X72838095Y-76714285D01*
X72885714Y-76523809D01*
X72885714Y-76380952D01*
X72838095Y-76190476D01*
X72790476Y-76095238D01*
X72695238Y-76000000D01*
X72552380Y-75952380D01*
X72457142Y-75952380D01*
X72314285Y-76000000D01*
X72266666Y-76047619D01*
X71409523Y-76285714D02*
X71409523Y-76952380D01*
X71647619Y-75904761D02*
X71885714Y-76619047D01*
X71266666Y-76619047D01*
%TO.C,C2*%
X67032142Y-85833333D02*
X67079761Y-85785714D01*
X67127380Y-85642857D01*
X67127380Y-85547619D01*
X67079761Y-85404761D01*
X66984523Y-85309523D01*
X66889285Y-85261904D01*
X66698809Y-85214285D01*
X66555952Y-85214285D01*
X66365476Y-85261904D01*
X66270238Y-85309523D01*
X66175000Y-85404761D01*
X66127380Y-85547619D01*
X66127380Y-85642857D01*
X66175000Y-85785714D01*
X66222619Y-85833333D01*
X66222619Y-86214285D02*
X66175000Y-86261904D01*
X66127380Y-86357142D01*
X66127380Y-86595238D01*
X66175000Y-86690476D01*
X66222619Y-86738095D01*
X66317857Y-86785714D01*
X66413095Y-86785714D01*
X66555952Y-86738095D01*
X67127380Y-86166666D01*
X67127380Y-86785714D01*
%TO.C,Q2*%
X63045238Y-82672619D02*
X63140476Y-82625000D01*
X63235714Y-82529761D01*
X63378571Y-82386904D01*
X63473809Y-82339285D01*
X63569047Y-82339285D01*
X63521428Y-82577380D02*
X63616666Y-82529761D01*
X63711904Y-82434523D01*
X63759523Y-82244047D01*
X63759523Y-81910714D01*
X63711904Y-81720238D01*
X63616666Y-81625000D01*
X63521428Y-81577380D01*
X63330952Y-81577380D01*
X63235714Y-81625000D01*
X63140476Y-81720238D01*
X63092857Y-81910714D01*
X63092857Y-82244047D01*
X63140476Y-82434523D01*
X63235714Y-82529761D01*
X63330952Y-82577380D01*
X63521428Y-82577380D01*
X62711904Y-81672619D02*
X62664285Y-81625000D01*
X62569047Y-81577380D01*
X62330952Y-81577380D01*
X62235714Y-81625000D01*
X62188095Y-81672619D01*
X62140476Y-81767857D01*
X62140476Y-81863095D01*
X62188095Y-82005952D01*
X62759523Y-82577380D01*
X62140476Y-82577380D01*
%TO.C,Q1*%
X71770238Y-79722619D02*
X71865476Y-79675000D01*
X71960714Y-79579761D01*
X72103571Y-79436904D01*
X72198809Y-79389285D01*
X72294047Y-79389285D01*
X72246428Y-79627380D02*
X72341666Y-79579761D01*
X72436904Y-79484523D01*
X72484523Y-79294047D01*
X72484523Y-78960714D01*
X72436904Y-78770238D01*
X72341666Y-78675000D01*
X72246428Y-78627380D01*
X72055952Y-78627380D01*
X71960714Y-78675000D01*
X71865476Y-78770238D01*
X71817857Y-78960714D01*
X71817857Y-79294047D01*
X71865476Y-79484523D01*
X71960714Y-79579761D01*
X72055952Y-79627380D01*
X72246428Y-79627380D01*
X70865476Y-79627380D02*
X71436904Y-79627380D01*
X71151190Y-79627380D02*
X71151190Y-78627380D01*
X71246428Y-78770238D01*
X71341666Y-78865476D01*
X71436904Y-78913095D01*
%TO.C,JP3*%
X91127380Y-78591666D02*
X91841666Y-78591666D01*
X91984523Y-78544047D01*
X92079761Y-78448809D01*
X92127380Y-78305952D01*
X92127380Y-78210714D01*
X92127380Y-79067857D02*
X91127380Y-79067857D01*
X91127380Y-79448809D01*
X91175000Y-79544047D01*
X91222619Y-79591666D01*
X91317857Y-79639285D01*
X91460714Y-79639285D01*
X91555952Y-79591666D01*
X91603571Y-79544047D01*
X91651190Y-79448809D01*
X91651190Y-79067857D01*
X91127380Y-79972619D02*
X91127380Y-80591666D01*
X91508333Y-80258333D01*
X91508333Y-80401190D01*
X91555952Y-80496428D01*
X91603571Y-80544047D01*
X91698809Y-80591666D01*
X91936904Y-80591666D01*
X92032142Y-80544047D01*
X92079761Y-80496428D01*
X92127380Y-80401190D01*
X92127380Y-80115476D01*
X92079761Y-80020238D01*
X92032142Y-79972619D01*
%TO.C,R2*%
X94691666Y-92502380D02*
X95025000Y-92026190D01*
X95263095Y-92502380D02*
X95263095Y-91502380D01*
X94882142Y-91502380D01*
X94786904Y-91550000D01*
X94739285Y-91597619D01*
X94691666Y-91692857D01*
X94691666Y-91835714D01*
X94739285Y-91930952D01*
X94786904Y-91978571D01*
X94882142Y-92026190D01*
X95263095Y-92026190D01*
X94310714Y-91597619D02*
X94263095Y-91550000D01*
X94167857Y-91502380D01*
X93929761Y-91502380D01*
X93834523Y-91550000D01*
X93786904Y-91597619D01*
X93739285Y-91692857D01*
X93739285Y-91788095D01*
X93786904Y-91930952D01*
X94358333Y-92502380D01*
X93739285Y-92502380D01*
D11*
%TO.C,R10*%
X103715000Y-74822936D02*
X103715000Y-75277064D01*
X105185000Y-74822936D02*
X105185000Y-75277064D01*
%TO.C,R9*%
X106565000Y-80022936D02*
X106565000Y-80477064D01*
X108035000Y-80022936D02*
X108035000Y-80477064D01*
%TO.C,R8*%
X101152064Y-87040000D02*
X100697936Y-87040000D01*
X101152064Y-88510000D02*
X100697936Y-88510000D01*
%TO.C,R7*%
X84510000Y-82002064D02*
X84510000Y-81547936D01*
X83040000Y-82002064D02*
X83040000Y-81547936D01*
%TO.C,R4*%
X86710000Y-82027064D02*
X86710000Y-81572936D01*
X85240000Y-82027064D02*
X85240000Y-81572936D01*
%TO.C,R3*%
X88910000Y-82002064D02*
X88910000Y-81547936D01*
X87440000Y-82002064D02*
X87440000Y-81547936D01*
%TO.C,Q5*%
X100312500Y-79260000D02*
X100962500Y-79260000D01*
X100312500Y-76140000D02*
X100962500Y-76140000D01*
X100312500Y-79260000D02*
X98637500Y-79260000D01*
X100312500Y-76140000D02*
X99662500Y-76140000D01*
%TO.C,Q4*%
X100325000Y-82860000D02*
X100975000Y-82860000D01*
X100325000Y-79740000D02*
X100975000Y-79740000D01*
X100325000Y-82860000D02*
X98650000Y-82860000D01*
X100325000Y-79740000D02*
X99675000Y-79740000D01*
%TO.C,Q3*%
X100375000Y-83265000D02*
X99725000Y-83265000D01*
X100375000Y-86385000D02*
X99725000Y-86385000D01*
X100375000Y-83265000D02*
X102050000Y-83265000D01*
X100375000Y-86385000D02*
X101025000Y-86385000D01*
%TO.C,C7*%
X78563748Y-81565000D02*
X79086252Y-81565000D01*
X78563748Y-83035000D02*
X79086252Y-83035000D01*
%TO.C,U1*%
X68285000Y-82925000D02*
X68285000Y-82275000D01*
X65165000Y-82925000D02*
X65165000Y-83575000D01*
X65165000Y-82925000D02*
X65165000Y-81250000D01*
X68285000Y-82925000D02*
X68285000Y-83575000D01*
%TO.C,R1*%
X87977064Y-93985000D02*
X87522936Y-93985000D01*
X87977064Y-92515000D02*
X87522936Y-92515000D01*
%TO.C,C1*%
X82715000Y-90111252D02*
X82715000Y-89588748D01*
X84185000Y-90111252D02*
X84185000Y-89588748D01*
%TO.C,C4*%
X69165000Y-77936252D02*
X69165000Y-77413748D01*
X70635000Y-77936252D02*
X70635000Y-77413748D01*
%TO.C,C2*%
X69160000Y-84726248D02*
X69160000Y-85248752D01*
X67690000Y-84726248D02*
X67690000Y-85248752D01*
%TO.C,Q2*%
X62375000Y-86135000D02*
X60700000Y-86135000D01*
X62375000Y-83015000D02*
X63025000Y-83015000D01*
X62375000Y-86135000D02*
X63025000Y-86135000D01*
X62375000Y-83015000D02*
X61725000Y-83015000D01*
%TO.C,Q1*%
X73110000Y-81937500D02*
X73110000Y-81287500D01*
X73110000Y-81937500D02*
X73110000Y-82587500D01*
X69990000Y-81937500D02*
X69990000Y-80262500D01*
X69990000Y-81937500D02*
X69990000Y-82587500D01*
%TO.C,JP3*%
X92475000Y-80825000D02*
X94475000Y-80825000D01*
X94475000Y-80825000D02*
X94475000Y-78025000D01*
X94475000Y-78025000D02*
X92475000Y-78025000D01*
X92475000Y-78025000D02*
X92475000Y-80825000D01*
%TO.C,R2*%
X95772936Y-91060000D02*
X96227064Y-91060000D01*
X95772936Y-89590000D02*
X96227064Y-89590000D01*
%TD*%
M02*
