%TF.GenerationSoftware,KiCad,Pcbnew,6.0.11-2627ca5db0~126~ubuntu22.04.1*%
%TF.CreationDate,2023-02-25T15:14:04-05:00*%
%TF.ProjectId,canbus-thermistor,63616e62-7573-42d7-9468-65726d697374,1.0*%
%TF.SameCoordinates,Original*%
%TF.FileFunction,Legend,Bot*%
%TF.FilePolarity,Positive*%
%FSLAX46Y46*%
G04 Gerber Fmt 4.6, Leading zero omitted, Abs format (unit mm)*
G04 Created by KiCad (PCBNEW 6.0.11-2627ca5db0~126~ubuntu22.04.1) date 2023-02-25 15:14:04*
%MOMM*%
%LPD*%
G01*
G04 APERTURE LIST*
%ADD10C,0.150000*%
%ADD11C,0.120000*%
G04 APERTURE END LIST*
D10*
%TO.C,U1*%
X67436904Y-79727380D02*
X67436904Y-80536904D01*
X67389285Y-80632142D01*
X67341666Y-80679761D01*
X67246428Y-80727380D01*
X67055952Y-80727380D01*
X66960714Y-80679761D01*
X66913095Y-80632142D01*
X66865476Y-80536904D01*
X66865476Y-79727380D01*
X65865476Y-80727380D02*
X66436904Y-80727380D01*
X66151190Y-80727380D02*
X66151190Y-79727380D01*
X66246428Y-79870238D01*
X66341666Y-79965476D01*
X66436904Y-80013095D01*
%TO.C,R7*%
X105477380Y-81108333D02*
X105001190Y-80775000D01*
X105477380Y-80536904D02*
X104477380Y-80536904D01*
X104477380Y-80917857D01*
X104525000Y-81013095D01*
X104572619Y-81060714D01*
X104667857Y-81108333D01*
X104810714Y-81108333D01*
X104905952Y-81060714D01*
X104953571Y-81013095D01*
X105001190Y-80917857D01*
X105001190Y-80536904D01*
X104477380Y-81441666D02*
X104477380Y-82108333D01*
X105477380Y-81679761D01*
%TO.C,R4*%
X84941666Y-78027380D02*
X85275000Y-77551190D01*
X85513095Y-78027380D02*
X85513095Y-77027380D01*
X85132142Y-77027380D01*
X85036904Y-77075000D01*
X84989285Y-77122619D01*
X84941666Y-77217857D01*
X84941666Y-77360714D01*
X84989285Y-77455952D01*
X85036904Y-77503571D01*
X85132142Y-77551190D01*
X85513095Y-77551190D01*
X84084523Y-77360714D02*
X84084523Y-78027380D01*
X84322619Y-76979761D02*
X84560714Y-77694047D01*
X83941666Y-77694047D01*
%TO.C,R3*%
X80391666Y-78052380D02*
X80725000Y-77576190D01*
X80963095Y-78052380D02*
X80963095Y-77052380D01*
X80582142Y-77052380D01*
X80486904Y-77100000D01*
X80439285Y-77147619D01*
X80391666Y-77242857D01*
X80391666Y-77385714D01*
X80439285Y-77480952D01*
X80486904Y-77528571D01*
X80582142Y-77576190D01*
X80963095Y-77576190D01*
X80058333Y-77052380D02*
X79439285Y-77052380D01*
X79772619Y-77433333D01*
X79629761Y-77433333D01*
X79534523Y-77480952D01*
X79486904Y-77528571D01*
X79439285Y-77623809D01*
X79439285Y-77861904D01*
X79486904Y-77957142D01*
X79534523Y-78004761D01*
X79629761Y-78052380D01*
X79915476Y-78052380D01*
X80010714Y-78004761D01*
X80058333Y-77957142D01*
%TO.C,R2*%
X94691666Y-92502380D02*
X95025000Y-92026190D01*
X95263095Y-92502380D02*
X95263095Y-91502380D01*
X94882142Y-91502380D01*
X94786904Y-91550000D01*
X94739285Y-91597619D01*
X94691666Y-91692857D01*
X94691666Y-91835714D01*
X94739285Y-91930952D01*
X94786904Y-91978571D01*
X94882142Y-92026190D01*
X95263095Y-92026190D01*
X94310714Y-91597619D02*
X94263095Y-91550000D01*
X94167857Y-91502380D01*
X93929761Y-91502380D01*
X93834523Y-91550000D01*
X93786904Y-91597619D01*
X93739285Y-91692857D01*
X93739285Y-91788095D01*
X93786904Y-91930952D01*
X94358333Y-92502380D01*
X93739285Y-92502380D01*
%TO.C,R1*%
X87916666Y-92052380D02*
X88250000Y-91576190D01*
X88488095Y-92052380D02*
X88488095Y-91052380D01*
X88107142Y-91052380D01*
X88011904Y-91100000D01*
X87964285Y-91147619D01*
X87916666Y-91242857D01*
X87916666Y-91385714D01*
X87964285Y-91480952D01*
X88011904Y-91528571D01*
X88107142Y-91576190D01*
X88488095Y-91576190D01*
X86964285Y-92052380D02*
X87535714Y-92052380D01*
X87250000Y-92052380D02*
X87250000Y-91052380D01*
X87345238Y-91195238D01*
X87440476Y-91290476D01*
X87535714Y-91338095D01*
%TO.C,Q2*%
X63045238Y-82672619D02*
X63140476Y-82625000D01*
X63235714Y-82529761D01*
X63378571Y-82386904D01*
X63473809Y-82339285D01*
X63569047Y-82339285D01*
X63521428Y-82577380D02*
X63616666Y-82529761D01*
X63711904Y-82434523D01*
X63759523Y-82244047D01*
X63759523Y-81910714D01*
X63711904Y-81720238D01*
X63616666Y-81625000D01*
X63521428Y-81577380D01*
X63330952Y-81577380D01*
X63235714Y-81625000D01*
X63140476Y-81720238D01*
X63092857Y-81910714D01*
X63092857Y-82244047D01*
X63140476Y-82434523D01*
X63235714Y-82529761D01*
X63330952Y-82577380D01*
X63521428Y-82577380D01*
X62711904Y-81672619D02*
X62664285Y-81625000D01*
X62569047Y-81577380D01*
X62330952Y-81577380D01*
X62235714Y-81625000D01*
X62188095Y-81672619D01*
X62140476Y-81767857D01*
X62140476Y-81863095D01*
X62188095Y-82005952D01*
X62759523Y-82577380D01*
X62140476Y-82577380D01*
%TO.C,Q1*%
X71770238Y-79722619D02*
X71865476Y-79675000D01*
X71960714Y-79579761D01*
X72103571Y-79436904D01*
X72198809Y-79389285D01*
X72294047Y-79389285D01*
X72246428Y-79627380D02*
X72341666Y-79579761D01*
X72436904Y-79484523D01*
X72484523Y-79294047D01*
X72484523Y-78960714D01*
X72436904Y-78770238D01*
X72341666Y-78675000D01*
X72246428Y-78627380D01*
X72055952Y-78627380D01*
X71960714Y-78675000D01*
X71865476Y-78770238D01*
X71817857Y-78960714D01*
X71817857Y-79294047D01*
X71865476Y-79484523D01*
X71960714Y-79579761D01*
X72055952Y-79627380D01*
X72246428Y-79627380D01*
X70865476Y-79627380D02*
X71436904Y-79627380D01*
X71151190Y-79627380D02*
X71151190Y-78627380D01*
X71246428Y-78770238D01*
X71341666Y-78865476D01*
X71436904Y-78913095D01*
%TO.C,JP3*%
X91127380Y-78591666D02*
X91841666Y-78591666D01*
X91984523Y-78544047D01*
X92079761Y-78448809D01*
X92127380Y-78305952D01*
X92127380Y-78210714D01*
X92127380Y-79067857D02*
X91127380Y-79067857D01*
X91127380Y-79448809D01*
X91175000Y-79544047D01*
X91222619Y-79591666D01*
X91317857Y-79639285D01*
X91460714Y-79639285D01*
X91555952Y-79591666D01*
X91603571Y-79544047D01*
X91651190Y-79448809D01*
X91651190Y-79067857D01*
X91127380Y-79972619D02*
X91127380Y-80591666D01*
X91508333Y-80258333D01*
X91508333Y-80401190D01*
X91555952Y-80496428D01*
X91603571Y-80544047D01*
X91698809Y-80591666D01*
X91936904Y-80591666D01*
X92032142Y-80544047D01*
X92079761Y-80496428D01*
X92127380Y-80401190D01*
X92127380Y-80115476D01*
X92079761Y-80020238D01*
X92032142Y-79972619D01*
%TO.C,C7*%
X78991666Y-84337142D02*
X79039285Y-84384761D01*
X79182142Y-84432380D01*
X79277380Y-84432380D01*
X79420238Y-84384761D01*
X79515476Y-84289523D01*
X79563095Y-84194285D01*
X79610714Y-84003809D01*
X79610714Y-83860952D01*
X79563095Y-83670476D01*
X79515476Y-83575238D01*
X79420238Y-83480000D01*
X79277380Y-83432380D01*
X79182142Y-83432380D01*
X79039285Y-83480000D01*
X78991666Y-83527619D01*
X78658333Y-83432380D02*
X77991666Y-83432380D01*
X78420238Y-84432380D01*
%TO.C,C4*%
X72266666Y-76857142D02*
X72314285Y-76904761D01*
X72457142Y-76952380D01*
X72552380Y-76952380D01*
X72695238Y-76904761D01*
X72790476Y-76809523D01*
X72838095Y-76714285D01*
X72885714Y-76523809D01*
X72885714Y-76380952D01*
X72838095Y-76190476D01*
X72790476Y-76095238D01*
X72695238Y-76000000D01*
X72552380Y-75952380D01*
X72457142Y-75952380D01*
X72314285Y-76000000D01*
X72266666Y-76047619D01*
X71409523Y-76285714D02*
X71409523Y-76952380D01*
X71647619Y-75904761D02*
X71885714Y-76619047D01*
X71266666Y-76619047D01*
%TO.C,C2*%
X67032142Y-85833333D02*
X67079761Y-85785714D01*
X67127380Y-85642857D01*
X67127380Y-85547619D01*
X67079761Y-85404761D01*
X66984523Y-85309523D01*
X66889285Y-85261904D01*
X66698809Y-85214285D01*
X66555952Y-85214285D01*
X66365476Y-85261904D01*
X66270238Y-85309523D01*
X66175000Y-85404761D01*
X66127380Y-85547619D01*
X66127380Y-85642857D01*
X66175000Y-85785714D01*
X66222619Y-85833333D01*
X66222619Y-86214285D02*
X66175000Y-86261904D01*
X66127380Y-86357142D01*
X66127380Y-86595238D01*
X66175000Y-86690476D01*
X66222619Y-86738095D01*
X66317857Y-86785714D01*
X66413095Y-86785714D01*
X66555952Y-86738095D01*
X67127380Y-86166666D01*
X67127380Y-86785714D01*
%TO.C,C1*%
X83491666Y-93157142D02*
X83539285Y-93204761D01*
X83682142Y-93252380D01*
X83777380Y-93252380D01*
X83920238Y-93204761D01*
X84015476Y-93109523D01*
X84063095Y-93014285D01*
X84110714Y-92823809D01*
X84110714Y-92680952D01*
X84063095Y-92490476D01*
X84015476Y-92395238D01*
X83920238Y-92300000D01*
X83777380Y-92252380D01*
X83682142Y-92252380D01*
X83539285Y-92300000D01*
X83491666Y-92347619D01*
X82539285Y-93252380D02*
X83110714Y-93252380D01*
X82825000Y-93252380D02*
X82825000Y-92252380D01*
X82920238Y-92395238D01*
X83015476Y-92490476D01*
X83110714Y-92538095D01*
D11*
%TO.C,U1*%
X65165000Y-82925000D02*
X65165000Y-83575000D01*
X68285000Y-82925000D02*
X68285000Y-83575000D01*
X65165000Y-82925000D02*
X65165000Y-81250000D01*
X68285000Y-82925000D02*
X68285000Y-82275000D01*
%TO.C,R7*%
X104110000Y-81502064D02*
X104110000Y-81047936D01*
X102640000Y-81502064D02*
X102640000Y-81047936D01*
%TO.C,R4*%
X84547936Y-76660000D02*
X85002064Y-76660000D01*
X84547936Y-75190000D02*
X85002064Y-75190000D01*
%TO.C,R3*%
X79997936Y-76685000D02*
X80452064Y-76685000D01*
X79997936Y-75215000D02*
X80452064Y-75215000D01*
%TO.C,R2*%
X95772936Y-91060000D02*
X96227064Y-91060000D01*
X95772936Y-89590000D02*
X96227064Y-89590000D01*
%TO.C,R1*%
X87977064Y-92515000D02*
X87522936Y-92515000D01*
X87977064Y-93985000D02*
X87522936Y-93985000D01*
%TO.C,Q2*%
X62375000Y-86135000D02*
X63025000Y-86135000D01*
X62375000Y-83015000D02*
X63025000Y-83015000D01*
X62375000Y-86135000D02*
X60700000Y-86135000D01*
X62375000Y-83015000D02*
X61725000Y-83015000D01*
%TO.C,Q1*%
X73110000Y-81937500D02*
X73110000Y-81287500D01*
X69990000Y-81937500D02*
X69990000Y-80262500D01*
X73110000Y-81937500D02*
X73110000Y-82587500D01*
X69990000Y-81937500D02*
X69990000Y-82587500D01*
%TO.C,JP3*%
X94475000Y-78025000D02*
X92475000Y-78025000D01*
X94475000Y-80825000D02*
X94475000Y-78025000D01*
X92475000Y-80825000D02*
X94475000Y-80825000D01*
X92475000Y-78025000D02*
X92475000Y-80825000D01*
%TO.C,C7*%
X78563748Y-81565000D02*
X79086252Y-81565000D01*
X78563748Y-83035000D02*
X79086252Y-83035000D01*
%TO.C,C4*%
X70635000Y-77936252D02*
X70635000Y-77413748D01*
X69165000Y-77936252D02*
X69165000Y-77413748D01*
%TO.C,C2*%
X67690000Y-84726248D02*
X67690000Y-85248752D01*
X69160000Y-84726248D02*
X69160000Y-85248752D01*
%TO.C,C1*%
X84185000Y-90111252D02*
X84185000Y-89588748D01*
X82715000Y-90111252D02*
X82715000Y-89588748D01*
%TD*%
M02*
