%TF.GenerationSoftware,KiCad,Pcbnew,6.0.11-2627ca5db0~126~ubuntu22.04.1*%
%TF.CreationDate,2023-02-28T18:30:51-05:00*%
%TF.ProjectId,canbus-ds1820,63616e62-7573-42d6-9473-313832302e6b,1.0*%
%TF.SameCoordinates,Original*%
%TF.FileFunction,Legend,Bot*%
%TF.FilePolarity,Positive*%
%FSLAX46Y46*%
G04 Gerber Fmt 4.6, Leading zero omitted, Abs format (unit mm)*
G04 Created by KiCad (PCBNEW 6.0.11-2627ca5db0~126~ubuntu22.04.1) date 2023-02-28 18:30:51*
%MOMM*%
%LPD*%
G01*
G04 APERTURE LIST*
%ADD10C,0.150000*%
%ADD11C,0.010000*%
%ADD12C,0.120000*%
G04 APERTURE END LIST*
D10*
%TO.C,C7*%
X78991666Y-84337142D02*
X79039285Y-84384761D01*
X79182142Y-84432380D01*
X79277380Y-84432380D01*
X79420238Y-84384761D01*
X79515476Y-84289523D01*
X79563095Y-84194285D01*
X79610714Y-84003809D01*
X79610714Y-83860952D01*
X79563095Y-83670476D01*
X79515476Y-83575238D01*
X79420238Y-83480000D01*
X79277380Y-83432380D01*
X79182142Y-83432380D01*
X79039285Y-83480000D01*
X78991666Y-83527619D01*
X78658333Y-83432380D02*
X77991666Y-83432380D01*
X78420238Y-84432380D01*
%TO.C,U1*%
X67436904Y-79727380D02*
X67436904Y-80536904D01*
X67389285Y-80632142D01*
X67341666Y-80679761D01*
X67246428Y-80727380D01*
X67055952Y-80727380D01*
X66960714Y-80679761D01*
X66913095Y-80632142D01*
X66865476Y-80536904D01*
X66865476Y-79727380D01*
X65865476Y-80727380D02*
X66436904Y-80727380D01*
X66151190Y-80727380D02*
X66151190Y-79727380D01*
X66246428Y-79870238D01*
X66341666Y-79965476D01*
X66436904Y-80013095D01*
%TO.C,R1*%
X87916666Y-92052380D02*
X88250000Y-91576190D01*
X88488095Y-92052380D02*
X88488095Y-91052380D01*
X88107142Y-91052380D01*
X88011904Y-91100000D01*
X87964285Y-91147619D01*
X87916666Y-91242857D01*
X87916666Y-91385714D01*
X87964285Y-91480952D01*
X88011904Y-91528571D01*
X88107142Y-91576190D01*
X88488095Y-91576190D01*
X86964285Y-92052380D02*
X87535714Y-92052380D01*
X87250000Y-92052380D02*
X87250000Y-91052380D01*
X87345238Y-91195238D01*
X87440476Y-91290476D01*
X87535714Y-91338095D01*
%TO.C,C2*%
X83491666Y-93157142D02*
X83539285Y-93204761D01*
X83682142Y-93252380D01*
X83777380Y-93252380D01*
X83920238Y-93204761D01*
X84015476Y-93109523D01*
X84063095Y-93014285D01*
X84110714Y-92823809D01*
X84110714Y-92680952D01*
X84063095Y-92490476D01*
X84015476Y-92395238D01*
X83920238Y-92300000D01*
X83777380Y-92252380D01*
X83682142Y-92252380D01*
X83539285Y-92300000D01*
X83491666Y-92347619D01*
X83110714Y-92347619D02*
X83063095Y-92300000D01*
X82967857Y-92252380D01*
X82729761Y-92252380D01*
X82634523Y-92300000D01*
X82586904Y-92347619D01*
X82539285Y-92442857D01*
X82539285Y-92538095D01*
X82586904Y-92680952D01*
X83158333Y-93252380D01*
X82539285Y-93252380D01*
%TO.C,R3*%
X100027380Y-86358333D02*
X99551190Y-86025000D01*
X100027380Y-85786904D02*
X99027380Y-85786904D01*
X99027380Y-86167857D01*
X99075000Y-86263095D01*
X99122619Y-86310714D01*
X99217857Y-86358333D01*
X99360714Y-86358333D01*
X99455952Y-86310714D01*
X99503571Y-86263095D01*
X99551190Y-86167857D01*
X99551190Y-85786904D01*
X99027380Y-86691666D02*
X99027380Y-87310714D01*
X99408333Y-86977380D01*
X99408333Y-87120238D01*
X99455952Y-87215476D01*
X99503571Y-87263095D01*
X99598809Y-87310714D01*
X99836904Y-87310714D01*
X99932142Y-87263095D01*
X99979761Y-87215476D01*
X100027380Y-87120238D01*
X100027380Y-86834523D01*
X99979761Y-86739285D01*
X99932142Y-86691666D01*
%TO.C,C4*%
X72266666Y-76857142D02*
X72314285Y-76904761D01*
X72457142Y-76952380D01*
X72552380Y-76952380D01*
X72695238Y-76904761D01*
X72790476Y-76809523D01*
X72838095Y-76714285D01*
X72885714Y-76523809D01*
X72885714Y-76380952D01*
X72838095Y-76190476D01*
X72790476Y-76095238D01*
X72695238Y-76000000D01*
X72552380Y-75952380D01*
X72457142Y-75952380D01*
X72314285Y-76000000D01*
X72266666Y-76047619D01*
X71409523Y-76285714D02*
X71409523Y-76952380D01*
X71647619Y-75904761D02*
X71885714Y-76619047D01*
X71266666Y-76619047D01*
%TO.C,Q3*%
X105045238Y-88972619D02*
X105140476Y-88925000D01*
X105235714Y-88829761D01*
X105378571Y-88686904D01*
X105473809Y-88639285D01*
X105569047Y-88639285D01*
X105521428Y-88877380D02*
X105616666Y-88829761D01*
X105711904Y-88734523D01*
X105759523Y-88544047D01*
X105759523Y-88210714D01*
X105711904Y-88020238D01*
X105616666Y-87925000D01*
X105521428Y-87877380D01*
X105330952Y-87877380D01*
X105235714Y-87925000D01*
X105140476Y-88020238D01*
X105092857Y-88210714D01*
X105092857Y-88544047D01*
X105140476Y-88734523D01*
X105235714Y-88829761D01*
X105330952Y-88877380D01*
X105521428Y-88877380D01*
X104759523Y-87877380D02*
X104140476Y-87877380D01*
X104473809Y-88258333D01*
X104330952Y-88258333D01*
X104235714Y-88305952D01*
X104188095Y-88353571D01*
X104140476Y-88448809D01*
X104140476Y-88686904D01*
X104188095Y-88782142D01*
X104235714Y-88829761D01*
X104330952Y-88877380D01*
X104616666Y-88877380D01*
X104711904Y-88829761D01*
X104759523Y-88782142D01*
%TO.C,R6*%
X108927380Y-90783333D02*
X108451190Y-90450000D01*
X108927380Y-90211904D02*
X107927380Y-90211904D01*
X107927380Y-90592857D01*
X107975000Y-90688095D01*
X108022619Y-90735714D01*
X108117857Y-90783333D01*
X108260714Y-90783333D01*
X108355952Y-90735714D01*
X108403571Y-90688095D01*
X108451190Y-90592857D01*
X108451190Y-90211904D01*
X107927380Y-91640476D02*
X107927380Y-91450000D01*
X107975000Y-91354761D01*
X108022619Y-91307142D01*
X108165476Y-91211904D01*
X108355952Y-91164285D01*
X108736904Y-91164285D01*
X108832142Y-91211904D01*
X108879761Y-91259523D01*
X108927380Y-91354761D01*
X108927380Y-91545238D01*
X108879761Y-91640476D01*
X108832142Y-91688095D01*
X108736904Y-91735714D01*
X108498809Y-91735714D01*
X108403571Y-91688095D01*
X108355952Y-91640476D01*
X108308333Y-91545238D01*
X108308333Y-91354761D01*
X108355952Y-91259523D01*
X108403571Y-91211904D01*
X108498809Y-91164285D01*
%TO.C,C1*%
X67032142Y-85833333D02*
X67079761Y-85785714D01*
X67127380Y-85642857D01*
X67127380Y-85547619D01*
X67079761Y-85404761D01*
X66984523Y-85309523D01*
X66889285Y-85261904D01*
X66698809Y-85214285D01*
X66555952Y-85214285D01*
X66365476Y-85261904D01*
X66270238Y-85309523D01*
X66175000Y-85404761D01*
X66127380Y-85547619D01*
X66127380Y-85642857D01*
X66175000Y-85785714D01*
X66222619Y-85833333D01*
X67127380Y-86785714D02*
X67127380Y-86214285D01*
X67127380Y-86500000D02*
X66127380Y-86500000D01*
X66270238Y-86404761D01*
X66365476Y-86309523D01*
X66413095Y-86214285D01*
%TO.C,Q2*%
X63045238Y-82672619D02*
X63140476Y-82625000D01*
X63235714Y-82529761D01*
X63378571Y-82386904D01*
X63473809Y-82339285D01*
X63569047Y-82339285D01*
X63521428Y-82577380D02*
X63616666Y-82529761D01*
X63711904Y-82434523D01*
X63759523Y-82244047D01*
X63759523Y-81910714D01*
X63711904Y-81720238D01*
X63616666Y-81625000D01*
X63521428Y-81577380D01*
X63330952Y-81577380D01*
X63235714Y-81625000D01*
X63140476Y-81720238D01*
X63092857Y-81910714D01*
X63092857Y-82244047D01*
X63140476Y-82434523D01*
X63235714Y-82529761D01*
X63330952Y-82577380D01*
X63521428Y-82577380D01*
X62711904Y-81672619D02*
X62664285Y-81625000D01*
X62569047Y-81577380D01*
X62330952Y-81577380D01*
X62235714Y-81625000D01*
X62188095Y-81672619D01*
X62140476Y-81767857D01*
X62140476Y-81863095D01*
X62188095Y-82005952D01*
X62759523Y-82577380D01*
X62140476Y-82577380D01*
%TO.C,Q1*%
X71770238Y-79722619D02*
X71865476Y-79675000D01*
X71960714Y-79579761D01*
X72103571Y-79436904D01*
X72198809Y-79389285D01*
X72294047Y-79389285D01*
X72246428Y-79627380D02*
X72341666Y-79579761D01*
X72436904Y-79484523D01*
X72484523Y-79294047D01*
X72484523Y-78960714D01*
X72436904Y-78770238D01*
X72341666Y-78675000D01*
X72246428Y-78627380D01*
X72055952Y-78627380D01*
X71960714Y-78675000D01*
X71865476Y-78770238D01*
X71817857Y-78960714D01*
X71817857Y-79294047D01*
X71865476Y-79484523D01*
X71960714Y-79579761D01*
X72055952Y-79627380D01*
X72246428Y-79627380D01*
X70865476Y-79627380D02*
X71436904Y-79627380D01*
X71151190Y-79627380D02*
X71151190Y-78627380D01*
X71246428Y-78770238D01*
X71341666Y-78865476D01*
X71436904Y-78913095D01*
%TO.C,JP3*%
X91127380Y-78591666D02*
X91841666Y-78591666D01*
X91984523Y-78544047D01*
X92079761Y-78448809D01*
X92127380Y-78305952D01*
X92127380Y-78210714D01*
X92127380Y-79067857D02*
X91127380Y-79067857D01*
X91127380Y-79448809D01*
X91175000Y-79544047D01*
X91222619Y-79591666D01*
X91317857Y-79639285D01*
X91460714Y-79639285D01*
X91555952Y-79591666D01*
X91603571Y-79544047D01*
X91651190Y-79448809D01*
X91651190Y-79067857D01*
X91127380Y-79972619D02*
X91127380Y-80591666D01*
X91508333Y-80258333D01*
X91508333Y-80401190D01*
X91555952Y-80496428D01*
X91603571Y-80544047D01*
X91698809Y-80591666D01*
X91936904Y-80591666D01*
X92032142Y-80544047D01*
X92079761Y-80496428D01*
X92127380Y-80401190D01*
X92127380Y-80115476D01*
X92079761Y-80020238D01*
X92032142Y-79972619D01*
%TO.C,R2*%
X94691666Y-92502380D02*
X95025000Y-92026190D01*
X95263095Y-92502380D02*
X95263095Y-91502380D01*
X94882142Y-91502380D01*
X94786904Y-91550000D01*
X94739285Y-91597619D01*
X94691666Y-91692857D01*
X94691666Y-91835714D01*
X94739285Y-91930952D01*
X94786904Y-91978571D01*
X94882142Y-92026190D01*
X95263095Y-92026190D01*
X94310714Y-91597619D02*
X94263095Y-91550000D01*
X94167857Y-91502380D01*
X93929761Y-91502380D01*
X93834523Y-91550000D01*
X93786904Y-91597619D01*
X93739285Y-91692857D01*
X93739285Y-91788095D01*
X93786904Y-91930952D01*
X94358333Y-92502380D01*
X93739285Y-92502380D01*
%TO.C,REF\u002A\u002A*%
G36*
X81628941Y-77924282D02*
G01*
X81660774Y-77936758D01*
X81697743Y-77953602D01*
X81697743Y-78440196D01*
X81651812Y-78486127D01*
X81641320Y-78496427D01*
X81612255Y-78519320D01*
X81582943Y-78526735D01*
X81539326Y-78523321D01*
X81521568Y-78521114D01*
X81475767Y-78516445D01*
X81443743Y-78514585D01*
X81434244Y-78514869D01*
X81395274Y-78517948D01*
X81348160Y-78523321D01*
X81333085Y-78525168D01*
X81295110Y-78525893D01*
X81267325Y-78514429D01*
X81235674Y-78486127D01*
X81189743Y-78440196D01*
X81189743Y-78180055D01*
X81190101Y-78103180D01*
X81191216Y-78029886D01*
X81192952Y-77971850D01*
X81195167Y-77933663D01*
X81197721Y-77919914D01*
X81198256Y-77919951D01*
X81216808Y-77926793D01*
X81248153Y-77941868D01*
X81290608Y-77963822D01*
X81294604Y-78192240D01*
X81298600Y-78420657D01*
X81385686Y-78420657D01*
X81389657Y-78170286D01*
X81390916Y-78102227D01*
X81392718Y-78029482D01*
X81394671Y-77971730D01*
X81396612Y-77933648D01*
X81398377Y-77919914D01*
X81398885Y-77919962D01*
X81416482Y-77925015D01*
X81448834Y-77935849D01*
X81494543Y-77951783D01*
X81494765Y-78171706D01*
X81494988Y-78209909D01*
X81496531Y-78284146D01*
X81499292Y-78346145D01*
X81502977Y-78390308D01*
X81507292Y-78411041D01*
X81522732Y-78422131D01*
X81554241Y-78425556D01*
X81588886Y-78420657D01*
X81592857Y-78170286D01*
X81594278Y-78106663D01*
X81597225Y-78031356D01*
X81601079Y-77972286D01*
X81605542Y-77933718D01*
X81610317Y-77919914D01*
X81628941Y-77924282D01*
G37*
D11*
X81628941Y-77924282D02*
X81660774Y-77936758D01*
X81697743Y-77953602D01*
X81697743Y-78440196D01*
X81651812Y-78486127D01*
X81641320Y-78496427D01*
X81612255Y-78519320D01*
X81582943Y-78526735D01*
X81539326Y-78523321D01*
X81521568Y-78521114D01*
X81475767Y-78516445D01*
X81443743Y-78514585D01*
X81434244Y-78514869D01*
X81395274Y-78517948D01*
X81348160Y-78523321D01*
X81333085Y-78525168D01*
X81295110Y-78525893D01*
X81267325Y-78514429D01*
X81235674Y-78486127D01*
X81189743Y-78440196D01*
X81189743Y-78180055D01*
X81190101Y-78103180D01*
X81191216Y-78029886D01*
X81192952Y-77971850D01*
X81195167Y-77933663D01*
X81197721Y-77919914D01*
X81198256Y-77919951D01*
X81216808Y-77926793D01*
X81248153Y-77941868D01*
X81290608Y-77963822D01*
X81294604Y-78192240D01*
X81298600Y-78420657D01*
X81385686Y-78420657D01*
X81389657Y-78170286D01*
X81390916Y-78102227D01*
X81392718Y-78029482D01*
X81394671Y-77971730D01*
X81396612Y-77933648D01*
X81398377Y-77919914D01*
X81398885Y-77919962D01*
X81416482Y-77925015D01*
X81448834Y-77935849D01*
X81494543Y-77951783D01*
X81494765Y-78171706D01*
X81494988Y-78209909D01*
X81496531Y-78284146D01*
X81499292Y-78346145D01*
X81502977Y-78390308D01*
X81507292Y-78411041D01*
X81522732Y-78422131D01*
X81554241Y-78425556D01*
X81588886Y-78420657D01*
X81592857Y-78170286D01*
X81594278Y-78106663D01*
X81597225Y-78031356D01*
X81601079Y-77972286D01*
X81605542Y-77933718D01*
X81610317Y-77919914D01*
X81628941Y-77924282D01*
G36*
X86240701Y-78225935D02*
G01*
X86239914Y-78296119D01*
X86237210Y-78345022D01*
X86231606Y-78379178D01*
X86222119Y-78405124D01*
X86207768Y-78429397D01*
X86204237Y-78434433D01*
X86166878Y-78474143D01*
X86124311Y-78504092D01*
X86102452Y-78513810D01*
X86023908Y-78530020D01*
X85946231Y-78519535D01*
X85874645Y-78483707D01*
X85814374Y-78423887D01*
X85809286Y-78415873D01*
X85792730Y-78369342D01*
X85781573Y-78304552D01*
X85776160Y-78229727D01*
X85776768Y-78160513D01*
X85923248Y-78160513D01*
X85924402Y-78256399D01*
X85924866Y-78262569D01*
X85931629Y-78315478D01*
X85943671Y-78349029D01*
X85964005Y-78372016D01*
X85998097Y-78393548D01*
X86031814Y-78394680D01*
X86066543Y-78369857D01*
X86072584Y-78363325D01*
X86084417Y-78343779D01*
X86091404Y-78315386D01*
X86094727Y-78271430D01*
X86095571Y-78205192D01*
X86094125Y-78143150D01*
X86086907Y-78084042D01*
X86072006Y-78046686D01*
X86047636Y-78027152D01*
X86012008Y-78021514D01*
X85998440Y-78022635D01*
X85960430Y-78043194D01*
X85935312Y-78089299D01*
X85923248Y-78160513D01*
X85776768Y-78160513D01*
X85776833Y-78153096D01*
X85783937Y-78082882D01*
X85797815Y-78027312D01*
X85815649Y-77990301D01*
X85865855Y-77932733D01*
X85933885Y-77896962D01*
X86017158Y-77884665D01*
X86039398Y-77885331D01*
X86104891Y-77898947D01*
X86158687Y-77933249D01*
X86208057Y-77992338D01*
X86210995Y-77996722D01*
X86224287Y-78020299D01*
X86232932Y-78046949D01*
X86237904Y-78083159D01*
X86240174Y-78135413D01*
X86240678Y-78205192D01*
X86240714Y-78210200D01*
X86240701Y-78225935D01*
G37*
X86240701Y-78225935D02*
X86239914Y-78296119D01*
X86237210Y-78345022D01*
X86231606Y-78379178D01*
X86222119Y-78405124D01*
X86207768Y-78429397D01*
X86204237Y-78434433D01*
X86166878Y-78474143D01*
X86124311Y-78504092D01*
X86102452Y-78513810D01*
X86023908Y-78530020D01*
X85946231Y-78519535D01*
X85874645Y-78483707D01*
X85814374Y-78423887D01*
X85809286Y-78415873D01*
X85792730Y-78369342D01*
X85781573Y-78304552D01*
X85776160Y-78229727D01*
X85776768Y-78160513D01*
X85923248Y-78160513D01*
X85924402Y-78256399D01*
X85924866Y-78262569D01*
X85931629Y-78315478D01*
X85943671Y-78349029D01*
X85964005Y-78372016D01*
X85998097Y-78393548D01*
X86031814Y-78394680D01*
X86066543Y-78369857D01*
X86072584Y-78363325D01*
X86084417Y-78343779D01*
X86091404Y-78315386D01*
X86094727Y-78271430D01*
X86095571Y-78205192D01*
X86094125Y-78143150D01*
X86086907Y-78084042D01*
X86072006Y-78046686D01*
X86047636Y-78027152D01*
X86012008Y-78021514D01*
X85998440Y-78022635D01*
X85960430Y-78043194D01*
X85935312Y-78089299D01*
X85923248Y-78160513D01*
X85776768Y-78160513D01*
X85776833Y-78153096D01*
X85783937Y-78082882D01*
X85797815Y-78027312D01*
X85815649Y-77990301D01*
X85865855Y-77932733D01*
X85933885Y-77896962D01*
X86017158Y-77884665D01*
X86039398Y-77885331D01*
X86104891Y-77898947D01*
X86158687Y-77933249D01*
X86208057Y-77992338D01*
X86210995Y-77996722D01*
X86224287Y-78020299D01*
X86232932Y-78046949D01*
X86237904Y-78083159D01*
X86240174Y-78135413D01*
X86240678Y-78205192D01*
X86240714Y-78210200D01*
X86240701Y-78225935D01*
G36*
X80115307Y-78266305D02*
G01*
X80111762Y-78342521D01*
X80102483Y-78398294D01*
X80085375Y-78439613D01*
X80058344Y-78472467D01*
X80019292Y-78502846D01*
X79994445Y-78516660D01*
X79954615Y-78525965D01*
X79898665Y-78525230D01*
X79867385Y-78522283D01*
X79829653Y-78513283D01*
X79799494Y-78493720D01*
X79764408Y-78457267D01*
X79759720Y-78451943D01*
X79728177Y-78410969D01*
X79713128Y-78375283D01*
X79709286Y-78332966D01*
X79709286Y-78270779D01*
X79752742Y-78287182D01*
X79784424Y-78306356D01*
X79811962Y-78351347D01*
X79817711Y-78365752D01*
X79849855Y-78406546D01*
X79893611Y-78427081D01*
X79941254Y-78425235D01*
X79985057Y-78398886D01*
X80000111Y-78382455D01*
X80013763Y-78357667D01*
X80009493Y-78335144D01*
X79984916Y-78311964D01*
X79937651Y-78285202D01*
X79865314Y-78251934D01*
X79716543Y-78186816D01*
X79712595Y-78122308D01*
X79714079Y-78081220D01*
X79811010Y-78081220D01*
X79818368Y-78106657D01*
X79851848Y-78133814D01*
X79912614Y-78164714D01*
X79922669Y-78169190D01*
X79970751Y-78190017D01*
X80006726Y-78204665D01*
X80023444Y-78210200D01*
X80025977Y-78206126D01*
X80026993Y-78181247D01*
X80023369Y-78141257D01*
X80014242Y-78102152D01*
X79985773Y-78052884D01*
X79944678Y-78025122D01*
X79895590Y-78021364D01*
X79843144Y-78044109D01*
X79828609Y-78055481D01*
X79811010Y-78081220D01*
X79714079Y-78081220D01*
X79714338Y-78074064D01*
X79736281Y-78013096D01*
X79763979Y-77979497D01*
X79821405Y-77941966D01*
X79889527Y-77923006D01*
X79959947Y-77924507D01*
X80024267Y-77948355D01*
X80038426Y-77957513D01*
X80070904Y-77985849D01*
X80093116Y-78021695D01*
X80106804Y-78070384D01*
X80113715Y-78137249D01*
X80114628Y-78181247D01*
X80115590Y-78227622D01*
X80115307Y-78266305D01*
G37*
X80115307Y-78266305D02*
X80111762Y-78342521D01*
X80102483Y-78398294D01*
X80085375Y-78439613D01*
X80058344Y-78472467D01*
X80019292Y-78502846D01*
X79994445Y-78516660D01*
X79954615Y-78525965D01*
X79898665Y-78525230D01*
X79867385Y-78522283D01*
X79829653Y-78513283D01*
X79799494Y-78493720D01*
X79764408Y-78457267D01*
X79759720Y-78451943D01*
X79728177Y-78410969D01*
X79713128Y-78375283D01*
X79709286Y-78332966D01*
X79709286Y-78270779D01*
X79752742Y-78287182D01*
X79784424Y-78306356D01*
X79811962Y-78351347D01*
X79817711Y-78365752D01*
X79849855Y-78406546D01*
X79893611Y-78427081D01*
X79941254Y-78425235D01*
X79985057Y-78398886D01*
X80000111Y-78382455D01*
X80013763Y-78357667D01*
X80009493Y-78335144D01*
X79984916Y-78311964D01*
X79937651Y-78285202D01*
X79865314Y-78251934D01*
X79716543Y-78186816D01*
X79712595Y-78122308D01*
X79714079Y-78081220D01*
X79811010Y-78081220D01*
X79818368Y-78106657D01*
X79851848Y-78133814D01*
X79912614Y-78164714D01*
X79922669Y-78169190D01*
X79970751Y-78190017D01*
X80006726Y-78204665D01*
X80023444Y-78210200D01*
X80025977Y-78206126D01*
X80026993Y-78181247D01*
X80023369Y-78141257D01*
X80014242Y-78102152D01*
X79985773Y-78052884D01*
X79944678Y-78025122D01*
X79895590Y-78021364D01*
X79843144Y-78044109D01*
X79828609Y-78055481D01*
X79811010Y-78081220D01*
X79714079Y-78081220D01*
X79714338Y-78074064D01*
X79736281Y-78013096D01*
X79763979Y-77979497D01*
X79821405Y-77941966D01*
X79889527Y-77923006D01*
X79959947Y-77924507D01*
X80024267Y-77948355D01*
X80038426Y-77957513D01*
X80070904Y-77985849D01*
X80093116Y-78021695D01*
X80106804Y-78070384D01*
X80113715Y-78137249D01*
X80114628Y-78181247D01*
X80115590Y-78227622D01*
X80115307Y-78266305D01*
G36*
X84406020Y-77892822D02*
G01*
X84473810Y-77924680D01*
X84529366Y-77979770D01*
X84540881Y-77997016D01*
X84550432Y-78016562D01*
X84557206Y-78041198D01*
X84561819Y-78075711D01*
X84564888Y-78124889D01*
X84567029Y-78193519D01*
X84568859Y-78286389D01*
X84573404Y-78544007D01*
X84535225Y-78529491D01*
X84500268Y-78516156D01*
X84474097Y-78503323D01*
X84457013Y-78486780D01*
X84447086Y-78461465D01*
X84442386Y-78422316D01*
X84440982Y-78364268D01*
X84440943Y-78282261D01*
X84440744Y-78216895D01*
X84439559Y-78154173D01*
X84436729Y-78111334D01*
X84431609Y-78083220D01*
X84423553Y-78064675D01*
X84411914Y-78050543D01*
X84383303Y-78030600D01*
X84335239Y-78023083D01*
X84287688Y-78042079D01*
X84284550Y-78044511D01*
X84274769Y-78055748D01*
X84267553Y-78073770D01*
X84262299Y-78103026D01*
X84258402Y-78147962D01*
X84255256Y-78213028D01*
X84252257Y-78302670D01*
X84245000Y-78542697D01*
X84183314Y-78515044D01*
X84121629Y-78487391D01*
X84121629Y-78268246D01*
X84121884Y-78208711D01*
X84124086Y-78125892D01*
X84129661Y-78064227D01*
X84139941Y-78018748D01*
X84156258Y-77984484D01*
X84179943Y-77956466D01*
X84212328Y-77929723D01*
X84258907Y-77902780D01*
X84332287Y-77885191D01*
X84406020Y-77892822D01*
G37*
X84406020Y-77892822D02*
X84473810Y-77924680D01*
X84529366Y-77979770D01*
X84540881Y-77997016D01*
X84550432Y-78016562D01*
X84557206Y-78041198D01*
X84561819Y-78075711D01*
X84564888Y-78124889D01*
X84567029Y-78193519D01*
X84568859Y-78286389D01*
X84573404Y-78544007D01*
X84535225Y-78529491D01*
X84500268Y-78516156D01*
X84474097Y-78503323D01*
X84457013Y-78486780D01*
X84447086Y-78461465D01*
X84442386Y-78422316D01*
X84440982Y-78364268D01*
X84440943Y-78282261D01*
X84440744Y-78216895D01*
X84439559Y-78154173D01*
X84436729Y-78111334D01*
X84431609Y-78083220D01*
X84423553Y-78064675D01*
X84411914Y-78050543D01*
X84383303Y-78030600D01*
X84335239Y-78023083D01*
X84287688Y-78042079D01*
X84284550Y-78044511D01*
X84274769Y-78055748D01*
X84267553Y-78073770D01*
X84262299Y-78103026D01*
X84258402Y-78147962D01*
X84255256Y-78213028D01*
X84252257Y-78302670D01*
X84245000Y-78542697D01*
X84183314Y-78515044D01*
X84121629Y-78487391D01*
X84121629Y-78268246D01*
X84121884Y-78208711D01*
X84124086Y-78125892D01*
X84129661Y-78064227D01*
X84139941Y-78018748D01*
X84156258Y-77984484D01*
X84179943Y-77956466D01*
X84212328Y-77929723D01*
X84258907Y-77902780D01*
X84332287Y-77885191D01*
X84406020Y-77892822D01*
G36*
X80457829Y-77926097D02*
G01*
X80517753Y-77948355D01*
X80542673Y-77965080D01*
X80567910Y-77989043D01*
X80585912Y-78019526D01*
X80597858Y-78061023D01*
X80604930Y-78118032D01*
X80608308Y-78195047D01*
X80609171Y-78296565D01*
X80609002Y-78349027D01*
X80608153Y-78420715D01*
X80606711Y-78477925D01*
X80604814Y-78515809D01*
X80602597Y-78529514D01*
X80588172Y-78524981D01*
X80559054Y-78512670D01*
X80558181Y-78512272D01*
X80543060Y-78504356D01*
X80532891Y-78493495D01*
X80526691Y-78474471D01*
X80523478Y-78442069D01*
X80522270Y-78391071D01*
X80522086Y-78316261D01*
X80521714Y-78268804D01*
X80517750Y-78179615D01*
X80508673Y-78114287D01*
X80493524Y-78069393D01*
X80471345Y-78041507D01*
X80441175Y-78027203D01*
X80436990Y-78026206D01*
X80380480Y-78025427D01*
X80336410Y-78050744D01*
X80305972Y-78101502D01*
X80300544Y-78116175D01*
X80288171Y-78148649D01*
X80281905Y-78163572D01*
X80269036Y-78161516D01*
X80240933Y-78150357D01*
X80214721Y-78131927D01*
X80202771Y-78097098D01*
X80206336Y-78072151D01*
X80228235Y-78021547D01*
X80263644Y-77974128D01*
X80305052Y-77941334D01*
X80322400Y-77933752D01*
X80388089Y-77921076D01*
X80457829Y-77926097D01*
G37*
X80457829Y-77926097D02*
X80517753Y-77948355D01*
X80542673Y-77965080D01*
X80567910Y-77989043D01*
X80585912Y-78019526D01*
X80597858Y-78061023D01*
X80604930Y-78118032D01*
X80608308Y-78195047D01*
X80609171Y-78296565D01*
X80609002Y-78349027D01*
X80608153Y-78420715D01*
X80606711Y-78477925D01*
X80604814Y-78515809D01*
X80602597Y-78529514D01*
X80588172Y-78524981D01*
X80559054Y-78512670D01*
X80558181Y-78512272D01*
X80543060Y-78504356D01*
X80532891Y-78493495D01*
X80526691Y-78474471D01*
X80523478Y-78442069D01*
X80522270Y-78391071D01*
X80522086Y-78316261D01*
X80521714Y-78268804D01*
X80517750Y-78179615D01*
X80508673Y-78114287D01*
X80493524Y-78069393D01*
X80471345Y-78041507D01*
X80441175Y-78027203D01*
X80436990Y-78026206D01*
X80380480Y-78025427D01*
X80336410Y-78050744D01*
X80305972Y-78101502D01*
X80300544Y-78116175D01*
X80288171Y-78148649D01*
X80281905Y-78163572D01*
X80269036Y-78161516D01*
X80240933Y-78150357D01*
X80214721Y-78131927D01*
X80202771Y-78097098D01*
X80206336Y-78072151D01*
X80228235Y-78021547D01*
X80263644Y-77974128D01*
X80305052Y-77941334D01*
X80322400Y-77933752D01*
X80388089Y-77921076D01*
X80457829Y-77926097D01*
G36*
X82204537Y-78281313D02*
G01*
X82196345Y-78358462D01*
X82178519Y-78416276D01*
X82148975Y-78460422D01*
X82105625Y-78496568D01*
X82064332Y-78517463D01*
X81994987Y-78529090D01*
X81925736Y-78516377D01*
X81863145Y-78480945D01*
X81813779Y-78424418D01*
X81807818Y-78413995D01*
X81799945Y-78395733D01*
X81794106Y-78372429D01*
X81789999Y-78340085D01*
X81787325Y-78294704D01*
X81785781Y-78232287D01*
X81785734Y-78226748D01*
X81886429Y-78226748D01*
X81886772Y-78279577D01*
X81888942Y-78327362D01*
X81894307Y-78358209D01*
X81904217Y-78378935D01*
X81920021Y-78396356D01*
X81923724Y-78399705D01*
X81971299Y-78424419D01*
X82021635Y-78421890D01*
X82068517Y-78392288D01*
X82082477Y-78376953D01*
X82094160Y-78356622D01*
X82100686Y-78328514D01*
X82103524Y-78285550D01*
X82104143Y-78220647D01*
X82103837Y-78171122D01*
X82101722Y-78122782D01*
X82096390Y-78091587D01*
X82086460Y-78070647D01*
X82070550Y-78053073D01*
X82061204Y-78045159D01*
X82012776Y-78023843D01*
X81962040Y-78027198D01*
X81917987Y-78055107D01*
X81908504Y-78066173D01*
X81896939Y-78087009D01*
X81890252Y-78116106D01*
X81887173Y-78160381D01*
X81886429Y-78226748D01*
X81785734Y-78226748D01*
X81785067Y-78148837D01*
X81784883Y-78040358D01*
X81784829Y-77703601D01*
X81832000Y-77723362D01*
X81844472Y-77728770D01*
X81864324Y-77740985D01*
X81875687Y-77759482D01*
X81881933Y-77791829D01*
X81886429Y-77845593D01*
X81890535Y-77893866D01*
X81895963Y-77925557D01*
X81903739Y-77937383D01*
X81915457Y-77934212D01*
X81945318Y-77923067D01*
X81998684Y-77920304D01*
X82056093Y-77930625D01*
X82105625Y-77952861D01*
X82132876Y-77973443D01*
X82167865Y-78013600D01*
X82190274Y-78065086D01*
X82202190Y-78133568D01*
X82205542Y-78220647D01*
X82205698Y-78224714D01*
X82204537Y-78281313D01*
G37*
X82204537Y-78281313D02*
X82196345Y-78358462D01*
X82178519Y-78416276D01*
X82148975Y-78460422D01*
X82105625Y-78496568D01*
X82064332Y-78517463D01*
X81994987Y-78529090D01*
X81925736Y-78516377D01*
X81863145Y-78480945D01*
X81813779Y-78424418D01*
X81807818Y-78413995D01*
X81799945Y-78395733D01*
X81794106Y-78372429D01*
X81789999Y-78340085D01*
X81787325Y-78294704D01*
X81785781Y-78232287D01*
X81785734Y-78226748D01*
X81886429Y-78226748D01*
X81886772Y-78279577D01*
X81888942Y-78327362D01*
X81894307Y-78358209D01*
X81904217Y-78378935D01*
X81920021Y-78396356D01*
X81923724Y-78399705D01*
X81971299Y-78424419D01*
X82021635Y-78421890D01*
X82068517Y-78392288D01*
X82082477Y-78376953D01*
X82094160Y-78356622D01*
X82100686Y-78328514D01*
X82103524Y-78285550D01*
X82104143Y-78220647D01*
X82103837Y-78171122D01*
X82101722Y-78122782D01*
X82096390Y-78091587D01*
X82086460Y-78070647D01*
X82070550Y-78053073D01*
X82061204Y-78045159D01*
X82012776Y-78023843D01*
X81962040Y-78027198D01*
X81917987Y-78055107D01*
X81908504Y-78066173D01*
X81896939Y-78087009D01*
X81890252Y-78116106D01*
X81887173Y-78160381D01*
X81886429Y-78226748D01*
X81785734Y-78226748D01*
X81785067Y-78148837D01*
X81784883Y-78040358D01*
X81784829Y-77703601D01*
X81832000Y-77723362D01*
X81844472Y-77728770D01*
X81864324Y-77740985D01*
X81875687Y-77759482D01*
X81881933Y-77791829D01*
X81886429Y-77845593D01*
X81890535Y-77893866D01*
X81895963Y-77925557D01*
X81903739Y-77937383D01*
X81915457Y-77934212D01*
X81945318Y-77923067D01*
X81998684Y-77920304D01*
X82056093Y-77930625D01*
X82105625Y-77952861D01*
X82132876Y-77973443D01*
X82167865Y-78013600D01*
X82190274Y-78065086D01*
X82202190Y-78133568D01*
X82205542Y-78220647D01*
X82205698Y-78224714D01*
X82204537Y-78281313D01*
G36*
X83653543Y-77724444D02*
G01*
X83700714Y-77744342D01*
X83700714Y-78141509D01*
X83700519Y-78244498D01*
X83699998Y-78337141D01*
X83699199Y-78415700D01*
X83698172Y-78476439D01*
X83696963Y-78515623D01*
X83695623Y-78529514D01*
X83695099Y-78529468D01*
X83677287Y-78524420D01*
X83644823Y-78513580D01*
X83599114Y-78497646D01*
X83599114Y-78293173D01*
X83598824Y-78212832D01*
X83597474Y-78154562D01*
X83594369Y-78114909D01*
X83588812Y-78088618D01*
X83580107Y-78070436D01*
X83567556Y-78055107D01*
X83558999Y-78046955D01*
X83512728Y-78024375D01*
X83461728Y-78026375D01*
X83414993Y-78053073D01*
X83408189Y-78059698D01*
X83397293Y-78073456D01*
X83389836Y-78091642D01*
X83385169Y-78119177D01*
X83382642Y-78160981D01*
X83381602Y-78221973D01*
X83381400Y-78307073D01*
X83381303Y-78350234D01*
X83380674Y-78421224D01*
X83379556Y-78478076D01*
X83378063Y-78515828D01*
X83376309Y-78529514D01*
X83375785Y-78529468D01*
X83357973Y-78524420D01*
X83325509Y-78513580D01*
X83279800Y-78497646D01*
X83279823Y-78292237D01*
X83279857Y-78273951D01*
X83281778Y-78178626D01*
X83287678Y-78106543D01*
X83299001Y-78052813D01*
X83317187Y-78012549D01*
X83343679Y-77980861D01*
X83379918Y-77952861D01*
X83415263Y-77935333D01*
X83471773Y-77921785D01*
X83527356Y-77921015D01*
X83570086Y-77934195D01*
X83573298Y-77936015D01*
X83583205Y-77935820D01*
X83589975Y-77920572D01*
X83594861Y-77885613D01*
X83599114Y-77826289D01*
X83606371Y-77704547D01*
X83653543Y-77724444D01*
G37*
X83653543Y-77724444D02*
X83700714Y-77744342D01*
X83700714Y-78141509D01*
X83700519Y-78244498D01*
X83699998Y-78337141D01*
X83699199Y-78415700D01*
X83698172Y-78476439D01*
X83696963Y-78515623D01*
X83695623Y-78529514D01*
X83695099Y-78529468D01*
X83677287Y-78524420D01*
X83644823Y-78513580D01*
X83599114Y-78497646D01*
X83599114Y-78293173D01*
X83598824Y-78212832D01*
X83597474Y-78154562D01*
X83594369Y-78114909D01*
X83588812Y-78088618D01*
X83580107Y-78070436D01*
X83567556Y-78055107D01*
X83558999Y-78046955D01*
X83512728Y-78024375D01*
X83461728Y-78026375D01*
X83414993Y-78053073D01*
X83408189Y-78059698D01*
X83397293Y-78073456D01*
X83389836Y-78091642D01*
X83385169Y-78119177D01*
X83382642Y-78160981D01*
X83381602Y-78221973D01*
X83381400Y-78307073D01*
X83381303Y-78350234D01*
X83380674Y-78421224D01*
X83379556Y-78478076D01*
X83378063Y-78515828D01*
X83376309Y-78529514D01*
X83375785Y-78529468D01*
X83357973Y-78524420D01*
X83325509Y-78513580D01*
X83279800Y-78497646D01*
X83279823Y-78292237D01*
X83279857Y-78273951D01*
X83281778Y-78178626D01*
X83287678Y-78106543D01*
X83299001Y-78052813D01*
X83317187Y-78012549D01*
X83343679Y-77980861D01*
X83379918Y-77952861D01*
X83415263Y-77935333D01*
X83471773Y-77921785D01*
X83527356Y-77921015D01*
X83570086Y-77934195D01*
X83573298Y-77936015D01*
X83583205Y-77935820D01*
X83589975Y-77920572D01*
X83594861Y-77885613D01*
X83599114Y-77826289D01*
X83606371Y-77704547D01*
X83653543Y-77724444D01*
G36*
X83064483Y-77935569D02*
G01*
X83114376Y-77964661D01*
X83136325Y-77987327D01*
X83178504Y-78055082D01*
X83192714Y-78128950D01*
X83192714Y-78179770D01*
X83145999Y-78160128D01*
X83113692Y-78140308D01*
X83088231Y-78099160D01*
X83085616Y-78090675D01*
X83057478Y-78047451D01*
X83015067Y-78024103D01*
X82966370Y-78023100D01*
X82919373Y-78046914D01*
X82912357Y-78053056D01*
X82888893Y-78079745D01*
X82885019Y-78103014D01*
X82902768Y-78125862D01*
X82944179Y-78151287D01*
X83011286Y-78182288D01*
X83015824Y-78184252D01*
X83090322Y-78218990D01*
X83141203Y-78249763D01*
X83172525Y-78280488D01*
X83188343Y-78315082D01*
X83192714Y-78357462D01*
X83186986Y-78404446D01*
X83158062Y-78464585D01*
X83107178Y-78507788D01*
X83070374Y-78520759D01*
X83018434Y-78527856D01*
X82967999Y-78526340D01*
X82931983Y-78515632D01*
X82928158Y-78512966D01*
X82917998Y-78494337D01*
X82925048Y-78461505D01*
X82937297Y-78435735D01*
X82956939Y-78425006D01*
X82994191Y-78425539D01*
X83045908Y-78422462D01*
X83079701Y-78401212D01*
X83091114Y-78361877D01*
X83091104Y-78360747D01*
X83084187Y-78337913D01*
X83060659Y-78316963D01*
X83014914Y-78292815D01*
X82952704Y-78263741D01*
X82911499Y-78247925D01*
X82887712Y-78248944D01*
X82876597Y-78269837D01*
X82873408Y-78313641D01*
X82873400Y-78383393D01*
X82873044Y-78426452D01*
X82871413Y-78479626D01*
X82868761Y-78516022D01*
X82865422Y-78529514D01*
X82864530Y-78529423D01*
X82845237Y-78522110D01*
X82813284Y-78506678D01*
X82769124Y-78483842D01*
X82774371Y-78278078D01*
X82774736Y-78264432D01*
X82778904Y-78168651D01*
X82786268Y-78096462D01*
X82798330Y-78043058D01*
X82816593Y-78003633D01*
X82842560Y-77973380D01*
X82877733Y-77947493D01*
X82878384Y-77947087D01*
X82935256Y-77925968D01*
X83001033Y-77922400D01*
X83064483Y-77935569D01*
G37*
X83064483Y-77935569D02*
X83114376Y-77964661D01*
X83136325Y-77987327D01*
X83178504Y-78055082D01*
X83192714Y-78128950D01*
X83192714Y-78179770D01*
X83145999Y-78160128D01*
X83113692Y-78140308D01*
X83088231Y-78099160D01*
X83085616Y-78090675D01*
X83057478Y-78047451D01*
X83015067Y-78024103D01*
X82966370Y-78023100D01*
X82919373Y-78046914D01*
X82912357Y-78053056D01*
X82888893Y-78079745D01*
X82885019Y-78103014D01*
X82902768Y-78125862D01*
X82944179Y-78151287D01*
X83011286Y-78182288D01*
X83015824Y-78184252D01*
X83090322Y-78218990D01*
X83141203Y-78249763D01*
X83172525Y-78280488D01*
X83188343Y-78315082D01*
X83192714Y-78357462D01*
X83186986Y-78404446D01*
X83158062Y-78464585D01*
X83107178Y-78507788D01*
X83070374Y-78520759D01*
X83018434Y-78527856D01*
X82967999Y-78526340D01*
X82931983Y-78515632D01*
X82928158Y-78512966D01*
X82917998Y-78494337D01*
X82925048Y-78461505D01*
X82937297Y-78435735D01*
X82956939Y-78425006D01*
X82994191Y-78425539D01*
X83045908Y-78422462D01*
X83079701Y-78401212D01*
X83091114Y-78361877D01*
X83091104Y-78360747D01*
X83084187Y-78337913D01*
X83060659Y-78316963D01*
X83014914Y-78292815D01*
X82952704Y-78263741D01*
X82911499Y-78247925D01*
X82887712Y-78248944D01*
X82876597Y-78269837D01*
X82873408Y-78313641D01*
X82873400Y-78383393D01*
X82873044Y-78426452D01*
X82871413Y-78479626D01*
X82868761Y-78516022D01*
X82865422Y-78529514D01*
X82864530Y-78529423D01*
X82845237Y-78522110D01*
X82813284Y-78506678D01*
X82769124Y-78483842D01*
X82774371Y-78278078D01*
X82774736Y-78264432D01*
X82778904Y-78168651D01*
X82786268Y-78096462D01*
X82798330Y-78043058D01*
X82816593Y-78003633D01*
X82842560Y-77973380D01*
X82877733Y-77947493D01*
X82878384Y-77947087D01*
X82935256Y-77925968D01*
X83001033Y-77922400D01*
X83064483Y-77935569D01*
G36*
X83088933Y-73217371D02*
G01*
X83164856Y-73217865D01*
X83219491Y-73219135D01*
X83256500Y-73221547D01*
X83279547Y-73225467D01*
X83292296Y-73231262D01*
X83298411Y-73239299D01*
X83301556Y-73249943D01*
X83301646Y-73250325D01*
X83306814Y-73275347D01*
X83316209Y-73323681D01*
X83328867Y-73390260D01*
X83343825Y-73470014D01*
X83360119Y-73557875D01*
X83361448Y-73565064D01*
X83377691Y-73650340D01*
X83392805Y-73725242D01*
X83405808Y-73785219D01*
X83415715Y-73825717D01*
X83421544Y-73842184D01*
X83421575Y-73842210D01*
X83439943Y-73851320D01*
X83477640Y-73866457D01*
X83526543Y-73884358D01*
X83529297Y-73885330D01*
X83591817Y-73908959D01*
X83664543Y-73938595D01*
X83732294Y-73968062D01*
X83843703Y-74018626D01*
X84090399Y-73850160D01*
X84107775Y-73838311D01*
X84182202Y-73787947D01*
X84248614Y-73743612D01*
X84303039Y-73707916D01*
X84341506Y-73683471D01*
X84360042Y-73672889D01*
X84372743Y-73675315D01*
X84401579Y-73694110D01*
X84446143Y-73731330D01*
X84507670Y-73788020D01*
X84587398Y-73865227D01*
X84594532Y-73872255D01*
X84657796Y-73935222D01*
X84713990Y-73992268D01*
X84759677Y-74039817D01*
X84791414Y-74074297D01*
X84805764Y-74092131D01*
X84805810Y-74092217D01*
X84807633Y-74105795D01*
X84800910Y-74127820D01*
X84783946Y-74161304D01*
X84755044Y-74209261D01*
X84712508Y-74274704D01*
X84654644Y-74360645D01*
X84644783Y-74375151D01*
X84594913Y-74448635D01*
X84550905Y-74513687D01*
X84515380Y-74566417D01*
X84490959Y-74602936D01*
X84480264Y-74619356D01*
X84479458Y-74622834D01*
X84484518Y-74648785D01*
X84499677Y-74691159D01*
X84522463Y-74742728D01*
X84553429Y-74810170D01*
X84588004Y-74890195D01*
X84617366Y-74962629D01*
X84624645Y-74981377D01*
X84643710Y-75029246D01*
X84657715Y-75062596D01*
X84664041Y-75075114D01*
X84671025Y-75076050D01*
X84702413Y-75081461D01*
X84753787Y-75090806D01*
X84819802Y-75103069D01*
X84895113Y-75117232D01*
X84974375Y-75132280D01*
X85052243Y-75147195D01*
X85123370Y-75160961D01*
X85182412Y-75172562D01*
X85224022Y-75180980D01*
X85242857Y-75185199D01*
X85245980Y-75186389D01*
X85253591Y-75192805D01*
X85259254Y-75206465D01*
X85263251Y-75230999D01*
X85265866Y-75270038D01*
X85267384Y-75327213D01*
X85268086Y-75406154D01*
X85268257Y-75510492D01*
X85268257Y-75827799D01*
X85192057Y-75842839D01*
X85182840Y-75844642D01*
X85133891Y-75853980D01*
X85066205Y-75866669D01*
X84987478Y-75881273D01*
X84905400Y-75896355D01*
X84873078Y-75902422D01*
X84800855Y-75917181D01*
X84740666Y-75931137D01*
X84698040Y-75942952D01*
X84678510Y-75951287D01*
X84669660Y-75964905D01*
X84653548Y-76000938D01*
X84637065Y-76047572D01*
X84631263Y-76065034D01*
X84609906Y-76122358D01*
X84582359Y-76190201D01*
X84553107Y-76257355D01*
X84537463Y-76292430D01*
X84515174Y-76344822D01*
X84499857Y-76384058D01*
X84494162Y-76403563D01*
X84494478Y-76405036D01*
X84505281Y-76425729D01*
X84529638Y-76465665D01*
X84565081Y-76520972D01*
X84609136Y-76587781D01*
X84659332Y-76662220D01*
X84824501Y-76904623D01*
X84607503Y-77121983D01*
X84586516Y-77142899D01*
X84522342Y-77205505D01*
X84464990Y-77259495D01*
X84417820Y-77301826D01*
X84384192Y-77329457D01*
X84367467Y-77339343D01*
X84349303Y-77331821D01*
X84311265Y-77310227D01*
X84257726Y-77277151D01*
X84192884Y-77235191D01*
X84120940Y-77186943D01*
X84050275Y-77139291D01*
X83986526Y-77097328D01*
X83934513Y-77064165D01*
X83898279Y-77042378D01*
X83881867Y-77034543D01*
X83880905Y-77034614D01*
X83859103Y-77042338D01*
X83820440Y-77060323D01*
X83772612Y-77085013D01*
X83772110Y-77085284D01*
X83708587Y-77117099D01*
X83665060Y-77132642D01*
X83638052Y-77132685D01*
X83624090Y-77118000D01*
X83618180Y-77103544D01*
X83602229Y-77064831D01*
X83577660Y-77005316D01*
X83545779Y-76928165D01*
X83507893Y-76836541D01*
X83465310Y-76733607D01*
X83419337Y-76622526D01*
X83377667Y-76521472D01*
X83335268Y-76417780D01*
X83297756Y-76325119D01*
X83266388Y-76246642D01*
X83242425Y-76185500D01*
X83227123Y-76144843D01*
X83221743Y-76127825D01*
X83232018Y-76112219D01*
X83260563Y-76086162D01*
X83300971Y-76055887D01*
X83397979Y-75976684D01*
X83484793Y-75875475D01*
X83548322Y-75764116D01*
X83588177Y-75645893D01*
X83603965Y-75524095D01*
X83595296Y-75402010D01*
X83561778Y-75282925D01*
X83503021Y-75170129D01*
X83418632Y-75066911D01*
X83374631Y-75026713D01*
X83269211Y-74955638D01*
X83156410Y-74909301D01*
X83039525Y-74886599D01*
X82921853Y-74886428D01*
X82806690Y-74907687D01*
X82697335Y-74949270D01*
X82597083Y-75010076D01*
X82509233Y-75089001D01*
X82437080Y-75184941D01*
X82383922Y-75296795D01*
X82353057Y-75423457D01*
X82347392Y-75484507D01*
X82355185Y-75616776D01*
X82390284Y-75742266D01*
X82451649Y-75858759D01*
X82538243Y-75964039D01*
X82649029Y-76055887D01*
X82687931Y-76084930D01*
X82717104Y-76111272D01*
X82728257Y-76127800D01*
X82723810Y-76142209D01*
X82709378Y-76180815D01*
X82686173Y-76240201D01*
X82655452Y-76317215D01*
X82618474Y-76408703D01*
X82576496Y-76511516D01*
X82530778Y-76622502D01*
X82489178Y-76723072D01*
X82446222Y-76826947D01*
X82407829Y-76919819D01*
X82375305Y-76998525D01*
X82349958Y-77059899D01*
X82333095Y-77100779D01*
X82326025Y-77118000D01*
X82325943Y-77118204D01*
X82311798Y-77132745D01*
X82284659Y-77132579D01*
X82241023Y-77116927D01*
X82177388Y-77085013D01*
X82172379Y-77082326D01*
X82125125Y-77058150D01*
X82087811Y-77041037D01*
X82068133Y-77034543D01*
X82052005Y-77042218D01*
X82015959Y-77063871D01*
X81964092Y-77096928D01*
X81900445Y-77138810D01*
X81829060Y-77186943D01*
X81758724Y-77234131D01*
X81693670Y-77276267D01*
X81639820Y-77309578D01*
X81601374Y-77331469D01*
X81582534Y-77339343D01*
X81579325Y-77338343D01*
X81556954Y-77322584D01*
X81518733Y-77290033D01*
X81468021Y-77243733D01*
X81408181Y-77186726D01*
X81342571Y-77122058D01*
X81125648Y-76904772D01*
X81294601Y-76656253D01*
X81463553Y-76407733D01*
X81412183Y-76296595D01*
X81412031Y-76296266D01*
X81381183Y-76225418D01*
X81349661Y-76146523D01*
X81324266Y-76076600D01*
X81320423Y-76065322D01*
X81301047Y-76012967D01*
X81283574Y-75972283D01*
X81271388Y-75951287D01*
X81266426Y-75948322D01*
X81236634Y-75938375D01*
X81186047Y-75925505D01*
X81120194Y-75911053D01*
X81044600Y-75896355D01*
X81021957Y-75892210D01*
X80940038Y-75877116D01*
X80863600Y-75862899D01*
X80800337Y-75850995D01*
X80757943Y-75842839D01*
X80681743Y-75827799D01*
X80681743Y-75510492D01*
X80681760Y-75471476D01*
X80682082Y-75376292D01*
X80683033Y-75305255D01*
X80684896Y-75254734D01*
X80687955Y-75221098D01*
X80692494Y-75200718D01*
X80698795Y-75189962D01*
X80707143Y-75185199D01*
X80715224Y-75183270D01*
X80748172Y-75176445D01*
X80800736Y-75166022D01*
X80867569Y-75153018D01*
X80943328Y-75138449D01*
X81022665Y-75123333D01*
X81100237Y-75108685D01*
X81170698Y-75095523D01*
X81228702Y-75084863D01*
X81268904Y-75077721D01*
X81285959Y-75075114D01*
X81287112Y-75073541D01*
X81296385Y-75053119D01*
X81312432Y-75014045D01*
X81332635Y-74962629D01*
X81360672Y-74893353D01*
X81395186Y-74813290D01*
X81427538Y-74742728D01*
X81434952Y-74726889D01*
X81455755Y-74677293D01*
X81468219Y-74639038D01*
X81469863Y-74619356D01*
X81469015Y-74617962D01*
X81455548Y-74597420D01*
X81428850Y-74557516D01*
X81391539Y-74502140D01*
X81346234Y-74435177D01*
X81295552Y-74360517D01*
X81238445Y-74275692D01*
X81195607Y-74209800D01*
X81166460Y-74161478D01*
X81149317Y-74127733D01*
X81142495Y-74105572D01*
X81144306Y-74092002D01*
X81144915Y-74090984D01*
X81161297Y-74071210D01*
X81194695Y-74035175D01*
X81241671Y-73986451D01*
X81298786Y-73928612D01*
X81362603Y-73865227D01*
X81428802Y-73800905D01*
X81493648Y-73740447D01*
X81541299Y-73699655D01*
X81572990Y-73677484D01*
X81589958Y-73672889D01*
X81592175Y-73673921D01*
X81615524Y-73687837D01*
X81657912Y-73715030D01*
X81715369Y-73752889D01*
X81783923Y-73798803D01*
X81859601Y-73850160D01*
X82106298Y-74018626D01*
X82217706Y-73968062D01*
X82220943Y-73966597D01*
X82289343Y-73936965D01*
X82361907Y-73907493D01*
X82423457Y-73884358D01*
X82423729Y-73884262D01*
X82472595Y-73866367D01*
X82510212Y-73851253D01*
X82528457Y-73842184D01*
X82528752Y-73841855D01*
X82534946Y-73823282D01*
X82545139Y-73781045D01*
X82558348Y-73719696D01*
X82573590Y-73643789D01*
X82589881Y-73557875D01*
X82590449Y-73554796D01*
X82606713Y-73467128D01*
X82621608Y-73387741D01*
X82634171Y-73321701D01*
X82643438Y-73274079D01*
X82648444Y-73249943D01*
X82648764Y-73248605D01*
X82652060Y-73238273D01*
X82658738Y-73230506D01*
X82672462Y-73224940D01*
X82696895Y-73221207D01*
X82735702Y-73218942D01*
X82792546Y-73217778D01*
X82871090Y-73217348D01*
X82975000Y-73217286D01*
X82988056Y-73217286D01*
X83088933Y-73217371D01*
G37*
X83088933Y-73217371D02*
X83164856Y-73217865D01*
X83219491Y-73219135D01*
X83256500Y-73221547D01*
X83279547Y-73225467D01*
X83292296Y-73231262D01*
X83298411Y-73239299D01*
X83301556Y-73249943D01*
X83301646Y-73250325D01*
X83306814Y-73275347D01*
X83316209Y-73323681D01*
X83328867Y-73390260D01*
X83343825Y-73470014D01*
X83360119Y-73557875D01*
X83361448Y-73565064D01*
X83377691Y-73650340D01*
X83392805Y-73725242D01*
X83405808Y-73785219D01*
X83415715Y-73825717D01*
X83421544Y-73842184D01*
X83421575Y-73842210D01*
X83439943Y-73851320D01*
X83477640Y-73866457D01*
X83526543Y-73884358D01*
X83529297Y-73885330D01*
X83591817Y-73908959D01*
X83664543Y-73938595D01*
X83732294Y-73968062D01*
X83843703Y-74018626D01*
X84090399Y-73850160D01*
X84107775Y-73838311D01*
X84182202Y-73787947D01*
X84248614Y-73743612D01*
X84303039Y-73707916D01*
X84341506Y-73683471D01*
X84360042Y-73672889D01*
X84372743Y-73675315D01*
X84401579Y-73694110D01*
X84446143Y-73731330D01*
X84507670Y-73788020D01*
X84587398Y-73865227D01*
X84594532Y-73872255D01*
X84657796Y-73935222D01*
X84713990Y-73992268D01*
X84759677Y-74039817D01*
X84791414Y-74074297D01*
X84805764Y-74092131D01*
X84805810Y-74092217D01*
X84807633Y-74105795D01*
X84800910Y-74127820D01*
X84783946Y-74161304D01*
X84755044Y-74209261D01*
X84712508Y-74274704D01*
X84654644Y-74360645D01*
X84644783Y-74375151D01*
X84594913Y-74448635D01*
X84550905Y-74513687D01*
X84515380Y-74566417D01*
X84490959Y-74602936D01*
X84480264Y-74619356D01*
X84479458Y-74622834D01*
X84484518Y-74648785D01*
X84499677Y-74691159D01*
X84522463Y-74742728D01*
X84553429Y-74810170D01*
X84588004Y-74890195D01*
X84617366Y-74962629D01*
X84624645Y-74981377D01*
X84643710Y-75029246D01*
X84657715Y-75062596D01*
X84664041Y-75075114D01*
X84671025Y-75076050D01*
X84702413Y-75081461D01*
X84753787Y-75090806D01*
X84819802Y-75103069D01*
X84895113Y-75117232D01*
X84974375Y-75132280D01*
X85052243Y-75147195D01*
X85123370Y-75160961D01*
X85182412Y-75172562D01*
X85224022Y-75180980D01*
X85242857Y-75185199D01*
X85245980Y-75186389D01*
X85253591Y-75192805D01*
X85259254Y-75206465D01*
X85263251Y-75230999D01*
X85265866Y-75270038D01*
X85267384Y-75327213D01*
X85268086Y-75406154D01*
X85268257Y-75510492D01*
X85268257Y-75827799D01*
X85192057Y-75842839D01*
X85182840Y-75844642D01*
X85133891Y-75853980D01*
X85066205Y-75866669D01*
X84987478Y-75881273D01*
X84905400Y-75896355D01*
X84873078Y-75902422D01*
X84800855Y-75917181D01*
X84740666Y-75931137D01*
X84698040Y-75942952D01*
X84678510Y-75951287D01*
X84669660Y-75964905D01*
X84653548Y-76000938D01*
X84637065Y-76047572D01*
X84631263Y-76065034D01*
X84609906Y-76122358D01*
X84582359Y-76190201D01*
X84553107Y-76257355D01*
X84537463Y-76292430D01*
X84515174Y-76344822D01*
X84499857Y-76384058D01*
X84494162Y-76403563D01*
X84494478Y-76405036D01*
X84505281Y-76425729D01*
X84529638Y-76465665D01*
X84565081Y-76520972D01*
X84609136Y-76587781D01*
X84659332Y-76662220D01*
X84824501Y-76904623D01*
X84607503Y-77121983D01*
X84586516Y-77142899D01*
X84522342Y-77205505D01*
X84464990Y-77259495D01*
X84417820Y-77301826D01*
X84384192Y-77329457D01*
X84367467Y-77339343D01*
X84349303Y-77331821D01*
X84311265Y-77310227D01*
X84257726Y-77277151D01*
X84192884Y-77235191D01*
X84120940Y-77186943D01*
X84050275Y-77139291D01*
X83986526Y-77097328D01*
X83934513Y-77064165D01*
X83898279Y-77042378D01*
X83881867Y-77034543D01*
X83880905Y-77034614D01*
X83859103Y-77042338D01*
X83820440Y-77060323D01*
X83772612Y-77085013D01*
X83772110Y-77085284D01*
X83708587Y-77117099D01*
X83665060Y-77132642D01*
X83638052Y-77132685D01*
X83624090Y-77118000D01*
X83618180Y-77103544D01*
X83602229Y-77064831D01*
X83577660Y-77005316D01*
X83545779Y-76928165D01*
X83507893Y-76836541D01*
X83465310Y-76733607D01*
X83419337Y-76622526D01*
X83377667Y-76521472D01*
X83335268Y-76417780D01*
X83297756Y-76325119D01*
X83266388Y-76246642D01*
X83242425Y-76185500D01*
X83227123Y-76144843D01*
X83221743Y-76127825D01*
X83232018Y-76112219D01*
X83260563Y-76086162D01*
X83300971Y-76055887D01*
X83397979Y-75976684D01*
X83484793Y-75875475D01*
X83548322Y-75764116D01*
X83588177Y-75645893D01*
X83603965Y-75524095D01*
X83595296Y-75402010D01*
X83561778Y-75282925D01*
X83503021Y-75170129D01*
X83418632Y-75066911D01*
X83374631Y-75026713D01*
X83269211Y-74955638D01*
X83156410Y-74909301D01*
X83039525Y-74886599D01*
X82921853Y-74886428D01*
X82806690Y-74907687D01*
X82697335Y-74949270D01*
X82597083Y-75010076D01*
X82509233Y-75089001D01*
X82437080Y-75184941D01*
X82383922Y-75296795D01*
X82353057Y-75423457D01*
X82347392Y-75484507D01*
X82355185Y-75616776D01*
X82390284Y-75742266D01*
X82451649Y-75858759D01*
X82538243Y-75964039D01*
X82649029Y-76055887D01*
X82687931Y-76084930D01*
X82717104Y-76111272D01*
X82728257Y-76127800D01*
X82723810Y-76142209D01*
X82709378Y-76180815D01*
X82686173Y-76240201D01*
X82655452Y-76317215D01*
X82618474Y-76408703D01*
X82576496Y-76511516D01*
X82530778Y-76622502D01*
X82489178Y-76723072D01*
X82446222Y-76826947D01*
X82407829Y-76919819D01*
X82375305Y-76998525D01*
X82349958Y-77059899D01*
X82333095Y-77100779D01*
X82326025Y-77118000D01*
X82325943Y-77118204D01*
X82311798Y-77132745D01*
X82284659Y-77132579D01*
X82241023Y-77116927D01*
X82177388Y-77085013D01*
X82172379Y-77082326D01*
X82125125Y-77058150D01*
X82087811Y-77041037D01*
X82068133Y-77034543D01*
X82052005Y-77042218D01*
X82015959Y-77063871D01*
X81964092Y-77096928D01*
X81900445Y-77138810D01*
X81829060Y-77186943D01*
X81758724Y-77234131D01*
X81693670Y-77276267D01*
X81639820Y-77309578D01*
X81601374Y-77331469D01*
X81582534Y-77339343D01*
X81579325Y-77338343D01*
X81556954Y-77322584D01*
X81518733Y-77290033D01*
X81468021Y-77243733D01*
X81408181Y-77186726D01*
X81342571Y-77122058D01*
X81125648Y-76904772D01*
X81294601Y-76656253D01*
X81463553Y-76407733D01*
X81412183Y-76296595D01*
X81412031Y-76296266D01*
X81381183Y-76225418D01*
X81349661Y-76146523D01*
X81324266Y-76076600D01*
X81320423Y-76065322D01*
X81301047Y-76012967D01*
X81283574Y-75972283D01*
X81271388Y-75951287D01*
X81266426Y-75948322D01*
X81236634Y-75938375D01*
X81186047Y-75925505D01*
X81120194Y-75911053D01*
X81044600Y-75896355D01*
X81021957Y-75892210D01*
X80940038Y-75877116D01*
X80863600Y-75862899D01*
X80800337Y-75850995D01*
X80757943Y-75842839D01*
X80681743Y-75827799D01*
X80681743Y-75510492D01*
X80681760Y-75471476D01*
X80682082Y-75376292D01*
X80683033Y-75305255D01*
X80684896Y-75254734D01*
X80687955Y-75221098D01*
X80692494Y-75200718D01*
X80698795Y-75189962D01*
X80707143Y-75185199D01*
X80715224Y-75183270D01*
X80748172Y-75176445D01*
X80800736Y-75166022D01*
X80867569Y-75153018D01*
X80943328Y-75138449D01*
X81022665Y-75123333D01*
X81100237Y-75108685D01*
X81170698Y-75095523D01*
X81228702Y-75084863D01*
X81268904Y-75077721D01*
X81285959Y-75075114D01*
X81287112Y-75073541D01*
X81296385Y-75053119D01*
X81312432Y-75014045D01*
X81332635Y-74962629D01*
X81360672Y-74893353D01*
X81395186Y-74813290D01*
X81427538Y-74742728D01*
X81434952Y-74726889D01*
X81455755Y-74677293D01*
X81468219Y-74639038D01*
X81469863Y-74619356D01*
X81469015Y-74617962D01*
X81455548Y-74597420D01*
X81428850Y-74557516D01*
X81391539Y-74502140D01*
X81346234Y-74435177D01*
X81295552Y-74360517D01*
X81238445Y-74275692D01*
X81195607Y-74209800D01*
X81166460Y-74161478D01*
X81149317Y-74127733D01*
X81142495Y-74105572D01*
X81144306Y-74092002D01*
X81144915Y-74090984D01*
X81161297Y-74071210D01*
X81194695Y-74035175D01*
X81241671Y-73986451D01*
X81298786Y-73928612D01*
X81362603Y-73865227D01*
X81428802Y-73800905D01*
X81493648Y-73740447D01*
X81541299Y-73699655D01*
X81572990Y-73677484D01*
X81589958Y-73672889D01*
X81592175Y-73673921D01*
X81615524Y-73687837D01*
X81657912Y-73715030D01*
X81715369Y-73752889D01*
X81783923Y-73798803D01*
X81859601Y-73850160D01*
X82106298Y-74018626D01*
X82217706Y-73968062D01*
X82220943Y-73966597D01*
X82289343Y-73936965D01*
X82361907Y-73907493D01*
X82423457Y-73884358D01*
X82423729Y-73884262D01*
X82472595Y-73866367D01*
X82510212Y-73851253D01*
X82528457Y-73842184D01*
X82528752Y-73841855D01*
X82534946Y-73823282D01*
X82545139Y-73781045D01*
X82558348Y-73719696D01*
X82573590Y-73643789D01*
X82589881Y-73557875D01*
X82590449Y-73554796D01*
X82606713Y-73467128D01*
X82621608Y-73387741D01*
X82634171Y-73321701D01*
X82643438Y-73274079D01*
X82648444Y-73249943D01*
X82648764Y-73248605D01*
X82652060Y-73238273D01*
X82658738Y-73230506D01*
X82672462Y-73224940D01*
X82696895Y-73221207D01*
X82735702Y-73218942D01*
X82792546Y-73217778D01*
X82871090Y-73217348D01*
X82975000Y-73217286D01*
X82988056Y-73217286D01*
X83088933Y-73217371D01*
G36*
X80942495Y-77921220D02*
G01*
X80973599Y-77929121D01*
X81002559Y-77948817D01*
X81039831Y-77985484D01*
X81063801Y-78011378D01*
X81088770Y-78044997D01*
X81100031Y-78076506D01*
X81102657Y-78116485D01*
X81102657Y-78181917D01*
X81058035Y-78158842D01*
X81022673Y-78130724D01*
X80998451Y-78092848D01*
X80994291Y-78082551D01*
X80962594Y-78042637D01*
X80918554Y-78022624D01*
X80870531Y-78024572D01*
X80826886Y-78050543D01*
X80808420Y-78071635D01*
X80797663Y-78098619D01*
X80809178Y-78122634D01*
X80844981Y-78146791D01*
X80907090Y-78174199D01*
X80916515Y-78177985D01*
X80973058Y-78202759D01*
X81021580Y-78227189D01*
X81052451Y-78246486D01*
X81083371Y-78280953D01*
X81103927Y-78335957D01*
X81101744Y-78394983D01*
X81077424Y-78450845D01*
X81031568Y-78496355D01*
X80994438Y-78515727D01*
X80922711Y-78529292D01*
X80882852Y-78527462D01*
X80845953Y-78517568D01*
X80831797Y-78496806D01*
X80837091Y-78462613D01*
X80838631Y-78458092D01*
X80850842Y-78434116D01*
X80871174Y-78425042D01*
X80909908Y-78425649D01*
X80937257Y-78426474D01*
X80969257Y-78419392D01*
X80991182Y-78398219D01*
X81003670Y-78372152D01*
X81005062Y-78344845D01*
X81004998Y-78344685D01*
X80988807Y-78329930D01*
X80954155Y-78308457D01*
X80909321Y-78284458D01*
X80862582Y-78262125D01*
X80822217Y-78245652D01*
X80796504Y-78239229D01*
X80792679Y-78245518D01*
X80787864Y-78275115D01*
X80784566Y-78323447D01*
X80783343Y-78384372D01*
X80783058Y-78426542D01*
X80781718Y-78479653D01*
X80779528Y-78516025D01*
X80776769Y-78529514D01*
X80762344Y-78524981D01*
X80733226Y-78512670D01*
X80696257Y-78495826D01*
X80696257Y-78279721D01*
X80696493Y-78224327D01*
X80698729Y-78140207D01*
X80704423Y-78077800D01*
X80714903Y-78032358D01*
X80731497Y-77999133D01*
X80755531Y-77973378D01*
X80788333Y-77950344D01*
X80830124Y-77931335D01*
X80907287Y-77919914D01*
X80942495Y-77921220D01*
G37*
X80942495Y-77921220D02*
X80973599Y-77929121D01*
X81002559Y-77948817D01*
X81039831Y-77985484D01*
X81063801Y-78011378D01*
X81088770Y-78044997D01*
X81100031Y-78076506D01*
X81102657Y-78116485D01*
X81102657Y-78181917D01*
X81058035Y-78158842D01*
X81022673Y-78130724D01*
X80998451Y-78092848D01*
X80994291Y-78082551D01*
X80962594Y-78042637D01*
X80918554Y-78022624D01*
X80870531Y-78024572D01*
X80826886Y-78050543D01*
X80808420Y-78071635D01*
X80797663Y-78098619D01*
X80809178Y-78122634D01*
X80844981Y-78146791D01*
X80907090Y-78174199D01*
X80916515Y-78177985D01*
X80973058Y-78202759D01*
X81021580Y-78227189D01*
X81052451Y-78246486D01*
X81083371Y-78280953D01*
X81103927Y-78335957D01*
X81101744Y-78394983D01*
X81077424Y-78450845D01*
X81031568Y-78496355D01*
X80994438Y-78515727D01*
X80922711Y-78529292D01*
X80882852Y-78527462D01*
X80845953Y-78517568D01*
X80831797Y-78496806D01*
X80837091Y-78462613D01*
X80838631Y-78458092D01*
X80850842Y-78434116D01*
X80871174Y-78425042D01*
X80909908Y-78425649D01*
X80937257Y-78426474D01*
X80969257Y-78419392D01*
X80991182Y-78398219D01*
X81003670Y-78372152D01*
X81005062Y-78344845D01*
X81004998Y-78344685D01*
X80988807Y-78329930D01*
X80954155Y-78308457D01*
X80909321Y-78284458D01*
X80862582Y-78262125D01*
X80822217Y-78245652D01*
X80796504Y-78239229D01*
X80792679Y-78245518D01*
X80787864Y-78275115D01*
X80784566Y-78323447D01*
X80783343Y-78384372D01*
X80783058Y-78426542D01*
X80781718Y-78479653D01*
X80779528Y-78516025D01*
X80776769Y-78529514D01*
X80762344Y-78524981D01*
X80733226Y-78512670D01*
X80696257Y-78495826D01*
X80696257Y-78279721D01*
X80696493Y-78224327D01*
X80698729Y-78140207D01*
X80704423Y-78077800D01*
X80714903Y-78032358D01*
X80731497Y-77999133D01*
X80755531Y-77973378D01*
X80788333Y-77950344D01*
X80830124Y-77931335D01*
X80907287Y-77919914D01*
X80942495Y-77921220D01*
G36*
X85132684Y-78279078D02*
G01*
X85130078Y-78302387D01*
X85110660Y-78385352D01*
X85075573Y-78448448D01*
X85022212Y-78496808D01*
X85019196Y-78498804D01*
X84951362Y-78527185D01*
X84880535Y-78529711D01*
X84812289Y-78508097D01*
X84752196Y-78464062D01*
X84705829Y-78399322D01*
X84705050Y-78397761D01*
X84689643Y-78357558D01*
X84678357Y-78311866D01*
X84672370Y-78268972D01*
X84672861Y-78237160D01*
X84681007Y-78224714D01*
X84688244Y-78225471D01*
X84722851Y-78239235D01*
X84762078Y-78264546D01*
X84795448Y-78293845D01*
X84812483Y-78319572D01*
X84830192Y-78354471D01*
X84866485Y-78386212D01*
X84908630Y-78398886D01*
X84924077Y-78395221D01*
X84954569Y-78376774D01*
X84981128Y-78351166D01*
X84992486Y-78327934D01*
X84992482Y-78327848D01*
X84979596Y-78317179D01*
X84945241Y-78297933D01*
X84894593Y-78272813D01*
X84832829Y-78244524D01*
X84832489Y-78244374D01*
X84765388Y-78214498D01*
X84720411Y-78192973D01*
X84693145Y-78176437D01*
X84679178Y-78161531D01*
X84674097Y-78144893D01*
X84673490Y-78123162D01*
X84677712Y-78082013D01*
X84821000Y-78082013D01*
X84835791Y-78094949D01*
X84872644Y-78114333D01*
X84873725Y-78114881D01*
X84917205Y-78135587D01*
X84956102Y-78152105D01*
X84980778Y-78159093D01*
X84990676Y-78149753D01*
X84992486Y-78117748D01*
X84984966Y-78077915D01*
X84958897Y-78041717D01*
X84921154Y-78022950D01*
X84879077Y-78024845D01*
X84840005Y-78050632D01*
X84824647Y-78068451D01*
X84821000Y-78082013D01*
X84677712Y-78082013D01*
X84678833Y-78071086D01*
X84705251Y-78000335D01*
X84749473Y-77944735D01*
X84806697Y-77906239D01*
X84872120Y-77886797D01*
X84940937Y-77888359D01*
X85008347Y-77912878D01*
X85069544Y-77962302D01*
X85103450Y-78011212D01*
X85127806Y-78081027D01*
X85131767Y-78117748D01*
X85137299Y-78169055D01*
X85132684Y-78279078D01*
G37*
X85132684Y-78279078D02*
X85130078Y-78302387D01*
X85110660Y-78385352D01*
X85075573Y-78448448D01*
X85022212Y-78496808D01*
X85019196Y-78498804D01*
X84951362Y-78527185D01*
X84880535Y-78529711D01*
X84812289Y-78508097D01*
X84752196Y-78464062D01*
X84705829Y-78399322D01*
X84705050Y-78397761D01*
X84689643Y-78357558D01*
X84678357Y-78311866D01*
X84672370Y-78268972D01*
X84672861Y-78237160D01*
X84681007Y-78224714D01*
X84688244Y-78225471D01*
X84722851Y-78239235D01*
X84762078Y-78264546D01*
X84795448Y-78293845D01*
X84812483Y-78319572D01*
X84830192Y-78354471D01*
X84866485Y-78386212D01*
X84908630Y-78398886D01*
X84924077Y-78395221D01*
X84954569Y-78376774D01*
X84981128Y-78351166D01*
X84992486Y-78327934D01*
X84992482Y-78327848D01*
X84979596Y-78317179D01*
X84945241Y-78297933D01*
X84894593Y-78272813D01*
X84832829Y-78244524D01*
X84832489Y-78244374D01*
X84765388Y-78214498D01*
X84720411Y-78192973D01*
X84693145Y-78176437D01*
X84679178Y-78161531D01*
X84674097Y-78144893D01*
X84673490Y-78123162D01*
X84677712Y-78082013D01*
X84821000Y-78082013D01*
X84835791Y-78094949D01*
X84872644Y-78114333D01*
X84873725Y-78114881D01*
X84917205Y-78135587D01*
X84956102Y-78152105D01*
X84980778Y-78159093D01*
X84990676Y-78149753D01*
X84992486Y-78117748D01*
X84984966Y-78077915D01*
X84958897Y-78041717D01*
X84921154Y-78022950D01*
X84879077Y-78024845D01*
X84840005Y-78050632D01*
X84824647Y-78068451D01*
X84821000Y-78082013D01*
X84677712Y-78082013D01*
X84678833Y-78071086D01*
X84705251Y-78000335D01*
X84749473Y-77944735D01*
X84806697Y-77906239D01*
X84872120Y-77886797D01*
X84940937Y-77888359D01*
X85008347Y-77912878D01*
X85069544Y-77962302D01*
X85103450Y-78011212D01*
X85127806Y-78081027D01*
X85131767Y-78117748D01*
X85137299Y-78169055D01*
X85132684Y-78279078D01*
G36*
X82582691Y-77941467D02*
G01*
X82587273Y-77944003D01*
X82624704Y-77973057D01*
X82658170Y-78010410D01*
X82664007Y-78018852D01*
X82675165Y-78038553D01*
X82683136Y-78061935D01*
X82688618Y-78094067D01*
X82692307Y-78140019D01*
X82694899Y-78204859D01*
X82697092Y-78293657D01*
X82697402Y-78308669D01*
X82698400Y-78405999D01*
X82696994Y-78474934D01*
X82693164Y-78515948D01*
X82686889Y-78529514D01*
X82667898Y-78525452D01*
X82635638Y-78513144D01*
X82628041Y-78509545D01*
X82616176Y-78501398D01*
X82607994Y-78488004D01*
X82602643Y-78464608D01*
X82599269Y-78426455D01*
X82597019Y-78368790D01*
X82595040Y-78286857D01*
X82594498Y-78262907D01*
X82592403Y-78187266D01*
X82589683Y-78134328D01*
X82585515Y-78099075D01*
X82579079Y-78076487D01*
X82569550Y-78061544D01*
X82556106Y-78049227D01*
X82516305Y-78027634D01*
X82467341Y-78023476D01*
X82423529Y-78039999D01*
X82392008Y-78074210D01*
X82379914Y-78123114D01*
X82379578Y-78136407D01*
X82372972Y-78160472D01*
X82353470Y-78164144D01*
X82315283Y-78149813D01*
X82306438Y-78145217D01*
X82282534Y-78118186D01*
X82282061Y-78077994D01*
X82304836Y-78022409D01*
X82325727Y-77992117D01*
X82379142Y-77949084D01*
X82445074Y-77924755D01*
X82515574Y-77921443D01*
X82582691Y-77941467D01*
G37*
X82582691Y-77941467D02*
X82587273Y-77944003D01*
X82624704Y-77973057D01*
X82658170Y-78010410D01*
X82664007Y-78018852D01*
X82675165Y-78038553D01*
X82683136Y-78061935D01*
X82688618Y-78094067D01*
X82692307Y-78140019D01*
X82694899Y-78204859D01*
X82697092Y-78293657D01*
X82697402Y-78308669D01*
X82698400Y-78405999D01*
X82696994Y-78474934D01*
X82693164Y-78515948D01*
X82686889Y-78529514D01*
X82667898Y-78525452D01*
X82635638Y-78513144D01*
X82628041Y-78509545D01*
X82616176Y-78501398D01*
X82607994Y-78488004D01*
X82602643Y-78464608D01*
X82599269Y-78426455D01*
X82597019Y-78368790D01*
X82595040Y-78286857D01*
X82594498Y-78262907D01*
X82592403Y-78187266D01*
X82589683Y-78134328D01*
X82585515Y-78099075D01*
X82579079Y-78076487D01*
X82569550Y-78061544D01*
X82556106Y-78049227D01*
X82516305Y-78027634D01*
X82467341Y-78023476D01*
X82423529Y-78039999D01*
X82392008Y-78074210D01*
X82379914Y-78123114D01*
X82379578Y-78136407D01*
X82372972Y-78160472D01*
X82353470Y-78164144D01*
X82315283Y-78149813D01*
X82306438Y-78145217D01*
X82282534Y-78118186D01*
X82282061Y-78077994D01*
X82304836Y-78022409D01*
X82325727Y-77992117D01*
X82379142Y-77949084D01*
X82445074Y-77924755D01*
X82515574Y-77921443D01*
X82582691Y-77941467D01*
G36*
X85686252Y-78388000D02*
G01*
X85686651Y-78420339D01*
X85687929Y-78528455D01*
X85688185Y-78611186D01*
X85686634Y-78671426D01*
X85682490Y-78712073D01*
X85674964Y-78736023D01*
X85663271Y-78746171D01*
X85646624Y-78745414D01*
X85624236Y-78736648D01*
X85595321Y-78722769D01*
X85589142Y-78719808D01*
X85563413Y-78705311D01*
X85549976Y-78688065D01*
X85544834Y-78659308D01*
X85543990Y-78610283D01*
X85543952Y-78522257D01*
X85453276Y-78522257D01*
X85397498Y-78519815D01*
X85353640Y-78509908D01*
X85317218Y-78489886D01*
X85314503Y-78487929D01*
X85277546Y-78454869D01*
X85251826Y-78414931D01*
X85235606Y-78362657D01*
X85227148Y-78292588D01*
X85225083Y-78213430D01*
X85369857Y-78213430D01*
X85369882Y-78226697D01*
X85371261Y-78286584D01*
X85375687Y-78325732D01*
X85384461Y-78351153D01*
X85398886Y-78369857D01*
X85399784Y-78370750D01*
X85435237Y-78394952D01*
X85469596Y-78392567D01*
X85508403Y-78363260D01*
X85517895Y-78353244D01*
X85531876Y-78332708D01*
X85539760Y-78305997D01*
X85543245Y-78265499D01*
X85544029Y-78203603D01*
X85543350Y-78166130D01*
X85535983Y-78097980D01*
X85519168Y-78053330D01*
X85491234Y-78028926D01*
X85450509Y-78021514D01*
X85433350Y-78023094D01*
X85403660Y-78038766D01*
X85384031Y-78073691D01*
X85373188Y-78130901D01*
X85369857Y-78213430D01*
X85225083Y-78213430D01*
X85224714Y-78199267D01*
X85225253Y-78131169D01*
X85227707Y-78079587D01*
X85233158Y-78043816D01*
X85242686Y-78017015D01*
X85257371Y-77992338D01*
X85270852Y-77973480D01*
X85319799Y-77922568D01*
X85375256Y-77894918D01*
X85444928Y-77886165D01*
X85524664Y-77894890D01*
X85593595Y-77926185D01*
X85648113Y-77981381D01*
X85652223Y-77987224D01*
X85661808Y-78002753D01*
X85669151Y-78020498D01*
X85674612Y-78044290D01*
X85678550Y-78077958D01*
X85681323Y-78125333D01*
X85683292Y-78190245D01*
X85683528Y-78203603D01*
X85684815Y-78276524D01*
X85686252Y-78388000D01*
G37*
X85686252Y-78388000D02*
X85686651Y-78420339D01*
X85687929Y-78528455D01*
X85688185Y-78611186D01*
X85686634Y-78671426D01*
X85682490Y-78712073D01*
X85674964Y-78736023D01*
X85663271Y-78746171D01*
X85646624Y-78745414D01*
X85624236Y-78736648D01*
X85595321Y-78722769D01*
X85589142Y-78719808D01*
X85563413Y-78705311D01*
X85549976Y-78688065D01*
X85544834Y-78659308D01*
X85543990Y-78610283D01*
X85543952Y-78522257D01*
X85453276Y-78522257D01*
X85397498Y-78519815D01*
X85353640Y-78509908D01*
X85317218Y-78489886D01*
X85314503Y-78487929D01*
X85277546Y-78454869D01*
X85251826Y-78414931D01*
X85235606Y-78362657D01*
X85227148Y-78292588D01*
X85225083Y-78213430D01*
X85369857Y-78213430D01*
X85369882Y-78226697D01*
X85371261Y-78286584D01*
X85375687Y-78325732D01*
X85384461Y-78351153D01*
X85398886Y-78369857D01*
X85399784Y-78370750D01*
X85435237Y-78394952D01*
X85469596Y-78392567D01*
X85508403Y-78363260D01*
X85517895Y-78353244D01*
X85531876Y-78332708D01*
X85539760Y-78305997D01*
X85543245Y-78265499D01*
X85544029Y-78203603D01*
X85543350Y-78166130D01*
X85535983Y-78097980D01*
X85519168Y-78053330D01*
X85491234Y-78028926D01*
X85450509Y-78021514D01*
X85433350Y-78023094D01*
X85403660Y-78038766D01*
X85384031Y-78073691D01*
X85373188Y-78130901D01*
X85369857Y-78213430D01*
X85225083Y-78213430D01*
X85224714Y-78199267D01*
X85225253Y-78131169D01*
X85227707Y-78079587D01*
X85233158Y-78043816D01*
X85242686Y-78017015D01*
X85257371Y-77992338D01*
X85270852Y-77973480D01*
X85319799Y-77922568D01*
X85375256Y-77894918D01*
X85444928Y-77886165D01*
X85524664Y-77894890D01*
X85593595Y-77926185D01*
X85648113Y-77981381D01*
X85652223Y-77987224D01*
X85661808Y-78002753D01*
X85669151Y-78020498D01*
X85674612Y-78044290D01*
X85678550Y-78077958D01*
X85681323Y-78125333D01*
X85683292Y-78190245D01*
X85683528Y-78203603D01*
X85684815Y-78276524D01*
X85686252Y-78388000D01*
D12*
%TO.C,C7*%
X78563748Y-81565000D02*
X79086252Y-81565000D01*
X78563748Y-83035000D02*
X79086252Y-83035000D01*
%TO.C,U1*%
X68285000Y-82925000D02*
X68285000Y-82275000D01*
X65165000Y-82925000D02*
X65165000Y-83575000D01*
X65165000Y-82925000D02*
X65165000Y-81250000D01*
X68285000Y-82925000D02*
X68285000Y-83575000D01*
%TO.C,R1*%
X87977064Y-93985000D02*
X87522936Y-93985000D01*
X87977064Y-92515000D02*
X87522936Y-92515000D01*
%TO.C,C2*%
X82715000Y-90111252D02*
X82715000Y-89588748D01*
X84185000Y-90111252D02*
X84185000Y-89588748D01*
%TO.C,R3*%
X100490000Y-86297936D02*
X100490000Y-86752064D01*
X101960000Y-86297936D02*
X101960000Y-86752064D01*
%TO.C,C4*%
X69165000Y-77936252D02*
X69165000Y-77413748D01*
X70635000Y-77936252D02*
X70635000Y-77413748D01*
%TO.C,Q3*%
X103765000Y-85687500D02*
X103765000Y-86337500D01*
X106885000Y-85687500D02*
X106885000Y-85037500D01*
X103765000Y-85687500D02*
X103765000Y-85037500D01*
X106885000Y-85687500D02*
X106885000Y-87362500D01*
%TO.C,R6*%
X107560000Y-91177064D02*
X107560000Y-90722936D01*
X106090000Y-91177064D02*
X106090000Y-90722936D01*
%TO.C,C1*%
X69160000Y-84726248D02*
X69160000Y-85248752D01*
X67690000Y-84726248D02*
X67690000Y-85248752D01*
%TO.C,Q2*%
X62375000Y-86135000D02*
X60700000Y-86135000D01*
X62375000Y-83015000D02*
X63025000Y-83015000D01*
X62375000Y-86135000D02*
X63025000Y-86135000D01*
X62375000Y-83015000D02*
X61725000Y-83015000D01*
%TO.C,Q1*%
X73110000Y-81937500D02*
X73110000Y-81287500D01*
X73110000Y-81937500D02*
X73110000Y-82587500D01*
X69990000Y-81937500D02*
X69990000Y-80262500D01*
X69990000Y-81937500D02*
X69990000Y-82587500D01*
%TO.C,JP3*%
X92475000Y-80825000D02*
X94475000Y-80825000D01*
X94475000Y-80825000D02*
X94475000Y-78025000D01*
X94475000Y-78025000D02*
X92475000Y-78025000D01*
X92475000Y-78025000D02*
X92475000Y-80825000D01*
%TO.C,R2*%
X95772936Y-91060000D02*
X96227064Y-91060000D01*
X95772936Y-89590000D02*
X96227064Y-89590000D01*
%TD*%
M02*
