M48
; DRILL file {KiCad 6.0.2+dfsg-1} date Tue 31 Jan 2023 01:35:32 PM EST
; FORMAT={-:-/ absolute / inch / decimal}
; #@! TF.CreationDate,2023-01-31T13:35:32-05:00
; #@! TF.GenerationSoftware,Kicad,Pcbnew,6.0.2+dfsg-1
; #@! TF.FileFunction,Plated,1,2,PTH
FMAT,2
INCH
; #@! TA.AperFunction,Plated,PTH,ViaDrill
T1C0.0157
%
G90
G05
T1
X4.7992Y-3.2598
X4.7992Y-3.3307
X4.8465Y-3.3976
X4.9646Y-3.437
X4.9921Y-3.3661
X5.0Y-3.2835
X5.0787Y-3.4055
X5.1024Y-3.2402
X5.252Y-3.374
X5.2559Y-3.2638
X5.3408Y-3.2221
X5.3622Y-3.2953
X5.4321Y-3.374
X5.4606Y-3.2953
X5.4606Y-3.4331
X5.5197Y-3.4449
X5.5315Y-3.189
X5.5748Y-3.3189
X5.622Y-3.3898
X5.7047Y-3.1969
X5.752Y-3.2559
X5.7598Y-3.3346
T0
M30
