%TF.GenerationSoftware,KiCad,Pcbnew,6.0.2+dfsg-1*%
%TF.CreationDate,2023-02-05T14:05:13-05:00*%
%TF.ProjectId,qwiic5v-shifter,71776969-6335-4762-9d73-686966746572,2.0*%
%TF.SameCoordinates,Original*%
%TF.FileFunction,Copper,L1,Top*%
%TF.FilePolarity,Positive*%
%FSLAX46Y46*%
G04 Gerber Fmt 4.6, Leading zero omitted, Abs format (unit mm)*
G04 Created by KiCad (PCBNEW 6.0.2+dfsg-1) date 2023-02-05 14:05:13*
%MOMM*%
%LPD*%
G01*
G04 APERTURE LIST*
G04 Aperture macros list*
%AMRoundRect*
0 Rectangle with rounded corners*
0 $1 Rounding radius*
0 $2 $3 $4 $5 $6 $7 $8 $9 X,Y pos of 4 corners*
0 Add a 4 corners polygon primitive as box body*
4,1,4,$2,$3,$4,$5,$6,$7,$8,$9,$2,$3,0*
0 Add four circle primitives for the rounded corners*
1,1,$1+$1,$2,$3*
1,1,$1+$1,$4,$5*
1,1,$1+$1,$6,$7*
1,1,$1+$1,$8,$9*
0 Add four rect primitives between the rounded corners*
20,1,$1+$1,$2,$3,$4,$5,0*
20,1,$1+$1,$4,$5,$6,$7,0*
20,1,$1+$1,$6,$7,$8,$9,0*
20,1,$1+$1,$8,$9,$2,$3,0*%
G04 Aperture macros list end*
%TA.AperFunction,SMDPad,CuDef*%
%ADD10RoundRect,0.250000X-0.475000X0.337500X-0.475000X-0.337500X0.475000X-0.337500X0.475000X0.337500X0*%
%TD*%
%TA.AperFunction,SMDPad,CuDef*%
%ADD11RoundRect,0.150000X-0.587500X-0.150000X0.587500X-0.150000X0.587500X0.150000X-0.587500X0.150000X0*%
%TD*%
%TA.AperFunction,SMDPad,CuDef*%
%ADD12RoundRect,0.250000X-0.337500X-0.475000X0.337500X-0.475000X0.337500X0.475000X-0.337500X0.475000X0*%
%TD*%
%TA.AperFunction,SMDPad,CuDef*%
%ADD13R,1.549400X0.609600*%
%TD*%
%TA.AperFunction,SMDPad,CuDef*%
%ADD14R,1.803400X1.193800*%
%TD*%
%TA.AperFunction,SMDPad,CuDef*%
%ADD15RoundRect,0.250000X0.475000X-0.337500X0.475000X0.337500X-0.475000X0.337500X-0.475000X-0.337500X0*%
%TD*%
%TA.AperFunction,SMDPad,CuDef*%
%ADD16RoundRect,0.250000X-0.350000X-0.450000X0.350000X-0.450000X0.350000X0.450000X-0.350000X0.450000X0*%
%TD*%
%TA.AperFunction,SMDPad,CuDef*%
%ADD17RoundRect,0.250000X0.350000X0.450000X-0.350000X0.450000X-0.350000X-0.450000X0.350000X-0.450000X0*%
%TD*%
%TA.AperFunction,SMDPad,CuDef*%
%ADD18R,0.812800X0.254000*%
%TD*%
%TA.AperFunction,SMDPad,CuDef*%
%ADD19R,1.752600X2.489200*%
%TD*%
%TA.AperFunction,ViaPad*%
%ADD20C,0.800000*%
%TD*%
%TA.AperFunction,Conductor*%
%ADD21C,0.250000*%
%TD*%
G04 APERTURE END LIST*
D10*
%TO.P,C4,1*%
%TO.N,+5V*%
X140200000Y-84200000D03*
%TO.P,C4,2*%
%TO.N,GND*%
X140200000Y-86275000D03*
%TD*%
D11*
%TO.P,Q1,1,G*%
%TO.N,SDA3V*%
X127300000Y-84550000D03*
%TO.P,Q1,2,S*%
X127300000Y-86450000D03*
%TO.P,Q1,3,D*%
%TO.N,SDA5V*%
X129175000Y-85500000D03*
%TD*%
%TO.P,Q2,1,G*%
%TO.N,SCL3V*%
X127400000Y-80350000D03*
%TO.P,Q2,2,S*%
X127400000Y-82250000D03*
%TO.P,Q2,3,D*%
%TO.N,SCL5V*%
X129275000Y-81300000D03*
%TD*%
D12*
%TO.P,C2,1*%
%TO.N,Net-(C2-Pad1)*%
X135225000Y-87100000D03*
%TO.P,C2,2*%
%TO.N,Net-(C2-Pad2)*%
X137300000Y-87100000D03*
%TD*%
D13*
%TO.P,J2,1,1*%
%TO.N,GND*%
X144275001Y-82199999D03*
%TO.P,J2,2,2*%
%TO.N,+5V*%
X144275001Y-83200000D03*
%TO.P,J2,3,3*%
%TO.N,SDA5V*%
X144275001Y-84199998D03*
%TO.P,J2,4,4*%
%TO.N,SCL5V*%
X144275001Y-85199999D03*
D14*
%TO.P,J2,5*%
%TO.N,N/C*%
X146800000Y-80900000D03*
%TO.P,J2,6*%
X146800000Y-86499998D03*
%TD*%
D13*
%TO.P,J1,1,1*%
%TO.N,GND*%
X123724999Y-85199999D03*
%TO.P,J1,2,2*%
%TO.N,+3V3*%
X123724999Y-84199998D03*
%TO.P,J1,3,3*%
%TO.N,SDA3V*%
X123724999Y-83200000D03*
%TO.P,J1,4,4*%
%TO.N,SCL3V*%
X123724999Y-82199999D03*
D14*
%TO.P,J1,5*%
%TO.N,N/C*%
X121200000Y-86499998D03*
%TO.P,J1,6*%
X121200000Y-80900000D03*
%TD*%
D15*
%TO.P,C3,1*%
%TO.N,Net-(C3-Pad1)*%
X132000000Y-85800000D03*
%TO.P,C3,2*%
%TO.N,Net-(C3-Pad2)*%
X132000000Y-83725000D03*
%TD*%
D16*
%TO.P,R3,1*%
%TO.N,+3V3*%
X132600000Y-80700000D03*
%TO.P,R3,2*%
%TO.N,Net-(R3-Pad2)*%
X134600000Y-80700000D03*
%TD*%
D17*
%TO.P,R4,1*%
%TO.N,GND*%
X138500000Y-80700000D03*
%TO.P,R4,2*%
%TO.N,Net-(R3-Pad2)*%
X136500000Y-80700000D03*
%TD*%
D18*
%TO.P,U1,1,C2+*%
%TO.N,Net-(C3-Pad1)*%
X137647800Y-84700001D03*
%TO.P,U1,2,VOUT*%
%TO.N,+5V*%
X137647800Y-84199999D03*
%TO.P,U1,3,C1+*%
%TO.N,Net-(C2-Pad2)*%
X137647800Y-83700000D03*
%TO.P,U1,4,\u002ASHDN*%
%TO.N,+3V3*%
X137647800Y-83200001D03*
%TO.P,U1,5,VSEL/FB*%
X137647800Y-82699999D03*
%TO.P,U1,6,MODE*%
%TO.N,Net-(R3-Pad2)*%
X134752200Y-82699999D03*
%TO.P,U1,7,VIN*%
%TO.N,+3V3*%
X134752200Y-83200001D03*
%TO.P,U1,8,C2-*%
%TO.N,Net-(C3-Pad2)*%
X134752200Y-83700000D03*
%TO.P,U1,9,GND*%
%TO.N,GND*%
X134752200Y-84199999D03*
%TO.P,U1,10,C1-*%
%TO.N,Net-(C2-Pad1)*%
X134752200Y-84700001D03*
D19*
%TO.P,U1,11,EPAD*%
%TO.N,GND*%
X136200000Y-83700000D03*
%TD*%
D20*
%TO.N,+3V3*%
X125500000Y-86500000D03*
X135655924Y-81841043D03*
X133500000Y-82900000D03*
%TO.N,GND*%
X144900000Y-81200000D03*
X123100000Y-86300000D03*
X140200000Y-87500000D03*
X136200000Y-83700000D03*
X140500000Y-81000000D03*
%TO.N,Net-(C2-Pad2)*%
X138700000Y-87200000D03*
X138700000Y-83700000D03*
%TO.N,Net-(C3-Pad1)*%
X137975500Y-85700000D03*
X133400000Y-85700000D03*
%TO.N,+5V*%
X141600000Y-84300000D03*
%TO.N,SDA3V*%
X127000000Y-83400000D03*
X121900000Y-84600000D03*
%TO.N,SCL3V*%
X121900000Y-82800000D03*
%TO.N,SDA5V*%
X142800000Y-86100000D03*
X129000000Y-86500000D03*
X146100000Y-82700000D03*
%TO.N,SCL5V*%
X129600000Y-82300000D03*
X146300000Y-84700000D03*
%TD*%
D21*
%TO.N,SDA3V*%
X127300000Y-84550000D02*
X127300000Y-86450000D01*
%TO.N,SCL3V*%
X127400000Y-80350000D02*
X127400000Y-82250000D01*
%TO.N,SDA3V*%
X127300000Y-84550000D02*
X127300000Y-83700000D01*
X127300000Y-83700000D02*
X127000000Y-83400000D01*
%TO.N,+3V3*%
X137647800Y-82247800D02*
X137647800Y-82699999D01*
X137647800Y-83200001D02*
X137647800Y-82699999D01*
X134752200Y-83200001D02*
X133800001Y-83200001D01*
X135655924Y-81841043D02*
X137241043Y-81841043D01*
X137241043Y-81841043D02*
X137647800Y-82247800D01*
X133800001Y-83200001D02*
X133500000Y-82900000D01*
%TO.N,GND*%
X140200000Y-87500000D02*
X140200000Y-86275000D01*
X123724999Y-85675001D02*
X123100000Y-86300000D01*
X135700001Y-84199999D02*
X136200000Y-83700000D01*
X140200000Y-80700000D02*
X138500000Y-80700000D01*
X123724999Y-85199999D02*
X123724999Y-85675001D01*
X144275001Y-81824999D02*
X144900000Y-81200000D01*
X140500000Y-81000000D02*
X140200000Y-80700000D01*
X144275001Y-82199999D02*
X144275001Y-81824999D01*
X134752200Y-84199999D02*
X135700001Y-84199999D01*
%TO.N,Net-(C2-Pad1)*%
X135225000Y-86125000D02*
X135225000Y-87100000D01*
X134752200Y-84700001D02*
X134752200Y-85652200D01*
X134752200Y-85652200D02*
X135225000Y-86125000D01*
%TO.N,Net-(C2-Pad2)*%
X137647800Y-83700000D02*
X138700000Y-83700000D01*
X137300000Y-87100000D02*
X138600000Y-87100000D01*
X138600000Y-87100000D02*
X138700000Y-87200000D01*
%TO.N,Net-(C3-Pad1)*%
X137647800Y-85372300D02*
X137975500Y-85700000D01*
X133400000Y-85700000D02*
X132100000Y-85700000D01*
X132100000Y-85700000D02*
X132000000Y-85800000D01*
X137647800Y-84700001D02*
X137647800Y-85372300D01*
%TO.N,Net-(C3-Pad2)*%
X134752200Y-83700000D02*
X132025000Y-83700000D01*
X132025000Y-83700000D02*
X132000000Y-83725000D01*
%TO.N,+5V*%
X140300000Y-84300000D02*
X140200000Y-84200000D01*
X138399897Y-84424511D02*
X139975489Y-84424511D01*
X138175385Y-84199999D02*
X138399897Y-84424511D01*
X137647800Y-84199999D02*
X138175385Y-84199999D01*
X139975489Y-84424511D02*
X140200000Y-84200000D01*
%TO.N,SDA3V*%
X123724999Y-83200000D02*
X122996475Y-83200000D01*
X123724999Y-83200000D02*
X126800000Y-83200000D01*
X121900000Y-84296475D02*
X121900000Y-84600000D01*
X122996475Y-83200000D02*
X121900000Y-84296475D01*
X126800000Y-83200000D02*
X127000000Y-83400000D01*
%TO.N,SCL3V*%
X123724999Y-82199999D02*
X127349999Y-82199999D01*
X123724999Y-82199999D02*
X122500001Y-82199999D01*
X127349999Y-82199999D02*
X127400000Y-82250000D01*
X122500001Y-82199999D02*
X121900000Y-82800000D01*
%TO.N,SDA5V*%
X129175000Y-86325000D02*
X129000000Y-86500000D01*
X142800000Y-84946478D02*
X143546480Y-84199998D01*
X146100000Y-83399699D02*
X146100000Y-82700000D01*
X143546480Y-84199998D02*
X144275001Y-84199998D01*
X144275001Y-84199998D02*
X145299701Y-84199998D01*
X129175000Y-85500000D02*
X129175000Y-86325000D01*
X145299701Y-84199998D02*
X146100000Y-83399699D01*
X142800000Y-86100000D02*
X142800000Y-84946478D01*
%TO.N,SCL5V*%
X145800001Y-85199999D02*
X146300000Y-84700000D01*
X144275001Y-85199999D02*
X145800001Y-85199999D01*
X129275000Y-81300000D02*
X129275000Y-81975000D01*
X129275000Y-81975000D02*
X129600000Y-82300000D01*
%TO.N,Net-(R3-Pad2)*%
X134752200Y-82699999D02*
X134752200Y-80852200D01*
X134752200Y-80852200D02*
X134600000Y-80700000D01*
X134600000Y-80700000D02*
X136500000Y-80700000D01*
%TD*%
%TA.AperFunction,Conductor*%
%TO.N,+3V3*%
G36*
X131683935Y-79528002D02*
G01*
X131730428Y-79581658D01*
X131740532Y-79651932D01*
X131711038Y-79716512D01*
X131704987Y-79723018D01*
X131656261Y-79771829D01*
X131647249Y-79783240D01*
X131562184Y-79921243D01*
X131556037Y-79934424D01*
X131504862Y-80088710D01*
X131501995Y-80102086D01*
X131492328Y-80196438D01*
X131492000Y-80202855D01*
X131492000Y-80427885D01*
X131496475Y-80443124D01*
X131497865Y-80444329D01*
X131505548Y-80446000D01*
X132728000Y-80446000D01*
X132796121Y-80466002D01*
X132842614Y-80519658D01*
X132854000Y-80572000D01*
X132854000Y-81889884D01*
X132858475Y-81905123D01*
X132859865Y-81906328D01*
X132867548Y-81907999D01*
X132997095Y-81907999D01*
X133003614Y-81907662D01*
X133099206Y-81897743D01*
X133112600Y-81894851D01*
X133266784Y-81843412D01*
X133279962Y-81837239D01*
X133417807Y-81751937D01*
X133429208Y-81742901D01*
X133510430Y-81661538D01*
X133572713Y-81627459D01*
X133643533Y-81632462D01*
X133688620Y-81661383D01*
X133771512Y-81744130D01*
X133771517Y-81744134D01*
X133776697Y-81749305D01*
X133782927Y-81753145D01*
X133782928Y-81753146D01*
X133920288Y-81837816D01*
X133927262Y-81842115D01*
X133988937Y-81862572D01*
X134032367Y-81876977D01*
X134090727Y-81917408D01*
X134117964Y-81982972D01*
X134118700Y-81996570D01*
X134118700Y-82044664D01*
X134098698Y-82112785D01*
X134068266Y-82145489D01*
X133982539Y-82209738D01*
X133895185Y-82326294D01*
X133844055Y-82462683D01*
X133837300Y-82524865D01*
X133837300Y-82875133D01*
X133842049Y-82918844D01*
X133842923Y-82926892D01*
X133830395Y-82996774D01*
X133782075Y-83048790D01*
X133717660Y-83066500D01*
X133238575Y-83066500D01*
X133170454Y-83046498D01*
X133131431Y-83006803D01*
X133124874Y-82996206D01*
X133073478Y-82913152D01*
X132948303Y-82788195D01*
X132942072Y-82784354D01*
X132803968Y-82699225D01*
X132803966Y-82699224D01*
X132797738Y-82695385D01*
X132637254Y-82642155D01*
X132636389Y-82641868D01*
X132636387Y-82641868D01*
X132629861Y-82639703D01*
X132623025Y-82639003D01*
X132623022Y-82639002D01*
X132579969Y-82634591D01*
X132525400Y-82629000D01*
X131474600Y-82629000D01*
X131471354Y-82629337D01*
X131471350Y-82629337D01*
X131375692Y-82639262D01*
X131375688Y-82639263D01*
X131368834Y-82639974D01*
X131362298Y-82642155D01*
X131362296Y-82642155D01*
X131230194Y-82686228D01*
X131201054Y-82695950D01*
X131050652Y-82789022D01*
X131045479Y-82794204D01*
X131002813Y-82836944D01*
X130925695Y-82914197D01*
X130921855Y-82920427D01*
X130921854Y-82920428D01*
X130838245Y-83056067D01*
X130832885Y-83064762D01*
X130824143Y-83091118D01*
X130785210Y-83208500D01*
X130777203Y-83232639D01*
X130766500Y-83337100D01*
X130766500Y-84112900D01*
X130766837Y-84116146D01*
X130766837Y-84116150D01*
X130768231Y-84129580D01*
X130777474Y-84218666D01*
X130833450Y-84386446D01*
X130926522Y-84536848D01*
X131051697Y-84661805D01*
X131055916Y-84664406D01*
X131096417Y-84721530D01*
X131099649Y-84792453D01*
X131064024Y-84853865D01*
X131056470Y-84860422D01*
X131050652Y-84864022D01*
X130925695Y-84989197D01*
X130921855Y-84995427D01*
X130921854Y-84995428D01*
X130838147Y-85131226D01*
X130832885Y-85139762D01*
X130830581Y-85146709D01*
X130786747Y-85278866D01*
X130777203Y-85307639D01*
X130766500Y-85412100D01*
X130766500Y-86187900D01*
X130766837Y-86191146D01*
X130766837Y-86191150D01*
X130776479Y-86284075D01*
X130777474Y-86293666D01*
X130833450Y-86461446D01*
X130926522Y-86611848D01*
X131051697Y-86736805D01*
X131057927Y-86740645D01*
X131057928Y-86740646D01*
X131195090Y-86825194D01*
X131202262Y-86829615D01*
X131239156Y-86841852D01*
X131363611Y-86883132D01*
X131363613Y-86883132D01*
X131370139Y-86885297D01*
X131376975Y-86885997D01*
X131376978Y-86885998D01*
X131420031Y-86890409D01*
X131474600Y-86896000D01*
X132525400Y-86896000D01*
X132528646Y-86895663D01*
X132528650Y-86895663D01*
X132624308Y-86885738D01*
X132624312Y-86885737D01*
X132631166Y-86885026D01*
X132637702Y-86882845D01*
X132637704Y-86882845D01*
X132775285Y-86836944D01*
X132798946Y-86829050D01*
X132949348Y-86735978D01*
X133068115Y-86617004D01*
X133130398Y-86582925D01*
X133183485Y-86582775D01*
X133298056Y-86607128D01*
X133298061Y-86607128D01*
X133304513Y-86608500D01*
X133495487Y-86608500D01*
X133501939Y-86607128D01*
X133501944Y-86607128D01*
X133615807Y-86582925D01*
X133682288Y-86568794D01*
X133688319Y-86566109D01*
X133850722Y-86493803D01*
X133850724Y-86493802D01*
X133856752Y-86491118D01*
X133872618Y-86479591D01*
X133931989Y-86436455D01*
X133998857Y-86412597D01*
X134068008Y-86428677D01*
X134117488Y-86479591D01*
X134131394Y-86551233D01*
X134129000Y-86574600D01*
X134129000Y-87625400D01*
X134139974Y-87731166D01*
X134195950Y-87898946D01*
X134289022Y-88049348D01*
X134294204Y-88054521D01*
X134414197Y-88174305D01*
X134412656Y-88175849D01*
X134447529Y-88225042D01*
X134450757Y-88295966D01*
X134415128Y-88357375D01*
X134351955Y-88389773D01*
X134328372Y-88392000D01*
X120634000Y-88392000D01*
X120565879Y-88371998D01*
X120519386Y-88318342D01*
X120508000Y-88266000D01*
X120508000Y-87731398D01*
X120528002Y-87663277D01*
X120581658Y-87616784D01*
X120634000Y-87605398D01*
X122149834Y-87605398D01*
X122212016Y-87598643D01*
X122348405Y-87547513D01*
X122464961Y-87460159D01*
X122552315Y-87343603D01*
X122599459Y-87217845D01*
X122642100Y-87161081D01*
X122708662Y-87136381D01*
X122768690Y-87146968D01*
X122817712Y-87168794D01*
X122883365Y-87182749D01*
X122998056Y-87207128D01*
X122998061Y-87207128D01*
X123004513Y-87208500D01*
X123195487Y-87208500D01*
X123201939Y-87207128D01*
X123201944Y-87207128D01*
X123316635Y-87182749D01*
X123382288Y-87168794D01*
X123404151Y-87159060D01*
X123550722Y-87093803D01*
X123550724Y-87093802D01*
X123556752Y-87091118D01*
X123711253Y-86978866D01*
X123839040Y-86836944D01*
X123934527Y-86671556D01*
X123993542Y-86489928D01*
X123994629Y-86479591D01*
X124010907Y-86324708D01*
X124037920Y-86259051D01*
X124047122Y-86248783D01*
X124117252Y-86178653D01*
X124125538Y-86171113D01*
X124132017Y-86167001D01*
X124178643Y-86117349D01*
X124181397Y-86114508D01*
X124201134Y-86094771D01*
X124203614Y-86091574D01*
X124211319Y-86082552D01*
X124239027Y-86053046D01*
X124300240Y-86017081D01*
X124330877Y-86013299D01*
X124547833Y-86013299D01*
X124610015Y-86006544D01*
X124746404Y-85955414D01*
X124862960Y-85868060D01*
X124950314Y-85751504D01*
X125001444Y-85615115D01*
X125008199Y-85552933D01*
X125008199Y-84847065D01*
X125001444Y-84784883D01*
X124985936Y-84743515D01*
X124980753Y-84672709D01*
X124985937Y-84655055D01*
X124998176Y-84622408D01*
X125001804Y-84607149D01*
X125007330Y-84556284D01*
X125007699Y-84549470D01*
X125007699Y-84472113D01*
X125003224Y-84456874D01*
X125001834Y-84455669D01*
X124994151Y-84453998D01*
X124793184Y-84453998D01*
X124747277Y-84442254D01*
X124746404Y-84444584D01*
X124610015Y-84393454D01*
X124547833Y-84386699D01*
X123596999Y-84386699D01*
X123528878Y-84366697D01*
X123482385Y-84313041D01*
X123470999Y-84260699D01*
X123470999Y-84139300D01*
X123491001Y-84071179D01*
X123544657Y-84024686D01*
X123596999Y-84013300D01*
X124547833Y-84013300D01*
X124610015Y-84006545D01*
X124746404Y-83955415D01*
X124747277Y-83957745D01*
X124793189Y-83945998D01*
X124989583Y-83945998D01*
X125004822Y-83941523D01*
X125006027Y-83940133D01*
X125007640Y-83932717D01*
X125041665Y-83870405D01*
X125103977Y-83836380D01*
X125130761Y-83833500D01*
X126061588Y-83833500D01*
X126129709Y-83853502D01*
X126176202Y-83907158D01*
X126186306Y-83977432D01*
X126170043Y-84023636D01*
X126103355Y-84136399D01*
X126056938Y-84296169D01*
X126056434Y-84302574D01*
X126056433Y-84302579D01*
X126055610Y-84313041D01*
X126054000Y-84333498D01*
X126054000Y-84766502D01*
X126054193Y-84768950D01*
X126054193Y-84768958D01*
X126056338Y-84796206D01*
X126056938Y-84803831D01*
X126103355Y-84963601D01*
X126107392Y-84970427D01*
X126184009Y-85099980D01*
X126184011Y-85099983D01*
X126188047Y-85106807D01*
X126305693Y-85224453D01*
X126312517Y-85228489D01*
X126312520Y-85228491D01*
X126405532Y-85283498D01*
X126448899Y-85309145D01*
X126456509Y-85311356D01*
X126456514Y-85311358D01*
X126575652Y-85345970D01*
X126635488Y-85384183D01*
X126665166Y-85448679D01*
X126666500Y-85466967D01*
X126666500Y-85533033D01*
X126646498Y-85601154D01*
X126592842Y-85647647D01*
X126575652Y-85654030D01*
X126456514Y-85688642D01*
X126456509Y-85688644D01*
X126448899Y-85690855D01*
X126442072Y-85694892D01*
X126442073Y-85694892D01*
X126312520Y-85771509D01*
X126312517Y-85771511D01*
X126305693Y-85775547D01*
X126188047Y-85893193D01*
X126184011Y-85900017D01*
X126184009Y-85900020D01*
X126149385Y-85958566D01*
X126103355Y-86036399D01*
X126101144Y-86044010D01*
X126101143Y-86044012D01*
X126097426Y-86056807D01*
X126056938Y-86196169D01*
X126054000Y-86233498D01*
X126054000Y-86666502D01*
X126054193Y-86668950D01*
X126054193Y-86668958D01*
X126056338Y-86696206D01*
X126056938Y-86703831D01*
X126066518Y-86736805D01*
X126095611Y-86836944D01*
X126103355Y-86863601D01*
X126107392Y-86870427D01*
X126184009Y-86999980D01*
X126184011Y-86999983D01*
X126188047Y-87006807D01*
X126305693Y-87124453D01*
X126312517Y-87128489D01*
X126312520Y-87128491D01*
X126389396Y-87173955D01*
X126448899Y-87209145D01*
X126456510Y-87211356D01*
X126456512Y-87211357D01*
X126478848Y-87217846D01*
X126608669Y-87255562D01*
X126615074Y-87256066D01*
X126615079Y-87256067D01*
X126643542Y-87258307D01*
X126643550Y-87258307D01*
X126645998Y-87258500D01*
X127954002Y-87258500D01*
X127956450Y-87258307D01*
X127956458Y-87258307D01*
X127984921Y-87256067D01*
X127984926Y-87256066D01*
X127991331Y-87255562D01*
X128121152Y-87217846D01*
X128143488Y-87211357D01*
X128143490Y-87211356D01*
X128151101Y-87209145D01*
X128235791Y-87159059D01*
X128304604Y-87141600D01*
X128371936Y-87164116D01*
X128384241Y-87173879D01*
X128384324Y-87173954D01*
X128388747Y-87178866D01*
X128543248Y-87291118D01*
X128549276Y-87293802D01*
X128549278Y-87293803D01*
X128711681Y-87366109D01*
X128717712Y-87368794D01*
X128811112Y-87388647D01*
X128898056Y-87407128D01*
X128898061Y-87407128D01*
X128904513Y-87408500D01*
X129095487Y-87408500D01*
X129101939Y-87407128D01*
X129101944Y-87407128D01*
X129188888Y-87388647D01*
X129282288Y-87368794D01*
X129288319Y-87366109D01*
X129450722Y-87293803D01*
X129450724Y-87293802D01*
X129456752Y-87291118D01*
X129611253Y-87178866D01*
X129620322Y-87168794D01*
X129734621Y-87041852D01*
X129734622Y-87041851D01*
X129739040Y-87036944D01*
X129834527Y-86871556D01*
X129893542Y-86689928D01*
X129894872Y-86677279D01*
X129912814Y-86506565D01*
X129913504Y-86500000D01*
X129903288Y-86402799D01*
X129916060Y-86332961D01*
X129964562Y-86281114D01*
X129993446Y-86268632D01*
X130018485Y-86261358D01*
X130018488Y-86261357D01*
X130026101Y-86259145D01*
X130132168Y-86196417D01*
X130162480Y-86178491D01*
X130162483Y-86178489D01*
X130169307Y-86174453D01*
X130286953Y-86056807D01*
X130290989Y-86049983D01*
X130290991Y-86049980D01*
X130367608Y-85920427D01*
X130371645Y-85913601D01*
X130383313Y-85873441D01*
X130394127Y-85836218D01*
X130418062Y-85753831D01*
X130419652Y-85733637D01*
X130420807Y-85718958D01*
X130420807Y-85718950D01*
X130421000Y-85716502D01*
X130421000Y-85283498D01*
X130420807Y-85281042D01*
X130418567Y-85252579D01*
X130418566Y-85252574D01*
X130418062Y-85246169D01*
X130371645Y-85086399D01*
X130311124Y-84984063D01*
X130290991Y-84950020D01*
X130290989Y-84950017D01*
X130286953Y-84943193D01*
X130169307Y-84825547D01*
X130162483Y-84821511D01*
X130162480Y-84821509D01*
X130032927Y-84744892D01*
X130032928Y-84744892D01*
X130026101Y-84740855D01*
X130018490Y-84738644D01*
X130018488Y-84738643D01*
X129959583Y-84721530D01*
X129866331Y-84694438D01*
X129859926Y-84693934D01*
X129859921Y-84693933D01*
X129831458Y-84691693D01*
X129831450Y-84691693D01*
X129829002Y-84691500D01*
X128672000Y-84691500D01*
X128603879Y-84671498D01*
X128557386Y-84617842D01*
X128546000Y-84565500D01*
X128546000Y-84333498D01*
X128544390Y-84313041D01*
X128543567Y-84302579D01*
X128543566Y-84302574D01*
X128543062Y-84296169D01*
X128496645Y-84136399D01*
X128453270Y-84063056D01*
X128415991Y-84000020D01*
X128415989Y-84000017D01*
X128411953Y-83993193D01*
X128294307Y-83875547D01*
X128287483Y-83871511D01*
X128287480Y-83871509D01*
X128157927Y-83794892D01*
X128157928Y-83794892D01*
X128151101Y-83790855D01*
X128143490Y-83788644D01*
X128143488Y-83788643D01*
X128022602Y-83753523D01*
X127962767Y-83715310D01*
X127933089Y-83650814D01*
X127931817Y-83636487D01*
X127930922Y-83608031D01*
X127930673Y-83600111D01*
X127925021Y-83580657D01*
X127921013Y-83561300D01*
X127919468Y-83549070D01*
X127919468Y-83549069D01*
X127918474Y-83541203D01*
X127915554Y-83533827D01*
X127914212Y-83530436D01*
X127913672Y-83526496D01*
X127913584Y-83526152D01*
X127913624Y-83526142D01*
X127906054Y-83470884D01*
X127912814Y-83406565D01*
X127913504Y-83400000D01*
X127893542Y-83210072D01*
X127893117Y-83208763D01*
X127898372Y-83139905D01*
X127941189Y-83083273D01*
X128007827Y-83058780D01*
X128016216Y-83058500D01*
X128054002Y-83058500D01*
X128056450Y-83058307D01*
X128056458Y-83058307D01*
X128084921Y-83056067D01*
X128084926Y-83056066D01*
X128091331Y-83055562D01*
X128209834Y-83021134D01*
X128243488Y-83011357D01*
X128243490Y-83011356D01*
X128251101Y-83009145D01*
X128283595Y-82989928D01*
X128387480Y-82928491D01*
X128387483Y-82928489D01*
X128394307Y-82924453D01*
X128511953Y-82806807D01*
X128515989Y-82799983D01*
X128515991Y-82799980D01*
X128569989Y-82708674D01*
X128621882Y-82660221D01*
X128691732Y-82647516D01*
X128757363Y-82674592D01*
X128787560Y-82709812D01*
X128860960Y-82836944D01*
X128865378Y-82841851D01*
X128865379Y-82841852D01*
X128936129Y-82920428D01*
X128988747Y-82978866D01*
X129033467Y-83011357D01*
X129105310Y-83063554D01*
X129143248Y-83091118D01*
X129149276Y-83093802D01*
X129149278Y-83093803D01*
X129304824Y-83163056D01*
X129317712Y-83168794D01*
X129411113Y-83188647D01*
X129498056Y-83207128D01*
X129498061Y-83207128D01*
X129504513Y-83208500D01*
X129695487Y-83208500D01*
X129701939Y-83207128D01*
X129701944Y-83207128D01*
X129788887Y-83188647D01*
X129882288Y-83168794D01*
X129895176Y-83163056D01*
X130050722Y-83093803D01*
X130050724Y-83093802D01*
X130056752Y-83091118D01*
X130094691Y-83063554D01*
X130166533Y-83011357D01*
X130211253Y-82978866D01*
X130263871Y-82920428D01*
X130334621Y-82841852D01*
X130334622Y-82841851D01*
X130339040Y-82836944D01*
X130420769Y-82695385D01*
X130431223Y-82677279D01*
X130431224Y-82677278D01*
X130434527Y-82671556D01*
X130493542Y-82489928D01*
X130513504Y-82300000D01*
X130500353Y-82174876D01*
X130494232Y-82116635D01*
X130494232Y-82116633D01*
X130493542Y-82110072D01*
X130434527Y-81928444D01*
X130431227Y-81922728D01*
X130426913Y-81915256D01*
X130410174Y-81846261D01*
X130427578Y-81788115D01*
X130467607Y-81720429D01*
X130467607Y-81720428D01*
X130471645Y-81713601D01*
X130518062Y-81553831D01*
X130518640Y-81546497D01*
X130520807Y-81518958D01*
X130520807Y-81518950D01*
X130521000Y-81516502D01*
X130521000Y-81197095D01*
X131492001Y-81197095D01*
X131492338Y-81203614D01*
X131502257Y-81299206D01*
X131505149Y-81312600D01*
X131556588Y-81466784D01*
X131562761Y-81479962D01*
X131648063Y-81617807D01*
X131657099Y-81629208D01*
X131771829Y-81743739D01*
X131783240Y-81752751D01*
X131921243Y-81837816D01*
X131934424Y-81843963D01*
X132088710Y-81895138D01*
X132102086Y-81898005D01*
X132196438Y-81907672D01*
X132202854Y-81908000D01*
X132327885Y-81908000D01*
X132343124Y-81903525D01*
X132344329Y-81902135D01*
X132346000Y-81894452D01*
X132346000Y-80972115D01*
X132341525Y-80956876D01*
X132340135Y-80955671D01*
X132332452Y-80954000D01*
X131510116Y-80954000D01*
X131494877Y-80958475D01*
X131493672Y-80959865D01*
X131492001Y-80967548D01*
X131492001Y-81197095D01*
X130521000Y-81197095D01*
X130521000Y-81083498D01*
X130518062Y-81046169D01*
X130471645Y-80886399D01*
X130454607Y-80857589D01*
X130390991Y-80750020D01*
X130390989Y-80750017D01*
X130386953Y-80743193D01*
X130269307Y-80625547D01*
X130262483Y-80621511D01*
X130262480Y-80621509D01*
X130132927Y-80544892D01*
X130132928Y-80544892D01*
X130126101Y-80540855D01*
X130118490Y-80538644D01*
X130118488Y-80538643D01*
X130066269Y-80523472D01*
X129966331Y-80494438D01*
X129959926Y-80493934D01*
X129959921Y-80493933D01*
X129931458Y-80491693D01*
X129931450Y-80491693D01*
X129929002Y-80491500D01*
X128772000Y-80491500D01*
X128703879Y-80471498D01*
X128657386Y-80417842D01*
X128646000Y-80365500D01*
X128646000Y-80133498D01*
X128643062Y-80096169D01*
X128614028Y-79996231D01*
X128598857Y-79944012D01*
X128598856Y-79944010D01*
X128596645Y-79936399D01*
X128550204Y-79857871D01*
X128515991Y-79800020D01*
X128515989Y-79800017D01*
X128511953Y-79793193D01*
X128441855Y-79723095D01*
X128407829Y-79660783D01*
X128412894Y-79589968D01*
X128455441Y-79533132D01*
X128521961Y-79508321D01*
X128530950Y-79508000D01*
X131615814Y-79508000D01*
X131683935Y-79528002D01*
G37*
%TD.AperFunction*%
%TA.AperFunction,Conductor*%
G36*
X137543886Y-81632815D02*
G01*
X137588976Y-81661736D01*
X137676697Y-81749305D01*
X137820267Y-81837803D01*
X137867759Y-81890574D01*
X137879183Y-81960646D01*
X137850909Y-82025770D01*
X137789649Y-82065958D01*
X137777676Y-82069474D01*
X137776471Y-82070864D01*
X137774800Y-82078547D01*
X137774800Y-82174876D01*
X137754798Y-82242997D01*
X137701142Y-82289490D01*
X137630868Y-82299594D01*
X137566288Y-82270100D01*
X137530818Y-82219105D01*
X137528818Y-82213770D01*
X137520800Y-82169541D01*
X137520800Y-82083115D01*
X137516325Y-82067876D01*
X137514935Y-82066671D01*
X137507252Y-82065000D01*
X137445325Y-82065000D01*
X137377204Y-82044998D01*
X137369760Y-82039826D01*
X137350514Y-82025402D01*
X137323005Y-82004785D01*
X137313155Y-82001093D01*
X137306207Y-81998487D01*
X137249443Y-81955844D01*
X137224745Y-81889282D01*
X137239954Y-81819933D01*
X137284136Y-81773362D01*
X137318120Y-81752332D01*
X137324348Y-81748478D01*
X137410784Y-81661891D01*
X137473066Y-81627812D01*
X137543886Y-81632815D01*
G37*
%TD.AperFunction*%
%TA.AperFunction,Conductor*%
G36*
X135593973Y-81682815D02*
G01*
X135639061Y-81711736D01*
X135659087Y-81731727D01*
X135693167Y-81794009D01*
X135688164Y-81864829D01*
X135645667Y-81921702D01*
X135579169Y-81946571D01*
X135570070Y-81946900D01*
X135530088Y-81946900D01*
X135461967Y-81926898D01*
X135415474Y-81873242D01*
X135405370Y-81802968D01*
X135434864Y-81738388D01*
X135440915Y-81731883D01*
X135460871Y-81711892D01*
X135523153Y-81677812D01*
X135593973Y-81682815D01*
G37*
%TD.AperFunction*%
%TD*%
%TA.AperFunction,Conductor*%
%TO.N,+5V*%
G36*
X147434121Y-79528002D02*
G01*
X147480614Y-79581658D01*
X147492000Y-79634000D01*
X147492000Y-79668600D01*
X147471998Y-79736721D01*
X147418342Y-79783214D01*
X147366000Y-79794600D01*
X145850166Y-79794600D01*
X145787984Y-79801355D01*
X145651595Y-79852485D01*
X145535039Y-79939839D01*
X145447685Y-80056395D01*
X145396555Y-80192784D01*
X145394385Y-80212763D01*
X145390987Y-80244038D01*
X145363745Y-80309600D01*
X145305382Y-80350026D01*
X145234428Y-80352481D01*
X145214474Y-80345536D01*
X145188323Y-80333892D01*
X145188315Y-80333889D01*
X145182288Y-80331206D01*
X145088887Y-80311353D01*
X145001944Y-80292872D01*
X145001939Y-80292872D01*
X144995487Y-80291500D01*
X144804513Y-80291500D01*
X144798061Y-80292872D01*
X144798056Y-80292872D01*
X144711113Y-80311353D01*
X144617712Y-80331206D01*
X144611682Y-80333891D01*
X144611681Y-80333891D01*
X144449278Y-80406197D01*
X144449276Y-80406198D01*
X144443248Y-80408882D01*
X144288747Y-80521134D01*
X144160960Y-80663056D01*
X144065473Y-80828444D01*
X144006458Y-81010072D01*
X144005768Y-81016633D01*
X144005768Y-81016635D01*
X143989093Y-81175292D01*
X143962080Y-81240949D01*
X143952878Y-81251217D01*
X143882748Y-81321347D01*
X143874462Y-81328887D01*
X143867983Y-81332999D01*
X143862558Y-81338776D01*
X143862557Y-81338777D01*
X143854879Y-81346953D01*
X143793666Y-81382918D01*
X143763030Y-81386699D01*
X143452167Y-81386699D01*
X143389985Y-81393454D01*
X143253596Y-81444584D01*
X143137040Y-81531938D01*
X143049686Y-81648494D01*
X142998556Y-81784883D01*
X142991801Y-81847065D01*
X142991801Y-82552933D01*
X142998556Y-82615115D01*
X143001330Y-82622514D01*
X143014064Y-82656482D01*
X143019247Y-82727289D01*
X143014063Y-82744943D01*
X143001824Y-82777590D01*
X142998196Y-82792849D01*
X142992670Y-82843714D01*
X142992301Y-82850528D01*
X142992301Y-82927885D01*
X142996776Y-82943124D01*
X142998166Y-82944329D01*
X143005849Y-82946000D01*
X143206816Y-82946000D01*
X143252723Y-82957744D01*
X143253596Y-82955414D01*
X143389985Y-83006544D01*
X143452167Y-83013299D01*
X144403001Y-83013299D01*
X144471122Y-83033301D01*
X144517615Y-83086957D01*
X144529001Y-83139299D01*
X144529001Y-83260698D01*
X144508999Y-83328819D01*
X144455343Y-83375312D01*
X144403001Y-83386698D01*
X143452167Y-83386698D01*
X143389985Y-83393453D01*
X143253596Y-83444583D01*
X143252723Y-83442253D01*
X143206811Y-83454000D01*
X143010417Y-83454000D01*
X142995178Y-83458475D01*
X142993973Y-83459865D01*
X142992302Y-83467548D01*
X142992302Y-83549469D01*
X142992672Y-83556290D01*
X142998196Y-83607150D01*
X143001824Y-83622410D01*
X143014063Y-83655059D01*
X143019246Y-83725866D01*
X143014063Y-83743515D01*
X143002253Y-83775020D01*
X142998556Y-83784882D01*
X142997703Y-83792730D01*
X142997703Y-83792732D01*
X142995166Y-83816088D01*
X142967924Y-83881650D01*
X142958998Y-83891575D01*
X142407742Y-84442831D01*
X142399463Y-84450365D01*
X142392982Y-84454478D01*
X142376420Y-84472115D01*
X142346357Y-84504129D01*
X142343602Y-84506971D01*
X142323865Y-84526708D01*
X142321385Y-84529905D01*
X142313682Y-84538925D01*
X142283414Y-84571157D01*
X142279595Y-84578103D01*
X142279593Y-84578106D01*
X142273652Y-84588912D01*
X142262801Y-84605431D01*
X142250386Y-84621437D01*
X142247241Y-84628706D01*
X142247238Y-84628710D01*
X142232826Y-84662015D01*
X142227609Y-84672665D01*
X142206305Y-84711418D01*
X142204334Y-84719093D01*
X142204334Y-84719094D01*
X142201267Y-84731040D01*
X142194863Y-84749744D01*
X142186819Y-84768333D01*
X142185580Y-84776156D01*
X142185577Y-84776166D01*
X142179901Y-84812002D01*
X142177495Y-84823622D01*
X142166500Y-84866448D01*
X142166500Y-84886702D01*
X142164949Y-84906412D01*
X142161780Y-84926421D01*
X142162526Y-84934313D01*
X142165941Y-84970439D01*
X142166500Y-84982297D01*
X142166500Y-85397476D01*
X142146498Y-85465597D01*
X142134142Y-85481779D01*
X142060960Y-85563056D01*
X141965473Y-85728444D01*
X141906458Y-85910072D01*
X141905768Y-85916633D01*
X141905768Y-85916635D01*
X141889101Y-86075213D01*
X141886496Y-86100000D01*
X141906458Y-86289928D01*
X141965473Y-86471556D01*
X142060960Y-86636944D01*
X142065378Y-86641851D01*
X142065379Y-86641852D01*
X142172230Y-86760522D01*
X142188747Y-86778866D01*
X142343248Y-86891118D01*
X142349276Y-86893802D01*
X142349278Y-86893803D01*
X142511681Y-86966109D01*
X142517712Y-86968794D01*
X142611112Y-86988647D01*
X142698056Y-87007128D01*
X142698061Y-87007128D01*
X142704513Y-87008500D01*
X142895487Y-87008500D01*
X142901939Y-87007128D01*
X142901944Y-87007128D01*
X142988888Y-86988647D01*
X143082288Y-86968794D01*
X143088319Y-86966109D01*
X143250722Y-86893803D01*
X143250724Y-86893802D01*
X143256752Y-86891118D01*
X143411253Y-86778866D01*
X143427770Y-86760522D01*
X143534621Y-86641852D01*
X143534622Y-86641851D01*
X143539040Y-86636944D01*
X143634527Y-86471556D01*
X143693542Y-86289928D01*
X143710758Y-86126128D01*
X143737771Y-86060472D01*
X143795993Y-86019842D01*
X143836068Y-86013299D01*
X145097835Y-86013299D01*
X145160017Y-86006544D01*
X145167413Y-86003772D01*
X145167419Y-86003770D01*
X145219571Y-85984219D01*
X145290378Y-85979036D01*
X145352747Y-86012958D01*
X145386876Y-86075213D01*
X145389800Y-86102201D01*
X145389800Y-87145032D01*
X145396555Y-87207214D01*
X145447685Y-87343603D01*
X145535039Y-87460159D01*
X145651595Y-87547513D01*
X145787984Y-87598643D01*
X145850166Y-87605398D01*
X147366000Y-87605398D01*
X147434121Y-87625400D01*
X147480614Y-87679056D01*
X147492000Y-87731398D01*
X147492000Y-88266000D01*
X147471998Y-88334121D01*
X147418342Y-88380614D01*
X147366000Y-88392000D01*
X140901753Y-88392000D01*
X140833632Y-88371998D01*
X140787139Y-88318342D01*
X140777035Y-88248068D01*
X140806529Y-88183488D01*
X140810593Y-88179345D01*
X140811253Y-88178866D01*
X140912413Y-88066517D01*
X140934621Y-88041852D01*
X140934622Y-88041851D01*
X140939040Y-88036944D01*
X141034527Y-87871556D01*
X141093542Y-87689928D01*
X141101251Y-87616586D01*
X141112814Y-87506565D01*
X141113504Y-87500000D01*
X141100038Y-87371875D01*
X141095355Y-87327319D01*
X141108127Y-87257481D01*
X141142399Y-87215405D01*
X141143128Y-87214827D01*
X141149348Y-87210978D01*
X141274305Y-87085803D01*
X141290268Y-87059906D01*
X141363275Y-86941468D01*
X141363276Y-86941466D01*
X141367115Y-86935238D01*
X141422797Y-86767361D01*
X141433500Y-86662900D01*
X141433500Y-85887100D01*
X141422526Y-85781334D01*
X141404881Y-85728444D01*
X141368868Y-85620502D01*
X141366550Y-85613554D01*
X141273478Y-85463152D01*
X141148303Y-85338195D01*
X141143765Y-85335398D01*
X141103176Y-85278147D01*
X141099946Y-85207224D01*
X141135572Y-85145813D01*
X141144068Y-85138438D01*
X141154207Y-85130402D01*
X141268739Y-85015671D01*
X141277751Y-85004260D01*
X141362816Y-84866257D01*
X141368963Y-84853076D01*
X141420138Y-84698790D01*
X141423005Y-84685414D01*
X141432672Y-84591062D01*
X141433000Y-84584646D01*
X141433000Y-84472115D01*
X141428525Y-84456876D01*
X141427135Y-84455671D01*
X141419452Y-84454000D01*
X140072000Y-84454000D01*
X140003879Y-84433998D01*
X139957386Y-84380342D01*
X139946000Y-84328000D01*
X139946000Y-83927885D01*
X140454000Y-83927885D01*
X140458475Y-83943124D01*
X140459865Y-83944329D01*
X140467548Y-83946000D01*
X141414884Y-83946000D01*
X141430123Y-83941525D01*
X141431328Y-83940135D01*
X141432999Y-83932452D01*
X141432999Y-83815405D01*
X141432662Y-83808886D01*
X141422743Y-83713294D01*
X141419851Y-83699900D01*
X141368412Y-83545716D01*
X141362239Y-83532538D01*
X141276937Y-83394693D01*
X141267901Y-83383292D01*
X141153171Y-83268761D01*
X141141760Y-83259749D01*
X141003757Y-83174684D01*
X140990576Y-83168537D01*
X140836290Y-83117362D01*
X140822914Y-83114495D01*
X140728562Y-83104828D01*
X140722145Y-83104500D01*
X140472115Y-83104500D01*
X140456876Y-83108975D01*
X140455671Y-83110365D01*
X140454000Y-83118048D01*
X140454000Y-83927885D01*
X139946000Y-83927885D01*
X139946000Y-83122616D01*
X139941525Y-83107377D01*
X139940135Y-83106172D01*
X139932452Y-83104501D01*
X139677905Y-83104501D01*
X139671386Y-83104838D01*
X139575794Y-83114757D01*
X139562400Y-83117649D01*
X139514384Y-83133668D01*
X139443434Y-83136252D01*
X139380872Y-83098454D01*
X139315675Y-83026045D01*
X139315674Y-83026044D01*
X139311253Y-83021134D01*
X139156752Y-82908882D01*
X139150724Y-82906198D01*
X139150722Y-82906197D01*
X138988319Y-82833891D01*
X138988318Y-82833891D01*
X138982288Y-82831206D01*
X138982625Y-82830449D01*
X138928457Y-82793409D01*
X138900821Y-82728012D01*
X138900000Y-82713650D01*
X138900000Y-82021378D01*
X138920002Y-81953257D01*
X138973658Y-81906764D01*
X138999358Y-81898232D01*
X139006166Y-81897526D01*
X139173946Y-81841550D01*
X139324348Y-81748478D01*
X139449305Y-81623303D01*
X139506061Y-81531229D01*
X139525176Y-81500218D01*
X139577948Y-81452725D01*
X139648020Y-81441301D01*
X139713144Y-81469575D01*
X139741554Y-81503332D01*
X139760960Y-81536944D01*
X139765378Y-81541851D01*
X139765379Y-81541852D01*
X139884325Y-81673955D01*
X139888747Y-81678866D01*
X140043248Y-81791118D01*
X140049276Y-81793802D01*
X140049278Y-81793803D01*
X140176582Y-81850482D01*
X140217712Y-81868794D01*
X140311113Y-81888647D01*
X140398056Y-81907128D01*
X140398061Y-81907128D01*
X140404513Y-81908500D01*
X140595487Y-81908500D01*
X140601939Y-81907128D01*
X140601944Y-81907128D01*
X140688887Y-81888647D01*
X140782288Y-81868794D01*
X140823418Y-81850482D01*
X140950722Y-81793803D01*
X140950724Y-81793802D01*
X140956752Y-81791118D01*
X141111253Y-81678866D01*
X141115675Y-81673955D01*
X141234621Y-81541852D01*
X141234622Y-81541851D01*
X141239040Y-81536944D01*
X141325784Y-81386699D01*
X141331223Y-81377279D01*
X141331224Y-81377278D01*
X141334527Y-81371556D01*
X141393542Y-81189928D01*
X141413504Y-81000000D01*
X141395473Y-80828444D01*
X141394232Y-80816635D01*
X141394232Y-80816633D01*
X141393542Y-80810072D01*
X141334527Y-80628444D01*
X141239040Y-80463056D01*
X141137268Y-80350026D01*
X141115675Y-80326045D01*
X141115674Y-80326044D01*
X141111253Y-80321134D01*
X140956752Y-80208882D01*
X140950724Y-80206198D01*
X140950722Y-80206197D01*
X140788319Y-80133891D01*
X140788318Y-80133891D01*
X140782288Y-80131206D01*
X140688888Y-80111353D01*
X140601944Y-80092872D01*
X140601939Y-80092872D01*
X140595487Y-80091500D01*
X140408630Y-80091500D01*
X140379324Y-80087329D01*
X140378145Y-80086819D01*
X140370317Y-80085579D01*
X140370310Y-80085577D01*
X140334476Y-80079901D01*
X140322856Y-80077495D01*
X140287711Y-80068472D01*
X140287710Y-80068472D01*
X140280030Y-80066500D01*
X140259776Y-80066500D01*
X140240065Y-80064949D01*
X140239144Y-80064803D01*
X140220057Y-80061780D01*
X140212165Y-80062526D01*
X140176039Y-80065941D01*
X140164181Y-80066500D01*
X139679197Y-80066500D01*
X139611076Y-80046498D01*
X139564583Y-79992842D01*
X139559674Y-79980377D01*
X139543867Y-79932998D01*
X139543866Y-79932996D01*
X139541550Y-79926054D01*
X139448478Y-79775652D01*
X139443296Y-79770479D01*
X139443292Y-79770474D01*
X139395908Y-79723173D01*
X139361828Y-79660891D01*
X139366831Y-79590071D01*
X139409328Y-79533198D01*
X139475826Y-79508329D01*
X139484925Y-79508000D01*
X147366000Y-79508000D01*
X147434121Y-79528002D01*
G37*
%TD.AperFunction*%
%TD*%
M02*
