%TF.GenerationSoftware,KiCad,Pcbnew,(6.0.10)*%
%TF.CreationDate,2023-01-27T02:19:02-05:00*%
%TF.ProjectId,qwiic5v-shifter,71776969-6335-4762-9d73-686966746572,rev?*%
%TF.SameCoordinates,Original*%
%TF.FileFunction,Legend,Bot*%
%TF.FilePolarity,Positive*%
%FSLAX46Y46*%
G04 Gerber Fmt 4.6, Leading zero omitted, Abs format (unit mm)*
G04 Created by KiCad (PCBNEW (6.0.10)) date 2023-01-27 02:19:02*
%MOMM*%
%LPD*%
G01*
G04 APERTURE LIST*
%ADD10C,0.150000*%
%ADD11C,0.120000*%
G04 APERTURE END LIST*
D10*
%TO.C,C1*%
X130166666Y-81357142D02*
X130214285Y-81404761D01*
X130357142Y-81452380D01*
X130452380Y-81452380D01*
X130595238Y-81404761D01*
X130690476Y-81309523D01*
X130738095Y-81214285D01*
X130785714Y-81023809D01*
X130785714Y-80880952D01*
X130738095Y-80690476D01*
X130690476Y-80595238D01*
X130595238Y-80500000D01*
X130452380Y-80452380D01*
X130357142Y-80452380D01*
X130214285Y-80500000D01*
X130166666Y-80547619D01*
X129214285Y-81452380D02*
X129785714Y-81452380D01*
X129500000Y-81452380D02*
X129500000Y-80452380D01*
X129595238Y-80595238D01*
X129690476Y-80690476D01*
X129785714Y-80738095D01*
%TO.C,R2*%
X124366666Y-81532380D02*
X124700000Y-81056190D01*
X124938095Y-81532380D02*
X124938095Y-80532380D01*
X124557142Y-80532380D01*
X124461904Y-80580000D01*
X124414285Y-80627619D01*
X124366666Y-80722857D01*
X124366666Y-80865714D01*
X124414285Y-80960952D01*
X124461904Y-81008571D01*
X124557142Y-81056190D01*
X124938095Y-81056190D01*
X123985714Y-80627619D02*
X123938095Y-80580000D01*
X123842857Y-80532380D01*
X123604761Y-80532380D01*
X123509523Y-80580000D01*
X123461904Y-80627619D01*
X123414285Y-80722857D01*
X123414285Y-80818095D01*
X123461904Y-80960952D01*
X124033333Y-81532380D01*
X123414285Y-81532380D01*
%TO.C,R1*%
X124866666Y-87052380D02*
X125200000Y-86576190D01*
X125438095Y-87052380D02*
X125438095Y-86052380D01*
X125057142Y-86052380D01*
X124961904Y-86100000D01*
X124914285Y-86147619D01*
X124866666Y-86242857D01*
X124866666Y-86385714D01*
X124914285Y-86480952D01*
X124961904Y-86528571D01*
X125057142Y-86576190D01*
X125438095Y-86576190D01*
X123914285Y-87052380D02*
X124485714Y-87052380D01*
X124200000Y-87052380D02*
X124200000Y-86052380D01*
X124295238Y-86195238D01*
X124390476Y-86290476D01*
X124485714Y-86338095D01*
%TO.C,R6*%
X143466666Y-81452380D02*
X143800000Y-80976190D01*
X144038095Y-81452380D02*
X144038095Y-80452380D01*
X143657142Y-80452380D01*
X143561904Y-80500000D01*
X143514285Y-80547619D01*
X143466666Y-80642857D01*
X143466666Y-80785714D01*
X143514285Y-80880952D01*
X143561904Y-80928571D01*
X143657142Y-80976190D01*
X144038095Y-80976190D01*
X142609523Y-80452380D02*
X142800000Y-80452380D01*
X142895238Y-80500000D01*
X142942857Y-80547619D01*
X143038095Y-80690476D01*
X143085714Y-80880952D01*
X143085714Y-81261904D01*
X143038095Y-81357142D01*
X142990476Y-81404761D01*
X142895238Y-81452380D01*
X142704761Y-81452380D01*
X142609523Y-81404761D01*
X142561904Y-81357142D01*
X142514285Y-81261904D01*
X142514285Y-81023809D01*
X142561904Y-80928571D01*
X142609523Y-80880952D01*
X142704761Y-80833333D01*
X142895238Y-80833333D01*
X142990476Y-80880952D01*
X143038095Y-80928571D01*
X143085714Y-81023809D01*
%TO.C,R5*%
X144666666Y-86852380D02*
X145000000Y-86376190D01*
X145238095Y-86852380D02*
X145238095Y-85852380D01*
X144857142Y-85852380D01*
X144761904Y-85900000D01*
X144714285Y-85947619D01*
X144666666Y-86042857D01*
X144666666Y-86185714D01*
X144714285Y-86280952D01*
X144761904Y-86328571D01*
X144857142Y-86376190D01*
X145238095Y-86376190D01*
X143761904Y-85852380D02*
X144238095Y-85852380D01*
X144285714Y-86328571D01*
X144238095Y-86280952D01*
X144142857Y-86233333D01*
X143904761Y-86233333D01*
X143809523Y-86280952D01*
X143761904Y-86328571D01*
X143714285Y-86423809D01*
X143714285Y-86661904D01*
X143761904Y-86757142D01*
X143809523Y-86804761D01*
X143904761Y-86852380D01*
X144142857Y-86852380D01*
X144238095Y-86804761D01*
X144285714Y-86757142D01*
D11*
%TO.C,C1*%
X132735000Y-82323752D02*
X132735000Y-81801248D01*
X131265000Y-82323752D02*
X131265000Y-81801248D01*
%TO.C,R2*%
X124427064Y-83465000D02*
X123972936Y-83465000D01*
X124427064Y-81995000D02*
X123972936Y-81995000D01*
%TO.C,R1*%
X124427064Y-83965000D02*
X123972936Y-83965000D01*
X124427064Y-85435000D02*
X123972936Y-85435000D01*
%TO.C,R6*%
X143572936Y-83435000D02*
X144027064Y-83435000D01*
X143572936Y-81965000D02*
X144027064Y-81965000D01*
%TO.C,R5*%
X143572936Y-83965000D02*
X144027064Y-83965000D01*
X143572936Y-85435000D02*
X144027064Y-85435000D01*
%TD*%
M02*
