%TF.GenerationSoftware,KiCad,Pcbnew,6.0.2+dfsg-1*%
%TF.CreationDate,2023-01-31T13:36:01-05:00*%
%TF.ProjectId,qwiic5v-shifter,71776969-6335-4762-9d73-686966746572,1.0*%
%TF.SameCoordinates,Original*%
%TF.FileFunction,Legend,Top*%
%TF.FilePolarity,Positive*%
%FSLAX46Y46*%
G04 Gerber Fmt 4.6, Leading zero omitted, Abs format (unit mm)*
G04 Created by KiCad (PCBNEW 6.0.2+dfsg-1) date 2023-01-31 13:36:01*
%MOMM*%
%LPD*%
G01*
G04 APERTURE LIST*
%ADD10C,0.150000*%
%ADD11C,0.120000*%
G04 APERTURE END LIST*
D10*
X130600000Y-88400000D02*
X139600000Y-88400000D01*
X139100000Y-88700000D02*
X139600000Y-88400000D01*
X139100000Y-88100000D02*
X139100000Y-88700000D01*
X139600000Y-88400000D02*
X139100000Y-88100000D01*
X120447619Y-87552380D02*
X121066666Y-87552380D01*
X120733333Y-87933333D01*
X120876190Y-87933333D01*
X120971428Y-87980952D01*
X121019047Y-88028571D01*
X121066666Y-88123809D01*
X121066666Y-88361904D01*
X121019047Y-88457142D01*
X120971428Y-88504761D01*
X120876190Y-88552380D01*
X120590476Y-88552380D01*
X120495238Y-88504761D01*
X120447619Y-88457142D01*
X121495238Y-88457142D02*
X121542857Y-88504761D01*
X121495238Y-88552380D01*
X121447619Y-88504761D01*
X121495238Y-88457142D01*
X121495238Y-88552380D01*
X121876190Y-87552380D02*
X122495238Y-87552380D01*
X122161904Y-87933333D01*
X122304761Y-87933333D01*
X122400000Y-87980952D01*
X122447619Y-88028571D01*
X122495238Y-88123809D01*
X122495238Y-88361904D01*
X122447619Y-88457142D01*
X122400000Y-88504761D01*
X122304761Y-88552380D01*
X122019047Y-88552380D01*
X121923809Y-88504761D01*
X121876190Y-88457142D01*
X122780952Y-87552380D02*
X123114285Y-88552380D01*
X123447619Y-87552380D01*
X124495238Y-88504761D02*
X124638095Y-88552380D01*
X124876190Y-88552380D01*
X124971428Y-88504761D01*
X125019047Y-88457142D01*
X125066666Y-88361904D01*
X125066666Y-88266666D01*
X125019047Y-88171428D01*
X124971428Y-88123809D01*
X124876190Y-88076190D01*
X124685714Y-88028571D01*
X124590476Y-87980952D01*
X124542857Y-87933333D01*
X124495238Y-87838095D01*
X124495238Y-87742857D01*
X124542857Y-87647619D01*
X124590476Y-87600000D01*
X124685714Y-87552380D01*
X124923809Y-87552380D01*
X125066666Y-87600000D01*
X125495238Y-88552380D02*
X125495238Y-87885714D01*
X125495238Y-87552380D02*
X125447619Y-87600000D01*
X125495238Y-87647619D01*
X125542857Y-87600000D01*
X125495238Y-87552380D01*
X125495238Y-87647619D01*
X126400000Y-88552380D02*
X126400000Y-87552380D01*
X126400000Y-88504761D02*
X126304761Y-88552380D01*
X126114285Y-88552380D01*
X126019047Y-88504761D01*
X125971428Y-88457142D01*
X125923809Y-88361904D01*
X125923809Y-88076190D01*
X125971428Y-87980952D01*
X126019047Y-87933333D01*
X126114285Y-87885714D01*
X126304761Y-87885714D01*
X126400000Y-87933333D01*
X127257142Y-88504761D02*
X127161904Y-88552380D01*
X126971428Y-88552380D01*
X126876190Y-88504761D01*
X126828571Y-88409523D01*
X126828571Y-88028571D01*
X126876190Y-87933333D01*
X126971428Y-87885714D01*
X127161904Y-87885714D01*
X127257142Y-87933333D01*
X127304761Y-88028571D01*
X127304761Y-88123809D01*
X126828571Y-88219047D01*
X142833333Y-87552380D02*
X142357142Y-87552380D01*
X142309523Y-88028571D01*
X142357142Y-87980952D01*
X142452380Y-87933333D01*
X142690476Y-87933333D01*
X142785714Y-87980952D01*
X142833333Y-88028571D01*
X142880952Y-88123809D01*
X142880952Y-88361904D01*
X142833333Y-88457142D01*
X142785714Y-88504761D01*
X142690476Y-88552380D01*
X142452380Y-88552380D01*
X142357142Y-88504761D01*
X142309523Y-88457142D01*
X143166666Y-87552380D02*
X143500000Y-88552380D01*
X143833333Y-87552380D01*
X144880952Y-88504761D02*
X145023809Y-88552380D01*
X145261904Y-88552380D01*
X145357142Y-88504761D01*
X145404761Y-88457142D01*
X145452380Y-88361904D01*
X145452380Y-88266666D01*
X145404761Y-88171428D01*
X145357142Y-88123809D01*
X145261904Y-88076190D01*
X145071428Y-88028571D01*
X144976190Y-87980952D01*
X144928571Y-87933333D01*
X144880952Y-87838095D01*
X144880952Y-87742857D01*
X144928571Y-87647619D01*
X144976190Y-87600000D01*
X145071428Y-87552380D01*
X145309523Y-87552380D01*
X145452380Y-87600000D01*
X145880952Y-88552380D02*
X145880952Y-87885714D01*
X145880952Y-87552380D02*
X145833333Y-87600000D01*
X145880952Y-87647619D01*
X145928571Y-87600000D01*
X145880952Y-87552380D01*
X145880952Y-87647619D01*
X146785714Y-88552380D02*
X146785714Y-87552380D01*
X146785714Y-88504761D02*
X146690476Y-88552380D01*
X146500000Y-88552380D01*
X146404761Y-88504761D01*
X146357142Y-88457142D01*
X146309523Y-88361904D01*
X146309523Y-88076190D01*
X146357142Y-87980952D01*
X146404761Y-87933333D01*
X146500000Y-87885714D01*
X146690476Y-87885714D01*
X146785714Y-87933333D01*
X147642857Y-88504761D02*
X147547619Y-88552380D01*
X147357142Y-88552380D01*
X147261904Y-88504761D01*
X147214285Y-88409523D01*
X147214285Y-88028571D01*
X147261904Y-87933333D01*
X147357142Y-87885714D01*
X147547619Y-87885714D01*
X147642857Y-87933333D01*
X147690476Y-88028571D01*
X147690476Y-88123809D01*
X147214285Y-88219047D01*
%TO.C,C4*%
X140033333Y-83057142D02*
X139985714Y-83104761D01*
X139842857Y-83152380D01*
X139747619Y-83152380D01*
X139604761Y-83104761D01*
X139509523Y-83009523D01*
X139461904Y-82914285D01*
X139414285Y-82723809D01*
X139414285Y-82580952D01*
X139461904Y-82390476D01*
X139509523Y-82295238D01*
X139604761Y-82200000D01*
X139747619Y-82152380D01*
X139842857Y-82152380D01*
X139985714Y-82200000D01*
X140033333Y-82247619D01*
X140890476Y-82485714D02*
X140890476Y-83152380D01*
X140652380Y-82104761D02*
X140414285Y-82819047D01*
X141033333Y-82819047D01*
%TO.C,Q1*%
X130142261Y-87247619D02*
X130047023Y-87200000D01*
X129951785Y-87104761D01*
X129808928Y-86961904D01*
X129713690Y-86914285D01*
X129618452Y-86914285D01*
X129666071Y-87152380D02*
X129570833Y-87104761D01*
X129475595Y-87009523D01*
X129427976Y-86819047D01*
X129427976Y-86485714D01*
X129475595Y-86295238D01*
X129570833Y-86200000D01*
X129666071Y-86152380D01*
X129856547Y-86152380D01*
X129951785Y-86200000D01*
X130047023Y-86295238D01*
X130094642Y-86485714D01*
X130094642Y-86819047D01*
X130047023Y-87009523D01*
X129951785Y-87104761D01*
X129856547Y-87152380D01*
X129666071Y-87152380D01*
X131047023Y-87152380D02*
X130475595Y-87152380D01*
X130761309Y-87152380D02*
X130761309Y-86152380D01*
X130666071Y-86295238D01*
X130570833Y-86390476D01*
X130475595Y-86438095D01*
%TO.C,Q2*%
X130042261Y-80847619D02*
X129947023Y-80800000D01*
X129851785Y-80704761D01*
X129708928Y-80561904D01*
X129613690Y-80514285D01*
X129518452Y-80514285D01*
X129566071Y-80752380D02*
X129470833Y-80704761D01*
X129375595Y-80609523D01*
X129327976Y-80419047D01*
X129327976Y-80085714D01*
X129375595Y-79895238D01*
X129470833Y-79800000D01*
X129566071Y-79752380D01*
X129756547Y-79752380D01*
X129851785Y-79800000D01*
X129947023Y-79895238D01*
X129994642Y-80085714D01*
X129994642Y-80419047D01*
X129947023Y-80609523D01*
X129851785Y-80704761D01*
X129756547Y-80752380D01*
X129566071Y-80752380D01*
X130375595Y-79847619D02*
X130423214Y-79800000D01*
X130518452Y-79752380D01*
X130756547Y-79752380D01*
X130851785Y-79800000D01*
X130899404Y-79847619D01*
X130947023Y-79942857D01*
X130947023Y-80038095D01*
X130899404Y-80180952D01*
X130327976Y-80752380D01*
X130947023Y-80752380D01*
%TO.C,C2*%
X133233333Y-87957142D02*
X133185714Y-88004761D01*
X133042857Y-88052380D01*
X132947619Y-88052380D01*
X132804761Y-88004761D01*
X132709523Y-87909523D01*
X132661904Y-87814285D01*
X132614285Y-87623809D01*
X132614285Y-87480952D01*
X132661904Y-87290476D01*
X132709523Y-87195238D01*
X132804761Y-87100000D01*
X132947619Y-87052380D01*
X133042857Y-87052380D01*
X133185714Y-87100000D01*
X133233333Y-87147619D01*
X133614285Y-87147619D02*
X133661904Y-87100000D01*
X133757142Y-87052380D01*
X133995238Y-87052380D01*
X134090476Y-87100000D01*
X134138095Y-87147619D01*
X134185714Y-87242857D01*
X134185714Y-87338095D01*
X134138095Y-87480952D01*
X133566666Y-88052380D01*
X134185714Y-88052380D01*
%TO.C,J2*%
X142466666Y-80152380D02*
X142466666Y-80866666D01*
X142419047Y-81009523D01*
X142323809Y-81104761D01*
X142180952Y-81152380D01*
X142085714Y-81152380D01*
X142895238Y-80247619D02*
X142942857Y-80200000D01*
X143038095Y-80152380D01*
X143276190Y-80152380D01*
X143371428Y-80200000D01*
X143419047Y-80247619D01*
X143466666Y-80342857D01*
X143466666Y-80438095D01*
X143419047Y-80580952D01*
X142847619Y-81152380D01*
X143466666Y-81152380D01*
X142252380Y-82000000D02*
X142490476Y-82000000D01*
X142395238Y-82238095D02*
X142490476Y-82000000D01*
X142395238Y-81761904D01*
X142680952Y-82142857D02*
X142490476Y-82000000D01*
X142680952Y-81857142D01*
%TO.C,J1*%
X125266666Y-80152380D02*
X125266666Y-80866666D01*
X125219047Y-81009523D01*
X125123809Y-81104761D01*
X124980952Y-81152380D01*
X124885714Y-81152380D01*
X126266666Y-81152380D02*
X125695238Y-81152380D01*
X125980952Y-81152380D02*
X125980952Y-80152380D01*
X125885714Y-80295238D01*
X125790476Y-80390476D01*
X125695238Y-80438095D01*
X125052380Y-85300000D02*
X125290476Y-85300000D01*
X125195238Y-85538095D02*
X125290476Y-85300000D01*
X125195238Y-85061904D01*
X125480952Y-85442857D02*
X125290476Y-85300000D01*
X125480952Y-85157142D01*
%TO.C,C3*%
X129933333Y-84157142D02*
X129885714Y-84204761D01*
X129742857Y-84252380D01*
X129647619Y-84252380D01*
X129504761Y-84204761D01*
X129409523Y-84109523D01*
X129361904Y-84014285D01*
X129314285Y-83823809D01*
X129314285Y-83680952D01*
X129361904Y-83490476D01*
X129409523Y-83395238D01*
X129504761Y-83300000D01*
X129647619Y-83252380D01*
X129742857Y-83252380D01*
X129885714Y-83300000D01*
X129933333Y-83347619D01*
X130266666Y-83252380D02*
X130885714Y-83252380D01*
X130552380Y-83633333D01*
X130695238Y-83633333D01*
X130790476Y-83680952D01*
X130838095Y-83728571D01*
X130885714Y-83823809D01*
X130885714Y-84061904D01*
X130838095Y-84157142D01*
X130790476Y-84204761D01*
X130695238Y-84252380D01*
X130409523Y-84252380D01*
X130314285Y-84204761D01*
X130266666Y-84157142D01*
%TO.C,R3*%
X132233333Y-82752380D02*
X131900000Y-82276190D01*
X131661904Y-82752380D02*
X131661904Y-81752380D01*
X132042857Y-81752380D01*
X132138095Y-81800000D01*
X132185714Y-81847619D01*
X132233333Y-81942857D01*
X132233333Y-82085714D01*
X132185714Y-82180952D01*
X132138095Y-82228571D01*
X132042857Y-82276190D01*
X131661904Y-82276190D01*
X132566666Y-81752380D02*
X133185714Y-81752380D01*
X132852380Y-82133333D01*
X132995238Y-82133333D01*
X133090476Y-82180952D01*
X133138095Y-82228571D01*
X133185714Y-82323809D01*
X133185714Y-82561904D01*
X133138095Y-82657142D01*
X133090476Y-82704761D01*
X132995238Y-82752380D01*
X132709523Y-82752380D01*
X132614285Y-82704761D01*
X132566666Y-82657142D01*
%TO.C,R4*%
X140133333Y-80452380D02*
X139800000Y-79976190D01*
X139561904Y-80452380D02*
X139561904Y-79452380D01*
X139942857Y-79452380D01*
X140038095Y-79500000D01*
X140085714Y-79547619D01*
X140133333Y-79642857D01*
X140133333Y-79785714D01*
X140085714Y-79880952D01*
X140038095Y-79928571D01*
X139942857Y-79976190D01*
X139561904Y-79976190D01*
X140990476Y-79785714D02*
X140990476Y-80452380D01*
X140752380Y-79404761D02*
X140514285Y-80119047D01*
X141133333Y-80119047D01*
%TO.C,U1*%
X139138095Y-85552380D02*
X139138095Y-86361904D01*
X139185714Y-86457142D01*
X139233333Y-86504761D01*
X139328571Y-86552380D01*
X139519047Y-86552380D01*
X139614285Y-86504761D01*
X139661904Y-86457142D01*
X139709523Y-86361904D01*
X139709523Y-85552380D01*
X140709523Y-86552380D02*
X140138095Y-86552380D01*
X140423809Y-86552380D02*
X140423809Y-85552380D01*
X140328571Y-85695238D01*
X140233333Y-85790476D01*
X140138095Y-85838095D01*
X136200000Y-83152380D02*
X136200000Y-83390476D01*
X135961904Y-83295238D02*
X136200000Y-83390476D01*
X136438095Y-83295238D01*
X136057142Y-83580952D02*
X136200000Y-83390476D01*
X136342857Y-83580952D01*
D11*
%TO.C,C4*%
X139465000Y-84976248D02*
X139465000Y-85498752D01*
X140935000Y-84976248D02*
X140935000Y-85498752D01*
%TO.C,Q1*%
X128237500Y-87060000D02*
X127587500Y-87060000D01*
X128237500Y-87060000D02*
X128887500Y-87060000D01*
X128237500Y-83940000D02*
X128887500Y-83940000D01*
X128237500Y-83940000D02*
X126562500Y-83940000D01*
%TO.C,Q2*%
X128337500Y-79740000D02*
X128987500Y-79740000D01*
X128337500Y-79740000D02*
X126662500Y-79740000D01*
X128337500Y-82860000D02*
X128987500Y-82860000D01*
X128337500Y-82860000D02*
X127687500Y-82860000D01*
%TO.C,C2*%
X136001248Y-86365000D02*
X136523752Y-86365000D01*
X136001248Y-87835000D02*
X136523752Y-87835000D01*
%TO.C,J2*%
X147627001Y-85570358D02*
X147627001Y-81829640D01*
X143766201Y-85837539D02*
X143766201Y-86824199D01*
X143766201Y-86824199D02*
X145565560Y-86824199D01*
X143766201Y-80575799D02*
X143766201Y-81562459D01*
X145565560Y-80575799D02*
X143766201Y-80575799D01*
%TO.C,J1*%
X124233799Y-81562459D02*
X124233799Y-80575799D01*
X124233799Y-80575799D02*
X122434440Y-80575799D01*
X120372999Y-81829640D02*
X120372999Y-85570358D01*
X124233799Y-86824199D02*
X124233799Y-85837539D01*
X122434440Y-86824199D02*
X124233799Y-86824199D01*
%TO.C,C3*%
X131265000Y-85023752D02*
X131265000Y-84501248D01*
X132735000Y-85023752D02*
X132735000Y-84501248D01*
%TO.C,R3*%
X133372936Y-81435000D02*
X133827064Y-81435000D01*
X133372936Y-79965000D02*
X133827064Y-79965000D01*
%TO.C,R4*%
X137727064Y-81435000D02*
X137272936Y-81435000D01*
X137727064Y-79965000D02*
X137272936Y-79965000D01*
%TO.C,U1*%
X137876400Y-85376400D02*
X137876400Y-85159741D01*
X134523600Y-85159741D02*
X134523600Y-85376400D01*
X137876400Y-82240259D02*
X137876400Y-82023600D01*
X134523600Y-85376400D02*
X137876400Y-85376400D01*
X134523600Y-82023600D02*
X134523600Y-82240259D01*
X137876400Y-82023600D02*
X134523600Y-82023600D01*
X138386940Y-84773829D02*
G75*
G03*
X138386940Y-84626171I18860J73829D01*
G01*
%TD*%
M02*
