M48
; DRILL file {KiCad (6.0.10)} date Fri Jan 27 02:10:59 2023
; FORMAT={-:-/ absolute / inch / decimal}
; #@! TF.CreationDate,2023-01-27T02:10:59-05:00
; #@! TF.GenerationSoftware,Kicad,Pcbnew,(6.0.10)
; #@! TF.FileFunction,Plated,1,4,PTH
FMAT,2
INCH
; #@! TA.AperFunction,Plated,PTH,ComponentDrill
T1C0.0079
; #@! TA.AperFunction,Plated,PTH,ViaDrill
T2C0.0157
; #@! TA.AperFunction,Plated,PTH,ComponentDrill
T3C0.0430
; #@! TA.AperFunction,Plated,PTH,ComponentDrill
T4C0.0850
%
G90
G05
T1
X5.1673Y-2.5217
X5.1673Y-2.5748
X5.1673Y-2.628
X5.2421Y-2.5217
X5.2421Y-2.5748
X5.2421Y-2.628
T2
X4.9173Y-2.6378
X4.9843Y-2.7717
X5.0394Y-2.5984
X5.0945Y-2.4409
X5.0945Y-2.7402
X5.3071Y-2.811
X5.378Y-2.5512
X5.5512Y-2.4843
X5.8346Y-2.4921
X6.0197Y-2.6575
X6.0197Y-2.7874
X6.0275Y-2.7474
X6.1457Y-2.5315
X6.1693Y-2.6614
X6.1969Y-2.878
X6.1969Y-2.9449
T3
X4.5757Y-2.5594
X4.5757Y-2.6382
X4.5757Y-2.7169
X4.5757Y-2.7957
T4
X4.6111Y-2.4472
X4.6111Y-2.9079
T0
M30
