%TF.GenerationSoftware,KiCad,Pcbnew,6.0.2+dfsg-1*%
%TF.CreationDate,2023-01-31T13:28:27-05:00*%
%TF.ProjectId,qwiic-interface,71776969-632d-4696-9e74-657266616365,1.0*%
%TF.SameCoordinates,Original*%
%TF.FileFunction,Legend,Top*%
%TF.FilePolarity,Positive*%
%FSLAX46Y46*%
G04 Gerber Fmt 4.6, Leading zero omitted, Abs format (unit mm)*
G04 Created by KiCad (PCBNEW 6.0.2+dfsg-1) date 2023-01-31 13:28:27*
%MOMM*%
%LPD*%
G01*
G04 APERTURE LIST*
%ADD10C,0.150000*%
%ADD11C,0.120000*%
G04 APERTURE END LIST*
D10*
X120042857Y-72547619D02*
X119947619Y-72500000D01*
X119852380Y-72404761D01*
X119709523Y-72261904D01*
X119614285Y-72214285D01*
X119519047Y-72214285D01*
X119566666Y-72452380D02*
X119471428Y-72404761D01*
X119376190Y-72309523D01*
X119328571Y-72119047D01*
X119328571Y-71785714D01*
X119376190Y-71595238D01*
X119471428Y-71500000D01*
X119566666Y-71452380D01*
X119757142Y-71452380D01*
X119852380Y-71500000D01*
X119947619Y-71595238D01*
X119995238Y-71785714D01*
X119995238Y-72119047D01*
X119947619Y-72309523D01*
X119852380Y-72404761D01*
X119757142Y-72452380D01*
X119566666Y-72452380D01*
X120328571Y-71452380D02*
X120566666Y-72452380D01*
X120757142Y-71738095D01*
X120947619Y-72452380D01*
X121185714Y-71452380D01*
X121566666Y-72452380D02*
X121566666Y-71452380D01*
X122042857Y-72452380D02*
X122042857Y-71452380D01*
X123090476Y-72357142D02*
X123042857Y-72404761D01*
X122900000Y-72452380D01*
X122804761Y-72452380D01*
X122661904Y-72404761D01*
X122566666Y-72309523D01*
X122519047Y-72214285D01*
X122471428Y-72023809D01*
X122471428Y-71880952D01*
X122519047Y-71690476D01*
X122566666Y-71595238D01*
X122661904Y-71500000D01*
X122804761Y-71452380D01*
X122900000Y-71452380D01*
X123042857Y-71500000D01*
X123090476Y-71547619D01*
X124280952Y-72452380D02*
X124280952Y-71452380D01*
X124757142Y-71785714D02*
X124757142Y-72452380D01*
X124757142Y-71880952D02*
X124804761Y-71833333D01*
X124900000Y-71785714D01*
X125042857Y-71785714D01*
X125138095Y-71833333D01*
X125185714Y-71928571D01*
X125185714Y-72452380D01*
X125519047Y-71785714D02*
X125900000Y-71785714D01*
X125661904Y-71452380D02*
X125661904Y-72309523D01*
X125709523Y-72404761D01*
X125804761Y-72452380D01*
X125900000Y-72452380D01*
X126614285Y-72404761D02*
X126519047Y-72452380D01*
X126328571Y-72452380D01*
X126233333Y-72404761D01*
X126185714Y-72309523D01*
X126185714Y-71928571D01*
X126233333Y-71833333D01*
X126328571Y-71785714D01*
X126519047Y-71785714D01*
X126614285Y-71833333D01*
X126661904Y-71928571D01*
X126661904Y-72023809D01*
X126185714Y-72119047D01*
X127090476Y-72452380D02*
X127090476Y-71785714D01*
X127090476Y-71976190D02*
X127138095Y-71880952D01*
X127185714Y-71833333D01*
X127280952Y-71785714D01*
X127376190Y-71785714D01*
X127566666Y-71785714D02*
X127947619Y-71785714D01*
X127709523Y-72452380D02*
X127709523Y-71595238D01*
X127757142Y-71500000D01*
X127852380Y-71452380D01*
X127947619Y-71452380D01*
X128709523Y-72452380D02*
X128709523Y-71928571D01*
X128661904Y-71833333D01*
X128566666Y-71785714D01*
X128376190Y-71785714D01*
X128280952Y-71833333D01*
X128709523Y-72404761D02*
X128614285Y-72452380D01*
X128376190Y-72452380D01*
X128280952Y-72404761D01*
X128233333Y-72309523D01*
X128233333Y-72214285D01*
X128280952Y-72119047D01*
X128376190Y-72071428D01*
X128614285Y-72071428D01*
X128709523Y-72023809D01*
X129614285Y-72404761D02*
X129519047Y-72452380D01*
X129328571Y-72452380D01*
X129233333Y-72404761D01*
X129185714Y-72357142D01*
X129138095Y-72261904D01*
X129138095Y-71976190D01*
X129185714Y-71880952D01*
X129233333Y-71833333D01*
X129328571Y-71785714D01*
X129519047Y-71785714D01*
X129614285Y-71833333D01*
X130423809Y-72404761D02*
X130328571Y-72452380D01*
X130138095Y-72452380D01*
X130042857Y-72404761D01*
X129995238Y-72309523D01*
X129995238Y-71928571D01*
X130042857Y-71833333D01*
X130138095Y-71785714D01*
X130328571Y-71785714D01*
X130423809Y-71833333D01*
X130471428Y-71928571D01*
X130471428Y-72023809D01*
X129995238Y-72119047D01*
X120209523Y-73380714D02*
X120447619Y-74047380D01*
X120685714Y-73380714D01*
X121590476Y-74047380D02*
X121019047Y-74047380D01*
X121304761Y-74047380D02*
X121304761Y-73047380D01*
X121209523Y-73190238D01*
X121114285Y-73285476D01*
X121019047Y-73333095D01*
X122019047Y-73952142D02*
X122066666Y-73999761D01*
X122019047Y-74047380D01*
X121971428Y-73999761D01*
X122019047Y-73952142D01*
X122019047Y-74047380D01*
X122685714Y-73047380D02*
X122780952Y-73047380D01*
X122876190Y-73095000D01*
X122923809Y-73142619D01*
X122971428Y-73237857D01*
X123019047Y-73428333D01*
X123019047Y-73666428D01*
X122971428Y-73856904D01*
X122923809Y-73952142D01*
X122876190Y-73999761D01*
X122780952Y-74047380D01*
X122685714Y-74047380D01*
X122590476Y-73999761D01*
X122542857Y-73952142D01*
X122495238Y-73856904D01*
X122447619Y-73666428D01*
X122447619Y-73428333D01*
X122495238Y-73237857D01*
X122542857Y-73142619D01*
X122590476Y-73095000D01*
X122685714Y-73047380D01*
X124495238Y-74428333D02*
X124447619Y-74380714D01*
X124352380Y-74237857D01*
X124304761Y-74142619D01*
X124257142Y-73999761D01*
X124209523Y-73761666D01*
X124209523Y-73571190D01*
X124257142Y-73333095D01*
X124304761Y-73190238D01*
X124352380Y-73095000D01*
X124447619Y-72952142D01*
X124495238Y-72904523D01*
X125304761Y-73999761D02*
X125209523Y-74047380D01*
X125019047Y-74047380D01*
X124923809Y-73999761D01*
X124876190Y-73952142D01*
X124828571Y-73856904D01*
X124828571Y-73571190D01*
X124876190Y-73475952D01*
X124923809Y-73428333D01*
X125019047Y-73380714D01*
X125209523Y-73380714D01*
X125304761Y-73428333D01*
X125638095Y-74428333D02*
X125685714Y-74380714D01*
X125780952Y-74237857D01*
X125828571Y-74142619D01*
X125876190Y-73999761D01*
X125923809Y-73761666D01*
X125923809Y-73571190D01*
X125876190Y-73333095D01*
X125828571Y-73190238D01*
X125780952Y-73095000D01*
X125685714Y-72952142D01*
X125638095Y-72904523D01*
X127114285Y-73142619D02*
X127161904Y-73095000D01*
X127257142Y-73047380D01*
X127495238Y-73047380D01*
X127590476Y-73095000D01*
X127638095Y-73142619D01*
X127685714Y-73237857D01*
X127685714Y-73333095D01*
X127638095Y-73475952D01*
X127066666Y-74047380D01*
X127685714Y-74047380D01*
X128304761Y-73047380D02*
X128400000Y-73047380D01*
X128495238Y-73095000D01*
X128542857Y-73142619D01*
X128590476Y-73237857D01*
X128638095Y-73428333D01*
X128638095Y-73666428D01*
X128590476Y-73856904D01*
X128542857Y-73952142D01*
X128495238Y-73999761D01*
X128400000Y-74047380D01*
X128304761Y-74047380D01*
X128209523Y-73999761D01*
X128161904Y-73952142D01*
X128114285Y-73856904D01*
X128066666Y-73666428D01*
X128066666Y-73428333D01*
X128114285Y-73237857D01*
X128161904Y-73142619D01*
X128209523Y-73095000D01*
X128304761Y-73047380D01*
X129019047Y-73142619D02*
X129066666Y-73095000D01*
X129161904Y-73047380D01*
X129400000Y-73047380D01*
X129495238Y-73095000D01*
X129542857Y-73142619D01*
X129590476Y-73237857D01*
X129590476Y-73333095D01*
X129542857Y-73475952D01*
X128971428Y-74047380D01*
X129590476Y-74047380D01*
X129923809Y-73047380D02*
X130542857Y-73047380D01*
X130209523Y-73428333D01*
X130352380Y-73428333D01*
X130447619Y-73475952D01*
X130495238Y-73523571D01*
X130542857Y-73618809D01*
X130542857Y-73856904D01*
X130495238Y-73952142D01*
X130447619Y-73999761D01*
X130352380Y-74047380D01*
X130066666Y-74047380D01*
X129971428Y-73999761D01*
X129923809Y-73952142D01*
X121780952Y-74705000D02*
X121685714Y-74657380D01*
X121542857Y-74657380D01*
X121400000Y-74705000D01*
X121304761Y-74800238D01*
X121257142Y-74895476D01*
X121209523Y-75085952D01*
X121209523Y-75228809D01*
X121257142Y-75419285D01*
X121304761Y-75514523D01*
X121400000Y-75609761D01*
X121542857Y-75657380D01*
X121638095Y-75657380D01*
X121780952Y-75609761D01*
X121828571Y-75562142D01*
X121828571Y-75228809D01*
X121638095Y-75228809D01*
X122685714Y-75657380D02*
X122685714Y-75133571D01*
X122638095Y-75038333D01*
X122542857Y-74990714D01*
X122352380Y-74990714D01*
X122257142Y-75038333D01*
X122685714Y-75609761D02*
X122590476Y-75657380D01*
X122352380Y-75657380D01*
X122257142Y-75609761D01*
X122209523Y-75514523D01*
X122209523Y-75419285D01*
X122257142Y-75324047D01*
X122352380Y-75276428D01*
X122590476Y-75276428D01*
X122685714Y-75228809D01*
X123066666Y-74990714D02*
X123304761Y-75657380D01*
X123542857Y-74990714D01*
X123923809Y-75657380D02*
X123923809Y-74990714D01*
X123923809Y-74657380D02*
X123876190Y-74705000D01*
X123923809Y-74752619D01*
X123971428Y-74705000D01*
X123923809Y-74657380D01*
X123923809Y-74752619D01*
X124400000Y-74990714D02*
X124400000Y-75657380D01*
X124400000Y-75085952D02*
X124447619Y-75038333D01*
X124542857Y-74990714D01*
X124685714Y-74990714D01*
X124780952Y-75038333D01*
X124828571Y-75133571D01*
X124828571Y-75657380D01*
X126066666Y-75657380D02*
X126066666Y-74657380D01*
X126066666Y-75133571D02*
X126638095Y-75133571D01*
X126638095Y-75657380D02*
X126638095Y-74657380D01*
X127542857Y-74990714D02*
X127542857Y-75657380D01*
X127114285Y-74990714D02*
X127114285Y-75514523D01*
X127161904Y-75609761D01*
X127257142Y-75657380D01*
X127400000Y-75657380D01*
X127495238Y-75609761D01*
X127542857Y-75562142D01*
X128019047Y-75657380D02*
X128019047Y-74990714D01*
X128019047Y-75181190D02*
X128066666Y-75085952D01*
X128114285Y-75038333D01*
X128209523Y-74990714D01*
X128304761Y-74990714D01*
X128780952Y-75657380D02*
X128685714Y-75609761D01*
X128638095Y-75514523D01*
X128638095Y-74657380D01*
X129161904Y-75657380D02*
X129161904Y-74657380D01*
X129161904Y-75038333D02*
X129257142Y-74990714D01*
X129447619Y-74990714D01*
X129542857Y-75038333D01*
X129590476Y-75085952D01*
X129638095Y-75181190D01*
X129638095Y-75466904D01*
X129590476Y-75562142D01*
X129542857Y-75609761D01*
X129447619Y-75657380D01*
X129257142Y-75657380D01*
X129161904Y-75609761D01*
X130495238Y-74990714D02*
X130495238Y-75657380D01*
X130066666Y-74990714D02*
X130066666Y-75514523D01*
X130114285Y-75609761D01*
X130209523Y-75657380D01*
X130352380Y-75657380D01*
X130447619Y-75609761D01*
X130495238Y-75562142D01*
X130828571Y-74990714D02*
X131209523Y-74990714D01*
X130971428Y-74657380D02*
X130971428Y-75514523D01*
X131019047Y-75609761D01*
X131114285Y-75657380D01*
X131209523Y-75657380D01*
%TO.C,L1*%
X135433333Y-62352380D02*
X134957142Y-62352380D01*
X134957142Y-61352380D01*
X136290476Y-62352380D02*
X135719047Y-62352380D01*
X136004761Y-62352380D02*
X136004761Y-61352380D01*
X135909523Y-61495238D01*
X135814285Y-61590476D01*
X135719047Y-61638095D01*
X144000000Y-67652380D02*
X144000000Y-67890476D01*
X143761904Y-67795238D02*
X144000000Y-67890476D01*
X144238095Y-67795238D01*
X143857142Y-68080952D02*
X144000000Y-67890476D01*
X144142857Y-68080952D01*
%TO.C,F1*%
X119566666Y-68028571D02*
X119233333Y-68028571D01*
X119233333Y-68552380D02*
X119233333Y-67552380D01*
X119709523Y-67552380D01*
X120614285Y-68552380D02*
X120042857Y-68552380D01*
X120328571Y-68552380D02*
X120328571Y-67552380D01*
X120233333Y-67695238D01*
X120138095Y-67790476D01*
X120042857Y-67838095D01*
%TO.C,D1*%
X136452380Y-70758095D02*
X135452380Y-70758095D01*
X135452380Y-70520000D01*
X135500000Y-70377142D01*
X135595238Y-70281904D01*
X135690476Y-70234285D01*
X135880952Y-70186666D01*
X136023809Y-70186666D01*
X136214285Y-70234285D01*
X136309523Y-70281904D01*
X136404761Y-70377142D01*
X136452380Y-70520000D01*
X136452380Y-70758095D01*
X136452380Y-69234285D02*
X136452380Y-69805714D01*
X136452380Y-69520000D02*
X135452380Y-69520000D01*
X135595238Y-69615238D01*
X135690476Y-69710476D01*
X135738095Y-69805714D01*
%TO.C,C5*%
X156657142Y-62666666D02*
X156704761Y-62714285D01*
X156752380Y-62857142D01*
X156752380Y-62952380D01*
X156704761Y-63095238D01*
X156609523Y-63190476D01*
X156514285Y-63238095D01*
X156323809Y-63285714D01*
X156180952Y-63285714D01*
X155990476Y-63238095D01*
X155895238Y-63190476D01*
X155800000Y-63095238D01*
X155752380Y-62952380D01*
X155752380Y-62857142D01*
X155800000Y-62714285D01*
X155847619Y-62666666D01*
X155752380Y-61761904D02*
X155752380Y-62238095D01*
X156228571Y-62285714D01*
X156180952Y-62238095D01*
X156133333Y-62142857D01*
X156133333Y-61904761D01*
X156180952Y-61809523D01*
X156228571Y-61761904D01*
X156323809Y-61714285D01*
X156561904Y-61714285D01*
X156657142Y-61761904D01*
X156704761Y-61809523D01*
X156752380Y-61904761D01*
X156752380Y-62142857D01*
X156704761Y-62238095D01*
X156657142Y-62285714D01*
%TO.C,U1*%
X131238095Y-61052380D02*
X131238095Y-61861904D01*
X131285714Y-61957142D01*
X131333333Y-62004761D01*
X131428571Y-62052380D01*
X131619047Y-62052380D01*
X131714285Y-62004761D01*
X131761904Y-61957142D01*
X131809523Y-61861904D01*
X131809523Y-61052380D01*
X132809523Y-62052380D02*
X132238095Y-62052380D01*
X132523809Y-62052380D02*
X132523809Y-61052380D01*
X132428571Y-61195238D01*
X132333333Y-61290476D01*
X132238095Y-61338095D01*
X135000000Y-68947619D02*
X135000000Y-68709523D01*
X135238095Y-68804761D02*
X135000000Y-68709523D01*
X134761904Y-68804761D01*
X135142857Y-68519047D02*
X135000000Y-68709523D01*
X134857142Y-68519047D01*
%TO.C,J1*%
X109082180Y-68343333D02*
X109796466Y-68343333D01*
X109939323Y-68390952D01*
X110034561Y-68486190D01*
X110082180Y-68629047D01*
X110082180Y-68724285D01*
X110082180Y-67343333D02*
X110082180Y-67914761D01*
X110082180Y-67629047D02*
X109082180Y-67629047D01*
X109225038Y-67724285D01*
X109320276Y-67819523D01*
X109367895Y-67914761D01*
%TO.C,R2*%
X123833333Y-69452380D02*
X123500000Y-68976190D01*
X123261904Y-69452380D02*
X123261904Y-68452380D01*
X123642857Y-68452380D01*
X123738095Y-68500000D01*
X123785714Y-68547619D01*
X123833333Y-68642857D01*
X123833333Y-68785714D01*
X123785714Y-68880952D01*
X123738095Y-68928571D01*
X123642857Y-68976190D01*
X123261904Y-68976190D01*
X124214285Y-68547619D02*
X124261904Y-68500000D01*
X124357142Y-68452380D01*
X124595238Y-68452380D01*
X124690476Y-68500000D01*
X124738095Y-68547619D01*
X124785714Y-68642857D01*
X124785714Y-68738095D01*
X124738095Y-68880952D01*
X124166666Y-69452380D01*
X124785714Y-69452380D01*
%TO.C,R1*%
X126433333Y-61652380D02*
X126100000Y-61176190D01*
X125861904Y-61652380D02*
X125861904Y-60652380D01*
X126242857Y-60652380D01*
X126338095Y-60700000D01*
X126385714Y-60747619D01*
X126433333Y-60842857D01*
X126433333Y-60985714D01*
X126385714Y-61080952D01*
X126338095Y-61128571D01*
X126242857Y-61176190D01*
X125861904Y-61176190D01*
X127385714Y-61652380D02*
X126814285Y-61652380D01*
X127100000Y-61652380D02*
X127100000Y-60652380D01*
X127004761Y-60795238D01*
X126909523Y-60890476D01*
X126814285Y-60938095D01*
%TO.C,C1*%
X123433333Y-67357142D02*
X123385714Y-67404761D01*
X123242857Y-67452380D01*
X123147619Y-67452380D01*
X123004761Y-67404761D01*
X122909523Y-67309523D01*
X122861904Y-67214285D01*
X122814285Y-67023809D01*
X122814285Y-66880952D01*
X122861904Y-66690476D01*
X122909523Y-66595238D01*
X123004761Y-66500000D01*
X123147619Y-66452380D01*
X123242857Y-66452380D01*
X123385714Y-66500000D01*
X123433333Y-66547619D01*
X124385714Y-67452380D02*
X123814285Y-67452380D01*
X124100000Y-67452380D02*
X124100000Y-66452380D01*
X124004761Y-66595238D01*
X123909523Y-66690476D01*
X123814285Y-66738095D01*
%TO.C,C2*%
X131595833Y-71957142D02*
X131548214Y-72004761D01*
X131405357Y-72052380D01*
X131310119Y-72052380D01*
X131167261Y-72004761D01*
X131072023Y-71909523D01*
X131024404Y-71814285D01*
X130976785Y-71623809D01*
X130976785Y-71480952D01*
X131024404Y-71290476D01*
X131072023Y-71195238D01*
X131167261Y-71100000D01*
X131310119Y-71052380D01*
X131405357Y-71052380D01*
X131548214Y-71100000D01*
X131595833Y-71147619D01*
X131976785Y-71147619D02*
X132024404Y-71100000D01*
X132119642Y-71052380D01*
X132357738Y-71052380D01*
X132452976Y-71100000D01*
X132500595Y-71147619D01*
X132548214Y-71242857D01*
X132548214Y-71338095D01*
X132500595Y-71480952D01*
X131929166Y-72052380D01*
X132548214Y-72052380D01*
%TO.C,J2*%
X152366666Y-64852380D02*
X152366666Y-65566666D01*
X152319047Y-65709523D01*
X152223809Y-65804761D01*
X152080952Y-65852380D01*
X151985714Y-65852380D01*
X152795238Y-64947619D02*
X152842857Y-64900000D01*
X152938095Y-64852380D01*
X153176190Y-64852380D01*
X153271428Y-64900000D01*
X153319047Y-64947619D01*
X153366666Y-65042857D01*
X153366666Y-65138095D01*
X153319047Y-65280952D01*
X152747619Y-65852380D01*
X153366666Y-65852380D01*
X152119981Y-66485401D02*
X152358077Y-66485401D01*
X152262839Y-66723496D02*
X152358077Y-66485401D01*
X152262839Y-66247305D01*
X152548553Y-66628258D02*
X152358077Y-66485401D01*
X152548553Y-66342543D01*
%TO.C,C4*%
X152233333Y-72657142D02*
X152185714Y-72704761D01*
X152042857Y-72752380D01*
X151947619Y-72752380D01*
X151804761Y-72704761D01*
X151709523Y-72609523D01*
X151661904Y-72514285D01*
X151614285Y-72323809D01*
X151614285Y-72180952D01*
X151661904Y-71990476D01*
X151709523Y-71895238D01*
X151804761Y-71800000D01*
X151947619Y-71752380D01*
X152042857Y-71752380D01*
X152185714Y-71800000D01*
X152233333Y-71847619D01*
X153090476Y-72085714D02*
X153090476Y-72752380D01*
X152852380Y-71704761D02*
X152614285Y-72419047D01*
X153233333Y-72419047D01*
D11*
%TO.C,L1*%
X151124700Y-74727800D02*
X151124700Y-71009450D01*
X151124700Y-61672200D02*
X136875300Y-61672200D01*
X136875300Y-61672200D02*
X136875300Y-65390550D01*
X136875300Y-74727800D02*
X151124700Y-74727800D01*
X136875300Y-71009450D02*
X136875300Y-74727800D01*
X151124700Y-65390550D02*
X151124700Y-61672200D01*
%TO.C,F1*%
X120635000Y-65072936D02*
X120635000Y-65527064D01*
X119165000Y-65072936D02*
X119165000Y-65527064D01*
%TO.C,D1*%
X135200000Y-70520000D02*
X135200000Y-69220000D01*
X135200000Y-69220000D02*
X134400000Y-69220000D01*
X134400000Y-70520000D02*
X134400000Y-69220000D01*
%TO.C,C5*%
X153238748Y-64035000D02*
X153761252Y-64035000D01*
X153238748Y-62565000D02*
X153761252Y-62565000D01*
%TO.C,U1*%
X132200000Y-62840000D02*
X130250000Y-62840000D01*
X132200000Y-67960000D02*
X130250000Y-67960000D01*
X132200000Y-62840000D02*
X134150000Y-62840000D01*
X132200000Y-67960000D02*
X135650000Y-67960000D01*
%TO.C,J1*%
X100600100Y-73212450D02*
X100600100Y-75515700D01*
X100600100Y-75515700D02*
X110342673Y-75515700D01*
X110342673Y-60504300D02*
X100600100Y-60504300D01*
X100600100Y-65632450D02*
X100600100Y-70387550D01*
X118659500Y-60504300D02*
X110342673Y-60504300D01*
X118659500Y-75515700D02*
X118659500Y-60504300D01*
X100600100Y-60504300D02*
X100600100Y-73212450D01*
X110342673Y-75515700D02*
X118659500Y-75515700D01*
X115968800Y-63740001D02*
G75*
G03*
X115968800Y-63740001I-381000J0D01*
G01*
%TO.C,R2*%
X127335000Y-67772936D02*
X127335000Y-68227064D01*
X125865000Y-67772936D02*
X125865000Y-68227064D01*
%TO.C,R1*%
X127335000Y-63572936D02*
X127335000Y-64027064D01*
X125865000Y-63572936D02*
X125865000Y-64027064D01*
%TO.C,C1*%
X122240000Y-62926248D02*
X122240000Y-64348752D01*
X124960000Y-62926248D02*
X124960000Y-64348752D01*
%TO.C,C2*%
X131538748Y-68865000D02*
X132061252Y-68865000D01*
X131538748Y-70335000D02*
X132061252Y-70335000D01*
%TO.C,J2*%
X154166201Y-72124201D02*
X155965560Y-72124201D01*
X158027001Y-70870360D02*
X158027001Y-67129642D01*
X154166201Y-65875801D02*
X154166201Y-66862461D01*
X155965560Y-65875801D02*
X154166201Y-65875801D01*
X154166201Y-71137541D02*
X154166201Y-72124201D01*
%TO.C,C4*%
X155862500Y-73165000D02*
X151777500Y-73165000D01*
X151777500Y-75035000D02*
X155862500Y-75035000D01*
X151777500Y-73165000D02*
X151777500Y-75035000D01*
%TD*%
M02*
