%TF.GenerationSoftware,KiCad,Pcbnew,6.0.2+dfsg-1*%
%TF.CreationDate,2023-01-19T17:06:32-05:00*%
%TF.ProjectId,qwiic-interface,71776969-632d-4696-9e74-657266616365,rev?*%
%TF.SameCoordinates,Original*%
%TF.FileFunction,Copper,L1,Top*%
%TF.FilePolarity,Positive*%
%FSLAX46Y46*%
G04 Gerber Fmt 4.6, Leading zero omitted, Abs format (unit mm)*
G04 Created by KiCad (PCBNEW 6.0.2+dfsg-1) date 2023-01-19 17:06:32*
%MOMM*%
%LPD*%
G01*
G04 APERTURE LIST*
G04 Aperture macros list*
%AMRoundRect*
0 Rectangle with rounded corners*
0 $1 Rounding radius*
0 $2 $3 $4 $5 $6 $7 $8 $9 X,Y pos of 4 corners*
0 Add a 4 corners polygon primitive as box body*
4,1,4,$2,$3,$4,$5,$6,$7,$8,$9,$2,$3,0*
0 Add four circle primitives for the rounded corners*
1,1,$1+$1,$2,$3*
1,1,$1+$1,$4,$5*
1,1,$1+$1,$6,$7*
1,1,$1+$1,$8,$9*
0 Add four rect primitives between the rounded corners*
20,1,$1+$1,$2,$3,$4,$5,0*
20,1,$1+$1,$4,$5,$6,$7,0*
20,1,$1+$1,$6,$7,$8,$9,0*
20,1,$1+$1,$8,$9,$2,$3,0*%
G04 Aperture macros list end*
%TA.AperFunction,SMDPad,CuDef*%
%ADD10RoundRect,0.150000X0.650000X0.150000X-0.650000X0.150000X-0.650000X-0.150000X0.650000X-0.150000X0*%
%TD*%
%TA.AperFunction,ComponentPad*%
%ADD11C,0.500000*%
%TD*%
%TA.AperFunction,SMDPad,CuDef*%
%ADD12R,2.400000X3.200000*%
%TD*%
%TA.AperFunction,SMDPad,CuDef*%
%ADD13RoundRect,0.250000X-0.450000X0.350000X-0.450000X-0.350000X0.450000X-0.350000X0.450000X0.350000X0*%
%TD*%
%TA.AperFunction,SMDPad,CuDef*%
%ADD14R,2.590800X5.003800*%
%TD*%
%TA.AperFunction,SMDPad,CuDef*%
%ADD15R,1.549400X0.609600*%
%TD*%
%TA.AperFunction,SMDPad,CuDef*%
%ADD16R,1.803400X1.193800*%
%TD*%
%TA.AperFunction,ComponentPad*%
%ADD17C,1.600200*%
%TD*%
%TA.AperFunction,ComponentPad*%
%ADD18C,2.667000*%
%TD*%
%TA.AperFunction,SMDPad,CuDef*%
%ADD19R,10.845800X2.209800*%
%TD*%
%TA.AperFunction,SMDPad,CuDef*%
%ADD20R,0.250000X0.360000*%
%TD*%
%TA.AperFunction,SMDPad,CuDef*%
%ADD21RoundRect,0.250000X-0.337500X-0.475000X0.337500X-0.475000X0.337500X0.475000X-0.337500X0.475000X0*%
%TD*%
%TA.AperFunction,SMDPad,CuDef*%
%ADD22RoundRect,0.250000X-0.537500X-0.425000X0.537500X-0.425000X0.537500X0.425000X-0.537500X0.425000X0*%
%TD*%
%TA.AperFunction,SMDPad,CuDef*%
%ADD23RoundRect,0.250000X-1.100000X0.412500X-1.100000X-0.412500X1.100000X-0.412500X1.100000X0.412500X0*%
%TD*%
%TA.AperFunction,ViaPad*%
%ADD24C,0.800000*%
%TD*%
%TA.AperFunction,Conductor*%
%ADD25C,0.250000*%
%TD*%
G04 APERTURE END LIST*
D10*
%TO.P,U1,1,LX*%
%TO.N,Net-(C2-Pad2)*%
X134850000Y-67305000D03*
%TO.P,U1,2,GND*%
%TO.N,GND*%
X134850000Y-66035000D03*
%TO.P,U1,3,VC*%
%TO.N,Net-(C3-Pad1)*%
X134850000Y-64765000D03*
%TO.P,U1,4,FB*%
%TO.N,Net-(R5-Pad2)*%
X134850000Y-63495000D03*
%TO.P,U1,5,RT*%
%TO.N,Net-(R3-Pad1)*%
X129550000Y-63495000D03*
%TO.P,U1,6,EN*%
%TO.N,Net-(R1-Pad2)*%
X129550000Y-64765000D03*
%TO.P,U1,7,BST*%
%TO.N,Net-(C2-Pad1)*%
X129550000Y-66035000D03*
%TO.P,U1,8,VCC*%
%TO.N,+12V*%
X129550000Y-67305000D03*
D11*
%TO.P,U1,9,GND*%
%TO.N,GND*%
X131250000Y-65400000D03*
X133150000Y-66750000D03*
X133150000Y-64050000D03*
X131250000Y-64050000D03*
X133150000Y-65400000D03*
X131250000Y-66750000D03*
D12*
X132200000Y-65400000D03*
%TD*%
D13*
%TO.P,F1,2*%
%TO.N,+12V*%
X119900000Y-66300000D03*
%TO.P,F1,1*%
%TO.N,+BATT*%
X119900000Y-64300000D03*
%TD*%
%TO.P,R2,1*%
%TO.N,Net-(R1-Pad2)*%
X126600000Y-67000000D03*
%TO.P,R2,2*%
%TO.N,GND*%
X126600000Y-69000000D03*
%TD*%
%TO.P,R1,1*%
%TO.N,+12V*%
X126600000Y-62800000D03*
%TO.P,R1,2*%
%TO.N,Net-(R1-Pad2)*%
X126600000Y-64800000D03*
%TD*%
D14*
%TO.P,L1,2,2*%
%TO.N,+3V3*%
X149702300Y-68200000D03*
%TO.P,L1,1,1*%
%TO.N,Net-(C2-Pad2)*%
X138297700Y-68200000D03*
%TD*%
D15*
%TO.P,J2,1,1*%
%TO.N,GND*%
X154675001Y-67500001D03*
%TO.P,J2,2,2*%
%TO.N,+3V3*%
X154675001Y-68500002D03*
%TO.P,J2,3,3*%
%TO.N,SDA*%
X154675001Y-69500000D03*
%TO.P,J2,4,4*%
%TO.N,SCL*%
X154675001Y-70500001D03*
D16*
%TO.P,J2,5*%
%TO.N,N/C*%
X157200000Y-66200002D03*
%TO.P,J2,6*%
X157200000Y-71800000D03*
%TD*%
D17*
%TO.P,J1,1,1*%
%TO.N,+BATT*%
X116222800Y-65010001D03*
%TO.P,J1,2,2*%
%TO.N,SDA*%
X116222800Y-67010000D03*
%TO.P,J1,3,3*%
%TO.N,SCL*%
X116222800Y-69010001D03*
%TO.P,J1,4,4*%
%TO.N,GND*%
X116222800Y-71009999D03*
D18*
%TO.P,J1,5*%
%TO.N,N/C*%
X117122801Y-62159999D03*
%TO.P,J1,6*%
X117122801Y-73860001D03*
D19*
%TO.P,J1,7*%
X109200000Y-64220000D03*
%TO.P,J1,8*%
X109200000Y-71800000D03*
%TD*%
D20*
%TO.P,D1,1,K*%
%TO.N,Net-(C2-Pad2)*%
X134800000Y-69600000D03*
%TO.P,D1,2,A*%
%TO.N,GND*%
X134800000Y-70440000D03*
%TD*%
D21*
%TO.P,C5,1*%
%TO.N,+3V3*%
X152462500Y-63300000D03*
%TO.P,C5,2*%
%TO.N,GND*%
X154537500Y-63300000D03*
%TD*%
D22*
%TO.P,C4,2*%
%TO.N,GND*%
X155700000Y-74100000D03*
%TO.P,C4,1*%
%TO.N,+3V3*%
X152825000Y-74100000D03*
%TD*%
D21*
%TO.P,C2,2*%
%TO.N,Net-(C2-Pad2)*%
X132837500Y-69600000D03*
%TO.P,C2,1*%
%TO.N,Net-(C2-Pad1)*%
X130762500Y-69600000D03*
%TD*%
D23*
%TO.P,C1,1*%
%TO.N,+12V*%
X123600000Y-62075000D03*
%TO.P,C1,2*%
%TO.N,GND*%
X123600000Y-65200000D03*
%TD*%
D24*
%TO.N,+3V3*%
X156700000Y-67600000D03*
%TO.N,GND*%
X157400000Y-74800000D03*
%TO.N,+3V3*%
X148200000Y-63300000D03*
%TO.N,Net-(R5-Pad2)*%
X141000000Y-63100000D03*
%TO.N,+3V3*%
X157400000Y-73100000D03*
%TO.N,SDA*%
X153097540Y-69782782D03*
%TO.N,SCL*%
X152900000Y-70800000D03*
%TO.N,GND*%
X152900000Y-67500000D03*
X156100000Y-64300000D03*
%TO.N,Net-(R3-Pad1)*%
X129400000Y-62000000D03*
%TO.N,Net-(C3-Pad1)*%
X136600000Y-64800000D03*
%TO.N,GND*%
X124900000Y-67000000D03*
X126600000Y-70400000D03*
X134800000Y-71400000D03*
%TO.N,Net-(C2-Pad1)*%
X129400000Y-69600000D03*
X128000000Y-66000000D03*
%TD*%
D25*
%TO.N,+3V3*%
X155799998Y-68500002D02*
X156700000Y-67600000D01*
X154675001Y-68500002D02*
X155799998Y-68500002D01*
%TO.N,GND*%
X156700000Y-74100000D02*
X157400000Y-74800000D01*
X155700000Y-74100000D02*
X156700000Y-74100000D01*
X152900000Y-67500000D02*
X154675001Y-67500001D01*
%TO.N,+BATT*%
X116222800Y-65010001D02*
X117032801Y-64200000D01*
X117032801Y-64200000D02*
X119800000Y-64200000D01*
X119800000Y-64200000D02*
X119900000Y-64300000D01*
%TO.N,GND*%
X124900000Y-67000000D02*
X124900000Y-66500000D01*
X124900000Y-66500000D02*
X123600000Y-65200000D01*
%TO.N,Net-(R5-Pad2)*%
X140605000Y-63495000D02*
X141000000Y-63100000D01*
X134850000Y-63495000D02*
X140605000Y-63495000D01*
%TO.N,SDA*%
X153097540Y-69782782D02*
X153380322Y-69500000D01*
X153380322Y-69500000D02*
X154675001Y-69500000D01*
%TO.N,SCL*%
X152900000Y-70800000D02*
X153199999Y-70500001D01*
X153199999Y-70500001D02*
X154675001Y-70500001D01*
%TO.N,GND*%
X155100000Y-63300000D02*
X156100000Y-64300000D01*
X154537500Y-63300000D02*
X155100000Y-63300000D01*
%TO.N,Net-(R3-Pad1)*%
X129400000Y-62000000D02*
X129400000Y-63345000D01*
X129400000Y-63345000D02*
X129550000Y-63495000D01*
%TO.N,Net-(C3-Pad1)*%
X134885000Y-64800000D02*
X134850000Y-64765000D01*
X136600000Y-64800000D02*
X134885000Y-64800000D01*
%TO.N,GND*%
X126600000Y-69000000D02*
X126600000Y-70400000D01*
X134800000Y-70440000D02*
X134800000Y-71400000D01*
%TO.N,Net-(C2-Pad2)*%
X134800000Y-69600000D02*
X134800000Y-67355000D01*
X134800000Y-67355000D02*
X134850000Y-67305000D01*
X132837500Y-69600000D02*
X134800000Y-69600000D01*
%TO.N,Net-(C2-Pad1)*%
X130762500Y-69600000D02*
X129400000Y-69600000D01*
X128035000Y-66035000D02*
X128000000Y-66000000D01*
X129550000Y-66035000D02*
X128035000Y-66035000D01*
%TO.N,GND*%
X134850000Y-66035000D02*
X132835000Y-66035000D01*
X132835000Y-66035000D02*
X132200000Y-65400000D01*
%TO.N,Net-(C2-Pad2)*%
X134850000Y-67305000D02*
X137402700Y-67305000D01*
X137402700Y-67305000D02*
X138297700Y-68200000D01*
%TO.N,Net-(R1-Pad2)*%
X126600000Y-64800000D02*
X126635000Y-64765000D01*
X126635000Y-64765000D02*
X129550000Y-64765000D01*
X126600000Y-67000000D02*
X126600000Y-64800000D01*
%TO.N,+BATT*%
X120389999Y-65010001D02*
X120400000Y-65000000D01*
%TD*%
%TA.AperFunction,Conductor*%
%TO.N,+12V*%
G36*
X138042121Y-60328002D02*
G01*
X138088614Y-60381658D01*
X138100000Y-60434000D01*
X138100000Y-62735500D01*
X138079998Y-62803621D01*
X138026342Y-62850114D01*
X137974000Y-62861500D01*
X135999950Y-62861500D01*
X135931829Y-62841498D01*
X135918729Y-62830941D01*
X135918675Y-62831011D01*
X135912415Y-62826155D01*
X135906807Y-62820547D01*
X135899983Y-62816511D01*
X135899980Y-62816509D01*
X135770427Y-62739892D01*
X135770428Y-62739892D01*
X135763601Y-62735855D01*
X135755990Y-62733644D01*
X135755988Y-62733643D01*
X135703769Y-62718472D01*
X135603831Y-62689438D01*
X135597426Y-62688934D01*
X135597421Y-62688933D01*
X135568958Y-62686693D01*
X135568950Y-62686693D01*
X135566502Y-62686500D01*
X134133498Y-62686500D01*
X134131050Y-62686693D01*
X134131042Y-62686693D01*
X134102579Y-62688933D01*
X134102574Y-62688934D01*
X134096169Y-62689438D01*
X133996231Y-62718472D01*
X133944012Y-62733643D01*
X133944010Y-62733644D01*
X133936399Y-62735855D01*
X133929572Y-62739892D01*
X133929573Y-62739892D01*
X133800020Y-62816509D01*
X133800017Y-62816511D01*
X133793193Y-62820547D01*
X133675547Y-62938193D01*
X133671511Y-62945017D01*
X133671509Y-62945020D01*
X133658683Y-62966708D01*
X133590855Y-63081399D01*
X133588644Y-63089009D01*
X133588642Y-63089014D01*
X133556209Y-63200652D01*
X133517996Y-63260488D01*
X133453500Y-63290166D01*
X133435212Y-63291500D01*
X133202905Y-63291500D01*
X133187987Y-63290614D01*
X133162323Y-63287554D01*
X133155329Y-63286720D01*
X133148326Y-63287456D01*
X133148325Y-63287456D01*
X133116414Y-63290810D01*
X133103244Y-63291500D01*
X131302905Y-63291500D01*
X131287987Y-63290614D01*
X131262323Y-63287554D01*
X131255329Y-63286720D01*
X131248326Y-63287456D01*
X131248325Y-63287456D01*
X131216414Y-63290810D01*
X131203244Y-63291500D01*
X130964788Y-63291500D01*
X130896667Y-63271498D01*
X130850174Y-63217842D01*
X130843791Y-63200652D01*
X130811358Y-63089014D01*
X130811356Y-63089009D01*
X130809145Y-63081399D01*
X130741317Y-62966708D01*
X130728491Y-62945020D01*
X130728489Y-62945017D01*
X130724453Y-62938193D01*
X130606807Y-62820547D01*
X130599983Y-62816511D01*
X130599980Y-62816509D01*
X130470427Y-62739892D01*
X130470428Y-62739892D01*
X130463601Y-62735855D01*
X130455990Y-62733644D01*
X130455988Y-62733643D01*
X130403769Y-62718472D01*
X130303831Y-62689438D01*
X130297426Y-62688934D01*
X130297421Y-62688933D01*
X130268959Y-62686693D01*
X130268949Y-62686693D01*
X130266502Y-62686500D01*
X130265675Y-62686500D01*
X130198608Y-62663915D01*
X130154256Y-62608477D01*
X130146916Y-62537861D01*
X130161715Y-62497670D01*
X130231223Y-62377279D01*
X130231224Y-62377278D01*
X130234527Y-62371556D01*
X130293542Y-62189928D01*
X130313504Y-62000000D01*
X130297535Y-61848063D01*
X130294232Y-61816635D01*
X130294232Y-61816633D01*
X130293542Y-61810072D01*
X130234527Y-61628444D01*
X130139040Y-61463056D01*
X130034475Y-61346924D01*
X130015675Y-61326045D01*
X130015674Y-61326044D01*
X130011253Y-61321134D01*
X129856752Y-61208882D01*
X129850724Y-61206198D01*
X129850722Y-61206197D01*
X129688319Y-61133891D01*
X129688318Y-61133891D01*
X129682288Y-61131206D01*
X129588888Y-61111353D01*
X129501944Y-61092872D01*
X129501939Y-61092872D01*
X129495487Y-61091500D01*
X129304513Y-61091500D01*
X129298061Y-61092872D01*
X129298056Y-61092872D01*
X129211112Y-61111353D01*
X129117712Y-61131206D01*
X129111682Y-61133891D01*
X129111681Y-61133891D01*
X128949278Y-61206197D01*
X128949276Y-61206198D01*
X128943248Y-61208882D01*
X128788747Y-61321134D01*
X128784326Y-61326044D01*
X128784325Y-61326045D01*
X128765526Y-61346924D01*
X128660960Y-61463056D01*
X128565473Y-61628444D01*
X128506458Y-61810072D01*
X128505768Y-61816633D01*
X128505768Y-61816635D01*
X128502465Y-61848063D01*
X128486496Y-62000000D01*
X128506458Y-62189928D01*
X128565473Y-62371556D01*
X128660960Y-62536944D01*
X128666324Y-62542902D01*
X128666679Y-62543642D01*
X128669259Y-62547192D01*
X128668610Y-62547664D01*
X128697044Y-62606904D01*
X128688285Y-62677358D01*
X128642825Y-62731892D01*
X128636195Y-62735509D01*
X128636399Y-62735855D01*
X128500020Y-62816509D01*
X128500017Y-62816511D01*
X128493193Y-62820547D01*
X128375547Y-62938193D01*
X128371511Y-62945017D01*
X128371509Y-62945020D01*
X128358683Y-62966708D01*
X128290855Y-63081399D01*
X128288644Y-63089010D01*
X128288643Y-63089012D01*
X128288520Y-63089437D01*
X128244438Y-63241169D01*
X128243934Y-63247574D01*
X128243933Y-63247579D01*
X128242917Y-63260488D01*
X128241500Y-63278498D01*
X128241500Y-63711502D01*
X128241693Y-63713950D01*
X128241693Y-63713958D01*
X128242679Y-63726479D01*
X128244438Y-63748831D01*
X128290855Y-63908601D01*
X128310231Y-63941363D01*
X128327689Y-64010178D01*
X128305172Y-64077509D01*
X128249827Y-64121978D01*
X128201776Y-64131500D01*
X127815122Y-64131500D01*
X127747001Y-64111498D01*
X127707978Y-64071803D01*
X127703538Y-64064627D01*
X127648478Y-63975652D01*
X127573684Y-63900988D01*
X127561537Y-63888862D01*
X127527458Y-63826579D01*
X127532461Y-63755759D01*
X127561382Y-63710671D01*
X127643739Y-63628171D01*
X127652751Y-63616760D01*
X127737816Y-63478757D01*
X127743963Y-63465576D01*
X127795138Y-63311290D01*
X127798005Y-63297914D01*
X127807672Y-63203562D01*
X127808000Y-63197146D01*
X127808000Y-63072115D01*
X127803525Y-63056876D01*
X127802135Y-63055671D01*
X127794452Y-63054000D01*
X126472000Y-63054000D01*
X126403879Y-63033998D01*
X126357386Y-62980342D01*
X126346000Y-62928000D01*
X126346000Y-62527885D01*
X126854000Y-62527885D01*
X126858475Y-62543124D01*
X126859865Y-62544329D01*
X126867548Y-62546000D01*
X127789884Y-62546000D01*
X127805123Y-62541525D01*
X127806328Y-62540135D01*
X127807999Y-62532452D01*
X127807999Y-62402905D01*
X127807662Y-62396386D01*
X127797743Y-62300794D01*
X127794851Y-62287400D01*
X127743412Y-62133216D01*
X127737239Y-62120038D01*
X127651937Y-61982193D01*
X127642901Y-61970792D01*
X127528171Y-61856261D01*
X127516760Y-61847249D01*
X127378757Y-61762184D01*
X127365576Y-61756037D01*
X127211290Y-61704862D01*
X127197914Y-61701995D01*
X127103562Y-61692328D01*
X127097145Y-61692000D01*
X126872115Y-61692000D01*
X126856876Y-61696475D01*
X126855671Y-61697865D01*
X126854000Y-61705548D01*
X126854000Y-62527885D01*
X126346000Y-62527885D01*
X126346000Y-61710116D01*
X126341525Y-61694877D01*
X126340135Y-61693672D01*
X126332452Y-61692001D01*
X126102905Y-61692001D01*
X126096386Y-61692338D01*
X126000794Y-61702257D01*
X125987400Y-61705149D01*
X125833216Y-61756588D01*
X125820038Y-61762761D01*
X125682193Y-61848063D01*
X125665055Y-61861646D01*
X125663678Y-61859909D01*
X125610892Y-61888794D01*
X125540072Y-61883792D01*
X125483198Y-61841296D01*
X125458328Y-61774798D01*
X125457999Y-61765697D01*
X125457999Y-61615405D01*
X125457662Y-61608886D01*
X125447743Y-61513294D01*
X125444851Y-61499900D01*
X125393412Y-61345716D01*
X125387239Y-61332538D01*
X125301937Y-61194693D01*
X125292901Y-61183292D01*
X125178171Y-61068761D01*
X125166760Y-61059749D01*
X125028757Y-60974684D01*
X125015576Y-60968537D01*
X124861290Y-60917362D01*
X124847914Y-60914495D01*
X124753562Y-60904828D01*
X124747145Y-60904500D01*
X123872115Y-60904500D01*
X123856876Y-60908975D01*
X123855671Y-60910365D01*
X123854000Y-60918048D01*
X123854000Y-63227384D01*
X123858475Y-63242623D01*
X123859865Y-63243828D01*
X123867548Y-63245499D01*
X124747095Y-63245499D01*
X124753614Y-63245162D01*
X124849206Y-63235243D01*
X124862600Y-63232351D01*
X125016784Y-63180912D01*
X125029962Y-63174739D01*
X125167807Y-63089437D01*
X125184945Y-63075854D01*
X125186322Y-63077591D01*
X125239108Y-63048706D01*
X125309928Y-63053708D01*
X125366802Y-63096204D01*
X125391672Y-63162702D01*
X125392001Y-63171803D01*
X125392001Y-63197095D01*
X125392338Y-63203614D01*
X125402257Y-63299206D01*
X125405149Y-63312600D01*
X125456588Y-63466784D01*
X125462761Y-63479962D01*
X125548063Y-63617807D01*
X125557099Y-63629208D01*
X125638462Y-63710430D01*
X125672541Y-63772713D01*
X125667538Y-63843533D01*
X125638617Y-63888620D01*
X125555870Y-63971512D01*
X125555866Y-63971517D01*
X125550695Y-63976697D01*
X125546855Y-63982927D01*
X125546854Y-63982928D01*
X125478955Y-64093081D01*
X125457885Y-64127262D01*
X125454481Y-64137526D01*
X125436140Y-64192821D01*
X125395709Y-64251181D01*
X125330145Y-64278418D01*
X125260264Y-64265885D01*
X125227529Y-64242327D01*
X125178483Y-64193366D01*
X125173303Y-64188195D01*
X125136706Y-64165636D01*
X125028968Y-64099225D01*
X125028966Y-64099224D01*
X125022738Y-64095385D01*
X124862254Y-64042155D01*
X124861389Y-64041868D01*
X124861387Y-64041868D01*
X124854861Y-64039703D01*
X124848025Y-64039003D01*
X124848022Y-64039002D01*
X124804969Y-64034591D01*
X124750400Y-64029000D01*
X122449600Y-64029000D01*
X122446354Y-64029337D01*
X122446350Y-64029337D01*
X122350692Y-64039262D01*
X122350688Y-64039263D01*
X122343834Y-64039974D01*
X122337298Y-64042155D01*
X122337296Y-64042155D01*
X122248431Y-64071803D01*
X122176054Y-64095950D01*
X122025652Y-64189022D01*
X121900695Y-64314197D01*
X121896855Y-64320427D01*
X121896854Y-64320428D01*
X121826398Y-64434729D01*
X121807885Y-64464762D01*
X121752203Y-64632639D01*
X121741500Y-64737100D01*
X121741500Y-65662900D01*
X121741837Y-65666146D01*
X121741837Y-65666150D01*
X121750864Y-65753146D01*
X121752474Y-65768666D01*
X121754655Y-65775202D01*
X121754655Y-65775204D01*
X121795085Y-65896386D01*
X121808450Y-65936446D01*
X121901522Y-66086848D01*
X122026697Y-66211805D01*
X122032927Y-66215645D01*
X122032928Y-66215646D01*
X122161677Y-66295008D01*
X122177262Y-66304615D01*
X122257005Y-66331064D01*
X122338611Y-66358132D01*
X122338613Y-66358132D01*
X122345139Y-66360297D01*
X122351975Y-66360997D01*
X122351978Y-66360998D01*
X122395031Y-66365409D01*
X122449600Y-66371000D01*
X123822906Y-66371000D01*
X123891027Y-66391002D01*
X123912001Y-66407905D01*
X124027322Y-66523226D01*
X124061348Y-66585538D01*
X124058060Y-66651257D01*
X124018461Y-66773132D01*
X124006458Y-66810072D01*
X124005768Y-66816633D01*
X124005768Y-66816635D01*
X123994916Y-66919886D01*
X123986496Y-67000000D01*
X123987186Y-67006565D01*
X123998091Y-67110316D01*
X124006458Y-67189928D01*
X124065473Y-67371556D01*
X124160960Y-67536944D01*
X124165378Y-67541851D01*
X124165379Y-67541852D01*
X124276974Y-67665791D01*
X124288747Y-67678866D01*
X124387843Y-67750864D01*
X124437904Y-67787235D01*
X124443248Y-67791118D01*
X124449276Y-67793802D01*
X124449278Y-67793803D01*
X124611681Y-67866109D01*
X124617712Y-67868794D01*
X124711112Y-67888647D01*
X124798056Y-67907128D01*
X124798061Y-67907128D01*
X124804513Y-67908500D01*
X124995487Y-67908500D01*
X125001939Y-67907128D01*
X125001944Y-67907128D01*
X125088888Y-67888647D01*
X125182288Y-67868794D01*
X125188319Y-67866109D01*
X125350722Y-67793803D01*
X125350724Y-67793802D01*
X125356752Y-67791118D01*
X125363750Y-67786033D01*
X125367139Y-67783572D01*
X125434007Y-67759715D01*
X125503158Y-67775798D01*
X125542093Y-67813206D01*
X125543125Y-67812388D01*
X125547668Y-67818120D01*
X125551522Y-67824348D01*
X125634447Y-67907128D01*
X125638109Y-67910784D01*
X125672188Y-67973066D01*
X125667185Y-68043886D01*
X125638264Y-68088975D01*
X125613782Y-68113500D01*
X125550695Y-68176697D01*
X125546855Y-68182927D01*
X125546854Y-68182928D01*
X125511983Y-68239500D01*
X125457885Y-68327262D01*
X125402203Y-68495139D01*
X125401503Y-68501975D01*
X125401502Y-68501978D01*
X125397091Y-68545031D01*
X125391500Y-68599600D01*
X125391500Y-69400400D01*
X125391837Y-69403646D01*
X125391837Y-69403650D01*
X125393185Y-69416635D01*
X125402474Y-69506166D01*
X125404655Y-69512702D01*
X125404655Y-69512704D01*
X125427137Y-69580091D01*
X125458450Y-69673946D01*
X125551522Y-69824348D01*
X125676697Y-69949305D01*
X125682927Y-69953145D01*
X125682928Y-69953146D01*
X125687753Y-69956120D01*
X125735246Y-70008892D01*
X125746670Y-70078964D01*
X125741470Y-70102316D01*
X125706458Y-70210072D01*
X125705768Y-70216633D01*
X125705768Y-70216635D01*
X125698975Y-70281265D01*
X125686496Y-70400000D01*
X125687186Y-70406565D01*
X125705140Y-70577385D01*
X125706458Y-70589928D01*
X125765473Y-70771556D01*
X125860960Y-70936944D01*
X125865378Y-70941851D01*
X125865379Y-70941852D01*
X125877930Y-70955791D01*
X125988747Y-71078866D01*
X126143248Y-71191118D01*
X126149276Y-71193802D01*
X126149278Y-71193803D01*
X126260716Y-71243418D01*
X126317712Y-71268794D01*
X126411113Y-71288647D01*
X126498056Y-71307128D01*
X126498061Y-71307128D01*
X126504513Y-71308500D01*
X126695487Y-71308500D01*
X126701939Y-71307128D01*
X126701944Y-71307128D01*
X126788887Y-71288647D01*
X126882288Y-71268794D01*
X126939284Y-71243418D01*
X127050722Y-71193803D01*
X127050724Y-71193802D01*
X127056752Y-71191118D01*
X127211253Y-71078866D01*
X127322070Y-70955791D01*
X127334621Y-70941852D01*
X127334622Y-70941851D01*
X127339040Y-70936944D01*
X127434527Y-70771556D01*
X127493542Y-70589928D01*
X127494861Y-70577385D01*
X127512814Y-70406565D01*
X127513504Y-70400000D01*
X127501025Y-70281265D01*
X127494232Y-70216635D01*
X127494232Y-70216633D01*
X127493542Y-70210072D01*
X127458488Y-70102188D01*
X127456460Y-70031222D01*
X127493122Y-69970424D01*
X127512018Y-69956108D01*
X127518128Y-69952327D01*
X127524348Y-69948478D01*
X127649305Y-69823303D01*
X127742115Y-69672738D01*
X127771532Y-69584049D01*
X127795632Y-69511389D01*
X127795632Y-69511387D01*
X127797797Y-69504861D01*
X127808500Y-69400400D01*
X127808500Y-68599600D01*
X127808163Y-68596350D01*
X127798238Y-68500692D01*
X127798237Y-68500688D01*
X127797526Y-68493834D01*
X127741550Y-68326054D01*
X127648478Y-68175652D01*
X127561891Y-68089216D01*
X127527812Y-68026934D01*
X127532815Y-67956114D01*
X127561736Y-67911025D01*
X127644134Y-67828483D01*
X127649305Y-67823303D01*
X127669144Y-67791118D01*
X127738275Y-67678968D01*
X127738276Y-67678966D01*
X127742115Y-67672738D01*
X127775903Y-67570871D01*
X128248456Y-67570871D01*
X128289107Y-67710790D01*
X128295352Y-67725221D01*
X128371911Y-67854678D01*
X128381551Y-67867104D01*
X128487896Y-67973449D01*
X128500322Y-67983089D01*
X128629779Y-68059648D01*
X128644210Y-68065893D01*
X128790065Y-68108269D01*
X128802667Y-68110570D01*
X128831084Y-68112807D01*
X128836014Y-68113000D01*
X129277885Y-68113000D01*
X129293124Y-68108525D01*
X129294329Y-68107135D01*
X129296000Y-68099452D01*
X129296000Y-67577115D01*
X129291525Y-67561876D01*
X129290135Y-67560671D01*
X129282452Y-67559000D01*
X128263122Y-67559000D01*
X128249591Y-67562973D01*
X128248456Y-67570871D01*
X127775903Y-67570871D01*
X127789956Y-67528502D01*
X127795632Y-67511389D01*
X127795632Y-67511387D01*
X127797797Y-67504861D01*
X127808500Y-67400400D01*
X127808500Y-67034500D01*
X127828502Y-66966379D01*
X127882158Y-66919886D01*
X127934500Y-66908500D01*
X128095487Y-66908500D01*
X128101944Y-66907128D01*
X128108515Y-66906437D01*
X128108767Y-66908831D01*
X128168636Y-66913394D01*
X128225273Y-66956205D01*
X128249774Y-67022840D01*
X128250053Y-67030883D01*
X128250101Y-67047706D01*
X128257370Y-67051000D01*
X129678000Y-67051000D01*
X129746121Y-67071002D01*
X129792614Y-67124658D01*
X129804000Y-67177000D01*
X129804000Y-68094884D01*
X129808475Y-68110123D01*
X129809865Y-68111328D01*
X129817548Y-68112999D01*
X130263984Y-68112999D01*
X130268920Y-68112805D01*
X130297336Y-68110570D01*
X130309931Y-68108270D01*
X130455790Y-68065893D01*
X130470221Y-68059648D01*
X130599678Y-67983089D01*
X130612104Y-67973449D01*
X130718449Y-67867104D01*
X130728089Y-67854678D01*
X130804648Y-67725221D01*
X130810894Y-67710788D01*
X130843271Y-67599347D01*
X130881484Y-67539511D01*
X130945981Y-67509834D01*
X130964268Y-67508500D01*
X131190933Y-67508500D01*
X131207595Y-67509607D01*
X131214765Y-67510563D01*
X131227035Y-67512201D01*
X131227038Y-67512201D01*
X131234015Y-67513132D01*
X131241026Y-67512494D01*
X131241030Y-67512494D01*
X131279208Y-67509019D01*
X131290628Y-67508500D01*
X133090933Y-67508500D01*
X133107595Y-67509607D01*
X133114765Y-67510563D01*
X133127035Y-67512201D01*
X133127038Y-67512201D01*
X133134015Y-67513132D01*
X133141026Y-67512494D01*
X133141030Y-67512494D01*
X133179208Y-67509019D01*
X133190628Y-67508500D01*
X133435212Y-67508500D01*
X133503333Y-67528502D01*
X133549826Y-67582158D01*
X133556209Y-67599348D01*
X133588642Y-67710986D01*
X133588644Y-67710991D01*
X133590855Y-67718601D01*
X133594892Y-67725427D01*
X133671509Y-67854980D01*
X133671511Y-67854983D01*
X133675547Y-67861807D01*
X133793193Y-67979453D01*
X133800017Y-67983489D01*
X133800020Y-67983491D01*
X133848494Y-68012158D01*
X133936399Y-68064145D01*
X133944010Y-68066356D01*
X133944012Y-68066357D01*
X134075653Y-68104602D01*
X134135488Y-68142815D01*
X134165166Y-68207311D01*
X134166500Y-68225599D01*
X134166500Y-68840500D01*
X134146498Y-68908621D01*
X134092842Y-68955114D01*
X134040500Y-68966500D01*
X134012538Y-68966500D01*
X133944417Y-68946498D01*
X133897924Y-68892842D01*
X133893014Y-68880376D01*
X133868868Y-68808002D01*
X133866550Y-68801054D01*
X133773478Y-68650652D01*
X133648303Y-68525695D01*
X133586009Y-68487296D01*
X133503968Y-68436725D01*
X133503966Y-68436724D01*
X133497738Y-68432885D01*
X133337254Y-68379655D01*
X133336389Y-68379368D01*
X133336387Y-68379368D01*
X133329861Y-68377203D01*
X133323025Y-68376503D01*
X133323022Y-68376502D01*
X133279969Y-68372091D01*
X133225400Y-68366500D01*
X132449600Y-68366500D01*
X132446354Y-68366837D01*
X132446350Y-68366837D01*
X132350692Y-68376762D01*
X132350688Y-68376763D01*
X132343834Y-68377474D01*
X132337298Y-68379655D01*
X132337296Y-68379655D01*
X132205194Y-68423728D01*
X132176054Y-68433450D01*
X132025652Y-68526522D01*
X131900695Y-68651697D01*
X131898094Y-68655916D01*
X131840970Y-68696417D01*
X131770047Y-68699649D01*
X131708635Y-68664024D01*
X131702078Y-68656470D01*
X131698478Y-68650652D01*
X131573303Y-68525695D01*
X131511009Y-68487296D01*
X131428968Y-68436725D01*
X131428966Y-68436724D01*
X131422738Y-68432885D01*
X131262254Y-68379655D01*
X131261389Y-68379368D01*
X131261387Y-68379368D01*
X131254861Y-68377203D01*
X131248025Y-68376503D01*
X131248022Y-68376502D01*
X131204969Y-68372091D01*
X131150400Y-68366500D01*
X130374600Y-68366500D01*
X130371354Y-68366837D01*
X130371350Y-68366837D01*
X130275692Y-68376762D01*
X130275688Y-68376763D01*
X130268834Y-68377474D01*
X130262298Y-68379655D01*
X130262296Y-68379655D01*
X130130194Y-68423728D01*
X130101054Y-68433450D01*
X129950652Y-68526522D01*
X129825695Y-68651697D01*
X129821855Y-68657927D01*
X129821854Y-68657928D01*
X129812346Y-68673353D01*
X129759574Y-68720846D01*
X129689502Y-68732270D01*
X129678900Y-68730486D01*
X129590562Y-68711709D01*
X129501944Y-68692872D01*
X129501939Y-68692872D01*
X129495487Y-68691500D01*
X129304513Y-68691500D01*
X129298061Y-68692872D01*
X129298056Y-68692872D01*
X129211112Y-68711353D01*
X129117712Y-68731206D01*
X129111682Y-68733891D01*
X129111681Y-68733891D01*
X128949278Y-68806197D01*
X128949276Y-68806198D01*
X128943248Y-68808882D01*
X128937907Y-68812762D01*
X128937906Y-68812763D01*
X128899730Y-68840500D01*
X128788747Y-68921134D01*
X128784326Y-68926044D01*
X128784325Y-68926045D01*
X128713661Y-69004526D01*
X128660960Y-69063056D01*
X128565473Y-69228444D01*
X128506458Y-69410072D01*
X128486496Y-69600000D01*
X128487186Y-69606565D01*
X128489879Y-69632183D01*
X128506458Y-69789928D01*
X128565473Y-69971556D01*
X128660960Y-70136944D01*
X128665378Y-70141851D01*
X128665379Y-70141852D01*
X128725361Y-70208469D01*
X128788747Y-70278866D01*
X128845133Y-70319833D01*
X128919400Y-70373791D01*
X128943248Y-70391118D01*
X128949276Y-70393802D01*
X128949278Y-70393803D01*
X129111681Y-70466109D01*
X129117712Y-70468794D01*
X129211113Y-70488647D01*
X129298056Y-70507128D01*
X129298061Y-70507128D01*
X129304513Y-70508500D01*
X129495487Y-70508500D01*
X129501939Y-70507128D01*
X129501944Y-70507128D01*
X129618461Y-70482361D01*
X129679004Y-70469492D01*
X129749794Y-70474894D01*
X129806426Y-70517711D01*
X129812336Y-70526424D01*
X129826522Y-70549348D01*
X129951697Y-70674305D01*
X129957927Y-70678145D01*
X129957928Y-70678146D01*
X130095090Y-70762694D01*
X130102262Y-70767115D01*
X130182005Y-70793564D01*
X130263611Y-70820632D01*
X130263613Y-70820632D01*
X130270139Y-70822797D01*
X130276975Y-70823497D01*
X130276978Y-70823498D01*
X130320031Y-70827909D01*
X130374600Y-70833500D01*
X131150400Y-70833500D01*
X131153646Y-70833163D01*
X131153650Y-70833163D01*
X131249308Y-70823238D01*
X131249312Y-70823237D01*
X131256166Y-70822526D01*
X131262702Y-70820345D01*
X131262704Y-70820345D01*
X131408941Y-70771556D01*
X131423946Y-70766550D01*
X131574348Y-70673478D01*
X131699305Y-70548303D01*
X131701906Y-70544084D01*
X131759030Y-70503583D01*
X131829953Y-70500351D01*
X131891365Y-70535976D01*
X131897922Y-70543530D01*
X131901522Y-70549348D01*
X132026697Y-70674305D01*
X132032927Y-70678145D01*
X132032928Y-70678146D01*
X132170090Y-70762694D01*
X132177262Y-70767115D01*
X132257005Y-70793564D01*
X132338611Y-70820632D01*
X132338613Y-70820632D01*
X132345139Y-70822797D01*
X132351975Y-70823497D01*
X132351978Y-70823498D01*
X132395031Y-70827909D01*
X132449600Y-70833500D01*
X133225400Y-70833500D01*
X133228646Y-70833163D01*
X133228650Y-70833163D01*
X133324308Y-70823238D01*
X133324312Y-70823237D01*
X133331166Y-70822526D01*
X133337702Y-70820345D01*
X133337704Y-70820345D01*
X133483941Y-70771556D01*
X133498946Y-70766550D01*
X133649348Y-70673478D01*
X133774305Y-70548303D01*
X133781904Y-70535976D01*
X133863275Y-70403968D01*
X133863276Y-70403966D01*
X133867115Y-70397738D01*
X133888973Y-70331839D01*
X133892955Y-70319833D01*
X133933386Y-70261473D01*
X133998950Y-70234236D01*
X134012548Y-70233500D01*
X134040500Y-70233500D01*
X134108621Y-70253502D01*
X134155114Y-70307158D01*
X134166500Y-70359500D01*
X134166500Y-70697476D01*
X134146498Y-70765597D01*
X134134142Y-70781779D01*
X134060960Y-70863056D01*
X133965473Y-71028444D01*
X133906458Y-71210072D01*
X133905768Y-71216633D01*
X133905768Y-71216635D01*
X133887186Y-71393435D01*
X133886496Y-71400000D01*
X133906458Y-71589928D01*
X133965473Y-71771556D01*
X134060960Y-71936944D01*
X134065378Y-71941851D01*
X134065379Y-71941852D01*
X134184325Y-72073955D01*
X134188747Y-72078866D01*
X134343248Y-72191118D01*
X134349276Y-72193802D01*
X134349278Y-72193803D01*
X134511681Y-72266109D01*
X134517712Y-72268794D01*
X134611113Y-72288647D01*
X134698056Y-72307128D01*
X134698061Y-72307128D01*
X134704513Y-72308500D01*
X134895487Y-72308500D01*
X134901939Y-72307128D01*
X134901944Y-72307128D01*
X134988887Y-72288647D01*
X135082288Y-72268794D01*
X135088319Y-72266109D01*
X135250722Y-72193803D01*
X135250724Y-72193802D01*
X135256752Y-72191118D01*
X135411253Y-72078866D01*
X135415675Y-72073955D01*
X135534621Y-71941852D01*
X135534622Y-71941851D01*
X135539040Y-71936944D01*
X135634527Y-71771556D01*
X135693542Y-71589928D01*
X135713504Y-71400000D01*
X135712814Y-71393435D01*
X135694232Y-71216635D01*
X135694232Y-71216633D01*
X135693542Y-71210072D01*
X135634527Y-71028444D01*
X135539040Y-70863056D01*
X135465863Y-70781785D01*
X135435147Y-70717779D01*
X135433500Y-70697476D01*
X135433500Y-70211866D01*
X135432623Y-70203794D01*
X135427598Y-70157534D01*
X135427598Y-70157532D01*
X135426745Y-70149684D01*
X135421969Y-70136944D01*
X135394710Y-70064229D01*
X135389527Y-69993421D01*
X135394710Y-69975771D01*
X135423973Y-69897711D01*
X135423973Y-69897709D01*
X135426745Y-69890316D01*
X135433500Y-69828134D01*
X135433500Y-69671793D01*
X135435732Y-69648184D01*
X135435790Y-69647881D01*
X135435790Y-69647877D01*
X135437275Y-69640094D01*
X135433749Y-69584049D01*
X135433500Y-69576138D01*
X135433500Y-68239500D01*
X135453502Y-68171379D01*
X135507158Y-68124886D01*
X135559500Y-68113500D01*
X135566502Y-68113500D01*
X135568950Y-68113307D01*
X135568958Y-68113307D01*
X135597421Y-68111067D01*
X135597426Y-68111066D01*
X135603831Y-68110562D01*
X135703769Y-68081528D01*
X135755988Y-68066357D01*
X135755990Y-68066356D01*
X135763601Y-68064145D01*
X135851506Y-68012158D01*
X135899980Y-67983491D01*
X135899983Y-67983489D01*
X135906807Y-67979453D01*
X135912416Y-67973844D01*
X135918675Y-67968989D01*
X135919844Y-67970496D01*
X135973167Y-67941379D01*
X135999950Y-67938500D01*
X136367800Y-67938500D01*
X136435921Y-67958502D01*
X136482414Y-68012158D01*
X136493800Y-68064500D01*
X136493800Y-70750034D01*
X136500555Y-70812216D01*
X136551685Y-70948605D01*
X136639039Y-71065161D01*
X136755595Y-71152515D01*
X136891984Y-71203645D01*
X136954166Y-71210400D01*
X137974000Y-71210400D01*
X138042121Y-71230402D01*
X138088614Y-71284058D01*
X138100000Y-71336400D01*
X138100000Y-75366000D01*
X138079998Y-75434121D01*
X138026342Y-75480614D01*
X137974000Y-75492000D01*
X118391245Y-75492000D01*
X118323124Y-75471998D01*
X118276631Y-75418342D01*
X118266527Y-75348068D01*
X118296021Y-75283488D01*
X118307180Y-75272143D01*
X118377667Y-75209010D01*
X118448968Y-75145147D01*
X118616817Y-74945467D01*
X118754855Y-74724129D01*
X118860330Y-74485550D01*
X118931137Y-74234489D01*
X118954218Y-74062648D01*
X118965435Y-73979139D01*
X118965436Y-73979131D01*
X118965862Y-73975957D01*
X118969506Y-73860001D01*
X118951083Y-73599798D01*
X118896180Y-73344787D01*
X118877320Y-73293663D01*
X118807435Y-73104232D01*
X118805894Y-73100055D01*
X118682026Y-72870487D01*
X118527046Y-72660662D01*
X118344049Y-72474767D01*
X118294681Y-72437090D01*
X118140224Y-72319213D01*
X118136684Y-72316511D01*
X118122379Y-72308500D01*
X117912976Y-72191228D01*
X117912973Y-72191227D01*
X117909090Y-72189052D01*
X117904945Y-72187448D01*
X117904942Y-72187447D01*
X117770576Y-72135465D01*
X117665807Y-72094933D01*
X117661486Y-72093931D01*
X117661478Y-72093929D01*
X117494362Y-72055195D01*
X117411689Y-72036032D01*
X117337228Y-72029583D01*
X117271087Y-72003778D01*
X117229397Y-71946311D01*
X117225395Y-71875427D01*
X117244887Y-71831782D01*
X117357253Y-71671307D01*
X117357254Y-71671305D01*
X117360410Y-71666798D01*
X117362733Y-71661816D01*
X117362736Y-71661811D01*
X117454856Y-71464258D01*
X117454857Y-71464257D01*
X117457179Y-71459276D01*
X117490104Y-71336400D01*
X117515018Y-71243418D01*
X117515018Y-71243416D01*
X117516442Y-71238103D01*
X117536399Y-71009999D01*
X117516442Y-70781895D01*
X117513099Y-70769419D01*
X117458602Y-70566032D01*
X117458601Y-70566030D01*
X117457179Y-70560722D01*
X117454856Y-70555740D01*
X117362736Y-70358187D01*
X117362733Y-70358182D01*
X117360410Y-70353200D01*
X117357253Y-70348691D01*
X117232234Y-70170145D01*
X117232232Y-70170142D01*
X117229075Y-70165634D01*
X117162536Y-70099095D01*
X117128510Y-70036783D01*
X117133575Y-69965968D01*
X117162536Y-69920905D01*
X117229075Y-69854366D01*
X117245065Y-69831531D01*
X117357253Y-69671309D01*
X117357254Y-69671307D01*
X117360410Y-69666800D01*
X117362733Y-69661818D01*
X117362736Y-69661813D01*
X117454856Y-69464260D01*
X117454857Y-69464259D01*
X117457179Y-69459278D01*
X117472085Y-69403650D01*
X117515018Y-69243420D01*
X117515018Y-69243418D01*
X117516442Y-69238105D01*
X117536399Y-69010001D01*
X117516442Y-68781897D01*
X117503145Y-68732270D01*
X117458602Y-68566034D01*
X117458601Y-68566032D01*
X117457179Y-68560724D01*
X117443256Y-68530866D01*
X117362736Y-68358189D01*
X117362733Y-68358184D01*
X117360410Y-68353202D01*
X117341401Y-68326054D01*
X117232234Y-68170147D01*
X117232230Y-68170142D01*
X117229075Y-68165636D01*
X117162534Y-68099095D01*
X117128509Y-68036784D01*
X117133574Y-67965969D01*
X117162535Y-67920906D01*
X117225180Y-67858261D01*
X117225185Y-67858255D01*
X117229075Y-67854365D01*
X117273361Y-67791118D01*
X117357253Y-67671308D01*
X117357254Y-67671306D01*
X117360410Y-67666799D01*
X117362733Y-67661817D01*
X117362736Y-67661812D01*
X117454856Y-67464259D01*
X117454857Y-67464258D01*
X117457179Y-67459277D01*
X117471007Y-67407672D01*
X117515018Y-67243419D01*
X117515018Y-67243417D01*
X117516442Y-67238104D01*
X117536399Y-67010000D01*
X117516442Y-66781896D01*
X117503667Y-66734218D01*
X117493720Y-66697095D01*
X118692001Y-66697095D01*
X118692338Y-66703614D01*
X118702257Y-66799206D01*
X118705149Y-66812600D01*
X118756588Y-66966784D01*
X118762761Y-66979962D01*
X118848063Y-67117807D01*
X118857099Y-67129208D01*
X118971829Y-67243739D01*
X118983240Y-67252751D01*
X119121243Y-67337816D01*
X119134424Y-67343963D01*
X119288710Y-67395138D01*
X119302086Y-67398005D01*
X119396438Y-67407672D01*
X119402854Y-67408000D01*
X119627885Y-67408000D01*
X119643124Y-67403525D01*
X119644329Y-67402135D01*
X119646000Y-67394452D01*
X119646000Y-67389884D01*
X120154000Y-67389884D01*
X120158475Y-67405123D01*
X120159865Y-67406328D01*
X120167548Y-67407999D01*
X120397095Y-67407999D01*
X120403614Y-67407662D01*
X120499206Y-67397743D01*
X120512600Y-67394851D01*
X120666784Y-67343412D01*
X120679962Y-67337239D01*
X120817807Y-67251937D01*
X120829208Y-67242901D01*
X120943739Y-67128171D01*
X120952751Y-67116760D01*
X121037816Y-66978757D01*
X121043963Y-66965576D01*
X121095138Y-66811290D01*
X121098005Y-66797914D01*
X121107672Y-66703562D01*
X121108000Y-66697146D01*
X121108000Y-66572115D01*
X121103525Y-66556876D01*
X121102135Y-66555671D01*
X121094452Y-66554000D01*
X120172115Y-66554000D01*
X120156876Y-66558475D01*
X120155671Y-66559865D01*
X120154000Y-66567548D01*
X120154000Y-67389884D01*
X119646000Y-67389884D01*
X119646000Y-66572115D01*
X119641525Y-66556876D01*
X119640135Y-66555671D01*
X119632452Y-66554000D01*
X118710116Y-66554000D01*
X118694877Y-66558475D01*
X118693672Y-66559865D01*
X118692001Y-66567548D01*
X118692001Y-66697095D01*
X117493720Y-66697095D01*
X117458602Y-66566033D01*
X117458601Y-66566031D01*
X117457179Y-66560723D01*
X117454044Y-66554000D01*
X117362736Y-66358188D01*
X117362733Y-66358183D01*
X117360410Y-66353201D01*
X117315338Y-66288831D01*
X117232234Y-66170146D01*
X117232230Y-66170141D01*
X117229075Y-66165635D01*
X117162535Y-66099095D01*
X117128510Y-66036784D01*
X117133575Y-65965969D01*
X117162536Y-65920906D01*
X117225180Y-65858262D01*
X117225185Y-65858256D01*
X117229075Y-65854366D01*
X117247888Y-65827498D01*
X117357253Y-65671309D01*
X117357254Y-65671307D01*
X117360410Y-65666800D01*
X117362733Y-65661818D01*
X117362736Y-65661813D01*
X117454856Y-65464260D01*
X117454857Y-65464259D01*
X117457179Y-65459278D01*
X117463627Y-65435216D01*
X117515018Y-65243420D01*
X117515018Y-65243418D01*
X117516442Y-65238105D01*
X117536399Y-65010001D01*
X117535920Y-65004526D01*
X117535920Y-65004516D01*
X117532942Y-64970483D01*
X117546930Y-64900878D01*
X117596328Y-64849885D01*
X117658462Y-64833500D01*
X118620803Y-64833500D01*
X118688924Y-64853502D01*
X118735417Y-64907158D01*
X118740326Y-64919623D01*
X118758450Y-64973946D01*
X118762301Y-64980170D01*
X118762302Y-64980171D01*
X118784150Y-65015476D01*
X118851522Y-65124348D01*
X118856704Y-65129521D01*
X118938463Y-65211138D01*
X118972542Y-65273421D01*
X118967539Y-65344241D01*
X118938618Y-65389329D01*
X118856261Y-65471829D01*
X118847249Y-65483240D01*
X118762184Y-65621243D01*
X118756037Y-65634424D01*
X118704862Y-65788710D01*
X118701995Y-65802086D01*
X118692328Y-65896438D01*
X118692000Y-65902855D01*
X118692000Y-66027885D01*
X118696475Y-66043124D01*
X118697865Y-66044329D01*
X118705548Y-66046000D01*
X121089884Y-66046000D01*
X121105123Y-66041525D01*
X121106328Y-66040135D01*
X121107999Y-66032452D01*
X121107999Y-65902905D01*
X121107662Y-65896386D01*
X121097743Y-65800794D01*
X121094851Y-65787400D01*
X121043412Y-65633216D01*
X121037239Y-65620038D01*
X120951937Y-65482193D01*
X120950508Y-65480390D01*
X120949916Y-65478927D01*
X120948083Y-65475965D01*
X120948590Y-65475651D01*
X120923873Y-65414579D01*
X120937045Y-65344815D01*
X120940802Y-65337990D01*
X120944759Y-65331299D01*
X120949614Y-65325040D01*
X120971952Y-65273421D01*
X121010032Y-65185422D01*
X121013181Y-65178145D01*
X121038220Y-65020057D01*
X121037474Y-65012165D01*
X121037723Y-65004243D01*
X121039736Y-65004306D01*
X121043944Y-64967223D01*
X121044018Y-64967002D01*
X121097797Y-64804861D01*
X121108500Y-64700400D01*
X121108500Y-63899600D01*
X121107361Y-63888620D01*
X121098238Y-63800692D01*
X121098237Y-63800688D01*
X121097526Y-63793834D01*
X121090480Y-63772713D01*
X121043868Y-63633002D01*
X121041550Y-63626054D01*
X120948478Y-63475652D01*
X120823303Y-63350695D01*
X120817072Y-63346854D01*
X120678968Y-63261725D01*
X120678966Y-63261724D01*
X120672738Y-63257885D01*
X120567939Y-63223125D01*
X120511389Y-63204368D01*
X120511387Y-63204368D01*
X120504861Y-63202203D01*
X120498025Y-63201503D01*
X120498022Y-63201502D01*
X120454969Y-63197091D01*
X120400400Y-63191500D01*
X119399600Y-63191500D01*
X119396354Y-63191837D01*
X119396350Y-63191837D01*
X119300692Y-63201762D01*
X119300688Y-63201763D01*
X119293834Y-63202474D01*
X119287298Y-63204655D01*
X119287296Y-63204655D01*
X119194828Y-63235505D01*
X119126054Y-63258450D01*
X118975652Y-63351522D01*
X118850695Y-63476697D01*
X118846855Y-63482927D01*
X118832251Y-63506618D01*
X118779478Y-63554110D01*
X118724992Y-63566500D01*
X118617475Y-63566500D01*
X118549354Y-63546498D01*
X118502861Y-63492842D01*
X118492757Y-63422568D01*
X118521024Y-63359424D01*
X118616817Y-63245465D01*
X118625245Y-63231952D01*
X118668432Y-63162702D01*
X118754855Y-63024127D01*
X118763407Y-63004784D01*
X118819986Y-62876803D01*
X118860330Y-62785548D01*
X118873207Y-62739892D01*
X118890843Y-62677358D01*
X118931107Y-62534595D01*
X121742001Y-62534595D01*
X121742338Y-62541114D01*
X121752257Y-62636706D01*
X121755149Y-62650100D01*
X121806588Y-62804284D01*
X121812761Y-62817462D01*
X121898063Y-62955307D01*
X121907099Y-62966708D01*
X122021829Y-63081239D01*
X122033240Y-63090251D01*
X122171243Y-63175316D01*
X122184424Y-63181463D01*
X122338710Y-63232638D01*
X122352086Y-63235505D01*
X122446438Y-63245172D01*
X122452854Y-63245500D01*
X123327885Y-63245500D01*
X123343124Y-63241025D01*
X123344329Y-63239635D01*
X123346000Y-63231952D01*
X123346000Y-62347115D01*
X123341525Y-62331876D01*
X123340135Y-62330671D01*
X123332452Y-62329000D01*
X121760116Y-62329000D01*
X121744877Y-62333475D01*
X121743672Y-62334865D01*
X121742001Y-62342548D01*
X121742001Y-62534595D01*
X118931107Y-62534595D01*
X118931137Y-62534487D01*
X118953630Y-62367023D01*
X118965435Y-62279137D01*
X118965436Y-62279129D01*
X118965862Y-62275955D01*
X118968368Y-62196206D01*
X118969405Y-62163221D01*
X118969405Y-62163216D01*
X118969506Y-62159999D01*
X118951083Y-61899796D01*
X118930218Y-61802885D01*
X121742000Y-61802885D01*
X121746475Y-61818124D01*
X121747865Y-61819329D01*
X121755548Y-61821000D01*
X123327885Y-61821000D01*
X123343124Y-61816525D01*
X123344329Y-61815135D01*
X123346000Y-61807452D01*
X123346000Y-60922616D01*
X123341525Y-60907377D01*
X123340135Y-60906172D01*
X123332452Y-60904501D01*
X122452905Y-60904501D01*
X122446386Y-60904838D01*
X122350794Y-60914757D01*
X122337400Y-60917649D01*
X122183216Y-60969088D01*
X122170038Y-60975261D01*
X122032193Y-61060563D01*
X122020792Y-61069599D01*
X121906261Y-61184329D01*
X121897249Y-61195740D01*
X121812184Y-61333743D01*
X121806037Y-61346924D01*
X121754862Y-61501210D01*
X121751995Y-61514586D01*
X121742328Y-61608938D01*
X121742000Y-61615355D01*
X121742000Y-61802885D01*
X118930218Y-61802885D01*
X118896180Y-61644785D01*
X118892471Y-61634729D01*
X118807435Y-61404230D01*
X118805894Y-61400053D01*
X118682026Y-61170485D01*
X118623687Y-61091500D01*
X118529688Y-60964237D01*
X118527046Y-60960660D01*
X118344049Y-60774765D01*
X118294681Y-60737088D01*
X118140224Y-60619211D01*
X118136684Y-60616509D01*
X118007092Y-60543934D01*
X117957430Y-60493198D01*
X117943083Y-60423666D01*
X117968604Y-60357415D01*
X118025892Y-60315480D01*
X118068658Y-60308000D01*
X137974000Y-60308000D01*
X138042121Y-60328002D01*
G37*
%TD.AperFunction*%
%TD*%
%TA.AperFunction,Conductor*%
%TO.N,+3V3*%
G36*
X158526323Y-72806221D02*
G01*
X158576553Y-72856395D01*
X158591999Y-72916842D01*
X158591999Y-75366000D01*
X158571997Y-75434121D01*
X158518341Y-75480614D01*
X158465999Y-75492000D01*
X158267757Y-75492000D01*
X158199636Y-75471998D01*
X158153143Y-75418342D01*
X158143039Y-75348068D01*
X158158638Y-75303000D01*
X158231223Y-75177279D01*
X158231224Y-75177278D01*
X158234527Y-75171556D01*
X158293542Y-74989928D01*
X158313504Y-74800000D01*
X158301701Y-74687704D01*
X158294232Y-74616635D01*
X158294232Y-74616633D01*
X158293542Y-74610072D01*
X158234527Y-74428444D01*
X158139040Y-74263056D01*
X158011253Y-74121134D01*
X157856752Y-74008882D01*
X157850724Y-74006198D01*
X157850722Y-74006197D01*
X157688319Y-73933891D01*
X157688318Y-73933891D01*
X157682288Y-73931206D01*
X157588887Y-73911353D01*
X157501944Y-73892872D01*
X157501939Y-73892872D01*
X157495487Y-73891500D01*
X157439595Y-73891500D01*
X157371474Y-73871498D01*
X157350500Y-73854595D01*
X157203652Y-73707747D01*
X157196112Y-73699461D01*
X157192000Y-73692982D01*
X157142348Y-73646356D01*
X157139507Y-73643602D01*
X157119770Y-73623865D01*
X157116573Y-73621385D01*
X157107551Y-73613680D01*
X157081100Y-73588841D01*
X157075321Y-73583414D01*
X157068375Y-73579595D01*
X157068372Y-73579593D01*
X157057566Y-73573652D01*
X157041047Y-73562801D01*
X157031304Y-73555244D01*
X157031305Y-73555244D01*
X157025042Y-73550387D01*
X157025414Y-73549908D01*
X156980825Y-73502149D01*
X156973896Y-73485470D01*
X156931370Y-73358007D01*
X156931369Y-73358005D01*
X156929050Y-73351054D01*
X156835978Y-73200652D01*
X156755759Y-73120572D01*
X156721680Y-73058291D01*
X156726683Y-72987471D01*
X156769180Y-72930598D01*
X156835679Y-72905729D01*
X156844777Y-72905400D01*
X158149834Y-72905400D01*
X158212016Y-72898645D01*
X158348405Y-72847515D01*
X158390434Y-72816016D01*
X158456940Y-72791168D01*
X158526323Y-72806221D01*
G37*
%TD.AperFunction*%
%TA.AperFunction,Conductor*%
G36*
X158534121Y-60328002D02*
G01*
X158580614Y-60381658D01*
X158592000Y-60434000D01*
X158592000Y-65083161D01*
X158571998Y-65151282D01*
X158518342Y-65197775D01*
X158448068Y-65207879D01*
X158390435Y-65183987D01*
X158360407Y-65161482D01*
X158348405Y-65152487D01*
X158212016Y-65101357D01*
X158149834Y-65094602D01*
X156890044Y-65094602D01*
X156821923Y-65074600D01*
X156775430Y-65020944D01*
X156765326Y-64950670D01*
X156796406Y-64884294D01*
X156839040Y-64836944D01*
X156934527Y-64671556D01*
X156993542Y-64489928D01*
X156995746Y-64468963D01*
X157012814Y-64306565D01*
X157013504Y-64300000D01*
X156993542Y-64110072D01*
X156934527Y-63928444D01*
X156839040Y-63763056D01*
X156711253Y-63621134D01*
X156556752Y-63508882D01*
X156550724Y-63506198D01*
X156550722Y-63506197D01*
X156388319Y-63433891D01*
X156388318Y-63433891D01*
X156382288Y-63431206D01*
X156288887Y-63411353D01*
X156201944Y-63392872D01*
X156201939Y-63392872D01*
X156195487Y-63391500D01*
X156139595Y-63391500D01*
X156071474Y-63371498D01*
X156050499Y-63354595D01*
X155670404Y-62974499D01*
X155636379Y-62912187D01*
X155633500Y-62885404D01*
X155633500Y-62774600D01*
X155633163Y-62771350D01*
X155623238Y-62675692D01*
X155623237Y-62675688D01*
X155622526Y-62668834D01*
X155566550Y-62501054D01*
X155473478Y-62350652D01*
X155348303Y-62225695D01*
X155342072Y-62221854D01*
X155203968Y-62136725D01*
X155203966Y-62136724D01*
X155197738Y-62132885D01*
X155117995Y-62106436D01*
X155036389Y-62079368D01*
X155036387Y-62079368D01*
X155029861Y-62077203D01*
X155023025Y-62076503D01*
X155023022Y-62076502D01*
X154979969Y-62072091D01*
X154925400Y-62066500D01*
X154149600Y-62066500D01*
X154146354Y-62066837D01*
X154146350Y-62066837D01*
X154050692Y-62076762D01*
X154050688Y-62076763D01*
X154043834Y-62077474D01*
X154037298Y-62079655D01*
X154037296Y-62079655D01*
X154020928Y-62085116D01*
X153876054Y-62133450D01*
X153725652Y-62226522D01*
X153600695Y-62351697D01*
X153597898Y-62356235D01*
X153540647Y-62396824D01*
X153469724Y-62400054D01*
X153408313Y-62364428D01*
X153400938Y-62355932D01*
X153392902Y-62345793D01*
X153278171Y-62231261D01*
X153266760Y-62222249D01*
X153128757Y-62137184D01*
X153115576Y-62131037D01*
X152961290Y-62079862D01*
X152947914Y-62076995D01*
X152853562Y-62067328D01*
X152847145Y-62067000D01*
X152734615Y-62067000D01*
X152719376Y-62071475D01*
X152718171Y-62072865D01*
X152716500Y-62080548D01*
X152716500Y-64514884D01*
X152720975Y-64530123D01*
X152722365Y-64531328D01*
X152730048Y-64532999D01*
X152847095Y-64532999D01*
X152853614Y-64532662D01*
X152949206Y-64522743D01*
X152962600Y-64519851D01*
X153116784Y-64468412D01*
X153129962Y-64462239D01*
X153267807Y-64376937D01*
X153279208Y-64367901D01*
X153393738Y-64253172D01*
X153400794Y-64244238D01*
X153458712Y-64203177D01*
X153529635Y-64199947D01*
X153591046Y-64235574D01*
X153597846Y-64243407D01*
X153601522Y-64249348D01*
X153726697Y-64374305D01*
X153732927Y-64378145D01*
X153732928Y-64378146D01*
X153870288Y-64462816D01*
X153877262Y-64467115D01*
X153957005Y-64493564D01*
X154038611Y-64520632D01*
X154038613Y-64520632D01*
X154045139Y-64522797D01*
X154051975Y-64523497D01*
X154051978Y-64523498D01*
X154095031Y-64527909D01*
X154149600Y-64533500D01*
X154925400Y-64533500D01*
X154928646Y-64533163D01*
X154928650Y-64533163D01*
X155024308Y-64523238D01*
X155024312Y-64523237D01*
X155031166Y-64522526D01*
X155037702Y-64520345D01*
X155037704Y-64520345D01*
X155078405Y-64506766D01*
X155149355Y-64504182D01*
X155210439Y-64540366D01*
X155238114Y-64587354D01*
X155265473Y-64671556D01*
X155360960Y-64836944D01*
X155488747Y-64978866D01*
X155643248Y-65091118D01*
X155649276Y-65093802D01*
X155649278Y-65093803D01*
X155801288Y-65161482D01*
X155855384Y-65207462D01*
X155876033Y-65275390D01*
X155857353Y-65341328D01*
X155857379Y-65341342D01*
X155857316Y-65341458D01*
X155856681Y-65343698D01*
X155853778Y-65347920D01*
X155853073Y-65349208D01*
X155847685Y-65356397D01*
X155796555Y-65492786D01*
X155789800Y-65554968D01*
X155789800Y-66597799D01*
X155769798Y-66665920D01*
X155716142Y-66712413D01*
X155645868Y-66722517D01*
X155619571Y-66715781D01*
X155567419Y-66696230D01*
X155567413Y-66696228D01*
X155560017Y-66693456D01*
X155497835Y-66686701D01*
X153852167Y-66686701D01*
X153789985Y-66693456D01*
X153653596Y-66744586D01*
X153611687Y-66775995D01*
X153606071Y-66780204D01*
X153539565Y-66805052D01*
X153470182Y-66789999D01*
X153456450Y-66781317D01*
X153356752Y-66708882D01*
X153350724Y-66706198D01*
X153350722Y-66706197D01*
X153188319Y-66633891D01*
X153188318Y-66633891D01*
X153182288Y-66631206D01*
X153088887Y-66611353D01*
X153001944Y-66592872D01*
X153001939Y-66592872D01*
X152995487Y-66591500D01*
X152804513Y-66591500D01*
X152798061Y-66592872D01*
X152798056Y-66592872D01*
X152711113Y-66611353D01*
X152617712Y-66631206D01*
X152611682Y-66633891D01*
X152611681Y-66633891D01*
X152449278Y-66706197D01*
X152449276Y-66706198D01*
X152443248Y-66708882D01*
X152288747Y-66821134D01*
X152284326Y-66826044D01*
X152284325Y-66826045D01*
X152270255Y-66841672D01*
X152160960Y-66963056D01*
X152065473Y-67128444D01*
X152006458Y-67310072D01*
X152005768Y-67316633D01*
X152005768Y-67316635D01*
X151997605Y-67394304D01*
X151986496Y-67500000D01*
X152006458Y-67689928D01*
X152065473Y-67871556D01*
X152160960Y-68036944D01*
X152165378Y-68041851D01*
X152165379Y-68041852D01*
X152279019Y-68168062D01*
X152288747Y-68178866D01*
X152443248Y-68291118D01*
X152449276Y-68293802D01*
X152449278Y-68293803D01*
X152492243Y-68312932D01*
X152617712Y-68368794D01*
X152711113Y-68388647D01*
X152798056Y-68407128D01*
X152798061Y-68407128D01*
X152804513Y-68408500D01*
X152995487Y-68408500D01*
X153001939Y-68407128D01*
X153001944Y-68407128D01*
X153088887Y-68388647D01*
X153182288Y-68368794D01*
X153307757Y-68312932D01*
X153350722Y-68293803D01*
X153350724Y-68293802D01*
X153356752Y-68291118D01*
X153385729Y-68270065D01*
X153459789Y-68246002D01*
X153606816Y-68246002D01*
X153652723Y-68257746D01*
X153653596Y-68255416D01*
X153789985Y-68306546D01*
X153852167Y-68313301D01*
X155497835Y-68313301D01*
X155560017Y-68306546D01*
X155696406Y-68255416D01*
X155697279Y-68257746D01*
X155743186Y-68246002D01*
X155939585Y-68246002D01*
X155954824Y-68241527D01*
X155956029Y-68240137D01*
X155957700Y-68232454D01*
X155957700Y-68150533D01*
X155957330Y-68143712D01*
X155951806Y-68092850D01*
X155948179Y-68077595D01*
X155935939Y-68044945D01*
X155930755Y-67974138D01*
X155935938Y-67956484D01*
X155940495Y-67944329D01*
X155951446Y-67915117D01*
X155958201Y-67852935D01*
X155958201Y-67394304D01*
X155978203Y-67326183D01*
X156031859Y-67279690D01*
X156102133Y-67269586D01*
X156128430Y-67276322D01*
X156180582Y-67295873D01*
X156180588Y-67295875D01*
X156187984Y-67298647D01*
X156250166Y-67305402D01*
X158149834Y-67305402D01*
X158212016Y-67298647D01*
X158348405Y-67247517D01*
X158390436Y-67216017D01*
X158456941Y-67191169D01*
X158526323Y-67206222D01*
X158576554Y-67256396D01*
X158592000Y-67316843D01*
X158591999Y-70683158D01*
X158571997Y-70751279D01*
X158518341Y-70797772D01*
X158448067Y-70807875D01*
X158390434Y-70783984D01*
X158387694Y-70781930D01*
X158348405Y-70752485D01*
X158212016Y-70701355D01*
X158149834Y-70694600D01*
X156250166Y-70694600D01*
X156187984Y-70701355D01*
X156180588Y-70704127D01*
X156180582Y-70704129D01*
X156128430Y-70723680D01*
X156057623Y-70728863D01*
X155995254Y-70694941D01*
X155961125Y-70632686D01*
X155958201Y-70605698D01*
X155958201Y-70147067D01*
X155951446Y-70084885D01*
X155936205Y-70044230D01*
X155931022Y-69973425D01*
X155936205Y-69955771D01*
X155948672Y-69922515D01*
X155951446Y-69915116D01*
X155958201Y-69852934D01*
X155958201Y-69147066D01*
X155954047Y-69108827D01*
X155952299Y-69092734D01*
X155952299Y-69092732D01*
X155951446Y-69084884D01*
X155948673Y-69077486D01*
X155935939Y-69043517D01*
X155930756Y-68972710D01*
X155935939Y-68955061D01*
X155948180Y-68922407D01*
X155951806Y-68907159D01*
X155957332Y-68856288D01*
X155957701Y-68849474D01*
X155957701Y-68772117D01*
X155953226Y-68756878D01*
X155951836Y-68755673D01*
X155944153Y-68754002D01*
X155743191Y-68754002D01*
X155697279Y-68742255D01*
X155696406Y-68744585D01*
X155560017Y-68693455D01*
X155497835Y-68686700D01*
X153852167Y-68686700D01*
X153789985Y-68693455D01*
X153653596Y-68744585D01*
X153652723Y-68742255D01*
X153606811Y-68754002D01*
X153410417Y-68754002D01*
X153395178Y-68758477D01*
X153393973Y-68759867D01*
X153391451Y-68771462D01*
X153357426Y-68833774D01*
X153288125Y-68869085D01*
X153280432Y-68869327D01*
X153264043Y-68874088D01*
X153206066Y-68876214D01*
X153206052Y-68876346D01*
X153205128Y-68876249D01*
X153202699Y-68876338D01*
X153193027Y-68874282D01*
X153002053Y-68874282D01*
X152995601Y-68875654D01*
X152995596Y-68875654D01*
X152908652Y-68894135D01*
X152815252Y-68913988D01*
X152809222Y-68916673D01*
X152809221Y-68916673D01*
X152646818Y-68988979D01*
X152646816Y-68988980D01*
X152640788Y-68991664D01*
X152486287Y-69103916D01*
X152481866Y-69108826D01*
X152481865Y-69108827D01*
X152447435Y-69147066D01*
X152358500Y-69245838D01*
X152263013Y-69411226D01*
X152203998Y-69592854D01*
X152184036Y-69782782D01*
X152184726Y-69789347D01*
X152202218Y-69955771D01*
X152203998Y-69972710D01*
X152227237Y-70044232D01*
X152239429Y-70081755D01*
X152241457Y-70152722D01*
X152213232Y-70205001D01*
X152165383Y-70258143D01*
X152165380Y-70258147D01*
X152160960Y-70263056D01*
X152065473Y-70428444D01*
X152006458Y-70610072D01*
X152005768Y-70616633D01*
X152005768Y-70616635D01*
X151996864Y-70701355D01*
X151986496Y-70800000D01*
X151987186Y-70806565D01*
X152002934Y-70956395D01*
X152006458Y-70989928D01*
X152065473Y-71171556D01*
X152160960Y-71336944D01*
X152288747Y-71478866D01*
X152443248Y-71591118D01*
X152449276Y-71593802D01*
X152449278Y-71593803D01*
X152611681Y-71666109D01*
X152617712Y-71668794D01*
X152711113Y-71688647D01*
X152798056Y-71707128D01*
X152798061Y-71707128D01*
X152804513Y-71708500D01*
X152995487Y-71708500D01*
X153001939Y-71707128D01*
X153001944Y-71707128D01*
X153088887Y-71688647D01*
X153182288Y-71668794D01*
X153188319Y-71666109D01*
X153350722Y-71593803D01*
X153350724Y-71593802D01*
X153356752Y-71591118D01*
X153511253Y-71478866D01*
X153639040Y-71336944D01*
X153641006Y-71338714D01*
X153687894Y-71302559D01*
X153758630Y-71296484D01*
X153777832Y-71301991D01*
X153782581Y-71303771D01*
X153782586Y-71303772D01*
X153789985Y-71306546D01*
X153852167Y-71313301D01*
X155497835Y-71313301D01*
X155560017Y-71306546D01*
X155567413Y-71303774D01*
X155567419Y-71303772D01*
X155619571Y-71284221D01*
X155690378Y-71279038D01*
X155752747Y-71312960D01*
X155786876Y-71375215D01*
X155789800Y-71402203D01*
X155789800Y-72445034D01*
X155796555Y-72507216D01*
X155847685Y-72643605D01*
X155853071Y-72650791D01*
X155901144Y-72714935D01*
X155925992Y-72781441D01*
X155910939Y-72850824D01*
X155860765Y-72901054D01*
X155800318Y-72916500D01*
X155112100Y-72916500D01*
X155108854Y-72916837D01*
X155108850Y-72916837D01*
X155013192Y-72926762D01*
X155013188Y-72926763D01*
X155006334Y-72927474D01*
X154999798Y-72929655D01*
X154999796Y-72929655D01*
X154996970Y-72930598D01*
X154838554Y-72983450D01*
X154688152Y-73076522D01*
X154563195Y-73201697D01*
X154470385Y-73352262D01*
X154414703Y-73520139D01*
X154414003Y-73526975D01*
X154414002Y-73526978D01*
X154411653Y-73549908D01*
X154404000Y-73624600D01*
X154404000Y-74575400D01*
X154404337Y-74578646D01*
X154404337Y-74578650D01*
X154414252Y-74674206D01*
X154414974Y-74681166D01*
X154470950Y-74848946D01*
X154564022Y-74999348D01*
X154689197Y-75124305D01*
X154695427Y-75128145D01*
X154695428Y-75128146D01*
X154832788Y-75212816D01*
X154839762Y-75217115D01*
X154903103Y-75238124D01*
X154928075Y-75246407D01*
X154986435Y-75286838D01*
X155013672Y-75352402D01*
X155001139Y-75422283D01*
X154952814Y-75474295D01*
X154888408Y-75492000D01*
X153635041Y-75492000D01*
X153566920Y-75471998D01*
X153520427Y-75418342D01*
X153510323Y-75348068D01*
X153539817Y-75283488D01*
X153595165Y-75246476D01*
X153679284Y-75218412D01*
X153692462Y-75212239D01*
X153830307Y-75126937D01*
X153841708Y-75117901D01*
X153956239Y-75003171D01*
X153965251Y-74991760D01*
X154050316Y-74853757D01*
X154056463Y-74840576D01*
X154107638Y-74686290D01*
X154110505Y-74672914D01*
X154120172Y-74578562D01*
X154120500Y-74572146D01*
X154120500Y-74372115D01*
X154116025Y-74356876D01*
X154114635Y-74355671D01*
X154106952Y-74354000D01*
X151547616Y-74354000D01*
X151532377Y-74358475D01*
X151531172Y-74359865D01*
X151529501Y-74367548D01*
X151529501Y-74572095D01*
X151529838Y-74578614D01*
X151539757Y-74674206D01*
X151542649Y-74687600D01*
X151594088Y-74841784D01*
X151600261Y-74854962D01*
X151685563Y-74992807D01*
X151694599Y-75004208D01*
X151809329Y-75118739D01*
X151820740Y-75127751D01*
X151958743Y-75212816D01*
X151971926Y-75218964D01*
X152054664Y-75246407D01*
X152113024Y-75286838D01*
X152140261Y-75352402D01*
X152127727Y-75422284D01*
X152079403Y-75474295D01*
X152014997Y-75492000D01*
X144826000Y-75492000D01*
X144757879Y-75471998D01*
X144711386Y-75418342D01*
X144700000Y-75366000D01*
X144700000Y-73827885D01*
X151529500Y-73827885D01*
X151533975Y-73843124D01*
X151535365Y-73844329D01*
X151543048Y-73846000D01*
X152552885Y-73846000D01*
X152568124Y-73841525D01*
X152569329Y-73840135D01*
X152571000Y-73832452D01*
X152571000Y-73827885D01*
X153079000Y-73827885D01*
X153083475Y-73843124D01*
X153084865Y-73844329D01*
X153092548Y-73846000D01*
X154102384Y-73846000D01*
X154117623Y-73841525D01*
X154118828Y-73840135D01*
X154120499Y-73832452D01*
X154120499Y-73627905D01*
X154120162Y-73621386D01*
X154110243Y-73525794D01*
X154107351Y-73512400D01*
X154055912Y-73358216D01*
X154049739Y-73345038D01*
X153964437Y-73207193D01*
X153955401Y-73195792D01*
X153840671Y-73081261D01*
X153829260Y-73072249D01*
X153691257Y-72987184D01*
X153678076Y-72981037D01*
X153523790Y-72929862D01*
X153510414Y-72926995D01*
X153416062Y-72917328D01*
X153409645Y-72917000D01*
X153097115Y-72917000D01*
X153081876Y-72921475D01*
X153080671Y-72922865D01*
X153079000Y-72930548D01*
X153079000Y-73827885D01*
X152571000Y-73827885D01*
X152571000Y-72935116D01*
X152566525Y-72919877D01*
X152565135Y-72918672D01*
X152557452Y-72917001D01*
X152240405Y-72917001D01*
X152233886Y-72917338D01*
X152138294Y-72927257D01*
X152124900Y-72930149D01*
X151970716Y-72981588D01*
X151957538Y-72987761D01*
X151819693Y-73073063D01*
X151808292Y-73082099D01*
X151693761Y-73196829D01*
X151684749Y-73208240D01*
X151599684Y-73346243D01*
X151593537Y-73359424D01*
X151542362Y-73513710D01*
X151539495Y-73527086D01*
X151529828Y-73621438D01*
X151529500Y-73627855D01*
X151529500Y-73827885D01*
X144700000Y-73827885D01*
X144700000Y-70746569D01*
X147898901Y-70746569D01*
X147899271Y-70753390D01*
X147904795Y-70804252D01*
X147908421Y-70819504D01*
X147953576Y-70939954D01*
X147962114Y-70955549D01*
X148038615Y-71057624D01*
X148051176Y-71070185D01*
X148153251Y-71146686D01*
X148168846Y-71155224D01*
X148289294Y-71200378D01*
X148304549Y-71204005D01*
X148355414Y-71209531D01*
X148362228Y-71209900D01*
X149430185Y-71209900D01*
X149445424Y-71205425D01*
X149446629Y-71204035D01*
X149448300Y-71196352D01*
X149448300Y-71191784D01*
X149956300Y-71191784D01*
X149960775Y-71207023D01*
X149962165Y-71208228D01*
X149969848Y-71209899D01*
X151042369Y-71209899D01*
X151049190Y-71209529D01*
X151100052Y-71204005D01*
X151115304Y-71200379D01*
X151235754Y-71155224D01*
X151251349Y-71146686D01*
X151353424Y-71070185D01*
X151365985Y-71057624D01*
X151442486Y-70955549D01*
X151451024Y-70939954D01*
X151496178Y-70819506D01*
X151499805Y-70804251D01*
X151505331Y-70753386D01*
X151505700Y-70746572D01*
X151505700Y-68472115D01*
X151501225Y-68456876D01*
X151499835Y-68455671D01*
X151492152Y-68454000D01*
X149974415Y-68454000D01*
X149959176Y-68458475D01*
X149957971Y-68459865D01*
X149956300Y-68467548D01*
X149956300Y-71191784D01*
X149448300Y-71191784D01*
X149448300Y-68472115D01*
X149443825Y-68456876D01*
X149442435Y-68455671D01*
X149434752Y-68454000D01*
X147917016Y-68454000D01*
X147901777Y-68458475D01*
X147900572Y-68459865D01*
X147898901Y-68467548D01*
X147898901Y-70746569D01*
X144700000Y-70746569D01*
X144700000Y-67927885D01*
X147898900Y-67927885D01*
X147903375Y-67943124D01*
X147904765Y-67944329D01*
X147912448Y-67946000D01*
X149430185Y-67946000D01*
X149445424Y-67941525D01*
X149446629Y-67940135D01*
X149448300Y-67932452D01*
X149448300Y-67927885D01*
X149956300Y-67927885D01*
X149960775Y-67943124D01*
X149962165Y-67944329D01*
X149969848Y-67946000D01*
X151487584Y-67946000D01*
X151502823Y-67941525D01*
X151504028Y-67940135D01*
X151505699Y-67932452D01*
X151505699Y-65653431D01*
X151505329Y-65646610D01*
X151499805Y-65595748D01*
X151496179Y-65580496D01*
X151451024Y-65460046D01*
X151442486Y-65444451D01*
X151365985Y-65342376D01*
X151353424Y-65329815D01*
X151251349Y-65253314D01*
X151235754Y-65244776D01*
X151115306Y-65199622D01*
X151100051Y-65195995D01*
X151049186Y-65190469D01*
X151042372Y-65190100D01*
X149974415Y-65190100D01*
X149959176Y-65194575D01*
X149957971Y-65195965D01*
X149956300Y-65203648D01*
X149956300Y-67927885D01*
X149448300Y-67927885D01*
X149448300Y-65208216D01*
X149443825Y-65192977D01*
X149442435Y-65191772D01*
X149434752Y-65190101D01*
X148362231Y-65190101D01*
X148355410Y-65190471D01*
X148304548Y-65195995D01*
X148289296Y-65199621D01*
X148168846Y-65244776D01*
X148153251Y-65253314D01*
X148051176Y-65329815D01*
X148038615Y-65342376D01*
X147962114Y-65444451D01*
X147953576Y-65460046D01*
X147908422Y-65580494D01*
X147904795Y-65595749D01*
X147899269Y-65646614D01*
X147898900Y-65653428D01*
X147898900Y-67927885D01*
X144700000Y-67927885D01*
X144700000Y-63822095D01*
X151367001Y-63822095D01*
X151367338Y-63828614D01*
X151377257Y-63924206D01*
X151380149Y-63937600D01*
X151431588Y-64091784D01*
X151437761Y-64104962D01*
X151523063Y-64242807D01*
X151532099Y-64254208D01*
X151646829Y-64368739D01*
X151658240Y-64377751D01*
X151796243Y-64462816D01*
X151809424Y-64468963D01*
X151963710Y-64520138D01*
X151977086Y-64523005D01*
X152071438Y-64532672D01*
X152077854Y-64533000D01*
X152190385Y-64533000D01*
X152205624Y-64528525D01*
X152206829Y-64527135D01*
X152208500Y-64519452D01*
X152208500Y-63572115D01*
X152204025Y-63556876D01*
X152202635Y-63555671D01*
X152194952Y-63554000D01*
X151385116Y-63554000D01*
X151369877Y-63558475D01*
X151368672Y-63559865D01*
X151367001Y-63567548D01*
X151367001Y-63822095D01*
X144700000Y-63822095D01*
X144700000Y-63027885D01*
X151367000Y-63027885D01*
X151371475Y-63043124D01*
X151372865Y-63044329D01*
X151380548Y-63046000D01*
X152190385Y-63046000D01*
X152205624Y-63041525D01*
X152206829Y-63040135D01*
X152208500Y-63032452D01*
X152208500Y-62085116D01*
X152204025Y-62069877D01*
X152202635Y-62068672D01*
X152194952Y-62067001D01*
X152077905Y-62067001D01*
X152071386Y-62067338D01*
X151975794Y-62077257D01*
X151962400Y-62080149D01*
X151808216Y-62131588D01*
X151795038Y-62137761D01*
X151657193Y-62223063D01*
X151645792Y-62232099D01*
X151531261Y-62346829D01*
X151522249Y-62358240D01*
X151437184Y-62496243D01*
X151431037Y-62509424D01*
X151379862Y-62663710D01*
X151376995Y-62677086D01*
X151367328Y-62771438D01*
X151367000Y-62777855D01*
X151367000Y-63027885D01*
X144700000Y-63027885D01*
X144700000Y-60434000D01*
X144720002Y-60365879D01*
X144773658Y-60319386D01*
X144826000Y-60308000D01*
X158466000Y-60308000D01*
X158534121Y-60328002D01*
G37*
%TD.AperFunction*%
%TD*%
M02*
