%TF.GenerationSoftware,KiCad,Pcbnew,(6.0.10)*%
%TF.CreationDate,2023-01-27T02:11:10-05:00*%
%TF.ProjectId,qwiic-interface,71776969-632d-4696-9e74-657266616365,rev?*%
%TF.SameCoordinates,Original*%
%TF.FileFunction,Legend,Bot*%
%TF.FilePolarity,Positive*%
%FSLAX46Y46*%
G04 Gerber Fmt 4.6, Leading zero omitted, Abs format (unit mm)*
G04 Created by KiCad (PCBNEW (6.0.10)) date 2023-01-27 02:11:10*
%MOMM*%
%LPD*%
G01*
G04 APERTURE LIST*
%ADD10C,0.150000*%
%ADD11C,0.120000*%
%ADD12C,0.010000*%
G04 APERTURE END LIST*
D10*
%TO.C,R6*%
X142866666Y-61952380D02*
X143200000Y-61476190D01*
X143438095Y-61952380D02*
X143438095Y-60952380D01*
X143057142Y-60952380D01*
X142961904Y-61000000D01*
X142914285Y-61047619D01*
X142866666Y-61142857D01*
X142866666Y-61285714D01*
X142914285Y-61380952D01*
X142961904Y-61428571D01*
X143057142Y-61476190D01*
X143438095Y-61476190D01*
X142009523Y-60952380D02*
X142200000Y-60952380D01*
X142295238Y-61000000D01*
X142342857Y-61047619D01*
X142438095Y-61190476D01*
X142485714Y-61380952D01*
X142485714Y-61761904D01*
X142438095Y-61857142D01*
X142390476Y-61904761D01*
X142295238Y-61952380D01*
X142104761Y-61952380D01*
X142009523Y-61904761D01*
X141961904Y-61857142D01*
X141914285Y-61761904D01*
X141914285Y-61523809D01*
X141961904Y-61428571D01*
X142009523Y-61380952D01*
X142104761Y-61333333D01*
X142295238Y-61333333D01*
X142390476Y-61380952D01*
X142438095Y-61428571D01*
X142485714Y-61523809D01*
%TO.C,C3*%
X138966666Y-63357142D02*
X139014285Y-63404761D01*
X139157142Y-63452380D01*
X139252380Y-63452380D01*
X139395238Y-63404761D01*
X139490476Y-63309523D01*
X139538095Y-63214285D01*
X139585714Y-63023809D01*
X139585714Y-62880952D01*
X139538095Y-62690476D01*
X139490476Y-62595238D01*
X139395238Y-62500000D01*
X139252380Y-62452380D01*
X139157142Y-62452380D01*
X139014285Y-62500000D01*
X138966666Y-62547619D01*
X138633333Y-62452380D02*
X138014285Y-62452380D01*
X138347619Y-62833333D01*
X138204761Y-62833333D01*
X138109523Y-62880952D01*
X138061904Y-62928571D01*
X138014285Y-63023809D01*
X138014285Y-63261904D01*
X138061904Y-63357142D01*
X138109523Y-63404761D01*
X138204761Y-63452380D01*
X138490476Y-63452380D01*
X138585714Y-63404761D01*
X138633333Y-63357142D01*
%TO.C,R8*%
X155266666Y-67852380D02*
X155600000Y-67376190D01*
X155838095Y-67852380D02*
X155838095Y-66852380D01*
X155457142Y-66852380D01*
X155361904Y-66900000D01*
X155314285Y-66947619D01*
X155266666Y-67042857D01*
X155266666Y-67185714D01*
X155314285Y-67280952D01*
X155361904Y-67328571D01*
X155457142Y-67376190D01*
X155838095Y-67376190D01*
X154695238Y-67280952D02*
X154790476Y-67233333D01*
X154838095Y-67185714D01*
X154885714Y-67090476D01*
X154885714Y-67042857D01*
X154838095Y-66947619D01*
X154790476Y-66900000D01*
X154695238Y-66852380D01*
X154504761Y-66852380D01*
X154409523Y-66900000D01*
X154361904Y-66947619D01*
X154314285Y-67042857D01*
X154314285Y-67090476D01*
X154361904Y-67185714D01*
X154409523Y-67233333D01*
X154504761Y-67280952D01*
X154695238Y-67280952D01*
X154790476Y-67328571D01*
X154838095Y-67376190D01*
X154885714Y-67471428D01*
X154885714Y-67661904D01*
X154838095Y-67757142D01*
X154790476Y-67804761D01*
X154695238Y-67852380D01*
X154504761Y-67852380D01*
X154409523Y-67804761D01*
X154361904Y-67757142D01*
X154314285Y-67661904D01*
X154314285Y-67471428D01*
X154361904Y-67376190D01*
X154409523Y-67328571D01*
X154504761Y-67280952D01*
%TO.C,R5*%
X145966666Y-62102380D02*
X146300000Y-61626190D01*
X146538095Y-62102380D02*
X146538095Y-61102380D01*
X146157142Y-61102380D01*
X146061904Y-61150000D01*
X146014285Y-61197619D01*
X145966666Y-61292857D01*
X145966666Y-61435714D01*
X146014285Y-61530952D01*
X146061904Y-61578571D01*
X146157142Y-61626190D01*
X146538095Y-61626190D01*
X145061904Y-61102380D02*
X145538095Y-61102380D01*
X145585714Y-61578571D01*
X145538095Y-61530952D01*
X145442857Y-61483333D01*
X145204761Y-61483333D01*
X145109523Y-61530952D01*
X145061904Y-61578571D01*
X145014285Y-61673809D01*
X145014285Y-61911904D01*
X145061904Y-62007142D01*
X145109523Y-62054761D01*
X145204761Y-62102380D01*
X145442857Y-62102380D01*
X145538095Y-62054761D01*
X145585714Y-62007142D01*
%TO.C,R3*%
X128166666Y-62202380D02*
X128500000Y-61726190D01*
X128738095Y-62202380D02*
X128738095Y-61202380D01*
X128357142Y-61202380D01*
X128261904Y-61250000D01*
X128214285Y-61297619D01*
X128166666Y-61392857D01*
X128166666Y-61535714D01*
X128214285Y-61630952D01*
X128261904Y-61678571D01*
X128357142Y-61726190D01*
X128738095Y-61726190D01*
X127833333Y-61202380D02*
X127214285Y-61202380D01*
X127547619Y-61583333D01*
X127404761Y-61583333D01*
X127309523Y-61630952D01*
X127261904Y-61678571D01*
X127214285Y-61773809D01*
X127214285Y-62011904D01*
X127261904Y-62107142D01*
X127309523Y-62154761D01*
X127404761Y-62202380D01*
X127690476Y-62202380D01*
X127785714Y-62154761D01*
X127833333Y-62107142D01*
%TO.C,R4*%
X139002380Y-67833333D02*
X138526190Y-67500000D01*
X139002380Y-67261904D02*
X138002380Y-67261904D01*
X138002380Y-67642857D01*
X138050000Y-67738095D01*
X138097619Y-67785714D01*
X138192857Y-67833333D01*
X138335714Y-67833333D01*
X138430952Y-67785714D01*
X138478571Y-67738095D01*
X138526190Y-67642857D01*
X138526190Y-67261904D01*
X138335714Y-68690476D02*
X139002380Y-68690476D01*
X137954761Y-68452380D02*
X138669047Y-68214285D01*
X138669047Y-68833333D01*
%TO.C,R7*%
X155466666Y-73952380D02*
X155800000Y-73476190D01*
X156038095Y-73952380D02*
X156038095Y-72952380D01*
X155657142Y-72952380D01*
X155561904Y-73000000D01*
X155514285Y-73047619D01*
X155466666Y-73142857D01*
X155466666Y-73285714D01*
X155514285Y-73380952D01*
X155561904Y-73428571D01*
X155657142Y-73476190D01*
X156038095Y-73476190D01*
X155133333Y-72952380D02*
X154466666Y-72952380D01*
X154895238Y-73952380D01*
D11*
%TO.C,J1*%
X115968800Y-63740001D02*
G75*
G03*
X115968800Y-63740001I-381000J0D01*
G01*
%TO.C,G\u002A\u002A\u002A*%
G36*
X142031098Y-74911520D02*
G01*
X138426639Y-74907027D01*
X138281125Y-74873563D01*
X138214898Y-74857500D01*
X137985780Y-74787093D01*
X137776981Y-74697419D01*
X137584879Y-74586464D01*
X137405853Y-74452215D01*
X137236282Y-74292659D01*
X137171488Y-74222412D01*
X137019830Y-74030187D01*
X136896345Y-73827867D01*
X136800766Y-73614788D01*
X136764163Y-73493835D01*
X138223490Y-73493835D01*
X138227545Y-73795796D01*
X138231601Y-74097756D01*
X138374129Y-74099928D01*
X138443860Y-74099872D01*
X138591896Y-74089951D01*
X138669694Y-74075251D01*
X139709391Y-74075251D01*
X140459539Y-74075251D01*
X140609569Y-74075251D01*
X141359716Y-74075251D01*
X141359716Y-71789495D01*
X141464737Y-71789495D01*
X141465696Y-71792776D01*
X141474965Y-71819593D01*
X141493455Y-71871542D01*
X141520397Y-71946501D01*
X141555020Y-72042347D01*
X141596555Y-72156958D01*
X141644233Y-72288213D01*
X141697284Y-72433989D01*
X141754938Y-72592164D01*
X141816426Y-72760615D01*
X141880977Y-72937221D01*
X142297218Y-74075251D01*
X142672383Y-74075233D01*
X143047549Y-74075216D01*
X143264114Y-73369867D01*
X143271019Y-73347401D01*
X143313575Y-73209926D01*
X143353568Y-73082384D01*
X143390121Y-72967458D01*
X143422360Y-72867832D01*
X143449407Y-72786189D01*
X143470387Y-72725213D01*
X143484423Y-72687589D01*
X143490639Y-72675999D01*
X143490797Y-72676224D01*
X143497665Y-72694282D01*
X143512401Y-72738007D01*
X143534105Y-72804576D01*
X143561878Y-72891169D01*
X143594820Y-72994965D01*
X143632031Y-73113143D01*
X143672611Y-73242884D01*
X143715659Y-73381365D01*
X143930720Y-74075251D01*
X144682870Y-74074735D01*
X145512626Y-71787301D01*
X145136304Y-71783287D01*
X145090500Y-71782855D01*
X144967888Y-71782453D01*
X144873692Y-71783498D01*
X144806735Y-71786030D01*
X144765840Y-71790084D01*
X144749829Y-71795700D01*
X144748357Y-71799287D01*
X144739131Y-71827249D01*
X144722628Y-71880171D01*
X144699673Y-71955317D01*
X144671091Y-72049950D01*
X144637706Y-72161332D01*
X144600343Y-72286728D01*
X144559825Y-72423399D01*
X144516979Y-72568609D01*
X144498255Y-72632059D01*
X144456481Y-72772469D01*
X144417384Y-72902329D01*
X144381777Y-73019032D01*
X144350475Y-73119967D01*
X144324290Y-73202525D01*
X144304037Y-73264097D01*
X144290529Y-73302073D01*
X144284580Y-73313845D01*
X144281089Y-73305058D01*
X144269738Y-73270058D01*
X144251665Y-73211288D01*
X144227755Y-73131722D01*
X144198893Y-73034333D01*
X144165965Y-72922096D01*
X144129855Y-72797985D01*
X144091449Y-72664974D01*
X144069188Y-72587636D01*
X144029953Y-72451529D01*
X143992549Y-72322027D01*
X143958053Y-72202836D01*
X143927538Y-72097664D01*
X143902078Y-72010214D01*
X143882748Y-71944194D01*
X143870623Y-71903309D01*
X143833226Y-71779270D01*
X143471274Y-71783286D01*
X143109321Y-71787301D01*
X143037353Y-72034850D01*
X143024581Y-72078782D01*
X142961325Y-72296298D01*
X142905801Y-72487001D01*
X142857475Y-72652579D01*
X142815813Y-72794719D01*
X142780282Y-72915109D01*
X142750348Y-73015437D01*
X142725477Y-73097388D01*
X142705135Y-73162651D01*
X142688788Y-73212913D01*
X142675903Y-73249862D01*
X142665946Y-73275183D01*
X142658382Y-73290566D01*
X142652679Y-73297697D01*
X142648302Y-73298263D01*
X142644718Y-73293952D01*
X142641392Y-73286451D01*
X142640396Y-73283743D01*
X142631074Y-73254946D01*
X142614403Y-73200935D01*
X142591259Y-73124635D01*
X142562519Y-73028972D01*
X142529059Y-72916870D01*
X142491755Y-72791256D01*
X142451485Y-72655055D01*
X142409124Y-72511193D01*
X142194199Y-71779799D01*
X141829468Y-71779799D01*
X141754936Y-71780004D01*
X141661328Y-71780898D01*
X141581430Y-71782402D01*
X141519316Y-71784409D01*
X141479061Y-71786809D01*
X141464737Y-71789495D01*
X141359716Y-71789495D01*
X141359716Y-71779799D01*
X140609569Y-71779799D01*
X140609569Y-74075251D01*
X140459539Y-74075251D01*
X140459539Y-71779799D01*
X139709391Y-71779799D01*
X139709391Y-74075251D01*
X138669694Y-74075251D01*
X138726693Y-74064481D01*
X138858144Y-74021204D01*
X138996142Y-73957859D01*
X139099280Y-73897173D01*
X139231507Y-73790835D01*
X139342401Y-73663855D01*
X139430524Y-73517688D01*
X139453140Y-73470739D01*
X139489801Y-73387249D01*
X139516288Y-73311475D01*
X139534166Y-73235893D01*
X139545003Y-73152975D01*
X139550365Y-73055195D01*
X139551819Y-72935027D01*
X139549773Y-72810388D01*
X139542054Y-72700265D01*
X139526978Y-72604755D01*
X139502870Y-72516094D01*
X139468052Y-72426517D01*
X139420848Y-72328256D01*
X139397164Y-72285611D01*
X139313710Y-72167819D01*
X139210452Y-72057417D01*
X139094822Y-71961725D01*
X138974247Y-71888067D01*
X138947492Y-71874988D01*
X138822627Y-71822636D01*
X138699624Y-71787516D01*
X138568467Y-71767311D01*
X138419137Y-71759705D01*
X138231601Y-71757295D01*
X138227545Y-72068606D01*
X138223490Y-72379917D01*
X138340068Y-72380247D01*
X138405727Y-72383074D01*
X138492024Y-72399634D01*
X138566765Y-72434135D01*
X138639654Y-72490134D01*
X138708541Y-72571504D01*
X138759240Y-72671503D01*
X138791285Y-72784435D01*
X138804512Y-72904878D01*
X138798756Y-73027406D01*
X138773851Y-73146596D01*
X138729633Y-73257024D01*
X138665936Y-73353265D01*
X138621011Y-73399226D01*
X138549642Y-73446185D01*
X138463348Y-73474740D01*
X138356117Y-73487494D01*
X138223490Y-73493835D01*
X136764163Y-73493835D01*
X136732826Y-73390284D01*
X136692258Y-73153691D01*
X136678795Y-72904342D01*
X136679562Y-72842142D01*
X136696943Y-72615903D01*
X136738326Y-72402236D01*
X136805168Y-72195078D01*
X136898928Y-71988366D01*
X136928782Y-71932644D01*
X137059974Y-71726466D01*
X137212845Y-71540507D01*
X137386231Y-71375660D01*
X137578964Y-71232817D01*
X137789882Y-71112870D01*
X138017818Y-71016710D01*
X138261606Y-70945230D01*
X138271929Y-70942928D01*
X138285357Y-70940352D01*
X138300982Y-70937954D01*
X138319834Y-70935726D01*
X138342943Y-70933663D01*
X138371338Y-70931758D01*
X138406050Y-70930005D01*
X138448109Y-70928398D01*
X138498545Y-70926930D01*
X138558388Y-70925595D01*
X138628667Y-70924387D01*
X138710412Y-70923299D01*
X138804654Y-70922326D01*
X138912423Y-70921460D01*
X139034748Y-70920696D01*
X139172660Y-70920027D01*
X139327188Y-70919447D01*
X139499362Y-70918950D01*
X139690213Y-70918529D01*
X139900770Y-70918178D01*
X140132063Y-70917891D01*
X140385123Y-70917661D01*
X140660979Y-70917482D01*
X140960660Y-70917348D01*
X141285198Y-70917253D01*
X141635622Y-70917189D01*
X142012962Y-70917152D01*
X142418248Y-70917134D01*
X142852510Y-70917129D01*
X147323390Y-70917129D01*
X147485031Y-70958185D01*
X147582715Y-70985212D01*
X147810838Y-71067901D01*
X148021519Y-71174139D01*
X148217020Y-71305173D01*
X148399606Y-71462251D01*
X148560785Y-71634800D01*
X148704828Y-71829400D01*
X148821843Y-72036853D01*
X148912078Y-72257670D01*
X148975777Y-72492365D01*
X149013187Y-72741450D01*
X149019941Y-72963035D01*
X148999297Y-73191307D01*
X148951852Y-73421017D01*
X148878278Y-73647667D01*
X148837606Y-73744628D01*
X148728344Y-73950691D01*
X148595279Y-74141415D01*
X148440686Y-74315109D01*
X148266837Y-74470082D01*
X148076007Y-74604640D01*
X147870471Y-74717092D01*
X147652502Y-74805747D01*
X147424375Y-74868912D01*
X147188364Y-74904896D01*
X147172011Y-74905904D01*
X147124235Y-74907575D01*
X147054573Y-74909204D01*
X146968052Y-74910697D01*
X146869696Y-74911959D01*
X146764530Y-74912895D01*
X146400709Y-74915417D01*
X146400709Y-73793318D01*
X146489562Y-73880261D01*
X146508476Y-73898165D01*
X146628679Y-73988219D01*
X146764578Y-74052996D01*
X146915214Y-74092131D01*
X147079626Y-74105257D01*
X147235330Y-74095830D01*
X147407361Y-74060163D01*
X147570939Y-73997162D01*
X147698305Y-73921808D01*
X147820848Y-73817663D01*
X147926390Y-73692510D01*
X148011189Y-73550148D01*
X148044295Y-73479341D01*
X148081052Y-73386965D01*
X148108099Y-73295465D01*
X148128318Y-73194552D01*
X148144589Y-73073939D01*
X148152861Y-72946498D01*
X148146625Y-72776551D01*
X148122397Y-72608842D01*
X148081442Y-72451438D01*
X148025028Y-72312404D01*
X147940508Y-72171016D01*
X147829860Y-72039503D01*
X147700211Y-71930588D01*
X147552985Y-71845453D01*
X147389605Y-71785279D01*
X147387406Y-71784677D01*
X147301385Y-71768170D01*
X147198776Y-71759013D01*
X147088745Y-71757078D01*
X146980459Y-71762239D01*
X146883085Y-71774369D01*
X146805788Y-71793343D01*
X146726330Y-71824848D01*
X146596560Y-71897664D01*
X146479474Y-71994548D01*
X146400709Y-72071332D01*
X146400709Y-71779799D01*
X145635558Y-71779799D01*
X145635558Y-74916013D01*
X142031098Y-74911520D01*
G37*
G36*
X137101438Y-74682558D02*
G01*
X137047750Y-74765214D01*
X136973730Y-74833565D01*
X136881335Y-74882854D01*
X136865935Y-74887617D01*
X136802888Y-74895368D01*
X136728602Y-74892437D01*
X136655458Y-74879869D01*
X136595837Y-74858713D01*
X136506226Y-74797638D01*
X136440629Y-74719377D01*
X136400512Y-74625644D01*
X136387318Y-74522397D01*
X136467492Y-74522397D01*
X136481975Y-74603113D01*
X136518479Y-74677805D01*
X136575682Y-74740988D01*
X136652263Y-74787175D01*
X136661403Y-74790809D01*
X136748404Y-74808556D01*
X136835694Y-74798502D01*
X136917861Y-74762036D01*
X136989495Y-74700550D01*
X137015393Y-74664886D01*
X137046499Y-74587297D01*
X137054182Y-74503166D01*
X137038237Y-74420657D01*
X136998455Y-74347934D01*
X136945769Y-74294706D01*
X136867896Y-74248784D01*
X136783440Y-74228620D01*
X136697441Y-74234464D01*
X136614939Y-74266566D01*
X136540972Y-74325177D01*
X136509872Y-74364834D01*
X136476350Y-74441142D01*
X136467492Y-74522397D01*
X136387318Y-74522397D01*
X136386735Y-74517838D01*
X136387035Y-74486859D01*
X136391838Y-74431048D01*
X136405060Y-74384785D01*
X136430017Y-74333987D01*
X136450176Y-74301430D01*
X136488007Y-74252134D01*
X136524032Y-74216685D01*
X136587539Y-74177102D01*
X136682952Y-74144474D01*
X136780936Y-74137873D01*
X136876609Y-74156177D01*
X136965084Y-74198262D01*
X137041479Y-74263007D01*
X137100910Y-74349287D01*
X137120914Y-74396373D01*
X137139979Y-74493378D01*
X137139258Y-74503166D01*
X137132833Y-74590360D01*
X137101438Y-74682558D01*
G37*
G36*
X136866332Y-74690372D02*
G01*
X136844237Y-74687910D01*
X136831627Y-74673373D01*
X136828824Y-74637862D01*
X136826440Y-74603033D01*
X136813972Y-74588255D01*
X136783573Y-74585352D01*
X136761198Y-74587234D01*
X136735232Y-74601896D01*
X136713281Y-74637862D01*
X136697026Y-74667083D01*
X136673869Y-74685925D01*
X136637623Y-74690372D01*
X136627346Y-74690329D01*
X136603579Y-74687965D01*
X136597277Y-74677892D01*
X136608384Y-74654505D01*
X136636843Y-74612203D01*
X136639115Y-74608915D01*
X136655661Y-74581444D01*
X136654242Y-74563385D01*
X136634383Y-74540939D01*
X136624182Y-74527998D01*
X136606835Y-74480603D01*
X136605338Y-74442141D01*
X136679229Y-74442141D01*
X136687901Y-74476580D01*
X136715841Y-74496895D01*
X136766590Y-74507449D01*
X136828824Y-74512062D01*
X136828824Y-74388588D01*
X136766590Y-74393201D01*
X136739040Y-74397065D01*
X136697293Y-74414558D01*
X136679229Y-74442141D01*
X136605338Y-74442141D01*
X136604674Y-74425071D01*
X136618960Y-74374980D01*
X136634417Y-74357691D01*
X136679565Y-74335344D01*
X136745016Y-74320692D01*
X136825074Y-74315382D01*
X136903839Y-74315298D01*
X136903839Y-74690372D01*
X136866332Y-74690372D01*
G37*
G36*
X146919533Y-72365294D02*
G01*
X147028719Y-72379587D01*
X147122660Y-72416186D01*
X147207594Y-72477342D01*
X147246425Y-72515559D01*
X147315609Y-72609506D01*
X147361590Y-72717678D01*
X147385274Y-72842644D01*
X147387567Y-72986969D01*
X147380944Y-73058281D01*
X147350945Y-73187571D01*
X147299073Y-73297085D01*
X147225795Y-73386176D01*
X147131578Y-73454197D01*
X147016890Y-73500500D01*
X146997851Y-73505041D01*
X146933987Y-73513389D01*
X146872004Y-73513838D01*
X146814501Y-73507097D01*
X146703500Y-73477396D01*
X146611121Y-73425567D01*
X146534297Y-73349580D01*
X146469961Y-73247401D01*
X146453563Y-73214588D01*
X146430845Y-73162929D01*
X146417042Y-73116195D01*
X146409173Y-73062743D01*
X146404253Y-72990929D01*
X146402699Y-72909570D01*
X146415118Y-72777521D01*
X146448119Y-72664069D01*
X146502736Y-72566213D01*
X146580001Y-72480954D01*
X146602590Y-72461635D01*
X146689043Y-72406127D01*
X146784367Y-72374774D01*
X146895806Y-72364914D01*
X146919533Y-72365294D01*
G37*
%TO.C,R6*%
X143435000Y-64072936D02*
X143435000Y-64527064D01*
X141965000Y-64072936D02*
X141965000Y-64527064D01*
%TO.C,C3*%
X138938748Y-65535000D02*
X139461252Y-65535000D01*
X138938748Y-64065000D02*
X139461252Y-64065000D01*
%TO.C,R8*%
X156327064Y-69835000D02*
X155872936Y-69835000D01*
X156327064Y-68365000D02*
X155872936Y-68365000D01*
%TO.C,R5*%
X146027064Y-62565000D02*
X145572936Y-62565000D01*
X146027064Y-64035000D02*
X145572936Y-64035000D01*
%TO.C,R3*%
X128227064Y-64135000D02*
X127772936Y-64135000D01*
X128227064Y-62665000D02*
X127772936Y-62665000D01*
%TO.C,REF\u002A\u002A*%
G36*
X146807691Y-69566467D02*
G01*
X146812273Y-69569003D01*
X146849704Y-69598057D01*
X146883170Y-69635410D01*
X146889007Y-69643852D01*
X146900165Y-69663553D01*
X146908136Y-69686935D01*
X146913618Y-69719067D01*
X146917307Y-69765019D01*
X146919899Y-69829859D01*
X146922092Y-69918657D01*
X146922402Y-69933669D01*
X146923400Y-70030999D01*
X146921994Y-70099934D01*
X146918164Y-70140948D01*
X146911889Y-70154514D01*
X146892898Y-70150452D01*
X146860638Y-70138144D01*
X146853041Y-70134545D01*
X146841176Y-70126398D01*
X146832994Y-70113004D01*
X146827643Y-70089608D01*
X146824269Y-70051455D01*
X146822019Y-69993790D01*
X146820040Y-69911857D01*
X146819498Y-69887907D01*
X146817403Y-69812266D01*
X146814683Y-69759328D01*
X146810515Y-69724075D01*
X146804079Y-69701487D01*
X146794550Y-69686544D01*
X146781106Y-69674227D01*
X146741305Y-69652634D01*
X146692341Y-69648476D01*
X146648529Y-69664999D01*
X146617008Y-69699210D01*
X146604914Y-69748114D01*
X146604578Y-69761407D01*
X146597972Y-69785472D01*
X146578470Y-69789144D01*
X146540283Y-69774813D01*
X146531438Y-69770217D01*
X146507534Y-69743186D01*
X146507061Y-69702994D01*
X146529836Y-69647409D01*
X146550727Y-69617117D01*
X146604142Y-69574084D01*
X146670074Y-69549755D01*
X146740574Y-69546443D01*
X146807691Y-69566467D01*
G37*
D12*
X146807691Y-69566467D02*
X146812273Y-69569003D01*
X146849704Y-69598057D01*
X146883170Y-69635410D01*
X146889007Y-69643852D01*
X146900165Y-69663553D01*
X146908136Y-69686935D01*
X146913618Y-69719067D01*
X146917307Y-69765019D01*
X146919899Y-69829859D01*
X146922092Y-69918657D01*
X146922402Y-69933669D01*
X146923400Y-70030999D01*
X146921994Y-70099934D01*
X146918164Y-70140948D01*
X146911889Y-70154514D01*
X146892898Y-70150452D01*
X146860638Y-70138144D01*
X146853041Y-70134545D01*
X146841176Y-70126398D01*
X146832994Y-70113004D01*
X146827643Y-70089608D01*
X146824269Y-70051455D01*
X146822019Y-69993790D01*
X146820040Y-69911857D01*
X146819498Y-69887907D01*
X146817403Y-69812266D01*
X146814683Y-69759328D01*
X146810515Y-69724075D01*
X146804079Y-69701487D01*
X146794550Y-69686544D01*
X146781106Y-69674227D01*
X146741305Y-69652634D01*
X146692341Y-69648476D01*
X146648529Y-69664999D01*
X146617008Y-69699210D01*
X146604914Y-69748114D01*
X146604578Y-69761407D01*
X146597972Y-69785472D01*
X146578470Y-69789144D01*
X146540283Y-69774813D01*
X146531438Y-69770217D01*
X146507534Y-69743186D01*
X146507061Y-69702994D01*
X146529836Y-69647409D01*
X146550727Y-69617117D01*
X146604142Y-69574084D01*
X146670074Y-69549755D01*
X146740574Y-69546443D01*
X146807691Y-69566467D01*
G36*
X144340307Y-69891305D02*
G01*
X144336762Y-69967521D01*
X144327483Y-70023294D01*
X144310375Y-70064613D01*
X144283344Y-70097467D01*
X144244292Y-70127846D01*
X144219445Y-70141660D01*
X144179615Y-70150965D01*
X144123665Y-70150230D01*
X144092385Y-70147283D01*
X144054653Y-70138283D01*
X144024494Y-70118720D01*
X143989408Y-70082267D01*
X143984720Y-70076943D01*
X143953177Y-70035969D01*
X143938128Y-70000283D01*
X143934286Y-69957966D01*
X143934286Y-69895779D01*
X143977742Y-69912182D01*
X144009424Y-69931356D01*
X144036962Y-69976347D01*
X144042711Y-69990752D01*
X144074855Y-70031546D01*
X144118611Y-70052081D01*
X144166254Y-70050235D01*
X144210057Y-70023886D01*
X144225111Y-70007455D01*
X144238763Y-69982667D01*
X144234493Y-69960144D01*
X144209916Y-69936964D01*
X144162651Y-69910202D01*
X144090314Y-69876934D01*
X143941543Y-69811816D01*
X143937595Y-69747308D01*
X143939079Y-69706220D01*
X144036010Y-69706220D01*
X144043368Y-69731657D01*
X144076848Y-69758814D01*
X144137614Y-69789714D01*
X144147669Y-69794190D01*
X144195751Y-69815017D01*
X144231726Y-69829665D01*
X144248444Y-69835200D01*
X144250977Y-69831126D01*
X144251993Y-69806247D01*
X144248369Y-69766257D01*
X144239242Y-69727152D01*
X144210773Y-69677884D01*
X144169678Y-69650122D01*
X144120590Y-69646364D01*
X144068144Y-69669109D01*
X144053609Y-69680481D01*
X144036010Y-69706220D01*
X143939079Y-69706220D01*
X143939338Y-69699064D01*
X143961281Y-69638096D01*
X143988979Y-69604497D01*
X144046405Y-69566966D01*
X144114527Y-69548006D01*
X144184947Y-69549507D01*
X144249267Y-69573355D01*
X144263426Y-69582513D01*
X144295904Y-69610849D01*
X144318116Y-69646695D01*
X144331804Y-69695384D01*
X144338715Y-69762249D01*
X144339628Y-69806247D01*
X144340590Y-69852622D01*
X144340307Y-69891305D01*
G37*
X144340307Y-69891305D02*
X144336762Y-69967521D01*
X144327483Y-70023294D01*
X144310375Y-70064613D01*
X144283344Y-70097467D01*
X144244292Y-70127846D01*
X144219445Y-70141660D01*
X144179615Y-70150965D01*
X144123665Y-70150230D01*
X144092385Y-70147283D01*
X144054653Y-70138283D01*
X144024494Y-70118720D01*
X143989408Y-70082267D01*
X143984720Y-70076943D01*
X143953177Y-70035969D01*
X143938128Y-70000283D01*
X143934286Y-69957966D01*
X143934286Y-69895779D01*
X143977742Y-69912182D01*
X144009424Y-69931356D01*
X144036962Y-69976347D01*
X144042711Y-69990752D01*
X144074855Y-70031546D01*
X144118611Y-70052081D01*
X144166254Y-70050235D01*
X144210057Y-70023886D01*
X144225111Y-70007455D01*
X144238763Y-69982667D01*
X144234493Y-69960144D01*
X144209916Y-69936964D01*
X144162651Y-69910202D01*
X144090314Y-69876934D01*
X143941543Y-69811816D01*
X143937595Y-69747308D01*
X143939079Y-69706220D01*
X144036010Y-69706220D01*
X144043368Y-69731657D01*
X144076848Y-69758814D01*
X144137614Y-69789714D01*
X144147669Y-69794190D01*
X144195751Y-69815017D01*
X144231726Y-69829665D01*
X144248444Y-69835200D01*
X144250977Y-69831126D01*
X144251993Y-69806247D01*
X144248369Y-69766257D01*
X144239242Y-69727152D01*
X144210773Y-69677884D01*
X144169678Y-69650122D01*
X144120590Y-69646364D01*
X144068144Y-69669109D01*
X144053609Y-69680481D01*
X144036010Y-69706220D01*
X143939079Y-69706220D01*
X143939338Y-69699064D01*
X143961281Y-69638096D01*
X143988979Y-69604497D01*
X144046405Y-69566966D01*
X144114527Y-69548006D01*
X144184947Y-69549507D01*
X144249267Y-69573355D01*
X144263426Y-69582513D01*
X144295904Y-69610849D01*
X144318116Y-69646695D01*
X144331804Y-69695384D01*
X144338715Y-69762249D01*
X144339628Y-69806247D01*
X144340590Y-69852622D01*
X144340307Y-69891305D01*
G36*
X145167495Y-69546220D02*
G01*
X145198599Y-69554121D01*
X145227559Y-69573817D01*
X145264831Y-69610484D01*
X145288801Y-69636378D01*
X145313770Y-69669997D01*
X145325031Y-69701506D01*
X145327657Y-69741485D01*
X145327657Y-69806917D01*
X145283035Y-69783842D01*
X145247673Y-69755724D01*
X145223451Y-69717848D01*
X145219291Y-69707551D01*
X145187594Y-69667637D01*
X145143554Y-69647624D01*
X145095531Y-69649572D01*
X145051886Y-69675543D01*
X145033420Y-69696635D01*
X145022663Y-69723619D01*
X145034178Y-69747634D01*
X145069981Y-69771791D01*
X145132090Y-69799199D01*
X145141515Y-69802985D01*
X145198058Y-69827759D01*
X145246580Y-69852189D01*
X145277451Y-69871486D01*
X145308371Y-69905953D01*
X145328927Y-69960957D01*
X145326744Y-70019983D01*
X145302424Y-70075845D01*
X145256568Y-70121355D01*
X145219438Y-70140727D01*
X145147711Y-70154292D01*
X145107852Y-70152462D01*
X145070953Y-70142568D01*
X145056797Y-70121806D01*
X145062091Y-70087613D01*
X145063631Y-70083092D01*
X145075842Y-70059116D01*
X145096174Y-70050042D01*
X145134908Y-70050649D01*
X145162257Y-70051474D01*
X145194257Y-70044392D01*
X145216182Y-70023219D01*
X145228670Y-69997152D01*
X145230062Y-69969845D01*
X145229998Y-69969685D01*
X145213807Y-69954930D01*
X145179155Y-69933457D01*
X145134321Y-69909458D01*
X145087582Y-69887125D01*
X145047217Y-69870652D01*
X145021504Y-69864229D01*
X145017679Y-69870518D01*
X145012864Y-69900115D01*
X145009566Y-69948447D01*
X145008343Y-70009372D01*
X145008058Y-70051542D01*
X145006718Y-70104653D01*
X145004528Y-70141025D01*
X145001769Y-70154514D01*
X144987344Y-70149981D01*
X144958226Y-70137670D01*
X144921257Y-70120826D01*
X144921257Y-69904721D01*
X144921493Y-69849327D01*
X144923729Y-69765207D01*
X144929423Y-69702800D01*
X144939903Y-69657358D01*
X144956497Y-69624133D01*
X144980531Y-69598378D01*
X145013333Y-69575344D01*
X145055124Y-69556335D01*
X145132287Y-69544914D01*
X145167495Y-69546220D01*
G37*
X145167495Y-69546220D02*
X145198599Y-69554121D01*
X145227559Y-69573817D01*
X145264831Y-69610484D01*
X145288801Y-69636378D01*
X145313770Y-69669997D01*
X145325031Y-69701506D01*
X145327657Y-69741485D01*
X145327657Y-69806917D01*
X145283035Y-69783842D01*
X145247673Y-69755724D01*
X145223451Y-69717848D01*
X145219291Y-69707551D01*
X145187594Y-69667637D01*
X145143554Y-69647624D01*
X145095531Y-69649572D01*
X145051886Y-69675543D01*
X145033420Y-69696635D01*
X145022663Y-69723619D01*
X145034178Y-69747634D01*
X145069981Y-69771791D01*
X145132090Y-69799199D01*
X145141515Y-69802985D01*
X145198058Y-69827759D01*
X145246580Y-69852189D01*
X145277451Y-69871486D01*
X145308371Y-69905953D01*
X145328927Y-69960957D01*
X145326744Y-70019983D01*
X145302424Y-70075845D01*
X145256568Y-70121355D01*
X145219438Y-70140727D01*
X145147711Y-70154292D01*
X145107852Y-70152462D01*
X145070953Y-70142568D01*
X145056797Y-70121806D01*
X145062091Y-70087613D01*
X145063631Y-70083092D01*
X145075842Y-70059116D01*
X145096174Y-70050042D01*
X145134908Y-70050649D01*
X145162257Y-70051474D01*
X145194257Y-70044392D01*
X145216182Y-70023219D01*
X145228670Y-69997152D01*
X145230062Y-69969845D01*
X145229998Y-69969685D01*
X145213807Y-69954930D01*
X145179155Y-69933457D01*
X145134321Y-69909458D01*
X145087582Y-69887125D01*
X145047217Y-69870652D01*
X145021504Y-69864229D01*
X145017679Y-69870518D01*
X145012864Y-69900115D01*
X145009566Y-69948447D01*
X145008343Y-70009372D01*
X145008058Y-70051542D01*
X145006718Y-70104653D01*
X145004528Y-70141025D01*
X145001769Y-70154514D01*
X144987344Y-70149981D01*
X144958226Y-70137670D01*
X144921257Y-70120826D01*
X144921257Y-69904721D01*
X144921493Y-69849327D01*
X144923729Y-69765207D01*
X144929423Y-69702800D01*
X144939903Y-69657358D01*
X144956497Y-69624133D01*
X144980531Y-69598378D01*
X145013333Y-69575344D01*
X145055124Y-69556335D01*
X145132287Y-69544914D01*
X145167495Y-69546220D01*
G36*
X144682829Y-69551097D02*
G01*
X144742753Y-69573355D01*
X144767673Y-69590080D01*
X144792910Y-69614043D01*
X144810912Y-69644526D01*
X144822858Y-69686023D01*
X144829930Y-69743032D01*
X144833308Y-69820047D01*
X144834171Y-69921565D01*
X144834002Y-69974027D01*
X144833153Y-70045715D01*
X144831711Y-70102925D01*
X144829814Y-70140809D01*
X144827597Y-70154514D01*
X144813172Y-70149981D01*
X144784054Y-70137670D01*
X144783181Y-70137272D01*
X144768060Y-70129356D01*
X144757891Y-70118495D01*
X144751691Y-70099471D01*
X144748478Y-70067069D01*
X144747270Y-70016071D01*
X144747086Y-69941261D01*
X144746714Y-69893804D01*
X144742750Y-69804615D01*
X144733673Y-69739287D01*
X144718524Y-69694393D01*
X144696345Y-69666507D01*
X144666175Y-69652203D01*
X144661990Y-69651206D01*
X144605480Y-69650427D01*
X144561410Y-69675744D01*
X144530972Y-69726502D01*
X144525544Y-69741175D01*
X144513171Y-69773649D01*
X144506905Y-69788572D01*
X144494036Y-69786516D01*
X144465933Y-69775357D01*
X144439721Y-69756927D01*
X144427771Y-69722098D01*
X144431336Y-69697151D01*
X144453235Y-69646547D01*
X144488644Y-69599128D01*
X144530052Y-69566334D01*
X144547400Y-69558752D01*
X144613089Y-69546076D01*
X144682829Y-69551097D01*
G37*
X144682829Y-69551097D02*
X144742753Y-69573355D01*
X144767673Y-69590080D01*
X144792910Y-69614043D01*
X144810912Y-69644526D01*
X144822858Y-69686023D01*
X144829930Y-69743032D01*
X144833308Y-69820047D01*
X144834171Y-69921565D01*
X144834002Y-69974027D01*
X144833153Y-70045715D01*
X144831711Y-70102925D01*
X144829814Y-70140809D01*
X144827597Y-70154514D01*
X144813172Y-70149981D01*
X144784054Y-70137670D01*
X144783181Y-70137272D01*
X144768060Y-70129356D01*
X144757891Y-70118495D01*
X144751691Y-70099471D01*
X144748478Y-70067069D01*
X144747270Y-70016071D01*
X144747086Y-69941261D01*
X144746714Y-69893804D01*
X144742750Y-69804615D01*
X144733673Y-69739287D01*
X144718524Y-69694393D01*
X144696345Y-69666507D01*
X144666175Y-69652203D01*
X144661990Y-69651206D01*
X144605480Y-69650427D01*
X144561410Y-69675744D01*
X144530972Y-69726502D01*
X144525544Y-69741175D01*
X144513171Y-69773649D01*
X144506905Y-69788572D01*
X144494036Y-69786516D01*
X144465933Y-69775357D01*
X144439721Y-69756927D01*
X144427771Y-69722098D01*
X144431336Y-69697151D01*
X144453235Y-69646547D01*
X144488644Y-69599128D01*
X144530052Y-69566334D01*
X144547400Y-69558752D01*
X144613089Y-69546076D01*
X144682829Y-69551097D01*
G36*
X145853941Y-69549282D02*
G01*
X145885774Y-69561758D01*
X145922743Y-69578602D01*
X145922743Y-70065196D01*
X145876812Y-70111127D01*
X145866320Y-70121427D01*
X145837255Y-70144320D01*
X145807943Y-70151735D01*
X145764326Y-70148321D01*
X145746568Y-70146114D01*
X145700767Y-70141445D01*
X145668743Y-70139585D01*
X145659244Y-70139869D01*
X145620274Y-70142948D01*
X145573160Y-70148321D01*
X145558085Y-70150168D01*
X145520110Y-70150893D01*
X145492325Y-70139429D01*
X145460674Y-70111127D01*
X145414743Y-70065196D01*
X145414743Y-69805055D01*
X145415101Y-69728180D01*
X145416216Y-69654886D01*
X145417952Y-69596850D01*
X145420167Y-69558663D01*
X145422721Y-69544914D01*
X145423256Y-69544951D01*
X145441808Y-69551793D01*
X145473153Y-69566868D01*
X145515608Y-69588822D01*
X145519604Y-69817240D01*
X145523600Y-70045657D01*
X145610686Y-70045657D01*
X145614657Y-69795286D01*
X145615916Y-69727227D01*
X145617718Y-69654482D01*
X145619671Y-69596730D01*
X145621612Y-69558648D01*
X145623377Y-69544914D01*
X145623885Y-69544962D01*
X145641482Y-69550015D01*
X145673834Y-69560849D01*
X145719543Y-69576783D01*
X145719765Y-69796706D01*
X145719988Y-69834909D01*
X145721531Y-69909146D01*
X145724292Y-69971145D01*
X145727977Y-70015308D01*
X145732292Y-70036041D01*
X145747732Y-70047131D01*
X145779241Y-70050556D01*
X145813886Y-70045657D01*
X145817857Y-69795286D01*
X145819278Y-69731663D01*
X145822225Y-69656356D01*
X145826079Y-69597286D01*
X145830542Y-69558718D01*
X145835317Y-69544914D01*
X145853941Y-69549282D01*
G37*
X145853941Y-69549282D02*
X145885774Y-69561758D01*
X145922743Y-69578602D01*
X145922743Y-70065196D01*
X145876812Y-70111127D01*
X145866320Y-70121427D01*
X145837255Y-70144320D01*
X145807943Y-70151735D01*
X145764326Y-70148321D01*
X145746568Y-70146114D01*
X145700767Y-70141445D01*
X145668743Y-70139585D01*
X145659244Y-70139869D01*
X145620274Y-70142948D01*
X145573160Y-70148321D01*
X145558085Y-70150168D01*
X145520110Y-70150893D01*
X145492325Y-70139429D01*
X145460674Y-70111127D01*
X145414743Y-70065196D01*
X145414743Y-69805055D01*
X145415101Y-69728180D01*
X145416216Y-69654886D01*
X145417952Y-69596850D01*
X145420167Y-69558663D01*
X145422721Y-69544914D01*
X145423256Y-69544951D01*
X145441808Y-69551793D01*
X145473153Y-69566868D01*
X145515608Y-69588822D01*
X145519604Y-69817240D01*
X145523600Y-70045657D01*
X145610686Y-70045657D01*
X145614657Y-69795286D01*
X145615916Y-69727227D01*
X145617718Y-69654482D01*
X145619671Y-69596730D01*
X145621612Y-69558648D01*
X145623377Y-69544914D01*
X145623885Y-69544962D01*
X145641482Y-69550015D01*
X145673834Y-69560849D01*
X145719543Y-69576783D01*
X145719765Y-69796706D01*
X145719988Y-69834909D01*
X145721531Y-69909146D01*
X145724292Y-69971145D01*
X145727977Y-70015308D01*
X145732292Y-70036041D01*
X145747732Y-70047131D01*
X145779241Y-70050556D01*
X145813886Y-70045657D01*
X145817857Y-69795286D01*
X145819278Y-69731663D01*
X145822225Y-69656356D01*
X145826079Y-69597286D01*
X145830542Y-69558718D01*
X145835317Y-69544914D01*
X145853941Y-69549282D01*
G36*
X149911252Y-70013000D02*
G01*
X149911651Y-70045339D01*
X149912929Y-70153455D01*
X149913185Y-70236186D01*
X149911634Y-70296426D01*
X149907490Y-70337073D01*
X149899964Y-70361023D01*
X149888271Y-70371171D01*
X149871624Y-70370414D01*
X149849236Y-70361648D01*
X149820321Y-70347769D01*
X149814142Y-70344808D01*
X149788413Y-70330311D01*
X149774976Y-70313065D01*
X149769834Y-70284308D01*
X149768990Y-70235283D01*
X149768952Y-70147257D01*
X149678276Y-70147257D01*
X149622498Y-70144815D01*
X149578640Y-70134908D01*
X149542218Y-70114886D01*
X149539503Y-70112929D01*
X149502546Y-70079869D01*
X149476826Y-70039931D01*
X149460606Y-69987657D01*
X149452148Y-69917588D01*
X149450083Y-69838430D01*
X149594857Y-69838430D01*
X149594882Y-69851697D01*
X149596261Y-69911584D01*
X149600687Y-69950732D01*
X149609461Y-69976153D01*
X149623886Y-69994857D01*
X149624784Y-69995750D01*
X149660237Y-70019952D01*
X149694596Y-70017567D01*
X149733403Y-69988260D01*
X149742895Y-69978244D01*
X149756876Y-69957708D01*
X149764760Y-69930997D01*
X149768245Y-69890499D01*
X149769029Y-69828603D01*
X149768350Y-69791130D01*
X149760983Y-69722980D01*
X149744168Y-69678330D01*
X149716234Y-69653926D01*
X149675509Y-69646514D01*
X149658350Y-69648094D01*
X149628660Y-69663766D01*
X149609031Y-69698691D01*
X149598188Y-69755901D01*
X149594857Y-69838430D01*
X149450083Y-69838430D01*
X149449714Y-69824267D01*
X149450253Y-69756169D01*
X149452707Y-69704587D01*
X149458158Y-69668816D01*
X149467686Y-69642015D01*
X149482371Y-69617338D01*
X149495852Y-69598480D01*
X149544799Y-69547568D01*
X149600256Y-69519918D01*
X149669928Y-69511165D01*
X149749664Y-69519890D01*
X149818595Y-69551185D01*
X149873113Y-69606381D01*
X149877223Y-69612224D01*
X149886808Y-69627753D01*
X149894151Y-69645498D01*
X149899612Y-69669290D01*
X149903550Y-69702958D01*
X149906323Y-69750333D01*
X149908292Y-69815245D01*
X149908528Y-69828603D01*
X149909815Y-69901524D01*
X149911252Y-70013000D01*
G37*
X149911252Y-70013000D02*
X149911651Y-70045339D01*
X149912929Y-70153455D01*
X149913185Y-70236186D01*
X149911634Y-70296426D01*
X149907490Y-70337073D01*
X149899964Y-70361023D01*
X149888271Y-70371171D01*
X149871624Y-70370414D01*
X149849236Y-70361648D01*
X149820321Y-70347769D01*
X149814142Y-70344808D01*
X149788413Y-70330311D01*
X149774976Y-70313065D01*
X149769834Y-70284308D01*
X149768990Y-70235283D01*
X149768952Y-70147257D01*
X149678276Y-70147257D01*
X149622498Y-70144815D01*
X149578640Y-70134908D01*
X149542218Y-70114886D01*
X149539503Y-70112929D01*
X149502546Y-70079869D01*
X149476826Y-70039931D01*
X149460606Y-69987657D01*
X149452148Y-69917588D01*
X149450083Y-69838430D01*
X149594857Y-69838430D01*
X149594882Y-69851697D01*
X149596261Y-69911584D01*
X149600687Y-69950732D01*
X149609461Y-69976153D01*
X149623886Y-69994857D01*
X149624784Y-69995750D01*
X149660237Y-70019952D01*
X149694596Y-70017567D01*
X149733403Y-69988260D01*
X149742895Y-69978244D01*
X149756876Y-69957708D01*
X149764760Y-69930997D01*
X149768245Y-69890499D01*
X149769029Y-69828603D01*
X149768350Y-69791130D01*
X149760983Y-69722980D01*
X149744168Y-69678330D01*
X149716234Y-69653926D01*
X149675509Y-69646514D01*
X149658350Y-69648094D01*
X149628660Y-69663766D01*
X149609031Y-69698691D01*
X149598188Y-69755901D01*
X149594857Y-69838430D01*
X149450083Y-69838430D01*
X149449714Y-69824267D01*
X149450253Y-69756169D01*
X149452707Y-69704587D01*
X149458158Y-69668816D01*
X149467686Y-69642015D01*
X149482371Y-69617338D01*
X149495852Y-69598480D01*
X149544799Y-69547568D01*
X149600256Y-69519918D01*
X149669928Y-69511165D01*
X149749664Y-69519890D01*
X149818595Y-69551185D01*
X149873113Y-69606381D01*
X149877223Y-69612224D01*
X149886808Y-69627753D01*
X149894151Y-69645498D01*
X149899612Y-69669290D01*
X149903550Y-69702958D01*
X149906323Y-69750333D01*
X149908292Y-69815245D01*
X149908528Y-69828603D01*
X149909815Y-69901524D01*
X149911252Y-70013000D01*
G36*
X147289483Y-69560569D02*
G01*
X147339376Y-69589661D01*
X147361325Y-69612327D01*
X147403504Y-69680082D01*
X147417714Y-69753950D01*
X147417714Y-69804770D01*
X147370999Y-69785128D01*
X147338692Y-69765308D01*
X147313231Y-69724160D01*
X147310616Y-69715675D01*
X147282478Y-69672451D01*
X147240067Y-69649103D01*
X147191370Y-69648100D01*
X147144373Y-69671914D01*
X147137357Y-69678056D01*
X147113893Y-69704745D01*
X147110019Y-69728014D01*
X147127768Y-69750862D01*
X147169179Y-69776287D01*
X147236286Y-69807288D01*
X147240824Y-69809252D01*
X147315322Y-69843990D01*
X147366203Y-69874763D01*
X147397525Y-69905488D01*
X147413343Y-69940082D01*
X147417714Y-69982462D01*
X147411986Y-70029446D01*
X147383062Y-70089585D01*
X147332178Y-70132788D01*
X147295374Y-70145759D01*
X147243434Y-70152856D01*
X147192999Y-70151340D01*
X147156983Y-70140632D01*
X147153158Y-70137966D01*
X147142998Y-70119337D01*
X147150048Y-70086505D01*
X147162297Y-70060735D01*
X147181939Y-70050006D01*
X147219191Y-70050539D01*
X147270908Y-70047462D01*
X147304701Y-70026212D01*
X147316114Y-69986877D01*
X147316104Y-69985747D01*
X147309187Y-69962913D01*
X147285659Y-69941963D01*
X147239914Y-69917815D01*
X147177704Y-69888741D01*
X147136499Y-69872925D01*
X147112712Y-69873944D01*
X147101597Y-69894837D01*
X147098408Y-69938641D01*
X147098400Y-70008393D01*
X147098044Y-70051452D01*
X147096413Y-70104626D01*
X147093761Y-70141022D01*
X147090422Y-70154514D01*
X147089530Y-70154423D01*
X147070237Y-70147110D01*
X147038284Y-70131678D01*
X146994124Y-70108842D01*
X146999371Y-69903078D01*
X146999736Y-69889432D01*
X147003904Y-69793651D01*
X147011268Y-69721462D01*
X147023330Y-69668058D01*
X147041593Y-69628633D01*
X147067560Y-69598380D01*
X147102733Y-69572493D01*
X147103384Y-69572087D01*
X147160256Y-69550968D01*
X147226033Y-69547400D01*
X147289483Y-69560569D01*
G37*
X147289483Y-69560569D02*
X147339376Y-69589661D01*
X147361325Y-69612327D01*
X147403504Y-69680082D01*
X147417714Y-69753950D01*
X147417714Y-69804770D01*
X147370999Y-69785128D01*
X147338692Y-69765308D01*
X147313231Y-69724160D01*
X147310616Y-69715675D01*
X147282478Y-69672451D01*
X147240067Y-69649103D01*
X147191370Y-69648100D01*
X147144373Y-69671914D01*
X147137357Y-69678056D01*
X147113893Y-69704745D01*
X147110019Y-69728014D01*
X147127768Y-69750862D01*
X147169179Y-69776287D01*
X147236286Y-69807288D01*
X147240824Y-69809252D01*
X147315322Y-69843990D01*
X147366203Y-69874763D01*
X147397525Y-69905488D01*
X147413343Y-69940082D01*
X147417714Y-69982462D01*
X147411986Y-70029446D01*
X147383062Y-70089585D01*
X147332178Y-70132788D01*
X147295374Y-70145759D01*
X147243434Y-70152856D01*
X147192999Y-70151340D01*
X147156983Y-70140632D01*
X147153158Y-70137966D01*
X147142998Y-70119337D01*
X147150048Y-70086505D01*
X147162297Y-70060735D01*
X147181939Y-70050006D01*
X147219191Y-70050539D01*
X147270908Y-70047462D01*
X147304701Y-70026212D01*
X147316114Y-69986877D01*
X147316104Y-69985747D01*
X147309187Y-69962913D01*
X147285659Y-69941963D01*
X147239914Y-69917815D01*
X147177704Y-69888741D01*
X147136499Y-69872925D01*
X147112712Y-69873944D01*
X147101597Y-69894837D01*
X147098408Y-69938641D01*
X147098400Y-70008393D01*
X147098044Y-70051452D01*
X147096413Y-70104626D01*
X147093761Y-70141022D01*
X147090422Y-70154514D01*
X147089530Y-70154423D01*
X147070237Y-70147110D01*
X147038284Y-70131678D01*
X146994124Y-70108842D01*
X146999371Y-69903078D01*
X146999736Y-69889432D01*
X147003904Y-69793651D01*
X147011268Y-69721462D01*
X147023330Y-69668058D01*
X147041593Y-69628633D01*
X147067560Y-69598380D01*
X147102733Y-69572493D01*
X147103384Y-69572087D01*
X147160256Y-69550968D01*
X147226033Y-69547400D01*
X147289483Y-69560569D01*
G36*
X146429537Y-69906313D02*
G01*
X146421345Y-69983462D01*
X146403519Y-70041276D01*
X146373975Y-70085422D01*
X146330625Y-70121568D01*
X146289332Y-70142463D01*
X146219987Y-70154090D01*
X146150736Y-70141377D01*
X146088145Y-70105945D01*
X146038779Y-70049418D01*
X146032818Y-70038995D01*
X146024945Y-70020733D01*
X146019106Y-69997429D01*
X146014999Y-69965085D01*
X146012325Y-69919704D01*
X146010781Y-69857287D01*
X146010734Y-69851748D01*
X146111429Y-69851748D01*
X146111772Y-69904577D01*
X146113942Y-69952362D01*
X146119307Y-69983209D01*
X146129217Y-70003935D01*
X146145021Y-70021356D01*
X146148724Y-70024705D01*
X146196299Y-70049419D01*
X146246635Y-70046890D01*
X146293517Y-70017288D01*
X146307477Y-70001953D01*
X146319160Y-69981622D01*
X146325686Y-69953514D01*
X146328524Y-69910550D01*
X146329143Y-69845647D01*
X146328837Y-69796122D01*
X146326722Y-69747782D01*
X146321390Y-69716587D01*
X146311460Y-69695647D01*
X146295550Y-69678073D01*
X146286204Y-69670159D01*
X146237776Y-69648843D01*
X146187040Y-69652198D01*
X146142987Y-69680107D01*
X146133504Y-69691173D01*
X146121939Y-69712009D01*
X146115252Y-69741106D01*
X146112173Y-69785381D01*
X146111429Y-69851748D01*
X146010734Y-69851748D01*
X146010067Y-69773837D01*
X146009883Y-69665358D01*
X146009829Y-69328601D01*
X146057000Y-69348362D01*
X146069472Y-69353770D01*
X146089324Y-69365985D01*
X146100687Y-69384482D01*
X146106933Y-69416829D01*
X146111429Y-69470593D01*
X146115535Y-69518866D01*
X146120963Y-69550557D01*
X146128739Y-69562383D01*
X146140457Y-69559212D01*
X146170318Y-69548067D01*
X146223684Y-69545304D01*
X146281093Y-69555625D01*
X146330625Y-69577861D01*
X146357876Y-69598443D01*
X146392865Y-69638600D01*
X146415274Y-69690086D01*
X146427190Y-69758568D01*
X146430542Y-69845647D01*
X146430698Y-69849714D01*
X146429537Y-69906313D01*
G37*
X146429537Y-69906313D02*
X146421345Y-69983462D01*
X146403519Y-70041276D01*
X146373975Y-70085422D01*
X146330625Y-70121568D01*
X146289332Y-70142463D01*
X146219987Y-70154090D01*
X146150736Y-70141377D01*
X146088145Y-70105945D01*
X146038779Y-70049418D01*
X146032818Y-70038995D01*
X146024945Y-70020733D01*
X146019106Y-69997429D01*
X146014999Y-69965085D01*
X146012325Y-69919704D01*
X146010781Y-69857287D01*
X146010734Y-69851748D01*
X146111429Y-69851748D01*
X146111772Y-69904577D01*
X146113942Y-69952362D01*
X146119307Y-69983209D01*
X146129217Y-70003935D01*
X146145021Y-70021356D01*
X146148724Y-70024705D01*
X146196299Y-70049419D01*
X146246635Y-70046890D01*
X146293517Y-70017288D01*
X146307477Y-70001953D01*
X146319160Y-69981622D01*
X146325686Y-69953514D01*
X146328524Y-69910550D01*
X146329143Y-69845647D01*
X146328837Y-69796122D01*
X146326722Y-69747782D01*
X146321390Y-69716587D01*
X146311460Y-69695647D01*
X146295550Y-69678073D01*
X146286204Y-69670159D01*
X146237776Y-69648843D01*
X146187040Y-69652198D01*
X146142987Y-69680107D01*
X146133504Y-69691173D01*
X146121939Y-69712009D01*
X146115252Y-69741106D01*
X146112173Y-69785381D01*
X146111429Y-69851748D01*
X146010734Y-69851748D01*
X146010067Y-69773837D01*
X146009883Y-69665358D01*
X146009829Y-69328601D01*
X146057000Y-69348362D01*
X146069472Y-69353770D01*
X146089324Y-69365985D01*
X146100687Y-69384482D01*
X146106933Y-69416829D01*
X146111429Y-69470593D01*
X146115535Y-69518866D01*
X146120963Y-69550557D01*
X146128739Y-69562383D01*
X146140457Y-69559212D01*
X146170318Y-69548067D01*
X146223684Y-69545304D01*
X146281093Y-69555625D01*
X146330625Y-69577861D01*
X146357876Y-69598443D01*
X146392865Y-69638600D01*
X146415274Y-69690086D01*
X146427190Y-69758568D01*
X146430542Y-69845647D01*
X146430698Y-69849714D01*
X146429537Y-69906313D01*
G36*
X148631020Y-69517822D02*
G01*
X148698810Y-69549680D01*
X148754366Y-69604770D01*
X148765881Y-69622016D01*
X148775432Y-69641562D01*
X148782206Y-69666198D01*
X148786819Y-69700711D01*
X148789888Y-69749889D01*
X148792029Y-69818519D01*
X148793859Y-69911389D01*
X148798404Y-70169007D01*
X148760225Y-70154491D01*
X148725268Y-70141156D01*
X148699097Y-70128323D01*
X148682013Y-70111780D01*
X148672086Y-70086465D01*
X148667386Y-70047316D01*
X148665982Y-69989268D01*
X148665943Y-69907261D01*
X148665744Y-69841895D01*
X148664559Y-69779173D01*
X148661729Y-69736334D01*
X148656609Y-69708220D01*
X148648553Y-69689675D01*
X148636914Y-69675543D01*
X148608303Y-69655600D01*
X148560239Y-69648083D01*
X148512688Y-69667079D01*
X148509550Y-69669511D01*
X148499769Y-69680748D01*
X148492553Y-69698770D01*
X148487299Y-69728026D01*
X148483402Y-69772962D01*
X148480256Y-69838028D01*
X148477257Y-69927670D01*
X148470000Y-70167697D01*
X148408314Y-70140044D01*
X148346629Y-70112391D01*
X148346629Y-69893246D01*
X148346884Y-69833711D01*
X148349086Y-69750892D01*
X148354661Y-69689227D01*
X148364941Y-69643748D01*
X148381258Y-69609484D01*
X148404943Y-69581466D01*
X148437328Y-69554723D01*
X148483907Y-69527780D01*
X148557287Y-69510191D01*
X148631020Y-69517822D01*
G37*
X148631020Y-69517822D02*
X148698810Y-69549680D01*
X148754366Y-69604770D01*
X148765881Y-69622016D01*
X148775432Y-69641562D01*
X148782206Y-69666198D01*
X148786819Y-69700711D01*
X148789888Y-69749889D01*
X148792029Y-69818519D01*
X148793859Y-69911389D01*
X148798404Y-70169007D01*
X148760225Y-70154491D01*
X148725268Y-70141156D01*
X148699097Y-70128323D01*
X148682013Y-70111780D01*
X148672086Y-70086465D01*
X148667386Y-70047316D01*
X148665982Y-69989268D01*
X148665943Y-69907261D01*
X148665744Y-69841895D01*
X148664559Y-69779173D01*
X148661729Y-69736334D01*
X148656609Y-69708220D01*
X148648553Y-69689675D01*
X148636914Y-69675543D01*
X148608303Y-69655600D01*
X148560239Y-69648083D01*
X148512688Y-69667079D01*
X148509550Y-69669511D01*
X148499769Y-69680748D01*
X148492553Y-69698770D01*
X148487299Y-69728026D01*
X148483402Y-69772962D01*
X148480256Y-69838028D01*
X148477257Y-69927670D01*
X148470000Y-70167697D01*
X148408314Y-70140044D01*
X148346629Y-70112391D01*
X148346629Y-69893246D01*
X148346884Y-69833711D01*
X148349086Y-69750892D01*
X148354661Y-69689227D01*
X148364941Y-69643748D01*
X148381258Y-69609484D01*
X148404943Y-69581466D01*
X148437328Y-69554723D01*
X148483907Y-69527780D01*
X148557287Y-69510191D01*
X148631020Y-69517822D01*
G36*
X147878543Y-69349444D02*
G01*
X147925714Y-69369342D01*
X147925714Y-69766509D01*
X147925519Y-69869498D01*
X147924998Y-69962141D01*
X147924199Y-70040700D01*
X147923172Y-70101439D01*
X147921963Y-70140623D01*
X147920623Y-70154514D01*
X147920099Y-70154468D01*
X147902287Y-70149420D01*
X147869823Y-70138580D01*
X147824114Y-70122646D01*
X147824114Y-69918173D01*
X147823824Y-69837832D01*
X147822474Y-69779562D01*
X147819369Y-69739909D01*
X147813812Y-69713618D01*
X147805107Y-69695436D01*
X147792556Y-69680107D01*
X147783999Y-69671955D01*
X147737728Y-69649375D01*
X147686728Y-69651375D01*
X147639993Y-69678073D01*
X147633189Y-69684698D01*
X147622293Y-69698456D01*
X147614836Y-69716642D01*
X147610169Y-69744177D01*
X147607642Y-69785981D01*
X147606602Y-69846973D01*
X147606400Y-69932073D01*
X147606303Y-69975234D01*
X147605674Y-70046224D01*
X147604556Y-70103076D01*
X147603063Y-70140828D01*
X147601309Y-70154514D01*
X147600785Y-70154468D01*
X147582973Y-70149420D01*
X147550509Y-70138580D01*
X147504800Y-70122646D01*
X147504823Y-69917237D01*
X147504857Y-69898951D01*
X147506778Y-69803626D01*
X147512678Y-69731543D01*
X147524001Y-69677813D01*
X147542187Y-69637549D01*
X147568679Y-69605861D01*
X147604918Y-69577861D01*
X147640263Y-69560333D01*
X147696773Y-69546785D01*
X147752356Y-69546015D01*
X147795086Y-69559195D01*
X147798298Y-69561015D01*
X147808205Y-69560820D01*
X147814975Y-69545572D01*
X147819861Y-69510613D01*
X147824114Y-69451289D01*
X147831371Y-69329547D01*
X147878543Y-69349444D01*
G37*
X147878543Y-69349444D02*
X147925714Y-69369342D01*
X147925714Y-69766509D01*
X147925519Y-69869498D01*
X147924998Y-69962141D01*
X147924199Y-70040700D01*
X147923172Y-70101439D01*
X147921963Y-70140623D01*
X147920623Y-70154514D01*
X147920099Y-70154468D01*
X147902287Y-70149420D01*
X147869823Y-70138580D01*
X147824114Y-70122646D01*
X147824114Y-69918173D01*
X147823824Y-69837832D01*
X147822474Y-69779562D01*
X147819369Y-69739909D01*
X147813812Y-69713618D01*
X147805107Y-69695436D01*
X147792556Y-69680107D01*
X147783999Y-69671955D01*
X147737728Y-69649375D01*
X147686728Y-69651375D01*
X147639993Y-69678073D01*
X147633189Y-69684698D01*
X147622293Y-69698456D01*
X147614836Y-69716642D01*
X147610169Y-69744177D01*
X147607642Y-69785981D01*
X147606602Y-69846973D01*
X147606400Y-69932073D01*
X147606303Y-69975234D01*
X147605674Y-70046224D01*
X147604556Y-70103076D01*
X147603063Y-70140828D01*
X147601309Y-70154514D01*
X147600785Y-70154468D01*
X147582973Y-70149420D01*
X147550509Y-70138580D01*
X147504800Y-70122646D01*
X147504823Y-69917237D01*
X147504857Y-69898951D01*
X147506778Y-69803626D01*
X147512678Y-69731543D01*
X147524001Y-69677813D01*
X147542187Y-69637549D01*
X147568679Y-69605861D01*
X147604918Y-69577861D01*
X147640263Y-69560333D01*
X147696773Y-69546785D01*
X147752356Y-69546015D01*
X147795086Y-69559195D01*
X147798298Y-69561015D01*
X147808205Y-69560820D01*
X147814975Y-69545572D01*
X147819861Y-69510613D01*
X147824114Y-69451289D01*
X147831371Y-69329547D01*
X147878543Y-69349444D01*
G36*
X149357684Y-69904078D02*
G01*
X149355078Y-69927387D01*
X149335660Y-70010352D01*
X149300573Y-70073448D01*
X149247212Y-70121808D01*
X149244196Y-70123804D01*
X149176362Y-70152185D01*
X149105535Y-70154711D01*
X149037289Y-70133097D01*
X148977196Y-70089062D01*
X148930829Y-70024322D01*
X148930050Y-70022761D01*
X148914643Y-69982558D01*
X148903357Y-69936866D01*
X148897370Y-69893972D01*
X148897861Y-69862160D01*
X148906007Y-69849714D01*
X148913244Y-69850471D01*
X148947851Y-69864235D01*
X148987078Y-69889546D01*
X149020448Y-69918845D01*
X149037483Y-69944572D01*
X149055192Y-69979471D01*
X149091485Y-70011212D01*
X149133630Y-70023886D01*
X149149077Y-70020221D01*
X149179569Y-70001774D01*
X149206128Y-69976166D01*
X149217486Y-69952934D01*
X149217482Y-69952848D01*
X149204596Y-69942179D01*
X149170241Y-69922933D01*
X149119593Y-69897813D01*
X149057829Y-69869524D01*
X149057489Y-69869374D01*
X148990388Y-69839498D01*
X148945411Y-69817973D01*
X148918145Y-69801437D01*
X148904178Y-69786531D01*
X148899097Y-69769893D01*
X148898490Y-69748162D01*
X148902712Y-69707013D01*
X149046000Y-69707013D01*
X149060791Y-69719949D01*
X149097644Y-69739333D01*
X149098725Y-69739881D01*
X149142205Y-69760587D01*
X149181102Y-69777105D01*
X149205778Y-69784093D01*
X149215676Y-69774753D01*
X149217486Y-69742748D01*
X149209966Y-69702915D01*
X149183897Y-69666717D01*
X149146154Y-69647950D01*
X149104077Y-69649845D01*
X149065005Y-69675632D01*
X149049647Y-69693451D01*
X149046000Y-69707013D01*
X148902712Y-69707013D01*
X148903833Y-69696086D01*
X148930251Y-69625335D01*
X148974473Y-69569735D01*
X149031697Y-69531239D01*
X149097120Y-69511797D01*
X149165937Y-69513359D01*
X149233347Y-69537878D01*
X149294544Y-69587302D01*
X149328450Y-69636212D01*
X149352806Y-69706027D01*
X149356767Y-69742748D01*
X149362299Y-69794055D01*
X149357684Y-69904078D01*
G37*
X149357684Y-69904078D02*
X149355078Y-69927387D01*
X149335660Y-70010352D01*
X149300573Y-70073448D01*
X149247212Y-70121808D01*
X149244196Y-70123804D01*
X149176362Y-70152185D01*
X149105535Y-70154711D01*
X149037289Y-70133097D01*
X148977196Y-70089062D01*
X148930829Y-70024322D01*
X148930050Y-70022761D01*
X148914643Y-69982558D01*
X148903357Y-69936866D01*
X148897370Y-69893972D01*
X148897861Y-69862160D01*
X148906007Y-69849714D01*
X148913244Y-69850471D01*
X148947851Y-69864235D01*
X148987078Y-69889546D01*
X149020448Y-69918845D01*
X149037483Y-69944572D01*
X149055192Y-69979471D01*
X149091485Y-70011212D01*
X149133630Y-70023886D01*
X149149077Y-70020221D01*
X149179569Y-70001774D01*
X149206128Y-69976166D01*
X149217486Y-69952934D01*
X149217482Y-69952848D01*
X149204596Y-69942179D01*
X149170241Y-69922933D01*
X149119593Y-69897813D01*
X149057829Y-69869524D01*
X149057489Y-69869374D01*
X148990388Y-69839498D01*
X148945411Y-69817973D01*
X148918145Y-69801437D01*
X148904178Y-69786531D01*
X148899097Y-69769893D01*
X148898490Y-69748162D01*
X148902712Y-69707013D01*
X149046000Y-69707013D01*
X149060791Y-69719949D01*
X149097644Y-69739333D01*
X149098725Y-69739881D01*
X149142205Y-69760587D01*
X149181102Y-69777105D01*
X149205778Y-69784093D01*
X149215676Y-69774753D01*
X149217486Y-69742748D01*
X149209966Y-69702915D01*
X149183897Y-69666717D01*
X149146154Y-69647950D01*
X149104077Y-69649845D01*
X149065005Y-69675632D01*
X149049647Y-69693451D01*
X149046000Y-69707013D01*
X148902712Y-69707013D01*
X148903833Y-69696086D01*
X148930251Y-69625335D01*
X148974473Y-69569735D01*
X149031697Y-69531239D01*
X149097120Y-69511797D01*
X149165937Y-69513359D01*
X149233347Y-69537878D01*
X149294544Y-69587302D01*
X149328450Y-69636212D01*
X149352806Y-69706027D01*
X149356767Y-69742748D01*
X149362299Y-69794055D01*
X149357684Y-69904078D01*
G36*
X147313933Y-64842371D02*
G01*
X147389856Y-64842865D01*
X147444491Y-64844135D01*
X147481500Y-64846547D01*
X147504547Y-64850467D01*
X147517296Y-64856262D01*
X147523411Y-64864299D01*
X147526556Y-64874943D01*
X147526646Y-64875325D01*
X147531814Y-64900347D01*
X147541209Y-64948681D01*
X147553867Y-65015260D01*
X147568825Y-65095014D01*
X147585119Y-65182875D01*
X147586448Y-65190064D01*
X147602691Y-65275340D01*
X147617805Y-65350242D01*
X147630808Y-65410219D01*
X147640715Y-65450717D01*
X147646544Y-65467184D01*
X147646575Y-65467210D01*
X147664943Y-65476320D01*
X147702640Y-65491457D01*
X147751543Y-65509358D01*
X147754297Y-65510330D01*
X147816817Y-65533959D01*
X147889543Y-65563595D01*
X147957294Y-65593062D01*
X148068703Y-65643626D01*
X148315399Y-65475160D01*
X148332775Y-65463311D01*
X148407202Y-65412947D01*
X148473614Y-65368612D01*
X148528039Y-65332916D01*
X148566506Y-65308471D01*
X148585042Y-65297889D01*
X148597743Y-65300315D01*
X148626579Y-65319110D01*
X148671143Y-65356330D01*
X148732670Y-65413020D01*
X148812398Y-65490227D01*
X148819532Y-65497255D01*
X148882796Y-65560222D01*
X148938990Y-65617268D01*
X148984677Y-65664817D01*
X149016414Y-65699297D01*
X149030764Y-65717131D01*
X149030810Y-65717217D01*
X149032633Y-65730795D01*
X149025910Y-65752820D01*
X149008946Y-65786304D01*
X148980044Y-65834261D01*
X148937508Y-65899704D01*
X148879644Y-65985645D01*
X148869783Y-66000151D01*
X148819913Y-66073635D01*
X148775905Y-66138687D01*
X148740380Y-66191417D01*
X148715959Y-66227936D01*
X148705264Y-66244356D01*
X148704458Y-66247834D01*
X148709518Y-66273785D01*
X148724677Y-66316159D01*
X148747463Y-66367728D01*
X148778429Y-66435170D01*
X148813004Y-66515195D01*
X148842366Y-66587629D01*
X148849645Y-66606377D01*
X148868710Y-66654246D01*
X148882715Y-66687596D01*
X148889041Y-66700114D01*
X148896025Y-66701050D01*
X148927413Y-66706461D01*
X148978787Y-66715806D01*
X149044802Y-66728069D01*
X149120113Y-66742232D01*
X149199375Y-66757280D01*
X149277243Y-66772195D01*
X149348370Y-66785961D01*
X149407412Y-66797562D01*
X149449022Y-66805980D01*
X149467857Y-66810199D01*
X149470980Y-66811389D01*
X149478591Y-66817805D01*
X149484254Y-66831465D01*
X149488251Y-66855999D01*
X149490866Y-66895038D01*
X149492384Y-66952213D01*
X149493086Y-67031154D01*
X149493257Y-67135492D01*
X149493257Y-67452799D01*
X149417057Y-67467839D01*
X149407840Y-67469642D01*
X149358891Y-67478980D01*
X149291205Y-67491669D01*
X149212478Y-67506273D01*
X149130400Y-67521355D01*
X149098078Y-67527422D01*
X149025855Y-67542181D01*
X148965666Y-67556137D01*
X148923040Y-67567952D01*
X148903510Y-67576287D01*
X148894660Y-67589905D01*
X148878548Y-67625938D01*
X148862065Y-67672572D01*
X148856263Y-67690034D01*
X148834906Y-67747358D01*
X148807359Y-67815201D01*
X148778107Y-67882355D01*
X148762463Y-67917430D01*
X148740174Y-67969822D01*
X148724857Y-68009058D01*
X148719162Y-68028563D01*
X148719478Y-68030036D01*
X148730281Y-68050729D01*
X148754638Y-68090665D01*
X148790081Y-68145972D01*
X148834136Y-68212781D01*
X148884332Y-68287220D01*
X149049501Y-68529623D01*
X148832503Y-68746983D01*
X148811516Y-68767899D01*
X148747342Y-68830505D01*
X148689990Y-68884495D01*
X148642820Y-68926826D01*
X148609192Y-68954457D01*
X148592467Y-68964343D01*
X148574303Y-68956821D01*
X148536265Y-68935227D01*
X148482726Y-68902151D01*
X148417884Y-68860191D01*
X148345940Y-68811943D01*
X148275275Y-68764291D01*
X148211526Y-68722328D01*
X148159513Y-68689165D01*
X148123279Y-68667378D01*
X148106867Y-68659543D01*
X148105905Y-68659614D01*
X148084103Y-68667338D01*
X148045440Y-68685323D01*
X147997612Y-68710013D01*
X147997110Y-68710284D01*
X147933587Y-68742099D01*
X147890060Y-68757642D01*
X147863052Y-68757685D01*
X147849090Y-68743000D01*
X147843180Y-68728544D01*
X147827229Y-68689831D01*
X147802660Y-68630316D01*
X147770779Y-68553165D01*
X147732893Y-68461541D01*
X147690310Y-68358607D01*
X147644337Y-68247526D01*
X147602667Y-68146472D01*
X147560268Y-68042780D01*
X147522756Y-67950119D01*
X147491388Y-67871642D01*
X147467425Y-67810500D01*
X147452123Y-67769843D01*
X147446743Y-67752825D01*
X147457018Y-67737219D01*
X147485563Y-67711162D01*
X147525971Y-67680887D01*
X147622979Y-67601684D01*
X147709793Y-67500475D01*
X147773322Y-67389116D01*
X147813177Y-67270893D01*
X147828965Y-67149095D01*
X147820296Y-67027010D01*
X147786778Y-66907925D01*
X147728021Y-66795129D01*
X147643632Y-66691911D01*
X147599631Y-66651713D01*
X147494211Y-66580638D01*
X147381410Y-66534301D01*
X147264525Y-66511599D01*
X147146853Y-66511428D01*
X147031690Y-66532687D01*
X146922335Y-66574270D01*
X146822083Y-66635076D01*
X146734233Y-66714001D01*
X146662080Y-66809941D01*
X146608922Y-66921795D01*
X146578057Y-67048457D01*
X146572392Y-67109507D01*
X146580185Y-67241776D01*
X146615284Y-67367266D01*
X146676649Y-67483759D01*
X146763243Y-67589039D01*
X146874029Y-67680887D01*
X146912931Y-67709930D01*
X146942104Y-67736272D01*
X146953257Y-67752800D01*
X146948810Y-67767209D01*
X146934378Y-67805815D01*
X146911173Y-67865201D01*
X146880452Y-67942215D01*
X146843474Y-68033703D01*
X146801496Y-68136516D01*
X146755778Y-68247502D01*
X146714178Y-68348072D01*
X146671222Y-68451947D01*
X146632829Y-68544819D01*
X146600305Y-68623525D01*
X146574958Y-68684899D01*
X146558095Y-68725779D01*
X146551025Y-68743000D01*
X146550943Y-68743204D01*
X146536798Y-68757745D01*
X146509659Y-68757579D01*
X146466023Y-68741927D01*
X146402388Y-68710013D01*
X146397379Y-68707326D01*
X146350125Y-68683150D01*
X146312811Y-68666037D01*
X146293133Y-68659543D01*
X146277005Y-68667218D01*
X146240959Y-68688871D01*
X146189092Y-68721928D01*
X146125445Y-68763810D01*
X146054060Y-68811943D01*
X145983724Y-68859131D01*
X145918670Y-68901267D01*
X145864820Y-68934578D01*
X145826374Y-68956469D01*
X145807534Y-68964343D01*
X145804325Y-68963343D01*
X145781954Y-68947584D01*
X145743733Y-68915033D01*
X145693021Y-68868733D01*
X145633181Y-68811726D01*
X145567571Y-68747058D01*
X145350648Y-68529772D01*
X145519601Y-68281253D01*
X145688553Y-68032733D01*
X145637183Y-67921595D01*
X145637031Y-67921266D01*
X145606183Y-67850418D01*
X145574661Y-67771523D01*
X145549266Y-67701600D01*
X145545423Y-67690322D01*
X145526047Y-67637967D01*
X145508574Y-67597283D01*
X145496388Y-67576287D01*
X145491426Y-67573322D01*
X145461634Y-67563375D01*
X145411047Y-67550505D01*
X145345194Y-67536053D01*
X145269600Y-67521355D01*
X145246957Y-67517210D01*
X145165038Y-67502116D01*
X145088600Y-67487899D01*
X145025337Y-67475995D01*
X144982943Y-67467839D01*
X144906743Y-67452799D01*
X144906743Y-67135492D01*
X144906760Y-67096476D01*
X144907082Y-67001292D01*
X144908033Y-66930255D01*
X144909896Y-66879734D01*
X144912955Y-66846098D01*
X144917494Y-66825718D01*
X144923795Y-66814962D01*
X144932143Y-66810199D01*
X144940224Y-66808270D01*
X144973172Y-66801445D01*
X145025736Y-66791022D01*
X145092569Y-66778018D01*
X145168328Y-66763449D01*
X145247665Y-66748333D01*
X145325237Y-66733685D01*
X145395698Y-66720523D01*
X145453702Y-66709863D01*
X145493904Y-66702721D01*
X145510959Y-66700114D01*
X145512112Y-66698541D01*
X145521385Y-66678119D01*
X145537432Y-66639045D01*
X145557635Y-66587629D01*
X145585672Y-66518353D01*
X145620186Y-66438290D01*
X145652538Y-66367728D01*
X145659952Y-66351889D01*
X145680755Y-66302293D01*
X145693219Y-66264038D01*
X145694863Y-66244356D01*
X145694015Y-66242962D01*
X145680548Y-66222420D01*
X145653850Y-66182516D01*
X145616539Y-66127140D01*
X145571234Y-66060177D01*
X145520552Y-65985517D01*
X145463445Y-65900692D01*
X145420607Y-65834800D01*
X145391460Y-65786478D01*
X145374317Y-65752733D01*
X145367495Y-65730572D01*
X145369306Y-65717002D01*
X145369915Y-65715984D01*
X145386297Y-65696210D01*
X145419695Y-65660175D01*
X145466671Y-65611451D01*
X145523786Y-65553612D01*
X145587603Y-65490227D01*
X145653802Y-65425905D01*
X145718648Y-65365447D01*
X145766299Y-65324655D01*
X145797990Y-65302484D01*
X145814958Y-65297889D01*
X145817175Y-65298921D01*
X145840524Y-65312837D01*
X145882912Y-65340030D01*
X145940369Y-65377889D01*
X146008923Y-65423803D01*
X146084601Y-65475160D01*
X146331298Y-65643626D01*
X146442706Y-65593062D01*
X146445943Y-65591597D01*
X146514343Y-65561965D01*
X146586907Y-65532493D01*
X146648457Y-65509358D01*
X146648729Y-65509262D01*
X146697595Y-65491367D01*
X146735212Y-65476253D01*
X146753457Y-65467184D01*
X146753752Y-65466855D01*
X146759946Y-65448282D01*
X146770139Y-65406045D01*
X146783348Y-65344696D01*
X146798590Y-65268789D01*
X146814881Y-65182875D01*
X146815449Y-65179796D01*
X146831713Y-65092128D01*
X146846608Y-65012741D01*
X146859171Y-64946701D01*
X146868438Y-64899079D01*
X146873444Y-64874943D01*
X146873764Y-64873605D01*
X146877060Y-64863273D01*
X146883738Y-64855506D01*
X146897462Y-64849940D01*
X146921895Y-64846207D01*
X146960702Y-64843942D01*
X147017546Y-64842778D01*
X147096090Y-64842348D01*
X147200000Y-64842286D01*
X147213056Y-64842286D01*
X147313933Y-64842371D01*
G37*
X147313933Y-64842371D02*
X147389856Y-64842865D01*
X147444491Y-64844135D01*
X147481500Y-64846547D01*
X147504547Y-64850467D01*
X147517296Y-64856262D01*
X147523411Y-64864299D01*
X147526556Y-64874943D01*
X147526646Y-64875325D01*
X147531814Y-64900347D01*
X147541209Y-64948681D01*
X147553867Y-65015260D01*
X147568825Y-65095014D01*
X147585119Y-65182875D01*
X147586448Y-65190064D01*
X147602691Y-65275340D01*
X147617805Y-65350242D01*
X147630808Y-65410219D01*
X147640715Y-65450717D01*
X147646544Y-65467184D01*
X147646575Y-65467210D01*
X147664943Y-65476320D01*
X147702640Y-65491457D01*
X147751543Y-65509358D01*
X147754297Y-65510330D01*
X147816817Y-65533959D01*
X147889543Y-65563595D01*
X147957294Y-65593062D01*
X148068703Y-65643626D01*
X148315399Y-65475160D01*
X148332775Y-65463311D01*
X148407202Y-65412947D01*
X148473614Y-65368612D01*
X148528039Y-65332916D01*
X148566506Y-65308471D01*
X148585042Y-65297889D01*
X148597743Y-65300315D01*
X148626579Y-65319110D01*
X148671143Y-65356330D01*
X148732670Y-65413020D01*
X148812398Y-65490227D01*
X148819532Y-65497255D01*
X148882796Y-65560222D01*
X148938990Y-65617268D01*
X148984677Y-65664817D01*
X149016414Y-65699297D01*
X149030764Y-65717131D01*
X149030810Y-65717217D01*
X149032633Y-65730795D01*
X149025910Y-65752820D01*
X149008946Y-65786304D01*
X148980044Y-65834261D01*
X148937508Y-65899704D01*
X148879644Y-65985645D01*
X148869783Y-66000151D01*
X148819913Y-66073635D01*
X148775905Y-66138687D01*
X148740380Y-66191417D01*
X148715959Y-66227936D01*
X148705264Y-66244356D01*
X148704458Y-66247834D01*
X148709518Y-66273785D01*
X148724677Y-66316159D01*
X148747463Y-66367728D01*
X148778429Y-66435170D01*
X148813004Y-66515195D01*
X148842366Y-66587629D01*
X148849645Y-66606377D01*
X148868710Y-66654246D01*
X148882715Y-66687596D01*
X148889041Y-66700114D01*
X148896025Y-66701050D01*
X148927413Y-66706461D01*
X148978787Y-66715806D01*
X149044802Y-66728069D01*
X149120113Y-66742232D01*
X149199375Y-66757280D01*
X149277243Y-66772195D01*
X149348370Y-66785961D01*
X149407412Y-66797562D01*
X149449022Y-66805980D01*
X149467857Y-66810199D01*
X149470980Y-66811389D01*
X149478591Y-66817805D01*
X149484254Y-66831465D01*
X149488251Y-66855999D01*
X149490866Y-66895038D01*
X149492384Y-66952213D01*
X149493086Y-67031154D01*
X149493257Y-67135492D01*
X149493257Y-67452799D01*
X149417057Y-67467839D01*
X149407840Y-67469642D01*
X149358891Y-67478980D01*
X149291205Y-67491669D01*
X149212478Y-67506273D01*
X149130400Y-67521355D01*
X149098078Y-67527422D01*
X149025855Y-67542181D01*
X148965666Y-67556137D01*
X148923040Y-67567952D01*
X148903510Y-67576287D01*
X148894660Y-67589905D01*
X148878548Y-67625938D01*
X148862065Y-67672572D01*
X148856263Y-67690034D01*
X148834906Y-67747358D01*
X148807359Y-67815201D01*
X148778107Y-67882355D01*
X148762463Y-67917430D01*
X148740174Y-67969822D01*
X148724857Y-68009058D01*
X148719162Y-68028563D01*
X148719478Y-68030036D01*
X148730281Y-68050729D01*
X148754638Y-68090665D01*
X148790081Y-68145972D01*
X148834136Y-68212781D01*
X148884332Y-68287220D01*
X149049501Y-68529623D01*
X148832503Y-68746983D01*
X148811516Y-68767899D01*
X148747342Y-68830505D01*
X148689990Y-68884495D01*
X148642820Y-68926826D01*
X148609192Y-68954457D01*
X148592467Y-68964343D01*
X148574303Y-68956821D01*
X148536265Y-68935227D01*
X148482726Y-68902151D01*
X148417884Y-68860191D01*
X148345940Y-68811943D01*
X148275275Y-68764291D01*
X148211526Y-68722328D01*
X148159513Y-68689165D01*
X148123279Y-68667378D01*
X148106867Y-68659543D01*
X148105905Y-68659614D01*
X148084103Y-68667338D01*
X148045440Y-68685323D01*
X147997612Y-68710013D01*
X147997110Y-68710284D01*
X147933587Y-68742099D01*
X147890060Y-68757642D01*
X147863052Y-68757685D01*
X147849090Y-68743000D01*
X147843180Y-68728544D01*
X147827229Y-68689831D01*
X147802660Y-68630316D01*
X147770779Y-68553165D01*
X147732893Y-68461541D01*
X147690310Y-68358607D01*
X147644337Y-68247526D01*
X147602667Y-68146472D01*
X147560268Y-68042780D01*
X147522756Y-67950119D01*
X147491388Y-67871642D01*
X147467425Y-67810500D01*
X147452123Y-67769843D01*
X147446743Y-67752825D01*
X147457018Y-67737219D01*
X147485563Y-67711162D01*
X147525971Y-67680887D01*
X147622979Y-67601684D01*
X147709793Y-67500475D01*
X147773322Y-67389116D01*
X147813177Y-67270893D01*
X147828965Y-67149095D01*
X147820296Y-67027010D01*
X147786778Y-66907925D01*
X147728021Y-66795129D01*
X147643632Y-66691911D01*
X147599631Y-66651713D01*
X147494211Y-66580638D01*
X147381410Y-66534301D01*
X147264525Y-66511599D01*
X147146853Y-66511428D01*
X147031690Y-66532687D01*
X146922335Y-66574270D01*
X146822083Y-66635076D01*
X146734233Y-66714001D01*
X146662080Y-66809941D01*
X146608922Y-66921795D01*
X146578057Y-67048457D01*
X146572392Y-67109507D01*
X146580185Y-67241776D01*
X146615284Y-67367266D01*
X146676649Y-67483759D01*
X146763243Y-67589039D01*
X146874029Y-67680887D01*
X146912931Y-67709930D01*
X146942104Y-67736272D01*
X146953257Y-67752800D01*
X146948810Y-67767209D01*
X146934378Y-67805815D01*
X146911173Y-67865201D01*
X146880452Y-67942215D01*
X146843474Y-68033703D01*
X146801496Y-68136516D01*
X146755778Y-68247502D01*
X146714178Y-68348072D01*
X146671222Y-68451947D01*
X146632829Y-68544819D01*
X146600305Y-68623525D01*
X146574958Y-68684899D01*
X146558095Y-68725779D01*
X146551025Y-68743000D01*
X146550943Y-68743204D01*
X146536798Y-68757745D01*
X146509659Y-68757579D01*
X146466023Y-68741927D01*
X146402388Y-68710013D01*
X146397379Y-68707326D01*
X146350125Y-68683150D01*
X146312811Y-68666037D01*
X146293133Y-68659543D01*
X146277005Y-68667218D01*
X146240959Y-68688871D01*
X146189092Y-68721928D01*
X146125445Y-68763810D01*
X146054060Y-68811943D01*
X145983724Y-68859131D01*
X145918670Y-68901267D01*
X145864820Y-68934578D01*
X145826374Y-68956469D01*
X145807534Y-68964343D01*
X145804325Y-68963343D01*
X145781954Y-68947584D01*
X145743733Y-68915033D01*
X145693021Y-68868733D01*
X145633181Y-68811726D01*
X145567571Y-68747058D01*
X145350648Y-68529772D01*
X145519601Y-68281253D01*
X145688553Y-68032733D01*
X145637183Y-67921595D01*
X145637031Y-67921266D01*
X145606183Y-67850418D01*
X145574661Y-67771523D01*
X145549266Y-67701600D01*
X145545423Y-67690322D01*
X145526047Y-67637967D01*
X145508574Y-67597283D01*
X145496388Y-67576287D01*
X145491426Y-67573322D01*
X145461634Y-67563375D01*
X145411047Y-67550505D01*
X145345194Y-67536053D01*
X145269600Y-67521355D01*
X145246957Y-67517210D01*
X145165038Y-67502116D01*
X145088600Y-67487899D01*
X145025337Y-67475995D01*
X144982943Y-67467839D01*
X144906743Y-67452799D01*
X144906743Y-67135492D01*
X144906760Y-67096476D01*
X144907082Y-67001292D01*
X144908033Y-66930255D01*
X144909896Y-66879734D01*
X144912955Y-66846098D01*
X144917494Y-66825718D01*
X144923795Y-66814962D01*
X144932143Y-66810199D01*
X144940224Y-66808270D01*
X144973172Y-66801445D01*
X145025736Y-66791022D01*
X145092569Y-66778018D01*
X145168328Y-66763449D01*
X145247665Y-66748333D01*
X145325237Y-66733685D01*
X145395698Y-66720523D01*
X145453702Y-66709863D01*
X145493904Y-66702721D01*
X145510959Y-66700114D01*
X145512112Y-66698541D01*
X145521385Y-66678119D01*
X145537432Y-66639045D01*
X145557635Y-66587629D01*
X145585672Y-66518353D01*
X145620186Y-66438290D01*
X145652538Y-66367728D01*
X145659952Y-66351889D01*
X145680755Y-66302293D01*
X145693219Y-66264038D01*
X145694863Y-66244356D01*
X145694015Y-66242962D01*
X145680548Y-66222420D01*
X145653850Y-66182516D01*
X145616539Y-66127140D01*
X145571234Y-66060177D01*
X145520552Y-65985517D01*
X145463445Y-65900692D01*
X145420607Y-65834800D01*
X145391460Y-65786478D01*
X145374317Y-65752733D01*
X145367495Y-65730572D01*
X145369306Y-65717002D01*
X145369915Y-65715984D01*
X145386297Y-65696210D01*
X145419695Y-65660175D01*
X145466671Y-65611451D01*
X145523786Y-65553612D01*
X145587603Y-65490227D01*
X145653802Y-65425905D01*
X145718648Y-65365447D01*
X145766299Y-65324655D01*
X145797990Y-65302484D01*
X145814958Y-65297889D01*
X145817175Y-65298921D01*
X145840524Y-65312837D01*
X145882912Y-65340030D01*
X145940369Y-65377889D01*
X146008923Y-65423803D01*
X146084601Y-65475160D01*
X146331298Y-65643626D01*
X146442706Y-65593062D01*
X146445943Y-65591597D01*
X146514343Y-65561965D01*
X146586907Y-65532493D01*
X146648457Y-65509358D01*
X146648729Y-65509262D01*
X146697595Y-65491367D01*
X146735212Y-65476253D01*
X146753457Y-65467184D01*
X146753752Y-65466855D01*
X146759946Y-65448282D01*
X146770139Y-65406045D01*
X146783348Y-65344696D01*
X146798590Y-65268789D01*
X146814881Y-65182875D01*
X146815449Y-65179796D01*
X146831713Y-65092128D01*
X146846608Y-65012741D01*
X146859171Y-64946701D01*
X146868438Y-64899079D01*
X146873444Y-64874943D01*
X146873764Y-64873605D01*
X146877060Y-64863273D01*
X146883738Y-64855506D01*
X146897462Y-64849940D01*
X146921895Y-64846207D01*
X146960702Y-64843942D01*
X147017546Y-64842778D01*
X147096090Y-64842348D01*
X147200000Y-64842286D01*
X147213056Y-64842286D01*
X147313933Y-64842371D01*
G36*
X150465701Y-69850935D02*
G01*
X150464914Y-69921119D01*
X150462210Y-69970022D01*
X150456606Y-70004178D01*
X150447119Y-70030124D01*
X150432768Y-70054397D01*
X150429237Y-70059433D01*
X150391878Y-70099143D01*
X150349311Y-70129092D01*
X150327452Y-70138810D01*
X150248908Y-70155020D01*
X150171231Y-70144535D01*
X150099645Y-70108707D01*
X150039374Y-70048887D01*
X150034286Y-70040873D01*
X150017730Y-69994342D01*
X150006573Y-69929552D01*
X150001160Y-69854727D01*
X150001768Y-69785513D01*
X150148248Y-69785513D01*
X150149402Y-69881399D01*
X150149866Y-69887569D01*
X150156629Y-69940478D01*
X150168671Y-69974029D01*
X150189005Y-69997016D01*
X150223097Y-70018548D01*
X150256814Y-70019680D01*
X150291543Y-69994857D01*
X150297584Y-69988325D01*
X150309417Y-69968779D01*
X150316404Y-69940386D01*
X150319727Y-69896430D01*
X150320571Y-69830192D01*
X150319125Y-69768150D01*
X150311907Y-69709042D01*
X150297006Y-69671686D01*
X150272636Y-69652152D01*
X150237008Y-69646514D01*
X150223440Y-69647635D01*
X150185430Y-69668194D01*
X150160312Y-69714299D01*
X150148248Y-69785513D01*
X150001768Y-69785513D01*
X150001833Y-69778096D01*
X150008937Y-69707882D01*
X150022815Y-69652312D01*
X150040649Y-69615301D01*
X150090855Y-69557733D01*
X150158885Y-69521962D01*
X150242158Y-69509665D01*
X150264398Y-69510331D01*
X150329891Y-69523947D01*
X150383687Y-69558249D01*
X150433057Y-69617338D01*
X150435995Y-69621722D01*
X150449287Y-69645299D01*
X150457932Y-69671949D01*
X150462904Y-69708159D01*
X150465174Y-69760413D01*
X150465678Y-69830192D01*
X150465714Y-69835200D01*
X150465701Y-69850935D01*
G37*
X150465701Y-69850935D02*
X150464914Y-69921119D01*
X150462210Y-69970022D01*
X150456606Y-70004178D01*
X150447119Y-70030124D01*
X150432768Y-70054397D01*
X150429237Y-70059433D01*
X150391878Y-70099143D01*
X150349311Y-70129092D01*
X150327452Y-70138810D01*
X150248908Y-70155020D01*
X150171231Y-70144535D01*
X150099645Y-70108707D01*
X150039374Y-70048887D01*
X150034286Y-70040873D01*
X150017730Y-69994342D01*
X150006573Y-69929552D01*
X150001160Y-69854727D01*
X150001768Y-69785513D01*
X150148248Y-69785513D01*
X150149402Y-69881399D01*
X150149866Y-69887569D01*
X150156629Y-69940478D01*
X150168671Y-69974029D01*
X150189005Y-69997016D01*
X150223097Y-70018548D01*
X150256814Y-70019680D01*
X150291543Y-69994857D01*
X150297584Y-69988325D01*
X150309417Y-69968779D01*
X150316404Y-69940386D01*
X150319727Y-69896430D01*
X150320571Y-69830192D01*
X150319125Y-69768150D01*
X150311907Y-69709042D01*
X150297006Y-69671686D01*
X150272636Y-69652152D01*
X150237008Y-69646514D01*
X150223440Y-69647635D01*
X150185430Y-69668194D01*
X150160312Y-69714299D01*
X150148248Y-69785513D01*
X150001768Y-69785513D01*
X150001833Y-69778096D01*
X150008937Y-69707882D01*
X150022815Y-69652312D01*
X150040649Y-69615301D01*
X150090855Y-69557733D01*
X150158885Y-69521962D01*
X150242158Y-69509665D01*
X150264398Y-69510331D01*
X150329891Y-69523947D01*
X150383687Y-69558249D01*
X150433057Y-69617338D01*
X150435995Y-69621722D01*
X150449287Y-69645299D01*
X150457932Y-69671949D01*
X150462904Y-69708159D01*
X150465174Y-69760413D01*
X150465678Y-69830192D01*
X150465714Y-69835200D01*
X150465701Y-69850935D01*
D11*
%TO.C,R4*%
X139465000Y-67572936D02*
X139465000Y-68027064D01*
X140935000Y-67572936D02*
X140935000Y-68027064D01*
%TO.C,R7*%
X156327064Y-70565000D02*
X155872936Y-70565000D01*
X156327064Y-72035000D02*
X155872936Y-72035000D01*
%TD*%
M02*
