%TF.GenerationSoftware,KiCad,Pcbnew,(6.0.10)*%
%TF.CreationDate,2023-01-27T02:11:10-05:00*%
%TF.ProjectId,qwiic-interface,71776969-632d-4696-9e74-657266616365,rev?*%
%TF.SameCoordinates,Original*%
%TF.FileFunction,Copper,L4,Bot*%
%TF.FilePolarity,Positive*%
%FSLAX46Y46*%
G04 Gerber Fmt 4.6, Leading zero omitted, Abs format (unit mm)*
G04 Created by KiCad (PCBNEW (6.0.10)) date 2023-01-27 02:11:10*
%MOMM*%
%LPD*%
G01*
G04 APERTURE LIST*
G04 Aperture macros list*
%AMRoundRect*
0 Rectangle with rounded corners*
0 $1 Rounding radius*
0 $2 $3 $4 $5 $6 $7 $8 $9 X,Y pos of 4 corners*
0 Add a 4 corners polygon primitive as box body*
4,1,4,$2,$3,$4,$5,$6,$7,$8,$9,$2,$3,0*
0 Add four circle primitives for the rounded corners*
1,1,$1+$1,$2,$3*
1,1,$1+$1,$4,$5*
1,1,$1+$1,$6,$7*
1,1,$1+$1,$8,$9*
0 Add four rect primitives between the rounded corners*
20,1,$1+$1,$2,$3,$4,$5,0*
20,1,$1+$1,$4,$5,$6,$7,0*
20,1,$1+$1,$6,$7,$8,$9,0*
20,1,$1+$1,$8,$9,$2,$3,0*%
G04 Aperture macros list end*
%TA.AperFunction,ComponentPad*%
%ADD10C,0.500000*%
%TD*%
%TA.AperFunction,SMDPad,CuDef*%
%ADD11R,2.400000X3.200000*%
%TD*%
%TA.AperFunction,ComponentPad*%
%ADD12C,1.600200*%
%TD*%
%TA.AperFunction,ComponentPad*%
%ADD13C,2.667000*%
%TD*%
%TA.AperFunction,SMDPad,CuDef*%
%ADD14RoundRect,0.250000X-0.450000X0.350000X-0.450000X-0.350000X0.450000X-0.350000X0.450000X0.350000X0*%
%TD*%
%TA.AperFunction,SMDPad,CuDef*%
%ADD15RoundRect,0.250000X-0.337500X-0.475000X0.337500X-0.475000X0.337500X0.475000X-0.337500X0.475000X0*%
%TD*%
%TA.AperFunction,SMDPad,CuDef*%
%ADD16RoundRect,0.250000X0.350000X0.450000X-0.350000X0.450000X-0.350000X-0.450000X0.350000X-0.450000X0*%
%TD*%
%TA.AperFunction,ViaPad*%
%ADD17C,0.800000*%
%TD*%
%TA.AperFunction,Conductor*%
%ADD18C,0.250000*%
%TD*%
G04 APERTURE END LIST*
D10*
%TO.P,U1,9,GND*%
%TO.N,GND*%
X133150000Y-66750000D03*
D11*
X132200000Y-65400000D03*
D10*
X131250000Y-64050000D03*
X131250000Y-65400000D03*
X133150000Y-65400000D03*
X133150000Y-64050000D03*
X131250000Y-66750000D03*
%TD*%
D12*
%TO.P,J1,1,1*%
%TO.N,+BATT*%
X116222800Y-65010001D03*
%TO.P,J1,2,2*%
%TO.N,SDA*%
X116222800Y-67010000D03*
%TO.P,J1,3,3*%
%TO.N,SCL*%
X116222800Y-69010001D03*
%TO.P,J1,4,4*%
%TO.N,GND*%
X116222800Y-71009999D03*
D13*
%TO.P,J1,5*%
%TO.N,N/C*%
X117122801Y-62159999D03*
%TO.P,J1,6*%
X117122801Y-73860001D03*
%TD*%
D14*
%TO.P,R6,1*%
%TO.N,Net-(R5-Pad2)*%
X142700000Y-63300000D03*
%TO.P,R6,2*%
%TO.N,GND*%
X142700000Y-65300000D03*
%TD*%
D15*
%TO.P,C3,1*%
%TO.N,Net-(C3-Pad1)*%
X138162500Y-64800000D03*
%TO.P,C3,2*%
%TO.N,Net-(C3-Pad2)*%
X140237500Y-64800000D03*
%TD*%
D16*
%TO.P,R8,1*%
%TO.N,+3V3*%
X157100000Y-69100000D03*
%TO.P,R8,2*%
%TO.N,SDA*%
X155100000Y-69100000D03*
%TD*%
%TO.P,R5,1*%
%TO.N,+3V3*%
X146800000Y-63300000D03*
%TO.P,R5,2*%
%TO.N,Net-(R5-Pad2)*%
X144800000Y-63300000D03*
%TD*%
%TO.P,R3,1*%
%TO.N,Net-(R3-Pad1)*%
X129000000Y-63400000D03*
%TO.P,R3,2*%
%TO.N,GND*%
X127000000Y-63400000D03*
%TD*%
D14*
%TO.P,R4,1*%
%TO.N,Net-(C3-Pad2)*%
X140200000Y-66800000D03*
%TO.P,R4,2*%
%TO.N,GND*%
X140200000Y-68800000D03*
%TD*%
D16*
%TO.P,R7,1*%
%TO.N,+3V3*%
X157100000Y-71300000D03*
%TO.P,R7,2*%
%TO.N,SCL*%
X155100000Y-71300000D03*
%TD*%
D17*
%TO.N,GND*%
X152900000Y-67500000D03*
X156100000Y-64300000D03*
X157400000Y-74800000D03*
X126600000Y-70400000D03*
X124900000Y-67000000D03*
X134800000Y-71400000D03*
%TO.N,Net-(C2-Pad1)*%
X128000000Y-66000000D03*
X129400000Y-69600000D03*
%TO.N,Net-(C3-Pad1)*%
X136600000Y-64800000D03*
%TO.N,+3V3*%
X156700000Y-67600000D03*
X148200000Y-63300000D03*
X157400000Y-73100000D03*
%TO.N,SDA*%
X153097540Y-69782782D03*
%TO.N,SCL*%
X152900000Y-70800000D03*
%TO.N,Net-(R3-Pad1)*%
X129400000Y-62000000D03*
%TO.N,Net-(R5-Pad2)*%
X141000000Y-63100000D03*
%TD*%
D18*
%TO.N,Net-(C3-Pad1)*%
X138162500Y-64800000D02*
X136600000Y-64800000D01*
%TO.N,Net-(C3-Pad2)*%
X140200000Y-64837500D02*
X140237500Y-64800000D01*
X140200000Y-66800000D02*
X140200000Y-64837500D01*
%TO.N,+3V3*%
X157100000Y-71300000D02*
X157100000Y-69100000D01*
X157100000Y-72800000D02*
X157400000Y-73100000D01*
X156700000Y-67600000D02*
X157100000Y-68000000D01*
X157100000Y-68000000D02*
X157100000Y-69100000D01*
X146800000Y-63300000D02*
X148200000Y-63300000D01*
X157100000Y-71300000D02*
X157100000Y-72800000D01*
%TO.N,SDA*%
X153097540Y-69782782D02*
X154417218Y-69782782D01*
X154417218Y-69782782D02*
X155100000Y-69100000D01*
%TO.N,SCL*%
X155100000Y-71300000D02*
X153400000Y-71300000D01*
X153400000Y-71300000D02*
X152900000Y-70800000D01*
%TO.N,Net-(R3-Pad1)*%
X129000000Y-63400000D02*
X129000000Y-62400000D01*
X129000000Y-62400000D02*
X129400000Y-62000000D01*
%TO.N,Net-(R5-Pad2)*%
X141000000Y-63100000D02*
X142500000Y-63100000D01*
X142700000Y-63300000D02*
X144800000Y-63300000D01*
X142500000Y-63100000D02*
X142700000Y-63300000D01*
%TD*%
%TA.AperFunction,Conductor*%
%TO.N,GND*%
G36*
X116243228Y-60328502D02*
G01*
X116289721Y-60382158D01*
X116299825Y-60452432D01*
X116270331Y-60517012D01*
X116233190Y-60546314D01*
X116157900Y-60585424D01*
X116154285Y-60588007D01*
X116154279Y-60588011D01*
X116020203Y-60683823D01*
X115945667Y-60737088D01*
X115756921Y-60917143D01*
X115595427Y-61121997D01*
X115569347Y-61166897D01*
X115466643Y-61343714D01*
X115466640Y-61343720D01*
X115464409Y-61347561D01*
X115462739Y-61351684D01*
X115368153Y-61585204D01*
X115368150Y-61585212D01*
X115366480Y-61589336D01*
X115303595Y-61842497D01*
X115277007Y-62101993D01*
X115279203Y-62157885D01*
X115287015Y-62356704D01*
X115287248Y-62362646D01*
X115288046Y-62367018D01*
X115288047Y-62367023D01*
X115301095Y-62438463D01*
X115334114Y-62619256D01*
X115335519Y-62623468D01*
X115335520Y-62623471D01*
X115415257Y-62862473D01*
X115416668Y-62866702D01*
X115418660Y-62870689D01*
X115418661Y-62870691D01*
X115529960Y-63093435D01*
X115533264Y-63100048D01*
X115565023Y-63146000D01*
X115675294Y-63305548D01*
X115681576Y-63314638D01*
X115684598Y-63317907D01*
X115826630Y-63471556D01*
X115858644Y-63506189D01*
X115891981Y-63533329D01*
X115895409Y-63536120D01*
X115935608Y-63594639D01*
X115937788Y-63665603D01*
X115901256Y-63726479D01*
X115848470Y-63755540D01*
X115778833Y-63774199D01*
X115778831Y-63774200D01*
X115773523Y-63775622D01*
X115768542Y-63777944D01*
X115768541Y-63777945D01*
X115570988Y-63870065D01*
X115570983Y-63870068D01*
X115566001Y-63872391D01*
X115561494Y-63875547D01*
X115561492Y-63875548D01*
X115382946Y-64000567D01*
X115382943Y-64000569D01*
X115378435Y-64003726D01*
X115216525Y-64165636D01*
X115213368Y-64170144D01*
X115213366Y-64170147D01*
X115088498Y-64348478D01*
X115085190Y-64353202D01*
X115082867Y-64358184D01*
X115082864Y-64358189D01*
X114996494Y-64543412D01*
X114988421Y-64560724D01*
X114986999Y-64566032D01*
X114986998Y-64566034D01*
X114973440Y-64616635D01*
X114929158Y-64781897D01*
X114909201Y-65010001D01*
X114929158Y-65238105D01*
X114930582Y-65243418D01*
X114930582Y-65243420D01*
X114954110Y-65331226D01*
X114988421Y-65459278D01*
X114990743Y-65464259D01*
X114990744Y-65464260D01*
X115082864Y-65661813D01*
X115082867Y-65661818D01*
X115085190Y-65666800D01*
X115088346Y-65671307D01*
X115088347Y-65671309D01*
X115177902Y-65799206D01*
X115216525Y-65854366D01*
X115283064Y-65920905D01*
X115317090Y-65983217D01*
X115312025Y-66054032D01*
X115283064Y-66099095D01*
X115220420Y-66161739D01*
X115220415Y-66161745D01*
X115216525Y-66165635D01*
X115213370Y-66170141D01*
X115091659Y-66343963D01*
X115085190Y-66353201D01*
X115082867Y-66358183D01*
X115082864Y-66358188D01*
X114999509Y-66536944D01*
X114988421Y-66560723D01*
X114986999Y-66566031D01*
X114986998Y-66566033D01*
X114956765Y-66678866D01*
X114929158Y-66781896D01*
X114909201Y-67010000D01*
X114929158Y-67238104D01*
X114930582Y-67243417D01*
X114930582Y-67243419D01*
X114975237Y-67410072D01*
X114988421Y-67459277D01*
X114990743Y-67464258D01*
X114990744Y-67464259D01*
X115082864Y-67661812D01*
X115082867Y-67661817D01*
X115085190Y-67666799D01*
X115088346Y-67671306D01*
X115088347Y-67671308D01*
X115207552Y-67841550D01*
X115216525Y-67854365D01*
X115283065Y-67920905D01*
X115317091Y-67983217D01*
X115312026Y-68054032D01*
X115283065Y-68099095D01*
X115220420Y-68161740D01*
X115220415Y-68161746D01*
X115216525Y-68165636D01*
X115213370Y-68170142D01*
X115107716Y-68321032D01*
X115085190Y-68353202D01*
X115082867Y-68358184D01*
X115082864Y-68358189D01*
X114996628Y-68543124D01*
X114988421Y-68560724D01*
X114986999Y-68566032D01*
X114986998Y-68566034D01*
X114942021Y-68733891D01*
X114929158Y-68781897D01*
X114909201Y-69010001D01*
X114929158Y-69238105D01*
X114930582Y-69243418D01*
X114930582Y-69243420D01*
X114977230Y-69417511D01*
X114988421Y-69459278D01*
X114990743Y-69464259D01*
X114990744Y-69464260D01*
X115082864Y-69661813D01*
X115082867Y-69661818D01*
X115085190Y-69666800D01*
X115088346Y-69671307D01*
X115088347Y-69671309D01*
X115209241Y-69843963D01*
X115216525Y-69854366D01*
X115378435Y-70016276D01*
X115382943Y-70019433D01*
X115382946Y-70019435D01*
X115389963Y-70024348D01*
X115566000Y-70147611D01*
X115570982Y-70149934D01*
X115570987Y-70149937D01*
X115676372Y-70199078D01*
X115773523Y-70244380D01*
X115778833Y-70245803D01*
X115778839Y-70245805D01*
X115799471Y-70251333D01*
X115855956Y-70283945D01*
X116209988Y-70637977D01*
X116223932Y-70645591D01*
X116225765Y-70645460D01*
X116232380Y-70641209D01*
X116589644Y-70283945D01*
X116646129Y-70251333D01*
X116666761Y-70245805D01*
X116666767Y-70245803D01*
X116672077Y-70244380D01*
X116769228Y-70199078D01*
X116874613Y-70149937D01*
X116874618Y-70149934D01*
X116879600Y-70147611D01*
X117055637Y-70024348D01*
X117062654Y-70019435D01*
X117062657Y-70019433D01*
X117067165Y-70016276D01*
X117229075Y-69854366D01*
X117236360Y-69843963D01*
X117357253Y-69671309D01*
X117357254Y-69671307D01*
X117360410Y-69666800D01*
X117362733Y-69661818D01*
X117362736Y-69661813D01*
X117391560Y-69600000D01*
X128486496Y-69600000D01*
X128487186Y-69606565D01*
X128502551Y-69752751D01*
X128506458Y-69789928D01*
X128565473Y-69971556D01*
X128660960Y-70136944D01*
X128665378Y-70141851D01*
X128665379Y-70141852D01*
X128678221Y-70156114D01*
X128788747Y-70278866D01*
X128943248Y-70391118D01*
X128949276Y-70393802D01*
X128949278Y-70393803D01*
X129111681Y-70466109D01*
X129117712Y-70468794D01*
X129211113Y-70488647D01*
X129298056Y-70507128D01*
X129298061Y-70507128D01*
X129304513Y-70508500D01*
X129495487Y-70508500D01*
X129501939Y-70507128D01*
X129501944Y-70507128D01*
X129588887Y-70488647D01*
X129682288Y-70468794D01*
X129688319Y-70466109D01*
X129850722Y-70393803D01*
X129850724Y-70393802D01*
X129856752Y-70391118D01*
X130011253Y-70278866D01*
X130121779Y-70156114D01*
X130134621Y-70141852D01*
X130134622Y-70141851D01*
X130139040Y-70136944D01*
X130234527Y-69971556D01*
X130293542Y-69789928D01*
X130297450Y-69752751D01*
X130312814Y-69606565D01*
X130313504Y-69600000D01*
X130293542Y-69410072D01*
X130234527Y-69228444D01*
X130216428Y-69197095D01*
X138992001Y-69197095D01*
X138992338Y-69203614D01*
X139002257Y-69299206D01*
X139005149Y-69312600D01*
X139056588Y-69466784D01*
X139062761Y-69479962D01*
X139148063Y-69617807D01*
X139157099Y-69629208D01*
X139271829Y-69743739D01*
X139283240Y-69752751D01*
X139421243Y-69837816D01*
X139434424Y-69843963D01*
X139588710Y-69895138D01*
X139602086Y-69898005D01*
X139696438Y-69907672D01*
X139702854Y-69908000D01*
X139927885Y-69908000D01*
X139943124Y-69903525D01*
X139944329Y-69902135D01*
X139946000Y-69894452D01*
X139946000Y-69889884D01*
X140454000Y-69889884D01*
X140458475Y-69905123D01*
X140459865Y-69906328D01*
X140467548Y-69907999D01*
X140697095Y-69907999D01*
X140703614Y-69907662D01*
X140799206Y-69897743D01*
X140812600Y-69894851D01*
X140966784Y-69843412D01*
X140979962Y-69837239D01*
X141117807Y-69751937D01*
X141129208Y-69742901D01*
X141243739Y-69628171D01*
X141252751Y-69616760D01*
X141337816Y-69478757D01*
X141343963Y-69465576D01*
X141395138Y-69311290D01*
X141398005Y-69297914D01*
X141407672Y-69203562D01*
X141408000Y-69197146D01*
X141408000Y-69072115D01*
X141403525Y-69056876D01*
X141402135Y-69055671D01*
X141394452Y-69054000D01*
X140472115Y-69054000D01*
X140456876Y-69058475D01*
X140455671Y-69059865D01*
X140454000Y-69067548D01*
X140454000Y-69889884D01*
X139946000Y-69889884D01*
X139946000Y-69072115D01*
X139941525Y-69056876D01*
X139940135Y-69055671D01*
X139932452Y-69054000D01*
X139010116Y-69054000D01*
X138994877Y-69058475D01*
X138993672Y-69059865D01*
X138992001Y-69067548D01*
X138992001Y-69197095D01*
X130216428Y-69197095D01*
X130139040Y-69063056D01*
X130103228Y-69023282D01*
X130015675Y-68926045D01*
X130015674Y-68926044D01*
X130011253Y-68921134D01*
X129856752Y-68808882D01*
X129850724Y-68806198D01*
X129850722Y-68806197D01*
X129688319Y-68733891D01*
X129688318Y-68733891D01*
X129682288Y-68731206D01*
X129588888Y-68711353D01*
X129501944Y-68692872D01*
X129501939Y-68692872D01*
X129495487Y-68691500D01*
X129304513Y-68691500D01*
X129298061Y-68692872D01*
X129298056Y-68692872D01*
X129211112Y-68711353D01*
X129117712Y-68731206D01*
X129111682Y-68733891D01*
X129111681Y-68733891D01*
X128949278Y-68806197D01*
X128949276Y-68806198D01*
X128943248Y-68808882D01*
X128788747Y-68921134D01*
X128784326Y-68926044D01*
X128784325Y-68926045D01*
X128696773Y-69023282D01*
X128660960Y-69063056D01*
X128565473Y-69228444D01*
X128506458Y-69410072D01*
X128486496Y-69600000D01*
X117391560Y-69600000D01*
X117454856Y-69464260D01*
X117454857Y-69464259D01*
X117457179Y-69459278D01*
X117468371Y-69417511D01*
X117515018Y-69243420D01*
X117515018Y-69243418D01*
X117516442Y-69238105D01*
X117536399Y-69010001D01*
X117516442Y-68781897D01*
X117503579Y-68733891D01*
X117458602Y-68566034D01*
X117458601Y-68566032D01*
X117457179Y-68560724D01*
X117448972Y-68543124D01*
X117362736Y-68358189D01*
X117362733Y-68358184D01*
X117360410Y-68353202D01*
X117341401Y-68326054D01*
X117232234Y-68170147D01*
X117232230Y-68170142D01*
X117229075Y-68165636D01*
X117162534Y-68099095D01*
X117128509Y-68036784D01*
X117133574Y-67965969D01*
X117162535Y-67920906D01*
X117225180Y-67858261D01*
X117225185Y-67858255D01*
X117229075Y-67854365D01*
X117267072Y-67800100D01*
X117357253Y-67671308D01*
X117357254Y-67671306D01*
X117360410Y-67666799D01*
X117362733Y-67661817D01*
X117362736Y-67661812D01*
X117454856Y-67464259D01*
X117454857Y-67464258D01*
X117457179Y-67459277D01*
X117470364Y-67410072D01*
X117515018Y-67243419D01*
X117515018Y-67243417D01*
X117516442Y-67238104D01*
X117536399Y-67010000D01*
X117516442Y-66781896D01*
X117488835Y-66678866D01*
X117458602Y-66566033D01*
X117458601Y-66566031D01*
X117457179Y-66560723D01*
X117446091Y-66536944D01*
X117362736Y-66358188D01*
X117362733Y-66358183D01*
X117360410Y-66353201D01*
X117357253Y-66348692D01*
X117232234Y-66170146D01*
X117232230Y-66170141D01*
X117229075Y-66165635D01*
X117162535Y-66099095D01*
X117128510Y-66036784D01*
X117131141Y-66000000D01*
X127086496Y-66000000D01*
X127087186Y-66006565D01*
X127099872Y-66127262D01*
X127106458Y-66189928D01*
X127165473Y-66371556D01*
X127168776Y-66377278D01*
X127168777Y-66377279D01*
X127183550Y-66402866D01*
X127260960Y-66536944D01*
X127388747Y-66678866D01*
X127464482Y-66733891D01*
X127523240Y-66776581D01*
X127543248Y-66791118D01*
X127549276Y-66793802D01*
X127549278Y-66793803D01*
X127711681Y-66866109D01*
X127717712Y-66868794D01*
X127811113Y-66888647D01*
X127898056Y-66907128D01*
X127898061Y-66907128D01*
X127904513Y-66908500D01*
X128095487Y-66908500D01*
X128101939Y-66907128D01*
X128101944Y-66907128D01*
X128188887Y-66888647D01*
X128282288Y-66868794D01*
X128288319Y-66866109D01*
X128450722Y-66793803D01*
X128450724Y-66793802D01*
X128456752Y-66791118D01*
X128476761Y-66776581D01*
X128518353Y-66746362D01*
X130487966Y-66746362D01*
X130491400Y-66781388D01*
X130492001Y-66793684D01*
X130492001Y-67044669D01*
X130492371Y-67051490D01*
X130497895Y-67102352D01*
X130501521Y-67117604D01*
X130546676Y-67238054D01*
X130555214Y-67253649D01*
X130631715Y-67355724D01*
X130644276Y-67368285D01*
X130746351Y-67444786D01*
X130761946Y-67453324D01*
X130882394Y-67498478D01*
X130897649Y-67502105D01*
X130948514Y-67507631D01*
X130955328Y-67508000D01*
X131190965Y-67508000D01*
X131207629Y-67509107D01*
X131227044Y-67511697D01*
X131241040Y-67511991D01*
X131279186Y-67508519D01*
X131290606Y-67508000D01*
X131927885Y-67508000D01*
X131943124Y-67503525D01*
X131944329Y-67502135D01*
X131946000Y-67494452D01*
X131946000Y-67489884D01*
X132454000Y-67489884D01*
X132458475Y-67505123D01*
X132459865Y-67506328D01*
X132467548Y-67507999D01*
X133090957Y-67507999D01*
X133107622Y-67509106D01*
X133127044Y-67511698D01*
X133141040Y-67511991D01*
X133179195Y-67508518D01*
X133190615Y-67507999D01*
X133444669Y-67507999D01*
X133451490Y-67507629D01*
X133502352Y-67502105D01*
X133517604Y-67498479D01*
X133638054Y-67453324D01*
X133653649Y-67444786D01*
X133755724Y-67368285D01*
X133768285Y-67355724D01*
X133844786Y-67253649D01*
X133853324Y-67238054D01*
X133898478Y-67117606D01*
X133902105Y-67102351D01*
X133907631Y-67051486D01*
X133908000Y-67044672D01*
X133908000Y-66812124D01*
X133909226Y-66794588D01*
X133911948Y-66775222D01*
X133912554Y-66767338D01*
X133912741Y-66753962D01*
X133912354Y-66746062D01*
X133908785Y-66714241D01*
X133908000Y-66700196D01*
X133908000Y-65672115D01*
X133903525Y-65656876D01*
X133902135Y-65655671D01*
X133894452Y-65654000D01*
X132472115Y-65654000D01*
X132456876Y-65658475D01*
X132455671Y-65659865D01*
X132454000Y-65667548D01*
X132454000Y-67489884D01*
X131946000Y-67489884D01*
X131946000Y-65672115D01*
X131941525Y-65656876D01*
X131940135Y-65655671D01*
X131932452Y-65654000D01*
X130510116Y-65654000D01*
X130494877Y-65658475D01*
X130493672Y-65659865D01*
X130492001Y-65667548D01*
X130492001Y-66694040D01*
X130491007Y-66709833D01*
X130488162Y-66732356D01*
X130487966Y-66746362D01*
X128518353Y-66746362D01*
X128535518Y-66733891D01*
X128611253Y-66678866D01*
X128739040Y-66536944D01*
X128816450Y-66402866D01*
X128831223Y-66377279D01*
X128831224Y-66377278D01*
X128834527Y-66371556D01*
X128893542Y-66189928D01*
X128900129Y-66127262D01*
X128912814Y-66006565D01*
X128913504Y-66000000D01*
X128898607Y-65858262D01*
X128894232Y-65816635D01*
X128894232Y-65816633D01*
X128893542Y-65810072D01*
X128834527Y-65628444D01*
X128824331Y-65610783D01*
X128748168Y-65478866D01*
X128739040Y-65463056D01*
X128611253Y-65321134D01*
X128456752Y-65208882D01*
X128450724Y-65206198D01*
X128450722Y-65206197D01*
X128288319Y-65133891D01*
X128288318Y-65133891D01*
X128282288Y-65131206D01*
X128188888Y-65111353D01*
X128101944Y-65092872D01*
X128101939Y-65092872D01*
X128095487Y-65091500D01*
X127904513Y-65091500D01*
X127898061Y-65092872D01*
X127898056Y-65092872D01*
X127811112Y-65111353D01*
X127717712Y-65131206D01*
X127711682Y-65133891D01*
X127711681Y-65133891D01*
X127549278Y-65206197D01*
X127549276Y-65206198D01*
X127543248Y-65208882D01*
X127388747Y-65321134D01*
X127260960Y-65463056D01*
X127251832Y-65478866D01*
X127175670Y-65610783D01*
X127165473Y-65628444D01*
X127106458Y-65810072D01*
X127105768Y-65816633D01*
X127105768Y-65816635D01*
X127101393Y-65858262D01*
X127086496Y-66000000D01*
X117131141Y-66000000D01*
X117133575Y-65965969D01*
X117162536Y-65920906D01*
X117225180Y-65858262D01*
X117225185Y-65858256D01*
X117229075Y-65854366D01*
X117265364Y-65802540D01*
X117357253Y-65671309D01*
X117357254Y-65671307D01*
X117360410Y-65666800D01*
X117362733Y-65661818D01*
X117362736Y-65661813D01*
X117454856Y-65464260D01*
X117454857Y-65464259D01*
X117457179Y-65459278D01*
X117491491Y-65331226D01*
X117515018Y-65243420D01*
X117515018Y-65243418D01*
X117516442Y-65238105D01*
X117536399Y-65010001D01*
X117516442Y-64781897D01*
X117472160Y-64616635D01*
X117458602Y-64566034D01*
X117458601Y-64566032D01*
X117457179Y-64560724D01*
X117449106Y-64543412D01*
X117362736Y-64358189D01*
X117362733Y-64358184D01*
X117360410Y-64353202D01*
X117354136Y-64344241D01*
X117245966Y-64189759D01*
X117223278Y-64122485D01*
X117240563Y-64053624D01*
X117292333Y-64005040D01*
X117328491Y-63993198D01*
X117553906Y-63955679D01*
X117558147Y-63954338D01*
X117558150Y-63954337D01*
X117739148Y-63897095D01*
X125892001Y-63897095D01*
X125892338Y-63903614D01*
X125902257Y-63999206D01*
X125905149Y-64012600D01*
X125956588Y-64166784D01*
X125962761Y-64179962D01*
X126048063Y-64317807D01*
X126057099Y-64329208D01*
X126171829Y-64443739D01*
X126183240Y-64452751D01*
X126321243Y-64537816D01*
X126334424Y-64543963D01*
X126488710Y-64595138D01*
X126502086Y-64598005D01*
X126596438Y-64607672D01*
X126602854Y-64608000D01*
X126727885Y-64608000D01*
X126743124Y-64603525D01*
X126744329Y-64602135D01*
X126746000Y-64594452D01*
X126746000Y-64589884D01*
X127254000Y-64589884D01*
X127258475Y-64605123D01*
X127259865Y-64606328D01*
X127267548Y-64607999D01*
X127397095Y-64607999D01*
X127403614Y-64607662D01*
X127499206Y-64597743D01*
X127512600Y-64594851D01*
X127666784Y-64543412D01*
X127679962Y-64537239D01*
X127817807Y-64451937D01*
X127829208Y-64442901D01*
X127910430Y-64361538D01*
X127972713Y-64327459D01*
X128043533Y-64332462D01*
X128088620Y-64361383D01*
X128171512Y-64444130D01*
X128171517Y-64444134D01*
X128176697Y-64449305D01*
X128182927Y-64453145D01*
X128182928Y-64453146D01*
X128320288Y-64537816D01*
X128327262Y-64542115D01*
X128383367Y-64560724D01*
X128488611Y-64595632D01*
X128488613Y-64595632D01*
X128495139Y-64597797D01*
X128501975Y-64598497D01*
X128501978Y-64598498D01*
X128545031Y-64602909D01*
X128599600Y-64608500D01*
X129400400Y-64608500D01*
X129403646Y-64608163D01*
X129403650Y-64608163D01*
X129499308Y-64598238D01*
X129499312Y-64598237D01*
X129506166Y-64597526D01*
X129512702Y-64595345D01*
X129512704Y-64595345D01*
X129655506Y-64547702D01*
X129673946Y-64541550D01*
X129824348Y-64448478D01*
X129949305Y-64323303D01*
X129980053Y-64273421D01*
X130038275Y-64178968D01*
X130038276Y-64178966D01*
X130042115Y-64172738D01*
X130082106Y-64052169D01*
X130084032Y-64046363D01*
X130487966Y-64046363D01*
X130491399Y-64081379D01*
X130492000Y-64093675D01*
X130492000Y-65127885D01*
X130496475Y-65143124D01*
X130497865Y-65144329D01*
X130505548Y-65146000D01*
X131927885Y-65146000D01*
X131943124Y-65141525D01*
X131944329Y-65140135D01*
X131946000Y-65132452D01*
X131946000Y-65127885D01*
X132454000Y-65127885D01*
X132458475Y-65143124D01*
X132459865Y-65144329D01*
X132467548Y-65146000D01*
X133889884Y-65146000D01*
X133905123Y-65141525D01*
X133906328Y-65140135D01*
X133907999Y-65132452D01*
X133907999Y-64800000D01*
X135686496Y-64800000D01*
X135706458Y-64989928D01*
X135765473Y-65171556D01*
X135860960Y-65336944D01*
X135988747Y-65478866D01*
X136087843Y-65550864D01*
X136119400Y-65573791D01*
X136143248Y-65591118D01*
X136149276Y-65593802D01*
X136149278Y-65593803D01*
X136297657Y-65659865D01*
X136317712Y-65668794D01*
X136411113Y-65688647D01*
X136498056Y-65707128D01*
X136498061Y-65707128D01*
X136504513Y-65708500D01*
X136695487Y-65708500D01*
X136701939Y-65707128D01*
X136701944Y-65707128D01*
X136788887Y-65688647D01*
X136882288Y-65668794D01*
X136902968Y-65659587D01*
X136985770Y-65622721D01*
X137012584Y-65610783D01*
X137082950Y-65601349D01*
X137147247Y-65631455D01*
X137170976Y-65659587D01*
X137226522Y-65749348D01*
X137351697Y-65874305D01*
X137357927Y-65878145D01*
X137357928Y-65878146D01*
X137495090Y-65962694D01*
X137502262Y-65967115D01*
X137581615Y-65993435D01*
X137663611Y-66020632D01*
X137663613Y-66020632D01*
X137670139Y-66022797D01*
X137676975Y-66023497D01*
X137676978Y-66023498D01*
X137720031Y-66027909D01*
X137774600Y-66033500D01*
X138550400Y-66033500D01*
X138553646Y-66033163D01*
X138553650Y-66033163D01*
X138649308Y-66023238D01*
X138649312Y-66023237D01*
X138656166Y-66022526D01*
X138662702Y-66020345D01*
X138662704Y-66020345D01*
X138812169Y-65970479D01*
X138823946Y-65966550D01*
X138909049Y-65913886D01*
X138977502Y-65895048D01*
X139045272Y-65916209D01*
X139090843Y-65970650D01*
X139099747Y-66041086D01*
X139082613Y-66087146D01*
X139064359Y-66116760D01*
X139057885Y-66127262D01*
X139055581Y-66134209D01*
X139019252Y-66243739D01*
X139002203Y-66295139D01*
X138991500Y-66399600D01*
X138991500Y-67200400D01*
X138991837Y-67203646D01*
X138991837Y-67203650D01*
X138995964Y-67243419D01*
X139002474Y-67306166D01*
X139004655Y-67312702D01*
X139004655Y-67312704D01*
X139035045Y-67403794D01*
X139058450Y-67473946D01*
X139151522Y-67624348D01*
X139156704Y-67629521D01*
X139238463Y-67711138D01*
X139272542Y-67773421D01*
X139267539Y-67844241D01*
X139238618Y-67889329D01*
X139156261Y-67971829D01*
X139147249Y-67983240D01*
X139062184Y-68121243D01*
X139056037Y-68134424D01*
X139004862Y-68288710D01*
X139001995Y-68302086D01*
X138992328Y-68396438D01*
X138992000Y-68402855D01*
X138992000Y-68527885D01*
X138996475Y-68543124D01*
X138997865Y-68544329D01*
X139005548Y-68546000D01*
X141389884Y-68546000D01*
X141405123Y-68541525D01*
X141406328Y-68540135D01*
X141407999Y-68532452D01*
X141407999Y-68402905D01*
X141407662Y-68396386D01*
X141397743Y-68300794D01*
X141394851Y-68287400D01*
X141343412Y-68133216D01*
X141337239Y-68120038D01*
X141251937Y-67982193D01*
X141242901Y-67970792D01*
X141161538Y-67889570D01*
X141127459Y-67827287D01*
X141132462Y-67756467D01*
X141161383Y-67711380D01*
X141244130Y-67628488D01*
X141244134Y-67628483D01*
X141249305Y-67623303D01*
X141319697Y-67509107D01*
X141338275Y-67478968D01*
X141338276Y-67478966D01*
X141342115Y-67472738D01*
X141397797Y-67304861D01*
X141408500Y-67200400D01*
X141408500Y-66399600D01*
X141404938Y-66365271D01*
X141398238Y-66300692D01*
X141398237Y-66300688D01*
X141397526Y-66293834D01*
X141380534Y-66242901D01*
X141343868Y-66133002D01*
X141341550Y-66126054D01*
X141248478Y-65975652D01*
X141185381Y-65912665D01*
X141151302Y-65850383D01*
X141156305Y-65779563D01*
X141173343Y-65749266D01*
X141174305Y-65748303D01*
X141217987Y-65677439D01*
X141258741Y-65611323D01*
X141311513Y-65563830D01*
X141381585Y-65552406D01*
X141446709Y-65580680D01*
X141486208Y-65639674D01*
X141492001Y-65677439D01*
X141492001Y-65697095D01*
X141492338Y-65703614D01*
X141502257Y-65799206D01*
X141505149Y-65812600D01*
X141556588Y-65966784D01*
X141562761Y-65979962D01*
X141648063Y-66117807D01*
X141657099Y-66129208D01*
X141771829Y-66243739D01*
X141783240Y-66252751D01*
X141921243Y-66337816D01*
X141934424Y-66343963D01*
X142088710Y-66395138D01*
X142102086Y-66398005D01*
X142196438Y-66407672D01*
X142202854Y-66408000D01*
X142427885Y-66408000D01*
X142443124Y-66403525D01*
X142444329Y-66402135D01*
X142446000Y-66394452D01*
X142446000Y-66389884D01*
X142954000Y-66389884D01*
X142958475Y-66405123D01*
X142959865Y-66406328D01*
X142967548Y-66407999D01*
X143197095Y-66407999D01*
X143203614Y-66407662D01*
X143299206Y-66397743D01*
X143312600Y-66394851D01*
X143466784Y-66343412D01*
X143479962Y-66337239D01*
X143617807Y-66251937D01*
X143629208Y-66242901D01*
X143743739Y-66128171D01*
X143752751Y-66116760D01*
X143837816Y-65978757D01*
X143843963Y-65965576D01*
X143895138Y-65811290D01*
X143898005Y-65797914D01*
X143907672Y-65703562D01*
X143908000Y-65697146D01*
X143908000Y-65572115D01*
X143903525Y-65556876D01*
X143902135Y-65555671D01*
X143894452Y-65554000D01*
X142972115Y-65554000D01*
X142956876Y-65558475D01*
X142955671Y-65559865D01*
X142954000Y-65567548D01*
X142954000Y-66389884D01*
X142446000Y-66389884D01*
X142446000Y-65172000D01*
X142466002Y-65103879D01*
X142519658Y-65057386D01*
X142572000Y-65046000D01*
X143889884Y-65046000D01*
X143905123Y-65041525D01*
X143906328Y-65040135D01*
X143907999Y-65032452D01*
X143907999Y-64902905D01*
X143907662Y-64896386D01*
X143897743Y-64800794D01*
X143894851Y-64787400D01*
X143843412Y-64633216D01*
X143837239Y-64620038D01*
X143751937Y-64482193D01*
X143742894Y-64470783D01*
X143716258Y-64404972D01*
X143729430Y-64335208D01*
X143778228Y-64283640D01*
X143847160Y-64266641D01*
X143914339Y-64289607D01*
X143930658Y-64303346D01*
X143976697Y-64349305D01*
X143982927Y-64353145D01*
X143982928Y-64353146D01*
X144120090Y-64437694D01*
X144127262Y-64442115D01*
X144159329Y-64452751D01*
X144288611Y-64495632D01*
X144288613Y-64495632D01*
X144295139Y-64497797D01*
X144301975Y-64498497D01*
X144301978Y-64498498D01*
X144345031Y-64502909D01*
X144399600Y-64508500D01*
X145200400Y-64508500D01*
X145203646Y-64508163D01*
X145203650Y-64508163D01*
X145299308Y-64498238D01*
X145299312Y-64498237D01*
X145306166Y-64497526D01*
X145312702Y-64495345D01*
X145312704Y-64495345D01*
X145444806Y-64451272D01*
X145473946Y-64441550D01*
X145624348Y-64348478D01*
X145710784Y-64261891D01*
X145773066Y-64227812D01*
X145843886Y-64232815D01*
X145888975Y-64261736D01*
X145905133Y-64277866D01*
X145976697Y-64349305D01*
X145982927Y-64353145D01*
X145982928Y-64353146D01*
X146120090Y-64437694D01*
X146127262Y-64442115D01*
X146159329Y-64452751D01*
X146288611Y-64495632D01*
X146288613Y-64495632D01*
X146295139Y-64497797D01*
X146301975Y-64498497D01*
X146301978Y-64498498D01*
X146345031Y-64502909D01*
X146399600Y-64508500D01*
X147200400Y-64508500D01*
X147203646Y-64508163D01*
X147203650Y-64508163D01*
X147299308Y-64498238D01*
X147299312Y-64498237D01*
X147306166Y-64497526D01*
X147312702Y-64495345D01*
X147312704Y-64495345D01*
X147444806Y-64451272D01*
X147473946Y-64441550D01*
X147624348Y-64348478D01*
X147749305Y-64223303D01*
X147754103Y-64215519D01*
X147755034Y-64214681D01*
X147757683Y-64211327D01*
X147758257Y-64211780D01*
X147806871Y-64168025D01*
X147876942Y-64156598D01*
X147905266Y-64164480D01*
X147905400Y-64164068D01*
X147911680Y-64166108D01*
X147917712Y-64168794D01*
X148011113Y-64188647D01*
X148098056Y-64207128D01*
X148098061Y-64207128D01*
X148104513Y-64208500D01*
X148295487Y-64208500D01*
X148301939Y-64207128D01*
X148301944Y-64207128D01*
X148388887Y-64188647D01*
X148482288Y-64168794D01*
X148489381Y-64165636D01*
X148650722Y-64093803D01*
X148650724Y-64093802D01*
X148656752Y-64091118D01*
X148689480Y-64067340D01*
X148718766Y-64046062D01*
X148811253Y-63978866D01*
X148820322Y-63968794D01*
X148934621Y-63841852D01*
X148934622Y-63841851D01*
X148939040Y-63836944D01*
X149034527Y-63671556D01*
X149093542Y-63489928D01*
X149095371Y-63472531D01*
X149112814Y-63306565D01*
X149113504Y-63300000D01*
X149093542Y-63110072D01*
X149034527Y-62928444D01*
X149015998Y-62896350D01*
X148956810Y-62793834D01*
X148939040Y-62763056D01*
X148827088Y-62638720D01*
X148815675Y-62626045D01*
X148815674Y-62626044D01*
X148811253Y-62621134D01*
X148656752Y-62508882D01*
X148650724Y-62506198D01*
X148650722Y-62506197D01*
X148488319Y-62433891D01*
X148488318Y-62433891D01*
X148482288Y-62431206D01*
X148388887Y-62411353D01*
X148301944Y-62392872D01*
X148301939Y-62392872D01*
X148295487Y-62391500D01*
X148104513Y-62391500D01*
X148098061Y-62392872D01*
X148098056Y-62392872D01*
X147965097Y-62421134D01*
X147917712Y-62431206D01*
X147911676Y-62433893D01*
X147905402Y-62435932D01*
X147904951Y-62434543D01*
X147842114Y-62442965D01*
X147777819Y-62412855D01*
X147754098Y-62384733D01*
X147752333Y-62381882D01*
X147748478Y-62375652D01*
X147728659Y-62355867D01*
X147628483Y-62255866D01*
X147623303Y-62250695D01*
X147591686Y-62231206D01*
X147478968Y-62161725D01*
X147478966Y-62161724D01*
X147472738Y-62157885D01*
X147377204Y-62126198D01*
X147311389Y-62104368D01*
X147311387Y-62104368D01*
X147304861Y-62102203D01*
X147298025Y-62101503D01*
X147298022Y-62101502D01*
X147254969Y-62097091D01*
X147200400Y-62091500D01*
X146399600Y-62091500D01*
X146396354Y-62091837D01*
X146396350Y-62091837D01*
X146300692Y-62101762D01*
X146300688Y-62101763D01*
X146293834Y-62102474D01*
X146287298Y-62104655D01*
X146287296Y-62104655D01*
X146155194Y-62148728D01*
X146126054Y-62158450D01*
X145975652Y-62251522D01*
X145970479Y-62256704D01*
X145889216Y-62338109D01*
X145826934Y-62372188D01*
X145756114Y-62367185D01*
X145711025Y-62338264D01*
X145628483Y-62255866D01*
X145623303Y-62250695D01*
X145591686Y-62231206D01*
X145478968Y-62161725D01*
X145478966Y-62161724D01*
X145472738Y-62157885D01*
X145377204Y-62126198D01*
X145311389Y-62104368D01*
X145311387Y-62104368D01*
X145304861Y-62102203D01*
X145298025Y-62101503D01*
X145298022Y-62101502D01*
X145254969Y-62097091D01*
X145200400Y-62091500D01*
X144399600Y-62091500D01*
X144396354Y-62091837D01*
X144396350Y-62091837D01*
X144300692Y-62101762D01*
X144300688Y-62101763D01*
X144293834Y-62102474D01*
X144287298Y-62104655D01*
X144287296Y-62104655D01*
X144155194Y-62148728D01*
X144126054Y-62158450D01*
X143975652Y-62251522D01*
X143850695Y-62376697D01*
X143848936Y-62379551D01*
X143792349Y-62419671D01*
X143721426Y-62422903D01*
X143662367Y-62389690D01*
X143628484Y-62355867D01*
X143623303Y-62350695D01*
X143617072Y-62346854D01*
X143478968Y-62261725D01*
X143478966Y-62261724D01*
X143472738Y-62257885D01*
X143388166Y-62229834D01*
X143311389Y-62204368D01*
X143311387Y-62204368D01*
X143304861Y-62202203D01*
X143298025Y-62201503D01*
X143298022Y-62201502D01*
X143254969Y-62197091D01*
X143200400Y-62191500D01*
X142199600Y-62191500D01*
X142196354Y-62191837D01*
X142196350Y-62191837D01*
X142100692Y-62201762D01*
X142100688Y-62201763D01*
X142093834Y-62202474D01*
X142087298Y-62204655D01*
X142087296Y-62204655D01*
X141999666Y-62233891D01*
X141926054Y-62258450D01*
X141775652Y-62351522D01*
X141770479Y-62356704D01*
X141742359Y-62384873D01*
X141680076Y-62418952D01*
X141609256Y-62413949D01*
X141579125Y-62397791D01*
X141462094Y-62312763D01*
X141462093Y-62312762D01*
X141456752Y-62308882D01*
X141450724Y-62306198D01*
X141450722Y-62306197D01*
X141288319Y-62233891D01*
X141288318Y-62233891D01*
X141282288Y-62231206D01*
X141183068Y-62210116D01*
X141101944Y-62192872D01*
X141101939Y-62192872D01*
X141095487Y-62191500D01*
X140904513Y-62191500D01*
X140898061Y-62192872D01*
X140898056Y-62192872D01*
X140816932Y-62210116D01*
X140717712Y-62231206D01*
X140711682Y-62233891D01*
X140711681Y-62233891D01*
X140549278Y-62306197D01*
X140549276Y-62306198D01*
X140543248Y-62308882D01*
X140388747Y-62421134D01*
X140384326Y-62426044D01*
X140384325Y-62426045D01*
X140280057Y-62541847D01*
X140260960Y-62563056D01*
X140165473Y-62728444D01*
X140106458Y-62910072D01*
X140105768Y-62916633D01*
X140105768Y-62916635D01*
X140104527Y-62928444D01*
X140086496Y-63100000D01*
X140087186Y-63106565D01*
X140102143Y-63248869D01*
X140106458Y-63289928D01*
X140108498Y-63296206D01*
X140142731Y-63401564D01*
X140144759Y-63472531D01*
X140108096Y-63533329D01*
X140044384Y-63564655D01*
X140022898Y-63566500D01*
X139849600Y-63566500D01*
X139846354Y-63566837D01*
X139846350Y-63566837D01*
X139750692Y-63576762D01*
X139750688Y-63576763D01*
X139743834Y-63577474D01*
X139737298Y-63579655D01*
X139737296Y-63579655D01*
X139692384Y-63594639D01*
X139576054Y-63633450D01*
X139425652Y-63726522D01*
X139300695Y-63851697D01*
X139298094Y-63855916D01*
X139240970Y-63896417D01*
X139170047Y-63899649D01*
X139108635Y-63864024D01*
X139102078Y-63856470D01*
X139098478Y-63850652D01*
X138973303Y-63725695D01*
X138967072Y-63721854D01*
X138828968Y-63636725D01*
X138828966Y-63636724D01*
X138822738Y-63632885D01*
X138742995Y-63606436D01*
X138661389Y-63579368D01*
X138661387Y-63579368D01*
X138654861Y-63577203D01*
X138648025Y-63576503D01*
X138648022Y-63576502D01*
X138604969Y-63572091D01*
X138550400Y-63566500D01*
X137774600Y-63566500D01*
X137771354Y-63566837D01*
X137771350Y-63566837D01*
X137675692Y-63576762D01*
X137675688Y-63576763D01*
X137668834Y-63577474D01*
X137662298Y-63579655D01*
X137662296Y-63579655D01*
X137617384Y-63594639D01*
X137501054Y-63633450D01*
X137350652Y-63726522D01*
X137225695Y-63851697D01*
X137221855Y-63857927D01*
X137221854Y-63857928D01*
X137201395Y-63891118D01*
X137177531Y-63929834D01*
X137171118Y-63940237D01*
X137118346Y-63987730D01*
X137048274Y-63999154D01*
X137012610Y-63989228D01*
X136888323Y-63933892D01*
X136888315Y-63933889D01*
X136882288Y-63931206D01*
X136788888Y-63911353D01*
X136701944Y-63892872D01*
X136701939Y-63892872D01*
X136695487Y-63891500D01*
X136504513Y-63891500D01*
X136498061Y-63892872D01*
X136498056Y-63892872D01*
X136411112Y-63911353D01*
X136317712Y-63931206D01*
X136311682Y-63933891D01*
X136311681Y-63933891D01*
X136149278Y-64006197D01*
X136149276Y-64006198D01*
X136143248Y-64008882D01*
X136137907Y-64012762D01*
X136137906Y-64012763D01*
X136110939Y-64032356D01*
X135988747Y-64121134D01*
X135984326Y-64126044D01*
X135984325Y-64126045D01*
X135892090Y-64228483D01*
X135860960Y-64263056D01*
X135811517Y-64348693D01*
X135779025Y-64404972D01*
X135765473Y-64428444D01*
X135706458Y-64610072D01*
X135705768Y-64616633D01*
X135705768Y-64616635D01*
X135699872Y-64672735D01*
X135686496Y-64800000D01*
X133907999Y-64800000D01*
X133907999Y-64112130D01*
X133909225Y-64094593D01*
X133911948Y-64075219D01*
X133912554Y-64067340D01*
X133912741Y-64053962D01*
X133912354Y-64046062D01*
X133908784Y-64014233D01*
X133907999Y-64000188D01*
X133907999Y-63755331D01*
X133907629Y-63748510D01*
X133902105Y-63697648D01*
X133898479Y-63682396D01*
X133853324Y-63561946D01*
X133844786Y-63546351D01*
X133768285Y-63444276D01*
X133755724Y-63431715D01*
X133653649Y-63355214D01*
X133638054Y-63346676D01*
X133517606Y-63301522D01*
X133502351Y-63297895D01*
X133451486Y-63292369D01*
X133444672Y-63292000D01*
X133202875Y-63292000D01*
X133187957Y-63291114D01*
X133162318Y-63288057D01*
X133148320Y-63287959D01*
X133116437Y-63291310D01*
X133103267Y-63292000D01*
X132472115Y-63292000D01*
X132456876Y-63296475D01*
X132455671Y-63297865D01*
X132454000Y-63305548D01*
X132454000Y-65127885D01*
X131946000Y-65127885D01*
X131946000Y-63310116D01*
X131941525Y-63294877D01*
X131940135Y-63293672D01*
X131932452Y-63292001D01*
X131302883Y-63292001D01*
X131287964Y-63291115D01*
X131262318Y-63288057D01*
X131248321Y-63287959D01*
X131216430Y-63291311D01*
X131203260Y-63292001D01*
X130955331Y-63292001D01*
X130948510Y-63292371D01*
X130897648Y-63297895D01*
X130882396Y-63301521D01*
X130761946Y-63346676D01*
X130746351Y-63355214D01*
X130644276Y-63431715D01*
X130631715Y-63444276D01*
X130555214Y-63546351D01*
X130546676Y-63561946D01*
X130501522Y-63682394D01*
X130497895Y-63697649D01*
X130492369Y-63748514D01*
X130492000Y-63755328D01*
X130492000Y-63994048D01*
X130491006Y-64009840D01*
X130488162Y-64032356D01*
X130487966Y-64046363D01*
X130084032Y-64046363D01*
X130095632Y-64011389D01*
X130095632Y-64011387D01*
X130097797Y-64004861D01*
X130100393Y-63979529D01*
X130105068Y-63933892D01*
X130108500Y-63900400D01*
X130108500Y-62899600D01*
X130108163Y-62896350D01*
X130098238Y-62800692D01*
X130098237Y-62800688D01*
X130097526Y-62793834D01*
X130095346Y-62787300D01*
X130095345Y-62787295D01*
X130069447Y-62709670D01*
X130066863Y-62638720D01*
X130095333Y-62585486D01*
X130139040Y-62536944D01*
X130224057Y-62389690D01*
X130231223Y-62377279D01*
X130231224Y-62377278D01*
X130234527Y-62371556D01*
X130293542Y-62189928D01*
X130296169Y-62164940D01*
X130312814Y-62006565D01*
X130313504Y-62000000D01*
X130293542Y-61810072D01*
X130234527Y-61628444D01*
X130139040Y-61463056D01*
X130011253Y-61321134D01*
X129856752Y-61208882D01*
X129850724Y-61206198D01*
X129850722Y-61206197D01*
X129688319Y-61133891D01*
X129688318Y-61133891D01*
X129682288Y-61131206D01*
X129588888Y-61111353D01*
X129501944Y-61092872D01*
X129501939Y-61092872D01*
X129495487Y-61091500D01*
X129304513Y-61091500D01*
X129298061Y-61092872D01*
X129298056Y-61092872D01*
X129211112Y-61111353D01*
X129117712Y-61131206D01*
X129111682Y-61133891D01*
X129111681Y-61133891D01*
X128949278Y-61206197D01*
X128949276Y-61206198D01*
X128943248Y-61208882D01*
X128788747Y-61321134D01*
X128660960Y-61463056D01*
X128565473Y-61628444D01*
X128506458Y-61810072D01*
X128505769Y-61816631D01*
X128505768Y-61816634D01*
X128486794Y-61997164D01*
X128461046Y-62061216D01*
X128450386Y-62074959D01*
X128447241Y-62082228D01*
X128447238Y-62082232D01*
X128432826Y-62115537D01*
X128427609Y-62126187D01*
X128406305Y-62164940D01*
X128404334Y-62172616D01*
X128401416Y-62179987D01*
X128400061Y-62179450D01*
X128368173Y-62233017D01*
X128335900Y-62254774D01*
X128332999Y-62256133D01*
X128326054Y-62258450D01*
X128319826Y-62262304D01*
X128302955Y-62272744D01*
X128175652Y-62351522D01*
X128170479Y-62356704D01*
X128088862Y-62438463D01*
X128026579Y-62472542D01*
X127955759Y-62467539D01*
X127910671Y-62438618D01*
X127828171Y-62356261D01*
X127816760Y-62347249D01*
X127678757Y-62262184D01*
X127665576Y-62256037D01*
X127511290Y-62204862D01*
X127497914Y-62201995D01*
X127403562Y-62192328D01*
X127397145Y-62192000D01*
X127272115Y-62192000D01*
X127256876Y-62196475D01*
X127255671Y-62197865D01*
X127254000Y-62205548D01*
X127254000Y-64589884D01*
X126746000Y-64589884D01*
X126746000Y-63672115D01*
X126741525Y-63656876D01*
X126740135Y-63655671D01*
X126732452Y-63654000D01*
X125910116Y-63654000D01*
X125894877Y-63658475D01*
X125893672Y-63659865D01*
X125892001Y-63667548D01*
X125892001Y-63897095D01*
X117739148Y-63897095D01*
X117798372Y-63878365D01*
X117798374Y-63878364D01*
X117802618Y-63877022D01*
X117806629Y-63875096D01*
X117806634Y-63875094D01*
X118033748Y-63766035D01*
X118033749Y-63766034D01*
X118037767Y-63764105D01*
X118041473Y-63761629D01*
X118250952Y-63621660D01*
X118250956Y-63621657D01*
X118254660Y-63619182D01*
X118448968Y-63445145D01*
X118616817Y-63245465D01*
X118690146Y-63127885D01*
X125892000Y-63127885D01*
X125896475Y-63143124D01*
X125897865Y-63144329D01*
X125905548Y-63146000D01*
X126727885Y-63146000D01*
X126743124Y-63141525D01*
X126744329Y-63140135D01*
X126746000Y-63132452D01*
X126746000Y-62210116D01*
X126741525Y-62194877D01*
X126740135Y-62193672D01*
X126732452Y-62192001D01*
X126602905Y-62192001D01*
X126596386Y-62192338D01*
X126500794Y-62202257D01*
X126487400Y-62205149D01*
X126333216Y-62256588D01*
X126320038Y-62262761D01*
X126182193Y-62348063D01*
X126170792Y-62357099D01*
X126056261Y-62471829D01*
X126047249Y-62483240D01*
X125962184Y-62621243D01*
X125956037Y-62634424D01*
X125904862Y-62788710D01*
X125901995Y-62802086D01*
X125892328Y-62896438D01*
X125892000Y-62902855D01*
X125892000Y-63127885D01*
X118690146Y-63127885D01*
X118754855Y-63024127D01*
X118860330Y-62785548D01*
X118866674Y-62763056D01*
X118883855Y-62702136D01*
X118931137Y-62534487D01*
X118938899Y-62476697D01*
X118965435Y-62279137D01*
X118965436Y-62279129D01*
X118965862Y-62275955D01*
X118967184Y-62233891D01*
X118969405Y-62163221D01*
X118969405Y-62163216D01*
X118969506Y-62159999D01*
X118951083Y-61899796D01*
X118896180Y-61644785D01*
X118892471Y-61634729D01*
X118807435Y-61404230D01*
X118805894Y-61400053D01*
X118682026Y-61170485D01*
X118623687Y-61091500D01*
X118529688Y-60964237D01*
X118527046Y-60960660D01*
X118344049Y-60774765D01*
X118294681Y-60737088D01*
X118140224Y-60619211D01*
X118136684Y-60616509D01*
X118007985Y-60544434D01*
X117958323Y-60493697D01*
X117943976Y-60424166D01*
X117969497Y-60357915D01*
X118026785Y-60315980D01*
X118069551Y-60308500D01*
X158465500Y-60308500D01*
X158533621Y-60328502D01*
X158580114Y-60382158D01*
X158591500Y-60434500D01*
X158591499Y-75365500D01*
X158571497Y-75433621D01*
X158517841Y-75480114D01*
X158465499Y-75491500D01*
X118391803Y-75491500D01*
X118323682Y-75471498D01*
X118277189Y-75417842D01*
X118267085Y-75347568D01*
X118296579Y-75282988D01*
X118307738Y-75271643D01*
X118384464Y-75202922D01*
X118448968Y-75145147D01*
X118616817Y-74945467D01*
X118754855Y-74724129D01*
X118860330Y-74485550D01*
X118931137Y-74234489D01*
X118954218Y-74062648D01*
X118965435Y-73979139D01*
X118965436Y-73979131D01*
X118965862Y-73975957D01*
X118966087Y-73968794D01*
X118969405Y-73863223D01*
X118969405Y-73863218D01*
X118969506Y-73860001D01*
X118951083Y-73599798D01*
X118896180Y-73344787D01*
X118877320Y-73293663D01*
X118807435Y-73104232D01*
X118805894Y-73100055D01*
X118682026Y-72870487D01*
X118659402Y-72839856D01*
X118529688Y-72664239D01*
X118527046Y-72660662D01*
X118344049Y-72474767D01*
X118318319Y-72455130D01*
X118200226Y-72365005D01*
X118136684Y-72316511D01*
X118039153Y-72261891D01*
X117912976Y-72191228D01*
X117912973Y-72191227D01*
X117909090Y-72189052D01*
X117904945Y-72187448D01*
X117904942Y-72187447D01*
X117770576Y-72135465D01*
X117665807Y-72094933D01*
X117661486Y-72093931D01*
X117661478Y-72093929D01*
X117494362Y-72055195D01*
X117411689Y-72036032D01*
X117352307Y-72030889D01*
X117336652Y-72029533D01*
X117270511Y-72003728D01*
X117228821Y-71946260D01*
X117224819Y-71875377D01*
X117244311Y-71831733D01*
X117356820Y-71671052D01*
X117362298Y-71661566D01*
X117454385Y-71464087D01*
X117458131Y-71453795D01*
X117514524Y-71243331D01*
X117516427Y-71232536D01*
X117535418Y-71015474D01*
X117535418Y-71004524D01*
X117517524Y-70800000D01*
X151986496Y-70800000D01*
X152006458Y-70989928D01*
X152065473Y-71171556D01*
X152160960Y-71336944D01*
X152288747Y-71478866D01*
X152443248Y-71591118D01*
X152449276Y-71593802D01*
X152449278Y-71593803D01*
X152611681Y-71666109D01*
X152617712Y-71668794D01*
X152711113Y-71688647D01*
X152798056Y-71707128D01*
X152798061Y-71707128D01*
X152804513Y-71708500D01*
X152859691Y-71708500D01*
X152927812Y-71728502D01*
X152945942Y-71742648D01*
X152957651Y-71753643D01*
X152960495Y-71756400D01*
X152980230Y-71776135D01*
X152983427Y-71778615D01*
X152992447Y-71786318D01*
X153024679Y-71816586D01*
X153031625Y-71820405D01*
X153031628Y-71820407D01*
X153042434Y-71826348D01*
X153058953Y-71837199D01*
X153074959Y-71849614D01*
X153082228Y-71852759D01*
X153082232Y-71852762D01*
X153115537Y-71867174D01*
X153126187Y-71872391D01*
X153164940Y-71893695D01*
X153181793Y-71898022D01*
X153184562Y-71898733D01*
X153203267Y-71905137D01*
X153221855Y-71913181D01*
X153229678Y-71914420D01*
X153229688Y-71914423D01*
X153265524Y-71920099D01*
X153277144Y-71922505D01*
X153312289Y-71931528D01*
X153319970Y-71933500D01*
X153340224Y-71933500D01*
X153359934Y-71935051D01*
X153379943Y-71938220D01*
X153387835Y-71937474D01*
X153423961Y-71934059D01*
X153435819Y-71933500D01*
X153920803Y-71933500D01*
X153988924Y-71953502D01*
X154035417Y-72007158D01*
X154040326Y-72019623D01*
X154045673Y-72035648D01*
X154058450Y-72073946D01*
X154151522Y-72224348D01*
X154276697Y-72349305D01*
X154282927Y-72353145D01*
X154282928Y-72353146D01*
X154420090Y-72437694D01*
X154427262Y-72442115D01*
X154507005Y-72468564D01*
X154588611Y-72495632D01*
X154588613Y-72495632D01*
X154595139Y-72497797D01*
X154601975Y-72498497D01*
X154601978Y-72498498D01*
X154645031Y-72502909D01*
X154699600Y-72508500D01*
X155500400Y-72508500D01*
X155503646Y-72508163D01*
X155503650Y-72508163D01*
X155599308Y-72498238D01*
X155599312Y-72498237D01*
X155606166Y-72497526D01*
X155612702Y-72495345D01*
X155612704Y-72495345D01*
X155744806Y-72451272D01*
X155773946Y-72441550D01*
X155924348Y-72348478D01*
X156010784Y-72261891D01*
X156073066Y-72227812D01*
X156143886Y-72232815D01*
X156188975Y-72261736D01*
X156264431Y-72337060D01*
X156276697Y-72349305D01*
X156282927Y-72353145D01*
X156282928Y-72353146D01*
X156406616Y-72429389D01*
X156454110Y-72482162D01*
X156466500Y-72536649D01*
X156466500Y-72721233D01*
X156465973Y-72732416D01*
X156464298Y-72739909D01*
X156464547Y-72747835D01*
X156464547Y-72747836D01*
X156466438Y-72807986D01*
X156466500Y-72811945D01*
X156466500Y-72839856D01*
X156466997Y-72843790D01*
X156466997Y-72843791D01*
X156467005Y-72843856D01*
X156467938Y-72855693D01*
X156469327Y-72899889D01*
X156474978Y-72919339D01*
X156478987Y-72938700D01*
X156481526Y-72958797D01*
X156484445Y-72966170D01*
X156484446Y-72966173D01*
X156485788Y-72969564D01*
X156486328Y-72973504D01*
X156486416Y-72973848D01*
X156486376Y-72973858D01*
X156493946Y-73029116D01*
X156486496Y-73100000D01*
X156506458Y-73289928D01*
X156565473Y-73471556D01*
X156660960Y-73636944D01*
X156788747Y-73778866D01*
X156943248Y-73891118D01*
X156949276Y-73893802D01*
X156949278Y-73893803D01*
X157111681Y-73966109D01*
X157117712Y-73968794D01*
X157211112Y-73988647D01*
X157298056Y-74007128D01*
X157298061Y-74007128D01*
X157304513Y-74008500D01*
X157495487Y-74008500D01*
X157501939Y-74007128D01*
X157501944Y-74007128D01*
X157588888Y-73988647D01*
X157682288Y-73968794D01*
X157688319Y-73966109D01*
X157850722Y-73893803D01*
X157850724Y-73893802D01*
X157856752Y-73891118D01*
X158011253Y-73778866D01*
X158139040Y-73636944D01*
X158234527Y-73471556D01*
X158293542Y-73289928D01*
X158313504Y-73100000D01*
X158299795Y-72969564D01*
X158294232Y-72916635D01*
X158294232Y-72916633D01*
X158293542Y-72910072D01*
X158234527Y-72728444D01*
X158139040Y-72563056D01*
X158015582Y-72425942D01*
X157984865Y-72361935D01*
X157993629Y-72291481D01*
X158020045Y-72252614D01*
X158044134Y-72228483D01*
X158049305Y-72223303D01*
X158053146Y-72217072D01*
X158138275Y-72078968D01*
X158138276Y-72078966D01*
X158142115Y-72072738D01*
X158184066Y-71946260D01*
X158195632Y-71911389D01*
X158195632Y-71911387D01*
X158197797Y-71904861D01*
X158208500Y-71800400D01*
X158208500Y-70799600D01*
X158208163Y-70796350D01*
X158198238Y-70700692D01*
X158198237Y-70700688D01*
X158197526Y-70693834D01*
X158141550Y-70526054D01*
X158048478Y-70375652D01*
X157961891Y-70289216D01*
X157927812Y-70226934D01*
X157932815Y-70156114D01*
X157961736Y-70111025D01*
X158044134Y-70028483D01*
X158049305Y-70023303D01*
X158080491Y-69972710D01*
X158138275Y-69878968D01*
X158138276Y-69878966D01*
X158142115Y-69872738D01*
X158197797Y-69704861D01*
X158208500Y-69600400D01*
X158208500Y-68599600D01*
X158208163Y-68596350D01*
X158198238Y-68500692D01*
X158198237Y-68500688D01*
X158197526Y-68493834D01*
X158141550Y-68326054D01*
X158048478Y-68175652D01*
X157923303Y-68050695D01*
X157904457Y-68039078D01*
X157783277Y-67964381D01*
X157735783Y-67911608D01*
X157728397Y-67892277D01*
X157725020Y-67880651D01*
X157721014Y-67861306D01*
X157719468Y-67849068D01*
X157719467Y-67849066D01*
X157718474Y-67841203D01*
X157702194Y-67800086D01*
X157698359Y-67788885D01*
X157686018Y-67746406D01*
X157681985Y-67739587D01*
X157681983Y-67739582D01*
X157675707Y-67728971D01*
X157667010Y-67711221D01*
X157659552Y-67692383D01*
X157636878Y-67661175D01*
X157614995Y-67599843D01*
X157613504Y-67600000D01*
X157594232Y-67416635D01*
X157594232Y-67416633D01*
X157593542Y-67410072D01*
X157534527Y-67228444D01*
X157516479Y-67197183D01*
X157497314Y-67163990D01*
X157439040Y-67063056D01*
X157428623Y-67051486D01*
X157315675Y-66926045D01*
X157315674Y-66926044D01*
X157311253Y-66921134D01*
X157156752Y-66808882D01*
X157150724Y-66806198D01*
X157150722Y-66806197D01*
X156988319Y-66733891D01*
X156988318Y-66733891D01*
X156982288Y-66731206D01*
X156881737Y-66709833D01*
X156801944Y-66692872D01*
X156801939Y-66692872D01*
X156795487Y-66691500D01*
X156604513Y-66691500D01*
X156598061Y-66692872D01*
X156598056Y-66692872D01*
X156518263Y-66709833D01*
X156417712Y-66731206D01*
X156411682Y-66733891D01*
X156411681Y-66733891D01*
X156249278Y-66806197D01*
X156249276Y-66806198D01*
X156243248Y-66808882D01*
X156088747Y-66921134D01*
X156084326Y-66926044D01*
X156084325Y-66926045D01*
X155971378Y-67051486D01*
X155960960Y-67063056D01*
X155902686Y-67163990D01*
X155883522Y-67197183D01*
X155865473Y-67228444D01*
X155806458Y-67410072D01*
X155805768Y-67416633D01*
X155805768Y-67416635D01*
X155796165Y-67508000D01*
X155786496Y-67600000D01*
X155805550Y-67781286D01*
X155792778Y-67851123D01*
X155744276Y-67902969D01*
X155675443Y-67920364D01*
X155640573Y-67914048D01*
X155611389Y-67904368D01*
X155611387Y-67904368D01*
X155604861Y-67902203D01*
X155598025Y-67901503D01*
X155598022Y-67901502D01*
X155554969Y-67897091D01*
X155500400Y-67891500D01*
X154699600Y-67891500D01*
X154696354Y-67891837D01*
X154696350Y-67891837D01*
X154600692Y-67901762D01*
X154600688Y-67901763D01*
X154593834Y-67902474D01*
X154587298Y-67904655D01*
X154587296Y-67904655D01*
X154468185Y-67944394D01*
X154426054Y-67958450D01*
X154275652Y-68051522D01*
X154150695Y-68176697D01*
X154057885Y-68327262D01*
X154002203Y-68495139D01*
X153991500Y-68599600D01*
X153991500Y-69023282D01*
X153971498Y-69091403D01*
X153917842Y-69137896D01*
X153865500Y-69149282D01*
X153805740Y-69149282D01*
X153737619Y-69129280D01*
X153718393Y-69112939D01*
X153718120Y-69113242D01*
X153713208Y-69108819D01*
X153708793Y-69103916D01*
X153554292Y-68991664D01*
X153548264Y-68988980D01*
X153548262Y-68988979D01*
X153385859Y-68916673D01*
X153385858Y-68916673D01*
X153379828Y-68913988D01*
X153286428Y-68894135D01*
X153199484Y-68875654D01*
X153199479Y-68875654D01*
X153193027Y-68874282D01*
X153002053Y-68874282D01*
X152995601Y-68875654D01*
X152995596Y-68875654D01*
X152908652Y-68894135D01*
X152815252Y-68913988D01*
X152809222Y-68916673D01*
X152809221Y-68916673D01*
X152646818Y-68988979D01*
X152646816Y-68988980D01*
X152640788Y-68991664D01*
X152486287Y-69103916D01*
X152481866Y-69108826D01*
X152481865Y-69108827D01*
X152368503Y-69234729D01*
X152358500Y-69245838D01*
X152263013Y-69411226D01*
X152203998Y-69592854D01*
X152203308Y-69599415D01*
X152203308Y-69599417D01*
X152187278Y-69751937D01*
X152184036Y-69782782D01*
X152203998Y-69972710D01*
X152206038Y-69978988D01*
X152239429Y-70081755D01*
X152241457Y-70152722D01*
X152213232Y-70205001D01*
X152165383Y-70258143D01*
X152165380Y-70258147D01*
X152160960Y-70263056D01*
X152157657Y-70268777D01*
X152095953Y-70375652D01*
X152065473Y-70428444D01*
X152006458Y-70610072D01*
X152005768Y-70616633D01*
X152005768Y-70616635D01*
X151988948Y-70776667D01*
X151986496Y-70800000D01*
X117517524Y-70800000D01*
X117516427Y-70787462D01*
X117514524Y-70776667D01*
X117458131Y-70566203D01*
X117454385Y-70555911D01*
X117362301Y-70358439D01*
X117356818Y-70348942D01*
X117320362Y-70296878D01*
X117309885Y-70288503D01*
X117296437Y-70295572D01*
X115507651Y-72084358D01*
X115501221Y-72096133D01*
X115510517Y-72108148D01*
X115561743Y-72144017D01*
X115571238Y-72149500D01*
X115768712Y-72241584D01*
X115779004Y-72245330D01*
X115849398Y-72264192D01*
X115910021Y-72301144D01*
X115941042Y-72365005D01*
X115932614Y-72435499D01*
X115903758Y-72477069D01*
X115760148Y-72614066D01*
X115760144Y-72614070D01*
X115756921Y-72617145D01*
X115754165Y-72620640D01*
X115754164Y-72620642D01*
X115653892Y-72747836D01*
X115595427Y-72821999D01*
X115569347Y-72866899D01*
X115466643Y-73043716D01*
X115466640Y-73043722D01*
X115464409Y-73047563D01*
X115462739Y-73051686D01*
X115368153Y-73285206D01*
X115368150Y-73285214D01*
X115366480Y-73289338D01*
X115303595Y-73542499D01*
X115277007Y-73801995D01*
X115279286Y-73860001D01*
X115285121Y-74008500D01*
X115287248Y-74062648D01*
X115334114Y-74319258D01*
X115416668Y-74566704D01*
X115418660Y-74570691D01*
X115418661Y-74570693D01*
X115495329Y-74724129D01*
X115533264Y-74800050D01*
X115681576Y-75014640D01*
X115858644Y-75206191D01*
X115862098Y-75209003D01*
X115934303Y-75267787D01*
X115974502Y-75326307D01*
X115976682Y-75397270D01*
X115940150Y-75458147D01*
X115876505Y-75489608D01*
X115854753Y-75491500D01*
X100634500Y-75491500D01*
X100566379Y-75471498D01*
X100519886Y-75417842D01*
X100508500Y-75365500D01*
X100508500Y-71015474D01*
X114910182Y-71015474D01*
X114929173Y-71232536D01*
X114931076Y-71243331D01*
X114987469Y-71453795D01*
X114991215Y-71464087D01*
X115083299Y-71661559D01*
X115088782Y-71671056D01*
X115125238Y-71723120D01*
X115135715Y-71731495D01*
X115149163Y-71724426D01*
X115850778Y-71022811D01*
X115858392Y-71008867D01*
X115858261Y-71007034D01*
X115854010Y-71000419D01*
X115148441Y-70294850D01*
X115136666Y-70288420D01*
X115124651Y-70297716D01*
X115088782Y-70348942D01*
X115083299Y-70358439D01*
X114991215Y-70555911D01*
X114987469Y-70566203D01*
X114931076Y-70776667D01*
X114929173Y-70787462D01*
X114910182Y-71004524D01*
X114910182Y-71015474D01*
X100508500Y-71015474D01*
X100508500Y-60434500D01*
X100528502Y-60366379D01*
X100582158Y-60319886D01*
X100634500Y-60308500D01*
X116175107Y-60308500D01*
X116243228Y-60328502D01*
G37*
%TD.AperFunction*%
%TD*%
M02*
