%TF.GenerationSoftware,KiCad,Pcbnew,6.0.11-2627ca5db0~126~ubuntu22.04.1*%
%TF.CreationDate,2023-02-28T18:25:52-05:00*%
%TF.ProjectId,canbus-thermocouple,63616e62-7573-42d7-9468-65726d6f636f,1.0*%
%TF.SameCoordinates,Original*%
%TF.FileFunction,Legend,Top*%
%TF.FilePolarity,Positive*%
%FSLAX46Y46*%
G04 Gerber Fmt 4.6, Leading zero omitted, Abs format (unit mm)*
G04 Created by KiCad (PCBNEW 6.0.11-2627ca5db0~126~ubuntu22.04.1) date 2023-02-28 18:25:52*
%MOMM*%
%LPD*%
G01*
G04 APERTURE LIST*
%ADD10C,0.150000*%
%ADD11C,0.127000*%
%ADD12C,0.101600*%
%ADD13C,0.120000*%
%ADD14C,0.100000*%
%ADD15C,0.203200*%
%ADD16C,0.066040*%
G04 APERTURE END LIST*
D10*
X77052380Y-102757142D02*
X77004761Y-102804761D01*
X76861904Y-102852380D01*
X76766666Y-102852380D01*
X76623809Y-102804761D01*
X76528571Y-102709523D01*
X76480952Y-102614285D01*
X76433333Y-102423809D01*
X76433333Y-102280952D01*
X76480952Y-102090476D01*
X76528571Y-101995238D01*
X76623809Y-101900000D01*
X76766666Y-101852380D01*
X76861904Y-101852380D01*
X77004761Y-101900000D01*
X77052380Y-101947619D01*
X77433333Y-102566666D02*
X77909523Y-102566666D01*
X77338095Y-102852380D02*
X77671428Y-101852380D01*
X78004761Y-102852380D01*
X78338095Y-102852380D02*
X78338095Y-101852380D01*
X78909523Y-102852380D01*
X78909523Y-101852380D01*
X79719047Y-102328571D02*
X79861904Y-102376190D01*
X79909523Y-102423809D01*
X79957142Y-102519047D01*
X79957142Y-102661904D01*
X79909523Y-102757142D01*
X79861904Y-102804761D01*
X79766666Y-102852380D01*
X79385714Y-102852380D01*
X79385714Y-101852380D01*
X79719047Y-101852380D01*
X79814285Y-101900000D01*
X79861904Y-101947619D01*
X79909523Y-102042857D01*
X79909523Y-102138095D01*
X79861904Y-102233333D01*
X79814285Y-102280952D01*
X79719047Y-102328571D01*
X79385714Y-102328571D01*
X80814285Y-102185714D02*
X80814285Y-102852380D01*
X80385714Y-102185714D02*
X80385714Y-102709523D01*
X80433333Y-102804761D01*
X80528571Y-102852380D01*
X80671428Y-102852380D01*
X80766666Y-102804761D01*
X80814285Y-102757142D01*
X81242857Y-102804761D02*
X81338095Y-102852380D01*
X81528571Y-102852380D01*
X81623809Y-102804761D01*
X81671428Y-102709523D01*
X81671428Y-102661904D01*
X81623809Y-102566666D01*
X81528571Y-102519047D01*
X81385714Y-102519047D01*
X81290476Y-102471428D01*
X81242857Y-102376190D01*
X81242857Y-102328571D01*
X81290476Y-102233333D01*
X81385714Y-102185714D01*
X81528571Y-102185714D01*
X81623809Y-102233333D01*
X82719047Y-101852380D02*
X83290476Y-101852380D01*
X83004761Y-102852380D02*
X83004761Y-101852380D01*
X83623809Y-102852380D02*
X83623809Y-101852380D01*
X84052380Y-102852380D02*
X84052380Y-102328571D01*
X84004761Y-102233333D01*
X83909523Y-102185714D01*
X83766666Y-102185714D01*
X83671428Y-102233333D01*
X83623809Y-102280952D01*
X84909523Y-102804761D02*
X84814285Y-102852380D01*
X84623809Y-102852380D01*
X84528571Y-102804761D01*
X84480952Y-102709523D01*
X84480952Y-102328571D01*
X84528571Y-102233333D01*
X84623809Y-102185714D01*
X84814285Y-102185714D01*
X84909523Y-102233333D01*
X84957142Y-102328571D01*
X84957142Y-102423809D01*
X84480952Y-102519047D01*
X85385714Y-102852380D02*
X85385714Y-102185714D01*
X85385714Y-102376190D02*
X85433333Y-102280952D01*
X85480952Y-102233333D01*
X85576190Y-102185714D01*
X85671428Y-102185714D01*
X86004761Y-102852380D02*
X86004761Y-102185714D01*
X86004761Y-102280952D02*
X86052380Y-102233333D01*
X86147619Y-102185714D01*
X86290476Y-102185714D01*
X86385714Y-102233333D01*
X86433333Y-102328571D01*
X86433333Y-102852380D01*
X86433333Y-102328571D02*
X86480952Y-102233333D01*
X86576190Y-102185714D01*
X86719047Y-102185714D01*
X86814285Y-102233333D01*
X86861904Y-102328571D01*
X86861904Y-102852380D01*
X87480952Y-102852380D02*
X87385714Y-102804761D01*
X87338095Y-102757142D01*
X87290476Y-102661904D01*
X87290476Y-102376190D01*
X87338095Y-102280952D01*
X87385714Y-102233333D01*
X87480952Y-102185714D01*
X87623809Y-102185714D01*
X87719047Y-102233333D01*
X87766666Y-102280952D01*
X87814285Y-102376190D01*
X87814285Y-102661904D01*
X87766666Y-102757142D01*
X87719047Y-102804761D01*
X87623809Y-102852380D01*
X87480952Y-102852380D01*
X88671428Y-102804761D02*
X88576190Y-102852380D01*
X88385714Y-102852380D01*
X88290476Y-102804761D01*
X88242857Y-102757142D01*
X88195238Y-102661904D01*
X88195238Y-102376190D01*
X88242857Y-102280952D01*
X88290476Y-102233333D01*
X88385714Y-102185714D01*
X88576190Y-102185714D01*
X88671428Y-102233333D01*
X89242857Y-102852380D02*
X89147619Y-102804761D01*
X89100000Y-102757142D01*
X89052380Y-102661904D01*
X89052380Y-102376190D01*
X89100000Y-102280952D01*
X89147619Y-102233333D01*
X89242857Y-102185714D01*
X89385714Y-102185714D01*
X89480952Y-102233333D01*
X89528571Y-102280952D01*
X89576190Y-102376190D01*
X89576190Y-102661904D01*
X89528571Y-102757142D01*
X89480952Y-102804761D01*
X89385714Y-102852380D01*
X89242857Y-102852380D01*
X90433333Y-102185714D02*
X90433333Y-102852380D01*
X90004761Y-102185714D02*
X90004761Y-102709523D01*
X90052380Y-102804761D01*
X90147619Y-102852380D01*
X90290476Y-102852380D01*
X90385714Y-102804761D01*
X90433333Y-102757142D01*
X90909523Y-102185714D02*
X90909523Y-103185714D01*
X90909523Y-102233333D02*
X91004761Y-102185714D01*
X91195238Y-102185714D01*
X91290476Y-102233333D01*
X91338095Y-102280952D01*
X91385714Y-102376190D01*
X91385714Y-102661904D01*
X91338095Y-102757142D01*
X91290476Y-102804761D01*
X91195238Y-102852380D01*
X91004761Y-102852380D01*
X90909523Y-102804761D01*
X91957142Y-102852380D02*
X91861904Y-102804761D01*
X91814285Y-102709523D01*
X91814285Y-101852380D01*
X92719047Y-102804761D02*
X92623809Y-102852380D01*
X92433333Y-102852380D01*
X92338095Y-102804761D01*
X92290476Y-102709523D01*
X92290476Y-102328571D01*
X92338095Y-102233333D01*
X92433333Y-102185714D01*
X92623809Y-102185714D01*
X92719047Y-102233333D01*
X92766666Y-102328571D01*
X92766666Y-102423809D01*
X92290476Y-102519047D01*
X84071428Y-100835714D02*
X84309523Y-101502380D01*
X84547619Y-100835714D01*
X85452380Y-101502380D02*
X84880952Y-101502380D01*
X85166666Y-101502380D02*
X85166666Y-100502380D01*
X85071428Y-100645238D01*
X84976190Y-100740476D01*
X84880952Y-100788095D01*
X85880952Y-101407142D02*
X85928571Y-101454761D01*
X85880952Y-101502380D01*
X85833333Y-101454761D01*
X85880952Y-101407142D01*
X85880952Y-101502380D01*
X86547619Y-100502380D02*
X86642857Y-100502380D01*
X86738095Y-100550000D01*
X86785714Y-100597619D01*
X86833333Y-100692857D01*
X86880952Y-100883333D01*
X86880952Y-101121428D01*
X86833333Y-101311904D01*
X86785714Y-101407142D01*
X86738095Y-101454761D01*
X86642857Y-101502380D01*
X86547619Y-101502380D01*
X86452380Y-101454761D01*
X86404761Y-101407142D01*
X86357142Y-101311904D01*
X86309523Y-101121428D01*
X86309523Y-100883333D01*
X86357142Y-100692857D01*
X86404761Y-100597619D01*
X86452380Y-100550000D01*
X86547619Y-100502380D01*
X109908333Y-94380952D02*
X109860714Y-94428571D01*
X109717857Y-94523809D01*
X109622619Y-94571428D01*
X109479761Y-94619047D01*
X109241666Y-94666666D01*
X109051190Y-94666666D01*
X108813095Y-94619047D01*
X108670238Y-94571428D01*
X108575000Y-94523809D01*
X108432142Y-94428571D01*
X108384523Y-94380952D01*
X109479761Y-93571428D02*
X109527380Y-93666666D01*
X109527380Y-93857142D01*
X109479761Y-93952380D01*
X109432142Y-94000000D01*
X109336904Y-94047619D01*
X109051190Y-94047619D01*
X108955952Y-94000000D01*
X108908333Y-93952380D01*
X108860714Y-93857142D01*
X108860714Y-93666666D01*
X108908333Y-93571428D01*
X109908333Y-93238095D02*
X109860714Y-93190476D01*
X109717857Y-93095238D01*
X109622619Y-93047619D01*
X109479761Y-93000000D01*
X109241666Y-92952380D01*
X109051190Y-92952380D01*
X108813095Y-93000000D01*
X108670238Y-93047619D01*
X108575000Y-93095238D01*
X108432142Y-93190476D01*
X108384523Y-93238095D01*
X108622619Y-91761904D02*
X108575000Y-91714285D01*
X108527380Y-91619047D01*
X108527380Y-91380952D01*
X108575000Y-91285714D01*
X108622619Y-91238095D01*
X108717857Y-91190476D01*
X108813095Y-91190476D01*
X108955952Y-91238095D01*
X109527380Y-91809523D01*
X109527380Y-91190476D01*
X108527380Y-90571428D02*
X108527380Y-90476190D01*
X108575000Y-90380952D01*
X108622619Y-90333333D01*
X108717857Y-90285714D01*
X108908333Y-90238095D01*
X109146428Y-90238095D01*
X109336904Y-90285714D01*
X109432142Y-90333333D01*
X109479761Y-90380952D01*
X109527380Y-90476190D01*
X109527380Y-90571428D01*
X109479761Y-90666666D01*
X109432142Y-90714285D01*
X109336904Y-90761904D01*
X109146428Y-90809523D01*
X108908333Y-90809523D01*
X108717857Y-90761904D01*
X108622619Y-90714285D01*
X108575000Y-90666666D01*
X108527380Y-90571428D01*
X108622619Y-89857142D02*
X108575000Y-89809523D01*
X108527380Y-89714285D01*
X108527380Y-89476190D01*
X108575000Y-89380952D01*
X108622619Y-89333333D01*
X108717857Y-89285714D01*
X108813095Y-89285714D01*
X108955952Y-89333333D01*
X109527380Y-89904761D01*
X109527380Y-89285714D01*
X108527380Y-88952380D02*
X108527380Y-88333333D01*
X108908333Y-88666666D01*
X108908333Y-88523809D01*
X108955952Y-88428571D01*
X109003571Y-88380952D01*
X109098809Y-88333333D01*
X109336904Y-88333333D01*
X109432142Y-88380952D01*
X109479761Y-88428571D01*
X109527380Y-88523809D01*
X109527380Y-88809523D01*
X109479761Y-88904761D01*
X109432142Y-88952380D01*
X108575000Y-86619047D02*
X108527380Y-86714285D01*
X108527380Y-86857142D01*
X108575000Y-87000000D01*
X108670238Y-87095238D01*
X108765476Y-87142857D01*
X108955952Y-87190476D01*
X109098809Y-87190476D01*
X109289285Y-87142857D01*
X109384523Y-87095238D01*
X109479761Y-87000000D01*
X109527380Y-86857142D01*
X109527380Y-86761904D01*
X109479761Y-86619047D01*
X109432142Y-86571428D01*
X109098809Y-86571428D01*
X109098809Y-86761904D01*
X109527380Y-85714285D02*
X109003571Y-85714285D01*
X108908333Y-85761904D01*
X108860714Y-85857142D01*
X108860714Y-86047619D01*
X108908333Y-86142857D01*
X109479761Y-85714285D02*
X109527380Y-85809523D01*
X109527380Y-86047619D01*
X109479761Y-86142857D01*
X109384523Y-86190476D01*
X109289285Y-86190476D01*
X109194047Y-86142857D01*
X109146428Y-86047619D01*
X109146428Y-85809523D01*
X109098809Y-85714285D01*
X108860714Y-85333333D02*
X109527380Y-85095238D01*
X108860714Y-84857142D01*
X109527380Y-84476190D02*
X108860714Y-84476190D01*
X108527380Y-84476190D02*
X108575000Y-84523809D01*
X108622619Y-84476190D01*
X108575000Y-84428571D01*
X108527380Y-84476190D01*
X108622619Y-84476190D01*
X108860714Y-84000000D02*
X109527380Y-84000000D01*
X108955952Y-84000000D02*
X108908333Y-83952380D01*
X108860714Y-83857142D01*
X108860714Y-83714285D01*
X108908333Y-83619047D01*
X109003571Y-83571428D01*
X109527380Y-83571428D01*
X109527380Y-82333333D02*
X108527380Y-82333333D01*
X109003571Y-82333333D02*
X109003571Y-81761904D01*
X109527380Y-81761904D02*
X108527380Y-81761904D01*
X108860714Y-80857142D02*
X109527380Y-80857142D01*
X108860714Y-81285714D02*
X109384523Y-81285714D01*
X109479761Y-81238095D01*
X109527380Y-81142857D01*
X109527380Y-81000000D01*
X109479761Y-80904761D01*
X109432142Y-80857142D01*
X109527380Y-80380952D02*
X108860714Y-80380952D01*
X109051190Y-80380952D02*
X108955952Y-80333333D01*
X108908333Y-80285714D01*
X108860714Y-80190476D01*
X108860714Y-80095238D01*
X109527380Y-79619047D02*
X109479761Y-79714285D01*
X109384523Y-79761904D01*
X108527380Y-79761904D01*
X109527380Y-79238095D02*
X108527380Y-79238095D01*
X108908333Y-79238095D02*
X108860714Y-79142857D01*
X108860714Y-78952380D01*
X108908333Y-78857142D01*
X108955952Y-78809523D01*
X109051190Y-78761904D01*
X109336904Y-78761904D01*
X109432142Y-78809523D01*
X109479761Y-78857142D01*
X109527380Y-78952380D01*
X109527380Y-79142857D01*
X109479761Y-79238095D01*
X108860714Y-77904761D02*
X109527380Y-77904761D01*
X108860714Y-78333333D02*
X109384523Y-78333333D01*
X109479761Y-78285714D01*
X109527380Y-78190476D01*
X109527380Y-78047619D01*
X109479761Y-77952380D01*
X109432142Y-77904761D01*
X108860714Y-77571428D02*
X108860714Y-77190476D01*
X108527380Y-77428571D02*
X109384523Y-77428571D01*
X109479761Y-77380952D01*
X109527380Y-77285714D01*
X109527380Y-77190476D01*
%TO.C,U3*%
X74338095Y-69977380D02*
X74338095Y-70786904D01*
X74385714Y-70882142D01*
X74433333Y-70929761D01*
X74528571Y-70977380D01*
X74719047Y-70977380D01*
X74814285Y-70929761D01*
X74861904Y-70882142D01*
X74909523Y-70786904D01*
X74909523Y-69977380D01*
X75290476Y-69977380D02*
X75909523Y-69977380D01*
X75576190Y-70358333D01*
X75719047Y-70358333D01*
X75814285Y-70405952D01*
X75861904Y-70453571D01*
X75909523Y-70548809D01*
X75909523Y-70786904D01*
X75861904Y-70882142D01*
X75814285Y-70929761D01*
X75719047Y-70977380D01*
X75433333Y-70977380D01*
X75338095Y-70929761D01*
X75290476Y-70882142D01*
X77141942Y-69884780D02*
X77475276Y-70884780D01*
X77808609Y-69884780D01*
X78284800Y-70884780D02*
X78189561Y-70837161D01*
X78141942Y-70789542D01*
X78094323Y-70694304D01*
X78094323Y-70408590D01*
X78141942Y-70313352D01*
X78189561Y-70265733D01*
X78284800Y-70218114D01*
X78427657Y-70218114D01*
X78522895Y-70265733D01*
X78570514Y-70313352D01*
X78618133Y-70408590D01*
X78618133Y-70694304D01*
X78570514Y-70789542D01*
X78522895Y-70837161D01*
X78427657Y-70884780D01*
X78284800Y-70884780D01*
X79189561Y-70884780D02*
X79094323Y-70837161D01*
X79046704Y-70741923D01*
X79046704Y-69884780D01*
X79427657Y-70218114D02*
X79808609Y-70218114D01*
X79570514Y-69884780D02*
X79570514Y-70741923D01*
X79618133Y-70837161D01*
X79713371Y-70884780D01*
X79808609Y-70884780D01*
X80570514Y-70884780D02*
X80570514Y-70360971D01*
X80522895Y-70265733D01*
X80427657Y-70218114D01*
X80237180Y-70218114D01*
X80141942Y-70265733D01*
X80570514Y-70837161D02*
X80475276Y-70884780D01*
X80237180Y-70884780D01*
X80141942Y-70837161D01*
X80094323Y-70741923D01*
X80094323Y-70646685D01*
X80141942Y-70551447D01*
X80237180Y-70503828D01*
X80475276Y-70503828D01*
X80570514Y-70456209D01*
X81475276Y-70218114D02*
X81475276Y-71027638D01*
X81427657Y-71122876D01*
X81380038Y-71170495D01*
X81284800Y-71218114D01*
X81141942Y-71218114D01*
X81046704Y-71170495D01*
X81475276Y-70837161D02*
X81380038Y-70884780D01*
X81189561Y-70884780D01*
X81094323Y-70837161D01*
X81046704Y-70789542D01*
X80999085Y-70694304D01*
X80999085Y-70408590D01*
X81046704Y-70313352D01*
X81094323Y-70265733D01*
X81189561Y-70218114D01*
X81380038Y-70218114D01*
X81475276Y-70265733D01*
X82332419Y-70837161D02*
X82237180Y-70884780D01*
X82046704Y-70884780D01*
X81951466Y-70837161D01*
X81903847Y-70741923D01*
X81903847Y-70360971D01*
X81951466Y-70265733D01*
X82046704Y-70218114D01*
X82237180Y-70218114D01*
X82332419Y-70265733D01*
X82380038Y-70360971D01*
X82380038Y-70456209D01*
X81903847Y-70551447D01*
X84141942Y-70884780D02*
X83808609Y-70408590D01*
X83570514Y-70884780D02*
X83570514Y-69884780D01*
X83951466Y-69884780D01*
X84046704Y-69932400D01*
X84094323Y-69980019D01*
X84141942Y-70075257D01*
X84141942Y-70218114D01*
X84094323Y-70313352D01*
X84046704Y-70360971D01*
X83951466Y-70408590D01*
X83570514Y-70408590D01*
X84951466Y-70837161D02*
X84856228Y-70884780D01*
X84665752Y-70884780D01*
X84570514Y-70837161D01*
X84522895Y-70741923D01*
X84522895Y-70360971D01*
X84570514Y-70265733D01*
X84665752Y-70218114D01*
X84856228Y-70218114D01*
X84951466Y-70265733D01*
X84999085Y-70360971D01*
X84999085Y-70456209D01*
X84522895Y-70551447D01*
X85856228Y-70218114D02*
X85856228Y-71027638D01*
X85808609Y-71122876D01*
X85760990Y-71170495D01*
X85665752Y-71218114D01*
X85522895Y-71218114D01*
X85427657Y-71170495D01*
X85856228Y-70837161D02*
X85760990Y-70884780D01*
X85570514Y-70884780D01*
X85475276Y-70837161D01*
X85427657Y-70789542D01*
X85380038Y-70694304D01*
X85380038Y-70408590D01*
X85427657Y-70313352D01*
X85475276Y-70265733D01*
X85570514Y-70218114D01*
X85760990Y-70218114D01*
X85856228Y-70265733D01*
X86760990Y-70218114D02*
X86760990Y-70884780D01*
X86332419Y-70218114D02*
X86332419Y-70741923D01*
X86380038Y-70837161D01*
X86475276Y-70884780D01*
X86618133Y-70884780D01*
X86713371Y-70837161D01*
X86760990Y-70789542D01*
X87380038Y-70884780D02*
X87284800Y-70837161D01*
X87237180Y-70741923D01*
X87237180Y-69884780D01*
X88189561Y-70884780D02*
X88189561Y-70360971D01*
X88141942Y-70265733D01*
X88046704Y-70218114D01*
X87856228Y-70218114D01*
X87760990Y-70265733D01*
X88189561Y-70837161D02*
X88094323Y-70884780D01*
X87856228Y-70884780D01*
X87760990Y-70837161D01*
X87713371Y-70741923D01*
X87713371Y-70646685D01*
X87760990Y-70551447D01*
X87856228Y-70503828D01*
X88094323Y-70503828D01*
X88189561Y-70456209D01*
X88522895Y-70218114D02*
X88903847Y-70218114D01*
X88665752Y-69884780D02*
X88665752Y-70741923D01*
X88713371Y-70837161D01*
X88808609Y-70884780D01*
X88903847Y-70884780D01*
X89380038Y-70884780D02*
X89284800Y-70837161D01*
X89237180Y-70789542D01*
X89189561Y-70694304D01*
X89189561Y-70408590D01*
X89237180Y-70313352D01*
X89284800Y-70265733D01*
X89380038Y-70218114D01*
X89522895Y-70218114D01*
X89618133Y-70265733D01*
X89665752Y-70313352D01*
X89713371Y-70408590D01*
X89713371Y-70694304D01*
X89665752Y-70789542D01*
X89618133Y-70837161D01*
X89522895Y-70884780D01*
X89380038Y-70884780D01*
X90141942Y-70884780D02*
X90141942Y-70218114D01*
X90141942Y-70408590D02*
X90189561Y-70313352D01*
X90237180Y-70265733D01*
X90332419Y-70218114D01*
X90427657Y-70218114D01*
X72023104Y-73078771D02*
X72356438Y-73078771D01*
X72499295Y-73602580D02*
X72023104Y-73602580D01*
X72023104Y-72602580D01*
X72499295Y-72602580D01*
X72927866Y-73602580D02*
X72927866Y-72602580D01*
X73499295Y-73602580D01*
X73499295Y-72602580D01*
X71542095Y-77908000D02*
X71446857Y-77860380D01*
X71304000Y-77860380D01*
X71161142Y-77908000D01*
X71065904Y-78003238D01*
X71018285Y-78098476D01*
X70970666Y-78288952D01*
X70970666Y-78431809D01*
X71018285Y-78622285D01*
X71065904Y-78717523D01*
X71161142Y-78812761D01*
X71304000Y-78860380D01*
X71399238Y-78860380D01*
X71542095Y-78812761D01*
X71589714Y-78765142D01*
X71589714Y-78431809D01*
X71399238Y-78431809D01*
X72018285Y-78860380D02*
X72018285Y-77860380D01*
X72589714Y-78860380D01*
X72589714Y-77860380D01*
X73065904Y-78860380D02*
X73065904Y-77860380D01*
X73304000Y-77860380D01*
X73446857Y-77908000D01*
X73542095Y-78003238D01*
X73589714Y-78098476D01*
X73637333Y-78288952D01*
X73637333Y-78431809D01*
X73589714Y-78622285D01*
X73542095Y-78717523D01*
X73446857Y-78812761D01*
X73304000Y-78860380D01*
X73065904Y-78860380D01*
X70673490Y-80354980D02*
X71006823Y-81354980D01*
X71340157Y-80354980D01*
X71816347Y-81354980D02*
X71721109Y-81307361D01*
X71673490Y-81259742D01*
X71625871Y-81164504D01*
X71625871Y-80878790D01*
X71673490Y-80783552D01*
X71721109Y-80735933D01*
X71816347Y-80688314D01*
X71959204Y-80688314D01*
X72054442Y-80735933D01*
X72102061Y-80783552D01*
X72149680Y-80878790D01*
X72149680Y-81164504D01*
X72102061Y-81259742D01*
X72054442Y-81307361D01*
X71959204Y-81354980D01*
X71816347Y-81354980D01*
X73006823Y-80688314D02*
X73006823Y-81354980D01*
X72578252Y-80688314D02*
X72578252Y-81212123D01*
X72625871Y-81307361D01*
X72721109Y-81354980D01*
X72863966Y-81354980D01*
X72959204Y-81307361D01*
X73006823Y-81259742D01*
X73340157Y-80688314D02*
X73721109Y-80688314D01*
X73483014Y-80354980D02*
X73483014Y-81212123D01*
X73530633Y-81307361D01*
X73625871Y-81354980D01*
X73721109Y-81354980D01*
X71573490Y-75104980D02*
X71906823Y-76104980D01*
X72240157Y-75104980D01*
X72573490Y-76104980D02*
X72573490Y-75438314D01*
X72573490Y-75104980D02*
X72525871Y-75152600D01*
X72573490Y-75200219D01*
X72621109Y-75152600D01*
X72573490Y-75104980D01*
X72573490Y-75200219D01*
X73049680Y-75438314D02*
X73049680Y-76104980D01*
X73049680Y-75533552D02*
X73097300Y-75485933D01*
X73192538Y-75438314D01*
X73335395Y-75438314D01*
X73430633Y-75485933D01*
X73478252Y-75581171D01*
X73478252Y-76104980D01*
%TO.C,J4*%
X100216666Y-86702380D02*
X100216666Y-87416666D01*
X100169047Y-87559523D01*
X100073809Y-87654761D01*
X99930952Y-87702380D01*
X99835714Y-87702380D01*
X101121428Y-87035714D02*
X101121428Y-87702380D01*
X100883333Y-86654761D02*
X100645238Y-87369047D01*
X101264285Y-87369047D01*
%TO.C,U5*%
X100988095Y-78802380D02*
X100988095Y-79611904D01*
X101035714Y-79707142D01*
X101083333Y-79754761D01*
X101178571Y-79802380D01*
X101369047Y-79802380D01*
X101464285Y-79754761D01*
X101511904Y-79707142D01*
X101559523Y-79611904D01*
X101559523Y-78802380D01*
X102511904Y-78802380D02*
X102035714Y-78802380D01*
X101988095Y-79278571D01*
X102035714Y-79230952D01*
X102130952Y-79183333D01*
X102369047Y-79183333D01*
X102464285Y-79230952D01*
X102511904Y-79278571D01*
X102559523Y-79373809D01*
X102559523Y-79611904D01*
X102511904Y-79707142D01*
X102464285Y-79754761D01*
X102369047Y-79802380D01*
X102130952Y-79802380D01*
X102035714Y-79754761D01*
X101988095Y-79707142D01*
X100500000Y-74252380D02*
X100500000Y-74490476D01*
X100261904Y-74395238D02*
X100500000Y-74490476D01*
X100738095Y-74395238D01*
X100357142Y-74680952D02*
X100500000Y-74490476D01*
X100642857Y-74680952D01*
X100500000Y-74252380D02*
X100500000Y-74490476D01*
X100261904Y-74395238D02*
X100500000Y-74490476D01*
X100738095Y-74395238D01*
X100357142Y-74680952D02*
X100500000Y-74490476D01*
X100642857Y-74680952D01*
%TO.C,JP1*%
X72566666Y-98922380D02*
X72566666Y-99636666D01*
X72519047Y-99779523D01*
X72423809Y-99874761D01*
X72280952Y-99922380D01*
X72185714Y-99922380D01*
X73042857Y-99922380D02*
X73042857Y-98922380D01*
X73423809Y-98922380D01*
X73519047Y-98970000D01*
X73566666Y-99017619D01*
X73614285Y-99112857D01*
X73614285Y-99255714D01*
X73566666Y-99350952D01*
X73519047Y-99398571D01*
X73423809Y-99446190D01*
X73042857Y-99446190D01*
X74566666Y-99922380D02*
X73995238Y-99922380D01*
X74280952Y-99922380D02*
X74280952Y-98922380D01*
X74185714Y-99065238D01*
X74090476Y-99160476D01*
X73995238Y-99208095D01*
X71232142Y-101098809D02*
X71279761Y-101146428D01*
X71327380Y-101289285D01*
X71327380Y-101384523D01*
X71279761Y-101527380D01*
X71184523Y-101622619D01*
X71089285Y-101670238D01*
X70898809Y-101717857D01*
X70755952Y-101717857D01*
X70565476Y-101670238D01*
X70470238Y-101622619D01*
X70375000Y-101527380D01*
X70327380Y-101384523D01*
X70327380Y-101289285D01*
X70375000Y-101146428D01*
X70422619Y-101098809D01*
X71041666Y-100717857D02*
X71041666Y-100241666D01*
X71327380Y-100813095D02*
X70327380Y-100479761D01*
X71327380Y-100146428D01*
X71327380Y-99813095D02*
X70327380Y-99813095D01*
X71327380Y-99241666D01*
X70327380Y-99241666D01*
X71422619Y-99003571D02*
X71422619Y-98241666D01*
X71327380Y-97432142D02*
X70851190Y-97765476D01*
X71327380Y-98003571D02*
X70327380Y-98003571D01*
X70327380Y-97622619D01*
X70375000Y-97527380D01*
X70422619Y-97479761D01*
X70517857Y-97432142D01*
X70660714Y-97432142D01*
X70755952Y-97479761D01*
X70803571Y-97527380D01*
X70851190Y-97622619D01*
X70851190Y-98003571D01*
X70327380Y-97098809D02*
X71327380Y-96432142D01*
X70327380Y-96432142D02*
X71327380Y-97098809D01*
X70279761Y-95336904D02*
X71565476Y-96194047D01*
X70327380Y-95003571D02*
X71136904Y-95003571D01*
X71232142Y-94955952D01*
X71279761Y-94908333D01*
X71327380Y-94813095D01*
X71327380Y-94622619D01*
X71279761Y-94527380D01*
X71232142Y-94479761D01*
X71136904Y-94432142D01*
X70327380Y-94432142D01*
X71279761Y-94003571D02*
X71327380Y-93860714D01*
X71327380Y-93622619D01*
X71279761Y-93527380D01*
X71232142Y-93479761D01*
X71136904Y-93432142D01*
X71041666Y-93432142D01*
X70946428Y-93479761D01*
X70898809Y-93527380D01*
X70851190Y-93622619D01*
X70803571Y-93813095D01*
X70755952Y-93908333D01*
X70708333Y-93955952D01*
X70613095Y-94003571D01*
X70517857Y-94003571D01*
X70422619Y-93955952D01*
X70375000Y-93908333D01*
X70327380Y-93813095D01*
X70327380Y-93575000D01*
X70375000Y-93432142D01*
X70803571Y-92670238D02*
X70851190Y-92527380D01*
X70898809Y-92479761D01*
X70994047Y-92432142D01*
X71136904Y-92432142D01*
X71232142Y-92479761D01*
X71279761Y-92527380D01*
X71327380Y-92622619D01*
X71327380Y-93003571D01*
X70327380Y-93003571D01*
X70327380Y-92670238D01*
X70375000Y-92575000D01*
X70422619Y-92527380D01*
X70517857Y-92479761D01*
X70613095Y-92479761D01*
X70708333Y-92527380D01*
X70755952Y-92575000D01*
X70803571Y-92670238D01*
X70803571Y-93003571D01*
X71422619Y-92241666D02*
X71422619Y-91479761D01*
X71327380Y-91241666D02*
X70327380Y-91241666D01*
X70327380Y-91003571D01*
X70375000Y-90860714D01*
X70470238Y-90765476D01*
X70565476Y-90717857D01*
X70755952Y-90670238D01*
X70898809Y-90670238D01*
X71089285Y-90717857D01*
X71184523Y-90765476D01*
X71279761Y-90860714D01*
X71327380Y-91003571D01*
X71327380Y-91241666D01*
X70946428Y-90241666D02*
X70946428Y-89479761D01*
%TO.C,J6*%
X56066666Y-93752380D02*
X56066666Y-94466666D01*
X56019047Y-94609523D01*
X55923809Y-94704761D01*
X55780952Y-94752380D01*
X55685714Y-94752380D01*
X56971428Y-93752380D02*
X56780952Y-93752380D01*
X56685714Y-93800000D01*
X56638095Y-93847619D01*
X56542857Y-93990476D01*
X56495238Y-94180952D01*
X56495238Y-94561904D01*
X56542857Y-94657142D01*
X56590476Y-94704761D01*
X56685714Y-94752380D01*
X56876190Y-94752380D01*
X56971428Y-94704761D01*
X57019047Y-94657142D01*
X57066666Y-94561904D01*
X57066666Y-94323809D01*
X57019047Y-94228571D01*
X56971428Y-94180952D01*
X56876190Y-94133333D01*
X56685714Y-94133333D01*
X56590476Y-94180952D01*
X56542857Y-94228571D01*
X56495238Y-94323809D01*
X61435000Y-98827142D02*
X61387380Y-98874761D01*
X61244523Y-98922380D01*
X61149285Y-98922380D01*
X61006428Y-98874761D01*
X60911190Y-98779523D01*
X60863571Y-98684285D01*
X60815952Y-98493809D01*
X60815952Y-98350952D01*
X60863571Y-98160476D01*
X60911190Y-98065238D01*
X61006428Y-97970000D01*
X61149285Y-97922380D01*
X61244523Y-97922380D01*
X61387380Y-97970000D01*
X61435000Y-98017619D01*
X61815952Y-98636666D02*
X62292142Y-98636666D01*
X61720714Y-98922380D02*
X62054047Y-97922380D01*
X62387380Y-98922380D01*
X62720714Y-98922380D02*
X62720714Y-97922380D01*
X63292142Y-98922380D01*
X63292142Y-97922380D01*
X64101666Y-98398571D02*
X64244523Y-98446190D01*
X64292142Y-98493809D01*
X64339761Y-98589047D01*
X64339761Y-98731904D01*
X64292142Y-98827142D01*
X64244523Y-98874761D01*
X64149285Y-98922380D01*
X63768333Y-98922380D01*
X63768333Y-97922380D01*
X64101666Y-97922380D01*
X64196904Y-97970000D01*
X64244523Y-98017619D01*
X64292142Y-98112857D01*
X64292142Y-98208095D01*
X64244523Y-98303333D01*
X64196904Y-98350952D01*
X64101666Y-98398571D01*
X63768333Y-98398571D01*
X65196904Y-98255714D02*
X65196904Y-98922380D01*
X64768333Y-98255714D02*
X64768333Y-98779523D01*
X64815952Y-98874761D01*
X64911190Y-98922380D01*
X65054047Y-98922380D01*
X65149285Y-98874761D01*
X65196904Y-98827142D01*
X65625476Y-98874761D02*
X65720714Y-98922380D01*
X65911190Y-98922380D01*
X66006428Y-98874761D01*
X66054047Y-98779523D01*
X66054047Y-98731904D01*
X66006428Y-98636666D01*
X65911190Y-98589047D01*
X65768333Y-98589047D01*
X65673095Y-98541428D01*
X65625476Y-98446190D01*
X65625476Y-98398571D01*
X65673095Y-98303333D01*
X65768333Y-98255714D01*
X65911190Y-98255714D01*
X66006428Y-98303333D01*
%TO.C,J2*%
X87116666Y-98552380D02*
X87116666Y-99266666D01*
X87069047Y-99409523D01*
X86973809Y-99504761D01*
X86830952Y-99552380D01*
X86735714Y-99552380D01*
X87545238Y-98647619D02*
X87592857Y-98600000D01*
X87688095Y-98552380D01*
X87926190Y-98552380D01*
X88021428Y-98600000D01*
X88069047Y-98647619D01*
X88116666Y-98742857D01*
X88116666Y-98838095D01*
X88069047Y-98980952D01*
X87497619Y-99552380D01*
X88116666Y-99552380D01*
X81917857Y-99604761D02*
X82060714Y-99652380D01*
X82298809Y-99652380D01*
X82394047Y-99604761D01*
X82441666Y-99557142D01*
X82489285Y-99461904D01*
X82489285Y-99366666D01*
X82441666Y-99271428D01*
X82394047Y-99223809D01*
X82298809Y-99176190D01*
X82108333Y-99128571D01*
X82013095Y-99080952D01*
X81965476Y-99033333D01*
X81917857Y-98938095D01*
X81917857Y-98842857D01*
X81965476Y-98747619D01*
X82013095Y-98700000D01*
X82108333Y-98652380D01*
X82346428Y-98652380D01*
X82489285Y-98700000D01*
X82822619Y-98652380D02*
X83060714Y-99652380D01*
X83251190Y-98938095D01*
X83441666Y-99652380D01*
X83679761Y-98652380D01*
X84060714Y-99652380D02*
X84060714Y-98652380D01*
X84298809Y-98652380D01*
X84441666Y-98700000D01*
X84536904Y-98795238D01*
X84584523Y-98890476D01*
X84632142Y-99080952D01*
X84632142Y-99223809D01*
X84584523Y-99414285D01*
X84536904Y-99509523D01*
X84441666Y-99604761D01*
X84298809Y-99652380D01*
X84060714Y-99652380D01*
%TO.C,R8*%
X65558333Y-83852380D02*
X65225000Y-83376190D01*
X64986904Y-83852380D02*
X64986904Y-82852380D01*
X65367857Y-82852380D01*
X65463095Y-82900000D01*
X65510714Y-82947619D01*
X65558333Y-83042857D01*
X65558333Y-83185714D01*
X65510714Y-83280952D01*
X65463095Y-83328571D01*
X65367857Y-83376190D01*
X64986904Y-83376190D01*
X66129761Y-83280952D02*
X66034523Y-83233333D01*
X65986904Y-83185714D01*
X65939285Y-83090476D01*
X65939285Y-83042857D01*
X65986904Y-82947619D01*
X66034523Y-82900000D01*
X66129761Y-82852380D01*
X66320238Y-82852380D01*
X66415476Y-82900000D01*
X66463095Y-82947619D01*
X66510714Y-83042857D01*
X66510714Y-83090476D01*
X66463095Y-83185714D01*
X66415476Y-83233333D01*
X66320238Y-83280952D01*
X66129761Y-83280952D01*
X66034523Y-83328571D01*
X65986904Y-83376190D01*
X65939285Y-83471428D01*
X65939285Y-83661904D01*
X65986904Y-83757142D01*
X66034523Y-83804761D01*
X66129761Y-83852380D01*
X66320238Y-83852380D01*
X66415476Y-83804761D01*
X66463095Y-83757142D01*
X66510714Y-83661904D01*
X66510714Y-83471428D01*
X66463095Y-83376190D01*
X66415476Y-83328571D01*
X66320238Y-83280952D01*
%TO.C,C5*%
X94083333Y-90957142D02*
X94035714Y-91004761D01*
X93892857Y-91052380D01*
X93797619Y-91052380D01*
X93654761Y-91004761D01*
X93559523Y-90909523D01*
X93511904Y-90814285D01*
X93464285Y-90623809D01*
X93464285Y-90480952D01*
X93511904Y-90290476D01*
X93559523Y-90195238D01*
X93654761Y-90100000D01*
X93797619Y-90052380D01*
X93892857Y-90052380D01*
X94035714Y-90100000D01*
X94083333Y-90147619D01*
X94988095Y-90052380D02*
X94511904Y-90052380D01*
X94464285Y-90528571D01*
X94511904Y-90480952D01*
X94607142Y-90433333D01*
X94845238Y-90433333D01*
X94940476Y-90480952D01*
X94988095Y-90528571D01*
X95035714Y-90623809D01*
X95035714Y-90861904D01*
X94988095Y-90957142D01*
X94940476Y-91004761D01*
X94845238Y-91052380D01*
X94607142Y-91052380D01*
X94511904Y-91004761D01*
X94464285Y-90957142D01*
D11*
%TO.C,S1*%
X93710542Y-102521742D02*
X93797628Y-102550771D01*
X93942771Y-102550771D01*
X94000828Y-102521742D01*
X94029857Y-102492714D01*
X94058885Y-102434657D01*
X94058885Y-102376600D01*
X94029857Y-102318542D01*
X94000828Y-102289514D01*
X93942771Y-102260485D01*
X93826657Y-102231457D01*
X93768600Y-102202428D01*
X93739571Y-102173400D01*
X93710542Y-102115342D01*
X93710542Y-102057285D01*
X93739571Y-101999228D01*
X93768600Y-101970200D01*
X93826657Y-101941171D01*
X93971800Y-101941171D01*
X94058885Y-101970200D01*
X94639457Y-102550771D02*
X94291114Y-102550771D01*
X94465285Y-102550771D02*
X94465285Y-101941171D01*
X94407228Y-102028257D01*
X94349171Y-102086314D01*
X94291114Y-102115342D01*
X92325228Y-101281457D02*
X92412314Y-101310485D01*
X92441342Y-101339514D01*
X92470371Y-101397571D01*
X92470371Y-101484657D01*
X92441342Y-101542714D01*
X92412314Y-101571742D01*
X92354257Y-101600771D01*
X92122028Y-101600771D01*
X92122028Y-100991171D01*
X92325228Y-100991171D01*
X92383285Y-101020200D01*
X92412314Y-101049228D01*
X92441342Y-101107285D01*
X92441342Y-101165342D01*
X92412314Y-101223400D01*
X92383285Y-101252428D01*
X92325228Y-101281457D01*
X92122028Y-101281457D01*
X92847742Y-100991171D02*
X92963857Y-100991171D01*
X93021914Y-101020200D01*
X93079971Y-101078257D01*
X93109000Y-101194371D01*
X93109000Y-101397571D01*
X93079971Y-101513685D01*
X93021914Y-101571742D01*
X92963857Y-101600771D01*
X92847742Y-101600771D01*
X92789685Y-101571742D01*
X92731628Y-101513685D01*
X92702600Y-101397571D01*
X92702600Y-101194371D01*
X92731628Y-101078257D01*
X92789685Y-101020200D01*
X92847742Y-100991171D01*
X93486371Y-100991171D02*
X93602485Y-100991171D01*
X93660542Y-101020200D01*
X93718600Y-101078257D01*
X93747628Y-101194371D01*
X93747628Y-101397571D01*
X93718600Y-101513685D01*
X93660542Y-101571742D01*
X93602485Y-101600771D01*
X93486371Y-101600771D01*
X93428314Y-101571742D01*
X93370257Y-101513685D01*
X93341228Y-101397571D01*
X93341228Y-101194371D01*
X93370257Y-101078257D01*
X93428314Y-101020200D01*
X93486371Y-100991171D01*
X93921800Y-100991171D02*
X94270142Y-100991171D01*
X94095971Y-101600771D02*
X94095971Y-100991171D01*
X94821685Y-101600771D02*
X94618485Y-101310485D01*
X94473342Y-101600771D02*
X94473342Y-100991171D01*
X94705571Y-100991171D01*
X94763628Y-101020200D01*
X94792657Y-101049228D01*
X94821685Y-101107285D01*
X94821685Y-101194371D01*
X94792657Y-101252428D01*
X94763628Y-101281457D01*
X94705571Y-101310485D01*
X94473342Y-101310485D01*
X95199057Y-100991171D02*
X95315171Y-100991171D01*
X95373228Y-101020200D01*
X95431285Y-101078257D01*
X95460314Y-101194371D01*
X95460314Y-101397571D01*
X95431285Y-101513685D01*
X95373228Y-101571742D01*
X95315171Y-101600771D01*
X95199057Y-101600771D01*
X95141000Y-101571742D01*
X95082942Y-101513685D01*
X95053914Y-101397571D01*
X95053914Y-101194371D01*
X95082942Y-101078257D01*
X95141000Y-101020200D01*
X95199057Y-100991171D01*
X95721571Y-101600771D02*
X95721571Y-100991171D01*
X95924771Y-101426600D01*
X96127971Y-100991171D01*
X96127971Y-101600771D01*
D10*
%TO.C,R5*%
X77008333Y-89852380D02*
X76675000Y-89376190D01*
X76436904Y-89852380D02*
X76436904Y-88852380D01*
X76817857Y-88852380D01*
X76913095Y-88900000D01*
X76960714Y-88947619D01*
X77008333Y-89042857D01*
X77008333Y-89185714D01*
X76960714Y-89280952D01*
X76913095Y-89328571D01*
X76817857Y-89376190D01*
X76436904Y-89376190D01*
X77913095Y-88852380D02*
X77436904Y-88852380D01*
X77389285Y-89328571D01*
X77436904Y-89280952D01*
X77532142Y-89233333D01*
X77770238Y-89233333D01*
X77865476Y-89280952D01*
X77913095Y-89328571D01*
X77960714Y-89423809D01*
X77960714Y-89661904D01*
X77913095Y-89757142D01*
X77865476Y-89804761D01*
X77770238Y-89852380D01*
X77532142Y-89852380D01*
X77436904Y-89804761D01*
X77389285Y-89757142D01*
D11*
%TO.C,J3*%
X97226666Y-85404523D02*
X97226666Y-86311666D01*
X97166190Y-86493095D01*
X97045238Y-86614047D01*
X96863809Y-86674523D01*
X96742857Y-86674523D01*
X97710476Y-85404523D02*
X98496666Y-85404523D01*
X98073333Y-85888333D01*
X98254761Y-85888333D01*
X98375714Y-85948809D01*
X98436190Y-86009285D01*
X98496666Y-86130238D01*
X98496666Y-86432619D01*
X98436190Y-86553571D01*
X98375714Y-86614047D01*
X98254761Y-86674523D01*
X97891904Y-86674523D01*
X97770952Y-86614047D01*
X97710476Y-86553571D01*
D12*
X98574047Y-69429523D02*
X98574047Y-70457619D01*
X98634523Y-70578571D01*
X98695000Y-70639047D01*
X98815952Y-70699523D01*
X99057857Y-70699523D01*
X99178809Y-70639047D01*
X99239285Y-70578571D01*
X99299761Y-70457619D01*
X99299761Y-69429523D01*
X99844047Y-70336666D02*
X100448809Y-70336666D01*
X99723095Y-70699523D02*
X100146428Y-69429523D01*
X100569761Y-70699523D01*
X101718809Y-70699523D02*
X101295476Y-70094761D01*
X100993095Y-70699523D02*
X100993095Y-69429523D01*
X101476904Y-69429523D01*
X101597857Y-69490000D01*
X101658333Y-69550476D01*
X101718809Y-69671428D01*
X101718809Y-69852857D01*
X101658333Y-69973809D01*
X101597857Y-70034285D01*
X101476904Y-70094761D01*
X100993095Y-70094761D01*
X102081666Y-69429523D02*
X102807380Y-69429523D01*
X102444523Y-70699523D02*
X102444523Y-69429523D01*
X91816666Y-84234285D02*
X91998095Y-84294761D01*
X92058571Y-84355238D01*
X92119047Y-84476190D01*
X92119047Y-84657619D01*
X92058571Y-84778571D01*
X91998095Y-84839047D01*
X91877142Y-84899523D01*
X91393333Y-84899523D01*
X91393333Y-83629523D01*
X91816666Y-83629523D01*
X91937619Y-83690000D01*
X91998095Y-83750476D01*
X92058571Y-83871428D01*
X92058571Y-83992380D01*
X91998095Y-84113333D01*
X91937619Y-84173809D01*
X91816666Y-84234285D01*
X91393333Y-84234285D01*
X93268095Y-84899523D02*
X92663333Y-84899523D01*
X92663333Y-83629523D01*
X93691428Y-84899523D02*
X93691428Y-83629523D01*
X94417142Y-84899523D02*
X93872857Y-84173809D01*
X94417142Y-83629523D02*
X93691428Y-84355238D01*
D10*
X98214666Y-78138580D02*
X98548000Y-79138580D01*
X98881333Y-78138580D01*
X99786095Y-79043342D02*
X99738476Y-79090961D01*
X99595619Y-79138580D01*
X99500380Y-79138580D01*
X99357523Y-79090961D01*
X99262285Y-78995723D01*
X99214666Y-78900485D01*
X99167047Y-78710009D01*
X99167047Y-78567152D01*
X99214666Y-78376676D01*
X99262285Y-78281438D01*
X99357523Y-78186200D01*
X99500380Y-78138580D01*
X99595619Y-78138580D01*
X99738476Y-78186200D01*
X99786095Y-78233819D01*
X100786095Y-79043342D02*
X100738476Y-79090961D01*
X100595619Y-79138580D01*
X100500380Y-79138580D01*
X100357523Y-79090961D01*
X100262285Y-78995723D01*
X100214666Y-78900485D01*
X100167047Y-78710009D01*
X100167047Y-78567152D01*
X100214666Y-78376676D01*
X100262285Y-78281438D01*
X100357523Y-78186200D01*
X100500380Y-78138580D01*
X100595619Y-78138580D01*
X100738476Y-78186200D01*
X100786095Y-78233819D01*
X98786095Y-83215400D02*
X98690857Y-83167780D01*
X98548000Y-83167780D01*
X98405142Y-83215400D01*
X98309904Y-83310638D01*
X98262285Y-83405876D01*
X98214666Y-83596352D01*
X98214666Y-83739209D01*
X98262285Y-83929685D01*
X98309904Y-84024923D01*
X98405142Y-84120161D01*
X98548000Y-84167780D01*
X98643238Y-84167780D01*
X98786095Y-84120161D01*
X98833714Y-84072542D01*
X98833714Y-83739209D01*
X98643238Y-83739209D01*
X99262285Y-84167780D02*
X99262285Y-83167780D01*
X99833714Y-84167780D01*
X99833714Y-83167780D01*
X100309904Y-84167780D02*
X100309904Y-83167780D01*
X100548000Y-83167780D01*
X100690857Y-83215400D01*
X100786095Y-83310638D01*
X100833714Y-83405876D01*
X100881333Y-83596352D01*
X100881333Y-83739209D01*
X100833714Y-83929685D01*
X100786095Y-84024923D01*
X100690857Y-84120161D01*
X100548000Y-84167780D01*
X100309904Y-84167780D01*
X98407142Y-71977380D02*
X98407142Y-70977380D01*
X98645238Y-70977380D01*
X98788095Y-71025000D01*
X98883333Y-71120238D01*
X98930952Y-71215476D01*
X98978571Y-71405952D01*
X98978571Y-71548809D01*
X98930952Y-71739285D01*
X98883333Y-71834523D01*
X98788095Y-71929761D01*
X98645238Y-71977380D01*
X98407142Y-71977380D01*
X99264285Y-70977380D02*
X99835714Y-70977380D01*
X99550000Y-71977380D02*
X99550000Y-70977380D01*
X100740476Y-71977380D02*
X100407142Y-71501190D01*
X100169047Y-71977380D02*
X100169047Y-70977380D01*
X100550000Y-70977380D01*
X100645238Y-71025000D01*
X100692857Y-71072619D01*
X100740476Y-71167857D01*
X100740476Y-71310714D01*
X100692857Y-71405952D01*
X100645238Y-71453571D01*
X100550000Y-71501190D01*
X100169047Y-71501190D01*
X98336895Y-75496980D02*
X98908323Y-75496980D01*
X98622609Y-76496980D02*
X98622609Y-75496980D01*
X99146419Y-75496980D02*
X99813085Y-76496980D01*
X99813085Y-75496980D02*
X99146419Y-76496980D01*
X100194038Y-76496980D02*
X100194038Y-75496980D01*
X100432133Y-75496980D01*
X100574990Y-75544600D01*
X100670228Y-75639838D01*
X100717847Y-75735076D01*
X100765466Y-75925552D01*
X100765466Y-76068409D01*
X100717847Y-76258885D01*
X100670228Y-76354123D01*
X100574990Y-76449361D01*
X100432133Y-76496980D01*
X100194038Y-76496980D01*
D12*
X92032380Y-69540000D02*
X91911428Y-69479523D01*
X91730000Y-69479523D01*
X91548571Y-69540000D01*
X91427619Y-69660952D01*
X91367142Y-69781904D01*
X91306666Y-70023809D01*
X91306666Y-70205238D01*
X91367142Y-70447142D01*
X91427619Y-70568095D01*
X91548571Y-70689047D01*
X91730000Y-70749523D01*
X91850952Y-70749523D01*
X92032380Y-70689047D01*
X92092857Y-70628571D01*
X92092857Y-70205238D01*
X91850952Y-70205238D01*
X93362857Y-70749523D02*
X92939523Y-70144761D01*
X92637142Y-70749523D02*
X92637142Y-69479523D01*
X93120952Y-69479523D01*
X93241904Y-69540000D01*
X93302380Y-69600476D01*
X93362857Y-69721428D01*
X93362857Y-69902857D01*
X93302380Y-70023809D01*
X93241904Y-70084285D01*
X93120952Y-70144761D01*
X92637142Y-70144761D01*
X93907142Y-70749523D02*
X93907142Y-69479523D01*
X94632857Y-70749523D01*
X94632857Y-69479523D01*
D10*
X98982933Y-73956980D02*
X98649600Y-73480790D01*
X98411504Y-73956980D02*
X98411504Y-72956980D01*
X98792457Y-72956980D01*
X98887695Y-73004600D01*
X98935314Y-73052219D01*
X98982933Y-73147457D01*
X98982933Y-73290314D01*
X98935314Y-73385552D01*
X98887695Y-73433171D01*
X98792457Y-73480790D01*
X98411504Y-73480790D01*
X99316266Y-72956980D02*
X99982933Y-73956980D01*
X99982933Y-72956980D02*
X99316266Y-73956980D01*
X100363885Y-73956980D02*
X100363885Y-72956980D01*
X100601980Y-72956980D01*
X100744838Y-73004600D01*
X100840076Y-73099838D01*
X100887695Y-73195076D01*
X100935314Y-73385552D01*
X100935314Y-73528409D01*
X100887695Y-73718885D01*
X100840076Y-73814123D01*
X100744838Y-73909361D01*
X100601980Y-73956980D01*
X100363885Y-73956980D01*
X98898780Y-81507142D02*
X98851161Y-81554761D01*
X98708304Y-81602380D01*
X98613066Y-81602380D01*
X98470209Y-81554761D01*
X98374971Y-81459523D01*
X98327352Y-81364285D01*
X98279733Y-81173809D01*
X98279733Y-81030952D01*
X98327352Y-80840476D01*
X98374971Y-80745238D01*
X98470209Y-80650000D01*
X98613066Y-80602380D01*
X98708304Y-80602380D01*
X98851161Y-80650000D01*
X98898780Y-80697619D01*
X99184495Y-80602380D02*
X99755923Y-80602380D01*
X99470209Y-81602380D02*
X99470209Y-80602380D01*
X100041638Y-81554761D02*
X100184495Y-81602380D01*
X100422590Y-81602380D01*
X100517828Y-81554761D01*
X100565447Y-81507142D01*
X100613066Y-81411904D01*
X100613066Y-81316666D01*
X100565447Y-81221428D01*
X100517828Y-81173809D01*
X100422590Y-81126190D01*
X100232114Y-81078571D01*
X100136876Y-81030952D01*
X100089257Y-80983333D01*
X100041638Y-80888095D01*
X100041638Y-80792857D01*
X100089257Y-80697619D01*
X100136876Y-80650000D01*
X100232114Y-80602380D01*
X100470209Y-80602380D01*
X100613066Y-80650000D01*
%TO.C,F1*%
X60266666Y-71603571D02*
X59933333Y-71603571D01*
X59933333Y-72127380D02*
X59933333Y-71127380D01*
X60409523Y-71127380D01*
X61314285Y-72127380D02*
X60742857Y-72127380D01*
X61028571Y-72127380D02*
X61028571Y-71127380D01*
X60933333Y-71270238D01*
X60838095Y-71365476D01*
X60742857Y-71413095D01*
%TO.C,C6*%
X81033333Y-84407142D02*
X80985714Y-84454761D01*
X80842857Y-84502380D01*
X80747619Y-84502380D01*
X80604761Y-84454761D01*
X80509523Y-84359523D01*
X80461904Y-84264285D01*
X80414285Y-84073809D01*
X80414285Y-83930952D01*
X80461904Y-83740476D01*
X80509523Y-83645238D01*
X80604761Y-83550000D01*
X80747619Y-83502380D01*
X80842857Y-83502380D01*
X80985714Y-83550000D01*
X81033333Y-83597619D01*
X81890476Y-83502380D02*
X81700000Y-83502380D01*
X81604761Y-83550000D01*
X81557142Y-83597619D01*
X81461904Y-83740476D01*
X81414285Y-83930952D01*
X81414285Y-84311904D01*
X81461904Y-84407142D01*
X81509523Y-84454761D01*
X81604761Y-84502380D01*
X81795238Y-84502380D01*
X81890476Y-84454761D01*
X81938095Y-84407142D01*
X81985714Y-84311904D01*
X81985714Y-84073809D01*
X81938095Y-83978571D01*
X81890476Y-83930952D01*
X81795238Y-83883333D01*
X81604761Y-83883333D01*
X81509523Y-83930952D01*
X81461904Y-83978571D01*
X81414285Y-84073809D01*
%TO.C,J5*%
X56341666Y-77202380D02*
X56341666Y-77916666D01*
X56294047Y-78059523D01*
X56198809Y-78154761D01*
X56055952Y-78202380D01*
X55960714Y-78202380D01*
X57294047Y-77202380D02*
X56817857Y-77202380D01*
X56770238Y-77678571D01*
X56817857Y-77630952D01*
X56913095Y-77583333D01*
X57151190Y-77583333D01*
X57246428Y-77630952D01*
X57294047Y-77678571D01*
X57341666Y-77773809D01*
X57341666Y-78011904D01*
X57294047Y-78107142D01*
X57246428Y-78154761D01*
X57151190Y-78202380D01*
X56913095Y-78202380D01*
X56817857Y-78154761D01*
X56770238Y-78107142D01*
X61470000Y-82802142D02*
X61422380Y-82849761D01*
X61279523Y-82897380D01*
X61184285Y-82897380D01*
X61041428Y-82849761D01*
X60946190Y-82754523D01*
X60898571Y-82659285D01*
X60850952Y-82468809D01*
X60850952Y-82325952D01*
X60898571Y-82135476D01*
X60946190Y-82040238D01*
X61041428Y-81945000D01*
X61184285Y-81897380D01*
X61279523Y-81897380D01*
X61422380Y-81945000D01*
X61470000Y-81992619D01*
X61850952Y-82611666D02*
X62327142Y-82611666D01*
X61755714Y-82897380D02*
X62089047Y-81897380D01*
X62422380Y-82897380D01*
X62755714Y-82897380D02*
X62755714Y-81897380D01*
X63327142Y-82897380D01*
X63327142Y-81897380D01*
X64136666Y-82373571D02*
X64279523Y-82421190D01*
X64327142Y-82468809D01*
X64374761Y-82564047D01*
X64374761Y-82706904D01*
X64327142Y-82802142D01*
X64279523Y-82849761D01*
X64184285Y-82897380D01*
X63803333Y-82897380D01*
X63803333Y-81897380D01*
X64136666Y-81897380D01*
X64231904Y-81945000D01*
X64279523Y-81992619D01*
X64327142Y-82087857D01*
X64327142Y-82183095D01*
X64279523Y-82278333D01*
X64231904Y-82325952D01*
X64136666Y-82373571D01*
X63803333Y-82373571D01*
X65231904Y-82230714D02*
X65231904Y-82897380D01*
X64803333Y-82230714D02*
X64803333Y-82754523D01*
X64850952Y-82849761D01*
X64946190Y-82897380D01*
X65089047Y-82897380D01*
X65184285Y-82849761D01*
X65231904Y-82802142D01*
X65660476Y-82849761D02*
X65755714Y-82897380D01*
X65946190Y-82897380D01*
X66041428Y-82849761D01*
X66089047Y-82754523D01*
X66089047Y-82706904D01*
X66041428Y-82611666D01*
X65946190Y-82564047D01*
X65803333Y-82564047D01*
X65708095Y-82516428D01*
X65660476Y-82421190D01*
X65660476Y-82373571D01*
X65708095Y-82278333D01*
X65803333Y-82230714D01*
X65946190Y-82230714D01*
X66041428Y-82278333D01*
%TO.C,C4*%
X68282142Y-71779166D02*
X68329761Y-71826785D01*
X68377380Y-71969642D01*
X68377380Y-72064880D01*
X68329761Y-72207738D01*
X68234523Y-72302976D01*
X68139285Y-72350595D01*
X67948809Y-72398214D01*
X67805952Y-72398214D01*
X67615476Y-72350595D01*
X67520238Y-72302976D01*
X67425000Y-72207738D01*
X67377380Y-72064880D01*
X67377380Y-71969642D01*
X67425000Y-71826785D01*
X67472619Y-71779166D01*
X67710714Y-70922023D02*
X68377380Y-70922023D01*
X67329761Y-71160119D02*
X68044047Y-71398214D01*
X68044047Y-70779166D01*
%TO.C,U2*%
X84500595Y-92127380D02*
X84500595Y-92936904D01*
X84548214Y-93032142D01*
X84595833Y-93079761D01*
X84691071Y-93127380D01*
X84881547Y-93127380D01*
X84976785Y-93079761D01*
X85024404Y-93032142D01*
X85072023Y-92936904D01*
X85072023Y-92127380D01*
X85500595Y-92222619D02*
X85548214Y-92175000D01*
X85643452Y-92127380D01*
X85881547Y-92127380D01*
X85976785Y-92175000D01*
X86024404Y-92222619D01*
X86072023Y-92317857D01*
X86072023Y-92413095D01*
X86024404Y-92555952D01*
X85452976Y-93127380D01*
X86072023Y-93127380D01*
X88832500Y-92807619D02*
X88832500Y-92569523D01*
X89070595Y-92664761D02*
X88832500Y-92569523D01*
X88594404Y-92664761D01*
X88975357Y-92379047D02*
X88832500Y-92569523D01*
X88689642Y-92379047D01*
D11*
%TO.C,S2*%
X101035542Y-99821742D02*
X101122628Y-99850771D01*
X101267771Y-99850771D01*
X101325828Y-99821742D01*
X101354857Y-99792714D01*
X101383885Y-99734657D01*
X101383885Y-99676600D01*
X101354857Y-99618542D01*
X101325828Y-99589514D01*
X101267771Y-99560485D01*
X101151657Y-99531457D01*
X101093600Y-99502428D01*
X101064571Y-99473400D01*
X101035542Y-99415342D01*
X101035542Y-99357285D01*
X101064571Y-99299228D01*
X101093600Y-99270200D01*
X101151657Y-99241171D01*
X101296800Y-99241171D01*
X101383885Y-99270200D01*
X101616114Y-99299228D02*
X101645142Y-99270200D01*
X101703200Y-99241171D01*
X101848342Y-99241171D01*
X101906400Y-99270200D01*
X101935428Y-99299228D01*
X101964457Y-99357285D01*
X101964457Y-99415342D01*
X101935428Y-99502428D01*
X101587085Y-99850771D01*
X101964457Y-99850771D01*
X100789628Y-98800771D02*
X100586428Y-98510485D01*
X100441285Y-98800771D02*
X100441285Y-98191171D01*
X100673514Y-98191171D01*
X100731571Y-98220200D01*
X100760600Y-98249228D01*
X100789628Y-98307285D01*
X100789628Y-98394371D01*
X100760600Y-98452428D01*
X100731571Y-98481457D01*
X100673514Y-98510485D01*
X100441285Y-98510485D01*
X101050885Y-98481457D02*
X101254085Y-98481457D01*
X101341171Y-98800771D02*
X101050885Y-98800771D01*
X101050885Y-98191171D01*
X101341171Y-98191171D01*
X101573400Y-98771742D02*
X101660485Y-98800771D01*
X101805628Y-98800771D01*
X101863685Y-98771742D01*
X101892714Y-98742714D01*
X101921742Y-98684657D01*
X101921742Y-98626600D01*
X101892714Y-98568542D01*
X101863685Y-98539514D01*
X101805628Y-98510485D01*
X101689514Y-98481457D01*
X101631457Y-98452428D01*
X101602428Y-98423400D01*
X101573400Y-98365342D01*
X101573400Y-98307285D01*
X101602428Y-98249228D01*
X101631457Y-98220200D01*
X101689514Y-98191171D01*
X101834657Y-98191171D01*
X101921742Y-98220200D01*
X102183000Y-98481457D02*
X102386200Y-98481457D01*
X102473285Y-98800771D02*
X102183000Y-98800771D01*
X102183000Y-98191171D01*
X102473285Y-98191171D01*
X102647457Y-98191171D02*
X102995800Y-98191171D01*
X102821628Y-98800771D02*
X102821628Y-98191171D01*
D10*
%TO.C,J1*%
X56091666Y-80302380D02*
X56091666Y-81016666D01*
X56044047Y-81159523D01*
X55948809Y-81254761D01*
X55805952Y-81302380D01*
X55710714Y-81302380D01*
X57091666Y-81302380D02*
X56520238Y-81302380D01*
X56805952Y-81302380D02*
X56805952Y-80302380D01*
X56710714Y-80445238D01*
X56615476Y-80540476D01*
X56520238Y-80588095D01*
%TO.C,JP2*%
X77691666Y-99207380D02*
X77691666Y-99921666D01*
X77644047Y-100064523D01*
X77548809Y-100159761D01*
X77405952Y-100207380D01*
X77310714Y-100207380D01*
X78167857Y-100207380D02*
X78167857Y-99207380D01*
X78548809Y-99207380D01*
X78644047Y-99255000D01*
X78691666Y-99302619D01*
X78739285Y-99397857D01*
X78739285Y-99540714D01*
X78691666Y-99635952D01*
X78644047Y-99683571D01*
X78548809Y-99731190D01*
X78167857Y-99731190D01*
X79120238Y-99302619D02*
X79167857Y-99255000D01*
X79263095Y-99207380D01*
X79501190Y-99207380D01*
X79596428Y-99255000D01*
X79644047Y-99302619D01*
X79691666Y-99397857D01*
X79691666Y-99493095D01*
X79644047Y-99635952D01*
X79072619Y-100207380D01*
X79691666Y-100207380D01*
X76007142Y-101304761D02*
X76054761Y-101352380D01*
X76102380Y-101495238D01*
X76102380Y-101590476D01*
X76054761Y-101733333D01*
X75959523Y-101828571D01*
X75864285Y-101876190D01*
X75673809Y-101923809D01*
X75530952Y-101923809D01*
X75340476Y-101876190D01*
X75245238Y-101828571D01*
X75150000Y-101733333D01*
X75102380Y-101590476D01*
X75102380Y-101495238D01*
X75150000Y-101352380D01*
X75197619Y-101304761D01*
X75816666Y-100923809D02*
X75816666Y-100447619D01*
X76102380Y-101019047D02*
X75102380Y-100685714D01*
X76102380Y-100352380D01*
X76102380Y-100019047D02*
X75102380Y-100019047D01*
X76102380Y-99447619D01*
X75102380Y-99447619D01*
X76197619Y-99209523D02*
X76197619Y-98447619D01*
X75102380Y-98352380D02*
X75102380Y-97780952D01*
X76102380Y-98066666D02*
X75102380Y-98066666D01*
X75102380Y-97542857D02*
X76102380Y-96876190D01*
X75102380Y-96876190D02*
X76102380Y-97542857D01*
X75054761Y-95780952D02*
X76340476Y-96638095D01*
X75102380Y-95447619D02*
X75911904Y-95447619D01*
X76007142Y-95400000D01*
X76054761Y-95352380D01*
X76102380Y-95257142D01*
X76102380Y-95066666D01*
X76054761Y-94971428D01*
X76007142Y-94923809D01*
X75911904Y-94876190D01*
X75102380Y-94876190D01*
X76054761Y-94447619D02*
X76102380Y-94304761D01*
X76102380Y-94066666D01*
X76054761Y-93971428D01*
X76007142Y-93923809D01*
X75911904Y-93876190D01*
X75816666Y-93876190D01*
X75721428Y-93923809D01*
X75673809Y-93971428D01*
X75626190Y-94066666D01*
X75578571Y-94257142D01*
X75530952Y-94352380D01*
X75483333Y-94400000D01*
X75388095Y-94447619D01*
X75292857Y-94447619D01*
X75197619Y-94400000D01*
X75150000Y-94352380D01*
X75102380Y-94257142D01*
X75102380Y-94019047D01*
X75150000Y-93876190D01*
X75578571Y-93114285D02*
X75626190Y-92971428D01*
X75673809Y-92923809D01*
X75769047Y-92876190D01*
X75911904Y-92876190D01*
X76007142Y-92923809D01*
X76054761Y-92971428D01*
X76102380Y-93066666D01*
X76102380Y-93447619D01*
X75102380Y-93447619D01*
X75102380Y-93114285D01*
X75150000Y-93019047D01*
X75197619Y-92971428D01*
X75292857Y-92923809D01*
X75388095Y-92923809D01*
X75483333Y-92971428D01*
X75530952Y-93019047D01*
X75578571Y-93114285D01*
X75578571Y-93447619D01*
X76197619Y-92685714D02*
X76197619Y-91923809D01*
X76102380Y-91685714D02*
X75102380Y-91685714D01*
X75102380Y-91447619D01*
X75150000Y-91304761D01*
X75245238Y-91209523D01*
X75340476Y-91161904D01*
X75530952Y-91114285D01*
X75673809Y-91114285D01*
X75864285Y-91161904D01*
X75959523Y-91209523D01*
X76054761Y-91304761D01*
X76102380Y-91447619D01*
X76102380Y-91685714D01*
X75721428Y-90685714D02*
X75721428Y-89923809D01*
X76102380Y-90304761D02*
X75340476Y-90304761D01*
%TO.C,FB1*%
X94591666Y-87053571D02*
X94258333Y-87053571D01*
X94258333Y-87577380D02*
X94258333Y-86577380D01*
X94734523Y-86577380D01*
X95448809Y-87053571D02*
X95591666Y-87101190D01*
X95639285Y-87148809D01*
X95686904Y-87244047D01*
X95686904Y-87386904D01*
X95639285Y-87482142D01*
X95591666Y-87529761D01*
X95496428Y-87577380D01*
X95115476Y-87577380D01*
X95115476Y-86577380D01*
X95448809Y-86577380D01*
X95544047Y-86625000D01*
X95591666Y-86672619D01*
X95639285Y-86767857D01*
X95639285Y-86863095D01*
X95591666Y-86958333D01*
X95544047Y-87005952D01*
X95448809Y-87053571D01*
X95115476Y-87053571D01*
X96639285Y-87577380D02*
X96067857Y-87577380D01*
X96353571Y-87577380D02*
X96353571Y-86577380D01*
X96258333Y-86720238D01*
X96163095Y-86815476D01*
X96067857Y-86863095D01*
%TO.C,U4*%
X70088095Y-88962380D02*
X70088095Y-89771904D01*
X70135714Y-89867142D01*
X70183333Y-89914761D01*
X70278571Y-89962380D01*
X70469047Y-89962380D01*
X70564285Y-89914761D01*
X70611904Y-89867142D01*
X70659523Y-89771904D01*
X70659523Y-88962380D01*
X71564285Y-89295714D02*
X71564285Y-89962380D01*
X71326190Y-88914761D02*
X71088095Y-89629047D01*
X71707142Y-89629047D01*
X74175000Y-89607619D02*
X74175000Y-89369523D01*
X74413095Y-89464761D02*
X74175000Y-89369523D01*
X73936904Y-89464761D01*
X74317857Y-89179047D02*
X74175000Y-89369523D01*
X74032142Y-89179047D01*
D13*
%TO.C,U3*%
X76527300Y-80977600D02*
X76527300Y-82307600D01*
X73867300Y-79707600D02*
X73867300Y-72027600D01*
X76527300Y-82307600D02*
X75197300Y-82307600D01*
X76527300Y-72027600D02*
X73867300Y-72027600D01*
X76527300Y-79707600D02*
X73867300Y-79707600D01*
X76527300Y-79707600D02*
X76527300Y-72027600D01*
%TO.C,J4*%
X108120000Y-86260000D02*
X101380000Y-86260000D01*
X101900000Y-80480000D02*
X101900000Y-86260000D01*
X108120000Y-80480000D02*
X108120000Y-86260000D01*
X101780000Y-80240000D02*
X101140000Y-80240000D01*
X108120000Y-80480000D02*
X101380000Y-80480000D01*
X107000000Y-80480000D02*
X107000000Y-86260000D01*
X101380000Y-80480000D02*
X101380000Y-86260000D01*
X101140000Y-80240000D02*
X101140000Y-80640000D01*
%TO.C,U5*%
X101861100Y-78438900D02*
X102704860Y-78438900D01*
X107118900Y-78438900D02*
X107118900Y-77595140D01*
X107118900Y-73181100D02*
X106275140Y-73181100D01*
X101861100Y-73181100D02*
X101861100Y-74024860D01*
X101861100Y-77595140D02*
X101861100Y-78438900D01*
X106275140Y-78438900D02*
X107118900Y-78438900D01*
X107118900Y-74024860D02*
X107118900Y-73181100D01*
X102704860Y-73181100D02*
X101861100Y-73181100D01*
G36*
X105980500Y-79124700D02*
G01*
X105599500Y-79124700D01*
X105599500Y-78870700D01*
X105980500Y-78870700D01*
X105980500Y-79124700D01*
G37*
D14*
X105980500Y-79124700D02*
X105599500Y-79124700D01*
X105599500Y-78870700D01*
X105980500Y-78870700D01*
X105980500Y-79124700D01*
G36*
X103380500Y-72749300D02*
G01*
X102999500Y-72749300D01*
X102999500Y-72495300D01*
X103380500Y-72495300D01*
X103380500Y-72749300D01*
G37*
X103380500Y-72749300D02*
X102999500Y-72749300D01*
X102999500Y-72495300D01*
X103380500Y-72495300D01*
X103380500Y-72749300D01*
D13*
%TO.C,JP1*%
X74730000Y-98470000D02*
X73400000Y-98470000D01*
X74730000Y-95870000D02*
X74730000Y-90730000D01*
X74730000Y-95870000D02*
X72070000Y-95870000D01*
X74730000Y-97140000D02*
X74730000Y-98470000D01*
X72070000Y-95870000D02*
X72070000Y-90730000D01*
X74730000Y-90730000D02*
X72070000Y-90730000D01*
%TO.C,J6*%
X68866000Y-90730000D02*
X68866000Y-97470000D01*
X58005000Y-90730000D02*
X68866000Y-90730000D01*
X58005000Y-96950000D02*
X68866000Y-96950000D01*
X58005000Y-91850000D02*
X68866000Y-91850000D01*
X57765000Y-97710000D02*
X58165000Y-97710000D01*
X58005000Y-97470000D02*
X68866000Y-97470000D01*
X58005000Y-90730000D02*
X58005000Y-97470000D01*
X57765000Y-97070000D02*
X57765000Y-97710000D01*
%TO.C,J2*%
X86220000Y-97680000D02*
X81080000Y-97680000D01*
X88820000Y-95020000D02*
X88820000Y-96350000D01*
X86220000Y-95020000D02*
X86220000Y-97680000D01*
X81080000Y-95020000D02*
X81080000Y-97680000D01*
X86220000Y-95020000D02*
X81080000Y-95020000D01*
X87490000Y-95020000D02*
X88820000Y-95020000D01*
%TO.C,R8*%
X66435000Y-86427064D02*
X66435000Y-85972936D01*
X64965000Y-86427064D02*
X64965000Y-85972936D01*
%TO.C,C5*%
X93060000Y-89538748D02*
X93060000Y-90061252D01*
X91590000Y-89538748D02*
X91590000Y-90061252D01*
D15*
%TO.C,S1*%
X95170680Y-99298000D02*
X93159000Y-99298000D01*
X97223000Y-98409000D02*
X97223000Y-94091000D01*
X91127000Y-94091000D02*
X91127000Y-98409000D01*
X95201160Y-93202000D02*
X93159000Y-93202000D01*
X95953000Y-96250000D02*
G75*
G03*
X95953000Y-96250000I-1778000J0D01*
G01*
D13*
%TO.C,R5*%
X77247936Y-86790000D02*
X77702064Y-86790000D01*
X77247936Y-88260000D02*
X77702064Y-88260000D01*
D16*
%TO.C,J3*%
X96246000Y-70736000D02*
X96246000Y-71244000D01*
X96246000Y-73784000D02*
X96754000Y-73784000D01*
X96246000Y-80896000D02*
X96754000Y-80896000D01*
X96246000Y-76324000D02*
X96754000Y-76324000D01*
X96246000Y-80896000D02*
X96246000Y-81404000D01*
X96754000Y-83436000D02*
X96754000Y-83944000D01*
X96246000Y-78356000D02*
X96754000Y-78356000D01*
X96754000Y-70736000D02*
X96754000Y-71244000D01*
X96246000Y-83436000D02*
X96754000Y-83436000D01*
X96246000Y-75816000D02*
X96246000Y-76324000D01*
X96246000Y-71244000D02*
X96754000Y-71244000D01*
X96246000Y-83944000D02*
X96754000Y-83944000D01*
X96246000Y-83436000D02*
X96246000Y-83944000D01*
X96246000Y-73276000D02*
X96246000Y-73784000D01*
X96246000Y-81404000D02*
X96754000Y-81404000D01*
X96246000Y-75816000D02*
X96754000Y-75816000D01*
X96246000Y-70736000D02*
X96754000Y-70736000D01*
X96754000Y-80896000D02*
X96754000Y-81404000D01*
X96754000Y-73276000D02*
X96754000Y-73784000D01*
X96754000Y-75816000D02*
X96754000Y-76324000D01*
X96246000Y-73276000D02*
X96754000Y-73276000D01*
D13*
X97846200Y-69694600D02*
X95153800Y-69694600D01*
X95153800Y-69694600D02*
X95153800Y-84960000D01*
X95153800Y-84960000D02*
X97846200Y-84960000D01*
X97846200Y-84960000D02*
X97846200Y-69694600D01*
%TO.C,F1*%
X63838748Y-70065000D02*
X66611252Y-70065000D01*
X63838748Y-73485000D02*
X66611252Y-73485000D01*
%TO.C,C6*%
X75052500Y-83790000D02*
X75052500Y-85660000D01*
X75052500Y-85660000D02*
X79137500Y-85660000D01*
X79137500Y-83790000D02*
X75052500Y-83790000D01*
%TO.C,J5*%
X68901000Y-74705000D02*
X68901000Y-81445000D01*
X57800000Y-81045000D02*
X57800000Y-81685000D01*
X58040000Y-80925000D02*
X68901000Y-80925000D01*
X58040000Y-81445000D02*
X68901000Y-81445000D01*
X58040000Y-75825000D02*
X68901000Y-75825000D01*
X58040000Y-74705000D02*
X68901000Y-74705000D01*
X57800000Y-81685000D02*
X58200000Y-81685000D01*
X58040000Y-74705000D02*
X58040000Y-81445000D01*
%TO.C,C4*%
X68865000Y-72323752D02*
X68865000Y-70901248D01*
X71585000Y-72323752D02*
X71585000Y-70901248D01*
%TO.C,U2*%
X85262500Y-85090000D02*
X83062500Y-85090000D01*
X85262500Y-85090000D02*
X87462500Y-85090000D01*
X85262500Y-91860000D02*
X83062500Y-91860000D01*
X85262500Y-91860000D02*
X88862500Y-91860000D01*
D15*
%TO.C,S2*%
X104748000Y-95734000D02*
X104748000Y-91416000D01*
X98652000Y-91416000D02*
X98652000Y-95734000D01*
X102726160Y-90527000D02*
X100684000Y-90527000D01*
X102695680Y-96623000D02*
X100684000Y-96623000D01*
X103478000Y-93575000D02*
G75*
G03*
X103478000Y-93575000I-1778000J0D01*
G01*
D13*
%TO.C,J1*%
X59700000Y-84290000D02*
X60150000Y-84290000D01*
X59470000Y-82290000D02*
X59470000Y-82710000D01*
X55520000Y-89810000D02*
X55120000Y-89810000D01*
X60150000Y-84740000D02*
X60150000Y-84290000D01*
X59470000Y-89810000D02*
X59470000Y-89390000D01*
X57490000Y-82290000D02*
X59470000Y-82290000D01*
X55120000Y-82290000D02*
X55520000Y-82290000D01*
X57490000Y-89810000D02*
X59470000Y-89810000D01*
%TO.C,JP2*%
X79855000Y-96155000D02*
X77195000Y-96155000D01*
X79855000Y-98755000D02*
X78525000Y-98755000D01*
X77195000Y-96155000D02*
X77195000Y-91015000D01*
X79855000Y-97425000D02*
X79855000Y-98755000D01*
X79855000Y-91015000D02*
X77195000Y-91015000D01*
X79855000Y-96155000D02*
X79855000Y-91015000D01*
%TO.C,FB1*%
X95163748Y-88065000D02*
X95686252Y-88065000D01*
X95163748Y-89485000D02*
X95686252Y-89485000D01*
%TO.C,U4*%
X70850000Y-83550000D02*
X68900000Y-83550000D01*
X70850000Y-88670000D02*
X68900000Y-88670000D01*
X70850000Y-83550000D02*
X72800000Y-83550000D01*
X70850000Y-88670000D02*
X74300000Y-88670000D01*
%TD*%
M02*
