%TF.GenerationSoftware,KiCad,Pcbnew,6.0.11-2627ca5db0~126~ubuntu22.04.1*%
%TF.CreationDate,2023-02-28T18:25:52-05:00*%
%TF.ProjectId,canbus-thermocouple,63616e62-7573-42d7-9468-65726d6f636f,1.0*%
%TF.SameCoordinates,Original*%
%TF.FileFunction,Soldermask,Bot*%
%TF.FilePolarity,Negative*%
%FSLAX46Y46*%
G04 Gerber Fmt 4.6, Leading zero omitted, Abs format (unit mm)*
G04 Created by KiCad (PCBNEW 6.0.11-2627ca5db0~126~ubuntu22.04.1) date 2023-02-28 18:25:52*
%MOMM*%
%LPD*%
G01*
G04 APERTURE LIST*
G04 Aperture macros list*
%AMRoundRect*
0 Rectangle with rounded corners*
0 $1 Rounding radius*
0 $2 $3 $4 $5 $6 $7 $8 $9 X,Y pos of 4 corners*
0 Add a 4 corners polygon primitive as box body*
4,1,4,$2,$3,$4,$5,$6,$7,$8,$9,$2,$3,0*
0 Add four circle primitives for the rounded corners*
1,1,$1+$1,$2,$3*
1,1,$1+$1,$4,$5*
1,1,$1+$1,$6,$7*
1,1,$1+$1,$8,$9*
0 Add four rect primitives between the rounded corners*
20,1,$1+$1,$2,$3,$4,$5,0*
20,1,$1+$1,$4,$5,$6,$7,0*
20,1,$1+$1,$6,$7,$8,$9,0*
20,1,$1+$1,$8,$9,$2,$3,0*%
%AMFreePoly0*
4,1,6,1.000000,0.000000,0.500000,-0.750000,-0.500000,-0.750000,-0.500000,0.750000,0.500000,0.750000,1.000000,0.000000,1.000000,0.000000,$1*%
%AMFreePoly1*
4,1,6,0.500000,-0.750000,-0.650000,-0.750000,-0.150000,0.000000,-0.650000,0.750000,0.500000,0.750000,0.500000,-0.750000,0.500000,-0.750000,$1*%
G04 Aperture macros list end*
%ADD10RoundRect,0.250000X-0.450000X0.350000X-0.450000X-0.350000X0.450000X-0.350000X0.450000X0.350000X0*%
%ADD11R,1.700000X1.700000*%
%ADD12O,1.700000X1.700000*%
%ADD13R,2.100000X2.100000*%
%ADD14C,2.100000*%
%ADD15RoundRect,0.250000X-0.350000X-0.450000X0.350000X-0.450000X0.350000X0.450000X-0.350000X0.450000X0*%
%ADD16RoundRect,0.250000X0.450000X-0.350000X0.450000X0.350000X-0.450000X0.350000X-0.450000X-0.350000X0*%
%ADD17RoundRect,0.250000X-0.475000X0.337500X-0.475000X-0.337500X0.475000X-0.337500X0.475000X0.337500X0*%
%ADD18C,2.082800*%
%ADD19R,1.879600X1.879600*%
%ADD20C,1.879600*%
%ADD21O,0.950000X1.250000*%
%ADD22O,1.550000X0.890000*%
%ADD23RoundRect,0.250000X-0.337500X-0.475000X0.337500X-0.475000X0.337500X0.475000X-0.337500X0.475000X0*%
%ADD24RoundRect,0.150000X-0.150000X0.587500X-0.150000X-0.587500X0.150000X-0.587500X0.150000X0.587500X0*%
%ADD25RoundRect,0.250000X0.350000X0.450000X-0.350000X0.450000X-0.350000X-0.450000X0.350000X-0.450000X0*%
%ADD26RoundRect,0.250000X0.475000X-0.337500X0.475000X0.337500X-0.475000X0.337500X-0.475000X-0.337500X0*%
%ADD27RoundRect,0.150000X-0.587500X-0.150000X0.587500X-0.150000X0.587500X0.150000X-0.587500X0.150000X0*%
%ADD28FreePoly0,270.000000*%
%ADD29FreePoly1,270.000000*%
G04 APERTURE END LIST*
D10*
%TO.C,R9*%
X85325000Y-80050000D03*
X85325000Y-82050000D03*
%TD*%
%TO.C,R7*%
X88000000Y-80075000D03*
X88000000Y-82075000D03*
%TD*%
D11*
%TO.C,U3*%
X75197300Y-80977600D03*
D12*
X75197300Y-78437600D03*
X75197300Y-75897600D03*
X75197300Y-73357600D03*
%TD*%
D13*
%TO.C,J4*%
X104750000Y-82100000D03*
D14*
X104750000Y-84640000D03*
%TD*%
D15*
%TO.C,R3*%
X99950000Y-82100000D03*
X101950000Y-82100000D03*
%TD*%
D16*
%TO.C,R4*%
X107425000Y-80000000D03*
X107425000Y-78000000D03*
%TD*%
D17*
%TO.C,C8*%
X107425000Y-82100000D03*
X107425000Y-84175000D03*
%TD*%
%TO.C,C9*%
X104525000Y-72425000D03*
X104525000Y-74500000D03*
%TD*%
D10*
%TO.C,R6*%
X107475000Y-86250000D03*
X107475000Y-88250000D03*
%TD*%
D11*
%TO.C,JP1*%
X73400000Y-97140000D03*
D12*
X73400000Y-94600000D03*
X73400000Y-92060000D03*
%TD*%
D13*
%TO.C,J6*%
X59625000Y-94100000D03*
D14*
X62165000Y-94100000D03*
X64705000Y-94100000D03*
X67245000Y-94100000D03*
%TD*%
D11*
%TO.C,J2*%
X87490000Y-96350000D03*
D12*
X84950000Y-96350000D03*
X82410000Y-96350000D03*
%TD*%
D18*
%TO.C,S1*%
X96435600Y-92998800D03*
X96435600Y-99501200D03*
X91914400Y-92998800D03*
X91914400Y-99501200D03*
%TD*%
D19*
%TO.C,J3*%
X96500000Y-70990000D03*
D20*
X96500000Y-73530000D03*
X96500000Y-76070000D03*
X96500000Y-78610000D03*
X96500000Y-81150000D03*
X96500000Y-83690000D03*
%TD*%
D13*
%TO.C,J5*%
X59660000Y-78075000D03*
D14*
X62200000Y-78075000D03*
X64740000Y-78075000D03*
X67280000Y-78075000D03*
%TD*%
D18*
%TO.C,S2*%
X103960600Y-90323800D03*
X103960600Y-96826200D03*
X99439400Y-90323800D03*
X99439400Y-96826200D03*
%TD*%
D21*
%TO.C,J1*%
X59210000Y-83550000D03*
D22*
X56510000Y-82550000D03*
X56510000Y-89550000D03*
D21*
X59210000Y-88550000D03*
%TD*%
D11*
%TO.C,JP2*%
X78525000Y-97425000D03*
D12*
X78525000Y-94885000D03*
X78525000Y-92345000D03*
%TD*%
D23*
%TO.C,C7*%
X77787500Y-82300000D03*
X79862500Y-82300000D03*
%TD*%
D24*
%TO.C,U1*%
X65775000Y-81987500D03*
X67675000Y-81987500D03*
X66725000Y-83862500D03*
%TD*%
D25*
%TO.C,R1*%
X88750000Y-93250000D03*
X86750000Y-93250000D03*
%TD*%
D26*
%TO.C,C2*%
X83450000Y-90887500D03*
X83450000Y-88812500D03*
%TD*%
%TO.C,C3*%
X69900000Y-78712500D03*
X69900000Y-76637500D03*
%TD*%
D17*
%TO.C,C1*%
X68425000Y-83950000D03*
X68425000Y-86025000D03*
%TD*%
D27*
%TO.C,Q2*%
X61437500Y-85525000D03*
X61437500Y-83625000D03*
X63312500Y-84575000D03*
%TD*%
D24*
%TO.C,Q1*%
X70600000Y-81000000D03*
X72500000Y-81000000D03*
X71550000Y-82875000D03*
%TD*%
D28*
%TO.C,JP3*%
X93475000Y-78700000D03*
D29*
X93475000Y-80150000D03*
%TD*%
D15*
%TO.C,R2*%
X95000000Y-90325000D03*
X97000000Y-90325000D03*
%TD*%
M02*
