%TF.GenerationSoftware,KiCad,Pcbnew,6.0.11-2627ca5db0~126~ubuntu22.04.1*%
%TF.CreationDate,2023-02-28T18:25:52-05:00*%
%TF.ProjectId,canbus-thermocouple,63616e62-7573-42d7-9468-65726d6f636f,1.0*%
%TF.SameCoordinates,Original*%
%TF.FileFunction,Copper,L2,Inr*%
%TF.FilePolarity,Positive*%
%FSLAX46Y46*%
G04 Gerber Fmt 4.6, Leading zero omitted, Abs format (unit mm)*
G04 Created by KiCad (PCBNEW 6.0.11-2627ca5db0~126~ubuntu22.04.1) date 2023-02-28 18:25:52*
%MOMM*%
%LPD*%
G01*
G04 APERTURE LIST*
%TA.AperFunction,ComponentPad*%
%ADD10R,1.700000X1.700000*%
%TD*%
%TA.AperFunction,ComponentPad*%
%ADD11O,1.700000X1.700000*%
%TD*%
%TA.AperFunction,ComponentPad*%
%ADD12R,2.100000X2.100000*%
%TD*%
%TA.AperFunction,ComponentPad*%
%ADD13C,2.100000*%
%TD*%
%TA.AperFunction,ComponentPad*%
%ADD14C,1.879600*%
%TD*%
%TA.AperFunction,ComponentPad*%
%ADD15R,1.879600X1.879600*%
%TD*%
%TA.AperFunction,ComponentPad*%
%ADD16O,0.950000X1.250000*%
%TD*%
%TA.AperFunction,ComponentPad*%
%ADD17O,1.550000X0.890000*%
%TD*%
%TA.AperFunction,ViaPad*%
%ADD18C,0.800000*%
%TD*%
%TA.AperFunction,Conductor*%
%ADD19C,1.500000*%
%TD*%
%TA.AperFunction,Conductor*%
%ADD20C,0.250000*%
%TD*%
%TA.AperFunction,Conductor*%
%ADD21C,0.200000*%
%TD*%
G04 APERTURE END LIST*
D10*
%TO.N,+5V*%
%TO.C,U3*%
X75197300Y-80977600D03*
D11*
%TO.N,GND*%
X75197300Y-78437600D03*
%TO.N,+12V*%
X75197300Y-75897600D03*
%TO.N,unconnected-(U3-Pad4)*%
X75197300Y-73357600D03*
%TD*%
D12*
%TO.N,VIN+*%
%TO.C,J4*%
X104750000Y-82100000D03*
D13*
%TO.N,VIN-*%
X104750000Y-84640000D03*
%TD*%
D10*
%TO.N,CAN_RX*%
%TO.C,JP1*%
X73400000Y-97140000D03*
D11*
%TO.N,Net-(JP1-Pad2)*%
X73400000Y-94600000D03*
%TO.N,USB_D-*%
X73400000Y-92060000D03*
%TD*%
D12*
%TO.N,+BATT*%
%TO.C,J6*%
X59625000Y-94100000D03*
D13*
%TO.N,CANH*%
X62165000Y-94100000D03*
%TO.N,CANL*%
X64705000Y-94100000D03*
%TO.N,GND*%
X67245000Y-94100000D03*
%TD*%
D10*
%TO.N,SWDIO*%
%TO.C,J2*%
X87490000Y-96350000D03*
D11*
%TO.N,GND*%
X84950000Y-96350000D03*
%TO.N,SWDCLK*%
X82410000Y-96350000D03*
%TD*%
D14*
%TO.N,+3V3*%
%TO.C,S1*%
X96435600Y-92998800D03*
%TO.N,unconnected-(S1-Pad2)*%
X96435600Y-99501200D03*
%TO.N,Net-(R1-Pad1)*%
X91914400Y-92998800D03*
%TO.N,unconnected-(S1-Pad4)*%
X91914400Y-99501200D03*
%TD*%
D15*
%TO.N,unconnected-(J3-Pad1)*%
%TO.C,J3*%
X96500000Y-70990000D03*
D14*
%TO.N,RXD2*%
X96500000Y-73530000D03*
%TO.N,TXD2*%
X96500000Y-76070000D03*
%TO.N,Net-(J3-Pad4)*%
X96500000Y-78610000D03*
%TO.N,unconnected-(J3-Pad5)*%
X96500000Y-81150000D03*
%TO.N,GND*%
X96500000Y-83690000D03*
%TD*%
D12*
%TO.N,+BATT*%
%TO.C,J5*%
X59660000Y-78075000D03*
D13*
%TO.N,CANH*%
X62200000Y-78075000D03*
%TO.N,CANL*%
X64740000Y-78075000D03*
%TO.N,GND*%
X67280000Y-78075000D03*
%TD*%
D14*
%TO.N,GND*%
%TO.C,S2*%
X103960600Y-90323800D03*
%TO.N,unconnected-(S2-Pad2)*%
X103960600Y-96826200D03*
%TO.N,~{RESET}*%
X99439400Y-90323800D03*
%TO.N,unconnected-(S2-Pad4)*%
X99439400Y-96826200D03*
%TD*%
D16*
%TO.N,GND*%
%TO.C,J1*%
X59210000Y-83550000D03*
D17*
X56510000Y-82550000D03*
X56510000Y-89550000D03*
D16*
X59210000Y-88550000D03*
%TD*%
D10*
%TO.N,CAN_TX*%
%TO.C,JP2*%
X78525000Y-97425000D03*
D11*
%TO.N,Net-(JP2-Pad2)*%
X78525000Y-94885000D03*
%TO.N,USB_D+*%
X78525000Y-92345000D03*
%TD*%
D18*
%TO.N,+3V3*%
X85300000Y-78300000D03*
%TO.N,SDA*%
X102443245Y-72256755D03*
%TO.N,SCL*%
X103150000Y-71550000D03*
%TO.N,SDA*%
X88050000Y-83650000D03*
%TO.N,SCL*%
X85325000Y-83675000D03*
%TO.N,SDA*%
X86300000Y-90750000D03*
%TO.N,SCL*%
X86275000Y-89750000D03*
%TO.N,VIN-*%
X100650000Y-77150000D03*
%TO.N,VIN+*%
X99950000Y-75050000D03*
%TO.N,+3V3*%
X98675000Y-80075000D03*
X103975000Y-70775000D03*
%TO.N,GND*%
X104575000Y-75775000D03*
X80450000Y-88350000D03*
X72725000Y-70575000D03*
X93350000Y-91850000D03*
X80600000Y-85425000D03*
X75300000Y-86775000D03*
%TO.N,+3V3*%
X78150000Y-80600000D03*
X85100000Y-88800000D03*
X93575000Y-81950000D03*
X78750000Y-89250000D03*
X68975000Y-82275000D03*
%TO.N,VBUS*%
X57884502Y-84775000D03*
%TO.N,USB_D-*%
X63750000Y-85825000D03*
%TO.N,USB_D+*%
X63050000Y-86875000D03*
%TO.N,CAN_RX*%
X71525000Y-84850000D03*
%TO.N,Net-(JP1-Pad2)*%
X80025000Y-89475000D03*
%TO.N,CAN_TX*%
X75400000Y-88550000D03*
%TO.N,Net-(JP2-Pad2)*%
X80950000Y-90450000D03*
%TO.N,CAN_STBY*%
X70550000Y-87450000D03*
X79650000Y-87500000D03*
%TO.N,TXD2*%
X90600000Y-86275000D03*
%TO.N,RXD2*%
X89990592Y-85482770D03*
%TO.N,~{RESET}*%
X90475000Y-90300000D03*
%TD*%
D19*
%TO.N,+BATT*%
X59660000Y-80615000D02*
X59660000Y-78075000D01*
X61175000Y-90600000D02*
X61175000Y-82300000D01*
X61175000Y-82300000D02*
X59575000Y-80700000D01*
X59625000Y-92150000D02*
X61175000Y-90600000D01*
X59625000Y-94100000D02*
X59625000Y-92150000D01*
D20*
X59575000Y-80700000D02*
X59660000Y-80615000D01*
D21*
%TO.N,USB_D-*%
X63750000Y-85825000D02*
X64675000Y-85825000D01*
X70925000Y-92075000D02*
X70940000Y-92060000D01*
X64675000Y-85825000D02*
X70925000Y-92075000D01*
X70940000Y-92060000D02*
X73400000Y-92060000D01*
%TO.N,USB_D+*%
X75505000Y-92345000D02*
X78525000Y-92345000D01*
X63050000Y-86875000D02*
X64450000Y-86875000D01*
X64450000Y-86875000D02*
X70925000Y-93350000D01*
X70925000Y-93350000D02*
X74500000Y-93350000D01*
X74500000Y-93350000D02*
X75505000Y-92345000D01*
D20*
%TO.N,Net-(JP1-Pad2)*%
X80025000Y-89475000D02*
X80025000Y-92875000D01*
X79275000Y-93625000D02*
X76750000Y-93625000D01*
X80025000Y-92875000D02*
X79275000Y-93625000D01*
X75775000Y-94600000D02*
X73400000Y-94600000D01*
X76750000Y-93625000D02*
X75775000Y-94600000D01*
%TO.N,Net-(JP2-Pad2)*%
X79540000Y-94885000D02*
X80950000Y-93475000D01*
X80950000Y-93475000D02*
X80950000Y-90450000D01*
X78525000Y-94885000D02*
X79540000Y-94885000D01*
%TO.N,CAN_STBY*%
X70600000Y-87500000D02*
X70550000Y-87450000D01*
X79650000Y-87500000D02*
X70600000Y-87500000D01*
%TO.N,TXD2*%
X92275000Y-80295000D02*
X96500000Y-76070000D01*
X92275000Y-84600000D02*
X92275000Y-80295000D01*
X90600000Y-86275000D02*
X92275000Y-84600000D01*
%TO.N,RXD2*%
X89990592Y-85482770D02*
X91475000Y-83998362D01*
X91475000Y-78555000D02*
X96500000Y-73530000D01*
X91475000Y-83998362D02*
X91475000Y-78555000D01*
%TO.N,~{RESET}*%
X90498800Y-90323800D02*
X99439400Y-90323800D01*
X90475000Y-90300000D02*
X90498800Y-90323800D01*
%TD*%
M02*
