%TF.GenerationSoftware,KiCad,Pcbnew,6.0.11-2627ca5db0~126~ubuntu22.04.1*%
%TF.CreationDate,2023-02-28T18:25:52-05:00*%
%TF.ProjectId,canbus-thermocouple,63616e62-7573-42d7-9468-65726d6f636f,1.0*%
%TF.SameCoordinates,Original*%
%TF.FileFunction,Copper,L1,Top*%
%TF.FilePolarity,Positive*%
%FSLAX46Y46*%
G04 Gerber Fmt 4.6, Leading zero omitted, Abs format (unit mm)*
G04 Created by KiCad (PCBNEW 6.0.11-2627ca5db0~126~ubuntu22.04.1) date 2023-02-28 18:25:52*
%MOMM*%
%LPD*%
G01*
G04 APERTURE LIST*
G04 Aperture macros list*
%AMRoundRect*
0 Rectangle with rounded corners*
0 $1 Rounding radius*
0 $2 $3 $4 $5 $6 $7 $8 $9 X,Y pos of 4 corners*
0 Add a 4 corners polygon primitive as box body*
4,1,4,$2,$3,$4,$5,$6,$7,$8,$9,$2,$3,0*
0 Add four circle primitives for the rounded corners*
1,1,$1+$1,$2,$3*
1,1,$1+$1,$4,$5*
1,1,$1+$1,$6,$7*
1,1,$1+$1,$8,$9*
0 Add four rect primitives between the rounded corners*
20,1,$1+$1,$2,$3,$4,$5,0*
20,1,$1+$1,$4,$5,$6,$7,0*
20,1,$1+$1,$6,$7,$8,$9,0*
20,1,$1+$1,$8,$9,$2,$3,0*%
G04 Aperture macros list end*
%TA.AperFunction,ComponentPad*%
%ADD10R,1.700000X1.700000*%
%TD*%
%TA.AperFunction,ComponentPad*%
%ADD11O,1.700000X1.700000*%
%TD*%
%TA.AperFunction,ComponentPad*%
%ADD12R,2.100000X2.100000*%
%TD*%
%TA.AperFunction,ComponentPad*%
%ADD13C,2.100000*%
%TD*%
%TA.AperFunction,SMDPad,CuDef*%
%ADD14R,0.762000X0.304800*%
%TD*%
%TA.AperFunction,SMDPad,CuDef*%
%ADD15R,0.304800X0.762000*%
%TD*%
%TA.AperFunction,SMDPad,CuDef*%
%ADD16R,3.352800X3.352800*%
%TD*%
%TA.AperFunction,SMDPad,CuDef*%
%ADD17RoundRect,0.250000X0.450000X-0.350000X0.450000X0.350000X-0.450000X0.350000X-0.450000X-0.350000X0*%
%TD*%
%TA.AperFunction,SMDPad,CuDef*%
%ADD18RoundRect,0.250000X-0.475000X0.337500X-0.475000X-0.337500X0.475000X-0.337500X0.475000X0.337500X0*%
%TD*%
%TA.AperFunction,ComponentPad*%
%ADD19C,1.879600*%
%TD*%
%TA.AperFunction,SMDPad,CuDef*%
%ADD20RoundRect,0.250000X-0.350000X-0.450000X0.350000X-0.450000X0.350000X0.450000X-0.350000X0.450000X0*%
%TD*%
%TA.AperFunction,ComponentPad*%
%ADD21R,1.879600X1.879600*%
%TD*%
%TA.AperFunction,SMDPad,CuDef*%
%ADD22RoundRect,0.250000X-0.400000X-1.450000X0.400000X-1.450000X0.400000X1.450000X-0.400000X1.450000X0*%
%TD*%
%TA.AperFunction,SMDPad,CuDef*%
%ADD23RoundRect,0.250000X-0.537500X-0.425000X0.537500X-0.425000X0.537500X0.425000X-0.537500X0.425000X0*%
%TD*%
%TA.AperFunction,SMDPad,CuDef*%
%ADD24RoundRect,0.250000X1.100000X-0.412500X1.100000X0.412500X-1.100000X0.412500X-1.100000X-0.412500X0*%
%TD*%
%TA.AperFunction,SMDPad,CuDef*%
%ADD25RoundRect,0.100000X0.637500X0.100000X-0.637500X0.100000X-0.637500X-0.100000X0.637500X-0.100000X0*%
%TD*%
%TA.AperFunction,SMDPad,CuDef*%
%ADD26R,1.350000X0.400000*%
%TD*%
%TA.AperFunction,SMDPad,CuDef*%
%ADD27R,1.550000X1.500000*%
%TD*%
%TA.AperFunction,SMDPad,CuDef*%
%ADD28R,1.550000X1.200000*%
%TD*%
%TA.AperFunction,ComponentPad*%
%ADD29O,0.950000X1.250000*%
%TD*%
%TA.AperFunction,ComponentPad*%
%ADD30O,1.550000X0.890000*%
%TD*%
%TA.AperFunction,SMDPad,CuDef*%
%ADD31RoundRect,0.250000X-0.325000X-0.450000X0.325000X-0.450000X0.325000X0.450000X-0.325000X0.450000X0*%
%TD*%
%TA.AperFunction,SMDPad,CuDef*%
%ADD32RoundRect,0.150000X0.825000X0.150000X-0.825000X0.150000X-0.825000X-0.150000X0.825000X-0.150000X0*%
%TD*%
%TA.AperFunction,ViaPad*%
%ADD33C,0.800000*%
%TD*%
%TA.AperFunction,Conductor*%
%ADD34C,0.250000*%
%TD*%
%TA.AperFunction,Conductor*%
%ADD35C,0.200000*%
%TD*%
%TA.AperFunction,Conductor*%
%ADD36C,1.500000*%
%TD*%
G04 APERTURE END LIST*
D10*
%TO.P,U3,1,Vout*%
%TO.N,+5V*%
X75197300Y-80977600D03*
D11*
%TO.P,U3,2,GND*%
%TO.N,GND*%
X75197300Y-78437600D03*
%TO.P,U3,3,Vin*%
%TO.N,+12V*%
X75197300Y-75897600D03*
%TO.P,U3,4,EN*%
%TO.N,unconnected-(U3-Pad4)*%
X75197300Y-73357600D03*
%TD*%
D12*
%TO.P,J4,1,Pin_1*%
%TO.N,VIN+*%
X104750000Y-82100000D03*
D13*
%TO.P,J4,2,Pin_2*%
%TO.N,VIN-*%
X104750000Y-84640000D03*
%TD*%
D14*
%TO.P,U5,1,GND*%
%TO.N,GND*%
X102064300Y-74510000D03*
%TO.P,U5,2,VIN+*%
%TO.N,VIN+*%
X102064300Y-75160001D03*
%TO.P,U5,3,GND*%
%TO.N,GND*%
X102064300Y-75810000D03*
%TO.P,U5,4,VIN-*%
%TO.N,VIN-*%
X102064300Y-76459999D03*
%TO.P,U5,5,GND*%
%TO.N,GND*%
X102064300Y-77110000D03*
D15*
%TO.P,U5,6,VSENSE*%
%TO.N,VIN+*%
X103190000Y-78235700D03*
%TO.P,U5,7,SC_ALERT*%
%TO.N,unconnected-(U5-Pad7)*%
X103840001Y-78235700D03*
%TO.P,U5,8,VDD*%
%TO.N,+3V3*%
X104490000Y-78235700D03*
%TO.P,U5,9,OC_ALERT*%
%TO.N,unconnected-(U5-Pad9)*%
X105139999Y-78235700D03*
%TO.P,U5,10,GND*%
%TO.N,GND*%
X105790000Y-78235700D03*
D14*
%TO.P,U5,11,ALERT1*%
%TO.N,unconnected-(U5-Pad11)*%
X106915700Y-77110000D03*
%TO.P,U5,12,ALERT2*%
%TO.N,unconnected-(U5-Pad12)*%
X106915700Y-76459999D03*
%TO.P,U5,13,GND*%
%TO.N,GND*%
X106915700Y-75810000D03*
%TO.P,U5,14,ALERT3*%
%TO.N,unconnected-(U5-Pad14)*%
X106915700Y-75160001D03*
%TO.P,U5,15,ALERT4*%
%TO.N,unconnected-(U5-Pad15)*%
X106915700Y-74510000D03*
D15*
%TO.P,U5,16,ADDR*%
%TO.N,GND*%
X105790000Y-73384300D03*
%TO.P,U5,17,GND*%
X105139999Y-73384300D03*
%TO.P,U5,18,GND*%
X104490000Y-73384300D03*
%TO.P,U5,19,SCL*%
%TO.N,SCL*%
X103840001Y-73384300D03*
%TO.P,U5,20,SDA*%
%TO.N,SDA*%
X103190000Y-73384300D03*
D16*
%TO.P,U5,21,GND*%
%TO.N,GND*%
X104490000Y-75810000D03*
%TD*%
D10*
%TO.P,JP1,1,A*%
%TO.N,CAN_RX*%
X73400000Y-97140000D03*
D11*
%TO.P,JP1,2,C*%
%TO.N,Net-(JP1-Pad2)*%
X73400000Y-94600000D03*
%TO.P,JP1,3,B*%
%TO.N,USB_D-*%
X73400000Y-92060000D03*
%TD*%
D12*
%TO.P,J6,1,Pin_1*%
%TO.N,+BATT*%
X59625000Y-94100000D03*
D13*
%TO.P,J6,2,Pin_2*%
%TO.N,CANH*%
X62165000Y-94100000D03*
%TO.P,J6,3,Pin_3*%
%TO.N,CANL*%
X64705000Y-94100000D03*
%TO.P,J6,4,Pin_4*%
%TO.N,GND*%
X67245000Y-94100000D03*
%TD*%
D10*
%TO.P,J2,1,Pin_1*%
%TO.N,SWDIO*%
X87490000Y-96350000D03*
D11*
%TO.P,J2,2,Pin_2*%
%TO.N,GND*%
X84950000Y-96350000D03*
%TO.P,J2,3,Pin_3*%
%TO.N,SWDCLK*%
X82410000Y-96350000D03*
%TD*%
D17*
%TO.P,R8,1*%
%TO.N,CANH*%
X65700000Y-87200000D03*
%TO.P,R8,2*%
%TO.N,CANL*%
X65700000Y-85200000D03*
%TD*%
D18*
%TO.P,C5,1*%
%TO.N,/VDDA*%
X92325000Y-88762500D03*
%TO.P,C5,2*%
%TO.N,GND*%
X92325000Y-90837500D03*
%TD*%
D19*
%TO.P,S1,1,1*%
%TO.N,+3V3*%
X96435600Y-92998800D03*
%TO.P,S1,2,1*%
%TO.N,unconnected-(S1-Pad2)*%
X96435600Y-99501200D03*
%TO.P,S1,3,2*%
%TO.N,Net-(R1-Pad1)*%
X91914400Y-92998800D03*
%TO.P,S1,4,2*%
%TO.N,unconnected-(S1-Pad4)*%
X91914400Y-99501200D03*
%TD*%
D20*
%TO.P,R5,1*%
%TO.N,+3V3*%
X76475000Y-87525000D03*
%TO.P,R5,2*%
%TO.N,CAN_STBY*%
X78475000Y-87525000D03*
%TD*%
D21*
%TO.P,J3,1,DTR*%
%TO.N,unconnected-(J3-Pad1)*%
X96500000Y-70990000D03*
D19*
%TO.P,J3,2,RXD*%
%TO.N,RXD2*%
X96500000Y-73530000D03*
%TO.P,J3,3,TXD*%
%TO.N,TXD2*%
X96500000Y-76070000D03*
%TO.P,J3,4,VCC*%
%TO.N,Net-(J3-Pad4)*%
X96500000Y-78610000D03*
%TO.P,J3,5,CTS*%
%TO.N,unconnected-(J3-Pad5)*%
X96500000Y-81150000D03*
%TO.P,J3,6,GND*%
%TO.N,GND*%
X96500000Y-83690000D03*
%TD*%
D22*
%TO.P,F1,1*%
%TO.N,+BATT*%
X63000000Y-71775000D03*
%TO.P,F1,2*%
%TO.N,+12V*%
X67450000Y-71775000D03*
%TD*%
D23*
%TO.P,C6,1*%
%TO.N,+5V*%
X76100000Y-84725000D03*
%TO.P,C6,2*%
%TO.N,GND*%
X78975000Y-84725000D03*
%TD*%
D12*
%TO.P,J5,1,Pin_1*%
%TO.N,+BATT*%
X59660000Y-78075000D03*
D13*
%TO.P,J5,2,Pin_2*%
%TO.N,CANH*%
X62200000Y-78075000D03*
%TO.P,J5,3,Pin_3*%
%TO.N,CANL*%
X64740000Y-78075000D03*
%TO.P,J5,4,Pin_4*%
%TO.N,GND*%
X67280000Y-78075000D03*
%TD*%
D24*
%TO.P,C4,1*%
%TO.N,+12V*%
X70225000Y-73175000D03*
%TO.P,C4,2*%
%TO.N,GND*%
X70225000Y-70050000D03*
%TD*%
D25*
%TO.P,U2,1,PB8*%
%TO.N,Net-(R1-Pad1)*%
X88125000Y-91400000D03*
%TO.P,U2,2,PF0*%
%TO.N,SDA*%
X88125000Y-90750000D03*
%TO.P,U2,3,PF1*%
%TO.N,SCL*%
X88125000Y-90100000D03*
%TO.P,U2,4,NRST*%
%TO.N,~{RESET}*%
X88125000Y-89450000D03*
%TO.P,U2,5,VDDA*%
%TO.N,/VDDA*%
X88125000Y-88800000D03*
%TO.P,U2,6,PA0*%
%TO.N,VTHERM*%
X88125000Y-88150000D03*
%TO.P,U2,7,PA1*%
%TO.N,VBAT_MON*%
X88125000Y-87500000D03*
%TO.P,U2,8,PA2*%
%TO.N,TXD2*%
X88125000Y-86850000D03*
%TO.P,U2,9,PA3*%
%TO.N,RXD2*%
X88125000Y-86200000D03*
%TO.P,U2,10,PA4*%
%TO.N,~{SPI1_SS}*%
X88125000Y-85550000D03*
%TO.P,U2,11,PA5*%
%TO.N,SPI1_SCK*%
X82400000Y-85550000D03*
%TO.P,U2,12,PA6*%
%TO.N,SPI1_MISO*%
X82400000Y-86200000D03*
%TO.P,U2,13,PA7*%
%TO.N,SPI1_MOSI*%
X82400000Y-86850000D03*
%TO.P,U2,14,PB1*%
%TO.N,CAN_STBY*%
X82400000Y-87500000D03*
%TO.P,U2,15,VSS*%
%TO.N,GND*%
X82400000Y-88150000D03*
%TO.P,U2,16,VDD*%
%TO.N,+3V3*%
X82400000Y-88800000D03*
%TO.P,U2,17,PA9/PA11*%
%TO.N,Net-(JP1-Pad2)*%
X82400000Y-89450000D03*
%TO.P,U2,18,PA10/PA12*%
%TO.N,Net-(JP2-Pad2)*%
X82400000Y-90100000D03*
%TO.P,U2,19,PA13*%
%TO.N,SWDIO*%
X82400000Y-90750000D03*
%TO.P,U2,20,PA14*%
%TO.N,SWDCLK*%
X82400000Y-91400000D03*
%TD*%
D19*
%TO.P,S2,1,1*%
%TO.N,GND*%
X103960600Y-90323800D03*
%TO.P,S2,2,1*%
%TO.N,unconnected-(S2-Pad2)*%
X103960600Y-96826200D03*
%TO.P,S2,3,2*%
%TO.N,~{RESET}*%
X99439400Y-90323800D03*
%TO.P,S2,4,2*%
%TO.N,unconnected-(S2-Pad4)*%
X99439400Y-96826200D03*
%TD*%
D26*
%TO.P,J1,1,VBUS*%
%TO.N,VBUS*%
X59210000Y-84750000D03*
%TO.P,J1,2,D-*%
%TO.N,USB_D-*%
X59210000Y-85400000D03*
%TO.P,J1,3,D+*%
%TO.N,USB_D+*%
X59210000Y-86050000D03*
%TO.P,J1,4,ID*%
%TO.N,unconnected-(J1-Pad4)*%
X59210000Y-86700000D03*
%TO.P,J1,5,GND*%
%TO.N,GND*%
X59210000Y-87350000D03*
D27*
%TO.P,J1,6,Shield*%
X56510000Y-87050000D03*
X56510000Y-85050000D03*
D28*
X56510000Y-88950000D03*
D29*
X59210000Y-83550000D03*
D30*
X56510000Y-82550000D03*
X56510000Y-89550000D03*
D28*
X56510000Y-83150000D03*
D29*
X59210000Y-88550000D03*
%TD*%
D10*
%TO.P,JP2,1,A*%
%TO.N,CAN_TX*%
X78525000Y-97425000D03*
D11*
%TO.P,JP2,2,C*%
%TO.N,Net-(JP2-Pad2)*%
X78525000Y-94885000D03*
%TO.P,JP2,3,B*%
%TO.N,USB_D+*%
X78525000Y-92345000D03*
%TD*%
D31*
%TO.P,FB1,1*%
%TO.N,/VDDA*%
X94400000Y-88775000D03*
%TO.P,FB1,2*%
%TO.N,+3V3*%
X96450000Y-88775000D03*
%TD*%
D32*
%TO.P,U4,1,TXD*%
%TO.N,CAN_TX*%
X73325000Y-88015000D03*
%TO.P,U4,2,VSS*%
%TO.N,GND*%
X73325000Y-86745000D03*
%TO.P,U4,3,VDD*%
%TO.N,+5V*%
X73325000Y-85475000D03*
%TO.P,U4,4,RXD*%
%TO.N,CAN_RX*%
X73325000Y-84205000D03*
%TO.P,U4,5,Vio*%
%TO.N,+3V3*%
X68375000Y-84205000D03*
%TO.P,U4,6,CANL*%
%TO.N,CANL*%
X68375000Y-85475000D03*
%TO.P,U4,7,CANH*%
%TO.N,CANH*%
X68375000Y-86745000D03*
%TO.P,U4,8,STBY*%
%TO.N,CAN_STBY*%
X68375000Y-88015000D03*
%TD*%
D33*
%TO.N,+3V3*%
X85300000Y-78300000D03*
%TO.N,SDA*%
X102443245Y-72256755D03*
%TO.N,SCL*%
X103150000Y-71550000D03*
%TO.N,SDA*%
X88050000Y-83650000D03*
%TO.N,SCL*%
X85325000Y-83675000D03*
%TO.N,SDA*%
X86300000Y-90750000D03*
%TO.N,SCL*%
X86275000Y-89750000D03*
%TO.N,VIN-*%
X100650000Y-77150000D03*
%TO.N,VIN+*%
X99950000Y-75050000D03*
%TO.N,+3V3*%
X98675000Y-80075000D03*
X103975000Y-70775000D03*
%TO.N,GND*%
X104575000Y-75775000D03*
X80450000Y-88350000D03*
X72725000Y-70575000D03*
X93350000Y-91850000D03*
X80600000Y-85425000D03*
X75300000Y-86775000D03*
%TO.N,+3V3*%
X78150000Y-80600000D03*
X85100000Y-88800000D03*
X93575000Y-81950000D03*
X78750000Y-89250000D03*
X68975000Y-82275000D03*
%TO.N,VBUS*%
X57884502Y-84775000D03*
%TO.N,USB_D-*%
X63750000Y-85825000D03*
%TO.N,USB_D+*%
X63050000Y-86875000D03*
%TO.N,CAN_RX*%
X71525000Y-84850000D03*
%TO.N,Net-(JP1-Pad2)*%
X80025000Y-89475000D03*
%TO.N,CAN_TX*%
X75400000Y-88550000D03*
%TO.N,Net-(JP2-Pad2)*%
X80950000Y-90450000D03*
%TO.N,CAN_STBY*%
X70550000Y-87450000D03*
X79650000Y-87500000D03*
%TO.N,TXD2*%
X90600000Y-86275000D03*
%TO.N,RXD2*%
X89990592Y-85482770D03*
%TO.N,~{RESET}*%
X90475000Y-90300000D03*
%TD*%
D34*
%TO.N,SDA*%
X103190000Y-73003510D02*
X102443245Y-72256755D01*
X103190000Y-73384300D02*
X103190000Y-73003510D01*
%TO.N,SCL*%
X103840001Y-72240001D02*
X103150000Y-71550000D01*
X103840001Y-73384300D02*
X103840001Y-72240001D01*
%TO.N,SDA*%
X88125000Y-90750000D02*
X86300000Y-90750000D01*
%TO.N,SCL*%
X86625000Y-90100000D02*
X86275000Y-89750000D01*
X88125000Y-90100000D02*
X86625000Y-90100000D01*
D35*
%TO.N,VIN-*%
X101340001Y-76459999D02*
X100650000Y-77150000D01*
X102064300Y-76459999D02*
X101340001Y-76459999D01*
%TO.N,VIN+*%
X100060001Y-75160001D02*
X99950000Y-75050000D01*
X102064300Y-75160001D02*
X100060001Y-75160001D01*
D34*
%TO.N,GND*%
X105139999Y-73384300D02*
X105139999Y-75160001D01*
X105139999Y-75160001D02*
X104490000Y-75810000D01*
X105790000Y-73384300D02*
X105790000Y-74560000D01*
X105790000Y-74560000D02*
X104575000Y-75775000D01*
X104490000Y-73384300D02*
X104490000Y-75810000D01*
X102064300Y-77110000D02*
X103190000Y-77110000D01*
X103190000Y-77110000D02*
X104490000Y-75810000D01*
X102064300Y-74510000D02*
X103190000Y-74510000D01*
X103190000Y-74510000D02*
X104490000Y-75810000D01*
X102064300Y-75810000D02*
X104490000Y-75810000D01*
X106915700Y-75810000D02*
X104610000Y-75810000D01*
X104610000Y-75810000D02*
X104575000Y-75775000D01*
X105790000Y-78235700D02*
X105790000Y-77110000D01*
X105790000Y-77110000D02*
X104490000Y-75810000D01*
%TO.N,+3V3*%
X104490000Y-78235700D02*
X104490000Y-79535000D01*
D35*
%TO.N,VIN+*%
X103190000Y-78235700D02*
X103190000Y-80540000D01*
X103190000Y-80540000D02*
X104750000Y-82100000D01*
D34*
%TO.N,GND*%
X104540000Y-75810000D02*
X104575000Y-75775000D01*
X104490000Y-75810000D02*
X104540000Y-75810000D01*
D36*
X70225000Y-70050000D02*
X72200000Y-70050000D01*
D34*
X75300000Y-86775000D02*
X73355000Y-86775000D01*
X92337500Y-90837500D02*
X93350000Y-91850000D01*
D36*
X72200000Y-70050000D02*
X72725000Y-70575000D01*
D34*
X78975000Y-84725000D02*
X80175000Y-84725000D01*
X80600000Y-85150000D02*
X80600000Y-85425000D01*
X73355000Y-86775000D02*
X73325000Y-86745000D01*
X92325000Y-90837500D02*
X92337500Y-90837500D01*
X80175000Y-84725000D02*
X80600000Y-85150000D01*
X56510000Y-87050000D02*
X56510000Y-89550000D01*
X56510000Y-85050000D02*
X56510000Y-82550000D01*
X59210000Y-87350000D02*
X59210000Y-88550000D01*
X80650000Y-88150000D02*
X80450000Y-88350000D01*
X82400000Y-88150000D02*
X80650000Y-88150000D01*
%TO.N,+3V3*%
X77175000Y-89250000D02*
X76475000Y-88550000D01*
X68375000Y-82875000D02*
X68975000Y-82275000D01*
X68375000Y-84205000D02*
X68375000Y-82875000D01*
X76475000Y-88550000D02*
X76475000Y-87525000D01*
X82400000Y-88800000D02*
X84700000Y-88800000D01*
X84700000Y-88800000D02*
X85100000Y-88800000D01*
X78750000Y-89250000D02*
X77175000Y-89250000D01*
D36*
%TO.N,+12V*%
X71397600Y-75922600D02*
X75247300Y-75922600D01*
X67450000Y-71775000D02*
X68850000Y-73175000D01*
X68850000Y-73175000D02*
X70225000Y-73175000D01*
X70225000Y-74750000D02*
X71397600Y-75922600D01*
X70225000Y-73175000D02*
X70225000Y-74750000D01*
D34*
%TO.N,+5V*%
X73325000Y-85475000D02*
X75350000Y-85475000D01*
X75350000Y-85475000D02*
X76100000Y-84725000D01*
%TO.N,+BATT*%
X59625000Y-78110000D02*
X59660000Y-78075000D01*
D36*
X59660000Y-72840000D02*
X60725000Y-71775000D01*
X59660000Y-78075000D02*
X59660000Y-72840000D01*
X60725000Y-71775000D02*
X63000000Y-71775000D01*
D34*
%TO.N,VBUS*%
X57909502Y-84750000D02*
X57884502Y-84775000D01*
X59210000Y-84750000D02*
X57909502Y-84750000D01*
D35*
%TO.N,USB_D-*%
X59210000Y-85400000D02*
X63325000Y-85400000D01*
X63325000Y-85400000D02*
X63750000Y-85825000D01*
%TO.N,USB_D+*%
X62225000Y-86050000D02*
X63050000Y-86875000D01*
X59210000Y-86050000D02*
X62225000Y-86050000D01*
D34*
%TO.N,CANH*%
X65700000Y-87200000D02*
X65700000Y-89000000D01*
X65700000Y-89000000D02*
X62165000Y-92535000D01*
X66155000Y-86745000D02*
X65700000Y-87200000D01*
X68375000Y-86745000D02*
X66155000Y-86745000D01*
X62165000Y-92535000D02*
X62165000Y-94100000D01*
%TO.N,CANL*%
X64740000Y-82240000D02*
X64740000Y-78075000D01*
X65700000Y-83200000D02*
X64740000Y-82240000D01*
X65700000Y-85200000D02*
X65700000Y-83200000D01*
X68375000Y-85475000D02*
X65975000Y-85475000D01*
X65975000Y-85475000D02*
X65700000Y-85200000D01*
%TO.N,CAN_RX*%
X73325000Y-84205000D02*
X72170000Y-84205000D01*
X72170000Y-84205000D02*
X71525000Y-84850000D01*
%TO.N,Net-(JP1-Pad2)*%
X80050000Y-89450000D02*
X82400000Y-89450000D01*
X80025000Y-89475000D02*
X80050000Y-89450000D01*
%TO.N,CAN_TX*%
X74865000Y-88015000D02*
X75400000Y-88550000D01*
X73325000Y-88015000D02*
X74865000Y-88015000D01*
%TO.N,Net-(JP2-Pad2)*%
X81300000Y-90100000D02*
X80950000Y-90450000D01*
X82400000Y-90100000D02*
X81300000Y-90100000D01*
%TO.N,Net-(R1-Pad1)*%
X88125000Y-91400000D02*
X90315600Y-91400000D01*
X91914400Y-92998800D02*
X91914400Y-99501200D01*
X90315600Y-91400000D02*
X91914400Y-92998800D01*
%TO.N,CAN_STBY*%
X68375000Y-88015000D02*
X69985000Y-88015000D01*
X78475000Y-87525000D02*
X79625000Y-87525000D01*
X69985000Y-88015000D02*
X70550000Y-87450000D01*
X79625000Y-87525000D02*
X79650000Y-87500000D01*
X78100000Y-87500000D02*
X79650000Y-87500000D01*
X82400000Y-87500000D02*
X79650000Y-87500000D01*
%TO.N,TXD2*%
X90025000Y-86850000D02*
X90600000Y-86275000D01*
X88125000Y-86850000D02*
X90025000Y-86850000D01*
%TO.N,RXD2*%
X89273362Y-86200000D02*
X89990592Y-85482770D01*
X88125000Y-86200000D02*
X89273362Y-86200000D01*
%TO.N,SWDIO*%
X82400000Y-90750000D02*
X83850000Y-90750000D01*
X83850000Y-90750000D02*
X87490000Y-94390000D01*
X87490000Y-94390000D02*
X87490000Y-96350000D01*
%TO.N,SWDCLK*%
X82400000Y-91400000D02*
X82410000Y-91410000D01*
X82410000Y-91410000D02*
X82410000Y-96350000D01*
%TO.N,~{RESET}*%
X89625000Y-89450000D02*
X90475000Y-90300000D01*
X99439400Y-90323800D02*
X99439400Y-96826200D01*
X88125000Y-89450000D02*
X89625000Y-89450000D01*
%TO.N,/VDDA*%
X92287500Y-88800000D02*
X92325000Y-88762500D01*
X88125000Y-88800000D02*
X92287500Y-88800000D01*
X94400000Y-88775000D02*
X92337500Y-88775000D01*
X92337500Y-88775000D02*
X92325000Y-88762500D01*
%TD*%
%TA.AperFunction,Conductor*%
%TO.N,+5V*%
G36*
X77266451Y-77245371D02*
G01*
X77313281Y-77298733D01*
X77325000Y-77351797D01*
X77325000Y-80181961D01*
X77315143Y-80228337D01*
X77315473Y-80228444D01*
X77256458Y-80410072D01*
X77236496Y-80600000D01*
X77256458Y-80789928D01*
X77314454Y-80968420D01*
X77315473Y-80971556D01*
X77315143Y-80971663D01*
X77325000Y-81018039D01*
X77325000Y-83611515D01*
X77304998Y-83679636D01*
X77251342Y-83726129D01*
X77181068Y-83736233D01*
X77120908Y-83710397D01*
X77104260Y-83697249D01*
X76966257Y-83612184D01*
X76953076Y-83606037D01*
X76798790Y-83554862D01*
X76785414Y-83551995D01*
X76691062Y-83542328D01*
X76684645Y-83542000D01*
X76372115Y-83542000D01*
X76356876Y-83546475D01*
X76355671Y-83547865D01*
X76354000Y-83555548D01*
X76354000Y-85889884D01*
X76358475Y-85905123D01*
X76359865Y-85906328D01*
X76367548Y-85907999D01*
X76684595Y-85907999D01*
X76691114Y-85907662D01*
X76786706Y-85897743D01*
X76800100Y-85894851D01*
X76954284Y-85843412D01*
X76967462Y-85837239D01*
X77105312Y-85751934D01*
X77120738Y-85739708D01*
X77186548Y-85713072D01*
X77256312Y-85726244D01*
X77307880Y-85775042D01*
X77325000Y-85838455D01*
X77325000Y-86268699D01*
X77304998Y-86336820D01*
X77251342Y-86383313D01*
X77181068Y-86393417D01*
X77149624Y-86384048D01*
X77147738Y-86382885D01*
X77140793Y-86380582D01*
X77140790Y-86380580D01*
X76986389Y-86329368D01*
X76986387Y-86329368D01*
X76979861Y-86327203D01*
X76973025Y-86326503D01*
X76973022Y-86326502D01*
X76929969Y-86322091D01*
X76875400Y-86316500D01*
X76157076Y-86316500D01*
X76088955Y-86296498D01*
X76047958Y-86253502D01*
X76042341Y-86243774D01*
X76039040Y-86238056D01*
X75922388Y-86108500D01*
X75915675Y-86101045D01*
X75915674Y-86101044D01*
X75911253Y-86096134D01*
X75878093Y-86072041D01*
X75834739Y-86015820D01*
X75828664Y-85945084D01*
X75840003Y-85922020D01*
X75846000Y-85894452D01*
X75846000Y-83560116D01*
X75841525Y-83544877D01*
X75840135Y-83543672D01*
X75832452Y-83542001D01*
X75515405Y-83542001D01*
X75508886Y-83542338D01*
X75413294Y-83552257D01*
X75399900Y-83555149D01*
X75245716Y-83606588D01*
X75232538Y-83612761D01*
X75094693Y-83698063D01*
X75083292Y-83707099D01*
X74963590Y-83827009D01*
X74961681Y-83825103D01*
X74913976Y-83858925D01*
X74843053Y-83862156D01*
X74781641Y-83826531D01*
X74759711Y-83793347D01*
X74759145Y-83791399D01*
X74751323Y-83778172D01*
X74678491Y-83655020D01*
X74678489Y-83655017D01*
X74674453Y-83648193D01*
X74556807Y-83530547D01*
X74549983Y-83526511D01*
X74549980Y-83526509D01*
X74420427Y-83449892D01*
X74420428Y-83449892D01*
X74413601Y-83445855D01*
X74405990Y-83443644D01*
X74405988Y-83443643D01*
X74343541Y-83425501D01*
X74253831Y-83399438D01*
X74247426Y-83398934D01*
X74247421Y-83398933D01*
X74218958Y-83396693D01*
X74218950Y-83396693D01*
X74216502Y-83396500D01*
X72433498Y-83396500D01*
X72431050Y-83396693D01*
X72431042Y-83396693D01*
X72402579Y-83398933D01*
X72402574Y-83398934D01*
X72396169Y-83399438D01*
X72306459Y-83425501D01*
X72244012Y-83443643D01*
X72244010Y-83443644D01*
X72236399Y-83445855D01*
X72229572Y-83449892D01*
X72229573Y-83449892D01*
X72100020Y-83526509D01*
X72100017Y-83526511D01*
X72093193Y-83530547D01*
X72069194Y-83554546D01*
X72013675Y-83586214D01*
X72011203Y-83586526D01*
X72003834Y-83589443D01*
X72003832Y-83589444D01*
X71970092Y-83602802D01*
X71958865Y-83606646D01*
X71916407Y-83618982D01*
X71909581Y-83623019D01*
X71898972Y-83629293D01*
X71881224Y-83637988D01*
X71862383Y-83645448D01*
X71855967Y-83650110D01*
X71855966Y-83650110D01*
X71826613Y-83671436D01*
X71816693Y-83677952D01*
X71785465Y-83696420D01*
X71785462Y-83696422D01*
X71778638Y-83700458D01*
X71764317Y-83714779D01*
X71749284Y-83727619D01*
X71732893Y-83739528D01*
X71727840Y-83745636D01*
X71704708Y-83773598D01*
X71696718Y-83782378D01*
X71574501Y-83904595D01*
X71512189Y-83938621D01*
X71485406Y-83941500D01*
X71429513Y-83941500D01*
X71423061Y-83942872D01*
X71423056Y-83942872D01*
X71336113Y-83961353D01*
X71242712Y-83981206D01*
X71236682Y-83983891D01*
X71236681Y-83983891D01*
X71074278Y-84056197D01*
X71074276Y-84056198D01*
X71068248Y-84058882D01*
X70913747Y-84171134D01*
X70909326Y-84176044D01*
X70909325Y-84176045D01*
X70813267Y-84282729D01*
X70785960Y-84313056D01*
X70749820Y-84375652D01*
X70701797Y-84458831D01*
X70690473Y-84478444D01*
X70631458Y-84660072D01*
X70630768Y-84666633D01*
X70630768Y-84666635D01*
X70617644Y-84791502D01*
X70611496Y-84850000D01*
X70612186Y-84856565D01*
X70628372Y-85010562D01*
X70631458Y-85039928D01*
X70690473Y-85221556D01*
X70693776Y-85227278D01*
X70693777Y-85227279D01*
X70727686Y-85286010D01*
X70785960Y-85386944D01*
X70790378Y-85391851D01*
X70790379Y-85391852D01*
X70909325Y-85523955D01*
X70913747Y-85528866D01*
X71068248Y-85641118D01*
X71074276Y-85643802D01*
X71074278Y-85643803D01*
X71186929Y-85693958D01*
X71242712Y-85718794D01*
X71336113Y-85738647D01*
X71423056Y-85757128D01*
X71423061Y-85757128D01*
X71429513Y-85758500D01*
X71620487Y-85758500D01*
X71626939Y-85757128D01*
X71626944Y-85757128D01*
X71708896Y-85739708D01*
X71725494Y-85736180D01*
X71796284Y-85741582D01*
X71852916Y-85784399D01*
X71872687Y-85824273D01*
X71889107Y-85880790D01*
X71895352Y-85895221D01*
X71971911Y-86024677D01*
X71977871Y-86032360D01*
X72003820Y-86098444D01*
X71989922Y-86168067D01*
X71979579Y-86184161D01*
X71975547Y-86188193D01*
X71890855Y-86331399D01*
X71888644Y-86339010D01*
X71888643Y-86339012D01*
X71881981Y-86361944D01*
X71844438Y-86491169D01*
X71843934Y-86497574D01*
X71843933Y-86497579D01*
X71842587Y-86514687D01*
X71841500Y-86528498D01*
X71841500Y-86961502D01*
X71844438Y-86998831D01*
X71890855Y-87158601D01*
X71975547Y-87301807D01*
X71978229Y-87304489D01*
X72003502Y-87368861D01*
X71989600Y-87438484D01*
X71979428Y-87454312D01*
X71975547Y-87458193D01*
X71890855Y-87601399D01*
X71844438Y-87761169D01*
X71841500Y-87798498D01*
X71841500Y-88231502D01*
X71844438Y-88268831D01*
X71890855Y-88428601D01*
X71898677Y-88441827D01*
X71971509Y-88564980D01*
X71971511Y-88564983D01*
X71975547Y-88571807D01*
X72093193Y-88689453D01*
X72100017Y-88693489D01*
X72100020Y-88693491D01*
X72174598Y-88737596D01*
X72236399Y-88774145D01*
X72244010Y-88776356D01*
X72244012Y-88776357D01*
X72296231Y-88791528D01*
X72396169Y-88820562D01*
X72402574Y-88821066D01*
X72402579Y-88821067D01*
X72431042Y-88823307D01*
X72431050Y-88823307D01*
X72433498Y-88823500D01*
X74216502Y-88823500D01*
X74218950Y-88823307D01*
X74218958Y-88823307D01*
X74247421Y-88821067D01*
X74247426Y-88821066D01*
X74253831Y-88820562D01*
X74260003Y-88818769D01*
X74260008Y-88818768D01*
X74325149Y-88799843D01*
X74391355Y-88780608D01*
X74462349Y-88780811D01*
X74521966Y-88819365D01*
X74546339Y-88862668D01*
X74565473Y-88921556D01*
X74660960Y-89086944D01*
X74665378Y-89091851D01*
X74665379Y-89091852D01*
X74693295Y-89122856D01*
X74788747Y-89228866D01*
X74873020Y-89290094D01*
X74911110Y-89317768D01*
X74943248Y-89341118D01*
X74949276Y-89343802D01*
X74949278Y-89343803D01*
X75111681Y-89416109D01*
X75117712Y-89418794D01*
X75211112Y-89438647D01*
X75298056Y-89457128D01*
X75298061Y-89457128D01*
X75304513Y-89458500D01*
X75495487Y-89458500D01*
X75501939Y-89457128D01*
X75501944Y-89457128D01*
X75588888Y-89438647D01*
X75682288Y-89418794D01*
X75688319Y-89416109D01*
X75850722Y-89343803D01*
X75850724Y-89343802D01*
X75856752Y-89341118D01*
X75888891Y-89317768D01*
X76002728Y-89235060D01*
X76011253Y-89228866D01*
X76039299Y-89197718D01*
X76099745Y-89160479D01*
X76170729Y-89161831D01*
X76222030Y-89192934D01*
X76562739Y-89533643D01*
X76596765Y-89595955D01*
X76591700Y-89666770D01*
X76549153Y-89723606D01*
X76482633Y-89748417D01*
X76473457Y-89748738D01*
X69330670Y-89738157D01*
X66166438Y-89733469D01*
X66098348Y-89713366D01*
X66051935Y-89659641D01*
X66041935Y-89589353D01*
X66071524Y-89524816D01*
X66077531Y-89518374D01*
X66092253Y-89503652D01*
X66100539Y-89496112D01*
X66107018Y-89492000D01*
X66153644Y-89442348D01*
X66156398Y-89439507D01*
X66176135Y-89419770D01*
X66178615Y-89416573D01*
X66186320Y-89407551D01*
X66211159Y-89381100D01*
X66216586Y-89375321D01*
X66220405Y-89368375D01*
X66220407Y-89368372D01*
X66226348Y-89357566D01*
X66237199Y-89341047D01*
X66244758Y-89331301D01*
X66249614Y-89325041D01*
X66252759Y-89317772D01*
X66252762Y-89317768D01*
X66267174Y-89284463D01*
X66272391Y-89273813D01*
X66293695Y-89235060D01*
X66298733Y-89215437D01*
X66305137Y-89196734D01*
X66310033Y-89185420D01*
X66310033Y-89185419D01*
X66313181Y-89178145D01*
X66314420Y-89170322D01*
X66314423Y-89170312D01*
X66320099Y-89134476D01*
X66322505Y-89122856D01*
X66331528Y-89087711D01*
X66331528Y-89087710D01*
X66333500Y-89080030D01*
X66333500Y-89059776D01*
X66335051Y-89040065D01*
X66336980Y-89027886D01*
X66338220Y-89020057D01*
X66334059Y-88976038D01*
X66333500Y-88964181D01*
X66333500Y-88379197D01*
X66353502Y-88311076D01*
X66407158Y-88264583D01*
X66419623Y-88259674D01*
X66467002Y-88243867D01*
X66467004Y-88243866D01*
X66473946Y-88241550D01*
X66490184Y-88231502D01*
X66618120Y-88152332D01*
X66624348Y-88148478D01*
X66629521Y-88143296D01*
X66629526Y-88143292D01*
X66676327Y-88096409D01*
X66738609Y-88062329D01*
X66809429Y-88067332D01*
X66866302Y-88109829D01*
X66891171Y-88176327D01*
X66891500Y-88185426D01*
X66891500Y-88231502D01*
X66894438Y-88268831D01*
X66940855Y-88428601D01*
X66948677Y-88441827D01*
X67021509Y-88564980D01*
X67021511Y-88564983D01*
X67025547Y-88571807D01*
X67143193Y-88689453D01*
X67150017Y-88693489D01*
X67150020Y-88693491D01*
X67224598Y-88737596D01*
X67286399Y-88774145D01*
X67294010Y-88776356D01*
X67294012Y-88776357D01*
X67346231Y-88791528D01*
X67446169Y-88820562D01*
X67452574Y-88821066D01*
X67452579Y-88821067D01*
X67481042Y-88823307D01*
X67481050Y-88823307D01*
X67483498Y-88823500D01*
X69266502Y-88823500D01*
X69268950Y-88823307D01*
X69268958Y-88823307D01*
X69297421Y-88821067D01*
X69297426Y-88821066D01*
X69303831Y-88820562D01*
X69403769Y-88791528D01*
X69455988Y-88776357D01*
X69455990Y-88776356D01*
X69463601Y-88774145D01*
X69525402Y-88737596D01*
X69599980Y-88693491D01*
X69599983Y-88693489D01*
X69606807Y-88689453D01*
X69612416Y-88683844D01*
X69618675Y-88678989D01*
X69619844Y-88680496D01*
X69673167Y-88651379D01*
X69699950Y-88648500D01*
X69906233Y-88648500D01*
X69917416Y-88649027D01*
X69924909Y-88650702D01*
X69932835Y-88650453D01*
X69932836Y-88650453D01*
X69992986Y-88648562D01*
X69996945Y-88648500D01*
X70024856Y-88648500D01*
X70028791Y-88648003D01*
X70028856Y-88647995D01*
X70040693Y-88647062D01*
X70072951Y-88646048D01*
X70076970Y-88645922D01*
X70084889Y-88645673D01*
X70104343Y-88640021D01*
X70123700Y-88636013D01*
X70135930Y-88634468D01*
X70135931Y-88634468D01*
X70143797Y-88633474D01*
X70151168Y-88630555D01*
X70151170Y-88630555D01*
X70184912Y-88617196D01*
X70196142Y-88613351D01*
X70230983Y-88603229D01*
X70230984Y-88603229D01*
X70238593Y-88601018D01*
X70245412Y-88596985D01*
X70245417Y-88596983D01*
X70256028Y-88590707D01*
X70273776Y-88582012D01*
X70292617Y-88574552D01*
X70328387Y-88548564D01*
X70338307Y-88542048D01*
X70369535Y-88523580D01*
X70369538Y-88523578D01*
X70376362Y-88519542D01*
X70390683Y-88505221D01*
X70405717Y-88492380D01*
X70415694Y-88485131D01*
X70422107Y-88480472D01*
X70450298Y-88446395D01*
X70458288Y-88437616D01*
X70500499Y-88395405D01*
X70562811Y-88361379D01*
X70589594Y-88358500D01*
X70645487Y-88358500D01*
X70651939Y-88357128D01*
X70651944Y-88357128D01*
X70738888Y-88338647D01*
X70832288Y-88318794D01*
X70849623Y-88311076D01*
X71000722Y-88243803D01*
X71000724Y-88243802D01*
X71006752Y-88241118D01*
X71161253Y-88128866D01*
X71178394Y-88109829D01*
X71284621Y-87991852D01*
X71284622Y-87991851D01*
X71289040Y-87986944D01*
X71384527Y-87821556D01*
X71443542Y-87639928D01*
X71446792Y-87609012D01*
X71462814Y-87456565D01*
X71463504Y-87450000D01*
X71448030Y-87302775D01*
X71444232Y-87266635D01*
X71444232Y-87266633D01*
X71443542Y-87260072D01*
X71384527Y-87078444D01*
X71289040Y-86913056D01*
X71260686Y-86881565D01*
X71165675Y-86776045D01*
X71165674Y-86776044D01*
X71161253Y-86771134D01*
X71047673Y-86688613D01*
X71012094Y-86662763D01*
X71012093Y-86662762D01*
X71006752Y-86658882D01*
X71000724Y-86656198D01*
X71000722Y-86656197D01*
X70838319Y-86583891D01*
X70838318Y-86583891D01*
X70832288Y-86581206D01*
X70738888Y-86561353D01*
X70651944Y-86542872D01*
X70651939Y-86542872D01*
X70645487Y-86541500D01*
X70454513Y-86541500D01*
X70448061Y-86542872D01*
X70448056Y-86542872D01*
X70361112Y-86561353D01*
X70267712Y-86581206D01*
X70261682Y-86583891D01*
X70261681Y-86583891D01*
X70099278Y-86656197D01*
X70099276Y-86656198D01*
X70093248Y-86658882D01*
X70058559Y-86684085D01*
X69991694Y-86707942D01*
X69922543Y-86691862D01*
X69873062Y-86640949D01*
X69858500Y-86582148D01*
X69858500Y-86528498D01*
X69857413Y-86514687D01*
X69856067Y-86497579D01*
X69856066Y-86497574D01*
X69855562Y-86491169D01*
X69818019Y-86361944D01*
X69811357Y-86339012D01*
X69811356Y-86339010D01*
X69809145Y-86331399D01*
X69724453Y-86188193D01*
X69721771Y-86185511D01*
X69696498Y-86121139D01*
X69710400Y-86051516D01*
X69720572Y-86035688D01*
X69724453Y-86031807D01*
X69809145Y-85888601D01*
X69811415Y-85880790D01*
X69839418Y-85784399D01*
X69855562Y-85728831D01*
X69856564Y-85716109D01*
X69858307Y-85693958D01*
X69858307Y-85693950D01*
X69858500Y-85691502D01*
X69858500Y-85258498D01*
X69855562Y-85221169D01*
X69809145Y-85061399D01*
X69724453Y-84918193D01*
X69721771Y-84915511D01*
X69696498Y-84851139D01*
X69710400Y-84781516D01*
X69720572Y-84765688D01*
X69724453Y-84761807D01*
X69809145Y-84618601D01*
X69855562Y-84458831D01*
X69858500Y-84421502D01*
X69858500Y-83988498D01*
X69858307Y-83986042D01*
X69856067Y-83957579D01*
X69856066Y-83957574D01*
X69855562Y-83951169D01*
X69809145Y-83791399D01*
X69771426Y-83727620D01*
X69728491Y-83655020D01*
X69728489Y-83655017D01*
X69724453Y-83648193D01*
X69606807Y-83530547D01*
X69599983Y-83526511D01*
X69599980Y-83526509D01*
X69470427Y-83449892D01*
X69470428Y-83449892D01*
X69463601Y-83445855D01*
X69455990Y-83443644D01*
X69455988Y-83443643D01*
X69393541Y-83425501D01*
X69303831Y-83399438D01*
X69297426Y-83398934D01*
X69297421Y-83398933D01*
X69268956Y-83396693D01*
X69268952Y-83396693D01*
X69266502Y-83396500D01*
X69264029Y-83396500D01*
X69262166Y-83396427D01*
X69194881Y-83373773D01*
X69150525Y-83318337D01*
X69143181Y-83247722D01*
X69175181Y-83184345D01*
X69240901Y-83147278D01*
X69250826Y-83145168D01*
X69250830Y-83145167D01*
X69257288Y-83143794D01*
X69337616Y-83108030D01*
X69425722Y-83068803D01*
X69425724Y-83068802D01*
X69431752Y-83066118D01*
X69438384Y-83061300D01*
X69538091Y-82988858D01*
X69586253Y-82953866D01*
X69592969Y-82946407D01*
X69709621Y-82816852D01*
X69709622Y-82816851D01*
X69714040Y-82811944D01*
X69802018Y-82659562D01*
X69806223Y-82652279D01*
X69806224Y-82652278D01*
X69809527Y-82646556D01*
X69868542Y-82464928D01*
X69871785Y-82434079D01*
X69887814Y-82281565D01*
X69888504Y-82275000D01*
X69868542Y-82085072D01*
X69809527Y-81903444D01*
X69791528Y-81872269D01*
X73839301Y-81872269D01*
X73839671Y-81879090D01*
X73845195Y-81929952D01*
X73848821Y-81945204D01*
X73893976Y-82065654D01*
X73902514Y-82081249D01*
X73979015Y-82183324D01*
X73991576Y-82195885D01*
X74093651Y-82272386D01*
X74109246Y-82280924D01*
X74229694Y-82326078D01*
X74244949Y-82329705D01*
X74295814Y-82335231D01*
X74302628Y-82335600D01*
X74925185Y-82335600D01*
X74940424Y-82331125D01*
X74941629Y-82329735D01*
X74943300Y-82322052D01*
X74943300Y-82317484D01*
X75451300Y-82317484D01*
X75455775Y-82332723D01*
X75457165Y-82333928D01*
X75464848Y-82335599D01*
X76091969Y-82335599D01*
X76098790Y-82335229D01*
X76149652Y-82329705D01*
X76164904Y-82326079D01*
X76285354Y-82280924D01*
X76300949Y-82272386D01*
X76403024Y-82195885D01*
X76415585Y-82183324D01*
X76492086Y-82081249D01*
X76500624Y-82065654D01*
X76545778Y-81945206D01*
X76549405Y-81929951D01*
X76554931Y-81879086D01*
X76555300Y-81872272D01*
X76555300Y-81249715D01*
X76550825Y-81234476D01*
X76549435Y-81233271D01*
X76541752Y-81231600D01*
X75469415Y-81231600D01*
X75454176Y-81236075D01*
X75452971Y-81237465D01*
X75451300Y-81245148D01*
X75451300Y-82317484D01*
X74943300Y-82317484D01*
X74943300Y-81249715D01*
X74938825Y-81234476D01*
X74937435Y-81233271D01*
X74929752Y-81231600D01*
X73857416Y-81231600D01*
X73842177Y-81236075D01*
X73840972Y-81237465D01*
X73839301Y-81245148D01*
X73839301Y-81872269D01*
X69791528Y-81872269D01*
X69714040Y-81738056D01*
X69586253Y-81596134D01*
X69431752Y-81483882D01*
X69425724Y-81481198D01*
X69425722Y-81481197D01*
X69263319Y-81408891D01*
X69263318Y-81408891D01*
X69257288Y-81406206D01*
X69163888Y-81386353D01*
X69076944Y-81367872D01*
X69076939Y-81367872D01*
X69070487Y-81366500D01*
X68879513Y-81366500D01*
X68873061Y-81367872D01*
X68873056Y-81367872D01*
X68786112Y-81386353D01*
X68692712Y-81406206D01*
X68686682Y-81408891D01*
X68686681Y-81408891D01*
X68524278Y-81481197D01*
X68524276Y-81481198D01*
X68518248Y-81483882D01*
X68363747Y-81596134D01*
X68235960Y-81738056D01*
X68140473Y-81903444D01*
X68081458Y-82085072D01*
X68080768Y-82091633D01*
X68080768Y-82091635D01*
X68064093Y-82250292D01*
X68037080Y-82315949D01*
X68027878Y-82326217D01*
X67982747Y-82371348D01*
X67974461Y-82378888D01*
X67967982Y-82383000D01*
X67962557Y-82388777D01*
X67921357Y-82432651D01*
X67918602Y-82435493D01*
X67898865Y-82455230D01*
X67896385Y-82458427D01*
X67888682Y-82467447D01*
X67858414Y-82499679D01*
X67854595Y-82506625D01*
X67854593Y-82506628D01*
X67848652Y-82517434D01*
X67837801Y-82533953D01*
X67825386Y-82549959D01*
X67822241Y-82557228D01*
X67822238Y-82557232D01*
X67807826Y-82590537D01*
X67802609Y-82601187D01*
X67781305Y-82639940D01*
X67779334Y-82647615D01*
X67779334Y-82647616D01*
X67776267Y-82659562D01*
X67769863Y-82678266D01*
X67761819Y-82696855D01*
X67760580Y-82704678D01*
X67760577Y-82704688D01*
X67754901Y-82740524D01*
X67752495Y-82752144D01*
X67743472Y-82787289D01*
X67741500Y-82794970D01*
X67741500Y-82815224D01*
X67739949Y-82834934D01*
X67736780Y-82854943D01*
X67737526Y-82862835D01*
X67740941Y-82898961D01*
X67741500Y-82910819D01*
X67741500Y-83270500D01*
X67721498Y-83338621D01*
X67667842Y-83385114D01*
X67615500Y-83396500D01*
X67483498Y-83396500D01*
X67481050Y-83396693D01*
X67481042Y-83396693D01*
X67452579Y-83398933D01*
X67452574Y-83398934D01*
X67446169Y-83399438D01*
X67356459Y-83425501D01*
X67294012Y-83443643D01*
X67294010Y-83443644D01*
X67286399Y-83445855D01*
X67279572Y-83449892D01*
X67279573Y-83449892D01*
X67150020Y-83526509D01*
X67150017Y-83526511D01*
X67143193Y-83530547D01*
X67025547Y-83648193D01*
X67021511Y-83655017D01*
X67021509Y-83655020D01*
X66978574Y-83727620D01*
X66940855Y-83791399D01*
X66894438Y-83951169D01*
X66893934Y-83957574D01*
X66893933Y-83957579D01*
X66891693Y-83986042D01*
X66891500Y-83988498D01*
X66891500Y-84214608D01*
X66871498Y-84282729D01*
X66817842Y-84329222D01*
X66747568Y-84339326D01*
X66682988Y-84309832D01*
X66676483Y-84303781D01*
X66628488Y-84255870D01*
X66628483Y-84255866D01*
X66623303Y-84250695D01*
X66617072Y-84246854D01*
X66478968Y-84161725D01*
X66478966Y-84161724D01*
X66472738Y-84157885D01*
X66419832Y-84140337D01*
X66361473Y-84099906D01*
X66334236Y-84034342D01*
X66333500Y-84020744D01*
X66333500Y-83278767D01*
X66334027Y-83267584D01*
X66335702Y-83260091D01*
X66333562Y-83192014D01*
X66333500Y-83188055D01*
X66333500Y-83160144D01*
X66332995Y-83156144D01*
X66332062Y-83144301D01*
X66330922Y-83108030D01*
X66330673Y-83100111D01*
X66325021Y-83080657D01*
X66321013Y-83061300D01*
X66319468Y-83049070D01*
X66319468Y-83049069D01*
X66318474Y-83041203D01*
X66315555Y-83033830D01*
X66302196Y-83000088D01*
X66298351Y-82988858D01*
X66288229Y-82954017D01*
X66288229Y-82954016D01*
X66286018Y-82946407D01*
X66281985Y-82939588D01*
X66281983Y-82939583D01*
X66275707Y-82928972D01*
X66267012Y-82911224D01*
X66259552Y-82892383D01*
X66238085Y-82862835D01*
X66233564Y-82856613D01*
X66227048Y-82846693D01*
X66208580Y-82815465D01*
X66208578Y-82815462D01*
X66204542Y-82808638D01*
X66190221Y-82794317D01*
X66177380Y-82779283D01*
X66170131Y-82769306D01*
X66165472Y-82762893D01*
X66159368Y-82757843D01*
X66159363Y-82757838D01*
X66131402Y-82734707D01*
X66122621Y-82726717D01*
X65410404Y-82014499D01*
X65376379Y-81952187D01*
X65373500Y-81925404D01*
X65373500Y-79783874D01*
X65393502Y-79715753D01*
X65447158Y-79669260D01*
X65498436Y-79657878D01*
X67353689Y-79642244D01*
X69381887Y-79625153D01*
X69381888Y-79625153D01*
X69400000Y-79625000D01*
X69400000Y-77400207D01*
X69420002Y-77332086D01*
X69473658Y-77285593D01*
X69525205Y-77274210D01*
X70023825Y-77271064D01*
X74162374Y-77244954D01*
X74230620Y-77264525D01*
X74277450Y-77317887D01*
X74287997Y-77388095D01*
X74254263Y-77458001D01*
X74137929Y-77579738D01*
X74012043Y-77764280D01*
X73917988Y-77966905D01*
X73858289Y-78182170D01*
X73834551Y-78404295D01*
X73834848Y-78409448D01*
X73834848Y-78409451D01*
X73846842Y-78617468D01*
X73847410Y-78627315D01*
X73848547Y-78632361D01*
X73848548Y-78632367D01*
X73868419Y-78720539D01*
X73896522Y-78845239D01*
X73980566Y-79052216D01*
X74097287Y-79242688D01*
X74243550Y-79411538D01*
X74247525Y-79414838D01*
X74247531Y-79414844D01*
X74252725Y-79419156D01*
X74292359Y-79478060D01*
X74293855Y-79549041D01*
X74256739Y-79609562D01*
X74216468Y-79634080D01*
X74109246Y-79674276D01*
X74093651Y-79682814D01*
X73991576Y-79759315D01*
X73979015Y-79771876D01*
X73902514Y-79873951D01*
X73893976Y-79889546D01*
X73848822Y-80009994D01*
X73845195Y-80025249D01*
X73839669Y-80076114D01*
X73839300Y-80082928D01*
X73839300Y-80705485D01*
X73843775Y-80720724D01*
X73845165Y-80721929D01*
X73852848Y-80723600D01*
X76537184Y-80723600D01*
X76552423Y-80719125D01*
X76553628Y-80717735D01*
X76555299Y-80710052D01*
X76555299Y-80082931D01*
X76554929Y-80076110D01*
X76549405Y-80025248D01*
X76545779Y-80009996D01*
X76500624Y-79889546D01*
X76492086Y-79873951D01*
X76415585Y-79771876D01*
X76403024Y-79759315D01*
X76300949Y-79682814D01*
X76285354Y-79674276D01*
X76175113Y-79632948D01*
X76118349Y-79590306D01*
X76093649Y-79523745D01*
X76108857Y-79454396D01*
X76130404Y-79425715D01*
X76231730Y-79324744D01*
X76231740Y-79324732D01*
X76235396Y-79321089D01*
X76294894Y-79238289D01*
X76362735Y-79143877D01*
X76365753Y-79139677D01*
X76430490Y-79008692D01*
X76462436Y-78944053D01*
X76462437Y-78944051D01*
X76464730Y-78939411D01*
X76529670Y-78725669D01*
X76558829Y-78504190D01*
X76560456Y-78437600D01*
X76542152Y-78214961D01*
X76487731Y-77998302D01*
X76398654Y-77793440D01*
X76277314Y-77605877D01*
X76128889Y-77442760D01*
X76097838Y-77378914D01*
X76106233Y-77308415D01*
X76151409Y-77253647D01*
X76221286Y-77231963D01*
X77138271Y-77226178D01*
X77198205Y-77225800D01*
X77266451Y-77245371D01*
G37*
%TD.AperFunction*%
%TD*%
%TA.AperFunction,Conductor*%
%TO.N,+3V3*%
G36*
X99961288Y-69127468D02*
G01*
X99976121Y-69129778D01*
X99976125Y-69129778D01*
X99984994Y-69131159D01*
X100008118Y-69128135D01*
X100028399Y-69127135D01*
X100583290Y-69144571D01*
X100591190Y-69145068D01*
X100925772Y-69176694D01*
X101176940Y-69200436D01*
X101184776Y-69201426D01*
X101503895Y-69251968D01*
X101765890Y-69293463D01*
X101773666Y-69294946D01*
X102347862Y-69423292D01*
X102355528Y-69425261D01*
X102756319Y-69541700D01*
X102841683Y-69566500D01*
X102920513Y-69589402D01*
X102928030Y-69591844D01*
X103267511Y-69714064D01*
X103481618Y-69791147D01*
X103488977Y-69794061D01*
X104028934Y-70027719D01*
X104036096Y-70031089D01*
X104306439Y-70168834D01*
X104560326Y-70298195D01*
X104567247Y-70301999D01*
X105073704Y-70601514D01*
X105080367Y-70605743D01*
X105343747Y-70784735D01*
X105566975Y-70936440D01*
X105573379Y-70941092D01*
X106038283Y-71301707D01*
X106044382Y-71306753D01*
X106485706Y-71695829D01*
X106491476Y-71701247D01*
X106907503Y-72117272D01*
X106912922Y-72123042D01*
X107291707Y-72552685D01*
X107302018Y-72564381D01*
X107307063Y-72570481D01*
X107667664Y-73035363D01*
X107672317Y-73041766D01*
X107730189Y-73126921D01*
X107976505Y-73489361D01*
X108003025Y-73528384D01*
X108007261Y-73535060D01*
X108285839Y-74006104D01*
X108306760Y-74041480D01*
X108310568Y-74048407D01*
X108555188Y-74528496D01*
X108577686Y-74572650D01*
X108581055Y-74579809D01*
X108767638Y-75010973D01*
X108814720Y-75119773D01*
X108817632Y-75127128D01*
X108992517Y-75612883D01*
X109016933Y-75680701D01*
X109019378Y-75688226D01*
X109163901Y-76185669D01*
X109183529Y-76253229D01*
X109185495Y-76260888D01*
X109208267Y-76362763D01*
X109313838Y-76835057D01*
X109315322Y-76842832D01*
X109379511Y-77248091D01*
X109395689Y-77350230D01*
X109407366Y-77423956D01*
X109408357Y-77431804D01*
X109409194Y-77440651D01*
X109463728Y-78017550D01*
X109464225Y-78025450D01*
X109481416Y-78572430D01*
X109479978Y-78595771D01*
X109478958Y-78602319D01*
X109478958Y-78602325D01*
X109477577Y-78611194D01*
X109478741Y-78620096D01*
X109478741Y-78620098D01*
X109481704Y-78642753D01*
X109482768Y-78659091D01*
X109482768Y-93568101D01*
X109481268Y-93587486D01*
X109478958Y-93602319D01*
X109478958Y-93602323D01*
X109477577Y-93611192D01*
X109478741Y-93620094D01*
X109478741Y-93620096D01*
X109479218Y-93623744D01*
X109480379Y-93632617D01*
X109480599Y-93634302D01*
X109481601Y-93654597D01*
X109464163Y-94209486D01*
X109463666Y-94217385D01*
X109424704Y-94629570D01*
X109409566Y-94789715D01*
X109408298Y-94803125D01*
X109407307Y-94810970D01*
X109378714Y-94991500D01*
X109315265Y-95392100D01*
X109313786Y-95399856D01*
X109185432Y-95974073D01*
X109183475Y-95981694D01*
X109019888Y-96544767D01*
X109019326Y-96546701D01*
X109016884Y-96554217D01*
X108948124Y-96745205D01*
X108817583Y-97107797D01*
X108814669Y-97115156D01*
X108581009Y-97655116D01*
X108577646Y-97662264D01*
X108398761Y-98013344D01*
X108310531Y-98186504D01*
X108306718Y-98193440D01*
X108007221Y-98699863D01*
X108002979Y-98706547D01*
X107954693Y-98777598D01*
X107777809Y-99037875D01*
X107672279Y-99193157D01*
X107667632Y-99199553D01*
X107307007Y-99664469D01*
X107301985Y-99670538D01*
X106979627Y-100036182D01*
X106912888Y-100111882D01*
X106907469Y-100117652D01*
X106491452Y-100533669D01*
X106485683Y-100539087D01*
X106044338Y-100928185D01*
X106038269Y-100933207D01*
X105885778Y-101051491D01*
X105573360Y-101293827D01*
X105566957Y-101298479D01*
X105080347Y-101629179D01*
X105073663Y-101633421D01*
X104567240Y-101932918D01*
X104560306Y-101936730D01*
X104036064Y-102203846D01*
X104028916Y-102207209D01*
X103488956Y-102440869D01*
X103481597Y-102443783D01*
X103204813Y-102543431D01*
X102928017Y-102643084D01*
X102920513Y-102645522D01*
X102355494Y-102809675D01*
X102347873Y-102811632D01*
X101773656Y-102939986D01*
X101765900Y-102941465D01*
X101431794Y-102994382D01*
X101184770Y-103033507D01*
X101176931Y-103034497D01*
X101011993Y-103050088D01*
X100591185Y-103089866D01*
X100583286Y-103090363D01*
X100035968Y-103107563D01*
X100012626Y-103106125D01*
X100006418Y-103105158D01*
X100006413Y-103105158D01*
X99997544Y-103103777D01*
X99988642Y-103104941D01*
X99988640Y-103104941D01*
X99974434Y-103106799D01*
X99965982Y-103107904D01*
X99949647Y-103108968D01*
X65040635Y-103108968D01*
X65021250Y-103107468D01*
X65006417Y-103105158D01*
X65006413Y-103105158D01*
X64997544Y-103103777D01*
X64988642Y-103104941D01*
X64988640Y-103104941D01*
X64980844Y-103105961D01*
X64974431Y-103106799D01*
X64954139Y-103107801D01*
X64399250Y-103090363D01*
X64391350Y-103089866D01*
X64054857Y-103058058D01*
X63805603Y-103034496D01*
X63797767Y-103033506D01*
X63216645Y-102941466D01*
X63208877Y-102939983D01*
X62634687Y-102811636D01*
X62627020Y-102809668D01*
X62356581Y-102731098D01*
X62062024Y-102645521D01*
X62054521Y-102643083D01*
X61500925Y-102443777D01*
X61493597Y-102440875D01*
X60953606Y-102207200D01*
X60946474Y-102203844D01*
X60422233Y-101936730D01*
X60415297Y-101932917D01*
X60347544Y-101892848D01*
X59908859Y-101633411D01*
X59902207Y-101629189D01*
X59415574Y-101298473D01*
X59409185Y-101293831D01*
X58944269Y-100933206D01*
X58938200Y-100928184D01*
X58496856Y-100539087D01*
X58491086Y-100533668D01*
X58075069Y-100117651D01*
X58069650Y-100111881D01*
X57680567Y-99670552D01*
X57675521Y-99664453D01*
X57364777Y-99263844D01*
X57314907Y-99199552D01*
X57310260Y-99193155D01*
X56979560Y-98706544D01*
X56975318Y-98699861D01*
X56675821Y-98193439D01*
X56672008Y-98186503D01*
X56583779Y-98013344D01*
X56404894Y-97662263D01*
X56401538Y-97655131D01*
X56167864Y-97115141D01*
X56164962Y-97107811D01*
X55965655Y-96554215D01*
X55963217Y-96546712D01*
X55839604Y-96121233D01*
X55799071Y-95981717D01*
X55797103Y-95974050D01*
X55668756Y-95399860D01*
X55667272Y-95392085D01*
X55665652Y-95381857D01*
X55575233Y-94810969D01*
X55574242Y-94803125D01*
X55572975Y-94789715D01*
X55537960Y-94419297D01*
X55518874Y-94217386D01*
X55518377Y-94209486D01*
X55501176Y-93662149D01*
X55502614Y-93638805D01*
X55503578Y-93632617D01*
X55503578Y-93632612D01*
X55504959Y-93623744D01*
X55502753Y-93606870D01*
X55500832Y-93592185D01*
X55499768Y-93575847D01*
X55499768Y-90479761D01*
X55519770Y-90411640D01*
X55573426Y-90365147D01*
X55643700Y-90355043D01*
X55698038Y-90376548D01*
X55712427Y-90386623D01*
X55770238Y-90411640D01*
X55858883Y-90450000D01*
X55890204Y-90463554D01*
X55896452Y-90464859D01*
X55896451Y-90464859D01*
X56075073Y-90502176D01*
X56075077Y-90502176D01*
X56079818Y-90503167D01*
X56086172Y-90503500D01*
X56888408Y-90503500D01*
X56934161Y-90498853D01*
X57026368Y-90489487D01*
X57026370Y-90489487D01*
X57032716Y-90488842D01*
X57217561Y-90430915D01*
X57386982Y-90337003D01*
X57391824Y-90332853D01*
X57391831Y-90332848D01*
X57487901Y-90250506D01*
X57552640Y-90221362D01*
X57568826Y-90220179D01*
X63327466Y-90171377D01*
X63395753Y-90190801D01*
X63442699Y-90244060D01*
X63453398Y-90314246D01*
X63424453Y-90379075D01*
X63417628Y-90386467D01*
X61772747Y-92031348D01*
X61764461Y-92038888D01*
X61757982Y-92043000D01*
X61752557Y-92048777D01*
X61711357Y-92092651D01*
X61708602Y-92095493D01*
X61688865Y-92115230D01*
X61686385Y-92118427D01*
X61678682Y-92127447D01*
X61648414Y-92159679D01*
X61644595Y-92166625D01*
X61644593Y-92166628D01*
X61638652Y-92177434D01*
X61627801Y-92193953D01*
X61615386Y-92209959D01*
X61612241Y-92217228D01*
X61612238Y-92217232D01*
X61597826Y-92250537D01*
X61592609Y-92261187D01*
X61571305Y-92299940D01*
X61569334Y-92307615D01*
X61569334Y-92307616D01*
X61566267Y-92319562D01*
X61559863Y-92338266D01*
X61551819Y-92356855D01*
X61550580Y-92364678D01*
X61550577Y-92364688D01*
X61544901Y-92400524D01*
X61542495Y-92412144D01*
X61533472Y-92447289D01*
X61531500Y-92454970D01*
X61531500Y-92475224D01*
X61529949Y-92494934D01*
X61526780Y-92514943D01*
X61527526Y-92522835D01*
X61530941Y-92558961D01*
X61531500Y-92570819D01*
X61531500Y-92591454D01*
X61511498Y-92659575D01*
X61462703Y-92703721D01*
X61459846Y-92705177D01*
X61455268Y-92707073D01*
X61451044Y-92709662D01*
X61451043Y-92709662D01*
X61277788Y-92815832D01*
X61209255Y-92834370D01*
X61141578Y-92812913D01*
X61111128Y-92783965D01*
X61098179Y-92766687D01*
X61038261Y-92686739D01*
X60921705Y-92599385D01*
X60785316Y-92548255D01*
X60723134Y-92541500D01*
X58526866Y-92541500D01*
X58464684Y-92548255D01*
X58328295Y-92599385D01*
X58211739Y-92686739D01*
X58124385Y-92803295D01*
X58073255Y-92939684D01*
X58066500Y-93001866D01*
X58066500Y-95198134D01*
X58073255Y-95260316D01*
X58124385Y-95396705D01*
X58211739Y-95513261D01*
X58328295Y-95600615D01*
X58464684Y-95651745D01*
X58526866Y-95658500D01*
X60723134Y-95658500D01*
X60785316Y-95651745D01*
X60921705Y-95600615D01*
X61038261Y-95513261D01*
X61111128Y-95416035D01*
X61167988Y-95373521D01*
X61238806Y-95368496D01*
X61277788Y-95384168D01*
X61303395Y-95399860D01*
X61455268Y-95492927D01*
X61526946Y-95522617D01*
X61677335Y-95584911D01*
X61677337Y-95584912D01*
X61681908Y-95586805D01*
X61716997Y-95595229D01*
X61915630Y-95642917D01*
X61915636Y-95642918D01*
X61920443Y-95644072D01*
X62165000Y-95663319D01*
X62409557Y-95644072D01*
X62414364Y-95642918D01*
X62414370Y-95642917D01*
X62613003Y-95595229D01*
X62648092Y-95586805D01*
X62652663Y-95584912D01*
X62652665Y-95584911D01*
X62803054Y-95522617D01*
X62874732Y-95492927D01*
X63026605Y-95399860D01*
X63079670Y-95367342D01*
X63079673Y-95367340D01*
X63083896Y-95364752D01*
X63101347Y-95349848D01*
X63266677Y-95208641D01*
X63270433Y-95205433D01*
X63319358Y-95148150D01*
X63339189Y-95124931D01*
X63398640Y-95086122D01*
X63469635Y-95085616D01*
X63530811Y-95124931D01*
X63550642Y-95148150D01*
X63599567Y-95205433D01*
X63603323Y-95208641D01*
X63768654Y-95349848D01*
X63786104Y-95364752D01*
X63790327Y-95367340D01*
X63790330Y-95367342D01*
X63843395Y-95399860D01*
X63995268Y-95492927D01*
X64066946Y-95522617D01*
X64217335Y-95584911D01*
X64217337Y-95584912D01*
X64221908Y-95586805D01*
X64256997Y-95595229D01*
X64455630Y-95642917D01*
X64455636Y-95642918D01*
X64460443Y-95644072D01*
X64705000Y-95663319D01*
X64949557Y-95644072D01*
X64954364Y-95642918D01*
X64954370Y-95642917D01*
X65153003Y-95595229D01*
X65188092Y-95586805D01*
X65192663Y-95584912D01*
X65192665Y-95584911D01*
X65343054Y-95522617D01*
X65414732Y-95492927D01*
X65566605Y-95399860D01*
X65619670Y-95367342D01*
X65619673Y-95367340D01*
X65623896Y-95364752D01*
X65641347Y-95349848D01*
X65806677Y-95208641D01*
X65810433Y-95205433D01*
X65859358Y-95148150D01*
X65879189Y-95124931D01*
X65938640Y-95086122D01*
X66009635Y-95085616D01*
X66070811Y-95124931D01*
X66090642Y-95148150D01*
X66139567Y-95205433D01*
X66143323Y-95208641D01*
X66308654Y-95349848D01*
X66326104Y-95364752D01*
X66330327Y-95367340D01*
X66330330Y-95367342D01*
X66383395Y-95399860D01*
X66535268Y-95492927D01*
X66606946Y-95522617D01*
X66757335Y-95584911D01*
X66757337Y-95584912D01*
X66761908Y-95586805D01*
X66796997Y-95595229D01*
X66995630Y-95642917D01*
X66995636Y-95642918D01*
X67000443Y-95644072D01*
X67245000Y-95663319D01*
X67489557Y-95644072D01*
X67494364Y-95642918D01*
X67494370Y-95642917D01*
X67693003Y-95595229D01*
X67728092Y-95586805D01*
X67732663Y-95584912D01*
X67732665Y-95584911D01*
X67883054Y-95522617D01*
X67954732Y-95492927D01*
X68106605Y-95399860D01*
X68159670Y-95367342D01*
X68159673Y-95367340D01*
X68163896Y-95364752D01*
X68181347Y-95349848D01*
X68346677Y-95208641D01*
X68350433Y-95205433D01*
X68399358Y-95148150D01*
X68506535Y-95022663D01*
X68506537Y-95022660D01*
X68509752Y-95018896D01*
X68513718Y-95012425D01*
X68562008Y-94933621D01*
X68637927Y-94809732D01*
X68714617Y-94624588D01*
X68729911Y-94587665D01*
X68729912Y-94587663D01*
X68731805Y-94583092D01*
X68735742Y-94566695D01*
X72037251Y-94566695D01*
X72037548Y-94571848D01*
X72037548Y-94571851D01*
X72043202Y-94669908D01*
X72050110Y-94789715D01*
X72051247Y-94794761D01*
X72051248Y-94794767D01*
X72062921Y-94846562D01*
X72099222Y-95007639D01*
X72137461Y-95101811D01*
X72177174Y-95199612D01*
X72183266Y-95214616D01*
X72211271Y-95260316D01*
X72295362Y-95397540D01*
X72299987Y-95405088D01*
X72446250Y-95573938D01*
X72450230Y-95577242D01*
X72454981Y-95581187D01*
X72494616Y-95640090D01*
X72496113Y-95711071D01*
X72458997Y-95771593D01*
X72418724Y-95796112D01*
X72303295Y-95839385D01*
X72186739Y-95926739D01*
X72099385Y-96043295D01*
X72048255Y-96179684D01*
X72041500Y-96241866D01*
X72041500Y-98038134D01*
X72048255Y-98100316D01*
X72099385Y-98236705D01*
X72186739Y-98353261D01*
X72303295Y-98440615D01*
X72439684Y-98491745D01*
X72501866Y-98498500D01*
X74298134Y-98498500D01*
X74360316Y-98491745D01*
X74496705Y-98440615D01*
X74613261Y-98353261D01*
X74700615Y-98236705D01*
X74751745Y-98100316D01*
X74758500Y-98038134D01*
X74758500Y-96241866D01*
X74751745Y-96179684D01*
X74700615Y-96043295D01*
X74613261Y-95926739D01*
X74496705Y-95839385D01*
X74484132Y-95834672D01*
X74378203Y-95794960D01*
X74321439Y-95752318D01*
X74296739Y-95685756D01*
X74311947Y-95616408D01*
X74333493Y-95587727D01*
X74403186Y-95518277D01*
X74438096Y-95483489D01*
X74489107Y-95412500D01*
X74565435Y-95306277D01*
X74568453Y-95302077D01*
X74589093Y-95260316D01*
X74665136Y-95106453D01*
X74665137Y-95106451D01*
X74667430Y-95101811D01*
X74701351Y-94990165D01*
X74730865Y-94893023D01*
X74730865Y-94893021D01*
X74732370Y-94888069D01*
X74737159Y-94851695D01*
X77162251Y-94851695D01*
X77162548Y-94856848D01*
X77162548Y-94856851D01*
X77173960Y-95054771D01*
X77175110Y-95074715D01*
X77176247Y-95079761D01*
X77176248Y-95079767D01*
X77196119Y-95167939D01*
X77224222Y-95292639D01*
X77283313Y-95438163D01*
X77306319Y-95494820D01*
X77308266Y-95499616D01*
X77319925Y-95518642D01*
X77419648Y-95681375D01*
X77424987Y-95690088D01*
X77571250Y-95858938D01*
X77575230Y-95862242D01*
X77579981Y-95866187D01*
X77619616Y-95925090D01*
X77621113Y-95996071D01*
X77583997Y-96056593D01*
X77543725Y-96081112D01*
X77458486Y-96113067D01*
X77428295Y-96124385D01*
X77311739Y-96211739D01*
X77224385Y-96328295D01*
X77173255Y-96464684D01*
X77166500Y-96526866D01*
X77166500Y-98323134D01*
X77173255Y-98385316D01*
X77224385Y-98521705D01*
X77311739Y-98638261D01*
X77428295Y-98725615D01*
X77564684Y-98776745D01*
X77626866Y-98783500D01*
X79423134Y-98783500D01*
X79485316Y-98776745D01*
X79621705Y-98725615D01*
X79738261Y-98638261D01*
X79825615Y-98521705D01*
X79876745Y-98385316D01*
X79883500Y-98323134D01*
X79883500Y-96526866D01*
X79876745Y-96464684D01*
X79825615Y-96328295D01*
X79738261Y-96211739D01*
X79621705Y-96124385D01*
X79609132Y-96119672D01*
X79503203Y-96079960D01*
X79446439Y-96037318D01*
X79421739Y-95970756D01*
X79436947Y-95901408D01*
X79458493Y-95872727D01*
X79559435Y-95772137D01*
X79563096Y-95768489D01*
X79622594Y-95685689D01*
X79690435Y-95591277D01*
X79693453Y-95587077D01*
X79725863Y-95521501D01*
X79790136Y-95391453D01*
X79790137Y-95391451D01*
X79792430Y-95386811D01*
X79844747Y-95214616D01*
X79855865Y-95178023D01*
X79855865Y-95178021D01*
X79857370Y-95173069D01*
X79886529Y-94951590D01*
X79888156Y-94885000D01*
X79869852Y-94662361D01*
X79815431Y-94445702D01*
X79726354Y-94240840D01*
X79654199Y-94129305D01*
X79607822Y-94057617D01*
X79607820Y-94057614D01*
X79605014Y-94053277D01*
X79454670Y-93888051D01*
X79450619Y-93884852D01*
X79450615Y-93884848D01*
X79283414Y-93752800D01*
X79283410Y-93752798D01*
X79279359Y-93749598D01*
X79238053Y-93726796D01*
X79188084Y-93676364D01*
X79173312Y-93606921D01*
X79198428Y-93540516D01*
X79225780Y-93513909D01*
X79290422Y-93467800D01*
X79404860Y-93386173D01*
X79427906Y-93363208D01*
X79559435Y-93232137D01*
X79563096Y-93228489D01*
X79569573Y-93219476D01*
X79690435Y-93051277D01*
X79693453Y-93047077D01*
X79710982Y-93011611D01*
X79790136Y-92851453D01*
X79790137Y-92851451D01*
X79792430Y-92846811D01*
X79845162Y-92673250D01*
X79855865Y-92638023D01*
X79855865Y-92638021D01*
X79857370Y-92633069D01*
X79886529Y-92411590D01*
X79886656Y-92406389D01*
X79888074Y-92348365D01*
X79888074Y-92348361D01*
X79888156Y-92345000D01*
X79869852Y-92122361D01*
X79815431Y-91905702D01*
X79726354Y-91700840D01*
X79652834Y-91587195D01*
X79607822Y-91517617D01*
X79607820Y-91517614D01*
X79605014Y-91513277D01*
X79454670Y-91348051D01*
X79450619Y-91344852D01*
X79450615Y-91344848D01*
X79283414Y-91212800D01*
X79283410Y-91212798D01*
X79279359Y-91209598D01*
X79083789Y-91101638D01*
X79078920Y-91099914D01*
X79078916Y-91099912D01*
X78878087Y-91028795D01*
X78878083Y-91028794D01*
X78873212Y-91027069D01*
X78868119Y-91026162D01*
X78868116Y-91026161D01*
X78658373Y-90988800D01*
X78658367Y-90988799D01*
X78653284Y-90987894D01*
X78575525Y-90986944D01*
X78435081Y-90985228D01*
X78435079Y-90985228D01*
X78429911Y-90985165D01*
X78209091Y-91018955D01*
X77996756Y-91088357D01*
X77966443Y-91104137D01*
X77809169Y-91186009D01*
X77798607Y-91191507D01*
X77794474Y-91194610D01*
X77794471Y-91194612D01*
X77632652Y-91316109D01*
X77619965Y-91325635D01*
X77465629Y-91487138D01*
X77462715Y-91491410D01*
X77462714Y-91491411D01*
X77444838Y-91517617D01*
X77339743Y-91671680D01*
X77324993Y-91703456D01*
X77253923Y-91856565D01*
X77245688Y-91874305D01*
X77185989Y-92089570D01*
X77162251Y-92311695D01*
X77162548Y-92316848D01*
X77162548Y-92316851D01*
X77168011Y-92411590D01*
X77175110Y-92534715D01*
X77176247Y-92539761D01*
X77176248Y-92539767D01*
X77198215Y-92637237D01*
X77224222Y-92752639D01*
X77271467Y-92868990D01*
X77301718Y-92943489D01*
X77308266Y-92959616D01*
X77351416Y-93030031D01*
X77403108Y-93114384D01*
X77424987Y-93150088D01*
X77571250Y-93318938D01*
X77743126Y-93461632D01*
X77813595Y-93502811D01*
X77816445Y-93504476D01*
X77865169Y-93556114D01*
X77878240Y-93625897D01*
X77851509Y-93691669D01*
X77811055Y-93725027D01*
X77798607Y-93731507D01*
X77794474Y-93734610D01*
X77794471Y-93734612D01*
X77626968Y-93860377D01*
X77619965Y-93865635D01*
X77616393Y-93869373D01*
X77506554Y-93984313D01*
X77465629Y-94027138D01*
X77462715Y-94031410D01*
X77462714Y-94031411D01*
X77458822Y-94037117D01*
X77339743Y-94211680D01*
X77306873Y-94282493D01*
X77273635Y-94354099D01*
X77245688Y-94414305D01*
X77185989Y-94629570D01*
X77162251Y-94851695D01*
X74737159Y-94851695D01*
X74761529Y-94666590D01*
X74762555Y-94624588D01*
X74763074Y-94603365D01*
X74763074Y-94603361D01*
X74763156Y-94600000D01*
X74744852Y-94377361D01*
X74690431Y-94160702D01*
X74601354Y-93955840D01*
X74480014Y-93768277D01*
X74329670Y-93603051D01*
X74325619Y-93599852D01*
X74325615Y-93599848D01*
X74158414Y-93467800D01*
X74158410Y-93467798D01*
X74154359Y-93464598D01*
X74113053Y-93441796D01*
X74063084Y-93391364D01*
X74048312Y-93321921D01*
X74073428Y-93255516D01*
X74100780Y-93228909D01*
X74155794Y-93189668D01*
X74279860Y-93101173D01*
X74306056Y-93075069D01*
X74382591Y-92998800D01*
X74438096Y-92943489D01*
X74497594Y-92860689D01*
X74565435Y-92766277D01*
X74568453Y-92762077D01*
X74571541Y-92755830D01*
X74665136Y-92566453D01*
X74665137Y-92566451D01*
X74667430Y-92561811D01*
X74712063Y-92414908D01*
X74730865Y-92353023D01*
X74730865Y-92353021D01*
X74732370Y-92348069D01*
X74761529Y-92126590D01*
X74762150Y-92101171D01*
X74763074Y-92063365D01*
X74763074Y-92063361D01*
X74763156Y-92060000D01*
X74744852Y-91837361D01*
X74690431Y-91620702D01*
X74601354Y-91415840D01*
X74527041Y-91300969D01*
X74482822Y-91232617D01*
X74482820Y-91232614D01*
X74480014Y-91228277D01*
X74329670Y-91063051D01*
X74325619Y-91059852D01*
X74325615Y-91059848D01*
X74158414Y-90927800D01*
X74158410Y-90927798D01*
X74154359Y-90924598D01*
X73958789Y-90816638D01*
X73953920Y-90814914D01*
X73953916Y-90814912D01*
X73753087Y-90743795D01*
X73753083Y-90743794D01*
X73748212Y-90742069D01*
X73743119Y-90741162D01*
X73743116Y-90741161D01*
X73533373Y-90703800D01*
X73533367Y-90703799D01*
X73528284Y-90702894D01*
X73454452Y-90701992D01*
X73310081Y-90700228D01*
X73310079Y-90700228D01*
X73304911Y-90700165D01*
X73084091Y-90733955D01*
X72871756Y-90803357D01*
X72841443Y-90819137D01*
X72756369Y-90863424D01*
X72673607Y-90906507D01*
X72669474Y-90909610D01*
X72669471Y-90909612D01*
X72513033Y-91027069D01*
X72494965Y-91040635D01*
X72340629Y-91202138D01*
X72337715Y-91206410D01*
X72337714Y-91206411D01*
X72297277Y-91265689D01*
X72214743Y-91386680D01*
X72199003Y-91420590D01*
X72125501Y-91578937D01*
X72120688Y-91589305D01*
X72060989Y-91804570D01*
X72037251Y-92026695D01*
X72037548Y-92031848D01*
X72037548Y-92031851D01*
X72045942Y-92177434D01*
X72050110Y-92249715D01*
X72051247Y-92254761D01*
X72051248Y-92254767D01*
X72063236Y-92307958D01*
X72099222Y-92467639D01*
X72151438Y-92596233D01*
X72177159Y-92659575D01*
X72183266Y-92674616D01*
X72208693Y-92716109D01*
X72280115Y-92832659D01*
X72299987Y-92865088D01*
X72446250Y-93033938D01*
X72618126Y-93176632D01*
X72659921Y-93201055D01*
X72691445Y-93219476D01*
X72740169Y-93271114D01*
X72753240Y-93340897D01*
X72726509Y-93406669D01*
X72686055Y-93440027D01*
X72673607Y-93446507D01*
X72669474Y-93449610D01*
X72669471Y-93449612D01*
X72501342Y-93575847D01*
X72494965Y-93580635D01*
X72340629Y-93742138D01*
X72337715Y-93746410D01*
X72337714Y-93746411D01*
X72286853Y-93820971D01*
X72214743Y-93926680D01*
X72199599Y-93959305D01*
X72129448Y-94110434D01*
X72120688Y-94129305D01*
X72060989Y-94344570D01*
X72037251Y-94566695D01*
X68735742Y-94566695D01*
X68761372Y-94459938D01*
X68787917Y-94349370D01*
X68787918Y-94349364D01*
X68789072Y-94344557D01*
X68808319Y-94100000D01*
X68789072Y-93855443D01*
X68780372Y-93819202D01*
X68740853Y-93654597D01*
X68731805Y-93616908D01*
X68729438Y-93611192D01*
X68668568Y-93464242D01*
X68637927Y-93390268D01*
X68538789Y-93228489D01*
X68512342Y-93185330D01*
X68512340Y-93185327D01*
X68509752Y-93181104D01*
X68486595Y-93153990D01*
X68353641Y-92998323D01*
X68350433Y-92994567D01*
X68309511Y-92959616D01*
X68167663Y-92838465D01*
X68167660Y-92838463D01*
X68163896Y-92835248D01*
X68159671Y-92832659D01*
X68159670Y-92832658D01*
X68043458Y-92761444D01*
X67954732Y-92707073D01*
X67779266Y-92634392D01*
X67732665Y-92615089D01*
X67732663Y-92615088D01*
X67728092Y-92613195D01*
X67637534Y-92591454D01*
X67494370Y-92557083D01*
X67494364Y-92557082D01*
X67489557Y-92555928D01*
X67245000Y-92536681D01*
X67000443Y-92555928D01*
X66995636Y-92557082D01*
X66995630Y-92557083D01*
X66852466Y-92591454D01*
X66761908Y-92613195D01*
X66757337Y-92615088D01*
X66757335Y-92615089D01*
X66710734Y-92634392D01*
X66535268Y-92707073D01*
X66446542Y-92761444D01*
X66330330Y-92832658D01*
X66330329Y-92832659D01*
X66326104Y-92835248D01*
X66322340Y-92838463D01*
X66322337Y-92838465D01*
X66180489Y-92959616D01*
X66139567Y-92994567D01*
X66136359Y-92998323D01*
X66070811Y-93075069D01*
X66011360Y-93113878D01*
X65940365Y-93114384D01*
X65879189Y-93075069D01*
X65813641Y-92998323D01*
X65810433Y-92994567D01*
X65769511Y-92959616D01*
X65627663Y-92838465D01*
X65627660Y-92838463D01*
X65623896Y-92835248D01*
X65619671Y-92832659D01*
X65619670Y-92832658D01*
X65503458Y-92761444D01*
X65414732Y-92707073D01*
X65239266Y-92634392D01*
X65192665Y-92615089D01*
X65192663Y-92615088D01*
X65188092Y-92613195D01*
X65097534Y-92591454D01*
X64954370Y-92557083D01*
X64954364Y-92557082D01*
X64949557Y-92555928D01*
X64705000Y-92536681D01*
X64460443Y-92555928D01*
X64455636Y-92557082D01*
X64455630Y-92557083D01*
X64312466Y-92591454D01*
X64221908Y-92613195D01*
X64217337Y-92615088D01*
X64217335Y-92615089D01*
X64170734Y-92634392D01*
X63995268Y-92707073D01*
X63906542Y-92761444D01*
X63790330Y-92832658D01*
X63790329Y-92832659D01*
X63786104Y-92835248D01*
X63782340Y-92838463D01*
X63782337Y-92838465D01*
X63640489Y-92959616D01*
X63599567Y-92994567D01*
X63596359Y-92998323D01*
X63530811Y-93075069D01*
X63471360Y-93113878D01*
X63400365Y-93114384D01*
X63339189Y-93075069D01*
X63273641Y-92998323D01*
X63270433Y-92994567D01*
X63239854Y-92968450D01*
X63087655Y-92838458D01*
X63087651Y-92838455D01*
X63083896Y-92835248D01*
X63079683Y-92832666D01*
X63079673Y-92832659D01*
X63019752Y-92795939D01*
X62972120Y-92743291D01*
X62960514Y-92673250D01*
X62988618Y-92608052D01*
X62996492Y-92599412D01*
X65405988Y-90189917D01*
X65468300Y-90155891D01*
X65494015Y-90153017D01*
X77631885Y-90050154D01*
X77631887Y-90050154D01*
X77650000Y-90050000D01*
X77650000Y-88791154D01*
X77670002Y-88723033D01*
X77723658Y-88676540D01*
X77793932Y-88666436D01*
X77815665Y-88671560D01*
X77970139Y-88722797D01*
X77976975Y-88723497D01*
X77976978Y-88723498D01*
X78020031Y-88727909D01*
X78074600Y-88733500D01*
X78875400Y-88733500D01*
X78878646Y-88733163D01*
X78878650Y-88733163D01*
X78974308Y-88723238D01*
X78974312Y-88723237D01*
X78981166Y-88722526D01*
X78987702Y-88720345D01*
X78987704Y-88720345D01*
X79141998Y-88668868D01*
X79148946Y-88666550D01*
X79264535Y-88595021D01*
X79332987Y-88576183D01*
X79400756Y-88597344D01*
X79446328Y-88651785D01*
X79455232Y-88722221D01*
X79424641Y-88786289D01*
X79417637Y-88793308D01*
X79413747Y-88796134D01*
X79409326Y-88801044D01*
X79409325Y-88801045D01*
X79299913Y-88922560D01*
X79285960Y-88938056D01*
X79190473Y-89103444D01*
X79131458Y-89285072D01*
X79130768Y-89291633D01*
X79130768Y-89291635D01*
X79118130Y-89411880D01*
X79111496Y-89475000D01*
X79112186Y-89481565D01*
X79127427Y-89626571D01*
X79131458Y-89664928D01*
X79190473Y-89846556D01*
X79285960Y-90011944D01*
X79290378Y-90016851D01*
X79290379Y-90016852D01*
X79398398Y-90136819D01*
X79413747Y-90153866D01*
X79494864Y-90212801D01*
X79532142Y-90239885D01*
X79568248Y-90266118D01*
X79574276Y-90268802D01*
X79574278Y-90268803D01*
X79722176Y-90334651D01*
X79742712Y-90343794D01*
X79813545Y-90358850D01*
X79923056Y-90382128D01*
X79923061Y-90382128D01*
X79929513Y-90383500D01*
X79930873Y-90383500D01*
X79994731Y-90409772D01*
X80035362Y-90467993D01*
X80041215Y-90494899D01*
X80054972Y-90625785D01*
X80056458Y-90639928D01*
X80115473Y-90821556D01*
X80118776Y-90827278D01*
X80118777Y-90827279D01*
X80141438Y-90866528D01*
X80210960Y-90986944D01*
X80215378Y-90991851D01*
X80215379Y-90991852D01*
X80332165Y-91121556D01*
X80338747Y-91128866D01*
X80493248Y-91241118D01*
X80499276Y-91243802D01*
X80499278Y-91243803D01*
X80654824Y-91313056D01*
X80667712Y-91318794D01*
X80761113Y-91338647D01*
X80848056Y-91357128D01*
X80848061Y-91357128D01*
X80854513Y-91358500D01*
X81028001Y-91358500D01*
X81096122Y-91378502D01*
X81142615Y-91432158D01*
X81154001Y-91484499D01*
X81154001Y-91539884D01*
X81154539Y-91543969D01*
X81154539Y-91543973D01*
X81166443Y-91634401D01*
X81169662Y-91658850D01*
X81176853Y-91676210D01*
X81227605Y-91798737D01*
X81230976Y-91806876D01*
X81236002Y-91813426D01*
X81323485Y-91927434D01*
X81328513Y-91933987D01*
X81335063Y-91939013D01*
X81335066Y-91939016D01*
X81392069Y-91982755D01*
X81455625Y-92031524D01*
X81603650Y-92092838D01*
X81611838Y-92093916D01*
X81666946Y-92101171D01*
X81731873Y-92129893D01*
X81770965Y-92189158D01*
X81776500Y-92226093D01*
X81776500Y-95071692D01*
X81756498Y-95139813D01*
X81708683Y-95183453D01*
X81683607Y-95196507D01*
X81679474Y-95199610D01*
X81679471Y-95199612D01*
X81509100Y-95327530D01*
X81504965Y-95330635D01*
X81475436Y-95361535D01*
X81411280Y-95428671D01*
X81350629Y-95492138D01*
X81347720Y-95496403D01*
X81347714Y-95496411D01*
X81287344Y-95584911D01*
X81224743Y-95676680D01*
X81206198Y-95716632D01*
X81141956Y-95855031D01*
X81130688Y-95879305D01*
X81070989Y-96094570D01*
X81047251Y-96316695D01*
X81047548Y-96321848D01*
X81047548Y-96321851D01*
X81055357Y-96457285D01*
X81060110Y-96539715D01*
X81061247Y-96544761D01*
X81061248Y-96544767D01*
X81071182Y-96588844D01*
X81109222Y-96757639D01*
X81193266Y-96964616D01*
X81235482Y-97033507D01*
X81307291Y-97150688D01*
X81309987Y-97155088D01*
X81456250Y-97323938D01*
X81628126Y-97466632D01*
X81821000Y-97579338D01*
X82029692Y-97659030D01*
X82034760Y-97660061D01*
X82034763Y-97660062D01*
X82133278Y-97680105D01*
X82248597Y-97703567D01*
X82253772Y-97703757D01*
X82253774Y-97703757D01*
X82466673Y-97711564D01*
X82466677Y-97711564D01*
X82471837Y-97711753D01*
X82476957Y-97711097D01*
X82476959Y-97711097D01*
X82688288Y-97684025D01*
X82688289Y-97684025D01*
X82693416Y-97683368D01*
X82763709Y-97662279D01*
X82902429Y-97620661D01*
X82902434Y-97620659D01*
X82907384Y-97619174D01*
X83107994Y-97520896D01*
X83289860Y-97391173D01*
X83448096Y-97233489D01*
X83507594Y-97150689D01*
X83578453Y-97052077D01*
X83579776Y-97053028D01*
X83626645Y-97009857D01*
X83696580Y-96997625D01*
X83762026Y-97025144D01*
X83789875Y-97056994D01*
X83849987Y-97155088D01*
X83996250Y-97323938D01*
X84168126Y-97466632D01*
X84361000Y-97579338D01*
X84569692Y-97659030D01*
X84574760Y-97660061D01*
X84574763Y-97660062D01*
X84673278Y-97680105D01*
X84788597Y-97703567D01*
X84793772Y-97703757D01*
X84793774Y-97703757D01*
X85006673Y-97711564D01*
X85006677Y-97711564D01*
X85011837Y-97711753D01*
X85016957Y-97711097D01*
X85016959Y-97711097D01*
X85228288Y-97684025D01*
X85228289Y-97684025D01*
X85233416Y-97683368D01*
X85303709Y-97662279D01*
X85442429Y-97620661D01*
X85442434Y-97620659D01*
X85447384Y-97619174D01*
X85647994Y-97520896D01*
X85829860Y-97391173D01*
X85938091Y-97283319D01*
X86000462Y-97249404D01*
X86071268Y-97254592D01*
X86128030Y-97297238D01*
X86145012Y-97328341D01*
X86155468Y-97356231D01*
X86189385Y-97446705D01*
X86276739Y-97563261D01*
X86393295Y-97650615D01*
X86529684Y-97701745D01*
X86591866Y-97708500D01*
X88388134Y-97708500D01*
X88450316Y-97701745D01*
X88586705Y-97650615D01*
X88703261Y-97563261D01*
X88790615Y-97446705D01*
X88841745Y-97310316D01*
X88848500Y-97248134D01*
X88848500Y-95451866D01*
X88841745Y-95389684D01*
X88790615Y-95253295D01*
X88703261Y-95136739D01*
X88586705Y-95049385D01*
X88450316Y-94998255D01*
X88388134Y-94991500D01*
X88249500Y-94991500D01*
X88181379Y-94971498D01*
X88134886Y-94917842D01*
X88123500Y-94865500D01*
X88123500Y-94468763D01*
X88124027Y-94457579D01*
X88125701Y-94450091D01*
X88123562Y-94382032D01*
X88123500Y-94378075D01*
X88123500Y-94350144D01*
X88122994Y-94346138D01*
X88122061Y-94334292D01*
X88120922Y-94298037D01*
X88120673Y-94290110D01*
X88115022Y-94270658D01*
X88111014Y-94251306D01*
X88109468Y-94239068D01*
X88109467Y-94239066D01*
X88108474Y-94231203D01*
X88092194Y-94190086D01*
X88088359Y-94178885D01*
X88076018Y-94136406D01*
X88071985Y-94129587D01*
X88071983Y-94129582D01*
X88065707Y-94118971D01*
X88057010Y-94101221D01*
X88049552Y-94082383D01*
X88023571Y-94046623D01*
X88017053Y-94036701D01*
X87998578Y-94005460D01*
X87998574Y-94005455D01*
X87994542Y-93998637D01*
X87980218Y-93984313D01*
X87967376Y-93969278D01*
X87961064Y-93960590D01*
X87955472Y-93952893D01*
X87921406Y-93924711D01*
X87912627Y-93916722D01*
X85771979Y-91776074D01*
X85737953Y-91713762D01*
X85743018Y-91642947D01*
X85785565Y-91586111D01*
X85852085Y-91561300D01*
X85912323Y-91571872D01*
X85994468Y-91608445D01*
X86017712Y-91618794D01*
X86091137Y-91634401D01*
X86198056Y-91657128D01*
X86198061Y-91657128D01*
X86204513Y-91658500D01*
X86395487Y-91658500D01*
X86401939Y-91657128D01*
X86401944Y-91657128D01*
X86508863Y-91634401D01*
X86582288Y-91618794D01*
X86605533Y-91608445D01*
X86644968Y-91590887D01*
X86718239Y-91558265D01*
X86788605Y-91548831D01*
X86852902Y-91578937D01*
X86890716Y-91639026D01*
X86891551Y-91643073D01*
X86893584Y-91650660D01*
X86894662Y-91658850D01*
X86901853Y-91676210D01*
X86952605Y-91798737D01*
X86955976Y-91806876D01*
X86961002Y-91813426D01*
X87048485Y-91927434D01*
X87053513Y-91933987D01*
X87060063Y-91939013D01*
X87060066Y-91939016D01*
X87117069Y-91982755D01*
X87180625Y-92031524D01*
X87328650Y-92092838D01*
X87336838Y-92093916D01*
X87443521Y-92107961D01*
X87447615Y-92108500D01*
X88124917Y-92108500D01*
X88802384Y-92108499D01*
X88806469Y-92107961D01*
X88806473Y-92107961D01*
X88913163Y-92093916D01*
X88913165Y-92093916D01*
X88921350Y-92092838D01*
X89041450Y-92043091D01*
X89089668Y-92033500D01*
X90001006Y-92033500D01*
X90069127Y-92053502D01*
X90090101Y-92070405D01*
X90491217Y-92471521D01*
X90525243Y-92533833D01*
X90523539Y-92594288D01*
X90486877Y-92726485D01*
X90486328Y-92731619D01*
X90486328Y-92731621D01*
X90483569Y-92757438D01*
X90461570Y-92963294D01*
X90461867Y-92968446D01*
X90461867Y-92968450D01*
X90467902Y-93073113D01*
X90475279Y-93201055D01*
X90476416Y-93206101D01*
X90476417Y-93206107D01*
X90500965Y-93315031D01*
X90527637Y-93433385D01*
X90529579Y-93438167D01*
X90529580Y-93438171D01*
X90615198Y-93649023D01*
X90617237Y-93654044D01*
X90741674Y-93857106D01*
X90897604Y-94037117D01*
X90996198Y-94118971D01*
X91075215Y-94184572D01*
X91080842Y-94189244D01*
X91085294Y-94191846D01*
X91085299Y-94191849D01*
X91218471Y-94269668D01*
X91267194Y-94321307D01*
X91280900Y-94378456D01*
X91280900Y-98121647D01*
X91260898Y-98189768D01*
X91213083Y-98233408D01*
X91139990Y-98271458D01*
X91135857Y-98274561D01*
X91135854Y-98274563D01*
X90953675Y-98411347D01*
X90949540Y-98414452D01*
X90785002Y-98586631D01*
X90782088Y-98590903D01*
X90782087Y-98590904D01*
X90707760Y-98699863D01*
X90650794Y-98783372D01*
X90550522Y-98999391D01*
X90486877Y-99228885D01*
X90486328Y-99234019D01*
X90486328Y-99234021D01*
X90480849Y-99285289D01*
X90461570Y-99465694D01*
X90461867Y-99470846D01*
X90461867Y-99470850D01*
X90467902Y-99575513D01*
X90475279Y-99703455D01*
X90476416Y-99708501D01*
X90476417Y-99708507D01*
X90509511Y-99855356D01*
X90527637Y-99935785D01*
X90529579Y-99940567D01*
X90529580Y-99940571D01*
X90599142Y-100111881D01*
X90617237Y-100156444D01*
X90741674Y-100359506D01*
X90897604Y-100539517D01*
X91080842Y-100691644D01*
X91085294Y-100694246D01*
X91085299Y-100694249D01*
X91183733Y-100751769D01*
X91286465Y-100811801D01*
X91508952Y-100896760D01*
X91514018Y-100897791D01*
X91514019Y-100897791D01*
X91568356Y-100908846D01*
X91742328Y-100944241D01*
X91876521Y-100949162D01*
X91975160Y-100952779D01*
X91975164Y-100952779D01*
X91980324Y-100952968D01*
X91985444Y-100952312D01*
X91985446Y-100952312D01*
X92211423Y-100923364D01*
X92211424Y-100923364D01*
X92216551Y-100922707D01*
X92299600Y-100897791D01*
X92439716Y-100855754D01*
X92439717Y-100855753D01*
X92444662Y-100854270D01*
X92658533Y-100749495D01*
X92662736Y-100746497D01*
X92662741Y-100746494D01*
X92848216Y-100614196D01*
X92848218Y-100614194D01*
X92852420Y-100611197D01*
X93021116Y-100443089D01*
X93160090Y-100249686D01*
X93206174Y-100156444D01*
X93263317Y-100040824D01*
X93263318Y-100040822D01*
X93265611Y-100036182D01*
X93334843Y-99808311D01*
X93349328Y-99698286D01*
X93365492Y-99575513D01*
X93365492Y-99575509D01*
X93365929Y-99572192D01*
X93367664Y-99501200D01*
X93364745Y-99465694D01*
X94982770Y-99465694D01*
X94983067Y-99470846D01*
X94983067Y-99470850D01*
X94989102Y-99575513D01*
X94996479Y-99703455D01*
X94997616Y-99708501D01*
X94997617Y-99708507D01*
X95030711Y-99855356D01*
X95048837Y-99935785D01*
X95050779Y-99940567D01*
X95050780Y-99940571D01*
X95120342Y-100111881D01*
X95138437Y-100156444D01*
X95262874Y-100359506D01*
X95418804Y-100539517D01*
X95602042Y-100691644D01*
X95606494Y-100694246D01*
X95606499Y-100694249D01*
X95704933Y-100751769D01*
X95807665Y-100811801D01*
X96030152Y-100896760D01*
X96035218Y-100897791D01*
X96035219Y-100897791D01*
X96089556Y-100908846D01*
X96263528Y-100944241D01*
X96397721Y-100949162D01*
X96496360Y-100952779D01*
X96496364Y-100952779D01*
X96501524Y-100952968D01*
X96506644Y-100952312D01*
X96506646Y-100952312D01*
X96732623Y-100923364D01*
X96732624Y-100923364D01*
X96737751Y-100922707D01*
X96820800Y-100897791D01*
X96960916Y-100855754D01*
X96960917Y-100855753D01*
X96965862Y-100854270D01*
X97179733Y-100749495D01*
X97183936Y-100746497D01*
X97183941Y-100746494D01*
X97369416Y-100614196D01*
X97369418Y-100614194D01*
X97373620Y-100611197D01*
X97542316Y-100443089D01*
X97681290Y-100249686D01*
X97727374Y-100156444D01*
X97784517Y-100040824D01*
X97784518Y-100040822D01*
X97786811Y-100036182D01*
X97856043Y-99808311D01*
X97870528Y-99698286D01*
X97886692Y-99575513D01*
X97886692Y-99575509D01*
X97887129Y-99572192D01*
X97888864Y-99501200D01*
X97869350Y-99263844D01*
X97811331Y-99032863D01*
X97716367Y-98814459D01*
X97699294Y-98788067D01*
X97589816Y-98618842D01*
X97587006Y-98614498D01*
X97426724Y-98438350D01*
X97422673Y-98435151D01*
X97422669Y-98435147D01*
X97243878Y-98293947D01*
X97243873Y-98293944D01*
X97239824Y-98290746D01*
X97235308Y-98288253D01*
X97235305Y-98288251D01*
X97035850Y-98178146D01*
X97035846Y-98178144D01*
X97031326Y-98175649D01*
X97026457Y-98173925D01*
X97026453Y-98173923D01*
X96811705Y-98097876D01*
X96811701Y-98097875D01*
X96806830Y-98096150D01*
X96801740Y-98095243D01*
X96801735Y-98095242D01*
X96674414Y-98072564D01*
X96572364Y-98054386D01*
X96483237Y-98053297D01*
X96339395Y-98051539D01*
X96339393Y-98051539D01*
X96334225Y-98051476D01*
X96098809Y-98087500D01*
X95872438Y-98161489D01*
X95789458Y-98204686D01*
X95714146Y-98243891D01*
X95661190Y-98271458D01*
X95657057Y-98274561D01*
X95657054Y-98274563D01*
X95474875Y-98411347D01*
X95470740Y-98414452D01*
X95306202Y-98586631D01*
X95303288Y-98590903D01*
X95303287Y-98590904D01*
X95228960Y-98699863D01*
X95171994Y-98783372D01*
X95071722Y-98999391D01*
X95008077Y-99228885D01*
X95007528Y-99234019D01*
X95007528Y-99234021D01*
X95002049Y-99285289D01*
X94982770Y-99465694D01*
X93364745Y-99465694D01*
X93348150Y-99263844D01*
X93290131Y-99032863D01*
X93195167Y-98814459D01*
X93178094Y-98788067D01*
X93068616Y-98618842D01*
X93065806Y-98614498D01*
X92905524Y-98438350D01*
X92901473Y-98435151D01*
X92901469Y-98435147D01*
X92763936Y-98326531D01*
X92718624Y-98290746D01*
X92613005Y-98232441D01*
X92563036Y-98182010D01*
X92547900Y-98122134D01*
X92547900Y-96790694D01*
X97986570Y-96790694D01*
X97986867Y-96795846D01*
X97986867Y-96795850D01*
X97992902Y-96900513D01*
X98000279Y-97028455D01*
X98001416Y-97033501D01*
X98001417Y-97033507D01*
X98027825Y-97150688D01*
X98052637Y-97260785D01*
X98054579Y-97265567D01*
X98054580Y-97265571D01*
X98104102Y-97387529D01*
X98142237Y-97481444D01*
X98266674Y-97684506D01*
X98422604Y-97864517D01*
X98605842Y-98016644D01*
X98610294Y-98019246D01*
X98610299Y-98019249D01*
X98807007Y-98134196D01*
X98811465Y-98136801D01*
X99033952Y-98221760D01*
X99039018Y-98222791D01*
X99039019Y-98222791D01*
X99066082Y-98228297D01*
X99267328Y-98269241D01*
X99401521Y-98274162D01*
X99500160Y-98277779D01*
X99500164Y-98277779D01*
X99505324Y-98277968D01*
X99510444Y-98277312D01*
X99510446Y-98277312D01*
X99736423Y-98248364D01*
X99736424Y-98248364D01*
X99741551Y-98247707D01*
X99746501Y-98246222D01*
X99964716Y-98180754D01*
X99964717Y-98180753D01*
X99969662Y-98179270D01*
X100183533Y-98074495D01*
X100187736Y-98071497D01*
X100187741Y-98071494D01*
X100373216Y-97939196D01*
X100373218Y-97939194D01*
X100377420Y-97936197D01*
X100546116Y-97768089D01*
X100685090Y-97574686D01*
X100710550Y-97523173D01*
X100788317Y-97365824D01*
X100788318Y-97365822D01*
X100790611Y-97361182D01*
X100859843Y-97133311D01*
X100862233Y-97115156D01*
X100890492Y-96900513D01*
X100890492Y-96900509D01*
X100890929Y-96897192D01*
X100892038Y-96851811D01*
X100892582Y-96829565D01*
X100892582Y-96829561D01*
X100892664Y-96826200D01*
X100889745Y-96790694D01*
X102507770Y-96790694D01*
X102508067Y-96795846D01*
X102508067Y-96795850D01*
X102514102Y-96900513D01*
X102521479Y-97028455D01*
X102522616Y-97033501D01*
X102522617Y-97033507D01*
X102549025Y-97150688D01*
X102573837Y-97260785D01*
X102575779Y-97265567D01*
X102575780Y-97265571D01*
X102625302Y-97387529D01*
X102663437Y-97481444D01*
X102787874Y-97684506D01*
X102943804Y-97864517D01*
X103127042Y-98016644D01*
X103131494Y-98019246D01*
X103131499Y-98019249D01*
X103328207Y-98134196D01*
X103332665Y-98136801D01*
X103555152Y-98221760D01*
X103560218Y-98222791D01*
X103560219Y-98222791D01*
X103587282Y-98228297D01*
X103788528Y-98269241D01*
X103922721Y-98274162D01*
X104021360Y-98277779D01*
X104021364Y-98277779D01*
X104026524Y-98277968D01*
X104031644Y-98277312D01*
X104031646Y-98277312D01*
X104257623Y-98248364D01*
X104257624Y-98248364D01*
X104262751Y-98247707D01*
X104267701Y-98246222D01*
X104485916Y-98180754D01*
X104485917Y-98180753D01*
X104490862Y-98179270D01*
X104704733Y-98074495D01*
X104708936Y-98071497D01*
X104708941Y-98071494D01*
X104894416Y-97939196D01*
X104894418Y-97939194D01*
X104898620Y-97936197D01*
X105067316Y-97768089D01*
X105206290Y-97574686D01*
X105231750Y-97523173D01*
X105309517Y-97365824D01*
X105309518Y-97365822D01*
X105311811Y-97361182D01*
X105381043Y-97133311D01*
X105383433Y-97115156D01*
X105411692Y-96900513D01*
X105411692Y-96900509D01*
X105412129Y-96897192D01*
X105413238Y-96851811D01*
X105413782Y-96829565D01*
X105413782Y-96829561D01*
X105413864Y-96826200D01*
X105394350Y-96588844D01*
X105336331Y-96357863D01*
X105241367Y-96139459D01*
X105237490Y-96133465D01*
X105139309Y-95981702D01*
X105112006Y-95939498D01*
X104951724Y-95763350D01*
X104947673Y-95760151D01*
X104947669Y-95760147D01*
X104768878Y-95618947D01*
X104768873Y-95618944D01*
X104764824Y-95615746D01*
X104760308Y-95613253D01*
X104760305Y-95613251D01*
X104560850Y-95503146D01*
X104560846Y-95503144D01*
X104556326Y-95500649D01*
X104551457Y-95498925D01*
X104551453Y-95498923D01*
X104336705Y-95422876D01*
X104336701Y-95422875D01*
X104331830Y-95421150D01*
X104326740Y-95420243D01*
X104326735Y-95420242D01*
X104168741Y-95392100D01*
X104097364Y-95379386D01*
X104008237Y-95378297D01*
X103864395Y-95376539D01*
X103864393Y-95376539D01*
X103859225Y-95376476D01*
X103623809Y-95412500D01*
X103397438Y-95486489D01*
X103314458Y-95529686D01*
X103196143Y-95591277D01*
X103186190Y-95596458D01*
X103182057Y-95599561D01*
X103182054Y-95599563D01*
X103026133Y-95716632D01*
X102995740Y-95739452D01*
X102992168Y-95743190D01*
X102868380Y-95872727D01*
X102831202Y-95911631D01*
X102828288Y-95915903D01*
X102828287Y-95915904D01*
X102785991Y-95977908D01*
X102696994Y-96108372D01*
X102684578Y-96135121D01*
X102635029Y-96241866D01*
X102596722Y-96324391D01*
X102533077Y-96553885D01*
X102532528Y-96559019D01*
X102532528Y-96559021D01*
X102527049Y-96610289D01*
X102507770Y-96790694D01*
X100889745Y-96790694D01*
X100873150Y-96588844D01*
X100815131Y-96357863D01*
X100720167Y-96139459D01*
X100716290Y-96133465D01*
X100618109Y-95981702D01*
X100590806Y-95939498D01*
X100430524Y-95763350D01*
X100426473Y-95760151D01*
X100426469Y-95760147D01*
X100247682Y-95618951D01*
X100243624Y-95615746D01*
X100138005Y-95557441D01*
X100088036Y-95507010D01*
X100072900Y-95447134D01*
X100072900Y-91704874D01*
X100092902Y-91636753D01*
X100143466Y-91591724D01*
X100183533Y-91572095D01*
X100187736Y-91569097D01*
X100187741Y-91569094D01*
X100373216Y-91436796D01*
X100373218Y-91436794D01*
X100377420Y-91433797D01*
X100546116Y-91265689D01*
X100685090Y-91072286D01*
X100689655Y-91063051D01*
X100788317Y-90863424D01*
X100788318Y-90863422D01*
X100790611Y-90858782D01*
X100855196Y-90646206D01*
X100858341Y-90635855D01*
X100858341Y-90635854D01*
X100859843Y-90630911D01*
X100876661Y-90503167D01*
X100890492Y-90398113D01*
X100890492Y-90398109D01*
X100890929Y-90394792D01*
X100891129Y-90386623D01*
X100892582Y-90327165D01*
X100892582Y-90327161D01*
X100892664Y-90323800D01*
X100889745Y-90288294D01*
X102507770Y-90288294D01*
X102508067Y-90293446D01*
X102508067Y-90293450D01*
X102518131Y-90467993D01*
X102521479Y-90526055D01*
X102522616Y-90531101D01*
X102522617Y-90531107D01*
X102547141Y-90639928D01*
X102573837Y-90758385D01*
X102575780Y-90763170D01*
X102660999Y-90973039D01*
X102663437Y-90979044D01*
X102787874Y-91182106D01*
X102943804Y-91362117D01*
X103127042Y-91514244D01*
X103131494Y-91516846D01*
X103131499Y-91516849D01*
X103321218Y-91627712D01*
X103332665Y-91634401D01*
X103555152Y-91719360D01*
X103560218Y-91720391D01*
X103560219Y-91720391D01*
X103614556Y-91731446D01*
X103788528Y-91766841D01*
X103922721Y-91771762D01*
X104021360Y-91775379D01*
X104021364Y-91775379D01*
X104026524Y-91775568D01*
X104031644Y-91774912D01*
X104031646Y-91774912D01*
X104257623Y-91745964D01*
X104257624Y-91745964D01*
X104262751Y-91745307D01*
X104345800Y-91720391D01*
X104485916Y-91678354D01*
X104485917Y-91678353D01*
X104490862Y-91676870D01*
X104704733Y-91572095D01*
X104708936Y-91569097D01*
X104708941Y-91569094D01*
X104894416Y-91436796D01*
X104894418Y-91436794D01*
X104898620Y-91433797D01*
X105067316Y-91265689D01*
X105206290Y-91072286D01*
X105210855Y-91063051D01*
X105309517Y-90863424D01*
X105309518Y-90863422D01*
X105311811Y-90858782D01*
X105376396Y-90646206D01*
X105379541Y-90635855D01*
X105379541Y-90635854D01*
X105381043Y-90630911D01*
X105397861Y-90503167D01*
X105411692Y-90398113D01*
X105411692Y-90398109D01*
X105412129Y-90394792D01*
X105412329Y-90386623D01*
X105413782Y-90327165D01*
X105413782Y-90327161D01*
X105413864Y-90323800D01*
X105394350Y-90086444D01*
X105336331Y-89855463D01*
X105268073Y-89698478D01*
X105243427Y-89641796D01*
X105243425Y-89641793D01*
X105241367Y-89637059D01*
X105224294Y-89610667D01*
X105132279Y-89468435D01*
X105112006Y-89437098D01*
X105089060Y-89411880D01*
X105031737Y-89348883D01*
X104951724Y-89260950D01*
X104947673Y-89257751D01*
X104947669Y-89257747D01*
X104768878Y-89116547D01*
X104768873Y-89116544D01*
X104764824Y-89113346D01*
X104760308Y-89110853D01*
X104760305Y-89110851D01*
X104560850Y-89000746D01*
X104560846Y-89000744D01*
X104556326Y-88998249D01*
X104551457Y-88996525D01*
X104551453Y-88996523D01*
X104336705Y-88920476D01*
X104336701Y-88920475D01*
X104331830Y-88918750D01*
X104326740Y-88917843D01*
X104326735Y-88917842D01*
X104199414Y-88895164D01*
X104097364Y-88876986D01*
X104008237Y-88875897D01*
X103864395Y-88874139D01*
X103864393Y-88874139D01*
X103859225Y-88874076D01*
X103623809Y-88910100D01*
X103397438Y-88984089D01*
X103392846Y-88986479D01*
X103392847Y-88986479D01*
X103220793Y-89076045D01*
X103186190Y-89094058D01*
X103182057Y-89097161D01*
X103182054Y-89097163D01*
X102999875Y-89233947D01*
X102995740Y-89237052D01*
X102992168Y-89240790D01*
X102859269Y-89379861D01*
X102831202Y-89409231D01*
X102828288Y-89413503D01*
X102828287Y-89413504D01*
X102824013Y-89419770D01*
X102696994Y-89605972D01*
X102656023Y-89694238D01*
X102603270Y-89807885D01*
X102596722Y-89821991D01*
X102533077Y-90051485D01*
X102532528Y-90056619D01*
X102532528Y-90056621D01*
X102528758Y-90091903D01*
X102507770Y-90288294D01*
X100889745Y-90288294D01*
X100873150Y-90086444D01*
X100815131Y-89855463D01*
X100746873Y-89698478D01*
X100722227Y-89641796D01*
X100722225Y-89641793D01*
X100720167Y-89637059D01*
X100703094Y-89610667D01*
X100611079Y-89468435D01*
X100590806Y-89437098D01*
X100567860Y-89411880D01*
X100510537Y-89348883D01*
X100430524Y-89260950D01*
X100426473Y-89257751D01*
X100426469Y-89257747D01*
X100247678Y-89116547D01*
X100247673Y-89116544D01*
X100243624Y-89113346D01*
X100239108Y-89110853D01*
X100239105Y-89110851D01*
X100039650Y-89000746D01*
X100039646Y-89000744D01*
X100035126Y-88998249D01*
X100030257Y-88996525D01*
X100030253Y-88996523D01*
X99815505Y-88920476D01*
X99815501Y-88920475D01*
X99810630Y-88918750D01*
X99805540Y-88917843D01*
X99805535Y-88917842D01*
X99678214Y-88895164D01*
X99576164Y-88876986D01*
X99487037Y-88875897D01*
X99343195Y-88874139D01*
X99343193Y-88874139D01*
X99338025Y-88874076D01*
X99102609Y-88910100D01*
X98876238Y-88984089D01*
X98871646Y-88986479D01*
X98871647Y-88986479D01*
X98699593Y-89076045D01*
X98664990Y-89094058D01*
X98660857Y-89097161D01*
X98660854Y-89097163D01*
X98478675Y-89233947D01*
X98474540Y-89237052D01*
X98470968Y-89240790D01*
X98338069Y-89379861D01*
X98310002Y-89409231D01*
X98307088Y-89413503D01*
X98307087Y-89413504D01*
X98302813Y-89419770D01*
X98175794Y-89605972D01*
X98134823Y-89694238D01*
X98082070Y-89807885D01*
X98075522Y-89821991D01*
X98011877Y-90051485D01*
X98011328Y-90056619D01*
X98011328Y-90056621D01*
X98007558Y-90091903D01*
X97986570Y-90288294D01*
X97986867Y-90293446D01*
X97986867Y-90293450D01*
X97996931Y-90467993D01*
X98000279Y-90526055D01*
X98001416Y-90531101D01*
X98001417Y-90531107D01*
X98025941Y-90639928D01*
X98052637Y-90758385D01*
X98054580Y-90763170D01*
X98139799Y-90973039D01*
X98142237Y-90979044D01*
X98266674Y-91182106D01*
X98422604Y-91362117D01*
X98605842Y-91514244D01*
X98610294Y-91516846D01*
X98610299Y-91516849D01*
X98686368Y-91561300D01*
X98737001Y-91590887D01*
X98743471Y-91594668D01*
X98792194Y-91646307D01*
X98805900Y-91703456D01*
X98805900Y-95446647D01*
X98785898Y-95514768D01*
X98738083Y-95558408D01*
X98664990Y-95596458D01*
X98660857Y-95599561D01*
X98660854Y-95599563D01*
X98504933Y-95716632D01*
X98474540Y-95739452D01*
X98470968Y-95743190D01*
X98347180Y-95872727D01*
X98310002Y-95911631D01*
X98307088Y-95915903D01*
X98307087Y-95915904D01*
X98264791Y-95977908D01*
X98175794Y-96108372D01*
X98163378Y-96135121D01*
X98113829Y-96241866D01*
X98075522Y-96324391D01*
X98011877Y-96553885D01*
X98011328Y-96559019D01*
X98011328Y-96559021D01*
X98005849Y-96610289D01*
X97986570Y-96790694D01*
X92547900Y-96790694D01*
X92547900Y-94379874D01*
X92567902Y-94311753D01*
X92618466Y-94266724D01*
X92658533Y-94247095D01*
X92662736Y-94244097D01*
X92662741Y-94244094D01*
X92739555Y-94189303D01*
X95609926Y-94189303D01*
X95615207Y-94196358D01*
X95803421Y-94306341D01*
X95812708Y-94310791D01*
X96025461Y-94392033D01*
X96035363Y-94394910D01*
X96258511Y-94440310D01*
X96268763Y-94441533D01*
X96496338Y-94449877D01*
X96506624Y-94449410D01*
X96732515Y-94420473D01*
X96742601Y-94418330D01*
X96960728Y-94352888D01*
X96970323Y-94349128D01*
X97174837Y-94248937D01*
X97183683Y-94243663D01*
X97249231Y-94196908D01*
X97257632Y-94186208D01*
X97250645Y-94173056D01*
X96448411Y-93370821D01*
X96434468Y-93363208D01*
X96432634Y-93363339D01*
X96426020Y-93367590D01*
X95616683Y-94176928D01*
X95609926Y-94189303D01*
X92739555Y-94189303D01*
X92848216Y-94111796D01*
X92848218Y-94111794D01*
X92852420Y-94108797D01*
X93021116Y-93940689D01*
X93031183Y-93926680D01*
X93085830Y-93850630D01*
X93160090Y-93747286D01*
X93162635Y-93742138D01*
X93263317Y-93538424D01*
X93263318Y-93538422D01*
X93265611Y-93533782D01*
X93334843Y-93305911D01*
X93345036Y-93228489D01*
X93365492Y-93073113D01*
X93365492Y-93073109D01*
X93365929Y-93069792D01*
X93366012Y-93066415D01*
X93367582Y-93002165D01*
X93367582Y-93002161D01*
X93367664Y-92998800D01*
X93365170Y-92968462D01*
X94983569Y-92968462D01*
X94996678Y-93195817D01*
X94998114Y-93206037D01*
X95048180Y-93428193D01*
X95051259Y-93438021D01*
X95136938Y-93649023D01*
X95141591Y-93658234D01*
X95236753Y-93813523D01*
X95247211Y-93822985D01*
X95255987Y-93819202D01*
X96063579Y-93011611D01*
X96069956Y-92999932D01*
X96800008Y-92999932D01*
X96800139Y-93001766D01*
X96804390Y-93008380D01*
X97610426Y-93814415D01*
X97622432Y-93820971D01*
X97634171Y-93812002D01*
X97677841Y-93751229D01*
X97683151Y-93742392D01*
X97784050Y-93538238D01*
X97787849Y-93528643D01*
X97854049Y-93310757D01*
X97856228Y-93300676D01*
X97886191Y-93073088D01*
X97886710Y-93066415D01*
X97888280Y-93002165D01*
X97888086Y-92995446D01*
X97869279Y-92766687D01*
X97867594Y-92756507D01*
X97812115Y-92535637D01*
X97808795Y-92525886D01*
X97717984Y-92317033D01*
X97713118Y-92307958D01*
X97633608Y-92185056D01*
X97622922Y-92175852D01*
X97613355Y-92180256D01*
X96807621Y-92985989D01*
X96800008Y-92999932D01*
X96069956Y-92999932D01*
X96071192Y-92997668D01*
X96071061Y-92995834D01*
X96066810Y-92989220D01*
X95260820Y-92183231D01*
X95249288Y-92176934D01*
X95237006Y-92186557D01*
X95175347Y-92276946D01*
X95170254Y-92285910D01*
X95074368Y-92492479D01*
X95070811Y-92502147D01*
X95009952Y-92721597D01*
X95008021Y-92731716D01*
X94983821Y-92958173D01*
X94983569Y-92968462D01*
X93365170Y-92968462D01*
X93358670Y-92889401D01*
X93373023Y-92819870D01*
X93422689Y-92769137D01*
X93458049Y-92755830D01*
X93517039Y-92743291D01*
X93632288Y-92718794D01*
X93666143Y-92703721D01*
X93800722Y-92643803D01*
X93800724Y-92643802D01*
X93806752Y-92641118D01*
X93817831Y-92633069D01*
X93919831Y-92558961D01*
X93961253Y-92528866D01*
X94000622Y-92485142D01*
X94084621Y-92391852D01*
X94084622Y-92391851D01*
X94089040Y-92386944D01*
X94184527Y-92221556D01*
X94243542Y-92039928D01*
X94245473Y-92021562D01*
X94262814Y-91856565D01*
X94263504Y-91850000D01*
X94259414Y-91811085D01*
X95612681Y-91811085D01*
X95619425Y-91823414D01*
X96422789Y-92626779D01*
X96436732Y-92634392D01*
X96438566Y-92634261D01*
X96445180Y-92630010D01*
X97252931Y-91822258D01*
X97259948Y-91809407D01*
X97252174Y-91798737D01*
X97243604Y-91791969D01*
X97235017Y-91786264D01*
X97035655Y-91676210D01*
X97026243Y-91671980D01*
X96811571Y-91595960D01*
X96801614Y-91593330D01*
X96577405Y-91553391D01*
X96567154Y-91552422D01*
X96339430Y-91549640D01*
X96329146Y-91550360D01*
X96104037Y-91584806D01*
X96094010Y-91587195D01*
X95877551Y-91657944D01*
X95868042Y-91661941D01*
X95666051Y-91767092D01*
X95657316Y-91772593D01*
X95621135Y-91799758D01*
X95612681Y-91811085D01*
X94259414Y-91811085D01*
X94258170Y-91799248D01*
X94244232Y-91666635D01*
X94244232Y-91666633D01*
X94243542Y-91660072D01*
X94184527Y-91478444D01*
X94160482Y-91436796D01*
X94107395Y-91344848D01*
X94089040Y-91313056D01*
X94026685Y-91243803D01*
X93965675Y-91176045D01*
X93965674Y-91176044D01*
X93961253Y-91171134D01*
X93845109Y-91086750D01*
X93812094Y-91062763D01*
X93812093Y-91062762D01*
X93806752Y-91058882D01*
X93800726Y-91056199D01*
X93800719Y-91056195D01*
X93633252Y-90981635D01*
X93579156Y-90935655D01*
X93558500Y-90866528D01*
X93558500Y-90449600D01*
X93556760Y-90432826D01*
X93548238Y-90350692D01*
X93548237Y-90350688D01*
X93547526Y-90343834D01*
X93544463Y-90334651D01*
X93493868Y-90183002D01*
X93491550Y-90176054D01*
X93398478Y-90025652D01*
X93273303Y-89900695D01*
X93269084Y-89898094D01*
X93228583Y-89840970D01*
X93225351Y-89770047D01*
X93260976Y-89708635D01*
X93268530Y-89702078D01*
X93274348Y-89698478D01*
X93287263Y-89685540D01*
X93349544Y-89651460D01*
X93420364Y-89656462D01*
X93474183Y-89695568D01*
X93476522Y-89699348D01*
X93601697Y-89824305D01*
X93607927Y-89828145D01*
X93607928Y-89828146D01*
X93745288Y-89912816D01*
X93752262Y-89917115D01*
X93832005Y-89943564D01*
X93913611Y-89970632D01*
X93913613Y-89970632D01*
X93920139Y-89972797D01*
X93926975Y-89973497D01*
X93926978Y-89973498D01*
X93970031Y-89977909D01*
X94024600Y-89983500D01*
X94775400Y-89983500D01*
X94778646Y-89983163D01*
X94778650Y-89983163D01*
X94874308Y-89973238D01*
X94874312Y-89973237D01*
X94881166Y-89972526D01*
X94887702Y-89970345D01*
X94887704Y-89970345D01*
X95019806Y-89926272D01*
X95048946Y-89916550D01*
X95199348Y-89823478D01*
X95324305Y-89698303D01*
X95327102Y-89693765D01*
X95384353Y-89653176D01*
X95455276Y-89649946D01*
X95516687Y-89685572D01*
X95524062Y-89694068D01*
X95532098Y-89704207D01*
X95646829Y-89818739D01*
X95658240Y-89827751D01*
X95796243Y-89912816D01*
X95809424Y-89918963D01*
X95963710Y-89970138D01*
X95977086Y-89973005D01*
X96071438Y-89982672D01*
X96077854Y-89983000D01*
X96177885Y-89983000D01*
X96193124Y-89978525D01*
X96194329Y-89977135D01*
X96196000Y-89969452D01*
X96196000Y-89964884D01*
X96704000Y-89964884D01*
X96708475Y-89980123D01*
X96709865Y-89981328D01*
X96717548Y-89982999D01*
X96822095Y-89982999D01*
X96828614Y-89982662D01*
X96924206Y-89972743D01*
X96937600Y-89969851D01*
X97091784Y-89918412D01*
X97104962Y-89912239D01*
X97242807Y-89826937D01*
X97254208Y-89817901D01*
X97368739Y-89703171D01*
X97377751Y-89691760D01*
X97462816Y-89553757D01*
X97468963Y-89540576D01*
X97520138Y-89386290D01*
X97523005Y-89372914D01*
X97532672Y-89278562D01*
X97533000Y-89272146D01*
X97533000Y-89047115D01*
X97528525Y-89031876D01*
X97527135Y-89030671D01*
X97519452Y-89029000D01*
X96722115Y-89029000D01*
X96706876Y-89033475D01*
X96705671Y-89034865D01*
X96704000Y-89042548D01*
X96704000Y-89964884D01*
X96196000Y-89964884D01*
X96196000Y-88502885D01*
X96704000Y-88502885D01*
X96708475Y-88518124D01*
X96709865Y-88519329D01*
X96717548Y-88521000D01*
X97514884Y-88521000D01*
X97530123Y-88516525D01*
X97531328Y-88515135D01*
X97532999Y-88507452D01*
X97532999Y-88277905D01*
X97532662Y-88271386D01*
X97522743Y-88175794D01*
X97519851Y-88162400D01*
X97468412Y-88008216D01*
X97462239Y-87995038D01*
X97376937Y-87857193D01*
X97367901Y-87845792D01*
X97253171Y-87731261D01*
X97241760Y-87722249D01*
X97103757Y-87637184D01*
X97090576Y-87631037D01*
X96936290Y-87579862D01*
X96922914Y-87576995D01*
X96828562Y-87567328D01*
X96822145Y-87567000D01*
X96722115Y-87567000D01*
X96706876Y-87571475D01*
X96705671Y-87572865D01*
X96704000Y-87580548D01*
X96704000Y-88502885D01*
X96196000Y-88502885D01*
X96196000Y-87585116D01*
X96191525Y-87569877D01*
X96190135Y-87568672D01*
X96182452Y-87567001D01*
X96077905Y-87567001D01*
X96071386Y-87567338D01*
X95975794Y-87577257D01*
X95962400Y-87580149D01*
X95808216Y-87631588D01*
X95795038Y-87637761D01*
X95657193Y-87723063D01*
X95645792Y-87732099D01*
X95531262Y-87846828D01*
X95524206Y-87855762D01*
X95466288Y-87896823D01*
X95395365Y-87900053D01*
X95333954Y-87864426D01*
X95327154Y-87856593D01*
X95323478Y-87850652D01*
X95303658Y-87830866D01*
X95203483Y-87730866D01*
X95198303Y-87725695D01*
X95192072Y-87721854D01*
X95053968Y-87636725D01*
X95053966Y-87636724D01*
X95047738Y-87632885D01*
X94949798Y-87600400D01*
X94886389Y-87579368D01*
X94886387Y-87579368D01*
X94879861Y-87577203D01*
X94873025Y-87576503D01*
X94873022Y-87576502D01*
X94829969Y-87572091D01*
X94775400Y-87566500D01*
X94024600Y-87566500D01*
X94021354Y-87566837D01*
X94021350Y-87566837D01*
X93925692Y-87576762D01*
X93925688Y-87576763D01*
X93918834Y-87577474D01*
X93912298Y-87579655D01*
X93912296Y-87579655D01*
X93780194Y-87623728D01*
X93751054Y-87633450D01*
X93600652Y-87726522D01*
X93595479Y-87731704D01*
X93476694Y-87850696D01*
X93414411Y-87884775D01*
X93343591Y-87879772D01*
X93298503Y-87850851D01*
X93278484Y-87830866D01*
X93278479Y-87830862D01*
X93273303Y-87825695D01*
X93267072Y-87821854D01*
X93128968Y-87736725D01*
X93128966Y-87736724D01*
X93122738Y-87732885D01*
X92962254Y-87679655D01*
X92961389Y-87679368D01*
X92961387Y-87679368D01*
X92954861Y-87677203D01*
X92948025Y-87676503D01*
X92948022Y-87676502D01*
X92904969Y-87672091D01*
X92850400Y-87666500D01*
X91799600Y-87666500D01*
X91796354Y-87666837D01*
X91796350Y-87666837D01*
X91700692Y-87676762D01*
X91700688Y-87676763D01*
X91693834Y-87677474D01*
X91687298Y-87679655D01*
X91687296Y-87679655D01*
X91611745Y-87704861D01*
X91526054Y-87733450D01*
X91375652Y-87826522D01*
X91250695Y-87951697D01*
X91157885Y-88102262D01*
X91156205Y-88101226D01*
X91115879Y-88147031D01*
X91048595Y-88166500D01*
X89496999Y-88166500D01*
X89428878Y-88146498D01*
X89382385Y-88092842D01*
X89370999Y-88040500D01*
X89370999Y-88010116D01*
X89369749Y-88000615D01*
X89356416Y-87899337D01*
X89356416Y-87899335D01*
X89355338Y-87891150D01*
X89347911Y-87873219D01*
X89340321Y-87802630D01*
X89347911Y-87776780D01*
X89352178Y-87766480D01*
X89352179Y-87766477D01*
X89355338Y-87758850D01*
X89371000Y-87639885D01*
X89371000Y-87609500D01*
X89391002Y-87541379D01*
X89444658Y-87494886D01*
X89497000Y-87483500D01*
X89946233Y-87483500D01*
X89957416Y-87484027D01*
X89964909Y-87485702D01*
X89972835Y-87485453D01*
X89972836Y-87485453D01*
X90032986Y-87483562D01*
X90036945Y-87483500D01*
X90064856Y-87483500D01*
X90068791Y-87483003D01*
X90068856Y-87482995D01*
X90080693Y-87482062D01*
X90112951Y-87481048D01*
X90116970Y-87480922D01*
X90124889Y-87480673D01*
X90144343Y-87475021D01*
X90163700Y-87471013D01*
X90175930Y-87469468D01*
X90175931Y-87469468D01*
X90183797Y-87468474D01*
X90191168Y-87465555D01*
X90191170Y-87465555D01*
X90224912Y-87452196D01*
X90236142Y-87448351D01*
X90270983Y-87438229D01*
X90270984Y-87438229D01*
X90278593Y-87436018D01*
X90285412Y-87431985D01*
X90285417Y-87431983D01*
X90296028Y-87425707D01*
X90313776Y-87417012D01*
X90332617Y-87409552D01*
X90368387Y-87383564D01*
X90378307Y-87377048D01*
X90409535Y-87358580D01*
X90409538Y-87358578D01*
X90416362Y-87354542D01*
X90430683Y-87340221D01*
X90445717Y-87327380D01*
X90455693Y-87320132D01*
X90462107Y-87315472D01*
X90490293Y-87281401D01*
X90498282Y-87272622D01*
X90550499Y-87220405D01*
X90612811Y-87186379D01*
X90639594Y-87183500D01*
X90695487Y-87183500D01*
X90701939Y-87182128D01*
X90701944Y-87182128D01*
X90788887Y-87163647D01*
X90882288Y-87143794D01*
X90888319Y-87141109D01*
X91050722Y-87068803D01*
X91050724Y-87068802D01*
X91056752Y-87066118D01*
X91211253Y-86953866D01*
X91241621Y-86920139D01*
X91334621Y-86816852D01*
X91334622Y-86816851D01*
X91339040Y-86811944D01*
X91434527Y-86646556D01*
X91493542Y-86464928D01*
X91495042Y-86450662D01*
X91512814Y-86281565D01*
X91513504Y-86275000D01*
X91496162Y-86110000D01*
X91494232Y-86091635D01*
X91494232Y-86091633D01*
X91493542Y-86085072D01*
X91434527Y-85903444D01*
X91429851Y-85895344D01*
X91347752Y-85753146D01*
X91339040Y-85738056D01*
X91327285Y-85725000D01*
X91215675Y-85601045D01*
X91215674Y-85601044D01*
X91211253Y-85596134D01*
X91056752Y-85483882D01*
X91050726Y-85481199D01*
X91050719Y-85481195D01*
X90963182Y-85442222D01*
X90909086Y-85396242D01*
X90889120Y-85340284D01*
X90884824Y-85299406D01*
X90884824Y-85299405D01*
X90884134Y-85292842D01*
X90825119Y-85111214D01*
X90809243Y-85083715D01*
X90773937Y-85022564D01*
X90729632Y-84945826D01*
X90709532Y-84923502D01*
X90606267Y-84808815D01*
X90606266Y-84808814D01*
X90601845Y-84803904D01*
X90492431Y-84724410D01*
X90452686Y-84695533D01*
X90452685Y-84695532D01*
X90447344Y-84691652D01*
X90441316Y-84688968D01*
X90441314Y-84688967D01*
X90278911Y-84616661D01*
X90278910Y-84616661D01*
X90272880Y-84613976D01*
X90179479Y-84594123D01*
X90092536Y-84575642D01*
X90092531Y-84575642D01*
X90086079Y-84574270D01*
X89895105Y-84574270D01*
X89888653Y-84575642D01*
X89888648Y-84575642D01*
X89801705Y-84594123D01*
X89708304Y-84613976D01*
X89702274Y-84616661D01*
X89702273Y-84616661D01*
X89539870Y-84688967D01*
X89539868Y-84688968D01*
X89533840Y-84691652D01*
X89528499Y-84695532D01*
X89528498Y-84695533D01*
X89488753Y-84724410D01*
X89379339Y-84803904D01*
X89374918Y-84808814D01*
X89374917Y-84808815D01*
X89269614Y-84925766D01*
X89209168Y-84963006D01*
X89138184Y-84961654D01*
X89099275Y-84941419D01*
X89075928Y-84923504D01*
X89075925Y-84923502D01*
X89069375Y-84918476D01*
X88921350Y-84857162D01*
X88866949Y-84850000D01*
X88806472Y-84842038D01*
X88806471Y-84842038D01*
X88802385Y-84841500D01*
X88125083Y-84841500D01*
X87447616Y-84841501D01*
X87443531Y-84842039D01*
X87443527Y-84842039D01*
X87336837Y-84856084D01*
X87336835Y-84856084D01*
X87328650Y-84857162D01*
X87280409Y-84877144D01*
X87188252Y-84915316D01*
X87188250Y-84915317D01*
X87180624Y-84918476D01*
X87174074Y-84923502D01*
X87071198Y-85002443D01*
X87053513Y-85016013D01*
X87048487Y-85022563D01*
X87048484Y-85022566D01*
X87018687Y-85061399D01*
X86955976Y-85143125D01*
X86894662Y-85291150D01*
X86893584Y-85299337D01*
X86893584Y-85299338D01*
X86882051Y-85386944D01*
X86879000Y-85410115D01*
X86879001Y-85689884D01*
X86879539Y-85693969D01*
X86879539Y-85693973D01*
X86886714Y-85748478D01*
X86894662Y-85808850D01*
X86902089Y-85826780D01*
X86909679Y-85897370D01*
X86902089Y-85923220D01*
X86897822Y-85933520D01*
X86897821Y-85933523D01*
X86894662Y-85941150D01*
X86879000Y-86060115D01*
X86879001Y-86339884D01*
X86879539Y-86343969D01*
X86879539Y-86343973D01*
X86884736Y-86383450D01*
X86894662Y-86458850D01*
X86901982Y-86476522D01*
X86902089Y-86476780D01*
X86909679Y-86547370D01*
X86902089Y-86573220D01*
X86897822Y-86583520D01*
X86897821Y-86583523D01*
X86894662Y-86591150D01*
X86893584Y-86599337D01*
X86893584Y-86599338D01*
X86889389Y-86631206D01*
X86879000Y-86710115D01*
X86879001Y-86989884D01*
X86879539Y-86993969D01*
X86879539Y-86993973D01*
X86889390Y-87068803D01*
X86894662Y-87108850D01*
X86902089Y-87126780D01*
X86909679Y-87197370D01*
X86902089Y-87223220D01*
X86897822Y-87233520D01*
X86897821Y-87233523D01*
X86894662Y-87241150D01*
X86879000Y-87360115D01*
X86879001Y-87639884D01*
X86879539Y-87643969D01*
X86879539Y-87643973D01*
X86890978Y-87730866D01*
X86894662Y-87758850D01*
X86902089Y-87776780D01*
X86909679Y-87847370D01*
X86902089Y-87873220D01*
X86897822Y-87883520D01*
X86897821Y-87883523D01*
X86894662Y-87891150D01*
X86893584Y-87899337D01*
X86893584Y-87899338D01*
X86882051Y-87986944D01*
X86879000Y-88010115D01*
X86879001Y-88289884D01*
X86879539Y-88293969D01*
X86879539Y-88293973D01*
X86893584Y-88400662D01*
X86894662Y-88408850D01*
X86897822Y-88416478D01*
X86902089Y-88426780D01*
X86909679Y-88497370D01*
X86902090Y-88523218D01*
X86894662Y-88541150D01*
X86879000Y-88660115D01*
X86879001Y-88796771D01*
X86879001Y-88830417D01*
X86858999Y-88898538D01*
X86805344Y-88945031D01*
X86735070Y-88955136D01*
X86701753Y-88945525D01*
X86563323Y-88883892D01*
X86563315Y-88883889D01*
X86557288Y-88881206D01*
X86463887Y-88861353D01*
X86376944Y-88842872D01*
X86376939Y-88842872D01*
X86370487Y-88841500D01*
X86179513Y-88841500D01*
X86173061Y-88842872D01*
X86173056Y-88842872D01*
X86086113Y-88861353D01*
X85992712Y-88881206D01*
X85986682Y-88883891D01*
X85986681Y-88883891D01*
X85824278Y-88956197D01*
X85824276Y-88956198D01*
X85818248Y-88958882D01*
X85812907Y-88962762D01*
X85812906Y-88962763D01*
X85783554Y-88984089D01*
X85663747Y-89071134D01*
X85659326Y-89076044D01*
X85659325Y-89076045D01*
X85548313Y-89199337D01*
X85535960Y-89213056D01*
X85440473Y-89378444D01*
X85381458Y-89560072D01*
X85380768Y-89566633D01*
X85380768Y-89566635D01*
X85366911Y-89698478D01*
X85361496Y-89750000D01*
X85362186Y-89756565D01*
X85379255Y-89918963D01*
X85381458Y-89939928D01*
X85440473Y-90121556D01*
X85443776Y-90127278D01*
X85443777Y-90127279D01*
X85490757Y-90208651D01*
X85507495Y-90277647D01*
X85490757Y-90334651D01*
X85465473Y-90378444D01*
X85406458Y-90560072D01*
X85405768Y-90566633D01*
X85405768Y-90566635D01*
X85391454Y-90702831D01*
X85386496Y-90750000D01*
X85387186Y-90756565D01*
X85393763Y-90819137D01*
X85406458Y-90939928D01*
X85408498Y-90946206D01*
X85440395Y-91044373D01*
X85465473Y-91121556D01*
X85468776Y-91127276D01*
X85469617Y-91129166D01*
X85479052Y-91199533D01*
X85448947Y-91263830D01*
X85388858Y-91301644D01*
X85317865Y-91300969D01*
X85265416Y-91269511D01*
X84353652Y-90357747D01*
X84346112Y-90349461D01*
X84342000Y-90342982D01*
X84325157Y-90327165D01*
X84292349Y-90296357D01*
X84289507Y-90293602D01*
X84269770Y-90273865D01*
X84266573Y-90271385D01*
X84257551Y-90263680D01*
X84225321Y-90233414D01*
X84218375Y-90229595D01*
X84218372Y-90229593D01*
X84207566Y-90223652D01*
X84191047Y-90212801D01*
X84190583Y-90212441D01*
X84175041Y-90200386D01*
X84167772Y-90197241D01*
X84167768Y-90197238D01*
X84134463Y-90182826D01*
X84123813Y-90177609D01*
X84085060Y-90156305D01*
X84065437Y-90151267D01*
X84046734Y-90144863D01*
X84035420Y-90139967D01*
X84035419Y-90139967D01*
X84028145Y-90136819D01*
X84020322Y-90135580D01*
X84020312Y-90135577D01*
X83984476Y-90129901D01*
X83972856Y-90127495D01*
X83937711Y-90118472D01*
X83937710Y-90118472D01*
X83930030Y-90116500D01*
X83909776Y-90116500D01*
X83890065Y-90114949D01*
X83877886Y-90113020D01*
X83870057Y-90111780D01*
X83833127Y-90115271D01*
X83826039Y-90115941D01*
X83814181Y-90116500D01*
X83771999Y-90116500D01*
X83703878Y-90096498D01*
X83657385Y-90042842D01*
X83645999Y-89990500D01*
X83645999Y-89960116D01*
X83643342Y-89939928D01*
X83631416Y-89849337D01*
X83631416Y-89849335D01*
X83630338Y-89841150D01*
X83622911Y-89823219D01*
X83615321Y-89752630D01*
X83622911Y-89726780D01*
X83627178Y-89716480D01*
X83627179Y-89716477D01*
X83630338Y-89708850D01*
X83631595Y-89699305D01*
X83645462Y-89593972D01*
X83645462Y-89593971D01*
X83646000Y-89589885D01*
X83645999Y-89310116D01*
X83641905Y-89279011D01*
X83631416Y-89199337D01*
X83631416Y-89199335D01*
X83630338Y-89191150D01*
X83622640Y-89172565D01*
X83615050Y-89101977D01*
X83622640Y-89076126D01*
X83626689Y-89066351D01*
X83630928Y-89050531D01*
X83635216Y-89017960D01*
X83633005Y-89003778D01*
X83619848Y-89000000D01*
X83598069Y-89000000D01*
X83529948Y-88979998D01*
X83498107Y-88950705D01*
X83471487Y-88916013D01*
X83450568Y-88899961D01*
X83408702Y-88842622D01*
X83404482Y-88771751D01*
X83439247Y-88709848D01*
X83450570Y-88700038D01*
X83464933Y-88689017D01*
X83464937Y-88689013D01*
X83471487Y-88683987D01*
X83498108Y-88649295D01*
X83555446Y-88607428D01*
X83598069Y-88600000D01*
X83619465Y-88600000D01*
X83633236Y-88595956D01*
X83635265Y-88582417D01*
X83630928Y-88549467D01*
X83626690Y-88533652D01*
X83622640Y-88523874D01*
X83615050Y-88453285D01*
X83622640Y-88427434D01*
X83627178Y-88416479D01*
X83627178Y-88416478D01*
X83630338Y-88408850D01*
X83646000Y-88289885D01*
X83645999Y-88010116D01*
X83644749Y-88000615D01*
X83631416Y-87899337D01*
X83631416Y-87899335D01*
X83630338Y-87891150D01*
X83622911Y-87873219D01*
X83615321Y-87802630D01*
X83622911Y-87776780D01*
X83627178Y-87766480D01*
X83627179Y-87766477D01*
X83630338Y-87758850D01*
X83646000Y-87639885D01*
X83645999Y-87360116D01*
X83645266Y-87354542D01*
X83631416Y-87249337D01*
X83631416Y-87249335D01*
X83630338Y-87241150D01*
X83622911Y-87223219D01*
X83615321Y-87152630D01*
X83622911Y-87126780D01*
X83627178Y-87116480D01*
X83627179Y-87116477D01*
X83630338Y-87108850D01*
X83646000Y-86989885D01*
X83645999Y-86710116D01*
X83644028Y-86695139D01*
X83631416Y-86599337D01*
X83631416Y-86599335D01*
X83630338Y-86591150D01*
X83622911Y-86573219D01*
X83615321Y-86502630D01*
X83622911Y-86476780D01*
X83623361Y-86475695D01*
X83627179Y-86466478D01*
X83627179Y-86466477D01*
X83630338Y-86458850D01*
X83646000Y-86339885D01*
X83645999Y-86060116D01*
X83644668Y-86050000D01*
X83631416Y-85949337D01*
X83631416Y-85949335D01*
X83630338Y-85941150D01*
X83622911Y-85923219D01*
X83615321Y-85852630D01*
X83622911Y-85826780D01*
X83627178Y-85816480D01*
X83627179Y-85816477D01*
X83630338Y-85808850D01*
X83638905Y-85743774D01*
X83645462Y-85693972D01*
X83645462Y-85693971D01*
X83646000Y-85689885D01*
X83645999Y-85410116D01*
X83638606Y-85353951D01*
X83631416Y-85299337D01*
X83631416Y-85299335D01*
X83630338Y-85291150D01*
X83569024Y-85143124D01*
X83523437Y-85083715D01*
X83476514Y-85022564D01*
X83476513Y-85022563D01*
X83471487Y-85016013D01*
X83464936Y-85010986D01*
X83464934Y-85010984D01*
X83380018Y-84945826D01*
X83344375Y-84918476D01*
X83196350Y-84857162D01*
X83141949Y-84850000D01*
X83081472Y-84842038D01*
X83081471Y-84842038D01*
X83077385Y-84841500D01*
X82400083Y-84841500D01*
X81722616Y-84841501D01*
X81718531Y-84842039D01*
X81718527Y-84842039D01*
X81611837Y-84856084D01*
X81611835Y-84856084D01*
X81603650Y-84857162D01*
X81596018Y-84860323D01*
X81596019Y-84860323D01*
X81472927Y-84911308D01*
X81402338Y-84918897D01*
X81338851Y-84887117D01*
X81331074Y-84879209D01*
X81215675Y-84751045D01*
X81215674Y-84751044D01*
X81211253Y-84746134D01*
X81056752Y-84633882D01*
X81050724Y-84631198D01*
X81050722Y-84631197D01*
X80939350Y-84581611D01*
X80901504Y-84555599D01*
X80678652Y-84332747D01*
X80671114Y-84324464D01*
X80667000Y-84317982D01*
X80617362Y-84271370D01*
X80614519Y-84268615D01*
X80597571Y-84251666D01*
X80594770Y-84248865D01*
X80591573Y-84246385D01*
X80582551Y-84238680D01*
X80562692Y-84220031D01*
X80550321Y-84208414D01*
X80543375Y-84204595D01*
X80543372Y-84204593D01*
X80532566Y-84198652D01*
X80516047Y-84187801D01*
X80507570Y-84181226D01*
X80500041Y-84175386D01*
X80492772Y-84172241D01*
X80492768Y-84172238D01*
X80459463Y-84157826D01*
X80448813Y-84152609D01*
X80410060Y-84131305D01*
X80390437Y-84126267D01*
X80371734Y-84119863D01*
X80360420Y-84114967D01*
X80360419Y-84114967D01*
X80353145Y-84111819D01*
X80345320Y-84110579D01*
X80345311Y-84110577D01*
X80319143Y-84106432D01*
X80254990Y-84076019D01*
X80219332Y-84021860D01*
X80206368Y-83983002D01*
X80204050Y-83976054D01*
X80110978Y-83825652D01*
X79985803Y-83700695D01*
X79968453Y-83690000D01*
X79944119Y-83675000D01*
X84411496Y-83675000D01*
X84412186Y-83681565D01*
X84428141Y-83833365D01*
X84431458Y-83864928D01*
X84490473Y-84046556D01*
X84493776Y-84052278D01*
X84493777Y-84052279D01*
X84516421Y-84091500D01*
X84585960Y-84211944D01*
X84590378Y-84216851D01*
X84590379Y-84216852D01*
X84681437Y-84317982D01*
X84713747Y-84353866D01*
X84743733Y-84375652D01*
X84833839Y-84441118D01*
X84868248Y-84466118D01*
X84874276Y-84468802D01*
X84874278Y-84468803D01*
X84989642Y-84520166D01*
X85042712Y-84543794D01*
X85136112Y-84563647D01*
X85223056Y-84582128D01*
X85223061Y-84582128D01*
X85229513Y-84583500D01*
X85420487Y-84583500D01*
X85426939Y-84582128D01*
X85426944Y-84582128D01*
X85513888Y-84563647D01*
X85607288Y-84543794D01*
X85660358Y-84520166D01*
X85775722Y-84468803D01*
X85775724Y-84468802D01*
X85781752Y-84466118D01*
X85816162Y-84441118D01*
X85906267Y-84375652D01*
X85936253Y-84353866D01*
X85968563Y-84317982D01*
X86059621Y-84216852D01*
X86059622Y-84216851D01*
X86064040Y-84211944D01*
X86133579Y-84091500D01*
X86156223Y-84052279D01*
X86156224Y-84052278D01*
X86159527Y-84046556D01*
X86218542Y-83864928D01*
X86221860Y-83833365D01*
X86237814Y-83681565D01*
X86238504Y-83675000D01*
X86235876Y-83650000D01*
X87136496Y-83650000D01*
X87137186Y-83656565D01*
X87154958Y-83825652D01*
X87156458Y-83839928D01*
X87215473Y-84021556D01*
X87310960Y-84186944D01*
X87315378Y-84191851D01*
X87315379Y-84191852D01*
X87369106Y-84251522D01*
X87438747Y-84328866D01*
X87515997Y-84384992D01*
X87523758Y-84390630D01*
X87593248Y-84441118D01*
X87599276Y-84443802D01*
X87599278Y-84443803D01*
X87761681Y-84516109D01*
X87767712Y-84518794D01*
X87861113Y-84538647D01*
X87948056Y-84557128D01*
X87948061Y-84557128D01*
X87954513Y-84558500D01*
X88145487Y-84558500D01*
X88151939Y-84557128D01*
X88151944Y-84557128D01*
X88238887Y-84538647D01*
X88332288Y-84518794D01*
X88338319Y-84516109D01*
X88500722Y-84443803D01*
X88500724Y-84443802D01*
X88506752Y-84441118D01*
X88576243Y-84390630D01*
X88584003Y-84384992D01*
X88661253Y-84328866D01*
X88730894Y-84251522D01*
X88784621Y-84191852D01*
X88784622Y-84191851D01*
X88789040Y-84186944D01*
X88884527Y-84021556D01*
X88943542Y-83839928D01*
X88945043Y-83825652D01*
X88962814Y-83656565D01*
X88963032Y-83654494D01*
X95047170Y-83654494D01*
X95047467Y-83659646D01*
X95047467Y-83659650D01*
X95055452Y-83798134D01*
X95060879Y-83892255D01*
X95062016Y-83897301D01*
X95062017Y-83897307D01*
X95088602Y-84015271D01*
X95113237Y-84124585D01*
X95115179Y-84129367D01*
X95115180Y-84129371D01*
X95200893Y-84340457D01*
X95202837Y-84345244D01*
X95327274Y-84548306D01*
X95483204Y-84728317D01*
X95666442Y-84880444D01*
X95670894Y-84883046D01*
X95670899Y-84883049D01*
X95807729Y-84963006D01*
X95872065Y-85000601D01*
X96094552Y-85085560D01*
X96099618Y-85086591D01*
X96099619Y-85086591D01*
X96153956Y-85097646D01*
X96327928Y-85133041D01*
X96462121Y-85137962D01*
X96560760Y-85141579D01*
X96560764Y-85141579D01*
X96565924Y-85141768D01*
X96571044Y-85141112D01*
X96571046Y-85141112D01*
X96797023Y-85112164D01*
X96797024Y-85112164D01*
X96802151Y-85111507D01*
X96807101Y-85110022D01*
X97025316Y-85044554D01*
X97025317Y-85044553D01*
X97030262Y-85043070D01*
X97244133Y-84938295D01*
X97248336Y-84935297D01*
X97248341Y-84935294D01*
X97433816Y-84802996D01*
X97433818Y-84802994D01*
X97438020Y-84799997D01*
X97606716Y-84631889D01*
X97617659Y-84616661D01*
X97642844Y-84581611D01*
X97745690Y-84438486D01*
X97766964Y-84395443D01*
X97848917Y-84229624D01*
X97848918Y-84229622D01*
X97851211Y-84224982D01*
X97920443Y-83997111D01*
X97923215Y-83976054D01*
X97951092Y-83764313D01*
X97951092Y-83764309D01*
X97951529Y-83760992D01*
X97952876Y-83705866D01*
X97953182Y-83693365D01*
X97953182Y-83693361D01*
X97953264Y-83690000D01*
X97933750Y-83452644D01*
X97875731Y-83221663D01*
X97810282Y-83071139D01*
X97782827Y-83007996D01*
X97782825Y-83007993D01*
X97780767Y-83003259D01*
X97775146Y-82994569D01*
X97655024Y-82808891D01*
X97651406Y-82803298D01*
X97630056Y-82779834D01*
X97585550Y-82730923D01*
X97491124Y-82627150D01*
X97487073Y-82623951D01*
X97487069Y-82623947D01*
X97358578Y-82522472D01*
X97353347Y-82518341D01*
X97312285Y-82460425D01*
X97309053Y-82389502D01*
X97344678Y-82328091D01*
X97358271Y-82316882D01*
X97433814Y-82262998D01*
X97433821Y-82262992D01*
X97438020Y-82259997D01*
X97606716Y-82091889D01*
X97745690Y-81898486D01*
X97756208Y-81877206D01*
X97848917Y-81689624D01*
X97848918Y-81689622D01*
X97851211Y-81684982D01*
X97920443Y-81457111D01*
X97951529Y-81220992D01*
X97953264Y-81150000D01*
X97933750Y-80912644D01*
X97875731Y-80681663D01*
X97814135Y-80540000D01*
X97782827Y-80467996D01*
X97782825Y-80467993D01*
X97780767Y-80463259D01*
X97763694Y-80436867D01*
X97654216Y-80267642D01*
X97651406Y-80263298D01*
X97491124Y-80087150D01*
X97487073Y-80083951D01*
X97487069Y-80083947D01*
X97353348Y-79978342D01*
X97312285Y-79920425D01*
X97309053Y-79849502D01*
X97344678Y-79788091D01*
X97358271Y-79776882D01*
X97433814Y-79722998D01*
X97433821Y-79722992D01*
X97438020Y-79719997D01*
X97606716Y-79551889D01*
X97745690Y-79358486D01*
X97791774Y-79265244D01*
X97848917Y-79149624D01*
X97848918Y-79149622D01*
X97851211Y-79144982D01*
X97920443Y-78917111D01*
X97951529Y-78680992D01*
X97951924Y-78664834D01*
X97953182Y-78613365D01*
X97953182Y-78613361D01*
X97953264Y-78610000D01*
X97933750Y-78372644D01*
X97875731Y-78141663D01*
X97789700Y-77943803D01*
X97782827Y-77927996D01*
X97782825Y-77927993D01*
X97780767Y-77923259D01*
X97771342Y-77908689D01*
X97678383Y-77764998D01*
X97651406Y-77723298D01*
X97644918Y-77716167D01*
X97600358Y-77667197D01*
X97491124Y-77547150D01*
X97487073Y-77543951D01*
X97487069Y-77543947D01*
X97353348Y-77438342D01*
X97312285Y-77380425D01*
X97309053Y-77309502D01*
X97344678Y-77248091D01*
X97358271Y-77236882D01*
X97433814Y-77182998D01*
X97433821Y-77182992D01*
X97438020Y-77179997D01*
X97606716Y-77011889D01*
X97745690Y-76818486D01*
X97762241Y-76784999D01*
X97848917Y-76609624D01*
X97848918Y-76609622D01*
X97851211Y-76604982D01*
X97920443Y-76377111D01*
X97922843Y-76358882D01*
X97951092Y-76144313D01*
X97951092Y-76144309D01*
X97951529Y-76140992D01*
X97951611Y-76137640D01*
X97953182Y-76073365D01*
X97953182Y-76073361D01*
X97953264Y-76070000D01*
X97933750Y-75832644D01*
X97875731Y-75601663D01*
X97794686Y-75415271D01*
X97782827Y-75387996D01*
X97782825Y-75387993D01*
X97780767Y-75383259D01*
X97771723Y-75369278D01*
X97654216Y-75187642D01*
X97651406Y-75183298D01*
X97634634Y-75164865D01*
X97530114Y-75050000D01*
X99036496Y-75050000D01*
X99037186Y-75056565D01*
X99050963Y-75187642D01*
X99056458Y-75239928D01*
X99115473Y-75421556D01*
X99210960Y-75586944D01*
X99215378Y-75591851D01*
X99215379Y-75591852D01*
X99268385Y-75650721D01*
X99338747Y-75728866D01*
X99393300Y-75768501D01*
X99481585Y-75832644D01*
X99493248Y-75841118D01*
X99499276Y-75843802D01*
X99499278Y-75843803D01*
X99620109Y-75897600D01*
X99667712Y-75918794D01*
X99761113Y-75938647D01*
X99848056Y-75957128D01*
X99848061Y-75957128D01*
X99854513Y-75958500D01*
X100045487Y-75958500D01*
X100051939Y-75957128D01*
X100051944Y-75957128D01*
X100138887Y-75938647D01*
X100232288Y-75918794D01*
X100279891Y-75897600D01*
X100400722Y-75843803D01*
X100400724Y-75843802D01*
X100406752Y-75841118D01*
X100418416Y-75832644D01*
X100473579Y-75792565D01*
X100540446Y-75768707D01*
X100547640Y-75768501D01*
X100870424Y-75768501D01*
X100938545Y-75788503D01*
X100985038Y-75842159D01*
X100995142Y-75912433D01*
X100965648Y-75977013D01*
X100947133Y-75994459D01*
X100937930Y-76001521D01*
X100937926Y-76001525D01*
X100937922Y-76001528D01*
X100912567Y-76020983D01*
X100912564Y-76020986D01*
X100906014Y-76026012D01*
X100900984Y-76032567D01*
X100886549Y-76051378D01*
X100875682Y-76063769D01*
X100734856Y-76204595D01*
X100672544Y-76238621D01*
X100645761Y-76241500D01*
X100554513Y-76241500D01*
X100548061Y-76242872D01*
X100548056Y-76242872D01*
X100461112Y-76261353D01*
X100367712Y-76281206D01*
X100361682Y-76283891D01*
X100361681Y-76283891D01*
X100199278Y-76356197D01*
X100199276Y-76356198D01*
X100193248Y-76358882D01*
X100038747Y-76471134D01*
X100034326Y-76476044D01*
X100034325Y-76476045D01*
X100008628Y-76504585D01*
X99910960Y-76613056D01*
X99815473Y-76778444D01*
X99756458Y-76960072D01*
X99736496Y-77150000D01*
X99737186Y-77156565D01*
X99753726Y-77313931D01*
X99756458Y-77339928D01*
X99815473Y-77521556D01*
X99910960Y-77686944D01*
X99915378Y-77691851D01*
X99915379Y-77691852D01*
X99981240Y-77764998D01*
X100038747Y-77828866D01*
X100067369Y-77849661D01*
X100162697Y-77918921D01*
X100193248Y-77941118D01*
X100199276Y-77943802D01*
X100199278Y-77943803D01*
X100321686Y-77998302D01*
X100367712Y-78018794D01*
X100461112Y-78038647D01*
X100548056Y-78057128D01*
X100548061Y-78057128D01*
X100554513Y-78058500D01*
X100745487Y-78058500D01*
X100751939Y-78057128D01*
X100751944Y-78057128D01*
X100838888Y-78038647D01*
X100932288Y-78018794D01*
X100978314Y-77998302D01*
X101100722Y-77943803D01*
X101100724Y-77943802D01*
X101106752Y-77941118D01*
X101137304Y-77918921D01*
X101232631Y-77849661D01*
X101261253Y-77828866D01*
X101326034Y-77756920D01*
X101386476Y-77719682D01*
X101463897Y-77723250D01*
X101572984Y-77764145D01*
X101635166Y-77770900D01*
X102328284Y-77770900D01*
X102396405Y-77790902D01*
X102429110Y-77821335D01*
X102450339Y-77849661D01*
X102457519Y-77855042D01*
X102478665Y-77870890D01*
X102521180Y-77927749D01*
X102529100Y-77971716D01*
X102529100Y-78664834D01*
X102529469Y-78668231D01*
X102535002Y-78719160D01*
X102535855Y-78727016D01*
X102538627Y-78734409D01*
X102538627Y-78734411D01*
X102573482Y-78827386D01*
X102581500Y-78871615D01*
X102581500Y-80491864D01*
X102580422Y-80508307D01*
X102576250Y-80540000D01*
X102581500Y-80579880D01*
X102581500Y-80579885D01*
X102587990Y-80629182D01*
X102597162Y-80698851D01*
X102658476Y-80846876D01*
X102663503Y-80853427D01*
X102663504Y-80853429D01*
X102731520Y-80942069D01*
X102731526Y-80942075D01*
X102756013Y-80973987D01*
X102762568Y-80979017D01*
X102781379Y-80993452D01*
X102793770Y-81004319D01*
X103154595Y-81365144D01*
X103188621Y-81427456D01*
X103191500Y-81454239D01*
X103191500Y-83198134D01*
X103198255Y-83260316D01*
X103249385Y-83396705D01*
X103336739Y-83513261D01*
X103374856Y-83541828D01*
X103433965Y-83586128D01*
X103476479Y-83642988D01*
X103481504Y-83713806D01*
X103465832Y-83752788D01*
X103357073Y-83930268D01*
X103311508Y-84040271D01*
X103272220Y-84135121D01*
X103263195Y-84156908D01*
X103243563Y-84238680D01*
X103210429Y-84376697D01*
X103205928Y-84395443D01*
X103186681Y-84640000D01*
X103205928Y-84884557D01*
X103207082Y-84889364D01*
X103207083Y-84889370D01*
X103234230Y-85002443D01*
X103263195Y-85123092D01*
X103265088Y-85127663D01*
X103265089Y-85127665D01*
X103271493Y-85143125D01*
X103357073Y-85349732D01*
X103485248Y-85558896D01*
X103488463Y-85562660D01*
X103488465Y-85562663D01*
X103638266Y-85738056D01*
X103644567Y-85745433D01*
X103648323Y-85748641D01*
X103823782Y-85898498D01*
X103831104Y-85904752D01*
X103835327Y-85907340D01*
X103835330Y-85907342D01*
X103893865Y-85943212D01*
X104040268Y-86032927D01*
X104151000Y-86078794D01*
X104262335Y-86124911D01*
X104262337Y-86124912D01*
X104266908Y-86126805D01*
X104344624Y-86145463D01*
X104500630Y-86182917D01*
X104500636Y-86182918D01*
X104505443Y-86184072D01*
X104750000Y-86203319D01*
X104994557Y-86184072D01*
X104999364Y-86182918D01*
X104999370Y-86182917D01*
X105155376Y-86145463D01*
X105233092Y-86126805D01*
X105237663Y-86124912D01*
X105237665Y-86124911D01*
X105349000Y-86078794D01*
X105459732Y-86032927D01*
X105606135Y-85943212D01*
X105664670Y-85907342D01*
X105664673Y-85907340D01*
X105668896Y-85904752D01*
X105676219Y-85898498D01*
X105851677Y-85748641D01*
X105855433Y-85745433D01*
X105861734Y-85738056D01*
X106011535Y-85562663D01*
X106011537Y-85562660D01*
X106014752Y-85558896D01*
X106142927Y-85349732D01*
X106228507Y-85143125D01*
X106234911Y-85127665D01*
X106234912Y-85127663D01*
X106236805Y-85123092D01*
X106265770Y-85002443D01*
X106292917Y-84889370D01*
X106292918Y-84889364D01*
X106294072Y-84884557D01*
X106313319Y-84640000D01*
X106294072Y-84395443D01*
X106289572Y-84376697D01*
X106256437Y-84238680D01*
X106236805Y-84156908D01*
X106227781Y-84135121D01*
X106188492Y-84040271D01*
X106142927Y-83930268D01*
X106034168Y-83752788D01*
X106015630Y-83684255D01*
X106037087Y-83616578D01*
X106066035Y-83586128D01*
X106125144Y-83541828D01*
X106163261Y-83513261D01*
X106250615Y-83396705D01*
X106301745Y-83260316D01*
X106308500Y-83198134D01*
X106308500Y-81001866D01*
X106301745Y-80939684D01*
X106250615Y-80803295D01*
X106163261Y-80686739D01*
X106046705Y-80599385D01*
X105910316Y-80548255D01*
X105848134Y-80541500D01*
X104104239Y-80541500D01*
X104036118Y-80521498D01*
X104015144Y-80504595D01*
X103835405Y-80324856D01*
X103801379Y-80262544D01*
X103798500Y-80235761D01*
X103798500Y-79251200D01*
X103818502Y-79183079D01*
X103872158Y-79136586D01*
X103924500Y-79125200D01*
X104040535Y-79125200D01*
X104045147Y-79124699D01*
X104094867Y-79119298D01*
X104094869Y-79119298D01*
X104102717Y-79118445D01*
X104110110Y-79115673D01*
X104110112Y-79115673D01*
X104121483Y-79111410D01*
X104192290Y-79106227D01*
X104209941Y-79111410D01*
X104219991Y-79115178D01*
X104235249Y-79118805D01*
X104286114Y-79124331D01*
X104292928Y-79124700D01*
X104319485Y-79124700D01*
X104334724Y-79120225D01*
X104335929Y-79118835D01*
X104337600Y-79111152D01*
X104337600Y-79046036D01*
X104357602Y-78977915D01*
X104362760Y-78970490D01*
X104389176Y-78935244D01*
X104446034Y-78892731D01*
X104516852Y-78887706D01*
X104579145Y-78921766D01*
X104590820Y-78935238D01*
X104617227Y-78970473D01*
X104642074Y-79036977D01*
X104642400Y-79046036D01*
X104642400Y-79106584D01*
X104646875Y-79121823D01*
X104648265Y-79123028D01*
X104655948Y-79124699D01*
X104687069Y-79124699D01*
X104693890Y-79124329D01*
X104744752Y-79118805D01*
X104760007Y-79115178D01*
X104770059Y-79111410D01*
X104840866Y-79106227D01*
X104858517Y-79111410D01*
X104869888Y-79115673D01*
X104869890Y-79115673D01*
X104877283Y-79118445D01*
X104885131Y-79119298D01*
X104885133Y-79119298D01*
X104934853Y-79124699D01*
X104939465Y-79125200D01*
X105340533Y-79125200D01*
X105345145Y-79124699D01*
X105394865Y-79119298D01*
X105394867Y-79119298D01*
X105402715Y-79118445D01*
X105420772Y-79111676D01*
X105491577Y-79106493D01*
X105509217Y-79111672D01*
X105527284Y-79118445D01*
X105558380Y-79121823D01*
X105581467Y-79124331D01*
X105589466Y-79125200D01*
X105990534Y-79125200D01*
X106052716Y-79118445D01*
X106189105Y-79067315D01*
X106305661Y-78979961D01*
X106393015Y-78863405D01*
X106444145Y-78727016D01*
X106450900Y-78664834D01*
X106450900Y-77971716D01*
X106470902Y-77903595D01*
X106501335Y-77870890D01*
X106522481Y-77855042D01*
X106529661Y-77849661D01*
X106550890Y-77821335D01*
X106607749Y-77778820D01*
X106651716Y-77770900D01*
X107344834Y-77770900D01*
X107407016Y-77764145D01*
X107543405Y-77713015D01*
X107659961Y-77625661D01*
X107747315Y-77509105D01*
X107798445Y-77372716D01*
X107805200Y-77310534D01*
X107805200Y-76909466D01*
X107798445Y-76847284D01*
X107791676Y-76829227D01*
X107786493Y-76758423D01*
X107791674Y-76740777D01*
X107798445Y-76722715D01*
X107805200Y-76660533D01*
X107805200Y-76259465D01*
X107798445Y-76197283D01*
X107795673Y-76189888D01*
X107795671Y-76189881D01*
X107791677Y-76179228D01*
X107786494Y-76108420D01*
X107791677Y-76090770D01*
X107795673Y-76080111D01*
X107795673Y-76080109D01*
X107798445Y-76072716D01*
X107802807Y-76032567D01*
X107804831Y-76013931D01*
X107805200Y-76010534D01*
X107805200Y-75609466D01*
X107798445Y-75547284D01*
X107795673Y-75539889D01*
X107795671Y-75539882D01*
X107791677Y-75529229D01*
X107786494Y-75458421D01*
X107791677Y-75440771D01*
X107795673Y-75430112D01*
X107795673Y-75430110D01*
X107798445Y-75422717D01*
X107802732Y-75383259D01*
X107804831Y-75363932D01*
X107805200Y-75360535D01*
X107805200Y-74959467D01*
X107798445Y-74897285D01*
X107791676Y-74879228D01*
X107786493Y-74808424D01*
X107791674Y-74790778D01*
X107798445Y-74772716D01*
X107804124Y-74720444D01*
X107804831Y-74713931D01*
X107805200Y-74710534D01*
X107805200Y-74309466D01*
X107798445Y-74247284D01*
X107747315Y-74110895D01*
X107659961Y-73994339D01*
X107543405Y-73906985D01*
X107407016Y-73855855D01*
X107344834Y-73849100D01*
X106651716Y-73849100D01*
X106583595Y-73829098D01*
X106550890Y-73798665D01*
X106535042Y-73777519D01*
X106529661Y-73770339D01*
X106501335Y-73749110D01*
X106458820Y-73692251D01*
X106450900Y-73648284D01*
X106450900Y-72955166D01*
X106444145Y-72892984D01*
X106393015Y-72756595D01*
X106305661Y-72640039D01*
X106189105Y-72552685D01*
X106052716Y-72501555D01*
X105990534Y-72494800D01*
X105589466Y-72494800D01*
X105586069Y-72495169D01*
X105535134Y-72500702D01*
X105535132Y-72500702D01*
X105527284Y-72501555D01*
X105509227Y-72508324D01*
X105438422Y-72513507D01*
X105420782Y-72508328D01*
X105402715Y-72501555D01*
X105340533Y-72494800D01*
X104939465Y-72494800D01*
X104877283Y-72501555D01*
X104869888Y-72504327D01*
X104869881Y-72504329D01*
X104859228Y-72508323D01*
X104788420Y-72513506D01*
X104770770Y-72508323D01*
X104760111Y-72504327D01*
X104760109Y-72504327D01*
X104752716Y-72501555D01*
X104744868Y-72500702D01*
X104744866Y-72500702D01*
X104693931Y-72495169D01*
X104690534Y-72494800D01*
X104599501Y-72494800D01*
X104531380Y-72474798D01*
X104484887Y-72421142D01*
X104473501Y-72368800D01*
X104473501Y-72318769D01*
X104474028Y-72307586D01*
X104475703Y-72300093D01*
X104473563Y-72232002D01*
X104473501Y-72228045D01*
X104473501Y-72200145D01*
X104472997Y-72196154D01*
X104472064Y-72184312D01*
X104472045Y-72183691D01*
X104470675Y-72140112D01*
X104468463Y-72132498D01*
X104468462Y-72132493D01*
X104465024Y-72120660D01*
X104461013Y-72101296D01*
X104460661Y-72098505D01*
X104458475Y-72081204D01*
X104455558Y-72073837D01*
X104455557Y-72073832D01*
X104442199Y-72040093D01*
X104438355Y-72028866D01*
X104431130Y-72004000D01*
X104426019Y-71986408D01*
X104418987Y-71974517D01*
X104415708Y-71968973D01*
X104407013Y-71951225D01*
X104399553Y-71932384D01*
X104393333Y-71923822D01*
X104373565Y-71896614D01*
X104367049Y-71886694D01*
X104348581Y-71855466D01*
X104348579Y-71855463D01*
X104344543Y-71848639D01*
X104330222Y-71834318D01*
X104317381Y-71819284D01*
X104310133Y-71809308D01*
X104305473Y-71802894D01*
X104271402Y-71774708D01*
X104262623Y-71766719D01*
X104097122Y-71601218D01*
X104063096Y-71538906D01*
X104060907Y-71525293D01*
X104044232Y-71366635D01*
X104044232Y-71366633D01*
X104043542Y-71360072D01*
X103984527Y-71178444D01*
X103889040Y-71013056D01*
X103824244Y-70941092D01*
X103765675Y-70876045D01*
X103765674Y-70876044D01*
X103761253Y-70871134D01*
X103662157Y-70799136D01*
X103612094Y-70762763D01*
X103612093Y-70762762D01*
X103606752Y-70758882D01*
X103600724Y-70756198D01*
X103600722Y-70756197D01*
X103438319Y-70683891D01*
X103438318Y-70683891D01*
X103432288Y-70681206D01*
X103338888Y-70661353D01*
X103251944Y-70642872D01*
X103251939Y-70642872D01*
X103245487Y-70641500D01*
X103054513Y-70641500D01*
X103048061Y-70642872D01*
X103048056Y-70642872D01*
X102961112Y-70661353D01*
X102867712Y-70681206D01*
X102861682Y-70683891D01*
X102861681Y-70683891D01*
X102699278Y-70756197D01*
X102699276Y-70756198D01*
X102693248Y-70758882D01*
X102687907Y-70762762D01*
X102687906Y-70762763D01*
X102637843Y-70799136D01*
X102538747Y-70871134D01*
X102534326Y-70876044D01*
X102534325Y-70876045D01*
X102475757Y-70941092D01*
X102410960Y-71013056D01*
X102315473Y-71178444D01*
X102313432Y-71184726D01*
X102276289Y-71299039D01*
X102236215Y-71357644D01*
X102182655Y-71383348D01*
X102167420Y-71386587D01*
X102167418Y-71386588D01*
X102160957Y-71387961D01*
X102154927Y-71390646D01*
X102154926Y-71390646D01*
X101992523Y-71462952D01*
X101992521Y-71462953D01*
X101986493Y-71465637D01*
X101831992Y-71577889D01*
X101827571Y-71582799D01*
X101827570Y-71582800D01*
X101723439Y-71698450D01*
X101704205Y-71719811D01*
X101608718Y-71885199D01*
X101549703Y-72066827D01*
X101549013Y-72073388D01*
X101549013Y-72073390D01*
X101530431Y-72250190D01*
X101529741Y-72256755D01*
X101530431Y-72263320D01*
X101548849Y-72438554D01*
X101549703Y-72446683D01*
X101608718Y-72628311D01*
X101612021Y-72634033D01*
X101612022Y-72634034D01*
X101619879Y-72647642D01*
X101704205Y-72793699D01*
X101708623Y-72798606D01*
X101708624Y-72798607D01*
X101800675Y-72900840D01*
X101831992Y-72935621D01*
X101931088Y-73007619D01*
X101973583Y-73038493D01*
X101986493Y-73047873D01*
X101992521Y-73050557D01*
X101992523Y-73050558D01*
X102154926Y-73122864D01*
X102160957Y-73125549D01*
X102254357Y-73145402D01*
X102341301Y-73163883D01*
X102341306Y-73163883D01*
X102347758Y-73165255D01*
X102403100Y-73165255D01*
X102471221Y-73185257D01*
X102517714Y-73238913D01*
X102529100Y-73291255D01*
X102529100Y-73648284D01*
X102509098Y-73716405D01*
X102478665Y-73749110D01*
X102450339Y-73770339D01*
X102444958Y-73777519D01*
X102429110Y-73798665D01*
X102372251Y-73841180D01*
X102328284Y-73849100D01*
X101635166Y-73849100D01*
X101572984Y-73855855D01*
X101436595Y-73906985D01*
X101320039Y-73994339D01*
X101232685Y-74110895D01*
X101181555Y-74247284D01*
X101174800Y-74309466D01*
X101174800Y-74425501D01*
X101154798Y-74493622D01*
X101101142Y-74540115D01*
X101048800Y-74551501D01*
X100779754Y-74551501D01*
X100711633Y-74531499D01*
X100686118Y-74509811D01*
X100671542Y-74493622D01*
X100561253Y-74371134D01*
X100434511Y-74279050D01*
X100412094Y-74262763D01*
X100412093Y-74262762D01*
X100406752Y-74258882D01*
X100400724Y-74256198D01*
X100400722Y-74256197D01*
X100238319Y-74183891D01*
X100238318Y-74183891D01*
X100232288Y-74181206D01*
X100138888Y-74161353D01*
X100051944Y-74142872D01*
X100051939Y-74142872D01*
X100045487Y-74141500D01*
X99854513Y-74141500D01*
X99848061Y-74142872D01*
X99848056Y-74142872D01*
X99761112Y-74161353D01*
X99667712Y-74181206D01*
X99661682Y-74183891D01*
X99661681Y-74183891D01*
X99499278Y-74256197D01*
X99499276Y-74256198D01*
X99493248Y-74258882D01*
X99487907Y-74262762D01*
X99487906Y-74262763D01*
X99465489Y-74279050D01*
X99338747Y-74371134D01*
X99210960Y-74513056D01*
X99188764Y-74551501D01*
X99123755Y-74664100D01*
X99115473Y-74678444D01*
X99056458Y-74860072D01*
X99055768Y-74866633D01*
X99055768Y-74866635D01*
X99041336Y-75003947D01*
X99036496Y-75050000D01*
X97530114Y-75050000D01*
X97491124Y-75007150D01*
X97487073Y-75003951D01*
X97487069Y-75003947D01*
X97407959Y-74941470D01*
X97353347Y-74898341D01*
X97312285Y-74840425D01*
X97309053Y-74769502D01*
X97344678Y-74708091D01*
X97358271Y-74696882D01*
X97433814Y-74642998D01*
X97433821Y-74642992D01*
X97438020Y-74639997D01*
X97606716Y-74471889D01*
X97745690Y-74278486D01*
X97757229Y-74255140D01*
X97848917Y-74069624D01*
X97848918Y-74069622D01*
X97851211Y-74064982D01*
X97916688Y-73849469D01*
X97918941Y-73842055D01*
X97918941Y-73842054D01*
X97920443Y-73837111D01*
X97934928Y-73727086D01*
X97951092Y-73604313D01*
X97951092Y-73604309D01*
X97951529Y-73600992D01*
X97952801Y-73548946D01*
X97953182Y-73533365D01*
X97953182Y-73533361D01*
X97953264Y-73530000D01*
X97933750Y-73292644D01*
X97875731Y-73061663D01*
X97780767Y-72843259D01*
X97763694Y-72816867D01*
X97684703Y-72694767D01*
X97651406Y-72643298D01*
X97647924Y-72639471D01*
X97607101Y-72594607D01*
X97576049Y-72530761D01*
X97584445Y-72460263D01*
X97629622Y-72405495D01*
X97656062Y-72391828D01*
X97686505Y-72380415D01*
X97803061Y-72293061D01*
X97890415Y-72176505D01*
X97941545Y-72040116D01*
X97948300Y-71977934D01*
X97948300Y-70002066D01*
X97941545Y-69939884D01*
X97890415Y-69803495D01*
X97803061Y-69686939D01*
X97686505Y-69599585D01*
X97550116Y-69548455D01*
X97487934Y-69541700D01*
X95512066Y-69541700D01*
X95449884Y-69548455D01*
X95313495Y-69599585D01*
X95196939Y-69686939D01*
X95109585Y-69803495D01*
X95058455Y-69939884D01*
X95051700Y-70002066D01*
X95051700Y-71977934D01*
X95058455Y-72040116D01*
X95109585Y-72176505D01*
X95196939Y-72293061D01*
X95313495Y-72380415D01*
X95321904Y-72383567D01*
X95321905Y-72383568D01*
X95342130Y-72391150D01*
X95398895Y-72433791D01*
X95423595Y-72500352D01*
X95408388Y-72569701D01*
X95388997Y-72596181D01*
X95379295Y-72606334D01*
X95370602Y-72615431D01*
X95367688Y-72619703D01*
X95367687Y-72619704D01*
X95350270Y-72645236D01*
X95236394Y-72812172D01*
X95136122Y-73028191D01*
X95072477Y-73257685D01*
X95071928Y-73262819D01*
X95071928Y-73262821D01*
X95066449Y-73314089D01*
X95047170Y-73494494D01*
X95047467Y-73499646D01*
X95047467Y-73499650D01*
X95056037Y-73648284D01*
X95060879Y-73732255D01*
X95062016Y-73737301D01*
X95062017Y-73737307D01*
X95089359Y-73858629D01*
X95113237Y-73964585D01*
X95115179Y-73969367D01*
X95115180Y-73969371D01*
X95193678Y-74162688D01*
X95202837Y-74185244D01*
X95327274Y-74388306D01*
X95483204Y-74568317D01*
X95598575Y-74664100D01*
X95647560Y-74704768D01*
X95687195Y-74763671D01*
X95688693Y-74834651D01*
X95651578Y-74895174D01*
X95642728Y-74902472D01*
X95547779Y-74973762D01*
X95535140Y-74983252D01*
X95531568Y-74986990D01*
X95404678Y-75119773D01*
X95370602Y-75155431D01*
X95367688Y-75159703D01*
X95367687Y-75159704D01*
X95354203Y-75179471D01*
X95236394Y-75352172D01*
X95228454Y-75369278D01*
X95145827Y-75547284D01*
X95136122Y-75568191D01*
X95072477Y-75797685D01*
X95071928Y-75802819D01*
X95071928Y-75802821D01*
X95066449Y-75854089D01*
X95047170Y-76034494D01*
X95047467Y-76039646D01*
X95047467Y-76039650D01*
X95056129Y-76189881D01*
X95060879Y-76272255D01*
X95062016Y-76277301D01*
X95062017Y-76277307D01*
X95089535Y-76399411D01*
X95113237Y-76504585D01*
X95115179Y-76509367D01*
X95115180Y-76509371D01*
X95200893Y-76720457D01*
X95202837Y-76725244D01*
X95327274Y-76928306D01*
X95483204Y-77108317D01*
X95619559Y-77221521D01*
X95647560Y-77244768D01*
X95687195Y-77303671D01*
X95688693Y-77374651D01*
X95651578Y-77435174D01*
X95642728Y-77442472D01*
X95544411Y-77516291D01*
X95535140Y-77523252D01*
X95531568Y-77526990D01*
X95384177Y-77681226D01*
X95370602Y-77695431D01*
X95367688Y-77699703D01*
X95367687Y-77699704D01*
X95325621Y-77761371D01*
X95236394Y-77892172D01*
X95234215Y-77896867D01*
X95151529Y-78075000D01*
X95136122Y-78108191D01*
X95072477Y-78337685D01*
X95071928Y-78342819D01*
X95071928Y-78342821D01*
X95066449Y-78394089D01*
X95047170Y-78574494D01*
X95047467Y-78579646D01*
X95047467Y-78579650D01*
X95055964Y-78727016D01*
X95060879Y-78812255D01*
X95062016Y-78817301D01*
X95062017Y-78817307D01*
X95088596Y-78935245D01*
X95113237Y-79044585D01*
X95115179Y-79049367D01*
X95115180Y-79049371D01*
X95193678Y-79242688D01*
X95202837Y-79265244D01*
X95327274Y-79468306D01*
X95483204Y-79648317D01*
X95517735Y-79676985D01*
X95647560Y-79784768D01*
X95687195Y-79843671D01*
X95688693Y-79914651D01*
X95651578Y-79975174D01*
X95642728Y-79982472D01*
X95539275Y-80060147D01*
X95535140Y-80063252D01*
X95370602Y-80235431D01*
X95236394Y-80432172D01*
X95234215Y-80436867D01*
X95144946Y-80629182D01*
X95136122Y-80648191D01*
X95072477Y-80877685D01*
X95071928Y-80882819D01*
X95071928Y-80882821D01*
X95066642Y-80932285D01*
X95047170Y-81114494D01*
X95047467Y-81119646D01*
X95047467Y-81119650D01*
X95053502Y-81224313D01*
X95060879Y-81352255D01*
X95062016Y-81357301D01*
X95062017Y-81357307D01*
X95095111Y-81504156D01*
X95113237Y-81584585D01*
X95115179Y-81589367D01*
X95115180Y-81589371D01*
X95165534Y-81713377D01*
X95202837Y-81805244D01*
X95327274Y-82008306D01*
X95483204Y-82188317D01*
X95557451Y-82249958D01*
X95647560Y-82324768D01*
X95687195Y-82383671D01*
X95688693Y-82454651D01*
X95651578Y-82515174D01*
X95642728Y-82522472D01*
X95572536Y-82575174D01*
X95535140Y-82603252D01*
X95487889Y-82652697D01*
X95377826Y-82767872D01*
X95370602Y-82775431D01*
X95367688Y-82779703D01*
X95367687Y-82779704D01*
X95274290Y-82916619D01*
X95236394Y-82972172D01*
X95223978Y-82998921D01*
X95156740Y-83143774D01*
X95136122Y-83188191D01*
X95072477Y-83417685D01*
X95071928Y-83422819D01*
X95071928Y-83422821D01*
X95067947Y-83460072D01*
X95047170Y-83654494D01*
X88963032Y-83654494D01*
X88963504Y-83650000D01*
X88958773Y-83604988D01*
X88944232Y-83466635D01*
X88944232Y-83466633D01*
X88943542Y-83460072D01*
X88884527Y-83278444D01*
X88879619Y-83269942D01*
X88792341Y-83118774D01*
X88789040Y-83113056D01*
X88690179Y-83003259D01*
X88665675Y-82976045D01*
X88665674Y-82976044D01*
X88661253Y-82971134D01*
X88546503Y-82887763D01*
X88512094Y-82862763D01*
X88512093Y-82862762D01*
X88506752Y-82858882D01*
X88500724Y-82856198D01*
X88500722Y-82856197D01*
X88338319Y-82783891D01*
X88338318Y-82783891D01*
X88332288Y-82781206D01*
X88238887Y-82761353D01*
X88151944Y-82742872D01*
X88151939Y-82742872D01*
X88145487Y-82741500D01*
X87954513Y-82741500D01*
X87948061Y-82742872D01*
X87948056Y-82742872D01*
X87861113Y-82761353D01*
X87767712Y-82781206D01*
X87761682Y-82783891D01*
X87761681Y-82783891D01*
X87599278Y-82856197D01*
X87599276Y-82856198D01*
X87593248Y-82858882D01*
X87587907Y-82862762D01*
X87587906Y-82862763D01*
X87553497Y-82887763D01*
X87438747Y-82971134D01*
X87434326Y-82976044D01*
X87434325Y-82976045D01*
X87409822Y-83003259D01*
X87310960Y-83113056D01*
X87307659Y-83118774D01*
X87220382Y-83269942D01*
X87215473Y-83278444D01*
X87156458Y-83460072D01*
X87155768Y-83466633D01*
X87155768Y-83466635D01*
X87141227Y-83604988D01*
X87136496Y-83650000D01*
X86235876Y-83650000D01*
X86228810Y-83582765D01*
X86219232Y-83491635D01*
X86219232Y-83491633D01*
X86218542Y-83485072D01*
X86159527Y-83303444D01*
X86064040Y-83138056D01*
X86046679Y-83118774D01*
X85940675Y-83001045D01*
X85940674Y-83001044D01*
X85936253Y-82996134D01*
X85781752Y-82883882D01*
X85775724Y-82881198D01*
X85775722Y-82881197D01*
X85613319Y-82808891D01*
X85613318Y-82808891D01*
X85607288Y-82806206D01*
X85502305Y-82783891D01*
X85426944Y-82767872D01*
X85426939Y-82767872D01*
X85420487Y-82766500D01*
X85229513Y-82766500D01*
X85223061Y-82767872D01*
X85223056Y-82767872D01*
X85147695Y-82783891D01*
X85042712Y-82806206D01*
X85036682Y-82808891D01*
X85036681Y-82808891D01*
X84874278Y-82881197D01*
X84874276Y-82881198D01*
X84868248Y-82883882D01*
X84713747Y-82996134D01*
X84709326Y-83001044D01*
X84709325Y-83001045D01*
X84603322Y-83118774D01*
X84585960Y-83138056D01*
X84490473Y-83303444D01*
X84431458Y-83485072D01*
X84430768Y-83491633D01*
X84430768Y-83491635D01*
X84421190Y-83582765D01*
X84411496Y-83675000D01*
X79944119Y-83675000D01*
X79841468Y-83611725D01*
X79841466Y-83611724D01*
X79835238Y-83607885D01*
X79674754Y-83554655D01*
X79673889Y-83554368D01*
X79673887Y-83554368D01*
X79667361Y-83552203D01*
X79660525Y-83551503D01*
X79660522Y-83551502D01*
X79617469Y-83547091D01*
X79562900Y-83541500D01*
X78387100Y-83541500D01*
X78383854Y-83541837D01*
X78383850Y-83541837D01*
X78288192Y-83551762D01*
X78288188Y-83551763D01*
X78281334Y-83552474D01*
X78274798Y-83554655D01*
X78274796Y-83554655D01*
X78190541Y-83582765D01*
X78113554Y-83608450D01*
X77963152Y-83701522D01*
X77886636Y-83778172D01*
X77865173Y-83799672D01*
X77802891Y-83833751D01*
X77732070Y-83828748D01*
X77675198Y-83786251D01*
X77650329Y-83719752D01*
X77650000Y-83710654D01*
X77650000Y-69251968D01*
X77670002Y-69183847D01*
X77723658Y-69137354D01*
X77776000Y-69125968D01*
X99941903Y-69125968D01*
X99961288Y-69127468D01*
G37*
%TD.AperFunction*%
%TD*%
M02*
