%TF.GenerationSoftware,KiCad,Pcbnew,6.0.11-2627ca5db0~126~ubuntu22.04.1*%
%TF.CreationDate,2023-02-24T01:59:55-05:00*%
%TF.ProjectId,webasto-mainboard,77656261-7374-46f2-9d6d-61696e626f61,2.0*%
%TF.SameCoordinates,Original*%
%TF.FileFunction,Soldermask,Top*%
%TF.FilePolarity,Negative*%
%FSLAX46Y46*%
G04 Gerber Fmt 4.6, Leading zero omitted, Abs format (unit mm)*
G04 Created by KiCad (PCBNEW 6.0.11-2627ca5db0~126~ubuntu22.04.1) date 2023-02-24 01:59:55*
%MOMM*%
%LPD*%
G01*
G04 APERTURE LIST*
G04 Aperture macros list*
%AMRoundRect*
0 Rectangle with rounded corners*
0 $1 Rounding radius*
0 $2 $3 $4 $5 $6 $7 $8 $9 X,Y pos of 4 corners*
0 Add a 4 corners polygon primitive as box body*
4,1,4,$2,$3,$4,$5,$6,$7,$8,$9,$2,$3,0*
0 Add four circle primitives for the rounded corners*
1,1,$1+$1,$2,$3*
1,1,$1+$1,$4,$5*
1,1,$1+$1,$6,$7*
1,1,$1+$1,$8,$9*
0 Add four rect primitives between the rounded corners*
20,1,$1+$1,$2,$3,$4,$5,0*
20,1,$1+$1,$4,$5,$6,$7,0*
20,1,$1+$1,$6,$7,$8,$9,0*
20,1,$1+$1,$8,$9,$2,$3,0*%
%AMRotRect*
0 Rectangle, with rotation*
0 The origin of the aperture is its center*
0 $1 length*
0 $2 width*
0 $3 Rotation angle, in degrees counterclockwise*
0 Add horizontal line*
21,1,$1,$2,0,0,$3*%
G04 Aperture macros list end*
%ADD10RoundRect,0.150000X0.150000X-0.825000X0.150000X0.825000X-0.150000X0.825000X-0.150000X-0.825000X0*%
%ADD11R,1.200000X2.200000*%
%ADD12R,5.800000X6.400000*%
%ADD13RoundRect,0.250000X0.450000X-0.325000X0.450000X0.325000X-0.450000X0.325000X-0.450000X-0.325000X0*%
%ADD14RoundRect,0.150000X0.825000X0.150000X-0.825000X0.150000X-0.825000X-0.150000X0.825000X-0.150000X0*%
%ADD15R,1.800000X2.000000*%
%ADD16RoundRect,0.100000X-0.637500X-0.100000X0.637500X-0.100000X0.637500X0.100000X-0.637500X0.100000X0*%
%ADD17RoundRect,0.150000X0.150000X-0.650000X0.150000X0.650000X-0.150000X0.650000X-0.150000X-0.650000X0*%
%ADD18RoundRect,0.250000X-0.350000X-0.450000X0.350000X-0.450000X0.350000X0.450000X-0.350000X0.450000X0*%
%ADD19RoundRect,0.250000X-1.975000X1.350000X-1.975000X-1.350000X1.975000X-1.350000X1.975000X1.350000X0*%
%ADD20RoundRect,0.250000X-0.475000X0.337500X-0.475000X-0.337500X0.475000X-0.337500X0.475000X0.337500X0*%
%ADD21C,3.000000*%
%ADD22R,2.000000X1.905000*%
%ADD23O,2.000000X1.905000*%
%ADD24RoundRect,0.250000X0.350000X0.450000X-0.350000X0.450000X-0.350000X-0.450000X0.350000X-0.450000X0*%
%ADD25RoundRect,0.125000X0.537500X0.125000X-0.537500X0.125000X-0.537500X-0.125000X0.537500X-0.125000X0*%
%ADD26RoundRect,0.249999X0.450001X1.425001X-0.450001X1.425001X-0.450001X-1.425001X0.450001X-1.425001X0*%
%ADD27O,1.500000X1.500000*%
%ADD28O,1.800000X1.800000*%
%ADD29O,1.700000X1.700000*%
%ADD30R,1.700000X3.500000*%
%ADD31R,1.700000X1.700000*%
%ADD32R,2.200000X1.200000*%
%ADD33R,6.400000X5.800000*%
%ADD34RoundRect,0.250000X0.450000X-0.350000X0.450000X0.350000X-0.450000X0.350000X-0.450000X-0.350000X0*%
%ADD35RotRect,2.000000X2.000000X135.000000*%
%ADD36C,2.000000*%
%ADD37RoundRect,0.150000X-0.150000X0.587500X-0.150000X-0.587500X0.150000X-0.587500X0.150000X0.587500X0*%
%ADD38R,0.533400X1.460500*%
%ADD39RoundRect,0.249999X1.425001X-0.450001X1.425001X0.450001X-1.425001X0.450001X-1.425001X-0.450001X0*%
%ADD40RoundRect,0.150000X0.150000X-0.587500X0.150000X0.587500X-0.150000X0.587500X-0.150000X-0.587500X0*%
%ADD41RotRect,3.500000X1.800000X135.000000*%
%ADD42RoundRect,0.237500X0.237500X-0.250000X0.237500X0.250000X-0.237500X0.250000X-0.237500X-0.250000X0*%
%ADD43R,3.500000X1.800000*%
%ADD44R,2.590800X5.003800*%
%ADD45R,0.900000X1.200000*%
%ADD46RoundRect,0.250000X0.425000X-0.537500X0.425000X0.537500X-0.425000X0.537500X-0.425000X-0.537500X0*%
%ADD47RoundRect,0.250000X-0.475000X0.250000X-0.475000X-0.250000X0.475000X-0.250000X0.475000X0.250000X0*%
%ADD48RoundRect,0.250000X0.412500X1.100000X-0.412500X1.100000X-0.412500X-1.100000X0.412500X-1.100000X0*%
%ADD49R,1.879600X1.879600*%
%ADD50C,1.879600*%
%ADD51RoundRect,0.150000X0.650000X0.150000X-0.650000X0.150000X-0.650000X-0.150000X0.650000X-0.150000X0*%
%ADD52R,2.400000X3.200000*%
G04 APERTURE END LIST*
D10*
%TO.C,U9*%
X155225000Y-116625000D03*
X156495000Y-116625000D03*
X157765000Y-116625000D03*
X159035000Y-116625000D03*
X160305000Y-116625000D03*
X161575000Y-116625000D03*
X162845000Y-116625000D03*
X162845000Y-121575000D03*
X161575000Y-121575000D03*
X160305000Y-121575000D03*
X159035000Y-121575000D03*
X157765000Y-121575000D03*
X156495000Y-121575000D03*
X155225000Y-121575000D03*
%TD*%
D11*
%TO.C,Q5*%
X174405000Y-73465000D03*
D12*
X176685000Y-67165000D03*
D11*
X178965000Y-73465000D03*
%TD*%
D13*
%TO.C,D3*%
X160550000Y-127250000D03*
X160550000Y-125200000D03*
%TD*%
%TO.C,D2*%
X158000000Y-127300000D03*
X158000000Y-125250000D03*
%TD*%
D14*
%TO.C,U10*%
X181275000Y-122790000D03*
X181275000Y-121520000D03*
X181275000Y-120250000D03*
X181275000Y-118980000D03*
X176325000Y-118980000D03*
X176325000Y-120250000D03*
X176325000Y-121520000D03*
X176325000Y-122790000D03*
%TD*%
D15*
%TO.C,X1*%
X171505000Y-123375000D03*
X166425000Y-123375000D03*
X166425000Y-127375000D03*
X171505000Y-127375000D03*
%TD*%
D16*
%TO.C,U8*%
X166475000Y-116200000D03*
X166475000Y-116850000D03*
X166475000Y-117500000D03*
X166475000Y-118150000D03*
X166475000Y-118800000D03*
X166475000Y-119450000D03*
X166475000Y-120100000D03*
X166475000Y-120750000D03*
X172200000Y-120750000D03*
X172200000Y-120100000D03*
X172200000Y-119450000D03*
X172200000Y-118800000D03*
X172200000Y-118150000D03*
X172200000Y-117500000D03*
X172200000Y-116850000D03*
X172200000Y-116200000D03*
%TD*%
D13*
%TO.C,D1*%
X155650000Y-127300000D03*
X155650000Y-125250000D03*
%TD*%
D17*
%TO.C,U1*%
X143891000Y-85134000D03*
X145161000Y-85134000D03*
X146431000Y-85134000D03*
X147701000Y-85134000D03*
X147701000Y-77934000D03*
X146431000Y-77934000D03*
X145161000Y-77934000D03*
X143891000Y-77934000D03*
%TD*%
D18*
%TO.C,R11*%
X105750000Y-78000000D03*
X107750000Y-78000000D03*
%TD*%
%TO.C,R18*%
X105125000Y-106175000D03*
X107125000Y-106175000D03*
%TD*%
D19*
%TO.C,R25*%
X130925000Y-96225000D03*
X130925000Y-101425000D03*
%TD*%
D20*
%TO.C,C11*%
X124600000Y-106725000D03*
X124600000Y-108800000D03*
%TD*%
D21*
%TO.C,JX3*%
X155037200Y-56841000D03*
X150795400Y-61082800D03*
%TD*%
D22*
%TO.C,U6*%
X127975000Y-118960000D03*
D23*
X127975000Y-121500000D03*
X127975000Y-124040000D03*
%TD*%
D24*
%TO.C,R20*%
X114925000Y-107850000D03*
X112925000Y-107850000D03*
%TD*%
D25*
%TO.C,U7*%
X140460000Y-75760000D03*
X140460000Y-75110000D03*
X140460000Y-74460000D03*
X140460000Y-73810000D03*
X138185000Y-73810000D03*
X138185000Y-74460000D03*
X138185000Y-75110000D03*
X138185000Y-75760000D03*
%TD*%
D26*
%TO.C,R27*%
X148950000Y-73240000D03*
X142850000Y-73240000D03*
%TD*%
D27*
%TO.C,U2*%
X181270000Y-103125000D03*
D28*
X184300000Y-97975000D03*
X184300000Y-103425000D03*
D27*
X181270000Y-98275000D03*
D29*
X184430000Y-91810000D03*
D30*
X184430000Y-90910000D03*
D29*
X181890000Y-91810000D03*
D30*
X181890000Y-90910000D03*
X179350000Y-90910000D03*
D31*
X179350000Y-91810000D03*
D29*
X176810000Y-91810000D03*
D30*
X176810000Y-90910000D03*
D29*
X174270000Y-91810000D03*
D30*
X174270000Y-90910000D03*
D29*
X171730000Y-91810000D03*
D30*
X171730000Y-90910000D03*
D29*
X169190000Y-91810000D03*
D30*
X169190000Y-90910000D03*
X166650000Y-90910000D03*
D31*
X166650000Y-91810000D03*
D29*
X164110000Y-91810000D03*
D30*
X164110000Y-90910000D03*
D29*
X161570000Y-91810000D03*
D30*
X161570000Y-90910000D03*
X159030000Y-90910000D03*
D29*
X159030000Y-91810000D03*
D30*
X156490000Y-90910000D03*
D29*
X156490000Y-91810000D03*
D31*
X153950000Y-91810000D03*
D30*
X153950000Y-90910000D03*
D29*
X151410000Y-91810000D03*
D30*
X151410000Y-90910000D03*
X148870000Y-90910000D03*
D29*
X148870000Y-91810000D03*
X146330000Y-91810000D03*
D30*
X146330000Y-90910000D03*
X143790000Y-90910000D03*
D29*
X143790000Y-91810000D03*
D30*
X141250000Y-90910000D03*
D31*
X141250000Y-91810000D03*
D30*
X138710000Y-90910000D03*
D29*
X138710000Y-91810000D03*
D30*
X136170000Y-90910000D03*
D29*
X136170000Y-91810000D03*
X136170000Y-109590000D03*
D30*
X136170000Y-110490000D03*
D29*
X138710000Y-109590000D03*
D30*
X138710000Y-110490000D03*
X141250000Y-110490000D03*
D31*
X141250000Y-109590000D03*
D29*
X143790000Y-109590000D03*
D30*
X143790000Y-110490000D03*
D29*
X146330000Y-109590000D03*
D30*
X146330000Y-110490000D03*
D29*
X148870000Y-109590000D03*
D30*
X148870000Y-110490000D03*
X151410000Y-110490000D03*
D29*
X151410000Y-109590000D03*
D31*
X153950000Y-109590000D03*
D30*
X153950000Y-110490000D03*
X156490000Y-110490000D03*
D29*
X156490000Y-109590000D03*
X159030000Y-109590000D03*
D30*
X159030000Y-110490000D03*
X161570000Y-110490000D03*
D29*
X161570000Y-109590000D03*
D30*
X164110000Y-110490000D03*
D29*
X164110000Y-109590000D03*
D31*
X166650000Y-109590000D03*
D30*
X166650000Y-110490000D03*
X169190000Y-110490000D03*
D29*
X169190000Y-109590000D03*
D30*
X171730000Y-110490000D03*
D29*
X171730000Y-109590000D03*
X174270000Y-109590000D03*
D30*
X174270000Y-110490000D03*
D29*
X176810000Y-109590000D03*
D30*
X176810000Y-110490000D03*
X179350000Y-110490000D03*
D31*
X179350000Y-109590000D03*
D30*
X181890000Y-110490000D03*
D29*
X181890000Y-109590000D03*
X184430000Y-109590000D03*
D30*
X184430000Y-110490000D03*
D29*
X154700000Y-101284100D03*
D31*
X154700000Y-103824100D03*
D29*
X154700000Y-106364100D03*
%TD*%
D31*
%TO.C,J2*%
X108525000Y-99550000D03*
D29*
X111065000Y-99550000D03*
X113605000Y-99550000D03*
X116145000Y-99550000D03*
%TD*%
D32*
%TO.C,Q10*%
X165225000Y-76245000D03*
D33*
X171525000Y-78525000D03*
D32*
X165225000Y-80805000D03*
%TD*%
D34*
%TO.C,R22*%
X158930000Y-80130000D03*
X158930000Y-78130000D03*
%TD*%
%TO.C,R16*%
X102175000Y-111775000D03*
X102175000Y-109775000D03*
%TD*%
D35*
%TO.C,BZ1*%
X131900000Y-81600000D03*
D36*
X128364466Y-78064466D03*
%TD*%
D37*
%TO.C,Q1*%
X184050000Y-114512500D03*
X182150000Y-114512500D03*
X183100000Y-116387500D03*
%TD*%
D38*
%TO.C,U4*%
X121355000Y-65450850D03*
X120085000Y-65450850D03*
X118815000Y-65450850D03*
X117545000Y-65450850D03*
X117545000Y-70899150D03*
X118815000Y-70899150D03*
X120085000Y-70899150D03*
X121355000Y-70899150D03*
%TD*%
D11*
%TO.C,Q6*%
X176445000Y-84875000D03*
D12*
X178725000Y-78575000D03*
D11*
X181005000Y-84875000D03*
%TD*%
D34*
%TO.C,R17*%
X103000000Y-107675000D03*
X103000000Y-105675000D03*
%TD*%
D18*
%TO.C,R19*%
X115600000Y-111700000D03*
X117600000Y-111700000D03*
%TD*%
D21*
%TO.C,JX4*%
X166275000Y-55665200D03*
X166351200Y-60034000D03*
%TD*%
D39*
%TO.C,R15*%
X125040000Y-71550000D03*
X125040000Y-65450000D03*
%TD*%
D40*
%TO.C,Q9*%
X160930000Y-78115000D03*
X162830000Y-78115000D03*
X161880000Y-76240000D03*
%TD*%
D11*
%TO.C,Q14*%
X159695000Y-73475000D03*
D12*
X161975000Y-67175000D03*
D11*
X164255000Y-73475000D03*
%TD*%
D41*
%TO.C,D10*%
X106300000Y-120100000D03*
X102764466Y-116564466D03*
%TD*%
D42*
%TO.C,F1*%
X135350000Y-66150000D03*
X135350000Y-64325000D03*
%TD*%
D43*
%TO.C,D7*%
X129500000Y-71400000D03*
X134500000Y-71400000D03*
%TD*%
D32*
%TO.C,Q13*%
X149475000Y-69605000D03*
D33*
X143175000Y-67325000D03*
D32*
X149475000Y-65045000D03*
%TD*%
D11*
%TO.C,Q12*%
X156945000Y-65105000D03*
D12*
X154665000Y-71405000D03*
D11*
X152385000Y-65105000D03*
%TD*%
D44*
%TO.C,L1*%
X111072700Y-120175000D03*
X122477300Y-120175000D03*
%TD*%
D45*
%TO.C,D9*%
X131950000Y-67770000D03*
X128650000Y-67770000D03*
%TD*%
D21*
%TO.C,JX2*%
X135346800Y-56125000D03*
X129352400Y-56125000D03*
%TD*%
D46*
%TO.C,C9*%
X125375000Y-115225000D03*
X125375000Y-112350000D03*
%TD*%
D47*
%TO.C,C10*%
X125475000Y-124050000D03*
X125475000Y-125950000D03*
%TD*%
D21*
%TO.C,JX1*%
X113807200Y-56119400D03*
X109819400Y-56119400D03*
X105802400Y-56131600D03*
X111826000Y-59624600D03*
X107812800Y-59624600D03*
X103825000Y-59650000D03*
%TD*%
D47*
%TO.C,C8*%
X113050000Y-109750000D03*
X113050000Y-111650000D03*
%TD*%
D48*
%TO.C,C6*%
X131900000Y-64600000D03*
X128775000Y-64600000D03*
%TD*%
D11*
%TO.C,Q7*%
X107720000Y-75450000D03*
D12*
X110000000Y-69150000D03*
D11*
X112280000Y-75450000D03*
%TD*%
D49*
%TO.C,J1*%
X124700000Y-101900000D03*
D50*
X124700000Y-99360000D03*
X124700000Y-96820000D03*
X124700000Y-94280000D03*
X124700000Y-91740000D03*
X124700000Y-89200000D03*
%TD*%
D20*
%TO.C,C12*%
X122200000Y-106725000D03*
X122200000Y-108800000D03*
%TD*%
D24*
%TO.C,R21*%
X110975000Y-106200000D03*
X108975000Y-106200000D03*
%TD*%
D51*
%TO.C,U5*%
X110525000Y-112220000D03*
X110525000Y-110950000D03*
X110525000Y-109680000D03*
X110525000Y-108410000D03*
X105225000Y-108410000D03*
X105225000Y-109680000D03*
X105225000Y-110950000D03*
X105225000Y-112220000D03*
D52*
X107875000Y-110315000D03*
%TD*%
D11*
%TO.C,Q11*%
X167070000Y-73450000D03*
D12*
X169350000Y-67150000D03*
D11*
X171630000Y-73450000D03*
%TD*%
D21*
%TO.C,JX5*%
X174275000Y-55640200D03*
X174351200Y-60009000D03*
%TD*%
M02*
