%TF.GenerationSoftware,KiCad,Pcbnew,6.0.2+dfsg-1*%
%TF.CreationDate,2023-01-20T19:42:16-05:00*%
%TF.ProjectId,webasto-mainboard,77656261-7374-46f2-9d6d-61696e626f61,1.0*%
%TF.SameCoordinates,Original*%
%TF.FileFunction,Soldermask,Top*%
%TF.FilePolarity,Negative*%
%FSLAX46Y46*%
G04 Gerber Fmt 4.6, Leading zero omitted, Abs format (unit mm)*
G04 Created by KiCad (PCBNEW 6.0.2+dfsg-1) date 2023-01-20 19:42:16*
%MOMM*%
%LPD*%
G01*
G04 APERTURE LIST*
G04 Aperture macros list*
%AMRoundRect*
0 Rectangle with rounded corners*
0 $1 Rounding radius*
0 $2 $3 $4 $5 $6 $7 $8 $9 X,Y pos of 4 corners*
0 Add a 4 corners polygon primitive as box body*
4,1,4,$2,$3,$4,$5,$6,$7,$8,$9,$2,$3,0*
0 Add four circle primitives for the rounded corners*
1,1,$1+$1,$2,$3*
1,1,$1+$1,$4,$5*
1,1,$1+$1,$6,$7*
1,1,$1+$1,$8,$9*
0 Add four rect primitives between the rounded corners*
20,1,$1+$1,$2,$3,$4,$5,0*
20,1,$1+$1,$4,$5,$6,$7,0*
20,1,$1+$1,$6,$7,$8,$9,0*
20,1,$1+$1,$8,$9,$2,$3,0*%
G04 Aperture macros list end*
%ADD10R,1.879600X1.879600*%
%ADD11C,1.879600*%
%ADD12RoundRect,0.250000X-0.350000X-0.450000X0.350000X-0.450000X0.350000X0.450000X-0.350000X0.450000X0*%
%ADD13C,3.000000*%
%ADD14R,2.200000X1.200000*%
%ADD15R,6.400000X5.800000*%
%ADD16RoundRect,0.250000X0.350000X0.450000X-0.350000X0.450000X-0.350000X-0.450000X0.350000X-0.450000X0*%
%ADD17RoundRect,0.249999X0.450001X1.425001X-0.450001X1.425001X-0.450001X-1.425001X0.450001X-1.425001X0*%
%ADD18R,1.700000X1.700000*%
%ADD19O,1.700000X1.700000*%
%ADD20RoundRect,0.250000X0.450000X-0.350000X0.450000X0.350000X-0.450000X0.350000X-0.450000X-0.350000X0*%
%ADD21R,1.900000X1.905000*%
%ADD22O,2.000000X1.905000*%
%ADD23R,1.200000X2.200000*%
%ADD24R,5.800000X6.400000*%
%ADD25RoundRect,0.150000X-0.150000X0.587500X-0.150000X-0.587500X0.150000X-0.587500X0.150000X0.587500X0*%
%ADD26RoundRect,0.250000X-0.475000X0.337500X-0.475000X-0.337500X0.475000X-0.337500X0.475000X0.337500X0*%
%ADD27R,0.533400X1.460500*%
%ADD28RoundRect,0.250000X-1.975000X1.350000X-1.975000X-1.350000X1.975000X-1.350000X1.975000X1.350000X0*%
%ADD29RoundRect,0.249999X1.425001X-0.450001X1.425001X0.450001X-1.425001X0.450001X-1.425001X-0.450001X0*%
%ADD30RoundRect,0.150000X0.150000X-0.587500X0.150000X0.587500X-0.150000X0.587500X-0.150000X-0.587500X0*%
%ADD31RoundRect,0.237500X-0.237500X0.300000X-0.237500X-0.300000X0.237500X-0.300000X0.237500X0.300000X0*%
%ADD32RoundRect,0.237500X0.237500X-0.250000X0.237500X0.250000X-0.237500X0.250000X-0.237500X-0.250000X0*%
%ADD33RoundRect,0.250000X0.537500X0.425000X-0.537500X0.425000X-0.537500X-0.425000X0.537500X-0.425000X0*%
%ADD34O,1.800000X1.800000*%
%ADD35O,1.500000X1.500000*%
%ADD36R,1.700000X3.500000*%
%ADD37R,3.500000X1.700000*%
%ADD38R,0.360000X0.250000*%
%ADD39R,2.590800X5.003800*%
%ADD40RoundRect,0.125000X0.537500X0.125000X-0.537500X0.125000X-0.537500X-0.125000X0.537500X-0.125000X0*%
%ADD41R,0.900000X1.200000*%
%ADD42RoundRect,0.250000X0.425000X-0.537500X0.425000X0.537500X-0.425000X0.537500X-0.425000X-0.537500X0*%
%ADD43RoundRect,0.250000X-0.475000X0.250000X-0.475000X-0.250000X0.475000X-0.250000X0.475000X0.250000X0*%
%ADD44RoundRect,0.250000X0.412500X1.100000X-0.412500X1.100000X-0.412500X-1.100000X0.412500X-1.100000X0*%
%ADD45RoundRect,0.250000X0.337500X0.475000X-0.337500X0.475000X-0.337500X-0.475000X0.337500X-0.475000X0*%
%ADD46RoundRect,0.150000X0.650000X0.150000X-0.650000X0.150000X-0.650000X-0.150000X0.650000X-0.150000X0*%
%ADD47R,2.400000X3.200000*%
G04 APERTURE END LIST*
D10*
%TO.C,J1*%
X124700000Y-101900000D03*
D11*
X124700000Y-99360000D03*
X124700000Y-96820000D03*
X124700000Y-94280000D03*
X124700000Y-91740000D03*
X124700000Y-89200000D03*
%TD*%
D12*
%TO.C,R7*%
X105750000Y-78000000D03*
X107750000Y-78000000D03*
%TD*%
%TO.C,R27*%
X105125000Y-106175000D03*
X107125000Y-106175000D03*
%TD*%
D13*
%TO.C,JX3*%
X155037200Y-56841000D03*
X150795400Y-61082800D03*
%TD*%
D14*
%TO.C,Q14*%
X165305000Y-76255000D03*
D15*
X171605000Y-78535000D03*
D14*
X165305000Y-80815000D03*
%TD*%
D16*
%TO.C,R29*%
X114925000Y-107850000D03*
X112925000Y-107850000D03*
%TD*%
D17*
%TO.C,R22*%
X148950000Y-73240000D03*
X142850000Y-73240000D03*
%TD*%
D18*
%TO.C,J2*%
X131025000Y-98200000D03*
D19*
X131025000Y-100740000D03*
X131025000Y-103280000D03*
%TD*%
D20*
%TO.C,R16*%
X158930000Y-80130000D03*
X158930000Y-78130000D03*
%TD*%
D12*
%TO.C,R8*%
X109500000Y-90250000D03*
X111500000Y-90250000D03*
%TD*%
D21*
%TO.C,U3*%
X141208580Y-119054629D03*
D22*
X141208580Y-121594629D03*
X141208580Y-124134629D03*
%TD*%
D23*
%TO.C,Q9*%
X111445000Y-87375000D03*
D24*
X113725000Y-81075000D03*
D23*
X116005000Y-87375000D03*
%TD*%
%TO.C,Q6*%
X174405000Y-73465000D03*
D24*
X176685000Y-67165000D03*
D23*
X178965000Y-73465000D03*
%TD*%
D20*
%TO.C,R25*%
X102175000Y-111775000D03*
X102175000Y-109775000D03*
%TD*%
D25*
%TO.C,U2*%
X173450000Y-114562500D03*
X171550000Y-114562500D03*
X172500000Y-116437500D03*
%TD*%
D26*
%TO.C,C3*%
X124750000Y-106500000D03*
X124750000Y-108575000D03*
%TD*%
D25*
%TO.C,Q1*%
X184050000Y-114512500D03*
X182150000Y-114512500D03*
X183100000Y-116387500D03*
%TD*%
D27*
%TO.C,U4*%
X121355000Y-65450850D03*
X120085000Y-65450850D03*
X118815000Y-65450850D03*
X117545000Y-65450850D03*
X117545000Y-70899150D03*
X118815000Y-70899150D03*
X120085000Y-70899150D03*
X121355000Y-70899150D03*
%TD*%
D28*
%TO.C,R21*%
X130020000Y-108200000D03*
X130020000Y-113400000D03*
%TD*%
D23*
%TO.C,Q7*%
X176445000Y-84875000D03*
D24*
X178725000Y-78575000D03*
D23*
X181005000Y-84875000D03*
%TD*%
D20*
%TO.C,R26*%
X103000000Y-107675000D03*
X103000000Y-105675000D03*
%TD*%
D12*
%TO.C,R28*%
X115600000Y-111700000D03*
X117600000Y-111700000D03*
%TD*%
D13*
%TO.C,JX4*%
X166275000Y-55665200D03*
X166351200Y-60034000D03*
%TD*%
D29*
%TO.C,R23*%
X125040000Y-71550000D03*
X125040000Y-65450000D03*
%TD*%
D30*
%TO.C,Q13*%
X160930000Y-78115000D03*
X162830000Y-78115000D03*
X161880000Y-76240000D03*
%TD*%
D31*
%TO.C,C4*%
X122500000Y-106887500D03*
X122500000Y-108612500D03*
%TD*%
D14*
%TO.C,Q18*%
X149455000Y-69595000D03*
D15*
X143155000Y-67315000D03*
D14*
X149455000Y-65035000D03*
%TD*%
D32*
%TO.C,F1*%
X135350000Y-66150000D03*
X135350000Y-64325000D03*
%TD*%
D33*
%TO.C,C1*%
X173450000Y-118850000D03*
X170575000Y-118850000D03*
%TD*%
D34*
%TO.C,U1*%
X184285000Y-103465000D03*
D35*
X181255000Y-98315000D03*
D34*
X184285000Y-98015000D03*
D35*
X181255000Y-103165000D03*
D19*
X184415000Y-91850000D03*
D36*
X184415000Y-90950000D03*
D19*
X181875000Y-91850000D03*
D36*
X181875000Y-90950000D03*
D18*
X179335000Y-91850000D03*
D36*
X179335000Y-90950000D03*
D19*
X176795000Y-91850000D03*
D36*
X176795000Y-90950000D03*
X174255000Y-90950000D03*
D19*
X174255000Y-91850000D03*
X171715000Y-91850000D03*
D36*
X171715000Y-90950000D03*
D19*
X169175000Y-91850000D03*
D36*
X169175000Y-90950000D03*
X166635000Y-90950000D03*
D18*
X166635000Y-91850000D03*
D19*
X164095000Y-91850000D03*
D36*
X164095000Y-90950000D03*
D19*
X161555000Y-91850000D03*
D36*
X161555000Y-90950000D03*
D19*
X159015000Y-91850000D03*
D36*
X159015000Y-90950000D03*
X156475000Y-90950000D03*
D19*
X156475000Y-91850000D03*
D18*
X153935000Y-91850000D03*
D36*
X153935000Y-90950000D03*
X151395000Y-90950000D03*
D19*
X151395000Y-91850000D03*
D36*
X148855000Y-90950000D03*
D19*
X148855000Y-91850000D03*
X146315000Y-91850000D03*
D36*
X146315000Y-90950000D03*
X143775000Y-90950000D03*
D19*
X143775000Y-91850000D03*
D18*
X141235000Y-91850000D03*
D36*
X141235000Y-90950000D03*
X138695000Y-90950000D03*
D19*
X138695000Y-91850000D03*
X136155000Y-91850000D03*
D36*
X136155000Y-90950000D03*
D19*
X136155000Y-109630000D03*
D36*
X136155000Y-110530000D03*
D19*
X138695000Y-109630000D03*
D36*
X138695000Y-110530000D03*
D18*
X141235000Y-109630000D03*
D36*
X141235000Y-110530000D03*
X143775000Y-110530000D03*
D19*
X143775000Y-109630000D03*
X146315000Y-109630000D03*
D36*
X146315000Y-110530000D03*
X148855000Y-110530000D03*
D19*
X148855000Y-109630000D03*
X151395000Y-109630000D03*
D36*
X151395000Y-110530000D03*
D18*
X153935000Y-109630000D03*
D36*
X153935000Y-110530000D03*
D19*
X156475000Y-109630000D03*
D36*
X156475000Y-110530000D03*
D19*
X159015000Y-109630000D03*
D36*
X159015000Y-110530000D03*
X161555000Y-110530000D03*
D19*
X161555000Y-109630000D03*
X164095000Y-109630000D03*
D36*
X164095000Y-110530000D03*
X166635000Y-110530000D03*
D18*
X166635000Y-109630000D03*
D36*
X169175000Y-110530000D03*
D19*
X169175000Y-109630000D03*
X171715000Y-109630000D03*
D36*
X171715000Y-110530000D03*
X174255000Y-110530000D03*
D19*
X174255000Y-109630000D03*
X176795000Y-109630000D03*
D36*
X176795000Y-110530000D03*
X179335000Y-110530000D03*
D18*
X179335000Y-109630000D03*
D19*
X181875000Y-109630000D03*
D36*
X181875000Y-110530000D03*
X184415000Y-110530000D03*
D19*
X184415000Y-109630000D03*
D37*
X135485000Y-98200000D03*
D19*
X136385000Y-98200000D03*
D18*
X136385000Y-100740000D03*
D37*
X135485000Y-100740000D03*
X135485000Y-103280000D03*
D19*
X136385000Y-103280000D03*
%TD*%
D38*
%TO.C,D2*%
X127932500Y-71550000D03*
X128772500Y-71550000D03*
%TD*%
D39*
%TO.C,L1*%
X111072700Y-120175000D03*
X122477300Y-120175000D03*
%TD*%
D40*
%TO.C,U5*%
X140460000Y-75760000D03*
X140460000Y-75110000D03*
X140460000Y-74460000D03*
X140460000Y-73810000D03*
X138185000Y-73810000D03*
X138185000Y-74460000D03*
X138185000Y-75110000D03*
X138185000Y-75760000D03*
%TD*%
D23*
%TO.C,Q17*%
X156945000Y-65105000D03*
D24*
X154665000Y-71405000D03*
D23*
X152385000Y-65105000D03*
%TD*%
D41*
%TO.C,D4*%
X132460000Y-69320000D03*
X129160000Y-69320000D03*
%TD*%
D23*
%TO.C,Q16*%
X159730000Y-73460000D03*
D24*
X162010000Y-67160000D03*
D23*
X164290000Y-73460000D03*
%TD*%
D13*
%TO.C,JX2*%
X135346800Y-56125000D03*
X129352400Y-56125000D03*
%TD*%
D42*
%TO.C,C11*%
X125375000Y-115225000D03*
X125375000Y-112350000D03*
%TD*%
D43*
%TO.C,C12*%
X125475000Y-124050000D03*
X125475000Y-125950000D03*
%TD*%
D13*
%TO.C,JX1*%
X113807200Y-56119400D03*
X109819400Y-56119400D03*
X105802400Y-56131600D03*
X111826000Y-59624600D03*
X107812800Y-59624600D03*
X103825000Y-59650000D03*
%TD*%
D43*
%TO.C,C10*%
X113050000Y-109750000D03*
X113050000Y-111650000D03*
%TD*%
D44*
%TO.C,C8*%
X132025000Y-66150000D03*
X128900000Y-66150000D03*
%TD*%
D23*
%TO.C,Q8*%
X107720000Y-75450000D03*
D24*
X110000000Y-69150000D03*
D23*
X112280000Y-75450000D03*
%TD*%
D45*
%TO.C,C2*%
X173400000Y-121500000D03*
X171325000Y-121500000D03*
%TD*%
D23*
%TO.C,Q15*%
X167070000Y-73450000D03*
D24*
X169350000Y-67150000D03*
D23*
X171630000Y-73450000D03*
%TD*%
D16*
%TO.C,R30*%
X110975000Y-106200000D03*
X108975000Y-106200000D03*
%TD*%
D46*
%TO.C,U6*%
X110525000Y-112220000D03*
X110525000Y-110950000D03*
X110525000Y-109680000D03*
X110525000Y-108410000D03*
X105225000Y-108410000D03*
X105225000Y-109680000D03*
X105225000Y-110950000D03*
X105225000Y-112220000D03*
D47*
X107875000Y-110315000D03*
%TD*%
D13*
%TO.C,JX5*%
X174275000Y-55640200D03*
X174351200Y-60009000D03*
%TD*%
M02*
