%TF.GenerationSoftware,KiCad,Pcbnew,6.0.11-2627ca5db0~126~ubuntu22.04.1*%
%TF.CreationDate,2023-02-22T19:42:12-05:00*%
%TF.ProjectId,webasto-mainboard,77656261-7374-46f2-9d6d-61696e626f61,2.0*%
%TF.SameCoordinates,Original*%
%TF.FileFunction,Soldermask,Top*%
%TF.FilePolarity,Negative*%
%FSLAX46Y46*%
G04 Gerber Fmt 4.6, Leading zero omitted, Abs format (unit mm)*
G04 Created by KiCad (PCBNEW 6.0.11-2627ca5db0~126~ubuntu22.04.1) date 2023-02-22 19:42:12*
%MOMM*%
%LPD*%
G01*
G04 APERTURE LIST*
G04 Aperture macros list*
%AMRoundRect*
0 Rectangle with rounded corners*
0 $1 Rounding radius*
0 $2 $3 $4 $5 $6 $7 $8 $9 X,Y pos of 4 corners*
0 Add a 4 corners polygon primitive as box body*
4,1,4,$2,$3,$4,$5,$6,$7,$8,$9,$2,$3,0*
0 Add four circle primitives for the rounded corners*
1,1,$1+$1,$2,$3*
1,1,$1+$1,$4,$5*
1,1,$1+$1,$6,$7*
1,1,$1+$1,$8,$9*
0 Add four rect primitives between the rounded corners*
20,1,$1+$1,$2,$3,$4,$5,0*
20,1,$1+$1,$4,$5,$6,$7,0*
20,1,$1+$1,$6,$7,$8,$9,0*
20,1,$1+$1,$8,$9,$2,$3,0*%
%AMRotRect*
0 Rectangle, with rotation*
0 The origin of the aperture is its center*
0 $1 length*
0 $2 width*
0 $3 Rotation angle, in degrees counterclockwise*
0 Add horizontal line*
21,1,$1,$2,0,0,$3*%
G04 Aperture macros list end*
%ADD10RoundRect,0.250000X-0.325000X-0.450000X0.325000X-0.450000X0.325000X0.450000X-0.325000X0.450000X0*%
%ADD11RoundRect,0.150000X0.150000X-0.650000X0.150000X0.650000X-0.150000X0.650000X-0.150000X-0.650000X0*%
%ADD12RoundRect,0.250000X-0.350000X-0.450000X0.350000X-0.450000X0.350000X0.450000X-0.350000X0.450000X0*%
%ADD13RoundRect,0.250000X-1.975000X1.350000X-1.975000X-1.350000X1.975000X-1.350000X1.975000X1.350000X0*%
%ADD14RoundRect,0.250000X-0.475000X0.337500X-0.475000X-0.337500X0.475000X-0.337500X0.475000X0.337500X0*%
%ADD15C,3.000000*%
%ADD16R,2.000000X1.905000*%
%ADD17O,2.000000X1.905000*%
%ADD18RoundRect,0.250000X0.350000X0.450000X-0.350000X0.450000X-0.350000X-0.450000X0.350000X-0.450000X0*%
%ADD19RoundRect,0.125000X0.537500X0.125000X-0.537500X0.125000X-0.537500X-0.125000X0.537500X-0.125000X0*%
%ADD20RoundRect,0.249999X0.450001X1.425001X-0.450001X1.425001X-0.450001X-1.425001X0.450001X-1.425001X0*%
%ADD21RoundRect,0.250000X0.325000X0.450000X-0.325000X0.450000X-0.325000X-0.450000X0.325000X-0.450000X0*%
%ADD22O,1.500000X1.500000*%
%ADD23O,1.800000X1.800000*%
%ADD24O,1.700000X1.700000*%
%ADD25R,1.700000X3.500000*%
%ADD26R,1.700000X1.700000*%
%ADD27R,2.200000X1.200000*%
%ADD28R,6.400000X5.800000*%
%ADD29RoundRect,0.250000X0.450000X-0.350000X0.450000X0.350000X-0.450000X0.350000X-0.450000X-0.350000X0*%
%ADD30R,1.200000X2.200000*%
%ADD31R,5.800000X6.400000*%
%ADD32RotRect,2.000000X2.000000X135.000000*%
%ADD33C,2.000000*%
%ADD34RoundRect,0.150000X-0.150000X0.587500X-0.150000X-0.587500X0.150000X-0.587500X0.150000X0.587500X0*%
%ADD35R,0.533400X1.460500*%
%ADD36RoundRect,0.249999X1.425001X-0.450001X1.425001X0.450001X-1.425001X0.450001X-1.425001X-0.450001X0*%
%ADD37RoundRect,0.150000X0.150000X-0.587500X0.150000X0.587500X-0.150000X0.587500X-0.150000X-0.587500X0*%
%ADD38RotRect,3.500000X1.800000X135.000000*%
%ADD39RoundRect,0.237500X0.237500X-0.250000X0.237500X0.250000X-0.237500X0.250000X-0.237500X-0.250000X0*%
%ADD40RoundRect,0.250000X0.537500X0.425000X-0.537500X0.425000X-0.537500X-0.425000X0.537500X-0.425000X0*%
%ADD41R,3.500000X1.800000*%
%ADD42R,2.590800X5.003800*%
%ADD43R,0.900000X1.200000*%
%ADD44RoundRect,0.250000X0.425000X-0.537500X0.425000X0.537500X-0.425000X0.537500X-0.425000X-0.537500X0*%
%ADD45RoundRect,0.250000X-0.475000X0.250000X-0.475000X-0.250000X0.475000X-0.250000X0.475000X0.250000X0*%
%ADD46RoundRect,0.250000X0.412500X1.100000X-0.412500X1.100000X-0.412500X-1.100000X0.412500X-1.100000X0*%
%ADD47RoundRect,0.250000X0.337500X0.475000X-0.337500X0.475000X-0.337500X-0.475000X0.337500X-0.475000X0*%
%ADD48R,1.879600X1.879600*%
%ADD49C,1.879600*%
%ADD50RoundRect,0.150000X0.650000X0.150000X-0.650000X0.150000X-0.650000X-0.150000X0.650000X-0.150000X0*%
%ADD51R,2.400000X3.200000*%
G04 APERTURE END LIST*
D10*
%TO.C,D1*%
X130450000Y-104100000D03*
X132500000Y-104100000D03*
%TD*%
D11*
%TO.C,U1*%
X143891000Y-85134000D03*
X145161000Y-85134000D03*
X146431000Y-85134000D03*
X147701000Y-85134000D03*
X147701000Y-77934000D03*
X146431000Y-77934000D03*
X145161000Y-77934000D03*
X143891000Y-77934000D03*
%TD*%
D12*
%TO.C,R12*%
X105750000Y-78000000D03*
X107750000Y-78000000D03*
%TD*%
%TO.C,R23*%
X105125000Y-106175000D03*
X107125000Y-106175000D03*
%TD*%
D13*
%TO.C,R30*%
X130000000Y-108200000D03*
X130000000Y-113400000D03*
%TD*%
D14*
%TO.C,C11*%
X124737560Y-106490480D03*
X124737560Y-108565480D03*
%TD*%
D15*
%TO.C,JX3*%
X155037200Y-56841000D03*
X150795400Y-61082800D03*
%TD*%
D16*
%TO.C,U6*%
X168839000Y-124079000D03*
D17*
X168839000Y-121539000D03*
X168839000Y-118999000D03*
%TD*%
D18*
%TO.C,R25*%
X114925000Y-107850000D03*
X112925000Y-107850000D03*
%TD*%
D19*
%TO.C,U7*%
X140460000Y-75760000D03*
X140460000Y-75110000D03*
X140460000Y-74460000D03*
X140460000Y-73810000D03*
X138185000Y-73810000D03*
X138185000Y-74460000D03*
X138185000Y-75110000D03*
X138185000Y-75760000D03*
%TD*%
D20*
%TO.C,R32*%
X148950000Y-73240000D03*
X142850000Y-73240000D03*
%TD*%
D21*
%TO.C,D3*%
X180700000Y-119400000D03*
X178650000Y-119400000D03*
%TD*%
D22*
%TO.C,U2*%
X181270000Y-103125000D03*
D23*
X184300000Y-97975000D03*
X184300000Y-103425000D03*
D22*
X181270000Y-98275000D03*
D24*
X184430000Y-91810000D03*
D25*
X184430000Y-90910000D03*
D24*
X181890000Y-91810000D03*
D25*
X181890000Y-90910000D03*
X179350000Y-90910000D03*
D26*
X179350000Y-91810000D03*
D24*
X176810000Y-91810000D03*
D25*
X176810000Y-90910000D03*
D24*
X174270000Y-91810000D03*
D25*
X174270000Y-90910000D03*
D24*
X171730000Y-91810000D03*
D25*
X171730000Y-90910000D03*
D24*
X169190000Y-91810000D03*
D25*
X169190000Y-90910000D03*
X166650000Y-90910000D03*
D26*
X166650000Y-91810000D03*
D24*
X164110000Y-91810000D03*
D25*
X164110000Y-90910000D03*
D24*
X161570000Y-91810000D03*
D25*
X161570000Y-90910000D03*
X159030000Y-90910000D03*
D24*
X159030000Y-91810000D03*
D25*
X156490000Y-90910000D03*
D24*
X156490000Y-91810000D03*
D26*
X153950000Y-91810000D03*
D25*
X153950000Y-90910000D03*
D24*
X151410000Y-91810000D03*
D25*
X151410000Y-90910000D03*
X148870000Y-90910000D03*
D24*
X148870000Y-91810000D03*
X146330000Y-91810000D03*
D25*
X146330000Y-90910000D03*
X143790000Y-90910000D03*
D24*
X143790000Y-91810000D03*
D25*
X141250000Y-90910000D03*
D26*
X141250000Y-91810000D03*
D25*
X138710000Y-90910000D03*
D24*
X138710000Y-91810000D03*
D25*
X136170000Y-90910000D03*
D24*
X136170000Y-91810000D03*
X136170000Y-109590000D03*
D25*
X136170000Y-110490000D03*
D24*
X138710000Y-109590000D03*
D25*
X138710000Y-110490000D03*
X141250000Y-110490000D03*
D26*
X141250000Y-109590000D03*
D24*
X143790000Y-109590000D03*
D25*
X143790000Y-110490000D03*
D24*
X146330000Y-109590000D03*
D25*
X146330000Y-110490000D03*
D24*
X148870000Y-109590000D03*
D25*
X148870000Y-110490000D03*
X151410000Y-110490000D03*
D24*
X151410000Y-109590000D03*
D26*
X153950000Y-109590000D03*
D25*
X153950000Y-110490000D03*
X156490000Y-110490000D03*
D24*
X156490000Y-109590000D03*
X159030000Y-109590000D03*
D25*
X159030000Y-110490000D03*
X161570000Y-110490000D03*
D24*
X161570000Y-109590000D03*
D25*
X164110000Y-110490000D03*
D24*
X164110000Y-109590000D03*
D26*
X166650000Y-109590000D03*
D25*
X166650000Y-110490000D03*
X169190000Y-110490000D03*
D24*
X169190000Y-109590000D03*
D25*
X171730000Y-110490000D03*
D24*
X171730000Y-109590000D03*
X174270000Y-109590000D03*
D25*
X174270000Y-110490000D03*
D24*
X176810000Y-109590000D03*
D25*
X176810000Y-110490000D03*
X179350000Y-110490000D03*
D26*
X179350000Y-109590000D03*
D25*
X181890000Y-110490000D03*
D24*
X181890000Y-109590000D03*
X184430000Y-109590000D03*
D25*
X184430000Y-110490000D03*
D24*
X154700000Y-101284100D03*
D26*
X154700000Y-103824100D03*
D24*
X154700000Y-106364100D03*
%TD*%
D26*
%TO.C,J2*%
X108525000Y-99550000D03*
D24*
X111065000Y-99550000D03*
X113605000Y-99550000D03*
X116145000Y-99550000D03*
%TD*%
D27*
%TO.C,Q13*%
X165225000Y-76245000D03*
D28*
X171525000Y-78525000D03*
D27*
X165225000Y-80805000D03*
%TD*%
D12*
%TO.C,R13*%
X109500000Y-90250000D03*
X111500000Y-90250000D03*
%TD*%
D29*
%TO.C,R27*%
X158930000Y-80130000D03*
X158930000Y-78130000D03*
%TD*%
D30*
%TO.C,Q9*%
X111445000Y-87375000D03*
D31*
X113725000Y-81075000D03*
D30*
X116005000Y-87375000D03*
%TD*%
%TO.C,Q6*%
X174405000Y-73465000D03*
D31*
X176685000Y-67165000D03*
D30*
X178965000Y-73465000D03*
%TD*%
D29*
%TO.C,R21*%
X102175000Y-111775000D03*
X102175000Y-109775000D03*
%TD*%
D32*
%TO.C,BZ1*%
X131900000Y-81600000D03*
D33*
X128364466Y-78064466D03*
%TD*%
D34*
%TO.C,U3*%
X174244000Y-114823250D03*
X172344000Y-114823250D03*
X173294000Y-116698250D03*
%TD*%
D21*
%TO.C,D2*%
X180700000Y-122100000D03*
X178650000Y-122100000D03*
%TD*%
D34*
%TO.C,Q1*%
X184050000Y-114512500D03*
X182150000Y-114512500D03*
X183100000Y-116387500D03*
%TD*%
D35*
%TO.C,U4*%
X121355000Y-65450850D03*
X120085000Y-65450850D03*
X118815000Y-65450850D03*
X117545000Y-65450850D03*
X117545000Y-70899150D03*
X118815000Y-70899150D03*
X120085000Y-70899150D03*
X121355000Y-70899150D03*
%TD*%
D30*
%TO.C,Q7*%
X176445000Y-84875000D03*
D31*
X178725000Y-78575000D03*
D30*
X181005000Y-84875000D03*
%TD*%
D29*
%TO.C,R22*%
X103000000Y-107675000D03*
X103000000Y-105675000D03*
%TD*%
D12*
%TO.C,R24*%
X115600000Y-111700000D03*
X117600000Y-111700000D03*
%TD*%
D15*
%TO.C,JX4*%
X166275000Y-55665200D03*
X166351200Y-60034000D03*
%TD*%
D36*
%TO.C,R20*%
X125040000Y-71550000D03*
X125040000Y-65450000D03*
%TD*%
D37*
%TO.C,Q12*%
X160930000Y-78115000D03*
X162830000Y-78115000D03*
X161880000Y-76240000D03*
%TD*%
D30*
%TO.C,Q17*%
X159695000Y-73475000D03*
D31*
X161975000Y-67175000D03*
D30*
X164255000Y-73475000D03*
%TD*%
D38*
%TO.C,D11*%
X106300000Y-120100000D03*
X102764466Y-116564466D03*
%TD*%
D39*
%TO.C,F1*%
X135350000Y-66150000D03*
X135350000Y-64325000D03*
%TD*%
D40*
%TO.C,C1*%
X174244000Y-119110750D03*
X171369000Y-119110750D03*
%TD*%
D41*
%TO.C,D8*%
X129500000Y-71400000D03*
X134500000Y-71400000D03*
%TD*%
D27*
%TO.C,Q16*%
X149475000Y-69605000D03*
D28*
X143175000Y-67325000D03*
D27*
X149475000Y-65045000D03*
%TD*%
D30*
%TO.C,Q15*%
X156945000Y-65105000D03*
D31*
X154665000Y-71405000D03*
D30*
X152385000Y-65105000D03*
%TD*%
D42*
%TO.C,L1*%
X111072700Y-120175000D03*
X122477300Y-120175000D03*
%TD*%
D43*
%TO.C,D10*%
X131950000Y-67770000D03*
X128650000Y-67770000D03*
%TD*%
D15*
%TO.C,JX2*%
X135346800Y-56125000D03*
X129352400Y-56125000D03*
%TD*%
D44*
%TO.C,C9*%
X125375000Y-115225000D03*
X125375000Y-112350000D03*
%TD*%
D45*
%TO.C,C10*%
X125475000Y-124050000D03*
X125475000Y-125950000D03*
%TD*%
D15*
%TO.C,JX1*%
X113807200Y-56119400D03*
X109819400Y-56119400D03*
X105802400Y-56131600D03*
X111826000Y-59624600D03*
X107812800Y-59624600D03*
X103825000Y-59650000D03*
%TD*%
D45*
%TO.C,C8*%
X113050000Y-109750000D03*
X113050000Y-111650000D03*
%TD*%
D46*
%TO.C,C6*%
X131900000Y-64600000D03*
X128775000Y-64600000D03*
%TD*%
D30*
%TO.C,Q8*%
X107720000Y-75450000D03*
D31*
X110000000Y-69150000D03*
D30*
X112280000Y-75450000D03*
%TD*%
D47*
%TO.C,C2*%
X174194000Y-121760750D03*
X172119000Y-121760750D03*
%TD*%
D48*
%TO.C,J1*%
X124700000Y-101900000D03*
D49*
X124700000Y-99360000D03*
X124700000Y-96820000D03*
X124700000Y-94280000D03*
X124700000Y-91740000D03*
X124700000Y-89200000D03*
%TD*%
D14*
%TO.C,C12*%
X122500000Y-106712500D03*
X122500000Y-108787500D03*
%TD*%
D18*
%TO.C,R26*%
X110975000Y-106200000D03*
X108975000Y-106200000D03*
%TD*%
D50*
%TO.C,U5*%
X110525000Y-112220000D03*
X110525000Y-110950000D03*
X110525000Y-109680000D03*
X110525000Y-108410000D03*
X105225000Y-108410000D03*
X105225000Y-109680000D03*
X105225000Y-110950000D03*
X105225000Y-112220000D03*
D51*
X107875000Y-110315000D03*
%TD*%
D30*
%TO.C,Q14*%
X167070000Y-73450000D03*
D31*
X169350000Y-67150000D03*
D30*
X171630000Y-73450000D03*
%TD*%
D15*
%TO.C,JX5*%
X174275000Y-55640200D03*
X174351200Y-60009000D03*
%TD*%
M02*
