M48
; DRILL file {KiCad 6.0.11-2627ca5db0~126~ubuntu22.04.1} date Tue 14 Feb 2023 11:03:38 PM EST
; FORMAT={-:-/ absolute / inch / decimal}
; #@! TF.CreationDate,2023-02-14T23:03:38-05:00
; #@! TF.GenerationSoftware,Kicad,Pcbnew,6.0.11-2627ca5db0~126~ubuntu22.04.1
; #@! TF.FileFunction,Plated,1,4,PTH
FMAT,2
INCH
; #@! TA.AperFunction,Plated,PTH,ComponentDrill
T1C0.0079
; #@! TA.AperFunction,Plated,PTH,ViaDrill
T2C0.0157
; #@! TA.AperFunction,Plated,PTH,ComponentDrill
T3C0.0394
; #@! TA.AperFunction,Plated,PTH,ComponentDrill
T4C0.0400
; #@! TA.AperFunction,Plated,PTH,ComponentDrill
T5C0.0402
; #@! TA.AperFunction,Plated,PTH,ComponentDrill
T6C0.0433
; #@! TA.AperFunction,Plated,PTH,ComponentDrill
T7C0.0591
%
G90
G05
T1
X4.2096Y-4.29
X4.2096Y-4.3431
X4.2096Y-4.3963
X4.2844Y-4.29
X4.2844Y-4.3431
X4.2844Y-4.3963
T2
X4.0049Y-4.1486
X4.0837Y-4.3642
X4.0945Y-4.5394
X4.2323Y-3.2776
X4.2451Y-4.5177
X4.253Y-4.2205
X4.28Y-2.87
X4.2913Y-2.9724
X4.35Y-2.91
X4.3876Y-3.5018
X4.439Y-3.4055
X4.47Y-2.62
X4.5472Y-3.6024
X4.627Y-2.5138
X4.628Y-2.8772
X4.6506Y-2.6467
X4.6783Y-3.1165
X4.686Y-4.4144
X4.7278Y-2.8608
X4.74Y-2.25
X4.7972Y-2.8559
X4.8533Y-4.4203
X4.8642Y-3.3555
X4.9114Y-4.1437
X4.9248Y-2.5205
X4.9409Y-4.3307
X4.9409Y-5.0079
X5.002Y-3.815
X5.0177Y-3.7697
X5.063Y-3.5787
X5.0673Y-4.5791
X5.0699Y-2.4498
X5.2429Y-4.476
X5.2504Y-4.2933
X5.2598Y-4.3913
X5.3583Y-3.7323
X5.3657Y-2.9208
X5.3827Y-2.9563
X5.4248Y-2.8622
X5.4705Y-4.4587
X5.4823Y-3.0071
X5.4862Y-3.0626
X5.5098Y-3.3941
X5.5413Y-2.8543
X5.5417Y-3.0563
X5.6575Y-4.122
X5.69Y-3.41
X5.71Y-3.13
X5.7106Y-2.8929
X5.74Y-2.27
X5.7437Y-2.9563
X5.7638Y-4.126
X5.7783Y-2.9217
X5.8622Y-4.0394
X5.8819Y-2.678
X5.9055Y-3.002
X5.9311Y-3.7175
X5.9606Y-4.0748
X5.9646Y-3.2185
X6.07Y-2.47
X6.089Y-2.6461
X6.1799Y-2.4614
X6.2547Y-3.6961
X6.2866Y-2.8106
X6.289Y-2.987
X6.3224Y-3.9169
X6.4118Y-2.8909
X6.4161Y-3.6858
X6.4402Y-3.1272
X6.461Y-3.9776
X6.463Y-3.8917
X6.5701Y-3.1803
X6.5756Y-3.0047
X6.6358Y-2.8917
X6.6374Y-2.8272
X6.6732Y-3.248
X6.7717Y-4.6142
X6.78Y-3.7
X6.79Y-3.751
X6.8701Y-2.8051
X6.9094Y-2.8937
X6.9685Y-4.8031
X6.998Y-3.3465
X7.0079Y-4.6378
X7.0319Y-2.426
X7.0571Y-2.8248
X7.1142Y-4.7559
X7.17Y-3.15
X7.2047Y-3.3465
X7.22Y-2.49
X7.26Y-3.19
T3
X4.2726Y-3.9193
X4.3726Y-3.9193
X4.4726Y-3.9193
X4.5726Y-3.9193
X5.0537Y-3.0734
X5.1929Y-3.2126
T4
X4.9094Y-3.5118
X4.9094Y-3.6118
X4.9094Y-3.7118
X4.9094Y-3.8118
X4.9094Y-3.9118
X4.9094Y-4.0118
T5
X5.361Y-3.6146
X5.361Y-4.3146
X5.461Y-3.6146
X5.461Y-4.3146
X5.561Y-3.6146
X5.561Y-4.3146
X5.661Y-3.6146
X5.661Y-4.3146
X5.761Y-3.6146
X5.761Y-4.3146
X5.861Y-3.6146
X5.861Y-4.3146
X5.961Y-3.6146
X5.961Y-4.3146
X6.061Y-3.6146
X6.061Y-4.3146
X6.0906Y-3.9876
X6.0906Y-4.0876
X6.0906Y-4.1876
X6.161Y-3.6146
X6.161Y-4.3146
X6.261Y-3.6146
X6.261Y-4.3146
X6.361Y-3.6146
X6.361Y-4.3146
X6.461Y-3.6146
X6.461Y-4.3146
X6.561Y-3.6146
X6.561Y-4.3146
X6.661Y-3.6146
X6.661Y-4.3146
X6.761Y-3.6146
X6.761Y-4.3146
X6.861Y-3.6146
X6.861Y-4.3146
X6.961Y-3.6146
X6.961Y-4.3146
X7.061Y-3.6146
X7.061Y-4.3146
X7.161Y-3.6146
X7.161Y-4.3146
X7.261Y-3.6146
X7.261Y-4.3146
T6
X6.6472Y-4.685
X6.6472Y-4.785
X6.6472Y-4.885
T7
X4.0876Y-2.3484
X4.1654Y-2.2099
X4.2446Y-2.3474
X4.3236Y-2.2094
X4.4026Y-2.3474
X4.4806Y-2.2094
X5.0926Y-2.2096
X5.3286Y-2.2096
X5.9368Y-2.4048
X6.1038Y-2.2378
X6.5463Y-2.1915
X6.5493Y-2.3635
X6.8612Y-2.1906
X6.8642Y-2.3626
T0
M30
