%TF.GenerationSoftware,KiCad,Pcbnew,6.0.2+dfsg-1*%
%TF.CreationDate,2023-01-20T19:42:16-05:00*%
%TF.ProjectId,webasto-mainboard,77656261-7374-46f2-9d6d-61696e626f61,1.0*%
%TF.SameCoordinates,Original*%
%TF.FileFunction,Soldermask,Bot*%
%TF.FilePolarity,Negative*%
%FSLAX46Y46*%
G04 Gerber Fmt 4.6, Leading zero omitted, Abs format (unit mm)*
G04 Created by KiCad (PCBNEW 6.0.2+dfsg-1) date 2023-01-20 19:42:16*
%MOMM*%
%LPD*%
G01*
G04 APERTURE LIST*
G04 Aperture macros list*
%AMRoundRect*
0 Rectangle with rounded corners*
0 $1 Rounding radius*
0 $2 $3 $4 $5 $6 $7 $8 $9 X,Y pos of 4 corners*
0 Add a 4 corners polygon primitive as box body*
4,1,4,$2,$3,$4,$5,$6,$7,$8,$9,$2,$3,0*
0 Add four circle primitives for the rounded corners*
1,1,$1+$1,$2,$3*
1,1,$1+$1,$4,$5*
1,1,$1+$1,$6,$7*
1,1,$1+$1,$8,$9*
0 Add four rect primitives between the rounded corners*
20,1,$1+$1,$2,$3,$4,$5,0*
20,1,$1+$1,$4,$5,$6,$7,0*
20,1,$1+$1,$6,$7,$8,$9,0*
20,1,$1+$1,$8,$9,$2,$3,0*%
G04 Aperture macros list end*
%ADD10C,3.000000*%
%ADD11R,1.700000X1.700000*%
%ADD12O,1.700000X1.700000*%
%ADD13R,1.900000X1.905000*%
%ADD14O,2.000000X1.905000*%
%ADD15O,1.800000X1.800000*%
%ADD16O,1.500000X1.500000*%
%ADD17R,0.360000X0.250000*%
%ADD18RoundRect,0.250000X0.450000X-0.350000X0.450000X0.350000X-0.450000X0.350000X-0.450000X-0.350000X0*%
%ADD19RoundRect,0.150000X-0.150000X0.587500X-0.150000X-0.587500X0.150000X-0.587500X0.150000X0.587500X0*%
%ADD20R,0.900000X1.200000*%
%ADD21RoundRect,0.250000X0.350000X0.450000X-0.350000X0.450000X-0.350000X-0.450000X0.350000X-0.450000X0*%
%ADD22RoundRect,0.150000X-0.587500X-0.150000X0.587500X-0.150000X0.587500X0.150000X-0.587500X0.150000X0*%
%ADD23RoundRect,0.250000X-0.450000X0.350000X-0.450000X-0.350000X0.450000X-0.350000X0.450000X0.350000X0*%
%ADD24RoundRect,0.150000X0.150000X-0.587500X0.150000X0.587500X-0.150000X0.587500X-0.150000X-0.587500X0*%
%ADD25RoundRect,0.250000X-0.250000X-0.475000X0.250000X-0.475000X0.250000X0.475000X-0.250000X0.475000X0*%
%ADD26RoundRect,0.250000X-0.350000X-0.450000X0.350000X-0.450000X0.350000X0.450000X-0.350000X0.450000X0*%
%ADD27RoundRect,0.250000X0.475000X-0.250000X0.475000X0.250000X-0.475000X0.250000X-0.475000X-0.250000X0*%
%ADD28RoundRect,0.250000X-0.475000X0.250000X-0.475000X-0.250000X0.475000X-0.250000X0.475000X0.250000X0*%
%ADD29R,0.250000X0.360000*%
%ADD30RoundRect,0.250000X0.070711X-0.565685X0.565685X-0.070711X-0.070711X0.565685X-0.565685X0.070711X0*%
%ADD31RoundRect,0.250000X0.250000X0.475000X-0.250000X0.475000X-0.250000X-0.475000X0.250000X-0.475000X0*%
G04 APERTURE END LIST*
D10*
%TO.C,JX3*%
X155037200Y-56841000D03*
X150795400Y-61082800D03*
%TD*%
D11*
%TO.C,J2*%
X131025000Y-98200000D03*
D12*
X131025000Y-100740000D03*
X131025000Y-103280000D03*
%TD*%
D13*
%TO.C,U3*%
X141208580Y-119054629D03*
D14*
X141208580Y-121594629D03*
X141208580Y-124134629D03*
%TD*%
D10*
%TO.C,JX4*%
X166275000Y-55665200D03*
X166351200Y-60034000D03*
%TD*%
D15*
%TO.C,U1*%
X184285000Y-103465000D03*
D16*
X181255000Y-98315000D03*
D15*
X184285000Y-98015000D03*
D16*
X181255000Y-103165000D03*
D12*
X184415000Y-91850000D03*
X181875000Y-91850000D03*
D11*
X179335000Y-91850000D03*
D12*
X176795000Y-91850000D03*
X174255000Y-91850000D03*
X171715000Y-91850000D03*
X169175000Y-91850000D03*
D11*
X166635000Y-91850000D03*
D12*
X164095000Y-91850000D03*
X161555000Y-91850000D03*
X159015000Y-91850000D03*
X156475000Y-91850000D03*
D11*
X153935000Y-91850000D03*
D12*
X151395000Y-91850000D03*
X148855000Y-91850000D03*
X146315000Y-91850000D03*
X143775000Y-91850000D03*
D11*
X141235000Y-91850000D03*
D12*
X138695000Y-91850000D03*
X136155000Y-91850000D03*
X136155000Y-109630000D03*
X138695000Y-109630000D03*
D11*
X141235000Y-109630000D03*
D12*
X143775000Y-109630000D03*
X146315000Y-109630000D03*
X148855000Y-109630000D03*
X151395000Y-109630000D03*
D11*
X153935000Y-109630000D03*
D12*
X156475000Y-109630000D03*
X159015000Y-109630000D03*
X161555000Y-109630000D03*
X164095000Y-109630000D03*
D11*
X166635000Y-109630000D03*
D12*
X169175000Y-109630000D03*
X171715000Y-109630000D03*
X174255000Y-109630000D03*
X176795000Y-109630000D03*
D11*
X179335000Y-109630000D03*
D12*
X181875000Y-109630000D03*
X184415000Y-109630000D03*
X136385000Y-98200000D03*
D11*
X136385000Y-100740000D03*
D12*
X136385000Y-103280000D03*
%TD*%
D10*
%TO.C,JX2*%
X135346800Y-56125000D03*
X129352400Y-56125000D03*
%TD*%
%TO.C,JX1*%
X113807200Y-56119400D03*
X109819400Y-56119400D03*
X105802400Y-56131600D03*
X111826000Y-59624600D03*
X107812800Y-59624600D03*
X103825000Y-59650000D03*
%TD*%
%TO.C,JX5*%
X174275000Y-55640200D03*
X174351200Y-60009000D03*
%TD*%
D17*
%TO.C,D1*%
X118530000Y-56125000D03*
X119370000Y-56125000D03*
%TD*%
D18*
%TO.C,R3*%
X109000000Y-81500000D03*
X109000000Y-79500000D03*
%TD*%
D19*
%TO.C,Q11*%
X163710000Y-95112500D03*
X165610000Y-95112500D03*
X164660000Y-96987500D03*
%TD*%
D18*
%TO.C,R20*%
X165290000Y-79720000D03*
X165290000Y-77720000D03*
%TD*%
D20*
%TO.C,D3*%
X117550000Y-62475000D03*
X120850000Y-62475000D03*
%TD*%
D21*
%TO.C,R24*%
X147640000Y-61080000D03*
X145640000Y-61080000D03*
%TD*%
D22*
%TO.C,Q12*%
X134892500Y-114220000D03*
X134892500Y-112320000D03*
X136767500Y-113270000D03*
%TD*%
D23*
%TO.C,R10*%
X178250000Y-55500000D03*
X178250000Y-57500000D03*
%TD*%
%TO.C,R1*%
X149000000Y-94750000D03*
X149000000Y-96750000D03*
%TD*%
D18*
%TO.C,R18*%
X166950000Y-73500000D03*
X166950000Y-71500000D03*
%TD*%
D24*
%TO.C,Q4*%
X108950000Y-77625000D03*
X107050000Y-77625000D03*
X108000000Y-75750000D03*
%TD*%
D23*
%TO.C,R15*%
X165800000Y-99030000D03*
X165800000Y-101030000D03*
%TD*%
D19*
%TO.C,Q3*%
X175550000Y-83062500D03*
X177450000Y-83062500D03*
X176500000Y-84937500D03*
%TD*%
D25*
%TO.C,C7*%
X117575000Y-60025000D03*
X119475000Y-60025000D03*
%TD*%
D18*
%TO.C,R4*%
X114250000Y-90250000D03*
X114250000Y-88250000D03*
%TD*%
D19*
%TO.C,Q2*%
X173550000Y-71562500D03*
X175450000Y-71562500D03*
X174500000Y-73437500D03*
%TD*%
%TO.C,Q10*%
X159670000Y-95102500D03*
X161570000Y-95102500D03*
X160620000Y-96977500D03*
%TD*%
D18*
%TO.C,R17*%
X131550000Y-113660000D03*
X131550000Y-111660000D03*
%TD*%
D26*
%TO.C,R2*%
X171500000Y-83000000D03*
X173500000Y-83000000D03*
%TD*%
D27*
%TO.C,C5*%
X120250000Y-70950000D03*
X120250000Y-69050000D03*
%TD*%
D24*
%TO.C,Q5*%
X112400000Y-88250000D03*
X110500000Y-88250000D03*
X111450000Y-86375000D03*
%TD*%
D21*
%TO.C,R6*%
X181500000Y-85000000D03*
X179500000Y-85000000D03*
%TD*%
D28*
%TO.C,C9*%
X105000000Y-111450000D03*
X105000000Y-113350000D03*
%TD*%
D23*
%TO.C,R9*%
X162750000Y-55750000D03*
X162750000Y-57750000D03*
%TD*%
D29*
%TO.C,D5*%
X107000000Y-113902500D03*
X107000000Y-113062500D03*
%TD*%
D30*
%TO.C,R19*%
X140230000Y-115300000D03*
X141644214Y-113885786D03*
%TD*%
D31*
%TO.C,C6*%
X125090000Y-62490000D03*
X123190000Y-62490000D03*
%TD*%
D26*
%TO.C,R11*%
X104000000Y-63250000D03*
X106000000Y-63250000D03*
%TD*%
D21*
%TO.C,R12*%
X111750000Y-63000000D03*
X109750000Y-63000000D03*
%TD*%
%TO.C,R5*%
X179250000Y-73500000D03*
X177250000Y-73500000D03*
%TD*%
D23*
%TO.C,R14*%
X162260000Y-99030000D03*
X162260000Y-101030000D03*
%TD*%
D26*
%TO.C,R13*%
X174750000Y-94750000D03*
X176750000Y-94750000D03*
%TD*%
M02*
