%TF.GenerationSoftware,KiCad,Pcbnew,6.0.11-2627ca5db0~126~ubuntu22.04.1*%
%TF.CreationDate,2023-03-08T14:45:44-05:00*%
%TF.ProjectId,webasto-mainboard,77656261-7374-46f2-9d6d-61696e626f61,2.0*%
%TF.SameCoordinates,Original*%
%TF.FileFunction,Legend,Bot*%
%TF.FilePolarity,Positive*%
%FSLAX46Y46*%
G04 Gerber Fmt 4.6, Leading zero omitted, Abs format (unit mm)*
G04 Created by KiCad (PCBNEW 6.0.11-2627ca5db0~126~ubuntu22.04.1) date 2023-03-08 14:45:44*
%MOMM*%
%LPD*%
G01*
G04 APERTURE LIST*
%ADD10C,0.150000*%
%ADD11C,0.120000*%
G04 APERTURE END LIST*
D10*
%TO.C,R18*%
X166172380Y-105577142D02*
X165696190Y-105243809D01*
X166172380Y-105005714D02*
X165172380Y-105005714D01*
X165172380Y-105386666D01*
X165220000Y-105481904D01*
X165267619Y-105529523D01*
X165362857Y-105577142D01*
X165505714Y-105577142D01*
X165600952Y-105529523D01*
X165648571Y-105481904D01*
X165696190Y-105386666D01*
X165696190Y-105005714D01*
X166172380Y-106529523D02*
X166172380Y-105958095D01*
X166172380Y-106243809D02*
X165172380Y-106243809D01*
X165315238Y-106148571D01*
X165410476Y-106053333D01*
X165458095Y-105958095D01*
X165600952Y-107100952D02*
X165553333Y-107005714D01*
X165505714Y-106958095D01*
X165410476Y-106910476D01*
X165362857Y-106910476D01*
X165267619Y-106958095D01*
X165220000Y-107005714D01*
X165172380Y-107100952D01*
X165172380Y-107291428D01*
X165220000Y-107386666D01*
X165267619Y-107434285D01*
X165362857Y-107481904D01*
X165410476Y-107481904D01*
X165505714Y-107434285D01*
X165553333Y-107386666D01*
X165600952Y-107291428D01*
X165600952Y-107100952D01*
X165648571Y-107005714D01*
X165696190Y-106958095D01*
X165791428Y-106910476D01*
X165981904Y-106910476D01*
X166077142Y-106958095D01*
X166124761Y-107005714D01*
X166172380Y-107100952D01*
X166172380Y-107291428D01*
X166124761Y-107386666D01*
X166077142Y-107434285D01*
X165981904Y-107481904D01*
X165791428Y-107481904D01*
X165696190Y-107434285D01*
X165648571Y-107386666D01*
X165600952Y-107291428D01*
%TO.C,R17*%
X160092380Y-105537142D02*
X159616190Y-105203809D01*
X160092380Y-104965714D02*
X159092380Y-104965714D01*
X159092380Y-105346666D01*
X159140000Y-105441904D01*
X159187619Y-105489523D01*
X159282857Y-105537142D01*
X159425714Y-105537142D01*
X159520952Y-105489523D01*
X159568571Y-105441904D01*
X159616190Y-105346666D01*
X159616190Y-104965714D01*
X160092380Y-106489523D02*
X160092380Y-105918095D01*
X160092380Y-106203809D02*
X159092380Y-106203809D01*
X159235238Y-106108571D01*
X159330476Y-106013333D01*
X159378095Y-105918095D01*
X159092380Y-106822857D02*
X159092380Y-107489523D01*
X160092380Y-107060952D01*
%TO.C,R16*%
X154572380Y-105197142D02*
X154096190Y-104863809D01*
X154572380Y-104625714D02*
X153572380Y-104625714D01*
X153572380Y-105006666D01*
X153620000Y-105101904D01*
X153667619Y-105149523D01*
X153762857Y-105197142D01*
X153905714Y-105197142D01*
X154000952Y-105149523D01*
X154048571Y-105101904D01*
X154096190Y-105006666D01*
X154096190Y-104625714D01*
X154572380Y-106149523D02*
X154572380Y-105578095D01*
X154572380Y-105863809D02*
X153572380Y-105863809D01*
X153715238Y-105768571D01*
X153810476Y-105673333D01*
X153858095Y-105578095D01*
X153572380Y-107006666D02*
X153572380Y-106816190D01*
X153620000Y-106720952D01*
X153667619Y-106673333D01*
X153810476Y-106578095D01*
X154000952Y-106530476D01*
X154381904Y-106530476D01*
X154477142Y-106578095D01*
X154524761Y-106625714D01*
X154572380Y-106720952D01*
X154572380Y-106911428D01*
X154524761Y-107006666D01*
X154477142Y-107054285D01*
X154381904Y-107101904D01*
X154143809Y-107101904D01*
X154048571Y-107054285D01*
X154000952Y-107006666D01*
X153953333Y-106911428D01*
X153953333Y-106720952D01*
X154000952Y-106625714D01*
X154048571Y-106578095D01*
X154143809Y-106530476D01*
%TO.C,D12*%
X157342380Y-59287714D02*
X156342380Y-59287714D01*
X156342380Y-59525809D01*
X156390000Y-59668666D01*
X156485238Y-59763904D01*
X156580476Y-59811523D01*
X156770952Y-59859142D01*
X156913809Y-59859142D01*
X157104285Y-59811523D01*
X157199523Y-59763904D01*
X157294761Y-59668666D01*
X157342380Y-59525809D01*
X157342380Y-59287714D01*
X157342380Y-60811523D02*
X157342380Y-60240095D01*
X157342380Y-60525809D02*
X156342380Y-60525809D01*
X156485238Y-60430571D01*
X156580476Y-60335333D01*
X156628095Y-60240095D01*
X156437619Y-61192476D02*
X156390000Y-61240095D01*
X156342380Y-61335333D01*
X156342380Y-61573428D01*
X156390000Y-61668666D01*
X156437619Y-61716285D01*
X156532857Y-61763904D01*
X156628095Y-61763904D01*
X156770952Y-61716285D01*
X157342380Y-61144857D01*
X157342380Y-61763904D01*
%TO.C,R29*%
X168152380Y-99457142D02*
X167676190Y-99123809D01*
X168152380Y-98885714D02*
X167152380Y-98885714D01*
X167152380Y-99266666D01*
X167200000Y-99361904D01*
X167247619Y-99409523D01*
X167342857Y-99457142D01*
X167485714Y-99457142D01*
X167580952Y-99409523D01*
X167628571Y-99361904D01*
X167676190Y-99266666D01*
X167676190Y-98885714D01*
X167247619Y-99838095D02*
X167200000Y-99885714D01*
X167152380Y-99980952D01*
X167152380Y-100219047D01*
X167200000Y-100314285D01*
X167247619Y-100361904D01*
X167342857Y-100409523D01*
X167438095Y-100409523D01*
X167580952Y-100361904D01*
X168152380Y-99790476D01*
X168152380Y-100409523D01*
X168152380Y-100885714D02*
X168152380Y-101076190D01*
X168104761Y-101171428D01*
X168057142Y-101219047D01*
X167914285Y-101314285D01*
X167723809Y-101361904D01*
X167342857Y-101361904D01*
X167247619Y-101314285D01*
X167200000Y-101266666D01*
X167152380Y-101171428D01*
X167152380Y-100980952D01*
X167200000Y-100885714D01*
X167247619Y-100838095D01*
X167342857Y-100790476D01*
X167580952Y-100790476D01*
X167676190Y-100838095D01*
X167723809Y-100885714D01*
X167771428Y-100980952D01*
X167771428Y-101171428D01*
X167723809Y-101266666D01*
X167676190Y-101314285D01*
X167580952Y-101361904D01*
%TO.C,R38*%
X110657380Y-63212142D02*
X110181190Y-62878809D01*
X110657380Y-62640714D02*
X109657380Y-62640714D01*
X109657380Y-63021666D01*
X109705000Y-63116904D01*
X109752619Y-63164523D01*
X109847857Y-63212142D01*
X109990714Y-63212142D01*
X110085952Y-63164523D01*
X110133571Y-63116904D01*
X110181190Y-63021666D01*
X110181190Y-62640714D01*
X109657380Y-63545476D02*
X109657380Y-64164523D01*
X110038333Y-63831190D01*
X110038333Y-63974047D01*
X110085952Y-64069285D01*
X110133571Y-64116904D01*
X110228809Y-64164523D01*
X110466904Y-64164523D01*
X110562142Y-64116904D01*
X110609761Y-64069285D01*
X110657380Y-63974047D01*
X110657380Y-63688333D01*
X110609761Y-63593095D01*
X110562142Y-63545476D01*
X110085952Y-64735952D02*
X110038333Y-64640714D01*
X109990714Y-64593095D01*
X109895476Y-64545476D01*
X109847857Y-64545476D01*
X109752619Y-64593095D01*
X109705000Y-64640714D01*
X109657380Y-64735952D01*
X109657380Y-64926428D01*
X109705000Y-65021666D01*
X109752619Y-65069285D01*
X109847857Y-65116904D01*
X109895476Y-65116904D01*
X109990714Y-65069285D01*
X110038333Y-65021666D01*
X110085952Y-64926428D01*
X110085952Y-64735952D01*
X110133571Y-64640714D01*
X110181190Y-64593095D01*
X110276428Y-64545476D01*
X110466904Y-64545476D01*
X110562142Y-64593095D01*
X110609761Y-64640714D01*
X110657380Y-64735952D01*
X110657380Y-64926428D01*
X110609761Y-65021666D01*
X110562142Y-65069285D01*
X110466904Y-65116904D01*
X110276428Y-65116904D01*
X110181190Y-65069285D01*
X110133571Y-65021666D01*
X110085952Y-64926428D01*
%TO.C,R8*%
X107452380Y-80333333D02*
X106976190Y-80000000D01*
X107452380Y-79761904D02*
X106452380Y-79761904D01*
X106452380Y-80142857D01*
X106500000Y-80238095D01*
X106547619Y-80285714D01*
X106642857Y-80333333D01*
X106785714Y-80333333D01*
X106880952Y-80285714D01*
X106928571Y-80238095D01*
X106976190Y-80142857D01*
X106976190Y-79761904D01*
X106880952Y-80904761D02*
X106833333Y-80809523D01*
X106785714Y-80761904D01*
X106690476Y-80714285D01*
X106642857Y-80714285D01*
X106547619Y-80761904D01*
X106500000Y-80809523D01*
X106452380Y-80904761D01*
X106452380Y-81095238D01*
X106500000Y-81190476D01*
X106547619Y-81238095D01*
X106642857Y-81285714D01*
X106690476Y-81285714D01*
X106785714Y-81238095D01*
X106833333Y-81190476D01*
X106880952Y-81095238D01*
X106880952Y-80904761D01*
X106928571Y-80809523D01*
X106976190Y-80761904D01*
X107071428Y-80714285D01*
X107261904Y-80714285D01*
X107357142Y-80761904D01*
X107404761Y-80809523D01*
X107452380Y-80904761D01*
X107452380Y-81095238D01*
X107404761Y-81190476D01*
X107357142Y-81238095D01*
X107261904Y-81285714D01*
X107071428Y-81285714D01*
X106976190Y-81238095D01*
X106928571Y-81190476D01*
X106880952Y-81095238D01*
%TO.C,R30*%
X127942857Y-104277380D02*
X128276190Y-103801190D01*
X128514285Y-104277380D02*
X128514285Y-103277380D01*
X128133333Y-103277380D01*
X128038095Y-103325000D01*
X127990476Y-103372619D01*
X127942857Y-103467857D01*
X127942857Y-103610714D01*
X127990476Y-103705952D01*
X128038095Y-103753571D01*
X128133333Y-103801190D01*
X128514285Y-103801190D01*
X127609523Y-103277380D02*
X126990476Y-103277380D01*
X127323809Y-103658333D01*
X127180952Y-103658333D01*
X127085714Y-103705952D01*
X127038095Y-103753571D01*
X126990476Y-103848809D01*
X126990476Y-104086904D01*
X127038095Y-104182142D01*
X127085714Y-104229761D01*
X127180952Y-104277380D01*
X127466666Y-104277380D01*
X127561904Y-104229761D01*
X127609523Y-104182142D01*
X126371428Y-103277380D02*
X126276190Y-103277380D01*
X126180952Y-103325000D01*
X126133333Y-103372619D01*
X126085714Y-103467857D01*
X126038095Y-103658333D01*
X126038095Y-103896428D01*
X126085714Y-104086904D01*
X126133333Y-104182142D01*
X126180952Y-104229761D01*
X126276190Y-104277380D01*
X126371428Y-104277380D01*
X126466666Y-104229761D01*
X126514285Y-104182142D01*
X126561904Y-104086904D01*
X126609523Y-103896428D01*
X126609523Y-103658333D01*
X126561904Y-103467857D01*
X126514285Y-103372619D01*
X126466666Y-103325000D01*
X126371428Y-103277380D01*
%TO.C,Q17*%
X181008928Y-121897619D02*
X181104166Y-121850000D01*
X181199404Y-121754761D01*
X181342261Y-121611904D01*
X181437500Y-121564285D01*
X181532738Y-121564285D01*
X181485119Y-121802380D02*
X181580357Y-121754761D01*
X181675595Y-121659523D01*
X181723214Y-121469047D01*
X181723214Y-121135714D01*
X181675595Y-120945238D01*
X181580357Y-120850000D01*
X181485119Y-120802380D01*
X181294642Y-120802380D01*
X181199404Y-120850000D01*
X181104166Y-120945238D01*
X181056547Y-121135714D01*
X181056547Y-121469047D01*
X181104166Y-121659523D01*
X181199404Y-121754761D01*
X181294642Y-121802380D01*
X181485119Y-121802380D01*
X180104166Y-121802380D02*
X180675595Y-121802380D01*
X180389880Y-121802380D02*
X180389880Y-120802380D01*
X180485119Y-120945238D01*
X180580357Y-121040476D01*
X180675595Y-121088095D01*
X179770833Y-120802380D02*
X179104166Y-120802380D01*
X179532738Y-121802380D01*
%TO.C,R13*%
X177052380Y-55857142D02*
X176576190Y-55523809D01*
X177052380Y-55285714D02*
X176052380Y-55285714D01*
X176052380Y-55666666D01*
X176100000Y-55761904D01*
X176147619Y-55809523D01*
X176242857Y-55857142D01*
X176385714Y-55857142D01*
X176480952Y-55809523D01*
X176528571Y-55761904D01*
X176576190Y-55666666D01*
X176576190Y-55285714D01*
X177052380Y-56809523D02*
X177052380Y-56238095D01*
X177052380Y-56523809D02*
X176052380Y-56523809D01*
X176195238Y-56428571D01*
X176290476Y-56333333D01*
X176338095Y-56238095D01*
X176052380Y-57142857D02*
X176052380Y-57761904D01*
X176433333Y-57428571D01*
X176433333Y-57571428D01*
X176480952Y-57666666D01*
X176528571Y-57714285D01*
X176623809Y-57761904D01*
X176861904Y-57761904D01*
X176957142Y-57714285D01*
X177004761Y-57666666D01*
X177052380Y-57571428D01*
X177052380Y-57285714D01*
X177004761Y-57190476D01*
X176957142Y-57142857D01*
%TO.C,R6*%
X150036666Y-89302380D02*
X150370000Y-88826190D01*
X150608095Y-89302380D02*
X150608095Y-88302380D01*
X150227142Y-88302380D01*
X150131904Y-88350000D01*
X150084285Y-88397619D01*
X150036666Y-88492857D01*
X150036666Y-88635714D01*
X150084285Y-88730952D01*
X150131904Y-88778571D01*
X150227142Y-88826190D01*
X150608095Y-88826190D01*
X149179523Y-88302380D02*
X149370000Y-88302380D01*
X149465238Y-88350000D01*
X149512857Y-88397619D01*
X149608095Y-88540476D01*
X149655714Y-88730952D01*
X149655714Y-89111904D01*
X149608095Y-89207142D01*
X149560476Y-89254761D01*
X149465238Y-89302380D01*
X149274761Y-89302380D01*
X149179523Y-89254761D01*
X149131904Y-89207142D01*
X149084285Y-89111904D01*
X149084285Y-88873809D01*
X149131904Y-88778571D01*
X149179523Y-88730952D01*
X149274761Y-88683333D01*
X149465238Y-88683333D01*
X149560476Y-88730952D01*
X149608095Y-88778571D01*
X149655714Y-88873809D01*
%TO.C,Q15*%
X158760254Y-95461868D02*
X158712635Y-95366630D01*
X158617396Y-95271392D01*
X158474539Y-95128535D01*
X158426920Y-95033297D01*
X158426920Y-94938058D01*
X158665015Y-94985677D02*
X158617396Y-94890439D01*
X158522158Y-94795201D01*
X158331682Y-94747582D01*
X157998349Y-94747582D01*
X157807873Y-94795201D01*
X157712635Y-94890439D01*
X157665015Y-94985677D01*
X157665015Y-95176154D01*
X157712635Y-95271392D01*
X157807873Y-95366630D01*
X157998349Y-95414249D01*
X158331682Y-95414249D01*
X158522158Y-95366630D01*
X158617396Y-95271392D01*
X158665015Y-95176154D01*
X158665015Y-94985677D01*
X158665015Y-96366630D02*
X158665015Y-95795201D01*
X158665015Y-96080916D02*
X157665015Y-96080916D01*
X157807873Y-95985677D01*
X157903111Y-95890439D01*
X157950730Y-95795201D01*
X157665015Y-97271392D02*
X157665015Y-96795201D01*
X158141206Y-96747582D01*
X158093587Y-96795201D01*
X158045968Y-96890439D01*
X158045968Y-97128535D01*
X158093587Y-97223773D01*
X158141206Y-97271392D01*
X158236444Y-97319011D01*
X158474539Y-97319011D01*
X158569777Y-97271392D01*
X158617396Y-97223773D01*
X158665015Y-97128535D01*
X158665015Y-96890439D01*
X158617396Y-96795201D01*
X158569777Y-96747582D01*
%TO.C,Q18*%
X176058928Y-125722619D02*
X176154166Y-125675000D01*
X176249404Y-125579761D01*
X176392261Y-125436904D01*
X176487500Y-125389285D01*
X176582738Y-125389285D01*
X176535119Y-125627380D02*
X176630357Y-125579761D01*
X176725595Y-125484523D01*
X176773214Y-125294047D01*
X176773214Y-124960714D01*
X176725595Y-124770238D01*
X176630357Y-124675000D01*
X176535119Y-124627380D01*
X176344642Y-124627380D01*
X176249404Y-124675000D01*
X176154166Y-124770238D01*
X176106547Y-124960714D01*
X176106547Y-125294047D01*
X176154166Y-125484523D01*
X176249404Y-125579761D01*
X176344642Y-125627380D01*
X176535119Y-125627380D01*
X175154166Y-125627380D02*
X175725595Y-125627380D01*
X175439880Y-125627380D02*
X175439880Y-124627380D01*
X175535119Y-124770238D01*
X175630357Y-124865476D01*
X175725595Y-124913095D01*
X174582738Y-125055952D02*
X174677976Y-125008333D01*
X174725595Y-124960714D01*
X174773214Y-124865476D01*
X174773214Y-124817857D01*
X174725595Y-124722619D01*
X174677976Y-124675000D01*
X174582738Y-124627380D01*
X174392261Y-124627380D01*
X174297023Y-124675000D01*
X174249404Y-124722619D01*
X174201785Y-124817857D01*
X174201785Y-124865476D01*
X174249404Y-124960714D01*
X174297023Y-125008333D01*
X174392261Y-125055952D01*
X174582738Y-125055952D01*
X174677976Y-125103571D01*
X174725595Y-125151190D01*
X174773214Y-125246428D01*
X174773214Y-125436904D01*
X174725595Y-125532142D01*
X174677976Y-125579761D01*
X174582738Y-125627380D01*
X174392261Y-125627380D01*
X174297023Y-125579761D01*
X174249404Y-125532142D01*
X174201785Y-125436904D01*
X174201785Y-125246428D01*
X174249404Y-125151190D01*
X174297023Y-125103571D01*
X174392261Y-125055952D01*
%TO.C,D6*%
X182906095Y-78512380D02*
X182906095Y-77512380D01*
X182668000Y-77512380D01*
X182525142Y-77560000D01*
X182429904Y-77655238D01*
X182382285Y-77750476D01*
X182334666Y-77940952D01*
X182334666Y-78083809D01*
X182382285Y-78274285D01*
X182429904Y-78369523D01*
X182525142Y-78464761D01*
X182668000Y-78512380D01*
X182906095Y-78512380D01*
X181477523Y-77512380D02*
X181668000Y-77512380D01*
X181763238Y-77560000D01*
X181810857Y-77607619D01*
X181906095Y-77750476D01*
X181953714Y-77940952D01*
X181953714Y-78321904D01*
X181906095Y-78417142D01*
X181858476Y-78464761D01*
X181763238Y-78512380D01*
X181572761Y-78512380D01*
X181477523Y-78464761D01*
X181429904Y-78417142D01*
X181382285Y-78321904D01*
X181382285Y-78083809D01*
X181429904Y-77988571D01*
X181477523Y-77940952D01*
X181572761Y-77893333D01*
X181763238Y-77893333D01*
X181858476Y-77940952D01*
X181906095Y-77988571D01*
X181953714Y-78083809D01*
%TO.C,Q4*%
X110947619Y-76592261D02*
X110900000Y-76497023D01*
X110804761Y-76401785D01*
X110661904Y-76258928D01*
X110614285Y-76163690D01*
X110614285Y-76068452D01*
X110852380Y-76116071D02*
X110804761Y-76020833D01*
X110709523Y-75925595D01*
X110519047Y-75877976D01*
X110185714Y-75877976D01*
X109995238Y-75925595D01*
X109900000Y-76020833D01*
X109852380Y-76116071D01*
X109852380Y-76306547D01*
X109900000Y-76401785D01*
X109995238Y-76497023D01*
X110185714Y-76544642D01*
X110519047Y-76544642D01*
X110709523Y-76497023D01*
X110804761Y-76401785D01*
X110852380Y-76306547D01*
X110852380Y-76116071D01*
X110185714Y-77401785D02*
X110852380Y-77401785D01*
X109804761Y-77163690D02*
X110519047Y-76925595D01*
X110519047Y-77544642D01*
%TO.C,C13*%
X186407142Y-117757142D02*
X186454761Y-117709523D01*
X186502380Y-117566666D01*
X186502380Y-117471428D01*
X186454761Y-117328571D01*
X186359523Y-117233333D01*
X186264285Y-117185714D01*
X186073809Y-117138095D01*
X185930952Y-117138095D01*
X185740476Y-117185714D01*
X185645238Y-117233333D01*
X185550000Y-117328571D01*
X185502380Y-117471428D01*
X185502380Y-117566666D01*
X185550000Y-117709523D01*
X185597619Y-117757142D01*
X186502380Y-118709523D02*
X186502380Y-118138095D01*
X186502380Y-118423809D02*
X185502380Y-118423809D01*
X185645238Y-118328571D01*
X185740476Y-118233333D01*
X185788095Y-118138095D01*
X185502380Y-119042857D02*
X185502380Y-119661904D01*
X185883333Y-119328571D01*
X185883333Y-119471428D01*
X185930952Y-119566666D01*
X185978571Y-119614285D01*
X186073809Y-119661904D01*
X186311904Y-119661904D01*
X186407142Y-119614285D01*
X186454761Y-119566666D01*
X186502380Y-119471428D01*
X186502380Y-119185714D01*
X186454761Y-119090476D01*
X186407142Y-119042857D01*
%TO.C,R23*%
X134377380Y-108282142D02*
X133901190Y-107948809D01*
X134377380Y-107710714D02*
X133377380Y-107710714D01*
X133377380Y-108091666D01*
X133425000Y-108186904D01*
X133472619Y-108234523D01*
X133567857Y-108282142D01*
X133710714Y-108282142D01*
X133805952Y-108234523D01*
X133853571Y-108186904D01*
X133901190Y-108091666D01*
X133901190Y-107710714D01*
X133472619Y-108663095D02*
X133425000Y-108710714D01*
X133377380Y-108805952D01*
X133377380Y-109044047D01*
X133425000Y-109139285D01*
X133472619Y-109186904D01*
X133567857Y-109234523D01*
X133663095Y-109234523D01*
X133805952Y-109186904D01*
X134377380Y-108615476D01*
X134377380Y-109234523D01*
X133377380Y-109567857D02*
X133377380Y-110186904D01*
X133758333Y-109853571D01*
X133758333Y-109996428D01*
X133805952Y-110091666D01*
X133853571Y-110139285D01*
X133948809Y-110186904D01*
X134186904Y-110186904D01*
X134282142Y-110139285D01*
X134329761Y-110091666D01*
X134377380Y-109996428D01*
X134377380Y-109710714D01*
X134329761Y-109615476D01*
X134282142Y-109567857D01*
%TO.C,Q3*%
X174547619Y-85154761D02*
X174500000Y-85059523D01*
X174404761Y-84964285D01*
X174261904Y-84821428D01*
X174214285Y-84726190D01*
X174214285Y-84630952D01*
X174452380Y-84678571D02*
X174404761Y-84583333D01*
X174309523Y-84488095D01*
X174119047Y-84440476D01*
X173785714Y-84440476D01*
X173595238Y-84488095D01*
X173500000Y-84583333D01*
X173452380Y-84678571D01*
X173452380Y-84869047D01*
X173500000Y-84964285D01*
X173595238Y-85059523D01*
X173785714Y-85107142D01*
X174119047Y-85107142D01*
X174309523Y-85059523D01*
X174404761Y-84964285D01*
X174452380Y-84869047D01*
X174452380Y-84678571D01*
X173452380Y-85440476D02*
X173452380Y-86059523D01*
X173833333Y-85726190D01*
X173833333Y-85869047D01*
X173880952Y-85964285D01*
X173928571Y-86011904D01*
X174023809Y-86059523D01*
X174261904Y-86059523D01*
X174357142Y-86011904D01*
X174404761Y-85964285D01*
X174452380Y-85869047D01*
X174452380Y-85583333D01*
X174404761Y-85488095D01*
X174357142Y-85440476D01*
%TO.C,R32*%
X137527380Y-105232142D02*
X137051190Y-104898809D01*
X137527380Y-104660714D02*
X136527380Y-104660714D01*
X136527380Y-105041666D01*
X136575000Y-105136904D01*
X136622619Y-105184523D01*
X136717857Y-105232142D01*
X136860714Y-105232142D01*
X136955952Y-105184523D01*
X137003571Y-105136904D01*
X137051190Y-105041666D01*
X137051190Y-104660714D01*
X136527380Y-105565476D02*
X136527380Y-106184523D01*
X136908333Y-105851190D01*
X136908333Y-105994047D01*
X136955952Y-106089285D01*
X137003571Y-106136904D01*
X137098809Y-106184523D01*
X137336904Y-106184523D01*
X137432142Y-106136904D01*
X137479761Y-106089285D01*
X137527380Y-105994047D01*
X137527380Y-105708333D01*
X137479761Y-105613095D01*
X137432142Y-105565476D01*
X136622619Y-106565476D02*
X136575000Y-106613095D01*
X136527380Y-106708333D01*
X136527380Y-106946428D01*
X136575000Y-107041666D01*
X136622619Y-107089285D01*
X136717857Y-107136904D01*
X136813095Y-107136904D01*
X136955952Y-107089285D01*
X137527380Y-106517857D01*
X137527380Y-107136904D01*
%TO.C,U3*%
X172211904Y-103077380D02*
X172211904Y-103886904D01*
X172164285Y-103982142D01*
X172116666Y-104029761D01*
X172021428Y-104077380D01*
X171830952Y-104077380D01*
X171735714Y-104029761D01*
X171688095Y-103982142D01*
X171640476Y-103886904D01*
X171640476Y-103077380D01*
X171259523Y-103077380D02*
X170640476Y-103077380D01*
X170973809Y-103458333D01*
X170830952Y-103458333D01*
X170735714Y-103505952D01*
X170688095Y-103553571D01*
X170640476Y-103648809D01*
X170640476Y-103886904D01*
X170688095Y-103982142D01*
X170735714Y-104029761D01*
X170830952Y-104077380D01*
X171116666Y-104077380D01*
X171211904Y-104029761D01*
X171259523Y-103982142D01*
%TO.C,R24*%
X167402380Y-78057142D02*
X166926190Y-77723809D01*
X167402380Y-77485714D02*
X166402380Y-77485714D01*
X166402380Y-77866666D01*
X166450000Y-77961904D01*
X166497619Y-78009523D01*
X166592857Y-78057142D01*
X166735714Y-78057142D01*
X166830952Y-78009523D01*
X166878571Y-77961904D01*
X166926190Y-77866666D01*
X166926190Y-77485714D01*
X166497619Y-78438095D02*
X166450000Y-78485714D01*
X166402380Y-78580952D01*
X166402380Y-78819047D01*
X166450000Y-78914285D01*
X166497619Y-78961904D01*
X166592857Y-79009523D01*
X166688095Y-79009523D01*
X166830952Y-78961904D01*
X167402380Y-78390476D01*
X167402380Y-79009523D01*
X166735714Y-79866666D02*
X167402380Y-79866666D01*
X166354761Y-79628571D02*
X167069047Y-79390476D01*
X167069047Y-80009523D01*
%TO.C,Q2*%
X172647619Y-72404761D02*
X172600000Y-72309523D01*
X172504761Y-72214285D01*
X172361904Y-72071428D01*
X172314285Y-71976190D01*
X172314285Y-71880952D01*
X172552380Y-71928571D02*
X172504761Y-71833333D01*
X172409523Y-71738095D01*
X172219047Y-71690476D01*
X171885714Y-71690476D01*
X171695238Y-71738095D01*
X171600000Y-71833333D01*
X171552380Y-71928571D01*
X171552380Y-72119047D01*
X171600000Y-72214285D01*
X171695238Y-72309523D01*
X171885714Y-72357142D01*
X172219047Y-72357142D01*
X172409523Y-72309523D01*
X172504761Y-72214285D01*
X172552380Y-72119047D01*
X172552380Y-71928571D01*
X171647619Y-72738095D02*
X171600000Y-72785714D01*
X171552380Y-72880952D01*
X171552380Y-73119047D01*
X171600000Y-73214285D01*
X171647619Y-73261904D01*
X171742857Y-73309523D01*
X171838095Y-73309523D01*
X171980952Y-73261904D01*
X172552380Y-72690476D01*
X172552380Y-73309523D01*
%TO.C,R37*%
X181302380Y-123232142D02*
X180826190Y-122898809D01*
X181302380Y-122660714D02*
X180302380Y-122660714D01*
X180302380Y-123041666D01*
X180350000Y-123136904D01*
X180397619Y-123184523D01*
X180492857Y-123232142D01*
X180635714Y-123232142D01*
X180730952Y-123184523D01*
X180778571Y-123136904D01*
X180826190Y-123041666D01*
X180826190Y-122660714D01*
X180302380Y-123565476D02*
X180302380Y-124184523D01*
X180683333Y-123851190D01*
X180683333Y-123994047D01*
X180730952Y-124089285D01*
X180778571Y-124136904D01*
X180873809Y-124184523D01*
X181111904Y-124184523D01*
X181207142Y-124136904D01*
X181254761Y-124089285D01*
X181302380Y-123994047D01*
X181302380Y-123708333D01*
X181254761Y-123613095D01*
X181207142Y-123565476D01*
X180302380Y-124517857D02*
X180302380Y-125184523D01*
X181302380Y-124755952D01*
%TO.C,Q8*%
X130647619Y-112554761D02*
X130600000Y-112459523D01*
X130504761Y-112364285D01*
X130361904Y-112221428D01*
X130314285Y-112126190D01*
X130314285Y-112030952D01*
X130552380Y-112078571D02*
X130504761Y-111983333D01*
X130409523Y-111888095D01*
X130219047Y-111840476D01*
X129885714Y-111840476D01*
X129695238Y-111888095D01*
X129600000Y-111983333D01*
X129552380Y-112078571D01*
X129552380Y-112269047D01*
X129600000Y-112364285D01*
X129695238Y-112459523D01*
X129885714Y-112507142D01*
X130219047Y-112507142D01*
X130409523Y-112459523D01*
X130504761Y-112364285D01*
X130552380Y-112269047D01*
X130552380Y-112078571D01*
X129980952Y-113078571D02*
X129933333Y-112983333D01*
X129885714Y-112935714D01*
X129790476Y-112888095D01*
X129742857Y-112888095D01*
X129647619Y-112935714D01*
X129600000Y-112983333D01*
X129552380Y-113078571D01*
X129552380Y-113269047D01*
X129600000Y-113364285D01*
X129647619Y-113411904D01*
X129742857Y-113459523D01*
X129790476Y-113459523D01*
X129885714Y-113411904D01*
X129933333Y-113364285D01*
X129980952Y-113269047D01*
X129980952Y-113078571D01*
X130028571Y-112983333D01*
X130076190Y-112935714D01*
X130171428Y-112888095D01*
X130361904Y-112888095D01*
X130457142Y-112935714D01*
X130504761Y-112983333D01*
X130552380Y-113078571D01*
X130552380Y-113269047D01*
X130504761Y-113364285D01*
X130457142Y-113411904D01*
X130361904Y-113459523D01*
X130171428Y-113459523D01*
X130076190Y-113411904D01*
X130028571Y-113364285D01*
X129980952Y-113269047D01*
%TO.C,R1*%
X184196666Y-106932380D02*
X184530000Y-106456190D01*
X184768095Y-106932380D02*
X184768095Y-105932380D01*
X184387142Y-105932380D01*
X184291904Y-105980000D01*
X184244285Y-106027619D01*
X184196666Y-106122857D01*
X184196666Y-106265714D01*
X184244285Y-106360952D01*
X184291904Y-106408571D01*
X184387142Y-106456190D01*
X184768095Y-106456190D01*
X183244285Y-106932380D02*
X183815714Y-106932380D01*
X183530000Y-106932380D02*
X183530000Y-105932380D01*
X183625238Y-106075238D01*
X183720476Y-106170476D01*
X183815714Y-106218095D01*
%TO.C,R34*%
X178352380Y-116657142D02*
X177876190Y-116323809D01*
X178352380Y-116085714D02*
X177352380Y-116085714D01*
X177352380Y-116466666D01*
X177400000Y-116561904D01*
X177447619Y-116609523D01*
X177542857Y-116657142D01*
X177685714Y-116657142D01*
X177780952Y-116609523D01*
X177828571Y-116561904D01*
X177876190Y-116466666D01*
X177876190Y-116085714D01*
X177352380Y-116990476D02*
X177352380Y-117609523D01*
X177733333Y-117276190D01*
X177733333Y-117419047D01*
X177780952Y-117514285D01*
X177828571Y-117561904D01*
X177923809Y-117609523D01*
X178161904Y-117609523D01*
X178257142Y-117561904D01*
X178304761Y-117514285D01*
X178352380Y-117419047D01*
X178352380Y-117133333D01*
X178304761Y-117038095D01*
X178257142Y-116990476D01*
X177685714Y-118466666D02*
X178352380Y-118466666D01*
X177304761Y-118228571D02*
X178019047Y-117990476D01*
X178019047Y-118609523D01*
%TO.C,D5*%
X113654380Y-71193904D02*
X112654380Y-71193904D01*
X112654380Y-71432000D01*
X112702000Y-71574857D01*
X112797238Y-71670095D01*
X112892476Y-71717714D01*
X113082952Y-71765333D01*
X113225809Y-71765333D01*
X113416285Y-71717714D01*
X113511523Y-71670095D01*
X113606761Y-71574857D01*
X113654380Y-71432000D01*
X113654380Y-71193904D01*
X112654380Y-72670095D02*
X112654380Y-72193904D01*
X113130571Y-72146285D01*
X113082952Y-72193904D01*
X113035333Y-72289142D01*
X113035333Y-72527238D01*
X113082952Y-72622476D01*
X113130571Y-72670095D01*
X113225809Y-72717714D01*
X113463904Y-72717714D01*
X113559142Y-72670095D01*
X113606761Y-72622476D01*
X113654380Y-72527238D01*
X113654380Y-72289142D01*
X113606761Y-72193904D01*
X113559142Y-72146285D01*
%TO.C,R7*%
X172666666Y-81452380D02*
X173000000Y-80976190D01*
X173238095Y-81452380D02*
X173238095Y-80452380D01*
X172857142Y-80452380D01*
X172761904Y-80500000D01*
X172714285Y-80547619D01*
X172666666Y-80642857D01*
X172666666Y-80785714D01*
X172714285Y-80880952D01*
X172761904Y-80928571D01*
X172857142Y-80976190D01*
X173238095Y-80976190D01*
X172333333Y-80452380D02*
X171666666Y-80452380D01*
X172095238Y-81452380D01*
%TO.C,Q16*%
X168147619Y-95328571D02*
X168100000Y-95233333D01*
X168004761Y-95138095D01*
X167861904Y-94995238D01*
X167814285Y-94900000D01*
X167814285Y-94804761D01*
X168052380Y-94852380D02*
X168004761Y-94757142D01*
X167909523Y-94661904D01*
X167719047Y-94614285D01*
X167385714Y-94614285D01*
X167195238Y-94661904D01*
X167100000Y-94757142D01*
X167052380Y-94852380D01*
X167052380Y-95042857D01*
X167100000Y-95138095D01*
X167195238Y-95233333D01*
X167385714Y-95280952D01*
X167719047Y-95280952D01*
X167909523Y-95233333D01*
X168004761Y-95138095D01*
X168052380Y-95042857D01*
X168052380Y-94852380D01*
X168052380Y-96233333D02*
X168052380Y-95661904D01*
X168052380Y-95947619D02*
X167052380Y-95947619D01*
X167195238Y-95852380D01*
X167290476Y-95757142D01*
X167338095Y-95661904D01*
X167052380Y-97090476D02*
X167052380Y-96900000D01*
X167100000Y-96804761D01*
X167147619Y-96757142D01*
X167290476Y-96661904D01*
X167480952Y-96614285D01*
X167861904Y-96614285D01*
X167957142Y-96661904D01*
X168004761Y-96709523D01*
X168052380Y-96804761D01*
X168052380Y-96995238D01*
X168004761Y-97090476D01*
X167957142Y-97138095D01*
X167861904Y-97185714D01*
X167623809Y-97185714D01*
X167528571Y-97138095D01*
X167480952Y-97090476D01*
X167433333Y-96995238D01*
X167433333Y-96804761D01*
X167480952Y-96709523D01*
X167528571Y-96661904D01*
X167623809Y-96614285D01*
%TO.C,R26*%
X147242857Y-63444380D02*
X147576190Y-62968190D01*
X147814285Y-63444380D02*
X147814285Y-62444380D01*
X147433333Y-62444380D01*
X147338095Y-62492000D01*
X147290476Y-62539619D01*
X147242857Y-62634857D01*
X147242857Y-62777714D01*
X147290476Y-62872952D01*
X147338095Y-62920571D01*
X147433333Y-62968190D01*
X147814285Y-62968190D01*
X146861904Y-62539619D02*
X146814285Y-62492000D01*
X146719047Y-62444380D01*
X146480952Y-62444380D01*
X146385714Y-62492000D01*
X146338095Y-62539619D01*
X146290476Y-62634857D01*
X146290476Y-62730095D01*
X146338095Y-62872952D01*
X146909523Y-63444380D01*
X146290476Y-63444380D01*
X145433333Y-62444380D02*
X145623809Y-62444380D01*
X145719047Y-62492000D01*
X145766666Y-62539619D01*
X145861904Y-62682476D01*
X145909523Y-62872952D01*
X145909523Y-63253904D01*
X145861904Y-63349142D01*
X145814285Y-63396761D01*
X145719047Y-63444380D01*
X145528571Y-63444380D01*
X145433333Y-63396761D01*
X145385714Y-63349142D01*
X145338095Y-63253904D01*
X145338095Y-63015809D01*
X145385714Y-62920571D01*
X145433333Y-62872952D01*
X145528571Y-62825333D01*
X145719047Y-62825333D01*
X145814285Y-62872952D01*
X145861904Y-62920571D01*
X145909523Y-63015809D01*
%TO.C,R36*%
X183217857Y-114927380D02*
X183551190Y-114451190D01*
X183789285Y-114927380D02*
X183789285Y-113927380D01*
X183408333Y-113927380D01*
X183313095Y-113975000D01*
X183265476Y-114022619D01*
X183217857Y-114117857D01*
X183217857Y-114260714D01*
X183265476Y-114355952D01*
X183313095Y-114403571D01*
X183408333Y-114451190D01*
X183789285Y-114451190D01*
X182884523Y-113927380D02*
X182265476Y-113927380D01*
X182598809Y-114308333D01*
X182455952Y-114308333D01*
X182360714Y-114355952D01*
X182313095Y-114403571D01*
X182265476Y-114498809D01*
X182265476Y-114736904D01*
X182313095Y-114832142D01*
X182360714Y-114879761D01*
X182455952Y-114927380D01*
X182741666Y-114927380D01*
X182836904Y-114879761D01*
X182884523Y-114832142D01*
X181408333Y-113927380D02*
X181598809Y-113927380D01*
X181694047Y-113975000D01*
X181741666Y-114022619D01*
X181836904Y-114165476D01*
X181884523Y-114355952D01*
X181884523Y-114736904D01*
X181836904Y-114832142D01*
X181789285Y-114879761D01*
X181694047Y-114927380D01*
X181503571Y-114927380D01*
X181408333Y-114879761D01*
X181360714Y-114832142D01*
X181313095Y-114736904D01*
X181313095Y-114498809D01*
X181360714Y-114403571D01*
X181408333Y-114355952D01*
X181503571Y-114308333D01*
X181694047Y-114308333D01*
X181789285Y-114355952D01*
X181836904Y-114403571D01*
X181884523Y-114498809D01*
%TO.C,R33*%
X147702380Y-105082142D02*
X147226190Y-104748809D01*
X147702380Y-104510714D02*
X146702380Y-104510714D01*
X146702380Y-104891666D01*
X146750000Y-104986904D01*
X146797619Y-105034523D01*
X146892857Y-105082142D01*
X147035714Y-105082142D01*
X147130952Y-105034523D01*
X147178571Y-104986904D01*
X147226190Y-104891666D01*
X147226190Y-104510714D01*
X146702380Y-105415476D02*
X146702380Y-106034523D01*
X147083333Y-105701190D01*
X147083333Y-105844047D01*
X147130952Y-105939285D01*
X147178571Y-105986904D01*
X147273809Y-106034523D01*
X147511904Y-106034523D01*
X147607142Y-105986904D01*
X147654761Y-105939285D01*
X147702380Y-105844047D01*
X147702380Y-105558333D01*
X147654761Y-105463095D01*
X147607142Y-105415476D01*
X146702380Y-106367857D02*
X146702380Y-106986904D01*
X147083333Y-106653571D01*
X147083333Y-106796428D01*
X147130952Y-106891666D01*
X147178571Y-106939285D01*
X147273809Y-106986904D01*
X147511904Y-106986904D01*
X147607142Y-106939285D01*
X147654761Y-106891666D01*
X147702380Y-106796428D01*
X147702380Y-106510714D01*
X147654761Y-106415476D01*
X147607142Y-106367857D01*
%TO.C,R39*%
X107162380Y-65047142D02*
X106686190Y-64713809D01*
X107162380Y-64475714D02*
X106162380Y-64475714D01*
X106162380Y-64856666D01*
X106210000Y-64951904D01*
X106257619Y-64999523D01*
X106352857Y-65047142D01*
X106495714Y-65047142D01*
X106590952Y-64999523D01*
X106638571Y-64951904D01*
X106686190Y-64856666D01*
X106686190Y-64475714D01*
X106162380Y-65380476D02*
X106162380Y-65999523D01*
X106543333Y-65666190D01*
X106543333Y-65809047D01*
X106590952Y-65904285D01*
X106638571Y-65951904D01*
X106733809Y-65999523D01*
X106971904Y-65999523D01*
X107067142Y-65951904D01*
X107114761Y-65904285D01*
X107162380Y-65809047D01*
X107162380Y-65523333D01*
X107114761Y-65428095D01*
X107067142Y-65380476D01*
X107162380Y-66475714D02*
X107162380Y-66666190D01*
X107114761Y-66761428D01*
X107067142Y-66809047D01*
X106924285Y-66904285D01*
X106733809Y-66951904D01*
X106352857Y-66951904D01*
X106257619Y-66904285D01*
X106210000Y-66856666D01*
X106162380Y-66761428D01*
X106162380Y-66570952D01*
X106210000Y-66475714D01*
X106257619Y-66428095D01*
X106352857Y-66380476D01*
X106590952Y-66380476D01*
X106686190Y-66428095D01*
X106733809Y-66475714D01*
X106781428Y-66570952D01*
X106781428Y-66761428D01*
X106733809Y-66856666D01*
X106686190Y-66904285D01*
X106590952Y-66951904D01*
%TO.C,R10*%
X181142857Y-83802380D02*
X181476190Y-83326190D01*
X181714285Y-83802380D02*
X181714285Y-82802380D01*
X181333333Y-82802380D01*
X181238095Y-82850000D01*
X181190476Y-82897619D01*
X181142857Y-82992857D01*
X181142857Y-83135714D01*
X181190476Y-83230952D01*
X181238095Y-83278571D01*
X181333333Y-83326190D01*
X181714285Y-83326190D01*
X180190476Y-83802380D02*
X180761904Y-83802380D01*
X180476190Y-83802380D02*
X180476190Y-82802380D01*
X180571428Y-82945238D01*
X180666666Y-83040476D01*
X180761904Y-83088095D01*
X179571428Y-82802380D02*
X179476190Y-82802380D01*
X179380952Y-82850000D01*
X179333333Y-82897619D01*
X179285714Y-82992857D01*
X179238095Y-83183333D01*
X179238095Y-83421428D01*
X179285714Y-83611904D01*
X179333333Y-83707142D01*
X179380952Y-83754761D01*
X179476190Y-83802380D01*
X179571428Y-83802380D01*
X179666666Y-83754761D01*
X179714285Y-83707142D01*
X179761904Y-83611904D01*
X179809523Y-83421428D01*
X179809523Y-83183333D01*
X179761904Y-82992857D01*
X179714285Y-82897619D01*
X179666666Y-82850000D01*
X179571428Y-82802380D01*
%TO.C,R12*%
X161552380Y-56107142D02*
X161076190Y-55773809D01*
X161552380Y-55535714D02*
X160552380Y-55535714D01*
X160552380Y-55916666D01*
X160600000Y-56011904D01*
X160647619Y-56059523D01*
X160742857Y-56107142D01*
X160885714Y-56107142D01*
X160980952Y-56059523D01*
X161028571Y-56011904D01*
X161076190Y-55916666D01*
X161076190Y-55535714D01*
X161552380Y-57059523D02*
X161552380Y-56488095D01*
X161552380Y-56773809D02*
X160552380Y-56773809D01*
X160695238Y-56678571D01*
X160790476Y-56583333D01*
X160838095Y-56488095D01*
X160647619Y-57440476D02*
X160600000Y-57488095D01*
X160552380Y-57583333D01*
X160552380Y-57821428D01*
X160600000Y-57916666D01*
X160647619Y-57964285D01*
X160742857Y-58011904D01*
X160838095Y-58011904D01*
X160980952Y-57964285D01*
X161552380Y-57392857D01*
X161552380Y-58011904D01*
%TO.C,D4*%
X182688095Y-60052380D02*
X182688095Y-59052380D01*
X182450000Y-59052380D01*
X182307142Y-59100000D01*
X182211904Y-59195238D01*
X182164285Y-59290476D01*
X182116666Y-59480952D01*
X182116666Y-59623809D01*
X182164285Y-59814285D01*
X182211904Y-59909523D01*
X182307142Y-60004761D01*
X182450000Y-60052380D01*
X182688095Y-60052380D01*
X181259523Y-59385714D02*
X181259523Y-60052380D01*
X181497619Y-59004761D02*
X181735714Y-59719047D01*
X181116666Y-59719047D01*
%TO.C,D11*%
X149042285Y-56840380D02*
X149042285Y-55840380D01*
X148804190Y-55840380D01*
X148661333Y-55888000D01*
X148566095Y-55983238D01*
X148518476Y-56078476D01*
X148470857Y-56268952D01*
X148470857Y-56411809D01*
X148518476Y-56602285D01*
X148566095Y-56697523D01*
X148661333Y-56792761D01*
X148804190Y-56840380D01*
X149042285Y-56840380D01*
X147518476Y-56840380D02*
X148089904Y-56840380D01*
X147804190Y-56840380D02*
X147804190Y-55840380D01*
X147899428Y-55983238D01*
X147994666Y-56078476D01*
X148089904Y-56126095D01*
X146566095Y-56840380D02*
X147137523Y-56840380D01*
X146851809Y-56840380D02*
X146851809Y-55840380D01*
X146947047Y-55983238D01*
X147042285Y-56078476D01*
X147137523Y-56126095D01*
%TO.C,C1*%
X178232142Y-103258333D02*
X178279761Y-103210714D01*
X178327380Y-103067857D01*
X178327380Y-102972619D01*
X178279761Y-102829761D01*
X178184523Y-102734523D01*
X178089285Y-102686904D01*
X177898809Y-102639285D01*
X177755952Y-102639285D01*
X177565476Y-102686904D01*
X177470238Y-102734523D01*
X177375000Y-102829761D01*
X177327380Y-102972619D01*
X177327380Y-103067857D01*
X177375000Y-103210714D01*
X177422619Y-103258333D01*
X178327380Y-104210714D02*
X178327380Y-103639285D01*
X178327380Y-103925000D02*
X177327380Y-103925000D01*
X177470238Y-103829761D01*
X177565476Y-103734523D01*
X177613095Y-103639285D01*
%TO.C,R4*%
X156677380Y-120783333D02*
X156201190Y-120450000D01*
X156677380Y-120211904D02*
X155677380Y-120211904D01*
X155677380Y-120592857D01*
X155725000Y-120688095D01*
X155772619Y-120735714D01*
X155867857Y-120783333D01*
X156010714Y-120783333D01*
X156105952Y-120735714D01*
X156153571Y-120688095D01*
X156201190Y-120592857D01*
X156201190Y-120211904D01*
X156010714Y-121640476D02*
X156677380Y-121640476D01*
X155629761Y-121402380D02*
X156344047Y-121164285D01*
X156344047Y-121783333D01*
%TO.C,R31*%
X165452380Y-72157142D02*
X164976190Y-71823809D01*
X165452380Y-71585714D02*
X164452380Y-71585714D01*
X164452380Y-71966666D01*
X164500000Y-72061904D01*
X164547619Y-72109523D01*
X164642857Y-72157142D01*
X164785714Y-72157142D01*
X164880952Y-72109523D01*
X164928571Y-72061904D01*
X164976190Y-71966666D01*
X164976190Y-71585714D01*
X164452380Y-72490476D02*
X164452380Y-73109523D01*
X164833333Y-72776190D01*
X164833333Y-72919047D01*
X164880952Y-73014285D01*
X164928571Y-73061904D01*
X165023809Y-73109523D01*
X165261904Y-73109523D01*
X165357142Y-73061904D01*
X165404761Y-73014285D01*
X165452380Y-72919047D01*
X165452380Y-72633333D01*
X165404761Y-72538095D01*
X165357142Y-72490476D01*
X165452380Y-74061904D02*
X165452380Y-73490476D01*
X165452380Y-73776190D02*
X164452380Y-73776190D01*
X164595238Y-73680952D01*
X164690476Y-73585714D01*
X164738095Y-73490476D01*
%TO.C,R14*%
X104972857Y-65512380D02*
X105306190Y-65036190D01*
X105544285Y-65512380D02*
X105544285Y-64512380D01*
X105163333Y-64512380D01*
X105068095Y-64560000D01*
X105020476Y-64607619D01*
X104972857Y-64702857D01*
X104972857Y-64845714D01*
X105020476Y-64940952D01*
X105068095Y-64988571D01*
X105163333Y-65036190D01*
X105544285Y-65036190D01*
X104020476Y-65512380D02*
X104591904Y-65512380D01*
X104306190Y-65512380D02*
X104306190Y-64512380D01*
X104401428Y-64655238D01*
X104496666Y-64750476D01*
X104591904Y-64798095D01*
X103163333Y-64845714D02*
X103163333Y-65512380D01*
X103401428Y-64464761D02*
X103639523Y-65179047D01*
X103020476Y-65179047D01*
%TO.C,R28*%
X160852380Y-101257142D02*
X160376190Y-100923809D01*
X160852380Y-100685714D02*
X159852380Y-100685714D01*
X159852380Y-101066666D01*
X159900000Y-101161904D01*
X159947619Y-101209523D01*
X160042857Y-101257142D01*
X160185714Y-101257142D01*
X160280952Y-101209523D01*
X160328571Y-101161904D01*
X160376190Y-101066666D01*
X160376190Y-100685714D01*
X159947619Y-101638095D02*
X159900000Y-101685714D01*
X159852380Y-101780952D01*
X159852380Y-102019047D01*
X159900000Y-102114285D01*
X159947619Y-102161904D01*
X160042857Y-102209523D01*
X160138095Y-102209523D01*
X160280952Y-102161904D01*
X160852380Y-101590476D01*
X160852380Y-102209523D01*
X160280952Y-102780952D02*
X160233333Y-102685714D01*
X160185714Y-102638095D01*
X160090476Y-102590476D01*
X160042857Y-102590476D01*
X159947619Y-102638095D01*
X159900000Y-102685714D01*
X159852380Y-102780952D01*
X159852380Y-102971428D01*
X159900000Y-103066666D01*
X159947619Y-103114285D01*
X160042857Y-103161904D01*
X160090476Y-103161904D01*
X160185714Y-103114285D01*
X160233333Y-103066666D01*
X160280952Y-102971428D01*
X160280952Y-102780952D01*
X160328571Y-102685714D01*
X160376190Y-102638095D01*
X160471428Y-102590476D01*
X160661904Y-102590476D01*
X160757142Y-102638095D01*
X160804761Y-102685714D01*
X160852380Y-102780952D01*
X160852380Y-102971428D01*
X160804761Y-103066666D01*
X160757142Y-103114285D01*
X160661904Y-103161904D01*
X160471428Y-103161904D01*
X160376190Y-103114285D01*
X160328571Y-103066666D01*
X160280952Y-102971428D01*
%TO.C,R5*%
X160627380Y-117008333D02*
X160151190Y-116675000D01*
X160627380Y-116436904D02*
X159627380Y-116436904D01*
X159627380Y-116817857D01*
X159675000Y-116913095D01*
X159722619Y-116960714D01*
X159817857Y-117008333D01*
X159960714Y-117008333D01*
X160055952Y-116960714D01*
X160103571Y-116913095D01*
X160151190Y-116817857D01*
X160151190Y-116436904D01*
X159627380Y-117913095D02*
X159627380Y-117436904D01*
X160103571Y-117389285D01*
X160055952Y-117436904D01*
X160008333Y-117532142D01*
X160008333Y-117770238D01*
X160055952Y-117865476D01*
X160103571Y-117913095D01*
X160198809Y-117960714D01*
X160436904Y-117960714D01*
X160532142Y-117913095D01*
X160579761Y-117865476D01*
X160627380Y-117770238D01*
X160627380Y-117532142D01*
X160579761Y-117436904D01*
X160532142Y-117389285D01*
%TO.C,R9*%
X178666666Y-75952380D02*
X179000000Y-75476190D01*
X179238095Y-75952380D02*
X179238095Y-74952380D01*
X178857142Y-74952380D01*
X178761904Y-75000000D01*
X178714285Y-75047619D01*
X178666666Y-75142857D01*
X178666666Y-75285714D01*
X178714285Y-75380952D01*
X178761904Y-75428571D01*
X178857142Y-75476190D01*
X179238095Y-75476190D01*
X178190476Y-75952380D02*
X178000000Y-75952380D01*
X177904761Y-75904761D01*
X177857142Y-75857142D01*
X177761904Y-75714285D01*
X177714285Y-75523809D01*
X177714285Y-75142857D01*
X177761904Y-75047619D01*
X177809523Y-75000000D01*
X177904761Y-74952380D01*
X178095238Y-74952380D01*
X178190476Y-75000000D01*
X178238095Y-75047619D01*
X178285714Y-75142857D01*
X178285714Y-75380952D01*
X178238095Y-75476190D01*
X178190476Y-75523809D01*
X178095238Y-75571428D01*
X177904761Y-75571428D01*
X177809523Y-75523809D01*
X177761904Y-75476190D01*
X177714285Y-75380952D01*
%TO.C,R3*%
X156152380Y-116783333D02*
X155676190Y-116450000D01*
X156152380Y-116211904D02*
X155152380Y-116211904D01*
X155152380Y-116592857D01*
X155200000Y-116688095D01*
X155247619Y-116735714D01*
X155342857Y-116783333D01*
X155485714Y-116783333D01*
X155580952Y-116735714D01*
X155628571Y-116688095D01*
X155676190Y-116592857D01*
X155676190Y-116211904D01*
X155152380Y-117116666D02*
X155152380Y-117735714D01*
X155533333Y-117402380D01*
X155533333Y-117545238D01*
X155580952Y-117640476D01*
X155628571Y-117688095D01*
X155723809Y-117735714D01*
X155961904Y-117735714D01*
X156057142Y-117688095D01*
X156104761Y-117640476D01*
X156152380Y-117545238D01*
X156152380Y-117259523D01*
X156104761Y-117164285D01*
X156057142Y-117116666D01*
%TO.C,C15*%
X107007142Y-68167142D02*
X107054761Y-68119523D01*
X107102380Y-67976666D01*
X107102380Y-67881428D01*
X107054761Y-67738571D01*
X106959523Y-67643333D01*
X106864285Y-67595714D01*
X106673809Y-67548095D01*
X106530952Y-67548095D01*
X106340476Y-67595714D01*
X106245238Y-67643333D01*
X106150000Y-67738571D01*
X106102380Y-67881428D01*
X106102380Y-67976666D01*
X106150000Y-68119523D01*
X106197619Y-68167142D01*
X107102380Y-69119523D02*
X107102380Y-68548095D01*
X107102380Y-68833809D02*
X106102380Y-68833809D01*
X106245238Y-68738571D01*
X106340476Y-68643333D01*
X106388095Y-68548095D01*
X106102380Y-70024285D02*
X106102380Y-69548095D01*
X106578571Y-69500476D01*
X106530952Y-69548095D01*
X106483333Y-69643333D01*
X106483333Y-69881428D01*
X106530952Y-69976666D01*
X106578571Y-70024285D01*
X106673809Y-70071904D01*
X106911904Y-70071904D01*
X107007142Y-70024285D01*
X107054761Y-69976666D01*
X107102380Y-69881428D01*
X107102380Y-69643333D01*
X107054761Y-69548095D01*
X107007142Y-69500476D01*
%TO.C,C2*%
X172082142Y-100883333D02*
X172129761Y-100835714D01*
X172177380Y-100692857D01*
X172177380Y-100597619D01*
X172129761Y-100454761D01*
X172034523Y-100359523D01*
X171939285Y-100311904D01*
X171748809Y-100264285D01*
X171605952Y-100264285D01*
X171415476Y-100311904D01*
X171320238Y-100359523D01*
X171225000Y-100454761D01*
X171177380Y-100597619D01*
X171177380Y-100692857D01*
X171225000Y-100835714D01*
X171272619Y-100883333D01*
X171272619Y-101264285D02*
X171225000Y-101311904D01*
X171177380Y-101407142D01*
X171177380Y-101645238D01*
X171225000Y-101740476D01*
X171272619Y-101788095D01*
X171367857Y-101835714D01*
X171463095Y-101835714D01*
X171605952Y-101788095D01*
X172177380Y-101216666D01*
X172177380Y-101835714D01*
%TO.C,R2*%
X167527380Y-105383333D02*
X167051190Y-105050000D01*
X167527380Y-104811904D02*
X166527380Y-104811904D01*
X166527380Y-105192857D01*
X166575000Y-105288095D01*
X166622619Y-105335714D01*
X166717857Y-105383333D01*
X166860714Y-105383333D01*
X166955952Y-105335714D01*
X167003571Y-105288095D01*
X167051190Y-105192857D01*
X167051190Y-104811904D01*
X166622619Y-105764285D02*
X166575000Y-105811904D01*
X166527380Y-105907142D01*
X166527380Y-106145238D01*
X166575000Y-106240476D01*
X166622619Y-106288095D01*
X166717857Y-106335714D01*
X166813095Y-106335714D01*
X166955952Y-106288095D01*
X167527380Y-105716666D01*
X167527380Y-106335714D01*
%TO.C,C14*%
X110687142Y-66937142D02*
X110734761Y-66889523D01*
X110782380Y-66746666D01*
X110782380Y-66651428D01*
X110734761Y-66508571D01*
X110639523Y-66413333D01*
X110544285Y-66365714D01*
X110353809Y-66318095D01*
X110210952Y-66318095D01*
X110020476Y-66365714D01*
X109925238Y-66413333D01*
X109830000Y-66508571D01*
X109782380Y-66651428D01*
X109782380Y-66746666D01*
X109830000Y-66889523D01*
X109877619Y-66937142D01*
X110782380Y-67889523D02*
X110782380Y-67318095D01*
X110782380Y-67603809D02*
X109782380Y-67603809D01*
X109925238Y-67508571D01*
X110020476Y-67413333D01*
X110068095Y-67318095D01*
X110115714Y-68746666D02*
X110782380Y-68746666D01*
X109734761Y-68508571D02*
X110449047Y-68270476D01*
X110449047Y-68889523D01*
D11*
%TO.C,R18*%
X164805000Y-106447064D02*
X164805000Y-105992936D01*
X163335000Y-106447064D02*
X163335000Y-105992936D01*
%TO.C,R17*%
X162295000Y-106547064D02*
X162295000Y-106092936D01*
X160825000Y-106547064D02*
X160825000Y-106092936D01*
%TO.C,R16*%
X153205000Y-106067064D02*
X153205000Y-105612936D01*
X151735000Y-106067064D02*
X151735000Y-105612936D01*
%TO.C,D12*%
X156100000Y-59722000D02*
X156100000Y-61752000D01*
X156100000Y-59722000D02*
X155440000Y-59722000D01*
X154440000Y-59722000D02*
X153780000Y-59722000D01*
X153780000Y-61132000D02*
X153780000Y-59722000D01*
%TO.C,R29*%
X165065000Y-99772936D02*
X165065000Y-100227064D01*
X166535000Y-99772936D02*
X166535000Y-100227064D01*
%TO.C,R38*%
X112890000Y-63377936D02*
X112890000Y-63832064D01*
X111420000Y-63377936D02*
X111420000Y-63832064D01*
%TO.C,R8*%
X108265000Y-80727064D02*
X108265000Y-80272936D01*
X109735000Y-80727064D02*
X109735000Y-80272936D01*
%TO.C,R30*%
X127527064Y-104690000D02*
X127072936Y-104690000D01*
X127527064Y-106160000D02*
X127072936Y-106160000D01*
%TO.C,Q17*%
X180437500Y-120510000D02*
X181087500Y-120510000D01*
X180437500Y-117390000D02*
X181087500Y-117390000D01*
X180437500Y-120510000D02*
X178762500Y-120510000D01*
X180437500Y-117390000D02*
X179787500Y-117390000D01*
%TO.C,R13*%
X178985000Y-56272936D02*
X178985000Y-56727064D01*
X177515000Y-56272936D02*
X177515000Y-56727064D01*
%TO.C,R6*%
X149642936Y-86465000D02*
X150097064Y-86465000D01*
X149642936Y-87935000D02*
X150097064Y-87935000D01*
%TO.C,Q15*%
X159052635Y-96033297D02*
X159052635Y-96683297D01*
X162172635Y-96033297D02*
X162172635Y-96683297D01*
X162172635Y-96033297D02*
X162172635Y-95383297D01*
X159052635Y-96033297D02*
X159052635Y-94358297D01*
%TO.C,Q18*%
X175487500Y-124335000D02*
X173812500Y-124335000D01*
X175487500Y-121215000D02*
X176137500Y-121215000D01*
X175487500Y-121215000D02*
X174837500Y-121215000D01*
X175487500Y-124335000D02*
X176137500Y-124335000D01*
%TO.C,D6*%
X181388000Y-78850000D02*
X181388000Y-79510000D01*
X181388000Y-80510000D02*
X181388000Y-81170000D01*
X182798000Y-81170000D02*
X181388000Y-81170000D01*
X181388000Y-78850000D02*
X183418000Y-78850000D01*
%TO.C,Q4*%
X106440000Y-76687500D02*
X106440000Y-76037500D01*
X106440000Y-76687500D02*
X106440000Y-77337500D01*
X109560000Y-76687500D02*
X109560000Y-76037500D01*
X109560000Y-76687500D02*
X109560000Y-78362500D01*
%TO.C,C13*%
X184735000Y-118863748D02*
X184735000Y-119386252D01*
X183265000Y-118863748D02*
X183265000Y-119386252D01*
%TO.C,R23*%
X131540000Y-109152064D02*
X131540000Y-108697936D01*
X133010000Y-109152064D02*
X133010000Y-108697936D01*
%TO.C,Q3*%
X178060000Y-84000000D02*
X178060000Y-83350000D01*
X174940000Y-84000000D02*
X174940000Y-82325000D01*
X178060000Y-84000000D02*
X178060000Y-84650000D01*
X174940000Y-84000000D02*
X174940000Y-84650000D01*
%TO.C,R32*%
X137990000Y-105647936D02*
X137990000Y-106102064D01*
X139460000Y-105647936D02*
X139460000Y-106102064D01*
%TO.C,U3*%
X172712500Y-107810000D02*
X173362500Y-107810000D01*
X172712500Y-104690000D02*
X173362500Y-104690000D01*
X172712500Y-104690000D02*
X172062500Y-104690000D01*
X172712500Y-107810000D02*
X171037500Y-107810000D01*
%TO.C,R24*%
X166035000Y-78927064D02*
X166035000Y-78472936D01*
X164565000Y-78927064D02*
X164565000Y-78472936D01*
%TO.C,Q2*%
X172940000Y-72500000D02*
X172940000Y-73150000D01*
X176060000Y-72500000D02*
X176060000Y-71850000D01*
X172940000Y-72500000D02*
X172940000Y-70825000D01*
X176060000Y-72500000D02*
X176060000Y-73150000D01*
%TO.C,R37*%
X179935000Y-124102064D02*
X179935000Y-123647936D01*
X178465000Y-124102064D02*
X178465000Y-123647936D01*
%TO.C,Q8*%
X130810000Y-108987500D02*
X130810000Y-108337500D01*
X127690000Y-108987500D02*
X127690000Y-107312500D01*
X127690000Y-108987500D02*
X127690000Y-109637500D01*
X130810000Y-108987500D02*
X130810000Y-109637500D01*
%TO.C,R1*%
X181202064Y-107110000D02*
X180747936Y-107110000D01*
X181202064Y-105640000D02*
X180747936Y-105640000D01*
%TO.C,R34*%
X176960000Y-119227064D02*
X176960000Y-118772936D01*
X175490000Y-119227064D02*
X175490000Y-118772936D01*
%TO.C,D5*%
X110092000Y-72562000D02*
X110092000Y-71152000D01*
X112412000Y-71152000D02*
X112412000Y-73182000D01*
X110752000Y-71152000D02*
X110092000Y-71152000D01*
X112412000Y-71152000D02*
X111752000Y-71152000D01*
%TO.C,R7*%
X172272936Y-83735000D02*
X172727064Y-83735000D01*
X172272936Y-82265000D02*
X172727064Y-82265000D01*
%TO.C,Q16*%
X166226824Y-96050667D02*
X166226824Y-95400667D01*
X163106824Y-96050667D02*
X163106824Y-96700667D01*
X163106824Y-96050667D02*
X163106824Y-94375667D01*
X166226824Y-96050667D02*
X166226824Y-96700667D01*
%TO.C,R26*%
X146827064Y-60365000D02*
X146372936Y-60365000D01*
X146827064Y-61835000D02*
X146372936Y-61835000D01*
%TO.C,R36*%
X182802064Y-115390000D02*
X182347936Y-115390000D01*
X182802064Y-116860000D02*
X182347936Y-116860000D01*
%TO.C,R33*%
X148165000Y-105497936D02*
X148165000Y-105952064D01*
X149635000Y-105497936D02*
X149635000Y-105952064D01*
%TO.C,R39*%
X107635000Y-63402936D02*
X107635000Y-63857064D01*
X109105000Y-63402936D02*
X109105000Y-63857064D01*
%TO.C,R10*%
X180727064Y-84265000D02*
X180272936Y-84265000D01*
X180727064Y-85735000D02*
X180272936Y-85735000D01*
%TO.C,R12*%
X162015000Y-56522936D02*
X162015000Y-56977064D01*
X163485000Y-56522936D02*
X163485000Y-56977064D01*
%TO.C,D4*%
X182580000Y-62710000D02*
X181170000Y-62710000D01*
X181170000Y-60390000D02*
X181170000Y-61050000D01*
X181170000Y-62050000D02*
X181170000Y-62710000D01*
X181170000Y-60390000D02*
X183200000Y-60390000D01*
%TO.C,D11*%
X148558000Y-57920000D02*
X148558000Y-57260000D01*
X148558000Y-59580000D02*
X148558000Y-58920000D01*
X147148000Y-57260000D02*
X148558000Y-57260000D01*
X148558000Y-59580000D02*
X146528000Y-59580000D01*
%TO.C,C1*%
X174965000Y-105372500D02*
X174965000Y-101287500D01*
X176835000Y-105372500D02*
X174965000Y-105372500D01*
X176835000Y-101287500D02*
X176835000Y-105372500D01*
%TO.C,R4*%
X157140000Y-120722936D02*
X157140000Y-121177064D01*
X158610000Y-120722936D02*
X158610000Y-121177064D01*
%TO.C,R31*%
X167666638Y-72720619D02*
X167666638Y-72266491D01*
X166196638Y-72720619D02*
X166196638Y-72266491D01*
%TO.C,R14*%
X104772936Y-62515000D02*
X105227064Y-62515000D01*
X104772936Y-63985000D02*
X105227064Y-63985000D01*
%TO.C,R28*%
X163009502Y-99801353D02*
X163009502Y-100255481D01*
X161539502Y-99801353D02*
X161539502Y-100255481D01*
%TO.C,R5*%
X159490000Y-120672936D02*
X159490000Y-121127064D01*
X160960000Y-120672936D02*
X160960000Y-121127064D01*
%TO.C,R9*%
X178477064Y-72765000D02*
X178022936Y-72765000D01*
X178477064Y-74235000D02*
X178022936Y-74235000D01*
%TO.C,R3*%
X154915000Y-120747936D02*
X154915000Y-121202064D01*
X156385000Y-120747936D02*
X156385000Y-121202064D01*
%TO.C,C15*%
X109155000Y-67418748D02*
X109155000Y-67941252D01*
X107685000Y-67418748D02*
X107685000Y-67941252D01*
%TO.C,C2*%
X174335000Y-102748752D02*
X174335000Y-102226248D01*
X172865000Y-102748752D02*
X172865000Y-102226248D01*
%TO.C,R2*%
X169935000Y-105577064D02*
X169935000Y-105122936D01*
X168465000Y-105577064D02*
X168465000Y-105122936D01*
%TO.C,C14*%
X111395000Y-67953752D02*
X111395000Y-67431248D01*
X112865000Y-67953752D02*
X112865000Y-67431248D01*
%TD*%
M02*
