%TF.GenerationSoftware,KiCad,Pcbnew,6.0.11-2627ca5db0~126~ubuntu22.04.1*%
%TF.CreationDate,2023-03-08T14:45:44-05:00*%
%TF.ProjectId,webasto-mainboard,77656261-7374-46f2-9d6d-61696e626f61,2.0*%
%TF.SameCoordinates,Original*%
%TF.FileFunction,Soldermask,Top*%
%TF.FilePolarity,Negative*%
%FSLAX46Y46*%
G04 Gerber Fmt 4.6, Leading zero omitted, Abs format (unit mm)*
G04 Created by KiCad (PCBNEW 6.0.11-2627ca5db0~126~ubuntu22.04.1) date 2023-03-08 14:45:44*
%MOMM*%
%LPD*%
G01*
G04 APERTURE LIST*
G04 Aperture macros list*
%AMRoundRect*
0 Rectangle with rounded corners*
0 $1 Rounding radius*
0 $2 $3 $4 $5 $6 $7 $8 $9 X,Y pos of 4 corners*
0 Add a 4 corners polygon primitive as box body*
4,1,4,$2,$3,$4,$5,$6,$7,$8,$9,$2,$3,0*
0 Add four circle primitives for the rounded corners*
1,1,$1+$1,$2,$3*
1,1,$1+$1,$4,$5*
1,1,$1+$1,$6,$7*
1,1,$1+$1,$8,$9*
0 Add four rect primitives between the rounded corners*
20,1,$1+$1,$2,$3,$4,$5,0*
20,1,$1+$1,$4,$5,$6,$7,0*
20,1,$1+$1,$6,$7,$8,$9,0*
20,1,$1+$1,$8,$9,$2,$3,0*%
%AMRotRect*
0 Rectangle, with rotation*
0 The origin of the aperture is its center*
0 $1 length*
0 $2 width*
0 $3 Rotation angle, in degrees counterclockwise*
0 Add horizontal line*
21,1,$1,$2,0,0,$3*%
G04 Aperture macros list end*
%ADD10RoundRect,0.250000X-0.350000X-0.450000X0.350000X-0.450000X0.350000X0.450000X-0.350000X0.450000X0*%
%ADD11RoundRect,0.250000X0.450000X-0.350000X0.450000X0.350000X-0.450000X0.350000X-0.450000X-0.350000X0*%
%ADD12RoundRect,0.250000X-0.450000X0.350000X-0.450000X-0.350000X0.450000X-0.350000X0.450000X0.350000X0*%
%ADD13RoundRect,0.150000X-0.150000X0.587500X-0.150000X-0.587500X0.150000X-0.587500X0.150000X0.587500X0*%
%ADD14RoundRect,0.150000X0.150000X-0.650000X0.150000X0.650000X-0.150000X0.650000X-0.150000X-0.650000X0*%
%ADD15RoundRect,0.250000X-0.337500X-0.475000X0.337500X-0.475000X0.337500X0.475000X-0.337500X0.475000X0*%
%ADD16RoundRect,0.250000X-1.975000X1.350000X-1.975000X-1.350000X1.975000X-1.350000X1.975000X1.350000X0*%
%ADD17RoundRect,0.250000X-0.475000X0.337500X-0.475000X-0.337500X0.475000X-0.337500X0.475000X0.337500X0*%
%ADD18C,3.000000*%
%ADD19RoundRect,0.150000X0.150000X-0.825000X0.150000X0.825000X-0.150000X0.825000X-0.150000X-0.825000X0*%
%ADD20RoundRect,0.250000X0.450000X-0.325000X0.450000X0.325000X-0.450000X0.325000X-0.450000X-0.325000X0*%
%ADD21R,2.000000X1.905000*%
%ADD22O,2.000000X1.905000*%
%ADD23RoundRect,0.125000X0.537500X0.125000X-0.537500X0.125000X-0.537500X-0.125000X0.537500X-0.125000X0*%
%ADD24RoundRect,0.249999X0.450001X1.425001X-0.450001X1.425001X-0.450001X-1.425001X0.450001X-1.425001X0*%
%ADD25O,1.800000X1.800000*%
%ADD26O,1.500000X1.500000*%
%ADD27O,1.700000X1.700000*%
%ADD28R,1.700000X3.500000*%
%ADD29R,1.700000X1.700000*%
%ADD30R,3.500000X1.700000*%
%ADD31RoundRect,0.250000X1.100000X-0.412500X1.100000X0.412500X-1.100000X0.412500X-1.100000X-0.412500X0*%
%ADD32R,1.800000X2.000000*%
%ADD33R,2.200000X1.200000*%
%ADD34R,6.400000X5.800000*%
%ADD35R,1.200000X2.200000*%
%ADD36R,5.800000X6.400000*%
%ADD37RotRect,2.000000X2.000000X135.000000*%
%ADD38C,2.000000*%
%ADD39RoundRect,0.250000X-0.537500X-0.425000X0.537500X-0.425000X0.537500X0.425000X-0.537500X0.425000X0*%
%ADD40RoundRect,0.150000X0.150000X-0.587500X0.150000X0.587500X-0.150000X0.587500X-0.150000X-0.587500X0*%
%ADD41RoundRect,0.150000X0.825000X0.150000X-0.825000X0.150000X-0.825000X-0.150000X0.825000X-0.150000X0*%
%ADD42RoundRect,0.250000X-0.400000X-1.450000X0.400000X-1.450000X0.400000X1.450000X-0.400000X1.450000X0*%
%ADD43R,1.879600X1.879600*%
%ADD44C,1.879600*%
G04 APERTURE END LIST*
D10*
%TO.C,R21*%
X125580000Y-71900000D03*
X127580000Y-71900000D03*
%TD*%
D11*
%TO.C,R20*%
X122480000Y-73570000D03*
X122480000Y-71570000D03*
%TD*%
D12*
%TO.C,R19*%
X118410000Y-73530000D03*
X118410000Y-71530000D03*
%TD*%
D13*
%TO.C,Q21*%
X128670000Y-66492500D03*
X126770000Y-66492500D03*
X127720000Y-68367500D03*
%TD*%
%TO.C,Q20*%
X123430000Y-66492500D03*
X121530000Y-66492500D03*
X122480000Y-68367500D03*
%TD*%
%TO.C,Q19*%
X118400000Y-66475000D03*
X116500000Y-66475000D03*
X117450000Y-68350000D03*
%TD*%
D14*
%TO.C,U1*%
X143891000Y-85134000D03*
X145161000Y-85134000D03*
X146431000Y-85134000D03*
X147701000Y-85134000D03*
X147701000Y-77934000D03*
X146431000Y-77934000D03*
X145161000Y-77934000D03*
X143891000Y-77934000D03*
%TD*%
D10*
%TO.C,R11*%
X105750000Y-78000000D03*
X107750000Y-78000000D03*
%TD*%
D15*
%TO.C,C8*%
X122762500Y-123240000D03*
X124837500Y-123240000D03*
%TD*%
D16*
%TO.C,R25*%
X130925000Y-96225000D03*
X130925000Y-101425000D03*
%TD*%
D17*
%TO.C,C11*%
X124600000Y-106725000D03*
X124600000Y-108800000D03*
%TD*%
D18*
%TO.C,JX3*%
X155037200Y-56841000D03*
X150795400Y-61082800D03*
%TD*%
D19*
%TO.C,U9*%
X155225000Y-121575000D03*
X156495000Y-121575000D03*
X157765000Y-121575000D03*
X159035000Y-121575000D03*
X160305000Y-121575000D03*
X161575000Y-121575000D03*
X162845000Y-121575000D03*
X162845000Y-116625000D03*
X161575000Y-116625000D03*
X160305000Y-116625000D03*
X159035000Y-116625000D03*
X157765000Y-116625000D03*
X156495000Y-116625000D03*
X155225000Y-116625000D03*
%TD*%
D20*
%TO.C,D3*%
X160550000Y-127250000D03*
X160550000Y-125200000D03*
%TD*%
D21*
%TO.C,U6*%
X127975000Y-118960000D03*
D22*
X127975000Y-121500000D03*
X127975000Y-124040000D03*
%TD*%
D23*
%TO.C,U7*%
X140460000Y-75760000D03*
X140460000Y-75110000D03*
X140460000Y-74460000D03*
X140460000Y-73810000D03*
X138185000Y-73810000D03*
X138185000Y-74460000D03*
X138185000Y-75110000D03*
X138185000Y-75760000D03*
%TD*%
D24*
%TO.C,R27*%
X148950000Y-73240000D03*
X142850000Y-73240000D03*
%TD*%
D25*
%TO.C,U2*%
X184300000Y-103425000D03*
D26*
X181270000Y-103125000D03*
X181270000Y-98275000D03*
D25*
X184300000Y-97975000D03*
D27*
X184430000Y-91810000D03*
D28*
X184430000Y-90910000D03*
D27*
X181890000Y-91810000D03*
D28*
X181890000Y-90910000D03*
D29*
X179350000Y-91810000D03*
D28*
X179350000Y-90910000D03*
X176810000Y-90910000D03*
D27*
X176810000Y-91810000D03*
X174270000Y-91810000D03*
D28*
X174270000Y-90910000D03*
X171730000Y-90910000D03*
D27*
X171730000Y-91810000D03*
D28*
X169190000Y-90910000D03*
D27*
X169190000Y-91810000D03*
D28*
X166650000Y-90910000D03*
D29*
X166650000Y-91810000D03*
D28*
X164110000Y-90910000D03*
D27*
X164110000Y-91810000D03*
D28*
X161570000Y-90910000D03*
D27*
X161570000Y-91810000D03*
X159030000Y-91810000D03*
D28*
X159030000Y-90910000D03*
D27*
X156490000Y-91810000D03*
D28*
X156490000Y-90910000D03*
X153950000Y-90910000D03*
D29*
X153950000Y-91810000D03*
D28*
X151410000Y-90910000D03*
D27*
X151410000Y-91810000D03*
D28*
X148870000Y-90910000D03*
D27*
X148870000Y-91810000D03*
D28*
X146330000Y-90910000D03*
D27*
X146330000Y-91810000D03*
D28*
X143790000Y-90910000D03*
D27*
X143790000Y-91810000D03*
D28*
X141250000Y-90910000D03*
D29*
X141250000Y-91810000D03*
D27*
X138710000Y-91810000D03*
D28*
X138710000Y-90910000D03*
D27*
X136170000Y-91810000D03*
D28*
X136170000Y-90910000D03*
D27*
X136170000Y-109590000D03*
D28*
X136170000Y-110490000D03*
X138710000Y-110490000D03*
D27*
X138710000Y-109590000D03*
D28*
X141250000Y-110490000D03*
D29*
X141250000Y-109590000D03*
D27*
X143790000Y-109590000D03*
D28*
X143790000Y-110490000D03*
X146330000Y-110490000D03*
D27*
X146330000Y-109590000D03*
X148870000Y-109590000D03*
D28*
X148870000Y-110490000D03*
D27*
X151410000Y-109590000D03*
D28*
X151410000Y-110490000D03*
X153950000Y-110490000D03*
D29*
X153950000Y-109590000D03*
D28*
X156490000Y-110490000D03*
D27*
X156490000Y-109590000D03*
X159030000Y-109590000D03*
D28*
X159030000Y-110490000D03*
D27*
X161570000Y-109590000D03*
D28*
X161570000Y-110490000D03*
X164110000Y-110490000D03*
D27*
X164110000Y-109590000D03*
D29*
X166650000Y-109590000D03*
D28*
X166650000Y-110490000D03*
X169190000Y-110490000D03*
D27*
X169190000Y-109590000D03*
D28*
X171730000Y-110490000D03*
D27*
X171730000Y-109590000D03*
D28*
X174270000Y-110490000D03*
D27*
X174270000Y-109590000D03*
D28*
X176810000Y-110490000D03*
D27*
X176810000Y-109590000D03*
D28*
X179350000Y-110490000D03*
D29*
X179350000Y-109590000D03*
D27*
X181890000Y-109590000D03*
D28*
X181890000Y-110490000D03*
D27*
X184430000Y-109590000D03*
D28*
X184430000Y-110490000D03*
D27*
X136400000Y-98160000D03*
D30*
X135500000Y-98160000D03*
X135500000Y-100700000D03*
D29*
X136400000Y-100700000D03*
D30*
X135500000Y-103240000D03*
D27*
X136400000Y-103240000D03*
%TD*%
D29*
%TO.C,J2*%
X108525000Y-99550000D03*
D27*
X111065000Y-99550000D03*
X113605000Y-99550000D03*
X116145000Y-99550000D03*
%TD*%
D31*
%TO.C,C6*%
X105760000Y-115995000D03*
X105760000Y-112870000D03*
%TD*%
D32*
%TO.C,X1*%
X171505000Y-127375000D03*
X166425000Y-127375000D03*
X166425000Y-123375000D03*
X171505000Y-123375000D03*
%TD*%
D33*
%TO.C,Q10*%
X165225000Y-76245000D03*
D34*
X171525000Y-78525000D03*
D33*
X165225000Y-80805000D03*
%TD*%
D11*
%TO.C,R22*%
X158930000Y-80130000D03*
X158930000Y-78130000D03*
%TD*%
D35*
%TO.C,Q5*%
X174405000Y-73465000D03*
D36*
X176685000Y-67165000D03*
D35*
X178965000Y-73465000D03*
%TD*%
D37*
%TO.C,BZ1*%
X131900000Y-81600000D03*
D38*
X128364466Y-78064466D03*
%TD*%
D39*
%TO.C,C7*%
X119715000Y-125880000D03*
X122590000Y-125880000D03*
%TD*%
D20*
%TO.C,D1*%
X155650000Y-127300000D03*
X155650000Y-125250000D03*
%TD*%
D13*
%TO.C,Q1*%
X184050000Y-114512500D03*
X182150000Y-114512500D03*
X183100000Y-116387500D03*
%TD*%
D20*
%TO.C,D2*%
X158000000Y-127300000D03*
X158000000Y-125250000D03*
%TD*%
D35*
%TO.C,Q6*%
X176445000Y-84875000D03*
D36*
X178725000Y-78575000D03*
D35*
X181005000Y-84875000D03*
%TD*%
D18*
%TO.C,JX4*%
X166275000Y-55665200D03*
X166351200Y-60034000D03*
%TD*%
D40*
%TO.C,Q9*%
X160930000Y-78115000D03*
X162830000Y-78115000D03*
X161880000Y-76240000D03*
%TD*%
D35*
%TO.C,Q14*%
X159695000Y-73475000D03*
D36*
X161975000Y-67175000D03*
D35*
X164255000Y-73475000D03*
%TD*%
D41*
%TO.C,U10*%
X181275000Y-122790000D03*
X181275000Y-121520000D03*
X181275000Y-120250000D03*
X181275000Y-118980000D03*
X176325000Y-118980000D03*
X176325000Y-120250000D03*
X176325000Y-121520000D03*
X176325000Y-122790000D03*
%TD*%
D33*
%TO.C,Q13*%
X149475000Y-69605000D03*
D34*
X143175000Y-67325000D03*
D33*
X149475000Y-65045000D03*
%TD*%
D35*
%TO.C,Q12*%
X156945000Y-65105000D03*
D36*
X154665000Y-71405000D03*
D35*
X152385000Y-65105000D03*
%TD*%
D42*
%TO.C,F1*%
X131935000Y-66460000D03*
X136385000Y-66460000D03*
%TD*%
D18*
%TO.C,JX2*%
X135346800Y-56125000D03*
X129352400Y-56125000D03*
%TD*%
D29*
%TO.C,U5*%
X117382600Y-122467700D03*
D27*
X114842600Y-122467700D03*
X112302600Y-122467700D03*
X109762600Y-122467700D03*
%TD*%
D18*
%TO.C,JX1*%
X113807200Y-56119400D03*
X109819400Y-56119400D03*
X105802400Y-56131600D03*
X111826000Y-59624600D03*
X107812800Y-59624600D03*
X103825000Y-59650000D03*
%TD*%
D35*
%TO.C,Q7*%
X107720000Y-75450000D03*
D36*
X110000000Y-69150000D03*
D35*
X112280000Y-75450000D03*
%TD*%
D43*
%TO.C,J1*%
X124820000Y-89130000D03*
D44*
X124820000Y-91670000D03*
X124820000Y-94210000D03*
X124820000Y-96750000D03*
X124820000Y-99290000D03*
X124820000Y-101830000D03*
%TD*%
D17*
%TO.C,C12*%
X122200000Y-106725000D03*
X122200000Y-108800000D03*
%TD*%
D35*
%TO.C,Q11*%
X167070000Y-73450000D03*
D36*
X169350000Y-67150000D03*
D35*
X171630000Y-73450000D03*
%TD*%
D18*
%TO.C,JX5*%
X174275000Y-55640200D03*
X174351200Y-60009000D03*
%TD*%
D10*
%TO.C,R35*%
X170030000Y-120600000D03*
X172030000Y-120600000D03*
%TD*%
M02*
