%TF.GenerationSoftware,KiCad,Pcbnew,(6.0.10)*%
%TF.CreationDate,2023-01-31T02:24:45-05:00*%
%TF.ProjectId,webasto-mainboard,77656261-7374-46f2-9d6d-61696e626f61,1.0*%
%TF.SameCoordinates,Original*%
%TF.FileFunction,Legend,Bot*%
%TF.FilePolarity,Positive*%
%FSLAX46Y46*%
G04 Gerber Fmt 4.6, Leading zero omitted, Abs format (unit mm)*
G04 Created by KiCad (PCBNEW (6.0.10)) date 2023-01-31 02:24:45*
%MOMM*%
%LPD*%
G01*
G04 APERTURE LIST*
%ADD10C,0.150000*%
%ADD11C,0.120000*%
G04 APERTURE END LIST*
D10*
%TO.C,D13*%
X157342380Y-59287714D02*
X156342380Y-59287714D01*
X156342380Y-59525809D01*
X156390000Y-59668666D01*
X156485238Y-59763904D01*
X156580476Y-59811523D01*
X156770952Y-59859142D01*
X156913809Y-59859142D01*
X157104285Y-59811523D01*
X157199523Y-59763904D01*
X157294761Y-59668666D01*
X157342380Y-59525809D01*
X157342380Y-59287714D01*
X157342380Y-60811523D02*
X157342380Y-60240095D01*
X157342380Y-60525809D02*
X156342380Y-60525809D01*
X156485238Y-60430571D01*
X156580476Y-60335333D01*
X156628095Y-60240095D01*
X156342380Y-61144857D02*
X156342380Y-61763904D01*
X156723333Y-61430571D01*
X156723333Y-61573428D01*
X156770952Y-61668666D01*
X156818571Y-61716285D01*
X156913809Y-61763904D01*
X157151904Y-61763904D01*
X157247142Y-61716285D01*
X157294761Y-61668666D01*
X157342380Y-61573428D01*
X157342380Y-61287714D01*
X157294761Y-61192476D01*
X157247142Y-61144857D01*
%TO.C,D12*%
X149042285Y-56840380D02*
X149042285Y-55840380D01*
X148804190Y-55840380D01*
X148661333Y-55888000D01*
X148566095Y-55983238D01*
X148518476Y-56078476D01*
X148470857Y-56268952D01*
X148470857Y-56411809D01*
X148518476Y-56602285D01*
X148566095Y-56697523D01*
X148661333Y-56792761D01*
X148804190Y-56840380D01*
X149042285Y-56840380D01*
X147518476Y-56840380D02*
X148089904Y-56840380D01*
X147804190Y-56840380D02*
X147804190Y-55840380D01*
X147899428Y-55983238D01*
X147994666Y-56078476D01*
X148089904Y-56126095D01*
X147137523Y-55935619D02*
X147089904Y-55888000D01*
X146994666Y-55840380D01*
X146756571Y-55840380D01*
X146661333Y-55888000D01*
X146613714Y-55935619D01*
X146566095Y-56030857D01*
X146566095Y-56126095D01*
X146613714Y-56268952D01*
X147185142Y-56840380D01*
X146566095Y-56840380D01*
%TO.C,D6*%
X182906095Y-78512380D02*
X182906095Y-77512380D01*
X182668000Y-77512380D01*
X182525142Y-77560000D01*
X182429904Y-77655238D01*
X182382285Y-77750476D01*
X182334666Y-77940952D01*
X182334666Y-78083809D01*
X182382285Y-78274285D01*
X182429904Y-78369523D01*
X182525142Y-78464761D01*
X182668000Y-78512380D01*
X182906095Y-78512380D01*
X181477523Y-77512380D02*
X181668000Y-77512380D01*
X181763238Y-77560000D01*
X181810857Y-77607619D01*
X181906095Y-77750476D01*
X181953714Y-77940952D01*
X181953714Y-78321904D01*
X181906095Y-78417142D01*
X181858476Y-78464761D01*
X181763238Y-78512380D01*
X181572761Y-78512380D01*
X181477523Y-78464761D01*
X181429904Y-78417142D01*
X181382285Y-78321904D01*
X181382285Y-78083809D01*
X181429904Y-77988571D01*
X181477523Y-77940952D01*
X181572761Y-77893333D01*
X181763238Y-77893333D01*
X181858476Y-77940952D01*
X181906095Y-77988571D01*
X181953714Y-78083809D01*
%TO.C,D5*%
X116702380Y-63319904D02*
X115702380Y-63319904D01*
X115702380Y-63558000D01*
X115750000Y-63700857D01*
X115845238Y-63796095D01*
X115940476Y-63843714D01*
X116130952Y-63891333D01*
X116273809Y-63891333D01*
X116464285Y-63843714D01*
X116559523Y-63796095D01*
X116654761Y-63700857D01*
X116702380Y-63558000D01*
X116702380Y-63319904D01*
X115702380Y-64796095D02*
X115702380Y-64319904D01*
X116178571Y-64272285D01*
X116130952Y-64319904D01*
X116083333Y-64415142D01*
X116083333Y-64653238D01*
X116130952Y-64748476D01*
X116178571Y-64796095D01*
X116273809Y-64843714D01*
X116511904Y-64843714D01*
X116607142Y-64796095D01*
X116654761Y-64748476D01*
X116702380Y-64653238D01*
X116702380Y-64415142D01*
X116654761Y-64319904D01*
X116607142Y-64272285D01*
%TO.C,D4*%
X113654380Y-71193904D02*
X112654380Y-71193904D01*
X112654380Y-71432000D01*
X112702000Y-71574857D01*
X112797238Y-71670095D01*
X112892476Y-71717714D01*
X113082952Y-71765333D01*
X113225809Y-71765333D01*
X113416285Y-71717714D01*
X113511523Y-71670095D01*
X113606761Y-71574857D01*
X113654380Y-71432000D01*
X113654380Y-71193904D01*
X112987714Y-72622476D02*
X113654380Y-72622476D01*
X112606761Y-72384380D02*
X113321047Y-72146285D01*
X113321047Y-72765333D01*
%TO.C,D3*%
X183160095Y-59970380D02*
X183160095Y-58970380D01*
X182922000Y-58970380D01*
X182779142Y-59018000D01*
X182683904Y-59113238D01*
X182636285Y-59208476D01*
X182588666Y-59398952D01*
X182588666Y-59541809D01*
X182636285Y-59732285D01*
X182683904Y-59827523D01*
X182779142Y-59922761D01*
X182922000Y-59970380D01*
X183160095Y-59970380D01*
X182255333Y-58970380D02*
X181636285Y-58970380D01*
X181969619Y-59351333D01*
X181826761Y-59351333D01*
X181731523Y-59398952D01*
X181683904Y-59446571D01*
X181636285Y-59541809D01*
X181636285Y-59779904D01*
X181683904Y-59875142D01*
X181731523Y-59922761D01*
X181826761Y-59970380D01*
X182112476Y-59970380D01*
X182207714Y-59922761D01*
X182255333Y-59875142D01*
%TO.C,R34*%
X168152380Y-99457142D02*
X167676190Y-99123809D01*
X168152380Y-98885714D02*
X167152380Y-98885714D01*
X167152380Y-99266666D01*
X167200000Y-99361904D01*
X167247619Y-99409523D01*
X167342857Y-99457142D01*
X167485714Y-99457142D01*
X167580952Y-99409523D01*
X167628571Y-99361904D01*
X167676190Y-99266666D01*
X167676190Y-98885714D01*
X167152380Y-99790476D02*
X167152380Y-100409523D01*
X167533333Y-100076190D01*
X167533333Y-100219047D01*
X167580952Y-100314285D01*
X167628571Y-100361904D01*
X167723809Y-100409523D01*
X167961904Y-100409523D01*
X168057142Y-100361904D01*
X168104761Y-100314285D01*
X168152380Y-100219047D01*
X168152380Y-99933333D01*
X168104761Y-99838095D01*
X168057142Y-99790476D01*
X167485714Y-101266666D02*
X168152380Y-101266666D01*
X167104761Y-101028571D02*
X167819047Y-100790476D01*
X167819047Y-101409523D01*
%TO.C,R6*%
X107452380Y-80333333D02*
X106976190Y-80000000D01*
X107452380Y-79761904D02*
X106452380Y-79761904D01*
X106452380Y-80142857D01*
X106500000Y-80238095D01*
X106547619Y-80285714D01*
X106642857Y-80333333D01*
X106785714Y-80333333D01*
X106880952Y-80285714D01*
X106928571Y-80238095D01*
X106976190Y-80142857D01*
X106976190Y-79761904D01*
X106452380Y-81190476D02*
X106452380Y-81000000D01*
X106500000Y-80904761D01*
X106547619Y-80857142D01*
X106690476Y-80761904D01*
X106880952Y-80714285D01*
X107261904Y-80714285D01*
X107357142Y-80761904D01*
X107404761Y-80809523D01*
X107452380Y-80904761D01*
X107452380Y-81095238D01*
X107404761Y-81190476D01*
X107357142Y-81238095D01*
X107261904Y-81285714D01*
X107023809Y-81285714D01*
X106928571Y-81238095D01*
X106880952Y-81190476D01*
X106833333Y-81095238D01*
X106833333Y-80904761D01*
X106880952Y-80809523D01*
X106928571Y-80761904D01*
X107023809Y-80714285D01*
%TO.C,D7*%
X121238095Y-105552380D02*
X121238095Y-104552380D01*
X121000000Y-104552380D01*
X120857142Y-104600000D01*
X120761904Y-104695238D01*
X120714285Y-104790476D01*
X120666666Y-104980952D01*
X120666666Y-105123809D01*
X120714285Y-105314285D01*
X120761904Y-105409523D01*
X120857142Y-105504761D01*
X121000000Y-105552380D01*
X121238095Y-105552380D01*
X120333333Y-104552380D02*
X119666666Y-104552380D01*
X120095238Y-105552380D01*
%TO.C,D9*%
X119938095Y-64927380D02*
X119938095Y-63927380D01*
X119700000Y-63927380D01*
X119557142Y-63975000D01*
X119461904Y-64070238D01*
X119414285Y-64165476D01*
X119366666Y-64355952D01*
X119366666Y-64498809D01*
X119414285Y-64689285D01*
X119461904Y-64784523D01*
X119557142Y-64879761D01*
X119700000Y-64927380D01*
X119938095Y-64927380D01*
X118890476Y-64927380D02*
X118700000Y-64927380D01*
X118604761Y-64879761D01*
X118557142Y-64832142D01*
X118461904Y-64689285D01*
X118414285Y-64498809D01*
X118414285Y-64117857D01*
X118461904Y-64022619D01*
X118509523Y-63975000D01*
X118604761Y-63927380D01*
X118795238Y-63927380D01*
X118890476Y-63975000D01*
X118938095Y-64022619D01*
X118985714Y-64117857D01*
X118985714Y-64355952D01*
X118938095Y-64451190D01*
X118890476Y-64498809D01*
X118795238Y-64546428D01*
X118604761Y-64546428D01*
X118509523Y-64498809D01*
X118461904Y-64451190D01*
X118414285Y-64355952D01*
%TO.C,R3*%
X151002380Y-106033333D02*
X150526190Y-105700000D01*
X151002380Y-105461904D02*
X150002380Y-105461904D01*
X150002380Y-105842857D01*
X150050000Y-105938095D01*
X150097619Y-105985714D01*
X150192857Y-106033333D01*
X150335714Y-106033333D01*
X150430952Y-105985714D01*
X150478571Y-105938095D01*
X150526190Y-105842857D01*
X150526190Y-105461904D01*
X150002380Y-106366666D02*
X150002380Y-106985714D01*
X150383333Y-106652380D01*
X150383333Y-106795238D01*
X150430952Y-106890476D01*
X150478571Y-106938095D01*
X150573809Y-106985714D01*
X150811904Y-106985714D01*
X150907142Y-106938095D01*
X150954761Y-106890476D01*
X151002380Y-106795238D01*
X151002380Y-106509523D01*
X150954761Y-106414285D01*
X150907142Y-106366666D01*
%TO.C,R35*%
X130352380Y-112257142D02*
X129876190Y-111923809D01*
X130352380Y-111685714D02*
X129352380Y-111685714D01*
X129352380Y-112066666D01*
X129400000Y-112161904D01*
X129447619Y-112209523D01*
X129542857Y-112257142D01*
X129685714Y-112257142D01*
X129780952Y-112209523D01*
X129828571Y-112161904D01*
X129876190Y-112066666D01*
X129876190Y-111685714D01*
X129352380Y-112590476D02*
X129352380Y-113209523D01*
X129733333Y-112876190D01*
X129733333Y-113019047D01*
X129780952Y-113114285D01*
X129828571Y-113161904D01*
X129923809Y-113209523D01*
X130161904Y-113209523D01*
X130257142Y-113161904D01*
X130304761Y-113114285D01*
X130352380Y-113019047D01*
X130352380Y-112733333D01*
X130304761Y-112638095D01*
X130257142Y-112590476D01*
X129352380Y-114114285D02*
X129352380Y-113638095D01*
X129828571Y-113590476D01*
X129780952Y-113638095D01*
X129733333Y-113733333D01*
X129733333Y-113971428D01*
X129780952Y-114066666D01*
X129828571Y-114114285D01*
X129923809Y-114161904D01*
X130161904Y-114161904D01*
X130257142Y-114114285D01*
X130304761Y-114066666D01*
X130352380Y-113971428D01*
X130352380Y-113733333D01*
X130304761Y-113638095D01*
X130257142Y-113590476D01*
%TO.C,R13*%
X177052380Y-55857142D02*
X176576190Y-55523809D01*
X177052380Y-55285714D02*
X176052380Y-55285714D01*
X176052380Y-55666666D01*
X176100000Y-55761904D01*
X176147619Y-55809523D01*
X176242857Y-55857142D01*
X176385714Y-55857142D01*
X176480952Y-55809523D01*
X176528571Y-55761904D01*
X176576190Y-55666666D01*
X176576190Y-55285714D01*
X177052380Y-56809523D02*
X177052380Y-56238095D01*
X177052380Y-56523809D02*
X176052380Y-56523809D01*
X176195238Y-56428571D01*
X176290476Y-56333333D01*
X176338095Y-56238095D01*
X176052380Y-57142857D02*
X176052380Y-57761904D01*
X176433333Y-57428571D01*
X176433333Y-57571428D01*
X176480952Y-57666666D01*
X176528571Y-57714285D01*
X176623809Y-57761904D01*
X176861904Y-57761904D01*
X176957142Y-57714285D01*
X177004761Y-57666666D01*
X177052380Y-57571428D01*
X177052380Y-57285714D01*
X177004761Y-57190476D01*
X176957142Y-57142857D01*
%TO.C,R4*%
X147802380Y-95583333D02*
X147326190Y-95250000D01*
X147802380Y-95011904D02*
X146802380Y-95011904D01*
X146802380Y-95392857D01*
X146850000Y-95488095D01*
X146897619Y-95535714D01*
X146992857Y-95583333D01*
X147135714Y-95583333D01*
X147230952Y-95535714D01*
X147278571Y-95488095D01*
X147326190Y-95392857D01*
X147326190Y-95011904D01*
X147135714Y-96440476D02*
X147802380Y-96440476D01*
X146754761Y-96202380D02*
X147469047Y-95964285D01*
X147469047Y-96583333D01*
%TO.C,Q18*%
X158760254Y-95461868D02*
X158712635Y-95366630D01*
X158617396Y-95271392D01*
X158474539Y-95128535D01*
X158426920Y-95033297D01*
X158426920Y-94938058D01*
X158665015Y-94985677D02*
X158617396Y-94890439D01*
X158522158Y-94795201D01*
X158331682Y-94747582D01*
X157998349Y-94747582D01*
X157807873Y-94795201D01*
X157712635Y-94890439D01*
X157665015Y-94985677D01*
X157665015Y-95176154D01*
X157712635Y-95271392D01*
X157807873Y-95366630D01*
X157998349Y-95414249D01*
X158331682Y-95414249D01*
X158522158Y-95366630D01*
X158617396Y-95271392D01*
X158665015Y-95176154D01*
X158665015Y-94985677D01*
X158665015Y-96366630D02*
X158665015Y-95795201D01*
X158665015Y-96080916D02*
X157665015Y-96080916D01*
X157807873Y-95985677D01*
X157903111Y-95890439D01*
X157950730Y-95795201D01*
X158093587Y-96938058D02*
X158045968Y-96842820D01*
X157998349Y-96795201D01*
X157903111Y-96747582D01*
X157855492Y-96747582D01*
X157760254Y-96795201D01*
X157712635Y-96842820D01*
X157665015Y-96938058D01*
X157665015Y-97128535D01*
X157712635Y-97223773D01*
X157760254Y-97271392D01*
X157855492Y-97319011D01*
X157903111Y-97319011D01*
X157998349Y-97271392D01*
X158045968Y-97223773D01*
X158093587Y-97128535D01*
X158093587Y-96938058D01*
X158141206Y-96842820D01*
X158188825Y-96795201D01*
X158284063Y-96747582D01*
X158474539Y-96747582D01*
X158569777Y-96795201D01*
X158617396Y-96842820D01*
X158665015Y-96938058D01*
X158665015Y-97128535D01*
X158617396Y-97223773D01*
X158569777Y-97271392D01*
X158474539Y-97319011D01*
X158284063Y-97319011D01*
X158188825Y-97271392D01*
X158141206Y-97223773D01*
X158093587Y-97128535D01*
%TO.C,R17*%
X119720380Y-55473142D02*
X119244190Y-55139809D01*
X119720380Y-54901714D02*
X118720380Y-54901714D01*
X118720380Y-55282666D01*
X118768000Y-55377904D01*
X118815619Y-55425523D01*
X118910857Y-55473142D01*
X119053714Y-55473142D01*
X119148952Y-55425523D01*
X119196571Y-55377904D01*
X119244190Y-55282666D01*
X119244190Y-54901714D01*
X119720380Y-56425523D02*
X119720380Y-55854095D01*
X119720380Y-56139809D02*
X118720380Y-56139809D01*
X118863238Y-56044571D01*
X118958476Y-55949333D01*
X119006095Y-55854095D01*
X118720380Y-56758857D02*
X118720380Y-57425523D01*
X119720380Y-56996952D01*
%TO.C,Q4*%
X110947619Y-76592261D02*
X110900000Y-76497023D01*
X110804761Y-76401785D01*
X110661904Y-76258928D01*
X110614285Y-76163690D01*
X110614285Y-76068452D01*
X110852380Y-76116071D02*
X110804761Y-76020833D01*
X110709523Y-75925595D01*
X110519047Y-75877976D01*
X110185714Y-75877976D01*
X109995238Y-75925595D01*
X109900000Y-76020833D01*
X109852380Y-76116071D01*
X109852380Y-76306547D01*
X109900000Y-76401785D01*
X109995238Y-76497023D01*
X110185714Y-76544642D01*
X110519047Y-76544642D01*
X110709523Y-76497023D01*
X110804761Y-76401785D01*
X110852380Y-76306547D01*
X110852380Y-76116071D01*
X110185714Y-77401785D02*
X110852380Y-77401785D01*
X109804761Y-77163690D02*
X110519047Y-76925595D01*
X110519047Y-77544642D01*
%TO.C,R16*%
X134902380Y-105957142D02*
X134426190Y-105623809D01*
X134902380Y-105385714D02*
X133902380Y-105385714D01*
X133902380Y-105766666D01*
X133950000Y-105861904D01*
X133997619Y-105909523D01*
X134092857Y-105957142D01*
X134235714Y-105957142D01*
X134330952Y-105909523D01*
X134378571Y-105861904D01*
X134426190Y-105766666D01*
X134426190Y-105385714D01*
X134902380Y-106909523D02*
X134902380Y-106338095D01*
X134902380Y-106623809D02*
X133902380Y-106623809D01*
X134045238Y-106528571D01*
X134140476Y-106433333D01*
X134188095Y-106338095D01*
X133902380Y-107766666D02*
X133902380Y-107576190D01*
X133950000Y-107480952D01*
X133997619Y-107433333D01*
X134140476Y-107338095D01*
X134330952Y-107290476D01*
X134711904Y-107290476D01*
X134807142Y-107338095D01*
X134854761Y-107385714D01*
X134902380Y-107480952D01*
X134902380Y-107671428D01*
X134854761Y-107766666D01*
X134807142Y-107814285D01*
X134711904Y-107861904D01*
X134473809Y-107861904D01*
X134378571Y-107814285D01*
X134330952Y-107766666D01*
X134283333Y-107671428D01*
X134283333Y-107480952D01*
X134330952Y-107385714D01*
X134378571Y-107338095D01*
X134473809Y-107290476D01*
%TO.C,R28*%
X141642857Y-116402380D02*
X141976190Y-115926190D01*
X142214285Y-116402380D02*
X142214285Y-115402380D01*
X141833333Y-115402380D01*
X141738095Y-115450000D01*
X141690476Y-115497619D01*
X141642857Y-115592857D01*
X141642857Y-115735714D01*
X141690476Y-115830952D01*
X141738095Y-115878571D01*
X141833333Y-115926190D01*
X142214285Y-115926190D01*
X141261904Y-115497619D02*
X141214285Y-115450000D01*
X141119047Y-115402380D01*
X140880952Y-115402380D01*
X140785714Y-115450000D01*
X140738095Y-115497619D01*
X140690476Y-115592857D01*
X140690476Y-115688095D01*
X140738095Y-115830952D01*
X141309523Y-116402380D01*
X140690476Y-116402380D01*
X140119047Y-115830952D02*
X140214285Y-115783333D01*
X140261904Y-115735714D01*
X140309523Y-115640476D01*
X140309523Y-115592857D01*
X140261904Y-115497619D01*
X140214285Y-115450000D01*
X140119047Y-115402380D01*
X139928571Y-115402380D01*
X139833333Y-115450000D01*
X139785714Y-115497619D01*
X139738095Y-115592857D01*
X139738095Y-115640476D01*
X139785714Y-115735714D01*
X139833333Y-115783333D01*
X139928571Y-115830952D01*
X140119047Y-115830952D01*
X140214285Y-115878571D01*
X140261904Y-115926190D01*
X140309523Y-116021428D01*
X140309523Y-116211904D01*
X140261904Y-116307142D01*
X140214285Y-116354761D01*
X140119047Y-116402380D01*
X139928571Y-116402380D01*
X139833333Y-116354761D01*
X139785714Y-116307142D01*
X139738095Y-116211904D01*
X139738095Y-116021428D01*
X139785714Y-115926190D01*
X139833333Y-115878571D01*
X139928571Y-115830952D01*
%TO.C,Q3*%
X174547619Y-85154761D02*
X174500000Y-85059523D01*
X174404761Y-84964285D01*
X174261904Y-84821428D01*
X174214285Y-84726190D01*
X174214285Y-84630952D01*
X174452380Y-84678571D02*
X174404761Y-84583333D01*
X174309523Y-84488095D01*
X174119047Y-84440476D01*
X173785714Y-84440476D01*
X173595238Y-84488095D01*
X173500000Y-84583333D01*
X173452380Y-84678571D01*
X173452380Y-84869047D01*
X173500000Y-84964285D01*
X173595238Y-85059523D01*
X173785714Y-85107142D01*
X174119047Y-85107142D01*
X174309523Y-85059523D01*
X174404761Y-84964285D01*
X174452380Y-84869047D01*
X174452380Y-84678571D01*
X173452380Y-85440476D02*
X173452380Y-86059523D01*
X173833333Y-85726190D01*
X173833333Y-85869047D01*
X173880952Y-85964285D01*
X173928571Y-86011904D01*
X174023809Y-86059523D01*
X174261904Y-86059523D01*
X174357142Y-86011904D01*
X174404761Y-85964285D01*
X174452380Y-85869047D01*
X174452380Y-85583333D01*
X174404761Y-85488095D01*
X174357142Y-85440476D01*
%TO.C,C5*%
X115736666Y-60301142D02*
X115784285Y-60348761D01*
X115927142Y-60396380D01*
X116022380Y-60396380D01*
X116165238Y-60348761D01*
X116260476Y-60253523D01*
X116308095Y-60158285D01*
X116355714Y-59967809D01*
X116355714Y-59824952D01*
X116308095Y-59634476D01*
X116260476Y-59539238D01*
X116165238Y-59444000D01*
X116022380Y-59396380D01*
X115927142Y-59396380D01*
X115784285Y-59444000D01*
X115736666Y-59491619D01*
X114831904Y-59396380D02*
X115308095Y-59396380D01*
X115355714Y-59872571D01*
X115308095Y-59824952D01*
X115212857Y-59777333D01*
X114974761Y-59777333D01*
X114879523Y-59824952D01*
X114831904Y-59872571D01*
X114784285Y-59967809D01*
X114784285Y-60205904D01*
X114831904Y-60301142D01*
X114879523Y-60348761D01*
X114974761Y-60396380D01*
X115212857Y-60396380D01*
X115308095Y-60348761D01*
X115355714Y-60301142D01*
%TO.C,R7*%
X116352380Y-89083333D02*
X115876190Y-88750000D01*
X116352380Y-88511904D02*
X115352380Y-88511904D01*
X115352380Y-88892857D01*
X115400000Y-88988095D01*
X115447619Y-89035714D01*
X115542857Y-89083333D01*
X115685714Y-89083333D01*
X115780952Y-89035714D01*
X115828571Y-88988095D01*
X115876190Y-88892857D01*
X115876190Y-88511904D01*
X115352380Y-89416666D02*
X115352380Y-90083333D01*
X116352380Y-89654761D01*
%TO.C,R29*%
X167402380Y-78057142D02*
X166926190Y-77723809D01*
X167402380Y-77485714D02*
X166402380Y-77485714D01*
X166402380Y-77866666D01*
X166450000Y-77961904D01*
X166497619Y-78009523D01*
X166592857Y-78057142D01*
X166735714Y-78057142D01*
X166830952Y-78009523D01*
X166878571Y-77961904D01*
X166926190Y-77866666D01*
X166926190Y-77485714D01*
X166497619Y-78438095D02*
X166450000Y-78485714D01*
X166402380Y-78580952D01*
X166402380Y-78819047D01*
X166450000Y-78914285D01*
X166497619Y-78961904D01*
X166592857Y-79009523D01*
X166688095Y-79009523D01*
X166830952Y-78961904D01*
X167402380Y-78390476D01*
X167402380Y-79009523D01*
X167402380Y-79485714D02*
X167402380Y-79676190D01*
X167354761Y-79771428D01*
X167307142Y-79819047D01*
X167164285Y-79914285D01*
X166973809Y-79961904D01*
X166592857Y-79961904D01*
X166497619Y-79914285D01*
X166450000Y-79866666D01*
X166402380Y-79771428D01*
X166402380Y-79580952D01*
X166450000Y-79485714D01*
X166497619Y-79438095D01*
X166592857Y-79390476D01*
X166830952Y-79390476D01*
X166926190Y-79438095D01*
X166973809Y-79485714D01*
X167021428Y-79580952D01*
X167021428Y-79771428D01*
X166973809Y-79866666D01*
X166926190Y-79914285D01*
X166830952Y-79961904D01*
%TO.C,Q2*%
X172647619Y-72404761D02*
X172600000Y-72309523D01*
X172504761Y-72214285D01*
X172361904Y-72071428D01*
X172314285Y-71976190D01*
X172314285Y-71880952D01*
X172552380Y-71928571D02*
X172504761Y-71833333D01*
X172409523Y-71738095D01*
X172219047Y-71690476D01*
X171885714Y-71690476D01*
X171695238Y-71738095D01*
X171600000Y-71833333D01*
X171552380Y-71928571D01*
X171552380Y-72119047D01*
X171600000Y-72214285D01*
X171695238Y-72309523D01*
X171885714Y-72357142D01*
X172219047Y-72357142D01*
X172409523Y-72309523D01*
X172504761Y-72214285D01*
X172552380Y-72119047D01*
X172552380Y-71928571D01*
X171647619Y-72738095D02*
X171600000Y-72785714D01*
X171552380Y-72880952D01*
X171552380Y-73119047D01*
X171600000Y-73214285D01*
X171647619Y-73261904D01*
X171742857Y-73309523D01*
X171838095Y-73309523D01*
X171980952Y-73261904D01*
X172552380Y-72690476D01*
X172552380Y-73309523D01*
%TO.C,Q11*%
X140071428Y-112947619D02*
X140166666Y-112900000D01*
X140261904Y-112804761D01*
X140404761Y-112661904D01*
X140500000Y-112614285D01*
X140595238Y-112614285D01*
X140547619Y-112852380D02*
X140642857Y-112804761D01*
X140738095Y-112709523D01*
X140785714Y-112519047D01*
X140785714Y-112185714D01*
X140738095Y-111995238D01*
X140642857Y-111900000D01*
X140547619Y-111852380D01*
X140357142Y-111852380D01*
X140261904Y-111900000D01*
X140166666Y-111995238D01*
X140119047Y-112185714D01*
X140119047Y-112519047D01*
X140166666Y-112709523D01*
X140261904Y-112804761D01*
X140357142Y-112852380D01*
X140547619Y-112852380D01*
X139166666Y-112852380D02*
X139738095Y-112852380D01*
X139452380Y-112852380D02*
X139452380Y-111852380D01*
X139547619Y-111995238D01*
X139642857Y-112090476D01*
X139738095Y-112138095D01*
X138214285Y-112852380D02*
X138785714Y-112852380D01*
X138500000Y-112852380D02*
X138500000Y-111852380D01*
X138595238Y-111995238D01*
X138690476Y-112090476D01*
X138785714Y-112138095D01*
%TO.C,R5*%
X172666666Y-81452380D02*
X173000000Y-80976190D01*
X173238095Y-81452380D02*
X173238095Y-80452380D01*
X172857142Y-80452380D01*
X172761904Y-80500000D01*
X172714285Y-80547619D01*
X172666666Y-80642857D01*
X172666666Y-80785714D01*
X172714285Y-80880952D01*
X172761904Y-80928571D01*
X172857142Y-80976190D01*
X173238095Y-80976190D01*
X171761904Y-80452380D02*
X172238095Y-80452380D01*
X172285714Y-80928571D01*
X172238095Y-80880952D01*
X172142857Y-80833333D01*
X171904761Y-80833333D01*
X171809523Y-80880952D01*
X171761904Y-80928571D01*
X171714285Y-81023809D01*
X171714285Y-81261904D01*
X171761904Y-81357142D01*
X171809523Y-81404761D01*
X171904761Y-81452380D01*
X172142857Y-81452380D01*
X172238095Y-81404761D01*
X172285714Y-81357142D01*
%TO.C,C3*%
X122287142Y-69833333D02*
X122334761Y-69785714D01*
X122382380Y-69642857D01*
X122382380Y-69547619D01*
X122334761Y-69404761D01*
X122239523Y-69309523D01*
X122144285Y-69261904D01*
X121953809Y-69214285D01*
X121810952Y-69214285D01*
X121620476Y-69261904D01*
X121525238Y-69309523D01*
X121430000Y-69404761D01*
X121382380Y-69547619D01*
X121382380Y-69642857D01*
X121430000Y-69785714D01*
X121477619Y-69833333D01*
X121382380Y-70166666D02*
X121382380Y-70785714D01*
X121763333Y-70452380D01*
X121763333Y-70595238D01*
X121810952Y-70690476D01*
X121858571Y-70738095D01*
X121953809Y-70785714D01*
X122191904Y-70785714D01*
X122287142Y-70738095D01*
X122334761Y-70690476D01*
X122382380Y-70595238D01*
X122382380Y-70309523D01*
X122334761Y-70214285D01*
X122287142Y-70166666D01*
%TO.C,Q19*%
X168147619Y-95328571D02*
X168100000Y-95233333D01*
X168004761Y-95138095D01*
X167861904Y-94995238D01*
X167814285Y-94900000D01*
X167814285Y-94804761D01*
X168052380Y-94852380D02*
X168004761Y-94757142D01*
X167909523Y-94661904D01*
X167719047Y-94614285D01*
X167385714Y-94614285D01*
X167195238Y-94661904D01*
X167100000Y-94757142D01*
X167052380Y-94852380D01*
X167052380Y-95042857D01*
X167100000Y-95138095D01*
X167195238Y-95233333D01*
X167385714Y-95280952D01*
X167719047Y-95280952D01*
X167909523Y-95233333D01*
X168004761Y-95138095D01*
X168052380Y-95042857D01*
X168052380Y-94852380D01*
X168052380Y-96233333D02*
X168052380Y-95661904D01*
X168052380Y-95947619D02*
X167052380Y-95947619D01*
X167195238Y-95852380D01*
X167290476Y-95757142D01*
X167338095Y-95661904D01*
X168052380Y-96709523D02*
X168052380Y-96900000D01*
X168004761Y-96995238D01*
X167957142Y-97042857D01*
X167814285Y-97138095D01*
X167623809Y-97185714D01*
X167242857Y-97185714D01*
X167147619Y-97138095D01*
X167100000Y-97090476D01*
X167052380Y-96995238D01*
X167052380Y-96804761D01*
X167100000Y-96709523D01*
X167147619Y-96661904D01*
X167242857Y-96614285D01*
X167480952Y-96614285D01*
X167576190Y-96661904D01*
X167623809Y-96709523D01*
X167671428Y-96804761D01*
X167671428Y-96995238D01*
X167623809Y-97090476D01*
X167576190Y-97138095D01*
X167480952Y-97185714D01*
%TO.C,R31*%
X147242857Y-63444380D02*
X147576190Y-62968190D01*
X147814285Y-63444380D02*
X147814285Y-62444380D01*
X147433333Y-62444380D01*
X147338095Y-62492000D01*
X147290476Y-62539619D01*
X147242857Y-62634857D01*
X147242857Y-62777714D01*
X147290476Y-62872952D01*
X147338095Y-62920571D01*
X147433333Y-62968190D01*
X147814285Y-62968190D01*
X146909523Y-62444380D02*
X146290476Y-62444380D01*
X146623809Y-62825333D01*
X146480952Y-62825333D01*
X146385714Y-62872952D01*
X146338095Y-62920571D01*
X146290476Y-63015809D01*
X146290476Y-63253904D01*
X146338095Y-63349142D01*
X146385714Y-63396761D01*
X146480952Y-63444380D01*
X146766666Y-63444380D01*
X146861904Y-63396761D01*
X146909523Y-63349142D01*
X145338095Y-63444380D02*
X145909523Y-63444380D01*
X145623809Y-63444380D02*
X145623809Y-62444380D01*
X145719047Y-62587238D01*
X145814285Y-62682476D01*
X145909523Y-62730095D01*
%TO.C,R2*%
X153502380Y-106033333D02*
X153026190Y-105700000D01*
X153502380Y-105461904D02*
X152502380Y-105461904D01*
X152502380Y-105842857D01*
X152550000Y-105938095D01*
X152597619Y-105985714D01*
X152692857Y-106033333D01*
X152835714Y-106033333D01*
X152930952Y-105985714D01*
X152978571Y-105938095D01*
X153026190Y-105842857D01*
X153026190Y-105461904D01*
X152597619Y-106414285D02*
X152550000Y-106461904D01*
X152502380Y-106557142D01*
X152502380Y-106795238D01*
X152550000Y-106890476D01*
X152597619Y-106938095D01*
X152692857Y-106985714D01*
X152788095Y-106985714D01*
X152930952Y-106938095D01*
X153502380Y-106366666D01*
X153502380Y-106985714D01*
%TO.C,Q5*%
X111545238Y-90922619D02*
X111640476Y-90875000D01*
X111735714Y-90779761D01*
X111878571Y-90636904D01*
X111973809Y-90589285D01*
X112069047Y-90589285D01*
X112021428Y-90827380D02*
X112116666Y-90779761D01*
X112211904Y-90684523D01*
X112259523Y-90494047D01*
X112259523Y-90160714D01*
X112211904Y-89970238D01*
X112116666Y-89875000D01*
X112021428Y-89827380D01*
X111830952Y-89827380D01*
X111735714Y-89875000D01*
X111640476Y-89970238D01*
X111592857Y-90160714D01*
X111592857Y-90494047D01*
X111640476Y-90684523D01*
X111735714Y-90779761D01*
X111830952Y-90827380D01*
X112021428Y-90827380D01*
X110688095Y-89827380D02*
X111164285Y-89827380D01*
X111211904Y-90303571D01*
X111164285Y-90255952D01*
X111069047Y-90208333D01*
X110830952Y-90208333D01*
X110735714Y-90255952D01*
X110688095Y-90303571D01*
X110640476Y-90398809D01*
X110640476Y-90636904D01*
X110688095Y-90732142D01*
X110735714Y-90779761D01*
X110830952Y-90827380D01*
X111069047Y-90827380D01*
X111164285Y-90779761D01*
X111211904Y-90732142D01*
%TO.C,R9*%
X180666666Y-83802380D02*
X181000000Y-83326190D01*
X181238095Y-83802380D02*
X181238095Y-82802380D01*
X180857142Y-82802380D01*
X180761904Y-82850000D01*
X180714285Y-82897619D01*
X180666666Y-82992857D01*
X180666666Y-83135714D01*
X180714285Y-83230952D01*
X180761904Y-83278571D01*
X180857142Y-83326190D01*
X181238095Y-83326190D01*
X180190476Y-83802380D02*
X180000000Y-83802380D01*
X179904761Y-83754761D01*
X179857142Y-83707142D01*
X179761904Y-83564285D01*
X179714285Y-83373809D01*
X179714285Y-82992857D01*
X179761904Y-82897619D01*
X179809523Y-82850000D01*
X179904761Y-82802380D01*
X180095238Y-82802380D01*
X180190476Y-82850000D01*
X180238095Y-82897619D01*
X180285714Y-82992857D01*
X180285714Y-83230952D01*
X180238095Y-83326190D01*
X180190476Y-83373809D01*
X180095238Y-83421428D01*
X179904761Y-83421428D01*
X179809523Y-83373809D01*
X179761904Y-83326190D01*
X179714285Y-83230952D01*
%TO.C,C7*%
X103482142Y-112283333D02*
X103529761Y-112235714D01*
X103577380Y-112092857D01*
X103577380Y-111997619D01*
X103529761Y-111854761D01*
X103434523Y-111759523D01*
X103339285Y-111711904D01*
X103148809Y-111664285D01*
X103005952Y-111664285D01*
X102815476Y-111711904D01*
X102720238Y-111759523D01*
X102625000Y-111854761D01*
X102577380Y-111997619D01*
X102577380Y-112092857D01*
X102625000Y-112235714D01*
X102672619Y-112283333D01*
X102577380Y-112616666D02*
X102577380Y-113283333D01*
X103577380Y-112854761D01*
%TO.C,R12*%
X161552380Y-56107142D02*
X161076190Y-55773809D01*
X161552380Y-55535714D02*
X160552380Y-55535714D01*
X160552380Y-55916666D01*
X160600000Y-56011904D01*
X160647619Y-56059523D01*
X160742857Y-56107142D01*
X160885714Y-56107142D01*
X160980952Y-56059523D01*
X161028571Y-56011904D01*
X161076190Y-55916666D01*
X161076190Y-55535714D01*
X161552380Y-57059523D02*
X161552380Y-56488095D01*
X161552380Y-56773809D02*
X160552380Y-56773809D01*
X160695238Y-56678571D01*
X160790476Y-56583333D01*
X160838095Y-56488095D01*
X160647619Y-57440476D02*
X160600000Y-57488095D01*
X160552380Y-57583333D01*
X160552380Y-57821428D01*
X160600000Y-57916666D01*
X160647619Y-57964285D01*
X160742857Y-58011904D01*
X160838095Y-58011904D01*
X160980952Y-57964285D01*
X161552380Y-57392857D01*
X161552380Y-58011904D01*
%TO.C,Q10*%
X173915619Y-94424571D02*
X173868000Y-94329333D01*
X173772761Y-94234095D01*
X173629904Y-94091238D01*
X173582285Y-93996000D01*
X173582285Y-93900761D01*
X173820380Y-93948380D02*
X173772761Y-93853142D01*
X173677523Y-93757904D01*
X173487047Y-93710285D01*
X173153714Y-93710285D01*
X172963238Y-93757904D01*
X172868000Y-93853142D01*
X172820380Y-93948380D01*
X172820380Y-94138857D01*
X172868000Y-94234095D01*
X172963238Y-94329333D01*
X173153714Y-94376952D01*
X173487047Y-94376952D01*
X173677523Y-94329333D01*
X173772761Y-94234095D01*
X173820380Y-94138857D01*
X173820380Y-93948380D01*
X173820380Y-95329333D02*
X173820380Y-94757904D01*
X173820380Y-95043619D02*
X172820380Y-95043619D01*
X172963238Y-94948380D01*
X173058476Y-94853142D01*
X173106095Y-94757904D01*
X172820380Y-95948380D02*
X172820380Y-96043619D01*
X172868000Y-96138857D01*
X172915619Y-96186476D01*
X173010857Y-96234095D01*
X173201333Y-96281714D01*
X173439428Y-96281714D01*
X173629904Y-96234095D01*
X173725142Y-96186476D01*
X173772761Y-96138857D01*
X173820380Y-96043619D01*
X173820380Y-95948380D01*
X173772761Y-95853142D01*
X173725142Y-95805523D01*
X173629904Y-95757904D01*
X173439428Y-95710285D01*
X173201333Y-95710285D01*
X173010857Y-95757904D01*
X172915619Y-95805523D01*
X172868000Y-95853142D01*
X172820380Y-95948380D01*
%TO.C,JP1*%
X142133333Y-103352380D02*
X142133333Y-104066666D01*
X142180952Y-104209523D01*
X142276190Y-104304761D01*
X142419047Y-104352380D01*
X142514285Y-104352380D01*
X141657142Y-104352380D02*
X141657142Y-103352380D01*
X141276190Y-103352380D01*
X141180952Y-103400000D01*
X141133333Y-103447619D01*
X141085714Y-103542857D01*
X141085714Y-103685714D01*
X141133333Y-103780952D01*
X141180952Y-103828571D01*
X141276190Y-103876190D01*
X141657142Y-103876190D01*
X140133333Y-104352380D02*
X140704761Y-104352380D01*
X140419047Y-104352380D02*
X140419047Y-103352380D01*
X140514285Y-103495238D01*
X140609523Y-103590476D01*
X140704761Y-103638095D01*
%TO.C,D11*%
X106689285Y-115009880D02*
X106689285Y-114009880D01*
X106451190Y-114009880D01*
X106308333Y-114057500D01*
X106213095Y-114152738D01*
X106165476Y-114247976D01*
X106117857Y-114438452D01*
X106117857Y-114581309D01*
X106165476Y-114771785D01*
X106213095Y-114867023D01*
X106308333Y-114962261D01*
X106451190Y-115009880D01*
X106689285Y-115009880D01*
X105165476Y-115009880D02*
X105736904Y-115009880D01*
X105451190Y-115009880D02*
X105451190Y-114009880D01*
X105546428Y-114152738D01*
X105641666Y-114247976D01*
X105736904Y-114295595D01*
X104213095Y-115009880D02*
X104784523Y-115009880D01*
X104498809Y-115009880D02*
X104498809Y-114009880D01*
X104594047Y-114152738D01*
X104689285Y-114247976D01*
X104784523Y-114295595D01*
%TO.C,C4*%
X124306666Y-61167142D02*
X124354285Y-61214761D01*
X124497142Y-61262380D01*
X124592380Y-61262380D01*
X124735238Y-61214761D01*
X124830476Y-61119523D01*
X124878095Y-61024285D01*
X124925714Y-60833809D01*
X124925714Y-60690952D01*
X124878095Y-60500476D01*
X124830476Y-60405238D01*
X124735238Y-60310000D01*
X124592380Y-60262380D01*
X124497142Y-60262380D01*
X124354285Y-60310000D01*
X124306666Y-60357619D01*
X123449523Y-60595714D02*
X123449523Y-61262380D01*
X123687619Y-60214761D02*
X123925714Y-60929047D01*
X123306666Y-60929047D01*
%TO.C,R36*%
X165452380Y-72157142D02*
X164976190Y-71823809D01*
X165452380Y-71585714D02*
X164452380Y-71585714D01*
X164452380Y-71966666D01*
X164500000Y-72061904D01*
X164547619Y-72109523D01*
X164642857Y-72157142D01*
X164785714Y-72157142D01*
X164880952Y-72109523D01*
X164928571Y-72061904D01*
X164976190Y-71966666D01*
X164976190Y-71585714D01*
X164452380Y-72490476D02*
X164452380Y-73109523D01*
X164833333Y-72776190D01*
X164833333Y-72919047D01*
X164880952Y-73014285D01*
X164928571Y-73061904D01*
X165023809Y-73109523D01*
X165261904Y-73109523D01*
X165357142Y-73061904D01*
X165404761Y-73014285D01*
X165452380Y-72919047D01*
X165452380Y-72633333D01*
X165404761Y-72538095D01*
X165357142Y-72490476D01*
X164452380Y-73966666D02*
X164452380Y-73776190D01*
X164500000Y-73680952D01*
X164547619Y-73633333D01*
X164690476Y-73538095D01*
X164880952Y-73490476D01*
X165261904Y-73490476D01*
X165357142Y-73538095D01*
X165404761Y-73585714D01*
X165452380Y-73680952D01*
X165452380Y-73871428D01*
X165404761Y-73966666D01*
X165357142Y-74014285D01*
X165261904Y-74061904D01*
X165023809Y-74061904D01*
X164928571Y-74014285D01*
X164880952Y-73966666D01*
X164833333Y-73871428D01*
X164833333Y-73680952D01*
X164880952Y-73585714D01*
X164928571Y-73538095D01*
X165023809Y-73490476D01*
%TO.C,R1*%
X139366666Y-102452380D02*
X139700000Y-101976190D01*
X139938095Y-102452380D02*
X139938095Y-101452380D01*
X139557142Y-101452380D01*
X139461904Y-101500000D01*
X139414285Y-101547619D01*
X139366666Y-101642857D01*
X139366666Y-101785714D01*
X139414285Y-101880952D01*
X139461904Y-101928571D01*
X139557142Y-101976190D01*
X139938095Y-101976190D01*
X138414285Y-102452380D02*
X138985714Y-102452380D01*
X138700000Y-102452380D02*
X138700000Y-101452380D01*
X138795238Y-101595238D01*
X138890476Y-101690476D01*
X138985714Y-101738095D01*
%TO.C,R14*%
X105642857Y-65352380D02*
X105976190Y-64876190D01*
X106214285Y-65352380D02*
X106214285Y-64352380D01*
X105833333Y-64352380D01*
X105738095Y-64400000D01*
X105690476Y-64447619D01*
X105642857Y-64542857D01*
X105642857Y-64685714D01*
X105690476Y-64780952D01*
X105738095Y-64828571D01*
X105833333Y-64876190D01*
X106214285Y-64876190D01*
X104690476Y-65352380D02*
X105261904Y-65352380D01*
X104976190Y-65352380D02*
X104976190Y-64352380D01*
X105071428Y-64495238D01*
X105166666Y-64590476D01*
X105261904Y-64638095D01*
X103833333Y-64685714D02*
X103833333Y-65352380D01*
X104071428Y-64304761D02*
X104309523Y-65019047D01*
X103690476Y-65019047D01*
%TO.C,R33*%
X160852380Y-101257142D02*
X160376190Y-100923809D01*
X160852380Y-100685714D02*
X159852380Y-100685714D01*
X159852380Y-101066666D01*
X159900000Y-101161904D01*
X159947619Y-101209523D01*
X160042857Y-101257142D01*
X160185714Y-101257142D01*
X160280952Y-101209523D01*
X160328571Y-101161904D01*
X160376190Y-101066666D01*
X160376190Y-100685714D01*
X159852380Y-101590476D02*
X159852380Y-102209523D01*
X160233333Y-101876190D01*
X160233333Y-102019047D01*
X160280952Y-102114285D01*
X160328571Y-102161904D01*
X160423809Y-102209523D01*
X160661904Y-102209523D01*
X160757142Y-102161904D01*
X160804761Y-102114285D01*
X160852380Y-102019047D01*
X160852380Y-101733333D01*
X160804761Y-101638095D01*
X160757142Y-101590476D01*
X159852380Y-102542857D02*
X159852380Y-103161904D01*
X160233333Y-102828571D01*
X160233333Y-102971428D01*
X160280952Y-103066666D01*
X160328571Y-103114285D01*
X160423809Y-103161904D01*
X160661904Y-103161904D01*
X160757142Y-103114285D01*
X160804761Y-103066666D01*
X160852380Y-102971428D01*
X160852380Y-102685714D01*
X160804761Y-102590476D01*
X160757142Y-102542857D01*
%TO.C,R15*%
X111392857Y-65452380D02*
X111726190Y-64976190D01*
X111964285Y-65452380D02*
X111964285Y-64452380D01*
X111583333Y-64452380D01*
X111488095Y-64500000D01*
X111440476Y-64547619D01*
X111392857Y-64642857D01*
X111392857Y-64785714D01*
X111440476Y-64880952D01*
X111488095Y-64928571D01*
X111583333Y-64976190D01*
X111964285Y-64976190D01*
X110440476Y-65452380D02*
X111011904Y-65452380D01*
X110726190Y-65452380D02*
X110726190Y-64452380D01*
X110821428Y-64595238D01*
X110916666Y-64690476D01*
X111011904Y-64738095D01*
X109535714Y-64452380D02*
X110011904Y-64452380D01*
X110059523Y-64928571D01*
X110011904Y-64880952D01*
X109916666Y-64833333D01*
X109678571Y-64833333D01*
X109583333Y-64880952D01*
X109535714Y-64928571D01*
X109488095Y-65023809D01*
X109488095Y-65261904D01*
X109535714Y-65357142D01*
X109583333Y-65404761D01*
X109678571Y-65452380D01*
X109916666Y-65452380D01*
X110011904Y-65404761D01*
X110059523Y-65357142D01*
%TO.C,R8*%
X178666666Y-75952380D02*
X179000000Y-75476190D01*
X179238095Y-75952380D02*
X179238095Y-74952380D01*
X178857142Y-74952380D01*
X178761904Y-75000000D01*
X178714285Y-75047619D01*
X178666666Y-75142857D01*
X178666666Y-75285714D01*
X178714285Y-75380952D01*
X178761904Y-75428571D01*
X178857142Y-75476190D01*
X179238095Y-75476190D01*
X178095238Y-75380952D02*
X178190476Y-75333333D01*
X178238095Y-75285714D01*
X178285714Y-75190476D01*
X178285714Y-75142857D01*
X178238095Y-75047619D01*
X178190476Y-75000000D01*
X178095238Y-74952380D01*
X177904761Y-74952380D01*
X177809523Y-75000000D01*
X177761904Y-75047619D01*
X177714285Y-75142857D01*
X177714285Y-75190476D01*
X177761904Y-75285714D01*
X177809523Y-75333333D01*
X177904761Y-75380952D01*
X178095238Y-75380952D01*
X178190476Y-75428571D01*
X178238095Y-75476190D01*
X178285714Y-75571428D01*
X178285714Y-75761904D01*
X178238095Y-75857142D01*
X178190476Y-75904761D01*
X178095238Y-75952380D01*
X177904761Y-75952380D01*
X177809523Y-75904761D01*
X177761904Y-75857142D01*
X177714285Y-75761904D01*
X177714285Y-75571428D01*
X177761904Y-75476190D01*
X177809523Y-75428571D01*
X177904761Y-75380952D01*
%TO.C,R18*%
X180204857Y-96940380D02*
X180538190Y-96464190D01*
X180776285Y-96940380D02*
X180776285Y-95940380D01*
X180395333Y-95940380D01*
X180300095Y-95988000D01*
X180252476Y-96035619D01*
X180204857Y-96130857D01*
X180204857Y-96273714D01*
X180252476Y-96368952D01*
X180300095Y-96416571D01*
X180395333Y-96464190D01*
X180776285Y-96464190D01*
X179252476Y-96940380D02*
X179823904Y-96940380D01*
X179538190Y-96940380D02*
X179538190Y-95940380D01*
X179633428Y-96083238D01*
X179728666Y-96178476D01*
X179823904Y-96226095D01*
X178681047Y-96368952D02*
X178776285Y-96321333D01*
X178823904Y-96273714D01*
X178871523Y-96178476D01*
X178871523Y-96130857D01*
X178823904Y-96035619D01*
X178776285Y-95988000D01*
X178681047Y-95940380D01*
X178490571Y-95940380D01*
X178395333Y-95988000D01*
X178347714Y-96035619D01*
X178300095Y-96130857D01*
X178300095Y-96178476D01*
X178347714Y-96273714D01*
X178395333Y-96321333D01*
X178490571Y-96368952D01*
X178681047Y-96368952D01*
X178776285Y-96416571D01*
X178823904Y-96464190D01*
X178871523Y-96559428D01*
X178871523Y-96749904D01*
X178823904Y-96845142D01*
X178776285Y-96892761D01*
X178681047Y-96940380D01*
X178490571Y-96940380D01*
X178395333Y-96892761D01*
X178347714Y-96845142D01*
X178300095Y-96749904D01*
X178300095Y-96559428D01*
X178347714Y-96464190D01*
X178395333Y-96416571D01*
X178490571Y-96368952D01*
D11*
%TO.C,D13*%
X156100000Y-59722000D02*
X155440000Y-59722000D01*
X153780000Y-61132000D02*
X153780000Y-59722000D01*
X154440000Y-59722000D02*
X153780000Y-59722000D01*
X156100000Y-59722000D02*
X156100000Y-61752000D01*
%TO.C,D12*%
X148558000Y-59580000D02*
X148558000Y-58920000D01*
X147148000Y-57260000D02*
X148558000Y-57260000D01*
X148558000Y-57920000D02*
X148558000Y-57260000D01*
X148558000Y-59580000D02*
X146528000Y-59580000D01*
%TO.C,D6*%
X181388000Y-78850000D02*
X181388000Y-79510000D01*
X182798000Y-81170000D02*
X181388000Y-81170000D01*
X181388000Y-80510000D02*
X181388000Y-81170000D01*
X181388000Y-78850000D02*
X183418000Y-78850000D01*
%TO.C,D5*%
X115460000Y-63278000D02*
X114800000Y-63278000D01*
X113140000Y-64688000D02*
X113140000Y-63278000D01*
X113800000Y-63278000D02*
X113140000Y-63278000D01*
X115460000Y-63278000D02*
X115460000Y-65308000D01*
%TO.C,D4*%
X112412000Y-71152000D02*
X111752000Y-71152000D01*
X110092000Y-72562000D02*
X110092000Y-71152000D01*
X110752000Y-71152000D02*
X110092000Y-71152000D01*
X112412000Y-71152000D02*
X112412000Y-73182000D01*
%TO.C,D3*%
X181642000Y-60308000D02*
X181642000Y-60968000D01*
X183052000Y-62628000D02*
X181642000Y-62628000D01*
X181642000Y-61968000D02*
X181642000Y-62628000D01*
X181642000Y-60308000D02*
X183672000Y-60308000D01*
%TO.C,R34*%
X165065000Y-99772936D02*
X165065000Y-100227064D01*
X166535000Y-99772936D02*
X166535000Y-100227064D01*
%TO.C,R6*%
X108265000Y-80727064D02*
X108265000Y-80272936D01*
X109735000Y-80727064D02*
X109735000Y-80272936D01*
%TO.C,D7*%
X119700000Y-104300000D02*
X119700000Y-103500000D01*
X121000000Y-103500000D02*
X119700000Y-103500000D01*
X121000000Y-104300000D02*
X119700000Y-104300000D01*
%TO.C,D9*%
X116950000Y-61475000D02*
X120850000Y-61475000D01*
X116950000Y-63475000D02*
X120850000Y-63475000D01*
X116950000Y-63475000D02*
X116950000Y-61475000D01*
%TO.C,R3*%
X149635000Y-106427064D02*
X149635000Y-105972936D01*
X148165000Y-106427064D02*
X148165000Y-105972936D01*
%TO.C,R35*%
X132312649Y-112869701D02*
X132312649Y-112415573D01*
X130842649Y-112869701D02*
X130842649Y-112415573D01*
%TO.C,R13*%
X178985000Y-56272936D02*
X178985000Y-56727064D01*
X177515000Y-56272936D02*
X177515000Y-56727064D01*
%TO.C,R4*%
X149735000Y-95522936D02*
X149735000Y-95977064D01*
X148265000Y-95522936D02*
X148265000Y-95977064D01*
%TO.C,Q18*%
X159052635Y-96033297D02*
X159052635Y-96683297D01*
X162172635Y-96033297D02*
X162172635Y-96683297D01*
X162172635Y-96033297D02*
X162172635Y-95383297D01*
X159052635Y-96033297D02*
X159052635Y-94358297D01*
%TO.C,R17*%
X118337000Y-56377064D02*
X118337000Y-55922936D01*
X116867000Y-56377064D02*
X116867000Y-55922936D01*
%TO.C,Q4*%
X106440000Y-76687500D02*
X106440000Y-76037500D01*
X106440000Y-76687500D02*
X106440000Y-77337500D01*
X109560000Y-76687500D02*
X109560000Y-76037500D01*
X109560000Y-76687500D02*
X109560000Y-78362500D01*
%TO.C,R16*%
X135365000Y-106372936D02*
X135365000Y-106827064D01*
X136835000Y-106372936D02*
X136835000Y-106827064D01*
%TO.C,R28*%
X140772936Y-113565000D02*
X141227064Y-113565000D01*
X140772936Y-115035000D02*
X141227064Y-115035000D01*
%TO.C,Q3*%
X178060000Y-84000000D02*
X178060000Y-83350000D01*
X174940000Y-84000000D02*
X174940000Y-82325000D01*
X178060000Y-84000000D02*
X178060000Y-84650000D01*
X174940000Y-84000000D02*
X174940000Y-84650000D01*
%TO.C,C5*%
X118263748Y-59290000D02*
X118786252Y-59290000D01*
X118263748Y-60760000D02*
X118786252Y-60760000D01*
%TO.C,R7*%
X114985000Y-89477064D02*
X114985000Y-89022936D01*
X113515000Y-89477064D02*
X113515000Y-89022936D01*
%TO.C,R29*%
X166035000Y-78927064D02*
X166035000Y-78472936D01*
X164565000Y-78927064D02*
X164565000Y-78472936D01*
%TO.C,Q2*%
X172940000Y-72500000D02*
X172940000Y-73150000D01*
X176060000Y-72500000D02*
X176060000Y-71850000D01*
X172940000Y-72500000D02*
X172940000Y-70825000D01*
X176060000Y-72500000D02*
X176060000Y-73150000D01*
%TO.C,Q11*%
X135837500Y-111690000D02*
X135187500Y-111690000D01*
X135837500Y-114810000D02*
X134162500Y-114810000D01*
X135837500Y-114810000D02*
X136487500Y-114810000D01*
X135837500Y-111690000D02*
X136487500Y-111690000D01*
%TO.C,R5*%
X172272936Y-83735000D02*
X172727064Y-83735000D01*
X172272936Y-82265000D02*
X172727064Y-82265000D01*
%TO.C,C3*%
X120985000Y-70261252D02*
X120985000Y-69738748D01*
X119515000Y-70261252D02*
X119515000Y-69738748D01*
%TO.C,Q19*%
X166226824Y-96050667D02*
X166226824Y-95400667D01*
X163106824Y-96050667D02*
X163106824Y-96700667D01*
X163106824Y-96050667D02*
X163106824Y-94375667D01*
X166226824Y-96050667D02*
X166226824Y-96700667D01*
%TO.C,R31*%
X146827064Y-60365000D02*
X146372936Y-60365000D01*
X146827064Y-61835000D02*
X146372936Y-61835000D01*
%TO.C,R2*%
X150665000Y-106427064D02*
X150665000Y-105972936D01*
X152135000Y-106427064D02*
X152135000Y-105972936D01*
%TO.C,Q5*%
X113010000Y-87312500D02*
X113010000Y-86662500D01*
X109890000Y-87312500D02*
X109890000Y-87962500D01*
X109890000Y-87312500D02*
X109890000Y-86662500D01*
X113010000Y-87312500D02*
X113010000Y-88987500D01*
%TO.C,R9*%
X180727064Y-84265000D02*
X180272936Y-84265000D01*
X180727064Y-85735000D02*
X180272936Y-85735000D01*
%TO.C,C7*%
X104265000Y-112138748D02*
X104265000Y-112661252D01*
X105735000Y-112138748D02*
X105735000Y-112661252D01*
%TO.C,R12*%
X162015000Y-56522936D02*
X162015000Y-56977064D01*
X163485000Y-56522936D02*
X163485000Y-56977064D01*
%TO.C,Q10*%
X177328000Y-94996000D02*
X177328000Y-95646000D01*
X174208000Y-94996000D02*
X174208000Y-93321000D01*
X177328000Y-94996000D02*
X177328000Y-94346000D01*
X174208000Y-94996000D02*
X174208000Y-95646000D01*
%TO.C,JP1*%
X142200000Y-107700000D02*
X142200000Y-104900000D01*
X140200000Y-107700000D02*
X142200000Y-107700000D01*
X140200000Y-104900000D02*
X140200000Y-107700000D01*
X142200000Y-104900000D02*
X140200000Y-104900000D01*
%TO.C,D11*%
X106600000Y-112982500D02*
X106600000Y-114282500D01*
X107400000Y-114282500D02*
X106600000Y-114282500D01*
X107400000Y-112982500D02*
X107400000Y-114282500D01*
%TO.C,C4*%
X124401252Y-61755000D02*
X123878748Y-61755000D01*
X124401252Y-63225000D02*
X123878748Y-63225000D01*
%TO.C,R36*%
X167666638Y-72720619D02*
X167666638Y-72266491D01*
X166196638Y-72720619D02*
X166196638Y-72266491D01*
%TO.C,R1*%
X138265000Y-104372936D02*
X138265000Y-104827064D01*
X139735000Y-104372936D02*
X139735000Y-104827064D01*
%TO.C,R14*%
X104772936Y-62515000D02*
X105227064Y-62515000D01*
X104772936Y-63985000D02*
X105227064Y-63985000D01*
%TO.C,R33*%
X163009502Y-99801353D02*
X163009502Y-100255481D01*
X161539502Y-99801353D02*
X161539502Y-100255481D01*
%TO.C,R15*%
X110977064Y-63735000D02*
X110522936Y-63735000D01*
X110977064Y-62265000D02*
X110522936Y-62265000D01*
%TO.C,R8*%
X178477064Y-72765000D02*
X178022936Y-72765000D01*
X178477064Y-74235000D02*
X178022936Y-74235000D01*
%TO.C,R18*%
X179334936Y-95223000D02*
X179789064Y-95223000D01*
X179334936Y-93753000D02*
X179789064Y-93753000D01*
%TD*%
M02*
