%TF.GenerationSoftware,KiCad,Pcbnew,6.0.11-2627ca5db0~126~ubuntu22.04.1*%
%TF.CreationDate,2023-03-08T14:45:44-05:00*%
%TF.ProjectId,webasto-mainboard,77656261-7374-46f2-9d6d-61696e626f61,2.0*%
%TF.SameCoordinates,Original*%
%TF.FileFunction,Soldermask,Bot*%
%TF.FilePolarity,Negative*%
%FSLAX46Y46*%
G04 Gerber Fmt 4.6, Leading zero omitted, Abs format (unit mm)*
G04 Created by KiCad (PCBNEW 6.0.11-2627ca5db0~126~ubuntu22.04.1) date 2023-03-08 14:45:44*
%MOMM*%
%LPD*%
G01*
G04 APERTURE LIST*
G04 Aperture macros list*
%AMRoundRect*
0 Rectangle with rounded corners*
0 $1 Rounding radius*
0 $2 $3 $4 $5 $6 $7 $8 $9 X,Y pos of 4 corners*
0 Add a 4 corners polygon primitive as box body*
4,1,4,$2,$3,$4,$5,$6,$7,$8,$9,$2,$3,0*
0 Add four circle primitives for the rounded corners*
1,1,$1+$1,$2,$3*
1,1,$1+$1,$4,$5*
1,1,$1+$1,$6,$7*
1,1,$1+$1,$8,$9*
0 Add four rect primitives between the rounded corners*
20,1,$1+$1,$2,$3,$4,$5,0*
20,1,$1+$1,$4,$5,$6,$7,0*
20,1,$1+$1,$6,$7,$8,$9,0*
20,1,$1+$1,$8,$9,$2,$3,0*%
%AMRotRect*
0 Rectangle, with rotation*
0 The origin of the aperture is its center*
0 $1 length*
0 $2 width*
0 $3 Rotation angle, in degrees counterclockwise*
0 Add horizontal line*
21,1,$1,$2,0,0,$3*%
G04 Aperture macros list end*
%ADD10RoundRect,0.250000X0.450000X-0.350000X0.450000X0.350000X-0.450000X0.350000X-0.450000X-0.350000X0*%
%ADD11C,3.000000*%
%ADD12R,2.000000X1.905000*%
%ADD13O,2.000000X1.905000*%
%ADD14O,1.800000X1.800000*%
%ADD15O,1.500000X1.500000*%
%ADD16O,1.700000X1.700000*%
%ADD17R,1.700000X1.700000*%
%ADD18RotRect,2.000000X2.000000X135.000000*%
%ADD19C,2.000000*%
%ADD20R,1.879600X1.879600*%
%ADD21C,1.879600*%
%ADD22R,0.450000X0.700000*%
%ADD23RoundRect,0.250000X-0.450000X0.350000X-0.450000X-0.350000X0.450000X-0.350000X0.450000X0.350000X0*%
%ADD24RoundRect,0.250000X0.350000X0.450000X-0.350000X0.450000X-0.350000X-0.450000X0.350000X-0.450000X0*%
%ADD25RoundRect,0.150000X-0.587500X-0.150000X0.587500X-0.150000X0.587500X0.150000X-0.587500X0.150000X0*%
%ADD26RoundRect,0.250000X-0.350000X-0.450000X0.350000X-0.450000X0.350000X0.450000X-0.350000X0.450000X0*%
%ADD27RoundRect,0.150000X-0.150000X0.587500X-0.150000X-0.587500X0.150000X-0.587500X0.150000X0.587500X0*%
%ADD28R,0.700000X0.450000*%
%ADD29RoundRect,0.150000X0.150000X-0.587500X0.150000X0.587500X-0.150000X0.587500X-0.150000X-0.587500X0*%
%ADD30RoundRect,0.250000X-0.475000X0.337500X-0.475000X-0.337500X0.475000X-0.337500X0.475000X0.337500X0*%
%ADD31RoundRect,0.250000X0.425000X-0.537500X0.425000X0.537500X-0.425000X0.537500X-0.425000X-0.537500X0*%
%ADD32RoundRect,0.250000X0.475000X-0.337500X0.475000X0.337500X-0.475000X0.337500X-0.475000X-0.337500X0*%
G04 APERTURE END LIST*
D10*
%TO.C,R18*%
X164070000Y-107220000D03*
X164070000Y-105220000D03*
%TD*%
%TO.C,R17*%
X161560000Y-107320000D03*
X161560000Y-105320000D03*
%TD*%
%TO.C,R16*%
X152470000Y-106840000D03*
X152470000Y-104840000D03*
%TD*%
D11*
%TO.C,JX3*%
X155037200Y-56841000D03*
X150795400Y-61082800D03*
%TD*%
D12*
%TO.C,U6*%
X127975000Y-118960000D03*
D13*
X127975000Y-121500000D03*
X127975000Y-124040000D03*
%TD*%
D14*
%TO.C,U2*%
X184300000Y-103425000D03*
D15*
X181270000Y-103125000D03*
X181270000Y-98275000D03*
D14*
X184300000Y-97975000D03*
D16*
X184430000Y-91810000D03*
X181890000Y-91810000D03*
D17*
X179350000Y-91810000D03*
D16*
X176810000Y-91810000D03*
X174270000Y-91810000D03*
X171730000Y-91810000D03*
X169190000Y-91810000D03*
D17*
X166650000Y-91810000D03*
D16*
X164110000Y-91810000D03*
X161570000Y-91810000D03*
X159030000Y-91810000D03*
X156490000Y-91810000D03*
D17*
X153950000Y-91810000D03*
D16*
X151410000Y-91810000D03*
X148870000Y-91810000D03*
X146330000Y-91810000D03*
X143790000Y-91810000D03*
D17*
X141250000Y-91810000D03*
D16*
X138710000Y-91810000D03*
X136170000Y-91810000D03*
X136170000Y-109590000D03*
X138710000Y-109590000D03*
D17*
X141250000Y-109590000D03*
D16*
X143790000Y-109590000D03*
X146330000Y-109590000D03*
X148870000Y-109590000D03*
X151410000Y-109590000D03*
D17*
X153950000Y-109590000D03*
D16*
X156490000Y-109590000D03*
X159030000Y-109590000D03*
X161570000Y-109590000D03*
X164110000Y-109590000D03*
D17*
X166650000Y-109590000D03*
D16*
X169190000Y-109590000D03*
X171730000Y-109590000D03*
X174270000Y-109590000D03*
X176810000Y-109590000D03*
D17*
X179350000Y-109590000D03*
D16*
X181890000Y-109590000D03*
X184430000Y-109590000D03*
X136400000Y-98160000D03*
D17*
X136400000Y-100700000D03*
D16*
X136400000Y-103240000D03*
%TD*%
D17*
%TO.C,J2*%
X108525000Y-99550000D03*
D16*
X111065000Y-99550000D03*
X113605000Y-99550000D03*
X116145000Y-99550000D03*
%TD*%
D18*
%TO.C,BZ1*%
X131900000Y-81600000D03*
D19*
X128364466Y-78064466D03*
%TD*%
D11*
%TO.C,JX4*%
X166275000Y-55665200D03*
X166351200Y-60034000D03*
%TD*%
%TO.C,JX2*%
X135346800Y-56125000D03*
X129352400Y-56125000D03*
%TD*%
D17*
%TO.C,U5*%
X117382600Y-122467700D03*
D16*
X114842600Y-122467700D03*
X112302600Y-122467700D03*
X109762600Y-122467700D03*
%TD*%
D11*
%TO.C,JX1*%
X113807200Y-56119400D03*
X109819400Y-56119400D03*
X105802400Y-56131600D03*
X111826000Y-59624600D03*
X107812800Y-59624600D03*
X103825000Y-59650000D03*
%TD*%
D20*
%TO.C,J1*%
X124820000Y-89130000D03*
D21*
X124820000Y-91670000D03*
X124820000Y-94210000D03*
X124820000Y-96750000D03*
X124820000Y-99290000D03*
X124820000Y-101830000D03*
%TD*%
D11*
%TO.C,JX5*%
X174275000Y-55640200D03*
X174351200Y-60009000D03*
%TD*%
D22*
%TO.C,D12*%
X155590000Y-61452000D03*
X154290000Y-61452000D03*
X154940000Y-59452000D03*
%TD*%
D23*
%TO.C,R29*%
X165800000Y-99000000D03*
X165800000Y-101000000D03*
%TD*%
%TO.C,R38*%
X112155000Y-62605000D03*
X112155000Y-64605000D03*
%TD*%
D10*
%TO.C,R8*%
X109000000Y-81500000D03*
X109000000Y-79500000D03*
%TD*%
D24*
%TO.C,R30*%
X128300000Y-105425000D03*
X126300000Y-105425000D03*
%TD*%
D25*
%TO.C,Q17*%
X179500000Y-119900000D03*
X179500000Y-118000000D03*
X181375000Y-118950000D03*
%TD*%
D23*
%TO.C,R13*%
X178250000Y-55500000D03*
X178250000Y-57500000D03*
%TD*%
D26*
%TO.C,R6*%
X148870000Y-87200000D03*
X150870000Y-87200000D03*
%TD*%
D27*
%TO.C,Q15*%
X159662635Y-95095797D03*
X161562635Y-95095797D03*
X160612635Y-96970797D03*
%TD*%
D25*
%TO.C,Q18*%
X174550000Y-123725000D03*
X174550000Y-121825000D03*
X176425000Y-122775000D03*
%TD*%
D28*
%TO.C,D6*%
X183118000Y-79360000D03*
X183118000Y-80660000D03*
X181118000Y-80010000D03*
%TD*%
D29*
%TO.C,Q4*%
X108950000Y-77625000D03*
X107050000Y-77625000D03*
X108000000Y-75750000D03*
%TD*%
D30*
%TO.C,C13*%
X184000000Y-118087500D03*
X184000000Y-120162500D03*
%TD*%
D10*
%TO.C,R23*%
X132275000Y-109925000D03*
X132275000Y-107925000D03*
%TD*%
D27*
%TO.C,Q3*%
X175550000Y-83062500D03*
X177450000Y-83062500D03*
X176500000Y-84937500D03*
%TD*%
D23*
%TO.C,R32*%
X138725000Y-104875000D03*
X138725000Y-106875000D03*
%TD*%
D25*
%TO.C,U3*%
X171775000Y-107200000D03*
X171775000Y-105300000D03*
X173650000Y-106250000D03*
%TD*%
D10*
%TO.C,R24*%
X165300000Y-79700000D03*
X165300000Y-77700000D03*
%TD*%
D27*
%TO.C,Q2*%
X173550000Y-71562500D03*
X175450000Y-71562500D03*
X174500000Y-73437500D03*
%TD*%
D10*
%TO.C,R37*%
X179200000Y-124875000D03*
X179200000Y-122875000D03*
%TD*%
D27*
%TO.C,Q8*%
X128300000Y-108050000D03*
X130200000Y-108050000D03*
X129250000Y-109925000D03*
%TD*%
D24*
%TO.C,R1*%
X181975000Y-106375000D03*
X179975000Y-106375000D03*
%TD*%
D10*
%TO.C,R34*%
X176225000Y-120000000D03*
X176225000Y-118000000D03*
%TD*%
D22*
%TO.C,D5*%
X111902000Y-72882000D03*
X110602000Y-72882000D03*
X111252000Y-70882000D03*
%TD*%
D26*
%TO.C,R7*%
X171500000Y-83000000D03*
X173500000Y-83000000D03*
%TD*%
D27*
%TO.C,Q16*%
X163716824Y-95113167D03*
X165616824Y-95113167D03*
X164666824Y-96988167D03*
%TD*%
D24*
%TO.C,R26*%
X147600000Y-61100000D03*
X145600000Y-61100000D03*
%TD*%
%TO.C,R36*%
X183575000Y-116125000D03*
X181575000Y-116125000D03*
%TD*%
D23*
%TO.C,R33*%
X148900000Y-104725000D03*
X148900000Y-106725000D03*
%TD*%
%TO.C,R39*%
X108370000Y-62630000D03*
X108370000Y-64630000D03*
%TD*%
D24*
%TO.C,R10*%
X181500000Y-85000000D03*
X179500000Y-85000000D03*
%TD*%
D23*
%TO.C,R12*%
X162750000Y-55750000D03*
X162750000Y-57750000D03*
%TD*%
D28*
%TO.C,D4*%
X182900000Y-60900000D03*
X182900000Y-62200000D03*
X180900000Y-61550000D03*
%TD*%
%TO.C,D11*%
X146828000Y-59070000D03*
X146828000Y-57770000D03*
X148828000Y-58420000D03*
%TD*%
D31*
%TO.C,C1*%
X175900000Y-104325000D03*
X175900000Y-101450000D03*
%TD*%
D23*
%TO.C,R4*%
X157875000Y-119950000D03*
X157875000Y-121950000D03*
%TD*%
D10*
%TO.C,R31*%
X166931638Y-73493555D03*
X166931638Y-71493555D03*
%TD*%
D26*
%TO.C,R14*%
X104000000Y-63250000D03*
X106000000Y-63250000D03*
%TD*%
D23*
%TO.C,R28*%
X162274502Y-99028417D03*
X162274502Y-101028417D03*
%TD*%
%TO.C,R5*%
X160225000Y-119900000D03*
X160225000Y-121900000D03*
%TD*%
D24*
%TO.C,R9*%
X179250000Y-73500000D03*
X177250000Y-73500000D03*
%TD*%
D23*
%TO.C,R3*%
X155650000Y-119975000D03*
X155650000Y-121975000D03*
%TD*%
D30*
%TO.C,C15*%
X108420000Y-66642500D03*
X108420000Y-68717500D03*
%TD*%
D32*
%TO.C,C2*%
X173600000Y-103525000D03*
X173600000Y-101450000D03*
%TD*%
D10*
%TO.C,R2*%
X169200000Y-106350000D03*
X169200000Y-104350000D03*
%TD*%
D32*
%TO.C,C14*%
X112130000Y-68730000D03*
X112130000Y-66655000D03*
%TD*%
M02*
