%TF.GenerationSoftware,KiCad,Pcbnew,6.0.11-2627ca5db0~126~ubuntu22.04.1*%
%TF.CreationDate,2023-02-14T23:03:41-05:00*%
%TF.ProjectId,webasto-mainboard,77656261-7374-46f2-9d6d-61696e626f61,2.0*%
%TF.SameCoordinates,Original*%
%TF.FileFunction,Paste,Bot*%
%TF.FilePolarity,Positive*%
%FSLAX46Y46*%
G04 Gerber Fmt 4.6, Leading zero omitted, Abs format (unit mm)*
G04 Created by KiCad (PCBNEW 6.0.11-2627ca5db0~126~ubuntu22.04.1) date 2023-02-14 23:03:41*
%MOMM*%
%LPD*%
G01*
G04 APERTURE LIST*
G04 Aperture macros list*
%AMRoundRect*
0 Rectangle with rounded corners*
0 $1 Rounding radius*
0 $2 $3 $4 $5 $6 $7 $8 $9 X,Y pos of 4 corners*
0 Add a 4 corners polygon primitive as box body*
4,1,4,$2,$3,$4,$5,$6,$7,$8,$9,$2,$3,0*
0 Add four circle primitives for the rounded corners*
1,1,$1+$1,$2,$3*
1,1,$1+$1,$4,$5*
1,1,$1+$1,$6,$7*
1,1,$1+$1,$8,$9*
0 Add four rect primitives between the rounded corners*
20,1,$1+$1,$2,$3,$4,$5,0*
20,1,$1+$1,$4,$5,$6,$7,0*
20,1,$1+$1,$6,$7,$8,$9,0*
20,1,$1+$1,$8,$9,$2,$3,0*%
G04 Aperture macros list end*
%ADD10R,1.879600X1.879600*%
%ADD11C,1.879600*%
%ADD12R,0.450000X0.700000*%
%ADD13RoundRect,0.250000X-0.450000X0.350000X-0.450000X-0.350000X0.450000X-0.350000X0.450000X0.350000X0*%
%ADD14RoundRect,0.250000X0.450000X-0.350000X0.450000X0.350000X-0.450000X0.350000X-0.450000X-0.350000X0*%
%ADD15R,0.900000X1.200000*%
%ADD16RoundRect,0.150000X-0.150000X0.587500X-0.150000X-0.587500X0.150000X-0.587500X0.150000X0.587500X0*%
%ADD17R,0.700000X0.450000*%
%ADD18RoundRect,0.150000X0.150000X-0.587500X0.150000X0.587500X-0.150000X0.587500X-0.150000X-0.587500X0*%
%ADD19RoundRect,0.250000X-0.350000X-0.450000X0.350000X-0.450000X0.350000X0.450000X-0.350000X0.450000X0*%
%ADD20RoundRect,0.250000X-0.250000X-0.475000X0.250000X-0.475000X0.250000X0.475000X-0.250000X0.475000X0*%
%ADD21RoundRect,0.150000X-0.587500X-0.150000X0.587500X-0.150000X0.587500X0.150000X-0.587500X0.150000X0*%
%ADD22RoundRect,0.250000X0.475000X-0.250000X0.475000X0.250000X-0.475000X0.250000X-0.475000X-0.250000X0*%
%ADD23RoundRect,0.250000X0.350000X0.450000X-0.350000X0.450000X-0.350000X-0.450000X0.350000X-0.450000X0*%
%ADD24RoundRect,0.250000X-0.475000X0.250000X-0.475000X-0.250000X0.475000X-0.250000X0.475000X0.250000X0*%
%ADD25RoundRect,0.250000X0.250000X0.475000X-0.250000X0.475000X-0.250000X-0.475000X0.250000X-0.475000X0*%
G04 APERTURE END LIST*
D10*
%TO.C,J1*%
X124700000Y-101900000D03*
D11*
X124700000Y-99360000D03*
X124700000Y-96820000D03*
X124700000Y-94280000D03*
X124700000Y-91740000D03*
X124700000Y-89200000D03*
%TD*%
D12*
%TO.C,D12*%
X155590000Y-61452000D03*
X154290000Y-61452000D03*
X154940000Y-59452000D03*
%TD*%
D13*
%TO.C,R31*%
X165800000Y-99000000D03*
X165800000Y-101000000D03*
%TD*%
D14*
%TO.C,R5*%
X109000000Y-81500000D03*
X109000000Y-79500000D03*
%TD*%
D15*
%TO.C,D8*%
X117550000Y-62475000D03*
X120850000Y-62475000D03*
%TD*%
D14*
%TO.C,R2*%
X148900000Y-107200000D03*
X148900000Y-105200000D03*
%TD*%
%TO.C,R32*%
X131577649Y-113642637D03*
X131577649Y-111642637D03*
%TD*%
D13*
%TO.C,R12*%
X178250000Y-55500000D03*
X178250000Y-57500000D03*
%TD*%
%TO.C,R3*%
X149000000Y-94750000D03*
X149000000Y-96750000D03*
%TD*%
D16*
%TO.C,Q18*%
X159662635Y-95095797D03*
X161562635Y-95095797D03*
X160612635Y-96970797D03*
%TD*%
D14*
%TO.C,R15*%
X117602000Y-57150000D03*
X117602000Y-55150000D03*
%TD*%
D17*
%TO.C,D6*%
X183118000Y-79360000D03*
X183118000Y-80660000D03*
X181118000Y-80010000D03*
%TD*%
D18*
%TO.C,Q4*%
X108950000Y-77625000D03*
X107050000Y-77625000D03*
X108000000Y-75750000D03*
%TD*%
D19*
%TO.C,R25*%
X140000000Y-114300000D03*
X142000000Y-114300000D03*
%TD*%
D16*
%TO.C,Q3*%
X175550000Y-83062500D03*
X177450000Y-83062500D03*
X176500000Y-84937500D03*
%TD*%
D20*
%TO.C,C5*%
X117575000Y-60025000D03*
X119475000Y-60025000D03*
%TD*%
D14*
%TO.C,R6*%
X114250000Y-90250000D03*
X114250000Y-88250000D03*
%TD*%
%TO.C,R26*%
X165300000Y-79700000D03*
X165300000Y-77700000D03*
%TD*%
D16*
%TO.C,Q2*%
X173550000Y-71562500D03*
X175450000Y-71562500D03*
X174500000Y-73437500D03*
%TD*%
D21*
%TO.C,Q11*%
X134900000Y-114200000D03*
X134900000Y-112300000D03*
X136775000Y-113250000D03*
%TD*%
D12*
%TO.C,D4*%
X111902000Y-72882000D03*
X110602000Y-72882000D03*
X111252000Y-70882000D03*
%TD*%
D19*
%TO.C,R4*%
X171500000Y-83000000D03*
X173500000Y-83000000D03*
%TD*%
D22*
%TO.C,C3*%
X120250000Y-70950000D03*
X120250000Y-69050000D03*
%TD*%
D16*
%TO.C,Q19*%
X163716824Y-95113167D03*
X165616824Y-95113167D03*
X164666824Y-96988167D03*
%TD*%
D23*
%TO.C,R28*%
X147600000Y-61100000D03*
X145600000Y-61100000D03*
%TD*%
D14*
%TO.C,R1*%
X151400000Y-107200000D03*
X151400000Y-105200000D03*
%TD*%
D18*
%TO.C,Q5*%
X112400000Y-88250000D03*
X110500000Y-88250000D03*
X111450000Y-86375000D03*
%TD*%
D23*
%TO.C,R8*%
X181500000Y-85000000D03*
X179500000Y-85000000D03*
%TD*%
D24*
%TO.C,C7*%
X105000000Y-111450000D03*
X105000000Y-113350000D03*
%TD*%
D13*
%TO.C,R11*%
X162750000Y-55750000D03*
X162750000Y-57750000D03*
%TD*%
D16*
%TO.C,Q10*%
X174818000Y-94058500D03*
X176718000Y-94058500D03*
X175768000Y-95933500D03*
%TD*%
D17*
%TO.C,D3*%
X183372000Y-60818000D03*
X183372000Y-62118000D03*
X181372000Y-61468000D03*
%TD*%
%TO.C,D11*%
X146828000Y-59070000D03*
X146828000Y-57770000D03*
X148828000Y-58420000D03*
%TD*%
D12*
%TO.C,D5*%
X114950000Y-65008000D03*
X113650000Y-65008000D03*
X114300000Y-63008000D03*
%TD*%
D25*
%TO.C,C4*%
X125090000Y-62490000D03*
X123190000Y-62490000D03*
%TD*%
D14*
%TO.C,R33*%
X166931638Y-73493555D03*
X166931638Y-71493555D03*
%TD*%
D19*
%TO.C,R13*%
X104000000Y-63250000D03*
X106000000Y-63250000D03*
%TD*%
D13*
%TO.C,R30*%
X162274502Y-99028417D03*
X162274502Y-101028417D03*
%TD*%
D23*
%TO.C,R14*%
X111750000Y-63000000D03*
X109750000Y-63000000D03*
%TD*%
%TO.C,R7*%
X179250000Y-73500000D03*
X177250000Y-73500000D03*
%TD*%
D19*
%TO.C,R16*%
X178562000Y-94488000D03*
X180562000Y-94488000D03*
%TD*%
M02*
