%TF.GenerationSoftware,KiCad,Pcbnew,6.0.2+dfsg-1*%
%TF.CreationDate,2023-01-19T02:13:05-05:00*%
%TF.ProjectId,webasto-mainboard,77656261-7374-46f2-9d6d-61696e626f61,1.0*%
%TF.SameCoordinates,Original*%
%TF.FileFunction,Paste,Top*%
%TF.FilePolarity,Positive*%
%FSLAX46Y46*%
G04 Gerber Fmt 4.6, Leading zero omitted, Abs format (unit mm)*
G04 Created by KiCad (PCBNEW 6.0.2+dfsg-1) date 2023-01-19 02:13:05*
%MOMM*%
%LPD*%
G01*
G04 APERTURE LIST*
G04 Aperture macros list*
%AMRoundRect*
0 Rectangle with rounded corners*
0 $1 Rounding radius*
0 $2 $3 $4 $5 $6 $7 $8 $9 X,Y pos of 4 corners*
0 Add a 4 corners polygon primitive as box body*
4,1,4,$2,$3,$4,$5,$6,$7,$8,$9,$2,$3,0*
0 Add four circle primitives for the rounded corners*
1,1,$1+$1,$2,$3*
1,1,$1+$1,$4,$5*
1,1,$1+$1,$6,$7*
1,1,$1+$1,$8,$9*
0 Add four rect primitives between the rounded corners*
20,1,$1+$1,$2,$3,$4,$5,0*
20,1,$1+$1,$4,$5,$6,$7,0*
20,1,$1+$1,$6,$7,$8,$9,0*
20,1,$1+$1,$8,$9,$2,$3,0*%
G04 Aperture macros list end*
%ADD10R,2.750000X3.050000*%
%ADD11R,1.200000X2.200000*%
%ADD12RoundRect,0.237500X0.237500X-0.250000X0.237500X0.250000X-0.237500X0.250000X-0.237500X-0.250000X0*%
%ADD13RoundRect,0.150000X0.650000X0.150000X-0.650000X0.150000X-0.650000X-0.150000X0.650000X-0.150000X0*%
%ADD14RoundRect,0.242500X0.242500X0.402500X-0.242500X0.402500X-0.242500X-0.402500X0.242500X-0.402500X0*%
%ADD15R,2.590800X5.003800*%
%ADD16R,0.533400X1.460500*%
%ADD17RoundRect,0.125000X0.537500X0.125000X-0.537500X0.125000X-0.537500X-0.125000X0.537500X-0.125000X0*%
%ADD18RoundRect,0.150000X-0.150000X0.587500X-0.150000X-0.587500X0.150000X-0.587500X0.150000X0.587500X0*%
%ADD19RoundRect,0.250000X0.350000X0.450000X-0.350000X0.450000X-0.350000X-0.450000X0.350000X-0.450000X0*%
%ADD20RoundRect,0.250000X-0.350000X-0.450000X0.350000X-0.450000X0.350000X0.450000X-0.350000X0.450000X0*%
%ADD21RoundRect,0.250000X0.450000X-0.350000X0.450000X0.350000X-0.450000X0.350000X-0.450000X-0.350000X0*%
%ADD22RoundRect,0.249999X1.425001X-0.450001X1.425001X0.450001X-1.425001X0.450001X-1.425001X-0.450001X0*%
%ADD23RoundRect,0.249999X0.450001X1.425001X-0.450001X1.425001X-0.450001X-1.425001X0.450001X-1.425001X0*%
%ADD24RoundRect,0.250000X-1.975000X1.350000X-1.975000X-1.350000X1.975000X-1.350000X1.975000X1.350000X0*%
%ADD25R,3.050000X2.750000*%
%ADD26R,2.200000X1.200000*%
%ADD27RoundRect,0.150000X0.150000X-0.587500X0.150000X0.587500X-0.150000X0.587500X-0.150000X-0.587500X0*%
%ADD28R,0.900000X1.200000*%
%ADD29R,0.360000X0.250000*%
%ADD30RoundRect,0.250000X-0.475000X0.250000X-0.475000X-0.250000X0.475000X-0.250000X0.475000X0.250000X0*%
%ADD31RoundRect,0.250000X0.425000X-0.537500X0.425000X0.537500X-0.425000X0.537500X-0.425000X-0.537500X0*%
%ADD32RoundRect,0.250000X0.412500X1.100000X-0.412500X1.100000X-0.412500X-1.100000X0.412500X-1.100000X0*%
%ADD33RoundRect,0.237500X-0.237500X0.300000X-0.237500X-0.300000X0.237500X-0.300000X0.237500X0.300000X0*%
%ADD34RoundRect,0.250000X-0.475000X0.337500X-0.475000X-0.337500X0.475000X-0.337500X0.475000X0.337500X0*%
%ADD35RoundRect,0.250000X0.337500X0.475000X-0.337500X0.475000X-0.337500X-0.475000X0.337500X-0.475000X0*%
%ADD36RoundRect,0.250000X0.537500X0.425000X-0.537500X0.425000X-0.537500X-0.425000X0.537500X-0.425000X0*%
G04 APERTURE END LIST*
D10*
%TO.C,Q8*%
X108475000Y-70825000D03*
X111525000Y-70825000D03*
X108475000Y-67475000D03*
X111525000Y-67475000D03*
D11*
X107720000Y-75450000D03*
X112280000Y-75450000D03*
%TD*%
D12*
%TO.C,F1*%
X135350000Y-66150000D03*
X135350000Y-64325000D03*
%TD*%
D13*
%TO.C,U6*%
X105225000Y-112220000D03*
X105225000Y-110950000D03*
X105225000Y-109680000D03*
X105225000Y-108410000D03*
X110525000Y-108410000D03*
X110525000Y-109680000D03*
X110525000Y-110950000D03*
X110525000Y-112220000D03*
D14*
X107275000Y-111115000D03*
X108475000Y-109515000D03*
X108475000Y-111115000D03*
X107275000Y-109515000D03*
%TD*%
D15*
%TO.C,L1*%
X111072700Y-120175000D03*
X122477300Y-120175000D03*
%TD*%
D16*
%TO.C,U4*%
X121355000Y-65450850D03*
X120085000Y-65450850D03*
X118815000Y-65450850D03*
X117545000Y-65450850D03*
X117545000Y-70899150D03*
X118815000Y-70899150D03*
X120085000Y-70899150D03*
X121355000Y-70899150D03*
%TD*%
D17*
%TO.C,U5*%
X140460000Y-75760000D03*
X140460000Y-75110000D03*
X140460000Y-74460000D03*
X140460000Y-73810000D03*
X138185000Y-73810000D03*
X138185000Y-74460000D03*
X138185000Y-75110000D03*
X138185000Y-75760000D03*
%TD*%
D18*
%TO.C,U2*%
X172500000Y-116437500D03*
X171550000Y-114562500D03*
X173450000Y-114562500D03*
%TD*%
D19*
%TO.C,R30*%
X110975000Y-106200000D03*
X108975000Y-106200000D03*
%TD*%
%TO.C,R29*%
X114925000Y-107850000D03*
X112925000Y-107850000D03*
%TD*%
D20*
%TO.C,R28*%
X115600000Y-111700000D03*
X117600000Y-111700000D03*
%TD*%
%TO.C,R27*%
X105125000Y-106175000D03*
X107125000Y-106175000D03*
%TD*%
D21*
%TO.C,R26*%
X103000000Y-107675000D03*
X103000000Y-105675000D03*
%TD*%
%TO.C,R25*%
X102175000Y-111775000D03*
X102175000Y-109775000D03*
%TD*%
D22*
%TO.C,R23*%
X125040000Y-71550000D03*
X125040000Y-65450000D03*
%TD*%
D23*
%TO.C,R22*%
X148950000Y-73240000D03*
X142850000Y-73240000D03*
%TD*%
D24*
%TO.C,R21*%
X130020000Y-108200000D03*
X130020000Y-113400000D03*
%TD*%
D21*
%TO.C,R16*%
X158930000Y-80130000D03*
X158930000Y-78130000D03*
%TD*%
D20*
%TO.C,R8*%
X109500000Y-90250000D03*
X111500000Y-90250000D03*
%TD*%
%TO.C,R7*%
X105750000Y-78000000D03*
X107750000Y-78000000D03*
%TD*%
D25*
%TO.C,Q18*%
X144830000Y-68840000D03*
X144830000Y-65790000D03*
X141480000Y-68840000D03*
X141480000Y-65790000D03*
D26*
X149455000Y-69595000D03*
X149455000Y-65035000D03*
%TD*%
D11*
%TO.C,Q17*%
X152385000Y-65105000D03*
X156945000Y-65105000D03*
D10*
X153140000Y-73080000D03*
X156190000Y-73080000D03*
X153140000Y-69730000D03*
X156190000Y-69730000D03*
%TD*%
%TO.C,Q16*%
X160485000Y-68835000D03*
X163535000Y-68835000D03*
X160485000Y-65485000D03*
X163535000Y-65485000D03*
D11*
X159730000Y-73460000D03*
X164290000Y-73460000D03*
%TD*%
D10*
%TO.C,Q15*%
X167825000Y-68825000D03*
X170875000Y-68825000D03*
X167825000Y-65475000D03*
X170875000Y-65475000D03*
D11*
X167070000Y-73450000D03*
X171630000Y-73450000D03*
%TD*%
D25*
%TO.C,Q14*%
X169930000Y-77010000D03*
X169930000Y-80060000D03*
X173280000Y-77010000D03*
X173280000Y-80060000D03*
D26*
X165305000Y-76255000D03*
X165305000Y-80815000D03*
%TD*%
D27*
%TO.C,Q13*%
X160930000Y-78115000D03*
X162830000Y-78115000D03*
X161880000Y-76240000D03*
%TD*%
D11*
%TO.C,Q9*%
X116005000Y-87375000D03*
X111445000Y-87375000D03*
D10*
X115250000Y-79400000D03*
X112200000Y-79400000D03*
X115250000Y-82750000D03*
X112200000Y-82750000D03*
%TD*%
%TO.C,Q7*%
X177200000Y-80250000D03*
X180250000Y-80250000D03*
X177200000Y-76900000D03*
X180250000Y-76900000D03*
D11*
X176445000Y-84875000D03*
X181005000Y-84875000D03*
%TD*%
D10*
%TO.C,Q6*%
X175160000Y-68840000D03*
X178210000Y-68840000D03*
X175160000Y-65490000D03*
X178210000Y-65490000D03*
D11*
X174405000Y-73465000D03*
X178965000Y-73465000D03*
%TD*%
D18*
%TO.C,Q1*%
X184050000Y-114512500D03*
X182150000Y-114512500D03*
X183100000Y-116387500D03*
%TD*%
D28*
%TO.C,D4*%
X132460000Y-69320000D03*
X129160000Y-69320000D03*
%TD*%
D29*
%TO.C,D2*%
X127932500Y-71550000D03*
X128772500Y-71550000D03*
%TD*%
D30*
%TO.C,C12*%
X125475000Y-125950000D03*
X125475000Y-124050000D03*
%TD*%
D31*
%TO.C,C11*%
X125375000Y-115225000D03*
X125375000Y-112350000D03*
%TD*%
D30*
%TO.C,C10*%
X113050000Y-109750000D03*
X113050000Y-111650000D03*
%TD*%
D32*
%TO.C,C8*%
X128900000Y-66150000D03*
X132025000Y-66150000D03*
%TD*%
D33*
%TO.C,C4*%
X122500000Y-106887500D03*
X122500000Y-108612500D03*
%TD*%
D34*
%TO.C,C3*%
X124750000Y-106500000D03*
X124750000Y-108575000D03*
%TD*%
D35*
%TO.C,C2*%
X173400000Y-121500000D03*
X171325000Y-121500000D03*
%TD*%
D36*
%TO.C,C1*%
X173450000Y-118850000D03*
X170575000Y-118850000D03*
%TD*%
M02*
