%TF.GenerationSoftware,KiCad,Pcbnew,6.0.2+dfsg-1*%
%TF.CreationDate,2023-01-20T19:42:16-05:00*%
%TF.ProjectId,webasto-mainboard,77656261-7374-46f2-9d6d-61696e626f61,1.0*%
%TF.SameCoordinates,Original*%
%TF.FileFunction,Legend,Bot*%
%TF.FilePolarity,Positive*%
%FSLAX46Y46*%
G04 Gerber Fmt 4.6, Leading zero omitted, Abs format (unit mm)*
G04 Created by KiCad (PCBNEW 6.0.2+dfsg-1) date 2023-01-20 19:42:16*
%MOMM*%
%LPD*%
G01*
G04 APERTURE LIST*
%ADD10C,0.150000*%
%ADD11C,0.120000*%
G04 APERTURE END LIST*
D10*
%TO.C,D1*%
X119688095Y-57777380D02*
X119688095Y-56777380D01*
X119450000Y-56777380D01*
X119307142Y-56825000D01*
X119211904Y-56920238D01*
X119164285Y-57015476D01*
X119116666Y-57205952D01*
X119116666Y-57348809D01*
X119164285Y-57539285D01*
X119211904Y-57634523D01*
X119307142Y-57729761D01*
X119450000Y-57777380D01*
X119688095Y-57777380D01*
X118164285Y-57777380D02*
X118735714Y-57777380D01*
X118450000Y-57777380D02*
X118450000Y-56777380D01*
X118545238Y-56920238D01*
X118640476Y-57015476D01*
X118735714Y-57063095D01*
%TO.C,R3*%
X107452380Y-80333333D02*
X106976190Y-80000000D01*
X107452380Y-79761904D02*
X106452380Y-79761904D01*
X106452380Y-80142857D01*
X106500000Y-80238095D01*
X106547619Y-80285714D01*
X106642857Y-80333333D01*
X106785714Y-80333333D01*
X106880952Y-80285714D01*
X106928571Y-80238095D01*
X106976190Y-80142857D01*
X106976190Y-79761904D01*
X106452380Y-80666666D02*
X106452380Y-81285714D01*
X106833333Y-80952380D01*
X106833333Y-81095238D01*
X106880952Y-81190476D01*
X106928571Y-81238095D01*
X107023809Y-81285714D01*
X107261904Y-81285714D01*
X107357142Y-81238095D01*
X107404761Y-81190476D01*
X107452380Y-81095238D01*
X107452380Y-80809523D01*
X107404761Y-80714285D01*
X107357142Y-80666666D01*
%TO.C,Q11*%
X167967619Y-95468571D02*
X167920000Y-95373333D01*
X167824761Y-95278095D01*
X167681904Y-95135238D01*
X167634285Y-95040000D01*
X167634285Y-94944761D01*
X167872380Y-94992380D02*
X167824761Y-94897142D01*
X167729523Y-94801904D01*
X167539047Y-94754285D01*
X167205714Y-94754285D01*
X167015238Y-94801904D01*
X166920000Y-94897142D01*
X166872380Y-94992380D01*
X166872380Y-95182857D01*
X166920000Y-95278095D01*
X167015238Y-95373333D01*
X167205714Y-95420952D01*
X167539047Y-95420952D01*
X167729523Y-95373333D01*
X167824761Y-95278095D01*
X167872380Y-95182857D01*
X167872380Y-94992380D01*
X167872380Y-96373333D02*
X167872380Y-95801904D01*
X167872380Y-96087619D02*
X166872380Y-96087619D01*
X167015238Y-95992380D01*
X167110476Y-95897142D01*
X167158095Y-95801904D01*
X167872380Y-97325714D02*
X167872380Y-96754285D01*
X167872380Y-97040000D02*
X166872380Y-97040000D01*
X167015238Y-96944761D01*
X167110476Y-96849523D01*
X167158095Y-96754285D01*
%TO.C,R20*%
X167392380Y-78077142D02*
X166916190Y-77743809D01*
X167392380Y-77505714D02*
X166392380Y-77505714D01*
X166392380Y-77886666D01*
X166440000Y-77981904D01*
X166487619Y-78029523D01*
X166582857Y-78077142D01*
X166725714Y-78077142D01*
X166820952Y-78029523D01*
X166868571Y-77981904D01*
X166916190Y-77886666D01*
X166916190Y-77505714D01*
X166487619Y-78458095D02*
X166440000Y-78505714D01*
X166392380Y-78600952D01*
X166392380Y-78839047D01*
X166440000Y-78934285D01*
X166487619Y-78981904D01*
X166582857Y-79029523D01*
X166678095Y-79029523D01*
X166820952Y-78981904D01*
X167392380Y-78410476D01*
X167392380Y-79029523D01*
X166392380Y-79648571D02*
X166392380Y-79743809D01*
X166440000Y-79839047D01*
X166487619Y-79886666D01*
X166582857Y-79934285D01*
X166773333Y-79981904D01*
X167011428Y-79981904D01*
X167201904Y-79934285D01*
X167297142Y-79886666D01*
X167344761Y-79839047D01*
X167392380Y-79743809D01*
X167392380Y-79648571D01*
X167344761Y-79553333D01*
X167297142Y-79505714D01*
X167201904Y-79458095D01*
X167011428Y-79410476D01*
X166773333Y-79410476D01*
X166582857Y-79458095D01*
X166487619Y-79505714D01*
X166440000Y-79553333D01*
X166392380Y-79648571D01*
%TO.C,D3*%
X119938095Y-64927380D02*
X119938095Y-63927380D01*
X119700000Y-63927380D01*
X119557142Y-63975000D01*
X119461904Y-64070238D01*
X119414285Y-64165476D01*
X119366666Y-64355952D01*
X119366666Y-64498809D01*
X119414285Y-64689285D01*
X119461904Y-64784523D01*
X119557142Y-64879761D01*
X119700000Y-64927380D01*
X119938095Y-64927380D01*
X119033333Y-63927380D02*
X118414285Y-63927380D01*
X118747619Y-64308333D01*
X118604761Y-64308333D01*
X118509523Y-64355952D01*
X118461904Y-64403571D01*
X118414285Y-64498809D01*
X118414285Y-64736904D01*
X118461904Y-64832142D01*
X118509523Y-64879761D01*
X118604761Y-64927380D01*
X118890476Y-64927380D01*
X118985714Y-64879761D01*
X119033333Y-64832142D01*
%TO.C,R24*%
X147282857Y-59882380D02*
X147616190Y-59406190D01*
X147854285Y-59882380D02*
X147854285Y-58882380D01*
X147473333Y-58882380D01*
X147378095Y-58930000D01*
X147330476Y-58977619D01*
X147282857Y-59072857D01*
X147282857Y-59215714D01*
X147330476Y-59310952D01*
X147378095Y-59358571D01*
X147473333Y-59406190D01*
X147854285Y-59406190D01*
X146901904Y-58977619D02*
X146854285Y-58930000D01*
X146759047Y-58882380D01*
X146520952Y-58882380D01*
X146425714Y-58930000D01*
X146378095Y-58977619D01*
X146330476Y-59072857D01*
X146330476Y-59168095D01*
X146378095Y-59310952D01*
X146949523Y-59882380D01*
X146330476Y-59882380D01*
X145473333Y-59215714D02*
X145473333Y-59882380D01*
X145711428Y-58834761D02*
X145949523Y-59549047D01*
X145330476Y-59549047D01*
%TO.C,Q12*%
X139981428Y-114087619D02*
X140076666Y-114040000D01*
X140171904Y-113944761D01*
X140314761Y-113801904D01*
X140410000Y-113754285D01*
X140505238Y-113754285D01*
X140457619Y-113992380D02*
X140552857Y-113944761D01*
X140648095Y-113849523D01*
X140695714Y-113659047D01*
X140695714Y-113325714D01*
X140648095Y-113135238D01*
X140552857Y-113040000D01*
X140457619Y-112992380D01*
X140267142Y-112992380D01*
X140171904Y-113040000D01*
X140076666Y-113135238D01*
X140029047Y-113325714D01*
X140029047Y-113659047D01*
X140076666Y-113849523D01*
X140171904Y-113944761D01*
X140267142Y-113992380D01*
X140457619Y-113992380D01*
X139076666Y-113992380D02*
X139648095Y-113992380D01*
X139362380Y-113992380D02*
X139362380Y-112992380D01*
X139457619Y-113135238D01*
X139552857Y-113230476D01*
X139648095Y-113278095D01*
X138695714Y-113087619D02*
X138648095Y-113040000D01*
X138552857Y-112992380D01*
X138314761Y-112992380D01*
X138219523Y-113040000D01*
X138171904Y-113087619D01*
X138124285Y-113182857D01*
X138124285Y-113278095D01*
X138171904Y-113420952D01*
X138743333Y-113992380D01*
X138124285Y-113992380D01*
%TO.C,R10*%
X177052380Y-55857142D02*
X176576190Y-55523809D01*
X177052380Y-55285714D02*
X176052380Y-55285714D01*
X176052380Y-55666666D01*
X176100000Y-55761904D01*
X176147619Y-55809523D01*
X176242857Y-55857142D01*
X176385714Y-55857142D01*
X176480952Y-55809523D01*
X176528571Y-55761904D01*
X176576190Y-55666666D01*
X176576190Y-55285714D01*
X177052380Y-56809523D02*
X177052380Y-56238095D01*
X177052380Y-56523809D02*
X176052380Y-56523809D01*
X176195238Y-56428571D01*
X176290476Y-56333333D01*
X176338095Y-56238095D01*
X176052380Y-57428571D02*
X176052380Y-57523809D01*
X176100000Y-57619047D01*
X176147619Y-57666666D01*
X176242857Y-57714285D01*
X176433333Y-57761904D01*
X176671428Y-57761904D01*
X176861904Y-57714285D01*
X176957142Y-57666666D01*
X177004761Y-57619047D01*
X177052380Y-57523809D01*
X177052380Y-57428571D01*
X177004761Y-57333333D01*
X176957142Y-57285714D01*
X176861904Y-57238095D01*
X176671428Y-57190476D01*
X176433333Y-57190476D01*
X176242857Y-57238095D01*
X176147619Y-57285714D01*
X176100000Y-57333333D01*
X176052380Y-57428571D01*
%TO.C,R1*%
X147802380Y-95583333D02*
X147326190Y-95250000D01*
X147802380Y-95011904D02*
X146802380Y-95011904D01*
X146802380Y-95392857D01*
X146850000Y-95488095D01*
X146897619Y-95535714D01*
X146992857Y-95583333D01*
X147135714Y-95583333D01*
X147230952Y-95535714D01*
X147278571Y-95488095D01*
X147326190Y-95392857D01*
X147326190Y-95011904D01*
X147802380Y-96535714D02*
X147802380Y-95964285D01*
X147802380Y-96250000D02*
X146802380Y-96250000D01*
X146945238Y-96154761D01*
X147040476Y-96059523D01*
X147088095Y-95964285D01*
%TO.C,R18*%
X165192380Y-72287142D02*
X164716190Y-71953809D01*
X165192380Y-71715714D02*
X164192380Y-71715714D01*
X164192380Y-72096666D01*
X164240000Y-72191904D01*
X164287619Y-72239523D01*
X164382857Y-72287142D01*
X164525714Y-72287142D01*
X164620952Y-72239523D01*
X164668571Y-72191904D01*
X164716190Y-72096666D01*
X164716190Y-71715714D01*
X165192380Y-73239523D02*
X165192380Y-72668095D01*
X165192380Y-72953809D02*
X164192380Y-72953809D01*
X164335238Y-72858571D01*
X164430476Y-72763333D01*
X164478095Y-72668095D01*
X164620952Y-73810952D02*
X164573333Y-73715714D01*
X164525714Y-73668095D01*
X164430476Y-73620476D01*
X164382857Y-73620476D01*
X164287619Y-73668095D01*
X164240000Y-73715714D01*
X164192380Y-73810952D01*
X164192380Y-74001428D01*
X164240000Y-74096666D01*
X164287619Y-74144285D01*
X164382857Y-74191904D01*
X164430476Y-74191904D01*
X164525714Y-74144285D01*
X164573333Y-74096666D01*
X164620952Y-74001428D01*
X164620952Y-73810952D01*
X164668571Y-73715714D01*
X164716190Y-73668095D01*
X164811428Y-73620476D01*
X165001904Y-73620476D01*
X165097142Y-73668095D01*
X165144761Y-73715714D01*
X165192380Y-73810952D01*
X165192380Y-74001428D01*
X165144761Y-74096666D01*
X165097142Y-74144285D01*
X165001904Y-74191904D01*
X164811428Y-74191904D01*
X164716190Y-74144285D01*
X164668571Y-74096666D01*
X164620952Y-74001428D01*
%TO.C,Q4*%
X110947619Y-76592261D02*
X110900000Y-76497023D01*
X110804761Y-76401785D01*
X110661904Y-76258928D01*
X110614285Y-76163690D01*
X110614285Y-76068452D01*
X110852380Y-76116071D02*
X110804761Y-76020833D01*
X110709523Y-75925595D01*
X110519047Y-75877976D01*
X110185714Y-75877976D01*
X109995238Y-75925595D01*
X109900000Y-76020833D01*
X109852380Y-76116071D01*
X109852380Y-76306547D01*
X109900000Y-76401785D01*
X109995238Y-76497023D01*
X110185714Y-76544642D01*
X110519047Y-76544642D01*
X110709523Y-76497023D01*
X110804761Y-76401785D01*
X110852380Y-76306547D01*
X110852380Y-76116071D01*
X110185714Y-77401785D02*
X110852380Y-77401785D01*
X109804761Y-77163690D02*
X110519047Y-76925595D01*
X110519047Y-77544642D01*
%TO.C,R15*%
X168232380Y-99297142D02*
X167756190Y-98963809D01*
X168232380Y-98725714D02*
X167232380Y-98725714D01*
X167232380Y-99106666D01*
X167280000Y-99201904D01*
X167327619Y-99249523D01*
X167422857Y-99297142D01*
X167565714Y-99297142D01*
X167660952Y-99249523D01*
X167708571Y-99201904D01*
X167756190Y-99106666D01*
X167756190Y-98725714D01*
X168232380Y-100249523D02*
X168232380Y-99678095D01*
X168232380Y-99963809D02*
X167232380Y-99963809D01*
X167375238Y-99868571D01*
X167470476Y-99773333D01*
X167518095Y-99678095D01*
X167232380Y-101154285D02*
X167232380Y-100678095D01*
X167708571Y-100630476D01*
X167660952Y-100678095D01*
X167613333Y-100773333D01*
X167613333Y-101011428D01*
X167660952Y-101106666D01*
X167708571Y-101154285D01*
X167803809Y-101201904D01*
X168041904Y-101201904D01*
X168137142Y-101154285D01*
X168184761Y-101106666D01*
X168232380Y-101011428D01*
X168232380Y-100773333D01*
X168184761Y-100678095D01*
X168137142Y-100630476D01*
%TO.C,Q3*%
X174547619Y-85154761D02*
X174500000Y-85059523D01*
X174404761Y-84964285D01*
X174261904Y-84821428D01*
X174214285Y-84726190D01*
X174214285Y-84630952D01*
X174452380Y-84678571D02*
X174404761Y-84583333D01*
X174309523Y-84488095D01*
X174119047Y-84440476D01*
X173785714Y-84440476D01*
X173595238Y-84488095D01*
X173500000Y-84583333D01*
X173452380Y-84678571D01*
X173452380Y-84869047D01*
X173500000Y-84964285D01*
X173595238Y-85059523D01*
X173785714Y-85107142D01*
X174119047Y-85107142D01*
X174309523Y-85059523D01*
X174404761Y-84964285D01*
X174452380Y-84869047D01*
X174452380Y-84678571D01*
X173452380Y-85440476D02*
X173452380Y-86059523D01*
X173833333Y-85726190D01*
X173833333Y-85869047D01*
X173880952Y-85964285D01*
X173928571Y-86011904D01*
X174023809Y-86059523D01*
X174261904Y-86059523D01*
X174357142Y-86011904D01*
X174404761Y-85964285D01*
X174452380Y-85869047D01*
X174452380Y-85583333D01*
X174404761Y-85488095D01*
X174357142Y-85440476D01*
%TO.C,C7*%
X117216666Y-58657142D02*
X117264285Y-58704761D01*
X117407142Y-58752380D01*
X117502380Y-58752380D01*
X117645238Y-58704761D01*
X117740476Y-58609523D01*
X117788095Y-58514285D01*
X117835714Y-58323809D01*
X117835714Y-58180952D01*
X117788095Y-57990476D01*
X117740476Y-57895238D01*
X117645238Y-57800000D01*
X117502380Y-57752380D01*
X117407142Y-57752380D01*
X117264285Y-57800000D01*
X117216666Y-57847619D01*
X116883333Y-57752380D02*
X116216666Y-57752380D01*
X116645238Y-58752380D01*
%TO.C,R4*%
X116352380Y-89083333D02*
X115876190Y-88750000D01*
X116352380Y-88511904D02*
X115352380Y-88511904D01*
X115352380Y-88892857D01*
X115400000Y-88988095D01*
X115447619Y-89035714D01*
X115542857Y-89083333D01*
X115685714Y-89083333D01*
X115780952Y-89035714D01*
X115828571Y-88988095D01*
X115876190Y-88892857D01*
X115876190Y-88511904D01*
X115685714Y-89940476D02*
X116352380Y-89940476D01*
X115304761Y-89702380D02*
X116019047Y-89464285D01*
X116019047Y-90083333D01*
%TO.C,Q2*%
X172647619Y-72404761D02*
X172600000Y-72309523D01*
X172504761Y-72214285D01*
X172361904Y-72071428D01*
X172314285Y-71976190D01*
X172314285Y-71880952D01*
X172552380Y-71928571D02*
X172504761Y-71833333D01*
X172409523Y-71738095D01*
X172219047Y-71690476D01*
X171885714Y-71690476D01*
X171695238Y-71738095D01*
X171600000Y-71833333D01*
X171552380Y-71928571D01*
X171552380Y-72119047D01*
X171600000Y-72214285D01*
X171695238Y-72309523D01*
X171885714Y-72357142D01*
X172219047Y-72357142D01*
X172409523Y-72309523D01*
X172504761Y-72214285D01*
X172552380Y-72119047D01*
X172552380Y-71928571D01*
X171647619Y-72738095D02*
X171600000Y-72785714D01*
X171552380Y-72880952D01*
X171552380Y-73119047D01*
X171600000Y-73214285D01*
X171647619Y-73261904D01*
X171742857Y-73309523D01*
X171838095Y-73309523D01*
X171980952Y-73261904D01*
X172552380Y-72690476D01*
X172552380Y-73309523D01*
%TO.C,Q10*%
X158767619Y-95468571D02*
X158720000Y-95373333D01*
X158624761Y-95278095D01*
X158481904Y-95135238D01*
X158434285Y-95040000D01*
X158434285Y-94944761D01*
X158672380Y-94992380D02*
X158624761Y-94897142D01*
X158529523Y-94801904D01*
X158339047Y-94754285D01*
X158005714Y-94754285D01*
X157815238Y-94801904D01*
X157720000Y-94897142D01*
X157672380Y-94992380D01*
X157672380Y-95182857D01*
X157720000Y-95278095D01*
X157815238Y-95373333D01*
X158005714Y-95420952D01*
X158339047Y-95420952D01*
X158529523Y-95373333D01*
X158624761Y-95278095D01*
X158672380Y-95182857D01*
X158672380Y-94992380D01*
X158672380Y-96373333D02*
X158672380Y-95801904D01*
X158672380Y-96087619D02*
X157672380Y-96087619D01*
X157815238Y-95992380D01*
X157910476Y-95897142D01*
X157958095Y-95801904D01*
X157672380Y-96992380D02*
X157672380Y-97087619D01*
X157720000Y-97182857D01*
X157767619Y-97230476D01*
X157862857Y-97278095D01*
X158053333Y-97325714D01*
X158291428Y-97325714D01*
X158481904Y-97278095D01*
X158577142Y-97230476D01*
X158624761Y-97182857D01*
X158672380Y-97087619D01*
X158672380Y-96992380D01*
X158624761Y-96897142D01*
X158577142Y-96849523D01*
X158481904Y-96801904D01*
X158291428Y-96754285D01*
X158053333Y-96754285D01*
X157862857Y-96801904D01*
X157767619Y-96849523D01*
X157720000Y-96897142D01*
X157672380Y-96992380D01*
%TO.C,R17*%
X130282380Y-111857142D02*
X129806190Y-111523809D01*
X130282380Y-111285714D02*
X129282380Y-111285714D01*
X129282380Y-111666666D01*
X129330000Y-111761904D01*
X129377619Y-111809523D01*
X129472857Y-111857142D01*
X129615714Y-111857142D01*
X129710952Y-111809523D01*
X129758571Y-111761904D01*
X129806190Y-111666666D01*
X129806190Y-111285714D01*
X130282380Y-112809523D02*
X130282380Y-112238095D01*
X130282380Y-112523809D02*
X129282380Y-112523809D01*
X129425238Y-112428571D01*
X129520476Y-112333333D01*
X129568095Y-112238095D01*
X129282380Y-113142857D02*
X129282380Y-113809523D01*
X130282380Y-113380952D01*
%TO.C,R2*%
X172666666Y-81452380D02*
X173000000Y-80976190D01*
X173238095Y-81452380D02*
X173238095Y-80452380D01*
X172857142Y-80452380D01*
X172761904Y-80500000D01*
X172714285Y-80547619D01*
X172666666Y-80642857D01*
X172666666Y-80785714D01*
X172714285Y-80880952D01*
X172761904Y-80928571D01*
X172857142Y-80976190D01*
X173238095Y-80976190D01*
X172285714Y-80547619D02*
X172238095Y-80500000D01*
X172142857Y-80452380D01*
X171904761Y-80452380D01*
X171809523Y-80500000D01*
X171761904Y-80547619D01*
X171714285Y-80642857D01*
X171714285Y-80738095D01*
X171761904Y-80880952D01*
X172333333Y-81452380D01*
X171714285Y-81452380D01*
%TO.C,C5*%
X122287142Y-69833333D02*
X122334761Y-69785714D01*
X122382380Y-69642857D01*
X122382380Y-69547619D01*
X122334761Y-69404761D01*
X122239523Y-69309523D01*
X122144285Y-69261904D01*
X121953809Y-69214285D01*
X121810952Y-69214285D01*
X121620476Y-69261904D01*
X121525238Y-69309523D01*
X121430000Y-69404761D01*
X121382380Y-69547619D01*
X121382380Y-69642857D01*
X121430000Y-69785714D01*
X121477619Y-69833333D01*
X121382380Y-70738095D02*
X121382380Y-70261904D01*
X121858571Y-70214285D01*
X121810952Y-70261904D01*
X121763333Y-70357142D01*
X121763333Y-70595238D01*
X121810952Y-70690476D01*
X121858571Y-70738095D01*
X121953809Y-70785714D01*
X122191904Y-70785714D01*
X122287142Y-70738095D01*
X122334761Y-70690476D01*
X122382380Y-70595238D01*
X122382380Y-70357142D01*
X122334761Y-70261904D01*
X122287142Y-70214285D01*
%TO.C,Q5*%
X111545238Y-90922619D02*
X111640476Y-90875000D01*
X111735714Y-90779761D01*
X111878571Y-90636904D01*
X111973809Y-90589285D01*
X112069047Y-90589285D01*
X112021428Y-90827380D02*
X112116666Y-90779761D01*
X112211904Y-90684523D01*
X112259523Y-90494047D01*
X112259523Y-90160714D01*
X112211904Y-89970238D01*
X112116666Y-89875000D01*
X112021428Y-89827380D01*
X111830952Y-89827380D01*
X111735714Y-89875000D01*
X111640476Y-89970238D01*
X111592857Y-90160714D01*
X111592857Y-90494047D01*
X111640476Y-90684523D01*
X111735714Y-90779761D01*
X111830952Y-90827380D01*
X112021428Y-90827380D01*
X110688095Y-89827380D02*
X111164285Y-89827380D01*
X111211904Y-90303571D01*
X111164285Y-90255952D01*
X111069047Y-90208333D01*
X110830952Y-90208333D01*
X110735714Y-90255952D01*
X110688095Y-90303571D01*
X110640476Y-90398809D01*
X110640476Y-90636904D01*
X110688095Y-90732142D01*
X110735714Y-90779761D01*
X110830952Y-90827380D01*
X111069047Y-90827380D01*
X111164285Y-90779761D01*
X111211904Y-90732142D01*
%TO.C,R6*%
X180666666Y-83802380D02*
X181000000Y-83326190D01*
X181238095Y-83802380D02*
X181238095Y-82802380D01*
X180857142Y-82802380D01*
X180761904Y-82850000D01*
X180714285Y-82897619D01*
X180666666Y-82992857D01*
X180666666Y-83135714D01*
X180714285Y-83230952D01*
X180761904Y-83278571D01*
X180857142Y-83326190D01*
X181238095Y-83326190D01*
X179809523Y-82802380D02*
X180000000Y-82802380D01*
X180095238Y-82850000D01*
X180142857Y-82897619D01*
X180238095Y-83040476D01*
X180285714Y-83230952D01*
X180285714Y-83611904D01*
X180238095Y-83707142D01*
X180190476Y-83754761D01*
X180095238Y-83802380D01*
X179904761Y-83802380D01*
X179809523Y-83754761D01*
X179761904Y-83707142D01*
X179714285Y-83611904D01*
X179714285Y-83373809D01*
X179761904Y-83278571D01*
X179809523Y-83230952D01*
X179904761Y-83183333D01*
X180095238Y-83183333D01*
X180190476Y-83230952D01*
X180238095Y-83278571D01*
X180285714Y-83373809D01*
%TO.C,C9*%
X103482142Y-112283333D02*
X103529761Y-112235714D01*
X103577380Y-112092857D01*
X103577380Y-111997619D01*
X103529761Y-111854761D01*
X103434523Y-111759523D01*
X103339285Y-111711904D01*
X103148809Y-111664285D01*
X103005952Y-111664285D01*
X102815476Y-111711904D01*
X102720238Y-111759523D01*
X102625000Y-111854761D01*
X102577380Y-111997619D01*
X102577380Y-112092857D01*
X102625000Y-112235714D01*
X102672619Y-112283333D01*
X103577380Y-112759523D02*
X103577380Y-112950000D01*
X103529761Y-113045238D01*
X103482142Y-113092857D01*
X103339285Y-113188095D01*
X103148809Y-113235714D01*
X102767857Y-113235714D01*
X102672619Y-113188095D01*
X102625000Y-113140476D01*
X102577380Y-113045238D01*
X102577380Y-112854761D01*
X102625000Y-112759523D01*
X102672619Y-112711904D01*
X102767857Y-112664285D01*
X103005952Y-112664285D01*
X103101190Y-112711904D01*
X103148809Y-112759523D01*
X103196428Y-112854761D01*
X103196428Y-113045238D01*
X103148809Y-113140476D01*
X103101190Y-113188095D01*
X103005952Y-113235714D01*
%TO.C,R9*%
X161552380Y-56583333D02*
X161076190Y-56250000D01*
X161552380Y-56011904D02*
X160552380Y-56011904D01*
X160552380Y-56392857D01*
X160600000Y-56488095D01*
X160647619Y-56535714D01*
X160742857Y-56583333D01*
X160885714Y-56583333D01*
X160980952Y-56535714D01*
X161028571Y-56488095D01*
X161076190Y-56392857D01*
X161076190Y-56011904D01*
X161552380Y-57059523D02*
X161552380Y-57250000D01*
X161504761Y-57345238D01*
X161457142Y-57392857D01*
X161314285Y-57488095D01*
X161123809Y-57535714D01*
X160742857Y-57535714D01*
X160647619Y-57488095D01*
X160600000Y-57440476D01*
X160552380Y-57345238D01*
X160552380Y-57154761D01*
X160600000Y-57059523D01*
X160647619Y-57011904D01*
X160742857Y-56964285D01*
X160980952Y-56964285D01*
X161076190Y-57011904D01*
X161123809Y-57059523D01*
X161171428Y-57154761D01*
X161171428Y-57345238D01*
X161123809Y-57440476D01*
X161076190Y-57488095D01*
X160980952Y-57535714D01*
%TO.C,D5*%
X106213095Y-115009880D02*
X106213095Y-114009880D01*
X105975000Y-114009880D01*
X105832142Y-114057500D01*
X105736904Y-114152738D01*
X105689285Y-114247976D01*
X105641666Y-114438452D01*
X105641666Y-114581309D01*
X105689285Y-114771785D01*
X105736904Y-114867023D01*
X105832142Y-114962261D01*
X105975000Y-115009880D01*
X106213095Y-115009880D01*
X104736904Y-114009880D02*
X105213095Y-114009880D01*
X105260714Y-114486071D01*
X105213095Y-114438452D01*
X105117857Y-114390833D01*
X104879761Y-114390833D01*
X104784523Y-114438452D01*
X104736904Y-114486071D01*
X104689285Y-114581309D01*
X104689285Y-114819404D01*
X104736904Y-114914642D01*
X104784523Y-114962261D01*
X104879761Y-115009880D01*
X105117857Y-115009880D01*
X105213095Y-114962261D01*
X105260714Y-114914642D01*
%TO.C,R19*%
X143144450Y-115475312D02*
X143043435Y-114902893D01*
X143548511Y-115071251D02*
X142841404Y-114364145D01*
X142572030Y-114633519D01*
X142538358Y-114734534D01*
X142538358Y-114801877D01*
X142572030Y-114902893D01*
X142673045Y-115003908D01*
X142774061Y-115037580D01*
X142841404Y-115037580D01*
X142942419Y-115003908D01*
X143211793Y-114734534D01*
X142471015Y-116148748D02*
X142875076Y-115744687D01*
X142673045Y-115946717D02*
X141965938Y-115239610D01*
X142134297Y-115273282D01*
X142268984Y-115273282D01*
X142370000Y-115239610D01*
X142134297Y-116485465D02*
X141999610Y-116620152D01*
X141898595Y-116653824D01*
X141831251Y-116653824D01*
X141662893Y-116620152D01*
X141494534Y-116519137D01*
X141225160Y-116249763D01*
X141191488Y-116148748D01*
X141191488Y-116081404D01*
X141225160Y-115980389D01*
X141359847Y-115845702D01*
X141460862Y-115812030D01*
X141528206Y-115812030D01*
X141629221Y-115845702D01*
X141797580Y-116014061D01*
X141831251Y-116115076D01*
X141831251Y-116182419D01*
X141797580Y-116283435D01*
X141662893Y-116418122D01*
X141561877Y-116451793D01*
X141494534Y-116451793D01*
X141393519Y-116418122D01*
%TO.C,C6*%
X124306666Y-61167142D02*
X124354285Y-61214761D01*
X124497142Y-61262380D01*
X124592380Y-61262380D01*
X124735238Y-61214761D01*
X124830476Y-61119523D01*
X124878095Y-61024285D01*
X124925714Y-60833809D01*
X124925714Y-60690952D01*
X124878095Y-60500476D01*
X124830476Y-60405238D01*
X124735238Y-60310000D01*
X124592380Y-60262380D01*
X124497142Y-60262380D01*
X124354285Y-60310000D01*
X124306666Y-60357619D01*
X123449523Y-60262380D02*
X123640000Y-60262380D01*
X123735238Y-60310000D01*
X123782857Y-60357619D01*
X123878095Y-60500476D01*
X123925714Y-60690952D01*
X123925714Y-61071904D01*
X123878095Y-61167142D01*
X123830476Y-61214761D01*
X123735238Y-61262380D01*
X123544761Y-61262380D01*
X123449523Y-61214761D01*
X123401904Y-61167142D01*
X123354285Y-61071904D01*
X123354285Y-60833809D01*
X123401904Y-60738571D01*
X123449523Y-60690952D01*
X123544761Y-60643333D01*
X123735238Y-60643333D01*
X123830476Y-60690952D01*
X123878095Y-60738571D01*
X123925714Y-60833809D01*
%TO.C,R11*%
X105642857Y-65352380D02*
X105976190Y-64876190D01*
X106214285Y-65352380D02*
X106214285Y-64352380D01*
X105833333Y-64352380D01*
X105738095Y-64400000D01*
X105690476Y-64447619D01*
X105642857Y-64542857D01*
X105642857Y-64685714D01*
X105690476Y-64780952D01*
X105738095Y-64828571D01*
X105833333Y-64876190D01*
X106214285Y-64876190D01*
X104690476Y-65352380D02*
X105261904Y-65352380D01*
X104976190Y-65352380D02*
X104976190Y-64352380D01*
X105071428Y-64495238D01*
X105166666Y-64590476D01*
X105261904Y-64638095D01*
X103738095Y-65352380D02*
X104309523Y-65352380D01*
X104023809Y-65352380D02*
X104023809Y-64352380D01*
X104119047Y-64495238D01*
X104214285Y-64590476D01*
X104309523Y-64638095D01*
%TO.C,R12*%
X111392857Y-65452380D02*
X111726190Y-64976190D01*
X111964285Y-65452380D02*
X111964285Y-64452380D01*
X111583333Y-64452380D01*
X111488095Y-64500000D01*
X111440476Y-64547619D01*
X111392857Y-64642857D01*
X111392857Y-64785714D01*
X111440476Y-64880952D01*
X111488095Y-64928571D01*
X111583333Y-64976190D01*
X111964285Y-64976190D01*
X110440476Y-65452380D02*
X111011904Y-65452380D01*
X110726190Y-65452380D02*
X110726190Y-64452380D01*
X110821428Y-64595238D01*
X110916666Y-64690476D01*
X111011904Y-64738095D01*
X110059523Y-64547619D02*
X110011904Y-64500000D01*
X109916666Y-64452380D01*
X109678571Y-64452380D01*
X109583333Y-64500000D01*
X109535714Y-64547619D01*
X109488095Y-64642857D01*
X109488095Y-64738095D01*
X109535714Y-64880952D01*
X110107142Y-65452380D01*
X109488095Y-65452380D01*
%TO.C,R5*%
X178666666Y-75952380D02*
X179000000Y-75476190D01*
X179238095Y-75952380D02*
X179238095Y-74952380D01*
X178857142Y-74952380D01*
X178761904Y-75000000D01*
X178714285Y-75047619D01*
X178666666Y-75142857D01*
X178666666Y-75285714D01*
X178714285Y-75380952D01*
X178761904Y-75428571D01*
X178857142Y-75476190D01*
X179238095Y-75476190D01*
X177761904Y-74952380D02*
X178238095Y-74952380D01*
X178285714Y-75428571D01*
X178238095Y-75380952D01*
X178142857Y-75333333D01*
X177904761Y-75333333D01*
X177809523Y-75380952D01*
X177761904Y-75428571D01*
X177714285Y-75523809D01*
X177714285Y-75761904D01*
X177761904Y-75857142D01*
X177809523Y-75904761D01*
X177904761Y-75952380D01*
X178142857Y-75952380D01*
X178238095Y-75904761D01*
X178285714Y-75857142D01*
%TO.C,R14*%
X160922380Y-101287142D02*
X160446190Y-100953809D01*
X160922380Y-100715714D02*
X159922380Y-100715714D01*
X159922380Y-101096666D01*
X159970000Y-101191904D01*
X160017619Y-101239523D01*
X160112857Y-101287142D01*
X160255714Y-101287142D01*
X160350952Y-101239523D01*
X160398571Y-101191904D01*
X160446190Y-101096666D01*
X160446190Y-100715714D01*
X160922380Y-102239523D02*
X160922380Y-101668095D01*
X160922380Y-101953809D02*
X159922380Y-101953809D01*
X160065238Y-101858571D01*
X160160476Y-101763333D01*
X160208095Y-101668095D01*
X160255714Y-103096666D02*
X160922380Y-103096666D01*
X159874761Y-102858571D02*
X160589047Y-102620476D01*
X160589047Y-103239523D01*
%TO.C,R13*%
X176392857Y-97202380D02*
X176726190Y-96726190D01*
X176964285Y-97202380D02*
X176964285Y-96202380D01*
X176583333Y-96202380D01*
X176488095Y-96250000D01*
X176440476Y-96297619D01*
X176392857Y-96392857D01*
X176392857Y-96535714D01*
X176440476Y-96630952D01*
X176488095Y-96678571D01*
X176583333Y-96726190D01*
X176964285Y-96726190D01*
X175440476Y-97202380D02*
X176011904Y-97202380D01*
X175726190Y-97202380D02*
X175726190Y-96202380D01*
X175821428Y-96345238D01*
X175916666Y-96440476D01*
X176011904Y-96488095D01*
X175107142Y-96202380D02*
X174488095Y-96202380D01*
X174821428Y-96583333D01*
X174678571Y-96583333D01*
X174583333Y-96630952D01*
X174535714Y-96678571D01*
X174488095Y-96773809D01*
X174488095Y-97011904D01*
X174535714Y-97107142D01*
X174583333Y-97154761D01*
X174678571Y-97202380D01*
X174964285Y-97202380D01*
X175059523Y-97154761D01*
X175107142Y-97107142D01*
D11*
%TO.C,D1*%
X119450000Y-55725000D02*
X118150000Y-55725000D01*
X119450000Y-56525000D02*
X118150000Y-56525000D01*
X118150000Y-56525000D02*
X118150000Y-55725000D01*
%TO.C,R3*%
X108265000Y-80727064D02*
X108265000Y-80272936D01*
X109735000Y-80727064D02*
X109735000Y-80272936D01*
%TO.C,Q11*%
X166220000Y-96050000D02*
X166220000Y-96700000D01*
X163100000Y-96050000D02*
X163100000Y-96700000D01*
X163100000Y-96050000D02*
X163100000Y-94375000D01*
X166220000Y-96050000D02*
X166220000Y-95400000D01*
%TO.C,R20*%
X164555000Y-78947064D02*
X164555000Y-78492936D01*
X166025000Y-78947064D02*
X166025000Y-78492936D01*
%TO.C,D3*%
X116950000Y-61475000D02*
X120850000Y-61475000D01*
X116950000Y-63475000D02*
X120850000Y-63475000D01*
X116950000Y-63475000D02*
X116950000Y-61475000D01*
%TO.C,R24*%
X146867064Y-61815000D02*
X146412936Y-61815000D01*
X146867064Y-60345000D02*
X146412936Y-60345000D01*
%TO.C,Q12*%
X135830000Y-114830000D02*
X136480000Y-114830000D01*
X135830000Y-111710000D02*
X136480000Y-111710000D01*
X135830000Y-114830000D02*
X134155000Y-114830000D01*
X135830000Y-111710000D02*
X135180000Y-111710000D01*
%TO.C,R10*%
X178985000Y-56272936D02*
X178985000Y-56727064D01*
X177515000Y-56272936D02*
X177515000Y-56727064D01*
%TO.C,R1*%
X149735000Y-95522936D02*
X149735000Y-95977064D01*
X148265000Y-95522936D02*
X148265000Y-95977064D01*
%TO.C,R18*%
X167685000Y-72727064D02*
X167685000Y-72272936D01*
X166215000Y-72727064D02*
X166215000Y-72272936D01*
%TO.C,Q4*%
X106440000Y-76687500D02*
X106440000Y-76037500D01*
X106440000Y-76687500D02*
X106440000Y-77337500D01*
X109560000Y-76687500D02*
X109560000Y-76037500D01*
X109560000Y-76687500D02*
X109560000Y-78362500D01*
%TO.C,R15*%
X166535000Y-99802936D02*
X166535000Y-100257064D01*
X165065000Y-99802936D02*
X165065000Y-100257064D01*
%TO.C,Q3*%
X178060000Y-84000000D02*
X178060000Y-83350000D01*
X174940000Y-84000000D02*
X174940000Y-82325000D01*
X178060000Y-84000000D02*
X178060000Y-84650000D01*
X174940000Y-84000000D02*
X174940000Y-84650000D01*
%TO.C,C7*%
X118263748Y-59290000D02*
X118786252Y-59290000D01*
X118263748Y-60760000D02*
X118786252Y-60760000D01*
%TO.C,R4*%
X114985000Y-89477064D02*
X114985000Y-89022936D01*
X113515000Y-89477064D02*
X113515000Y-89022936D01*
%TO.C,Q2*%
X172940000Y-72500000D02*
X172940000Y-73150000D01*
X176060000Y-72500000D02*
X176060000Y-71850000D01*
X172940000Y-72500000D02*
X172940000Y-70825000D01*
X176060000Y-72500000D02*
X176060000Y-73150000D01*
%TO.C,Q10*%
X159060000Y-96040000D02*
X159060000Y-94365000D01*
X159060000Y-96040000D02*
X159060000Y-96690000D01*
X162180000Y-96040000D02*
X162180000Y-96690000D01*
X162180000Y-96040000D02*
X162180000Y-95390000D01*
%TO.C,R17*%
X132285000Y-112887064D02*
X132285000Y-112432936D01*
X130815000Y-112887064D02*
X130815000Y-112432936D01*
%TO.C,R2*%
X172272936Y-83735000D02*
X172727064Y-83735000D01*
X172272936Y-82265000D02*
X172727064Y-82265000D01*
%TO.C,C5*%
X120985000Y-70261252D02*
X120985000Y-69738748D01*
X119515000Y-70261252D02*
X119515000Y-69738748D01*
%TO.C,Q5*%
X113010000Y-87312500D02*
X113010000Y-86662500D01*
X109890000Y-87312500D02*
X109890000Y-87962500D01*
X109890000Y-87312500D02*
X109890000Y-86662500D01*
X113010000Y-87312500D02*
X113010000Y-88987500D01*
%TO.C,R6*%
X180727064Y-84265000D02*
X180272936Y-84265000D01*
X180727064Y-85735000D02*
X180272936Y-85735000D01*
%TO.C,C9*%
X104265000Y-112138748D02*
X104265000Y-112661252D01*
X105735000Y-112138748D02*
X105735000Y-112661252D01*
%TO.C,R9*%
X162015000Y-56522936D02*
X162015000Y-56977064D01*
X163485000Y-56522936D02*
X163485000Y-56977064D01*
%TO.C,D5*%
X106600000Y-112982500D02*
X106600000Y-114282500D01*
X107400000Y-114282500D02*
X106600000Y-114282500D01*
X107400000Y-112982500D02*
X107400000Y-114282500D01*
%TO.C,R19*%
X141296272Y-115273175D02*
X141617389Y-114952058D01*
X140256825Y-114233728D02*
X140577942Y-113912611D01*
%TO.C,C6*%
X124401252Y-61755000D02*
X123878748Y-61755000D01*
X124401252Y-63225000D02*
X123878748Y-63225000D01*
%TO.C,R11*%
X104772936Y-62515000D02*
X105227064Y-62515000D01*
X104772936Y-63985000D02*
X105227064Y-63985000D01*
%TO.C,R12*%
X110977064Y-63735000D02*
X110522936Y-63735000D01*
X110977064Y-62265000D02*
X110522936Y-62265000D01*
%TO.C,R5*%
X178477064Y-72765000D02*
X178022936Y-72765000D01*
X178477064Y-74235000D02*
X178022936Y-74235000D01*
%TO.C,R14*%
X161525000Y-99802936D02*
X161525000Y-100257064D01*
X162995000Y-99802936D02*
X162995000Y-100257064D01*
%TO.C,R13*%
X175522936Y-95485000D02*
X175977064Y-95485000D01*
X175522936Y-94015000D02*
X175977064Y-94015000D01*
%TD*%
M02*
