%TF.GenerationSoftware,KiCad,Pcbnew,6.0.11-2627ca5db0~126~ubuntu22.04.1*%
%TF.CreationDate,2023-02-22T13:25:34-05:00*%
%TF.ProjectId,webasto-mainboard,77656261-7374-46f2-9d6d-61696e626f61,2.0*%
%TF.SameCoordinates,Original*%
%TF.FileFunction,Legend,Top*%
%TF.FilePolarity,Positive*%
%FSLAX46Y46*%
G04 Gerber Fmt 4.6, Leading zero omitted, Abs format (unit mm)*
G04 Created by KiCad (PCBNEW 6.0.11-2627ca5db0~126~ubuntu22.04.1) date 2023-02-22 13:25:34*
%MOMM*%
%LPD*%
G01*
G04 APERTURE LIST*
%ADD10C,0.150000*%
%ADD11C,0.127000*%
%ADD12C,0.101600*%
%ADD13C,0.120000*%
%ADD14C,0.010000*%
%ADD15C,0.203200*%
%ADD16C,0.066040*%
G04 APERTURE END LIST*
D10*
X100785714Y-96285714D02*
X101023809Y-96952380D01*
X101261904Y-96285714D01*
X101595238Y-96047619D02*
X101642857Y-96000000D01*
X101738095Y-95952380D01*
X101976190Y-95952380D01*
X102071428Y-96000000D01*
X102119047Y-96047619D01*
X102166666Y-96142857D01*
X102166666Y-96238095D01*
X102119047Y-96380952D01*
X101547619Y-96952380D01*
X102166666Y-96952380D01*
X102595238Y-96857142D02*
X102642857Y-96904761D01*
X102595238Y-96952380D01*
X102547619Y-96904761D01*
X102595238Y-96857142D01*
X102595238Y-96952380D01*
X103261904Y-95952380D02*
X103357142Y-95952380D01*
X103452380Y-96000000D01*
X103499999Y-96047619D01*
X103547619Y-96142857D01*
X103595238Y-96333333D01*
X103595238Y-96571428D01*
X103547619Y-96761904D01*
X103499999Y-96857142D01*
X103452380Y-96904761D01*
X103357142Y-96952380D01*
X103261904Y-96952380D01*
X103166666Y-96904761D01*
X103119047Y-96857142D01*
X103071428Y-96761904D01*
X103023809Y-96571428D01*
X103023809Y-96333333D01*
X103071428Y-96142857D01*
X103119047Y-96047619D01*
X103166666Y-96000000D01*
X103261904Y-95952380D01*
X105071428Y-97333333D02*
X105023809Y-97285714D01*
X104928571Y-97142857D01*
X104880952Y-97047619D01*
X104833333Y-96904761D01*
X104785714Y-96666666D01*
X104785714Y-96476190D01*
X104833333Y-96238095D01*
X104880952Y-96095238D01*
X104928571Y-96000000D01*
X105023809Y-95857142D01*
X105071428Y-95809523D01*
X105880952Y-96904761D02*
X105785714Y-96952380D01*
X105595238Y-96952380D01*
X105499999Y-96904761D01*
X105452380Y-96857142D01*
X105404761Y-96761904D01*
X105404761Y-96476190D01*
X105452380Y-96380952D01*
X105499999Y-96333333D01*
X105595238Y-96285714D01*
X105785714Y-96285714D01*
X105880952Y-96333333D01*
X106214285Y-97333333D02*
X106261904Y-97285714D01*
X106357142Y-97142857D01*
X106404761Y-97047619D01*
X106452380Y-96904761D01*
X106499999Y-96666666D01*
X106499999Y-96476190D01*
X106452380Y-96238095D01*
X106404761Y-96095238D01*
X106357142Y-96000000D01*
X106261904Y-95857142D01*
X106214285Y-95809523D01*
X107690476Y-96047619D02*
X107738095Y-96000000D01*
X107833333Y-95952380D01*
X108071428Y-95952380D01*
X108166666Y-96000000D01*
X108214285Y-96047619D01*
X108261904Y-96142857D01*
X108261904Y-96238095D01*
X108214285Y-96380952D01*
X107642857Y-96952380D01*
X108261904Y-96952380D01*
X108880952Y-95952380D02*
X108976190Y-95952380D01*
X109071428Y-96000000D01*
X109119047Y-96047619D01*
X109166666Y-96142857D01*
X109214285Y-96333333D01*
X109214285Y-96571428D01*
X109166666Y-96761904D01*
X109119047Y-96857142D01*
X109071428Y-96904761D01*
X108976190Y-96952380D01*
X108880952Y-96952380D01*
X108785714Y-96904761D01*
X108738095Y-96857142D01*
X108690476Y-96761904D01*
X108642857Y-96571428D01*
X108642857Y-96333333D01*
X108690476Y-96142857D01*
X108738095Y-96047619D01*
X108785714Y-96000000D01*
X108880952Y-95952380D01*
X109595238Y-96047619D02*
X109642857Y-96000000D01*
X109738095Y-95952380D01*
X109976190Y-95952380D01*
X110071428Y-96000000D01*
X110119047Y-96047619D01*
X110166666Y-96142857D01*
X110166666Y-96238095D01*
X110119047Y-96380952D01*
X109547619Y-96952380D01*
X110166666Y-96952380D01*
X110500000Y-95952380D02*
X111119047Y-95952380D01*
X110785714Y-96333333D01*
X110928571Y-96333333D01*
X111023809Y-96380952D01*
X111071428Y-96428571D01*
X111119047Y-96523809D01*
X111119047Y-96761904D01*
X111071428Y-96857142D01*
X111023809Y-96904761D01*
X110928571Y-96952380D01*
X110642857Y-96952380D01*
X110547619Y-96904761D01*
X110500000Y-96857142D01*
X112833333Y-96000000D02*
X112738095Y-95952380D01*
X112595238Y-95952380D01*
X112452380Y-96000000D01*
X112357142Y-96095238D01*
X112309523Y-96190476D01*
X112261904Y-96380952D01*
X112261904Y-96523809D01*
X112309523Y-96714285D01*
X112357142Y-96809523D01*
X112452380Y-96904761D01*
X112595238Y-96952380D01*
X112690476Y-96952380D01*
X112833333Y-96904761D01*
X112880952Y-96857142D01*
X112880952Y-96523809D01*
X112690476Y-96523809D01*
X113738095Y-96952380D02*
X113738095Y-96428571D01*
X113690476Y-96333333D01*
X113595238Y-96285714D01*
X113404761Y-96285714D01*
X113309523Y-96333333D01*
X113738095Y-96904761D02*
X113642857Y-96952380D01*
X113404761Y-96952380D01*
X113309523Y-96904761D01*
X113261904Y-96809523D01*
X113261904Y-96714285D01*
X113309523Y-96619047D01*
X113404761Y-96571428D01*
X113642857Y-96571428D01*
X113738095Y-96523809D01*
X114119047Y-96285714D02*
X114357142Y-96952380D01*
X114595238Y-96285714D01*
X114976190Y-96952380D02*
X114976190Y-96285714D01*
X114976190Y-95952380D02*
X114928571Y-96000000D01*
X114976190Y-96047619D01*
X115023809Y-96000000D01*
X114976190Y-95952380D01*
X114976190Y-96047619D01*
X115452380Y-96285714D02*
X115452380Y-96952380D01*
X115452380Y-96380952D02*
X115499999Y-96333333D01*
X115595238Y-96285714D01*
X115738095Y-96285714D01*
X115833333Y-96333333D01*
X115880952Y-96428571D01*
X115880952Y-96952380D01*
X117119047Y-96952380D02*
X117119047Y-95952380D01*
X117119047Y-96428571D02*
X117690476Y-96428571D01*
X117690476Y-96952380D02*
X117690476Y-95952380D01*
X118595238Y-96285714D02*
X118595238Y-96952380D01*
X118166666Y-96285714D02*
X118166666Y-96809523D01*
X118214285Y-96904761D01*
X118309523Y-96952380D01*
X118452380Y-96952380D01*
X118547619Y-96904761D01*
X118595238Y-96857142D01*
X119071428Y-96952380D02*
X119071428Y-96285714D01*
X119071428Y-96476190D02*
X119119047Y-96380952D01*
X119166666Y-96333333D01*
X119261904Y-96285714D01*
X119357142Y-96285714D01*
X119833333Y-96952380D02*
X119738095Y-96904761D01*
X119690476Y-96809523D01*
X119690476Y-95952380D01*
X120214285Y-96952380D02*
X120214285Y-95952380D01*
X120214285Y-96333333D02*
X120309523Y-96285714D01*
X120499999Y-96285714D01*
X120595238Y-96333333D01*
X120642857Y-96380952D01*
X120690476Y-96476190D01*
X120690476Y-96761904D01*
X120642857Y-96857142D01*
X120595238Y-96904761D01*
X120499999Y-96952380D01*
X120309523Y-96952380D01*
X120214285Y-96904761D01*
X121547619Y-96285714D02*
X121547619Y-96952380D01*
X121119047Y-96285714D02*
X121119047Y-96809523D01*
X121166666Y-96904761D01*
X121261904Y-96952380D01*
X121404761Y-96952380D01*
X121499999Y-96904761D01*
X121547619Y-96857142D01*
X121880952Y-96285714D02*
X122261904Y-96285714D01*
X122023809Y-95952380D02*
X122023809Y-96809523D01*
X122071428Y-96904761D01*
X122166666Y-96952380D01*
X122261904Y-96952380D01*
X101976190Y-92397380D02*
X102214285Y-93397380D01*
X102404761Y-92683095D01*
X102595238Y-93397380D01*
X102833333Y-92397380D01*
X103595238Y-93349761D02*
X103500000Y-93397380D01*
X103309523Y-93397380D01*
X103214285Y-93349761D01*
X103166666Y-93254523D01*
X103166666Y-92873571D01*
X103214285Y-92778333D01*
X103309523Y-92730714D01*
X103500000Y-92730714D01*
X103595238Y-92778333D01*
X103642857Y-92873571D01*
X103642857Y-92968809D01*
X103166666Y-93064047D01*
X104071428Y-93397380D02*
X104071428Y-92397380D01*
X104071428Y-92778333D02*
X104166666Y-92730714D01*
X104357142Y-92730714D01*
X104452380Y-92778333D01*
X104500000Y-92825952D01*
X104547619Y-92921190D01*
X104547619Y-93206904D01*
X104500000Y-93302142D01*
X104452380Y-93349761D01*
X104357142Y-93397380D01*
X104166666Y-93397380D01*
X104071428Y-93349761D01*
X105404761Y-93397380D02*
X105404761Y-92873571D01*
X105357142Y-92778333D01*
X105261904Y-92730714D01*
X105071428Y-92730714D01*
X104976190Y-92778333D01*
X105404761Y-93349761D02*
X105309523Y-93397380D01*
X105071428Y-93397380D01*
X104976190Y-93349761D01*
X104928571Y-93254523D01*
X104928571Y-93159285D01*
X104976190Y-93064047D01*
X105071428Y-93016428D01*
X105309523Y-93016428D01*
X105404761Y-92968809D01*
X105833333Y-93349761D02*
X105928571Y-93397380D01*
X106119047Y-93397380D01*
X106214285Y-93349761D01*
X106261904Y-93254523D01*
X106261904Y-93206904D01*
X106214285Y-93111666D01*
X106119047Y-93064047D01*
X105976190Y-93064047D01*
X105880952Y-93016428D01*
X105833333Y-92921190D01*
X105833333Y-92873571D01*
X105880952Y-92778333D01*
X105976190Y-92730714D01*
X106119047Y-92730714D01*
X106214285Y-92778333D01*
X106547619Y-92730714D02*
X106928571Y-92730714D01*
X106690476Y-92397380D02*
X106690476Y-93254523D01*
X106738095Y-93349761D01*
X106833333Y-93397380D01*
X106928571Y-93397380D01*
X107404761Y-93397380D02*
X107309523Y-93349761D01*
X107261904Y-93302142D01*
X107214285Y-93206904D01*
X107214285Y-92921190D01*
X107261904Y-92825952D01*
X107309523Y-92778333D01*
X107404761Y-92730714D01*
X107547619Y-92730714D01*
X107642857Y-92778333D01*
X107690476Y-92825952D01*
X107738095Y-92921190D01*
X107738095Y-93206904D01*
X107690476Y-93302142D01*
X107642857Y-93349761D01*
X107547619Y-93397380D01*
X107404761Y-93397380D01*
X108785714Y-92397380D02*
X109357142Y-92397380D01*
X109071428Y-93397380D02*
X109071428Y-92397380D01*
X109690476Y-93397380D02*
X109690476Y-92397380D01*
X110119047Y-93397380D02*
X110119047Y-92873571D01*
X110071428Y-92778333D01*
X109976190Y-92730714D01*
X109833333Y-92730714D01*
X109738095Y-92778333D01*
X109690476Y-92825952D01*
X110976190Y-93349761D02*
X110880952Y-93397380D01*
X110690476Y-93397380D01*
X110595238Y-93349761D01*
X110547619Y-93254523D01*
X110547619Y-92873571D01*
X110595238Y-92778333D01*
X110690476Y-92730714D01*
X110880952Y-92730714D01*
X110976190Y-92778333D01*
X111023809Y-92873571D01*
X111023809Y-92968809D01*
X110547619Y-93064047D01*
X111452380Y-93397380D02*
X111452380Y-92730714D01*
X111452380Y-92921190D02*
X111500000Y-92825952D01*
X111547619Y-92778333D01*
X111642857Y-92730714D01*
X111738095Y-92730714D01*
X112071428Y-93397380D02*
X112071428Y-92730714D01*
X112071428Y-92825952D02*
X112119047Y-92778333D01*
X112214285Y-92730714D01*
X112357142Y-92730714D01*
X112452380Y-92778333D01*
X112500000Y-92873571D01*
X112500000Y-93397380D01*
X112500000Y-92873571D02*
X112547619Y-92778333D01*
X112642857Y-92730714D01*
X112785714Y-92730714D01*
X112880952Y-92778333D01*
X112928571Y-92873571D01*
X112928571Y-93397380D01*
X113547619Y-93397380D02*
X113452380Y-93349761D01*
X113404761Y-93302142D01*
X113357142Y-93206904D01*
X113357142Y-92921190D01*
X113404761Y-92825952D01*
X113452380Y-92778333D01*
X113547619Y-92730714D01*
X113690476Y-92730714D01*
X113785714Y-92778333D01*
X113833333Y-92825952D01*
X113880952Y-92921190D01*
X113880952Y-93206904D01*
X113833333Y-93302142D01*
X113785714Y-93349761D01*
X113690476Y-93397380D01*
X113547619Y-93397380D01*
X114928571Y-92397380D02*
X115500000Y-92397380D01*
X115214285Y-93397380D02*
X115214285Y-92397380D01*
X115976190Y-93397380D02*
X115880952Y-93349761D01*
X115833333Y-93302142D01*
X115785714Y-93206904D01*
X115785714Y-92921190D01*
X115833333Y-92825952D01*
X115880952Y-92778333D01*
X115976190Y-92730714D01*
X116119047Y-92730714D01*
X116214285Y-92778333D01*
X116261904Y-92825952D01*
X116309523Y-92921190D01*
X116309523Y-93206904D01*
X116261904Y-93302142D01*
X116214285Y-93349761D01*
X116119047Y-93397380D01*
X115976190Y-93397380D01*
X116738095Y-92730714D02*
X116738095Y-93730714D01*
X116738095Y-92778333D02*
X116833333Y-92730714D01*
X117023809Y-92730714D01*
X117119047Y-92778333D01*
X117166666Y-92825952D01*
X117214285Y-92921190D01*
X117214285Y-93206904D01*
X117166666Y-93302142D01*
X117119047Y-93349761D01*
X117023809Y-93397380D01*
X116833333Y-93397380D01*
X116738095Y-93349761D01*
X118976190Y-93302142D02*
X118928571Y-93349761D01*
X118785714Y-93397380D01*
X118690476Y-93397380D01*
X118547619Y-93349761D01*
X118452380Y-93254523D01*
X118404761Y-93159285D01*
X118357142Y-92968809D01*
X118357142Y-92825952D01*
X118404761Y-92635476D01*
X118452380Y-92540238D01*
X118547619Y-92445000D01*
X118690476Y-92397380D01*
X118785714Y-92397380D01*
X118928571Y-92445000D01*
X118976190Y-92492619D01*
X102428571Y-95007380D02*
X102095238Y-94531190D01*
X101857142Y-95007380D02*
X101857142Y-94007380D01*
X102238095Y-94007380D01*
X102333333Y-94055000D01*
X102380952Y-94102619D01*
X102428571Y-94197857D01*
X102428571Y-94340714D01*
X102380952Y-94435952D01*
X102333333Y-94483571D01*
X102238095Y-94531190D01*
X101857142Y-94531190D01*
X103238095Y-94959761D02*
X103142857Y-95007380D01*
X102952380Y-95007380D01*
X102857142Y-94959761D01*
X102809523Y-94864523D01*
X102809523Y-94483571D01*
X102857142Y-94388333D01*
X102952380Y-94340714D01*
X103142857Y-94340714D01*
X103238095Y-94388333D01*
X103285714Y-94483571D01*
X103285714Y-94578809D01*
X102809523Y-94674047D01*
X103714285Y-94340714D02*
X103714285Y-95340714D01*
X103714285Y-94388333D02*
X103809523Y-94340714D01*
X104000000Y-94340714D01*
X104095238Y-94388333D01*
X104142857Y-94435952D01*
X104190476Y-94531190D01*
X104190476Y-94816904D01*
X104142857Y-94912142D01*
X104095238Y-94959761D01*
X104000000Y-95007380D01*
X103809523Y-95007380D01*
X103714285Y-94959761D01*
X104761904Y-95007380D02*
X104666666Y-94959761D01*
X104619047Y-94864523D01*
X104619047Y-94007380D01*
X105571428Y-95007380D02*
X105571428Y-94483571D01*
X105523809Y-94388333D01*
X105428571Y-94340714D01*
X105238095Y-94340714D01*
X105142857Y-94388333D01*
X105571428Y-94959761D02*
X105476190Y-95007380D01*
X105238095Y-95007380D01*
X105142857Y-94959761D01*
X105095238Y-94864523D01*
X105095238Y-94769285D01*
X105142857Y-94674047D01*
X105238095Y-94626428D01*
X105476190Y-94626428D01*
X105571428Y-94578809D01*
X106476190Y-94959761D02*
X106380952Y-95007380D01*
X106190476Y-95007380D01*
X106095238Y-94959761D01*
X106047619Y-94912142D01*
X105999999Y-94816904D01*
X105999999Y-94531190D01*
X106047619Y-94435952D01*
X106095238Y-94388333D01*
X106190476Y-94340714D01*
X106380952Y-94340714D01*
X106476190Y-94388333D01*
X107285714Y-94959761D02*
X107190476Y-95007380D01*
X106999999Y-95007380D01*
X106904761Y-94959761D01*
X106857142Y-94864523D01*
X106857142Y-94483571D01*
X106904761Y-94388333D01*
X106999999Y-94340714D01*
X107190476Y-94340714D01*
X107285714Y-94388333D01*
X107333333Y-94483571D01*
X107333333Y-94578809D01*
X106857142Y-94674047D01*
X107761904Y-95007380D02*
X107761904Y-94340714D01*
X107761904Y-94435952D02*
X107809523Y-94388333D01*
X107904761Y-94340714D01*
X108047619Y-94340714D01*
X108142857Y-94388333D01*
X108190476Y-94483571D01*
X108190476Y-95007380D01*
X108190476Y-94483571D02*
X108238095Y-94388333D01*
X108333333Y-94340714D01*
X108476190Y-94340714D01*
X108571428Y-94388333D01*
X108619047Y-94483571D01*
X108619047Y-95007380D01*
X109476190Y-94959761D02*
X109380952Y-95007380D01*
X109190476Y-95007380D01*
X109095238Y-94959761D01*
X109047619Y-94864523D01*
X109047619Y-94483571D01*
X109095238Y-94388333D01*
X109190476Y-94340714D01*
X109380952Y-94340714D01*
X109476190Y-94388333D01*
X109523809Y-94483571D01*
X109523809Y-94578809D01*
X109047619Y-94674047D01*
X109952380Y-94340714D02*
X109952380Y-95007380D01*
X109952380Y-94435952D02*
X109999999Y-94388333D01*
X110095238Y-94340714D01*
X110238095Y-94340714D01*
X110333333Y-94388333D01*
X110380952Y-94483571D01*
X110380952Y-95007380D01*
X110714285Y-94340714D02*
X111095238Y-94340714D01*
X110857142Y-94007380D02*
X110857142Y-94864523D01*
X110904761Y-94959761D01*
X110999999Y-95007380D01*
X111095238Y-95007380D01*
X112761904Y-94912142D02*
X112714285Y-94959761D01*
X112571428Y-95007380D01*
X112476190Y-95007380D01*
X112333333Y-94959761D01*
X112238095Y-94864523D01*
X112190476Y-94769285D01*
X112142857Y-94578809D01*
X112142857Y-94435952D01*
X112190476Y-94245476D01*
X112238095Y-94150238D01*
X112333333Y-94055000D01*
X112476190Y-94007380D01*
X112571428Y-94007380D01*
X112714285Y-94055000D01*
X112761904Y-94102619D01*
X113333333Y-95007380D02*
X113238095Y-94959761D01*
X113190476Y-94912142D01*
X113142857Y-94816904D01*
X113142857Y-94531190D01*
X113190476Y-94435952D01*
X113238095Y-94388333D01*
X113333333Y-94340714D01*
X113476190Y-94340714D01*
X113571428Y-94388333D01*
X113619047Y-94435952D01*
X113666666Y-94531190D01*
X113666666Y-94816904D01*
X113619047Y-94912142D01*
X113571428Y-94959761D01*
X113476190Y-95007380D01*
X113333333Y-95007380D01*
X114095238Y-94340714D02*
X114095238Y-95007380D01*
X114095238Y-94435952D02*
X114142857Y-94388333D01*
X114238095Y-94340714D01*
X114380952Y-94340714D01*
X114476190Y-94388333D01*
X114523809Y-94483571D01*
X114523809Y-95007380D01*
X114857142Y-94340714D02*
X115238095Y-94340714D01*
X114999999Y-94007380D02*
X114999999Y-94864523D01*
X115047619Y-94959761D01*
X115142857Y-95007380D01*
X115238095Y-95007380D01*
X115571428Y-95007380D02*
X115571428Y-94340714D01*
X115571428Y-94531190D02*
X115619047Y-94435952D01*
X115666666Y-94388333D01*
X115761904Y-94340714D01*
X115857142Y-94340714D01*
X116333333Y-95007380D02*
X116238095Y-94959761D01*
X116190476Y-94912142D01*
X116142857Y-94816904D01*
X116142857Y-94531190D01*
X116190476Y-94435952D01*
X116238095Y-94388333D01*
X116333333Y-94340714D01*
X116476190Y-94340714D01*
X116571428Y-94388333D01*
X116619047Y-94435952D01*
X116666666Y-94531190D01*
X116666666Y-94816904D01*
X116619047Y-94912142D01*
X116571428Y-94959761D01*
X116476190Y-95007380D01*
X116333333Y-95007380D01*
X117238095Y-95007380D02*
X117142857Y-94959761D01*
X117095238Y-94864523D01*
X117095238Y-94007380D01*
X117761904Y-95007380D02*
X117666666Y-94959761D01*
X117619047Y-94864523D01*
X117619047Y-94007380D01*
X118523809Y-94959761D02*
X118428571Y-95007380D01*
X118238095Y-95007380D01*
X118142857Y-94959761D01*
X118095238Y-94864523D01*
X118095238Y-94483571D01*
X118142857Y-94388333D01*
X118238095Y-94340714D01*
X118428571Y-94340714D01*
X118523809Y-94388333D01*
X118571428Y-94483571D01*
X118571428Y-94578809D01*
X118095238Y-94674047D01*
X119000000Y-95007380D02*
X119000000Y-94340714D01*
X119000000Y-94531190D02*
X119047619Y-94435952D01*
X119095238Y-94388333D01*
X119190476Y-94340714D01*
X119285714Y-94340714D01*
X175433333Y-123252380D02*
X175623809Y-123252380D01*
X175719047Y-123300000D01*
X175814285Y-123395238D01*
X175861904Y-123585714D01*
X175861904Y-123919047D01*
X175814285Y-124109523D01*
X175719047Y-124204761D01*
X175623809Y-124252380D01*
X175433333Y-124252380D01*
X175338095Y-124204761D01*
X175242857Y-124109523D01*
X175195238Y-123919047D01*
X175195238Y-123585714D01*
X175242857Y-123395238D01*
X175338095Y-123300000D01*
X175433333Y-123252380D01*
X176290476Y-123585714D02*
X176290476Y-124585714D01*
X176290476Y-123633333D02*
X176385714Y-123585714D01*
X176576190Y-123585714D01*
X176671428Y-123633333D01*
X176719047Y-123680952D01*
X176766666Y-123776190D01*
X176766666Y-124061904D01*
X176719047Y-124157142D01*
X176671428Y-124204761D01*
X176576190Y-124252380D01*
X176385714Y-124252380D01*
X176290476Y-124204761D01*
X177576190Y-124204761D02*
X177480952Y-124252380D01*
X177290476Y-124252380D01*
X177195238Y-124204761D01*
X177147619Y-124109523D01*
X177147619Y-123728571D01*
X177195238Y-123633333D01*
X177290476Y-123585714D01*
X177480952Y-123585714D01*
X177576190Y-123633333D01*
X177623809Y-123728571D01*
X177623809Y-123823809D01*
X177147619Y-123919047D01*
X178052380Y-124252380D02*
X178052380Y-123585714D01*
X178052380Y-123776190D02*
X178100000Y-123680952D01*
X178147619Y-123633333D01*
X178242857Y-123585714D01*
X178338095Y-123585714D01*
X179100000Y-124252380D02*
X179100000Y-123728571D01*
X179052380Y-123633333D01*
X178957142Y-123585714D01*
X178766666Y-123585714D01*
X178671428Y-123633333D01*
X179100000Y-124204761D02*
X179004761Y-124252380D01*
X178766666Y-124252380D01*
X178671428Y-124204761D01*
X178623809Y-124109523D01*
X178623809Y-124014285D01*
X178671428Y-123919047D01*
X178766666Y-123871428D01*
X179004761Y-123871428D01*
X179100000Y-123823809D01*
X179433333Y-123585714D02*
X179814285Y-123585714D01*
X179576190Y-123252380D02*
X179576190Y-124109523D01*
X179623809Y-124204761D01*
X179719047Y-124252380D01*
X179814285Y-124252380D01*
X180147619Y-124252380D02*
X180147619Y-123585714D01*
X180147619Y-123252380D02*
X180100000Y-123300000D01*
X180147619Y-123347619D01*
X180195238Y-123300000D01*
X180147619Y-123252380D01*
X180147619Y-123347619D01*
X180623809Y-123585714D02*
X180623809Y-124252380D01*
X180623809Y-123680952D02*
X180671428Y-123633333D01*
X180766666Y-123585714D01*
X180909523Y-123585714D01*
X181004761Y-123633333D01*
X181052380Y-123728571D01*
X181052380Y-124252380D01*
X181957142Y-123585714D02*
X181957142Y-124395238D01*
X181909523Y-124490476D01*
X181861904Y-124538095D01*
X181766666Y-124585714D01*
X181623809Y-124585714D01*
X181528571Y-124538095D01*
X181957142Y-124204761D02*
X181861904Y-124252380D01*
X181671428Y-124252380D01*
X181576190Y-124204761D01*
X181528571Y-124157142D01*
X181480952Y-124061904D01*
X181480952Y-123776190D01*
X181528571Y-123680952D01*
X181576190Y-123633333D01*
X181671428Y-123585714D01*
X181861904Y-123585714D01*
X181957142Y-123633333D01*
X105684523Y-102629761D02*
X105827380Y-102677380D01*
X106065476Y-102677380D01*
X106160714Y-102629761D01*
X106208333Y-102582142D01*
X106255952Y-102486904D01*
X106255952Y-102391666D01*
X106208333Y-102296428D01*
X106160714Y-102248809D01*
X106065476Y-102201190D01*
X105875000Y-102153571D01*
X105779761Y-102105952D01*
X105732142Y-102058333D01*
X105684523Y-101963095D01*
X105684523Y-101867857D01*
X105732142Y-101772619D01*
X105779761Y-101725000D01*
X105875000Y-101677380D01*
X106113095Y-101677380D01*
X106255952Y-101725000D01*
X106684523Y-102677380D02*
X106684523Y-101677380D01*
X106922619Y-101677380D01*
X107065476Y-101725000D01*
X107160714Y-101820238D01*
X107208333Y-101915476D01*
X107255952Y-102105952D01*
X107255952Y-102248809D01*
X107208333Y-102439285D01*
X107160714Y-102534523D01*
X107065476Y-102629761D01*
X106922619Y-102677380D01*
X106684523Y-102677380D01*
X107636904Y-102391666D02*
X108113095Y-102391666D01*
X107541666Y-102677380D02*
X107875000Y-101677380D01*
X108208333Y-102677380D01*
X109255952Y-102629761D02*
X109398809Y-102677380D01*
X109636904Y-102677380D01*
X109732142Y-102629761D01*
X109779761Y-102582142D01*
X109827380Y-102486904D01*
X109827380Y-102391666D01*
X109779761Y-102296428D01*
X109732142Y-102248809D01*
X109636904Y-102201190D01*
X109446428Y-102153571D01*
X109351190Y-102105952D01*
X109303571Y-102058333D01*
X109255952Y-101963095D01*
X109255952Y-101867857D01*
X109303571Y-101772619D01*
X109351190Y-101725000D01*
X109446428Y-101677380D01*
X109684523Y-101677380D01*
X109827380Y-101725000D01*
X110827380Y-102582142D02*
X110779761Y-102629761D01*
X110636904Y-102677380D01*
X110541666Y-102677380D01*
X110398809Y-102629761D01*
X110303571Y-102534523D01*
X110255952Y-102439285D01*
X110208333Y-102248809D01*
X110208333Y-102105952D01*
X110255952Y-101915476D01*
X110303571Y-101820238D01*
X110398809Y-101725000D01*
X110541666Y-101677380D01*
X110636904Y-101677380D01*
X110779761Y-101725000D01*
X110827380Y-101772619D01*
X111732142Y-102677380D02*
X111255952Y-102677380D01*
X111255952Y-101677380D01*
X112684523Y-101677380D02*
X113017857Y-102677380D01*
X113351190Y-101677380D01*
X114255952Y-102582142D02*
X114208333Y-102629761D01*
X114065476Y-102677380D01*
X113970238Y-102677380D01*
X113827380Y-102629761D01*
X113732142Y-102534523D01*
X113684523Y-102439285D01*
X113636904Y-102248809D01*
X113636904Y-102105952D01*
X113684523Y-101915476D01*
X113732142Y-101820238D01*
X113827380Y-101725000D01*
X113970238Y-101677380D01*
X114065476Y-101677380D01*
X114208333Y-101725000D01*
X114255952Y-101772619D01*
X115255952Y-102582142D02*
X115208333Y-102629761D01*
X115065476Y-102677380D01*
X114970238Y-102677380D01*
X114827380Y-102629761D01*
X114732142Y-102534523D01*
X114684523Y-102439285D01*
X114636904Y-102248809D01*
X114636904Y-102105952D01*
X114684523Y-101915476D01*
X114732142Y-101820238D01*
X114827380Y-101725000D01*
X114970238Y-101677380D01*
X115065476Y-101677380D01*
X115208333Y-101725000D01*
X115255952Y-101772619D01*
X116970238Y-101725000D02*
X116874999Y-101677380D01*
X116732142Y-101677380D01*
X116589285Y-101725000D01*
X116494047Y-101820238D01*
X116446428Y-101915476D01*
X116398809Y-102105952D01*
X116398809Y-102248809D01*
X116446428Y-102439285D01*
X116494047Y-102534523D01*
X116589285Y-102629761D01*
X116732142Y-102677380D01*
X116827380Y-102677380D01*
X116970238Y-102629761D01*
X117017857Y-102582142D01*
X117017857Y-102248809D01*
X116827380Y-102248809D01*
X117446428Y-102677380D02*
X117446428Y-101677380D01*
X118017857Y-102677380D01*
X118017857Y-101677380D01*
X118494047Y-102677380D02*
X118494047Y-101677380D01*
X118732142Y-101677380D01*
X118874999Y-101725000D01*
X118970238Y-101820238D01*
X119017857Y-101915476D01*
X119065476Y-102105952D01*
X119065476Y-102248809D01*
X119017857Y-102439285D01*
X118970238Y-102534523D01*
X118874999Y-102629761D01*
X118732142Y-102677380D01*
X118494047Y-102677380D01*
X182133333Y-118428571D02*
X181800000Y-118428571D01*
X181800000Y-118952380D02*
X181800000Y-117952380D01*
X182276190Y-117952380D01*
X182800000Y-118952380D02*
X182704761Y-118904761D01*
X182657142Y-118809523D01*
X182657142Y-117952380D01*
X183609523Y-118952380D02*
X183609523Y-118428571D01*
X183561904Y-118333333D01*
X183466666Y-118285714D01*
X183276190Y-118285714D01*
X183180952Y-118333333D01*
X183609523Y-118904761D02*
X183514285Y-118952380D01*
X183276190Y-118952380D01*
X183180952Y-118904761D01*
X183133333Y-118809523D01*
X183133333Y-118714285D01*
X183180952Y-118619047D01*
X183276190Y-118571428D01*
X183514285Y-118571428D01*
X183609523Y-118523809D01*
X184085714Y-118952380D02*
X184085714Y-118285714D01*
X184085714Y-118380952D02*
X184133333Y-118333333D01*
X184228571Y-118285714D01*
X184371428Y-118285714D01*
X184466666Y-118333333D01*
X184514285Y-118428571D01*
X184514285Y-118952380D01*
X184514285Y-118428571D02*
X184561904Y-118333333D01*
X184657142Y-118285714D01*
X184800000Y-118285714D01*
X184895238Y-118333333D01*
X184942857Y-118428571D01*
X184942857Y-118952380D01*
X185800000Y-118904761D02*
X185704761Y-118952380D01*
X185514285Y-118952380D01*
X185419047Y-118904761D01*
X185371428Y-118809523D01*
X185371428Y-118428571D01*
X185419047Y-118333333D01*
X185514285Y-118285714D01*
X185704761Y-118285714D01*
X185800000Y-118333333D01*
X185847619Y-118428571D01*
X185847619Y-118523809D01*
X185371428Y-118619047D01*
%TO.C,U1*%
X141688380Y-82295904D02*
X142497904Y-82295904D01*
X142593142Y-82248285D01*
X142640761Y-82200666D01*
X142688380Y-82105428D01*
X142688380Y-81914952D01*
X142640761Y-81819714D01*
X142593142Y-81772095D01*
X142497904Y-81724476D01*
X141688380Y-81724476D01*
X142688380Y-80724476D02*
X142688380Y-81295904D01*
X142688380Y-81010190D02*
X141688380Y-81010190D01*
X141831238Y-81105428D01*
X141926476Y-81200666D01*
X141974095Y-81295904D01*
%TO.C,R11*%
X105857142Y-80202380D02*
X105523809Y-79726190D01*
X105285714Y-80202380D02*
X105285714Y-79202380D01*
X105666666Y-79202380D01*
X105761904Y-79250000D01*
X105809523Y-79297619D01*
X105857142Y-79392857D01*
X105857142Y-79535714D01*
X105809523Y-79630952D01*
X105761904Y-79678571D01*
X105666666Y-79726190D01*
X105285714Y-79726190D01*
X106809523Y-80202380D02*
X106238095Y-80202380D01*
X106523809Y-80202380D02*
X106523809Y-79202380D01*
X106428571Y-79345238D01*
X106333333Y-79440476D01*
X106238095Y-79488095D01*
X107761904Y-80202380D02*
X107190476Y-80202380D01*
X107476190Y-80202380D02*
X107476190Y-79202380D01*
X107380952Y-79345238D01*
X107285714Y-79440476D01*
X107190476Y-79488095D01*
%TO.C,R22*%
X105482142Y-104977380D02*
X105148809Y-104501190D01*
X104910714Y-104977380D02*
X104910714Y-103977380D01*
X105291666Y-103977380D01*
X105386904Y-104025000D01*
X105434523Y-104072619D01*
X105482142Y-104167857D01*
X105482142Y-104310714D01*
X105434523Y-104405952D01*
X105386904Y-104453571D01*
X105291666Y-104501190D01*
X104910714Y-104501190D01*
X105863095Y-104072619D02*
X105910714Y-104025000D01*
X106005952Y-103977380D01*
X106244047Y-103977380D01*
X106339285Y-104025000D01*
X106386904Y-104072619D01*
X106434523Y-104167857D01*
X106434523Y-104263095D01*
X106386904Y-104405952D01*
X105815476Y-104977380D01*
X106434523Y-104977380D01*
X106815476Y-104072619D02*
X106863095Y-104025000D01*
X106958333Y-103977380D01*
X107196428Y-103977380D01*
X107291666Y-104025000D01*
X107339285Y-104072619D01*
X107386904Y-104167857D01*
X107386904Y-104263095D01*
X107339285Y-104405952D01*
X106767857Y-104977380D01*
X107386904Y-104977380D01*
%TO.C,R29*%
X133632380Y-111442857D02*
X133156190Y-111776190D01*
X133632380Y-112014285D02*
X132632380Y-112014285D01*
X132632380Y-111633333D01*
X132680000Y-111538095D01*
X132727619Y-111490476D01*
X132822857Y-111442857D01*
X132965714Y-111442857D01*
X133060952Y-111490476D01*
X133108571Y-111538095D01*
X133156190Y-111633333D01*
X133156190Y-112014285D01*
X132727619Y-111061904D02*
X132680000Y-111014285D01*
X132632380Y-110919047D01*
X132632380Y-110680952D01*
X132680000Y-110585714D01*
X132727619Y-110538095D01*
X132822857Y-110490476D01*
X132918095Y-110490476D01*
X133060952Y-110538095D01*
X133632380Y-111109523D01*
X133632380Y-110490476D01*
X133632380Y-110014285D02*
X133632380Y-109823809D01*
X133584761Y-109728571D01*
X133537142Y-109680952D01*
X133394285Y-109585714D01*
X133203809Y-109538095D01*
X132822857Y-109538095D01*
X132727619Y-109585714D01*
X132680000Y-109633333D01*
X132632380Y-109728571D01*
X132632380Y-109919047D01*
X132680000Y-110014285D01*
X132727619Y-110061904D01*
X132822857Y-110109523D01*
X133060952Y-110109523D01*
X133156190Y-110061904D01*
X133203809Y-110014285D01*
X133251428Y-109919047D01*
X133251428Y-109728571D01*
X133203809Y-109633333D01*
X133156190Y-109585714D01*
X133060952Y-109538095D01*
%TO.C,C11*%
X126774702Y-108170837D02*
X126822321Y-108218456D01*
X126869940Y-108361313D01*
X126869940Y-108456551D01*
X126822321Y-108599408D01*
X126727083Y-108694646D01*
X126631845Y-108742265D01*
X126441369Y-108789884D01*
X126298512Y-108789884D01*
X126108036Y-108742265D01*
X126012798Y-108694646D01*
X125917560Y-108599408D01*
X125869940Y-108456551D01*
X125869940Y-108361313D01*
X125917560Y-108218456D01*
X125965179Y-108170837D01*
X126869940Y-107218456D02*
X126869940Y-107789884D01*
X126869940Y-107504170D02*
X125869940Y-107504170D01*
X126012798Y-107599408D01*
X126108036Y-107694646D01*
X126155655Y-107789884D01*
X126869940Y-106266075D02*
X126869940Y-106837503D01*
X126869940Y-106551789D02*
X125869940Y-106551789D01*
X126012798Y-106647027D01*
X126108036Y-106742265D01*
X126155655Y-106837503D01*
%TO.C,JX3*%
X155908476Y-60158380D02*
X155908476Y-60872666D01*
X155860857Y-61015523D01*
X155765619Y-61110761D01*
X155622761Y-61158380D01*
X155527523Y-61158380D01*
X156289428Y-60158380D02*
X156956095Y-61158380D01*
X156956095Y-60158380D02*
X156289428Y-61158380D01*
X157241809Y-60158380D02*
X157860857Y-60158380D01*
X157527523Y-60539333D01*
X157670380Y-60539333D01*
X157765619Y-60586952D01*
X157813238Y-60634571D01*
X157860857Y-60729809D01*
X157860857Y-60967904D01*
X157813238Y-61063142D01*
X157765619Y-61110761D01*
X157670380Y-61158380D01*
X157384666Y-61158380D01*
X157289428Y-61110761D01*
X157241809Y-61063142D01*
%TO.C,U6*%
X166977095Y-114091380D02*
X166977095Y-114900904D01*
X167024714Y-114996142D01*
X167072333Y-115043761D01*
X167167571Y-115091380D01*
X167358047Y-115091380D01*
X167453285Y-115043761D01*
X167500904Y-114996142D01*
X167548523Y-114900904D01*
X167548523Y-114091380D01*
X168453285Y-114091380D02*
X168262809Y-114091380D01*
X168167571Y-114139000D01*
X168119952Y-114186619D01*
X168024714Y-114329476D01*
X167977095Y-114519952D01*
X167977095Y-114900904D01*
X168024714Y-114996142D01*
X168072333Y-115043761D01*
X168167571Y-115091380D01*
X168358047Y-115091380D01*
X168453285Y-115043761D01*
X168500904Y-114996142D01*
X168548523Y-114900904D01*
X168548523Y-114662809D01*
X168500904Y-114567571D01*
X168453285Y-114519952D01*
X168358047Y-114472333D01*
X168167571Y-114472333D01*
X168072333Y-114519952D01*
X168024714Y-114567571D01*
X167977095Y-114662809D01*
%TO.C,R24*%
X113182142Y-106602380D02*
X112848809Y-106126190D01*
X112610714Y-106602380D02*
X112610714Y-105602380D01*
X112991666Y-105602380D01*
X113086904Y-105650000D01*
X113134523Y-105697619D01*
X113182142Y-105792857D01*
X113182142Y-105935714D01*
X113134523Y-106030952D01*
X113086904Y-106078571D01*
X112991666Y-106126190D01*
X112610714Y-106126190D01*
X113563095Y-105697619D02*
X113610714Y-105650000D01*
X113705952Y-105602380D01*
X113944047Y-105602380D01*
X114039285Y-105650000D01*
X114086904Y-105697619D01*
X114134523Y-105792857D01*
X114134523Y-105888095D01*
X114086904Y-106030952D01*
X113515476Y-106602380D01*
X114134523Y-106602380D01*
X114991666Y-105935714D02*
X114991666Y-106602380D01*
X114753571Y-105554761D02*
X114515476Y-106269047D01*
X115134523Y-106269047D01*
%TO.C,U7*%
X137838095Y-71752380D02*
X137838095Y-72561904D01*
X137885714Y-72657142D01*
X137933333Y-72704761D01*
X138028571Y-72752380D01*
X138219047Y-72752380D01*
X138314285Y-72704761D01*
X138361904Y-72657142D01*
X138409523Y-72561904D01*
X138409523Y-71752380D01*
X138790476Y-71752380D02*
X139457142Y-71752380D01*
X139028571Y-72752380D01*
%TO.C,R31*%
X145257142Y-76312380D02*
X144923809Y-75836190D01*
X144685714Y-76312380D02*
X144685714Y-75312380D01*
X145066666Y-75312380D01*
X145161904Y-75360000D01*
X145209523Y-75407619D01*
X145257142Y-75502857D01*
X145257142Y-75645714D01*
X145209523Y-75740952D01*
X145161904Y-75788571D01*
X145066666Y-75836190D01*
X144685714Y-75836190D01*
X145590476Y-75312380D02*
X146209523Y-75312380D01*
X145876190Y-75693333D01*
X146019047Y-75693333D01*
X146114285Y-75740952D01*
X146161904Y-75788571D01*
X146209523Y-75883809D01*
X146209523Y-76121904D01*
X146161904Y-76217142D01*
X146114285Y-76264761D01*
X146019047Y-76312380D01*
X145733333Y-76312380D01*
X145638095Y-76264761D01*
X145590476Y-76217142D01*
X147161904Y-76312380D02*
X146590476Y-76312380D01*
X146876190Y-76312380D02*
X146876190Y-75312380D01*
X146780952Y-75455238D01*
X146685714Y-75550476D01*
X146590476Y-75598095D01*
%TO.C,D2*%
X178861904Y-118152380D02*
X178861904Y-117152380D01*
X179100000Y-117152380D01*
X179242857Y-117200000D01*
X179338095Y-117295238D01*
X179385714Y-117390476D01*
X179433333Y-117580952D01*
X179433333Y-117723809D01*
X179385714Y-117914285D01*
X179338095Y-118009523D01*
X179242857Y-118104761D01*
X179100000Y-118152380D01*
X178861904Y-118152380D01*
X179814285Y-117247619D02*
X179861904Y-117200000D01*
X179957142Y-117152380D01*
X180195238Y-117152380D01*
X180290476Y-117200000D01*
X180338095Y-117247619D01*
X180385714Y-117342857D01*
X180385714Y-117438095D01*
X180338095Y-117580952D01*
X179766666Y-118152380D01*
X180385714Y-118152380D01*
%TO.C,U2*%
X159752380Y-101461904D02*
X160561904Y-101461904D01*
X160657142Y-101414285D01*
X160704761Y-101366666D01*
X160752380Y-101271428D01*
X160752380Y-101080952D01*
X160704761Y-100985714D01*
X160657142Y-100938095D01*
X160561904Y-100890476D01*
X159752380Y-100890476D01*
X159847619Y-100461904D02*
X159800000Y-100414285D01*
X159752380Y-100319047D01*
X159752380Y-100080952D01*
X159800000Y-99985714D01*
X159847619Y-99938095D01*
X159942857Y-99890476D01*
X160038095Y-99890476D01*
X160180952Y-99938095D01*
X160752380Y-100509523D01*
X160752380Y-99890476D01*
X172702466Y-115047026D02*
X173079589Y-114292779D01*
X172325342Y-114669902D01*
X172379217Y-113592406D02*
X172298405Y-114050342D01*
X172702466Y-113915655D02*
X172136780Y-114481341D01*
X171921281Y-114265841D01*
X171894344Y-114185029D01*
X171894344Y-114131154D01*
X171921281Y-114050342D01*
X172002093Y-113969530D01*
X172082906Y-113942593D01*
X172136780Y-113942593D01*
X172217593Y-113969530D01*
X172433092Y-114185029D01*
X171840469Y-113646281D02*
X171651907Y-113457719D01*
X171867406Y-113080596D02*
X172136780Y-113349970D01*
X171571095Y-113915655D01*
X171301721Y-113646281D01*
X171140097Y-112945909D02*
X171328658Y-113134471D01*
X171624970Y-112838159D02*
X171059284Y-113403845D01*
X170789910Y-113134471D01*
X141398155Y-114213841D02*
X141425093Y-114294653D01*
X141505905Y-114375465D01*
X141613654Y-114429340D01*
X141721404Y-114429340D01*
X141802216Y-114402402D01*
X141936903Y-114321590D01*
X142017715Y-114240778D01*
X142098528Y-114106091D01*
X142125465Y-114025279D01*
X142125465Y-113917529D01*
X142071590Y-113809780D01*
X142017715Y-113755905D01*
X141909966Y-113702030D01*
X141856091Y-113702030D01*
X141667529Y-113890592D01*
X141775279Y-113998341D01*
X141667529Y-113405719D02*
X141101844Y-113971404D01*
X141344280Y-113082470D01*
X140778595Y-113648155D01*
X141074906Y-112813096D02*
X140509221Y-113378781D01*
X140374534Y-113244094D01*
X140320659Y-113136345D01*
X140320659Y-113028595D01*
X140347597Y-112947783D01*
X140428409Y-112813096D01*
X140509221Y-112732284D01*
X140643908Y-112651471D01*
X140724720Y-112624534D01*
X140832470Y-112624534D01*
X140940219Y-112678409D01*
X141074906Y-112813096D01*
X151790592Y-114710277D02*
X151817529Y-114791089D01*
X151898341Y-114871902D01*
X152006091Y-114925776D01*
X152113841Y-114925776D01*
X152194653Y-114898839D01*
X152329340Y-114818027D01*
X152410152Y-114737215D01*
X152490964Y-114602528D01*
X152517902Y-114521715D01*
X152517902Y-114413966D01*
X152464027Y-114306216D01*
X152410152Y-114252341D01*
X152302402Y-114198467D01*
X152248528Y-114198467D01*
X152059966Y-114387028D01*
X152167715Y-114494778D01*
X152059966Y-113902155D02*
X151494280Y-114467841D01*
X151278781Y-114252341D01*
X151251844Y-114171529D01*
X151251844Y-114117654D01*
X151278781Y-114036842D01*
X151359593Y-113956030D01*
X151440406Y-113929093D01*
X151494280Y-113929093D01*
X151575093Y-113956030D01*
X151790592Y-114171529D01*
X151009407Y-113875218D02*
X150955532Y-113875218D01*
X150874720Y-113848280D01*
X150740033Y-113713593D01*
X150713096Y-113632781D01*
X150713096Y-113578906D01*
X150740033Y-113498094D01*
X150793908Y-113444219D01*
X150901658Y-113390345D01*
X151548155Y-113390345D01*
X151197969Y-113040158D01*
X150659221Y-112501410D02*
X150982470Y-112824659D01*
X150820845Y-112663035D02*
X150255160Y-113228720D01*
X150389847Y-113201783D01*
X150497597Y-113201783D01*
X150578409Y-113228720D01*
X184551218Y-88586903D02*
X184578155Y-88667715D01*
X184658967Y-88748528D01*
X184766717Y-88802402D01*
X184874467Y-88802402D01*
X184955279Y-88775465D01*
X185089966Y-88694653D01*
X185170778Y-88613841D01*
X185251590Y-88479154D01*
X185278528Y-88398341D01*
X185278528Y-88290592D01*
X185224653Y-88182842D01*
X185170778Y-88128967D01*
X185063028Y-88075093D01*
X185009154Y-88075093D01*
X184820592Y-88263654D01*
X184928341Y-88371404D01*
X184820592Y-87778781D02*
X184254906Y-88344467D01*
X184039407Y-88128967D01*
X184012470Y-88048155D01*
X184012470Y-87994280D01*
X184039407Y-87913468D01*
X184120219Y-87832656D01*
X184201032Y-87805719D01*
X184254906Y-87805719D01*
X184335719Y-87832656D01*
X184551218Y-88048155D01*
X183581471Y-87671032D02*
X183527597Y-87617157D01*
X183500659Y-87536345D01*
X183500659Y-87482470D01*
X183527597Y-87401658D01*
X183608409Y-87266971D01*
X183743096Y-87132284D01*
X183877783Y-87051471D01*
X183958595Y-87024534D01*
X184012470Y-87024534D01*
X184093282Y-87051471D01*
X184147157Y-87105346D01*
X184174094Y-87186158D01*
X184174094Y-87240033D01*
X184147157Y-87320845D01*
X184066345Y-87455532D01*
X183931658Y-87590219D01*
X183796971Y-87671032D01*
X183716158Y-87697969D01*
X183662284Y-87697969D01*
X183581471Y-87671032D01*
X159151218Y-88586903D02*
X159178155Y-88667715D01*
X159258967Y-88748528D01*
X159366717Y-88802402D01*
X159474467Y-88802402D01*
X159555279Y-88775465D01*
X159689966Y-88694653D01*
X159770778Y-88613841D01*
X159851590Y-88479154D01*
X159878528Y-88398341D01*
X159878528Y-88290592D01*
X159824653Y-88182842D01*
X159770778Y-88128967D01*
X159663028Y-88075093D01*
X159609154Y-88075093D01*
X159420592Y-88263654D01*
X159528341Y-88371404D01*
X159420592Y-87778781D02*
X158854906Y-88344467D01*
X158639407Y-88128967D01*
X158612470Y-88048155D01*
X158612470Y-87994280D01*
X158639407Y-87913468D01*
X158720219Y-87832656D01*
X158801032Y-87805719D01*
X158854906Y-87805719D01*
X158935719Y-87832656D01*
X159151218Y-88048155D01*
X158450845Y-87455532D02*
X158477783Y-87536345D01*
X158477783Y-87590219D01*
X158450845Y-87671032D01*
X158423908Y-87697969D01*
X158343096Y-87724906D01*
X158289221Y-87724906D01*
X158208409Y-87697969D01*
X158100659Y-87590219D01*
X158073722Y-87509407D01*
X158073722Y-87455532D01*
X158100659Y-87374720D01*
X158127597Y-87347783D01*
X158208409Y-87320845D01*
X158262284Y-87320845D01*
X158343096Y-87347783D01*
X158450845Y-87455532D01*
X158531658Y-87482470D01*
X158585532Y-87482470D01*
X158666345Y-87455532D01*
X158774094Y-87347783D01*
X158801032Y-87266971D01*
X158801032Y-87213096D01*
X158774094Y-87132284D01*
X158666345Y-87024534D01*
X158585532Y-86997597D01*
X158531658Y-86997597D01*
X158450845Y-87024534D01*
X158343096Y-87132284D01*
X158316158Y-87213096D01*
X158316158Y-87266971D01*
X158343096Y-87347783D01*
X171851218Y-88586903D02*
X171878155Y-88667715D01*
X171958967Y-88748528D01*
X172066717Y-88802402D01*
X172174467Y-88802402D01*
X172255279Y-88775465D01*
X172389966Y-88694653D01*
X172470778Y-88613841D01*
X172551590Y-88479154D01*
X172578528Y-88398341D01*
X172578528Y-88290592D01*
X172524653Y-88182842D01*
X172470778Y-88128967D01*
X172363028Y-88075093D01*
X172309154Y-88075093D01*
X172120592Y-88263654D01*
X172228341Y-88371404D01*
X172120592Y-87778781D02*
X171554906Y-88344467D01*
X171339407Y-88128967D01*
X171312470Y-88048155D01*
X171312470Y-87994280D01*
X171339407Y-87913468D01*
X171420219Y-87832656D01*
X171501032Y-87805719D01*
X171554906Y-87805719D01*
X171635719Y-87832656D01*
X171851218Y-88048155D01*
X170935346Y-87347783D02*
X171312470Y-86970659D01*
X170854534Y-87697969D02*
X171393282Y-87428595D01*
X171043096Y-87078409D01*
X169311218Y-88586903D02*
X169338155Y-88667715D01*
X169418967Y-88748528D01*
X169526717Y-88802402D01*
X169634467Y-88802402D01*
X169715279Y-88775465D01*
X169849966Y-88694653D01*
X169930778Y-88613841D01*
X170011590Y-88479154D01*
X170038528Y-88398341D01*
X170038528Y-88290592D01*
X169984653Y-88182842D01*
X169930778Y-88128967D01*
X169823028Y-88075093D01*
X169769154Y-88075093D01*
X169580592Y-88263654D01*
X169688341Y-88371404D01*
X169580592Y-87778781D02*
X169014906Y-88344467D01*
X168799407Y-88128967D01*
X168772470Y-88048155D01*
X168772470Y-87994280D01*
X168799407Y-87913468D01*
X168880219Y-87832656D01*
X168961032Y-87805719D01*
X169014906Y-87805719D01*
X169095719Y-87832656D01*
X169311218Y-88048155D01*
X168179847Y-87509407D02*
X168449221Y-87778781D01*
X168745532Y-87536345D01*
X168691658Y-87536345D01*
X168610845Y-87509407D01*
X168476158Y-87374720D01*
X168449221Y-87293908D01*
X168449221Y-87240033D01*
X168476158Y-87159221D01*
X168610845Y-87024534D01*
X168691658Y-86997597D01*
X168745532Y-86997597D01*
X168826345Y-87024534D01*
X168961032Y-87159221D01*
X168987969Y-87240033D01*
X168987969Y-87293908D01*
X179498155Y-88613841D02*
X179525093Y-88694653D01*
X179605905Y-88775465D01*
X179713654Y-88829340D01*
X179821404Y-88829340D01*
X179902216Y-88802402D01*
X180036903Y-88721590D01*
X180117715Y-88640778D01*
X180198528Y-88506091D01*
X180225465Y-88425279D01*
X180225465Y-88317529D01*
X180171590Y-88209780D01*
X180117715Y-88155905D01*
X180009966Y-88102030D01*
X179956091Y-88102030D01*
X179767529Y-88290592D01*
X179875279Y-88398341D01*
X179767529Y-87805719D02*
X179201844Y-88371404D01*
X179444280Y-87482470D01*
X178878595Y-88048155D01*
X179174906Y-87213096D02*
X178609221Y-87778781D01*
X178474534Y-87644094D01*
X178420659Y-87536345D01*
X178420659Y-87428595D01*
X178447597Y-87347783D01*
X178528409Y-87213096D01*
X178609221Y-87132284D01*
X178743908Y-87051471D01*
X178824720Y-87024534D01*
X178932470Y-87024534D01*
X179040219Y-87078409D01*
X179174906Y-87213096D01*
X146398092Y-88456277D02*
X146425029Y-88537089D01*
X146505841Y-88617902D01*
X146613591Y-88671776D01*
X146721341Y-88671776D01*
X146802153Y-88644839D01*
X146936840Y-88564027D01*
X147017652Y-88483215D01*
X147098464Y-88348528D01*
X147125402Y-88267715D01*
X147125402Y-88159966D01*
X147071527Y-88052216D01*
X147017652Y-87998341D01*
X146909902Y-87944467D01*
X146856028Y-87944467D01*
X146667466Y-88133028D01*
X146775215Y-88240778D01*
X146667466Y-87648155D02*
X146101780Y-88213841D01*
X145886281Y-87998341D01*
X145859344Y-87917529D01*
X145859344Y-87863654D01*
X145886281Y-87782842D01*
X145967093Y-87702030D01*
X146047906Y-87675093D01*
X146101780Y-87675093D01*
X146182593Y-87702030D01*
X146398092Y-87917529D01*
X145805469Y-86786158D02*
X146128718Y-87109407D01*
X145967093Y-86947783D02*
X145401408Y-87513468D01*
X145536095Y-87486531D01*
X145643845Y-87486531D01*
X145724657Y-87513468D01*
X145078159Y-87082470D02*
X145024284Y-87082470D01*
X144943472Y-87055532D01*
X144808785Y-86920845D01*
X144781848Y-86840033D01*
X144781848Y-86786158D01*
X144808785Y-86705346D01*
X144862660Y-86651471D01*
X144970410Y-86597597D01*
X145616907Y-86597597D01*
X145266721Y-86247410D01*
X185227309Y-115346870D02*
X185604433Y-114592622D01*
X184850186Y-114969746D01*
X184742436Y-114323248D02*
X184688561Y-114215499D01*
X184688561Y-114161624D01*
X184715499Y-114080812D01*
X184796311Y-113999999D01*
X184877123Y-113973062D01*
X184930998Y-113973062D01*
X185011810Y-113999999D01*
X185227309Y-114215499D01*
X184661624Y-114781184D01*
X184473062Y-114592622D01*
X184446125Y-114511810D01*
X184446125Y-114457935D01*
X184473062Y-114377123D01*
X184526937Y-114323248D01*
X184607749Y-114296311D01*
X184661624Y-114296311D01*
X184742436Y-114323248D01*
X184930998Y-114511810D01*
X184095938Y-114215499D02*
X184553874Y-113757563D01*
X184580812Y-113676751D01*
X184580812Y-113622876D01*
X184553874Y-113542064D01*
X184446125Y-113434314D01*
X184365312Y-113407377D01*
X184311438Y-113407377D01*
X184230625Y-113434314D01*
X183772690Y-113892250D01*
X184069001Y-113111065D02*
X184015126Y-113003316D01*
X183880439Y-112868629D01*
X183799627Y-112841691D01*
X183745752Y-112841691D01*
X183664940Y-112868629D01*
X183611065Y-112922503D01*
X183584128Y-113003316D01*
X183584128Y-113057190D01*
X183611065Y-113138003D01*
X183691877Y-113272690D01*
X183718815Y-113353502D01*
X183718815Y-113407377D01*
X183691877Y-113488189D01*
X183638003Y-113542064D01*
X183557190Y-113569001D01*
X183503316Y-113569001D01*
X183422503Y-113542064D01*
X183287816Y-113407377D01*
X183233942Y-113299627D01*
X161960592Y-114710277D02*
X161987529Y-114791089D01*
X162068341Y-114871902D01*
X162176091Y-114925776D01*
X162283841Y-114925776D01*
X162364653Y-114898839D01*
X162499340Y-114818027D01*
X162580152Y-114737215D01*
X162660964Y-114602528D01*
X162687902Y-114521715D01*
X162687902Y-114413966D01*
X162634027Y-114306216D01*
X162580152Y-114252341D01*
X162472402Y-114198467D01*
X162418528Y-114198467D01*
X162229966Y-114387028D01*
X162337715Y-114494778D01*
X162229966Y-113902155D02*
X161664280Y-114467841D01*
X161448781Y-114252341D01*
X161421844Y-114171529D01*
X161421844Y-114117654D01*
X161448781Y-114036842D01*
X161529593Y-113956030D01*
X161610406Y-113929093D01*
X161664280Y-113929093D01*
X161745093Y-113956030D01*
X161960592Y-114171529D01*
X161179407Y-113875218D02*
X161125532Y-113875218D01*
X161044720Y-113848280D01*
X160910033Y-113713593D01*
X160883096Y-113632781D01*
X160883096Y-113578906D01*
X160910033Y-113498094D01*
X160963908Y-113444219D01*
X161071658Y-113390345D01*
X161718155Y-113390345D01*
X161367969Y-113040158D01*
X160317410Y-113120971D02*
X160425160Y-113228720D01*
X160505972Y-113255658D01*
X160559847Y-113255658D01*
X160694534Y-113228720D01*
X160829221Y-113147908D01*
X161044720Y-112932409D01*
X161071658Y-112851597D01*
X161071658Y-112797722D01*
X161044720Y-112716910D01*
X160936971Y-112609160D01*
X160856158Y-112582223D01*
X160802284Y-112582223D01*
X160721471Y-112609160D01*
X160586784Y-112743847D01*
X160559847Y-112824659D01*
X160559847Y-112878534D01*
X160586784Y-112959346D01*
X160694534Y-113067096D01*
X160775346Y-113094033D01*
X160829221Y-113094033D01*
X160910033Y-113067096D01*
X167740964Y-114656402D02*
X167471590Y-114387028D01*
X167956463Y-114548653D02*
X167202216Y-114925776D01*
X167579340Y-114171529D01*
X166555719Y-114225404D02*
X166582656Y-114306216D01*
X166663468Y-114387028D01*
X166771218Y-114440903D01*
X166878967Y-114440903D01*
X166959780Y-114413966D01*
X167094467Y-114333154D01*
X167175279Y-114252341D01*
X167256091Y-114117654D01*
X167283028Y-114036842D01*
X167283028Y-113929093D01*
X167229154Y-113821343D01*
X167175279Y-113767468D01*
X167067529Y-113713593D01*
X167013654Y-113713593D01*
X166825093Y-113902155D01*
X166932842Y-114009905D01*
X166825093Y-113417282D02*
X166259407Y-113982967D01*
X166501844Y-113094033D01*
X165936158Y-113659719D01*
X166232470Y-112824659D02*
X165666784Y-113390345D01*
X165532097Y-113255658D01*
X165478223Y-113147908D01*
X165478223Y-113040158D01*
X165505160Y-112959346D01*
X165585972Y-112824659D01*
X165666784Y-112743847D01*
X165801471Y-112663035D01*
X165882284Y-112636097D01*
X165990033Y-112636097D01*
X166097783Y-112689972D01*
X166232470Y-112824659D01*
X179498155Y-114213841D02*
X179525093Y-114294653D01*
X179605905Y-114375465D01*
X179713654Y-114429340D01*
X179821404Y-114429340D01*
X179902216Y-114402402D01*
X180036903Y-114321590D01*
X180117715Y-114240778D01*
X180198528Y-114106091D01*
X180225465Y-114025279D01*
X180225465Y-113917529D01*
X180171590Y-113809780D01*
X180117715Y-113755905D01*
X180009966Y-113702030D01*
X179956091Y-113702030D01*
X179767529Y-113890592D01*
X179875279Y-113998341D01*
X179767529Y-113405719D02*
X179201844Y-113971404D01*
X179444280Y-113082470D01*
X178878595Y-113648155D01*
X179174906Y-112813096D02*
X178609221Y-113378781D01*
X178474534Y-113244094D01*
X178420659Y-113136345D01*
X178420659Y-113028595D01*
X178447597Y-112947783D01*
X178528409Y-112813096D01*
X178609221Y-112732284D01*
X178743908Y-112651471D01*
X178824720Y-112624534D01*
X178932470Y-112624534D01*
X179040219Y-112678409D01*
X179174906Y-112813096D01*
X182549966Y-115179526D02*
X182927089Y-114425279D01*
X182172842Y-114802402D01*
X182549966Y-114102030D02*
X182496091Y-113994280D01*
X182361404Y-113859593D01*
X182280592Y-113832656D01*
X182226717Y-113832656D01*
X182145905Y-113859593D01*
X182092030Y-113913468D01*
X182065093Y-113994280D01*
X182065093Y-114048155D01*
X182092030Y-114128967D01*
X182172842Y-114263654D01*
X182199780Y-114344467D01*
X182199780Y-114398341D01*
X182172842Y-114479154D01*
X182118967Y-114533028D01*
X182038155Y-114559966D01*
X181984280Y-114559966D01*
X181903468Y-114533028D01*
X181768781Y-114398341D01*
X181714906Y-114290592D01*
X181634094Y-113671032D02*
X181903468Y-113401658D01*
X181526345Y-114155905D02*
X181634094Y-113671032D01*
X181149221Y-113778781D01*
X181526345Y-113078409D02*
X181472470Y-112970659D01*
X181337783Y-112835972D01*
X181256971Y-112809035D01*
X181203096Y-112809035D01*
X181122284Y-112835972D01*
X181068409Y-112889847D01*
X181041471Y-112970659D01*
X181041471Y-113024534D01*
X181068409Y-113105346D01*
X181149221Y-113240033D01*
X181176158Y-113320845D01*
X181176158Y-113374720D01*
X181149221Y-113455532D01*
X181095346Y-113509407D01*
X181014534Y-113536345D01*
X180960659Y-113536345D01*
X180879847Y-113509407D01*
X180745160Y-113374720D01*
X180691285Y-113266971D01*
X161721218Y-88686903D02*
X161748155Y-88767715D01*
X161828967Y-88848528D01*
X161936717Y-88902402D01*
X162044467Y-88902402D01*
X162125279Y-88875465D01*
X162259966Y-88794653D01*
X162340778Y-88713841D01*
X162421590Y-88579154D01*
X162448528Y-88498341D01*
X162448528Y-88390592D01*
X162394653Y-88282842D01*
X162340778Y-88228967D01*
X162233028Y-88175093D01*
X162179154Y-88175093D01*
X161990592Y-88363654D01*
X162098341Y-88471404D01*
X161990592Y-87878781D02*
X161424906Y-88444467D01*
X161209407Y-88228967D01*
X161182470Y-88148155D01*
X161182470Y-88094280D01*
X161209407Y-88013468D01*
X161290219Y-87932656D01*
X161371032Y-87905719D01*
X161424906Y-87905719D01*
X161505719Y-87932656D01*
X161721218Y-88148155D01*
X160913096Y-87932656D02*
X160535972Y-87555532D01*
X161344094Y-87232284D01*
X136560592Y-114710277D02*
X136587529Y-114791089D01*
X136668341Y-114871902D01*
X136776091Y-114925776D01*
X136883841Y-114925776D01*
X136964653Y-114898839D01*
X137099340Y-114818027D01*
X137180152Y-114737215D01*
X137260964Y-114602528D01*
X137287902Y-114521715D01*
X137287902Y-114413966D01*
X137234027Y-114306216D01*
X137180152Y-114252341D01*
X137072402Y-114198467D01*
X137018528Y-114198467D01*
X136829966Y-114387028D01*
X136937715Y-114494778D01*
X136829966Y-113902155D02*
X136264280Y-114467841D01*
X136048781Y-114252341D01*
X136021844Y-114171529D01*
X136021844Y-114117654D01*
X136048781Y-114036842D01*
X136129593Y-113956030D01*
X136210406Y-113929093D01*
X136264280Y-113929093D01*
X136345093Y-113956030D01*
X136560592Y-114171529D01*
X135967969Y-113040158D02*
X136291218Y-113363407D01*
X136129593Y-113201783D02*
X135563908Y-113767468D01*
X135698595Y-113740531D01*
X135806345Y-113740531D01*
X135887157Y-113767468D01*
X134917410Y-113120971D02*
X135025160Y-113228720D01*
X135105972Y-113255658D01*
X135159847Y-113255658D01*
X135294534Y-113228720D01*
X135429221Y-113147908D01*
X135644720Y-112932409D01*
X135671658Y-112851597D01*
X135671658Y-112797722D01*
X135644720Y-112716910D01*
X135536971Y-112609160D01*
X135456158Y-112582223D01*
X135402284Y-112582223D01*
X135321471Y-112609160D01*
X135186784Y-112743847D01*
X135159847Y-112824659D01*
X135159847Y-112878534D01*
X135186784Y-112959346D01*
X135294534Y-113067096D01*
X135375346Y-113094033D01*
X135429221Y-113094033D01*
X135510033Y-113067096D01*
X152623809Y-107895238D02*
X152661904Y-107780952D01*
X152661904Y-107590476D01*
X152623809Y-107514285D01*
X152585714Y-107476190D01*
X152509523Y-107438095D01*
X152433333Y-107438095D01*
X152357142Y-107476190D01*
X152319047Y-107514285D01*
X152280952Y-107590476D01*
X152242857Y-107742857D01*
X152204761Y-107819047D01*
X152166666Y-107857142D01*
X152090476Y-107895238D01*
X152014285Y-107895238D01*
X151938095Y-107857142D01*
X151900000Y-107819047D01*
X151861904Y-107742857D01*
X151861904Y-107552380D01*
X151900000Y-107438095D01*
X151861904Y-107171428D02*
X152661904Y-106980952D01*
X152090476Y-106828571D01*
X152661904Y-106676190D01*
X151861904Y-106485714D01*
X152661904Y-106180952D02*
X151861904Y-106180952D01*
X151861904Y-105990476D01*
X151900000Y-105876190D01*
X151976190Y-105800000D01*
X152052380Y-105761904D01*
X152204761Y-105723809D01*
X152319047Y-105723809D01*
X152471428Y-105761904D01*
X152547619Y-105800000D01*
X152623809Y-105876190D01*
X152661904Y-105990476D01*
X152661904Y-106180952D01*
X152661904Y-105380952D02*
X151861904Y-105380952D01*
X151861904Y-104847619D02*
X151861904Y-104695238D01*
X151900000Y-104619047D01*
X151976190Y-104542857D01*
X152128571Y-104504761D01*
X152395238Y-104504761D01*
X152547619Y-104542857D01*
X152623809Y-104619047D01*
X152661904Y-104695238D01*
X152661904Y-104847619D01*
X152623809Y-104923809D01*
X152547619Y-105000000D01*
X152395238Y-105038095D01*
X152128571Y-105038095D01*
X151976190Y-105000000D01*
X151900000Y-104923809D01*
X151861904Y-104847619D01*
X174391218Y-88586903D02*
X174418155Y-88667715D01*
X174498967Y-88748528D01*
X174606717Y-88802402D01*
X174714467Y-88802402D01*
X174795279Y-88775465D01*
X174929966Y-88694653D01*
X175010778Y-88613841D01*
X175091590Y-88479154D01*
X175118528Y-88398341D01*
X175118528Y-88290592D01*
X175064653Y-88182842D01*
X175010778Y-88128967D01*
X174903028Y-88075093D01*
X174849154Y-88075093D01*
X174660592Y-88263654D01*
X174768341Y-88371404D01*
X174660592Y-87778781D02*
X174094906Y-88344467D01*
X173879407Y-88128967D01*
X173852470Y-88048155D01*
X173852470Y-87994280D01*
X173879407Y-87913468D01*
X173960219Y-87832656D01*
X174041032Y-87805719D01*
X174094906Y-87805719D01*
X174175719Y-87832656D01*
X174391218Y-88048155D01*
X173583096Y-87832656D02*
X173232910Y-87482470D01*
X173636971Y-87455532D01*
X173556158Y-87374720D01*
X173529221Y-87293908D01*
X173529221Y-87240033D01*
X173556158Y-87159221D01*
X173690845Y-87024534D01*
X173771658Y-86997597D01*
X173825532Y-86997597D01*
X173906345Y-87024534D01*
X174067969Y-87186158D01*
X174094906Y-87266971D01*
X174094906Y-87320845D01*
X146720592Y-114710277D02*
X146747529Y-114791089D01*
X146828341Y-114871902D01*
X146936091Y-114925776D01*
X147043841Y-114925776D01*
X147124653Y-114898839D01*
X147259340Y-114818027D01*
X147340152Y-114737215D01*
X147420964Y-114602528D01*
X147447902Y-114521715D01*
X147447902Y-114413966D01*
X147394027Y-114306216D01*
X147340152Y-114252341D01*
X147232402Y-114198467D01*
X147178528Y-114198467D01*
X146989966Y-114387028D01*
X147097715Y-114494778D01*
X146989966Y-113902155D02*
X146424280Y-114467841D01*
X146208781Y-114252341D01*
X146181844Y-114171529D01*
X146181844Y-114117654D01*
X146208781Y-114036842D01*
X146289593Y-113956030D01*
X146370406Y-113929093D01*
X146424280Y-113929093D01*
X146505093Y-113956030D01*
X146720592Y-114171529D01*
X146127969Y-113040158D02*
X146451218Y-113363407D01*
X146289593Y-113201783D02*
X145723908Y-113767468D01*
X145858595Y-113740531D01*
X145966345Y-113740531D01*
X146047157Y-113767468D01*
X145858595Y-112770784D02*
X145750845Y-112663035D01*
X145670033Y-112636097D01*
X145616158Y-112636097D01*
X145481471Y-112663035D01*
X145346784Y-112743847D01*
X145131285Y-112959346D01*
X145104348Y-113040158D01*
X145104348Y-113094033D01*
X145131285Y-113174845D01*
X145239035Y-113282595D01*
X145319847Y-113309532D01*
X145373722Y-113309532D01*
X145454534Y-113282595D01*
X145589221Y-113147908D01*
X145616158Y-113067096D01*
X145616158Y-113013221D01*
X145589221Y-112932409D01*
X145481471Y-112824659D01*
X145400659Y-112797722D01*
X145346784Y-112797722D01*
X145265972Y-112824659D01*
X164231218Y-88586903D02*
X164258155Y-88667715D01*
X164338967Y-88748528D01*
X164446717Y-88802402D01*
X164554467Y-88802402D01*
X164635279Y-88775465D01*
X164769966Y-88694653D01*
X164850778Y-88613841D01*
X164931590Y-88479154D01*
X164958528Y-88398341D01*
X164958528Y-88290592D01*
X164904653Y-88182842D01*
X164850778Y-88128967D01*
X164743028Y-88075093D01*
X164689154Y-88075093D01*
X164500592Y-88263654D01*
X164608341Y-88371404D01*
X164500592Y-87778781D02*
X163934906Y-88344467D01*
X163719407Y-88128967D01*
X163692470Y-88048155D01*
X163692470Y-87994280D01*
X163719407Y-87913468D01*
X163800219Y-87832656D01*
X163881032Y-87805719D01*
X163934906Y-87805719D01*
X164015719Y-87832656D01*
X164231218Y-88048155D01*
X163126784Y-87536345D02*
X163234534Y-87644094D01*
X163315346Y-87671032D01*
X163369221Y-87671032D01*
X163503908Y-87644094D01*
X163638595Y-87563282D01*
X163854094Y-87347783D01*
X163881032Y-87266971D01*
X163881032Y-87213096D01*
X163854094Y-87132284D01*
X163746345Y-87024534D01*
X163665532Y-86997597D01*
X163611658Y-86997597D01*
X163530845Y-87024534D01*
X163396158Y-87159221D01*
X163369221Y-87240033D01*
X163369221Y-87293908D01*
X163396158Y-87374720D01*
X163503908Y-87482470D01*
X163584720Y-87509407D01*
X163638595Y-87509407D01*
X163719407Y-87482470D01*
X148938092Y-88456277D02*
X148965029Y-88537089D01*
X149045841Y-88617902D01*
X149153591Y-88671776D01*
X149261341Y-88671776D01*
X149342153Y-88644839D01*
X149476840Y-88564027D01*
X149557652Y-88483215D01*
X149638464Y-88348528D01*
X149665402Y-88267715D01*
X149665402Y-88159966D01*
X149611527Y-88052216D01*
X149557652Y-87998341D01*
X149449902Y-87944467D01*
X149396028Y-87944467D01*
X149207466Y-88133028D01*
X149315215Y-88240778D01*
X149207466Y-87648155D02*
X148641780Y-88213841D01*
X148426281Y-87998341D01*
X148399344Y-87917529D01*
X148399344Y-87863654D01*
X148426281Y-87782842D01*
X148507093Y-87702030D01*
X148587906Y-87675093D01*
X148641780Y-87675093D01*
X148722593Y-87702030D01*
X148938092Y-87917529D01*
X148345469Y-86786158D02*
X148668718Y-87109407D01*
X148507093Y-86947783D02*
X147941408Y-87513468D01*
X148076095Y-87486531D01*
X148183845Y-87486531D01*
X148264657Y-87513468D01*
X147806721Y-86247410D02*
X148129970Y-86570659D01*
X147968345Y-86409035D02*
X147402660Y-86974720D01*
X147537347Y-86947783D01*
X147645097Y-86947783D01*
X147725909Y-86974720D01*
X156611218Y-88586903D02*
X156638155Y-88667715D01*
X156718967Y-88748528D01*
X156826717Y-88802402D01*
X156934467Y-88802402D01*
X157015279Y-88775465D01*
X157149966Y-88694653D01*
X157230778Y-88613841D01*
X157311590Y-88479154D01*
X157338528Y-88398341D01*
X157338528Y-88290592D01*
X157284653Y-88182842D01*
X157230778Y-88128967D01*
X157123028Y-88075093D01*
X157069154Y-88075093D01*
X156880592Y-88263654D01*
X156988341Y-88371404D01*
X156880592Y-87778781D02*
X156314906Y-88344467D01*
X156099407Y-88128967D01*
X156072470Y-88048155D01*
X156072470Y-87994280D01*
X156099407Y-87913468D01*
X156180219Y-87832656D01*
X156261032Y-87805719D01*
X156314906Y-87805719D01*
X156395719Y-87832656D01*
X156611218Y-88048155D01*
X156287969Y-87186158D02*
X156180219Y-87078409D01*
X156099407Y-87051471D01*
X156045532Y-87051471D01*
X155910845Y-87078409D01*
X155776158Y-87159221D01*
X155560659Y-87374720D01*
X155533722Y-87455532D01*
X155533722Y-87509407D01*
X155560659Y-87590219D01*
X155668409Y-87697969D01*
X155749221Y-87724906D01*
X155803096Y-87724906D01*
X155883908Y-87697969D01*
X156018595Y-87563282D01*
X156045532Y-87482470D01*
X156045532Y-87428595D01*
X156018595Y-87347783D01*
X155910845Y-87240033D01*
X155830033Y-87213096D01*
X155776158Y-87213096D01*
X155695346Y-87240033D01*
X154098155Y-88613841D02*
X154125093Y-88694653D01*
X154205905Y-88775465D01*
X154313654Y-88829340D01*
X154421404Y-88829340D01*
X154502216Y-88802402D01*
X154636903Y-88721590D01*
X154717715Y-88640778D01*
X154798528Y-88506091D01*
X154825465Y-88425279D01*
X154825465Y-88317529D01*
X154771590Y-88209780D01*
X154717715Y-88155905D01*
X154609966Y-88102030D01*
X154556091Y-88102030D01*
X154367529Y-88290592D01*
X154475279Y-88398341D01*
X154367529Y-87805719D02*
X153801844Y-88371404D01*
X154044280Y-87482470D01*
X153478595Y-88048155D01*
X153774906Y-87213096D02*
X153209221Y-87778781D01*
X153074534Y-87644094D01*
X153020659Y-87536345D01*
X153020659Y-87428595D01*
X153047597Y-87347783D01*
X153128409Y-87213096D01*
X153209221Y-87132284D01*
X153343908Y-87051471D01*
X153424720Y-87024534D01*
X153532470Y-87024534D01*
X153640219Y-87078409D01*
X153774906Y-87213096D01*
X169834592Y-114710277D02*
X169861529Y-114791089D01*
X169942341Y-114871902D01*
X170050091Y-114925776D01*
X170157841Y-114925776D01*
X170238653Y-114898839D01*
X170373340Y-114818027D01*
X170454152Y-114737215D01*
X170534964Y-114602528D01*
X170561902Y-114521715D01*
X170561902Y-114413966D01*
X170508027Y-114306216D01*
X170454152Y-114252341D01*
X170346402Y-114198467D01*
X170292528Y-114198467D01*
X170103966Y-114387028D01*
X170211715Y-114494778D01*
X170103966Y-113902155D02*
X169538280Y-114467841D01*
X169322781Y-114252341D01*
X169295844Y-114171529D01*
X169295844Y-114117654D01*
X169322781Y-114036842D01*
X169403593Y-113956030D01*
X169484406Y-113929093D01*
X169538280Y-113929093D01*
X169619093Y-113956030D01*
X169834592Y-114171529D01*
X169053407Y-113875218D02*
X168999532Y-113875218D01*
X168918720Y-113848280D01*
X168784033Y-113713593D01*
X168757096Y-113632781D01*
X168757096Y-113578906D01*
X168784033Y-113498094D01*
X168837908Y-113444219D01*
X168945658Y-113390345D01*
X169592155Y-113390345D01*
X169241969Y-113040158D01*
X168595471Y-113040158D02*
X168622409Y-113120971D01*
X168622409Y-113174845D01*
X168595471Y-113255658D01*
X168568534Y-113282595D01*
X168487722Y-113309532D01*
X168433847Y-113309532D01*
X168353035Y-113282595D01*
X168245285Y-113174845D01*
X168218348Y-113094033D01*
X168218348Y-113040158D01*
X168245285Y-112959346D01*
X168272223Y-112932409D01*
X168353035Y-112905471D01*
X168406910Y-112905471D01*
X168487722Y-112932409D01*
X168595471Y-113040158D01*
X168676284Y-113067096D01*
X168730158Y-113067096D01*
X168810971Y-113040158D01*
X168918720Y-112932409D01*
X168945658Y-112851597D01*
X168945658Y-112797722D01*
X168918720Y-112716910D01*
X168810971Y-112609160D01*
X168730158Y-112582223D01*
X168676284Y-112582223D01*
X168595471Y-112609160D01*
X168487722Y-112716910D01*
X168460784Y-112797722D01*
X168460784Y-112851597D01*
X168487722Y-112932409D01*
X139100592Y-114710277D02*
X139127529Y-114791089D01*
X139208341Y-114871902D01*
X139316091Y-114925776D01*
X139423841Y-114925776D01*
X139504653Y-114898839D01*
X139639340Y-114818027D01*
X139720152Y-114737215D01*
X139800964Y-114602528D01*
X139827902Y-114521715D01*
X139827902Y-114413966D01*
X139774027Y-114306216D01*
X139720152Y-114252341D01*
X139612402Y-114198467D01*
X139558528Y-114198467D01*
X139369966Y-114387028D01*
X139477715Y-114494778D01*
X139369966Y-113902155D02*
X138804280Y-114467841D01*
X138588781Y-114252341D01*
X138561844Y-114171529D01*
X138561844Y-114117654D01*
X138588781Y-114036842D01*
X138669593Y-113956030D01*
X138750406Y-113929093D01*
X138804280Y-113929093D01*
X138885093Y-113956030D01*
X139100592Y-114171529D01*
X138507969Y-113040158D02*
X138831218Y-113363407D01*
X138669593Y-113201783D02*
X138103908Y-113767468D01*
X138238595Y-113740531D01*
X138346345Y-113740531D01*
X138427157Y-113767468D01*
X137753722Y-113417282D02*
X137376598Y-113040158D01*
X138184720Y-112716910D01*
X149260592Y-114710277D02*
X149287529Y-114791089D01*
X149368341Y-114871902D01*
X149476091Y-114925776D01*
X149583841Y-114925776D01*
X149664653Y-114898839D01*
X149799340Y-114818027D01*
X149880152Y-114737215D01*
X149960964Y-114602528D01*
X149987902Y-114521715D01*
X149987902Y-114413966D01*
X149934027Y-114306216D01*
X149880152Y-114252341D01*
X149772402Y-114198467D01*
X149718528Y-114198467D01*
X149529966Y-114387028D01*
X149637715Y-114494778D01*
X149529966Y-113902155D02*
X148964280Y-114467841D01*
X148748781Y-114252341D01*
X148721844Y-114171529D01*
X148721844Y-114117654D01*
X148748781Y-114036842D01*
X148829593Y-113956030D01*
X148910406Y-113929093D01*
X148964280Y-113929093D01*
X149045093Y-113956030D01*
X149260592Y-114171529D01*
X148479407Y-113875218D02*
X148425532Y-113875218D01*
X148344720Y-113848280D01*
X148210033Y-113713593D01*
X148183096Y-113632781D01*
X148183096Y-113578906D01*
X148210033Y-113498094D01*
X148263908Y-113444219D01*
X148371658Y-113390345D01*
X149018155Y-113390345D01*
X148667969Y-113040158D01*
X147752097Y-113255658D02*
X147698223Y-113201783D01*
X147671285Y-113120971D01*
X147671285Y-113067096D01*
X147698223Y-112986284D01*
X147779035Y-112851597D01*
X147913722Y-112716910D01*
X148048409Y-112636097D01*
X148129221Y-112609160D01*
X148183096Y-112609160D01*
X148263908Y-112636097D01*
X148317783Y-112689972D01*
X148344720Y-112770784D01*
X148344720Y-112824659D01*
X148317783Y-112905471D01*
X148236971Y-113040158D01*
X148102284Y-113174845D01*
X147967597Y-113255658D01*
X147886784Y-113282595D01*
X147832910Y-113282595D01*
X147752097Y-113255658D01*
X166798155Y-88613841D02*
X166825093Y-88694653D01*
X166905905Y-88775465D01*
X167013654Y-88829340D01*
X167121404Y-88829340D01*
X167202216Y-88802402D01*
X167336903Y-88721590D01*
X167417715Y-88640778D01*
X167498528Y-88506091D01*
X167525465Y-88425279D01*
X167525465Y-88317529D01*
X167471590Y-88209780D01*
X167417715Y-88155905D01*
X167309966Y-88102030D01*
X167256091Y-88102030D01*
X167067529Y-88290592D01*
X167175279Y-88398341D01*
X167067529Y-87805719D02*
X166501844Y-88371404D01*
X166744280Y-87482470D01*
X166178595Y-88048155D01*
X166474906Y-87213096D02*
X165909221Y-87778781D01*
X165774534Y-87644094D01*
X165720659Y-87536345D01*
X165720659Y-87428595D01*
X165747597Y-87347783D01*
X165828409Y-87213096D01*
X165909221Y-87132284D01*
X166043908Y-87051471D01*
X166124720Y-87024534D01*
X166232470Y-87024534D01*
X166340219Y-87078409D01*
X166474906Y-87213096D01*
X182021218Y-88486903D02*
X182048155Y-88567715D01*
X182128967Y-88648528D01*
X182236717Y-88702402D01*
X182344467Y-88702402D01*
X182425279Y-88675465D01*
X182559966Y-88594653D01*
X182640778Y-88513841D01*
X182721590Y-88379154D01*
X182748528Y-88298341D01*
X182748528Y-88190592D01*
X182694653Y-88082842D01*
X182640778Y-88028967D01*
X182533028Y-87975093D01*
X182479154Y-87975093D01*
X182290592Y-88163654D01*
X182398341Y-88271404D01*
X182290592Y-87678781D02*
X181724906Y-88244467D01*
X181509407Y-88028967D01*
X181482470Y-87948155D01*
X181482470Y-87894280D01*
X181509407Y-87813468D01*
X181590219Y-87732656D01*
X181671032Y-87705719D01*
X181724906Y-87705719D01*
X181805719Y-87732656D01*
X182021218Y-87948155D01*
X181428595Y-86816784D02*
X181751844Y-87140033D01*
X181590219Y-86978409D02*
X181024534Y-87544094D01*
X181159221Y-87517157D01*
X181266971Y-87517157D01*
X181347783Y-87544094D01*
X153123809Y-101509523D02*
X153161904Y-101395238D01*
X153161904Y-101204761D01*
X153123809Y-101128571D01*
X153085714Y-101090476D01*
X153009523Y-101052380D01*
X152933333Y-101052380D01*
X152857142Y-101090476D01*
X152819047Y-101128571D01*
X152780952Y-101204761D01*
X152742857Y-101357142D01*
X152704761Y-101433333D01*
X152666666Y-101471428D01*
X152590476Y-101509523D01*
X152514285Y-101509523D01*
X152438095Y-101471428D01*
X152400000Y-101433333D01*
X152361904Y-101357142D01*
X152361904Y-101166666D01*
X152400000Y-101052380D01*
X152361904Y-100785714D02*
X153161904Y-100595238D01*
X152590476Y-100442857D01*
X153161904Y-100290476D01*
X152361904Y-100100000D01*
X153085714Y-99338095D02*
X153123809Y-99376190D01*
X153161904Y-99490476D01*
X153161904Y-99566666D01*
X153123809Y-99680952D01*
X153047619Y-99757142D01*
X152971428Y-99795238D01*
X152819047Y-99833333D01*
X152704761Y-99833333D01*
X152552380Y-99795238D01*
X152476190Y-99757142D01*
X152400000Y-99680952D01*
X152361904Y-99566666D01*
X152361904Y-99490476D01*
X152400000Y-99376190D01*
X152438095Y-99338095D01*
X153161904Y-98614285D02*
X153161904Y-98995238D01*
X152361904Y-98995238D01*
X153161904Y-98347619D02*
X152361904Y-98347619D01*
X153161904Y-97890476D02*
X152704761Y-98233333D01*
X152361904Y-97890476D02*
X152819047Y-98347619D01*
X143858092Y-88602277D02*
X143885029Y-88683089D01*
X143965841Y-88763902D01*
X144073591Y-88817776D01*
X144181341Y-88817776D01*
X144262153Y-88790839D01*
X144396840Y-88710027D01*
X144477652Y-88629215D01*
X144558464Y-88494528D01*
X144585402Y-88413715D01*
X144585402Y-88305966D01*
X144531527Y-88198216D01*
X144477652Y-88144341D01*
X144369902Y-88090467D01*
X144316028Y-88090467D01*
X144127466Y-88279028D01*
X144235215Y-88386778D01*
X144127466Y-87794155D02*
X143561780Y-88359841D01*
X143346281Y-88144341D01*
X143319344Y-88063529D01*
X143319344Y-88009654D01*
X143346281Y-87928842D01*
X143427093Y-87848030D01*
X143507906Y-87821093D01*
X143561780Y-87821093D01*
X143642593Y-87848030D01*
X143858092Y-88063529D01*
X143265469Y-86932158D02*
X143588718Y-87255407D01*
X143427093Y-87093783D02*
X142861408Y-87659468D01*
X142996095Y-87632531D01*
X143103845Y-87632531D01*
X143184657Y-87659468D01*
X142511222Y-87309282D02*
X142161036Y-86959096D01*
X142565097Y-86932158D01*
X142484284Y-86851346D01*
X142457347Y-86770534D01*
X142457347Y-86716659D01*
X142484284Y-86635847D01*
X142618971Y-86501160D01*
X142699784Y-86474223D01*
X142753658Y-86474223D01*
X142834471Y-86501160D01*
X142996095Y-86662784D01*
X143023032Y-86743597D01*
X143023032Y-86797471D01*
X178658308Y-116177868D02*
X178308122Y-115827682D01*
X178712183Y-115800744D01*
X178631370Y-115719932D01*
X178604433Y-115639120D01*
X178604433Y-115585245D01*
X178631370Y-115504433D01*
X178766057Y-115369746D01*
X178846870Y-115342809D01*
X178900744Y-115342809D01*
X178981557Y-115369746D01*
X179143181Y-115531370D01*
X179170118Y-115612183D01*
X179170118Y-115666057D01*
X178146497Y-115666057D02*
X178523621Y-114911810D01*
X177769374Y-115288934D01*
X177634687Y-115154247D02*
X177284500Y-114804061D01*
X177688561Y-114777123D01*
X177607749Y-114696311D01*
X177580812Y-114615499D01*
X177580812Y-114561624D01*
X177607749Y-114480812D01*
X177742436Y-114346125D01*
X177823248Y-114319187D01*
X177877123Y-114319187D01*
X177957935Y-114346125D01*
X178119560Y-114507749D01*
X178146497Y-114588561D01*
X178146497Y-114642436D01*
X177796311Y-114076751D02*
X177365312Y-113645752D01*
X176880439Y-113861251D02*
X176691877Y-113672690D01*
X176907377Y-113295566D02*
X177176751Y-113564940D01*
X176611065Y-114130625D01*
X176341691Y-113861251D01*
X176664940Y-113053129D02*
X176099255Y-113618815D01*
X176341691Y-112729881D01*
X175776006Y-113295566D01*
X139100592Y-88556277D02*
X139127529Y-88637089D01*
X139208341Y-88717902D01*
X139316091Y-88771776D01*
X139423841Y-88771776D01*
X139504653Y-88744839D01*
X139639340Y-88664027D01*
X139720152Y-88583215D01*
X139800964Y-88448528D01*
X139827902Y-88367715D01*
X139827902Y-88259966D01*
X139774027Y-88152216D01*
X139720152Y-88098341D01*
X139612402Y-88044467D01*
X139558528Y-88044467D01*
X139369966Y-88233028D01*
X139477715Y-88340778D01*
X139369966Y-87748155D02*
X138804280Y-88313841D01*
X138588781Y-88098341D01*
X138561844Y-88017529D01*
X138561844Y-87963654D01*
X138588781Y-87882842D01*
X138669593Y-87802030D01*
X138750406Y-87775093D01*
X138804280Y-87775093D01*
X138885093Y-87802030D01*
X139100592Y-88017529D01*
X138507969Y-86886158D02*
X138831218Y-87209407D01*
X138669593Y-87047783D02*
X138103908Y-87613468D01*
X138238595Y-87586531D01*
X138346345Y-87586531D01*
X138427157Y-87613468D01*
X137645972Y-86778409D02*
X138023096Y-86401285D01*
X137565160Y-87128595D02*
X138103908Y-86859221D01*
X137753722Y-86509035D01*
X176931218Y-88486903D02*
X176958155Y-88567715D01*
X177038967Y-88648528D01*
X177146717Y-88702402D01*
X177254467Y-88702402D01*
X177335279Y-88675465D01*
X177469966Y-88594653D01*
X177550778Y-88513841D01*
X177631590Y-88379154D01*
X177658528Y-88298341D01*
X177658528Y-88190592D01*
X177604653Y-88082842D01*
X177550778Y-88028967D01*
X177443028Y-87975093D01*
X177389154Y-87975093D01*
X177200592Y-88163654D01*
X177308341Y-88271404D01*
X177200592Y-87678781D02*
X176634906Y-88244467D01*
X176419407Y-88028967D01*
X176392470Y-87948155D01*
X176392470Y-87894280D01*
X176419407Y-87813468D01*
X176500219Y-87732656D01*
X176581032Y-87705719D01*
X176634906Y-87705719D01*
X176715719Y-87732656D01*
X176931218Y-87948155D01*
X176150033Y-87651844D02*
X176096158Y-87651844D01*
X176015346Y-87624906D01*
X175880659Y-87490219D01*
X175853722Y-87409407D01*
X175853722Y-87355532D01*
X175880659Y-87274720D01*
X175934534Y-87220845D01*
X176042284Y-87166971D01*
X176688781Y-87166971D01*
X176338595Y-86816784D01*
X156880592Y-114710277D02*
X156907529Y-114791089D01*
X156988341Y-114871902D01*
X157096091Y-114925776D01*
X157203841Y-114925776D01*
X157284653Y-114898839D01*
X157419340Y-114818027D01*
X157500152Y-114737215D01*
X157580964Y-114602528D01*
X157607902Y-114521715D01*
X157607902Y-114413966D01*
X157554027Y-114306216D01*
X157500152Y-114252341D01*
X157392402Y-114198467D01*
X157338528Y-114198467D01*
X157149966Y-114387028D01*
X157257715Y-114494778D01*
X157149966Y-113902155D02*
X156584280Y-114467841D01*
X156368781Y-114252341D01*
X156341844Y-114171529D01*
X156341844Y-114117654D01*
X156368781Y-114036842D01*
X156449593Y-113956030D01*
X156530406Y-113929093D01*
X156584280Y-113929093D01*
X156665093Y-113956030D01*
X156880592Y-114171529D01*
X156099407Y-113875218D02*
X156045532Y-113875218D01*
X155964720Y-113848280D01*
X155830033Y-113713593D01*
X155803096Y-113632781D01*
X155803096Y-113578906D01*
X155830033Y-113498094D01*
X155883908Y-113444219D01*
X155991658Y-113390345D01*
X156638155Y-113390345D01*
X156287969Y-113040158D01*
X155560659Y-113336470D02*
X155506784Y-113336470D01*
X155425972Y-113309532D01*
X155291285Y-113174845D01*
X155264348Y-113094033D01*
X155264348Y-113040158D01*
X155291285Y-112959346D01*
X155345160Y-112905471D01*
X155452910Y-112851597D01*
X156099407Y-112851597D01*
X155749221Y-112501410D01*
X154098155Y-114213841D02*
X154125093Y-114294653D01*
X154205905Y-114375465D01*
X154313654Y-114429340D01*
X154421404Y-114429340D01*
X154502216Y-114402402D01*
X154636903Y-114321590D01*
X154717715Y-114240778D01*
X154798528Y-114106091D01*
X154825465Y-114025279D01*
X154825465Y-113917529D01*
X154771590Y-113809780D01*
X154717715Y-113755905D01*
X154609966Y-113702030D01*
X154556091Y-113702030D01*
X154367529Y-113890592D01*
X154475279Y-113998341D01*
X154367529Y-113405719D02*
X153801844Y-113971404D01*
X154044280Y-113082470D01*
X153478595Y-113648155D01*
X153774906Y-112813096D02*
X153209221Y-113378781D01*
X153074534Y-113244094D01*
X153020659Y-113136345D01*
X153020659Y-113028595D01*
X153047597Y-112947783D01*
X153128409Y-112813096D01*
X153209221Y-112732284D01*
X153343908Y-112651471D01*
X153424720Y-112624534D01*
X153532470Y-112624534D01*
X153640219Y-112678409D01*
X153774906Y-112813096D01*
X136560592Y-88602277D02*
X136587529Y-88683089D01*
X136668341Y-88763902D01*
X136776091Y-88817776D01*
X136883841Y-88817776D01*
X136964653Y-88790839D01*
X137099340Y-88710027D01*
X137180152Y-88629215D01*
X137260964Y-88494528D01*
X137287902Y-88413715D01*
X137287902Y-88305966D01*
X137234027Y-88198216D01*
X137180152Y-88144341D01*
X137072402Y-88090467D01*
X137018528Y-88090467D01*
X136829966Y-88279028D01*
X136937715Y-88386778D01*
X136829966Y-87794155D02*
X136264280Y-88359841D01*
X136048781Y-88144341D01*
X136021844Y-88063529D01*
X136021844Y-88009654D01*
X136048781Y-87928842D01*
X136129593Y-87848030D01*
X136210406Y-87821093D01*
X136264280Y-87821093D01*
X136345093Y-87848030D01*
X136560592Y-88063529D01*
X135967969Y-86932158D02*
X136291218Y-87255407D01*
X136129593Y-87093783D02*
X135563908Y-87659468D01*
X135698595Y-87632531D01*
X135806345Y-87632531D01*
X135887157Y-87659468D01*
X134890473Y-86986033D02*
X135159847Y-87255407D01*
X135456158Y-87012971D01*
X135402284Y-87012971D01*
X135321471Y-86986033D01*
X135186784Y-86851346D01*
X135159847Y-86770534D01*
X135159847Y-86716659D01*
X135186784Y-86635847D01*
X135321471Y-86501160D01*
X135402284Y-86474223D01*
X135456158Y-86474223D01*
X135536971Y-86501160D01*
X135671658Y-86635847D01*
X135698595Y-86716659D01*
X135698595Y-86770534D01*
X159703435Y-113861624D02*
X159622622Y-114319560D01*
X160026683Y-114184873D02*
X159460998Y-114750558D01*
X159245499Y-114535059D01*
X159218561Y-114454247D01*
X159218561Y-114400372D01*
X159245499Y-114319560D01*
X159326311Y-114238748D01*
X159407123Y-114211810D01*
X159460998Y-114211810D01*
X159541810Y-114238748D01*
X159757309Y-114454247D01*
X158895312Y-114184873D02*
X159353248Y-113726937D01*
X159380186Y-113646125D01*
X159380186Y-113592250D01*
X159353248Y-113511438D01*
X159245499Y-113403688D01*
X159164687Y-113376751D01*
X159110812Y-113376751D01*
X159030000Y-113403688D01*
X158572064Y-113861624D01*
X158868375Y-113026564D02*
X158302690Y-113592250D01*
X158545126Y-112703316D01*
X157979441Y-113269001D01*
X144180592Y-114710277D02*
X144207529Y-114791089D01*
X144288341Y-114871902D01*
X144396091Y-114925776D01*
X144503841Y-114925776D01*
X144584653Y-114898839D01*
X144719340Y-114818027D01*
X144800152Y-114737215D01*
X144880964Y-114602528D01*
X144907902Y-114521715D01*
X144907902Y-114413966D01*
X144854027Y-114306216D01*
X144800152Y-114252341D01*
X144692402Y-114198467D01*
X144638528Y-114198467D01*
X144449966Y-114387028D01*
X144557715Y-114494778D01*
X144449966Y-113902155D02*
X143884280Y-114467841D01*
X143668781Y-114252341D01*
X143641844Y-114171529D01*
X143641844Y-114117654D01*
X143668781Y-114036842D01*
X143749593Y-113956030D01*
X143830406Y-113929093D01*
X143884280Y-113929093D01*
X143965093Y-113956030D01*
X144180592Y-114171529D01*
X143587969Y-113040158D02*
X143911218Y-113363407D01*
X143749593Y-113201783D02*
X143183908Y-113767468D01*
X143318595Y-113740531D01*
X143426345Y-113740531D01*
X143507157Y-113767468D01*
X142941471Y-113040158D02*
X142968409Y-113120971D01*
X142968409Y-113174845D01*
X142941471Y-113255658D01*
X142914534Y-113282595D01*
X142833722Y-113309532D01*
X142779847Y-113309532D01*
X142699035Y-113282595D01*
X142591285Y-113174845D01*
X142564348Y-113094033D01*
X142564348Y-113040158D01*
X142591285Y-112959346D01*
X142618223Y-112932409D01*
X142699035Y-112905471D01*
X142752910Y-112905471D01*
X142833722Y-112932409D01*
X142941471Y-113040158D01*
X143022284Y-113067096D01*
X143076158Y-113067096D01*
X143156971Y-113040158D01*
X143264720Y-112932409D01*
X143291658Y-112851597D01*
X143291658Y-112797722D01*
X143264720Y-112716910D01*
X143156971Y-112609160D01*
X143076158Y-112582223D01*
X143022284Y-112582223D01*
X142941471Y-112609160D01*
X142833722Y-112716910D01*
X142806784Y-112797722D01*
X142806784Y-112851597D01*
X142833722Y-112932409D01*
X164490592Y-114710277D02*
X164517529Y-114791089D01*
X164598341Y-114871902D01*
X164706091Y-114925776D01*
X164813841Y-114925776D01*
X164894653Y-114898839D01*
X165029340Y-114818027D01*
X165110152Y-114737215D01*
X165190964Y-114602528D01*
X165217902Y-114521715D01*
X165217902Y-114413966D01*
X165164027Y-114306216D01*
X165110152Y-114252341D01*
X165002402Y-114198467D01*
X164948528Y-114198467D01*
X164759966Y-114387028D01*
X164867715Y-114494778D01*
X164759966Y-113902155D02*
X164194280Y-114467841D01*
X163978781Y-114252341D01*
X163951844Y-114171529D01*
X163951844Y-114117654D01*
X163978781Y-114036842D01*
X164059593Y-113956030D01*
X164140406Y-113929093D01*
X164194280Y-113929093D01*
X164275093Y-113956030D01*
X164490592Y-114171529D01*
X163709407Y-113875218D02*
X163655532Y-113875218D01*
X163574720Y-113848280D01*
X163440033Y-113713593D01*
X163413096Y-113632781D01*
X163413096Y-113578906D01*
X163440033Y-113498094D01*
X163493908Y-113444219D01*
X163601658Y-113390345D01*
X164248155Y-113390345D01*
X163897969Y-113040158D01*
X163143722Y-113417282D02*
X162766598Y-113040158D01*
X163574720Y-112716910D01*
X151800592Y-88602277D02*
X151827529Y-88683089D01*
X151908341Y-88763902D01*
X152016091Y-88817776D01*
X152123841Y-88817776D01*
X152204653Y-88790839D01*
X152339340Y-88710027D01*
X152420152Y-88629215D01*
X152500964Y-88494528D01*
X152527902Y-88413715D01*
X152527902Y-88305966D01*
X152474027Y-88198216D01*
X152420152Y-88144341D01*
X152312402Y-88090467D01*
X152258528Y-88090467D01*
X152069966Y-88279028D01*
X152177715Y-88386778D01*
X152069966Y-87794155D02*
X151504280Y-88359841D01*
X151288781Y-88144341D01*
X151261844Y-88063529D01*
X151261844Y-88009654D01*
X151288781Y-87928842D01*
X151369593Y-87848030D01*
X151450406Y-87821093D01*
X151504280Y-87821093D01*
X151585093Y-87848030D01*
X151800592Y-88063529D01*
X151207969Y-86932158D02*
X151531218Y-87255407D01*
X151369593Y-87093783D02*
X150803908Y-87659468D01*
X150938595Y-87632531D01*
X151046345Y-87632531D01*
X151127157Y-87659468D01*
X150292097Y-87147658D02*
X150238223Y-87093783D01*
X150211285Y-87012971D01*
X150211285Y-86959096D01*
X150238223Y-86878284D01*
X150319035Y-86743597D01*
X150453722Y-86608910D01*
X150588409Y-86528097D01*
X150669221Y-86501160D01*
X150723096Y-86501160D01*
X150803908Y-86528097D01*
X150857783Y-86581972D01*
X150884720Y-86662784D01*
X150884720Y-86716659D01*
X150857783Y-86797471D01*
X150776971Y-86932158D01*
X150642284Y-87066845D01*
X150507597Y-87147658D01*
X150426784Y-87174595D01*
X150372910Y-87174595D01*
X150292097Y-87147658D01*
X174590592Y-114610152D02*
X174240406Y-114259966D01*
X174644467Y-114233028D01*
X174563654Y-114152216D01*
X174536717Y-114071404D01*
X174536717Y-114017529D01*
X174563654Y-113936717D01*
X174698341Y-113802030D01*
X174779154Y-113775093D01*
X174833028Y-113775093D01*
X174913841Y-113802030D01*
X175075465Y-113963654D01*
X175102402Y-114044467D01*
X175102402Y-114098341D01*
X174078781Y-114098341D02*
X174455905Y-113344094D01*
X173701658Y-113721218D01*
X173566971Y-113586531D02*
X173216784Y-113236345D01*
X173620845Y-113209407D01*
X173540033Y-113128595D01*
X173513096Y-113047783D01*
X173513096Y-112993908D01*
X173540033Y-112913096D01*
X173674720Y-112778409D01*
X173755532Y-112751471D01*
X173809407Y-112751471D01*
X173890219Y-112778409D01*
X174051844Y-112940033D01*
X174078781Y-113020845D01*
X174078781Y-113074720D01*
X141398155Y-88613841D02*
X141425093Y-88694653D01*
X141505905Y-88775465D01*
X141613654Y-88829340D01*
X141721404Y-88829340D01*
X141802216Y-88802402D01*
X141936903Y-88721590D01*
X142017715Y-88640778D01*
X142098528Y-88506091D01*
X142125465Y-88425279D01*
X142125465Y-88317529D01*
X142071590Y-88209780D01*
X142017715Y-88155905D01*
X141909966Y-88102030D01*
X141856091Y-88102030D01*
X141667529Y-88290592D01*
X141775279Y-88398341D01*
X141667529Y-87805719D02*
X141101844Y-88371404D01*
X141344280Y-87482470D01*
X140778595Y-88048155D01*
X141074906Y-87213096D02*
X140509221Y-87778781D01*
X140374534Y-87644094D01*
X140320659Y-87536345D01*
X140320659Y-87428595D01*
X140347597Y-87347783D01*
X140428409Y-87213096D01*
X140509221Y-87132284D01*
X140643908Y-87051471D01*
X140724720Y-87024534D01*
X140832470Y-87024534D01*
X140940219Y-87078409D01*
X141074906Y-87213096D01*
%TO.C,J2*%
X104516666Y-99477380D02*
X104516666Y-100191666D01*
X104469047Y-100334523D01*
X104373809Y-100429761D01*
X104230952Y-100477380D01*
X104135714Y-100477380D01*
X104945238Y-99572619D02*
X104992857Y-99525000D01*
X105088095Y-99477380D01*
X105326190Y-99477380D01*
X105421428Y-99525000D01*
X105469047Y-99572619D01*
X105516666Y-99667857D01*
X105516666Y-99763095D01*
X105469047Y-99905952D01*
X104897619Y-100477380D01*
X105516666Y-100477380D01*
%TO.C,Q13*%
X165128571Y-79047619D02*
X165033333Y-79000000D01*
X164938095Y-78904761D01*
X164795238Y-78761904D01*
X164700000Y-78714285D01*
X164604761Y-78714285D01*
X164652380Y-78952380D02*
X164557142Y-78904761D01*
X164461904Y-78809523D01*
X164414285Y-78619047D01*
X164414285Y-78285714D01*
X164461904Y-78095238D01*
X164557142Y-78000000D01*
X164652380Y-77952380D01*
X164842857Y-77952380D01*
X164938095Y-78000000D01*
X165033333Y-78095238D01*
X165080952Y-78285714D01*
X165080952Y-78619047D01*
X165033333Y-78809523D01*
X164938095Y-78904761D01*
X164842857Y-78952380D01*
X164652380Y-78952380D01*
X166033333Y-78952380D02*
X165461904Y-78952380D01*
X165747619Y-78952380D02*
X165747619Y-77952380D01*
X165652380Y-78095238D01*
X165557142Y-78190476D01*
X165461904Y-78238095D01*
X166366666Y-77952380D02*
X166985714Y-77952380D01*
X166652380Y-78333333D01*
X166795238Y-78333333D01*
X166890476Y-78380952D01*
X166938095Y-78428571D01*
X166985714Y-78523809D01*
X166985714Y-78761904D01*
X166938095Y-78857142D01*
X166890476Y-78904761D01*
X166795238Y-78952380D01*
X166509523Y-78952380D01*
X166414285Y-78904761D01*
X166366666Y-78857142D01*
%TO.C,R12*%
X106607142Y-90952380D02*
X106273809Y-90476190D01*
X106035714Y-90952380D02*
X106035714Y-89952380D01*
X106416666Y-89952380D01*
X106511904Y-90000000D01*
X106559523Y-90047619D01*
X106607142Y-90142857D01*
X106607142Y-90285714D01*
X106559523Y-90380952D01*
X106511904Y-90428571D01*
X106416666Y-90476190D01*
X106035714Y-90476190D01*
X107559523Y-90952380D02*
X106988095Y-90952380D01*
X107273809Y-90952380D02*
X107273809Y-89952380D01*
X107178571Y-90095238D01*
X107083333Y-90190476D01*
X106988095Y-90238095D01*
X107940476Y-90047619D02*
X107988095Y-90000000D01*
X108083333Y-89952380D01*
X108321428Y-89952380D01*
X108416666Y-90000000D01*
X108464285Y-90047619D01*
X108511904Y-90142857D01*
X108511904Y-90238095D01*
X108464285Y-90380952D01*
X107892857Y-90952380D01*
X108511904Y-90952380D01*
%TO.C,R26*%
X157732380Y-79772857D02*
X157256190Y-80106190D01*
X157732380Y-80344285D02*
X156732380Y-80344285D01*
X156732380Y-79963333D01*
X156780000Y-79868095D01*
X156827619Y-79820476D01*
X156922857Y-79772857D01*
X157065714Y-79772857D01*
X157160952Y-79820476D01*
X157208571Y-79868095D01*
X157256190Y-79963333D01*
X157256190Y-80344285D01*
X156827619Y-79391904D02*
X156780000Y-79344285D01*
X156732380Y-79249047D01*
X156732380Y-79010952D01*
X156780000Y-78915714D01*
X156827619Y-78868095D01*
X156922857Y-78820476D01*
X157018095Y-78820476D01*
X157160952Y-78868095D01*
X157732380Y-79439523D01*
X157732380Y-78820476D01*
X156732380Y-77963333D02*
X156732380Y-78153809D01*
X156780000Y-78249047D01*
X156827619Y-78296666D01*
X156970476Y-78391904D01*
X157160952Y-78439523D01*
X157541904Y-78439523D01*
X157637142Y-78391904D01*
X157684761Y-78344285D01*
X157732380Y-78249047D01*
X157732380Y-78058571D01*
X157684761Y-77963333D01*
X157637142Y-77915714D01*
X157541904Y-77868095D01*
X157303809Y-77868095D01*
X157208571Y-77915714D01*
X157160952Y-77963333D01*
X157113333Y-78058571D01*
X157113333Y-78249047D01*
X157160952Y-78344285D01*
X157208571Y-78391904D01*
X157303809Y-78439523D01*
%TO.C,Q9*%
X109772619Y-83270238D02*
X109725000Y-83365476D01*
X109629761Y-83460714D01*
X109486904Y-83603571D01*
X109439285Y-83698809D01*
X109439285Y-83794047D01*
X109677380Y-83746428D02*
X109629761Y-83841666D01*
X109534523Y-83936904D01*
X109344047Y-83984523D01*
X109010714Y-83984523D01*
X108820238Y-83936904D01*
X108725000Y-83841666D01*
X108677380Y-83746428D01*
X108677380Y-83555952D01*
X108725000Y-83460714D01*
X108820238Y-83365476D01*
X109010714Y-83317857D01*
X109344047Y-83317857D01*
X109534523Y-83365476D01*
X109629761Y-83460714D01*
X109677380Y-83555952D01*
X109677380Y-83746428D01*
X109677380Y-82841666D02*
X109677380Y-82651190D01*
X109629761Y-82555952D01*
X109582142Y-82508333D01*
X109439285Y-82413095D01*
X109248809Y-82365476D01*
X108867857Y-82365476D01*
X108772619Y-82413095D01*
X108725000Y-82460714D01*
X108677380Y-82555952D01*
X108677380Y-82746428D01*
X108725000Y-82841666D01*
X108772619Y-82889285D01*
X108867857Y-82936904D01*
X109105952Y-82936904D01*
X109201190Y-82889285D01*
X109248809Y-82841666D01*
X109296428Y-82746428D01*
X109296428Y-82555952D01*
X109248809Y-82460714D01*
X109201190Y-82413095D01*
X109105952Y-82365476D01*
%TO.C,Q6*%
X170804761Y-71747619D02*
X170709523Y-71700000D01*
X170614285Y-71604761D01*
X170471428Y-71461904D01*
X170376190Y-71414285D01*
X170280952Y-71414285D01*
X170328571Y-71652380D02*
X170233333Y-71604761D01*
X170138095Y-71509523D01*
X170090476Y-71319047D01*
X170090476Y-70985714D01*
X170138095Y-70795238D01*
X170233333Y-70700000D01*
X170328571Y-70652380D01*
X170519047Y-70652380D01*
X170614285Y-70700000D01*
X170709523Y-70795238D01*
X170757142Y-70985714D01*
X170757142Y-71319047D01*
X170709523Y-71509523D01*
X170614285Y-71604761D01*
X170519047Y-71652380D01*
X170328571Y-71652380D01*
X171614285Y-70652380D02*
X171423809Y-70652380D01*
X171328571Y-70700000D01*
X171280952Y-70747619D01*
X171185714Y-70890476D01*
X171138095Y-71080952D01*
X171138095Y-71461904D01*
X171185714Y-71557142D01*
X171233333Y-71604761D01*
X171328571Y-71652380D01*
X171519047Y-71652380D01*
X171614285Y-71604761D01*
X171661904Y-71557142D01*
X171709523Y-71461904D01*
X171709523Y-71223809D01*
X171661904Y-71128571D01*
X171614285Y-71080952D01*
X171519047Y-71033333D01*
X171328571Y-71033333D01*
X171233333Y-71080952D01*
X171185714Y-71128571D01*
X171138095Y-71223809D01*
%TO.C,R20*%
X102057142Y-113827380D02*
X101723809Y-113351190D01*
X101485714Y-113827380D02*
X101485714Y-112827380D01*
X101866666Y-112827380D01*
X101961904Y-112875000D01*
X102009523Y-112922619D01*
X102057142Y-113017857D01*
X102057142Y-113160714D01*
X102009523Y-113255952D01*
X101961904Y-113303571D01*
X101866666Y-113351190D01*
X101485714Y-113351190D01*
X102438095Y-112922619D02*
X102485714Y-112875000D01*
X102580952Y-112827380D01*
X102819047Y-112827380D01*
X102914285Y-112875000D01*
X102961904Y-112922619D01*
X103009523Y-113017857D01*
X103009523Y-113113095D01*
X102961904Y-113255952D01*
X102390476Y-113827380D01*
X103009523Y-113827380D01*
X103628571Y-112827380D02*
X103723809Y-112827380D01*
X103819047Y-112875000D01*
X103866666Y-112922619D01*
X103914285Y-113017857D01*
X103961904Y-113208333D01*
X103961904Y-113446428D01*
X103914285Y-113636904D01*
X103866666Y-113732142D01*
X103819047Y-113779761D01*
X103723809Y-113827380D01*
X103628571Y-113827380D01*
X103533333Y-113779761D01*
X103485714Y-113732142D01*
X103438095Y-113636904D01*
X103390476Y-113446428D01*
X103390476Y-113208333D01*
X103438095Y-113017857D01*
X103485714Y-112922619D01*
X103533333Y-112875000D01*
X103628571Y-112827380D01*
%TO.C,BZ1*%
X123526564Y-76372419D02*
X123661251Y-76305076D01*
X123728595Y-76305076D01*
X123829610Y-76338748D01*
X123930625Y-76439763D01*
X123964297Y-76540778D01*
X123964297Y-76608122D01*
X123930625Y-76709137D01*
X123661251Y-76978511D01*
X122954145Y-76271404D01*
X123189847Y-76035702D01*
X123290862Y-76002030D01*
X123358206Y-76002030D01*
X123459221Y-76035702D01*
X123526564Y-76103045D01*
X123560236Y-76204061D01*
X123560236Y-76271404D01*
X123526564Y-76372419D01*
X123290862Y-76608122D01*
X123593908Y-75631641D02*
X124065312Y-75160236D01*
X124301015Y-76338748D01*
X124772419Y-75867343D01*
X125412183Y-75227580D02*
X125008122Y-75631641D01*
X125210152Y-75429610D02*
X124503045Y-74722503D01*
X124536717Y-74890862D01*
X124536717Y-75025549D01*
X124503045Y-75126564D01*
%TO.C,U3*%
X175371380Y-117472654D02*
X176180904Y-117472654D01*
X176276142Y-117425035D01*
X176323761Y-117377416D01*
X176371380Y-117282178D01*
X176371380Y-117091702D01*
X176323761Y-116996464D01*
X176276142Y-116948845D01*
X176180904Y-116901226D01*
X175371380Y-116901226D01*
X175371380Y-116520273D02*
X175371380Y-115901226D01*
X175752333Y-116234559D01*
X175752333Y-116091702D01*
X175799952Y-115996464D01*
X175847571Y-115948845D01*
X175942809Y-115901226D01*
X176180904Y-115901226D01*
X176276142Y-115948845D01*
X176323761Y-115996464D01*
X176371380Y-116091702D01*
X176371380Y-116377416D01*
X176323761Y-116472654D01*
X176276142Y-116520273D01*
%TO.C,D1*%
X181961904Y-122452380D02*
X181961904Y-121452380D01*
X182200000Y-121452380D01*
X182342857Y-121500000D01*
X182438095Y-121595238D01*
X182485714Y-121690476D01*
X182533333Y-121880952D01*
X182533333Y-122023809D01*
X182485714Y-122214285D01*
X182438095Y-122309523D01*
X182342857Y-122404761D01*
X182200000Y-122452380D01*
X181961904Y-122452380D01*
X183485714Y-122452380D02*
X182914285Y-122452380D01*
X183200000Y-122452380D02*
X183200000Y-121452380D01*
X183104761Y-121595238D01*
X183009523Y-121690476D01*
X182914285Y-121738095D01*
%TO.C,Q1*%
X186197619Y-116670238D02*
X186150000Y-116765476D01*
X186054761Y-116860714D01*
X185911904Y-117003571D01*
X185864285Y-117098809D01*
X185864285Y-117194047D01*
X186102380Y-117146428D02*
X186054761Y-117241666D01*
X185959523Y-117336904D01*
X185769047Y-117384523D01*
X185435714Y-117384523D01*
X185245238Y-117336904D01*
X185150000Y-117241666D01*
X185102380Y-117146428D01*
X185102380Y-116955952D01*
X185150000Y-116860714D01*
X185245238Y-116765476D01*
X185435714Y-116717857D01*
X185769047Y-116717857D01*
X185959523Y-116765476D01*
X186054761Y-116860714D01*
X186102380Y-116955952D01*
X186102380Y-117146428D01*
X186102380Y-115765476D02*
X186102380Y-116336904D01*
X186102380Y-116051190D02*
X185102380Y-116051190D01*
X185245238Y-116146428D01*
X185340476Y-116241666D01*
X185388095Y-116336904D01*
%TO.C,U4*%
X115244780Y-68987704D02*
X116054304Y-68987704D01*
X116149542Y-68940085D01*
X116197161Y-68892466D01*
X116244780Y-68797228D01*
X116244780Y-68606752D01*
X116197161Y-68511514D01*
X116149542Y-68463895D01*
X116054304Y-68416276D01*
X115244780Y-68416276D01*
X115578114Y-67511514D02*
X116244780Y-67511514D01*
X115197161Y-67749609D02*
X115911447Y-67987704D01*
X115911447Y-67368657D01*
X121239180Y-64034800D02*
X121477276Y-64034800D01*
X121382038Y-64272895D02*
X121477276Y-64034800D01*
X121382038Y-63796704D01*
X121667752Y-64177657D02*
X121477276Y-64034800D01*
X121667752Y-63891942D01*
X121239180Y-64034800D02*
X121477276Y-64034800D01*
X121382038Y-64272895D02*
X121477276Y-64034800D01*
X121382038Y-63796704D01*
X121667752Y-64177657D02*
X121477276Y-64034800D01*
X121667752Y-63891942D01*
%TO.C,Q7*%
X178624761Y-83767619D02*
X178529523Y-83720000D01*
X178434285Y-83624761D01*
X178291428Y-83481904D01*
X178196190Y-83434285D01*
X178100952Y-83434285D01*
X178148571Y-83672380D02*
X178053333Y-83624761D01*
X177958095Y-83529523D01*
X177910476Y-83339047D01*
X177910476Y-83005714D01*
X177958095Y-82815238D01*
X178053333Y-82720000D01*
X178148571Y-82672380D01*
X178339047Y-82672380D01*
X178434285Y-82720000D01*
X178529523Y-82815238D01*
X178577142Y-83005714D01*
X178577142Y-83339047D01*
X178529523Y-83529523D01*
X178434285Y-83624761D01*
X178339047Y-83672380D01*
X178148571Y-83672380D01*
X178910476Y-82672380D02*
X179577142Y-82672380D01*
X179148571Y-83672380D01*
%TO.C,R21*%
X102357142Y-104527380D02*
X102023809Y-104051190D01*
X101785714Y-104527380D02*
X101785714Y-103527380D01*
X102166666Y-103527380D01*
X102261904Y-103575000D01*
X102309523Y-103622619D01*
X102357142Y-103717857D01*
X102357142Y-103860714D01*
X102309523Y-103955952D01*
X102261904Y-104003571D01*
X102166666Y-104051190D01*
X101785714Y-104051190D01*
X102738095Y-103622619D02*
X102785714Y-103575000D01*
X102880952Y-103527380D01*
X103119047Y-103527380D01*
X103214285Y-103575000D01*
X103261904Y-103622619D01*
X103309523Y-103717857D01*
X103309523Y-103813095D01*
X103261904Y-103955952D01*
X102690476Y-104527380D01*
X103309523Y-104527380D01*
X104261904Y-104527380D02*
X103690476Y-104527380D01*
X103976190Y-104527380D02*
X103976190Y-103527380D01*
X103880952Y-103670238D01*
X103785714Y-103765476D01*
X103690476Y-103813095D01*
%TO.C,R23*%
X115957142Y-110502380D02*
X115623809Y-110026190D01*
X115385714Y-110502380D02*
X115385714Y-109502380D01*
X115766666Y-109502380D01*
X115861904Y-109550000D01*
X115909523Y-109597619D01*
X115957142Y-109692857D01*
X115957142Y-109835714D01*
X115909523Y-109930952D01*
X115861904Y-109978571D01*
X115766666Y-110026190D01*
X115385714Y-110026190D01*
X116338095Y-109597619D02*
X116385714Y-109550000D01*
X116480952Y-109502380D01*
X116719047Y-109502380D01*
X116814285Y-109550000D01*
X116861904Y-109597619D01*
X116909523Y-109692857D01*
X116909523Y-109788095D01*
X116861904Y-109930952D01*
X116290476Y-110502380D01*
X116909523Y-110502380D01*
X117242857Y-109502380D02*
X117861904Y-109502380D01*
X117528571Y-109883333D01*
X117671428Y-109883333D01*
X117766666Y-109930952D01*
X117814285Y-109978571D01*
X117861904Y-110073809D01*
X117861904Y-110311904D01*
X117814285Y-110407142D01*
X117766666Y-110454761D01*
X117671428Y-110502380D01*
X117385714Y-110502380D01*
X117290476Y-110454761D01*
X117242857Y-110407142D01*
%TO.C,JX4*%
X162015476Y-60302380D02*
X162015476Y-61016666D01*
X161967857Y-61159523D01*
X161872619Y-61254761D01*
X161729761Y-61302380D01*
X161634523Y-61302380D01*
X162396428Y-60302380D02*
X163063095Y-61302380D01*
X163063095Y-60302380D02*
X162396428Y-61302380D01*
X163872619Y-60635714D02*
X163872619Y-61302380D01*
X163634523Y-60254761D02*
X163396428Y-60969047D01*
X164015476Y-60969047D01*
%TO.C,R19*%
X124597142Y-74102380D02*
X124263809Y-73626190D01*
X124025714Y-74102380D02*
X124025714Y-73102380D01*
X124406666Y-73102380D01*
X124501904Y-73150000D01*
X124549523Y-73197619D01*
X124597142Y-73292857D01*
X124597142Y-73435714D01*
X124549523Y-73530952D01*
X124501904Y-73578571D01*
X124406666Y-73626190D01*
X124025714Y-73626190D01*
X125549523Y-74102380D02*
X124978095Y-74102380D01*
X125263809Y-74102380D02*
X125263809Y-73102380D01*
X125168571Y-73245238D01*
X125073333Y-73340476D01*
X124978095Y-73388095D01*
X126025714Y-74102380D02*
X126216190Y-74102380D01*
X126311428Y-74054761D01*
X126359047Y-74007142D01*
X126454285Y-73864285D01*
X126501904Y-73673809D01*
X126501904Y-73292857D01*
X126454285Y-73197619D01*
X126406666Y-73150000D01*
X126311428Y-73102380D01*
X126120952Y-73102380D01*
X126025714Y-73150000D01*
X125978095Y-73197619D01*
X125930476Y-73292857D01*
X125930476Y-73530952D01*
X125978095Y-73626190D01*
X126025714Y-73673809D01*
X126120952Y-73721428D01*
X126311428Y-73721428D01*
X126406666Y-73673809D01*
X126454285Y-73626190D01*
X126501904Y-73530952D01*
%TO.C,Q12*%
X161128571Y-80447619D02*
X161033333Y-80400000D01*
X160938095Y-80304761D01*
X160795238Y-80161904D01*
X160700000Y-80114285D01*
X160604761Y-80114285D01*
X160652380Y-80352380D02*
X160557142Y-80304761D01*
X160461904Y-80209523D01*
X160414285Y-80019047D01*
X160414285Y-79685714D01*
X160461904Y-79495238D01*
X160557142Y-79400000D01*
X160652380Y-79352380D01*
X160842857Y-79352380D01*
X160938095Y-79400000D01*
X161033333Y-79495238D01*
X161080952Y-79685714D01*
X161080952Y-80019047D01*
X161033333Y-80209523D01*
X160938095Y-80304761D01*
X160842857Y-80352380D01*
X160652380Y-80352380D01*
X162033333Y-80352380D02*
X161461904Y-80352380D01*
X161747619Y-80352380D02*
X161747619Y-79352380D01*
X161652380Y-79495238D01*
X161557142Y-79590476D01*
X161461904Y-79638095D01*
X162414285Y-79447619D02*
X162461904Y-79400000D01*
X162557142Y-79352380D01*
X162795238Y-79352380D01*
X162890476Y-79400000D01*
X162938095Y-79447619D01*
X162985714Y-79542857D01*
X162985714Y-79638095D01*
X162938095Y-79780952D01*
X162366666Y-80352380D01*
X162985714Y-80352380D01*
%TO.C,Q17*%
X158022619Y-69846428D02*
X157975000Y-69941666D01*
X157879761Y-70036904D01*
X157736904Y-70179761D01*
X157689285Y-70275000D01*
X157689285Y-70370238D01*
X157927380Y-70322619D02*
X157879761Y-70417857D01*
X157784523Y-70513095D01*
X157594047Y-70560714D01*
X157260714Y-70560714D01*
X157070238Y-70513095D01*
X156975000Y-70417857D01*
X156927380Y-70322619D01*
X156927380Y-70132142D01*
X156975000Y-70036904D01*
X157070238Y-69941666D01*
X157260714Y-69894047D01*
X157594047Y-69894047D01*
X157784523Y-69941666D01*
X157879761Y-70036904D01*
X157927380Y-70132142D01*
X157927380Y-70322619D01*
X157927380Y-68941666D02*
X157927380Y-69513095D01*
X157927380Y-69227380D02*
X156927380Y-69227380D01*
X157070238Y-69322619D01*
X157165476Y-69417857D01*
X157213095Y-69513095D01*
X156927380Y-68608333D02*
X156927380Y-67941666D01*
X157927380Y-68370238D01*
%TO.C,D10*%
X103942977Y-120638748D02*
X103235870Y-121345854D01*
X103067511Y-121177496D01*
X103000168Y-121042809D01*
X103000168Y-120908122D01*
X103033840Y-120807106D01*
X103134855Y-120638748D01*
X103235870Y-120537732D01*
X103404229Y-120436717D01*
X103505244Y-120403045D01*
X103639931Y-120403045D01*
X103774618Y-120470389D01*
X103942977Y-120638748D01*
X102865481Y-119561251D02*
X103269542Y-119965312D01*
X103067511Y-119763282D02*
X102360404Y-120470389D01*
X102528763Y-120436717D01*
X102663450Y-120436717D01*
X102764466Y-120470389D01*
X101720641Y-119830625D02*
X101653298Y-119763282D01*
X101619626Y-119662267D01*
X101619626Y-119594923D01*
X101653298Y-119493908D01*
X101754313Y-119325549D01*
X101922672Y-119157190D01*
X102091030Y-119056175D01*
X102192046Y-119022503D01*
X102259389Y-119022503D01*
X102360404Y-119056175D01*
X102427748Y-119123519D01*
X102461420Y-119224534D01*
X102461420Y-119291877D01*
X102427748Y-119392893D01*
X102326733Y-119561251D01*
X102158374Y-119729610D01*
X101990015Y-119830625D01*
X101889000Y-119864297D01*
X101821656Y-119864297D01*
X101720641Y-119830625D01*
%TO.C,F1*%
X133848571Y-65570833D02*
X133848571Y-65904166D01*
X134372380Y-65904166D02*
X133372380Y-65904166D01*
X133372380Y-65427976D01*
X134372380Y-64523214D02*
X134372380Y-65094642D01*
X134372380Y-64808928D02*
X133372380Y-64808928D01*
X133515238Y-64904166D01*
X133610476Y-64999404D01*
X133658095Y-65094642D01*
%TO.C,C1*%
X176252333Y-119292892D02*
X176204714Y-119340511D01*
X176061857Y-119388130D01*
X175966619Y-119388130D01*
X175823761Y-119340511D01*
X175728523Y-119245273D01*
X175680904Y-119150035D01*
X175633285Y-118959559D01*
X175633285Y-118816702D01*
X175680904Y-118626226D01*
X175728523Y-118530988D01*
X175823761Y-118435750D01*
X175966619Y-118388130D01*
X176061857Y-118388130D01*
X176204714Y-118435750D01*
X176252333Y-118483369D01*
X177204714Y-119388130D02*
X176633285Y-119388130D01*
X176919000Y-119388130D02*
X176919000Y-118388130D01*
X176823761Y-118530988D01*
X176728523Y-118626226D01*
X176633285Y-118673845D01*
%TO.C,D7*%
X137061904Y-70552380D02*
X137061904Y-69552380D01*
X137300000Y-69552380D01*
X137442857Y-69600000D01*
X137538095Y-69695238D01*
X137585714Y-69790476D01*
X137633333Y-69980952D01*
X137633333Y-70123809D01*
X137585714Y-70314285D01*
X137538095Y-70409523D01*
X137442857Y-70504761D01*
X137300000Y-70552380D01*
X137061904Y-70552380D01*
X137966666Y-69552380D02*
X138633333Y-69552380D01*
X138204761Y-70552380D01*
%TO.C,Q16*%
X141028571Y-63347619D02*
X140933333Y-63300000D01*
X140838095Y-63204761D01*
X140695238Y-63061904D01*
X140600000Y-63014285D01*
X140504761Y-63014285D01*
X140552380Y-63252380D02*
X140457142Y-63204761D01*
X140361904Y-63109523D01*
X140314285Y-62919047D01*
X140314285Y-62585714D01*
X140361904Y-62395238D01*
X140457142Y-62300000D01*
X140552380Y-62252380D01*
X140742857Y-62252380D01*
X140838095Y-62300000D01*
X140933333Y-62395238D01*
X140980952Y-62585714D01*
X140980952Y-62919047D01*
X140933333Y-63109523D01*
X140838095Y-63204761D01*
X140742857Y-63252380D01*
X140552380Y-63252380D01*
X141933333Y-63252380D02*
X141361904Y-63252380D01*
X141647619Y-63252380D02*
X141647619Y-62252380D01*
X141552380Y-62395238D01*
X141457142Y-62490476D01*
X141361904Y-62538095D01*
X142790476Y-62252380D02*
X142600000Y-62252380D01*
X142504761Y-62300000D01*
X142457142Y-62347619D01*
X142361904Y-62490476D01*
X142314285Y-62680952D01*
X142314285Y-63061904D01*
X142361904Y-63157142D01*
X142409523Y-63204761D01*
X142504761Y-63252380D01*
X142695238Y-63252380D01*
X142790476Y-63204761D01*
X142838095Y-63157142D01*
X142885714Y-63061904D01*
X142885714Y-62823809D01*
X142838095Y-62728571D01*
X142790476Y-62680952D01*
X142695238Y-62633333D01*
X142504761Y-62633333D01*
X142409523Y-62680952D01*
X142361904Y-62728571D01*
X142314285Y-62823809D01*
%TO.C,Q15*%
X152628571Y-76747619D02*
X152533333Y-76700000D01*
X152438095Y-76604761D01*
X152295238Y-76461904D01*
X152200000Y-76414285D01*
X152104761Y-76414285D01*
X152152380Y-76652380D02*
X152057142Y-76604761D01*
X151961904Y-76509523D01*
X151914285Y-76319047D01*
X151914285Y-75985714D01*
X151961904Y-75795238D01*
X152057142Y-75700000D01*
X152152380Y-75652380D01*
X152342857Y-75652380D01*
X152438095Y-75700000D01*
X152533333Y-75795238D01*
X152580952Y-75985714D01*
X152580952Y-76319047D01*
X152533333Y-76509523D01*
X152438095Y-76604761D01*
X152342857Y-76652380D01*
X152152380Y-76652380D01*
X153533333Y-76652380D02*
X152961904Y-76652380D01*
X153247619Y-76652380D02*
X153247619Y-75652380D01*
X153152380Y-75795238D01*
X153057142Y-75890476D01*
X152961904Y-75938095D01*
X154438095Y-75652380D02*
X153961904Y-75652380D01*
X153914285Y-76128571D01*
X153961904Y-76080952D01*
X154057142Y-76033333D01*
X154295238Y-76033333D01*
X154390476Y-76080952D01*
X154438095Y-76128571D01*
X154485714Y-76223809D01*
X154485714Y-76461904D01*
X154438095Y-76557142D01*
X154390476Y-76604761D01*
X154295238Y-76652380D01*
X154057142Y-76652380D01*
X153961904Y-76604761D01*
X153914285Y-76557142D01*
%TO.C,L1*%
X116608333Y-128852380D02*
X116132142Y-128852380D01*
X116132142Y-127852380D01*
X117465476Y-128852380D02*
X116894047Y-128852380D01*
X117179761Y-128852380D02*
X117179761Y-127852380D01*
X117084523Y-127995238D01*
X116989285Y-128090476D01*
X116894047Y-128138095D01*
%TO.C,D9*%
X133676904Y-68352380D02*
X133676904Y-67352380D01*
X133915000Y-67352380D01*
X134057857Y-67400000D01*
X134153095Y-67495238D01*
X134200714Y-67590476D01*
X134248333Y-67780952D01*
X134248333Y-67923809D01*
X134200714Y-68114285D01*
X134153095Y-68209523D01*
X134057857Y-68304761D01*
X133915000Y-68352380D01*
X133676904Y-68352380D01*
X134724523Y-68352380D02*
X134915000Y-68352380D01*
X135010238Y-68304761D01*
X135057857Y-68257142D01*
X135153095Y-68114285D01*
X135200714Y-67923809D01*
X135200714Y-67542857D01*
X135153095Y-67447619D01*
X135105476Y-67400000D01*
X135010238Y-67352380D01*
X134819761Y-67352380D01*
X134724523Y-67400000D01*
X134676904Y-67447619D01*
X134629285Y-67542857D01*
X134629285Y-67780952D01*
X134676904Y-67876190D01*
X134724523Y-67923809D01*
X134819761Y-67971428D01*
X135010238Y-67971428D01*
X135105476Y-67923809D01*
X135153095Y-67876190D01*
X135200714Y-67780952D01*
%TO.C,JX2*%
X131946476Y-59641380D02*
X131946476Y-60355666D01*
X131898857Y-60498523D01*
X131803619Y-60593761D01*
X131660761Y-60641380D01*
X131565523Y-60641380D01*
X132327428Y-59641380D02*
X132994095Y-60641380D01*
X132994095Y-59641380D02*
X132327428Y-60641380D01*
X133327428Y-59736619D02*
X133375047Y-59689000D01*
X133470285Y-59641380D01*
X133708380Y-59641380D01*
X133803619Y-59689000D01*
X133851238Y-59736619D01*
X133898857Y-59831857D01*
X133898857Y-59927095D01*
X133851238Y-60069952D01*
X133279809Y-60641380D01*
X133898857Y-60641380D01*
%TO.C,C9*%
X125757142Y-118291666D02*
X125804761Y-118339285D01*
X125852380Y-118482142D01*
X125852380Y-118577380D01*
X125804761Y-118720238D01*
X125709523Y-118815476D01*
X125614285Y-118863095D01*
X125423809Y-118910714D01*
X125280952Y-118910714D01*
X125090476Y-118863095D01*
X124995238Y-118815476D01*
X124900000Y-118720238D01*
X124852380Y-118577380D01*
X124852380Y-118482142D01*
X124900000Y-118339285D01*
X124947619Y-118291666D01*
X125852380Y-117815476D02*
X125852380Y-117625000D01*
X125804761Y-117529761D01*
X125757142Y-117482142D01*
X125614285Y-117386904D01*
X125423809Y-117339285D01*
X125042857Y-117339285D01*
X124947619Y-117386904D01*
X124900000Y-117434523D01*
X124852380Y-117529761D01*
X124852380Y-117720238D01*
X124900000Y-117815476D01*
X124947619Y-117863095D01*
X125042857Y-117910714D01*
X125280952Y-117910714D01*
X125376190Y-117863095D01*
X125423809Y-117815476D01*
X125471428Y-117720238D01*
X125471428Y-117529761D01*
X125423809Y-117434523D01*
X125376190Y-117386904D01*
X125280952Y-117339285D01*
%TO.C,C10*%
X125807142Y-122192857D02*
X125854761Y-122240476D01*
X125902380Y-122383333D01*
X125902380Y-122478571D01*
X125854761Y-122621428D01*
X125759523Y-122716666D01*
X125664285Y-122764285D01*
X125473809Y-122811904D01*
X125330952Y-122811904D01*
X125140476Y-122764285D01*
X125045238Y-122716666D01*
X124950000Y-122621428D01*
X124902380Y-122478571D01*
X124902380Y-122383333D01*
X124950000Y-122240476D01*
X124997619Y-122192857D01*
X125902380Y-121240476D02*
X125902380Y-121811904D01*
X125902380Y-121526190D02*
X124902380Y-121526190D01*
X125045238Y-121621428D01*
X125140476Y-121716666D01*
X125188095Y-121811904D01*
X124902380Y-120621428D02*
X124902380Y-120526190D01*
X124950000Y-120430952D01*
X124997619Y-120383333D01*
X125092857Y-120335714D01*
X125283333Y-120288095D01*
X125521428Y-120288095D01*
X125711904Y-120335714D01*
X125807142Y-120383333D01*
X125854761Y-120430952D01*
X125902380Y-120526190D01*
X125902380Y-120621428D01*
X125854761Y-120716666D01*
X125807142Y-120764285D01*
X125711904Y-120811904D01*
X125521428Y-120859523D01*
X125283333Y-120859523D01*
X125092857Y-120811904D01*
X124997619Y-120764285D01*
X124950000Y-120716666D01*
X124902380Y-120621428D01*
%TO.C,JX1*%
X109515476Y-62127380D02*
X109515476Y-62841666D01*
X109467857Y-62984523D01*
X109372619Y-63079761D01*
X109229761Y-63127380D01*
X109134523Y-63127380D01*
X109896428Y-62127380D02*
X110563095Y-63127380D01*
X110563095Y-62127380D02*
X109896428Y-63127380D01*
X111467857Y-63127380D02*
X110896428Y-63127380D01*
X111182142Y-63127380D02*
X111182142Y-62127380D01*
X111086904Y-62270238D01*
X110991666Y-62365476D01*
X110896428Y-62413095D01*
%TO.C,C8*%
X113183333Y-113332142D02*
X113135714Y-113379761D01*
X112992857Y-113427380D01*
X112897619Y-113427380D01*
X112754761Y-113379761D01*
X112659523Y-113284523D01*
X112611904Y-113189285D01*
X112564285Y-112998809D01*
X112564285Y-112855952D01*
X112611904Y-112665476D01*
X112659523Y-112570238D01*
X112754761Y-112475000D01*
X112897619Y-112427380D01*
X112992857Y-112427380D01*
X113135714Y-112475000D01*
X113183333Y-112522619D01*
X113754761Y-112855952D02*
X113659523Y-112808333D01*
X113611904Y-112760714D01*
X113564285Y-112665476D01*
X113564285Y-112617857D01*
X113611904Y-112522619D01*
X113659523Y-112475000D01*
X113754761Y-112427380D01*
X113945238Y-112427380D01*
X114040476Y-112475000D01*
X114088095Y-112522619D01*
X114135714Y-112617857D01*
X114135714Y-112665476D01*
X114088095Y-112760714D01*
X114040476Y-112808333D01*
X113945238Y-112855952D01*
X113754761Y-112855952D01*
X113659523Y-112903571D01*
X113611904Y-112951190D01*
X113564285Y-113046428D01*
X113564285Y-113236904D01*
X113611904Y-113332142D01*
X113659523Y-113379761D01*
X113754761Y-113427380D01*
X113945238Y-113427380D01*
X114040476Y-113379761D01*
X114088095Y-113332142D01*
X114135714Y-113236904D01*
X114135714Y-113046428D01*
X114088095Y-112951190D01*
X114040476Y-112903571D01*
X113945238Y-112855952D01*
%TO.C,C6*%
X130358333Y-62097142D02*
X130310714Y-62144761D01*
X130167857Y-62192380D01*
X130072619Y-62192380D01*
X129929761Y-62144761D01*
X129834523Y-62049523D01*
X129786904Y-61954285D01*
X129739285Y-61763809D01*
X129739285Y-61620952D01*
X129786904Y-61430476D01*
X129834523Y-61335238D01*
X129929761Y-61240000D01*
X130072619Y-61192380D01*
X130167857Y-61192380D01*
X130310714Y-61240000D01*
X130358333Y-61287619D01*
X131215476Y-61192380D02*
X131025000Y-61192380D01*
X130929761Y-61240000D01*
X130882142Y-61287619D01*
X130786904Y-61430476D01*
X130739285Y-61620952D01*
X130739285Y-62001904D01*
X130786904Y-62097142D01*
X130834523Y-62144761D01*
X130929761Y-62192380D01*
X131120238Y-62192380D01*
X131215476Y-62144761D01*
X131263095Y-62097142D01*
X131310714Y-62001904D01*
X131310714Y-61763809D01*
X131263095Y-61668571D01*
X131215476Y-61620952D01*
X131120238Y-61573333D01*
X130929761Y-61573333D01*
X130834523Y-61620952D01*
X130786904Y-61668571D01*
X130739285Y-61763809D01*
%TO.C,Q8*%
X106047619Y-71345238D02*
X106000000Y-71440476D01*
X105904761Y-71535714D01*
X105761904Y-71678571D01*
X105714285Y-71773809D01*
X105714285Y-71869047D01*
X105952380Y-71821428D02*
X105904761Y-71916666D01*
X105809523Y-72011904D01*
X105619047Y-72059523D01*
X105285714Y-72059523D01*
X105095238Y-72011904D01*
X105000000Y-71916666D01*
X104952380Y-71821428D01*
X104952380Y-71630952D01*
X105000000Y-71535714D01*
X105095238Y-71440476D01*
X105285714Y-71392857D01*
X105619047Y-71392857D01*
X105809523Y-71440476D01*
X105904761Y-71535714D01*
X105952380Y-71630952D01*
X105952380Y-71821428D01*
X105380952Y-70821428D02*
X105333333Y-70916666D01*
X105285714Y-70964285D01*
X105190476Y-71011904D01*
X105142857Y-71011904D01*
X105047619Y-70964285D01*
X105000000Y-70916666D01*
X104952380Y-70821428D01*
X104952380Y-70630952D01*
X105000000Y-70535714D01*
X105047619Y-70488095D01*
X105142857Y-70440476D01*
X105190476Y-70440476D01*
X105285714Y-70488095D01*
X105333333Y-70535714D01*
X105380952Y-70630952D01*
X105380952Y-70821428D01*
X105428571Y-70916666D01*
X105476190Y-70964285D01*
X105571428Y-71011904D01*
X105761904Y-71011904D01*
X105857142Y-70964285D01*
X105904761Y-70916666D01*
X105952380Y-70821428D01*
X105952380Y-70630952D01*
X105904761Y-70535714D01*
X105857142Y-70488095D01*
X105761904Y-70440476D01*
X105571428Y-70440476D01*
X105476190Y-70488095D01*
X105428571Y-70535714D01*
X105380952Y-70630952D01*
%TO.C,C2*%
X172989833Y-123797892D02*
X172942214Y-123845511D01*
X172799357Y-123893130D01*
X172704119Y-123893130D01*
X172561261Y-123845511D01*
X172466023Y-123750273D01*
X172418404Y-123655035D01*
X172370785Y-123464559D01*
X172370785Y-123321702D01*
X172418404Y-123131226D01*
X172466023Y-123035988D01*
X172561261Y-122940750D01*
X172704119Y-122893130D01*
X172799357Y-122893130D01*
X172942214Y-122940750D01*
X172989833Y-122988369D01*
X173370785Y-122988369D02*
X173418404Y-122940750D01*
X173513642Y-122893130D01*
X173751738Y-122893130D01*
X173846976Y-122940750D01*
X173894595Y-122988369D01*
X173942214Y-123083607D01*
X173942214Y-123178845D01*
X173894595Y-123321702D01*
X173323166Y-123893130D01*
X173942214Y-123893130D01*
D11*
%TO.C,J1*%
X124276666Y-85704523D02*
X124276666Y-86611666D01*
X124216190Y-86793095D01*
X124095238Y-86914047D01*
X123913809Y-86974523D01*
X123792857Y-86974523D01*
X125546666Y-86974523D02*
X124820952Y-86974523D01*
X125183809Y-86974523D02*
X125183809Y-85704523D01*
X125062857Y-85885952D01*
X124941904Y-86006904D01*
X124820952Y-86067380D01*
D12*
X128403571Y-102445714D02*
X128464047Y-102506190D01*
X128524523Y-102687619D01*
X128524523Y-102808571D01*
X128464047Y-102990000D01*
X128343095Y-103110952D01*
X128222142Y-103171428D01*
X127980238Y-103231904D01*
X127798809Y-103231904D01*
X127556904Y-103171428D01*
X127435952Y-103110952D01*
X127315000Y-102990000D01*
X127254523Y-102808571D01*
X127254523Y-102687619D01*
X127315000Y-102506190D01*
X127375476Y-102445714D01*
X128524523Y-101720000D02*
X128464047Y-101840952D01*
X128403571Y-101901428D01*
X128282619Y-101961904D01*
X127919761Y-101961904D01*
X127798809Y-101901428D01*
X127738333Y-101840952D01*
X127677857Y-101720000D01*
X127677857Y-101538571D01*
X127738333Y-101417619D01*
X127798809Y-101357142D01*
X127919761Y-101296666D01*
X128282619Y-101296666D01*
X128403571Y-101357142D01*
X128464047Y-101417619D01*
X128524523Y-101538571D01*
X128524523Y-101720000D01*
X127677857Y-100752380D02*
X128524523Y-100752380D01*
X127798809Y-100752380D02*
X127738333Y-100691904D01*
X127677857Y-100570952D01*
X127677857Y-100389523D01*
X127738333Y-100268571D01*
X127859285Y-100208095D01*
X128524523Y-100208095D01*
X128464047Y-99663809D02*
X128524523Y-99542857D01*
X128524523Y-99300952D01*
X128464047Y-99180000D01*
X128343095Y-99119523D01*
X128282619Y-99119523D01*
X128161666Y-99180000D01*
X128101190Y-99300952D01*
X128101190Y-99482380D01*
X128040714Y-99603333D01*
X127919761Y-99663809D01*
X127859285Y-99663809D01*
X127738333Y-99603333D01*
X127677857Y-99482380D01*
X127677857Y-99300952D01*
X127738333Y-99180000D01*
X128524523Y-98393809D02*
X128464047Y-98514761D01*
X128403571Y-98575238D01*
X128282619Y-98635714D01*
X127919761Y-98635714D01*
X127798809Y-98575238D01*
X127738333Y-98514761D01*
X127677857Y-98393809D01*
X127677857Y-98212380D01*
X127738333Y-98091428D01*
X127798809Y-98030952D01*
X127919761Y-97970476D01*
X128282619Y-97970476D01*
X128403571Y-98030952D01*
X128464047Y-98091428D01*
X128524523Y-98212380D01*
X128524523Y-98393809D01*
X128524523Y-97244761D02*
X128464047Y-97365714D01*
X128343095Y-97426190D01*
X127254523Y-97426190D01*
X128464047Y-96277142D02*
X128524523Y-96398095D01*
X128524523Y-96640000D01*
X128464047Y-96760952D01*
X128343095Y-96821428D01*
X127859285Y-96821428D01*
X127738333Y-96760952D01*
X127677857Y-96640000D01*
X127677857Y-96398095D01*
X127738333Y-96277142D01*
X127859285Y-96216666D01*
X127980238Y-96216666D01*
X128101190Y-96821428D01*
X127859285Y-94281428D02*
X127859285Y-94704761D01*
X128524523Y-94704761D02*
X127254523Y-94704761D01*
X127254523Y-94100000D01*
X127254523Y-93797619D02*
X127254523Y-93071904D01*
X128524523Y-93434761D02*
X127254523Y-93434761D01*
X128524523Y-92648571D02*
X127254523Y-92648571D01*
X127254523Y-92346190D01*
X127315000Y-92164761D01*
X127435952Y-92043809D01*
X127556904Y-91983333D01*
X127798809Y-91922857D01*
X127980238Y-91922857D01*
X128222142Y-91983333D01*
X128343095Y-92043809D01*
X128464047Y-92164761D01*
X128524523Y-92346190D01*
X128524523Y-92648571D01*
X128524523Y-91378571D02*
X127254523Y-91378571D01*
X119922380Y-88565000D02*
X119801428Y-88504523D01*
X119620000Y-88504523D01*
X119438571Y-88565000D01*
X119317619Y-88685952D01*
X119257142Y-88806904D01*
X119196666Y-89048809D01*
X119196666Y-89230238D01*
X119257142Y-89472142D01*
X119317619Y-89593095D01*
X119438571Y-89714047D01*
X119620000Y-89774523D01*
X119740952Y-89774523D01*
X119922380Y-89714047D01*
X119982857Y-89653571D01*
X119982857Y-89230238D01*
X119740952Y-89230238D01*
X121252857Y-89774523D02*
X120829523Y-89169761D01*
X120527142Y-89774523D02*
X120527142Y-88504523D01*
X121010952Y-88504523D01*
X121131904Y-88565000D01*
X121192380Y-88625476D01*
X121252857Y-88746428D01*
X121252857Y-88927857D01*
X121192380Y-89048809D01*
X121131904Y-89109285D01*
X121010952Y-89169761D01*
X120527142Y-89169761D01*
X121797142Y-89774523D02*
X121797142Y-88504523D01*
X122522857Y-89774523D01*
X122522857Y-88504523D01*
X120341666Y-101734285D02*
X120523095Y-101794761D01*
X120583571Y-101855238D01*
X120644047Y-101976190D01*
X120644047Y-102157619D01*
X120583571Y-102278571D01*
X120523095Y-102339047D01*
X120402142Y-102399523D01*
X119918333Y-102399523D01*
X119918333Y-101129523D01*
X120341666Y-101129523D01*
X120462619Y-101190000D01*
X120523095Y-101250476D01*
X120583571Y-101371428D01*
X120583571Y-101492380D01*
X120523095Y-101613333D01*
X120462619Y-101673809D01*
X120341666Y-101734285D01*
X119918333Y-101734285D01*
X121793095Y-102399523D02*
X121188333Y-102399523D01*
X121188333Y-101129523D01*
X122216428Y-102399523D02*
X122216428Y-101129523D01*
X122942142Y-102399523D02*
X122397857Y-101673809D01*
X122942142Y-101129523D02*
X122216428Y-101855238D01*
D10*
%TO.C,C12*%
X120957142Y-108542857D02*
X121004761Y-108590476D01*
X121052380Y-108733333D01*
X121052380Y-108828571D01*
X121004761Y-108971428D01*
X120909523Y-109066666D01*
X120814285Y-109114285D01*
X120623809Y-109161904D01*
X120480952Y-109161904D01*
X120290476Y-109114285D01*
X120195238Y-109066666D01*
X120100000Y-108971428D01*
X120052380Y-108828571D01*
X120052380Y-108733333D01*
X120100000Y-108590476D01*
X120147619Y-108542857D01*
X121052380Y-107590476D02*
X121052380Y-108161904D01*
X121052380Y-107876190D02*
X120052380Y-107876190D01*
X120195238Y-107971428D01*
X120290476Y-108066666D01*
X120338095Y-108161904D01*
X120147619Y-107209523D02*
X120100000Y-107161904D01*
X120052380Y-107066666D01*
X120052380Y-106828571D01*
X120100000Y-106733333D01*
X120147619Y-106685714D01*
X120242857Y-106638095D01*
X120338095Y-106638095D01*
X120480952Y-106685714D01*
X121052380Y-107257142D01*
X121052380Y-106638095D01*
%TO.C,R25*%
X109257142Y-104977380D02*
X108923809Y-104501190D01*
X108685714Y-104977380D02*
X108685714Y-103977380D01*
X109066666Y-103977380D01*
X109161904Y-104025000D01*
X109209523Y-104072619D01*
X109257142Y-104167857D01*
X109257142Y-104310714D01*
X109209523Y-104405952D01*
X109161904Y-104453571D01*
X109066666Y-104501190D01*
X108685714Y-104501190D01*
X109638095Y-104072619D02*
X109685714Y-104025000D01*
X109780952Y-103977380D01*
X110019047Y-103977380D01*
X110114285Y-104025000D01*
X110161904Y-104072619D01*
X110209523Y-104167857D01*
X110209523Y-104263095D01*
X110161904Y-104405952D01*
X109590476Y-104977380D01*
X110209523Y-104977380D01*
X111114285Y-103977380D02*
X110638095Y-103977380D01*
X110590476Y-104453571D01*
X110638095Y-104405952D01*
X110733333Y-104358333D01*
X110971428Y-104358333D01*
X111066666Y-104405952D01*
X111114285Y-104453571D01*
X111161904Y-104548809D01*
X111161904Y-104786904D01*
X111114285Y-104882142D01*
X111066666Y-104929761D01*
X110971428Y-104977380D01*
X110733333Y-104977380D01*
X110638095Y-104929761D01*
X110590476Y-104882142D01*
%TO.C,U5*%
X107888095Y-113227380D02*
X107888095Y-114036904D01*
X107935714Y-114132142D01*
X107983333Y-114179761D01*
X108078571Y-114227380D01*
X108269047Y-114227380D01*
X108364285Y-114179761D01*
X108411904Y-114132142D01*
X108459523Y-114036904D01*
X108459523Y-113227380D01*
X109411904Y-113227380D02*
X108935714Y-113227380D01*
X108888095Y-113703571D01*
X108935714Y-113655952D01*
X109030952Y-113608333D01*
X109269047Y-113608333D01*
X109364285Y-113655952D01*
X109411904Y-113703571D01*
X109459523Y-113798809D01*
X109459523Y-114036904D01*
X109411904Y-114132142D01*
X109364285Y-114179761D01*
X109269047Y-114227380D01*
X109030952Y-114227380D01*
X108935714Y-114179761D01*
X108888095Y-114132142D01*
%TO.C,Q14*%
X161828571Y-72347619D02*
X161733333Y-72300000D01*
X161638095Y-72204761D01*
X161495238Y-72061904D01*
X161400000Y-72014285D01*
X161304761Y-72014285D01*
X161352380Y-72252380D02*
X161257142Y-72204761D01*
X161161904Y-72109523D01*
X161114285Y-71919047D01*
X161114285Y-71585714D01*
X161161904Y-71395238D01*
X161257142Y-71300000D01*
X161352380Y-71252380D01*
X161542857Y-71252380D01*
X161638095Y-71300000D01*
X161733333Y-71395238D01*
X161780952Y-71585714D01*
X161780952Y-71919047D01*
X161733333Y-72109523D01*
X161638095Y-72204761D01*
X161542857Y-72252380D01*
X161352380Y-72252380D01*
X162733333Y-72252380D02*
X162161904Y-72252380D01*
X162447619Y-72252380D02*
X162447619Y-71252380D01*
X162352380Y-71395238D01*
X162257142Y-71490476D01*
X162161904Y-71538095D01*
X163590476Y-71585714D02*
X163590476Y-72252380D01*
X163352380Y-71204761D02*
X163114285Y-71919047D01*
X163733333Y-71919047D01*
%TO.C,JX5*%
X178514476Y-59904380D02*
X178514476Y-60618666D01*
X178466857Y-60761523D01*
X178371619Y-60856761D01*
X178228761Y-60904380D01*
X178133523Y-60904380D01*
X178895428Y-59904380D02*
X179562095Y-60904380D01*
X179562095Y-59904380D02*
X178895428Y-60904380D01*
X180419238Y-59904380D02*
X179943047Y-59904380D01*
X179895428Y-60380571D01*
X179943047Y-60332952D01*
X180038285Y-60285333D01*
X180276380Y-60285333D01*
X180371619Y-60332952D01*
X180419238Y-60380571D01*
X180466857Y-60475809D01*
X180466857Y-60713904D01*
X180419238Y-60809142D01*
X180371619Y-60856761D01*
X180276380Y-60904380D01*
X180038285Y-60904380D01*
X179943047Y-60856761D01*
X179895428Y-60809142D01*
D13*
%TO.C,U1*%
X148521000Y-84259000D02*
X148261000Y-84259000D01*
X143071000Y-81534000D02*
X143071000Y-84259000D01*
X143071000Y-81534000D02*
X143071000Y-78809000D01*
X148521000Y-81534000D02*
X148521000Y-78809000D01*
X148521000Y-81534000D02*
X148521000Y-84259000D01*
X143331000Y-84259000D02*
X143331000Y-85934000D01*
X148521000Y-78809000D02*
X148261000Y-78809000D01*
X143071000Y-84259000D02*
X143331000Y-84259000D01*
X143071000Y-78809000D02*
X143331000Y-78809000D01*
%TO.C,R11*%
X106522936Y-78735000D02*
X106977064Y-78735000D01*
X106522936Y-77265000D02*
X106977064Y-77265000D01*
%TO.C,R22*%
X105897936Y-106910000D02*
X106352064Y-106910000D01*
X105897936Y-105440000D02*
X106352064Y-105440000D01*
%TO.C,R29*%
X127790000Y-110002631D02*
X127790000Y-111597369D01*
X132210000Y-110002631D02*
X132210000Y-111597369D01*
%TO.C,C11*%
X124002560Y-107266728D02*
X124002560Y-107789232D01*
X125472560Y-107266728D02*
X125472560Y-107789232D01*
%TO.C,U6*%
X165569000Y-126659000D02*
X170210000Y-126659000D01*
X165569000Y-116419000D02*
X170210000Y-116419000D01*
X170210000Y-126659000D02*
X170210000Y-116419000D01*
X165569000Y-123389000D02*
X167079000Y-123389000D01*
X167079000Y-126659000D02*
X167079000Y-116419000D01*
X165569000Y-119688000D02*
X167079000Y-119688000D01*
X165569000Y-126659000D02*
X165569000Y-116419000D01*
%TO.C,REF\u002A\u002A*%
G36*
X104159846Y-87892120D02*
G01*
X104165572Y-87971980D01*
X104172149Y-88019039D01*
X104181262Y-88039566D01*
X104194598Y-88039829D01*
X104198923Y-88037378D01*
X104256444Y-88019636D01*
X104331268Y-88020672D01*
X104407339Y-88038910D01*
X104454918Y-88062505D01*
X104503702Y-88100198D01*
X104539364Y-88142855D01*
X104563845Y-88197057D01*
X104579087Y-88269384D01*
X104587030Y-88366419D01*
X104589616Y-88494742D01*
X104589662Y-88519358D01*
X104589692Y-88795870D01*
X104528161Y-88817320D01*
X104484459Y-88831912D01*
X104460482Y-88838706D01*
X104459777Y-88838769D01*
X104457415Y-88820345D01*
X104455406Y-88769526D01*
X104453901Y-88692993D01*
X104453053Y-88597430D01*
X104452923Y-88539329D01*
X104452651Y-88424771D01*
X104451252Y-88342667D01*
X104447849Y-88286393D01*
X104441567Y-88249326D01*
X104431529Y-88224844D01*
X104416861Y-88206325D01*
X104407702Y-88197406D01*
X104344789Y-88161466D01*
X104276136Y-88158775D01*
X104213848Y-88189170D01*
X104202329Y-88200144D01*
X104185433Y-88220779D01*
X104173714Y-88245256D01*
X104166233Y-88280647D01*
X104162054Y-88334026D01*
X104160237Y-88412466D01*
X104159846Y-88520617D01*
X104159846Y-88795870D01*
X104098315Y-88817320D01*
X104054613Y-88831912D01*
X104030636Y-88838706D01*
X104029930Y-88838769D01*
X104028126Y-88820069D01*
X104026500Y-88767322D01*
X104025117Y-88685557D01*
X104024042Y-88579805D01*
X104023340Y-88455094D01*
X104023077Y-88316455D01*
X104023077Y-87781806D01*
X104150077Y-87728236D01*
X104159846Y-87892120D01*
G37*
D14*
X104159846Y-87892120D02*
X104165572Y-87971980D01*
X104172149Y-88019039D01*
X104181262Y-88039566D01*
X104194598Y-88039829D01*
X104198923Y-88037378D01*
X104256444Y-88019636D01*
X104331268Y-88020672D01*
X104407339Y-88038910D01*
X104454918Y-88062505D01*
X104503702Y-88100198D01*
X104539364Y-88142855D01*
X104563845Y-88197057D01*
X104579087Y-88269384D01*
X104587030Y-88366419D01*
X104589616Y-88494742D01*
X104589662Y-88519358D01*
X104589692Y-88795870D01*
X104528161Y-88817320D01*
X104484459Y-88831912D01*
X104460482Y-88838706D01*
X104459777Y-88838769D01*
X104457415Y-88820345D01*
X104455406Y-88769526D01*
X104453901Y-88692993D01*
X104453053Y-88597430D01*
X104452923Y-88539329D01*
X104452651Y-88424771D01*
X104451252Y-88342667D01*
X104447849Y-88286393D01*
X104441567Y-88249326D01*
X104431529Y-88224844D01*
X104416861Y-88206325D01*
X104407702Y-88197406D01*
X104344789Y-88161466D01*
X104276136Y-88158775D01*
X104213848Y-88189170D01*
X104202329Y-88200144D01*
X104185433Y-88220779D01*
X104173714Y-88245256D01*
X104166233Y-88280647D01*
X104162054Y-88334026D01*
X104160237Y-88412466D01*
X104159846Y-88520617D01*
X104159846Y-88795870D01*
X104098315Y-88817320D01*
X104054613Y-88831912D01*
X104030636Y-88838706D01*
X104029930Y-88838769D01*
X104028126Y-88820069D01*
X104026500Y-88767322D01*
X104025117Y-88685557D01*
X104024042Y-88579805D01*
X104023340Y-88455094D01*
X104023077Y-88316455D01*
X104023077Y-87781806D01*
X104150077Y-87728236D01*
X104159846Y-87892120D01*
G36*
X105053501Y-88026303D02*
G01*
X105130060Y-88054733D01*
X105130936Y-88055279D01*
X105178285Y-88090127D01*
X105213241Y-88130852D01*
X105237825Y-88183925D01*
X105254062Y-88255814D01*
X105263975Y-88352992D01*
X105269586Y-88481928D01*
X105270077Y-88500298D01*
X105277141Y-88777287D01*
X105217695Y-88808028D01*
X105174681Y-88828802D01*
X105148710Y-88838646D01*
X105147509Y-88838769D01*
X105143014Y-88820606D01*
X105139444Y-88771612D01*
X105137248Y-88700031D01*
X105136769Y-88642068D01*
X105136758Y-88548170D01*
X105132466Y-88489203D01*
X105117503Y-88461079D01*
X105085482Y-88459706D01*
X105030014Y-88480998D01*
X104946269Y-88520136D01*
X104884689Y-88552643D01*
X104853017Y-88580845D01*
X104843706Y-88611582D01*
X104843692Y-88613104D01*
X104859057Y-88666054D01*
X104904547Y-88694660D01*
X104974166Y-88698803D01*
X105024313Y-88698084D01*
X105050754Y-88712527D01*
X105067243Y-88747218D01*
X105076733Y-88791416D01*
X105063057Y-88816493D01*
X105057907Y-88820082D01*
X105009425Y-88834496D01*
X104941531Y-88836537D01*
X104871612Y-88826983D01*
X104822068Y-88809522D01*
X104753570Y-88751364D01*
X104714634Y-88670408D01*
X104706923Y-88607160D01*
X104712807Y-88550111D01*
X104734101Y-88503542D01*
X104776265Y-88462181D01*
X104844759Y-88420755D01*
X104945044Y-88373993D01*
X104951154Y-88371350D01*
X105041490Y-88329617D01*
X105097235Y-88295391D01*
X105121129Y-88264635D01*
X105115913Y-88233311D01*
X105084328Y-88197383D01*
X105074883Y-88189116D01*
X105011617Y-88157058D01*
X104946064Y-88158407D01*
X104888972Y-88189838D01*
X104851093Y-88248024D01*
X104847574Y-88259446D01*
X104813300Y-88314837D01*
X104769809Y-88341518D01*
X104706923Y-88367960D01*
X104706923Y-88299548D01*
X104726052Y-88200110D01*
X104782831Y-88108902D01*
X104812378Y-88078389D01*
X104879542Y-88039228D01*
X104964956Y-88021500D01*
X105053501Y-88026303D01*
G37*
X105053501Y-88026303D02*
X105130060Y-88054733D01*
X105130936Y-88055279D01*
X105178285Y-88090127D01*
X105213241Y-88130852D01*
X105237825Y-88183925D01*
X105254062Y-88255814D01*
X105263975Y-88352992D01*
X105269586Y-88481928D01*
X105270077Y-88500298D01*
X105277141Y-88777287D01*
X105217695Y-88808028D01*
X105174681Y-88828802D01*
X105148710Y-88838646D01*
X105147509Y-88838769D01*
X105143014Y-88820606D01*
X105139444Y-88771612D01*
X105137248Y-88700031D01*
X105136769Y-88642068D01*
X105136758Y-88548170D01*
X105132466Y-88489203D01*
X105117503Y-88461079D01*
X105085482Y-88459706D01*
X105030014Y-88480998D01*
X104946269Y-88520136D01*
X104884689Y-88552643D01*
X104853017Y-88580845D01*
X104843706Y-88611582D01*
X104843692Y-88613104D01*
X104859057Y-88666054D01*
X104904547Y-88694660D01*
X104974166Y-88698803D01*
X105024313Y-88698084D01*
X105050754Y-88712527D01*
X105067243Y-88747218D01*
X105076733Y-88791416D01*
X105063057Y-88816493D01*
X105057907Y-88820082D01*
X105009425Y-88834496D01*
X104941531Y-88836537D01*
X104871612Y-88826983D01*
X104822068Y-88809522D01*
X104753570Y-88751364D01*
X104714634Y-88670408D01*
X104706923Y-88607160D01*
X104712807Y-88550111D01*
X104734101Y-88503542D01*
X104776265Y-88462181D01*
X104844759Y-88420755D01*
X104945044Y-88373993D01*
X104951154Y-88371350D01*
X105041490Y-88329617D01*
X105097235Y-88295391D01*
X105121129Y-88264635D01*
X105115913Y-88233311D01*
X105084328Y-88197383D01*
X105074883Y-88189116D01*
X105011617Y-88157058D01*
X104946064Y-88158407D01*
X104888972Y-88189838D01*
X104851093Y-88248024D01*
X104847574Y-88259446D01*
X104813300Y-88314837D01*
X104769809Y-88341518D01*
X104706923Y-88367960D01*
X104706923Y-88299548D01*
X104726052Y-88200110D01*
X104782831Y-88108902D01*
X104812378Y-88078389D01*
X104879542Y-88039228D01*
X104964956Y-88021500D01*
X105053501Y-88026303D01*
G36*
X102134778Y-88141055D02*
G01*
X102180421Y-88075215D01*
X102262802Y-88008681D01*
X102353546Y-87975676D01*
X102446185Y-87973573D01*
X102534254Y-87999745D01*
X102611286Y-88051567D01*
X102670816Y-88126412D01*
X102706378Y-88221654D01*
X102713571Y-88291756D01*
X102712754Y-88321009D01*
X102705914Y-88343407D01*
X102687112Y-88363474D01*
X102650408Y-88385733D01*
X102589862Y-88414709D01*
X102499534Y-88454927D01*
X102499077Y-88455129D01*
X102415933Y-88493210D01*
X102347753Y-88527025D01*
X102301505Y-88552933D01*
X102284158Y-88567295D01*
X102284154Y-88567411D01*
X102299443Y-88598685D01*
X102335196Y-88633157D01*
X102376242Y-88657990D01*
X102397037Y-88662923D01*
X102453770Y-88645862D01*
X102502627Y-88603133D01*
X102526465Y-88556155D01*
X102549397Y-88521522D01*
X102594318Y-88482081D01*
X102647123Y-88448009D01*
X102693710Y-88429480D01*
X102703452Y-88428462D01*
X102714418Y-88445215D01*
X102715079Y-88488039D01*
X102707020Y-88545781D01*
X102691827Y-88607289D01*
X102671086Y-88661409D01*
X102670038Y-88663510D01*
X102607621Y-88750660D01*
X102526726Y-88809939D01*
X102434856Y-88839034D01*
X102339513Y-88835634D01*
X102248198Y-88797428D01*
X102244138Y-88794741D01*
X102172306Y-88729642D01*
X102125073Y-88644705D01*
X102098934Y-88533021D01*
X102095426Y-88501643D01*
X102089213Y-88353536D01*
X102096661Y-88284468D01*
X102284154Y-88284468D01*
X102286590Y-88327552D01*
X102299914Y-88340126D01*
X102333132Y-88330719D01*
X102385494Y-88308483D01*
X102444024Y-88280610D01*
X102445479Y-88279872D01*
X102495089Y-88253777D01*
X102515000Y-88236363D01*
X102510090Y-88218107D01*
X102489416Y-88194120D01*
X102436819Y-88159406D01*
X102380177Y-88156856D01*
X102329369Y-88182119D01*
X102294276Y-88230847D01*
X102284154Y-88284468D01*
X102096661Y-88284468D01*
X102101992Y-88235036D01*
X102134778Y-88141055D01*
G37*
X102134778Y-88141055D02*
X102180421Y-88075215D01*
X102262802Y-88008681D01*
X102353546Y-87975676D01*
X102446185Y-87973573D01*
X102534254Y-87999745D01*
X102611286Y-88051567D01*
X102670816Y-88126412D01*
X102706378Y-88221654D01*
X102713571Y-88291756D01*
X102712754Y-88321009D01*
X102705914Y-88343407D01*
X102687112Y-88363474D01*
X102650408Y-88385733D01*
X102589862Y-88414709D01*
X102499534Y-88454927D01*
X102499077Y-88455129D01*
X102415933Y-88493210D01*
X102347753Y-88527025D01*
X102301505Y-88552933D01*
X102284158Y-88567295D01*
X102284154Y-88567411D01*
X102299443Y-88598685D01*
X102335196Y-88633157D01*
X102376242Y-88657990D01*
X102397037Y-88662923D01*
X102453770Y-88645862D01*
X102502627Y-88603133D01*
X102526465Y-88556155D01*
X102549397Y-88521522D01*
X102594318Y-88482081D01*
X102647123Y-88448009D01*
X102693710Y-88429480D01*
X102703452Y-88428462D01*
X102714418Y-88445215D01*
X102715079Y-88488039D01*
X102707020Y-88545781D01*
X102691827Y-88607289D01*
X102671086Y-88661409D01*
X102670038Y-88663510D01*
X102607621Y-88750660D01*
X102526726Y-88809939D01*
X102434856Y-88839034D01*
X102339513Y-88835634D01*
X102248198Y-88797428D01*
X102244138Y-88794741D01*
X102172306Y-88729642D01*
X102125073Y-88644705D01*
X102098934Y-88533021D01*
X102095426Y-88501643D01*
X102089213Y-88353536D01*
X102096661Y-88284468D01*
X102284154Y-88284468D01*
X102286590Y-88327552D01*
X102299914Y-88340126D01*
X102333132Y-88330719D01*
X102385494Y-88308483D01*
X102444024Y-88280610D01*
X102445479Y-88279872D01*
X102495089Y-88253777D01*
X102515000Y-88236363D01*
X102510090Y-88218107D01*
X102489416Y-88194120D01*
X102436819Y-88159406D01*
X102380177Y-88156856D01*
X102329369Y-88182119D01*
X102294276Y-88230847D01*
X102284154Y-88284468D01*
X102096661Y-88284468D01*
X102101992Y-88235036D01*
X102134778Y-88141055D01*
G36*
X107395929Y-88036662D02*
G01*
X107398911Y-88088068D01*
X107401247Y-88166192D01*
X107402749Y-88264857D01*
X107403231Y-88368343D01*
X107403231Y-88718533D01*
X107341401Y-88780363D01*
X107298793Y-88818462D01*
X107261390Y-88833895D01*
X107210270Y-88832918D01*
X107189978Y-88830433D01*
X107126554Y-88823200D01*
X107074095Y-88819055D01*
X107061308Y-88818672D01*
X107018199Y-88821176D01*
X106956544Y-88827462D01*
X106932638Y-88830433D01*
X106873922Y-88835028D01*
X106834464Y-88825046D01*
X106795338Y-88794228D01*
X106781215Y-88780363D01*
X106719385Y-88718533D01*
X106719385Y-88063503D01*
X106769150Y-88040829D01*
X106812002Y-88024034D01*
X106837073Y-88018154D01*
X106843501Y-88036736D01*
X106849509Y-88088655D01*
X106854697Y-88168172D01*
X106858664Y-88269546D01*
X106860577Y-88355192D01*
X106865923Y-88692231D01*
X106912560Y-88698825D01*
X106954976Y-88694214D01*
X106975760Y-88679287D01*
X106981570Y-88651377D01*
X106986530Y-88591925D01*
X106990246Y-88508466D01*
X106992324Y-88408532D01*
X106992624Y-88357104D01*
X106992923Y-88061054D01*
X107054454Y-88039604D01*
X107098004Y-88025020D01*
X107121694Y-88018219D01*
X107122377Y-88018154D01*
X107124754Y-88036642D01*
X107127366Y-88087906D01*
X107129995Y-88165649D01*
X107132421Y-88263574D01*
X107134115Y-88355192D01*
X107139461Y-88692231D01*
X107256692Y-88692231D01*
X107262072Y-88384746D01*
X107267451Y-88077261D01*
X107324601Y-88047707D01*
X107366797Y-88027413D01*
X107391770Y-88018204D01*
X107392491Y-88018154D01*
X107395929Y-88036662D01*
G37*
X107395929Y-88036662D02*
X107398911Y-88088068D01*
X107401247Y-88166192D01*
X107402749Y-88264857D01*
X107403231Y-88368343D01*
X107403231Y-88718533D01*
X107341401Y-88780363D01*
X107298793Y-88818462D01*
X107261390Y-88833895D01*
X107210270Y-88832918D01*
X107189978Y-88830433D01*
X107126554Y-88823200D01*
X107074095Y-88819055D01*
X107061308Y-88818672D01*
X107018199Y-88821176D01*
X106956544Y-88827462D01*
X106932638Y-88830433D01*
X106873922Y-88835028D01*
X106834464Y-88825046D01*
X106795338Y-88794228D01*
X106781215Y-88780363D01*
X106719385Y-88718533D01*
X106719385Y-88063503D01*
X106769150Y-88040829D01*
X106812002Y-88024034D01*
X106837073Y-88018154D01*
X106843501Y-88036736D01*
X106849509Y-88088655D01*
X106854697Y-88168172D01*
X106858664Y-88269546D01*
X106860577Y-88355192D01*
X106865923Y-88692231D01*
X106912560Y-88698825D01*
X106954976Y-88694214D01*
X106975760Y-88679287D01*
X106981570Y-88651377D01*
X106986530Y-88591925D01*
X106990246Y-88508466D01*
X106992324Y-88408532D01*
X106992624Y-88357104D01*
X106992923Y-88061054D01*
X107054454Y-88039604D01*
X107098004Y-88025020D01*
X107121694Y-88018219D01*
X107122377Y-88018154D01*
X107124754Y-88036642D01*
X107127366Y-88087906D01*
X107129995Y-88165649D01*
X107132421Y-88263574D01*
X107134115Y-88355192D01*
X107139461Y-88692231D01*
X107256692Y-88692231D01*
X107262072Y-88384746D01*
X107267451Y-88077261D01*
X107324601Y-88047707D01*
X107366797Y-88027413D01*
X107391770Y-88018204D01*
X107392491Y-88018154D01*
X107395929Y-88036662D01*
G36*
X103271664Y-87995089D02*
G01*
X103334367Y-88031358D01*
X103377961Y-88067358D01*
X103409845Y-88105075D01*
X103431810Y-88151199D01*
X103445649Y-88212421D01*
X103453153Y-88295431D01*
X103456117Y-88406919D01*
X103456461Y-88487062D01*
X103456461Y-88782065D01*
X103290385Y-88856515D01*
X103280615Y-88533402D01*
X103276579Y-88412729D01*
X103272344Y-88325141D01*
X103267097Y-88264650D01*
X103260025Y-88225268D01*
X103250311Y-88201007D01*
X103237144Y-88185880D01*
X103232919Y-88182606D01*
X103168909Y-88157034D01*
X103104208Y-88167153D01*
X103065692Y-88194000D01*
X103050025Y-88213024D01*
X103039180Y-88237988D01*
X103032288Y-88275834D01*
X103028479Y-88333502D01*
X103026883Y-88417935D01*
X103026615Y-88505928D01*
X103026563Y-88616323D01*
X103024672Y-88694463D01*
X103018345Y-88747165D01*
X103004983Y-88781242D01*
X102981985Y-88803511D01*
X102946754Y-88820787D01*
X102899697Y-88838738D01*
X102848303Y-88858278D01*
X102854421Y-88511485D01*
X102856884Y-88386468D01*
X102859767Y-88294082D01*
X102863898Y-88227881D01*
X102870107Y-88181420D01*
X102879226Y-88148256D01*
X102892083Y-88121944D01*
X102907584Y-88098729D01*
X102982371Y-88024569D01*
X103073628Y-87981684D01*
X103172883Y-87971412D01*
X103271664Y-87995089D01*
G37*
X103271664Y-87995089D02*
X103334367Y-88031358D01*
X103377961Y-88067358D01*
X103409845Y-88105075D01*
X103431810Y-88151199D01*
X103445649Y-88212421D01*
X103453153Y-88295431D01*
X103456117Y-88406919D01*
X103456461Y-88487062D01*
X103456461Y-88782065D01*
X103290385Y-88856515D01*
X103280615Y-88533402D01*
X103276579Y-88412729D01*
X103272344Y-88325141D01*
X103267097Y-88264650D01*
X103260025Y-88225268D01*
X103250311Y-88201007D01*
X103237144Y-88185880D01*
X103232919Y-88182606D01*
X103168909Y-88157034D01*
X103104208Y-88167153D01*
X103065692Y-88194000D01*
X103050025Y-88213024D01*
X103039180Y-88237988D01*
X103032288Y-88275834D01*
X103028479Y-88333502D01*
X103026883Y-88417935D01*
X103026615Y-88505928D01*
X103026563Y-88616323D01*
X103024672Y-88694463D01*
X103018345Y-88747165D01*
X103004983Y-88781242D01*
X102981985Y-88803511D01*
X102946754Y-88820787D01*
X102899697Y-88838738D01*
X102848303Y-88858278D01*
X102854421Y-88511485D01*
X102856884Y-88386468D01*
X102859767Y-88294082D01*
X102863898Y-88227881D01*
X102870107Y-88181420D01*
X102879226Y-88148256D01*
X102892083Y-88121944D01*
X102907584Y-88098729D01*
X102982371Y-88024569D01*
X103073628Y-87981684D01*
X103172883Y-87971412D01*
X103271664Y-87995089D01*
G36*
X105713362Y-88024670D02*
G01*
X105802117Y-88057421D01*
X105874022Y-88115350D01*
X105902144Y-88156128D01*
X105932802Y-88230954D01*
X105932165Y-88285058D01*
X105899987Y-88321446D01*
X105888081Y-88327633D01*
X105836675Y-88346925D01*
X105810422Y-88341982D01*
X105801530Y-88309587D01*
X105801077Y-88291692D01*
X105784797Y-88225859D01*
X105742365Y-88179807D01*
X105683388Y-88157564D01*
X105617475Y-88163161D01*
X105563895Y-88192229D01*
X105545798Y-88208810D01*
X105532971Y-88228925D01*
X105524306Y-88259332D01*
X105518696Y-88306788D01*
X105515035Y-88378050D01*
X105512215Y-88479875D01*
X105511484Y-88512115D01*
X105508820Y-88622410D01*
X105505792Y-88700036D01*
X105501250Y-88751396D01*
X105494046Y-88782890D01*
X105483033Y-88800920D01*
X105467060Y-88811888D01*
X105456834Y-88816733D01*
X105413406Y-88833301D01*
X105387842Y-88838769D01*
X105379395Y-88820507D01*
X105374239Y-88765296D01*
X105372346Y-88672499D01*
X105373689Y-88541478D01*
X105374107Y-88521269D01*
X105377058Y-88401733D01*
X105380548Y-88314449D01*
X105385514Y-88252591D01*
X105392893Y-88209336D01*
X105403624Y-88177860D01*
X105418645Y-88151339D01*
X105426502Y-88139975D01*
X105471553Y-88089692D01*
X105521940Y-88050581D01*
X105528108Y-88047167D01*
X105618458Y-88020212D01*
X105713362Y-88024670D01*
G37*
X105713362Y-88024670D02*
X105802117Y-88057421D01*
X105874022Y-88115350D01*
X105902144Y-88156128D01*
X105932802Y-88230954D01*
X105932165Y-88285058D01*
X105899987Y-88321446D01*
X105888081Y-88327633D01*
X105836675Y-88346925D01*
X105810422Y-88341982D01*
X105801530Y-88309587D01*
X105801077Y-88291692D01*
X105784797Y-88225859D01*
X105742365Y-88179807D01*
X105683388Y-88157564D01*
X105617475Y-88163161D01*
X105563895Y-88192229D01*
X105545798Y-88208810D01*
X105532971Y-88228925D01*
X105524306Y-88259332D01*
X105518696Y-88306788D01*
X105515035Y-88378050D01*
X105512215Y-88479875D01*
X105511484Y-88512115D01*
X105508820Y-88622410D01*
X105505792Y-88700036D01*
X105501250Y-88751396D01*
X105494046Y-88782890D01*
X105483033Y-88800920D01*
X105467060Y-88811888D01*
X105456834Y-88816733D01*
X105413406Y-88833301D01*
X105387842Y-88838769D01*
X105379395Y-88820507D01*
X105374239Y-88765296D01*
X105372346Y-88672499D01*
X105373689Y-88541478D01*
X105374107Y-88521269D01*
X105377058Y-88401733D01*
X105380548Y-88314449D01*
X105385514Y-88252591D01*
X105392893Y-88209336D01*
X105403624Y-88177860D01*
X105418645Y-88151339D01*
X105426502Y-88139975D01*
X105471553Y-88089692D01*
X105521940Y-88050581D01*
X105528108Y-88047167D01*
X105618458Y-88020212D01*
X105713362Y-88024670D01*
G36*
X108570807Y-88036782D02*
G01*
X108594161Y-88046988D01*
X108649902Y-88091134D01*
X108697569Y-88154967D01*
X108727048Y-88223087D01*
X108731846Y-88256670D01*
X108715760Y-88303556D01*
X108680475Y-88328365D01*
X108642644Y-88343387D01*
X108625321Y-88346155D01*
X108616886Y-88326066D01*
X108600230Y-88282351D01*
X108592923Y-88262598D01*
X108551948Y-88194271D01*
X108492622Y-88160191D01*
X108416552Y-88161239D01*
X108410918Y-88162581D01*
X108370305Y-88181836D01*
X108340448Y-88219375D01*
X108320055Y-88279809D01*
X108307836Y-88367751D01*
X108302500Y-88487813D01*
X108302000Y-88551698D01*
X108301752Y-88652403D01*
X108300126Y-88721054D01*
X108295801Y-88764673D01*
X108287454Y-88790282D01*
X108273765Y-88804903D01*
X108253411Y-88815558D01*
X108252234Y-88816095D01*
X108213038Y-88832667D01*
X108193619Y-88838769D01*
X108190635Y-88820319D01*
X108188081Y-88769323D01*
X108186140Y-88692308D01*
X108184997Y-88595805D01*
X108184769Y-88525184D01*
X108185932Y-88388525D01*
X108190479Y-88284851D01*
X108199999Y-88208108D01*
X108216081Y-88152246D01*
X108240313Y-88111212D01*
X108274286Y-88078954D01*
X108307833Y-88056440D01*
X108388499Y-88026476D01*
X108482381Y-88019718D01*
X108570807Y-88036782D01*
G37*
X108570807Y-88036782D02*
X108594161Y-88046988D01*
X108649902Y-88091134D01*
X108697569Y-88154967D01*
X108727048Y-88223087D01*
X108731846Y-88256670D01*
X108715760Y-88303556D01*
X108680475Y-88328365D01*
X108642644Y-88343387D01*
X108625321Y-88346155D01*
X108616886Y-88326066D01*
X108600230Y-88282351D01*
X108592923Y-88262598D01*
X108551948Y-88194271D01*
X108492622Y-88160191D01*
X108416552Y-88161239D01*
X108410918Y-88162581D01*
X108370305Y-88181836D01*
X108340448Y-88219375D01*
X108320055Y-88279809D01*
X108307836Y-88367751D01*
X108302500Y-88487813D01*
X108302000Y-88551698D01*
X108301752Y-88652403D01*
X108300126Y-88721054D01*
X108295801Y-88764673D01*
X108287454Y-88790282D01*
X108273765Y-88804903D01*
X108253411Y-88815558D01*
X108252234Y-88816095D01*
X108213038Y-88832667D01*
X108193619Y-88838769D01*
X108190635Y-88820319D01*
X108188081Y-88769323D01*
X108186140Y-88692308D01*
X108184997Y-88595805D01*
X108184769Y-88525184D01*
X108185932Y-88388525D01*
X108190479Y-88284851D01*
X108199999Y-88208108D01*
X108216081Y-88152246D01*
X108240313Y-88111212D01*
X108274286Y-88078954D01*
X108307833Y-88056440D01*
X108388499Y-88026476D01*
X108482381Y-88019718D01*
X108570807Y-88036782D01*
G36*
X101356873Y-88294679D02*
G01*
X101360606Y-88230905D01*
X101365907Y-88185582D01*
X101373258Y-88153555D01*
X101383143Y-88129668D01*
X101396046Y-88108764D01*
X101401579Y-88100898D01*
X101474969Y-88026595D01*
X101567760Y-87984467D01*
X101675096Y-87972722D01*
X101768886Y-87984505D01*
X101843539Y-88021727D01*
X101909431Y-88090261D01*
X101927577Y-88115648D01*
X101947345Y-88148866D01*
X101960172Y-88184945D01*
X101967510Y-88233098D01*
X101970813Y-88302536D01*
X101971538Y-88394206D01*
X101968263Y-88519830D01*
X101956877Y-88614154D01*
X101935041Y-88684523D01*
X101900419Y-88738286D01*
X101850670Y-88782788D01*
X101847014Y-88785423D01*
X101797985Y-88812377D01*
X101738945Y-88825712D01*
X101663859Y-88829000D01*
X101541795Y-88829000D01*
X101541744Y-88947497D01*
X101540608Y-89013492D01*
X101533686Y-89052202D01*
X101515598Y-89075419D01*
X101480962Y-89094933D01*
X101472645Y-89098920D01*
X101433720Y-89117603D01*
X101403583Y-89129403D01*
X101381174Y-89130422D01*
X101365433Y-89116761D01*
X101355302Y-89084522D01*
X101349723Y-89029804D01*
X101347635Y-88948711D01*
X101347981Y-88837344D01*
X101349700Y-88691802D01*
X101350237Y-88648269D01*
X101352172Y-88498205D01*
X101353904Y-88400042D01*
X101541692Y-88400042D01*
X101542748Y-88483364D01*
X101547438Y-88537880D01*
X101558051Y-88573837D01*
X101576872Y-88601482D01*
X101589650Y-88614965D01*
X101641890Y-88654417D01*
X101688142Y-88657628D01*
X101735867Y-88625049D01*
X101737077Y-88623846D01*
X101756494Y-88598668D01*
X101768307Y-88564447D01*
X101774265Y-88511748D01*
X101776120Y-88431131D01*
X101776154Y-88413271D01*
X101771670Y-88302175D01*
X101757074Y-88225161D01*
X101730650Y-88178147D01*
X101690683Y-88157050D01*
X101667584Y-88154923D01*
X101612762Y-88164900D01*
X101575158Y-88197752D01*
X101552523Y-88257857D01*
X101542606Y-88349598D01*
X101541692Y-88400042D01*
X101353904Y-88400042D01*
X101354222Y-88382060D01*
X101356873Y-88294679D01*
G37*
X101356873Y-88294679D02*
X101360606Y-88230905D01*
X101365907Y-88185582D01*
X101373258Y-88153555D01*
X101383143Y-88129668D01*
X101396046Y-88108764D01*
X101401579Y-88100898D01*
X101474969Y-88026595D01*
X101567760Y-87984467D01*
X101675096Y-87972722D01*
X101768886Y-87984505D01*
X101843539Y-88021727D01*
X101909431Y-88090261D01*
X101927577Y-88115648D01*
X101947345Y-88148866D01*
X101960172Y-88184945D01*
X101967510Y-88233098D01*
X101970813Y-88302536D01*
X101971538Y-88394206D01*
X101968263Y-88519830D01*
X101956877Y-88614154D01*
X101935041Y-88684523D01*
X101900419Y-88738286D01*
X101850670Y-88782788D01*
X101847014Y-88785423D01*
X101797985Y-88812377D01*
X101738945Y-88825712D01*
X101663859Y-88829000D01*
X101541795Y-88829000D01*
X101541744Y-88947497D01*
X101540608Y-89013492D01*
X101533686Y-89052202D01*
X101515598Y-89075419D01*
X101480962Y-89094933D01*
X101472645Y-89098920D01*
X101433720Y-89117603D01*
X101403583Y-89129403D01*
X101381174Y-89130422D01*
X101365433Y-89116761D01*
X101355302Y-89084522D01*
X101349723Y-89029804D01*
X101347635Y-88948711D01*
X101347981Y-88837344D01*
X101349700Y-88691802D01*
X101350237Y-88648269D01*
X101352172Y-88498205D01*
X101353904Y-88400042D01*
X101541692Y-88400042D01*
X101542748Y-88483364D01*
X101547438Y-88537880D01*
X101558051Y-88573837D01*
X101576872Y-88601482D01*
X101589650Y-88614965D01*
X101641890Y-88654417D01*
X101688142Y-88657628D01*
X101735867Y-88625049D01*
X101737077Y-88623846D01*
X101756494Y-88598668D01*
X101768307Y-88564447D01*
X101774265Y-88511748D01*
X101776120Y-88431131D01*
X101776154Y-88413271D01*
X101771670Y-88302175D01*
X101757074Y-88225161D01*
X101730650Y-88178147D01*
X101690683Y-88157050D01*
X101667584Y-88154923D01*
X101612762Y-88164900D01*
X101575158Y-88197752D01*
X101552523Y-88257857D01*
X101542606Y-88349598D01*
X101541692Y-88400042D01*
X101353904Y-88400042D01*
X101354222Y-88382060D01*
X101356873Y-88294679D01*
G36*
X100607629Y-88237906D02*
G01*
X100614322Y-88189163D01*
X100625960Y-88153288D01*
X100643853Y-88121548D01*
X100647808Y-88115648D01*
X100714267Y-88036104D01*
X100786685Y-87989929D01*
X100874849Y-87971599D01*
X100904787Y-87970703D01*
X101016886Y-87987256D01*
X101108464Y-88035409D01*
X101176049Y-88112905D01*
X101200057Y-88162727D01*
X101218738Y-88237533D01*
X101228301Y-88332052D01*
X101229208Y-88435210D01*
X101221921Y-88535935D01*
X101206903Y-88623153D01*
X101184615Y-88685791D01*
X101177765Y-88696579D01*
X101096632Y-88777105D01*
X101000266Y-88825336D01*
X100895701Y-88839450D01*
X100789968Y-88817629D01*
X100760543Y-88804547D01*
X100703241Y-88764231D01*
X100652950Y-88710775D01*
X100648197Y-88703995D01*
X100628878Y-88671321D01*
X100616108Y-88636394D01*
X100608564Y-88590414D01*
X100604924Y-88524584D01*
X100603865Y-88430105D01*
X100603846Y-88408923D01*
X100603894Y-88402182D01*
X100799231Y-88402182D01*
X100800368Y-88491349D01*
X100804841Y-88550520D01*
X100814246Y-88588741D01*
X100830176Y-88615053D01*
X100838308Y-88623846D01*
X100885058Y-88657261D01*
X100930447Y-88655737D01*
X100976340Y-88626752D01*
X101003712Y-88595809D01*
X101019923Y-88550643D01*
X101029026Y-88479420D01*
X101029651Y-88471114D01*
X101031204Y-88342037D01*
X101014965Y-88246172D01*
X100981152Y-88184107D01*
X100929984Y-88156432D01*
X100911720Y-88154923D01*
X100863760Y-88162513D01*
X100830953Y-88188808D01*
X100810895Y-88239095D01*
X100801178Y-88318664D01*
X100799231Y-88402182D01*
X100603894Y-88402182D01*
X100604574Y-88308249D01*
X100607629Y-88237906D01*
G37*
X100607629Y-88237906D02*
X100614322Y-88189163D01*
X100625960Y-88153288D01*
X100643853Y-88121548D01*
X100647808Y-88115648D01*
X100714267Y-88036104D01*
X100786685Y-87989929D01*
X100874849Y-87971599D01*
X100904787Y-87970703D01*
X101016886Y-87987256D01*
X101108464Y-88035409D01*
X101176049Y-88112905D01*
X101200057Y-88162727D01*
X101218738Y-88237533D01*
X101228301Y-88332052D01*
X101229208Y-88435210D01*
X101221921Y-88535935D01*
X101206903Y-88623153D01*
X101184615Y-88685791D01*
X101177765Y-88696579D01*
X101096632Y-88777105D01*
X101000266Y-88825336D01*
X100895701Y-88839450D01*
X100789968Y-88817629D01*
X100760543Y-88804547D01*
X100703241Y-88764231D01*
X100652950Y-88710775D01*
X100648197Y-88703995D01*
X100628878Y-88671321D01*
X100616108Y-88636394D01*
X100608564Y-88590414D01*
X100604924Y-88524584D01*
X100603865Y-88430105D01*
X100603846Y-88408923D01*
X100603894Y-88402182D01*
X100799231Y-88402182D01*
X100800368Y-88491349D01*
X100804841Y-88550520D01*
X100814246Y-88588741D01*
X100830176Y-88615053D01*
X100838308Y-88623846D01*
X100885058Y-88657261D01*
X100930447Y-88655737D01*
X100976340Y-88626752D01*
X101003712Y-88595809D01*
X101019923Y-88550643D01*
X101029026Y-88479420D01*
X101029651Y-88471114D01*
X101031204Y-88342037D01*
X101014965Y-88246172D01*
X100981152Y-88184107D01*
X100929984Y-88156432D01*
X100911720Y-88154923D01*
X100863760Y-88162513D01*
X100830953Y-88188808D01*
X100810895Y-88239095D01*
X100801178Y-88318664D01*
X100799231Y-88402182D01*
X100603894Y-88402182D01*
X100604574Y-88308249D01*
X100607629Y-88237906D01*
G36*
X105139878Y-81687776D02*
G01*
X105245612Y-81688355D01*
X105322132Y-81689922D01*
X105374372Y-81692972D01*
X105407263Y-81697996D01*
X105425737Y-81705489D01*
X105434727Y-81715944D01*
X105439163Y-81729853D01*
X105439594Y-81731654D01*
X105446333Y-81764145D01*
X105458808Y-81828252D01*
X105475719Y-81917151D01*
X105495771Y-82024019D01*
X105517664Y-82142033D01*
X105518429Y-82146178D01*
X105540359Y-82261831D01*
X105560877Y-82364014D01*
X105578659Y-82446598D01*
X105592381Y-82503456D01*
X105600718Y-82528458D01*
X105601116Y-82528901D01*
X105625677Y-82541110D01*
X105676315Y-82561456D01*
X105742095Y-82585545D01*
X105742461Y-82585674D01*
X105825317Y-82616818D01*
X105923000Y-82656491D01*
X106015077Y-82696381D01*
X106019434Y-82698353D01*
X106169407Y-82766420D01*
X106501498Y-82539639D01*
X106603374Y-82470504D01*
X106695657Y-82408697D01*
X106773003Y-82357733D01*
X106830064Y-82321127D01*
X106861495Y-82302394D01*
X106864479Y-82301004D01*
X106887321Y-82307190D01*
X106929982Y-82337035D01*
X106994128Y-82391947D01*
X107081421Y-82473334D01*
X107170535Y-82559922D01*
X107256441Y-82645247D01*
X107333327Y-82723108D01*
X107396564Y-82788697D01*
X107441523Y-82837205D01*
X107463576Y-82863825D01*
X107464396Y-82865195D01*
X107466834Y-82883463D01*
X107457650Y-82913295D01*
X107434574Y-82958721D01*
X107395337Y-83023770D01*
X107337670Y-83112470D01*
X107260795Y-83226657D01*
X107192570Y-83327162D01*
X107131582Y-83417303D01*
X107081356Y-83491849D01*
X107045416Y-83545565D01*
X107027287Y-83573218D01*
X107026146Y-83575095D01*
X107028359Y-83601590D01*
X107045138Y-83653086D01*
X107073142Y-83719851D01*
X107083122Y-83741172D01*
X107126672Y-83836159D01*
X107173134Y-83943937D01*
X107210877Y-84037192D01*
X107238073Y-84106406D01*
X107259675Y-84159006D01*
X107272158Y-84186497D01*
X107273709Y-84188616D01*
X107296668Y-84192124D01*
X107350786Y-84201738D01*
X107428868Y-84216089D01*
X107523719Y-84233807D01*
X107628143Y-84253525D01*
X107734944Y-84273874D01*
X107836926Y-84293486D01*
X107926894Y-84310991D01*
X107997653Y-84325022D01*
X108042006Y-84334209D01*
X108052885Y-84336807D01*
X108064122Y-84343218D01*
X108072605Y-84357697D01*
X108078714Y-84385133D01*
X108082832Y-84430411D01*
X108085341Y-84498420D01*
X108086621Y-84594047D01*
X108087054Y-84722180D01*
X108087077Y-84774701D01*
X108087077Y-85201845D01*
X107984500Y-85222091D01*
X107927431Y-85233070D01*
X107842269Y-85249095D01*
X107739372Y-85268233D01*
X107629096Y-85288551D01*
X107598615Y-85294132D01*
X107496855Y-85313917D01*
X107408205Y-85333373D01*
X107340108Y-85350697D01*
X107300004Y-85364088D01*
X107293323Y-85368079D01*
X107276919Y-85396342D01*
X107253399Y-85451109D01*
X107227316Y-85521588D01*
X107222142Y-85536769D01*
X107187956Y-85630896D01*
X107145523Y-85737101D01*
X107103997Y-85832473D01*
X107103792Y-85832916D01*
X107034640Y-85982525D01*
X107489512Y-86651617D01*
X107197500Y-86944116D01*
X107109180Y-87031170D01*
X107028625Y-87107909D01*
X106960360Y-87170237D01*
X106908908Y-87214056D01*
X106878794Y-87235270D01*
X106874474Y-87236616D01*
X106849111Y-87226016D01*
X106797358Y-87196547D01*
X106724868Y-87151705D01*
X106637294Y-87094984D01*
X106542612Y-87031462D01*
X106446516Y-86966668D01*
X106360837Y-86910287D01*
X106291016Y-86865788D01*
X106242494Y-86836639D01*
X106220782Y-86826308D01*
X106194293Y-86835050D01*
X106144062Y-86858087D01*
X106080451Y-86890631D01*
X106073708Y-86894249D01*
X105988046Y-86937210D01*
X105929306Y-86958279D01*
X105892772Y-86958503D01*
X105873731Y-86938928D01*
X105873620Y-86938654D01*
X105864102Y-86915472D01*
X105841403Y-86860441D01*
X105807282Y-86777822D01*
X105763500Y-86671872D01*
X105711816Y-86546852D01*
X105653992Y-86407020D01*
X105597991Y-86271637D01*
X105536447Y-86122234D01*
X105479939Y-85983832D01*
X105430161Y-85860673D01*
X105388806Y-85757002D01*
X105357568Y-85677059D01*
X105338141Y-85625088D01*
X105332154Y-85605692D01*
X105347168Y-85583443D01*
X105386439Y-85547982D01*
X105438807Y-85508887D01*
X105587941Y-85385245D01*
X105704511Y-85243522D01*
X105787118Y-85086704D01*
X105834366Y-84917775D01*
X105844857Y-84739722D01*
X105837231Y-84657539D01*
X105795682Y-84487031D01*
X105724123Y-84336459D01*
X105626995Y-84207309D01*
X105508734Y-84101064D01*
X105373780Y-84019210D01*
X105226571Y-83963232D01*
X105071544Y-83934615D01*
X104913139Y-83934844D01*
X104755794Y-83965405D01*
X104603946Y-84027782D01*
X104462035Y-84123460D01*
X104402803Y-84177572D01*
X104289203Y-84316520D01*
X104210106Y-84468361D01*
X104164986Y-84628667D01*
X104153316Y-84793012D01*
X104174569Y-84956971D01*
X104228220Y-85116118D01*
X104313740Y-85266025D01*
X104430605Y-85402267D01*
X104561193Y-85508887D01*
X104615588Y-85549642D01*
X104654014Y-85584718D01*
X104667846Y-85605726D01*
X104660603Y-85628635D01*
X104640005Y-85683365D01*
X104607746Y-85765672D01*
X104565521Y-85871315D01*
X104515023Y-85996050D01*
X104457948Y-86135636D01*
X104401854Y-86271670D01*
X104339967Y-86421201D01*
X104282644Y-86559767D01*
X104231644Y-86683107D01*
X104188727Y-86786964D01*
X104155653Y-86867080D01*
X104134181Y-86919195D01*
X104126225Y-86938654D01*
X104107429Y-86958423D01*
X104071074Y-86958365D01*
X104012479Y-86937441D01*
X103926968Y-86894613D01*
X103926292Y-86894249D01*
X103861907Y-86861012D01*
X103809861Y-86836802D01*
X103780512Y-86826404D01*
X103779217Y-86826308D01*
X103757124Y-86836855D01*
X103708348Y-86866184D01*
X103638331Y-86910827D01*
X103552514Y-86967314D01*
X103457388Y-87031462D01*
X103360540Y-87096411D01*
X103273253Y-87152896D01*
X103201181Y-87197421D01*
X103149977Y-87226490D01*
X103125526Y-87236616D01*
X103103010Y-87223307D01*
X103057742Y-87186112D01*
X102994244Y-87129128D01*
X102917039Y-87056449D01*
X102830651Y-86972171D01*
X102802399Y-86944016D01*
X102510287Y-86651416D01*
X102732631Y-86325104D01*
X102800202Y-86224897D01*
X102859507Y-86134963D01*
X102907217Y-86060510D01*
X102940007Y-86006751D01*
X102954548Y-85978894D01*
X102954974Y-85976912D01*
X102947308Y-85950655D01*
X102926689Y-85897837D01*
X102896685Y-85827310D01*
X102875625Y-85780093D01*
X102836248Y-85689694D01*
X102799165Y-85598366D01*
X102770415Y-85521200D01*
X102762605Y-85497692D01*
X102740417Y-85434916D01*
X102718727Y-85386411D01*
X102706813Y-85368079D01*
X102680523Y-85356859D01*
X102623142Y-85340954D01*
X102542118Y-85322167D01*
X102444895Y-85302299D01*
X102401385Y-85294132D01*
X102290896Y-85273829D01*
X102184916Y-85254170D01*
X102093801Y-85237088D01*
X102027908Y-85224518D01*
X102015500Y-85222091D01*
X101912923Y-85201845D01*
X101912923Y-84774701D01*
X101913153Y-84634246D01*
X101914099Y-84527979D01*
X101916141Y-84451013D01*
X101919662Y-84398460D01*
X101925043Y-84365433D01*
X101932666Y-84347045D01*
X101942912Y-84338408D01*
X101947115Y-84336807D01*
X101972470Y-84331127D01*
X102028484Y-84319795D01*
X102107964Y-84304179D01*
X102203712Y-84285647D01*
X102308533Y-84265569D01*
X102415232Y-84245312D01*
X102516613Y-84226246D01*
X102605479Y-84209739D01*
X102674637Y-84197159D01*
X102716889Y-84189875D01*
X102726290Y-84188616D01*
X102734807Y-84171763D01*
X102753660Y-84126870D01*
X102779324Y-84062430D01*
X102789123Y-84037192D01*
X102828648Y-83939686D01*
X102875192Y-83831959D01*
X102916877Y-83741172D01*
X102947550Y-83671753D01*
X102967956Y-83614710D01*
X102974768Y-83579777D01*
X102973682Y-83575095D01*
X102959285Y-83552991D01*
X102926412Y-83503831D01*
X102878590Y-83432848D01*
X102819348Y-83345278D01*
X102752215Y-83246357D01*
X102738941Y-83226830D01*
X102661046Y-83111140D01*
X102603787Y-83023044D01*
X102564881Y-82958486D01*
X102542044Y-82913411D01*
X102532994Y-82883763D01*
X102535448Y-82865485D01*
X102535511Y-82865369D01*
X102554827Y-82841361D01*
X102597551Y-82794947D01*
X102659051Y-82730937D01*
X102734698Y-82654145D01*
X102819861Y-82569382D01*
X102829465Y-82559922D01*
X102936790Y-82455989D01*
X103019615Y-82379675D01*
X103079605Y-82329571D01*
X103118423Y-82304270D01*
X103135520Y-82301004D01*
X103160473Y-82315250D01*
X103212255Y-82348156D01*
X103285520Y-82396208D01*
X103374920Y-82455890D01*
X103475111Y-82523688D01*
X103498501Y-82539639D01*
X103830593Y-82766420D01*
X103980565Y-82698353D01*
X104071770Y-82658685D01*
X104169669Y-82618791D01*
X104253831Y-82586983D01*
X104257538Y-82585674D01*
X104323369Y-82561576D01*
X104374116Y-82541200D01*
X104398842Y-82528936D01*
X104398884Y-82528901D01*
X104406729Y-82506734D01*
X104420066Y-82452217D01*
X104437570Y-82371480D01*
X104457917Y-82270650D01*
X104479782Y-82155856D01*
X104481571Y-82146178D01*
X104503504Y-82027904D01*
X104523640Y-81920542D01*
X104540680Y-81830917D01*
X104553328Y-81765851D01*
X104560284Y-81732168D01*
X104560406Y-81731654D01*
X104564639Y-81717325D01*
X104572871Y-81706507D01*
X104590033Y-81698706D01*
X104621058Y-81693429D01*
X104670878Y-81690182D01*
X104744424Y-81688472D01*
X104846629Y-81687807D01*
X104982425Y-81687693D01*
X105000000Y-81687692D01*
X105139878Y-81687776D01*
G37*
X105139878Y-81687776D02*
X105245612Y-81688355D01*
X105322132Y-81689922D01*
X105374372Y-81692972D01*
X105407263Y-81697996D01*
X105425737Y-81705489D01*
X105434727Y-81715944D01*
X105439163Y-81729853D01*
X105439594Y-81731654D01*
X105446333Y-81764145D01*
X105458808Y-81828252D01*
X105475719Y-81917151D01*
X105495771Y-82024019D01*
X105517664Y-82142033D01*
X105518429Y-82146178D01*
X105540359Y-82261831D01*
X105560877Y-82364014D01*
X105578659Y-82446598D01*
X105592381Y-82503456D01*
X105600718Y-82528458D01*
X105601116Y-82528901D01*
X105625677Y-82541110D01*
X105676315Y-82561456D01*
X105742095Y-82585545D01*
X105742461Y-82585674D01*
X105825317Y-82616818D01*
X105923000Y-82656491D01*
X106015077Y-82696381D01*
X106019434Y-82698353D01*
X106169407Y-82766420D01*
X106501498Y-82539639D01*
X106603374Y-82470504D01*
X106695657Y-82408697D01*
X106773003Y-82357733D01*
X106830064Y-82321127D01*
X106861495Y-82302394D01*
X106864479Y-82301004D01*
X106887321Y-82307190D01*
X106929982Y-82337035D01*
X106994128Y-82391947D01*
X107081421Y-82473334D01*
X107170535Y-82559922D01*
X107256441Y-82645247D01*
X107333327Y-82723108D01*
X107396564Y-82788697D01*
X107441523Y-82837205D01*
X107463576Y-82863825D01*
X107464396Y-82865195D01*
X107466834Y-82883463D01*
X107457650Y-82913295D01*
X107434574Y-82958721D01*
X107395337Y-83023770D01*
X107337670Y-83112470D01*
X107260795Y-83226657D01*
X107192570Y-83327162D01*
X107131582Y-83417303D01*
X107081356Y-83491849D01*
X107045416Y-83545565D01*
X107027287Y-83573218D01*
X107026146Y-83575095D01*
X107028359Y-83601590D01*
X107045138Y-83653086D01*
X107073142Y-83719851D01*
X107083122Y-83741172D01*
X107126672Y-83836159D01*
X107173134Y-83943937D01*
X107210877Y-84037192D01*
X107238073Y-84106406D01*
X107259675Y-84159006D01*
X107272158Y-84186497D01*
X107273709Y-84188616D01*
X107296668Y-84192124D01*
X107350786Y-84201738D01*
X107428868Y-84216089D01*
X107523719Y-84233807D01*
X107628143Y-84253525D01*
X107734944Y-84273874D01*
X107836926Y-84293486D01*
X107926894Y-84310991D01*
X107997653Y-84325022D01*
X108042006Y-84334209D01*
X108052885Y-84336807D01*
X108064122Y-84343218D01*
X108072605Y-84357697D01*
X108078714Y-84385133D01*
X108082832Y-84430411D01*
X108085341Y-84498420D01*
X108086621Y-84594047D01*
X108087054Y-84722180D01*
X108087077Y-84774701D01*
X108087077Y-85201845D01*
X107984500Y-85222091D01*
X107927431Y-85233070D01*
X107842269Y-85249095D01*
X107739372Y-85268233D01*
X107629096Y-85288551D01*
X107598615Y-85294132D01*
X107496855Y-85313917D01*
X107408205Y-85333373D01*
X107340108Y-85350697D01*
X107300004Y-85364088D01*
X107293323Y-85368079D01*
X107276919Y-85396342D01*
X107253399Y-85451109D01*
X107227316Y-85521588D01*
X107222142Y-85536769D01*
X107187956Y-85630896D01*
X107145523Y-85737101D01*
X107103997Y-85832473D01*
X107103792Y-85832916D01*
X107034640Y-85982525D01*
X107489512Y-86651617D01*
X107197500Y-86944116D01*
X107109180Y-87031170D01*
X107028625Y-87107909D01*
X106960360Y-87170237D01*
X106908908Y-87214056D01*
X106878794Y-87235270D01*
X106874474Y-87236616D01*
X106849111Y-87226016D01*
X106797358Y-87196547D01*
X106724868Y-87151705D01*
X106637294Y-87094984D01*
X106542612Y-87031462D01*
X106446516Y-86966668D01*
X106360837Y-86910287D01*
X106291016Y-86865788D01*
X106242494Y-86836639D01*
X106220782Y-86826308D01*
X106194293Y-86835050D01*
X106144062Y-86858087D01*
X106080451Y-86890631D01*
X106073708Y-86894249D01*
X105988046Y-86937210D01*
X105929306Y-86958279D01*
X105892772Y-86958503D01*
X105873731Y-86938928D01*
X105873620Y-86938654D01*
X105864102Y-86915472D01*
X105841403Y-86860441D01*
X105807282Y-86777822D01*
X105763500Y-86671872D01*
X105711816Y-86546852D01*
X105653992Y-86407020D01*
X105597991Y-86271637D01*
X105536447Y-86122234D01*
X105479939Y-85983832D01*
X105430161Y-85860673D01*
X105388806Y-85757002D01*
X105357568Y-85677059D01*
X105338141Y-85625088D01*
X105332154Y-85605692D01*
X105347168Y-85583443D01*
X105386439Y-85547982D01*
X105438807Y-85508887D01*
X105587941Y-85385245D01*
X105704511Y-85243522D01*
X105787118Y-85086704D01*
X105834366Y-84917775D01*
X105844857Y-84739722D01*
X105837231Y-84657539D01*
X105795682Y-84487031D01*
X105724123Y-84336459D01*
X105626995Y-84207309D01*
X105508734Y-84101064D01*
X105373780Y-84019210D01*
X105226571Y-83963232D01*
X105071544Y-83934615D01*
X104913139Y-83934844D01*
X104755794Y-83965405D01*
X104603946Y-84027782D01*
X104462035Y-84123460D01*
X104402803Y-84177572D01*
X104289203Y-84316520D01*
X104210106Y-84468361D01*
X104164986Y-84628667D01*
X104153316Y-84793012D01*
X104174569Y-84956971D01*
X104228220Y-85116118D01*
X104313740Y-85266025D01*
X104430605Y-85402267D01*
X104561193Y-85508887D01*
X104615588Y-85549642D01*
X104654014Y-85584718D01*
X104667846Y-85605726D01*
X104660603Y-85628635D01*
X104640005Y-85683365D01*
X104607746Y-85765672D01*
X104565521Y-85871315D01*
X104515023Y-85996050D01*
X104457948Y-86135636D01*
X104401854Y-86271670D01*
X104339967Y-86421201D01*
X104282644Y-86559767D01*
X104231644Y-86683107D01*
X104188727Y-86786964D01*
X104155653Y-86867080D01*
X104134181Y-86919195D01*
X104126225Y-86938654D01*
X104107429Y-86958423D01*
X104071074Y-86958365D01*
X104012479Y-86937441D01*
X103926968Y-86894613D01*
X103926292Y-86894249D01*
X103861907Y-86861012D01*
X103809861Y-86836802D01*
X103780512Y-86826404D01*
X103779217Y-86826308D01*
X103757124Y-86836855D01*
X103708348Y-86866184D01*
X103638331Y-86910827D01*
X103552514Y-86967314D01*
X103457388Y-87031462D01*
X103360540Y-87096411D01*
X103273253Y-87152896D01*
X103201181Y-87197421D01*
X103149977Y-87226490D01*
X103125526Y-87236616D01*
X103103010Y-87223307D01*
X103057742Y-87186112D01*
X102994244Y-87129128D01*
X102917039Y-87056449D01*
X102830651Y-86972171D01*
X102802399Y-86944016D01*
X102510287Y-86651416D01*
X102732631Y-86325104D01*
X102800202Y-86224897D01*
X102859507Y-86134963D01*
X102907217Y-86060510D01*
X102940007Y-86006751D01*
X102954548Y-85978894D01*
X102954974Y-85976912D01*
X102947308Y-85950655D01*
X102926689Y-85897837D01*
X102896685Y-85827310D01*
X102875625Y-85780093D01*
X102836248Y-85689694D01*
X102799165Y-85598366D01*
X102770415Y-85521200D01*
X102762605Y-85497692D01*
X102740417Y-85434916D01*
X102718727Y-85386411D01*
X102706813Y-85368079D01*
X102680523Y-85356859D01*
X102623142Y-85340954D01*
X102542118Y-85322167D01*
X102444895Y-85302299D01*
X102401385Y-85294132D01*
X102290896Y-85273829D01*
X102184916Y-85254170D01*
X102093801Y-85237088D01*
X102027908Y-85224518D01*
X102015500Y-85222091D01*
X101912923Y-85201845D01*
X101912923Y-84774701D01*
X101913153Y-84634246D01*
X101914099Y-84527979D01*
X101916141Y-84451013D01*
X101919662Y-84398460D01*
X101925043Y-84365433D01*
X101932666Y-84347045D01*
X101942912Y-84338408D01*
X101947115Y-84336807D01*
X101972470Y-84331127D01*
X102028484Y-84319795D01*
X102107964Y-84304179D01*
X102203712Y-84285647D01*
X102308533Y-84265569D01*
X102415232Y-84245312D01*
X102516613Y-84226246D01*
X102605479Y-84209739D01*
X102674637Y-84197159D01*
X102716889Y-84189875D01*
X102726290Y-84188616D01*
X102734807Y-84171763D01*
X102753660Y-84126870D01*
X102779324Y-84062430D01*
X102789123Y-84037192D01*
X102828648Y-83939686D01*
X102875192Y-83831959D01*
X102916877Y-83741172D01*
X102947550Y-83671753D01*
X102967956Y-83614710D01*
X102974768Y-83579777D01*
X102973682Y-83575095D01*
X102959285Y-83552991D01*
X102926412Y-83503831D01*
X102878590Y-83432848D01*
X102819348Y-83345278D01*
X102752215Y-83246357D01*
X102738941Y-83226830D01*
X102661046Y-83111140D01*
X102603787Y-83023044D01*
X102564881Y-82958486D01*
X102542044Y-82913411D01*
X102532994Y-82883763D01*
X102535448Y-82865485D01*
X102535511Y-82865369D01*
X102554827Y-82841361D01*
X102597551Y-82794947D01*
X102659051Y-82730937D01*
X102734698Y-82654145D01*
X102819861Y-82569382D01*
X102829465Y-82559922D01*
X102936790Y-82455989D01*
X103019615Y-82379675D01*
X103079605Y-82329571D01*
X103118423Y-82304270D01*
X103135520Y-82301004D01*
X103160473Y-82315250D01*
X103212255Y-82348156D01*
X103285520Y-82396208D01*
X103374920Y-82455890D01*
X103475111Y-82523688D01*
X103498501Y-82539639D01*
X103830593Y-82766420D01*
X103980565Y-82698353D01*
X104071770Y-82658685D01*
X104169669Y-82618791D01*
X104253831Y-82586983D01*
X104257538Y-82585674D01*
X104323369Y-82561576D01*
X104374116Y-82541200D01*
X104398842Y-82528936D01*
X104398884Y-82528901D01*
X104406729Y-82506734D01*
X104420066Y-82452217D01*
X104437570Y-82371480D01*
X104457917Y-82270650D01*
X104479782Y-82155856D01*
X104481571Y-82146178D01*
X104503504Y-82027904D01*
X104523640Y-81920542D01*
X104540680Y-81830917D01*
X104553328Y-81765851D01*
X104560284Y-81732168D01*
X104560406Y-81731654D01*
X104564639Y-81717325D01*
X104572871Y-81706507D01*
X104590033Y-81698706D01*
X104621058Y-81693429D01*
X104670878Y-81690182D01*
X104744424Y-81688472D01*
X104846629Y-81687807D01*
X104982425Y-81687693D01*
X105000000Y-81687692D01*
X105139878Y-81687776D01*
G36*
X107887333Y-88033528D02*
G01*
X107943590Y-88059117D01*
X107987747Y-88090124D01*
X108020101Y-88124795D01*
X108042438Y-88169520D01*
X108056546Y-88230692D01*
X108064211Y-88314701D01*
X108067220Y-88427940D01*
X108067538Y-88502509D01*
X108067538Y-88793420D01*
X108017773Y-88816095D01*
X107978576Y-88832667D01*
X107959157Y-88838769D01*
X107955442Y-88820610D01*
X107952495Y-88771648D01*
X107950691Y-88700153D01*
X107950308Y-88643385D01*
X107948661Y-88561371D01*
X107944222Y-88496309D01*
X107937740Y-88456467D01*
X107932590Y-88448000D01*
X107897977Y-88456646D01*
X107843640Y-88478823D01*
X107780722Y-88508886D01*
X107720368Y-88541192D01*
X107673721Y-88570098D01*
X107651926Y-88589961D01*
X107651839Y-88590175D01*
X107653714Y-88626935D01*
X107670525Y-88662026D01*
X107700039Y-88690528D01*
X107743116Y-88700061D01*
X107779932Y-88698950D01*
X107832074Y-88698133D01*
X107859444Y-88710349D01*
X107875882Y-88742624D01*
X107877955Y-88748710D01*
X107885081Y-88794739D01*
X107866024Y-88822687D01*
X107816353Y-88836007D01*
X107762697Y-88838470D01*
X107666142Y-88820210D01*
X107616159Y-88794131D01*
X107554429Y-88732868D01*
X107521690Y-88657670D01*
X107518753Y-88578211D01*
X107546424Y-88504167D01*
X107588047Y-88457769D01*
X107629604Y-88431793D01*
X107694922Y-88398907D01*
X107771038Y-88365557D01*
X107783726Y-88360461D01*
X107867333Y-88323565D01*
X107915530Y-88291046D01*
X107931030Y-88258718D01*
X107916550Y-88222394D01*
X107891692Y-88194000D01*
X107832939Y-88159039D01*
X107768293Y-88156417D01*
X107709008Y-88183358D01*
X107666339Y-88237088D01*
X107660739Y-88250950D01*
X107628133Y-88301936D01*
X107580530Y-88339787D01*
X107520461Y-88370850D01*
X107520461Y-88282768D01*
X107523997Y-88228951D01*
X107539156Y-88186534D01*
X107572768Y-88141279D01*
X107605035Y-88106420D01*
X107655209Y-88057062D01*
X107694193Y-88030547D01*
X107736064Y-88019911D01*
X107783460Y-88018154D01*
X107887333Y-88033528D01*
G37*
X107887333Y-88033528D02*
X107943590Y-88059117D01*
X107987747Y-88090124D01*
X108020101Y-88124795D01*
X108042438Y-88169520D01*
X108056546Y-88230692D01*
X108064211Y-88314701D01*
X108067220Y-88427940D01*
X108067538Y-88502509D01*
X108067538Y-88793420D01*
X108017773Y-88816095D01*
X107978576Y-88832667D01*
X107959157Y-88838769D01*
X107955442Y-88820610D01*
X107952495Y-88771648D01*
X107950691Y-88700153D01*
X107950308Y-88643385D01*
X107948661Y-88561371D01*
X107944222Y-88496309D01*
X107937740Y-88456467D01*
X107932590Y-88448000D01*
X107897977Y-88456646D01*
X107843640Y-88478823D01*
X107780722Y-88508886D01*
X107720368Y-88541192D01*
X107673721Y-88570098D01*
X107651926Y-88589961D01*
X107651839Y-88590175D01*
X107653714Y-88626935D01*
X107670525Y-88662026D01*
X107700039Y-88690528D01*
X107743116Y-88700061D01*
X107779932Y-88698950D01*
X107832074Y-88698133D01*
X107859444Y-88710349D01*
X107875882Y-88742624D01*
X107877955Y-88748710D01*
X107885081Y-88794739D01*
X107866024Y-88822687D01*
X107816353Y-88836007D01*
X107762697Y-88838470D01*
X107666142Y-88820210D01*
X107616159Y-88794131D01*
X107554429Y-88732868D01*
X107521690Y-88657670D01*
X107518753Y-88578211D01*
X107546424Y-88504167D01*
X107588047Y-88457769D01*
X107629604Y-88431793D01*
X107694922Y-88398907D01*
X107771038Y-88365557D01*
X107783726Y-88360461D01*
X107867333Y-88323565D01*
X107915530Y-88291046D01*
X107931030Y-88258718D01*
X107916550Y-88222394D01*
X107891692Y-88194000D01*
X107832939Y-88159039D01*
X107768293Y-88156417D01*
X107709008Y-88183358D01*
X107666339Y-88237088D01*
X107660739Y-88250950D01*
X107628133Y-88301936D01*
X107580530Y-88339787D01*
X107520461Y-88370850D01*
X107520461Y-88282768D01*
X107523997Y-88228951D01*
X107539156Y-88186534D01*
X107572768Y-88141279D01*
X107605035Y-88106420D01*
X107655209Y-88057062D01*
X107694193Y-88030547D01*
X107736064Y-88019911D01*
X107783460Y-88018154D01*
X107887333Y-88033528D01*
G36*
X108861032Y-88220710D02*
G01*
X108879460Y-88155167D01*
X108909360Y-88106912D01*
X108953080Y-88068767D01*
X108972141Y-88056440D01*
X109058726Y-88024336D01*
X109153522Y-88022316D01*
X109245224Y-88047838D01*
X109322528Y-88098361D01*
X109359814Y-88143590D01*
X109389353Y-88225663D01*
X109391699Y-88290607D01*
X109386385Y-88377445D01*
X109186115Y-88465103D01*
X109088739Y-88509887D01*
X109025113Y-88545913D01*
X108992029Y-88577117D01*
X108986280Y-88607436D01*
X109004658Y-88640805D01*
X109024923Y-88662923D01*
X109083889Y-88698393D01*
X109148024Y-88700879D01*
X109206926Y-88673235D01*
X109250197Y-88618320D01*
X109257936Y-88598928D01*
X109295006Y-88538364D01*
X109337654Y-88512552D01*
X109396154Y-88490471D01*
X109396154Y-88574184D01*
X109390982Y-88631150D01*
X109370723Y-88679189D01*
X109328262Y-88734346D01*
X109321951Y-88741514D01*
X109274720Y-88790585D01*
X109234121Y-88816920D01*
X109183328Y-88829035D01*
X109141220Y-88833003D01*
X109065902Y-88833991D01*
X109012286Y-88821466D01*
X108978838Y-88802869D01*
X108926268Y-88761975D01*
X108889879Y-88717748D01*
X108866850Y-88662126D01*
X108854359Y-88587047D01*
X108849587Y-88484449D01*
X108849206Y-88432376D01*
X108850501Y-88369948D01*
X108968471Y-88369948D01*
X108969839Y-88403438D01*
X108973249Y-88408923D01*
X108995753Y-88401472D01*
X109044182Y-88381753D01*
X109108908Y-88353718D01*
X109122443Y-88347692D01*
X109204244Y-88306096D01*
X109249312Y-88269538D01*
X109259217Y-88235296D01*
X109235526Y-88200648D01*
X109215960Y-88185339D01*
X109145360Y-88154721D01*
X109079280Y-88159780D01*
X109023959Y-88197151D01*
X108985636Y-88263473D01*
X108973349Y-88316116D01*
X108968471Y-88369948D01*
X108850501Y-88369948D01*
X108851730Y-88310720D01*
X108861032Y-88220710D01*
G37*
X108861032Y-88220710D02*
X108879460Y-88155167D01*
X108909360Y-88106912D01*
X108953080Y-88068767D01*
X108972141Y-88056440D01*
X109058726Y-88024336D01*
X109153522Y-88022316D01*
X109245224Y-88047838D01*
X109322528Y-88098361D01*
X109359814Y-88143590D01*
X109389353Y-88225663D01*
X109391699Y-88290607D01*
X109386385Y-88377445D01*
X109186115Y-88465103D01*
X109088739Y-88509887D01*
X109025113Y-88545913D01*
X108992029Y-88577117D01*
X108986280Y-88607436D01*
X109004658Y-88640805D01*
X109024923Y-88662923D01*
X109083889Y-88698393D01*
X109148024Y-88700879D01*
X109206926Y-88673235D01*
X109250197Y-88618320D01*
X109257936Y-88598928D01*
X109295006Y-88538364D01*
X109337654Y-88512552D01*
X109396154Y-88490471D01*
X109396154Y-88574184D01*
X109390982Y-88631150D01*
X109370723Y-88679189D01*
X109328262Y-88734346D01*
X109321951Y-88741514D01*
X109274720Y-88790585D01*
X109234121Y-88816920D01*
X109183328Y-88829035D01*
X109141220Y-88833003D01*
X109065902Y-88833991D01*
X109012286Y-88821466D01*
X108978838Y-88802869D01*
X108926268Y-88761975D01*
X108889879Y-88717748D01*
X108866850Y-88662126D01*
X108854359Y-88587047D01*
X108849587Y-88484449D01*
X108849206Y-88432376D01*
X108850501Y-88369948D01*
X108968471Y-88369948D01*
X108969839Y-88403438D01*
X108973249Y-88408923D01*
X108995753Y-88401472D01*
X109044182Y-88381753D01*
X109108908Y-88353718D01*
X109122443Y-88347692D01*
X109204244Y-88306096D01*
X109249312Y-88269538D01*
X109259217Y-88235296D01*
X109235526Y-88200648D01*
X109215960Y-88185339D01*
X109145360Y-88154721D01*
X109079280Y-88159780D01*
X109023959Y-88197151D01*
X108985636Y-88263473D01*
X108973349Y-88316116D01*
X108968471Y-88369948D01*
X108850501Y-88369948D01*
X108851730Y-88310720D01*
X108861032Y-88220710D01*
G36*
X106056362Y-88213577D02*
G01*
X106086528Y-88144269D01*
X106133629Y-88090211D01*
X106170312Y-88062505D01*
X106236990Y-88032572D01*
X106314272Y-88018678D01*
X106386110Y-88022397D01*
X106426308Y-88037400D01*
X106442082Y-88041670D01*
X106452550Y-88025750D01*
X106459856Y-87983089D01*
X106465385Y-87918106D01*
X106471437Y-87845732D01*
X106479844Y-87802187D01*
X106495141Y-87777287D01*
X106521864Y-87760845D01*
X106538654Y-87753564D01*
X106602154Y-87726963D01*
X106602081Y-88180289D01*
X106601833Y-88326320D01*
X106600872Y-88438655D01*
X106598794Y-88522678D01*
X106595193Y-88583769D01*
X106589665Y-88627309D01*
X106581804Y-88658679D01*
X106571207Y-88683262D01*
X106563182Y-88697294D01*
X106496728Y-88773388D01*
X106412470Y-88821084D01*
X106319249Y-88838199D01*
X106225900Y-88822546D01*
X106170312Y-88794418D01*
X106111957Y-88745760D01*
X106072186Y-88686333D01*
X106048190Y-88608507D01*
X106037161Y-88504652D01*
X106035599Y-88428462D01*
X106035809Y-88422986D01*
X106172308Y-88422986D01*
X106173141Y-88510355D01*
X106176961Y-88568192D01*
X106185746Y-88606029D01*
X106201474Y-88633398D01*
X106220266Y-88654042D01*
X106283375Y-88693890D01*
X106351137Y-88697295D01*
X106415179Y-88664025D01*
X106420164Y-88659517D01*
X106441439Y-88636067D01*
X106454779Y-88608166D01*
X106462001Y-88566641D01*
X106464923Y-88502316D01*
X106465385Y-88431200D01*
X106464383Y-88341858D01*
X106460238Y-88282258D01*
X106451236Y-88243089D01*
X106435667Y-88215040D01*
X106422902Y-88200144D01*
X106363600Y-88162575D01*
X106295301Y-88158057D01*
X106230110Y-88186753D01*
X106217528Y-88197406D01*
X106196111Y-88221063D01*
X106182744Y-88249251D01*
X106175566Y-88291245D01*
X106172719Y-88356319D01*
X106172308Y-88422986D01*
X106035809Y-88422986D01*
X106040322Y-88305765D01*
X106056362Y-88213577D01*
G37*
X106056362Y-88213577D02*
X106086528Y-88144269D01*
X106133629Y-88090211D01*
X106170312Y-88062505D01*
X106236990Y-88032572D01*
X106314272Y-88018678D01*
X106386110Y-88022397D01*
X106426308Y-88037400D01*
X106442082Y-88041670D01*
X106452550Y-88025750D01*
X106459856Y-87983089D01*
X106465385Y-87918106D01*
X106471437Y-87845732D01*
X106479844Y-87802187D01*
X106495141Y-87777287D01*
X106521864Y-87760845D01*
X106538654Y-87753564D01*
X106602154Y-87726963D01*
X106602081Y-88180289D01*
X106601833Y-88326320D01*
X106600872Y-88438655D01*
X106598794Y-88522678D01*
X106595193Y-88583769D01*
X106589665Y-88627309D01*
X106581804Y-88658679D01*
X106571207Y-88683262D01*
X106563182Y-88697294D01*
X106496728Y-88773388D01*
X106412470Y-88821084D01*
X106319249Y-88838199D01*
X106225900Y-88822546D01*
X106170312Y-88794418D01*
X106111957Y-88745760D01*
X106072186Y-88686333D01*
X106048190Y-88608507D01*
X106037161Y-88504652D01*
X106035599Y-88428462D01*
X106035809Y-88422986D01*
X106172308Y-88422986D01*
X106173141Y-88510355D01*
X106176961Y-88568192D01*
X106185746Y-88606029D01*
X106201474Y-88633398D01*
X106220266Y-88654042D01*
X106283375Y-88693890D01*
X106351137Y-88697295D01*
X106415179Y-88664025D01*
X106420164Y-88659517D01*
X106441439Y-88636067D01*
X106454779Y-88608166D01*
X106462001Y-88566641D01*
X106464923Y-88502316D01*
X106465385Y-88431200D01*
X106464383Y-88341858D01*
X106460238Y-88282258D01*
X106451236Y-88243089D01*
X106435667Y-88215040D01*
X106422902Y-88200144D01*
X106363600Y-88162575D01*
X106295301Y-88158057D01*
X106230110Y-88186753D01*
X106217528Y-88197406D01*
X106196111Y-88221063D01*
X106182744Y-88249251D01*
X106175566Y-88291245D01*
X106172719Y-88356319D01*
X106172308Y-88422986D01*
X106035809Y-88422986D01*
X106040322Y-88305765D01*
X106056362Y-88213577D01*
D13*
%TO.C,R24*%
X114152064Y-108585000D02*
X113697936Y-108585000D01*
X114152064Y-107115000D02*
X113697936Y-107115000D01*
%TO.C,U7*%
X139322500Y-73225000D02*
X140122500Y-73225000D01*
X139322500Y-73225000D02*
X138522500Y-73225000D01*
X139322500Y-76345000D02*
X141122500Y-76345000D01*
X139322500Y-76345000D02*
X138522500Y-76345000D01*
%TO.C,R31*%
X148077064Y-74950000D02*
X143722936Y-74950000D01*
X148077064Y-71530000D02*
X143722936Y-71530000D01*
%TO.C,D2*%
X181535000Y-120360000D02*
X181535000Y-118440000D01*
X178675000Y-120360000D02*
X181535000Y-120360000D01*
X181535000Y-118440000D02*
X178675000Y-118440000D01*
%TO.C,U2*%
X134800000Y-99200000D02*
X134800000Y-99600000D01*
X140200000Y-111200000D02*
X139800000Y-111200000D01*
X134800000Y-101800000D02*
X134800000Y-102200000D01*
X175700000Y-111200000D02*
X175300000Y-111200000D01*
X175700000Y-90200000D02*
X175300000Y-90200000D01*
X180800000Y-111200000D02*
X180400000Y-111200000D01*
X158000000Y-111200000D02*
X157600000Y-111200000D01*
X160500000Y-90200000D02*
X160100000Y-90200000D01*
X185800000Y-111200000D02*
X185500000Y-111200000D01*
X163000000Y-111200000D02*
X162600000Y-111200000D01*
X173200000Y-111200000D02*
X172800000Y-111200000D01*
X147800000Y-111200000D02*
X147400000Y-111200000D01*
X155400000Y-90200000D02*
X155000000Y-90200000D01*
X160500000Y-111200000D02*
X160100000Y-111200000D01*
X155400000Y-111200000D02*
X155000000Y-111200000D01*
X134800000Y-97000000D02*
X134800000Y-90200000D01*
X170700000Y-90200000D02*
X170300000Y-90200000D01*
X183133000Y-90200000D02*
X183133000Y-93207000D01*
X142700000Y-111200000D02*
X142300000Y-111200000D01*
X158000000Y-90200000D02*
X157600000Y-90200000D01*
X168100000Y-90200000D02*
X167700000Y-90200000D01*
X137600000Y-90200000D02*
X137200000Y-90200000D01*
X134800000Y-111200000D02*
X134800000Y-104400000D01*
X168100000Y-111200000D02*
X167700000Y-111200000D01*
X165600000Y-111200000D02*
X165200000Y-111200000D01*
X150300000Y-111200000D02*
X149900000Y-111200000D01*
X165600000Y-90200000D02*
X165200000Y-90200000D01*
X137600000Y-111200000D02*
X137200000Y-111200000D01*
X150300000Y-90200000D02*
X149900000Y-90200000D01*
X178300000Y-111200000D02*
X177900000Y-111200000D01*
X163000000Y-90200000D02*
X162600000Y-90200000D01*
X147800000Y-90200000D02*
X147400000Y-90200000D01*
X185800000Y-90200000D02*
X185500000Y-90200000D01*
X145200000Y-90200000D02*
X144800000Y-90200000D01*
X152900000Y-90200000D02*
X152500000Y-90200000D01*
X183400000Y-90200000D02*
X183000000Y-90200000D01*
X142700000Y-90200000D02*
X142300000Y-90200000D01*
X140200000Y-90200000D02*
X139800000Y-90200000D01*
X170700000Y-111200000D02*
X170300000Y-111200000D01*
X185800000Y-90200000D02*
X185800000Y-111200000D01*
X180800000Y-90200000D02*
X180400000Y-90200000D01*
X183133000Y-93207000D02*
X185800000Y-93207000D01*
X178300000Y-90200000D02*
X177900000Y-90200000D01*
X145200000Y-111200000D02*
X144800000Y-111200000D01*
X183400000Y-111200000D02*
X183000000Y-111200000D01*
X152900000Y-111200000D02*
X152500000Y-111200000D01*
X173200000Y-90200000D02*
X172800000Y-90200000D01*
%TO.C,J2*%
X109795000Y-100880000D02*
X117475000Y-100880000D01*
X117475000Y-100880000D02*
X117475000Y-98220000D01*
X108525000Y-100880000D02*
X107195000Y-100880000D01*
X109795000Y-98220000D02*
X117475000Y-98220000D01*
X107195000Y-100880000D02*
X107195000Y-99550000D01*
X109795000Y-100880000D02*
X109795000Y-98220000D01*
%TO.C,Q13*%
X168455000Y-75075000D02*
X166955000Y-75075000D01*
X166955000Y-75345000D02*
X164125000Y-75345000D01*
X166955000Y-75075000D02*
X166955000Y-75345000D01*
X168455000Y-81975000D02*
X166955000Y-81975000D01*
X166955000Y-81975000D02*
X166955000Y-81705000D01*
X166955000Y-81705000D02*
X165855000Y-81705000D01*
%TO.C,R12*%
X110272936Y-89515000D02*
X110727064Y-89515000D01*
X110272936Y-90985000D02*
X110727064Y-90985000D01*
%TO.C,R26*%
X159665000Y-79357064D02*
X159665000Y-78902936D01*
X158195000Y-79357064D02*
X158195000Y-78902936D01*
%TO.C,Q9*%
X110275000Y-85645000D02*
X110545000Y-85645000D01*
X117175000Y-84145000D02*
X117175000Y-85645000D01*
X117175000Y-85645000D02*
X116905000Y-85645000D01*
X116905000Y-85645000D02*
X116905000Y-86745000D01*
X110545000Y-85645000D02*
X110545000Y-88475000D01*
X110275000Y-84145000D02*
X110275000Y-85645000D01*
%TO.C,Q6*%
X173235000Y-71735000D02*
X173505000Y-71735000D01*
X173505000Y-71735000D02*
X173505000Y-74565000D01*
X179865000Y-71735000D02*
X179865000Y-72835000D01*
X180135000Y-71735000D02*
X179865000Y-71735000D01*
X173235000Y-70235000D02*
X173235000Y-71735000D01*
X180135000Y-70235000D02*
X180135000Y-71735000D01*
%TO.C,R20*%
X102910000Y-111002064D02*
X102910000Y-110547936D01*
X101440000Y-111002064D02*
X101440000Y-110547936D01*
%TO.C,BZ1*%
X133597056Y-85418376D02*
G75*
G03*
X135718376Y-83297057I-3464823J5586143D01*
G01*
X136362233Y-79832233D02*
G75*
G03*
X136362233Y-79832233I-6230000J0D01*
G01*
%TO.C,U3*%
X174854000Y-115760750D02*
X174854000Y-116410750D01*
X171734000Y-115760750D02*
X171734000Y-116410750D01*
X171734000Y-115760750D02*
X171734000Y-115110750D01*
X174854000Y-115760750D02*
X174854000Y-114085750D01*
%TO.C,D1*%
X178675000Y-123060000D02*
X181535000Y-123060000D01*
X181535000Y-121140000D02*
X178675000Y-121140000D01*
X181535000Y-123060000D02*
X181535000Y-121140000D01*
%TO.C,Q1*%
X181540000Y-115450000D02*
X181540000Y-114800000D01*
X184660000Y-115450000D02*
X184660000Y-113775000D01*
X181540000Y-115450000D02*
X181540000Y-116100000D01*
X184660000Y-115450000D02*
X184660000Y-116100000D01*
%TO.C,U4*%
X116821100Y-66054100D02*
X116821100Y-70295900D01*
X122078900Y-70295900D02*
X122078900Y-66054100D01*
%TO.C,Q7*%
X175275000Y-81645000D02*
X175275000Y-83145000D01*
X181905000Y-83145000D02*
X181905000Y-84245000D01*
X175275000Y-83145000D02*
X175545000Y-83145000D01*
X182175000Y-83145000D02*
X181905000Y-83145000D01*
X182175000Y-81645000D02*
X182175000Y-83145000D01*
X175545000Y-83145000D02*
X175545000Y-85975000D01*
%TO.C,R21*%
X102265000Y-106902064D02*
X102265000Y-106447936D01*
X103735000Y-106902064D02*
X103735000Y-106447936D01*
%TO.C,R23*%
X116372936Y-110965000D02*
X116827064Y-110965000D01*
X116372936Y-112435000D02*
X116827064Y-112435000D01*
%TO.C,R19*%
X123330000Y-70677064D02*
X123330000Y-66322936D01*
X126750000Y-70677064D02*
X126750000Y-66322936D01*
%TO.C,Q12*%
X160320000Y-77177500D02*
X160320000Y-78852500D01*
X163440000Y-77177500D02*
X163440000Y-76527500D01*
X163440000Y-77177500D02*
X163440000Y-77827500D01*
X160320000Y-77177500D02*
X160320000Y-76527500D01*
%TO.C,Q17*%
X158525000Y-70245000D02*
X158525000Y-71745000D01*
X165425000Y-70245000D02*
X165425000Y-71745000D01*
X165425000Y-71745000D02*
X165155000Y-71745000D01*
X158525000Y-71745000D02*
X158795000Y-71745000D01*
X158795000Y-71745000D02*
X158795000Y-74575000D01*
X165155000Y-71745000D02*
X165155000Y-72845000D01*
%TO.C,D10*%
X106476777Y-122610229D02*
X101597740Y-117731192D01*
X108810229Y-120276777D02*
X103931192Y-115397740D01*
X106476777Y-122610229D02*
X108810229Y-120276777D01*
%TO.C,F1*%
X134827500Y-65492224D02*
X134827500Y-64982776D01*
X135872500Y-65492224D02*
X135872500Y-64982776D01*
%TO.C,C1*%
X175291500Y-118175750D02*
X171206500Y-118175750D01*
X175291500Y-120045750D02*
X175291500Y-118175750D01*
X171206500Y-120045750D02*
X175291500Y-120045750D01*
%TO.C,D7*%
X127600000Y-69750000D02*
X127600000Y-73050000D01*
X127600000Y-73050000D02*
X134500000Y-73050000D01*
X127600000Y-69750000D02*
X134500000Y-69750000D01*
%TO.C,Q16*%
X146245000Y-70775000D02*
X147745000Y-70775000D01*
X147745000Y-70775000D02*
X147745000Y-70505000D01*
X147745000Y-63875000D02*
X147745000Y-64145000D01*
X147745000Y-70505000D02*
X150575000Y-70505000D01*
X146245000Y-63875000D02*
X147745000Y-63875000D01*
X147745000Y-64145000D02*
X148845000Y-64145000D01*
%TO.C,Q15*%
X151215000Y-66835000D02*
X151485000Y-66835000D01*
X158115000Y-68335000D02*
X158115000Y-66835000D01*
X151485000Y-66835000D02*
X151485000Y-65735000D01*
X157845000Y-66835000D02*
X157845000Y-64005000D01*
X151215000Y-68335000D02*
X151215000Y-66835000D01*
X158115000Y-66835000D02*
X157845000Y-66835000D01*
%TO.C,L1*%
X109650300Y-122984450D02*
X109650300Y-126702800D01*
X123899700Y-113647200D02*
X109650300Y-113647200D01*
X123899700Y-117365550D02*
X123899700Y-113647200D01*
X109650300Y-113647200D02*
X109650300Y-117365550D01*
X109650300Y-126702800D02*
X123899700Y-126702800D01*
X123899700Y-126702800D02*
X123899700Y-122984450D01*
%TO.C,D9*%
X132550000Y-68770000D02*
X128650000Y-68770000D01*
X132550000Y-68770000D02*
X132550000Y-66770000D01*
X132550000Y-66770000D02*
X128650000Y-66770000D01*
%TO.C,C9*%
X124440000Y-116272500D02*
X126310000Y-116272500D01*
X126310000Y-116272500D02*
X126310000Y-112187500D01*
X124440000Y-112187500D02*
X124440000Y-116272500D01*
%TO.C,C10*%
X126210000Y-124738748D02*
X126210000Y-125261252D01*
X124740000Y-124738748D02*
X124740000Y-125261252D01*
%TO.C,C8*%
X112315000Y-110438748D02*
X112315000Y-110961252D01*
X113785000Y-110438748D02*
X113785000Y-110961252D01*
%TO.C,C6*%
X131048752Y-63240000D02*
X129626248Y-63240000D01*
X131048752Y-65960000D02*
X129626248Y-65960000D01*
%TO.C,Q8*%
X106820000Y-73720000D02*
X106820000Y-76550000D01*
X113180000Y-73720000D02*
X113180000Y-74820000D01*
X113450000Y-73720000D02*
X113180000Y-73720000D01*
X106550000Y-73720000D02*
X106820000Y-73720000D01*
X113450000Y-72220000D02*
X113450000Y-73720000D01*
X106550000Y-72220000D02*
X106550000Y-73720000D01*
%TO.C,C2*%
X173417752Y-122495750D02*
X172895248Y-122495750D01*
X173417752Y-121025750D02*
X172895248Y-121025750D01*
D15*
%TO.C,J1*%
X125335000Y-93010000D02*
X125970000Y-92375000D01*
X124065000Y-93010000D02*
X123430000Y-93645000D01*
X125970000Y-89835000D02*
X125970000Y-88565000D01*
D16*
X124954000Y-97074000D02*
X124446000Y-97074000D01*
X124954000Y-89454000D02*
X124954000Y-88946000D01*
X124446000Y-97074000D02*
X124446000Y-96566000D01*
D15*
X124065000Y-98090000D02*
X123430000Y-98725000D01*
X125335000Y-100630000D02*
X125970000Y-99995000D01*
X123430000Y-102535000D02*
X124065000Y-103170000D01*
D16*
X124446000Y-102154000D02*
X124446000Y-101646000D01*
D15*
X124065000Y-103170000D02*
X125335000Y-103170000D01*
X125970000Y-101265000D02*
X125335000Y-100630000D01*
D16*
X124954000Y-99614000D02*
X124954000Y-99106000D01*
D15*
X123430000Y-94915000D02*
X124065000Y-95550000D01*
X125335000Y-87930000D02*
X125970000Y-88565000D01*
X125335000Y-103170000D02*
X125970000Y-102535000D01*
X123430000Y-91105000D02*
X123430000Y-92375000D01*
D16*
X124954000Y-102154000D02*
X124446000Y-102154000D01*
X124954000Y-102154000D02*
X124954000Y-101646000D01*
D15*
X123430000Y-99995000D02*
X124065000Y-100630000D01*
X125970000Y-94915000D02*
X125970000Y-93645000D01*
X125335000Y-98090000D02*
X125970000Y-97455000D01*
X125970000Y-98725000D02*
X125335000Y-98090000D01*
D16*
X124954000Y-91994000D02*
X124446000Y-91994000D01*
D15*
X125335000Y-90470000D02*
X125970000Y-89835000D01*
X123430000Y-96185000D02*
X124065000Y-95550000D01*
X123430000Y-96185000D02*
X123430000Y-97455000D01*
X124065000Y-87930000D02*
X125335000Y-87930000D01*
D16*
X124954000Y-89454000D02*
X124446000Y-89454000D01*
D15*
X123430000Y-93645000D02*
X123430000Y-94915000D01*
X123430000Y-92375000D02*
X124065000Y-93010000D01*
D16*
X124954000Y-97074000D02*
X124954000Y-96566000D01*
D15*
X123430000Y-97455000D02*
X124065000Y-98090000D01*
D16*
X124446000Y-91994000D02*
X124446000Y-91486000D01*
X124954000Y-91994000D02*
X124954000Y-91486000D01*
X124954000Y-99106000D02*
X124446000Y-99106000D01*
X124954000Y-88946000D02*
X124446000Y-88946000D01*
D15*
X125970000Y-91105000D02*
X125335000Y-90470000D01*
X123430000Y-98725000D02*
X123430000Y-99995000D01*
X125335000Y-95550000D02*
X125970000Y-96185000D01*
X125970000Y-97455000D02*
X125970000Y-96185000D01*
X124065000Y-100630000D02*
X123430000Y-101265000D01*
X125970000Y-93645000D02*
X125335000Y-93010000D01*
D16*
X124954000Y-91486000D02*
X124446000Y-91486000D01*
D15*
X123430000Y-101265000D02*
X123430000Y-102535000D01*
X124065000Y-90470000D02*
X123430000Y-91105000D01*
X123430000Y-89835000D02*
X124065000Y-90470000D01*
X125335000Y-95550000D02*
X125970000Y-94915000D01*
D16*
X124446000Y-89454000D02*
X124446000Y-88946000D01*
D15*
X123430000Y-88565000D02*
X124065000Y-87930000D01*
D16*
X124954000Y-99614000D02*
X124446000Y-99614000D01*
D15*
X125970000Y-99995000D02*
X125970000Y-98725000D01*
X123430000Y-88565000D02*
X123430000Y-89835000D01*
D16*
X124954000Y-101646000D02*
X124446000Y-101646000D01*
X124446000Y-99614000D02*
X124446000Y-99106000D01*
X124954000Y-94534000D02*
X124446000Y-94534000D01*
D15*
X125970000Y-92375000D02*
X125970000Y-91105000D01*
X125970000Y-102535000D02*
X125970000Y-101265000D01*
D16*
X124954000Y-96566000D02*
X124446000Y-96566000D01*
D13*
%TO.C,C12*%
X123235000Y-107488748D02*
X123235000Y-108011252D01*
X121765000Y-107488748D02*
X121765000Y-108011252D01*
%TO.C,R25*%
X110202064Y-105465000D02*
X109747936Y-105465000D01*
X110202064Y-106935000D02*
X109747936Y-106935000D01*
%TO.C,U5*%
X107875000Y-107755000D02*
X109825000Y-107755000D01*
X107875000Y-112875000D02*
X105925000Y-112875000D01*
X107875000Y-112875000D02*
X111325000Y-112875000D01*
X107875000Y-107755000D02*
X105925000Y-107755000D01*
%TO.C,Q14*%
X165900000Y-70220000D02*
X165900000Y-71720000D01*
X166170000Y-71720000D02*
X166170000Y-74550000D01*
X172800000Y-70220000D02*
X172800000Y-71720000D01*
X165900000Y-71720000D02*
X166170000Y-71720000D01*
X172800000Y-71720000D02*
X172530000Y-71720000D01*
X172530000Y-71720000D02*
X172530000Y-72820000D01*
%TD*%
M02*
