%TF.GenerationSoftware,KiCad,Pcbnew,6.0.11-2627ca5db0~126~ubuntu22.04.1*%
%TF.CreationDate,2023-03-04T02:01:30-05:00*%
%TF.ProjectId,webasto-mainboard,77656261-7374-46f2-9d6d-61696e626f61,2.0*%
%TF.SameCoordinates,Original*%
%TF.FileFunction,Copper,L2,Inr*%
%TF.FilePolarity,Positive*%
%FSLAX46Y46*%
G04 Gerber Fmt 4.6, Leading zero omitted, Abs format (unit mm)*
G04 Created by KiCad (PCBNEW 6.0.11-2627ca5db0~126~ubuntu22.04.1) date 2023-03-04 02:01:30*
%MOMM*%
%LPD*%
G01*
G04 APERTURE LIST*
G04 Aperture macros list*
%AMRotRect*
0 Rectangle, with rotation*
0 The origin of the aperture is its center*
0 $1 length*
0 $2 width*
0 $3 Rotation angle, in degrees counterclockwise*
0 Add horizontal line*
21,1,$1,$2,0,0,$3*%
G04 Aperture macros list end*
%TA.AperFunction,ComponentPad*%
%ADD10O,1.700000X1.700000*%
%TD*%
%TA.AperFunction,ComponentPad*%
%ADD11R,1.700000X1.700000*%
%TD*%
%TA.AperFunction,ComponentPad*%
%ADD12R,1.879600X1.879600*%
%TD*%
%TA.AperFunction,ComponentPad*%
%ADD13C,1.879600*%
%TD*%
%TA.AperFunction,ComponentPad*%
%ADD14C,3.000000*%
%TD*%
%TA.AperFunction,ComponentPad*%
%ADD15R,2.000000X1.905000*%
%TD*%
%TA.AperFunction,ComponentPad*%
%ADD16O,2.000000X1.905000*%
%TD*%
%TA.AperFunction,ComponentPad*%
%ADD17RotRect,2.000000X2.000000X135.000000*%
%TD*%
%TA.AperFunction,ComponentPad*%
%ADD18C,2.000000*%
%TD*%
%TA.AperFunction,ViaPad*%
%ADD19C,0.800000*%
%TD*%
%TA.AperFunction,Conductor*%
%ADD20C,0.250000*%
%TD*%
G04 APERTURE END LIST*
D10*
%TO.N,ConsoleTX*%
%TO.C,U2*%
X184430000Y-91810000D03*
%TO.N,ConsoleRX*%
X181890000Y-91810000D03*
D11*
%TO.N,GND*%
X179350000Y-91810000D03*
D10*
%TO.N,unconnected-(U2-Pad4)*%
X176810000Y-91810000D03*
%TO.N,KLineEN*%
X174270000Y-91810000D03*
%TO.N,KLineTX*%
X171730000Y-91810000D03*
%TO.N,KLineRX*%
X169190000Y-91810000D03*
D11*
%TO.N,GND*%
X166650000Y-91810000D03*
D10*
%TO.N,~{GlowPlugOutEN3V}*%
X164110000Y-91810000D03*
%TO.N,~{GlowPlugInEN3V}*%
X161570000Y-91810000D03*
%TO.N,SDA*%
X159030000Y-91810000D03*
%TO.N,SCL*%
X156490000Y-91810000D03*
D11*
%TO.N,GND*%
X153950000Y-91810000D03*
D10*
%TO.N,CirculationPump3V*%
X151410000Y-91810000D03*
%TO.N,CombustionFan3V*%
X148870000Y-91810000D03*
%TO.N,GlowPlugOut3V*%
X146330000Y-91810000D03*
%TO.N,FuelPump3V*%
X143790000Y-91810000D03*
D11*
%TO.N,GND*%
X141250000Y-91810000D03*
D10*
%TO.N,unconnected-(U2-Pad19)*%
X138710000Y-91810000D03*
%TO.N,ALERT_PWM*%
X136170000Y-91810000D03*
%TO.N,MISO*%
X136170000Y-109590000D03*
%TO.N,~{SPI_SS}*%
X138710000Y-109590000D03*
D11*
%TO.N,GND*%
X141250000Y-109590000D03*
D10*
%TO.N,SCK*%
X143790000Y-109590000D03*
%TO.N,MOSI*%
X146330000Y-109590000D03*
%TO.N,~{CAN_INT}*%
X148870000Y-109590000D03*
%TO.N,unconnected-(U2-Pad27)*%
X151410000Y-109590000D03*
D11*
%TO.N,GND*%
X153950000Y-109590000D03*
D10*
X156490000Y-109590000D03*
%TO.N,unconnected-(U2-Pad30)*%
X159030000Y-109590000D03*
%TO.N,unconnected-(U2-Pad31)*%
X161570000Y-109590000D03*
%TO.N,unconnected-(U2-Pad32)*%
X164110000Y-109590000D03*
D11*
%TO.N,GND*%
X166650000Y-109590000D03*
D10*
%TO.N,VSYS_MON*%
X169190000Y-109590000D03*
%TO.N,ADC_VREF*%
X171730000Y-109590000D03*
%TO.N,+3V3*%
X174270000Y-109590000D03*
%TO.N,unconnected-(U2-Pad37)*%
X176810000Y-109590000D03*
D11*
%TO.N,unconnected-(U2-Pad38)*%
X179350000Y-109590000D03*
D10*
%TO.N,VSYS*%
X181890000Y-109590000D03*
%TO.N,/VBUS*%
X184430000Y-109590000D03*
%TO.N,unconnected-(U2-Pad41)*%
X136400000Y-98160000D03*
D11*
%TO.N,GND*%
X136400000Y-100700000D03*
D10*
%TO.N,unconnected-(U2-Pad43)*%
X136400000Y-103240000D03*
%TD*%
D11*
%TO.N,+5V*%
%TO.C,U5*%
X117382600Y-122467700D03*
D10*
%TO.N,GND*%
X114842600Y-122467700D03*
%TO.N,+12V*%
X112302600Y-122467700D03*
%TO.N,unconnected-(U5-Pad4)*%
X109762600Y-122467700D03*
%TD*%
D12*
%TO.N,unconnected-(J1-Pad1)*%
%TO.C,J1*%
X124820000Y-89130000D03*
D13*
%TO.N,ConsoleRX*%
X124820000Y-91670000D03*
%TO.N,ConsoleTX*%
X124820000Y-94210000D03*
%TO.N,+3V3*%
X124820000Y-96750000D03*
%TO.N,unconnected-(J1-Pad5)*%
X124820000Y-99290000D03*
%TO.N,GND*%
X124820000Y-101830000D03*
%TD*%
D14*
%TO.N,GlowPlug+*%
%TO.C,JX3*%
X155037200Y-56841000D03*
%TO.N,GlowPlug-*%
X150795400Y-61082800D03*
%TD*%
D15*
%TO.N,Net-(Q8-Pad3)*%
%TO.C,U6*%
X127975000Y-118960000D03*
D16*
%TO.N,Kelvin+*%
X127975000Y-121500000D03*
%TO.N,Net-(R25-Pad2)*%
X127975000Y-124040000D03*
%TD*%
D11*
%TO.N,SDA*%
%TO.C,J2*%
X108525000Y-99550000D03*
D10*
%TO.N,SCL*%
X111065000Y-99550000D03*
%TO.N,+3V3*%
X113605000Y-99550000D03*
%TO.N,GND*%
X116145000Y-99550000D03*
%TD*%
D17*
%TO.N,ALERT_PWM*%
%TO.C,BZ1*%
X131900000Y-81600000D03*
D18*
%TO.N,GND*%
X128364466Y-78064466D03*
%TD*%
D14*
%TO.N,CombustionFan*%
%TO.C,JX4*%
X166275000Y-55665200D03*
%TO.N,GND*%
X166351200Y-60034000D03*
%TD*%
%TO.N,+BATT*%
%TO.C,JX2*%
X135346800Y-56125000D03*
%TO.N,GND*%
X129352400Y-56125000D03*
%TD*%
%TO.N,CAN_HI*%
%TO.C,JX1*%
X113807200Y-56119400D03*
%TO.N,KLine*%
X109819400Y-56119400D03*
%TO.N,SDA*%
X105802400Y-56131600D03*
%TO.N,CAN_LO*%
X111826000Y-59624600D03*
%TO.N,SCL*%
X107812800Y-59624600D03*
%TO.N,FuelPump*%
X103825000Y-59650000D03*
%TD*%
%TO.N,CirculationPump*%
%TO.C,JX5*%
X174275000Y-55640200D03*
%TO.N,GND*%
X174351200Y-60009000D03*
%TD*%
D19*
%TO.N,GND*%
X129890000Y-68610000D03*
%TO.N,Net-(Q2-Pad1)*%
X152620000Y-86530000D03*
%TO.N,CAN_LO*%
X138140000Y-97920000D03*
%TO.N,CAN_HI*%
X139810000Y-97430000D03*
%TO.N,CAN_LO*%
X155280000Y-100360000D03*
%TO.N,GND*%
X124630000Y-125440000D03*
X108970000Y-112930000D03*
%TO.N,CirculationPump*%
X182118000Y-80010000D03*
%TO.N,+12V*%
X179250000Y-71750000D03*
X125000000Y-104900000D03*
X182916000Y-63328000D03*
X166880000Y-80780000D03*
X145796000Y-57658000D03*
X183000000Y-85000000D03*
X154178000Y-62738000D03*
X168590000Y-71810000D03*
X110490000Y-73914000D03*
X130200000Y-106650000D03*
X184404000Y-81026000D03*
%TO.N,+3V3*%
X139950000Y-86210000D03*
X174525000Y-122850000D03*
X140750000Y-72500000D03*
X162970000Y-93620000D03*
X177897840Y-119179856D03*
X120085000Y-72665000D03*
X173550000Y-114550000D03*
X158870000Y-93880000D03*
X140450000Y-104825000D03*
X164110000Y-101030000D03*
X140760000Y-77630000D03*
X150475000Y-104750000D03*
X123550000Y-85230000D03*
%TO.N,KLine*%
X117525000Y-63850000D03*
%TO.N,SCL*%
X136720000Y-75090000D03*
X154562500Y-93762500D03*
X145890000Y-75090000D03*
X137790000Y-72700000D03*
X127975000Y-95350000D03*
%TO.N,SDA*%
X128050000Y-96825000D03*
X155930000Y-95180000D03*
X136289485Y-74187968D03*
X146770000Y-74210000D03*
%TO.N,+5V*%
X178425000Y-126375000D03*
X185550000Y-116225000D03*
X185625000Y-120300000D03*
%TO.N,ADC_VREF*%
X174075000Y-105050000D03*
X173400000Y-107149500D03*
%TO.N,~{GlowPlugInEN}*%
X160620000Y-98630000D03*
X159740000Y-75870000D03*
X159680000Y-71390000D03*
X130125000Y-105100000D03*
X149400000Y-68020000D03*
%TO.N,~{GlowPlugOutEN}*%
X168550000Y-73450000D03*
X164160000Y-98850000D03*
X156970000Y-62520000D03*
%TO.N,Kelvin+*%
X131625000Y-98650000D03*
X145050000Y-73480000D03*
X139350000Y-77790000D03*
X162860000Y-73430000D03*
X133295000Y-88005000D03*
%TO.N,CirculationPump3V*%
X151500000Y-81750000D03*
X169500000Y-82500000D03*
%TO.N,FuelPump3V*%
X109025000Y-83100000D03*
%TO.N,ConsoleRX*%
X137450000Y-93300000D03*
%TO.N,KLineEN*%
X121850000Y-72540000D03*
%TO.N,KLineTX*%
X117550000Y-73080000D03*
%TO.N,KLineRX*%
X118830000Y-79160000D03*
%TO.N,GND*%
X144526000Y-86614000D03*
X154225000Y-127250000D03*
X145034000Y-79502000D03*
X154660000Y-67210000D03*
X166450000Y-125524500D03*
X139250303Y-76381311D03*
X122200000Y-105100000D03*
X164490000Y-120900500D03*
X183050000Y-121775000D03*
X163580000Y-79430000D03*
X118125000Y-67225000D03*
%TO.N,FuelPump*%
X108712000Y-72898000D03*
%TO.N,CombustionFan*%
X177905000Y-61620000D03*
%TO.N,VSYS_MON*%
X170700000Y-106375000D03*
X178575000Y-106375000D03*
%TO.N,Net-(C4-Pad1)*%
X125090000Y-64020000D03*
%TO.N,Net-(Q2-Pad3)*%
X175500000Y-73500000D03*
%TO.N,Net-(Q2-Pad1)*%
X152070000Y-78630000D03*
X174500000Y-71250000D03*
%TO.N,Net-(Q3-Pad3)*%
X177750000Y-85000000D03*
%TO.N,Net-(Q4-Pad3)*%
X109000000Y-75500000D03*
%TO.N,Net-(D1-Pad2)*%
X156625000Y-126175000D03*
%TO.N,Net-(D2-Pad2)*%
X159100000Y-126200000D03*
%TO.N,OperatingLED*%
X157875000Y-118550000D03*
X169880344Y-119999561D03*
%TO.N,FlameLED*%
X159987701Y-118437701D03*
X170640000Y-119350000D03*
%TO.N,Net-(D3-Pad2)*%
X161700000Y-126225000D03*
%TO.N,Net-(R25-Pad2)*%
X130900000Y-104200000D03*
%TO.N,RXCAN_3V*%
X179600000Y-117000000D03*
X156787500Y-123237500D03*
%TO.N,RXCAN_5V*%
X181525000Y-117675000D03*
%TO.N,~{CAN_EN_3V}*%
X173200000Y-121825000D03*
X173400000Y-118825000D03*
%TO.N,~{CAN_EN_5V}*%
X177850000Y-122800000D03*
%TO.N,PowerLED*%
X172175000Y-121625000D03*
X155600000Y-118575000D03*
%TO.N,~{CAN_INT}*%
X153775000Y-114900000D03*
X158990181Y-118500619D03*
%TO.N,~{SPI_SS}*%
X156525000Y-114925000D03*
%TO.N,CAN_HI*%
X178100000Y-121475000D03*
X119350000Y-85950000D03*
%TO.N,CAN_LO*%
X177925000Y-120425000D03*
X118050000Y-86050000D03*
%TO.N,MISO*%
X157800000Y-114975000D03*
%TO.N,SCK*%
X160100000Y-114925000D03*
%TO.N,MOSI*%
X158900000Y-114925000D03*
%TO.N,CAN_SOF*%
X156750000Y-118525000D03*
X164280000Y-117610000D03*
%TO.N,TXCAN*%
X154825000Y-123300000D03*
X182900000Y-122875000D03*
%TO.N,Net-(Q8-Pad3)*%
X128725000Y-112050000D03*
%TO.N,Net-(Q10-Pad1)*%
X167020000Y-76320000D03*
%TD*%
D20*
%TO.N,CAN_LO*%
X177925000Y-120425000D02*
X175350000Y-117850000D01*
X165325000Y-108425000D02*
X157260000Y-100360000D01*
X175350000Y-117850000D02*
X168460000Y-117850000D01*
X168460000Y-117850000D02*
X165325000Y-114715000D01*
X165325000Y-114715000D02*
X165325000Y-108425000D01*
X157260000Y-100360000D02*
X155280000Y-100360000D01*
%TO.N,Net-(Q2-Pad1)*%
X152070000Y-78630000D02*
X153655489Y-77044511D01*
X153655489Y-77044511D02*
X169705489Y-77044511D01*
X169705489Y-77044511D02*
X174500000Y-72250000D01*
X174500000Y-72250000D02*
X174500000Y-71250000D01*
%TO.N,FuelPump3V*%
X109025000Y-83100000D02*
X109025000Y-83275000D01*
X109025000Y-83275000D02*
X112974511Y-87224511D01*
X112974511Y-87224511D02*
X142414511Y-87224511D01*
X142414511Y-87224511D02*
X143775000Y-88585000D01*
X143775000Y-88585000D02*
X143775000Y-91850000D01*
%TO.N,KLineEN*%
X174255000Y-91850000D02*
X174255000Y-85995000D01*
X174255000Y-85995000D02*
X171690000Y-83430000D01*
X121850000Y-79850000D02*
X121850000Y-72540000D01*
X171690000Y-83430000D02*
X125430000Y-83430000D01*
X125430000Y-83430000D02*
X121850000Y-79850000D01*
%TO.N,ConsoleTX*%
X184415000Y-91850000D02*
X184415000Y-94405000D01*
X184415000Y-94405000D02*
X181670000Y-97150000D01*
X181670000Y-97150000D02*
X150130000Y-97150000D01*
X150130000Y-97150000D02*
X148800000Y-95820000D01*
X148800000Y-95820000D02*
X135420000Y-95820000D01*
X135420000Y-95820000D02*
X133810000Y-94210000D01*
X133810000Y-94210000D02*
X124820000Y-94210000D01*
%TO.N,ConsoleRX*%
X137450000Y-93300000D02*
X147730000Y-93300000D01*
X147730000Y-93300000D02*
X150430000Y-96000000D01*
X150430000Y-96000000D02*
X179300000Y-96000000D01*
X179300000Y-96000000D02*
X181875000Y-93425000D01*
X181875000Y-93425000D02*
X181875000Y-91850000D01*
%TO.N,~{GlowPlugInEN}*%
X153409195Y-99090000D02*
X153139195Y-99360000D01*
X130075000Y-101875000D02*
X130075000Y-105050000D01*
X160620000Y-98630000D02*
X160160000Y-99090000D01*
X160160000Y-99090000D02*
X153409195Y-99090000D01*
X153139195Y-99360000D02*
X132590000Y-99360000D01*
X132590000Y-99360000D02*
X130075000Y-101875000D01*
X130075000Y-105050000D02*
X130125000Y-105100000D01*
%TO.N,+3V3*%
X116335000Y-96820000D02*
X124700000Y-96820000D01*
X113605000Y-99550000D02*
X116335000Y-96820000D01*
%TO.N,KLine*%
X117550000Y-63825000D02*
X117525000Y-63850000D01*
%TO.N,SCL*%
X137790000Y-74020000D02*
X136720000Y-75090000D01*
X127975000Y-95350000D02*
X127769800Y-95555200D01*
X127769800Y-95555200D02*
X115059800Y-95555200D01*
X115059800Y-95555200D02*
X111065000Y-99550000D01*
X137790000Y-72700000D02*
X137790000Y-74020000D01*
%TO.N,SDA*%
X121229800Y-98095200D02*
X117725000Y-101600000D01*
X110575000Y-101600000D02*
X108525000Y-99550000D01*
X128050000Y-96825000D02*
X126779800Y-98095200D01*
X117725000Y-101600000D02*
X110575000Y-101600000D01*
X126779800Y-98095200D02*
X121229800Y-98095200D01*
%TO.N,~{GlowPlugInEN}*%
X156115000Y-71390000D02*
X159680000Y-71390000D01*
X152745000Y-68020000D02*
X156115000Y-71390000D01*
X149400000Y-68020000D02*
X152745000Y-68020000D01*
%TO.N,CirculationPump3V*%
X152250000Y-82500000D02*
X151500000Y-81750000D01*
X169500000Y-82500000D02*
X152250000Y-82500000D01*
%TO.N,ConsoleTX*%
X124908000Y-94488000D02*
X124700000Y-94280000D01*
%TO.N,KLineTX*%
X117550000Y-76585592D02*
X125084408Y-84120000D01*
X125084408Y-84120000D02*
X169820000Y-84120000D01*
X117550000Y-73080000D02*
X117550000Y-76585592D01*
X169820000Y-84120000D02*
X171715000Y-86015000D01*
X171715000Y-86015000D02*
X171715000Y-91850000D01*
%TO.N,KLineRX*%
X118830000Y-79160000D02*
X118830000Y-79165592D01*
X169175000Y-85925000D02*
X169175000Y-91850000D01*
X124434408Y-84770000D02*
X168020000Y-84770000D01*
X168020000Y-84770000D02*
X169175000Y-85925000D01*
X118830000Y-79165592D02*
X124434408Y-84770000D01*
%TO.N,VSYS_MON*%
X170700000Y-106375000D02*
X178575000Y-106375000D01*
%TO.N,Net-(R25-Pad2)*%
X127640000Y-124040000D02*
X125900000Y-122300000D01*
X125900000Y-122300000D02*
X125900000Y-113750000D01*
X127975000Y-124040000D02*
X127640000Y-124040000D01*
X125900000Y-113750000D02*
X130925000Y-108725000D01*
X130925000Y-108725000D02*
X130925000Y-104225000D01*
X130925000Y-104225000D02*
X130900000Y-104200000D01*
%TO.N,~{CAN_EN_3V}*%
X173200000Y-119025000D02*
X173400000Y-118825000D01*
X173200000Y-121825000D02*
X173200000Y-119025000D01*
%TO.N,~{CAN_INT}*%
X155389562Y-114900000D02*
X153775000Y-114900000D01*
X158990181Y-118500619D02*
X155389562Y-114900000D01*
%TO.N,~{SPI_SS}*%
X139575000Y-113975000D02*
X138710000Y-113110000D01*
X138710000Y-113110000D02*
X138710000Y-109590000D01*
X156525000Y-114525000D02*
X155975000Y-113975000D01*
X156525000Y-114925000D02*
X156525000Y-114525000D01*
X155975000Y-113975000D02*
X139575000Y-113975000D01*
%TO.N,CAN_HI*%
X115425000Y-82025000D02*
X115425000Y-57737200D01*
X115425000Y-57737200D02*
X113807200Y-56119400D01*
X119350000Y-85950000D02*
X115425000Y-82025000D01*
%TO.N,CAN_LO*%
X113900000Y-61698600D02*
X111826000Y-59624600D01*
X118050000Y-86050000D02*
X113900000Y-81900000D01*
X113900000Y-81900000D02*
X113900000Y-61698600D01*
%TO.N,MOSI*%
X146330000Y-112680000D02*
X146330000Y-109590000D01*
X158900000Y-113950000D02*
X158125000Y-113175000D01*
X158125000Y-113175000D02*
X146825000Y-113175000D01*
X146825000Y-113175000D02*
X146330000Y-112680000D01*
X158900000Y-114925000D02*
X158900000Y-113950000D01*
%TO.N,unconnected-(U2-Pad4)*%
X176900000Y-91745000D02*
X176795000Y-91850000D01*
%TD*%
M02*
