%TF.GenerationSoftware,KiCad,Pcbnew,6.0.11-2627ca5db0~126~ubuntu22.04.1*%
%TF.CreationDate,2023-02-22T13:25:34-05:00*%
%TF.ProjectId,webasto-mainboard,77656261-7374-46f2-9d6d-61696e626f61,2.0*%
%TF.SameCoordinates,Original*%
%TF.FileFunction,Profile,NP*%
%FSLAX46Y46*%
G04 Gerber Fmt 4.6, Leading zero omitted, Abs format (unit mm)*
G04 Created by KiCad (PCBNEW 6.0.11-2627ca5db0~126~ubuntu22.04.1) date 2023-02-22 13:25:34*
%MOMM*%
%LPD*%
G01*
G04 APERTURE LIST*
%TA.AperFunction,Profile*%
%ADD10C,0.254000*%
%TD*%
G04 APERTURE END LIST*
D10*
X185792000Y-65015000D02*
X185792000Y-56015000D01*
X185792000Y-56015000D02*
X183317000Y-53540000D01*
X140036000Y-125265000D02*
X140036000Y-117765000D01*
X101392000Y-65015000D02*
X104892000Y-68515000D01*
X138036000Y-115765000D02*
X131546000Y-115730000D01*
X186992000Y-80215000D02*
X182292000Y-75515000D01*
X138036000Y-127265000D02*
G75*
G03*
X140036000Y-125265000I0J2000000D01*
G01*
X103867000Y-53540000D02*
X101392000Y-56015000D01*
X142342000Y-125289965D02*
G75*
G03*
X144342000Y-127290000I2000000J-35D01*
G01*
X131546035Y-115730000D02*
G75*
G03*
X129546000Y-117730000I-35J-2000000D01*
G01*
X100192000Y-80215000D02*
X100192000Y-120348000D01*
X129530000Y-125143965D02*
G75*
G03*
X131530000Y-127144000I2000000J-35D01*
G01*
X183317000Y-53540000D02*
X103867000Y-53540000D01*
X104892000Y-75515000D02*
X100192000Y-80215000D01*
X140036000Y-117765000D02*
G75*
G03*
X138036000Y-115765000I-2000000J0D01*
G01*
X186992000Y-120348000D02*
X186992000Y-80215000D01*
X131530000Y-127144000D02*
X138036000Y-127265000D01*
X165342000Y-115790000D02*
X144342000Y-115790000D01*
X167342000Y-125290000D02*
X167342000Y-117790000D01*
X182292000Y-68515000D02*
X185792000Y-65015000D01*
X104892000Y-68515000D02*
X104892000Y-75515000D01*
X167342000Y-117790000D02*
G75*
G03*
X165342000Y-115790000I-2000000J0D01*
G01*
X165342000Y-127290000D02*
G75*
G03*
X167342000Y-125290000I0J2000000D01*
G01*
X182292000Y-75515000D02*
X182292000Y-68515000D01*
X101392000Y-56015000D02*
X101392000Y-65015000D01*
X177800000Y-129540000D02*
X186992000Y-120348000D01*
X144342035Y-115790000D02*
G75*
G03*
X142342000Y-117790000I-35J-2000000D01*
G01*
X109384000Y-129540000D02*
X177800000Y-129540000D01*
X144342000Y-127290000D02*
X165342000Y-127290000D01*
X142342000Y-117790000D02*
X142342000Y-125290000D01*
X129514000Y-117695000D02*
X129514000Y-125195000D01*
X100192000Y-120348000D02*
X109384000Y-129540000D01*
M02*
