%TF.GenerationSoftware,KiCad,Pcbnew,6.0.2+dfsg-1*%
%TF.CreationDate,2023-01-30T12:45:32-05:00*%
%TF.ProjectId,atx-power-fixture,6174782d-706f-4776-9572-2d6669787475,rev?*%
%TF.SameCoordinates,Original*%
%TF.FileFunction,Copper,L2,Inr*%
%TF.FilePolarity,Positive*%
%FSLAX46Y46*%
G04 Gerber Fmt 4.6, Leading zero omitted, Abs format (unit mm)*
G04 Created by KiCad (PCBNEW 6.0.2+dfsg-1) date 2023-01-30 12:45:32*
%MOMM*%
%LPD*%
G01*
G04 APERTURE LIST*
%TA.AperFunction,ComponentPad*%
%ADD10C,2.898140*%
%TD*%
%TA.AperFunction,ComponentPad*%
%ADD11R,3.960000X1.980000*%
%TD*%
%TA.AperFunction,ComponentPad*%
%ADD12O,3.960000X1.980000*%
%TD*%
%TA.AperFunction,ComponentPad*%
%ADD13C,2.247900*%
%TD*%
%TA.AperFunction,ComponentPad*%
%ADD14O,1.600000X2.000000*%
%TD*%
%TA.AperFunction,ComponentPad*%
%ADD15O,1.700000X1.700000*%
%TD*%
%TA.AperFunction,ComponentPad*%
%ADD16R,1.700000X1.700000*%
%TD*%
%TA.AperFunction,ComponentPad*%
%ADD17C,1.879600*%
%TD*%
%TA.AperFunction,ComponentPad*%
%ADD18R,1.879600X1.879600*%
%TD*%
%TA.AperFunction,ComponentPad*%
%ADD19R,1.800000X1.800000*%
%TD*%
%TA.AperFunction,ComponentPad*%
%ADD20C,1.800000*%
%TD*%
%TA.AperFunction,ComponentPad*%
%ADD21C,2.000000*%
%TD*%
%TA.AperFunction,ViaPad*%
%ADD22C,0.800000*%
%TD*%
%TA.AperFunction,Conductor*%
%ADD23C,0.250000*%
%TD*%
G04 APERTURE END LIST*
D10*
%TO.N,+3V3*%
%TO.C,J1*%
X96400000Y-62599280D03*
X96400000Y-66800440D03*
%TO.N,GND*%
X96400000Y-70999060D03*
%TO.N,+5V*%
X96400000Y-75200220D03*
%TO.N,GND*%
X96400000Y-79398840D03*
%TO.N,+5V*%
X96400000Y-83600000D03*
%TO.N,GND*%
X96400000Y-87796080D03*
%TO.N,Net-(J1-Pad8)*%
X96400000Y-91997240D03*
%TO.N,unconnected-(J1-Pad9)*%
X96400000Y-96195860D03*
%TO.N,+12Vin*%
X96400000Y-100397020D03*
X96400000Y-104595640D03*
%TO.N,+3V3*%
X96400000Y-108796800D03*
X90900900Y-62599280D03*
%TO.N,unconnected-(J1-Pad14)*%
X90900900Y-66800440D03*
%TO.N,GND*%
X90900900Y-70999060D03*
%TO.N,Net-(J1-Pad16)*%
X90900900Y-75200220D03*
%TO.N,GND*%
X90900900Y-79398840D03*
X90900900Y-83600000D03*
X90900900Y-87796080D03*
%TO.N,unconnected-(J1-Pad20)*%
X90900900Y-91997240D03*
%TO.N,+5V*%
X90900900Y-96195860D03*
X90900900Y-100397020D03*
X90900900Y-104595640D03*
%TO.N,GND*%
X90900900Y-108796800D03*
%TD*%
D11*
%TO.N,IGNITION*%
%TO.C,J2*%
X149900000Y-83300000D03*
D12*
%TO.N,GND*%
X149900000Y-88300000D03*
%TD*%
D13*
%TO.N,GND*%
%TO.C,J3*%
X165229375Y-107900000D03*
%TD*%
D14*
%TO.N,GND*%
%TO.C,U1*%
X121780000Y-57550000D03*
%TO.N,+3V3*%
X124320000Y-57550000D03*
%TO.N,SCL*%
X126860000Y-57550000D03*
%TO.N,SDA*%
X129400000Y-57550000D03*
%TD*%
D13*
%TO.N,+12V*%
%TO.C,J4*%
X134870625Y-107753676D03*
%TD*%
D15*
%TO.N,LocalTX*%
%TO.C,U3*%
X174700000Y-54220000D03*
%TO.N,LocalRX*%
X174700000Y-56760000D03*
D16*
%TO.N,GND*%
X174700000Y-59300000D03*
D15*
%TO.N,LocalRTS*%
X174700000Y-61840000D03*
%TO.N,LocalCTS*%
X174700000Y-64380000D03*
%TO.N,unconnected-(U3-Pad6)*%
X174700000Y-66920000D03*
%TO.N,unconnected-(U3-Pad7)*%
X174700000Y-69460000D03*
D16*
%TO.N,GND*%
X174700000Y-72000000D03*
D15*
%TO.N,unconnected-(U3-Pad9)*%
X174700000Y-74540000D03*
%TO.N,unconnected-(U3-Pad10)*%
X174700000Y-77080000D03*
%TO.N,SDA*%
X174700000Y-79620000D03*
%TO.N,SCL*%
X174700000Y-82160000D03*
D16*
%TO.N,GND*%
X174700000Y-84700000D03*
D15*
%TO.N,unconnected-(U3-Pad14)*%
X174700000Y-87240000D03*
%TO.N,unconnected-(U3-Pad15)*%
X174700000Y-89780000D03*
%TO.N,unconnected-(U3-Pad16)*%
X174700000Y-92320000D03*
%TO.N,unconnected-(U3-Pad17)*%
X174700000Y-94860000D03*
D16*
%TO.N,GND*%
X174700000Y-97400000D03*
D15*
%TO.N,unconnected-(U3-Pad19)*%
X174700000Y-99940000D03*
%TO.N,unconnected-(U3-Pad20)*%
X174700000Y-102480000D03*
%TO.N,Net-(Q2-Pad1)*%
X192480000Y-102480000D03*
%TO.N,Net-(R8-Pad2)*%
X192480000Y-99940000D03*
D16*
%TO.N,GND*%
X192480000Y-97400000D03*
D15*
%TO.N,unconnected-(U3-Pad24)*%
X192480000Y-94860000D03*
%TO.N,unconnected-(U3-Pad25)*%
X192480000Y-92320000D03*
%TO.N,unconnected-(U3-Pad26)*%
X192480000Y-89780000D03*
%TO.N,unconnected-(U3-Pad27)*%
X192480000Y-87240000D03*
D16*
%TO.N,GND*%
X192480000Y-84700000D03*
D15*
%TO.N,unconnected-(U3-Pad29)*%
X192480000Y-82160000D03*
%TO.N,unconnected-(U3-Pad30)*%
X192480000Y-79620000D03*
%TO.N,unconnected-(U3-Pad31)*%
X192480000Y-77080000D03*
%TO.N,unconnected-(U3-Pad32)*%
X192480000Y-74540000D03*
D16*
%TO.N,GND*%
X192480000Y-72000000D03*
D15*
%TO.N,unconnected-(U3-Pad34)*%
X192480000Y-69460000D03*
%TO.N,unconnected-(U3-Pad35)*%
X192480000Y-66920000D03*
%TO.N,unconnected-(U3-Pad36)*%
X192480000Y-64380000D03*
%TO.N,unconnected-(U3-Pad37)*%
X192480000Y-61840000D03*
D16*
%TO.N,GND*%
X192480000Y-59300000D03*
D15*
%TO.N,/VSYS*%
X192480000Y-56760000D03*
%TO.N,/VBUS*%
X192480000Y-54220000D03*
%TO.N,unconnected-(U3-Pad41)*%
X181050000Y-102250000D03*
D16*
%TO.N,GND*%
X183590000Y-102250000D03*
D15*
%TO.N,unconnected-(U3-Pad43)*%
X186130000Y-102250000D03*
%TD*%
D17*
%TO.N,GND*%
%TO.C,SW2*%
X136740000Y-90200000D03*
%TO.N,Net-(R8-Pad2)*%
X134200000Y-90200000D03*
%TO.N,N/C*%
X131660000Y-90200000D03*
%TD*%
D18*
%TO.N,GND*%
%TO.C,J5*%
X155260000Y-56200000D03*
D17*
%TO.N,ConsoleCTS*%
X152720000Y-56200000D03*
%TO.N,Net-(J5-Pad3)*%
X150180000Y-56200000D03*
%TO.N,ConsoleTX*%
X147640000Y-56200000D03*
%TO.N,ConsoleRX*%
X145100000Y-56200000D03*
%TO.N,ConsoleRTS*%
X142560000Y-56200000D03*
%TD*%
D19*
%TO.N,GND*%
%TO.C,D1*%
X133500000Y-102000000D03*
D20*
%TO.N,Net-(D1-Pad2)*%
X133500000Y-99460000D03*
%TD*%
D21*
%TO.N,+12Vin*%
%TO.C,F1*%
X113600000Y-107800000D03*
%TO.N,Net-(F1-Pad2)*%
X118680000Y-107800000D03*
%TD*%
D17*
%TO.N,GND*%
%TO.C,SW1*%
X120440000Y-97400000D03*
%TO.N,Net-(J1-Pad16)*%
X117900000Y-97400000D03*
%TO.N,N/C*%
X115360000Y-97400000D03*
%TD*%
D22*
%TO.N,LocalRX*%
X167400000Y-65100000D03*
%TO.N,GND*%
X162430000Y-63170000D03*
X147670000Y-71130000D03*
X126000000Y-89800000D03*
X126524500Y-105300000D03*
X162440000Y-69640000D03*
X155270000Y-71170000D03*
X142300000Y-92700000D03*
%TO.N,+5V*%
X201400000Y-59400000D03*
X117000000Y-89800000D03*
%TO.N,IGNITION*%
X137600000Y-100000000D03*
X144700000Y-96200000D03*
%TO.N,LocalRTS*%
X157500000Y-76700000D03*
%TO.N,LocalTX*%
X149900000Y-76800000D03*
%TO.N,SDA*%
X129453751Y-79624713D03*
X126500000Y-99100000D03*
%TO.N,SCL*%
X128000000Y-80400000D03*
X126400000Y-97900000D03*
%TO.N,Net-(J1-Pad16)*%
X99100000Y-74000000D03*
X103000000Y-84500000D03*
%TO.N,Net-(Q2-Pad1)*%
X135700000Y-95600000D03*
%TO.N,Net-(R4-Pad2)*%
X157200000Y-67300000D03*
X147700000Y-63000000D03*
%TO.N,Net-(R5-Pad2)*%
X142600000Y-62900000D03*
X156500000Y-60600000D03*
%TD*%
D23*
%TO.N,+5V*%
X195245489Y-65554511D02*
X201400000Y-59400000D01*
X178045489Y-78254511D02*
X190745489Y-65554511D01*
X117000000Y-89800000D02*
X117000000Y-89400000D01*
X190745489Y-65554511D02*
X195245489Y-65554511D01*
X117000000Y-89400000D02*
X128145489Y-78254511D01*
X128145489Y-78254511D02*
X178045489Y-78254511D01*
%TO.N,IGNITION*%
X140900000Y-100000000D02*
X144700000Y-96200000D01*
X144700000Y-96200000D02*
X144700000Y-84600000D01*
X137600000Y-100000000D02*
X140900000Y-100000000D01*
X144700000Y-84600000D02*
X146000000Y-83300000D01*
X146000000Y-83300000D02*
X149900000Y-83300000D01*
%TO.N,SDA*%
X129453751Y-79624713D02*
X131715287Y-79624713D01*
X131715287Y-79624713D02*
X131720000Y-79620000D01*
X131720000Y-79620000D02*
X174700000Y-79620000D01*
%TO.N,SCL*%
X160000000Y-80400000D02*
X128000000Y-80400000D01*
X174700000Y-82160000D02*
X161760000Y-82160000D01*
X161760000Y-82160000D02*
X160000000Y-80400000D01*
%TO.N,Net-(R4-Pad2)*%
X147700000Y-63000000D02*
X152900000Y-63000000D01*
X152900000Y-63000000D02*
X157200000Y-67300000D01*
%TO.N,Net-(R5-Pad2)*%
X142600000Y-62900000D02*
X144500000Y-62900000D01*
X144500000Y-62900000D02*
X146800000Y-60600000D01*
X146800000Y-60600000D02*
X156500000Y-60600000D01*
%TD*%
M02*
