%TF.GenerationSoftware,KiCad,Pcbnew,6.0.11-2627ca5db0~126~ubuntu22.04.1*%
%TF.CreationDate,2023-02-14T23:30:32-05:00*%
%TF.ProjectId,atx-power-fixture,6174782d-706f-4776-9572-2d6669787475,2.0*%
%TF.SameCoordinates,Original*%
%TF.FileFunction,Soldermask,Bot*%
%TF.FilePolarity,Negative*%
%FSLAX46Y46*%
G04 Gerber Fmt 4.6, Leading zero omitted, Abs format (unit mm)*
G04 Created by KiCad (PCBNEW 6.0.11-2627ca5db0~126~ubuntu22.04.1) date 2023-02-14 23:30:32*
%MOMM*%
%LPD*%
G01*
G04 APERTURE LIST*
G04 Aperture macros list*
%AMRoundRect*
0 Rectangle with rounded corners*
0 $1 Rounding radius*
0 $2 $3 $4 $5 $6 $7 $8 $9 X,Y pos of 4 corners*
0 Add a 4 corners polygon primitive as box body*
4,1,4,$2,$3,$4,$5,$6,$7,$8,$9,$2,$3,0*
0 Add four circle primitives for the rounded corners*
1,1,$1+$1,$2,$3*
1,1,$1+$1,$4,$5*
1,1,$1+$1,$6,$7*
1,1,$1+$1,$8,$9*
0 Add four rect primitives between the rounded corners*
20,1,$1+$1,$2,$3,$4,$5,0*
20,1,$1+$1,$4,$5,$6,$7,0*
20,1,$1+$1,$6,$7,$8,$9,0*
20,1,$1+$1,$8,$9,$2,$3,0*%
G04 Aperture macros list end*
%ADD10C,1.879600*%
%ADD11O,1.800000X1.800000*%
%ADD12O,1.500000X1.500000*%
%ADD13O,1.700000X1.700000*%
%ADD14R,1.700000X1.700000*%
%ADD15C,3.202940*%
%ADD16C,3.101340*%
%ADD17R,3.960000X1.980000*%
%ADD18O,3.960000X1.980000*%
%ADD19C,10.500000*%
%ADD20C,2.451100*%
%ADD21O,1.600000X2.000000*%
%ADD22C,2.082800*%
%ADD23R,1.800000X1.800000*%
%ADD24C,1.800000*%
%ADD25C,2.000000*%
%ADD26RoundRect,0.150000X0.587500X0.150000X-0.587500X0.150000X-0.587500X-0.150000X0.587500X-0.150000X0*%
%ADD27RoundRect,0.250000X0.450000X-0.350000X0.450000X0.350000X-0.450000X0.350000X-0.450000X-0.350000X0*%
G04 APERTURE END LIST*
D10*
%TO.C,J5*%
X152720000Y-56200000D03*
X150180000Y-56200000D03*
X147640000Y-56200000D03*
X145100000Y-56200000D03*
X142560000Y-56200000D03*
%TD*%
D11*
%TO.C,U3*%
X186325000Y-54200000D03*
X180875000Y-54200000D03*
D12*
X181175000Y-57230000D03*
X186025000Y-57230000D03*
D13*
X174710000Y-54070000D03*
X174710000Y-56610000D03*
D14*
X174710000Y-59150000D03*
D13*
X174710000Y-61690000D03*
X174710000Y-64230000D03*
X174710000Y-66770000D03*
X174710000Y-69310000D03*
D14*
X174710000Y-71850000D03*
D13*
X174710000Y-74390000D03*
X174710000Y-76930000D03*
X174710000Y-79470000D03*
X174710000Y-82010000D03*
D14*
X174710000Y-84550000D03*
D13*
X174710000Y-87090000D03*
X174710000Y-89630000D03*
X174710000Y-92170000D03*
X174710000Y-94710000D03*
D14*
X174710000Y-97250000D03*
D13*
X174710000Y-99790000D03*
X174710000Y-102330000D03*
X192490000Y-102330000D03*
X192490000Y-99790000D03*
D14*
X192490000Y-97250000D03*
D13*
X192490000Y-94710000D03*
X192490000Y-92170000D03*
X192490000Y-89630000D03*
X192490000Y-87090000D03*
D14*
X192490000Y-84550000D03*
D13*
X192490000Y-82010000D03*
X192490000Y-79470000D03*
X192490000Y-76930000D03*
X192490000Y-74390000D03*
D14*
X192490000Y-71850000D03*
D13*
X192490000Y-69310000D03*
X192490000Y-66770000D03*
X192490000Y-64230000D03*
X192490000Y-61690000D03*
D14*
X192490000Y-59150000D03*
D13*
X192490000Y-56610000D03*
X192490000Y-54070000D03*
X184184100Y-83800000D03*
D14*
X186724100Y-83800000D03*
D13*
X189264100Y-83800000D03*
%TD*%
D15*
%TO.C,J1*%
X95500040Y-62603200D03*
X95500040Y-108800720D03*
D16*
X102800000Y-108800720D03*
X102800000Y-104599560D03*
X102800000Y-100400940D03*
X102800000Y-96199780D03*
X102800000Y-92001160D03*
X102800000Y-87800000D03*
X102800000Y-83603920D03*
X102800000Y-79402760D03*
X102800000Y-75204140D03*
X102800000Y-71002980D03*
X102800000Y-66804360D03*
X102800000Y-62603200D03*
X108299100Y-108800720D03*
X108299100Y-104599560D03*
X108299100Y-100400940D03*
X108299100Y-96199780D03*
X108299100Y-92001160D03*
X108299100Y-87800000D03*
X108299100Y-83603920D03*
X108299100Y-79402760D03*
X108299100Y-75204140D03*
X108299100Y-71002980D03*
X108299100Y-66804360D03*
X108299100Y-62603200D03*
%TD*%
D17*
%TO.C,J2*%
X149900000Y-83300000D03*
D18*
X149900000Y-88300000D03*
%TD*%
D19*
%TO.C,J3*%
X157609375Y-107849200D03*
D20*
X165229375Y-107900000D03*
%TD*%
D21*
%TO.C,U1*%
X121780000Y-57550000D03*
X124320000Y-57550000D03*
X126860000Y-57550000D03*
X129400000Y-57550000D03*
%TD*%
D20*
%TO.C,J4*%
X134870625Y-107753676D03*
D19*
X142490625Y-107804476D03*
%TD*%
D22*
%TO.C,SW2*%
X136740000Y-90200000D03*
X134200000Y-90200000D03*
X131660000Y-90200000D03*
%TD*%
D23*
%TO.C,D1*%
X133500000Y-102000000D03*
D24*
X133500000Y-99460000D03*
%TD*%
D25*
%TO.C,F1*%
X113600000Y-107800000D03*
X118680000Y-107800000D03*
%TD*%
D22*
%TO.C,SW1*%
X120440000Y-97400000D03*
X117900000Y-97400000D03*
X115360000Y-97400000D03*
%TD*%
D26*
%TO.C,Q1*%
X190437500Y-54450000D03*
X190437500Y-56350000D03*
X188562500Y-55400000D03*
%TD*%
D27*
%TO.C,R9*%
X189900000Y-102500000D03*
X189900000Y-100500000D03*
%TD*%
M02*
