M48
; DRILL file {KiCad 6.0.2+dfsg-1} date Tue 31 Jan 2023 02:14:10 PM EST
; FORMAT={-:-/ absolute / inch / decimal}
; #@! TF.CreationDate,2023-01-31T14:14:10-05:00
; #@! TF.GenerationSoftware,Kicad,Pcbnew,6.0.2+dfsg-1
; #@! TF.FileFunction,Plated,1,4,PTH
FMAT,2
INCH
; #@! TA.AperFunction,Plated,PTH,ViaDrill
T1C0.0157
; #@! TA.AperFunction,Plated,PTH,ComponentDrill
T2C0.0354
; #@! TA.AperFunction,Plated,PTH,ComponentDrill
T3C0.0394
; #@! TA.AperFunction,Plated,PTH,ComponentDrill
T4C0.0400
; #@! TA.AperFunction,Plated,PTH,ComponentDrill
T5C0.0402
; #@! TA.AperFunction,Plated,PTH,ComponentDrill
T6C0.0520
; #@! TA.AperFunction,Plated,PTH,ComponentDrill
T7C0.0590
; #@! TA.AperFunction,Plated,PTH,ComponentDrill
T8C0.0708
; #@! TA.AperFunction,Plated,PTH,ComponentDrill
T9C0.3150
%
G90
G05
T1
X3.9016Y-2.9134
X4.0551Y-3.3268
X4.6063Y-3.5354
X4.9606Y-3.5354
X4.9764Y-3.8543
X4.9803Y-3.9016
X4.9813Y-4.1457
X5.0394Y-3.1654
X5.0966Y-3.1348
X5.3425Y-3.7638
X5.4173Y-3.937
X5.6024Y-3.6496
X5.6142Y-2.4764
X5.6969Y-3.7874
X5.8138Y-2.8004
X5.815Y-2.4803
X5.9016Y-3.0236
X6.113Y-2.802
X6.1614Y-2.3858
X6.189Y-2.6496
X6.2008Y-3.0197
X6.3949Y-2.487
X6.3953Y-2.7417
X6.5906Y-2.563
X7.9291Y-2.3386
T2
X5.2559Y-3.9157
X5.2559Y-4.0157
T3
X4.4724Y-4.2441
X4.6724Y-4.2441
X4.7945Y-2.2657
X4.8945Y-2.2657
X4.9945Y-2.2657
X5.0945Y-2.2657
T4
X4.5417Y-3.8346
X4.6417Y-3.8346
X4.7417Y-3.8346
X5.1835Y-3.5512
X5.2835Y-3.5512
X5.3835Y-3.5512
X5.6126Y-2.2126
X5.7126Y-2.2126
X5.8126Y-2.2126
X5.9126Y-2.2126
X6.0126Y-2.2126
X6.1126Y-2.2126
T5
X6.878Y-2.1346
X6.878Y-2.2346
X6.878Y-2.3346
X6.878Y-2.4346
X6.878Y-2.5346
X6.878Y-2.6346
X6.878Y-2.7346
X6.878Y-2.8346
X6.878Y-2.9346
X6.878Y-3.0346
X6.878Y-3.1346
X6.878Y-3.2346
X6.878Y-3.3346
X6.878Y-3.4346
X6.878Y-3.5346
X6.878Y-3.6346
X6.878Y-3.7346
X6.878Y-3.8346
X6.878Y-3.9346
X6.878Y-4.0346
X7.128Y-4.0256
X7.228Y-4.0256
X7.328Y-4.0256
X7.578Y-2.1346
X7.578Y-2.2346
X7.578Y-2.3346
X7.578Y-2.4346
X7.578Y-2.5346
X7.578Y-2.6346
X7.578Y-2.7346
X7.578Y-2.8346
X7.578Y-2.9346
X7.578Y-3.0346
X7.578Y-3.1346
X7.578Y-3.2346
X7.578Y-3.3346
X7.578Y-3.4346
X7.578Y-3.5346
X7.578Y-3.6346
X7.578Y-3.7346
X7.578Y-3.8346
X7.578Y-3.9346
X7.578Y-4.0346
T6
X5.9016Y-3.2795
X5.9016Y-3.4764
T7
X5.3099Y-4.2423
X6.5051Y-4.248
T8
X3.5788Y-2.4645
X3.5788Y-2.6299
X3.5788Y-2.7952
X3.5788Y-2.9606
X3.5788Y-3.1259
X3.5788Y-3.2913
X3.5788Y-3.4565
X3.5788Y-3.6219
X3.5788Y-3.7872
X3.5788Y-3.9526
X3.5788Y-4.1179
X3.5788Y-4.2833
X3.7953Y-2.4645
X3.7953Y-2.6299
X3.7953Y-2.7952
X3.7953Y-2.9606
X3.7953Y-3.1259
X3.7953Y-3.2913
X3.7953Y-3.4565
X3.7953Y-3.6219
X3.7953Y-3.7872
X3.7953Y-3.9526
X3.7953Y-4.1179
X3.7953Y-4.2833
T9
X5.6099Y-4.2443
X6.2051Y-4.246
T0
M30
