%TF.GenerationSoftware,KiCad,Pcbnew,6.0.11-2627ca5db0~126~ubuntu22.04.1*%
%TF.CreationDate,2023-03-06T19:17:37-05:00*%
%TF.ProjectId,atx-power-fixture,6174782d-706f-4776-9572-2d6669787475,2.0*%
%TF.SameCoordinates,Original*%
%TF.FileFunction,Legend,Bot*%
%TF.FilePolarity,Positive*%
%FSLAX46Y46*%
G04 Gerber Fmt 4.6, Leading zero omitted, Abs format (unit mm)*
G04 Created by KiCad (PCBNEW 6.0.11-2627ca5db0~126~ubuntu22.04.1) date 2023-03-06 19:17:37*
%MOMM*%
%LPD*%
G01*
G04 APERTURE LIST*
%ADD10C,0.150000*%
%ADD11C,0.120000*%
G04 APERTURE END LIST*
D10*
%TO.C,R7*%
X146382380Y-79123333D02*
X145906190Y-78790000D01*
X146382380Y-78551904D02*
X145382380Y-78551904D01*
X145382380Y-78932857D01*
X145430000Y-79028095D01*
X145477619Y-79075714D01*
X145572857Y-79123333D01*
X145715714Y-79123333D01*
X145810952Y-79075714D01*
X145858571Y-79028095D01*
X145906190Y-78932857D01*
X145906190Y-78551904D01*
X145382380Y-79456666D02*
X145382380Y-80123333D01*
X146382380Y-79694761D01*
%TO.C,C2*%
X139817142Y-86903333D02*
X139864761Y-86855714D01*
X139912380Y-86712857D01*
X139912380Y-86617619D01*
X139864761Y-86474761D01*
X139769523Y-86379523D01*
X139674285Y-86331904D01*
X139483809Y-86284285D01*
X139340952Y-86284285D01*
X139150476Y-86331904D01*
X139055238Y-86379523D01*
X138960000Y-86474761D01*
X138912380Y-86617619D01*
X138912380Y-86712857D01*
X138960000Y-86855714D01*
X139007619Y-86903333D01*
X139007619Y-87284285D02*
X138960000Y-87331904D01*
X138912380Y-87427142D01*
X138912380Y-87665238D01*
X138960000Y-87760476D01*
X139007619Y-87808095D01*
X139102857Y-87855714D01*
X139198095Y-87855714D01*
X139340952Y-87808095D01*
X139912380Y-87236666D01*
X139912380Y-87855714D01*
%TO.C,R11*%
X153262380Y-82647142D02*
X152786190Y-82313809D01*
X153262380Y-82075714D02*
X152262380Y-82075714D01*
X152262380Y-82456666D01*
X152310000Y-82551904D01*
X152357619Y-82599523D01*
X152452857Y-82647142D01*
X152595714Y-82647142D01*
X152690952Y-82599523D01*
X152738571Y-82551904D01*
X152786190Y-82456666D01*
X152786190Y-82075714D01*
X153262380Y-83599523D02*
X153262380Y-83028095D01*
X153262380Y-83313809D02*
X152262380Y-83313809D01*
X152405238Y-83218571D01*
X152500476Y-83123333D01*
X152548095Y-83028095D01*
X153262380Y-84551904D02*
X153262380Y-83980476D01*
X153262380Y-84266190D02*
X152262380Y-84266190D01*
X152405238Y-84170952D01*
X152500476Y-84075714D01*
X152548095Y-83980476D01*
%TO.C,FB1*%
X146093333Y-88958571D02*
X146426666Y-88958571D01*
X146426666Y-89482380D02*
X146426666Y-88482380D01*
X145950476Y-88482380D01*
X145236190Y-88958571D02*
X145093333Y-89006190D01*
X145045714Y-89053809D01*
X144998095Y-89149047D01*
X144998095Y-89291904D01*
X145045714Y-89387142D01*
X145093333Y-89434761D01*
X145188571Y-89482380D01*
X145569523Y-89482380D01*
X145569523Y-88482380D01*
X145236190Y-88482380D01*
X145140952Y-88530000D01*
X145093333Y-88577619D01*
X145045714Y-88672857D01*
X145045714Y-88768095D01*
X145093333Y-88863333D01*
X145140952Y-88910952D01*
X145236190Y-88958571D01*
X145569523Y-88958571D01*
X144045714Y-89482380D02*
X144617142Y-89482380D01*
X144331428Y-89482380D02*
X144331428Y-88482380D01*
X144426666Y-88625238D01*
X144521904Y-88720476D01*
X144617142Y-88768095D01*
%TO.C,C1*%
X149437142Y-87940833D02*
X149484761Y-87893214D01*
X149532380Y-87750357D01*
X149532380Y-87655119D01*
X149484761Y-87512261D01*
X149389523Y-87417023D01*
X149294285Y-87369404D01*
X149103809Y-87321785D01*
X148960952Y-87321785D01*
X148770476Y-87369404D01*
X148675238Y-87417023D01*
X148580000Y-87512261D01*
X148532380Y-87655119D01*
X148532380Y-87750357D01*
X148580000Y-87893214D01*
X148627619Y-87940833D01*
X149532380Y-88893214D02*
X149532380Y-88321785D01*
X149532380Y-88607500D02*
X148532380Y-88607500D01*
X148675238Y-88512261D01*
X148770476Y-88417023D01*
X148818095Y-88321785D01*
%TO.C,R9*%
X132956666Y-96032380D02*
X133290000Y-95556190D01*
X133528095Y-96032380D02*
X133528095Y-95032380D01*
X133147142Y-95032380D01*
X133051904Y-95080000D01*
X133004285Y-95127619D01*
X132956666Y-95222857D01*
X132956666Y-95365714D01*
X133004285Y-95460952D01*
X133051904Y-95508571D01*
X133147142Y-95556190D01*
X133528095Y-95556190D01*
X132480476Y-96032380D02*
X132290000Y-96032380D01*
X132194761Y-95984761D01*
X132147142Y-95937142D01*
X132051904Y-95794285D01*
X132004285Y-95603809D01*
X132004285Y-95222857D01*
X132051904Y-95127619D01*
X132099523Y-95080000D01*
X132194761Y-95032380D01*
X132385238Y-95032380D01*
X132480476Y-95080000D01*
X132528095Y-95127619D01*
X132575714Y-95222857D01*
X132575714Y-95460952D01*
X132528095Y-95556190D01*
X132480476Y-95603809D01*
X132385238Y-95651428D01*
X132194761Y-95651428D01*
X132099523Y-95603809D01*
X132051904Y-95556190D01*
X132004285Y-95460952D01*
D11*
%TO.C,R7*%
X145015000Y-79517064D02*
X145015000Y-79062936D01*
X143545000Y-79517064D02*
X143545000Y-79062936D01*
%TO.C,C2*%
X140755000Y-87846248D02*
X140755000Y-88368752D01*
X142225000Y-87846248D02*
X142225000Y-88368752D01*
%TO.C,R11*%
X153725000Y-83062936D02*
X153725000Y-83517064D01*
X155195000Y-83062936D02*
X155195000Y-83517064D01*
%TO.C,FB1*%
X143983748Y-87850000D02*
X144506252Y-87850000D01*
X143983748Y-86430000D02*
X144506252Y-86430000D01*
%TO.C,C1*%
X148135000Y-88368752D02*
X148135000Y-87846248D01*
X146665000Y-88368752D02*
X146665000Y-87846248D01*
%TO.C,R9*%
X134417064Y-94615000D02*
X133962936Y-94615000D01*
X134417064Y-93145000D02*
X133962936Y-93145000D01*
%TD*%
M02*
