%TF.GenerationSoftware,KiCad,Pcbnew,6.0.11-2627ca5db0~126~ubuntu22.04.1*%
%TF.CreationDate,2023-02-14T23:30:31-05:00*%
%TF.ProjectId,atx-power-fixture,6174782d-706f-4776-9572-2d6669787475,2.0*%
%TF.SameCoordinates,Original*%
%TF.FileFunction,Legend,Top*%
%TF.FilePolarity,Positive*%
%FSLAX46Y46*%
G04 Gerber Fmt 4.6, Leading zero omitted, Abs format (unit mm)*
G04 Created by KiCad (PCBNEW 6.0.11-2627ca5db0~126~ubuntu22.04.1) date 2023-02-14 23:30:31*
%MOMM*%
%LPD*%
G01*
G04 APERTURE LIST*
%ADD10C,0.300000*%
%ADD11C,0.127000*%
%ADD12C,0.101600*%
%ADD13C,0.150000*%
%ADD14C,0.066040*%
%ADD15C,0.203200*%
%ADD16C,0.120000*%
%ADD17C,0.254000*%
G04 APERTURE END LIST*
D10*
X168766666Y-105561904D02*
X168671428Y-105657142D01*
X168385714Y-105847619D01*
X168195238Y-105942857D01*
X167909523Y-106038095D01*
X167433333Y-106133333D01*
X167052380Y-106133333D01*
X166576190Y-106038095D01*
X166290476Y-105942857D01*
X166100000Y-105847619D01*
X165814285Y-105657142D01*
X165719047Y-105561904D01*
X167909523Y-103942857D02*
X168004761Y-104133333D01*
X168004761Y-104514285D01*
X167909523Y-104704761D01*
X167814285Y-104800000D01*
X167623809Y-104895238D01*
X167052380Y-104895238D01*
X166861904Y-104800000D01*
X166766666Y-104704761D01*
X166671428Y-104514285D01*
X166671428Y-104133333D01*
X166766666Y-103942857D01*
X168766666Y-103276190D02*
X168671428Y-103180952D01*
X168385714Y-102990476D01*
X168195238Y-102895238D01*
X167909523Y-102800000D01*
X167433333Y-102704761D01*
X167052380Y-102704761D01*
X166576190Y-102800000D01*
X166290476Y-102895238D01*
X166100000Y-102990476D01*
X165814285Y-103180952D01*
X165719047Y-103276190D01*
X166195238Y-100323809D02*
X166100000Y-100228571D01*
X166004761Y-100038095D01*
X166004761Y-99561904D01*
X166100000Y-99371428D01*
X166195238Y-99276190D01*
X166385714Y-99180952D01*
X166576190Y-99180952D01*
X166861904Y-99276190D01*
X168004761Y-100419047D01*
X168004761Y-99180952D01*
X166004761Y-97942857D02*
X166004761Y-97752380D01*
X166100000Y-97561904D01*
X166195238Y-97466666D01*
X166385714Y-97371428D01*
X166766666Y-97276190D01*
X167242857Y-97276190D01*
X167623809Y-97371428D01*
X167814285Y-97466666D01*
X167909523Y-97561904D01*
X168004761Y-97752380D01*
X168004761Y-97942857D01*
X167909523Y-98133333D01*
X167814285Y-98228571D01*
X167623809Y-98323809D01*
X167242857Y-98419047D01*
X166766666Y-98419047D01*
X166385714Y-98323809D01*
X166195238Y-98228571D01*
X166100000Y-98133333D01*
X166004761Y-97942857D01*
X166195238Y-96514285D02*
X166100000Y-96419047D01*
X166004761Y-96228571D01*
X166004761Y-95752380D01*
X166100000Y-95561904D01*
X166195238Y-95466666D01*
X166385714Y-95371428D01*
X166576190Y-95371428D01*
X166861904Y-95466666D01*
X168004761Y-96609523D01*
X168004761Y-95371428D01*
X166004761Y-94704761D02*
X166004761Y-93466666D01*
X166766666Y-94133333D01*
X166766666Y-93847619D01*
X166861904Y-93657142D01*
X166957142Y-93561904D01*
X167147619Y-93466666D01*
X167623809Y-93466666D01*
X167814285Y-93561904D01*
X167909523Y-93657142D01*
X168004761Y-93847619D01*
X168004761Y-94419047D01*
X167909523Y-94609523D01*
X167814285Y-94704761D01*
X166100000Y-90038095D02*
X166004761Y-90228571D01*
X166004761Y-90514285D01*
X166100000Y-90800000D01*
X166290476Y-90990476D01*
X166480952Y-91085714D01*
X166861904Y-91180952D01*
X167147619Y-91180952D01*
X167528571Y-91085714D01*
X167719047Y-90990476D01*
X167909523Y-90800000D01*
X168004761Y-90514285D01*
X168004761Y-90323809D01*
X167909523Y-90038095D01*
X167814285Y-89942857D01*
X167147619Y-89942857D01*
X167147619Y-90323809D01*
X168004761Y-88228571D02*
X166957142Y-88228571D01*
X166766666Y-88323809D01*
X166671428Y-88514285D01*
X166671428Y-88895238D01*
X166766666Y-89085714D01*
X167909523Y-88228571D02*
X168004761Y-88419047D01*
X168004761Y-88895238D01*
X167909523Y-89085714D01*
X167719047Y-89180952D01*
X167528571Y-89180952D01*
X167338095Y-89085714D01*
X167242857Y-88895238D01*
X167242857Y-88419047D01*
X167147619Y-88228571D01*
X166671428Y-87466666D02*
X168004761Y-86990476D01*
X166671428Y-86514285D01*
X168004761Y-85752380D02*
X166671428Y-85752380D01*
X166004761Y-85752380D02*
X166100000Y-85847619D01*
X166195238Y-85752380D01*
X166100000Y-85657142D01*
X166004761Y-85752380D01*
X166195238Y-85752380D01*
X166671428Y-84800000D02*
X168004761Y-84800000D01*
X166861904Y-84800000D02*
X166766666Y-84704761D01*
X166671428Y-84514285D01*
X166671428Y-84228571D01*
X166766666Y-84038095D01*
X166957142Y-83942857D01*
X168004761Y-83942857D01*
X168004761Y-81466666D02*
X166004761Y-81466666D01*
X166957142Y-81466666D02*
X166957142Y-80323809D01*
X168004761Y-80323809D02*
X166004761Y-80323809D01*
X166671428Y-78514285D02*
X168004761Y-78514285D01*
X166671428Y-79371428D02*
X167719047Y-79371428D01*
X167909523Y-79276190D01*
X168004761Y-79085714D01*
X168004761Y-78800000D01*
X167909523Y-78609523D01*
X167814285Y-78514285D01*
X168004761Y-77561904D02*
X166671428Y-77561904D01*
X167052380Y-77561904D02*
X166861904Y-77466666D01*
X166766666Y-77371428D01*
X166671428Y-77180952D01*
X166671428Y-76990476D01*
X168004761Y-76038095D02*
X167909523Y-76228571D01*
X167719047Y-76323809D01*
X166004761Y-76323809D01*
X168004761Y-75276190D02*
X166004761Y-75276190D01*
X166766666Y-75276190D02*
X166671428Y-75085714D01*
X166671428Y-74704761D01*
X166766666Y-74514285D01*
X166861904Y-74419047D01*
X167052380Y-74323809D01*
X167623809Y-74323809D01*
X167814285Y-74419047D01*
X167909523Y-74514285D01*
X168004761Y-74704761D01*
X168004761Y-75085714D01*
X167909523Y-75276190D01*
X166671428Y-72609523D02*
X168004761Y-72609523D01*
X166671428Y-73466666D02*
X167719047Y-73466666D01*
X167909523Y-73371428D01*
X168004761Y-73180952D01*
X168004761Y-72895238D01*
X167909523Y-72704761D01*
X167814285Y-72609523D01*
X166671428Y-71942857D02*
X166671428Y-71180952D01*
X166004761Y-71657142D02*
X167719047Y-71657142D01*
X167909523Y-71561904D01*
X168004761Y-71371428D01*
X168004761Y-71180952D01*
X164508333Y-104457142D02*
X164508333Y-103576190D01*
X165036904Y-104633333D02*
X163186904Y-104016666D01*
X165036904Y-103400000D01*
X163186904Y-103047619D02*
X163186904Y-101990476D01*
X165036904Y-102519047D02*
X163186904Y-102519047D01*
X163186904Y-101550000D02*
X165036904Y-100316666D01*
X163186904Y-100316666D02*
X165036904Y-101550000D01*
X165036904Y-98202380D02*
X163186904Y-98202380D01*
X163186904Y-97497619D01*
X163275000Y-97321428D01*
X163363095Y-97233333D01*
X163539285Y-97145238D01*
X163803571Y-97145238D01*
X163979761Y-97233333D01*
X164067857Y-97321428D01*
X164155952Y-97497619D01*
X164155952Y-98202380D01*
X165036904Y-96088095D02*
X164948809Y-96264285D01*
X164860714Y-96352380D01*
X164684523Y-96440476D01*
X164155952Y-96440476D01*
X163979761Y-96352380D01*
X163891666Y-96264285D01*
X163803571Y-96088095D01*
X163803571Y-95823809D01*
X163891666Y-95647619D01*
X163979761Y-95559523D01*
X164155952Y-95471428D01*
X164684523Y-95471428D01*
X164860714Y-95559523D01*
X164948809Y-95647619D01*
X165036904Y-95823809D01*
X165036904Y-96088095D01*
X163803571Y-94854761D02*
X165036904Y-94502380D01*
X164155952Y-94150000D01*
X165036904Y-93797619D01*
X163803571Y-93445238D01*
X164948809Y-92035714D02*
X165036904Y-92211904D01*
X165036904Y-92564285D01*
X164948809Y-92740476D01*
X164772619Y-92828571D01*
X164067857Y-92828571D01*
X163891666Y-92740476D01*
X163803571Y-92564285D01*
X163803571Y-92211904D01*
X163891666Y-92035714D01*
X164067857Y-91947619D01*
X164244047Y-91947619D01*
X164420238Y-92828571D01*
X165036904Y-91154761D02*
X163803571Y-91154761D01*
X164155952Y-91154761D02*
X163979761Y-91066666D01*
X163891666Y-90978571D01*
X163803571Y-90802380D01*
X163803571Y-90626190D01*
X164067857Y-87983333D02*
X164067857Y-88600000D01*
X165036904Y-88600000D02*
X163186904Y-88600000D01*
X163186904Y-87719047D01*
X165036904Y-87014285D02*
X163803571Y-87014285D01*
X163186904Y-87014285D02*
X163275000Y-87102380D01*
X163363095Y-87014285D01*
X163275000Y-86926190D01*
X163186904Y-87014285D01*
X163363095Y-87014285D01*
X165036904Y-86309523D02*
X163803571Y-85340476D01*
X163803571Y-86309523D02*
X165036904Y-85340476D01*
X163803571Y-84900000D02*
X163803571Y-84195238D01*
X163186904Y-84635714D02*
X164772619Y-84635714D01*
X164948809Y-84547619D01*
X165036904Y-84371428D01*
X165036904Y-84195238D01*
X163803571Y-82785714D02*
X165036904Y-82785714D01*
X163803571Y-83578571D02*
X164772619Y-83578571D01*
X164948809Y-83490476D01*
X165036904Y-83314285D01*
X165036904Y-83050000D01*
X164948809Y-82873809D01*
X164860714Y-82785714D01*
X165036904Y-81904761D02*
X163803571Y-81904761D01*
X164155952Y-81904761D02*
X163979761Y-81816666D01*
X163891666Y-81728571D01*
X163803571Y-81552380D01*
X163803571Y-81376190D01*
X164948809Y-80054761D02*
X165036904Y-80230952D01*
X165036904Y-80583333D01*
X164948809Y-80759523D01*
X164772619Y-80847619D01*
X164067857Y-80847619D01*
X163891666Y-80759523D01*
X163803571Y-80583333D01*
X163803571Y-80230952D01*
X163891666Y-80054761D01*
X164067857Y-79966666D01*
X164244047Y-79966666D01*
X164420238Y-80847619D01*
X163803571Y-77940476D02*
X165036904Y-77500000D01*
X163803571Y-77059523D01*
X163363095Y-76442857D02*
X163275000Y-76354761D01*
X163186904Y-76178571D01*
X163186904Y-75738095D01*
X163275000Y-75561904D01*
X163363095Y-75473809D01*
X163539285Y-75385714D01*
X163715476Y-75385714D01*
X163979761Y-75473809D01*
X165036904Y-76530952D01*
X165036904Y-75385714D01*
X164860714Y-74592857D02*
X164948809Y-74504761D01*
X165036904Y-74592857D01*
X164948809Y-74680952D01*
X164860714Y-74592857D01*
X165036904Y-74592857D01*
X163186904Y-73359523D02*
X163186904Y-73183333D01*
X163275000Y-73007142D01*
X163363095Y-72919047D01*
X163539285Y-72830952D01*
X163891666Y-72742857D01*
X164332142Y-72742857D01*
X164684523Y-72830952D01*
X164860714Y-72919047D01*
X164948809Y-73007142D01*
X165036904Y-73183333D01*
X165036904Y-73359523D01*
X164948809Y-73535714D01*
X164860714Y-73623809D01*
X164684523Y-73711904D01*
X164332142Y-73800000D01*
X163891666Y-73800000D01*
X163539285Y-73711904D01*
X163363095Y-73623809D01*
X163275000Y-73535714D01*
X163186904Y-73359523D01*
D11*
%TO.C,J5*%
X156276666Y-52604523D02*
X156276666Y-53511666D01*
X156216190Y-53693095D01*
X156095238Y-53814047D01*
X155913809Y-53874523D01*
X155792857Y-53874523D01*
X157486190Y-52604523D02*
X156881428Y-52604523D01*
X156820952Y-53209285D01*
X156881428Y-53148809D01*
X157002380Y-53088333D01*
X157304761Y-53088333D01*
X157425714Y-53148809D01*
X157486190Y-53209285D01*
X157546666Y-53330238D01*
X157546666Y-53632619D01*
X157486190Y-53753571D01*
X157425714Y-53814047D01*
X157304761Y-53874523D01*
X157002380Y-53874523D01*
X156881428Y-53814047D01*
X156820952Y-53753571D01*
D12*
X143561485Y-54011971D02*
X143501009Y-54072447D01*
X143319580Y-54132923D01*
X143198628Y-54132923D01*
X143017200Y-54072447D01*
X142896247Y-53951495D01*
X142835771Y-53830542D01*
X142775295Y-53588638D01*
X142775295Y-53407209D01*
X142835771Y-53165304D01*
X142896247Y-53044352D01*
X143017200Y-52923400D01*
X143198628Y-52862923D01*
X143319580Y-52862923D01*
X143501009Y-52923400D01*
X143561485Y-52983876D01*
X144287200Y-54132923D02*
X144166247Y-54072447D01*
X144105771Y-54011971D01*
X144045295Y-53891019D01*
X144045295Y-53528161D01*
X144105771Y-53407209D01*
X144166247Y-53346733D01*
X144287200Y-53286257D01*
X144468628Y-53286257D01*
X144589580Y-53346733D01*
X144650057Y-53407209D01*
X144710533Y-53528161D01*
X144710533Y-53891019D01*
X144650057Y-54011971D01*
X144589580Y-54072447D01*
X144468628Y-54132923D01*
X144287200Y-54132923D01*
X145254819Y-53286257D02*
X145254819Y-54132923D01*
X145254819Y-53407209D02*
X145315295Y-53346733D01*
X145436247Y-53286257D01*
X145617676Y-53286257D01*
X145738628Y-53346733D01*
X145799104Y-53467685D01*
X145799104Y-54132923D01*
X146343390Y-54072447D02*
X146464342Y-54132923D01*
X146706247Y-54132923D01*
X146827200Y-54072447D01*
X146887676Y-53951495D01*
X146887676Y-53891019D01*
X146827200Y-53770066D01*
X146706247Y-53709590D01*
X146524819Y-53709590D01*
X146403866Y-53649114D01*
X146343390Y-53528161D01*
X146343390Y-53467685D01*
X146403866Y-53346733D01*
X146524819Y-53286257D01*
X146706247Y-53286257D01*
X146827200Y-53346733D01*
X147613390Y-54132923D02*
X147492438Y-54072447D01*
X147431961Y-54011971D01*
X147371485Y-53891019D01*
X147371485Y-53528161D01*
X147431961Y-53407209D01*
X147492438Y-53346733D01*
X147613390Y-53286257D01*
X147794819Y-53286257D01*
X147915771Y-53346733D01*
X147976247Y-53407209D01*
X148036723Y-53528161D01*
X148036723Y-53891019D01*
X147976247Y-54011971D01*
X147915771Y-54072447D01*
X147794819Y-54132923D01*
X147613390Y-54132923D01*
X148762438Y-54132923D02*
X148641485Y-54072447D01*
X148581009Y-53951495D01*
X148581009Y-52862923D01*
X149730057Y-54072447D02*
X149609104Y-54132923D01*
X149367200Y-54132923D01*
X149246247Y-54072447D01*
X149185771Y-53951495D01*
X149185771Y-53467685D01*
X149246247Y-53346733D01*
X149367200Y-53286257D01*
X149609104Y-53286257D01*
X149730057Y-53346733D01*
X149790533Y-53467685D01*
X149790533Y-53588638D01*
X149185771Y-53709590D01*
X151725771Y-53467685D02*
X151302438Y-53467685D01*
X151302438Y-54132923D02*
X151302438Y-52862923D01*
X151907200Y-52862923D01*
X152209580Y-52862923D02*
X152935295Y-52862923D01*
X152572438Y-54132923D02*
X152572438Y-52862923D01*
X153358628Y-54132923D02*
X153358628Y-52862923D01*
X153661009Y-52862923D01*
X153842438Y-52923400D01*
X153963390Y-53044352D01*
X154023866Y-53165304D01*
X154084342Y-53407209D01*
X154084342Y-53588638D01*
X154023866Y-53830542D01*
X153963390Y-53951495D01*
X153842438Y-54072447D01*
X153661009Y-54132923D01*
X153358628Y-54132923D01*
X154628628Y-54132923D02*
X154628628Y-52862923D01*
X139865000Y-56967619D02*
X139804523Y-57088571D01*
X139804523Y-57270000D01*
X139865000Y-57451428D01*
X139985952Y-57572380D01*
X140106904Y-57632857D01*
X140348809Y-57693333D01*
X140530238Y-57693333D01*
X140772142Y-57632857D01*
X140893095Y-57572380D01*
X141014047Y-57451428D01*
X141074523Y-57270000D01*
X141074523Y-57149047D01*
X141014047Y-56967619D01*
X140953571Y-56907142D01*
X140530238Y-56907142D01*
X140530238Y-57149047D01*
X141074523Y-55637142D02*
X140469761Y-56060476D01*
X141074523Y-56362857D02*
X139804523Y-56362857D01*
X139804523Y-55879047D01*
X139865000Y-55758095D01*
X139925476Y-55697619D01*
X140046428Y-55637142D01*
X140227857Y-55637142D01*
X140348809Y-55697619D01*
X140409285Y-55758095D01*
X140469761Y-55879047D01*
X140469761Y-56362857D01*
X141074523Y-55092857D02*
X139804523Y-55092857D01*
X141074523Y-54367142D01*
X139804523Y-54367142D01*
X157609285Y-57258333D02*
X157669761Y-57076904D01*
X157730238Y-57016428D01*
X157851190Y-56955952D01*
X158032619Y-56955952D01*
X158153571Y-57016428D01*
X158214047Y-57076904D01*
X158274523Y-57197857D01*
X158274523Y-57681666D01*
X157004523Y-57681666D01*
X157004523Y-57258333D01*
X157065000Y-57137380D01*
X157125476Y-57076904D01*
X157246428Y-57016428D01*
X157367380Y-57016428D01*
X157488333Y-57076904D01*
X157548809Y-57137380D01*
X157609285Y-57258333D01*
X157609285Y-57681666D01*
X158274523Y-55806904D02*
X158274523Y-56411666D01*
X157004523Y-56411666D01*
X158274523Y-55383571D02*
X157004523Y-55383571D01*
X158274523Y-54657857D02*
X157548809Y-55202142D01*
X157004523Y-54657857D02*
X157730238Y-55383571D01*
D13*
%TO.C,U3*%
X182838095Y-77652380D02*
X182838095Y-78461904D01*
X182885714Y-78557142D01*
X182933333Y-78604761D01*
X183028571Y-78652380D01*
X183219047Y-78652380D01*
X183314285Y-78604761D01*
X183361904Y-78557142D01*
X183409523Y-78461904D01*
X183409523Y-77652380D01*
X183790476Y-77652380D02*
X184409523Y-77652380D01*
X184076190Y-78033333D01*
X184219047Y-78033333D01*
X184314285Y-78080952D01*
X184361904Y-78128571D01*
X184409523Y-78223809D01*
X184409523Y-78461904D01*
X184361904Y-78557142D01*
X184314285Y-78604761D01*
X184219047Y-78652380D01*
X183933333Y-78652380D01*
X183838095Y-78604761D01*
X183790476Y-78557142D01*
X169443722Y-92883092D02*
X169362910Y-92910029D01*
X169282097Y-92990841D01*
X169228223Y-93098591D01*
X169228223Y-93206341D01*
X169255160Y-93287153D01*
X169335972Y-93421840D01*
X169416784Y-93502652D01*
X169551471Y-93583464D01*
X169632284Y-93610402D01*
X169740033Y-93610402D01*
X169847783Y-93556527D01*
X169901658Y-93502652D01*
X169955532Y-93394902D01*
X169955532Y-93341028D01*
X169766971Y-93152466D01*
X169659221Y-93260215D01*
X170251844Y-93152466D02*
X169686158Y-92586780D01*
X169901658Y-92371281D01*
X169982470Y-92344344D01*
X170036345Y-92344344D01*
X170117157Y-92371281D01*
X170197969Y-92452093D01*
X170224906Y-92532906D01*
X170224906Y-92586780D01*
X170197969Y-92667593D01*
X169982470Y-92883092D01*
X171113841Y-92290469D02*
X170790592Y-92613718D01*
X170952216Y-92452093D02*
X170386531Y-91886408D01*
X170413468Y-92021095D01*
X170413468Y-92128845D01*
X170386531Y-92209657D01*
X170817529Y-91563159D02*
X170817529Y-91509284D01*
X170844467Y-91428472D01*
X170979154Y-91293785D01*
X171059966Y-91266848D01*
X171113841Y-91266848D01*
X171194653Y-91293785D01*
X171248528Y-91347660D01*
X171302402Y-91455410D01*
X171302402Y-92101907D01*
X171652589Y-91751721D01*
X170013096Y-61811218D02*
X169932284Y-61838155D01*
X169851471Y-61918967D01*
X169797597Y-62026717D01*
X169797597Y-62134467D01*
X169824534Y-62215279D01*
X169905346Y-62349966D01*
X169986158Y-62430778D01*
X170120845Y-62511590D01*
X170201658Y-62538528D01*
X170309407Y-62538528D01*
X170417157Y-62484653D01*
X170471032Y-62430778D01*
X170524906Y-62323028D01*
X170524906Y-62269154D01*
X170336345Y-62080592D01*
X170228595Y-62188341D01*
X170821218Y-62080592D02*
X170255532Y-61514906D01*
X170471032Y-61299407D01*
X170551844Y-61272470D01*
X170605719Y-61272470D01*
X170686531Y-61299407D01*
X170767343Y-61380219D01*
X170794280Y-61461032D01*
X170794280Y-61514906D01*
X170767343Y-61595719D01*
X170551844Y-61811218D01*
X170848155Y-61030033D02*
X170848155Y-60976158D01*
X170875093Y-60895346D01*
X171009780Y-60760659D01*
X171090592Y-60733722D01*
X171144467Y-60733722D01*
X171225279Y-60760659D01*
X171279154Y-60814534D01*
X171333028Y-60922284D01*
X171333028Y-61568781D01*
X171683215Y-61218595D01*
X170086158Y-97398155D02*
X170005346Y-97425093D01*
X169924534Y-97505905D01*
X169870659Y-97613654D01*
X169870659Y-97721404D01*
X169897597Y-97802216D01*
X169978409Y-97936903D01*
X170059221Y-98017715D01*
X170193908Y-98098528D01*
X170274720Y-98125465D01*
X170382470Y-98125465D01*
X170490219Y-98071590D01*
X170544094Y-98017715D01*
X170597969Y-97909966D01*
X170597969Y-97856091D01*
X170409407Y-97667529D01*
X170301658Y-97775279D01*
X170894280Y-97667529D02*
X170328595Y-97101844D01*
X171217529Y-97344280D01*
X170651844Y-96778595D01*
X171486903Y-97074906D02*
X170921218Y-96509221D01*
X171055905Y-96374534D01*
X171163654Y-96320659D01*
X171271404Y-96320659D01*
X171352216Y-96347597D01*
X171486903Y-96428409D01*
X171567715Y-96509221D01*
X171648528Y-96643908D01*
X171675465Y-96724720D01*
X171675465Y-96832470D01*
X171621590Y-96940219D01*
X171486903Y-97074906D01*
X195697722Y-100180592D02*
X195616910Y-100207529D01*
X195536097Y-100288341D01*
X195482223Y-100396091D01*
X195482223Y-100503841D01*
X195509160Y-100584653D01*
X195589972Y-100719340D01*
X195670784Y-100800152D01*
X195805471Y-100880964D01*
X195886284Y-100907902D01*
X195994033Y-100907902D01*
X196101783Y-100854027D01*
X196155658Y-100800152D01*
X196209532Y-100692402D01*
X196209532Y-100638528D01*
X196020971Y-100449966D01*
X195913221Y-100557715D01*
X196505844Y-100449966D02*
X195940158Y-99884280D01*
X196155658Y-99668781D01*
X196236470Y-99641844D01*
X196290345Y-99641844D01*
X196371157Y-99668781D01*
X196451969Y-99749593D01*
X196478906Y-99830406D01*
X196478906Y-99884280D01*
X196451969Y-99965093D01*
X196236470Y-100180592D01*
X197367841Y-99587969D02*
X197044592Y-99911218D01*
X197206216Y-99749593D02*
X196640531Y-99183908D01*
X196667468Y-99318595D01*
X196667468Y-99426345D01*
X196640531Y-99507157D01*
X196990717Y-98833722D02*
X197367841Y-98456598D01*
X197691089Y-99264720D01*
X195697722Y-74790592D02*
X195616910Y-74817529D01*
X195536097Y-74898341D01*
X195482223Y-75006091D01*
X195482223Y-75113841D01*
X195509160Y-75194653D01*
X195589972Y-75329340D01*
X195670784Y-75410152D01*
X195805471Y-75490964D01*
X195886284Y-75517902D01*
X195994033Y-75517902D01*
X196101783Y-75464027D01*
X196155658Y-75410152D01*
X196209532Y-75302402D01*
X196209532Y-75248528D01*
X196020971Y-75059966D01*
X195913221Y-75167715D01*
X196505844Y-75059966D02*
X195940158Y-74494280D01*
X196155658Y-74278781D01*
X196236470Y-74251844D01*
X196290345Y-74251844D01*
X196371157Y-74278781D01*
X196451969Y-74359593D01*
X196478906Y-74440406D01*
X196478906Y-74494280D01*
X196451969Y-74575093D01*
X196236470Y-74790592D01*
X196532781Y-74009407D02*
X196532781Y-73955532D01*
X196559719Y-73874720D01*
X196694406Y-73740033D01*
X196775218Y-73713096D01*
X196829093Y-73713096D01*
X196909905Y-73740033D01*
X196963780Y-73793908D01*
X197017654Y-73901658D01*
X197017654Y-74548155D01*
X197367841Y-74197969D01*
X196990717Y-73443722D02*
X197367841Y-73066598D01*
X197691089Y-73874720D01*
X169443722Y-90343092D02*
X169362910Y-90370029D01*
X169282097Y-90450841D01*
X169228223Y-90558591D01*
X169228223Y-90666341D01*
X169255160Y-90747153D01*
X169335972Y-90881840D01*
X169416784Y-90962652D01*
X169551471Y-91043464D01*
X169632284Y-91070402D01*
X169740033Y-91070402D01*
X169847783Y-91016527D01*
X169901658Y-90962652D01*
X169955532Y-90854902D01*
X169955532Y-90801028D01*
X169766971Y-90612466D01*
X169659221Y-90720215D01*
X170251844Y-90612466D02*
X169686158Y-90046780D01*
X169901658Y-89831281D01*
X169982470Y-89804344D01*
X170036345Y-89804344D01*
X170117157Y-89831281D01*
X170197969Y-89912093D01*
X170224906Y-89992906D01*
X170224906Y-90046780D01*
X170197969Y-90127593D01*
X169982470Y-90343092D01*
X171113841Y-89750469D02*
X170790592Y-90073718D01*
X170952216Y-89912093D02*
X170386531Y-89346408D01*
X170413468Y-89481095D01*
X170413468Y-89588845D01*
X170386531Y-89669657D01*
X171652589Y-89211721D02*
X171329340Y-89534970D01*
X171490964Y-89373345D02*
X170925279Y-88807660D01*
X170952216Y-88942347D01*
X170952216Y-89050097D01*
X170925279Y-89130909D01*
X195751597Y-72940964D02*
X196020971Y-72671590D01*
X195859346Y-73156463D02*
X195482223Y-72402216D01*
X196236470Y-72779340D01*
X196182595Y-71755719D02*
X196101783Y-71782656D01*
X196020971Y-71863468D01*
X195967096Y-71971218D01*
X195967096Y-72078967D01*
X195994033Y-72159780D01*
X196074845Y-72294467D01*
X196155658Y-72375279D01*
X196290345Y-72456091D01*
X196371157Y-72483028D01*
X196478906Y-72483028D01*
X196586656Y-72429154D01*
X196640531Y-72375279D01*
X196694406Y-72267529D01*
X196694406Y-72213654D01*
X196505844Y-72025093D01*
X196398094Y-72132842D01*
X196990717Y-72025093D02*
X196425032Y-71459407D01*
X197313966Y-71701844D01*
X196748280Y-71136158D01*
X197583340Y-71432470D02*
X197017654Y-70866784D01*
X197152341Y-70732097D01*
X197260091Y-70678223D01*
X197367841Y-70678223D01*
X197448653Y-70705160D01*
X197583340Y-70785972D01*
X197664152Y-70866784D01*
X197744964Y-71001471D01*
X197771902Y-71082284D01*
X197771902Y-71190033D01*
X197718027Y-71297783D01*
X197583340Y-71432470D01*
X170113096Y-64351218D02*
X170032284Y-64378155D01*
X169951471Y-64458967D01*
X169897597Y-64566717D01*
X169897597Y-64674467D01*
X169924534Y-64755279D01*
X170005346Y-64889966D01*
X170086158Y-64970778D01*
X170220845Y-65051590D01*
X170301658Y-65078528D01*
X170409407Y-65078528D01*
X170517157Y-65024653D01*
X170571032Y-64970778D01*
X170624906Y-64863028D01*
X170624906Y-64809154D01*
X170436345Y-64620592D01*
X170328595Y-64728341D01*
X170921218Y-64620592D02*
X170355532Y-64054906D01*
X170571032Y-63839407D01*
X170651844Y-63812470D01*
X170705719Y-63812470D01*
X170786531Y-63839407D01*
X170867343Y-63920219D01*
X170894280Y-64001032D01*
X170894280Y-64054906D01*
X170867343Y-64135719D01*
X170651844Y-64351218D01*
X170867343Y-63543096D02*
X171217529Y-63192910D01*
X171244467Y-63596971D01*
X171325279Y-63516158D01*
X171406091Y-63489221D01*
X171459966Y-63489221D01*
X171540778Y-63516158D01*
X171675465Y-63650845D01*
X171702402Y-63731658D01*
X171702402Y-63785532D01*
X171675465Y-63866345D01*
X171513841Y-64027969D01*
X171433028Y-64054906D01*
X171379154Y-64054906D01*
X195697722Y-69446592D02*
X195616910Y-69473529D01*
X195536097Y-69554341D01*
X195482223Y-69662091D01*
X195482223Y-69769841D01*
X195509160Y-69850653D01*
X195589972Y-69985340D01*
X195670784Y-70066152D01*
X195805471Y-70146964D01*
X195886284Y-70173902D01*
X195994033Y-70173902D01*
X196101783Y-70120027D01*
X196155658Y-70066152D01*
X196209532Y-69958402D01*
X196209532Y-69904528D01*
X196020971Y-69715966D01*
X195913221Y-69823715D01*
X196505844Y-69715966D02*
X195940158Y-69150280D01*
X196155658Y-68934781D01*
X196236470Y-68907844D01*
X196290345Y-68907844D01*
X196371157Y-68934781D01*
X196451969Y-69015593D01*
X196478906Y-69096406D01*
X196478906Y-69150280D01*
X196451969Y-69231093D01*
X196236470Y-69446592D01*
X196532781Y-68665407D02*
X196532781Y-68611532D01*
X196559719Y-68530720D01*
X196694406Y-68396033D01*
X196775218Y-68369096D01*
X196829093Y-68369096D01*
X196909905Y-68396033D01*
X196963780Y-68449908D01*
X197017654Y-68557658D01*
X197017654Y-69204155D01*
X197367841Y-68853969D01*
X197367841Y-68207471D02*
X197287028Y-68234409D01*
X197233154Y-68234409D01*
X197152341Y-68207471D01*
X197125404Y-68180534D01*
X197098467Y-68099722D01*
X197098467Y-68045847D01*
X197125404Y-67965035D01*
X197233154Y-67857285D01*
X197313966Y-67830348D01*
X197367841Y-67830348D01*
X197448653Y-67857285D01*
X197475590Y-67884223D01*
X197502528Y-67965035D01*
X197502528Y-68018910D01*
X197475590Y-68099722D01*
X197367841Y-68207471D01*
X197340903Y-68288284D01*
X197340903Y-68342158D01*
X197367841Y-68422971D01*
X197475590Y-68530720D01*
X197556402Y-68557658D01*
X197610277Y-68557658D01*
X197691089Y-68530720D01*
X197798839Y-68422971D01*
X197825776Y-68342158D01*
X197825776Y-68288284D01*
X197798839Y-68207471D01*
X197691089Y-68099722D01*
X197610277Y-68072784D01*
X197556402Y-68072784D01*
X197475590Y-68099722D01*
X170213096Y-77021218D02*
X170132284Y-77048155D01*
X170051471Y-77128967D01*
X169997597Y-77236717D01*
X169997597Y-77344467D01*
X170024534Y-77425279D01*
X170105346Y-77559966D01*
X170186158Y-77640778D01*
X170320845Y-77721590D01*
X170401658Y-77748528D01*
X170509407Y-77748528D01*
X170617157Y-77694653D01*
X170671032Y-77640778D01*
X170724906Y-77533028D01*
X170724906Y-77479154D01*
X170536345Y-77290592D01*
X170428595Y-77398341D01*
X171021218Y-77290592D02*
X170455532Y-76724906D01*
X170671032Y-76509407D01*
X170751844Y-76482470D01*
X170805719Y-76482470D01*
X170886531Y-76509407D01*
X170967343Y-76590219D01*
X170994280Y-76671032D01*
X170994280Y-76724906D01*
X170967343Y-76805719D01*
X170751844Y-77021218D01*
X170967343Y-76213096D02*
X171344467Y-75835972D01*
X171667715Y-76644094D01*
X180790476Y-86023809D02*
X180904761Y-86061904D01*
X181095238Y-86061904D01*
X181171428Y-86023809D01*
X181209523Y-85985714D01*
X181247619Y-85909523D01*
X181247619Y-85833333D01*
X181209523Y-85757142D01*
X181171428Y-85719047D01*
X181095238Y-85680952D01*
X180942857Y-85642857D01*
X180866666Y-85604761D01*
X180828571Y-85566666D01*
X180790476Y-85490476D01*
X180790476Y-85414285D01*
X180828571Y-85338095D01*
X180866666Y-85300000D01*
X180942857Y-85261904D01*
X181133333Y-85261904D01*
X181247619Y-85300000D01*
X181514285Y-85261904D02*
X181704761Y-86061904D01*
X181857142Y-85490476D01*
X182009523Y-86061904D01*
X182200000Y-85261904D01*
X182961904Y-85985714D02*
X182923809Y-86023809D01*
X182809523Y-86061904D01*
X182733333Y-86061904D01*
X182619047Y-86023809D01*
X182542857Y-85947619D01*
X182504761Y-85871428D01*
X182466666Y-85719047D01*
X182466666Y-85604761D01*
X182504761Y-85452380D01*
X182542857Y-85376190D01*
X182619047Y-85300000D01*
X182733333Y-85261904D01*
X182809523Y-85261904D01*
X182923809Y-85300000D01*
X182961904Y-85338095D01*
X183685714Y-86061904D02*
X183304761Y-86061904D01*
X183304761Y-85261904D01*
X183952380Y-86061904D02*
X183952380Y-85261904D01*
X184409523Y-86061904D02*
X184066666Y-85604761D01*
X184409523Y-85261904D02*
X183952380Y-85719047D01*
X170086158Y-59298155D02*
X170005346Y-59325093D01*
X169924534Y-59405905D01*
X169870659Y-59513654D01*
X169870659Y-59621404D01*
X169897597Y-59702216D01*
X169978409Y-59836903D01*
X170059221Y-59917715D01*
X170193908Y-59998528D01*
X170274720Y-60025465D01*
X170382470Y-60025465D01*
X170490219Y-59971590D01*
X170544094Y-59917715D01*
X170597969Y-59809966D01*
X170597969Y-59756091D01*
X170409407Y-59567529D01*
X170301658Y-59675279D01*
X170894280Y-59567529D02*
X170328595Y-59001844D01*
X171217529Y-59244280D01*
X170651844Y-58678595D01*
X171486903Y-58974906D02*
X170921218Y-58409221D01*
X171055905Y-58274534D01*
X171163654Y-58220659D01*
X171271404Y-58220659D01*
X171352216Y-58247597D01*
X171486903Y-58328409D01*
X171567715Y-58409221D01*
X171648528Y-58543908D01*
X171675465Y-58624720D01*
X171675465Y-58732470D01*
X171621590Y-58840219D01*
X171486903Y-58974906D01*
X195489847Y-64690592D02*
X195840033Y-64340406D01*
X195866971Y-64744467D01*
X195947783Y-64663654D01*
X196028595Y-64636717D01*
X196082470Y-64636717D01*
X196163282Y-64663654D01*
X196297969Y-64798341D01*
X196324906Y-64879154D01*
X196324906Y-64933028D01*
X196297969Y-65013841D01*
X196136345Y-65175465D01*
X196055532Y-65202402D01*
X196001658Y-65202402D01*
X196001658Y-64178781D02*
X196755905Y-64555905D01*
X196378781Y-63801658D01*
X196513468Y-63666971D02*
X196863654Y-63316784D01*
X196890592Y-63720845D01*
X196971404Y-63640033D01*
X197052216Y-63613096D01*
X197106091Y-63613096D01*
X197186903Y-63640033D01*
X197321590Y-63774720D01*
X197348528Y-63855532D01*
X197348528Y-63909407D01*
X197321590Y-63990219D01*
X197159966Y-64151844D01*
X197079154Y-64178781D01*
X197025279Y-64178781D01*
X195686158Y-97398155D02*
X195605346Y-97425093D01*
X195524534Y-97505905D01*
X195470659Y-97613654D01*
X195470659Y-97721404D01*
X195497597Y-97802216D01*
X195578409Y-97936903D01*
X195659221Y-98017715D01*
X195793908Y-98098528D01*
X195874720Y-98125465D01*
X195982470Y-98125465D01*
X196090219Y-98071590D01*
X196144094Y-98017715D01*
X196197969Y-97909966D01*
X196197969Y-97856091D01*
X196009407Y-97667529D01*
X195901658Y-97775279D01*
X196494280Y-97667529D02*
X195928595Y-97101844D01*
X196817529Y-97344280D01*
X196251844Y-96778595D01*
X197086903Y-97074906D02*
X196521218Y-96509221D01*
X196655905Y-96374534D01*
X196763654Y-96320659D01*
X196871404Y-96320659D01*
X196952216Y-96347597D01*
X197086903Y-96428409D01*
X197167715Y-96509221D01*
X197248528Y-96643908D01*
X197275465Y-96724720D01*
X197275465Y-96832470D01*
X197221590Y-96940219D01*
X197086903Y-97074906D01*
X169589722Y-95423092D02*
X169508910Y-95450029D01*
X169428097Y-95530841D01*
X169374223Y-95638591D01*
X169374223Y-95746341D01*
X169401160Y-95827153D01*
X169481972Y-95961840D01*
X169562784Y-96042652D01*
X169697471Y-96123464D01*
X169778284Y-96150402D01*
X169886033Y-96150402D01*
X169993783Y-96096527D01*
X170047658Y-96042652D01*
X170101532Y-95934902D01*
X170101532Y-95881028D01*
X169912971Y-95692466D01*
X169805221Y-95800215D01*
X170397844Y-95692466D02*
X169832158Y-95126780D01*
X170047658Y-94911281D01*
X170128470Y-94884344D01*
X170182345Y-94884344D01*
X170263157Y-94911281D01*
X170343969Y-94992093D01*
X170370906Y-95072906D01*
X170370906Y-95126780D01*
X170343969Y-95207593D01*
X170128470Y-95423092D01*
X171259841Y-94830469D02*
X170936592Y-95153718D01*
X171098216Y-94992093D02*
X170532531Y-94426408D01*
X170559468Y-94561095D01*
X170559468Y-94668845D01*
X170532531Y-94749657D01*
X170882717Y-94076222D02*
X171232903Y-93726036D01*
X171259841Y-94130097D01*
X171340653Y-94049284D01*
X171421465Y-94022347D01*
X171475340Y-94022347D01*
X171556152Y-94049284D01*
X171690839Y-94183971D01*
X171717776Y-94264784D01*
X171717776Y-94318658D01*
X171690839Y-94399471D01*
X171529215Y-94561095D01*
X171448402Y-94588032D01*
X171394528Y-94588032D01*
X169543722Y-100180592D02*
X169462910Y-100207529D01*
X169382097Y-100288341D01*
X169328223Y-100396091D01*
X169328223Y-100503841D01*
X169355160Y-100584653D01*
X169435972Y-100719340D01*
X169516784Y-100800152D01*
X169651471Y-100880964D01*
X169732284Y-100907902D01*
X169840033Y-100907902D01*
X169947783Y-100854027D01*
X170001658Y-100800152D01*
X170055532Y-100692402D01*
X170055532Y-100638528D01*
X169866971Y-100449966D01*
X169759221Y-100557715D01*
X170351844Y-100449966D02*
X169786158Y-99884280D01*
X170001658Y-99668781D01*
X170082470Y-99641844D01*
X170136345Y-99641844D01*
X170217157Y-99668781D01*
X170297969Y-99749593D01*
X170324906Y-99830406D01*
X170324906Y-99884280D01*
X170297969Y-99965093D01*
X170082470Y-100180592D01*
X171213841Y-99587969D02*
X170890592Y-99911218D01*
X171052216Y-99749593D02*
X170486531Y-99183908D01*
X170513468Y-99318595D01*
X170513468Y-99426345D01*
X170486531Y-99507157D01*
X171321590Y-98725972D02*
X171698714Y-99103096D01*
X170971404Y-98645160D02*
X171240778Y-99183908D01*
X171590964Y-98833722D01*
X170113096Y-74511218D02*
X170032284Y-74538155D01*
X169951471Y-74618967D01*
X169897597Y-74726717D01*
X169897597Y-74834467D01*
X169924534Y-74915279D01*
X170005346Y-75049966D01*
X170086158Y-75130778D01*
X170220845Y-75211590D01*
X170301658Y-75238528D01*
X170409407Y-75238528D01*
X170517157Y-75184653D01*
X170571032Y-75130778D01*
X170624906Y-75023028D01*
X170624906Y-74969154D01*
X170436345Y-74780592D01*
X170328595Y-74888341D01*
X170921218Y-74780592D02*
X170355532Y-74214906D01*
X170571032Y-73999407D01*
X170651844Y-73972470D01*
X170705719Y-73972470D01*
X170786531Y-73999407D01*
X170867343Y-74080219D01*
X170894280Y-74161032D01*
X170894280Y-74214906D01*
X170867343Y-74295719D01*
X170651844Y-74511218D01*
X171163654Y-73406784D02*
X171055905Y-73514534D01*
X171028967Y-73595346D01*
X171028967Y-73649221D01*
X171055905Y-73783908D01*
X171136717Y-73918595D01*
X171352216Y-74134094D01*
X171433028Y-74161032D01*
X171486903Y-74161032D01*
X171567715Y-74134094D01*
X171675465Y-74026345D01*
X171702402Y-73945532D01*
X171702402Y-73891658D01*
X171675465Y-73810845D01*
X171540778Y-73676158D01*
X171459966Y-73649221D01*
X171406091Y-73649221D01*
X171325279Y-73676158D01*
X171217529Y-73783908D01*
X171190592Y-73864720D01*
X171190592Y-73918595D01*
X171217529Y-73999407D01*
X195697722Y-92560592D02*
X195616910Y-92587529D01*
X195536097Y-92668341D01*
X195482223Y-92776091D01*
X195482223Y-92883841D01*
X195509160Y-92964653D01*
X195589972Y-93099340D01*
X195670784Y-93180152D01*
X195805471Y-93260964D01*
X195886284Y-93287902D01*
X195994033Y-93287902D01*
X196101783Y-93234027D01*
X196155658Y-93180152D01*
X196209532Y-93072402D01*
X196209532Y-93018528D01*
X196020971Y-92829966D01*
X195913221Y-92937715D01*
X196505844Y-92829966D02*
X195940158Y-92264280D01*
X196155658Y-92048781D01*
X196236470Y-92021844D01*
X196290345Y-92021844D01*
X196371157Y-92048781D01*
X196451969Y-92129593D01*
X196478906Y-92210406D01*
X196478906Y-92264280D01*
X196451969Y-92345093D01*
X196236470Y-92560592D01*
X197367841Y-91967969D02*
X197044592Y-92291218D01*
X197206216Y-92129593D02*
X196640531Y-91563908D01*
X196667468Y-91698595D01*
X196667468Y-91806345D01*
X196640531Y-91887157D01*
X197637215Y-91698595D02*
X197744964Y-91590845D01*
X197771902Y-91510033D01*
X197771902Y-91456158D01*
X197744964Y-91321471D01*
X197664152Y-91186784D01*
X197448653Y-90971285D01*
X197367841Y-90944348D01*
X197313966Y-90944348D01*
X197233154Y-90971285D01*
X197125404Y-91079035D01*
X197098467Y-91159847D01*
X197098467Y-91213722D01*
X197125404Y-91294534D01*
X197260091Y-91429221D01*
X197340903Y-91456158D01*
X197394778Y-91456158D01*
X197475590Y-91429221D01*
X197583340Y-91321471D01*
X197610277Y-91240659D01*
X197610277Y-91186784D01*
X197583340Y-91105972D01*
X196438375Y-80143435D02*
X195980439Y-80062622D01*
X196115126Y-80466683D02*
X195549441Y-79900998D01*
X195764940Y-79685499D01*
X195845752Y-79658561D01*
X195899627Y-79658561D01*
X195980439Y-79685499D01*
X196061251Y-79766311D01*
X196088189Y-79847123D01*
X196088189Y-79900998D01*
X196061251Y-79981810D01*
X195845752Y-80197309D01*
X196115126Y-79335312D02*
X196573062Y-79793248D01*
X196653874Y-79820186D01*
X196707749Y-79820186D01*
X196788561Y-79793248D01*
X196896311Y-79685499D01*
X196923248Y-79604687D01*
X196923248Y-79550812D01*
X196896311Y-79469999D01*
X196438375Y-79012064D01*
X197273435Y-79308375D02*
X196707749Y-78742690D01*
X197596683Y-78985126D01*
X197030998Y-78419441D01*
X170113096Y-82131218D02*
X170032284Y-82158155D01*
X169951471Y-82238967D01*
X169897597Y-82346717D01*
X169897597Y-82454467D01*
X169924534Y-82535279D01*
X170005346Y-82669966D01*
X170086158Y-82750778D01*
X170220845Y-82831590D01*
X170301658Y-82858528D01*
X170409407Y-82858528D01*
X170517157Y-82804653D01*
X170571032Y-82750778D01*
X170624906Y-82643028D01*
X170624906Y-82589154D01*
X170436345Y-82400592D01*
X170328595Y-82508341D01*
X170921218Y-82400592D02*
X170355532Y-81834906D01*
X170571032Y-81619407D01*
X170651844Y-81592470D01*
X170705719Y-81592470D01*
X170786531Y-81619407D01*
X170867343Y-81700219D01*
X170894280Y-81781032D01*
X170894280Y-81834906D01*
X170867343Y-81915719D01*
X170651844Y-82131218D01*
X171513841Y-81807969D02*
X171621590Y-81700219D01*
X171648528Y-81619407D01*
X171648528Y-81565532D01*
X171621590Y-81430845D01*
X171540778Y-81296158D01*
X171325279Y-81080659D01*
X171244467Y-81053722D01*
X171190592Y-81053722D01*
X171109780Y-81080659D01*
X171002030Y-81188409D01*
X170975093Y-81269221D01*
X170975093Y-81323096D01*
X171002030Y-81403908D01*
X171136717Y-81538595D01*
X171217529Y-81565532D01*
X171271404Y-81565532D01*
X171352216Y-81538595D01*
X171459966Y-81430845D01*
X171486903Y-81350033D01*
X171486903Y-81296158D01*
X171459966Y-81215346D01*
X187404761Y-86523809D02*
X187519047Y-86561904D01*
X187709523Y-86561904D01*
X187785714Y-86523809D01*
X187823809Y-86485714D01*
X187861904Y-86409523D01*
X187861904Y-86333333D01*
X187823809Y-86257142D01*
X187785714Y-86219047D01*
X187709523Y-86180952D01*
X187557142Y-86142857D01*
X187480952Y-86104761D01*
X187442857Y-86066666D01*
X187404761Y-85990476D01*
X187404761Y-85914285D01*
X187442857Y-85838095D01*
X187480952Y-85800000D01*
X187557142Y-85761904D01*
X187747619Y-85761904D01*
X187861904Y-85800000D01*
X188128571Y-85761904D02*
X188319047Y-86561904D01*
X188471428Y-85990476D01*
X188623809Y-86561904D01*
X188814285Y-85761904D01*
X189119047Y-86561904D02*
X189119047Y-85761904D01*
X189309523Y-85761904D01*
X189423809Y-85800000D01*
X189500000Y-85876190D01*
X189538095Y-85952380D01*
X189576190Y-86104761D01*
X189576190Y-86219047D01*
X189538095Y-86371428D01*
X189500000Y-86447619D01*
X189423809Y-86523809D01*
X189309523Y-86561904D01*
X189119047Y-86561904D01*
X189919047Y-86561904D02*
X189919047Y-85761904D01*
X190452380Y-85761904D02*
X190604761Y-85761904D01*
X190680952Y-85800000D01*
X190757142Y-85876190D01*
X190795238Y-86028571D01*
X190795238Y-86295238D01*
X190757142Y-86447619D01*
X190680952Y-86523809D01*
X190604761Y-86561904D01*
X190452380Y-86561904D01*
X190376190Y-86523809D01*
X190300000Y-86447619D01*
X190261904Y-86295238D01*
X190261904Y-86028571D01*
X190300000Y-85876190D01*
X190376190Y-85800000D01*
X190452380Y-85761904D01*
X195522131Y-62158308D02*
X195872317Y-61808122D01*
X195899255Y-62212183D01*
X195980067Y-62131370D01*
X196060879Y-62104433D01*
X196114754Y-62104433D01*
X196195566Y-62131370D01*
X196330253Y-62266057D01*
X196357190Y-62346870D01*
X196357190Y-62400744D01*
X196330253Y-62481557D01*
X196168629Y-62643181D01*
X196087816Y-62670118D01*
X196033942Y-62670118D01*
X196033942Y-61646497D02*
X196788189Y-62023621D01*
X196411065Y-61269374D01*
X196545752Y-61134687D02*
X196895938Y-60784500D01*
X196922876Y-61188561D01*
X197003688Y-61107749D01*
X197084500Y-61080812D01*
X197138375Y-61080812D01*
X197219187Y-61107749D01*
X197353874Y-61242436D01*
X197380812Y-61323248D01*
X197380812Y-61377123D01*
X197353874Y-61457935D01*
X197192250Y-61619560D01*
X197111438Y-61646497D01*
X197057563Y-61646497D01*
X197623248Y-61296311D02*
X198054247Y-60865312D01*
X197838748Y-60380439D02*
X198027309Y-60191877D01*
X198404433Y-60407377D02*
X198135059Y-60676751D01*
X197569374Y-60111065D01*
X197838748Y-59841691D01*
X198646870Y-60164940D02*
X198081184Y-59599255D01*
X198970118Y-59841691D01*
X198404433Y-59276006D01*
X195520473Y-57269966D02*
X196274720Y-57647089D01*
X195897597Y-56892842D01*
X196597969Y-57269966D02*
X196705719Y-57216091D01*
X196840406Y-57081404D01*
X196867343Y-57000592D01*
X196867343Y-56946717D01*
X196840406Y-56865905D01*
X196786531Y-56812030D01*
X196705719Y-56785093D01*
X196651844Y-56785093D01*
X196571032Y-56812030D01*
X196436345Y-56892842D01*
X196355532Y-56919780D01*
X196301658Y-56919780D01*
X196220845Y-56892842D01*
X196166971Y-56838967D01*
X196140033Y-56758155D01*
X196140033Y-56704280D01*
X196166971Y-56623468D01*
X196301658Y-56488781D01*
X196409407Y-56434906D01*
X197028967Y-56354094D02*
X197298341Y-56623468D01*
X196544094Y-56246345D02*
X197028967Y-56354094D01*
X196921218Y-55869221D01*
X197621590Y-56246345D02*
X197729340Y-56192470D01*
X197864027Y-56057783D01*
X197890964Y-55976971D01*
X197890964Y-55923096D01*
X197864027Y-55842284D01*
X197810152Y-55788409D01*
X197729340Y-55761471D01*
X197675465Y-55761471D01*
X197594653Y-55788409D01*
X197459966Y-55869221D01*
X197379154Y-55896158D01*
X197325279Y-55896158D01*
X197244467Y-55869221D01*
X197190592Y-55815346D01*
X197163654Y-55734534D01*
X197163654Y-55680659D01*
X197190592Y-55599847D01*
X197325279Y-55465160D01*
X197433028Y-55411285D01*
X169589722Y-102720592D02*
X169508910Y-102747529D01*
X169428097Y-102828341D01*
X169374223Y-102936091D01*
X169374223Y-103043841D01*
X169401160Y-103124653D01*
X169481972Y-103259340D01*
X169562784Y-103340152D01*
X169697471Y-103420964D01*
X169778284Y-103447902D01*
X169886033Y-103447902D01*
X169993783Y-103394027D01*
X170047658Y-103340152D01*
X170101532Y-103232402D01*
X170101532Y-103178528D01*
X169912971Y-102989966D01*
X169805221Y-103097715D01*
X170397844Y-102989966D02*
X169832158Y-102424280D01*
X170047658Y-102208781D01*
X170128470Y-102181844D01*
X170182345Y-102181844D01*
X170263157Y-102208781D01*
X170343969Y-102289593D01*
X170370906Y-102370406D01*
X170370906Y-102424280D01*
X170343969Y-102505093D01*
X170128470Y-102720592D01*
X171259841Y-102127969D02*
X170936592Y-102451218D01*
X171098216Y-102289593D02*
X170532531Y-101723908D01*
X170559468Y-101858595D01*
X170559468Y-101966345D01*
X170532531Y-102047157D01*
X171205966Y-101050473D02*
X170936592Y-101319847D01*
X171179028Y-101616158D01*
X171179028Y-101562284D01*
X171205966Y-101481471D01*
X171340653Y-101346784D01*
X171421465Y-101319847D01*
X171475340Y-101319847D01*
X171556152Y-101346784D01*
X171690839Y-101481471D01*
X171717776Y-101562284D01*
X171717776Y-101616158D01*
X171690839Y-101696971D01*
X171556152Y-101831658D01*
X171475340Y-101858595D01*
X171421465Y-101858595D01*
X170086158Y-71998155D02*
X170005346Y-72025093D01*
X169924534Y-72105905D01*
X169870659Y-72213654D01*
X169870659Y-72321404D01*
X169897597Y-72402216D01*
X169978409Y-72536903D01*
X170059221Y-72617715D01*
X170193908Y-72698528D01*
X170274720Y-72725465D01*
X170382470Y-72725465D01*
X170490219Y-72671590D01*
X170544094Y-72617715D01*
X170597969Y-72509966D01*
X170597969Y-72456091D01*
X170409407Y-72267529D01*
X170301658Y-72375279D01*
X170894280Y-72267529D02*
X170328595Y-71701844D01*
X171217529Y-71944280D01*
X170651844Y-71378595D01*
X171486903Y-71674906D02*
X170921218Y-71109221D01*
X171055905Y-70974534D01*
X171163654Y-70920659D01*
X171271404Y-70920659D01*
X171352216Y-70947597D01*
X171486903Y-71028409D01*
X171567715Y-71109221D01*
X171648528Y-71243908D01*
X171675465Y-71324720D01*
X171675465Y-71432470D01*
X171621590Y-71540219D01*
X171486903Y-71674906D01*
X195686158Y-84698155D02*
X195605346Y-84725093D01*
X195524534Y-84805905D01*
X195470659Y-84913654D01*
X195470659Y-85021404D01*
X195497597Y-85102216D01*
X195578409Y-85236903D01*
X195659221Y-85317715D01*
X195793908Y-85398528D01*
X195874720Y-85425465D01*
X195982470Y-85425465D01*
X196090219Y-85371590D01*
X196144094Y-85317715D01*
X196197969Y-85209966D01*
X196197969Y-85156091D01*
X196009407Y-84967529D01*
X195901658Y-85075279D01*
X196494280Y-84967529D02*
X195928595Y-84401844D01*
X196817529Y-84644280D01*
X196251844Y-84078595D01*
X197086903Y-84374906D02*
X196521218Y-83809221D01*
X196655905Y-83674534D01*
X196763654Y-83620659D01*
X196871404Y-83620659D01*
X196952216Y-83647597D01*
X197086903Y-83728409D01*
X197167715Y-83809221D01*
X197248528Y-83943908D01*
X197275465Y-84024720D01*
X197275465Y-84132470D01*
X197221590Y-84240219D01*
X197086903Y-84374906D01*
X195686158Y-59298155D02*
X195605346Y-59325093D01*
X195524534Y-59405905D01*
X195470659Y-59513654D01*
X195470659Y-59621404D01*
X195497597Y-59702216D01*
X195578409Y-59836903D01*
X195659221Y-59917715D01*
X195793908Y-59998528D01*
X195874720Y-60025465D01*
X195982470Y-60025465D01*
X196090219Y-59971590D01*
X196144094Y-59917715D01*
X196197969Y-59809966D01*
X196197969Y-59756091D01*
X196009407Y-59567529D01*
X195901658Y-59675279D01*
X196494280Y-59567529D02*
X195928595Y-59001844D01*
X196817529Y-59244280D01*
X196251844Y-58678595D01*
X197086903Y-58974906D02*
X196521218Y-58409221D01*
X196655905Y-58274534D01*
X196763654Y-58220659D01*
X196871404Y-58220659D01*
X196952216Y-58247597D01*
X197086903Y-58328409D01*
X197167715Y-58409221D01*
X197248528Y-58543908D01*
X197275465Y-58624720D01*
X197275465Y-58732470D01*
X197221590Y-58840219D01*
X197086903Y-58974906D01*
X195697722Y-77320592D02*
X195616910Y-77347529D01*
X195536097Y-77428341D01*
X195482223Y-77536091D01*
X195482223Y-77643841D01*
X195509160Y-77724653D01*
X195589972Y-77859340D01*
X195670784Y-77940152D01*
X195805471Y-78020964D01*
X195886284Y-78047902D01*
X195994033Y-78047902D01*
X196101783Y-77994027D01*
X196155658Y-77940152D01*
X196209532Y-77832402D01*
X196209532Y-77778528D01*
X196020971Y-77589966D01*
X195913221Y-77697715D01*
X196505844Y-77589966D02*
X195940158Y-77024280D01*
X196155658Y-76808781D01*
X196236470Y-76781844D01*
X196290345Y-76781844D01*
X196371157Y-76808781D01*
X196451969Y-76889593D01*
X196478906Y-76970406D01*
X196478906Y-77024280D01*
X196451969Y-77105093D01*
X196236470Y-77320592D01*
X196532781Y-76539407D02*
X196532781Y-76485532D01*
X196559719Y-76404720D01*
X196694406Y-76270033D01*
X196775218Y-76243096D01*
X196829093Y-76243096D01*
X196909905Y-76270033D01*
X196963780Y-76323908D01*
X197017654Y-76431658D01*
X197017654Y-77078155D01*
X197367841Y-76727969D01*
X197287028Y-75677410D02*
X197179279Y-75785160D01*
X197152341Y-75865972D01*
X197152341Y-75919847D01*
X197179279Y-76054534D01*
X197260091Y-76189221D01*
X197475590Y-76404720D01*
X197556402Y-76431658D01*
X197610277Y-76431658D01*
X197691089Y-76404720D01*
X197798839Y-76296971D01*
X197825776Y-76216158D01*
X197825776Y-76162284D01*
X197798839Y-76081471D01*
X197664152Y-75946784D01*
X197583340Y-75919847D01*
X197529465Y-75919847D01*
X197448653Y-75946784D01*
X197340903Y-76054534D01*
X197313966Y-76135346D01*
X197313966Y-76189221D01*
X197340903Y-76270033D01*
X170113096Y-66891218D02*
X170032284Y-66918155D01*
X169951471Y-66998967D01*
X169897597Y-67106717D01*
X169897597Y-67214467D01*
X169924534Y-67295279D01*
X170005346Y-67429966D01*
X170086158Y-67510778D01*
X170220845Y-67591590D01*
X170301658Y-67618528D01*
X170409407Y-67618528D01*
X170517157Y-67564653D01*
X170571032Y-67510778D01*
X170624906Y-67403028D01*
X170624906Y-67349154D01*
X170436345Y-67160592D01*
X170328595Y-67268341D01*
X170921218Y-67160592D02*
X170355532Y-66594906D01*
X170571032Y-66379407D01*
X170651844Y-66352470D01*
X170705719Y-66352470D01*
X170786531Y-66379407D01*
X170867343Y-66460219D01*
X170894280Y-66541032D01*
X170894280Y-66594906D01*
X170867343Y-66675719D01*
X170651844Y-66891218D01*
X171352216Y-65975346D02*
X171729340Y-66352470D01*
X171002030Y-65894534D02*
X171271404Y-66433282D01*
X171621590Y-66083096D01*
X195697722Y-90020592D02*
X195616910Y-90047529D01*
X195536097Y-90128341D01*
X195482223Y-90236091D01*
X195482223Y-90343841D01*
X195509160Y-90424653D01*
X195589972Y-90559340D01*
X195670784Y-90640152D01*
X195805471Y-90720964D01*
X195886284Y-90747902D01*
X195994033Y-90747902D01*
X196101783Y-90694027D01*
X196155658Y-90640152D01*
X196209532Y-90532402D01*
X196209532Y-90478528D01*
X196020971Y-90289966D01*
X195913221Y-90397715D01*
X196505844Y-90289966D02*
X195940158Y-89724280D01*
X196155658Y-89508781D01*
X196236470Y-89481844D01*
X196290345Y-89481844D01*
X196371157Y-89508781D01*
X196451969Y-89589593D01*
X196478906Y-89670406D01*
X196478906Y-89724280D01*
X196451969Y-89805093D01*
X196236470Y-90020592D01*
X196532781Y-89239407D02*
X196532781Y-89185532D01*
X196559719Y-89104720D01*
X196694406Y-88970033D01*
X196775218Y-88943096D01*
X196829093Y-88943096D01*
X196909905Y-88970033D01*
X196963780Y-89023908D01*
X197017654Y-89131658D01*
X197017654Y-89778155D01*
X197367841Y-89427969D01*
X197152341Y-88512097D02*
X197206216Y-88458223D01*
X197287028Y-88431285D01*
X197340903Y-88431285D01*
X197421715Y-88458223D01*
X197556402Y-88539035D01*
X197691089Y-88673722D01*
X197771902Y-88808409D01*
X197798839Y-88889221D01*
X197798839Y-88943096D01*
X197771902Y-89023908D01*
X197718027Y-89077783D01*
X197637215Y-89104720D01*
X197583340Y-89104720D01*
X197502528Y-89077783D01*
X197367841Y-88996971D01*
X197233154Y-88862284D01*
X197152341Y-88727597D01*
X197125404Y-88646784D01*
X197125404Y-88592910D01*
X197152341Y-88512097D01*
X195697722Y-102720592D02*
X195616910Y-102747529D01*
X195536097Y-102828341D01*
X195482223Y-102936091D01*
X195482223Y-103043841D01*
X195509160Y-103124653D01*
X195589972Y-103259340D01*
X195670784Y-103340152D01*
X195805471Y-103420964D01*
X195886284Y-103447902D01*
X195994033Y-103447902D01*
X196101783Y-103394027D01*
X196155658Y-103340152D01*
X196209532Y-103232402D01*
X196209532Y-103178528D01*
X196020971Y-102989966D01*
X195913221Y-103097715D01*
X196505844Y-102989966D02*
X195940158Y-102424280D01*
X196155658Y-102208781D01*
X196236470Y-102181844D01*
X196290345Y-102181844D01*
X196371157Y-102208781D01*
X196451969Y-102289593D01*
X196478906Y-102370406D01*
X196478906Y-102424280D01*
X196451969Y-102505093D01*
X196236470Y-102720592D01*
X197367841Y-102127969D02*
X197044592Y-102451218D01*
X197206216Y-102289593D02*
X196640531Y-101723908D01*
X196667468Y-101858595D01*
X196667468Y-101966345D01*
X196640531Y-102047157D01*
X197287028Y-101077410D02*
X197179279Y-101185160D01*
X197152341Y-101265972D01*
X197152341Y-101319847D01*
X197179279Y-101454534D01*
X197260091Y-101589221D01*
X197475590Y-101804720D01*
X197556402Y-101831658D01*
X197610277Y-101831658D01*
X197691089Y-101804720D01*
X197798839Y-101696971D01*
X197825776Y-101616158D01*
X197825776Y-101562284D01*
X197798839Y-101481471D01*
X197664152Y-101346784D01*
X197583340Y-101319847D01*
X197529465Y-101319847D01*
X197448653Y-101346784D01*
X197340903Y-101454534D01*
X197313966Y-101535346D01*
X197313966Y-101589221D01*
X197340903Y-101670033D01*
X195697722Y-82400592D02*
X195616910Y-82427529D01*
X195536097Y-82508341D01*
X195482223Y-82616091D01*
X195482223Y-82723841D01*
X195509160Y-82804653D01*
X195589972Y-82939340D01*
X195670784Y-83020152D01*
X195805471Y-83100964D01*
X195886284Y-83127902D01*
X195994033Y-83127902D01*
X196101783Y-83074027D01*
X196155658Y-83020152D01*
X196209532Y-82912402D01*
X196209532Y-82858528D01*
X196020971Y-82669966D01*
X195913221Y-82777715D01*
X196505844Y-82669966D02*
X195940158Y-82104280D01*
X196155658Y-81888781D01*
X196236470Y-81861844D01*
X196290345Y-81861844D01*
X196371157Y-81888781D01*
X196451969Y-81969593D01*
X196478906Y-82050406D01*
X196478906Y-82104280D01*
X196451969Y-82185093D01*
X196236470Y-82400592D01*
X196532781Y-81619407D02*
X196532781Y-81565532D01*
X196559719Y-81484720D01*
X196694406Y-81350033D01*
X196775218Y-81323096D01*
X196829093Y-81323096D01*
X196909905Y-81350033D01*
X196963780Y-81403908D01*
X197017654Y-81511658D01*
X197017654Y-82158155D01*
X197367841Y-81807969D01*
X197071529Y-81080659D02*
X197071529Y-81026784D01*
X197098467Y-80945972D01*
X197233154Y-80811285D01*
X197313966Y-80784348D01*
X197367841Y-80784348D01*
X197448653Y-80811285D01*
X197502528Y-80865160D01*
X197556402Y-80972910D01*
X197556402Y-81619407D01*
X197906589Y-81269221D01*
X195697722Y-95100592D02*
X195616910Y-95127529D01*
X195536097Y-95208341D01*
X195482223Y-95316091D01*
X195482223Y-95423841D01*
X195509160Y-95504653D01*
X195589972Y-95639340D01*
X195670784Y-95720152D01*
X195805471Y-95800964D01*
X195886284Y-95827902D01*
X195994033Y-95827902D01*
X196101783Y-95774027D01*
X196155658Y-95720152D01*
X196209532Y-95612402D01*
X196209532Y-95558528D01*
X196020971Y-95369966D01*
X195913221Y-95477715D01*
X196505844Y-95369966D02*
X195940158Y-94804280D01*
X196155658Y-94588781D01*
X196236470Y-94561844D01*
X196290345Y-94561844D01*
X196371157Y-94588781D01*
X196451969Y-94669593D01*
X196478906Y-94750406D01*
X196478906Y-94804280D01*
X196451969Y-94885093D01*
X196236470Y-95100592D01*
X197367841Y-94507969D02*
X197044592Y-94831218D01*
X197206216Y-94669593D02*
X196640531Y-94103908D01*
X196667468Y-94238595D01*
X196667468Y-94346345D01*
X196640531Y-94427157D01*
X197367841Y-93861471D02*
X197287028Y-93888409D01*
X197233154Y-93888409D01*
X197152341Y-93861471D01*
X197125404Y-93834534D01*
X197098467Y-93753722D01*
X197098467Y-93699847D01*
X197125404Y-93619035D01*
X197233154Y-93511285D01*
X197313966Y-93484348D01*
X197367841Y-93484348D01*
X197448653Y-93511285D01*
X197475590Y-93538223D01*
X197502528Y-93619035D01*
X197502528Y-93672910D01*
X197475590Y-93753722D01*
X197367841Y-93861471D01*
X197340903Y-93942284D01*
X197340903Y-93996158D01*
X197367841Y-94076971D01*
X197475590Y-94184720D01*
X197556402Y-94211658D01*
X197610277Y-94211658D01*
X197691089Y-94184720D01*
X197798839Y-94076971D01*
X197825776Y-93996158D01*
X197825776Y-93942284D01*
X197798839Y-93861471D01*
X197691089Y-93753722D01*
X197610277Y-93726784D01*
X197556402Y-93726784D01*
X197475590Y-93753722D01*
X170113096Y-79591218D02*
X170032284Y-79618155D01*
X169951471Y-79698967D01*
X169897597Y-79806717D01*
X169897597Y-79914467D01*
X169924534Y-79995279D01*
X170005346Y-80129966D01*
X170086158Y-80210778D01*
X170220845Y-80291590D01*
X170301658Y-80318528D01*
X170409407Y-80318528D01*
X170517157Y-80264653D01*
X170571032Y-80210778D01*
X170624906Y-80103028D01*
X170624906Y-80049154D01*
X170436345Y-79860592D01*
X170328595Y-79968341D01*
X170921218Y-79860592D02*
X170355532Y-79294906D01*
X170571032Y-79079407D01*
X170651844Y-79052470D01*
X170705719Y-79052470D01*
X170786531Y-79079407D01*
X170867343Y-79160219D01*
X170894280Y-79241032D01*
X170894280Y-79294906D01*
X170867343Y-79375719D01*
X170651844Y-79591218D01*
X171244467Y-78890845D02*
X171163654Y-78917783D01*
X171109780Y-78917783D01*
X171028967Y-78890845D01*
X171002030Y-78863908D01*
X170975093Y-78783096D01*
X170975093Y-78729221D01*
X171002030Y-78648409D01*
X171109780Y-78540659D01*
X171190592Y-78513722D01*
X171244467Y-78513722D01*
X171325279Y-78540659D01*
X171352216Y-78567597D01*
X171379154Y-78648409D01*
X171379154Y-78702284D01*
X171352216Y-78783096D01*
X171244467Y-78890845D01*
X171217529Y-78971658D01*
X171217529Y-79025532D01*
X171244467Y-79106345D01*
X171352216Y-79214094D01*
X171433028Y-79241032D01*
X171486903Y-79241032D01*
X171567715Y-79214094D01*
X171675465Y-79106345D01*
X171702402Y-79025532D01*
X171702402Y-78971658D01*
X171675465Y-78890845D01*
X171567715Y-78783096D01*
X171486903Y-78756158D01*
X171433028Y-78756158D01*
X171352216Y-78783096D01*
X169589722Y-87480592D02*
X169508910Y-87507529D01*
X169428097Y-87588341D01*
X169374223Y-87696091D01*
X169374223Y-87803841D01*
X169401160Y-87884653D01*
X169481972Y-88019340D01*
X169562784Y-88100152D01*
X169697471Y-88180964D01*
X169778284Y-88207902D01*
X169886033Y-88207902D01*
X169993783Y-88154027D01*
X170047658Y-88100152D01*
X170101532Y-87992402D01*
X170101532Y-87938528D01*
X169912971Y-87749966D01*
X169805221Y-87857715D01*
X170397844Y-87749966D02*
X169832158Y-87184280D01*
X170047658Y-86968781D01*
X170128470Y-86941844D01*
X170182345Y-86941844D01*
X170263157Y-86968781D01*
X170343969Y-87049593D01*
X170370906Y-87130406D01*
X170370906Y-87184280D01*
X170343969Y-87265093D01*
X170128470Y-87480592D01*
X171259841Y-86887969D02*
X170936592Y-87211218D01*
X171098216Y-87049593D02*
X170532531Y-86483908D01*
X170559468Y-86618595D01*
X170559468Y-86726345D01*
X170532531Y-86807157D01*
X171044341Y-85972097D02*
X171098216Y-85918223D01*
X171179028Y-85891285D01*
X171232903Y-85891285D01*
X171313715Y-85918223D01*
X171448402Y-85999035D01*
X171583089Y-86133722D01*
X171663902Y-86268409D01*
X171690839Y-86349221D01*
X171690839Y-86403096D01*
X171663902Y-86483908D01*
X171610027Y-86537783D01*
X171529215Y-86564720D01*
X171475340Y-86564720D01*
X171394528Y-86537783D01*
X171259841Y-86456971D01*
X171125154Y-86322284D01*
X171044341Y-86187597D01*
X171017404Y-86106784D01*
X171017404Y-86052910D01*
X171044341Y-85972097D01*
X195387973Y-67117466D02*
X196142220Y-67494589D01*
X195765097Y-66740342D01*
X196842593Y-66794217D02*
X196384657Y-66713405D01*
X196519344Y-67117466D02*
X195953658Y-66551780D01*
X196169158Y-66336281D01*
X196249970Y-66309344D01*
X196303845Y-66309344D01*
X196384657Y-66336281D01*
X196465469Y-66417093D01*
X196492406Y-66497906D01*
X196492406Y-66551780D01*
X196465469Y-66632593D01*
X196249970Y-66848092D01*
X196788718Y-66255469D02*
X196977280Y-66066907D01*
X197354403Y-66282406D02*
X197085029Y-66551780D01*
X196519344Y-65986095D01*
X196788718Y-65716721D01*
X197489090Y-65555097D02*
X197300528Y-65743658D01*
X197596840Y-66039970D02*
X197031154Y-65474284D01*
X197300528Y-65204910D01*
X170113096Y-69431218D02*
X170032284Y-69458155D01*
X169951471Y-69538967D01*
X169897597Y-69646717D01*
X169897597Y-69754467D01*
X169924534Y-69835279D01*
X170005346Y-69969966D01*
X170086158Y-70050778D01*
X170220845Y-70131590D01*
X170301658Y-70158528D01*
X170409407Y-70158528D01*
X170517157Y-70104653D01*
X170571032Y-70050778D01*
X170624906Y-69943028D01*
X170624906Y-69889154D01*
X170436345Y-69700592D01*
X170328595Y-69808341D01*
X170921218Y-69700592D02*
X170355532Y-69134906D01*
X170571032Y-68919407D01*
X170651844Y-68892470D01*
X170705719Y-68892470D01*
X170786531Y-68919407D01*
X170867343Y-69000219D01*
X170894280Y-69081032D01*
X170894280Y-69134906D01*
X170867343Y-69215719D01*
X170651844Y-69431218D01*
X171190592Y-68299847D02*
X170921218Y-68569221D01*
X171163654Y-68865532D01*
X171163654Y-68811658D01*
X171190592Y-68730845D01*
X171325279Y-68596158D01*
X171406091Y-68569221D01*
X171459966Y-68569221D01*
X171540778Y-68596158D01*
X171675465Y-68730845D01*
X171702402Y-68811658D01*
X171702402Y-68865532D01*
X171675465Y-68946345D01*
X171540778Y-69081032D01*
X171459966Y-69107969D01*
X171406091Y-69107969D01*
X195697722Y-87490592D02*
X195616910Y-87517529D01*
X195536097Y-87598341D01*
X195482223Y-87706091D01*
X195482223Y-87813841D01*
X195509160Y-87894653D01*
X195589972Y-88029340D01*
X195670784Y-88110152D01*
X195805471Y-88190964D01*
X195886284Y-88217902D01*
X195994033Y-88217902D01*
X196101783Y-88164027D01*
X196155658Y-88110152D01*
X196209532Y-88002402D01*
X196209532Y-87948528D01*
X196020971Y-87759966D01*
X195913221Y-87867715D01*
X196505844Y-87759966D02*
X195940158Y-87194280D01*
X196155658Y-86978781D01*
X196236470Y-86951844D01*
X196290345Y-86951844D01*
X196371157Y-86978781D01*
X196451969Y-87059593D01*
X196478906Y-87140406D01*
X196478906Y-87194280D01*
X196451969Y-87275093D01*
X196236470Y-87490592D01*
X196532781Y-86709407D02*
X196532781Y-86655532D01*
X196559719Y-86574720D01*
X196694406Y-86440033D01*
X196775218Y-86413096D01*
X196829093Y-86413096D01*
X196909905Y-86440033D01*
X196963780Y-86493908D01*
X197017654Y-86601658D01*
X197017654Y-87248155D01*
X197367841Y-86897969D01*
X197906589Y-86359221D02*
X197583340Y-86682470D01*
X197744964Y-86520845D02*
X197179279Y-85955160D01*
X197206216Y-86089847D01*
X197206216Y-86197597D01*
X197179279Y-86278409D01*
X170086158Y-84698155D02*
X170005346Y-84725093D01*
X169924534Y-84805905D01*
X169870659Y-84913654D01*
X169870659Y-85021404D01*
X169897597Y-85102216D01*
X169978409Y-85236903D01*
X170059221Y-85317715D01*
X170193908Y-85398528D01*
X170274720Y-85425465D01*
X170382470Y-85425465D01*
X170490219Y-85371590D01*
X170544094Y-85317715D01*
X170597969Y-85209966D01*
X170597969Y-85156091D01*
X170409407Y-84967529D01*
X170301658Y-85075279D01*
X170894280Y-84967529D02*
X170328595Y-84401844D01*
X171217529Y-84644280D01*
X170651844Y-84078595D01*
X171486903Y-84374906D02*
X170921218Y-83809221D01*
X171055905Y-83674534D01*
X171163654Y-83620659D01*
X171271404Y-83620659D01*
X171352216Y-83647597D01*
X171486903Y-83728409D01*
X171567715Y-83809221D01*
X171648528Y-83943908D01*
X171675465Y-84024720D01*
X171675465Y-84132470D01*
X171621590Y-84240219D01*
X171486903Y-84374906D01*
X170113096Y-54191218D02*
X170032284Y-54218155D01*
X169951471Y-54298967D01*
X169897597Y-54406717D01*
X169897597Y-54514467D01*
X169924534Y-54595279D01*
X170005346Y-54729966D01*
X170086158Y-54810778D01*
X170220845Y-54891590D01*
X170301658Y-54918528D01*
X170409407Y-54918528D01*
X170517157Y-54864653D01*
X170571032Y-54810778D01*
X170624906Y-54703028D01*
X170624906Y-54649154D01*
X170436345Y-54460592D01*
X170328595Y-54568341D01*
X170921218Y-54460592D02*
X170355532Y-53894906D01*
X170571032Y-53679407D01*
X170651844Y-53652470D01*
X170705719Y-53652470D01*
X170786531Y-53679407D01*
X170867343Y-53760219D01*
X170894280Y-53841032D01*
X170894280Y-53894906D01*
X170867343Y-53975719D01*
X170651844Y-54191218D01*
X171028967Y-53221471D02*
X171082842Y-53167597D01*
X171163654Y-53140659D01*
X171217529Y-53140659D01*
X171298341Y-53167597D01*
X171433028Y-53248409D01*
X171567715Y-53383096D01*
X171648528Y-53517783D01*
X171675465Y-53598595D01*
X171675465Y-53652470D01*
X171648528Y-53733282D01*
X171594653Y-53787157D01*
X171513841Y-53814094D01*
X171459966Y-53814094D01*
X171379154Y-53787157D01*
X171244467Y-53706345D01*
X171109780Y-53571658D01*
X171028967Y-53436971D01*
X171002030Y-53356158D01*
X171002030Y-53302284D01*
X171028967Y-53221471D01*
X195553129Y-54727309D02*
X196307377Y-55104433D01*
X195930253Y-54350186D01*
X196576751Y-54242436D02*
X196684500Y-54188561D01*
X196738375Y-54188561D01*
X196819187Y-54215499D01*
X196900000Y-54296311D01*
X196926937Y-54377123D01*
X196926937Y-54430998D01*
X196900000Y-54511810D01*
X196684500Y-54727309D01*
X196118815Y-54161624D01*
X196307377Y-53973062D01*
X196388189Y-53946125D01*
X196442064Y-53946125D01*
X196522876Y-53973062D01*
X196576751Y-54026937D01*
X196603688Y-54107749D01*
X196603688Y-54161624D01*
X196576751Y-54242436D01*
X196388189Y-54430998D01*
X196684500Y-53595938D02*
X197142436Y-54053874D01*
X197223248Y-54080812D01*
X197277123Y-54080812D01*
X197357935Y-54053874D01*
X197465685Y-53946125D01*
X197492622Y-53865312D01*
X197492622Y-53811438D01*
X197465685Y-53730625D01*
X197007749Y-53272690D01*
X197788934Y-53569001D02*
X197896683Y-53515126D01*
X198031370Y-53380439D01*
X198058308Y-53299627D01*
X198058308Y-53245752D01*
X198031370Y-53164940D01*
X197977496Y-53111065D01*
X197896683Y-53084128D01*
X197842809Y-53084128D01*
X197761996Y-53111065D01*
X197627309Y-53191877D01*
X197546497Y-53218815D01*
X197492622Y-53218815D01*
X197411810Y-53191877D01*
X197357935Y-53138003D01*
X197330998Y-53057190D01*
X197330998Y-53003316D01*
X197357935Y-52922503D01*
X197492622Y-52787816D01*
X197600372Y-52733942D01*
X170013096Y-56721218D02*
X169932284Y-56748155D01*
X169851471Y-56828967D01*
X169797597Y-56936717D01*
X169797597Y-57044467D01*
X169824534Y-57125279D01*
X169905346Y-57259966D01*
X169986158Y-57340778D01*
X170120845Y-57421590D01*
X170201658Y-57448528D01*
X170309407Y-57448528D01*
X170417157Y-57394653D01*
X170471032Y-57340778D01*
X170524906Y-57233028D01*
X170524906Y-57179154D01*
X170336345Y-56990592D01*
X170228595Y-57098341D01*
X170821218Y-56990592D02*
X170255532Y-56424906D01*
X170471032Y-56209407D01*
X170551844Y-56182470D01*
X170605719Y-56182470D01*
X170686531Y-56209407D01*
X170767343Y-56290219D01*
X170794280Y-56371032D01*
X170794280Y-56424906D01*
X170767343Y-56505719D01*
X170551844Y-56721218D01*
X171683215Y-56128595D02*
X171359966Y-56451844D01*
X171521590Y-56290219D02*
X170955905Y-55724534D01*
X170982842Y-55859221D01*
X170982842Y-55966971D01*
X170955905Y-56047783D01*
D11*
%TO.C,J1*%
X105456840Y-59841131D02*
X105456840Y-60276560D01*
X105427811Y-60363645D01*
X105369754Y-60421702D01*
X105282668Y-60450731D01*
X105224611Y-60450731D01*
X106066440Y-60450731D02*
X105718097Y-60450731D01*
X105892268Y-60450731D02*
X105892268Y-59841131D01*
X105834211Y-59928217D01*
X105776154Y-59986274D01*
X105718097Y-60015302D01*
X103787697Y-111457560D02*
X104077982Y-111457560D01*
X103729640Y-111631731D02*
X103932840Y-111022131D01*
X104136040Y-111631731D01*
X104252154Y-111022131D02*
X104600497Y-111022131D01*
X104426325Y-111631731D02*
X104426325Y-111022131D01*
X104745640Y-111022131D02*
X105152040Y-111631731D01*
X105152040Y-111022131D02*
X104745640Y-111631731D01*
X105355240Y-111080188D02*
X105384268Y-111051160D01*
X105442325Y-111022131D01*
X105587468Y-111022131D01*
X105645525Y-111051160D01*
X105674554Y-111080188D01*
X105703582Y-111138245D01*
X105703582Y-111196302D01*
X105674554Y-111283388D01*
X105326211Y-111631731D01*
X105703582Y-111631731D01*
X106226097Y-111225331D02*
X106226097Y-111631731D01*
X106080954Y-110993102D02*
X105935811Y-111428531D01*
X106313182Y-111428531D01*
X106893754Y-111631731D02*
X106690554Y-111341445D01*
X106545411Y-111631731D02*
X106545411Y-111022131D01*
X106777640Y-111022131D01*
X106835697Y-111051160D01*
X106864725Y-111080188D01*
X106893754Y-111138245D01*
X106893754Y-111225331D01*
X106864725Y-111283388D01*
X106835697Y-111312417D01*
X106777640Y-111341445D01*
X106545411Y-111341445D01*
X107155011Y-111631731D02*
X107155011Y-111022131D01*
X107155011Y-111312417D02*
X107503354Y-111312417D01*
X107503354Y-111631731D02*
X107503354Y-111022131D01*
D13*
%TO.C,J2*%
X154352380Y-93533333D02*
X155066666Y-93533333D01*
X155209523Y-93580952D01*
X155304761Y-93676190D01*
X155352380Y-93819047D01*
X155352380Y-93914285D01*
X154447619Y-93104761D02*
X154400000Y-93057142D01*
X154352380Y-92961904D01*
X154352380Y-92723809D01*
X154400000Y-92628571D01*
X154447619Y-92580952D01*
X154542857Y-92533333D01*
X154638095Y-92533333D01*
X154780952Y-92580952D01*
X155352380Y-93152380D01*
X155352380Y-92533333D01*
X142952380Y-89428571D02*
X141952380Y-89428571D01*
X142000000Y-88428571D02*
X141952380Y-88523809D01*
X141952380Y-88666666D01*
X142000000Y-88809523D01*
X142095238Y-88904761D01*
X142190476Y-88952380D01*
X142380952Y-89000000D01*
X142523809Y-89000000D01*
X142714285Y-88952380D01*
X142809523Y-88904761D01*
X142904761Y-88809523D01*
X142952380Y-88666666D01*
X142952380Y-88571428D01*
X142904761Y-88428571D01*
X142857142Y-88380952D01*
X142523809Y-88380952D01*
X142523809Y-88571428D01*
X142952380Y-87952380D02*
X141952380Y-87952380D01*
X142952380Y-87380952D01*
X141952380Y-87380952D01*
X142952380Y-86904761D02*
X141952380Y-86904761D01*
X141952380Y-86571428D02*
X141952380Y-86000000D01*
X142952380Y-86285714D02*
X141952380Y-86285714D01*
X142952380Y-85666666D02*
X141952380Y-85666666D01*
X141952380Y-85000000D02*
X141952380Y-84809523D01*
X142000000Y-84714285D01*
X142095238Y-84619047D01*
X142285714Y-84571428D01*
X142619047Y-84571428D01*
X142809523Y-84619047D01*
X142904761Y-84714285D01*
X142952380Y-84809523D01*
X142952380Y-85000000D01*
X142904761Y-85095238D01*
X142809523Y-85190476D01*
X142619047Y-85238095D01*
X142285714Y-85238095D01*
X142095238Y-85190476D01*
X142000000Y-85095238D01*
X141952380Y-85000000D01*
X142952380Y-84142857D02*
X141952380Y-84142857D01*
X142952380Y-83571428D01*
X141952380Y-83571428D01*
%TO.C,U7*%
X142952380Y-73661904D02*
X143761904Y-73661904D01*
X143857142Y-73614285D01*
X143904761Y-73566666D01*
X143952380Y-73471428D01*
X143952380Y-73280952D01*
X143904761Y-73185714D01*
X143857142Y-73138095D01*
X143761904Y-73090476D01*
X142952380Y-73090476D01*
X142952380Y-72709523D02*
X142952380Y-72042857D01*
X143952380Y-72471428D01*
X144452380Y-76400000D02*
X144690476Y-76400000D01*
X144595238Y-76638095D02*
X144690476Y-76400000D01*
X144595238Y-76161904D01*
X144880952Y-76542857D02*
X144690476Y-76400000D01*
X144880952Y-76257142D01*
%TO.C,R10*%
X141557142Y-98452380D02*
X141223809Y-97976190D01*
X140985714Y-98452380D02*
X140985714Y-97452380D01*
X141366666Y-97452380D01*
X141461904Y-97500000D01*
X141509523Y-97547619D01*
X141557142Y-97642857D01*
X141557142Y-97785714D01*
X141509523Y-97880952D01*
X141461904Y-97928571D01*
X141366666Y-97976190D01*
X140985714Y-97976190D01*
X142509523Y-98452380D02*
X141938095Y-98452380D01*
X142223809Y-98452380D02*
X142223809Y-97452380D01*
X142128571Y-97595238D01*
X142033333Y-97690476D01*
X141938095Y-97738095D01*
X143128571Y-97452380D02*
X143223809Y-97452380D01*
X143319047Y-97500000D01*
X143366666Y-97547619D01*
X143414285Y-97642857D01*
X143461904Y-97833333D01*
X143461904Y-98071428D01*
X143414285Y-98261904D01*
X143366666Y-98357142D01*
X143319047Y-98404761D01*
X143223809Y-98452380D01*
X143128571Y-98452380D01*
X143033333Y-98404761D01*
X142985714Y-98357142D01*
X142938095Y-98261904D01*
X142890476Y-98071428D01*
X142890476Y-97833333D01*
X142938095Y-97642857D01*
X142985714Y-97547619D01*
X143033333Y-97500000D01*
X143128571Y-97452380D01*
D11*
%TO.C,J3*%
X163496800Y-112466171D02*
X163496800Y-112901600D01*
X163467771Y-112988685D01*
X163409714Y-113046742D01*
X163322628Y-113075771D01*
X163264571Y-113075771D01*
X163729028Y-112466171D02*
X164106400Y-112466171D01*
X163903200Y-112698400D01*
X163990285Y-112698400D01*
X164048342Y-112727428D01*
X164077371Y-112756457D01*
X164106400Y-112814514D01*
X164106400Y-112959657D01*
X164077371Y-113017714D01*
X164048342Y-113046742D01*
X163990285Y-113075771D01*
X163816114Y-113075771D01*
X163758057Y-113046742D01*
X163729028Y-113017714D01*
D13*
X156847470Y-99800000D02*
X156752232Y-99752380D01*
X156609375Y-99752380D01*
X156466517Y-99800000D01*
X156371279Y-99895238D01*
X156323660Y-99990476D01*
X156276041Y-100180952D01*
X156276041Y-100323809D01*
X156323660Y-100514285D01*
X156371279Y-100609523D01*
X156466517Y-100704761D01*
X156609375Y-100752380D01*
X156704613Y-100752380D01*
X156847470Y-100704761D01*
X156895089Y-100657142D01*
X156895089Y-100323809D01*
X156704613Y-100323809D01*
X157323660Y-100752380D02*
X157323660Y-99752380D01*
X157895089Y-100752380D01*
X157895089Y-99752380D01*
X158371279Y-100752380D02*
X158371279Y-99752380D01*
X158609375Y-99752380D01*
X158752232Y-99800000D01*
X158847470Y-99895238D01*
X158895089Y-99990476D01*
X158942708Y-100180952D01*
X158942708Y-100323809D01*
X158895089Y-100514285D01*
X158847470Y-100609523D01*
X158752232Y-100704761D01*
X158609375Y-100752380D01*
X158371279Y-100752380D01*
%TO.C,U4*%
X159338095Y-58352380D02*
X159338095Y-59161904D01*
X159385714Y-59257142D01*
X159433333Y-59304761D01*
X159528571Y-59352380D01*
X159719047Y-59352380D01*
X159814285Y-59304761D01*
X159861904Y-59257142D01*
X159909523Y-59161904D01*
X159909523Y-58352380D01*
X160814285Y-58685714D02*
X160814285Y-59352380D01*
X160576190Y-58304761D02*
X160338095Y-59019047D01*
X160957142Y-59019047D01*
X157200000Y-59852380D02*
X157200000Y-60090476D01*
X156961904Y-59995238D02*
X157200000Y-60090476D01*
X157438095Y-59995238D01*
X157057142Y-60280952D02*
X157200000Y-60090476D01*
X157342857Y-60280952D01*
%TO.C,U1*%
X124638095Y-67856380D02*
X124638095Y-68665904D01*
X124685714Y-68761142D01*
X124733333Y-68808761D01*
X124828571Y-68856380D01*
X125019047Y-68856380D01*
X125114285Y-68808761D01*
X125161904Y-68761142D01*
X125209523Y-68665904D01*
X125209523Y-67856380D01*
X126209523Y-68856380D02*
X125638095Y-68856380D01*
X125923809Y-68856380D02*
X125923809Y-67856380D01*
X125828571Y-67999238D01*
X125733333Y-68094476D01*
X125638095Y-68142095D01*
%TO.C,R14*%
X149602380Y-69542857D02*
X149126190Y-69876190D01*
X149602380Y-70114285D02*
X148602380Y-70114285D01*
X148602380Y-69733333D01*
X148650000Y-69638095D01*
X148697619Y-69590476D01*
X148792857Y-69542857D01*
X148935714Y-69542857D01*
X149030952Y-69590476D01*
X149078571Y-69638095D01*
X149126190Y-69733333D01*
X149126190Y-70114285D01*
X149602380Y-68590476D02*
X149602380Y-69161904D01*
X149602380Y-68876190D02*
X148602380Y-68876190D01*
X148745238Y-68971428D01*
X148840476Y-69066666D01*
X148888095Y-69161904D01*
X148935714Y-67733333D02*
X149602380Y-67733333D01*
X148554761Y-67971428D02*
X149269047Y-68209523D01*
X149269047Y-67590476D01*
%TO.C,R5*%
X141352380Y-60466666D02*
X140876190Y-60800000D01*
X141352380Y-61038095D02*
X140352380Y-61038095D01*
X140352380Y-60657142D01*
X140400000Y-60561904D01*
X140447619Y-60514285D01*
X140542857Y-60466666D01*
X140685714Y-60466666D01*
X140780952Y-60514285D01*
X140828571Y-60561904D01*
X140876190Y-60657142D01*
X140876190Y-61038095D01*
X140352380Y-59561904D02*
X140352380Y-60038095D01*
X140828571Y-60085714D01*
X140780952Y-60038095D01*
X140733333Y-59942857D01*
X140733333Y-59704761D01*
X140780952Y-59609523D01*
X140828571Y-59561904D01*
X140923809Y-59514285D01*
X141161904Y-59514285D01*
X141257142Y-59561904D01*
X141304761Y-59609523D01*
X141352380Y-59704761D01*
X141352380Y-59942857D01*
X141304761Y-60038095D01*
X141257142Y-60085714D01*
D11*
%TO.C,J4*%
X135496800Y-111566171D02*
X135496800Y-112001600D01*
X135467771Y-112088685D01*
X135409714Y-112146742D01*
X135322628Y-112175771D01*
X135264571Y-112175771D01*
X136048342Y-111769371D02*
X136048342Y-112175771D01*
X135903200Y-111537142D02*
X135758057Y-111972571D01*
X136135428Y-111972571D01*
D13*
X140438095Y-99971428D02*
X141200000Y-99971428D01*
X140819047Y-100352380D02*
X140819047Y-99590476D01*
X142200000Y-100352380D02*
X141628571Y-100352380D01*
X141914285Y-100352380D02*
X141914285Y-99352380D01*
X141819047Y-99495238D01*
X141723809Y-99590476D01*
X141628571Y-99638095D01*
X142580952Y-99447619D02*
X142628571Y-99400000D01*
X142723809Y-99352380D01*
X142961904Y-99352380D01*
X143057142Y-99400000D01*
X143104761Y-99447619D01*
X143152380Y-99542857D01*
X143152380Y-99638095D01*
X143104761Y-99780952D01*
X142533333Y-100352380D01*
X143152380Y-100352380D01*
X143438095Y-99352380D02*
X143771428Y-100352380D01*
X144104761Y-99352380D01*
%TO.C,R1*%
X115333333Y-86152380D02*
X115000000Y-85676190D01*
X114761904Y-86152380D02*
X114761904Y-85152380D01*
X115142857Y-85152380D01*
X115238095Y-85200000D01*
X115285714Y-85247619D01*
X115333333Y-85342857D01*
X115333333Y-85485714D01*
X115285714Y-85580952D01*
X115238095Y-85628571D01*
X115142857Y-85676190D01*
X114761904Y-85676190D01*
X116285714Y-86152380D02*
X115714285Y-86152380D01*
X116000000Y-86152380D02*
X116000000Y-85152380D01*
X115904761Y-85295238D01*
X115809523Y-85390476D01*
X115714285Y-85438095D01*
%TO.C,R2*%
X121433333Y-105252380D02*
X121100000Y-104776190D01*
X120861904Y-105252380D02*
X120861904Y-104252380D01*
X121242857Y-104252380D01*
X121338095Y-104300000D01*
X121385714Y-104347619D01*
X121433333Y-104442857D01*
X121433333Y-104585714D01*
X121385714Y-104680952D01*
X121338095Y-104728571D01*
X121242857Y-104776190D01*
X120861904Y-104776190D01*
X121814285Y-104347619D02*
X121861904Y-104300000D01*
X121957142Y-104252380D01*
X122195238Y-104252380D01*
X122290476Y-104300000D01*
X122338095Y-104347619D01*
X122385714Y-104442857D01*
X122385714Y-104538095D01*
X122338095Y-104680952D01*
X121766666Y-105252380D01*
X122385714Y-105252380D01*
%TO.C,R8*%
X133258333Y-84702380D02*
X132925000Y-84226190D01*
X132686904Y-84702380D02*
X132686904Y-83702380D01*
X133067857Y-83702380D01*
X133163095Y-83750000D01*
X133210714Y-83797619D01*
X133258333Y-83892857D01*
X133258333Y-84035714D01*
X133210714Y-84130952D01*
X133163095Y-84178571D01*
X133067857Y-84226190D01*
X132686904Y-84226190D01*
X133829761Y-84130952D02*
X133734523Y-84083333D01*
X133686904Y-84035714D01*
X133639285Y-83940476D01*
X133639285Y-83892857D01*
X133686904Y-83797619D01*
X133734523Y-83750000D01*
X133829761Y-83702380D01*
X134020238Y-83702380D01*
X134115476Y-83750000D01*
X134163095Y-83797619D01*
X134210714Y-83892857D01*
X134210714Y-83940476D01*
X134163095Y-84035714D01*
X134115476Y-84083333D01*
X134020238Y-84130952D01*
X133829761Y-84130952D01*
X133734523Y-84178571D01*
X133686904Y-84226190D01*
X133639285Y-84321428D01*
X133639285Y-84511904D01*
X133686904Y-84607142D01*
X133734523Y-84654761D01*
X133829761Y-84702380D01*
X134020238Y-84702380D01*
X134115476Y-84654761D01*
X134163095Y-84607142D01*
X134210714Y-84511904D01*
X134210714Y-84321428D01*
X134163095Y-84226190D01*
X134115476Y-84178571D01*
X134020238Y-84130952D01*
%TO.C,U5*%
X161688095Y-70922380D02*
X161688095Y-71731904D01*
X161735714Y-71827142D01*
X161783333Y-71874761D01*
X161878571Y-71922380D01*
X162069047Y-71922380D01*
X162164285Y-71874761D01*
X162211904Y-71827142D01*
X162259523Y-71731904D01*
X162259523Y-70922380D01*
X163211904Y-70922380D02*
X162735714Y-70922380D01*
X162688095Y-71398571D01*
X162735714Y-71350952D01*
X162830952Y-71303333D01*
X163069047Y-71303333D01*
X163164285Y-71350952D01*
X163211904Y-71398571D01*
X163259523Y-71493809D01*
X163259523Y-71731904D01*
X163211904Y-71827142D01*
X163164285Y-71874761D01*
X163069047Y-71922380D01*
X162830952Y-71922380D01*
X162735714Y-71874761D01*
X162688095Y-71827142D01*
X157450000Y-66222380D02*
X157450000Y-66460476D01*
X157211904Y-66365238D02*
X157450000Y-66460476D01*
X157688095Y-66365238D01*
X157307142Y-66650952D02*
X157450000Y-66460476D01*
X157592857Y-66650952D01*
%TO.C,U6*%
X150652380Y-73961904D02*
X151461904Y-73961904D01*
X151557142Y-73914285D01*
X151604761Y-73866666D01*
X151652380Y-73771428D01*
X151652380Y-73580952D01*
X151604761Y-73485714D01*
X151557142Y-73438095D01*
X151461904Y-73390476D01*
X150652380Y-73390476D01*
X150652380Y-72485714D02*
X150652380Y-72676190D01*
X150700000Y-72771428D01*
X150747619Y-72819047D01*
X150890476Y-72914285D01*
X151080952Y-72961904D01*
X151461904Y-72961904D01*
X151557142Y-72914285D01*
X151604761Y-72866666D01*
X151652380Y-72771428D01*
X151652380Y-72580952D01*
X151604761Y-72485714D01*
X151557142Y-72438095D01*
X151461904Y-72390476D01*
X151223809Y-72390476D01*
X151128571Y-72438095D01*
X151080952Y-72485714D01*
X151033333Y-72580952D01*
X151033333Y-72771428D01*
X151080952Y-72866666D01*
X151128571Y-72914285D01*
X151223809Y-72961904D01*
X151652380Y-76400000D02*
X151890476Y-76400000D01*
X151795238Y-76638095D02*
X151890476Y-76400000D01*
X151795238Y-76161904D01*
X152080952Y-76542857D02*
X151890476Y-76400000D01*
X152080952Y-76257142D01*
%TO.C,R12*%
X146357142Y-78902380D02*
X146023809Y-78426190D01*
X145785714Y-78902380D02*
X145785714Y-77902380D01*
X146166666Y-77902380D01*
X146261904Y-77950000D01*
X146309523Y-77997619D01*
X146357142Y-78092857D01*
X146357142Y-78235714D01*
X146309523Y-78330952D01*
X146261904Y-78378571D01*
X146166666Y-78426190D01*
X145785714Y-78426190D01*
X147309523Y-78902380D02*
X146738095Y-78902380D01*
X147023809Y-78902380D02*
X147023809Y-77902380D01*
X146928571Y-78045238D01*
X146833333Y-78140476D01*
X146738095Y-78188095D01*
X147690476Y-77997619D02*
X147738095Y-77950000D01*
X147833333Y-77902380D01*
X148071428Y-77902380D01*
X148166666Y-77950000D01*
X148214285Y-77997619D01*
X148261904Y-78092857D01*
X148261904Y-78188095D01*
X148214285Y-78330952D01*
X147642857Y-78902380D01*
X148261904Y-78902380D01*
D11*
%TO.C,SW2*%
X133387200Y-87728942D02*
X133474285Y-87757971D01*
X133619428Y-87757971D01*
X133677485Y-87728942D01*
X133706514Y-87699914D01*
X133735542Y-87641857D01*
X133735542Y-87583800D01*
X133706514Y-87525742D01*
X133677485Y-87496714D01*
X133619428Y-87467685D01*
X133503314Y-87438657D01*
X133445257Y-87409628D01*
X133416228Y-87380600D01*
X133387200Y-87322542D01*
X133387200Y-87264485D01*
X133416228Y-87206428D01*
X133445257Y-87177400D01*
X133503314Y-87148371D01*
X133648457Y-87148371D01*
X133735542Y-87177400D01*
X133938742Y-87148371D02*
X134083885Y-87757971D01*
X134200000Y-87322542D01*
X134316114Y-87757971D01*
X134461257Y-87148371D01*
X134664457Y-87206428D02*
X134693485Y-87177400D01*
X134751542Y-87148371D01*
X134896685Y-87148371D01*
X134954742Y-87177400D01*
X134983771Y-87206428D01*
X135012800Y-87264485D01*
X135012800Y-87322542D01*
X134983771Y-87409628D01*
X134635428Y-87757971D01*
X135012800Y-87757971D01*
D13*
X131628571Y-93652380D02*
X131628571Y-92652380D01*
X132533333Y-92985714D02*
X132533333Y-93795238D01*
X132485714Y-93890476D01*
X132438095Y-93938095D01*
X132342857Y-93985714D01*
X132200000Y-93985714D01*
X132104761Y-93938095D01*
X132533333Y-93604761D02*
X132438095Y-93652380D01*
X132247619Y-93652380D01*
X132152380Y-93604761D01*
X132104761Y-93557142D01*
X132057142Y-93461904D01*
X132057142Y-93176190D01*
X132104761Y-93080952D01*
X132152380Y-93033333D01*
X132247619Y-92985714D01*
X132438095Y-92985714D01*
X132533333Y-93033333D01*
X133009523Y-92985714D02*
X133009523Y-93652380D01*
X133009523Y-93080952D02*
X133057142Y-93033333D01*
X133152380Y-92985714D01*
X133295238Y-92985714D01*
X133390476Y-93033333D01*
X133438095Y-93128571D01*
X133438095Y-93652380D01*
X133914285Y-93652380D02*
X133914285Y-92985714D01*
X133914285Y-92652380D02*
X133866666Y-92700000D01*
X133914285Y-92747619D01*
X133961904Y-92700000D01*
X133914285Y-92652380D01*
X133914285Y-92747619D01*
X134247619Y-92985714D02*
X134628571Y-92985714D01*
X134390476Y-92652380D02*
X134390476Y-93509523D01*
X134438095Y-93604761D01*
X134533333Y-93652380D01*
X134628571Y-93652380D01*
X134961904Y-93652380D02*
X134961904Y-92985714D01*
X134961904Y-92652380D02*
X134914285Y-92700000D01*
X134961904Y-92747619D01*
X135009523Y-92700000D01*
X134961904Y-92652380D01*
X134961904Y-92747619D01*
X135580952Y-93652380D02*
X135485714Y-93604761D01*
X135438095Y-93557142D01*
X135390476Y-93461904D01*
X135390476Y-93176190D01*
X135438095Y-93080952D01*
X135485714Y-93033333D01*
X135580952Y-92985714D01*
X135723809Y-92985714D01*
X135819047Y-93033333D01*
X135866666Y-93080952D01*
X135914285Y-93176190D01*
X135914285Y-93461904D01*
X135866666Y-93557142D01*
X135819047Y-93604761D01*
X135723809Y-93652380D01*
X135580952Y-93652380D01*
X136342857Y-92985714D02*
X136342857Y-93652380D01*
X136342857Y-93080952D02*
X136390476Y-93033333D01*
X136485714Y-92985714D01*
X136628571Y-92985714D01*
X136723809Y-93033333D01*
X136771428Y-93128571D01*
X136771428Y-93652380D01*
%TO.C,R3*%
X132333333Y-95402380D02*
X132000000Y-94926190D01*
X131761904Y-95402380D02*
X131761904Y-94402380D01*
X132142857Y-94402380D01*
X132238095Y-94450000D01*
X132285714Y-94497619D01*
X132333333Y-94592857D01*
X132333333Y-94735714D01*
X132285714Y-94830952D01*
X132238095Y-94878571D01*
X132142857Y-94926190D01*
X131761904Y-94926190D01*
X132666666Y-94402380D02*
X133285714Y-94402380D01*
X132952380Y-94783333D01*
X133095238Y-94783333D01*
X133190476Y-94830952D01*
X133238095Y-94878571D01*
X133285714Y-94973809D01*
X133285714Y-95211904D01*
X133238095Y-95307142D01*
X133190476Y-95354761D01*
X133095238Y-95402380D01*
X132809523Y-95402380D01*
X132714285Y-95354761D01*
X132666666Y-95307142D01*
%TO.C,Q2*%
X138604761Y-95347619D02*
X138509523Y-95300000D01*
X138414285Y-95204761D01*
X138271428Y-95061904D01*
X138176190Y-95014285D01*
X138080952Y-95014285D01*
X138128571Y-95252380D02*
X138033333Y-95204761D01*
X137938095Y-95109523D01*
X137890476Y-94919047D01*
X137890476Y-94585714D01*
X137938095Y-94395238D01*
X138033333Y-94300000D01*
X138128571Y-94252380D01*
X138319047Y-94252380D01*
X138414285Y-94300000D01*
X138509523Y-94395238D01*
X138557142Y-94585714D01*
X138557142Y-94919047D01*
X138509523Y-95109523D01*
X138414285Y-95204761D01*
X138319047Y-95252380D01*
X138128571Y-95252380D01*
X138938095Y-94347619D02*
X138985714Y-94300000D01*
X139080952Y-94252380D01*
X139319047Y-94252380D01*
X139414285Y-94300000D01*
X139461904Y-94347619D01*
X139509523Y-94442857D01*
X139509523Y-94538095D01*
X139461904Y-94680952D01*
X138890476Y-95252380D01*
X139509523Y-95252380D01*
%TO.C,D1*%
X130992380Y-101468095D02*
X129992380Y-101468095D01*
X129992380Y-101230000D01*
X130040000Y-101087142D01*
X130135238Y-100991904D01*
X130230476Y-100944285D01*
X130420952Y-100896666D01*
X130563809Y-100896666D01*
X130754285Y-100944285D01*
X130849523Y-100991904D01*
X130944761Y-101087142D01*
X130992380Y-101230000D01*
X130992380Y-101468095D01*
X130992380Y-99944285D02*
X130992380Y-100515714D01*
X130992380Y-100230000D02*
X129992380Y-100230000D01*
X130135238Y-100325238D01*
X130230476Y-100420476D01*
X130278095Y-100515714D01*
%TO.C,F1*%
X115806666Y-102728571D02*
X115473333Y-102728571D01*
X115473333Y-103252380D02*
X115473333Y-102252380D01*
X115949523Y-102252380D01*
X116854285Y-103252380D02*
X116282857Y-103252380D01*
X116568571Y-103252380D02*
X116568571Y-102252380D01*
X116473333Y-102395238D01*
X116378095Y-102490476D01*
X116282857Y-102538095D01*
%TO.C,R4*%
X146352380Y-60466666D02*
X145876190Y-60800000D01*
X146352380Y-61038095D02*
X145352380Y-61038095D01*
X145352380Y-60657142D01*
X145400000Y-60561904D01*
X145447619Y-60514285D01*
X145542857Y-60466666D01*
X145685714Y-60466666D01*
X145780952Y-60514285D01*
X145828571Y-60561904D01*
X145876190Y-60657142D01*
X145876190Y-61038095D01*
X145685714Y-59609523D02*
X146352380Y-59609523D01*
X145304761Y-59847619D02*
X146019047Y-60085714D01*
X146019047Y-59466666D01*
%TO.C,JP1*%
X151952380Y-61058333D02*
X152666666Y-61058333D01*
X152809523Y-61105952D01*
X152904761Y-61201190D01*
X152952380Y-61344047D01*
X152952380Y-61439285D01*
X152952380Y-60582142D02*
X151952380Y-60582142D01*
X151952380Y-60201190D01*
X152000000Y-60105952D01*
X152047619Y-60058333D01*
X152142857Y-60010714D01*
X152285714Y-60010714D01*
X152380952Y-60058333D01*
X152428571Y-60105952D01*
X152476190Y-60201190D01*
X152476190Y-60582142D01*
X152952380Y-59058333D02*
X152952380Y-59629761D01*
X152952380Y-59344047D02*
X151952380Y-59344047D01*
X152095238Y-59439285D01*
X152190476Y-59534523D01*
X152238095Y-59629761D01*
%TO.C,U2*%
X122338095Y-102152380D02*
X122338095Y-102961904D01*
X122385714Y-103057142D01*
X122433333Y-103104761D01*
X122528571Y-103152380D01*
X122719047Y-103152380D01*
X122814285Y-103104761D01*
X122861904Y-103057142D01*
X122909523Y-102961904D01*
X122909523Y-102152380D01*
X123338095Y-102247619D02*
X123385714Y-102200000D01*
X123480952Y-102152380D01*
X123719047Y-102152380D01*
X123814285Y-102200000D01*
X123861904Y-102247619D01*
X123909523Y-102342857D01*
X123909523Y-102438095D01*
X123861904Y-102580952D01*
X123290476Y-103152380D01*
X123909523Y-103152380D01*
X123652380Y-105100000D02*
X123890476Y-105100000D01*
X123795238Y-105338095D02*
X123890476Y-105100000D01*
X123795238Y-104861904D01*
X124080952Y-105242857D02*
X123890476Y-105100000D01*
X124080952Y-104957142D01*
%TO.C,R6*%
X160733333Y-65452380D02*
X160400000Y-64976190D01*
X160161904Y-65452380D02*
X160161904Y-64452380D01*
X160542857Y-64452380D01*
X160638095Y-64500000D01*
X160685714Y-64547619D01*
X160733333Y-64642857D01*
X160733333Y-64785714D01*
X160685714Y-64880952D01*
X160638095Y-64928571D01*
X160542857Y-64976190D01*
X160161904Y-64976190D01*
X161590476Y-64452380D02*
X161400000Y-64452380D01*
X161304761Y-64500000D01*
X161257142Y-64547619D01*
X161161904Y-64690476D01*
X161114285Y-64880952D01*
X161114285Y-65261904D01*
X161161904Y-65357142D01*
X161209523Y-65404761D01*
X161304761Y-65452380D01*
X161495238Y-65452380D01*
X161590476Y-65404761D01*
X161638095Y-65357142D01*
X161685714Y-65261904D01*
X161685714Y-65023809D01*
X161638095Y-64928571D01*
X161590476Y-64880952D01*
X161495238Y-64833333D01*
X161304761Y-64833333D01*
X161209523Y-64880952D01*
X161161904Y-64928571D01*
X161114285Y-65023809D01*
%TO.C,R11*%
X153857142Y-79152380D02*
X153523809Y-78676190D01*
X153285714Y-79152380D02*
X153285714Y-78152380D01*
X153666666Y-78152380D01*
X153761904Y-78200000D01*
X153809523Y-78247619D01*
X153857142Y-78342857D01*
X153857142Y-78485714D01*
X153809523Y-78580952D01*
X153761904Y-78628571D01*
X153666666Y-78676190D01*
X153285714Y-78676190D01*
X154809523Y-79152380D02*
X154238095Y-79152380D01*
X154523809Y-79152380D02*
X154523809Y-78152380D01*
X154428571Y-78295238D01*
X154333333Y-78390476D01*
X154238095Y-78438095D01*
X155761904Y-79152380D02*
X155190476Y-79152380D01*
X155476190Y-79152380D02*
X155476190Y-78152380D01*
X155380952Y-78295238D01*
X155285714Y-78390476D01*
X155190476Y-78438095D01*
%TO.C,R13*%
X141702380Y-69542857D02*
X141226190Y-69876190D01*
X141702380Y-70114285D02*
X140702380Y-70114285D01*
X140702380Y-69733333D01*
X140750000Y-69638095D01*
X140797619Y-69590476D01*
X140892857Y-69542857D01*
X141035714Y-69542857D01*
X141130952Y-69590476D01*
X141178571Y-69638095D01*
X141226190Y-69733333D01*
X141226190Y-70114285D01*
X141702380Y-68590476D02*
X141702380Y-69161904D01*
X141702380Y-68876190D02*
X140702380Y-68876190D01*
X140845238Y-68971428D01*
X140940476Y-69066666D01*
X140988095Y-69161904D01*
X140702380Y-68257142D02*
X140702380Y-67638095D01*
X141083333Y-67971428D01*
X141083333Y-67828571D01*
X141130952Y-67733333D01*
X141178571Y-67685714D01*
X141273809Y-67638095D01*
X141511904Y-67638095D01*
X141607142Y-67685714D01*
X141654761Y-67733333D01*
X141702380Y-67828571D01*
X141702380Y-68114285D01*
X141654761Y-68209523D01*
X141607142Y-68257142D01*
%TO.C,R7*%
X164533333Y-57402380D02*
X164200000Y-56926190D01*
X163961904Y-57402380D02*
X163961904Y-56402380D01*
X164342857Y-56402380D01*
X164438095Y-56450000D01*
X164485714Y-56497619D01*
X164533333Y-56592857D01*
X164533333Y-56735714D01*
X164485714Y-56830952D01*
X164438095Y-56878571D01*
X164342857Y-56926190D01*
X163961904Y-56926190D01*
X164866666Y-56402380D02*
X165533333Y-56402380D01*
X165104761Y-57402380D01*
D11*
%TO.C,SW1*%
X117087200Y-94928942D02*
X117174285Y-94957971D01*
X117319428Y-94957971D01*
X117377485Y-94928942D01*
X117406514Y-94899914D01*
X117435542Y-94841857D01*
X117435542Y-94783800D01*
X117406514Y-94725742D01*
X117377485Y-94696714D01*
X117319428Y-94667685D01*
X117203314Y-94638657D01*
X117145257Y-94609628D01*
X117116228Y-94580600D01*
X117087200Y-94522542D01*
X117087200Y-94464485D01*
X117116228Y-94406428D01*
X117145257Y-94377400D01*
X117203314Y-94348371D01*
X117348457Y-94348371D01*
X117435542Y-94377400D01*
X117638742Y-94348371D02*
X117783885Y-94957971D01*
X117900000Y-94522542D01*
X118016114Y-94957971D01*
X118161257Y-94348371D01*
X118712800Y-94957971D02*
X118364457Y-94957971D01*
X118538628Y-94957971D02*
X118538628Y-94348371D01*
X118480571Y-94435457D01*
X118422514Y-94493514D01*
X118364457Y-94522542D01*
D13*
X115823809Y-100852380D02*
X115823809Y-99852380D01*
X116204761Y-99852380D01*
X116300000Y-99900000D01*
X116347619Y-99947619D01*
X116395238Y-100042857D01*
X116395238Y-100185714D01*
X116347619Y-100280952D01*
X116300000Y-100328571D01*
X116204761Y-100376190D01*
X115823809Y-100376190D01*
X116966666Y-100852380D02*
X116871428Y-100804761D01*
X116823809Y-100757142D01*
X116776190Y-100661904D01*
X116776190Y-100376190D01*
X116823809Y-100280952D01*
X116871428Y-100233333D01*
X116966666Y-100185714D01*
X117109523Y-100185714D01*
X117204761Y-100233333D01*
X117252380Y-100280952D01*
X117300000Y-100376190D01*
X117300000Y-100661904D01*
X117252380Y-100757142D01*
X117204761Y-100804761D01*
X117109523Y-100852380D01*
X116966666Y-100852380D01*
X117633333Y-100185714D02*
X117823809Y-100852380D01*
X118014285Y-100376190D01*
X118204761Y-100852380D01*
X118395238Y-100185714D01*
X119157142Y-100804761D02*
X119061904Y-100852380D01*
X118871428Y-100852380D01*
X118776190Y-100804761D01*
X118728571Y-100709523D01*
X118728571Y-100328571D01*
X118776190Y-100233333D01*
X118871428Y-100185714D01*
X119061904Y-100185714D01*
X119157142Y-100233333D01*
X119204761Y-100328571D01*
X119204761Y-100423809D01*
X118728571Y-100519047D01*
X119633333Y-100852380D02*
X119633333Y-100185714D01*
X119633333Y-100376190D02*
X119680952Y-100280952D01*
X119728571Y-100233333D01*
X119823809Y-100185714D01*
X119919047Y-100185714D01*
D14*
%TO.C,J5*%
X155514000Y-55946000D02*
X155006000Y-55946000D01*
D15*
X151450000Y-56835000D02*
X152085000Y-57470000D01*
D14*
X147894000Y-55946000D02*
X147894000Y-56454000D01*
X152974000Y-55946000D02*
X152466000Y-55946000D01*
D15*
X141290000Y-55565000D02*
X141925000Y-54930000D01*
X154625000Y-54930000D02*
X153990000Y-55565000D01*
X145735000Y-57470000D02*
X146370000Y-56835000D01*
D14*
X150434000Y-55946000D02*
X149926000Y-55946000D01*
D15*
X149545000Y-57470000D02*
X150815000Y-57470000D01*
X148275000Y-54930000D02*
X147005000Y-54930000D01*
X153355000Y-54930000D02*
X152085000Y-54930000D01*
X146370000Y-55565000D02*
X145735000Y-54930000D01*
X156530000Y-56835000D02*
X156530000Y-55565000D01*
X147005000Y-54930000D02*
X146370000Y-55565000D01*
X141925000Y-57470000D02*
X141290000Y-56835000D01*
D14*
X144846000Y-55946000D02*
X144846000Y-56454000D01*
X145354000Y-55946000D02*
X144846000Y-55946000D01*
D15*
X152085000Y-57470000D02*
X153355000Y-57470000D01*
X143195000Y-54930000D02*
X141925000Y-54930000D01*
X141290000Y-56835000D02*
X141290000Y-55565000D01*
X147005000Y-57470000D02*
X148275000Y-57470000D01*
X143830000Y-55565000D02*
X143195000Y-54930000D01*
D14*
X150434000Y-56454000D02*
X149926000Y-56454000D01*
D15*
X155895000Y-57470000D02*
X156530000Y-56835000D01*
D14*
X142306000Y-55946000D02*
X142306000Y-56454000D01*
D15*
X148910000Y-55565000D02*
X148275000Y-54930000D01*
X155895000Y-54930000D02*
X154625000Y-54930000D01*
D14*
X152974000Y-56454000D02*
X152466000Y-56454000D01*
X152466000Y-55946000D02*
X152466000Y-56454000D01*
X142814000Y-55946000D02*
X142306000Y-55946000D01*
D15*
X149545000Y-57470000D02*
X148910000Y-56835000D01*
X148275000Y-57470000D02*
X148910000Y-56835000D01*
X145735000Y-54930000D02*
X144465000Y-54930000D01*
X150815000Y-54930000D02*
X149545000Y-54930000D01*
X148910000Y-55565000D02*
X149545000Y-54930000D01*
X153355000Y-57470000D02*
X153990000Y-56835000D01*
D14*
X155006000Y-55946000D02*
X155006000Y-56454000D01*
D15*
X156530000Y-55565000D02*
X155895000Y-54930000D01*
D14*
X142814000Y-55946000D02*
X142814000Y-56454000D01*
D15*
X154625000Y-57470000D02*
X155895000Y-57470000D01*
D14*
X152974000Y-55946000D02*
X152974000Y-56454000D01*
X155514000Y-55946000D02*
X155514000Y-56454000D01*
D15*
X153990000Y-56835000D02*
X154625000Y-57470000D01*
D14*
X145354000Y-55946000D02*
X145354000Y-56454000D01*
X149926000Y-55946000D02*
X149926000Y-56454000D01*
D15*
X146370000Y-56835000D02*
X147005000Y-57470000D01*
X152085000Y-54930000D02*
X151450000Y-55565000D01*
X153990000Y-55565000D02*
X153355000Y-54930000D01*
X151450000Y-55565000D02*
X150815000Y-54930000D01*
X143830000Y-56835000D02*
X144465000Y-57470000D01*
X143195000Y-57470000D02*
X143830000Y-56835000D01*
X150815000Y-57470000D02*
X151450000Y-56835000D01*
D14*
X142814000Y-56454000D02*
X142306000Y-56454000D01*
D15*
X141925000Y-57470000D02*
X143195000Y-57470000D01*
X144465000Y-54930000D02*
X143830000Y-55565000D01*
D14*
X155514000Y-56454000D02*
X155006000Y-56454000D01*
D15*
X144465000Y-57470000D02*
X145735000Y-57470000D01*
D14*
X145354000Y-56454000D02*
X144846000Y-56454000D01*
X150434000Y-55946000D02*
X150434000Y-56454000D01*
D16*
%TO.C,U3*%
X184700000Y-103700000D02*
X185100000Y-103700000D01*
X194100000Y-65300000D02*
X194100000Y-65700000D01*
X194100000Y-62800000D02*
X194100000Y-63200000D01*
X173100000Y-90700000D02*
X173100000Y-91100000D01*
X194100000Y-88200000D02*
X194100000Y-88600000D01*
X173100000Y-80500000D02*
X173100000Y-80900000D01*
X194100000Y-83100000D02*
X194100000Y-83500000D01*
X194100000Y-80500000D02*
X194100000Y-80900000D01*
X194100000Y-103700000D02*
X187300000Y-103700000D01*
X173100000Y-88200000D02*
X173100000Y-88600000D01*
X173100000Y-83100000D02*
X173100000Y-83500000D01*
X194100000Y-57700000D02*
X194100000Y-58100000D01*
X182100000Y-103700000D02*
X182500000Y-103700000D01*
X194100000Y-98300000D02*
X194100000Y-98700000D01*
X173100000Y-55100000D02*
X173100000Y-55500000D01*
X194100000Y-93300000D02*
X194100000Y-93700000D01*
X194100000Y-72900000D02*
X194100000Y-73300000D01*
X173100000Y-78000000D02*
X173100000Y-78400000D01*
X173100000Y-57700000D02*
X173100000Y-58100000D01*
X173100000Y-98300000D02*
X173100000Y-98700000D01*
X194100000Y-90700000D02*
X194100000Y-91100000D01*
X173100000Y-65300000D02*
X173100000Y-65700000D01*
X194100000Y-55100000D02*
X194100000Y-55500000D01*
X173100000Y-75500000D02*
X173100000Y-75900000D01*
X194100000Y-78000000D02*
X194100000Y-78400000D01*
X173100000Y-67800000D02*
X173100000Y-68200000D01*
X194100000Y-75500000D02*
X194100000Y-75900000D01*
X194100000Y-85600000D02*
X194100000Y-86000000D01*
X173100000Y-60200000D02*
X173100000Y-60600000D01*
X194100000Y-70400000D02*
X194100000Y-70800000D01*
X179900000Y-103700000D02*
X173100000Y-103700000D01*
X173100000Y-70400000D02*
X173100000Y-70800000D01*
X173100000Y-100900000D02*
X173100000Y-101300000D01*
X194100000Y-95800000D02*
X194100000Y-96200000D01*
X173100000Y-52700000D02*
X194100000Y-52700000D01*
X173100000Y-62800000D02*
X173100000Y-63200000D01*
X194100000Y-67800000D02*
X194100000Y-68200000D01*
X176107000Y-55367000D02*
X176107000Y-52700000D01*
X194100000Y-100900000D02*
X194100000Y-101300000D01*
X194100000Y-60200000D02*
X194100000Y-60600000D01*
X173100000Y-93300000D02*
X173100000Y-93700000D01*
X173100000Y-55367000D02*
X176107000Y-55367000D01*
X194100000Y-52700000D02*
X194100000Y-53000000D01*
X173100000Y-72900000D02*
X173100000Y-73300000D01*
X173100000Y-52700000D02*
X173100000Y-53000000D01*
X173100000Y-95800000D02*
X173100000Y-96200000D01*
X173100000Y-85600000D02*
X173100000Y-86000000D01*
D17*
%TO.C,J1*%
X101438560Y-59804120D02*
X101438560Y-61704040D01*
X101438560Y-59804120D02*
X88901120Y-59804120D01*
X92040560Y-84002700D02*
X92040560Y-87401220D01*
X101438560Y-111599800D02*
X101438560Y-109699880D01*
X88901120Y-111599800D02*
X101438560Y-111599800D01*
X101438560Y-82504100D02*
X101438560Y-80502580D01*
X101438560Y-78302940D02*
X101438560Y-76303960D01*
X89040820Y-84002700D02*
X92040560Y-84002700D01*
X92040560Y-87401220D02*
X89040820Y-87401220D01*
X101438560Y-103499740D02*
X101438560Y-101500760D01*
X92040560Y-87401220D02*
X92040560Y-84002700D01*
X101438560Y-74203380D02*
X101438560Y-72204400D01*
X91042340Y-87401220D02*
X92040560Y-87401220D01*
X101438560Y-95099960D02*
X101438560Y-93100980D01*
X101438560Y-107700900D02*
X101438560Y-105701920D01*
X88901120Y-59804120D02*
X88901120Y-111599800D01*
X101438560Y-65702000D02*
X101438560Y-63703020D01*
X92040560Y-84002700D02*
X91042340Y-84002700D01*
X101438560Y-99301120D02*
X101438560Y-97299600D01*
X101438560Y-90901340D02*
X101438560Y-88899820D01*
X91042340Y-84002700D02*
X91042340Y-87401220D01*
X101438560Y-69903160D02*
X101438560Y-67904180D01*
X101438560Y-86700180D02*
X101438560Y-84703740D01*
D16*
%TO.C,J2*%
X146250000Y-91500000D02*
X146000000Y-91000000D01*
X143600000Y-91000000D02*
X144550000Y-91000000D01*
X156200000Y-80650000D02*
X143600000Y-80650000D01*
X146200000Y-91500000D02*
X146250000Y-91500000D01*
X144300000Y-91500000D02*
X146200000Y-91500000D01*
X151400000Y-91000000D02*
X151100000Y-91500000D01*
X146000000Y-91000000D02*
X151400000Y-91000000D01*
X151100000Y-91500000D02*
X156200000Y-91500000D01*
X144550000Y-91000000D02*
X144300000Y-91500000D01*
X156200000Y-91500000D02*
X156200000Y-80650000D01*
X143600000Y-80650000D02*
X143600000Y-91000000D01*
%TO.C,U7*%
X144550000Y-73500000D02*
X144400000Y-73500000D01*
X148400000Y-68700000D02*
X148400000Y-73500000D01*
X148400000Y-73500000D02*
X148250000Y-73500000D01*
X148250000Y-68700000D02*
X148400000Y-68700000D01*
X144550000Y-73500000D02*
X144550000Y-75200000D01*
X144400000Y-68700000D02*
X144550000Y-68700000D01*
X144400000Y-73500000D02*
X144400000Y-68700000D01*
%TO.C,R10*%
X143035000Y-95327064D02*
X143035000Y-94872936D01*
X141565000Y-95327064D02*
X141565000Y-94872936D01*
D11*
%TO.C,J3*%
X163908575Y-107900000D02*
G75*
G03*
X163908575Y-107900000I-6299200J0D01*
G01*
D17*
X163108475Y-107900000D02*
G75*
G03*
X163108475Y-107900000I-5499100J0D01*
G01*
D16*
%TO.C,U4*%
X160000000Y-60050000D02*
X160000000Y-59900000D01*
X164800000Y-63750000D02*
X164800000Y-63900000D01*
X160000000Y-59900000D02*
X164800000Y-59900000D01*
X164800000Y-59900000D02*
X164800000Y-60050000D01*
X164800000Y-63900000D02*
X160000000Y-63900000D01*
X160000000Y-63900000D02*
X160000000Y-63750000D01*
X160000000Y-60050000D02*
X158300000Y-60050000D01*
%TO.C,U1*%
X135522000Y-75745000D02*
X112422000Y-75745000D01*
X130480000Y-58752000D02*
X120701000Y-58752000D01*
X112422000Y-75745000D02*
X112422000Y-59145000D01*
X135522000Y-75745000D02*
X138862000Y-75770000D01*
X135522000Y-59145000D02*
X138608000Y-59145000D01*
X112000000Y-83150000D02*
X112000000Y-55850000D01*
X120701000Y-56339000D02*
X120701000Y-58752000D01*
X138862000Y-59133000D02*
X138608000Y-59145000D01*
X139400000Y-55850000D02*
X139400000Y-83150000D01*
X130480000Y-56339000D02*
X130480000Y-58752000D01*
X112000000Y-55850000D02*
X139400000Y-55850000D01*
X120701000Y-56339000D02*
X130480000Y-56339000D01*
X138862000Y-75770000D02*
X138862000Y-59133000D01*
X139400000Y-83150000D02*
X112000000Y-83150000D01*
X112422000Y-59145000D02*
X135522000Y-59145000D01*
%TO.C,R14*%
X151535000Y-69127064D02*
X151535000Y-68672936D01*
X150065000Y-69127064D02*
X150065000Y-68672936D01*
%TO.C,R5*%
X143335000Y-60072936D02*
X143335000Y-60527064D01*
X141865000Y-60072936D02*
X141865000Y-60527064D01*
D11*
%TO.C,J4*%
X148789825Y-107753676D02*
G75*
G03*
X148789825Y-107753676I-6299200J0D01*
G01*
D17*
X147989725Y-107753676D02*
G75*
G03*
X147989725Y-107753676I-5499100J0D01*
G01*
D16*
%TO.C,R1*%
X120795450Y-87044100D02*
X115289150Y-87044100D01*
X115289150Y-92555900D02*
X120795450Y-92555900D01*
%TO.C,R2*%
X124113748Y-109410000D02*
X126886252Y-109410000D01*
X124113748Y-105990000D02*
X126886252Y-105990000D01*
%TO.C,R8*%
X133197936Y-86635000D02*
X133652064Y-86635000D01*
X133197936Y-85165000D02*
X133652064Y-85165000D01*
%TO.C,U5*%
X160050000Y-66370000D02*
X164850000Y-66370000D01*
X164850000Y-70220000D02*
X164850000Y-70370000D01*
X164850000Y-70370000D02*
X160050000Y-70370000D01*
X160050000Y-70370000D02*
X160050000Y-70220000D01*
X160050000Y-66520000D02*
X160050000Y-66370000D01*
X164850000Y-66370000D02*
X164850000Y-66520000D01*
X160050000Y-66520000D02*
X158350000Y-66520000D01*
%TO.C,U6*%
X156000000Y-73500000D02*
X155850000Y-73500000D01*
X156000000Y-68700000D02*
X156000000Y-73500000D01*
X152150000Y-73500000D02*
X152150000Y-75200000D01*
X152150000Y-73500000D02*
X152000000Y-73500000D01*
X152000000Y-73500000D02*
X152000000Y-68700000D01*
X152000000Y-68700000D02*
X152150000Y-68700000D01*
X155850000Y-68700000D02*
X156000000Y-68700000D01*
%TO.C,R12*%
X147227064Y-76065000D02*
X146772936Y-76065000D01*
X147227064Y-77535000D02*
X146772936Y-77535000D01*
D15*
%TO.C,SW2*%
X140014060Y-88025760D02*
X128385940Y-88025760D01*
X128385940Y-88025760D02*
X128385940Y-92374240D01*
X140014060Y-92374240D02*
X140014060Y-88025760D01*
X128385940Y-92374240D02*
X140014060Y-92374240D01*
D16*
%TO.C,R3*%
X132272936Y-95865000D02*
X132727064Y-95865000D01*
X132272936Y-97335000D02*
X132727064Y-97335000D01*
%TO.C,Q2*%
X138700000Y-98760000D02*
X139350000Y-98760000D01*
X138700000Y-98760000D02*
X138050000Y-98760000D01*
X138700000Y-95640000D02*
X137025000Y-95640000D01*
X138700000Y-95640000D02*
X139350000Y-95640000D01*
%TO.C,D1*%
X134580000Y-102290000D02*
X134736000Y-102290000D01*
X132264000Y-102290000D02*
X132420000Y-102290000D01*
X132420163Y-99688870D02*
G75*
G03*
X132420000Y-101770961I1079837J-1041130D01*
G01*
X134735516Y-102290000D02*
G75*
G03*
X134578608Y-99057665I-1235516J1560000D01*
G01*
X132421392Y-99057665D02*
G75*
G03*
X132264484Y-102290000I1078608J-1672335D01*
G01*
X134580000Y-101770961D02*
G75*
G03*
X134579837Y-99688870I-1080000J1040961D01*
G01*
%TO.C,F1*%
X120500000Y-107800000D02*
G75*
G03*
X120500000Y-107800000I-4360000J0D01*
G01*
%TO.C,R4*%
X146865000Y-60172936D02*
X146865000Y-60627064D01*
X148335000Y-60172936D02*
X148335000Y-60627064D01*
%TO.C,JP1*%
X151200000Y-58825000D02*
X151200000Y-61625000D01*
X149200000Y-58825000D02*
X151200000Y-58825000D01*
X149200000Y-61625000D02*
X149200000Y-58825000D01*
X151200000Y-61625000D02*
X149200000Y-61625000D01*
%TO.C,U2*%
X124565000Y-102862500D02*
X124565000Y-104662500D01*
X124565000Y-102862500D02*
X124565000Y-102062500D01*
X127685000Y-102862500D02*
X127685000Y-102062500D01*
X127685000Y-102862500D02*
X127685000Y-103662500D01*
%TO.C,R6*%
X164287941Y-65851561D02*
X164742069Y-65851561D01*
X164287941Y-64381561D02*
X164742069Y-64381561D01*
%TO.C,R11*%
X154727064Y-77535000D02*
X154272936Y-77535000D01*
X154727064Y-76065000D02*
X154272936Y-76065000D01*
%TO.C,R13*%
X142165000Y-69127064D02*
X142165000Y-68672936D01*
X143635000Y-69127064D02*
X143635000Y-68672936D01*
%TO.C,R7*%
X164472936Y-57865000D02*
X164927064Y-57865000D01*
X164472936Y-59335000D02*
X164927064Y-59335000D01*
D15*
%TO.C,SW1*%
X123714060Y-95225760D02*
X112085940Y-95225760D01*
X112085940Y-99574240D02*
X123714060Y-99574240D01*
X112085940Y-95225760D02*
X112085940Y-99574240D01*
X123714060Y-99574240D02*
X123714060Y-95225760D01*
%TD*%
M02*
