%TF.GenerationSoftware,KiCad,Pcbnew,6.0.11-2627ca5db0~126~ubuntu22.04.1*%
%TF.CreationDate,2023-03-06T19:17:37-05:00*%
%TF.ProjectId,atx-power-fixture,6174782d-706f-4776-9572-2d6669787475,2.0*%
%TF.SameCoordinates,Original*%
%TF.FileFunction,Copper,L3,Inr*%
%TF.FilePolarity,Positive*%
%FSLAX46Y46*%
G04 Gerber Fmt 4.6, Leading zero omitted, Abs format (unit mm)*
G04 Created by KiCad (PCBNEW 6.0.11-2627ca5db0~126~ubuntu22.04.1) date 2023-03-06 19:17:37*
%MOMM*%
%LPD*%
G01*
G04 APERTURE LIST*
%TA.AperFunction,ComponentPad*%
%ADD10R,2.100000X2.100000*%
%TD*%
%TA.AperFunction,ComponentPad*%
%ADD11C,2.100000*%
%TD*%
%TA.AperFunction,ComponentPad*%
%ADD12C,1.879600*%
%TD*%
%TA.AperFunction,ComponentPad*%
%ADD13R,1.700000X1.700000*%
%TD*%
%TA.AperFunction,ComponentPad*%
%ADD14O,1.700000X1.700000*%
%TD*%
%TA.AperFunction,ComponentPad*%
%ADD15O,0.950000X1.250000*%
%TD*%
%TA.AperFunction,ComponentPad*%
%ADD16O,1.550000X0.890000*%
%TD*%
%TA.AperFunction,ComponentPad*%
%ADD17O,1.600000X2.000000*%
%TD*%
%TA.AperFunction,ComponentPad*%
%ADD18R,1.879600X1.879600*%
%TD*%
%TA.AperFunction,ComponentPad*%
%ADD19C,2.898140*%
%TD*%
%TA.AperFunction,ComponentPad*%
%ADD20C,10.500000*%
%TD*%
%TA.AperFunction,ComponentPad*%
%ADD21C,2.247900*%
%TD*%
%TA.AperFunction,ComponentPad*%
%ADD22R,1.800000X1.800000*%
%TD*%
%TA.AperFunction,ComponentPad*%
%ADD23C,1.800000*%
%TD*%
%TA.AperFunction,ComponentPad*%
%ADD24C,2.000000*%
%TD*%
%TA.AperFunction,ViaPad*%
%ADD25C,0.800000*%
%TD*%
%TA.AperFunction,Conductor*%
%ADD26C,0.250000*%
%TD*%
G04 APERTURE END LIST*
D10*
%TO.N,IGNITION*%
%TO.C,J2*%
X157380000Y-93780000D03*
D11*
%TO.N,GND*%
X157380000Y-96320000D03*
%TD*%
D12*
%TO.N,GND*%
%TO.C,S2*%
X151128800Y-79829400D03*
X157631200Y-79829400D03*
%TO.N,~{RESET}*%
X151128800Y-84350600D03*
X157631200Y-84350600D03*
%TD*%
%TO.N,+3V3*%
%TO.C,S1*%
X141250000Y-75820000D03*
X147752400Y-75820000D03*
%TO.N,Net-(R7-Pad1)*%
X141250000Y-80341200D03*
X147752400Y-80341200D03*
%TD*%
D13*
%TO.N,SWDIO*%
%TO.C,J7*%
X161760000Y-78220000D03*
D14*
%TO.N,GND*%
X161760000Y-80760000D03*
%TO.N,SWDCLK*%
X161760000Y-83300000D03*
%TD*%
D15*
%TO.N,GND*%
%TO.C,J6*%
X165590000Y-84740000D03*
D16*
X168290000Y-83740000D03*
D15*
X165590000Y-89740000D03*
D16*
X168290000Y-90740000D03*
%TD*%
D17*
%TO.N,GND*%
%TO.C,U1*%
X121780000Y-57550000D03*
%TO.N,+3V3*%
X124320000Y-57550000D03*
%TO.N,SCL*%
X126860000Y-57550000D03*
%TO.N,SDA*%
X129400000Y-57550000D03*
%TD*%
D18*
%TO.N,unconnected-(J5-Pad1)*%
%TO.C,J5*%
X155260000Y-56200000D03*
D12*
%TO.N,ConsoleRX*%
X152720000Y-56200000D03*
%TO.N,ConsoleTX*%
X150180000Y-56200000D03*
%TO.N,Net-(J5-Pad4)*%
X147640000Y-56200000D03*
%TO.N,unconnected-(J5-Pad5)*%
X145100000Y-56200000D03*
%TO.N,GND*%
X142560000Y-56200000D03*
%TD*%
D19*
%TO.N,+3V3*%
%TO.C,J1*%
X102800000Y-108800720D03*
X102800000Y-104599560D03*
%TO.N,GND*%
X102800000Y-100400940D03*
%TO.N,+5V*%
X102800000Y-96199780D03*
%TO.N,GND*%
X102800000Y-92001160D03*
%TO.N,+5V*%
X102800000Y-87800000D03*
%TO.N,GND*%
X102800000Y-83603920D03*
%TO.N,Net-(J1-Pad8)*%
X102800000Y-79402760D03*
%TO.N,unconnected-(J1-Pad9)*%
X102800000Y-75204140D03*
%TO.N,+12Vin*%
X102800000Y-71002980D03*
X102800000Y-66804360D03*
%TO.N,+3V3*%
X102800000Y-62603200D03*
X108299100Y-108800720D03*
%TO.N,unconnected-(J1-Pad14)*%
X108299100Y-104599560D03*
%TO.N,GND*%
X108299100Y-100400940D03*
%TO.N,Net-(J1-Pad16)*%
X108299100Y-96199780D03*
%TO.N,GND*%
X108299100Y-92001160D03*
X108299100Y-87800000D03*
X108299100Y-83603920D03*
%TO.N,unconnected-(J1-Pad20)*%
X108299100Y-79402760D03*
%TO.N,+5V*%
X108299100Y-75204140D03*
X108299100Y-71002980D03*
X108299100Y-66804360D03*
%TO.N,GND*%
X108299100Y-62603200D03*
%TD*%
D20*
%TO.N,GND*%
%TO.C,J3*%
X157609375Y-107849200D03*
D21*
X165229375Y-107900000D03*
%TD*%
%TO.N,+12V*%
%TO.C,J4*%
X134870625Y-107753676D03*
D20*
X142490625Y-107804476D03*
%TD*%
D12*
%TO.N,GND*%
%TO.C,SW2*%
X136740000Y-90200000D03*
%TO.N,~{IGNITION_SW}*%
X134200000Y-90200000D03*
%TO.N,N/C*%
X131660000Y-90200000D03*
%TD*%
D22*
%TO.N,GND*%
%TO.C,D1*%
X133500000Y-102000000D03*
D23*
%TO.N,Net-(D1-Pad2)*%
X133500000Y-99460000D03*
%TD*%
D24*
%TO.N,+12Vin*%
%TO.C,F1*%
X113600000Y-107800000D03*
%TO.N,Net-(F1-Pad2)*%
X118680000Y-107800000D03*
%TD*%
D12*
%TO.N,GND*%
%TO.C,SW1*%
X120440000Y-97400000D03*
%TO.N,Net-(J1-Pad16)*%
X117900000Y-97400000D03*
%TO.N,N/C*%
X115360000Y-97400000D03*
%TD*%
D25*
%TO.N,/VDDA*%
X140090000Y-86900000D03*
%TO.N,GND*%
X145990000Y-94560000D03*
%TO.N,USB_D+*%
X162780000Y-87030000D03*
%TO.N,USB_D-*%
X162760000Y-88230000D03*
X149450000Y-86770000D03*
%TO.N,USB_D+*%
X148900000Y-85859500D03*
%TO.N,SWDIO*%
X152695000Y-86125000D03*
%TO.N,SWDCLK*%
X147370000Y-83080000D03*
%TO.N,+3V3*%
X154440000Y-80730000D03*
%TO.N,Net-(R5-Pad1)*%
X149160000Y-88990000D03*
%TO.N,GND*%
X149540000Y-87980000D03*
%TO.N,+3V3*%
X145080000Y-85620000D03*
%TO.N,LocalRX*%
X143390000Y-89690000D03*
%TO.N,LocalTX*%
X143310000Y-88490000D03*
%TO.N,~{RESET}*%
X143490000Y-85890000D03*
%TO.N,IGNITION_EN*%
X140130000Y-88940000D03*
%TO.N,SCL*%
X138500000Y-85530000D03*
%TO.N,SDA*%
X139100000Y-84730000D03*
%TO.N,SCL*%
X128000000Y-87960000D03*
%TO.N,SDA*%
X129400000Y-86620000D03*
%TO.N,LocalRX*%
X158460000Y-74770000D03*
%TO.N,GND*%
X152800000Y-69600000D03*
X126000000Y-89800000D03*
X103000000Y-84500000D03*
X126524500Y-105300000D03*
X155966561Y-69604995D03*
X140600000Y-94800000D03*
%TO.N,+5V*%
X116700000Y-89800000D03*
%TO.N,IGNITION*%
X137600000Y-100000000D03*
X144700000Y-96200000D03*
%TO.N,LocalTX*%
X155030000Y-75270000D03*
%TO.N,SDA*%
X126500000Y-99100000D03*
%TO.N,SCL*%
X126400000Y-97900000D03*
%TO.N,Net-(J1-Pad8)*%
X125200000Y-94300000D03*
%TO.N,IGNITION_EN*%
X135700000Y-95600000D03*
%TD*%
D26*
%TO.N,SWDIO*%
X152695000Y-86125000D02*
X157010000Y-81810000D01*
X157010000Y-81810000D02*
X158210000Y-81810000D01*
X158210000Y-81810000D02*
X161760000Y-78260000D01*
X161760000Y-78260000D02*
X161760000Y-78220000D01*
%TO.N,LocalRX*%
X143390000Y-89690000D02*
X158310000Y-74770000D01*
X158310000Y-74770000D02*
X158460000Y-74770000D01*
%TO.N,LocalTX*%
X143310000Y-88490000D02*
X149480000Y-82320000D01*
X149480000Y-82320000D02*
X149480000Y-79060000D01*
X149480000Y-79060000D02*
X153270000Y-75270000D01*
X153270000Y-75270000D02*
X155030000Y-75270000D01*
%TO.N,SCL*%
X128000000Y-96300000D02*
X128000000Y-87960000D01*
X128000000Y-87960000D02*
X128000000Y-62600000D01*
%TO.N,SDA*%
X129400000Y-96200000D02*
X129400000Y-86620000D01*
X129400000Y-86620000D02*
X129400000Y-57550000D01*
%TO.N,SCL*%
X126400000Y-97900000D02*
X128000000Y-96300000D01*
X128000000Y-62600000D02*
X126860000Y-61460000D01*
X126860000Y-61460000D02*
X126860000Y-57550000D01*
%TO.N,SDA*%
X129400000Y-96200000D02*
X126500000Y-99100000D01*
%TO.N,Net-(J1-Pad8)*%
X112437913Y-81537913D02*
X104935153Y-81537913D01*
X125200000Y-94300000D02*
X112437913Y-81537913D01*
X104935153Y-81537913D02*
X102800000Y-79402760D01*
%TD*%
M02*
