%TF.GenerationSoftware,KiCad,Pcbnew,6.0.11-2627ca5db0~126~ubuntu22.04.1*%
%TF.CreationDate,2023-03-06T19:17:37-05:00*%
%TF.ProjectId,atx-power-fixture,6174782d-706f-4776-9572-2d6669787475,2.0*%
%TF.SameCoordinates,Original*%
%TF.FileFunction,Paste,Top*%
%TF.FilePolarity,Positive*%
%FSLAX46Y46*%
G04 Gerber Fmt 4.6, Leading zero omitted, Abs format (unit mm)*
G04 Created by KiCad (PCBNEW 6.0.11-2627ca5db0~126~ubuntu22.04.1) date 2023-03-06 19:17:37*
%MOMM*%
%LPD*%
G01*
G04 APERTURE LIST*
G04 Aperture macros list*
%AMRoundRect*
0 Rectangle with rounded corners*
0 $1 Rounding radius*
0 $2 $3 $4 $5 $6 $7 $8 $9 X,Y pos of 4 corners*
0 Add a 4 corners polygon primitive as box body*
4,1,4,$2,$3,$4,$5,$6,$7,$8,$9,$2,$3,0*
0 Add four circle primitives for the rounded corners*
1,1,$1+$1,$2,$3*
1,1,$1+$1,$4,$5*
1,1,$1+$1,$6,$7*
1,1,$1+$1,$8,$9*
0 Add four rect primitives between the rounded corners*
20,1,$1+$1,$2,$3,$4,$5,0*
20,1,$1+$1,$4,$5,$6,$7,0*
20,1,$1+$1,$6,$7,$8,$9,0*
20,1,$1+$1,$8,$9,$2,$3,0*%
G04 Aperture macros list end*
%ADD10RoundRect,0.100000X-0.637500X-0.100000X0.637500X-0.100000X0.637500X0.100000X-0.637500X0.100000X0*%
%ADD11RoundRect,0.250000X-0.450000X0.350000X-0.450000X-0.350000X0.450000X-0.350000X0.450000X0.350000X0*%
%ADD12O,1.550000X0.890000*%
%ADD13O,0.950000X1.250000*%
%ADD14R,1.350000X0.400000*%
%ADD15R,1.550000X1.200000*%
%ADD16R,1.550000X1.500000*%
%ADD17RoundRect,0.250000X0.450000X-0.325000X0.450000X0.325000X-0.450000X0.325000X-0.450000X-0.325000X0*%
%ADD18R,1.879600X1.879600*%
%ADD19C,1.879600*%
%ADD20R,0.640000X2.000000*%
%ADD21RoundRect,0.250000X0.450000X-0.350000X0.450000X0.350000X-0.450000X0.350000X-0.450000X-0.350000X0*%
%ADD22R,2.794000X5.257800*%
%ADD23RoundRect,0.250000X-0.400000X-1.450000X0.400000X-1.450000X0.400000X1.450000X-0.400000X1.450000X0*%
%ADD24RoundRect,0.250000X-0.350000X-0.450000X0.350000X-0.450000X0.350000X0.450000X-0.350000X0.450000X0*%
%ADD25RoundRect,0.250000X0.350000X0.450000X-0.350000X0.450000X-0.350000X-0.450000X0.350000X-0.450000X0*%
%ADD26RoundRect,0.150000X-0.587500X-0.150000X0.587500X-0.150000X0.587500X0.150000X-0.587500X0.150000X0*%
%ADD27RoundRect,0.125000X0.125000X-0.537500X0.125000X0.537500X-0.125000X0.537500X-0.125000X-0.537500X0*%
G04 APERTURE END LIST*
D10*
%TO.C,U3*%
X141647500Y-84485000D03*
X141647500Y-85135000D03*
X141647500Y-85785000D03*
X141647500Y-86435000D03*
X141647500Y-87085000D03*
X141647500Y-87735000D03*
X141647500Y-88385000D03*
X141647500Y-89035000D03*
X141647500Y-89685000D03*
X141647500Y-90335000D03*
X147372500Y-90335000D03*
X147372500Y-89685000D03*
X147372500Y-89035000D03*
X147372500Y-88385000D03*
X147372500Y-87735000D03*
X147372500Y-87085000D03*
X147372500Y-86435000D03*
X147372500Y-85785000D03*
X147372500Y-85135000D03*
X147372500Y-84485000D03*
%TD*%
D11*
%TO.C,R5*%
X149750000Y-90630000D03*
X149750000Y-92630000D03*
%TD*%
D12*
%TO.C,J6*%
X168290000Y-90740000D03*
X168290000Y-83740000D03*
D13*
X165590000Y-84740000D03*
X165590000Y-89740000D03*
D14*
X165590000Y-88540000D03*
X165590000Y-87890000D03*
X165590000Y-87240000D03*
X165590000Y-86590000D03*
X165590000Y-85940000D03*
D15*
X168290000Y-90140000D03*
D16*
X168290000Y-86240000D03*
D15*
X168290000Y-84340000D03*
D16*
X168290000Y-88240000D03*
%TD*%
D17*
%TO.C,D2*%
X147510000Y-94625000D03*
X147510000Y-92575000D03*
%TD*%
D18*
%TO.C,J5*%
X155260000Y-56200000D03*
D19*
X152720000Y-56200000D03*
X150180000Y-56200000D03*
X147640000Y-56200000D03*
X145100000Y-56200000D03*
X142560000Y-56200000D03*
%TD*%
D20*
%TO.C,U7*%
X150260000Y-72720000D03*
X152800000Y-72720000D03*
X152800000Y-66420000D03*
X150260000Y-66420000D03*
%TD*%
D21*
%TO.C,R10*%
X142300000Y-96100000D03*
X142300000Y-94100000D03*
%TD*%
D22*
%TO.C,R1*%
X122500000Y-89800000D03*
X113584600Y-89800000D03*
%TD*%
D23*
%TO.C,R2*%
X123275000Y-107700000D03*
X127725000Y-107700000D03*
%TD*%
D24*
%TO.C,R8*%
X132425000Y-85900000D03*
X134425000Y-85900000D03*
%TD*%
D20*
%TO.C,U5*%
X158506561Y-66464995D03*
X155966561Y-66464995D03*
X155966561Y-72764995D03*
X158506561Y-72764995D03*
%TD*%
D25*
%TO.C,R12*%
X153130000Y-75270000D03*
X151130000Y-75270000D03*
%TD*%
D24*
%TO.C,R3*%
X131500000Y-96600000D03*
X133500000Y-96600000D03*
%TD*%
D26*
%TO.C,Q2*%
X137762500Y-96250000D03*
X137762500Y-98150000D03*
X139637500Y-97200000D03*
%TD*%
D11*
%TO.C,R4*%
X152730000Y-61840000D03*
X152730000Y-63840000D03*
%TD*%
D27*
%TO.C,U2*%
X125150000Y-104000000D03*
X125800000Y-104000000D03*
X126450000Y-104000000D03*
X127100000Y-104000000D03*
X127100000Y-101725000D03*
X126450000Y-101725000D03*
X125800000Y-101725000D03*
X125150000Y-101725000D03*
%TD*%
D11*
%TO.C,R6*%
X160490000Y-70680000D03*
X160490000Y-72680000D03*
%TD*%
D21*
%TO.C,R13*%
X148030000Y-68370000D03*
X148030000Y-66370000D03*
%TD*%
M02*
