%TF.GenerationSoftware,KiCad,Pcbnew,6.0.2+dfsg-1*%
%TF.CreationDate,2023-02-07T14:17:08-05:00*%
%TF.ProjectId,atx-power-fixture,6174782d-706f-4776-9572-2d6669787475,2.0*%
%TF.SameCoordinates,Original*%
%TF.FileFunction,Legend,Bot*%
%TF.FilePolarity,Positive*%
%FSLAX46Y46*%
G04 Gerber Fmt 4.6, Leading zero omitted, Abs format (unit mm)*
G04 Created by KiCad (PCBNEW 6.0.2+dfsg-1) date 2023-02-07 14:17:08*
%MOMM*%
%LPD*%
G01*
G04 APERTURE LIST*
%ADD10C,0.150000*%
%ADD11C,0.120000*%
G04 APERTURE END LIST*
D10*
%TO.C,Q1*%
X189595238Y-53547619D02*
X189690476Y-53500000D01*
X189785714Y-53404761D01*
X189928571Y-53261904D01*
X190023809Y-53214285D01*
X190119047Y-53214285D01*
X190071428Y-53452380D02*
X190166666Y-53404761D01*
X190261904Y-53309523D01*
X190309523Y-53119047D01*
X190309523Y-52785714D01*
X190261904Y-52595238D01*
X190166666Y-52500000D01*
X190071428Y-52452380D01*
X189880952Y-52452380D01*
X189785714Y-52500000D01*
X189690476Y-52595238D01*
X189642857Y-52785714D01*
X189642857Y-53119047D01*
X189690476Y-53309523D01*
X189785714Y-53404761D01*
X189880952Y-53452380D01*
X190071428Y-53452380D01*
X188690476Y-53452380D02*
X189261904Y-53452380D01*
X188976190Y-53452380D02*
X188976190Y-52452380D01*
X189071428Y-52595238D01*
X189166666Y-52690476D01*
X189261904Y-52738095D01*
%TO.C,R9*%
X188652380Y-99933333D02*
X188176190Y-99600000D01*
X188652380Y-99361904D02*
X187652380Y-99361904D01*
X187652380Y-99742857D01*
X187700000Y-99838095D01*
X187747619Y-99885714D01*
X187842857Y-99933333D01*
X187985714Y-99933333D01*
X188080952Y-99885714D01*
X188128571Y-99838095D01*
X188176190Y-99742857D01*
X188176190Y-99361904D01*
X188652380Y-100409523D02*
X188652380Y-100600000D01*
X188604761Y-100695238D01*
X188557142Y-100742857D01*
X188414285Y-100838095D01*
X188223809Y-100885714D01*
X187842857Y-100885714D01*
X187747619Y-100838095D01*
X187700000Y-100790476D01*
X187652380Y-100695238D01*
X187652380Y-100504761D01*
X187700000Y-100409523D01*
X187747619Y-100361904D01*
X187842857Y-100314285D01*
X188080952Y-100314285D01*
X188176190Y-100361904D01*
X188223809Y-100409523D01*
X188271428Y-100504761D01*
X188271428Y-100695238D01*
X188223809Y-100790476D01*
X188176190Y-100838095D01*
X188080952Y-100885714D01*
D11*
%TO.C,Q1*%
X189500000Y-53840000D02*
X188850000Y-53840000D01*
X189500000Y-56960000D02*
X188850000Y-56960000D01*
X189500000Y-53840000D02*
X191175000Y-53840000D01*
X189500000Y-56960000D02*
X190150000Y-56960000D01*
%TO.C,R9*%
X189165000Y-101727064D02*
X189165000Y-101272936D01*
X190635000Y-101727064D02*
X190635000Y-101272936D01*
%TD*%
M02*
