%TF.GenerationSoftware,KiCad,Pcbnew,6.0.11-2627ca5db0~126~ubuntu22.04.1*%
%TF.CreationDate,2023-02-14T23:30:32-05:00*%
%TF.ProjectId,atx-power-fixture,6174782d-706f-4776-9572-2d6669787475,2.0*%
%TF.SameCoordinates,Original*%
%TF.FileFunction,Soldermask,Top*%
%TF.FilePolarity,Negative*%
%FSLAX46Y46*%
G04 Gerber Fmt 4.6, Leading zero omitted, Abs format (unit mm)*
G04 Created by KiCad (PCBNEW 6.0.11-2627ca5db0~126~ubuntu22.04.1) date 2023-02-14 23:30:32*
%MOMM*%
%LPD*%
G01*
G04 APERTURE LIST*
G04 Aperture macros list*
%AMRoundRect*
0 Rectangle with rounded corners*
0 $1 Rounding radius*
0 $2 $3 $4 $5 $6 $7 $8 $9 X,Y pos of 4 corners*
0 Add a 4 corners polygon primitive as box body*
4,1,4,$2,$3,$4,$5,$6,$7,$8,$9,$2,$3,0*
0 Add four circle primitives for the rounded corners*
1,1,$1+$1,$2,$3*
1,1,$1+$1,$4,$5*
1,1,$1+$1,$6,$7*
1,1,$1+$1,$8,$9*
0 Add four rect primitives between the rounded corners*
20,1,$1+$1,$2,$3,$4,$5,0*
20,1,$1+$1,$4,$5,$6,$7,0*
20,1,$1+$1,$6,$7,$8,$9,0*
20,1,$1+$1,$8,$9,$2,$3,0*%
%AMFreePoly0*
4,1,6,1.000000,0.000000,0.500000,-0.750000,-0.500000,-0.750000,-0.500000,0.750000,0.500000,0.750000,1.000000,0.000000,1.000000,0.000000,$1*%
%AMFreePoly1*
4,1,6,0.500000,-0.750000,-0.650000,-0.750000,-0.150000,0.000000,-0.650000,0.750000,0.500000,0.750000,0.500000,-0.750000,0.500000,-0.750000,$1*%
G04 Aperture macros list end*
%ADD10R,1.879600X1.879600*%
%ADD11C,1.879600*%
%ADD12O,1.800000X1.800000*%
%ADD13O,1.500000X1.500000*%
%ADD14O,1.700000X1.700000*%
%ADD15R,3.500000X1.700000*%
%ADD16R,1.700000X1.700000*%
%ADD17C,3.202940*%
%ADD18C,3.101340*%
%ADD19R,3.960000X1.980000*%
%ADD20O,3.960000X1.980000*%
%ADD21R,0.640000X2.000000*%
%ADD22RoundRect,0.250000X0.450000X-0.350000X0.450000X0.350000X-0.450000X0.350000X-0.450000X-0.350000X0*%
%ADD23C,10.500000*%
%ADD24C,2.451100*%
%ADD25R,2.000000X0.640000*%
%ADD26O,1.600000X2.000000*%
%ADD27RoundRect,0.250000X-0.450000X0.350000X-0.450000X-0.350000X0.450000X-0.350000X0.450000X0.350000X0*%
%ADD28R,2.794000X5.257800*%
%ADD29RoundRect,0.250000X-0.400000X-1.450000X0.400000X-1.450000X0.400000X1.450000X-0.400000X1.450000X0*%
%ADD30RoundRect,0.250000X-0.350000X-0.450000X0.350000X-0.450000X0.350000X0.450000X-0.350000X0.450000X0*%
%ADD31RoundRect,0.250000X0.350000X0.450000X-0.350000X0.450000X-0.350000X-0.450000X0.350000X-0.450000X0*%
%ADD32C,2.082800*%
%ADD33RoundRect,0.150000X-0.587500X-0.150000X0.587500X-0.150000X0.587500X0.150000X-0.587500X0.150000X0*%
%ADD34R,1.800000X1.800000*%
%ADD35C,1.800000*%
%ADD36C,2.000000*%
%ADD37FreePoly0,90.000000*%
%ADD38FreePoly1,90.000000*%
%ADD39RoundRect,0.125000X0.125000X-0.537500X0.125000X0.537500X-0.125000X0.537500X-0.125000X-0.537500X0*%
G04 APERTURE END LIST*
D10*
%TO.C,J5*%
X155260000Y-56200000D03*
D11*
X152720000Y-56200000D03*
X150180000Y-56200000D03*
X147640000Y-56200000D03*
X145100000Y-56200000D03*
X142560000Y-56200000D03*
%TD*%
D12*
%TO.C,U3*%
X186325000Y-54200000D03*
X180875000Y-54200000D03*
D13*
X181175000Y-57230000D03*
X186025000Y-57230000D03*
D14*
X174710000Y-54070000D03*
D15*
X173810000Y-54070000D03*
D14*
X174710000Y-56610000D03*
D15*
X173810000Y-56610000D03*
D16*
X174710000Y-59150000D03*
D15*
X173810000Y-59150000D03*
X173810000Y-61690000D03*
D14*
X174710000Y-61690000D03*
D15*
X173810000Y-64230000D03*
D14*
X174710000Y-64230000D03*
D15*
X173810000Y-66770000D03*
D14*
X174710000Y-66770000D03*
X174710000Y-69310000D03*
D15*
X173810000Y-69310000D03*
X173810000Y-71850000D03*
D16*
X174710000Y-71850000D03*
D15*
X173810000Y-74390000D03*
D14*
X174710000Y-74390000D03*
X174710000Y-76930000D03*
D15*
X173810000Y-76930000D03*
D14*
X174710000Y-79470000D03*
D15*
X173810000Y-79470000D03*
X173810000Y-82010000D03*
D14*
X174710000Y-82010000D03*
D15*
X173810000Y-84550000D03*
D16*
X174710000Y-84550000D03*
D14*
X174710000Y-87090000D03*
D15*
X173810000Y-87090000D03*
X173810000Y-89630000D03*
D14*
X174710000Y-89630000D03*
X174710000Y-92170000D03*
D15*
X173810000Y-92170000D03*
X173810000Y-94710000D03*
D14*
X174710000Y-94710000D03*
D15*
X173810000Y-97250000D03*
D16*
X174710000Y-97250000D03*
D14*
X174710000Y-99790000D03*
D15*
X173810000Y-99790000D03*
D14*
X174710000Y-102330000D03*
D15*
X173810000Y-102330000D03*
X193390000Y-102330000D03*
D14*
X192490000Y-102330000D03*
D15*
X193390000Y-99790000D03*
D14*
X192490000Y-99790000D03*
D16*
X192490000Y-97250000D03*
D15*
X193390000Y-97250000D03*
D14*
X192490000Y-94710000D03*
D15*
X193390000Y-94710000D03*
X193390000Y-92170000D03*
D14*
X192490000Y-92170000D03*
D15*
X193390000Y-89630000D03*
D14*
X192490000Y-89630000D03*
X192490000Y-87090000D03*
D15*
X193390000Y-87090000D03*
X193390000Y-84550000D03*
D16*
X192490000Y-84550000D03*
D15*
X193390000Y-82010000D03*
D14*
X192490000Y-82010000D03*
X192490000Y-79470000D03*
D15*
X193390000Y-79470000D03*
D14*
X192490000Y-76930000D03*
D15*
X193390000Y-76930000D03*
D14*
X192490000Y-74390000D03*
D15*
X193390000Y-74390000D03*
X193390000Y-71850000D03*
D16*
X192490000Y-71850000D03*
D14*
X192490000Y-69310000D03*
D15*
X193390000Y-69310000D03*
D14*
X192490000Y-66770000D03*
D15*
X193390000Y-66770000D03*
D14*
X192490000Y-64230000D03*
D15*
X193390000Y-64230000D03*
X193390000Y-61690000D03*
D14*
X192490000Y-61690000D03*
D15*
X193390000Y-59150000D03*
D16*
X192490000Y-59150000D03*
D15*
X193390000Y-56610000D03*
D14*
X192490000Y-56610000D03*
D15*
X193390000Y-54070000D03*
D14*
X192490000Y-54070000D03*
X184184100Y-83800000D03*
D16*
X186724100Y-83800000D03*
D14*
X189264100Y-83800000D03*
%TD*%
D17*
%TO.C,J1*%
X95500040Y-62603200D03*
X95500040Y-108800720D03*
D18*
X102800000Y-108800720D03*
X102800000Y-104599560D03*
X102800000Y-100400940D03*
X102800000Y-96199780D03*
X102800000Y-92001160D03*
X102800000Y-87800000D03*
X102800000Y-83603920D03*
X102800000Y-79402760D03*
X102800000Y-75204140D03*
X102800000Y-71002980D03*
X102800000Y-66804360D03*
X102800000Y-62603200D03*
X108299100Y-108800720D03*
X108299100Y-104599560D03*
X108299100Y-100400940D03*
X108299100Y-96199780D03*
X108299100Y-92001160D03*
X108299100Y-87800000D03*
X108299100Y-83603920D03*
X108299100Y-79402760D03*
X108299100Y-75204140D03*
X108299100Y-71002980D03*
X108299100Y-66804360D03*
X108299100Y-62603200D03*
%TD*%
D19*
%TO.C,J2*%
X149900000Y-83300000D03*
D20*
X149900000Y-88300000D03*
%TD*%
D21*
%TO.C,U7*%
X145130000Y-74250000D03*
X147670000Y-74250000D03*
X147670000Y-67950000D03*
X145130000Y-67950000D03*
%TD*%
D22*
%TO.C,R10*%
X142300000Y-96100000D03*
X142300000Y-94100000D03*
%TD*%
D23*
%TO.C,J3*%
X157609375Y-107849200D03*
D24*
X165229375Y-107900000D03*
%TD*%
D25*
%TO.C,U4*%
X159250000Y-60630000D03*
X159250000Y-63170000D03*
X165550000Y-63170000D03*
X165550000Y-60630000D03*
%TD*%
D26*
%TO.C,U1*%
X121780000Y-57550000D03*
X124320000Y-57550000D03*
X126860000Y-57550000D03*
X129400000Y-57550000D03*
%TD*%
D22*
%TO.C,R14*%
X150800000Y-69900000D03*
X150800000Y-67900000D03*
%TD*%
D27*
%TO.C,R5*%
X142600000Y-59300000D03*
X142600000Y-61300000D03*
%TD*%
D24*
%TO.C,J4*%
X134870625Y-107753676D03*
D23*
X142490625Y-107804476D03*
%TD*%
D28*
%TO.C,R1*%
X122500000Y-89800000D03*
X113584600Y-89800000D03*
%TD*%
D29*
%TO.C,R2*%
X123275000Y-107700000D03*
X127725000Y-107700000D03*
%TD*%
D30*
%TO.C,R8*%
X132425000Y-85900000D03*
X134425000Y-85900000D03*
%TD*%
D25*
%TO.C,U5*%
X159300000Y-67100000D03*
X159300000Y-69640000D03*
X165600000Y-69640000D03*
X165600000Y-67100000D03*
%TD*%
D21*
%TO.C,U6*%
X152730000Y-74250000D03*
X155270000Y-74250000D03*
X155270000Y-67950000D03*
X152730000Y-67950000D03*
%TD*%
D31*
%TO.C,R12*%
X148000000Y-76800000D03*
X146000000Y-76800000D03*
%TD*%
D32*
%TO.C,SW2*%
X136740000Y-90200000D03*
X134200000Y-90200000D03*
X131660000Y-90200000D03*
%TD*%
D30*
%TO.C,R3*%
X131500000Y-96600000D03*
X133500000Y-96600000D03*
%TD*%
D33*
%TO.C,Q2*%
X137762500Y-96250000D03*
X137762500Y-98150000D03*
X139637500Y-97200000D03*
%TD*%
D34*
%TO.C,D1*%
X133500000Y-102000000D03*
D35*
X133500000Y-99460000D03*
%TD*%
D36*
%TO.C,F1*%
X113600000Y-107800000D03*
X118680000Y-107800000D03*
%TD*%
D27*
%TO.C,R4*%
X147600000Y-59400000D03*
X147600000Y-61400000D03*
%TD*%
D37*
%TO.C,JP1*%
X150200000Y-60950000D03*
D38*
X150200000Y-59500000D03*
%TD*%
D39*
%TO.C,U2*%
X125150000Y-104000000D03*
X125800000Y-104000000D03*
X126450000Y-104000000D03*
X127100000Y-104000000D03*
X127100000Y-101725000D03*
X126450000Y-101725000D03*
X125800000Y-101725000D03*
X125150000Y-101725000D03*
%TD*%
D30*
%TO.C,R6*%
X163515005Y-65116561D03*
X165515005Y-65116561D03*
%TD*%
D31*
%TO.C,R11*%
X155500000Y-76800000D03*
X153500000Y-76800000D03*
%TD*%
D22*
%TO.C,R13*%
X142900000Y-69900000D03*
X142900000Y-67900000D03*
%TD*%
D30*
%TO.C,R7*%
X163700000Y-58600000D03*
X165700000Y-58600000D03*
%TD*%
D32*
%TO.C,SW1*%
X120440000Y-97400000D03*
X117900000Y-97400000D03*
X115360000Y-97400000D03*
%TD*%
M02*
