%TF.GenerationSoftware,KiCad,Pcbnew,6.0.2+dfsg-1*%
%TF.CreationDate,2023-02-07T14:17:08-05:00*%
%TF.ProjectId,atx-power-fixture,6174782d-706f-4776-9572-2d6669787475,2.0*%
%TF.SameCoordinates,Original*%
%TF.FileFunction,Soldermask,Bot*%
%TF.FilePolarity,Negative*%
%FSLAX46Y46*%
G04 Gerber Fmt 4.6, Leading zero omitted, Abs format (unit mm)*
G04 Created by KiCad (PCBNEW 6.0.2+dfsg-1) date 2023-02-07 14:17:08*
%MOMM*%
%LPD*%
G01*
G04 APERTURE LIST*
G04 Aperture macros list*
%AMRoundRect*
0 Rectangle with rounded corners*
0 $1 Rounding radius*
0 $2 $3 $4 $5 $6 $7 $8 $9 X,Y pos of 4 corners*
0 Add a 4 corners polygon primitive as box body*
4,1,4,$2,$3,$4,$5,$6,$7,$8,$9,$2,$3,0*
0 Add four circle primitives for the rounded corners*
1,1,$1+$1,$2,$3*
1,1,$1+$1,$4,$5*
1,1,$1+$1,$6,$7*
1,1,$1+$1,$8,$9*
0 Add four rect primitives between the rounded corners*
20,1,$1+$1,$2,$3,$4,$5,0*
20,1,$1+$1,$4,$5,$6,$7,0*
20,1,$1+$1,$6,$7,$8,$9,0*
20,1,$1+$1,$8,$9,$2,$3,0*%
G04 Aperture macros list end*
%ADD10C,3.202940*%
%ADD11C,3.101340*%
%ADD12R,3.960000X1.980000*%
%ADD13O,3.960000X1.980000*%
%ADD14C,10.500000*%
%ADD15C,2.451100*%
%ADD16O,1.600000X2.000000*%
%ADD17O,1.800000X1.800000*%
%ADD18O,1.500000X1.500000*%
%ADD19O,1.700000X1.700000*%
%ADD20R,1.700000X1.700000*%
%ADD21C,2.082800*%
%ADD22R,1.800000X1.800000*%
%ADD23C,1.800000*%
%ADD24C,2.000000*%
%ADD25RoundRect,0.150000X0.587500X0.150000X-0.587500X0.150000X-0.587500X-0.150000X0.587500X-0.150000X0*%
%ADD26RoundRect,0.250000X0.450000X-0.350000X0.450000X0.350000X-0.450000X0.350000X-0.450000X-0.350000X0*%
G04 APERTURE END LIST*
D10*
%TO.C,J1*%
X95500040Y-62603200D03*
X95500040Y-108800720D03*
D11*
X102800000Y-108800720D03*
X102800000Y-104599560D03*
X102800000Y-100400940D03*
X102800000Y-96199780D03*
X102800000Y-92001160D03*
X102800000Y-87800000D03*
X102800000Y-83603920D03*
X102800000Y-79402760D03*
X102800000Y-75204140D03*
X102800000Y-71002980D03*
X102800000Y-66804360D03*
X102800000Y-62603200D03*
X108299100Y-108800720D03*
X108299100Y-104599560D03*
X108299100Y-100400940D03*
X108299100Y-96199780D03*
X108299100Y-92001160D03*
X108299100Y-87800000D03*
X108299100Y-83603920D03*
X108299100Y-79402760D03*
X108299100Y-75204140D03*
X108299100Y-71002980D03*
X108299100Y-66804360D03*
X108299100Y-62603200D03*
%TD*%
D12*
%TO.C,J2*%
X149900000Y-83300000D03*
D13*
X149900000Y-88300000D03*
%TD*%
D14*
%TO.C,J3*%
X157609375Y-107849200D03*
D15*
X165229375Y-107900000D03*
%TD*%
D16*
%TO.C,U1*%
X121780000Y-57550000D03*
X124320000Y-57550000D03*
X126860000Y-57550000D03*
X129400000Y-57550000D03*
%TD*%
D15*
%TO.C,J4*%
X134870625Y-107753676D03*
D14*
X142490625Y-107804476D03*
%TD*%
D17*
%TO.C,U3*%
X186315000Y-54350000D03*
D18*
X181165000Y-57380000D03*
X186015000Y-57380000D03*
D17*
X180865000Y-54350000D03*
D19*
X174700000Y-54220000D03*
X174700000Y-56760000D03*
D20*
X174700000Y-59300000D03*
D19*
X174700000Y-61840000D03*
X174700000Y-64380000D03*
X174700000Y-66920000D03*
X174700000Y-69460000D03*
D20*
X174700000Y-72000000D03*
D19*
X174700000Y-74540000D03*
X174700000Y-77080000D03*
X174700000Y-79620000D03*
X174700000Y-82160000D03*
D20*
X174700000Y-84700000D03*
D19*
X174700000Y-87240000D03*
X174700000Y-89780000D03*
X174700000Y-92320000D03*
X174700000Y-94860000D03*
D20*
X174700000Y-97400000D03*
D19*
X174700000Y-99940000D03*
X174700000Y-102480000D03*
X192480000Y-102480000D03*
X192480000Y-99940000D03*
D20*
X192480000Y-97400000D03*
D19*
X192480000Y-94860000D03*
X192480000Y-92320000D03*
X192480000Y-89780000D03*
X192480000Y-87240000D03*
D20*
X192480000Y-84700000D03*
D19*
X192480000Y-82160000D03*
X192480000Y-79620000D03*
X192480000Y-77080000D03*
X192480000Y-74540000D03*
D20*
X192480000Y-72000000D03*
D19*
X192480000Y-69460000D03*
X192480000Y-66920000D03*
X192480000Y-64380000D03*
X192480000Y-61840000D03*
D20*
X192480000Y-59300000D03*
D19*
X192480000Y-56760000D03*
X192480000Y-54220000D03*
X181050000Y-102250000D03*
D20*
X183590000Y-102250000D03*
D19*
X186130000Y-102250000D03*
%TD*%
D21*
%TO.C,SW2*%
X136740000Y-90200000D03*
X134200000Y-90200000D03*
X131660000Y-90200000D03*
%TD*%
D22*
%TO.C,D1*%
X133500000Y-102000000D03*
D23*
X133500000Y-99460000D03*
%TD*%
D24*
%TO.C,F1*%
X113600000Y-107800000D03*
X118680000Y-107800000D03*
%TD*%
D21*
%TO.C,SW1*%
X120440000Y-97400000D03*
X117900000Y-97400000D03*
X115360000Y-97400000D03*
%TD*%
D25*
%TO.C,Q1*%
X190437500Y-54450000D03*
X190437500Y-56350000D03*
X188562500Y-55400000D03*
%TD*%
D26*
%TO.C,R9*%
X189900000Y-102500000D03*
X189900000Y-100500000D03*
%TD*%
M02*
