%TF.GenerationSoftware,KiCad,Pcbnew,6.0.2+dfsg-1*%
%TF.CreationDate,2023-01-31T14:14:15-05:00*%
%TF.ProjectId,atx-power-fixture,6174782d-706f-4776-9572-2d6669787475,1.0*%
%TF.SameCoordinates,Original*%
%TF.FileFunction,Paste,Top*%
%TF.FilePolarity,Positive*%
%FSLAX46Y46*%
G04 Gerber Fmt 4.6, Leading zero omitted, Abs format (unit mm)*
G04 Created by KiCad (PCBNEW 6.0.2+dfsg-1) date 2023-01-31 14:14:15*
%MOMM*%
%LPD*%
G01*
G04 APERTURE LIST*
G04 Aperture macros list*
%AMRoundRect*
0 Rectangle with rounded corners*
0 $1 Rounding radius*
0 $2 $3 $4 $5 $6 $7 $8 $9 X,Y pos of 4 corners*
0 Add a 4 corners polygon primitive as box body*
4,1,4,$2,$3,$4,$5,$6,$7,$8,$9,$2,$3,0*
0 Add four circle primitives for the rounded corners*
1,1,$1+$1,$2,$3*
1,1,$1+$1,$4,$5*
1,1,$1+$1,$6,$7*
1,1,$1+$1,$8,$9*
0 Add four rect primitives between the rounded corners*
20,1,$1+$1,$2,$3,$4,$5,0*
20,1,$1+$1,$4,$5,$6,$7,0*
20,1,$1+$1,$6,$7,$8,$9,0*
20,1,$1+$1,$8,$9,$2,$3,0*%
G04 Aperture macros list end*
%ADD10R,0.640000X2.000000*%
%ADD11RoundRect,0.250000X0.450000X-0.350000X0.450000X0.350000X-0.450000X0.350000X-0.450000X-0.350000X0*%
%ADD12R,2.000000X0.640000*%
%ADD13RoundRect,0.250000X-0.450000X0.350000X-0.450000X-0.350000X0.450000X-0.350000X0.450000X0.350000X0*%
%ADD14R,2.794000X5.257800*%
%ADD15RoundRect,0.250000X-0.400000X-1.450000X0.400000X-1.450000X0.400000X1.450000X-0.400000X1.450000X0*%
%ADD16RoundRect,0.250000X-0.350000X-0.450000X0.350000X-0.450000X0.350000X0.450000X-0.350000X0.450000X0*%
%ADD17RoundRect,0.150000X-0.587500X-0.150000X0.587500X-0.150000X0.587500X0.150000X-0.587500X0.150000X0*%
%ADD18RoundRect,0.250000X0.350000X0.450000X-0.350000X0.450000X-0.350000X-0.450000X0.350000X-0.450000X0*%
%ADD19R,1.879600X1.879600*%
%ADD20C,1.879600*%
%ADD21RoundRect,0.125000X0.125000X-0.537500X0.125000X0.537500X-0.125000X0.537500X-0.125000X-0.537500X0*%
G04 APERTURE END LIST*
D10*
%TO.C,U7*%
X145130000Y-74250000D03*
X147670000Y-74250000D03*
X147670000Y-67950000D03*
X145130000Y-67950000D03*
%TD*%
D11*
%TO.C,R10*%
X142300000Y-96100000D03*
X142300000Y-94100000D03*
%TD*%
D12*
%TO.C,U4*%
X159250000Y-60630000D03*
X159250000Y-63170000D03*
X165550000Y-63170000D03*
X165550000Y-60630000D03*
%TD*%
D11*
%TO.C,R14*%
X150800000Y-69900000D03*
X150800000Y-67900000D03*
%TD*%
D13*
%TO.C,R5*%
X142600000Y-59300000D03*
X142600000Y-61300000D03*
%TD*%
D14*
%TO.C,R1*%
X122500000Y-89800000D03*
X113584600Y-89800000D03*
%TD*%
D15*
%TO.C,R2*%
X123275000Y-107700000D03*
X127725000Y-107700000D03*
%TD*%
D16*
%TO.C,R8*%
X132425000Y-85900000D03*
X134425000Y-85900000D03*
%TD*%
D12*
%TO.C,U5*%
X159300000Y-67100000D03*
X159300000Y-69640000D03*
X165600000Y-69640000D03*
X165600000Y-67100000D03*
%TD*%
D17*
%TO.C,Q1*%
X199562500Y-54650000D03*
X199562500Y-56550000D03*
X201437500Y-55600000D03*
%TD*%
D10*
%TO.C,U6*%
X152730000Y-74250000D03*
X155270000Y-74250000D03*
X155270000Y-67950000D03*
X152730000Y-67950000D03*
%TD*%
D18*
%TO.C,R12*%
X148000000Y-76800000D03*
X146000000Y-76800000D03*
%TD*%
D16*
%TO.C,R3*%
X131500000Y-96600000D03*
X133500000Y-96600000D03*
%TD*%
D19*
%TO.C,J5*%
X155260000Y-56200000D03*
D20*
X152720000Y-56200000D03*
X150180000Y-56200000D03*
X147640000Y-56200000D03*
X145100000Y-56200000D03*
X142560000Y-56200000D03*
%TD*%
D17*
%TO.C,Q2*%
X137762500Y-96250000D03*
X137762500Y-98150000D03*
X139637500Y-97200000D03*
%TD*%
D13*
%TO.C,R4*%
X147600000Y-59400000D03*
X147600000Y-61400000D03*
%TD*%
D21*
%TO.C,U2*%
X125150000Y-104000000D03*
X125800000Y-104000000D03*
X126450000Y-104000000D03*
X127100000Y-104000000D03*
X127100000Y-101725000D03*
X126450000Y-101725000D03*
X125800000Y-101725000D03*
X125150000Y-101725000D03*
%TD*%
D16*
%TO.C,R6*%
X163515005Y-65116561D03*
X165515005Y-65116561D03*
%TD*%
D18*
%TO.C,R11*%
X155500000Y-76800000D03*
X153500000Y-76800000D03*
%TD*%
D11*
%TO.C,R13*%
X142900000Y-69900000D03*
X142900000Y-67900000D03*
%TD*%
D16*
%TO.C,R7*%
X163700000Y-58600000D03*
X165700000Y-58600000D03*
%TD*%
M02*
