M48
; DRILL file {KiCad 6.0.11-2627ca5db0~126~ubuntu22.04.1} date Tue 14 Feb 2023 11:30:27 PM EST
; FORMAT={-:-/ absolute / inch / decimal}
; #@! TF.CreationDate,2023-02-14T23:30:27-05:00
; #@! TF.GenerationSoftware,Kicad,Pcbnew,6.0.11-2627ca5db0~126~ubuntu22.04.1
; #@! TF.FileFunction,Plated,1,4,PTH
FMAT,2
INCH
; #@! TA.AperFunction,Plated,PTH,ViaDrill
T1C0.0157
; #@! TA.AperFunction,Plated,PTH,ComponentDrill
T2C0.0354
; #@! TA.AperFunction,Plated,PTH,ComponentDrill
T3C0.0394
; #@! TA.AperFunction,Plated,PTH,ComponentDrill
T4C0.0400
; #@! TA.AperFunction,Plated,PTH,ComponentDrill
T5C0.0402
; #@! TA.AperFunction,Plated,PTH,ComponentDrill
T6C0.0520
; #@! TA.AperFunction,Plated,PTH,ComponentDrill
T7C0.0590
; #@! TA.AperFunction,Plated,PTH,ComponentDrill
T8C0.0708
; #@! TA.AperFunction,Plated,PTH,ComponentDrill
T9C0.3150
%
G90
G05
T1
X4.0551Y-3.3268
X4.5945Y-3.5354
X4.9291Y-3.7126
X4.9606Y-3.5354
X4.9764Y-3.8543
X4.9803Y-3.9016
X4.9813Y-4.1457
X5.0394Y-3.1654
X5.0966Y-3.1348
X5.3425Y-3.7638
X5.4173Y-3.937
X5.5354Y-3.7323
X5.6142Y-2.4764
X5.6969Y-3.7874
X5.8138Y-2.8004
X5.815Y-2.4803
X5.9016Y-3.0236
X6.113Y-2.802
X6.1614Y-2.3858
X6.189Y-2.6496
X6.2008Y-3.0197
X6.3949Y-2.487
X6.3953Y-2.7417
X6.5906Y-2.563
X7.4409Y-2.2913
T2
X5.2559Y-3.9157
X5.2559Y-4.0157
T3
X4.4724Y-4.2441
X4.6724Y-4.2441
X4.7945Y-2.2657
X4.8945Y-2.2657
X4.9945Y-2.2657
X5.0945Y-2.2657
T4
X4.5417Y-3.8346
X4.6417Y-3.8346
X4.7417Y-3.8346
X5.1835Y-3.5512
X5.2835Y-3.5512
X5.3835Y-3.5512
X5.6126Y-2.2126
X5.7126Y-2.2126
X5.8126Y-2.2126
X5.9126Y-2.2126
X6.0126Y-2.2126
X6.1126Y-2.2126
T5
X6.8783Y-2.1287
X6.8783Y-2.2287
X6.8783Y-2.3287
X6.8783Y-2.4287
X6.8783Y-2.5287
X6.8783Y-2.6287
X6.8783Y-2.7287
X6.8783Y-2.8287
X6.8783Y-2.9287
X6.8783Y-3.0287
X6.8783Y-3.1287
X6.8783Y-3.2287
X6.8783Y-3.3287
X6.8783Y-3.4287
X6.8783Y-3.5287
X6.8783Y-3.6287
X6.8783Y-3.7287
X6.8783Y-3.8287
X6.8783Y-3.9287
X6.8783Y-4.0287
X7.2513Y-3.2992
X7.3513Y-3.2992
X7.4513Y-3.2992
X7.5783Y-2.1287
X7.5783Y-2.2287
X7.5783Y-2.3287
X7.5783Y-2.4287
X7.5783Y-2.5287
X7.5783Y-2.6287
X7.5783Y-2.7287
X7.5783Y-2.8287
X7.5783Y-2.9287
X7.5783Y-3.0287
X7.5783Y-3.1287
X7.5783Y-3.2287
X7.5783Y-3.3287
X7.5783Y-3.4287
X7.5783Y-3.5287
X7.5783Y-3.6287
X7.5783Y-3.7287
X7.5783Y-3.8287
X7.5783Y-3.9287
X7.5783Y-4.0287
T6
X5.9016Y-3.2795
X5.9016Y-3.4764
T7
X5.3099Y-4.2423
X6.5051Y-4.248
T8
X4.0472Y-2.4647
X4.0472Y-2.6301
X4.0472Y-2.7954
X4.0472Y-2.9608
X4.0472Y-3.1261
X4.0472Y-3.2915
X4.0472Y-3.4567
X4.0472Y-3.6221
X4.0472Y-3.7874
X4.0472Y-3.9528
X4.0472Y-4.1181
X4.0472Y-4.2835
X4.2637Y-2.4647
X4.2637Y-2.6301
X4.2637Y-2.7954
X4.2637Y-2.9608
X4.2637Y-3.1261
X4.2637Y-3.2915
X4.2637Y-3.4567
X4.2637Y-3.6221
X4.2637Y-3.7874
X4.2637Y-3.9528
X4.2637Y-4.1181
X4.2637Y-4.2835
T9
X5.6099Y-4.2443
X6.2051Y-4.246
T0
M30
