M48
; DRILL file {KiCad 6.0.11-2627ca5db0~126~ubuntu22.04.1} date Mon 06 Mar 2023 07:17:35 PM EST
; FORMAT={-:-/ absolute / inch / decimal}
; #@! TF.CreationDate,2023-03-06T19:17:35-05:00
; #@! TF.GenerationSoftware,Kicad,Pcbnew,6.0.11-2627ca5db0~126~ubuntu22.04.1
; #@! TF.FileFunction,Plated,1,4,PTH
FMAT,2
INCH
; #@! TA.AperFunction,Plated,PTH,ViaDrill
T1C0.0157
; #@! TA.AperFunction,Plated,PTH,ComponentDrill
T2C0.0197
; #@! TA.AperFunction,Plated,PTH,ComponentDrill
T3C0.0217
; #@! TA.AperFunction,Plated,PTH,ComponentDrill
T4C0.0354
; #@! TA.AperFunction,Plated,PTH,ComponentDrill
T5C0.0394
; #@! TA.AperFunction,Plated,PTH,ComponentDrill
T6C0.0400
; #@! TA.AperFunction,Plated,PTH,ComponentDrill
T7C0.0433
; #@! TA.AperFunction,Plated,PTH,ComponentDrill
T8C0.0590
; #@! TA.AperFunction,Plated,PTH,ComponentDrill
T9C0.0708
; #@! TA.AperFunction,Plated,PTH,ComponentDrill
T10C0.3150
%
G90
G05
T1
X4.0551Y-3.3268
X4.5945Y-3.5354
X4.9291Y-3.7126
X4.9606Y-3.5354
X4.9764Y-3.8543
X4.9803Y-3.9016
X4.9813Y-4.1457
X5.0394Y-3.463
X5.0945Y-3.4102
X5.3425Y-3.7638
X5.4173Y-3.937
X5.4528Y-3.3673
X5.4764Y-3.3358
X5.5154Y-3.4213
X5.5169Y-3.5016
X5.5354Y-3.7323
X5.6421Y-3.4839
X5.6453Y-3.5311
X5.6492Y-3.3815
X5.6969Y-3.7874
X5.7118Y-3.3709
X5.7476Y-3.7228
X5.802Y-3.2709
X5.8622Y-3.3803
X5.8724Y-3.5035
X5.8839Y-3.4161
X5.8874Y-3.4638
X6.0116Y-3.3907
X6.0157Y-2.7402
X6.0803Y-3.1783
X6.1035Y-2.9634
X6.1404Y-2.7404
X6.2386Y-2.9437
X6.4079Y-3.4736
X6.4087Y-3.4264
T4
X5.2559Y-3.9157
X5.2559Y-4.0157
T5
X4.4724Y-4.2441
X4.6724Y-4.2441
X4.7945Y-2.2657
X4.8945Y-2.2657
X4.9945Y-2.2657
X5.0945Y-2.2657
X6.3685Y-3.0795
X6.3685Y-3.1795
X6.3685Y-3.2795
T6
X4.5417Y-3.8346
X4.6417Y-3.8346
X4.7417Y-3.8346
X5.1835Y-3.5512
X5.2835Y-3.5512
X5.3835Y-3.5512
X5.561Y-2.985
X5.561Y-3.163
X5.6126Y-2.2126
X5.7126Y-2.2126
X5.8126Y-2.2126
X5.817Y-2.985
X5.817Y-3.163
X5.9126Y-2.2126
X5.95Y-3.1429
X5.95Y-3.3209
X6.0126Y-2.2126
X6.1126Y-2.2126
X6.206Y-3.1429
X6.206Y-3.3209
T7
X6.1961Y-3.6921
X6.1961Y-3.7921
T8
X5.3099Y-4.2423
X6.5051Y-4.248
T9
X4.0472Y-2.4647
X4.0472Y-2.6301
X4.0472Y-2.7954
X4.0472Y-2.9608
X4.0472Y-3.1261
X4.0472Y-3.2915
X4.0472Y-3.4567
X4.0472Y-3.6221
X4.0472Y-3.7874
X4.0472Y-3.9528
X4.0472Y-4.1181
X4.0472Y-4.2835
X4.2637Y-2.4647
X4.2637Y-2.6301
X4.2637Y-2.7954
X4.2637Y-2.9608
X4.2637Y-3.1261
X4.2637Y-3.2915
X4.2637Y-3.4567
X4.2637Y-3.6221
X4.2637Y-3.7874
X4.2637Y-3.9528
X4.2637Y-4.1181
X4.2637Y-4.2835
T10
X5.6099Y-4.2443
X6.2051Y-4.246
T2
G00X6.6128Y-3.2969
M15
G01X6.6384Y-3.2969
M16
G05
G00X6.6128Y-3.5724
M15
G01X6.6384Y-3.5724
M16
G05
T3
G00X6.5193Y-3.3421
M15
G01X6.5193Y-3.3303
M16
G05
G00X6.5193Y-3.539
M15
G01X6.5193Y-3.5272
M16
G05
T0
M30
